<?xml version="1.0" encoding="UTF-8"?>
<svg xmlns="http://www.w3.org/2000/svg" xmlns:xlink="http://www.w3.org/1999/xlink" width="72.42486pt" height="53.171528pt" viewBox="0 0 72.42486 53.171528" version="1.1">
<g id="surface1">
<path style="fill:none;stroke-width:0.1;stroke-linecap:round;stroke-linejoin:round;stroke:rgb(0%,0%,0%);stroke-opacity:1;stroke-miterlimit:4;" d="M 0.049863 0.0000610068 L 9.347244 0.0000610068 " transform="matrix(6.218149,0,0,6.218149,4.561038,32.409777)"/>
<path style="fill:none;stroke-width:0.1;stroke-linecap:round;stroke-linejoin:round;stroke:rgb(0%,0%,0%);stroke-opacity:1;stroke-miterlimit:4;" d="M 0.049863 -0.0000356418 L 9.347244 -0.0000356418 " transform="matrix(6.218149,0,0,6.218149,4.561038,26.191628)"/>
<path style="fill:none;stroke-width:0.1;stroke-linecap:round;stroke-linejoin:round;stroke:rgb(0%,0%,0%);stroke-opacity:1;stroke-miterlimit:4;" d="M 0.049863 -0.00013229 L 9.347244 -0.00013229 " transform="matrix(6.218149,0,0,6.218149,4.561038,19.973479)"/>
<path style="fill:none;stroke-width:0.1;stroke-linecap:round;stroke-linejoin:round;stroke:rgb(0%,0%,0%);stroke-opacity:1;stroke-miterlimit:4;" d="M 0.049863 -0.000228939 L 9.347244 -0.000228939 " transform="matrix(6.218149,0,0,6.218149,4.561038,13.75533)"/>
<path style="fill:none;stroke-width:0.1;stroke-linecap:round;stroke-linejoin:round;stroke:rgb(0%,0%,0%);stroke-opacity:1;stroke-miterlimit:4;" d="M 0.049863 0.000302495 L 9.347244 0.000302495 " transform="matrix(6.218149,0,0,6.218149,4.561038,7.537182)"/>
<path style=" stroke:none;fill-rule:nonzero;fill:rgb(0%,0%,0%);fill-opacity:1;" d="M 44.574219 14.914062 L 44.886719 14.914062 C 45.023438 14.914062 45.136719 15.023438 45.136719 15.160156 L 45.136719 44.597656 C 45.136719 44.734375 45.023438 44.847656 44.886719 44.847656 L 44.574219 44.847656 C 44.4375 44.847656 44.328125 44.734375 44.328125 44.597656 L 44.328125 15.160156 C 44.328125 15.023438 44.4375 14.914062 44.574219 14.914062 Z M 44.574219 14.914062 "/>
<path style=" stroke:none;fill-rule:nonzero;fill:rgb(0%,0%,0%);fill-opacity:1;" d="M 40.683594 21.515625 C 40.683594 21.765625 40.484375 21.988281 40.234375 21.988281 C 39.988281 21.988281 39.761719 21.765625 39.761719 21.515625 L 39.761719 17.910156 L 37.699219 18.679688 L 37.699219 22.609375 C 37.699219 22.859375 37.472656 23.082031 37.226562 23.082031 C 36.976562 23.082031 36.777344 22.859375 36.777344 22.609375 L 36.777344 19.003906 L 35.980469 19.300781 C 35.933594 19.328125 35.859375 19.328125 35.808594 19.328125 C 35.535156 19.328125 35.308594 19.101562 35.308594 18.828125 L 35.308594 17.335938 C 35.308594 17.136719 35.433594 16.9375 35.632812 16.863281 L 36.777344 16.464844 L 36.777344 12.488281 L 35.980469 12.761719 C 35.933594 12.785156 35.859375 12.785156 35.808594 12.785156 C 35.535156 12.785156 35.308594 12.5625 35.308594 12.289062 L 35.308594 10.796875 C 35.308594 10.597656 35.433594 10.421875 35.632812 10.347656 L 36.777344 9.925781 L 36.777344 5.996094 C 36.777344 5.746094 36.976562 5.523438 37.226562 5.523438 C 37.472656 5.523438 37.699219 5.746094 37.699219 5.996094 L 37.699219 9.601562 L 39.761719 8.832031 L 39.761719 4.902344 C 39.761719 4.652344 39.988281 4.429688 40.234375 4.429688 C 40.484375 4.429688 40.683594 4.652344 40.683594 4.902344 L 40.683594 8.507812 L 41.480469 8.207031 C 41.527344 8.183594 41.601562 8.183594 41.652344 8.183594 C 41.925781 8.183594 42.148438 8.40625 42.148438 8.679688 L 42.148438 10.171875 C 42.148438 10.371094 42.027344 10.570312 41.828125 10.644531 L 40.683594 11.042969 L 40.683594 15.023438 L 41.480469 14.75 C 41.527344 14.726562 41.601562 14.726562 41.652344 14.726562 C 41.925781 14.726562 42.148438 14.949219 42.148438 15.222656 L 42.148438 16.714844 C 42.148438 16.914062 42.027344 17.089844 41.828125 17.164062 L 40.683594 17.585938 Z M 37.699219 12.136719 L 37.699219 16.117188 L 39.761719 15.371094 L 39.761719 11.390625 Z M 37.699219 12.136719 "/>
<path style=" stroke:none;fill-rule:nonzero;fill:rgb(0%,0%,0%);fill-opacity:1;" d="M 31.371094 25.171875 L 31.34375 26.8125 L 31.34375 27.085938 C 31.34375 27.632812 31.371094 28.179688 31.445312 28.730469 C 32.5625 27.785156 33.757812 26.738281 33.757812 25.269531 C 33.757812 24.449219 33.410156 23.605469 32.6875 23.605469 C 31.917969 23.605469 31.394531 24.351562 31.371094 25.171875 Z M 30.324219 29.625 L 30.027344 14.824219 C 30.226562 14.699219 30.472656 14.625 30.699219 14.625 C 30.921875 14.625 31.171875 14.699219 31.371094 14.824219 L 31.195312 23.40625 C 31.816406 22.882812 32.636719 22.558594 33.460938 22.558594 C 34.753906 22.558594 35.671875 23.753906 35.671875 25.097656 C 35.671875 27.085938 33.535156 28.007812 32.015625 29.300781 C 31.644531 29.625 31.417969 30.246094 30.898438 30.246094 C 30.574219 30.246094 30.324219 29.972656 30.324219 29.625 Z M 30.324219 29.625 "/>
<path style=" stroke:none;fill-rule:nonzero;fill:rgb(0%,0%,0%);fill-opacity:1;" d="M 23.390625 16.863281 C 23.390625 16.167969 23.960938 15.597656 24.65625 15.597656 C 25.355469 15.597656 25.925781 16.167969 25.925781 16.863281 C 25.925781 17.5625 25.355469 18.132812 24.65625 18.132812 C 23.960938 18.132812 23.390625 17.5625 23.390625 16.863281 Z M 23.390625 10.644531 C 23.390625 9.949219 23.960938 9.378906 24.65625 9.378906 C 25.355469 9.378906 25.925781 9.949219 25.925781 10.644531 C 25.925781 11.34375 25.355469 11.914062 24.65625 11.914062 C 23.960938 11.914062 23.390625 11.34375 23.390625 10.644531 Z M 15.304688 7.214844 C 19.585938 7.214844 22.59375 9.402344 22.59375 13.457031 C 22.59375 20 16.050781 23.753906 9.757812 26.414062 C 9.683594 26.488281 9.609375 26.515625 9.535156 26.515625 C 9.363281 26.515625 9.210938 26.367188 9.210938 26.191406 C 9.210938 26.117188 9.238281 26.042969 9.3125 25.96875 C 14.335938 23.03125 19.558594 19.375 19.558594 13.707031 C 19.558594 10.722656 17.992188 7.859375 15.304688 7.859375 C 13.464844 7.859375 12.097656 9.203125 11.476562 10.996094 C 11.75 10.871094 12.023438 10.796875 12.320312 10.796875 C 13.6875 10.796875 14.808594 11.914062 14.808594 13.28125 C 14.808594 14.726562 13.714844 15.917969 12.320312 15.917969 C 10.828125 15.917969 9.535156 14.75 9.535156 13.28125 C 9.535156 9.976562 12.074219 7.214844 15.304688 7.214844 Z M 15.304688 7.214844 "/>
<path style=" stroke:none;fill-rule:nonzero;fill:rgb(0%,0%,0%);fill-opacity:1;" d="M 49.75 10.371094 C 51.117188 10.371094 52.433594 11.070312 52.433594 12.585938 C 52.433594 14.351562 51.066406 15.597656 49.898438 16.292969 C 49.027344 16.816406 48.03125 17.136719 47.011719 17.136719 C 45.644531 17.136719 44.328125 16.441406 44.328125 14.925781 C 44.328125 13.160156 45.695312 11.914062 46.863281 11.21875 C 47.734375 10.695312 48.730469 10.371094 49.75 10.371094 Z M 49.75 10.371094 "/>
<path style=" stroke:none;fill-rule:nonzero;fill:rgb(0%,0%,0%);fill-opacity:1;" d="M 49.75 16.589844 C 51.117188 16.589844 52.433594 17.289062 52.433594 18.804688 C 52.433594 20.570312 51.066406 21.8125 49.898438 22.511719 C 49.027344 23.03125 48.03125 23.355469 47.011719 23.355469 C 45.644531 23.355469 44.328125 22.660156 44.328125 21.140625 C 44.328125 19.375 45.695312 18.132812 46.863281 17.4375 C 47.734375 16.914062 48.730469 16.589844 49.75 16.589844 Z M 49.75 16.589844 "/>
<path style=" stroke:none;fill-rule:nonzero;fill:rgb(0%,0%,0%);fill-opacity:1;" d="M 49.75 22.808594 C 51.117188 22.808594 52.433594 23.503906 52.433594 25.023438 C 52.433594 26.789062 51.066406 28.03125 49.898438 28.730469 C 49.027344 29.25 48.03125 29.574219 47.011719 29.574219 C 45.644531 29.574219 44.328125 28.878906 44.328125 27.359375 C 44.328125 25.59375 45.695312 24.351562 46.863281 23.65625 C 47.734375 23.132812 48.730469 22.808594 49.75 22.808594 Z M 49.75 22.808594 "/>
</g>
</svg>
