<?xml version="1.0" encoding="UTF-8"?>
<svg xmlns="http://www.w3.org/2000/svg" xmlns:xlink="http://www.w3.org/1999/xlink" width="81.189345pt" height="58.61114pt" viewBox="0 0 81.189345 58.61114" version="1.1">
<g id="surface1">
<path style="fill:none;stroke-width:0.1;stroke-linecap:round;stroke-linejoin:round;stroke:rgb(0%,0%,0%);stroke-opacity:1;stroke-miterlimit:4;" d="M 0.049863 -0.000287501 L 10.667095 -0.000287501 " transform="matrix(6.218149,0,0,6.218149,4.561038,40.517413)"/>
<path style="fill:none;stroke-width:0.1;stroke-linecap:round;stroke-linejoin:round;stroke:rgb(0%,0%,0%);stroke-opacity:1;stroke-miterlimit:4;" d="M 0.049863 0.000244052 L 10.667095 0.000244052 " transform="matrix(6.218149,0,0,6.218149,4.561038,34.299264)"/>
<path style="fill:none;stroke-width:0.1;stroke-linecap:round;stroke-linejoin:round;stroke:rgb(0%,0%,0%);stroke-opacity:1;stroke-miterlimit:4;" d="M 0.049863 0.000147403 L 10.667095 0.000147403 " transform="matrix(6.218149,0,0,6.218149,4.561038,28.081115)"/>
<path style="fill:none;stroke-width:0.1;stroke-linecap:round;stroke-linejoin:round;stroke:rgb(0%,0%,0%);stroke-opacity:1;stroke-miterlimit:4;" d="M 0.049863 0.0000507548 L 10.667095 0.0000507548 " transform="matrix(6.218149,0,0,6.218149,4.561038,21.862966)"/>
<path style="fill:none;stroke-width:0.1;stroke-linecap:round;stroke-linejoin:round;stroke:rgb(0%,0%,0%);stroke-opacity:1;stroke-miterlimit:4;" d="M 0.049863 -0.0000458938 L 10.667095 -0.0000458938 " transform="matrix(6.218149,0,0,6.218149,4.561038,15.644817)"/>
<path style=" stroke:none;fill-rule:nonzero;fill:rgb(0%,0%,0%);fill-opacity:1;" d="M 51.917969 8.804688 L 62.046875 8.804688 C 62.390625 8.804688 62.667969 9.082031 62.667969 9.425781 C 62.667969 9.769531 62.390625 10.046875 62.046875 10.046875 L 51.917969 10.046875 C 51.574219 10.046875 51.296875 9.769531 51.296875 9.425781 C 51.296875 9.082031 51.574219 8.804688 51.917969 8.804688 Z M 51.917969 8.804688 "/>
<path style=" stroke:none;fill-rule:nonzero;fill:rgb(0%,0%,0%);fill-opacity:1;" d="M 52.78125 10.582031 L 53.09375 10.582031 C 53.230469 10.582031 53.339844 10.695312 53.339844 10.832031 L 53.339844 43.378906 C 53.339844 43.515625 53.230469 43.625 53.09375 43.625 L 52.78125 43.625 C 52.644531 43.625 52.53125 43.515625 52.53125 43.378906 L 52.53125 10.832031 C 52.53125 10.695312 52.644531 10.582031 52.78125 10.582031 Z M 52.78125 10.582031 "/>
<path style=" stroke:none;fill-rule:nonzero;fill:rgb(0%,0%,0%);fill-opacity:1;" d="M 47.621094 9.425781 C 48.195312 10 49.015625 10.125 49.835938 10.125 C 49.984375 10.125 50.085938 10.222656 50.085938 10.371094 L 50.308594 12.535156 C 50.332031 12.683594 50.207031 12.808594 50.058594 12.785156 L 47.894531 12.5625 C 47.769531 12.535156 47.648438 12.4375 47.648438 12.3125 C 47.648438 11.492188 47.523438 10.671875 46.949219 10.097656 C 46.378906 10.671875 46.277344 11.492188 46.277344 12.3125 C 46.277344 12.4375 46.152344 12.535156 46.03125 12.5625 L 43.839844 12.785156 C 43.691406 12.808594 43.566406 12.683594 43.59375 12.535156 L 43.816406 10.371094 C 43.816406 10.222656 43.914062 10.125 44.066406 10.125 C 44.886719 10.125 45.707031 10 46.277344 9.425781 C 45.707031 8.855469 44.886719 8.730469 44.066406 8.730469 C 43.914062 8.730469 43.816406 8.628906 43.816406 8.480469 L 43.59375 6.316406 C 43.566406 6.167969 43.691406 6.042969 43.839844 6.070312 L 46.03125 6.292969 C 46.152344 6.316406 46.253906 6.417969 46.253906 6.542969 C 46.253906 7.363281 46.378906 8.183594 46.949219 8.753906 C 47.523438 8.183594 47.648438 7.363281 47.648438 6.542969 C 47.648438 6.417969 47.769531 6.316406 47.894531 6.292969 L 50.058594 6.070312 C 50.207031 6.042969 50.332031 6.167969 50.308594 6.316406 L 50.085938 8.480469 C 50.085938 8.628906 49.984375 8.730469 49.835938 8.730469 C 49.015625 8.730469 48.195312 8.855469 47.621094 9.425781 Z M 47.621094 9.425781 "/>
<path style=" stroke:none;fill-rule:nonzero;fill:rgb(0%,0%,0%);fill-opacity:1;" d="M 32.996094 15.644531 C 33.570312 16.21875 34.390625 16.339844 35.210938 16.339844 C 35.359375 16.339844 35.460938 16.441406 35.460938 16.589844 L 35.683594 18.753906 C 35.707031 18.902344 35.582031 19.027344 35.433594 19.003906 L 33.269531 18.777344 C 33.144531 18.753906 33.023438 18.65625 33.023438 18.53125 C 33.023438 17.710938 32.898438 16.886719 32.324219 16.316406 C 31.753906 16.886719 31.652344 17.710938 31.652344 18.53125 C 31.652344 18.65625 31.527344 18.753906 31.40625 18.777344 L 29.214844 19.003906 C 29.066406 19.027344 28.941406 18.902344 28.96875 18.753906 L 29.191406 16.589844 C 29.191406 16.441406 29.289062 16.339844 29.441406 16.339844 C 30.261719 16.339844 31.082031 16.21875 31.652344 15.644531 C 31.082031 15.074219 30.261719 14.949219 29.441406 14.949219 C 29.289062 14.949219 29.191406 14.847656 29.191406 14.699219 L 28.96875 12.535156 C 28.941406 12.386719 29.066406 12.261719 29.214844 12.285156 L 31.40625 12.511719 C 31.527344 12.535156 31.628906 12.636719 31.628906 12.757812 C 31.628906 13.582031 31.753906 14.402344 32.324219 14.972656 C 32.898438 14.402344 33.023438 13.582031 33.023438 12.757812 C 33.023438 12.636719 33.144531 12.535156 33.269531 12.511719 L 35.433594 12.285156 C 35.582031 12.261719 35.707031 12.386719 35.683594 12.535156 L 35.460938 14.699219 C 35.460938 14.847656 35.359375 14.949219 35.210938 14.949219 C 34.390625 14.949219 33.570312 15.074219 32.996094 15.644531 Z M 32.996094 15.644531 "/>
<path style=" stroke:none;fill-rule:nonzero;fill:rgb(0%,0%,0%);fill-opacity:1;" d="M 42.347656 29.625 C 42.347656 29.871094 42.148438 30.097656 41.898438 30.097656 C 41.652344 30.097656 41.425781 29.871094 41.425781 29.625 L 41.425781 26.015625 L 39.363281 26.789062 L 39.363281 30.71875 C 39.363281 30.964844 39.136719 31.191406 38.890625 31.191406 C 38.640625 31.191406 38.441406 30.964844 38.441406 30.71875 L 38.441406 27.109375 L 37.644531 27.410156 C 37.597656 27.433594 37.523438 27.433594 37.472656 27.433594 C 37.199219 27.433594 36.972656 27.210938 36.972656 26.9375 L 36.972656 25.445312 C 36.972656 25.246094 37.097656 25.046875 37.296875 24.972656 L 38.441406 24.574219 L 38.441406 20.59375 L 37.644531 20.867188 C 37.597656 20.894531 37.523438 20.894531 37.472656 20.894531 C 37.199219 20.894531 36.972656 20.667969 36.972656 20.394531 L 36.972656 18.902344 C 36.972656 18.703125 37.097656 18.53125 37.296875 18.457031 L 38.441406 18.03125 L 38.441406 14.101562 C 38.441406 13.855469 38.640625 13.628906 38.890625 13.628906 C 39.136719 13.628906 39.363281 13.855469 39.363281 14.101562 L 39.363281 17.710938 L 41.425781 16.9375 L 41.425781 13.007812 C 41.425781 12.757812 41.652344 12.535156 41.898438 12.535156 C 42.148438 12.535156 42.347656 12.757812 42.347656 13.007812 L 42.347656 16.613281 L 43.144531 16.316406 C 43.191406 16.292969 43.265625 16.292969 43.316406 16.292969 C 43.589844 16.292969 43.8125 16.515625 43.8125 16.789062 L 43.8125 18.28125 C 43.8125 18.480469 43.691406 18.679688 43.492188 18.753906 L 42.347656 19.152344 L 42.347656 23.132812 L 43.144531 22.859375 C 43.191406 22.832031 43.265625 22.832031 43.316406 22.832031 C 43.589844 22.832031 43.8125 23.058594 43.8125 23.332031 L 43.8125 24.824219 C 43.8125 25.023438 43.691406 25.195312 43.492188 25.269531 L 42.347656 25.691406 Z M 39.363281 20.246094 L 39.363281 24.226562 L 41.425781 23.480469 L 41.425781 19.5 Z M 39.363281 20.246094 "/>
<path style=" stroke:none;fill-rule:nonzero;fill:rgb(0%,0%,0%);fill-opacity:1;" d="M 16.152344 50.09375 L 16.003906 50.09375 C 13.316406 50.09375 11.152344 47.90625 11.152344 45.195312 C 11.152344 43.75 12.46875 42.632812 13.9375 42.632812 C 15.28125 42.632812 16.300781 43.800781 16.300781 45.195312 C 16.300781 46.488281 15.230469 47.554688 13.9375 47.554688 C 13.664062 47.554688 13.414062 47.507812 13.167969 47.40625 C 13.8125 48.378906 14.859375 49.023438 16.078125 49.023438 L 16.175781 49.023438 Z M 21 39.347656 C 22.691406 38.75 23.8125 36.984375 23.8125 35.269531 C 23.8125 33.03125 22.171875 30.816406 19.507812 30.542969 C 20.105469 33.429688 20.652344 36.289062 21 39.347656 Z M 11.375 33.601562 C 11.375 36.960938 14.585938 39.746094 17.941406 39.746094 C 18.640625 39.746094 19.308594 39.695312 19.980469 39.597656 C 19.632812 36.4375 19.0625 33.503906 18.414062 30.542969 C 16.449219 30.742188 15.332031 32.0625 15.332031 33.503906 C 15.332031 34.597656 15.953125 35.765625 17.34375 36.5625 C 17.46875 36.6875 17.519531 36.8125 17.519531 36.9375 C 17.519531 37.210938 17.269531 37.484375 16.972656 37.484375 C 16.898438 37.484375 16.824219 37.457031 16.75 37.433594 C 14.757812 36.363281 13.839844 34.574219 13.839844 32.832031 C 13.839844 30.644531 15.28125 28.503906 17.816406 27.933594 C 17.46875 26.488281 17.097656 25.023438 16.675781 23.578125 C 14.011719 26.589844 11.375 29.625 11.375 33.601562 Z M 17.867188 40.816406 C 13.191406 40.816406 9.585938 36.539062 9.585938 31.511719 C 9.585938 27.109375 12.84375 23.902344 15.753906 20.542969 C 15.28125 19.003906 14.832031 17.4375 14.632812 15.820312 C 14.484375 14.527344 14.460938 13.230469 14.460938 11.9375 C 14.460938 9.078125 15.828125 6.367188 18.167969 4.675781 C 18.316406 4.550781 18.515625 4.550781 18.664062 4.675781 C 20.429688 6.765625 21.972656 10.769531 21.972656 13.582031 C 21.972656 17.136719 19.832031 19.921875 17.496094 22.632812 C 18.015625 24.324219 18.464844 26.066406 18.886719 27.78125 C 18.988281 27.78125 19.113281 27.757812 19.210938 27.757812 C 23.066406 27.757812 25.578125 30.941406 25.578125 34.25 C 25.578125 36.140625 24.757812 38.078125 22.917969 39.472656 C 22.371094 39.894531 21.746094 40.167969 21.101562 40.367188 C 21.175781 41.238281 21.226562 42.109375 21.226562 42.980469 C 21.226562 43.453125 21.199219 43.949219 21.175781 44.421875 C 21 47.382812 18.988281 50.019531 16.152344 50.09375 L 16.175781 49.023438 C 18.488281 48.972656 19.980469 46.734375 20.132812 44.273438 C 20.15625 43.824219 20.179688 43.351562 20.179688 42.90625 C 20.179688 42.132812 20.15625 41.386719 20.082031 40.617188 C 19.359375 40.742188 18.640625 40.816406 17.867188 40.816406 Z M 20.179688 11.515625 C 20.179688 10.148438 20.082031 9.550781 19.683594 8.308594 C 17.222656 9.5 15.652344 12.011719 15.652344 14.75 C 15.652344 16.589844 16.101562 18.058594 16.550781 19.574219 C 18.539062 17.160156 20.179688 14.648438 20.179688 11.515625 Z M 20.179688 11.515625 "/>
<path style=" stroke:none;fill-rule:nonzero;fill:rgb(0%,0%,0%);fill-opacity:1;" d="M 57.953125 6.042969 C 59.324219 6.042969 60.640625 6.742188 60.640625 8.257812 C 60.640625 10.023438 59.273438 11.265625 58.105469 11.964844 C 57.234375 12.484375 56.238281 12.808594 55.21875 12.808594 C 53.851562 12.808594 52.53125 12.113281 52.53125 10.59375 C 52.53125 8.828125 53.898438 7.585938 55.070312 6.890625 C 55.941406 6.367188 56.933594 6.042969 57.953125 6.042969 Z M 57.953125 6.042969 "/>
<path style=" stroke:none;fill-rule:nonzero;fill:rgb(0%,0%,0%);fill-opacity:1;" d="M 57.953125 12.261719 C 59.324219 12.261719 60.640625 12.957031 60.640625 14.476562 C 60.640625 16.242188 59.273438 17.484375 58.105469 18.183594 C 57.234375 18.703125 56.238281 19.027344 55.21875 19.027344 C 53.851562 19.027344 52.53125 18.332031 52.53125 16.8125 C 52.53125 15.046875 53.898438 13.804688 55.070312 13.109375 C 55.941406 12.585938 56.933594 12.261719 57.953125 12.261719 Z M 57.953125 12.261719 "/>
<path style=" stroke:none;fill-rule:nonzero;fill:rgb(0%,0%,0%);fill-opacity:1;" d="M 57.953125 18.480469 C 59.324219 18.480469 60.640625 19.175781 60.640625 20.695312 C 60.640625 22.460938 59.273438 23.703125 58.105469 24.398438 C 57.234375 24.921875 56.238281 25.246094 55.21875 25.246094 C 53.851562 25.246094 52.53125 24.550781 52.53125 23.03125 C 52.53125 21.265625 53.898438 20.023438 55.070312 19.324219 C 55.941406 18.804688 56.933594 18.480469 57.953125 18.480469 Z M 57.953125 18.480469 "/>
</g>
</svg>
