<?xml version="1.0" encoding="UTF-8"?>
<svg xmlns="http://www.w3.org/2000/svg" xmlns:xlink="http://www.w3.org/1999/xlink" width="72.54574pt" height="50.196013pt" viewBox="0 0 72.54574 50.196013" version="1.1">
<g id="surface1">
<path style="fill:none;stroke-width:0.1;stroke-linecap:round;stroke-linejoin:round;stroke:rgb(0%,0%,0%);stroke-opacity:1;stroke-miterlimit:4;" d="M 0.049863 -0.0001075 L 9.365462 -0.0001075 " transform="matrix(6.218149,0,0,6.218149,4.561038,29.434262)"/>
<path style="fill:none;stroke-width:0.1;stroke-linecap:round;stroke-linejoin:round;stroke:rgb(0%,0%,0%);stroke-opacity:1;stroke-miterlimit:4;" d="M 0.049863 -0.000204149 L 9.365462 -0.000204149 " transform="matrix(6.218149,0,0,6.218149,4.561038,23.216113)"/>
<path style="fill:none;stroke-width:0.1;stroke-linecap:round;stroke-linejoin:round;stroke:rgb(0%,0%,0%);stroke-opacity:1;stroke-miterlimit:4;" d="M 0.049863 -0.000300797 L 9.365462 -0.000300797 " transform="matrix(6.218149,0,0,6.218149,4.561038,16.997964)"/>
<path style="fill:none;stroke-width:0.1;stroke-linecap:round;stroke-linejoin:round;stroke:rgb(0%,0%,0%);stroke-opacity:1;stroke-miterlimit:4;" d="M 0.049863 0.000230756 L 9.365462 0.000230756 " transform="matrix(6.218149,0,0,6.218149,4.561038,10.779815)"/>
<path style="fill:none;stroke-width:0.1;stroke-linecap:round;stroke-linejoin:round;stroke:rgb(0%,0%,0%);stroke-opacity:1;stroke-miterlimit:4;" d="M 0.049863 0.000133988 L 9.365462 0.000133988 " transform="matrix(6.218149,0,0,6.218149,4.561038,4.561667)"/>
<path style=" stroke:none;fill-rule:nonzero;fill:rgb(0%,0%,0%);fill-opacity:1;" d="M 44.6875 11.9375 L 45 11.9375 C 45.136719 11.9375 45.25 12.046875 45.25 12.1875 L 45.25 41.621094 C 45.25 41.757812 45.136719 41.871094 45 41.871094 L 44.6875 41.871094 C 44.550781 41.871094 44.441406 41.757812 44.441406 41.621094 L 44.441406 12.1875 C 44.441406 12.046875 44.550781 11.9375 44.6875 11.9375 Z M 44.6875 11.9375 "/>
<path style=" stroke:none;fill-rule:nonzero;fill:rgb(0%,0%,0%);fill-opacity:1;" d="M 37.960938 15.976562 L 37.9375 17.621094 L 37.9375 17.894531 C 37.9375 18.441406 37.960938 18.988281 38.035156 19.535156 C 39.15625 18.589844 40.347656 17.546875 40.347656 16.078125 C 40.347656 15.257812 40 14.410156 39.28125 14.410156 C 38.507812 14.410156 37.984375 15.15625 37.960938 15.976562 Z M 36.917969 20.429688 L 36.617188 5.632812 C 36.816406 5.507812 37.066406 5.433594 37.289062 5.433594 C 37.511719 5.433594 37.761719 5.507812 37.960938 5.632812 L 37.785156 14.210938 C 38.410156 13.691406 39.230469 13.367188 40.050781 13.367188 C 41.34375 13.367188 42.265625 14.558594 42.265625 15.902344 C 42.265625 17.894531 40.125 18.8125 38.609375 20.105469 C 38.234375 20.429688 38.011719 21.050781 37.488281 21.050781 C 37.164062 21.050781 36.917969 20.777344 36.917969 20.429688 Z M 36.917969 20.429688 "/>
<path style=" stroke:none;fill-rule:nonzero;fill:rgb(0%,0%,0%);fill-opacity:1;" d="M 31.371094 22.195312 L 31.34375 23.839844 L 31.34375 24.113281 C 31.34375 24.660156 31.371094 25.207031 31.445312 25.753906 C 32.5625 24.808594 33.757812 23.761719 33.757812 22.296875 C 33.757812 21.476562 33.410156 20.628906 32.6875 20.628906 C 31.917969 20.628906 31.394531 21.375 31.371094 22.195312 Z M 30.324219 26.648438 L 30.027344 11.847656 C 30.226562 11.726562 30.472656 11.648438 30.699219 11.648438 C 30.921875 11.648438 31.171875 11.726562 31.371094 11.847656 L 31.195312 20.429688 C 31.816406 19.90625 32.636719 19.585938 33.460938 19.585938 C 34.753906 19.585938 35.671875 20.777344 35.671875 22.121094 C 35.671875 24.113281 33.535156 25.03125 32.015625 26.324219 C 31.644531 26.648438 31.417969 27.269531 30.898438 27.269531 C 30.574219 27.269531 30.324219 26.996094 30.324219 26.648438 Z M 30.324219 26.648438 "/>
<path style=" stroke:none;fill-rule:nonzero;fill:rgb(0%,0%,0%);fill-opacity:1;" d="M 23.390625 13.890625 C 23.390625 13.191406 23.960938 12.621094 24.65625 12.621094 C 25.355469 12.621094 25.925781 13.191406 25.925781 13.890625 C 25.925781 14.585938 25.355469 15.15625 24.65625 15.15625 C 23.960938 15.15625 23.390625 14.585938 23.390625 13.890625 Z M 23.390625 7.671875 C 23.390625 6.972656 23.960938 6.402344 24.65625 6.402344 C 25.355469 6.402344 25.925781 6.972656 25.925781 7.671875 C 25.925781 8.367188 25.355469 8.9375 24.65625 8.9375 C 23.960938 8.9375 23.390625 8.367188 23.390625 7.671875 Z M 15.304688 4.238281 C 19.585938 4.238281 22.59375 6.425781 22.59375 10.480469 C 22.59375 17.023438 16.050781 20.777344 9.757812 23.441406 C 9.683594 23.515625 9.609375 23.539062 9.535156 23.539062 C 9.363281 23.539062 9.210938 23.390625 9.210938 23.214844 C 9.210938 23.140625 9.238281 23.066406 9.3125 22.992188 C 14.335938 20.058594 19.558594 16.402344 19.558594 10.730469 C 19.558594 7.746094 17.992188 4.886719 15.304688 4.886719 C 13.464844 4.886719 12.097656 6.226562 11.476562 8.019531 C 11.75 7.894531 12.023438 7.820312 12.320312 7.820312 C 13.6875 7.820312 14.808594 8.9375 14.808594 10.308594 C 14.808594 11.75 13.714844 12.945312 12.320312 12.945312 C 10.828125 12.945312 9.535156 11.773438 9.535156 10.308594 C 9.535156 7 12.074219 4.238281 15.304688 4.238281 Z M 15.304688 4.238281 "/>
<path style=" stroke:none;fill-rule:nonzero;fill:rgb(0%,0%,0%);fill-opacity:1;" d="M 49.863281 7.398438 C 51.230469 7.398438 52.550781 8.09375 52.550781 9.609375 C 52.550781 11.375 51.179688 12.621094 50.011719 13.316406 C 49.140625 13.839844 48.148438 14.164062 47.125 14.164062 C 45.757812 14.164062 44.441406 13.464844 44.441406 11.949219 C 44.441406 10.183594 45.808594 8.9375 46.976562 8.242188 C 47.847656 7.71875 48.84375 7.398438 49.863281 7.398438 Z M 49.863281 7.398438 "/>
<path style=" stroke:none;fill-rule:nonzero;fill:rgb(0%,0%,0%);fill-opacity:1;" d="M 49.863281 13.617188 C 51.230469 13.617188 52.550781 14.3125 52.550781 15.828125 C 52.550781 17.59375 51.179688 18.839844 50.011719 19.535156 C 49.140625 20.058594 48.148438 20.378906 47.125 20.378906 C 45.757812 20.378906 44.441406 19.683594 44.441406 18.167969 C 44.441406 16.402344 45.808594 15.15625 46.976562 14.460938 C 47.847656 13.9375 48.84375 13.617188 49.863281 13.617188 Z M 49.863281 13.617188 "/>
<path style=" stroke:none;fill-rule:nonzero;fill:rgb(0%,0%,0%);fill-opacity:1;" d="M 49.863281 19.832031 C 51.230469 19.832031 52.550781 20.53125 52.550781 22.046875 C 52.550781 23.8125 51.179688 25.058594 50.011719 25.753906 C 49.140625 26.277344 48.148438 26.597656 47.125 26.597656 C 45.757812 26.597656 44.441406 25.902344 44.441406 24.386719 C 44.441406 22.621094 45.808594 21.375 46.976562 20.679688 C 47.847656 20.15625 48.84375 19.832031 49.863281 19.832031 Z M 49.863281 19.832031 "/>
</g>
</svg>
