<?xml version="1.0" encoding="UTF-8"?>
<svg xmlns="http://www.w3.org/2000/svg" xmlns:xlink="http://www.w3.org/1999/xlink" width="68.472344pt" height="53.5169pt" viewBox="0 0 68.472344 53.5169" version="1.1">
<g id="surface1">
<path style="fill:none;stroke-width:0.1;stroke-linecap:round;stroke-linejoin:round;stroke:rgb(0%,0%,0%);stroke-opacity:1;stroke-miterlimit:4;" d="M 0.049863 -0.0001075 L 8.752337 -0.0001075 " transform="matrix(6.218149,0,0,6.218149,4.561038,29.434262)"/>
<path style="fill:none;stroke-width:0.1;stroke-linecap:round;stroke-linejoin:round;stroke:rgb(0%,0%,0%);stroke-opacity:1;stroke-miterlimit:4;" d="M 0.049863 -0.000204149 L 8.752337 -0.000204149 " transform="matrix(6.218149,0,0,6.218149,4.561038,23.216113)"/>
<path style="fill:none;stroke-width:0.1;stroke-linecap:round;stroke-linejoin:round;stroke:rgb(0%,0%,0%);stroke-opacity:1;stroke-miterlimit:4;" d="M 0.049863 -0.000300797 L 8.752337 -0.000300797 " transform="matrix(6.218149,0,0,6.218149,4.561038,16.997964)"/>
<path style="fill:none;stroke-width:0.1;stroke-linecap:round;stroke-linejoin:round;stroke:rgb(0%,0%,0%);stroke-opacity:1;stroke-miterlimit:4;" d="M 0.049863 0.000230756 L 8.752337 0.000230756 " transform="matrix(6.218149,0,0,6.218149,4.561038,10.779815)"/>
<path style="fill:none;stroke-width:0.1;stroke-linecap:round;stroke-linejoin:round;stroke:rgb(0%,0%,0%);stroke-opacity:1;stroke-miterlimit:4;" d="M 0.049863 0.000133988 L 8.752337 0.000133988 " transform="matrix(6.218149,0,0,6.218149,4.561038,4.561667)"/>
<path style=" stroke:none;fill-rule:nonzero;fill:rgb(0%,0%,0%);fill-opacity:1;" d="M 40.160156 35.03125 L 50.140625 35.03125 C 50.484375 35.03125 50.765625 35.308594 50.765625 35.652344 C 50.765625 35.996094 50.484375 36.273438 50.140625 36.273438 L 40.160156 36.273438 C 39.816406 36.273438 39.539062 35.996094 39.539062 35.652344 C 39.539062 35.308594 39.816406 35.03125 40.160156 35.03125 Z M 40.160156 35.03125 "/>
<path style=" stroke:none;fill-rule:nonzero;fill:rgb(0%,0%,0%);fill-opacity:1;" d="M 48.175781 13.890625 L 48.488281 13.890625 C 48.625 13.890625 48.734375 14 48.734375 14.136719 L 48.734375 34.246094 C 48.734375 34.382812 48.625 34.496094 48.488281 34.496094 L 48.175781 34.496094 C 48.039062 34.496094 47.925781 34.382812 47.925781 34.246094 L 47.925781 14.136719 C 47.925781 14 48.039062 13.890625 48.175781 13.890625 Z M 48.175781 13.890625 "/>
<path style=" stroke:none;fill-rule:nonzero;fill:rgb(0%,0%,0%);fill-opacity:1;" d="M 36.984375 43.414062 C 36.984375 43.660156 36.785156 43.886719 36.535156 43.886719 C 36.285156 43.886719 36.0625 43.660156 36.0625 43.414062 L 36.0625 39.804688 L 33.996094 40.578125 L 33.996094 44.507812 C 33.996094 44.753906 33.773438 44.980469 33.523438 44.980469 C 33.277344 44.980469 33.078125 44.753906 33.078125 44.507812 L 33.078125 40.902344 L 32.28125 41.199219 C 32.230469 41.222656 32.15625 41.222656 32.109375 41.222656 C 31.832031 41.222656 31.609375 41 31.609375 40.726562 L 31.609375 39.234375 C 31.609375 39.035156 31.734375 38.835938 31.933594 38.761719 L 33.078125 38.363281 L 33.078125 34.382812 L 32.28125 34.65625 C 32.230469 34.683594 32.15625 34.683594 32.109375 34.683594 C 31.832031 34.683594 31.609375 34.457031 31.609375 34.183594 L 31.609375 32.691406 C 31.609375 32.492188 31.734375 32.320312 31.933594 32.246094 L 33.078125 31.820312 L 33.078125 27.890625 C 33.078125 27.644531 33.277344 27.417969 33.523438 27.417969 C 33.773438 27.417969 33.996094 27.644531 33.996094 27.890625 L 33.996094 31.5 L 36.0625 30.726562 L 36.0625 26.796875 C 36.0625 26.550781 36.285156 26.324219 36.535156 26.324219 C 36.785156 26.324219 36.984375 26.550781 36.984375 26.796875 L 36.984375 30.402344 L 37.777344 30.105469 C 37.828125 30.082031 37.902344 30.082031 37.953125 30.082031 C 38.226562 30.082031 38.449219 30.304688 38.449219 30.578125 L 38.449219 32.070312 C 38.449219 32.269531 38.324219 32.46875 38.125 32.542969 L 36.984375 32.941406 L 36.984375 36.921875 L 37.777344 36.648438 C 37.828125 36.621094 37.902344 36.621094 37.953125 36.621094 C 38.226562 36.621094 38.449219 36.847656 38.449219 37.121094 L 38.449219 38.613281 C 38.449219 38.8125 38.324219 38.984375 38.125 39.058594 L 36.984375 39.484375 Z M 33.996094 34.035156 L 33.996094 38.015625 L 36.0625 37.269531 L 36.0625 33.289062 Z M 33.996094 34.035156 "/>
<path style=" stroke:none;fill-rule:nonzero;fill:rgb(0%,0%,0%);fill-opacity:1;" d="M 23.390625 13.890625 C 23.390625 13.191406 23.960938 12.621094 24.65625 12.621094 C 25.355469 12.621094 25.925781 13.191406 25.925781 13.890625 C 25.925781 14.585938 25.355469 15.15625 24.65625 15.15625 C 23.960938 15.15625 23.390625 14.585938 23.390625 13.890625 Z M 23.390625 7.671875 C 23.390625 6.972656 23.960938 6.402344 24.65625 6.402344 C 25.355469 6.402344 25.925781 6.972656 25.925781 7.671875 C 25.925781 8.367188 25.355469 8.9375 24.65625 8.9375 C 23.960938 8.9375 23.390625 8.367188 23.390625 7.671875 Z M 15.304688 4.238281 C 19.585938 4.238281 22.59375 6.425781 22.59375 10.480469 C 22.59375 17.023438 16.050781 20.777344 9.757812 23.441406 C 9.683594 23.515625 9.609375 23.539062 9.535156 23.539062 C 9.363281 23.539062 9.210938 23.390625 9.210938 23.214844 C 9.210938 23.140625 9.238281 23.066406 9.3125 22.992188 C 14.335938 20.058594 19.558594 16.402344 19.558594 10.730469 C 19.558594 7.746094 17.992188 4.886719 15.304688 4.886719 C 13.464844 4.886719 12.097656 6.226562 11.476562 8.019531 C 11.75 7.894531 12.023438 7.820312 12.320312 7.820312 C 13.6875 7.820312 14.808594 8.9375 14.808594 10.308594 C 14.808594 11.75 13.714844 12.945312 12.320312 12.945312 C 10.828125 12.945312 9.535156 11.773438 9.535156 10.308594 C 9.535156 7 12.074219 4.238281 15.304688 4.238281 Z M 15.304688 4.238281 "/>
<path style=" stroke:none;fill-rule:nonzero;fill:rgb(0%,0%,0%);fill-opacity:1;" d="M 46.046875 32.269531 C 47.417969 32.269531 48.734375 32.964844 48.734375 34.484375 C 48.734375 36.25 47.367188 37.492188 46.199219 38.1875 C 45.328125 38.710938 44.332031 39.035156 43.3125 39.035156 C 41.945312 39.035156 40.625 38.339844 40.625 36.820312 C 40.625 35.054688 41.996094 33.8125 43.164062 33.117188 C 44.035156 32.59375 45.027344 32.269531 46.046875 32.269531 Z M 46.046875 32.269531 "/>
</g>
</svg>
