<?xml version="1.0" encoding="UTF-8"?>
<svg xmlns="http://www.w3.org/2000/svg" xmlns:xlink="http://www.w3.org/1999/xlink" width="89.49953pt" height="76.683406pt" viewBox="0 0 89.49953 76.683406" version="1.1">
<g id="surface1">
<path style="fill:none;stroke-width:0.1;stroke-linecap:round;stroke-linejoin:round;stroke:rgb(0%,0%,0%);stroke-opacity:1;stroke-miterlimit:4;" d="M 0.049863 -0.00015354 L 11.918472 -0.00015354 " transform="matrix(6.218149,0,0,6.218149,4.561038,57.430642)"/>
<path style="fill:none;stroke-width:0.1;stroke-linecap:round;stroke-linejoin:round;stroke:rgb(0%,0%,0%);stroke-opacity:1;stroke-miterlimit:4;" d="M 0.049863 -0.000250188 L 11.918472 -0.000250188 " transform="matrix(6.218149,0,0,6.218149,4.561038,51.212493)"/>
<path style="fill:none;stroke-width:0.1;stroke-linecap:round;stroke-linejoin:round;stroke:rgb(0%,0%,0%);stroke-opacity:1;stroke-miterlimit:4;" d="M 0.049863 0.000281364 L 11.918472 0.000281364 " transform="matrix(6.218149,0,0,6.218149,4.561038,44.994344)"/>
<path style="fill:none;stroke-width:0.1;stroke-linecap:round;stroke-linejoin:round;stroke:rgb(0%,0%,0%);stroke-opacity:1;stroke-miterlimit:4;" d="M 0.049863 0.000184716 L 11.918472 0.000184716 " transform="matrix(6.218149,0,0,6.218149,4.561038,38.776195)"/>
<path style="fill:none;stroke-width:0.1;stroke-linecap:round;stroke-linejoin:round;stroke:rgb(0%,0%,0%);stroke-opacity:1;stroke-miterlimit:4;" d="M 0.049863 0.0000880672 L 11.918472 0.0000880672 " transform="matrix(6.218149,0,0,6.218149,4.561038,32.558046)"/>
<path style=" stroke:none;fill-rule:nonzero;fill:rgb(0%,0%,0%);fill-opacity:1;" d="M 52.140625 13.28125 L 69.828125 13.28125 C 70.171875 13.28125 70.449219 13.558594 70.449219 13.902344 C 70.449219 14.246094 70.171875 14.527344 69.828125 14.527344 L 52.140625 14.527344 C 51.796875 14.527344 51.519531 14.246094 51.519531 13.902344 C 51.519531 13.558594 51.796875 13.28125 52.140625 13.28125 Z M 52.140625 13.28125 "/>
<path style=" stroke:none;fill-rule:nonzero;fill:rgb(0%,0%,0%);fill-opacity:1;" d="M 51.203125 19.5 L 69.828125 19.5 C 70.171875 19.5 70.449219 19.777344 70.449219 20.121094 C 70.449219 20.464844 70.171875 20.742188 69.828125 20.742188 L 51.203125 20.742188 C 50.859375 20.742188 50.578125 20.464844 50.578125 20.121094 C 50.578125 19.777344 50.859375 19.5 51.203125 19.5 Z M 51.203125 19.5 "/>
<path style=" stroke:none;fill-rule:nonzero;fill:rgb(0%,0%,0%);fill-opacity:1;" d="M 51.203125 25.71875 L 69.828125 25.71875 C 70.171875 25.71875 70.449219 25.996094 70.449219 26.339844 C 70.449219 26.683594 70.171875 26.960938 69.828125 26.960938 L 51.203125 26.960938 C 50.859375 26.960938 50.578125 26.683594 50.578125 26.339844 C 50.578125 25.996094 50.859375 25.71875 51.203125 25.71875 Z M 51.203125 25.71875 "/>
<path style=" stroke:none;fill-rule:nonzero;fill:rgb(0%,0%,0%);fill-opacity:1;" d="M 60.5625 11.953125 L 60.871094 11.953125 C 61.007812 11.953125 61.121094 12.0625 61.121094 12.199219 L 61.121094 47.855469 C 61.121094 47.992188 61.007812 48.101562 60.871094 48.101562 L 60.5625 48.101562 C 60.421875 48.101562 60.3125 47.992188 60.3125 47.855469 L 60.3125 12.199219 C 60.3125 12.0625 60.421875 11.953125 60.5625 11.953125 Z M 60.5625 11.953125 "/>
<path style=" stroke:none;fill-rule:nonzero;fill:rgb(0%,0%,0%);fill-opacity:1;" d="M 39.613281 10.792969 C 40.183594 11.367188 41.003906 11.492188 41.828125 11.492188 C 41.976562 11.492188 42.074219 11.589844 42.074219 11.738281 L 42.300781 13.902344 C 42.324219 14.054688 42.199219 14.175781 42.050781 14.152344 L 39.886719 13.929688 C 39.761719 13.902344 39.636719 13.804688 39.636719 13.679688 C 39.636719 12.859375 39.511719 12.039062 38.941406 11.464844 C 38.367188 12.039062 38.269531 12.859375 38.269531 13.679688 C 38.269531 13.804688 38.144531 13.902344 38.019531 13.929688 L 35.832031 14.152344 C 35.683594 14.175781 35.558594 14.054688 35.582031 13.902344 L 35.808594 11.738281 C 35.808594 11.589844 35.90625 11.492188 36.054688 11.492188 C 36.875 11.492188 37.699219 11.367188 38.269531 10.792969 C 37.699219 10.222656 36.875 10.097656 36.054688 10.097656 C 35.90625 10.097656 35.808594 10 35.808594 9.847656 L 35.582031 7.683594 C 35.558594 7.535156 35.683594 7.410156 35.832031 7.4375 L 38.019531 7.660156 C 38.144531 7.683594 38.246094 7.785156 38.246094 7.910156 C 38.246094 8.730469 38.367188 9.550781 38.941406 10.121094 C 39.511719 9.550781 39.636719 8.730469 39.636719 7.910156 C 39.636719 7.785156 39.761719 7.683594 39.886719 7.660156 L 42.050781 7.4375 C 42.199219 7.410156 42.324219 7.535156 42.300781 7.683594 L 42.074219 9.847656 C 42.074219 10 41.976562 10.097656 41.828125 10.097656 C 41.003906 10.097656 40.183594 10.222656 39.613281 10.792969 Z M 39.613281 10.792969 "/>
<path style=" stroke:none;fill-rule:nonzero;fill:rgb(0%,0%,0%);fill-opacity:1;" d="M 48.964844 21.664062 C 48.964844 21.914062 48.765625 22.136719 48.515625 22.136719 C 48.265625 22.136719 48.042969 21.914062 48.042969 21.664062 L 48.042969 18.058594 L 45.976562 18.828125 L 45.976562 22.757812 C 45.976562 23.007812 45.753906 23.230469 45.503906 23.230469 C 45.257812 23.230469 45.058594 23.007812 45.058594 22.757812 L 45.058594 19.152344 L 44.261719 19.449219 C 44.210938 19.476562 44.136719 19.476562 44.089844 19.476562 C 43.8125 19.476562 43.589844 19.25 43.589844 18.976562 L 43.589844 17.484375 C 43.589844 17.285156 43.714844 17.085938 43.914062 17.011719 L 45.058594 16.613281 L 45.058594 12.636719 L 44.261719 12.910156 C 44.210938 12.933594 44.136719 12.933594 44.089844 12.933594 C 43.8125 12.933594 43.589844 12.710938 43.589844 12.4375 L 43.589844 10.945312 C 43.589844 10.746094 43.714844 10.570312 43.914062 10.496094 L 45.058594 10.074219 L 45.058594 6.144531 C 45.058594 5.894531 45.257812 5.671875 45.503906 5.671875 C 45.753906 5.671875 45.976562 5.894531 45.976562 6.144531 L 45.976562 9.75 L 48.042969 8.980469 L 48.042969 5.050781 C 48.042969 4.800781 48.265625 4.578125 48.515625 4.578125 C 48.765625 4.578125 48.964844 4.800781 48.964844 5.050781 L 48.964844 8.65625 L 49.757812 8.355469 C 49.808594 8.332031 49.882812 8.332031 49.933594 8.332031 C 50.207031 8.332031 50.429688 8.554688 50.429688 8.828125 L 50.429688 10.320312 C 50.429688 10.519531 50.304688 10.71875 50.105469 10.792969 L 48.964844 11.191406 L 48.964844 15.171875 L 49.757812 14.898438 C 49.808594 14.875 49.882812 14.875 49.933594 14.875 C 50.207031 14.875 50.429688 15.097656 50.429688 15.371094 L 50.429688 16.863281 C 50.429688 17.0625 50.304688 17.238281 50.105469 17.3125 L 48.964844 17.734375 Z M 45.976562 12.285156 L 45.976562 16.265625 L 48.042969 15.519531 L 48.042969 11.539062 Z M 45.976562 12.285156 "/>
<path style=" stroke:none;fill-rule:nonzero;fill:rgb(0%,0%,0%);fill-opacity:1;" d="M 32.996094 20.121094 C 33.570312 20.695312 34.390625 20.816406 35.210938 20.816406 C 35.359375 20.816406 35.460938 20.917969 35.460938 21.066406 L 35.683594 23.230469 C 35.707031 23.378906 35.582031 23.503906 35.433594 23.480469 L 33.269531 23.253906 C 33.144531 23.230469 33.023438 23.132812 33.023438 23.007812 C 33.023438 22.1875 32.898438 21.367188 32.324219 20.792969 C 31.753906 21.367188 31.652344 22.1875 31.652344 23.007812 C 31.652344 23.132812 31.527344 23.230469 31.40625 23.253906 L 29.214844 23.480469 C 29.066406 23.503906 28.941406 23.378906 28.96875 23.230469 L 29.191406 21.066406 C 29.191406 20.917969 29.289062 20.816406 29.441406 20.816406 C 30.261719 20.816406 31.082031 20.695312 31.652344 20.121094 C 31.082031 19.550781 30.261719 19.425781 29.441406 19.425781 C 29.289062 19.425781 29.191406 19.324219 29.191406 19.175781 L 28.96875 17.011719 C 28.941406 16.863281 29.066406 16.738281 29.214844 16.765625 L 31.40625 16.988281 C 31.527344 17.011719 31.628906 17.113281 31.628906 17.238281 C 31.628906 18.058594 31.753906 18.878906 32.324219 19.449219 C 32.898438 18.878906 33.023438 18.058594 33.023438 17.238281 C 33.023438 17.113281 33.144531 17.011719 33.269531 16.988281 L 35.433594 16.765625 C 35.582031 16.738281 35.707031 16.863281 35.683594 17.011719 L 35.460938 19.175781 C 35.460938 19.324219 35.359375 19.425781 35.210938 19.425781 C 34.390625 19.425781 33.570312 19.550781 32.996094 20.121094 Z M 32.996094 20.121094 "/>
<path style=" stroke:none;fill-rule:nonzero;fill:rgb(0%,0%,0%);fill-opacity:1;" d="M 42.347656 34.101562 C 42.347656 34.347656 42.148438 34.574219 41.898438 34.574219 C 41.652344 34.574219 41.425781 34.347656 41.425781 34.101562 L 41.425781 30.492188 L 39.363281 31.265625 L 39.363281 35.195312 C 39.363281 35.441406 39.136719 35.667969 38.890625 35.667969 C 38.640625 35.667969 38.441406 35.441406 38.441406 35.195312 L 38.441406 31.589844 L 37.644531 31.886719 C 37.597656 31.910156 37.523438 31.910156 37.472656 31.910156 C 37.199219 31.910156 36.972656 31.6875 36.972656 31.414062 L 36.972656 29.921875 C 36.972656 29.722656 37.097656 29.523438 37.296875 29.449219 L 38.441406 29.050781 L 38.441406 25.070312 L 37.644531 25.34375 C 37.597656 25.371094 37.523438 25.371094 37.472656 25.371094 C 37.199219 25.371094 36.972656 25.144531 36.972656 24.871094 L 36.972656 23.378906 C 36.972656 23.179688 37.097656 23.007812 37.296875 22.933594 L 38.441406 22.507812 L 38.441406 18.578125 C 38.441406 18.332031 38.640625 18.105469 38.890625 18.105469 C 39.136719 18.105469 39.363281 18.332031 39.363281 18.578125 L 39.363281 22.1875 L 41.425781 21.414062 L 41.425781 17.484375 C 41.425781 17.238281 41.652344 17.011719 41.898438 17.011719 C 42.148438 17.011719 42.347656 17.238281 42.347656 17.484375 L 42.347656 21.089844 L 43.144531 20.792969 C 43.191406 20.769531 43.265625 20.769531 43.316406 20.769531 C 43.589844 20.769531 43.8125 20.992188 43.8125 21.265625 L 43.8125 22.757812 C 43.8125 22.957031 43.691406 23.15625 43.492188 23.230469 L 42.347656 23.628906 L 42.347656 27.609375 L 43.144531 27.335938 C 43.191406 27.308594 43.265625 27.308594 43.316406 27.308594 C 43.589844 27.308594 43.8125 27.535156 43.8125 27.808594 L 43.8125 29.300781 C 43.8125 29.5 43.691406 29.671875 43.492188 29.746094 L 42.347656 30.171875 Z M 39.363281 24.722656 L 39.363281 28.703125 L 41.425781 27.957031 L 41.425781 23.976562 Z M 39.363281 24.722656 "/>
<path style=" stroke:none;fill-rule:nonzero;fill:rgb(0%,0%,0%);fill-opacity:1;" d="M 16.152344 67.007812 L 16.003906 67.007812 C 13.316406 67.007812 11.152344 64.816406 11.152344 62.105469 C 11.152344 60.664062 12.46875 59.542969 13.9375 59.542969 C 15.28125 59.542969 16.300781 60.714844 16.300781 62.105469 C 16.300781 63.398438 15.230469 64.46875 13.9375 64.46875 C 13.664062 64.46875 13.414062 64.417969 13.167969 64.320312 C 13.8125 65.289062 14.859375 65.9375 16.078125 65.9375 L 16.175781 65.9375 Z M 21 56.261719 C 22.691406 55.664062 23.8125 53.898438 23.8125 52.183594 C 23.8125 49.945312 22.171875 47.730469 19.507812 47.457031 C 20.105469 50.34375 20.652344 53.203125 21 56.261719 Z M 11.375 50.515625 C 11.375 53.875 14.585938 56.660156 17.941406 56.660156 C 18.640625 56.660156 19.308594 56.609375 19.980469 56.511719 C 19.632812 53.351562 19.0625 50.417969 18.414062 47.457031 C 16.449219 47.65625 15.332031 48.972656 15.332031 50.417969 C 15.332031 51.511719 15.953125 52.679688 17.34375 53.476562 C 17.46875 53.601562 17.519531 53.726562 17.519531 53.847656 C 17.519531 54.121094 17.269531 54.394531 16.972656 54.394531 C 16.898438 54.394531 16.824219 54.371094 16.75 54.347656 C 14.757812 53.277344 13.839844 51.484375 13.839844 49.746094 C 13.839844 47.554688 15.28125 45.417969 17.816406 44.84375 C 17.46875 43.402344 17.097656 41.933594 16.675781 40.492188 C 14.011719 43.503906 11.375 46.535156 11.375 50.515625 Z M 17.867188 57.730469 C 13.191406 57.730469 9.585938 53.449219 9.585938 48.425781 C 9.585938 44.023438 12.84375 40.816406 15.753906 37.457031 C 15.28125 35.914062 14.832031 34.347656 14.632812 32.730469 C 14.484375 31.4375 14.460938 30.144531 14.460938 28.851562 C 14.460938 25.992188 15.828125 23.28125 18.167969 21.589844 C 18.316406 21.464844 18.515625 21.464844 18.664062 21.589844 C 20.429688 23.679688 21.972656 27.683594 21.972656 30.492188 C 21.972656 34.050781 19.832031 36.835938 17.496094 39.546875 C 18.015625 41.238281 18.464844 42.980469 18.886719 44.695312 C 18.988281 44.695312 19.113281 44.671875 19.210938 44.671875 C 23.066406 44.671875 25.578125 47.855469 25.578125 51.164062 C 25.578125 53.054688 24.757812 54.992188 22.917969 56.386719 C 22.371094 56.808594 21.746094 57.082031 21.101562 57.28125 C 21.175781 58.152344 21.226562 59.023438 21.226562 59.894531 C 21.226562 60.367188 21.199219 60.863281 21.175781 61.335938 C 21 64.296875 18.988281 66.933594 16.152344 67.007812 L 16.175781 65.9375 C 18.488281 65.886719 19.980469 63.648438 20.132812 61.1875 C 20.15625 60.738281 20.179688 60.265625 20.179688 59.820312 C 20.179688 59.046875 20.15625 58.300781 20.082031 57.53125 C 19.359375 57.65625 18.640625 57.730469 17.867188 57.730469 Z M 20.179688 28.429688 C 20.179688 27.0625 20.082031 26.464844 19.683594 25.21875 C 17.222656 26.414062 15.652344 28.925781 15.652344 31.664062 C 15.652344 33.503906 16.101562 34.96875 16.550781 36.488281 C 18.539062 34.074219 20.179688 31.5625 20.179688 28.429688 Z M 20.179688 28.429688 "/>
<path style=" stroke:none;fill-rule:nonzero;fill:rgb(0%,0%,0%);fill-opacity:1;" d="M 65.734375 7.410156 C 67.101562 7.410156 68.421875 8.109375 68.421875 9.625 C 68.421875 11.390625 67.054688 12.636719 65.882812 13.332031 C 65.011719 13.855469 64.019531 14.175781 63 14.175781 C 61.628906 14.175781 60.3125 13.480469 60.3125 11.964844 C 60.3125 10.199219 61.679688 8.953125 62.847656 8.257812 C 63.71875 7.734375 64.714844 7.410156 65.734375 7.410156 Z M 65.734375 7.410156 "/>
<path style=" stroke:none;fill-rule:nonzero;fill:rgb(0%,0%,0%);fill-opacity:1;" d="M 58.027344 10.519531 C 59.398438 10.519531 60.714844 11.21875 60.714844 12.734375 C 60.714844 14.5 59.347656 15.746094 58.179688 16.441406 C 57.308594 16.964844 56.3125 17.285156 55.292969 17.285156 C 53.925781 17.285156 52.605469 16.589844 52.605469 15.074219 C 52.605469 13.308594 53.976562 12.0625 55.144531 11.367188 C 56.015625 10.84375 57.007812 10.519531 58.027344 10.519531 Z M 58.027344 10.519531 "/>
<path style=" stroke:none;fill-rule:nonzero;fill:rgb(0%,0%,0%);fill-opacity:1;" d="M 65.734375 16.738281 C 67.101562 16.738281 68.421875 17.433594 68.421875 18.953125 C 68.421875 20.71875 67.054688 21.960938 65.882812 22.660156 C 65.011719 23.179688 64.019531 23.503906 63 23.503906 C 61.628906 23.503906 60.3125 22.808594 60.3125 21.289062 C 60.3125 19.523438 61.679688 18.28125 62.847656 17.585938 C 63.71875 17.0625 64.714844 16.738281 65.734375 16.738281 Z M 65.734375 16.738281 "/>
<path style=" stroke:none;fill-rule:nonzero;fill:rgb(0%,0%,0%);fill-opacity:1;" d="M 65.734375 22.957031 C 67.101562 22.957031 68.421875 23.652344 68.421875 25.171875 C 68.421875 26.9375 67.054688 28.179688 65.882812 28.875 C 65.011719 29.398438 64.019531 29.722656 63 29.722656 C 61.628906 29.722656 60.3125 29.027344 60.3125 27.507812 C 60.3125 25.742188 61.679688 24.5 62.847656 23.804688 C 63.71875 23.28125 64.714844 22.957031 65.734375 22.957031 Z M 65.734375 22.957031 "/>
</g>
</svg>
