<?xml version="1.0" encoding="UTF-8"?>
<svg xmlns="http://www.w3.org/2000/svg" xmlns:xlink="http://www.w3.org/1999/xlink" width="76.583943pt" height="56.669749pt" viewBox="0 0 76.583943 56.669749" version="1.1">
<g id="surface1">
<path style="fill:none;stroke-width:0.1;stroke-linecap:round;stroke-linejoin:round;stroke:rgb(0%,0%,0%);stroke-opacity:1;stroke-miterlimit:4;" d="M 0.049863 0.0000956673 L 9.973561 0.0000956673 " transform="matrix(6.218149,0,0,6.218149,4.561038,37.905655)"/>
<path style="fill:none;stroke-width:0.1;stroke-linecap:round;stroke-linejoin:round;stroke:rgb(0%,0%,0%);stroke-opacity:1;stroke-miterlimit:4;" d="M 0.049863 -0.000000981293 L 9.973561 -0.000000981293 " transform="matrix(6.218149,0,0,6.218149,4.561038,31.687506)"/>
<path style="fill:none;stroke-width:0.1;stroke-linecap:round;stroke-linejoin:round;stroke:rgb(0%,0%,0%);stroke-opacity:1;stroke-miterlimit:4;" d="M 0.049863 -0.0000976299 L 9.973561 -0.0000976299 " transform="matrix(6.218149,0,0,6.218149,4.561038,25.469357)"/>
<path style="fill:none;stroke-width:0.1;stroke-linecap:round;stroke-linejoin:round;stroke:rgb(0%,0%,0%);stroke-opacity:1;stroke-miterlimit:4;" d="M 0.049863 -0.00019404 L 9.973561 -0.00019404 " transform="matrix(6.218149,0,0,6.218149,4.561038,19.251207)"/>
<path style="fill:none;stroke-width:0.1;stroke-linecap:round;stroke-linejoin:round;stroke:rgb(0%,0%,0%);stroke-opacity:1;stroke-miterlimit:4;" d="M 0.049863 -0.000290689 L 9.973561 -0.000290689 " transform="matrix(6.218149,0,0,6.218149,4.561038,13.033058)"/>
<path style=" stroke:none;fill-rule:nonzero;fill:rgb(0%,0%,0%);fill-opacity:1;" d="M 48.46875 17.300781 L 48.78125 17.300781 C 48.917969 17.300781 49.03125 17.410156 49.03125 17.546875 L 49.03125 48.019531 C 49.03125 48.15625 48.917969 48.269531 48.78125 48.269531 L 48.46875 48.269531 C 48.332031 48.269531 48.222656 48.15625 48.222656 48.019531 L 48.222656 17.546875 C 48.222656 17.410156 48.332031 17.300781 48.46875 17.300781 Z M 48.46875 17.300781 "/>
<path style=" stroke:none;fill-rule:nonzero;fill:rgb(0%,0%,0%);fill-opacity:1;" d="M 41.742188 15.121094 L 41.71875 16.765625 L 41.71875 17.039062 C 41.71875 17.585938 41.742188 18.132812 41.816406 18.679688 C 42.9375 17.734375 44.128906 16.6875 44.128906 15.222656 C 44.128906 14.402344 43.78125 13.554688 43.058594 13.554688 C 42.289062 13.554688 41.765625 14.300781 41.742188 15.121094 Z M 40.695312 19.574219 L 40.398438 4.773438 C 40.597656 4.652344 40.847656 4.578125 41.070312 4.578125 C 41.292969 4.578125 41.542969 4.652344 41.742188 4.773438 L 41.566406 13.355469 C 42.191406 12.835938 43.011719 12.511719 43.832031 12.511719 C 45.125 12.511719 46.042969 13.703125 46.042969 15.046875 C 46.042969 17.039062 43.90625 17.957031 42.386719 19.25 C 42.015625 19.574219 41.792969 20.195312 41.269531 20.195312 C 40.945312 20.195312 40.695312 19.921875 40.695312 19.574219 Z M 40.695312 19.574219 "/>
<path style=" stroke:none;fill-rule:nonzero;fill:rgb(0%,0%,0%);fill-opacity:1;" d="M 31.371094 21.339844 L 31.34375 22.980469 L 31.34375 23.253906 C 31.34375 23.804688 31.371094 24.351562 31.445312 24.898438 C 32.5625 23.953125 33.757812 22.90625 33.757812 21.441406 C 33.757812 20.621094 33.410156 19.773438 32.6875 19.773438 C 31.917969 19.773438 31.394531 20.519531 31.371094 21.339844 Z M 30.324219 25.792969 L 30.027344 10.992188 C 30.226562 10.871094 30.472656 10.792969 30.699219 10.792969 C 30.921875 10.792969 31.171875 10.871094 31.371094 10.992188 L 31.195312 19.574219 C 31.816406 19.050781 32.636719 18.730469 33.460938 18.730469 C 34.753906 18.730469 35.671875 19.921875 35.671875 21.265625 C 35.671875 23.253906 33.535156 24.175781 32.015625 25.46875 C 31.644531 25.792969 31.417969 26.414062 30.898438 26.414062 C 30.574219 26.414062 30.324219 26.140625 30.324219 25.792969 Z M 30.324219 25.792969 "/>
<path style=" stroke:none;fill-rule:nonzero;fill:rgb(0%,0%,0%);fill-opacity:1;" d="M 38.257812 27.558594 L 38.234375 29.199219 L 38.234375 29.472656 C 38.234375 30.019531 38.257812 30.566406 38.335938 31.117188 C 39.453125 30.171875 40.648438 29.125 40.648438 27.65625 C 40.648438 26.835938 40.300781 25.992188 39.578125 25.992188 C 38.808594 25.992188 38.285156 26.738281 38.257812 27.558594 Z M 37.214844 32.011719 L 36.917969 17.210938 C 37.117188 17.085938 37.363281 17.011719 37.589844 17.011719 C 37.8125 17.011719 38.0625 17.085938 38.257812 17.210938 L 38.085938 25.792969 C 38.707031 25.269531 39.527344 24.945312 40.347656 24.945312 C 41.640625 24.945312 42.5625 26.140625 42.5625 27.484375 C 42.5625 29.472656 40.421875 30.394531 38.90625 31.6875 C 38.535156 32.011719 38.308594 32.632812 37.785156 32.632812 C 37.464844 32.632812 37.214844 32.359375 37.214844 32.011719 Z M 37.214844 32.011719 "/>
<path style=" stroke:none;fill-rule:nonzero;fill:rgb(0%,0%,0%);fill-opacity:1;" d="M 23.390625 22.359375 C 23.390625 21.664062 23.960938 21.089844 24.65625 21.089844 C 25.355469 21.089844 25.925781 21.664062 25.925781 22.359375 C 25.925781 23.058594 25.355469 23.628906 24.65625 23.628906 C 23.960938 23.628906 23.390625 23.058594 23.390625 22.359375 Z M 23.390625 16.140625 C 23.390625 15.445312 23.960938 14.875 24.65625 14.875 C 25.355469 14.875 25.925781 15.445312 25.925781 16.140625 C 25.925781 16.839844 25.355469 17.410156 24.65625 17.410156 C 23.960938 17.410156 23.390625 16.839844 23.390625 16.140625 Z M 15.304688 12.710938 C 19.585938 12.710938 22.59375 14.898438 22.59375 18.953125 C 22.59375 25.496094 16.050781 29.25 9.757812 31.910156 C 9.683594 31.984375 9.609375 32.011719 9.535156 32.011719 C 9.363281 32.011719 9.210938 31.863281 9.210938 31.6875 C 9.210938 31.613281 9.238281 31.539062 9.3125 31.464844 C 14.335938 28.527344 19.558594 24.871094 19.558594 19.203125 C 19.558594 16.214844 17.992188 13.355469 15.304688 13.355469 C 13.464844 13.355469 12.097656 14.699219 11.476562 16.492188 C 11.75 16.367188 12.023438 16.292969 12.320312 16.292969 C 13.6875 16.292969 14.808594 17.410156 14.808594 18.777344 C 14.808594 20.222656 13.714844 21.414062 12.320312 21.414062 C 10.828125 21.414062 9.535156 20.246094 9.535156 18.777344 C 9.535156 15.46875 12.074219 12.710938 15.304688 12.710938 Z M 15.304688 12.710938 "/>
<path style=" stroke:none;fill-rule:nonzero;fill:rgb(0%,0%,0%);fill-opacity:1;" d="M 53.644531 12.757812 C 55.011719 12.757812 56.328125 13.457031 56.328125 14.972656 C 56.328125 16.738281 54.960938 17.984375 53.792969 18.679688 C 52.921875 19.203125 51.925781 19.523438 50.90625 19.523438 C 49.539062 19.523438 48.222656 18.828125 48.222656 17.3125 C 48.222656 15.546875 49.589844 14.300781 50.757812 13.605469 C 51.628906 13.082031 52.625 12.757812 53.644531 12.757812 Z M 53.644531 12.757812 "/>
<path style=" stroke:none;fill-rule:nonzero;fill:rgb(0%,0%,0%);fill-opacity:1;" d="M 53.644531 18.976562 C 55.011719 18.976562 56.328125 19.675781 56.328125 21.191406 C 56.328125 22.957031 54.960938 24.199219 53.792969 24.898438 C 52.921875 25.417969 51.925781 25.742188 50.90625 25.742188 C 49.539062 25.742188 48.222656 25.046875 48.222656 23.527344 C 48.222656 21.761719 49.589844 20.519531 50.757812 19.824219 C 51.628906 19.300781 52.625 18.976562 53.644531 18.976562 Z M 53.644531 18.976562 "/>
<path style=" stroke:none;fill-rule:nonzero;fill:rgb(0%,0%,0%);fill-opacity:1;" d="M 53.644531 25.195312 C 55.011719 25.195312 56.328125 25.890625 56.328125 27.410156 C 56.328125 29.175781 54.960938 30.417969 53.792969 31.117188 C 52.921875 31.636719 51.925781 31.960938 50.90625 31.960938 C 49.539062 31.960938 48.222656 31.265625 48.222656 29.746094 C 48.222656 27.980469 49.589844 26.738281 50.757812 26.042969 C 51.628906 25.519531 52.625 25.195312 53.644531 25.195312 Z M 53.644531 25.195312 "/>
</g>
</svg>
