<?xml version="1.0" encoding="UTF-8"?>
<svg xmlns="http://www.w3.org/2000/svg" xmlns:xlink="http://www.w3.org/1999/xlink" width="68.472344pt" height="56.784653pt" viewBox="0 0 68.472344 56.784653" version="1.1">
<g id="surface1">
<path style="fill:none;stroke-width:0.1;stroke-linecap:round;stroke-linejoin:round;stroke:rgb(0%,0%,0%);stroke-opacity:1;stroke-miterlimit:4;" d="M 0.049863 0.000136391 L 8.752337 0.000136391 " transform="matrix(6.218149,0,0,6.218149,4.561038,35.667121)"/>
<path style="fill:none;stroke-width:0.1;stroke-linecap:round;stroke-linejoin:round;stroke:rgb(0%,0%,0%);stroke-opacity:1;stroke-miterlimit:4;" d="M 0.049863 0.0000397429 L 8.752337 0.0000397429 " transform="matrix(6.218149,0,0,6.218149,4.561038,29.448972)"/>
<path style="fill:none;stroke-width:0.1;stroke-linecap:round;stroke-linejoin:round;stroke:rgb(0%,0%,0%);stroke-opacity:1;stroke-miterlimit:4;" d="M 0.049863 -0.0000569057 L 8.752337 -0.0000569057 " transform="matrix(6.218149,0,0,6.218149,4.561038,23.230823)"/>
<path style="fill:none;stroke-width:0.1;stroke-linecap:round;stroke-linejoin:round;stroke:rgb(0%,0%,0%);stroke-opacity:1;stroke-miterlimit:4;" d="M 0.049863 -0.000153554 L 8.752337 -0.000153554 " transform="matrix(6.218149,0,0,6.218149,4.561038,17.012674)"/>
<path style="fill:none;stroke-width:0.1;stroke-linecap:round;stroke-linejoin:round;stroke:rgb(0%,0%,0%);stroke-opacity:1;stroke-miterlimit:4;" d="M 0.049863 -0.000250203 L 8.752337 -0.000250203 " transform="matrix(6.218149,0,0,6.218149,4.561038,10.794525)"/>
<path style=" stroke:none;fill-rule:nonzero;fill:rgb(0%,0%,0%);fill-opacity:1;" d="M 39.21875 41.261719 L 50.140625 41.261719 C 50.484375 41.261719 50.761719 41.542969 50.761719 41.886719 C 50.761719 42.230469 50.484375 42.507812 50.140625 42.507812 L 39.21875 42.507812 C 38.878906 42.507812 38.597656 42.230469 38.597656 41.886719 C 38.597656 41.542969 38.878906 41.261719 39.21875 41.261719 Z M 39.21875 41.261719 "/>
<path style=" stroke:none;fill-rule:nonzero;fill:rgb(0%,0%,0%);fill-opacity:1;" d="M 36.984375 46.535156 C 36.984375 46.785156 36.785156 47.007812 36.535156 47.007812 C 36.285156 47.007812 36.0625 46.785156 36.0625 46.535156 L 36.0625 42.929688 L 33.996094 43.699219 L 33.996094 47.628906 C 33.996094 47.878906 33.773438 48.101562 33.523438 48.101562 C 33.277344 48.101562 33.078125 47.878906 33.078125 47.628906 L 33.078125 44.023438 L 32.28125 44.324219 C 32.230469 44.347656 32.15625 44.347656 32.109375 44.347656 C 31.832031 44.347656 31.609375 44.125 31.609375 43.851562 L 31.609375 42.359375 C 31.609375 42.160156 31.734375 41.960938 31.933594 41.886719 L 33.078125 41.488281 L 33.078125 37.507812 L 32.28125 37.78125 C 32.230469 37.804688 32.15625 37.804688 32.109375 37.804688 C 31.832031 37.804688 31.609375 37.582031 31.609375 37.308594 L 31.609375 35.816406 C 31.609375 35.617188 31.734375 35.441406 31.933594 35.367188 L 33.078125 34.945312 L 33.078125 31.015625 C 33.078125 30.765625 33.277344 30.542969 33.523438 30.542969 C 33.773438 30.542969 33.996094 30.765625 33.996094 31.015625 L 33.996094 34.621094 L 36.0625 33.851562 L 36.0625 29.921875 C 36.0625 29.671875 36.285156 29.449219 36.535156 29.449219 C 36.785156 29.449219 36.984375 29.671875 36.984375 29.921875 L 36.984375 33.527344 L 37.777344 33.230469 C 37.828125 33.203125 37.902344 33.203125 37.953125 33.203125 C 38.226562 33.203125 38.449219 33.429688 38.449219 33.703125 L 38.449219 35.195312 C 38.449219 35.394531 38.324219 35.59375 38.125 35.667969 L 36.984375 36.066406 L 36.984375 40.042969 L 37.777344 39.769531 C 37.828125 39.746094 37.902344 39.746094 37.953125 39.746094 C 38.226562 39.746094 38.449219 39.96875 38.449219 40.242188 L 38.449219 41.734375 C 38.449219 41.933594 38.324219 42.109375 38.125 42.183594 L 36.984375 42.605469 Z M 33.996094 37.160156 L 33.996094 41.140625 L 36.0625 40.394531 L 36.0625 36.414062 Z M 33.996094 37.160156 "/>
<path style=" stroke:none;fill-rule:nonzero;fill:rgb(0%,0%,0%);fill-opacity:1;" d="M 48.175781 4.578125 L 48.488281 4.578125 C 48.625 4.578125 48.734375 4.6875 48.734375 4.824219 L 48.734375 43.589844 C 48.734375 43.726562 48.625 43.835938 48.488281 43.835938 L 48.175781 43.835938 C 48.039062 43.835938 47.925781 43.726562 47.925781 43.589844 L 47.925781 4.824219 C 47.925781 4.6875 48.039062 4.578125 48.175781 4.578125 Z M 48.175781 4.578125 "/>
<path style=" stroke:none;fill-rule:nonzero;fill:rgb(0%,0%,0%);fill-opacity:1;" d="M 23.390625 20.121094 C 23.390625 19.425781 23.960938 18.851562 24.65625 18.851562 C 25.355469 18.851562 25.925781 19.425781 25.925781 20.121094 C 25.925781 20.816406 25.355469 21.390625 24.65625 21.390625 C 23.960938 21.390625 23.390625 20.816406 23.390625 20.121094 Z M 23.390625 13.902344 C 23.390625 13.207031 23.960938 12.636719 24.65625 12.636719 C 25.355469 12.636719 25.925781 13.207031 25.925781 13.902344 C 25.925781 14.601562 25.355469 15.171875 24.65625 15.171875 C 23.960938 15.171875 23.390625 14.601562 23.390625 13.902344 Z M 15.304688 10.472656 C 19.585938 10.472656 22.59375 12.660156 22.59375 16.714844 C 22.59375 23.253906 16.050781 27.011719 9.757812 29.671875 C 9.683594 29.746094 9.609375 29.773438 9.535156 29.773438 C 9.363281 29.773438 9.210938 29.625 9.210938 29.449219 C 9.210938 29.375 9.238281 29.300781 9.3125 29.226562 C 14.335938 26.289062 19.558594 22.632812 19.558594 16.964844 C 19.558594 13.976562 17.992188 11.117188 15.304688 11.117188 C 13.464844 11.117188 12.097656 12.460938 11.476562 14.25 C 11.75 14.128906 12.023438 14.054688 12.320312 14.054688 C 13.6875 14.054688 14.808594 15.171875 14.808594 16.539062 C 14.808594 17.984375 13.714844 19.175781 12.320312 19.175781 C 10.828125 19.175781 9.535156 18.007812 9.535156 16.539062 C 9.535156 13.230469 12.074219 10.472656 15.304688 10.472656 Z M 15.304688 10.472656 "/>
<path style=" stroke:none;fill-rule:nonzero;fill:rgb(0%,0%,0%);fill-opacity:1;" d="M 46.046875 22.957031 C 47.417969 22.957031 48.734375 23.652344 48.734375 25.171875 C 48.734375 26.9375 47.367188 28.179688 46.199219 28.875 C 45.328125 29.398438 44.332031 29.722656 43.3125 29.722656 C 41.945312 29.722656 40.625 29.027344 40.625 27.507812 C 40.625 25.742188 41.996094 24.5 43.164062 23.804688 C 44.035156 23.28125 45.027344 22.957031 46.046875 22.957031 Z M 46.046875 22.957031 "/>
<path style=" stroke:none;fill-rule:nonzero;fill:rgb(0%,0%,0%);fill-opacity:1;" d="M 46.046875 29.175781 C 47.417969 29.175781 48.734375 29.871094 48.734375 31.390625 C 48.734375 33.15625 47.367188 34.398438 46.199219 35.09375 C 45.328125 35.617188 44.332031 35.941406 43.3125 35.941406 C 41.945312 35.941406 40.625 35.246094 40.625 33.726562 C 40.625 31.960938 41.996094 30.71875 43.164062 30.019531 C 44.035156 29.5 45.027344 29.175781 46.046875 29.175781 Z M 46.046875 29.175781 "/>
<path style=" stroke:none;fill-rule:nonzero;fill:rgb(0%,0%,0%);fill-opacity:1;" d="M 46.046875 35.394531 C 47.417969 35.394531 48.734375 36.089844 48.734375 37.605469 C 48.734375 39.375 47.367188 40.617188 46.199219 41.3125 C 45.328125 41.835938 44.332031 42.160156 43.3125 42.160156 C 41.945312 42.160156 40.625 41.460938 40.625 39.945312 C 40.625 38.179688 41.996094 36.9375 43.164062 36.238281 C 44.035156 35.71875 45.027344 35.394531 46.046875 35.394531 Z M 46.046875 35.394531 "/>
<path style=" stroke:none;fill-rule:nonzero;fill:rgb(0%,0%,0%);fill-opacity:1;" d="M 46.046875 41.613281 C 47.417969 41.613281 48.734375 42.308594 48.734375 43.824219 C 48.734375 45.589844 47.367188 46.835938 46.199219 47.53125 C 45.328125 48.054688 44.332031 48.378906 43.3125 48.378906 C 41.945312 48.378906 40.625 47.679688 40.625 46.164062 C 40.625 44.398438 41.996094 43.152344 43.164062 42.457031 C 44.035156 41.933594 45.027344 41.613281 46.046875 41.613281 Z M 46.046875 41.613281 "/>
</g>
</svg>
