<?xml version="1.0" encoding="UTF-8"?>
<svg xmlns="http://www.w3.org/2000/svg" xmlns:xlink="http://www.w3.org/1999/xlink" width="82.756804pt" height="60.078972pt" viewBox="0 0 82.756804 60.078972" version="1.1">
<g id="surface1">
<path style="fill:none;stroke-width:0.1;stroke-linecap:round;stroke-linejoin:round;stroke:rgb(0%,0%,0%);stroke-opacity:1;stroke-miterlimit:4;" d="M 0.049863 0.00023304 L 10.903299 0.00023304 " transform="matrix(6.218149,0,0,6.218149,4.561038,41.88527)"/>
<path style="fill:none;stroke-width:0.1;stroke-linecap:round;stroke-linejoin:round;stroke:rgb(0%,0%,0%);stroke-opacity:1;stroke-miterlimit:4;" d="M 0.049863 0.000136391 L 10.903299 0.000136391 " transform="matrix(6.218149,0,0,6.218149,4.561038,35.667121)"/>
<path style="fill:none;stroke-width:0.1;stroke-linecap:round;stroke-linejoin:round;stroke:rgb(0%,0%,0%);stroke-opacity:1;stroke-miterlimit:4;" d="M 0.049863 0.0000397429 L 10.903299 0.0000397429 " transform="matrix(6.218149,0,0,6.218149,4.561038,29.448972)"/>
<path style="fill:none;stroke-width:0.1;stroke-linecap:round;stroke-linejoin:round;stroke:rgb(0%,0%,0%);stroke-opacity:1;stroke-miterlimit:4;" d="M 0.049863 -0.0000569057 L 10.903299 -0.0000569057 " transform="matrix(6.218149,0,0,6.218149,4.561038,23.230823)"/>
<path style="fill:none;stroke-width:0.1;stroke-linecap:round;stroke-linejoin:round;stroke:rgb(0%,0%,0%);stroke-opacity:1;stroke-miterlimit:4;" d="M 0.049863 -0.000153554 L 10.903299 -0.000153554 " transform="matrix(6.218149,0,0,6.218149,4.561038,17.012674)"/>
<path style=" stroke:none;fill-rule:nonzero;fill:rgb(0%,0%,0%);fill-opacity:1;" d="M 61.550781 4.578125 L 61.859375 4.578125 C 61.996094 4.578125 62.109375 4.6875 62.109375 4.824219 L 62.109375 40.480469 C 62.109375 40.617188 61.996094 40.726562 61.859375 40.726562 L 61.550781 40.726562 C 61.414062 40.726562 61.300781 40.617188 61.300781 40.480469 L 61.300781 4.824219 C 61.300781 4.6875 61.414062 4.578125 61.550781 4.578125 Z M 61.550781 4.578125 "/>
<path style=" stroke:none;fill-rule:nonzero;fill:rgb(0%,0%,0%);fill-opacity:1;" d="M 49.089844 23.230469 C 49.660156 23.804688 50.480469 23.925781 51.304688 23.925781 C 51.453125 23.925781 51.550781 24.027344 51.550781 24.175781 L 51.777344 26.339844 C 51.800781 26.488281 51.675781 26.613281 51.527344 26.589844 L 49.363281 26.363281 C 49.238281 26.339844 49.113281 26.242188 49.113281 26.117188 C 49.113281 25.296875 48.988281 24.472656 48.417969 23.902344 C 47.84375 24.472656 47.746094 25.296875 47.746094 26.117188 C 47.746094 26.242188 47.621094 26.339844 47.496094 26.363281 L 45.308594 26.589844 C 45.160156 26.613281 45.035156 26.488281 45.058594 26.339844 L 45.285156 24.175781 C 45.285156 24.027344 45.382812 23.925781 45.53125 23.925781 C 46.351562 23.925781 47.175781 23.804688 47.746094 23.230469 C 47.175781 22.660156 46.351562 22.535156 45.53125 22.535156 C 45.382812 22.535156 45.285156 22.433594 45.285156 22.285156 L 45.058594 20.121094 C 45.035156 19.972656 45.160156 19.847656 45.308594 19.871094 L 47.496094 20.097656 C 47.621094 20.121094 47.722656 20.222656 47.722656 20.34375 C 47.722656 21.167969 47.84375 21.988281 48.417969 22.558594 C 48.988281 21.988281 49.113281 21.167969 49.113281 20.34375 C 49.113281 20.222656 49.238281 20.121094 49.363281 20.097656 L 51.527344 19.871094 C 51.675781 19.847656 51.800781 19.972656 51.777344 20.121094 L 51.550781 22.285156 C 51.550781 22.433594 51.453125 22.535156 51.304688 22.535156 C 50.480469 22.535156 49.660156 22.660156 49.089844 23.230469 Z M 49.089844 23.230469 "/>
<path style=" stroke:none;fill-rule:nonzero;fill:rgb(0%,0%,0%);fill-opacity:1;" d="M 42.347656 37.210938 C 42.347656 37.457031 42.148438 37.683594 41.898438 37.683594 C 41.652344 37.683594 41.425781 37.457031 41.425781 37.210938 L 41.425781 33.601562 L 39.363281 34.375 L 39.363281 38.304688 C 39.363281 38.550781 39.136719 38.777344 38.890625 38.777344 C 38.640625 38.777344 38.441406 38.550781 38.441406 38.304688 L 38.441406 34.695312 L 37.644531 34.996094 C 37.597656 35.019531 37.523438 35.019531 37.472656 35.019531 C 37.199219 35.019531 36.972656 34.796875 36.972656 34.523438 L 36.972656 33.03125 C 36.972656 32.832031 37.097656 32.632812 37.296875 32.558594 L 38.441406 32.160156 L 38.441406 28.179688 L 37.644531 28.453125 C 37.597656 28.480469 37.523438 28.480469 37.472656 28.480469 C 37.199219 28.480469 36.972656 28.253906 36.972656 27.980469 L 36.972656 26.488281 C 36.972656 26.289062 37.097656 26.117188 37.296875 26.042969 L 38.441406 25.617188 L 38.441406 21.6875 C 38.441406 21.441406 38.640625 21.214844 38.890625 21.214844 C 39.136719 21.214844 39.363281 21.441406 39.363281 21.6875 L 39.363281 25.296875 L 41.425781 24.523438 L 41.425781 20.59375 C 41.425781 20.34375 41.652344 20.121094 41.898438 20.121094 C 42.148438 20.121094 42.347656 20.34375 42.347656 20.59375 L 42.347656 24.199219 L 43.144531 23.902344 C 43.191406 23.878906 43.265625 23.878906 43.316406 23.878906 C 43.589844 23.878906 43.8125 24.101562 43.8125 24.375 L 43.8125 25.867188 C 43.8125 26.066406 43.691406 26.265625 43.492188 26.339844 L 42.347656 26.738281 L 42.347656 30.71875 L 43.144531 30.445312 C 43.191406 30.417969 43.265625 30.417969 43.316406 30.417969 C 43.589844 30.417969 43.8125 30.644531 43.8125 30.917969 L 43.8125 32.410156 C 43.8125 32.609375 43.691406 32.78125 43.492188 32.855469 L 42.347656 33.28125 Z M 39.363281 27.832031 L 39.363281 31.8125 L 41.425781 31.066406 L 41.425781 27.085938 Z M 39.363281 27.832031 "/>
<path style=" stroke:none;fill-rule:nonzero;fill:rgb(0%,0%,0%);fill-opacity:1;" d="M 32.996094 35.667969 C 33.570312 36.238281 34.390625 36.363281 35.210938 36.363281 C 35.359375 36.363281 35.460938 36.464844 35.460938 36.613281 L 35.683594 38.777344 C 35.707031 38.925781 35.582031 39.050781 35.433594 39.023438 L 33.269531 38.800781 C 33.144531 38.777344 33.023438 38.675781 33.023438 38.550781 C 33.023438 37.730469 32.898438 36.910156 32.324219 36.339844 C 31.753906 36.910156 31.652344 37.730469 31.652344 38.550781 C 31.652344 38.675781 31.527344 38.777344 31.40625 38.800781 L 29.214844 39.023438 C 29.066406 39.050781 28.941406 38.925781 28.96875 38.777344 L 29.191406 36.613281 C 29.191406 36.464844 29.289062 36.363281 29.441406 36.363281 C 30.261719 36.363281 31.082031 36.238281 31.652344 35.667969 C 31.082031 35.09375 30.261719 34.96875 29.441406 34.96875 C 29.289062 34.96875 29.191406 34.871094 29.191406 34.722656 L 28.96875 32.558594 C 28.941406 32.410156 29.066406 32.285156 29.214844 32.308594 L 31.40625 32.53125 C 31.527344 32.558594 31.628906 32.65625 31.628906 32.78125 C 31.628906 33.601562 31.753906 34.421875 32.324219 34.996094 C 32.898438 34.421875 33.023438 33.601562 33.023438 32.78125 C 33.023438 32.65625 33.144531 32.558594 33.269531 32.53125 L 35.433594 32.308594 C 35.582031 32.285156 35.707031 32.410156 35.683594 32.558594 L 35.460938 34.722656 C 35.460938 34.871094 35.359375 34.96875 35.210938 34.96875 C 34.390625 34.96875 33.570312 35.09375 32.996094 35.667969 Z M 32.996094 35.667969 "/>
<path style=" stroke:none;fill-rule:nonzero;fill:rgb(0%,0%,0%);fill-opacity:1;" d="M 50.355469 49.644531 C 50.355469 49.894531 50.15625 50.117188 49.90625 50.117188 C 49.660156 50.117188 49.4375 49.894531 49.4375 49.644531 L 49.4375 46.039062 L 47.371094 46.808594 L 47.371094 50.738281 C 47.371094 50.988281 47.148438 51.210938 46.898438 51.210938 C 46.648438 51.210938 46.449219 50.988281 46.449219 50.738281 L 46.449219 47.132812 L 45.65625 47.433594 C 45.605469 47.457031 45.53125 47.457031 45.480469 47.457031 C 45.207031 47.457031 44.984375 47.234375 44.984375 46.960938 L 44.984375 45.46875 C 44.984375 45.269531 45.109375 45.070312 45.308594 44.996094 L 46.449219 44.597656 L 46.449219 40.617188 L 45.65625 40.890625 C 45.605469 40.914062 45.53125 40.914062 45.480469 40.914062 C 45.207031 40.914062 44.984375 40.691406 44.984375 40.417969 L 44.984375 38.925781 C 44.984375 38.726562 45.109375 38.550781 45.308594 38.476562 L 46.449219 38.054688 L 46.449219 34.125 C 46.449219 33.875 46.648438 33.652344 46.898438 33.652344 C 47.148438 33.652344 47.371094 33.875 47.371094 34.125 L 47.371094 37.730469 L 49.4375 36.960938 L 49.4375 33.03125 C 49.4375 32.78125 49.660156 32.558594 49.90625 32.558594 C 50.15625 32.558594 50.355469 32.78125 50.355469 33.03125 L 50.355469 36.636719 L 51.152344 36.339844 C 51.203125 36.3125 51.277344 36.3125 51.324219 36.3125 C 51.597656 36.3125 51.824219 36.539062 51.824219 36.8125 L 51.824219 38.304688 C 51.824219 38.503906 51.699219 38.703125 51.5 38.777344 L 50.355469 39.175781 L 50.355469 43.152344 L 51.152344 42.878906 C 51.203125 42.855469 51.277344 42.855469 51.324219 42.855469 C 51.597656 42.855469 51.824219 43.078125 51.824219 43.351562 L 51.824219 44.84375 C 51.824219 45.042969 51.699219 45.21875 51.5 45.292969 L 50.355469 45.714844 Z M 47.371094 40.269531 L 47.371094 44.25 L 49.4375 43.503906 L 49.4375 39.523438 Z M 47.371094 40.269531 "/>
<path style=" stroke:none;fill-rule:nonzero;fill:rgb(0%,0%,0%);fill-opacity:1;" d="M 16.152344 51.460938 L 16.003906 51.460938 C 13.316406 51.460938 11.152344 49.273438 11.152344 46.5625 C 11.152344 45.117188 12.46875 44 13.9375 44 C 15.28125 44 16.300781 45.167969 16.300781 46.5625 C 16.300781 47.855469 15.230469 48.925781 13.9375 48.925781 C 13.664062 48.925781 13.414062 48.875 13.167969 48.773438 C 13.8125 49.746094 14.859375 50.390625 16.078125 50.390625 L 16.175781 50.390625 Z M 21 40.714844 C 22.691406 40.121094 23.8125 38.351562 23.8125 36.636719 C 23.8125 34.398438 22.171875 32.183594 19.507812 31.910156 C 20.105469 34.796875 20.652344 37.65625 21 40.714844 Z M 11.375 34.96875 C 11.375 38.328125 14.585938 41.113281 17.941406 41.113281 C 18.640625 41.113281 19.308594 41.066406 19.980469 40.964844 C 19.632812 37.804688 19.0625 34.871094 18.414062 31.910156 C 16.449219 32.109375 15.332031 33.429688 15.332031 34.871094 C 15.332031 35.964844 15.953125 37.132812 17.34375 37.929688 C 17.46875 38.054688 17.519531 38.179688 17.519531 38.304688 C 17.519531 38.578125 17.269531 38.851562 16.972656 38.851562 C 16.898438 38.851562 16.824219 38.824219 16.75 38.800781 C 14.757812 37.730469 13.839844 35.941406 13.839844 34.199219 C 13.839844 32.011719 15.28125 29.871094 17.816406 29.300781 C 17.46875 27.855469 17.097656 26.390625 16.675781 24.945312 C 14.011719 27.957031 11.375 30.992188 11.375 34.96875 Z M 17.867188 42.183594 C 13.191406 42.183594 9.585938 37.90625 9.585938 32.882812 C 9.585938 28.480469 12.84375 25.269531 15.753906 21.914062 C 15.28125 20.371094 14.832031 18.804688 14.632812 17.1875 C 14.484375 15.894531 14.460938 14.601562 14.460938 13.308594 C 14.460938 10.445312 15.828125 7.734375 18.167969 6.042969 C 18.316406 5.917969 18.515625 5.917969 18.664062 6.042969 C 20.429688 8.132812 21.972656 12.136719 21.972656 14.949219 C 21.972656 18.503906 19.832031 21.289062 17.496094 24 C 18.015625 25.691406 18.464844 27.433594 18.886719 29.152344 C 18.988281 29.152344 19.113281 29.125 19.210938 29.125 C 23.066406 29.125 25.578125 32.308594 25.578125 35.617188 C 25.578125 37.507812 24.757812 39.449219 22.917969 40.839844 C 22.371094 41.261719 21.746094 41.535156 21.101562 41.734375 C 21.175781 42.605469 21.226562 43.476562 21.226562 44.347656 C 21.226562 44.820312 21.199219 45.316406 21.175781 45.789062 C 21 48.75 18.988281 51.386719 16.152344 51.460938 L 16.175781 50.390625 C 18.488281 50.34375 19.980469 48.101562 20.132812 45.640625 C 20.15625 45.191406 20.179688 44.722656 20.179688 44.273438 C 20.179688 43.503906 20.15625 42.753906 20.082031 41.984375 C 19.359375 42.109375 18.640625 42.183594 17.867188 42.183594 Z M 20.179688 12.882812 C 20.179688 11.515625 20.082031 10.917969 19.683594 9.675781 C 17.222656 10.871094 15.652344 13.382812 15.652344 16.117188 C 15.652344 17.957031 16.101562 19.425781 16.550781 20.941406 C 18.539062 18.53125 20.179688 16.019531 20.179688 12.882812 Z M 20.179688 12.882812 "/>
<path style=" stroke:none;fill-rule:nonzero;fill:rgb(0%,0%,0%);fill-opacity:1;" d="M 59.421875 19.847656 C 60.789062 19.847656 62.109375 20.542969 62.109375 22.0625 C 62.109375 23.828125 60.738281 25.070312 59.570312 25.769531 C 58.699219 26.289062 57.707031 26.613281 56.6875 26.613281 C 55.316406 26.613281 54 25.917969 54 24.398438 C 54 22.632812 55.367188 21.390625 56.535156 20.695312 C 57.40625 20.171875 58.402344 19.847656 59.421875 19.847656 Z M 59.421875 19.847656 "/>
<path style=" stroke:none;fill-rule:nonzero;fill:rgb(0%,0%,0%);fill-opacity:1;" d="M 59.421875 26.066406 C 60.789062 26.066406 62.109375 26.761719 62.109375 28.28125 C 62.109375 30.046875 60.738281 31.289062 59.570312 31.984375 C 58.699219 32.507812 57.707031 32.832031 56.6875 32.832031 C 55.316406 32.832031 54 32.136719 54 30.617188 C 54 28.851562 55.367188 27.609375 56.535156 26.910156 C 57.40625 26.390625 58.402344 26.066406 59.421875 26.066406 Z M 59.421875 26.066406 "/>
<path style=" stroke:none;fill-rule:nonzero;fill:rgb(0%,0%,0%);fill-opacity:1;" d="M 59.421875 32.285156 C 60.789062 32.285156 62.109375 32.980469 62.109375 34.5 C 62.109375 36.265625 60.738281 37.507812 59.570312 38.203125 C 58.699219 38.726562 57.707031 39.050781 56.6875 39.050781 C 55.316406 39.050781 54 38.351562 54 36.835938 C 54 35.070312 55.367188 33.828125 56.535156 33.128906 C 57.40625 32.609375 58.402344 32.285156 59.421875 32.285156 Z M 59.421875 32.285156 "/>
<path style=" stroke:none;fill-rule:nonzero;fill:rgb(0%,0%,0%);fill-opacity:1;" d="M 59.421875 38.503906 C 60.789062 38.503906 62.109375 39.199219 62.109375 40.714844 C 62.109375 42.480469 60.738281 43.726562 59.570312 44.421875 C 58.699219 44.945312 57.707031 45.269531 56.6875 45.269531 C 55.316406 45.269531 54 44.570312 54 43.054688 C 54 41.289062 55.367188 40.042969 56.535156 39.347656 C 57.40625 38.824219 58.402344 38.503906 59.421875 38.503906 Z M 59.421875 38.503906 "/>
</g>
</svg>
