<?xml version="1.0" encoding="UTF-8"?>
<svg xmlns="http://www.w3.org/2000/svg" xmlns:xlink="http://www.w3.org/1999/xlink" width="68.472344pt" height="53.795888pt" viewBox="0 0 68.472344 53.795888" version="1.1">
<g id="surface1">
<path style="fill:none;stroke-width:0.1;stroke-linecap:round;stroke-linejoin:round;stroke:rgb(0%,0%,0%);stroke-opacity:1;stroke-miterlimit:4;" d="M 0.049863 -0.000304683 L 8.752337 -0.000304683 " transform="matrix(6.218149,0,0,6.218149,4.561038,45.26752)"/>
<path style="fill:none;stroke-width:0.1;stroke-linecap:round;stroke-linejoin:round;stroke:rgb(0%,0%,0%);stroke-opacity:1;stroke-miterlimit:4;" d="M 0.049863 0.00022687 L 8.752337 0.00022687 " transform="matrix(6.218149,0,0,6.218149,4.561038,39.049371)"/>
<path style="fill:none;stroke-width:0.1;stroke-linecap:round;stroke-linejoin:round;stroke:rgb(0%,0%,0%);stroke-opacity:1;stroke-miterlimit:4;" d="M 0.049863 0.000130221 L 8.752337 0.000130221 " transform="matrix(6.218149,0,0,6.218149,4.561038,32.831222)"/>
<path style="fill:none;stroke-width:0.1;stroke-linecap:round;stroke-linejoin:round;stroke:rgb(0%,0%,0%);stroke-opacity:1;stroke-miterlimit:4;" d="M 0.049863 0.0000335725 L 8.752337 0.0000335725 " transform="matrix(6.218149,0,0,6.218149,4.561038,26.613072)"/>
<path style="fill:none;stroke-width:0.1;stroke-linecap:round;stroke-linejoin:round;stroke:rgb(0%,0%,0%);stroke-opacity:1;stroke-miterlimit:4;" d="M 0.049863 -0.0000630761 L 8.752337 -0.0000630761 " transform="matrix(6.218149,0,0,6.218149,4.561038,20.394923)"/>
<path style=" stroke:none;fill-rule:nonzero;fill:rgb(0%,0%,0%);fill-opacity:1;" d="M 39.21875 7.335938 L 50.140625 7.335938 C 50.484375 7.335938 50.761719 7.613281 50.761719 7.957031 C 50.761719 8.300781 50.484375 8.582031 50.140625 8.582031 L 39.21875 8.582031 C 38.878906 8.582031 38.597656 8.300781 38.597656 7.957031 C 38.597656 7.613281 38.878906 7.335938 39.21875 7.335938 Z M 39.21875 7.335938 "/>
<path style=" stroke:none;fill-rule:nonzero;fill:rgb(0%,0%,0%);fill-opacity:1;" d="M 31.515625 13.554688 L 50.140625 13.554688 C 50.484375 13.554688 50.761719 13.832031 50.761719 14.175781 C 50.761719 14.519531 50.484375 14.796875 50.140625 14.796875 L 31.515625 14.796875 C 31.171875 14.796875 30.894531 14.519531 30.894531 14.175781 C 30.894531 13.832031 31.171875 13.554688 31.515625 13.554688 Z M 31.515625 13.554688 "/>
<path style=" stroke:none;fill-rule:nonzero;fill:rgb(0%,0%,0%);fill-opacity:1;" d="M 40.875 9.117188 L 41.1875 9.117188 C 41.324219 9.117188 41.433594 9.226562 41.433594 9.363281 L 41.433594 45.019531 C 41.433594 45.15625 41.324219 45.265625 41.1875 45.265625 L 40.875 45.265625 C 40.738281 45.265625 40.625 45.15625 40.625 45.019531 L 40.625 9.363281 C 40.625 9.226562 40.738281 9.117188 40.875 9.117188 Z M 40.875 9.117188 "/>
<path style=" stroke:none;fill-rule:nonzero;fill:rgb(0%,0%,0%);fill-opacity:1;" d="M 23.390625 29.722656 C 23.390625 29.027344 23.960938 28.453125 24.65625 28.453125 C 25.355469 28.453125 25.925781 29.027344 25.925781 29.722656 C 25.925781 30.417969 25.355469 30.992188 24.65625 30.992188 C 23.960938 30.992188 23.390625 30.417969 23.390625 29.722656 Z M 23.390625 23.503906 C 23.390625 22.808594 23.960938 22.234375 24.65625 22.234375 C 25.355469 22.234375 25.925781 22.808594 25.925781 23.503906 C 25.925781 24.199219 25.355469 24.773438 24.65625 24.773438 C 23.960938 24.773438 23.390625 24.199219 23.390625 23.503906 Z M 15.304688 20.070312 C 19.585938 20.070312 22.59375 22.261719 22.59375 26.316406 C 22.59375 32.855469 16.050781 36.613281 9.757812 39.273438 C 9.683594 39.347656 9.609375 39.371094 9.535156 39.371094 C 9.363281 39.371094 9.210938 39.222656 9.210938 39.050781 C 9.210938 38.976562 9.238281 38.898438 9.3125 38.824219 C 14.335938 35.890625 19.558594 32.234375 19.558594 26.5625 C 19.558594 23.578125 17.992188 20.71875 15.304688 20.71875 C 13.464844 20.71875 12.097656 22.0625 11.476562 23.851562 C 11.75 23.726562 12.023438 23.652344 12.320312 23.652344 C 13.6875 23.652344 14.808594 24.773438 14.808594 26.140625 C 14.808594 27.582031 13.714844 28.777344 12.320312 28.777344 C 10.828125 28.777344 9.535156 27.609375 9.535156 26.140625 C 9.535156 22.832031 12.074219 20.070312 15.304688 20.070312 Z M 15.304688 20.070312 "/>
<path style=" stroke:none;fill-rule:nonzero;fill:rgb(0%,0%,0%);fill-opacity:1;" d="M 46.046875 4.574219 C 47.417969 4.574219 48.734375 5.273438 48.734375 6.789062 C 48.734375 8.554688 47.367188 9.800781 46.199219 10.496094 C 45.328125 11.019531 44.332031 11.339844 43.3125 11.339844 C 41.945312 11.339844 40.625 10.644531 40.625 9.128906 C 40.625 7.363281 41.996094 6.117188 43.164062 5.421875 C 44.035156 4.898438 45.027344 4.574219 46.046875 4.574219 Z M 46.046875 4.574219 "/>
<path style=" stroke:none;fill-rule:nonzero;fill:rgb(0%,0%,0%);fill-opacity:1;" d="M 38.34375 7.683594 C 39.710938 7.683594 41.027344 8.382812 41.027344 9.898438 C 41.027344 11.664062 39.660156 12.910156 38.492188 13.605469 C 37.621094 14.128906 36.625 14.449219 35.605469 14.449219 C 34.238281 14.449219 32.921875 13.753906 32.921875 12.238281 C 32.921875 10.472656 34.289062 9.226562 35.457031 8.53125 C 36.328125 8.007812 37.324219 7.683594 38.34375 7.683594 Z M 38.34375 7.683594 "/>
<path style=" stroke:none;fill-rule:nonzero;fill:rgb(0%,0%,0%);fill-opacity:1;" d="M 46.046875 13.902344 C 47.417969 13.902344 48.734375 14.597656 48.734375 16.117188 C 48.734375 17.882812 47.367188 19.125 46.199219 19.824219 C 45.328125 20.34375 44.332031 20.667969 43.3125 20.667969 C 41.945312 20.667969 40.625 19.972656 40.625 18.453125 C 40.625 16.6875 41.996094 15.445312 43.164062 14.75 C 44.035156 14.226562 45.027344 13.902344 46.046875 13.902344 Z M 46.046875 13.902344 "/>
<path style=" stroke:none;fill-rule:nonzero;fill:rgb(0%,0%,0%);fill-opacity:1;" d="M 46.046875 20.121094 C 47.417969 20.121094 48.734375 20.816406 48.734375 22.335938 C 48.734375 24.101562 47.367188 25.34375 46.199219 26.039062 C 45.328125 26.5625 44.332031 26.886719 43.3125 26.886719 C 41.945312 26.886719 40.625 26.191406 40.625 24.671875 C 40.625 22.90625 41.996094 21.664062 43.164062 20.96875 C 44.035156 20.445312 45.027344 20.121094 46.046875 20.121094 Z M 46.046875 20.121094 "/>
</g>
</svg>
