<?xml version="1.0" encoding="UTF-8"?>
<svg xmlns="http://www.w3.org/2000/svg" xmlns:xlink="http://www.w3.org/1999/xlink" width="72.982108pt" height="64.987243pt" viewBox="0 0 72.982108 64.987243" version="1.1">
<g id="surface1">
<path style="fill:none;stroke-width:0.1;stroke-linecap:round;stroke-linejoin:round;stroke:rgb(0%,0%,0%);stroke-opacity:1;stroke-miterlimit:4;" d="M 0.049863 -0.000287501 L 9.431423 -0.000287501 " transform="matrix(6.218149,0,0,6.218149,4.561038,40.517413)"/>
<path style="fill:none;stroke-width:0.1;stroke-linecap:round;stroke-linejoin:round;stroke:rgb(0%,0%,0%);stroke-opacity:1;stroke-miterlimit:4;" d="M 0.049863 0.000244052 L 9.431423 0.000244052 " transform="matrix(6.218149,0,0,6.218149,4.561038,34.299264)"/>
<path style="fill:none;stroke-width:0.1;stroke-linecap:round;stroke-linejoin:round;stroke:rgb(0%,0%,0%);stroke-opacity:1;stroke-miterlimit:4;" d="M 0.049863 0.000147403 L 9.431423 0.000147403 " transform="matrix(6.218149,0,0,6.218149,4.561038,28.081115)"/>
<path style="fill:none;stroke-width:0.1;stroke-linecap:round;stroke-linejoin:round;stroke:rgb(0%,0%,0%);stroke-opacity:1;stroke-miterlimit:4;" d="M 0.049863 0.0000507548 L 9.431423 0.0000507548 " transform="matrix(6.218149,0,0,6.218149,4.561038,21.862966)"/>
<path style="fill:none;stroke-width:0.1;stroke-linecap:round;stroke-linejoin:round;stroke:rgb(0%,0%,0%);stroke-opacity:1;stroke-miterlimit:4;" d="M 0.049863 -0.0000458938 L 9.431423 -0.0000458938 " transform="matrix(6.218149,0,0,6.218149,4.561038,15.644817)"/>
<path style=" stroke:none;fill-rule:nonzero;fill:rgb(0%,0%,0%);fill-opacity:1;" d="M 43.441406 46.113281 L 54.363281 46.113281 C 54.707031 46.113281 54.984375 46.390625 54.984375 46.734375 C 54.984375 47.078125 54.707031 47.355469 54.363281 47.355469 L 43.441406 47.355469 C 43.101562 47.355469 42.820312 47.078125 42.820312 46.734375 C 42.820312 46.390625 43.101562 46.113281 43.441406 46.113281 Z M 43.441406 46.113281 "/>
<path style=" stroke:none;fill-rule:nonzero;fill:rgb(0%,0%,0%);fill-opacity:1;" d="M 52.398438 12.535156 L 52.710938 12.535156 C 52.847656 12.535156 52.957031 12.648438 52.957031 12.785156 L 52.957031 45.328125 C 52.957031 45.46875 52.847656 45.578125 52.710938 45.578125 L 52.398438 45.578125 C 52.261719 45.578125 52.148438 45.46875 52.148438 45.328125 L 52.148438 12.785156 C 52.148438 12.648438 52.261719 12.535156 52.398438 12.535156 Z M 52.398438 12.535156 "/>
<path style=" stroke:none;fill-rule:nonzero;fill:rgb(0%,0%,0%);fill-opacity:1;" d="M 41.203125 42.058594 C 41.203125 42.308594 41.003906 42.53125 40.757812 42.53125 C 40.507812 42.53125 40.285156 42.308594 40.285156 42.058594 L 40.285156 38.453125 L 38.21875 39.222656 L 38.21875 43.152344 C 38.21875 43.402344 37.996094 43.625 37.746094 43.625 C 37.5 43.625 37.300781 43.402344 37.300781 43.152344 L 37.300781 39.546875 L 36.503906 39.847656 C 36.453125 39.871094 36.378906 39.871094 36.328125 39.871094 C 36.054688 39.871094 35.832031 39.648438 35.832031 39.375 L 35.832031 37.882812 C 35.832031 37.683594 35.957031 37.484375 36.15625 37.410156 L 37.300781 37.011719 L 37.300781 33.03125 L 36.503906 33.304688 C 36.453125 33.328125 36.378906 33.328125 36.328125 33.328125 C 36.054688 33.328125 35.832031 33.105469 35.832031 32.832031 L 35.832031 31.339844 C 35.832031 31.140625 35.957031 30.964844 36.15625 30.890625 L 37.300781 30.46875 L 37.300781 26.539062 C 37.300781 26.289062 37.5 26.066406 37.746094 26.066406 C 37.996094 26.066406 38.21875 26.289062 38.21875 26.539062 L 38.21875 30.144531 L 40.285156 29.375 L 40.285156 25.445312 C 40.285156 25.195312 40.507812 24.972656 40.757812 24.972656 C 41.003906 24.972656 41.203125 25.195312 41.203125 25.445312 L 41.203125 29.050781 L 42 28.753906 C 42.050781 28.726562 42.125 28.726562 42.175781 28.726562 C 42.449219 28.726562 42.671875 28.953125 42.671875 29.226562 L 42.671875 30.71875 C 42.671875 30.917969 42.546875 31.117188 42.347656 31.191406 L 41.203125 31.589844 L 41.203125 35.566406 L 42 35.292969 C 42.050781 35.269531 42.125 35.269531 42.175781 35.269531 C 42.449219 35.269531 42.671875 35.492188 42.671875 35.765625 L 42.671875 37.257812 C 42.671875 37.457031 42.546875 37.632812 42.347656 37.707031 L 41.203125 38.128906 Z M 38.21875 32.683594 L 38.21875 36.664062 L 40.285156 35.914062 L 40.285156 31.9375 Z M 38.21875 32.683594 "/>
<path style=" stroke:none;fill-rule:nonzero;fill:rgb(0%,0%,0%);fill-opacity:1;" d="M 34.589844 54.496094 C 34.589844 54.746094 34.390625 54.96875 34.140625 54.96875 C 33.890625 54.96875 33.667969 54.746094 33.667969 54.496094 L 33.667969 50.890625 L 31.605469 51.660156 L 31.605469 55.589844 C 31.605469 55.839844 31.378906 56.0625 31.132812 56.0625 C 30.882812 56.0625 30.683594 55.839844 30.683594 55.589844 L 30.683594 51.984375 L 29.886719 52.28125 C 29.835938 52.308594 29.761719 52.308594 29.714844 52.308594 C 29.441406 52.308594 29.214844 52.082031 29.214844 51.808594 L 29.214844 50.316406 C 29.214844 50.117188 29.339844 49.917969 29.539062 49.84375 L 30.683594 49.445312 L 30.683594 45.46875 L 29.886719 45.742188 C 29.835938 45.765625 29.761719 45.765625 29.714844 45.765625 C 29.441406 45.765625 29.214844 45.542969 29.214844 45.269531 L 29.214844 43.777344 C 29.214844 43.578125 29.339844 43.402344 29.539062 43.328125 L 30.683594 42.90625 L 30.683594 38.976562 C 30.683594 38.726562 30.882812 38.503906 31.132812 38.503906 C 31.378906 38.503906 31.605469 38.726562 31.605469 38.976562 L 31.605469 42.582031 L 33.667969 41.8125 L 33.667969 37.882812 C 33.667969 37.632812 33.890625 37.410156 34.140625 37.410156 C 34.390625 37.410156 34.589844 37.632812 34.589844 37.882812 L 34.589844 41.488281 L 35.382812 41.1875 C 35.433594 41.164062 35.507812 41.164062 35.558594 41.164062 C 35.832031 41.164062 36.054688 41.386719 36.054688 41.660156 L 36.054688 43.152344 C 36.054688 43.351562 35.929688 43.550781 35.734375 43.625 L 34.589844 44.023438 L 34.589844 48.003906 L 35.382812 47.730469 C 35.433594 47.707031 35.507812 47.707031 35.558594 47.707031 C 35.832031 47.707031 36.054688 47.929688 36.054688 48.203125 L 36.054688 49.695312 C 36.054688 49.894531 35.929688 50.070312 35.734375 50.144531 L 34.589844 50.566406 Z M 31.605469 45.117188 L 31.605469 49.097656 L 33.667969 48.351562 L 33.667969 44.371094 Z M 31.605469 45.117188 "/>
<path style=" stroke:none;fill-rule:nonzero;fill:rgb(0%,0%,0%);fill-opacity:1;" d="M 16.152344 50.09375 L 16.003906 50.09375 C 13.316406 50.09375 11.152344 47.90625 11.152344 45.195312 C 11.152344 43.75 12.46875 42.632812 13.9375 42.632812 C 15.28125 42.632812 16.300781 43.800781 16.300781 45.195312 C 16.300781 46.488281 15.230469 47.554688 13.9375 47.554688 C 13.664062 47.554688 13.414062 47.507812 13.167969 47.40625 C 13.8125 48.378906 14.859375 49.023438 16.078125 49.023438 L 16.175781 49.023438 Z M 21 39.347656 C 22.691406 38.75 23.8125 36.984375 23.8125 35.269531 C 23.8125 33.03125 22.171875 30.816406 19.507812 30.542969 C 20.105469 33.429688 20.652344 36.289062 21 39.347656 Z M 11.375 33.601562 C 11.375 36.960938 14.585938 39.746094 17.941406 39.746094 C 18.640625 39.746094 19.308594 39.695312 19.980469 39.597656 C 19.632812 36.4375 19.0625 33.503906 18.414062 30.542969 C 16.449219 30.742188 15.332031 32.0625 15.332031 33.503906 C 15.332031 34.597656 15.953125 35.765625 17.34375 36.5625 C 17.46875 36.6875 17.519531 36.8125 17.519531 36.9375 C 17.519531 37.210938 17.269531 37.484375 16.972656 37.484375 C 16.898438 37.484375 16.824219 37.457031 16.75 37.433594 C 14.757812 36.363281 13.839844 34.574219 13.839844 32.832031 C 13.839844 30.644531 15.28125 28.503906 17.816406 27.933594 C 17.46875 26.488281 17.097656 25.023438 16.675781 23.578125 C 14.011719 26.589844 11.375 29.625 11.375 33.601562 Z M 17.867188 40.816406 C 13.191406 40.816406 9.585938 36.539062 9.585938 31.511719 C 9.585938 27.109375 12.84375 23.902344 15.753906 20.542969 C 15.28125 19.003906 14.832031 17.4375 14.632812 15.820312 C 14.484375 14.527344 14.460938 13.230469 14.460938 11.9375 C 14.460938 9.078125 15.828125 6.367188 18.167969 4.675781 C 18.316406 4.550781 18.515625 4.550781 18.664062 4.675781 C 20.429688 6.765625 21.972656 10.769531 21.972656 13.582031 C 21.972656 17.136719 19.832031 19.921875 17.496094 22.632812 C 18.015625 24.324219 18.464844 26.066406 18.886719 27.78125 C 18.988281 27.78125 19.113281 27.757812 19.210938 27.757812 C 23.066406 27.757812 25.578125 30.941406 25.578125 34.25 C 25.578125 36.140625 24.757812 38.078125 22.917969 39.472656 C 22.371094 39.894531 21.746094 40.167969 21.101562 40.367188 C 21.175781 41.238281 21.226562 42.109375 21.226562 42.980469 C 21.226562 43.453125 21.199219 43.949219 21.175781 44.421875 C 21 47.382812 18.988281 50.019531 16.152344 50.09375 L 16.175781 49.023438 C 18.488281 48.972656 19.980469 46.734375 20.132812 44.273438 C 20.15625 43.824219 20.179688 43.351562 20.179688 42.90625 C 20.179688 42.132812 20.15625 41.386719 20.082031 40.617188 C 19.359375 40.742188 18.640625 40.816406 17.867188 40.816406 Z M 20.179688 11.515625 C 20.179688 10.148438 20.082031 9.550781 19.683594 8.308594 C 17.222656 9.5 15.652344 12.011719 15.652344 14.75 C 15.652344 16.589844 16.101562 18.058594 16.550781 19.574219 C 18.539062 17.160156 20.179688 14.648438 20.179688 11.515625 Z M 20.179688 11.515625 "/>
<path style=" stroke:none;fill-rule:nonzero;fill:rgb(0%,0%,0%);fill-opacity:1;" d="M 50.269531 30.917969 C 51.636719 30.917969 52.957031 31.613281 52.957031 33.128906 C 52.957031 34.894531 51.589844 36.140625 50.417969 36.835938 C 49.550781 37.359375 48.554688 37.683594 47.535156 37.683594 C 46.167969 37.683594 44.847656 36.984375 44.847656 35.46875 C 44.847656 33.703125 46.214844 32.457031 47.386719 31.761719 C 48.257812 31.238281 49.25 30.917969 50.269531 30.917969 Z M 50.269531 30.917969 "/>
<path style=" stroke:none;fill-rule:nonzero;fill:rgb(0%,0%,0%);fill-opacity:1;" d="M 50.269531 37.132812 C 51.636719 37.132812 52.957031 37.832031 52.957031 39.347656 C 52.957031 41.113281 51.589844 42.359375 50.417969 43.054688 C 49.550781 43.578125 48.554688 43.898438 47.535156 43.898438 C 46.167969 43.898438 44.847656 43.203125 44.847656 41.6875 C 44.847656 39.921875 46.214844 38.675781 47.386719 37.980469 C 48.257812 37.457031 49.25 37.132812 50.269531 37.132812 Z M 50.269531 37.132812 "/>
<path style=" stroke:none;fill-rule:nonzero;fill:rgb(0%,0%,0%);fill-opacity:1;" d="M 50.269531 43.351562 C 51.636719 43.351562 52.957031 44.050781 52.957031 45.566406 C 52.957031 47.332031 51.589844 48.574219 50.417969 49.273438 C 49.550781 49.792969 48.554688 50.117188 47.535156 50.117188 C 46.167969 50.117188 44.847656 49.421875 44.847656 47.90625 C 44.847656 46.136719 46.214844 44.894531 47.386719 44.199219 C 48.257812 43.675781 49.25 43.351562 50.269531 43.351562 Z M 50.269531 43.351562 "/>
</g>
</svg>
