<?xml version="1.0" encoding="UTF-8"?>
<svg xmlns="http://www.w3.org/2000/svg" xmlns:xlink="http://www.w3.org/1999/xlink" width="80.102086pt" height="69.317679pt" viewBox="0 0 80.102086 69.317679" version="1.1">
<g id="surface1">
<path style="fill:none;stroke-width:0.1;stroke-linecap:round;stroke-linejoin:round;stroke:rgb(0%,0%,0%);stroke-opacity:1;stroke-miterlimit:4;" d="M 0.049863 -0.000287501 L 10.503135 -0.000287501 " transform="matrix(6.218149,0,0,6.218149,4.561038,40.517413)"/>
<path style="fill:none;stroke-width:0.1;stroke-linecap:round;stroke-linejoin:round;stroke:rgb(0%,0%,0%);stroke-opacity:1;stroke-miterlimit:4;" d="M 0.049863 0.000244052 L 10.503135 0.000244052 " transform="matrix(6.218149,0,0,6.218149,4.561038,34.299264)"/>
<path style="fill:none;stroke-width:0.1;stroke-linecap:round;stroke-linejoin:round;stroke:rgb(0%,0%,0%);stroke-opacity:1;stroke-miterlimit:4;" d="M 0.049863 0.000147403 L 10.503135 0.000147403 " transform="matrix(6.218149,0,0,6.218149,4.561038,28.081115)"/>
<path style="fill:none;stroke-width:0.1;stroke-linecap:round;stroke-linejoin:round;stroke:rgb(0%,0%,0%);stroke-opacity:1;stroke-miterlimit:4;" d="M 0.049863 0.0000507548 L 10.503135 0.0000507548 " transform="matrix(6.218149,0,0,6.218149,4.561038,21.862966)"/>
<path style="fill:none;stroke-width:0.1;stroke-linecap:round;stroke-linejoin:round;stroke:rgb(0%,0%,0%);stroke-opacity:1;stroke-miterlimit:4;" d="M 0.049863 -0.0000458938 L 10.503135 -0.0000458938 " transform="matrix(6.218149,0,0,6.218149,4.561038,15.644817)"/>
<path style=" stroke:none;fill-rule:nonzero;fill:rgb(0%,0%,0%);fill-opacity:1;" d="M 50.109375 46.113281 L 61.03125 46.113281 C 61.375 46.113281 61.652344 46.390625 61.652344 46.734375 C 61.652344 47.078125 61.375 47.355469 61.03125 47.355469 L 50.109375 47.355469 C 49.765625 47.355469 49.488281 47.078125 49.488281 46.734375 C 49.488281 46.390625 49.765625 46.113281 50.109375 46.113281 Z M 50.109375 46.113281 "/>
<path style=" stroke:none;fill-rule:nonzero;fill:rgb(0%,0%,0%);fill-opacity:1;" d="M 50.109375 52.332031 L 61.03125 52.332031 C 61.375 52.332031 61.652344 52.609375 61.652344 52.953125 C 61.652344 53.296875 61.375 53.574219 61.03125 53.574219 L 50.109375 53.574219 C 49.765625 53.574219 49.488281 53.296875 49.488281 52.953125 C 49.488281 52.609375 49.765625 52.332031 50.109375 52.332031 Z M 50.109375 52.332031 "/>
<path style=" stroke:none;fill-rule:nonzero;fill:rgb(0%,0%,0%);fill-opacity:1;" d="M 59.066406 21.863281 L 59.375 21.863281 C 59.511719 21.863281 59.625 21.972656 59.625 22.113281 L 59.625 54.65625 C 59.625 54.792969 59.511719 54.90625 59.375 54.90625 L 59.066406 54.90625 C 58.925781 54.90625 58.816406 54.792969 58.816406 54.65625 L 58.816406 22.113281 C 58.816406 21.972656 58.925781 21.863281 59.066406 21.863281 Z M 59.066406 21.863281 "/>
<path style=" stroke:none;fill-rule:nonzero;fill:rgb(0%,0%,0%);fill-opacity:1;" d="M 45.035156 42.605469 L 45.011719 44.25 L 45.011719 44.523438 C 45.011719 45.070312 45.035156 45.617188 45.109375 46.164062 C 46.230469 45.21875 47.421875 44.171875 47.421875 42.707031 C 47.421875 41.886719 47.074219 41.039062 46.351562 41.039062 C 45.582031 41.039062 45.058594 41.785156 45.035156 42.605469 Z M 43.992188 47.058594 L 43.691406 32.257812 C 43.890625 32.136719 44.140625 32.0625 44.363281 32.0625 C 44.585938 32.0625 44.835938 32.136719 45.035156 32.257812 L 44.859375 40.839844 C 45.484375 40.320312 46.304688 39.996094 47.125 39.996094 C 48.417969 39.996094 49.339844 41.1875 49.339844 42.53125 C 49.339844 44.523438 47.199219 45.441406 45.683594 46.734375 C 45.308594 47.058594 45.085938 47.679688 44.5625 47.679688 C 44.238281 47.679688 43.992188 47.40625 43.992188 47.058594 Z M 43.992188 47.058594 "/>
<path style=" stroke:none;fill-rule:nonzero;fill:rgb(0%,0%,0%);fill-opacity:1;" d="M 34.6875 48.824219 L 34.664062 50.464844 C 34.664062 50.566406 34.636719 50.640625 34.636719 50.738281 C 34.636719 51.289062 34.664062 51.835938 34.738281 52.382812 C 35.832031 51.460938 36.902344 50.34375 36.902344 48.925781 C 36.902344 48.105469 36.628906 47.257812 35.90625 47.257812 C 35.160156 47.257812 34.710938 48.003906 34.6875 48.824219 Z M 34.664062 38.476562 L 34.515625 47.058594 C 35.109375 46.535156 35.882812 46.214844 36.679688 46.214844 C 37.996094 46.214844 38.964844 47.382812 38.964844 48.726562 C 38.964844 50.714844 36.828125 51.660156 35.308594 52.953125 C 34.9375 53.277344 34.738281 53.898438 34.214844 53.898438 C 33.890625 53.898438 33.617188 53.625 33.617188 53.277344 L 33.570312 50.640625 C 32.898438 51.484375 31.925781 52.183594 31.132812 52.953125 C 30.808594 53.277344 30.660156 53.898438 30.160156 53.898438 C 29.835938 53.898438 29.589844 53.601562 29.589844 53.253906 L 29.289062 38.476562 C 29.488281 38.351562 29.738281 38.277344 29.960938 38.277344 C 30.1875 38.277344 30.433594 38.351562 30.632812 38.476562 L 30.460938 47.058594 C 30.882812 46.535156 31.527344 46.214844 32.199219 46.214844 C 32.699219 46.214844 33.144531 46.414062 33.492188 46.734375 L 33.320312 38.476562 C 33.519531 38.351562 33.769531 38.277344 33.992188 38.277344 C 34.214844 38.277344 34.464844 38.351562 34.664062 38.476562 Z M 30.386719 50.492188 L 30.386719 50.738281 C 30.386719 51.3125 30.410156 51.859375 30.484375 52.429688 C 31.453125 51.484375 32.25 50.292969 32.25 48.925781 C 32.25 48.128906 32.101562 47.257812 31.429688 47.257812 C 30.757812 47.257812 30.460938 48.027344 30.433594 48.800781 Z M 30.386719 50.492188 "/>
<path style=" stroke:none;fill-rule:nonzero;fill:rgb(0%,0%,0%);fill-opacity:1;" d="M 41.554688 55.042969 L 41.527344 56.683594 L 41.527344 56.957031 C 41.527344 57.503906 41.554688 58.050781 41.628906 58.601562 C 42.746094 57.65625 43.941406 56.609375 43.941406 55.140625 C 43.941406 54.320312 43.59375 53.476562 42.871094 53.476562 C 42.101562 53.476562 41.578125 54.222656 41.554688 55.042969 Z M 40.507812 59.496094 L 40.210938 44.695312 C 40.410156 44.570312 40.65625 44.496094 40.882812 44.496094 C 41.105469 44.496094 41.355469 44.570312 41.554688 44.695312 L 41.378906 53.277344 C 42 52.753906 42.820312 52.429688 43.640625 52.429688 C 44.933594 52.429688 45.855469 53.625 45.855469 54.96875 C 45.855469 56.957031 43.714844 57.878906 42.199219 59.171875 C 41.828125 59.496094 41.601562 60.117188 41.082031 60.117188 C 40.757812 60.117188 40.507812 59.84375 40.507812 59.496094 Z M 40.507812 59.496094 "/>
<path style=" stroke:none;fill-rule:nonzero;fill:rgb(0%,0%,0%);fill-opacity:1;" d="M 16.152344 50.09375 L 16.003906 50.09375 C 13.316406 50.09375 11.152344 47.90625 11.152344 45.195312 C 11.152344 43.75 12.46875 42.632812 13.9375 42.632812 C 15.28125 42.632812 16.300781 43.800781 16.300781 45.195312 C 16.300781 46.488281 15.230469 47.554688 13.9375 47.554688 C 13.664062 47.554688 13.414062 47.507812 13.167969 47.40625 C 13.8125 48.378906 14.859375 49.023438 16.078125 49.023438 L 16.175781 49.023438 Z M 21 39.347656 C 22.691406 38.75 23.8125 36.984375 23.8125 35.269531 C 23.8125 33.03125 22.171875 30.816406 19.507812 30.542969 C 20.105469 33.429688 20.652344 36.289062 21 39.347656 Z M 11.375 33.601562 C 11.375 36.960938 14.585938 39.746094 17.941406 39.746094 C 18.640625 39.746094 19.308594 39.695312 19.980469 39.597656 C 19.632812 36.4375 19.0625 33.503906 18.414062 30.542969 C 16.449219 30.742188 15.332031 32.0625 15.332031 33.503906 C 15.332031 34.597656 15.953125 35.765625 17.34375 36.5625 C 17.46875 36.6875 17.519531 36.8125 17.519531 36.9375 C 17.519531 37.210938 17.269531 37.484375 16.972656 37.484375 C 16.898438 37.484375 16.824219 37.457031 16.75 37.433594 C 14.757812 36.363281 13.839844 34.574219 13.839844 32.832031 C 13.839844 30.644531 15.28125 28.503906 17.816406 27.933594 C 17.46875 26.488281 17.097656 25.023438 16.675781 23.578125 C 14.011719 26.589844 11.375 29.625 11.375 33.601562 Z M 17.867188 40.816406 C 13.191406 40.816406 9.585938 36.539062 9.585938 31.511719 C 9.585938 27.109375 12.84375 23.902344 15.753906 20.542969 C 15.28125 19.003906 14.832031 17.4375 14.632812 15.820312 C 14.484375 14.527344 14.460938 13.230469 14.460938 11.9375 C 14.460938 9.078125 15.828125 6.367188 18.167969 4.675781 C 18.316406 4.550781 18.515625 4.550781 18.664062 4.675781 C 20.429688 6.765625 21.972656 10.769531 21.972656 13.582031 C 21.972656 17.136719 19.832031 19.921875 17.496094 22.632812 C 18.015625 24.324219 18.464844 26.066406 18.886719 27.78125 C 18.988281 27.78125 19.113281 27.757812 19.210938 27.757812 C 23.066406 27.757812 25.578125 30.941406 25.578125 34.25 C 25.578125 36.140625 24.757812 38.078125 22.917969 39.472656 C 22.371094 39.894531 21.746094 40.167969 21.101562 40.367188 C 21.175781 41.238281 21.226562 42.109375 21.226562 42.980469 C 21.226562 43.453125 21.199219 43.949219 21.175781 44.421875 C 21 47.382812 18.988281 50.019531 16.152344 50.09375 L 16.175781 49.023438 C 18.488281 48.972656 19.980469 46.734375 20.132812 44.273438 C 20.15625 43.824219 20.179688 43.351562 20.179688 42.90625 C 20.179688 42.132812 20.15625 41.386719 20.082031 40.617188 C 19.359375 40.742188 18.640625 40.816406 17.867188 40.816406 Z M 20.179688 11.515625 C 20.179688 10.148438 20.082031 9.550781 19.683594 8.308594 C 17.222656 9.5 15.652344 12.011719 15.652344 14.75 C 15.652344 16.589844 16.101562 18.058594 16.550781 19.574219 C 18.539062 17.160156 20.179688 14.648438 20.179688 11.515625 Z M 20.179688 11.515625 "/>
<path style=" stroke:none;fill-rule:nonzero;fill:rgb(0%,0%,0%);fill-opacity:1;" d="M 56.9375 40.242188 C 58.304688 40.242188 59.621094 40.941406 59.621094 42.457031 C 59.621094 44.222656 58.253906 45.46875 57.085938 46.164062 C 56.214844 46.6875 55.21875 47.007812 54.199219 47.007812 C 52.832031 47.007812 51.515625 46.3125 51.515625 44.796875 C 51.515625 43.03125 52.882812 41.785156 54.050781 41.089844 C 54.921875 40.566406 55.917969 40.242188 56.9375 40.242188 Z M 56.9375 40.242188 "/>
<path style=" stroke:none;fill-rule:nonzero;fill:rgb(0%,0%,0%);fill-opacity:1;" d="M 56.9375 46.460938 C 58.304688 46.460938 59.621094 47.160156 59.621094 48.675781 C 59.621094 50.441406 58.253906 51.683594 57.085938 52.382812 C 56.214844 52.902344 55.21875 53.226562 54.199219 53.226562 C 52.832031 53.226562 51.515625 52.53125 51.515625 51.011719 C 51.515625 49.246094 52.882812 48.003906 54.050781 47.308594 C 54.921875 46.785156 55.917969 46.460938 56.9375 46.460938 Z M 56.9375 46.460938 "/>
<path style=" stroke:none;fill-rule:nonzero;fill:rgb(0%,0%,0%);fill-opacity:1;" d="M 56.9375 52.679688 C 58.304688 52.679688 59.621094 53.375 59.621094 54.894531 C 59.621094 56.660156 58.253906 57.902344 57.085938 58.601562 C 56.214844 59.121094 55.21875 59.445312 54.199219 59.445312 C 52.832031 59.445312 51.515625 58.75 51.515625 57.230469 C 51.515625 55.464844 52.882812 54.222656 54.050781 53.527344 C 54.921875 53.003906 55.917969 52.679688 56.9375 52.679688 Z M 56.9375 52.679688 "/>
</g>
</svg>
