<?xml version="1.0" encoding="UTF-8"?>
<svg xmlns="http://www.w3.org/2000/svg" xmlns:xlink="http://www.w3.org/1999/xlink" width="69.224853pt" height="54.455384pt" viewBox="0 0 69.224853 54.455384" version="1.1">
<g id="surface1">
<path style="fill:none;stroke-width:0.1;stroke-linecap:round;stroke-linejoin:round;stroke:rgb(0%,0%,0%);stroke-opacity:1;stroke-miterlimit:4;" d="M 0.049863 0.0000868666 L 8.865413 0.0000868666 " transform="matrix(6.218149,0,0,6.218149,4.561038,31.479929)"/>
<path style="fill:none;stroke-width:0.1;stroke-linecap:round;stroke-linejoin:round;stroke:rgb(0%,0%,0%);stroke-opacity:1;stroke-miterlimit:4;" d="M 0.049863 -0.00000978202 L 8.865413 -0.00000978202 " transform="matrix(6.218149,0,0,6.218149,4.561038,25.26178)"/>
<path style="fill:none;stroke-width:0.1;stroke-linecap:round;stroke-linejoin:round;stroke:rgb(0%,0%,0%);stroke-opacity:1;stroke-miterlimit:4;" d="M 0.049863 -0.000106431 L 8.865413 -0.000106431 " transform="matrix(6.218149,0,0,6.218149,4.561038,19.043631)"/>
<path style="fill:none;stroke-width:0.1;stroke-linecap:round;stroke-linejoin:round;stroke:rgb(0%,0%,0%);stroke-opacity:1;stroke-miterlimit:4;" d="M 0.049863 -0.000203079 L 8.865413 -0.000203079 " transform="matrix(6.218149,0,0,6.218149,4.561038,12.825482)"/>
<path style="fill:none;stroke-width:0.1;stroke-linecap:round;stroke-linejoin:round;stroke:rgb(0%,0%,0%);stroke-opacity:1;stroke-miterlimit:4;" d="M 0.049863 -0.000299847 L 8.865413 -0.000299847 " transform="matrix(6.218149,0,0,6.218149,4.561038,6.607333)"/>
<path style=" stroke:none;fill-rule:nonzero;fill:rgb(0%,0%,0%);fill-opacity:1;" d="M 34.851562 14.914062 L 34.828125 16.554688 L 34.828125 16.828125 C 34.828125 17.378906 34.851562 17.925781 34.925781 18.472656 C 36.046875 17.527344 37.238281 16.480469 37.238281 15.015625 C 37.238281 14.195312 36.890625 13.347656 36.171875 13.347656 C 35.398438 13.347656 34.878906 14.09375 34.851562 14.914062 Z M 33.808594 19.367188 L 33.507812 4.566406 C 33.707031 4.445312 33.957031 4.367188 34.179688 4.367188 C 34.40625 4.367188 34.652344 4.445312 34.851562 4.566406 L 34.679688 13.148438 C 35.300781 12.625 36.121094 12.304688 36.941406 12.304688 C 38.234375 12.304688 39.15625 13.496094 39.15625 14.839844 C 39.15625 16.828125 37.015625 17.75 35.5 19.042969 C 35.125 19.367188 34.902344 19.988281 34.378906 19.988281 C 34.054688 19.988281 33.808594 19.714844 33.808594 19.367188 Z M 33.808594 19.367188 "/>
<path style=" stroke:none;fill-rule:nonzero;fill:rgb(0%,0%,0%);fill-opacity:1;" d="M 31.371094 27.351562 L 31.34375 28.992188 L 31.34375 29.265625 C 31.34375 29.8125 31.371094 30.359375 31.445312 30.90625 C 32.5625 29.960938 33.757812 28.917969 33.757812 27.449219 C 33.757812 26.628906 33.410156 25.785156 32.6875 25.785156 C 31.917969 25.785156 31.394531 26.53125 31.371094 27.351562 Z M 30.324219 31.804688 L 30.027344 17.003906 C 30.226562 16.878906 30.472656 16.804688 30.699219 16.804688 C 30.921875 16.804688 31.171875 16.878906 31.371094 17.003906 L 31.195312 25.585938 C 31.816406 25.0625 32.636719 24.738281 33.460938 24.738281 C 34.753906 24.738281 35.671875 25.933594 35.671875 27.277344 C 35.671875 29.265625 33.535156 30.1875 32.015625 31.480469 C 31.644531 31.804688 31.417969 32.425781 30.898438 32.425781 C 30.574219 32.425781 30.324219 32.152344 30.324219 31.804688 Z M 30.324219 31.804688 "/>
<path style=" stroke:none;fill-rule:nonzero;fill:rgb(0%,0%,0%);fill-opacity:1;" d="M 41.582031 10.875 L 41.890625 10.875 C 42.027344 10.875 42.140625 10.984375 42.140625 11.121094 L 42.140625 45.738281 C 42.140625 45.878906 42.027344 45.988281 41.890625 45.988281 L 41.582031 45.988281 C 41.441406 45.988281 41.332031 45.878906 41.332031 45.738281 L 41.332031 11.121094 C 41.332031 10.984375 41.441406 10.875 41.582031 10.875 Z M 41.582031 10.875 "/>
<path style=" stroke:none;fill-rule:nonzero;fill:rgb(0%,0%,0%);fill-opacity:1;" d="M 23.390625 15.933594 C 23.390625 15.238281 23.960938 14.667969 24.65625 14.667969 C 25.355469 14.667969 25.925781 15.238281 25.925781 15.933594 C 25.925781 16.632812 25.355469 17.203125 24.65625 17.203125 C 23.960938 17.203125 23.390625 16.632812 23.390625 15.933594 Z M 23.390625 9.714844 C 23.390625 9.019531 23.960938 8.449219 24.65625 8.449219 C 25.355469 8.449219 25.925781 9.019531 25.925781 9.714844 C 25.925781 10.414062 25.355469 10.984375 24.65625 10.984375 C 23.960938 10.984375 23.390625 10.414062 23.390625 9.714844 Z M 15.304688 6.285156 C 19.585938 6.285156 22.59375 8.472656 22.59375 12.527344 C 22.59375 19.070312 16.050781 22.824219 9.757812 25.484375 C 9.683594 25.558594 9.609375 25.585938 9.535156 25.585938 C 9.363281 25.585938 9.210938 25.4375 9.210938 25.261719 C 9.210938 25.1875 9.238281 25.113281 9.3125 25.039062 C 14.335938 22.101562 19.558594 18.445312 19.558594 12.777344 C 19.558594 9.792969 17.992188 6.929688 15.304688 6.929688 C 13.464844 6.929688 12.097656 8.273438 11.476562 10.066406 C 11.75 9.941406 12.023438 9.867188 12.320312 9.867188 C 13.6875 9.867188 14.808594 10.984375 14.808594 12.351562 C 14.808594 13.796875 13.714844 14.988281 12.320312 14.988281 C 10.828125 14.988281 9.535156 13.820312 9.535156 12.351562 C 9.535156 9.042969 12.074219 6.285156 15.304688 6.285156 Z M 15.304688 6.285156 "/>
<path style=" stroke:none;fill-rule:nonzero;fill:rgb(0%,0%,0%);fill-opacity:1;" d="M 46.753906 6.332031 C 48.121094 6.332031 49.441406 7.03125 49.441406 8.546875 C 49.441406 10.3125 48.070312 11.558594 46.902344 12.253906 C 46.03125 12.777344 45.039062 13.097656 44.019531 13.097656 C 42.648438 13.097656 41.332031 12.402344 41.332031 10.886719 C 41.332031 9.121094 42.699219 7.875 43.867188 7.179688 C 44.738281 6.65625 45.734375 6.332031 46.753906 6.332031 Z M 46.753906 6.332031 "/>
<path style=" stroke:none;fill-rule:nonzero;fill:rgb(0%,0%,0%);fill-opacity:1;" d="M 46.753906 12.550781 C 48.121094 12.550781 49.441406 13.25 49.441406 14.765625 C 49.441406 16.53125 48.070312 17.773438 46.902344 18.472656 C 46.03125 18.992188 45.039062 19.316406 44.019531 19.316406 C 42.648438 19.316406 41.332031 18.621094 41.332031 17.105469 C 41.332031 15.335938 42.699219 14.09375 43.867188 13.398438 C 44.738281 12.875 45.734375 12.550781 46.753906 12.550781 Z M 46.753906 12.550781 "/>
<path style=" stroke:none;fill-rule:nonzero;fill:rgb(0%,0%,0%);fill-opacity:1;" d="M 46.753906 18.769531 C 48.121094 18.769531 49.441406 19.464844 49.441406 20.984375 C 49.441406 22.75 48.070312 23.992188 46.902344 24.691406 C 46.03125 25.210938 45.039062 25.535156 44.019531 25.535156 C 42.648438 25.535156 41.332031 24.839844 41.332031 23.320312 C 41.332031 21.554688 42.699219 20.3125 43.867188 19.617188 C 44.738281 19.09375 45.734375 18.769531 46.753906 18.769531 Z M 46.753906 18.769531 "/>
<path style=" stroke:none;fill-rule:nonzero;fill:rgb(0%,0%,0%);fill-opacity:1;" d="M 46.753906 24.988281 C 48.121094 24.988281 49.441406 25.683594 49.441406 27.203125 C 49.441406 28.96875 48.070312 30.210938 46.902344 30.90625 C 46.03125 31.429688 45.039062 31.753906 44.019531 31.753906 C 42.648438 31.753906 41.332031 31.058594 41.332031 29.539062 C 41.332031 27.773438 42.699219 26.53125 43.867188 25.832031 C 44.738281 25.3125 45.734375 24.988281 46.753906 24.988281 Z M 46.753906 24.988281 "/>
</g>
</svg>
