<?xml version="1.0" encoding="UTF-8"?>
<svg xmlns="http://www.w3.org/2000/svg" xmlns:xlink="http://www.w3.org/1999/xlink" width="68.472344pt" height="78.27079pt" viewBox="0 0 68.472344 78.27079" version="1.1">
<g id="surface1">
<path style="fill:none;stroke-width:0.1;stroke-linecap:round;stroke-linejoin:round;stroke:rgb(0%,0%,0%);stroke-opacity:1;stroke-miterlimit:4;" d="M 0.049863 -0.000287501 L 8.752337 -0.000287501 " transform="matrix(6.218149,0,0,6.218149,4.561038,40.517413)"/>
<path style="fill:none;stroke-width:0.1;stroke-linecap:round;stroke-linejoin:round;stroke:rgb(0%,0%,0%);stroke-opacity:1;stroke-miterlimit:4;" d="M 0.049863 0.000244052 L 8.752337 0.000244052 " transform="matrix(6.218149,0,0,6.218149,4.561038,34.299264)"/>
<path style="fill:none;stroke-width:0.1;stroke-linecap:round;stroke-linejoin:round;stroke:rgb(0%,0%,0%);stroke-opacity:1;stroke-miterlimit:4;" d="M 0.049863 0.000147403 L 8.752337 0.000147403 " transform="matrix(6.218149,0,0,6.218149,4.561038,28.081115)"/>
<path style="fill:none;stroke-width:0.1;stroke-linecap:round;stroke-linejoin:round;stroke:rgb(0%,0%,0%);stroke-opacity:1;stroke-miterlimit:4;" d="M 0.049863 0.0000507548 L 8.752337 0.0000507548 " transform="matrix(6.218149,0,0,6.218149,4.561038,21.862966)"/>
<path style="fill:none;stroke-width:0.1;stroke-linecap:round;stroke-linejoin:round;stroke:rgb(0%,0%,0%);stroke-opacity:1;stroke-miterlimit:4;" d="M 0.049863 -0.0000458938 L 8.752337 -0.0000458938 " transform="matrix(6.218149,0,0,6.218149,4.561038,15.644817)"/>
<path style=" stroke:none;fill-rule:nonzero;fill:rgb(0%,0%,0%);fill-opacity:1;" d="M 39.21875 46.113281 L 50.140625 46.113281 C 50.484375 46.113281 50.761719 46.390625 50.761719 46.734375 C 50.761719 47.078125 50.484375 47.355469 50.140625 47.355469 L 39.21875 47.355469 C 38.878906 47.355469 38.597656 47.078125 38.597656 46.734375 C 38.597656 46.390625 38.878906 46.113281 39.21875 46.113281 Z M 39.21875 46.113281 "/>
<path style=" stroke:none;fill-rule:nonzero;fill:rgb(0%,0%,0%);fill-opacity:1;" d="M 39.21875 52.332031 L 50.140625 52.332031 C 50.484375 52.332031 50.761719 52.609375 50.761719 52.953125 C 50.761719 53.296875 50.484375 53.574219 50.140625 53.574219 L 39.21875 53.574219 C 38.878906 53.574219 38.597656 53.296875 38.597656 52.953125 C 38.597656 52.609375 38.878906 52.332031 39.21875 52.332031 Z M 39.21875 52.332031 "/>
<path style=" stroke:none;fill-rule:nonzero;fill:rgb(0%,0%,0%);fill-opacity:1;" d="M 40.160156 58.550781 L 50.140625 58.550781 C 50.484375 58.550781 50.765625 58.828125 50.765625 59.171875 C 50.765625 59.515625 50.484375 59.792969 50.140625 59.792969 L 40.160156 59.792969 C 39.816406 59.792969 39.539062 59.515625 39.539062 59.171875 C 39.539062 58.828125 39.816406 58.550781 40.160156 58.550781 Z M 40.160156 58.550781 "/>
<path style=" stroke:none;fill-rule:nonzero;fill:rgb(0%,0%,0%);fill-opacity:1;" d="M 48.175781 28.082031 L 48.488281 28.082031 C 48.625 28.082031 48.734375 28.191406 48.734375 28.328125 L 48.734375 57.765625 C 48.734375 57.902344 48.625 58.015625 48.488281 58.015625 L 48.175781 58.015625 C 48.039062 58.015625 47.925781 57.902344 47.925781 57.765625 L 47.925781 28.328125 C 47.925781 28.191406 48.039062 28.082031 48.175781 28.082031 Z M 48.175781 28.082031 "/>
<path style=" stroke:none;fill-rule:nonzero;fill:rgb(0%,0%,0%);fill-opacity:1;" d="M 36.984375 66.933594 C 36.984375 67.179688 36.785156 67.40625 36.535156 67.40625 C 36.285156 67.40625 36.0625 67.179688 36.0625 66.933594 L 36.0625 63.324219 L 33.996094 64.097656 L 33.996094 68.027344 C 33.996094 68.273438 33.773438 68.5 33.523438 68.5 C 33.277344 68.5 33.078125 68.273438 33.078125 68.027344 L 33.078125 64.421875 L 32.28125 64.71875 C 32.230469 64.742188 32.15625 64.742188 32.109375 64.742188 C 31.832031 64.742188 31.609375 64.519531 31.609375 64.246094 L 31.609375 62.753906 C 31.609375 62.554688 31.734375 62.355469 31.933594 62.28125 L 33.078125 61.882812 L 33.078125 57.902344 L 32.28125 58.175781 C 32.230469 58.203125 32.15625 58.203125 32.109375 58.203125 C 31.832031 58.203125 31.609375 57.976562 31.609375 57.703125 L 31.609375 56.210938 C 31.609375 56.011719 31.734375 55.839844 31.933594 55.765625 L 33.078125 55.339844 L 33.078125 51.410156 C 33.078125 51.164062 33.277344 50.9375 33.523438 50.9375 C 33.773438 50.9375 33.996094 51.164062 33.996094 51.410156 L 33.996094 55.019531 L 36.0625 54.246094 L 36.0625 50.316406 C 36.0625 50.070312 36.285156 49.84375 36.535156 49.84375 C 36.785156 49.84375 36.984375 50.070312 36.984375 50.316406 L 36.984375 53.921875 L 37.777344 53.625 C 37.828125 53.601562 37.902344 53.601562 37.953125 53.601562 C 38.226562 53.601562 38.449219 53.824219 38.449219 54.097656 L 38.449219 55.589844 C 38.449219 55.789062 38.324219 55.988281 38.125 56.0625 L 36.984375 56.460938 L 36.984375 60.441406 L 37.777344 60.167969 C 37.828125 60.140625 37.902344 60.140625 37.953125 60.140625 C 38.226562 60.140625 38.449219 60.367188 38.449219 60.640625 L 38.449219 62.132812 C 38.449219 62.332031 38.324219 62.503906 38.125 62.578125 L 36.984375 63.003906 Z M 33.996094 57.554688 L 33.996094 61.535156 L 36.0625 60.789062 L 36.0625 56.808594 Z M 33.996094 57.554688 "/>
<path style=" stroke:none;fill-rule:nonzero;fill:rgb(0%,0%,0%);fill-opacity:1;" d="M 16.152344 50.09375 L 16.003906 50.09375 C 13.316406 50.09375 11.152344 47.90625 11.152344 45.195312 C 11.152344 43.75 12.46875 42.632812 13.9375 42.632812 C 15.28125 42.632812 16.300781 43.800781 16.300781 45.195312 C 16.300781 46.488281 15.230469 47.554688 13.9375 47.554688 C 13.664062 47.554688 13.414062 47.507812 13.167969 47.40625 C 13.8125 48.378906 14.859375 49.023438 16.078125 49.023438 L 16.175781 49.023438 Z M 21 39.347656 C 22.691406 38.75 23.8125 36.984375 23.8125 35.269531 C 23.8125 33.03125 22.171875 30.816406 19.507812 30.542969 C 20.105469 33.429688 20.652344 36.289062 21 39.347656 Z M 11.375 33.601562 C 11.375 36.960938 14.585938 39.746094 17.941406 39.746094 C 18.640625 39.746094 19.308594 39.695312 19.980469 39.597656 C 19.632812 36.4375 19.0625 33.503906 18.414062 30.542969 C 16.449219 30.742188 15.332031 32.0625 15.332031 33.503906 C 15.332031 34.597656 15.953125 35.765625 17.34375 36.5625 C 17.46875 36.6875 17.519531 36.8125 17.519531 36.9375 C 17.519531 37.210938 17.269531 37.484375 16.972656 37.484375 C 16.898438 37.484375 16.824219 37.457031 16.75 37.433594 C 14.757812 36.363281 13.839844 34.574219 13.839844 32.832031 C 13.839844 30.644531 15.28125 28.503906 17.816406 27.933594 C 17.46875 26.488281 17.097656 25.023438 16.675781 23.578125 C 14.011719 26.589844 11.375 29.625 11.375 33.601562 Z M 17.867188 40.816406 C 13.191406 40.816406 9.585938 36.539062 9.585938 31.511719 C 9.585938 27.109375 12.84375 23.902344 15.753906 20.542969 C 15.28125 19.003906 14.832031 17.4375 14.632812 15.820312 C 14.484375 14.527344 14.460938 13.230469 14.460938 11.9375 C 14.460938 9.078125 15.828125 6.367188 18.167969 4.675781 C 18.316406 4.550781 18.515625 4.550781 18.664062 4.675781 C 20.429688 6.765625 21.972656 10.769531 21.972656 13.582031 C 21.972656 17.136719 19.832031 19.921875 17.496094 22.632812 C 18.015625 24.324219 18.464844 26.066406 18.886719 27.78125 C 18.988281 27.78125 19.113281 27.757812 19.210938 27.757812 C 23.066406 27.757812 25.578125 30.941406 25.578125 34.25 C 25.578125 36.140625 24.757812 38.078125 22.917969 39.472656 C 22.371094 39.894531 21.746094 40.167969 21.101562 40.367188 C 21.175781 41.238281 21.226562 42.109375 21.226562 42.980469 C 21.226562 43.453125 21.199219 43.949219 21.175781 44.421875 C 21 47.382812 18.988281 50.019531 16.152344 50.09375 L 16.175781 49.023438 C 18.488281 48.972656 19.980469 46.734375 20.132812 44.273438 C 20.15625 43.824219 20.179688 43.351562 20.179688 42.90625 C 20.179688 42.132812 20.15625 41.386719 20.082031 40.617188 C 19.359375 40.742188 18.640625 40.816406 17.867188 40.816406 Z M 20.179688 11.515625 C 20.179688 10.148438 20.082031 9.550781 19.683594 8.308594 C 17.222656 9.5 15.652344 12.011719 15.652344 14.75 C 15.652344 16.589844 16.101562 18.058594 16.550781 19.574219 C 18.539062 17.160156 20.179688 14.648438 20.179688 11.515625 Z M 20.179688 11.515625 "/>
<path style=" stroke:none;fill-rule:nonzero;fill:rgb(0%,0%,0%);fill-opacity:1;" d="M 46.046875 55.789062 C 47.417969 55.789062 48.734375 56.484375 48.734375 58.003906 C 48.734375 59.769531 47.367188 61.011719 46.199219 61.707031 C 45.328125 62.230469 44.332031 62.554688 43.3125 62.554688 C 41.945312 62.554688 40.625 61.859375 40.625 60.339844 C 40.625 58.574219 41.996094 57.332031 43.164062 56.636719 C 44.035156 56.113281 45.027344 55.789062 46.046875 55.789062 Z M 46.046875 55.789062 "/>
</g>
</svg>
