<?xml version="1.0" encoding="UTF-8"?>
<svg xmlns="http://www.w3.org/2000/svg" xmlns:xlink="http://www.w3.org/1999/xlink" width="82.402133pt" height="56.837787pt" viewBox="0 0 82.402133 56.837787" version="1.1">
<g id="surface1">
<path style="fill:none;stroke-width:0.1;stroke-linecap:round;stroke-linejoin:round;stroke:rgb(0%,0%,0%);stroke-opacity:1;stroke-miterlimit:4;" d="M 0.049863 -0.0001075 L 10.849902 -0.0001075 " transform="matrix(6.218149,0,0,6.218149,4.561038,29.434262)"/>
<path style="fill:none;stroke-width:0.1;stroke-linecap:round;stroke-linejoin:round;stroke:rgb(0%,0%,0%);stroke-opacity:1;stroke-miterlimit:4;" d="M 0.049863 -0.000204149 L 10.849902 -0.000204149 " transform="matrix(6.218149,0,0,6.218149,4.561038,23.216113)"/>
<path style="fill:none;stroke-width:0.1;stroke-linecap:round;stroke-linejoin:round;stroke:rgb(0%,0%,0%);stroke-opacity:1;stroke-miterlimit:4;" d="M 0.049863 -0.000300797 L 10.849902 -0.000300797 " transform="matrix(6.218149,0,0,6.218149,4.561038,16.997964)"/>
<path style="fill:none;stroke-width:0.1;stroke-linecap:round;stroke-linejoin:round;stroke:rgb(0%,0%,0%);stroke-opacity:1;stroke-miterlimit:4;" d="M 0.049863 0.000230756 L 10.849902 0.000230756 " transform="matrix(6.218149,0,0,6.218149,4.561038,10.779815)"/>
<path style="fill:none;stroke-width:0.1;stroke-linecap:round;stroke-linejoin:round;stroke:rgb(0%,0%,0%);stroke-opacity:1;stroke-miterlimit:4;" d="M 0.049863 0.000133988 L 10.849902 0.000133988 " transform="matrix(6.218149,0,0,6.218149,4.561038,4.561667)"/>
<path style=" stroke:none;fill-rule:nonzero;fill:rgb(0%,0%,0%);fill-opacity:1;" d="M 52.261719 35.03125 L 63.183594 35.03125 C 63.527344 35.03125 63.804688 35.308594 63.804688 35.652344 C 63.804688 35.996094 63.527344 36.273438 63.183594 36.273438 L 52.261719 36.273438 C 51.917969 36.273438 51.640625 35.996094 51.640625 35.652344 C 51.640625 35.308594 51.917969 35.03125 52.261719 35.03125 Z M 52.261719 35.03125 "/>
<path style=" stroke:none;fill-rule:nonzero;fill:rgb(0%,0%,0%);fill-opacity:1;" d="M 61.21875 4.5625 L 61.527344 4.5625 C 61.667969 4.5625 61.777344 4.671875 61.777344 4.808594 L 61.777344 37.355469 C 61.777344 37.492188 61.667969 37.605469 61.527344 37.605469 L 61.21875 37.605469 C 61.082031 37.605469 60.96875 37.492188 60.96875 37.355469 L 60.96875 4.808594 C 60.96875 4.671875 61.082031 4.5625 61.21875 4.5625 Z M 61.21875 4.5625 "/>
<path style=" stroke:none;fill-rule:nonzero;fill:rgb(0%,0%,0%);fill-opacity:1;" d="M 50.023438 34.085938 C 50.023438 34.335938 49.824219 34.558594 49.578125 34.558594 C 49.328125 34.558594 49.105469 34.335938 49.105469 34.085938 L 49.105469 30.480469 L 47.039062 31.25 L 47.039062 35.179688 C 47.039062 35.429688 46.816406 35.652344 46.566406 35.652344 C 46.320312 35.652344 46.121094 35.429688 46.121094 35.179688 L 46.121094 31.574219 L 45.324219 31.871094 C 45.273438 31.898438 45.199219 31.898438 45.148438 31.898438 C 44.875 31.898438 44.652344 31.671875 44.652344 31.398438 L 44.652344 29.90625 C 44.652344 29.707031 44.777344 29.507812 44.976562 29.433594 L 46.121094 29.035156 L 46.121094 25.058594 L 45.324219 25.332031 C 45.273438 25.355469 45.199219 25.355469 45.148438 25.355469 C 44.875 25.355469 44.652344 25.132812 44.652344 24.859375 L 44.652344 23.367188 C 44.652344 23.167969 44.777344 22.992188 44.976562 22.917969 L 46.121094 22.496094 L 46.121094 18.566406 C 46.121094 18.316406 46.320312 18.09375 46.566406 18.09375 C 46.816406 18.09375 47.039062 18.316406 47.039062 18.566406 L 47.039062 22.171875 L 49.105469 21.402344 L 49.105469 17.46875 C 49.105469 17.222656 49.328125 16.996094 49.578125 16.996094 C 49.824219 16.996094 50.023438 17.222656 50.023438 17.46875 L 50.023438 21.078125 L 50.820312 20.777344 C 50.871094 20.753906 50.945312 20.753906 50.996094 20.753906 C 51.269531 20.753906 51.492188 20.976562 51.492188 21.25 L 51.492188 22.742188 C 51.492188 22.941406 51.367188 23.140625 51.167969 23.214844 L 50.023438 23.613281 L 50.023438 27.59375 L 50.820312 27.320312 C 50.871094 27.296875 50.945312 27.296875 50.996094 27.296875 C 51.269531 27.296875 51.492188 27.519531 51.492188 27.792969 L 51.492188 29.285156 C 51.492188 29.484375 51.367188 29.65625 51.167969 29.734375 L 50.023438 30.15625 Z M 47.039062 24.707031 L 47.039062 28.6875 L 49.105469 27.941406 L 49.105469 23.960938 Z M 47.039062 24.707031 "/>
<path style=" stroke:none;fill-rule:nonzero;fill:rgb(0%,0%,0%);fill-opacity:1;" d="M 35.324219 40.304688 C 35.324219 40.550781 35.125 40.777344 34.878906 40.777344 C 34.628906 40.777344 34.40625 40.550781 34.40625 40.304688 L 34.40625 36.695312 L 32.339844 37.46875 L 32.339844 41.398438 C 32.339844 41.648438 32.117188 41.871094 31.867188 41.871094 C 31.617188 41.871094 31.417969 41.648438 31.417969 41.398438 L 31.417969 37.792969 L 30.625 38.089844 C 30.574219 38.113281 30.5 38.113281 30.449219 38.113281 C 30.175781 38.113281 29.953125 37.890625 29.953125 37.617188 L 29.953125 36.125 C 29.953125 35.925781 30.078125 35.726562 30.277344 35.652344 L 31.417969 35.253906 L 31.417969 31.273438 L 30.625 31.546875 C 30.574219 31.574219 30.5 31.574219 30.449219 31.574219 C 30.175781 31.574219 29.953125 31.347656 29.953125 31.074219 L 29.953125 29.582031 C 29.953125 29.382812 30.078125 29.210938 30.277344 29.136719 L 31.417969 28.714844 L 31.417969 24.78125 C 31.417969 24.535156 31.617188 24.308594 31.867188 24.308594 C 32.117188 24.308594 32.339844 24.535156 32.339844 24.78125 L 32.339844 28.390625 L 34.40625 27.617188 L 34.40625 23.6875 C 34.40625 23.441406 34.628906 23.214844 34.878906 23.214844 C 35.125 23.214844 35.324219 23.441406 35.324219 23.6875 L 35.324219 27.296875 L 36.121094 26.996094 C 36.171875 26.972656 36.246094 26.972656 36.292969 26.972656 C 36.566406 26.972656 36.792969 27.195312 36.792969 27.46875 L 36.792969 28.960938 C 36.792969 29.160156 36.667969 29.359375 36.46875 29.433594 L 35.324219 29.832031 L 35.324219 33.8125 L 36.121094 33.539062 C 36.171875 33.511719 36.246094 33.511719 36.292969 33.511719 C 36.566406 33.511719 36.792969 33.738281 36.792969 34.011719 L 36.792969 35.503906 C 36.792969 35.703125 36.667969 35.875 36.46875 35.949219 L 35.324219 36.375 Z M 32.339844 30.925781 L 32.339844 34.90625 L 34.40625 34.160156 L 34.40625 30.179688 Z M 32.339844 30.925781 "/>
<path style=" stroke:none;fill-rule:nonzero;fill:rgb(0%,0%,0%);fill-opacity:1;" d="M 43.410156 46.523438 C 43.410156 46.769531 43.210938 46.996094 42.960938 46.996094 C 42.710938 46.996094 42.488281 46.769531 42.488281 46.523438 L 42.488281 42.914062 L 40.421875 43.6875 L 40.421875 47.617188 C 40.421875 47.863281 40.199219 48.089844 39.949219 48.089844 C 39.703125 48.089844 39.503906 47.863281 39.503906 47.617188 L 39.503906 44.007812 L 38.707031 44.308594 C 38.65625 44.332031 38.582031 44.332031 38.535156 44.332031 C 38.257812 44.332031 38.035156 44.109375 38.035156 43.835938 L 38.035156 42.34375 C 38.035156 42.144531 38.160156 41.945312 38.359375 41.871094 L 39.503906 41.472656 L 39.503906 37.492188 L 38.707031 37.765625 C 38.65625 37.792969 38.582031 37.792969 38.535156 37.792969 C 38.257812 37.792969 38.035156 37.566406 38.035156 37.292969 L 38.035156 35.800781 C 38.035156 35.601562 38.160156 35.429688 38.359375 35.355469 L 39.503906 34.929688 L 39.503906 31 C 39.503906 30.753906 39.703125 30.527344 39.949219 30.527344 C 40.199219 30.527344 40.421875 30.753906 40.421875 31 L 40.421875 34.609375 L 42.488281 33.835938 L 42.488281 29.90625 C 42.488281 29.65625 42.710938 29.433594 42.960938 29.433594 C 43.210938 29.433594 43.410156 29.65625 43.410156 29.90625 L 43.410156 33.511719 L 44.203125 33.214844 C 44.253906 33.191406 44.328125 33.191406 44.378906 33.191406 C 44.652344 33.191406 44.875 33.414062 44.875 33.6875 L 44.875 35.179688 C 44.875 35.378906 44.75 35.578125 44.550781 35.652344 L 43.410156 36.050781 L 43.410156 40.03125 L 44.203125 39.757812 C 44.253906 39.730469 44.328125 39.730469 44.378906 39.730469 C 44.652344 39.730469 44.875 39.957031 44.875 40.230469 L 44.875 41.722656 C 44.875 41.921875 44.75 42.09375 44.550781 42.167969 L 43.410156 42.59375 Z M 40.421875 37.144531 L 40.421875 41.125 L 42.488281 40.378906 L 42.488281 36.398438 Z M 40.421875 37.144531 "/>
<path style=" stroke:none;fill-rule:nonzero;fill:rgb(0%,0%,0%);fill-opacity:1;" d="M 23.390625 13.890625 C 23.390625 13.191406 23.960938 12.621094 24.65625 12.621094 C 25.355469 12.621094 25.925781 13.191406 25.925781 13.890625 C 25.925781 14.585938 25.355469 15.15625 24.65625 15.15625 C 23.960938 15.15625 23.390625 14.585938 23.390625 13.890625 Z M 23.390625 7.671875 C 23.390625 6.972656 23.960938 6.402344 24.65625 6.402344 C 25.355469 6.402344 25.925781 6.972656 25.925781 7.671875 C 25.925781 8.367188 25.355469 8.9375 24.65625 8.9375 C 23.960938 8.9375 23.390625 8.367188 23.390625 7.671875 Z M 15.304688 4.238281 C 19.585938 4.238281 22.59375 6.425781 22.59375 10.480469 C 22.59375 17.023438 16.050781 20.777344 9.757812 23.441406 C 9.683594 23.515625 9.609375 23.539062 9.535156 23.539062 C 9.363281 23.539062 9.210938 23.390625 9.210938 23.214844 C 9.210938 23.140625 9.238281 23.066406 9.3125 22.992188 C 14.335938 20.058594 19.558594 16.402344 19.558594 10.730469 C 19.558594 7.746094 17.992188 4.886719 15.304688 4.886719 C 13.464844 4.886719 12.097656 6.226562 11.476562 8.019531 C 11.75 7.894531 12.023438 7.820312 12.320312 7.820312 C 13.6875 7.820312 14.808594 8.9375 14.808594 10.308594 C 14.808594 11.75 13.714844 12.945312 12.320312 12.945312 C 10.828125 12.945312 9.535156 11.773438 9.535156 10.308594 C 9.535156 7 12.074219 4.238281 15.304688 4.238281 Z M 15.304688 4.238281 "/>
<path style=" stroke:none;fill-rule:nonzero;fill:rgb(0%,0%,0%);fill-opacity:1;" d="M 59.089844 22.941406 C 60.457031 22.941406 61.777344 23.640625 61.777344 25.15625 C 61.777344 26.921875 60.410156 28.164062 59.238281 28.863281 C 58.371094 29.382812 57.375 29.707031 56.355469 29.707031 C 54.988281 29.707031 53.667969 29.011719 53.667969 27.496094 C 53.667969 25.726562 55.035156 24.484375 56.207031 23.789062 C 57.074219 23.265625 58.070312 22.941406 59.089844 22.941406 Z M 59.089844 22.941406 "/>
<path style=" stroke:none;fill-rule:nonzero;fill:rgb(0%,0%,0%);fill-opacity:1;" d="M 59.089844 29.160156 C 60.457031 29.160156 61.777344 29.855469 61.777344 31.375 C 61.777344 33.140625 60.410156 34.382812 59.238281 35.082031 C 58.371094 35.601562 57.375 35.925781 56.355469 35.925781 C 54.988281 35.925781 53.667969 35.230469 53.667969 33.710938 C 53.667969 31.945312 55.035156 30.703125 56.207031 30.007812 C 57.074219 29.484375 58.070312 29.160156 59.089844 29.160156 Z M 59.089844 29.160156 "/>
<path style=" stroke:none;fill-rule:nonzero;fill:rgb(0%,0%,0%);fill-opacity:1;" d="M 59.089844 35.378906 C 60.457031 35.378906 61.777344 36.074219 61.777344 37.59375 C 61.777344 39.359375 60.410156 40.601562 59.238281 41.296875 C 58.371094 41.820312 57.375 42.144531 56.355469 42.144531 C 54.988281 42.144531 53.667969 41.449219 53.667969 39.929688 C 53.667969 38.164062 55.035156 36.921875 56.207031 36.222656 C 57.074219 35.703125 58.070312 35.378906 59.089844 35.378906 Z M 59.089844 35.378906 "/>
</g>
</svg>
