<?xml version="1.0" encoding="UTF-8"?>
<svg xmlns="http://www.w3.org/2000/svg" xmlns:xlink="http://www.w3.org/1999/xlink" width="82.402133pt" height="55.385232pt" viewBox="0 0 82.402133 55.385232" version="1.1">
<g id="surface1">
<path style="fill:none;stroke-width:0.1;stroke-linecap:round;stroke-linejoin:round;stroke:rgb(0%,0%,0%);stroke-opacity:1;stroke-miterlimit:4;" d="M 0.049863 -0.000217086 L 10.849902 -0.000217086 " transform="matrix(6.218149,0,0,6.218149,4.561038,37.739631)"/>
<path style="fill:none;stroke-width:0.1;stroke-linecap:round;stroke-linejoin:round;stroke:rgb(0%,0%,0%);stroke-opacity:1;stroke-miterlimit:4;" d="M 0.049863 -0.000313735 L 10.849902 -0.000313735 " transform="matrix(6.218149,0,0,6.218149,4.561038,31.521482)"/>
<path style="fill:none;stroke-width:0.1;stroke-linecap:round;stroke-linejoin:round;stroke:rgb(0%,0%,0%);stroke-opacity:1;stroke-miterlimit:4;" d="M 0.049863 0.000217818 L 10.849902 0.000217818 " transform="matrix(6.218149,0,0,6.218149,4.561038,25.303333)"/>
<path style="fill:none;stroke-width:0.1;stroke-linecap:round;stroke-linejoin:round;stroke:rgb(0%,0%,0%);stroke-opacity:1;stroke-miterlimit:4;" d="M 0.049863 0.000121169 L 10.849902 0.000121169 " transform="matrix(6.218149,0,0,6.218149,4.561038,19.085184)"/>
<path style="fill:none;stroke-width:0.1;stroke-linecap:round;stroke-linejoin:round;stroke:rgb(0%,0%,0%);stroke-opacity:1;stroke-miterlimit:4;" d="M 0.049863 0.0000245208 L 10.849902 0.0000245208 " transform="matrix(6.218149,0,0,6.218149,4.561038,12.867035)"/>
<path style=" stroke:none;fill-rule:nonzero;fill:rgb(0%,0%,0%);fill-opacity:1;" d="M 61.21875 4.578125 L 61.527344 4.578125 C 61.667969 4.578125 61.777344 4.6875 61.777344 4.824219 L 61.777344 36.332031 C 61.777344 36.472656 61.667969 36.582031 61.527344 36.582031 L 61.21875 36.582031 C 61.082031 36.582031 60.96875 36.472656 60.96875 36.332031 L 60.96875 4.824219 C 60.96875 4.6875 61.082031 4.578125 61.21875 4.578125 Z M 61.21875 4.578125 "/>
<path style=" stroke:none;fill-rule:nonzero;fill:rgb(0%,0%,0%);fill-opacity:1;" d="M 50.023438 33.0625 C 50.023438 33.3125 49.824219 33.535156 49.578125 33.535156 C 49.328125 33.535156 49.105469 33.3125 49.105469 33.0625 L 49.105469 29.457031 L 47.039062 30.226562 L 47.039062 34.15625 C 47.039062 34.40625 46.816406 34.628906 46.566406 34.628906 C 46.320312 34.628906 46.121094 34.40625 46.121094 34.15625 L 46.121094 30.550781 L 45.324219 30.851562 C 45.273438 30.875 45.199219 30.875 45.148438 30.875 C 44.875 30.875 44.652344 30.652344 44.652344 30.378906 L 44.652344 28.886719 C 44.652344 28.6875 44.777344 28.488281 44.976562 28.414062 L 46.121094 28.015625 L 46.121094 24.035156 L 45.324219 24.308594 C 45.273438 24.332031 45.199219 24.332031 45.148438 24.332031 C 44.875 24.332031 44.652344 24.109375 44.652344 23.835938 L 44.652344 22.34375 C 44.652344 22.144531 44.777344 21.96875 44.976562 21.894531 L 46.121094 21.472656 L 46.121094 17.542969 C 46.121094 17.292969 46.320312 17.070312 46.566406 17.070312 C 46.816406 17.070312 47.039062 17.292969 47.039062 17.542969 L 47.039062 21.148438 L 49.105469 20.378906 L 49.105469 16.449219 C 49.105469 16.199219 49.328125 15.976562 49.578125 15.976562 C 49.824219 15.976562 50.023438 16.199219 50.023438 16.449219 L 50.023438 20.054688 L 50.820312 19.757812 C 50.871094 19.730469 50.945312 19.730469 50.996094 19.730469 C 51.269531 19.730469 51.492188 19.957031 51.492188 20.230469 L 51.492188 21.722656 C 51.492188 21.921875 51.367188 22.121094 51.167969 22.195312 L 50.023438 22.59375 L 50.023438 26.570312 L 50.820312 26.296875 C 50.871094 26.273438 50.945312 26.273438 50.996094 26.273438 C 51.269531 26.273438 51.492188 26.496094 51.492188 26.769531 L 51.492188 28.261719 C 51.492188 28.460938 51.367188 28.636719 51.167969 28.710938 L 50.023438 29.132812 Z M 47.039062 23.6875 L 47.039062 27.667969 L 49.105469 26.921875 L 49.105469 22.941406 Z M 47.039062 23.6875 "/>
<path style=" stroke:none;fill-rule:nonzero;fill:rgb(0%,0%,0%);fill-opacity:1;" d="M 35.324219 39.28125 C 35.324219 39.53125 35.125 39.753906 34.878906 39.753906 C 34.628906 39.753906 34.40625 39.53125 34.40625 39.28125 L 34.40625 35.675781 L 32.339844 36.445312 L 32.339844 40.375 C 32.339844 40.625 32.117188 40.847656 31.867188 40.847656 C 31.617188 40.847656 31.417969 40.625 31.417969 40.375 L 31.417969 36.769531 L 30.625 37.066406 C 30.574219 37.09375 30.5 37.09375 30.449219 37.09375 C 30.175781 37.09375 29.953125 36.867188 29.953125 36.59375 L 29.953125 35.101562 C 29.953125 34.902344 30.078125 34.707031 30.277344 34.628906 L 31.417969 34.234375 L 31.417969 30.253906 L 30.625 30.527344 C 30.574219 30.550781 30.5 30.550781 30.449219 30.550781 C 30.175781 30.550781 29.953125 30.328125 29.953125 30.054688 L 29.953125 28.5625 C 29.953125 28.363281 30.078125 28.1875 30.277344 28.113281 L 31.417969 27.691406 L 31.417969 23.761719 C 31.417969 23.511719 31.617188 23.289062 31.867188 23.289062 C 32.117188 23.289062 32.339844 23.511719 32.339844 23.761719 L 32.339844 27.367188 L 34.40625 26.597656 L 34.40625 22.667969 C 34.40625 22.417969 34.628906 22.195312 34.878906 22.195312 C 35.125 22.195312 35.324219 22.417969 35.324219 22.667969 L 35.324219 26.273438 L 36.121094 25.976562 C 36.171875 25.949219 36.246094 25.949219 36.292969 25.949219 C 36.566406 25.949219 36.792969 26.175781 36.792969 26.449219 L 36.792969 27.941406 C 36.792969 28.140625 36.667969 28.335938 36.46875 28.414062 L 35.324219 28.808594 L 35.324219 32.789062 L 36.121094 32.515625 C 36.171875 32.492188 36.246094 32.492188 36.292969 32.492188 C 36.566406 32.492188 36.792969 32.714844 36.792969 32.988281 L 36.792969 34.480469 C 36.792969 34.679688 36.667969 34.855469 36.46875 34.929688 L 35.324219 35.351562 Z M 32.339844 29.90625 L 32.339844 33.882812 L 34.40625 33.136719 L 34.40625 29.160156 Z M 32.339844 29.90625 "/>
<path style=" stroke:none;fill-rule:nonzero;fill:rgb(0%,0%,0%);fill-opacity:1;" d="M 43.410156 45.5 C 43.410156 45.75 43.210938 45.972656 42.960938 45.972656 C 42.710938 45.972656 42.488281 45.75 42.488281 45.5 L 42.488281 41.894531 L 40.421875 42.664062 L 40.421875 46.59375 C 40.421875 46.84375 40.199219 47.066406 39.949219 47.066406 C 39.703125 47.066406 39.503906 46.84375 39.503906 46.59375 L 39.503906 42.988281 L 38.707031 43.285156 C 38.65625 43.3125 38.582031 43.3125 38.535156 43.3125 C 38.257812 43.3125 38.035156 43.085938 38.035156 42.8125 L 38.035156 41.320312 C 38.035156 41.121094 38.160156 40.921875 38.359375 40.847656 L 39.503906 40.449219 L 39.503906 36.472656 L 38.707031 36.746094 C 38.65625 36.769531 38.582031 36.769531 38.535156 36.769531 C 38.257812 36.769531 38.035156 36.546875 38.035156 36.273438 L 38.035156 34.78125 C 38.035156 34.582031 38.160156 34.40625 38.359375 34.332031 L 39.503906 33.910156 L 39.503906 29.980469 C 39.503906 29.730469 39.703125 29.507812 39.949219 29.507812 C 40.199219 29.507812 40.421875 29.730469 40.421875 29.980469 L 40.421875 33.585938 L 42.488281 32.816406 L 42.488281 28.886719 C 42.488281 28.636719 42.710938 28.414062 42.960938 28.414062 C 43.210938 28.414062 43.410156 28.636719 43.410156 28.886719 L 43.410156 32.492188 L 44.203125 32.191406 C 44.253906 32.167969 44.328125 32.167969 44.378906 32.167969 C 44.652344 32.167969 44.875 32.390625 44.875 32.664062 L 44.875 34.15625 C 44.875 34.355469 44.75 34.554688 44.550781 34.628906 L 43.410156 35.027344 L 43.410156 39.007812 L 44.203125 38.734375 C 44.253906 38.710938 44.328125 38.710938 44.378906 38.710938 C 44.652344 38.710938 44.875 38.933594 44.875 39.207031 L 44.875 40.699219 C 44.875 40.898438 44.75 41.074219 44.550781 41.148438 L 43.410156 41.570312 Z M 40.421875 36.121094 L 40.421875 40.101562 L 42.488281 39.355469 L 42.488281 35.375 Z M 40.421875 36.121094 "/>
<path style=" stroke:none;fill-rule:nonzero;fill:rgb(0%,0%,0%);fill-opacity:1;" d="M 23.390625 22.195312 C 23.390625 21.496094 23.960938 20.925781 24.65625 20.925781 C 25.355469 20.925781 25.925781 21.496094 25.925781 22.195312 C 25.925781 22.890625 25.355469 23.460938 24.65625 23.460938 C 23.960938 23.460938 23.390625 22.890625 23.390625 22.195312 Z M 23.390625 15.976562 C 23.390625 15.28125 23.960938 14.707031 24.65625 14.707031 C 25.355469 14.707031 25.925781 15.28125 25.925781 15.976562 C 25.925781 16.671875 25.355469 17.246094 24.65625 17.246094 C 23.960938 17.246094 23.390625 16.671875 23.390625 15.976562 Z M 15.304688 12.542969 C 19.585938 12.542969 22.59375 14.734375 22.59375 18.785156 C 22.59375 25.328125 16.050781 29.082031 9.757812 31.746094 C 9.683594 31.820312 9.609375 31.84375 9.535156 31.84375 C 9.363281 31.84375 9.210938 31.695312 9.210938 31.519531 C 9.210938 31.445312 9.238281 31.371094 9.3125 31.296875 C 14.335938 28.363281 19.558594 24.707031 19.558594 19.035156 C 19.558594 16.050781 17.992188 13.191406 15.304688 13.191406 C 13.464844 13.191406 12.097656 14.535156 11.476562 16.324219 C 11.75 16.199219 12.023438 16.125 12.320312 16.125 C 13.6875 16.125 14.808594 17.246094 14.808594 18.613281 C 14.808594 20.054688 13.714844 21.25 12.320312 21.25 C 10.828125 21.25 9.535156 20.082031 9.535156 18.613281 C 9.535156 15.304688 12.074219 12.542969 15.304688 12.542969 Z M 15.304688 12.542969 "/>
<path style=" stroke:none;fill-rule:nonzero;fill:rgb(0%,0%,0%);fill-opacity:1;" d="M 59.089844 21.921875 C 60.457031 21.921875 61.777344 22.617188 61.777344 24.132812 C 61.777344 25.898438 60.410156 27.144531 59.238281 27.839844 C 58.371094 28.363281 57.375 28.6875 56.355469 28.6875 C 54.988281 28.6875 53.667969 27.988281 53.667969 26.472656 C 53.667969 24.707031 55.035156 23.460938 56.207031 22.765625 C 57.074219 22.242188 58.070312 21.921875 59.089844 21.921875 Z M 59.089844 21.921875 "/>
<path style=" stroke:none;fill-rule:nonzero;fill:rgb(0%,0%,0%);fill-opacity:1;" d="M 59.089844 28.140625 C 60.457031 28.140625 61.777344 28.835938 61.777344 30.351562 C 61.777344 32.117188 60.410156 33.363281 59.238281 34.058594 C 58.371094 34.582031 57.375 34.902344 56.355469 34.902344 C 54.988281 34.902344 53.667969 34.207031 53.667969 32.691406 C 53.667969 30.925781 55.035156 29.679688 56.207031 28.984375 C 57.074219 28.460938 58.070312 28.140625 59.089844 28.140625 Z M 59.089844 28.140625 "/>
<path style=" stroke:none;fill-rule:nonzero;fill:rgb(0%,0%,0%);fill-opacity:1;" d="M 59.089844 34.355469 C 60.457031 34.355469 61.777344 35.054688 61.777344 36.570312 C 61.777344 38.335938 60.410156 39.582031 59.238281 40.277344 C 58.371094 40.800781 57.375 41.121094 56.355469 41.121094 C 54.988281 41.121094 53.667969 40.425781 53.667969 38.910156 C 53.667969 37.144531 55.035156 35.898438 56.207031 35.203125 C 57.074219 34.679688 58.070312 34.355469 59.089844 34.355469 Z M 59.089844 34.355469 "/>
</g>
</svg>
