<?xml version="1.0" encoding="UTF-8"?>
<svg xmlns="http://www.w3.org/2000/svg" xmlns:xlink="http://www.w3.org/1999/xlink" width="81.97507pt" height="50.196013pt" viewBox="0 0 81.97507 50.196013" version="1.1">
<g id="surface1">
<path style="fill:none;stroke-width:0.1;stroke-linecap:round;stroke-linejoin:round;stroke:rgb(0%,0%,0%);stroke-opacity:1;stroke-miterlimit:4;" d="M 0.049863 -0.0001075 L 10.785197 -0.0001075 " transform="matrix(6.218149,0,0,6.218149,4.561038,29.434262)"/>
<path style="fill:none;stroke-width:0.1;stroke-linecap:round;stroke-linejoin:round;stroke:rgb(0%,0%,0%);stroke-opacity:1;stroke-miterlimit:4;" d="M 0.049863 -0.000204149 L 10.785197 -0.000204149 " transform="matrix(6.218149,0,0,6.218149,4.561038,23.216113)"/>
<path style="fill:none;stroke-width:0.1;stroke-linecap:round;stroke-linejoin:round;stroke:rgb(0%,0%,0%);stroke-opacity:1;stroke-miterlimit:4;" d="M 0.049863 -0.000300797 L 10.785197 -0.000300797 " transform="matrix(6.218149,0,0,6.218149,4.561038,16.997964)"/>
<path style="fill:none;stroke-width:0.1;stroke-linecap:round;stroke-linejoin:round;stroke:rgb(0%,0%,0%);stroke-opacity:1;stroke-miterlimit:4;" d="M 0.049863 0.000230756 L 10.785197 0.000230756 " transform="matrix(6.218149,0,0,6.218149,4.561038,10.779815)"/>
<path style="fill:none;stroke-width:0.1;stroke-linecap:round;stroke-linejoin:round;stroke:rgb(0%,0%,0%);stroke-opacity:1;stroke-miterlimit:4;" d="M 0.049863 0.000133988 L 10.785197 0.000133988 " transform="matrix(6.218149,0,0,6.218149,4.561038,4.561667)"/>
<path style=" stroke:none;fill-rule:nonzero;fill:rgb(0%,0%,0%);fill-opacity:1;" d="M 53.515625 11.9375 L 53.828125 11.9375 C 53.964844 11.9375 54.078125 12.046875 54.078125 12.1875 L 54.078125 41.621094 C 54.078125 41.757812 53.964844 41.871094 53.828125 41.871094 L 53.515625 41.871094 C 53.378906 41.871094 53.269531 41.757812 53.269531 41.621094 L 53.269531 12.1875 C 53.269531 12.046875 53.378906 11.9375 53.515625 11.9375 Z M 53.515625 11.9375 "/>
<path style=" stroke:none;fill-rule:nonzero;fill:rgb(0%,0%,0%);fill-opacity:1;" d="M 48.359375 10.78125 C 48.929688 11.351562 49.75 11.476562 50.570312 11.476562 C 50.722656 11.476562 50.820312 11.574219 50.820312 11.726562 L 51.042969 13.890625 C 51.070312 14.039062 50.945312 14.164062 50.796875 14.136719 L 48.632812 13.914062 C 48.507812 13.890625 48.382812 13.789062 48.382812 13.664062 C 48.382812 12.84375 48.257812 12.023438 47.6875 11.453125 C 47.113281 12.023438 47.015625 12.84375 47.015625 13.664062 C 47.015625 13.789062 46.890625 13.890625 46.765625 13.914062 L 44.578125 14.136719 C 44.429688 14.164062 44.304688 14.039062 44.328125 13.890625 L 44.550781 11.726562 C 44.550781 11.574219 44.652344 11.476562 44.800781 11.476562 C 45.621094 11.476562 46.441406 11.351562 47.015625 10.78125 C 46.441406 10.207031 45.621094 10.082031 44.800781 10.082031 C 44.652344 10.082031 44.550781 9.984375 44.550781 9.835938 L 44.328125 7.671875 C 44.304688 7.523438 44.429688 7.398438 44.578125 7.421875 L 46.765625 7.644531 C 46.890625 7.671875 46.988281 7.769531 46.988281 7.894531 C 46.988281 8.714844 47.113281 9.535156 47.6875 10.109375 C 48.257812 9.535156 48.382812 8.714844 48.382812 7.894531 C 48.382812 7.769531 48.507812 7.671875 48.632812 7.644531 L 50.796875 7.421875 C 50.945312 7.398438 51.070312 7.523438 51.042969 7.671875 L 50.820312 9.835938 C 50.820312 9.984375 50.722656 10.082031 50.570312 10.082031 C 49.75 10.082031 48.929688 10.207031 48.359375 10.78125 Z M 48.359375 10.78125 "/>
<path style=" stroke:none;fill-rule:nonzero;fill:rgb(0%,0%,0%);fill-opacity:1;" d="M 33.734375 16.996094 C 34.304688 17.570312 35.125 17.695312 35.945312 17.695312 C 36.097656 17.695312 36.195312 17.792969 36.195312 17.941406 L 36.417969 20.105469 C 36.445312 20.257812 36.320312 20.378906 36.171875 20.355469 L 34.007812 20.132812 C 33.882812 20.105469 33.757812 20.007812 33.757812 19.882812 C 33.757812 19.0625 33.632812 18.242188 33.0625 17.667969 C 32.488281 18.242188 32.390625 19.0625 32.390625 19.882812 C 32.390625 20.007812 32.265625 20.105469 32.140625 20.132812 L 29.953125 20.355469 C 29.804688 20.378906 29.679688 20.257812 29.703125 20.105469 L 29.925781 17.941406 C 29.925781 17.792969 30.027344 17.695312 30.175781 17.695312 C 30.996094 17.695312 31.816406 17.570312 32.390625 16.996094 C 31.816406 16.425781 30.996094 16.300781 30.175781 16.300781 C 30.027344 16.300781 29.925781 16.203125 29.925781 16.054688 L 29.703125 13.890625 C 29.679688 13.738281 29.804688 13.617188 29.953125 13.640625 L 32.140625 13.863281 C 32.265625 13.890625 32.363281 13.988281 32.363281 14.113281 C 32.363281 14.933594 32.488281 15.753906 33.0625 16.328125 C 33.632812 15.753906 33.757812 14.933594 33.757812 14.113281 C 33.757812 13.988281 33.882812 13.890625 34.007812 13.863281 L 36.171875 13.640625 C 36.320312 13.617188 36.445312 13.738281 36.417969 13.890625 L 36.195312 16.054688 C 36.195312 16.203125 36.097656 16.300781 35.945312 16.300781 C 35.125 16.300781 34.304688 16.425781 33.734375 16.996094 Z M 33.734375 16.996094 "/>
<path style=" stroke:none;fill-rule:nonzero;fill:rgb(0%,0%,0%);fill-opacity:1;" d="M 43.082031 30.976562 C 43.082031 31.226562 42.882812 31.449219 42.636719 31.449219 C 42.386719 31.449219 42.164062 31.226562 42.164062 30.976562 L 42.164062 27.371094 L 40.097656 28.140625 L 40.097656 32.070312 C 40.097656 32.320312 39.875 32.542969 39.625 32.542969 C 39.378906 32.542969 39.179688 32.320312 39.179688 32.070312 L 39.179688 28.464844 L 38.382812 28.761719 C 38.332031 28.789062 38.257812 28.789062 38.207031 28.789062 C 37.933594 28.789062 37.710938 28.5625 37.710938 28.289062 L 37.710938 26.796875 C 37.710938 26.597656 37.835938 26.398438 38.035156 26.324219 L 39.179688 25.925781 L 39.179688 21.949219 L 38.382812 22.222656 C 38.332031 22.246094 38.257812 22.246094 38.207031 22.246094 C 37.933594 22.246094 37.710938 22.023438 37.710938 21.75 L 37.710938 20.257812 C 37.710938 20.058594 37.835938 19.882812 38.035156 19.808594 L 39.179688 19.386719 L 39.179688 15.457031 C 39.179688 15.207031 39.378906 14.984375 39.625 14.984375 C 39.875 14.984375 40.097656 15.207031 40.097656 15.457031 L 40.097656 19.0625 L 42.164062 18.292969 L 42.164062 14.363281 C 42.164062 14.113281 42.386719 13.890625 42.636719 13.890625 C 42.882812 13.890625 43.082031 14.113281 43.082031 14.363281 L 43.082031 17.96875 L 43.878906 17.667969 C 43.929688 17.644531 44.003906 17.644531 44.054688 17.644531 C 44.328125 17.644531 44.550781 17.867188 44.550781 18.140625 L 44.550781 19.632812 C 44.550781 19.832031 44.425781 20.03125 44.226562 20.105469 L 43.082031 20.503906 L 43.082031 24.484375 L 43.878906 24.210938 C 43.929688 24.1875 44.003906 24.1875 44.054688 24.1875 C 44.328125 24.1875 44.550781 24.410156 44.550781 24.683594 L 44.550781 26.175781 C 44.550781 26.375 44.425781 26.550781 44.226562 26.625 L 43.082031 27.046875 Z M 40.097656 21.597656 L 40.097656 25.578125 L 42.164062 24.832031 L 42.164062 20.851562 Z M 40.097656 21.597656 "/>
<path style=" stroke:none;fill-rule:nonzero;fill:rgb(0%,0%,0%);fill-opacity:1;" d="M 23.390625 13.890625 C 23.390625 13.191406 23.960938 12.621094 24.65625 12.621094 C 25.355469 12.621094 25.925781 13.191406 25.925781 13.890625 C 25.925781 14.585938 25.355469 15.15625 24.65625 15.15625 C 23.960938 15.15625 23.390625 14.585938 23.390625 13.890625 Z M 23.390625 7.671875 C 23.390625 6.972656 23.960938 6.402344 24.65625 6.402344 C 25.355469 6.402344 25.925781 6.972656 25.925781 7.671875 C 25.925781 8.367188 25.355469 8.9375 24.65625 8.9375 C 23.960938 8.9375 23.390625 8.367188 23.390625 7.671875 Z M 15.304688 4.238281 C 19.585938 4.238281 22.59375 6.425781 22.59375 10.480469 C 22.59375 17.023438 16.050781 20.777344 9.757812 23.441406 C 9.683594 23.515625 9.609375 23.539062 9.535156 23.539062 C 9.363281 23.539062 9.210938 23.390625 9.210938 23.214844 C 9.210938 23.140625 9.238281 23.066406 9.3125 22.992188 C 14.335938 20.058594 19.558594 16.402344 19.558594 10.730469 C 19.558594 7.746094 17.992188 4.886719 15.304688 4.886719 C 13.464844 4.886719 12.097656 6.226562 11.476562 8.019531 C 11.75 7.894531 12.023438 7.820312 12.320312 7.820312 C 13.6875 7.820312 14.808594 8.9375 14.808594 10.308594 C 14.808594 11.75 13.714844 12.945312 12.320312 12.945312 C 10.828125 12.945312 9.535156 11.773438 9.535156 10.308594 C 9.535156 7 12.074219 4.238281 15.304688 4.238281 Z M 15.304688 4.238281 "/>
<path style=" stroke:none;fill-rule:nonzero;fill:rgb(0%,0%,0%);fill-opacity:1;" d="M 58.691406 7.398438 C 60.058594 7.398438 61.375 8.09375 61.375 9.609375 C 61.375 11.375 60.007812 12.621094 58.839844 13.316406 C 57.96875 13.839844 56.972656 14.164062 55.953125 14.164062 C 54.585938 14.164062 53.269531 13.464844 53.269531 11.949219 C 53.269531 10.183594 54.636719 8.9375 55.804688 8.242188 C 56.675781 7.71875 57.671875 7.398438 58.691406 7.398438 Z M 58.691406 7.398438 "/>
<path style=" stroke:none;fill-rule:nonzero;fill:rgb(0%,0%,0%);fill-opacity:1;" d="M 58.691406 13.617188 C 60.058594 13.617188 61.375 14.3125 61.375 15.828125 C 61.375 17.59375 60.007812 18.839844 58.839844 19.535156 C 57.96875 20.058594 56.972656 20.378906 55.953125 20.378906 C 54.585938 20.378906 53.269531 19.683594 53.269531 18.167969 C 53.269531 16.402344 54.636719 15.15625 55.804688 14.460938 C 56.675781 13.9375 57.671875 13.617188 58.691406 13.617188 Z M 58.691406 13.617188 "/>
<path style=" stroke:none;fill-rule:nonzero;fill:rgb(0%,0%,0%);fill-opacity:1;" d="M 58.691406 19.832031 C 60.058594 19.832031 61.375 20.53125 61.375 22.046875 C 61.375 23.8125 60.007812 25.058594 58.839844 25.753906 C 57.96875 26.277344 56.972656 26.597656 55.953125 26.597656 C 54.585938 26.597656 53.269531 25.902344 53.269531 24.386719 C 53.269531 22.621094 54.636719 21.375 55.804688 20.679688 C 56.675781 20.15625 57.671875 19.832031 58.691406 19.832031 Z M 58.691406 19.832031 "/>
</g>
</svg>
