<?xml version="1.0" encoding="UTF-8"?>
<svg xmlns="http://www.w3.org/2000/svg" xmlns:xlink="http://www.w3.org/1999/xlink" width="69.224853pt" height="51.205563pt" viewBox="0 0 69.224853 51.205563" version="1.1">
<g id="surface1">
<path style="fill:none;stroke-width:0.1;stroke-linecap:round;stroke-linejoin:round;stroke:rgb(0%,0%,0%);stroke-opacity:1;stroke-miterlimit:4;" d="M 0.049863 -0.0001075 L 8.865413 -0.0001075 " transform="matrix(6.218149,0,0,6.218149,4.561038,29.434262)"/>
<path style="fill:none;stroke-width:0.1;stroke-linecap:round;stroke-linejoin:round;stroke:rgb(0%,0%,0%);stroke-opacity:1;stroke-miterlimit:4;" d="M 0.049863 -0.000204149 L 8.865413 -0.000204149 " transform="matrix(6.218149,0,0,6.218149,4.561038,23.216113)"/>
<path style="fill:none;stroke-width:0.1;stroke-linecap:round;stroke-linejoin:round;stroke:rgb(0%,0%,0%);stroke-opacity:1;stroke-miterlimit:4;" d="M 0.049863 -0.000300797 L 8.865413 -0.000300797 " transform="matrix(6.218149,0,0,6.218149,4.561038,16.997964)"/>
<path style="fill:none;stroke-width:0.1;stroke-linecap:round;stroke-linejoin:round;stroke:rgb(0%,0%,0%);stroke-opacity:1;stroke-miterlimit:4;" d="M 0.049863 0.000230756 L 8.865413 0.000230756 " transform="matrix(6.218149,0,0,6.218149,4.561038,10.779815)"/>
<path style="fill:none;stroke-width:0.1;stroke-linecap:round;stroke-linejoin:round;stroke:rgb(0%,0%,0%);stroke-opacity:1;stroke-miterlimit:4;" d="M 0.049863 0.000133988 L 8.865413 0.000133988 " transform="matrix(6.218149,0,0,6.218149,4.561038,4.561667)"/>
<path style=" stroke:none;fill-rule:nonzero;fill:rgb(0%,0%,0%);fill-opacity:1;" d="M 39.925781 35.03125 L 50.847656 35.03125 C 51.191406 35.03125 51.46875 35.308594 51.46875 35.652344 C 51.46875 35.996094 51.191406 36.273438 50.847656 36.273438 L 39.925781 36.273438 C 39.582031 36.273438 39.304688 35.996094 39.304688 35.652344 C 39.304688 35.308594 39.582031 35.03125 39.925781 35.03125 Z M 39.925781 35.03125 "/>
<path style=" stroke:none;fill-rule:nonzero;fill:rgb(0%,0%,0%);fill-opacity:1;" d="M 48.882812 4.5625 L 49.191406 4.5625 C 49.328125 4.5625 49.441406 4.671875 49.441406 4.808594 L 49.441406 37.355469 C 49.441406 37.492188 49.328125 37.605469 49.191406 37.605469 L 48.882812 37.605469 C 48.746094 37.605469 48.632812 37.492188 48.632812 37.355469 L 48.632812 4.808594 C 48.632812 4.671875 48.746094 4.5625 48.882812 4.5625 Z M 48.882812 4.5625 "/>
<path style=" stroke:none;fill-rule:nonzero;fill:rgb(0%,0%,0%);fill-opacity:1;" d="M 34.851562 25.304688 L 34.828125 26.945312 L 34.828125 27.21875 C 34.828125 27.769531 34.851562 28.316406 34.925781 28.863281 C 36.046875 27.917969 37.238281 26.871094 37.238281 25.40625 C 37.238281 24.585938 36.890625 23.738281 36.171875 23.738281 C 35.398438 23.738281 34.878906 24.484375 34.851562 25.304688 Z M 33.808594 29.757812 L 33.507812 14.957031 C 33.707031 14.835938 33.957031 14.757812 34.179688 14.757812 C 34.40625 14.757812 34.652344 14.835938 34.851562 14.957031 L 34.679688 23.539062 C 35.300781 23.015625 36.121094 22.695312 36.941406 22.695312 C 38.234375 22.695312 39.15625 23.886719 39.15625 25.230469 C 39.15625 27.21875 37.015625 28.140625 35.5 29.433594 C 35.125 29.757812 34.902344 30.378906 34.378906 30.378906 C 34.054688 30.378906 33.808594 30.105469 33.808594 29.757812 Z M 33.808594 29.757812 "/>
<path style=" stroke:none;fill-rule:nonzero;fill:rgb(0%,0%,0%);fill-opacity:1;" d="M 31.371094 37.742188 L 31.34375 39.382812 L 31.34375 39.65625 C 31.34375 40.203125 31.371094 40.75 31.445312 41.296875 C 32.5625 40.351562 33.757812 39.308594 33.757812 37.839844 C 33.757812 37.019531 33.410156 36.175781 32.6875 36.175781 C 31.917969 36.175781 31.394531 36.921875 31.371094 37.742188 Z M 30.324219 42.195312 L 30.027344 27.394531 C 30.226562 27.269531 30.472656 27.195312 30.699219 27.195312 C 30.921875 27.195312 31.171875 27.269531 31.371094 27.394531 L 31.195312 35.976562 C 31.816406 35.453125 32.636719 35.128906 33.460938 35.128906 C 34.753906 35.128906 35.671875 36.324219 35.671875 37.667969 C 35.671875 39.65625 33.535156 40.578125 32.015625 41.871094 C 31.644531 42.195312 31.417969 42.816406 30.898438 42.816406 C 30.574219 42.816406 30.324219 42.542969 30.324219 42.195312 Z M 30.324219 42.195312 "/>
<path style=" stroke:none;fill-rule:nonzero;fill:rgb(0%,0%,0%);fill-opacity:1;" d="M 23.390625 13.890625 C 23.390625 13.191406 23.960938 12.621094 24.65625 12.621094 C 25.355469 12.621094 25.925781 13.191406 25.925781 13.890625 C 25.925781 14.585938 25.355469 15.15625 24.65625 15.15625 C 23.960938 15.15625 23.390625 14.585938 23.390625 13.890625 Z M 23.390625 7.671875 C 23.390625 6.972656 23.960938 6.402344 24.65625 6.402344 C 25.355469 6.402344 25.925781 6.972656 25.925781 7.671875 C 25.925781 8.367188 25.355469 8.9375 24.65625 8.9375 C 23.960938 8.9375 23.390625 8.367188 23.390625 7.671875 Z M 15.304688 4.238281 C 19.585938 4.238281 22.59375 6.425781 22.59375 10.480469 C 22.59375 17.023438 16.050781 20.777344 9.757812 23.441406 C 9.683594 23.515625 9.609375 23.539062 9.535156 23.539062 C 9.363281 23.539062 9.210938 23.390625 9.210938 23.214844 C 9.210938 23.140625 9.238281 23.066406 9.3125 22.992188 C 14.335938 20.058594 19.558594 16.402344 19.558594 10.730469 C 19.558594 7.746094 17.992188 4.886719 15.304688 4.886719 C 13.464844 4.886719 12.097656 6.226562 11.476562 8.019531 C 11.75 7.894531 12.023438 7.820312 12.320312 7.820312 C 13.6875 7.820312 14.808594 8.9375 14.808594 10.308594 C 14.808594 11.75 13.714844 12.945312 12.320312 12.945312 C 10.828125 12.945312 9.535156 11.773438 9.535156 10.308594 C 9.535156 7 12.074219 4.238281 15.304688 4.238281 Z M 15.304688 4.238281 "/>
<path style=" stroke:none;fill-rule:nonzero;fill:rgb(0%,0%,0%);fill-opacity:1;" d="M 46.753906 22.941406 C 48.121094 22.941406 49.441406 23.640625 49.441406 25.15625 C 49.441406 26.921875 48.070312 28.164062 46.902344 28.863281 C 46.03125 29.382812 45.039062 29.707031 44.019531 29.707031 C 42.648438 29.707031 41.332031 29.011719 41.332031 27.496094 C 41.332031 25.726562 42.699219 24.484375 43.867188 23.789062 C 44.738281 23.265625 45.734375 22.941406 46.753906 22.941406 Z M 46.753906 22.941406 "/>
<path style=" stroke:none;fill-rule:nonzero;fill:rgb(0%,0%,0%);fill-opacity:1;" d="M 46.753906 29.160156 C 48.121094 29.160156 49.441406 29.855469 49.441406 31.375 C 49.441406 33.140625 48.070312 34.382812 46.902344 35.082031 C 46.03125 35.601562 45.039062 35.925781 44.019531 35.925781 C 42.648438 35.925781 41.332031 35.230469 41.332031 33.710938 C 41.332031 31.945312 42.699219 30.703125 43.867188 30.007812 C 44.738281 29.484375 45.734375 29.160156 46.753906 29.160156 Z M 46.753906 29.160156 "/>
<path style=" stroke:none;fill-rule:nonzero;fill:rgb(0%,0%,0%);fill-opacity:1;" d="M 46.753906 35.378906 C 48.121094 35.378906 49.441406 36.074219 49.441406 37.59375 C 49.441406 39.359375 48.070312 40.601562 46.902344 41.296875 C 46.03125 41.820312 45.039062 42.144531 44.019531 42.144531 C 42.648438 42.144531 41.332031 41.449219 41.332031 39.929688 C 41.332031 38.164062 42.699219 36.921875 43.867188 36.222656 C 44.738281 35.703125 45.734375 35.378906 46.753906 35.378906 Z M 46.753906 35.378906 "/>
</g>
</svg>
