<?xml version="1.0" encoding="UTF-8"?>
<svg xmlns="http://www.w3.org/2000/svg" xmlns:xlink="http://www.w3.org/1999/xlink" width="90.818592pt" height="65.790898pt" viewBox="0 0 90.818592 65.790898" version="1.1">
<g id="surface1">
<path style="fill:none;stroke-width:0.1;stroke-linecap:round;stroke-linejoin:round;stroke:rgb(0%,0%,0%);stroke-opacity:1;stroke-miterlimit:4;" d="M 0.049863 0.00024064 L 12.116984 0.00024064 " transform="matrix(6.218149,0,0,6.218149,4.561038,47.232879)"/>
<path style="fill:none;stroke-width:0.1;stroke-linecap:round;stroke-linejoin:round;stroke:rgb(0%,0%,0%);stroke-opacity:1;stroke-miterlimit:4;" d="M 0.049863 0.000143992 L 12.116984 0.000143992 " transform="matrix(6.218149,0,0,6.218149,4.561038,41.01473)"/>
<path style="fill:none;stroke-width:0.1;stroke-linecap:round;stroke-linejoin:round;stroke:rgb(0%,0%,0%);stroke-opacity:1;stroke-miterlimit:4;" d="M 0.049863 0.000047343 L 12.116984 0.000047343 " transform="matrix(6.218149,0,0,6.218149,4.561038,34.796581)"/>
<path style="fill:none;stroke-width:0.1;stroke-linecap:round;stroke-linejoin:round;stroke:rgb(0%,0%,0%);stroke-opacity:1;stroke-miterlimit:4;" d="M 0.049863 -0.0000493056 L 12.116984 -0.0000493056 " transform="matrix(6.218149,0,0,6.218149,4.561038,28.578432)"/>
<path style="fill:none;stroke-width:0.1;stroke-linecap:round;stroke-linejoin:round;stroke:rgb(0%,0%,0%);stroke-opacity:1;stroke-miterlimit:4;" d="M 0.049863 -0.000145716 L 12.116984 -0.000145716 " transform="matrix(6.218149,0,0,6.218149,4.561038,22.360281)"/>
<path style=" stroke:none;fill-rule:nonzero;fill:rgb(0%,0%,0%);fill-opacity:1;" d="M 60.140625 15.519531 L 71.0625 15.519531 C 71.40625 15.519531 71.683594 15.796875 71.683594 16.140625 C 71.683594 16.484375 71.40625 16.765625 71.0625 16.765625 L 60.140625 16.765625 C 59.796875 16.765625 59.519531 16.484375 59.519531 16.140625 C 59.519531 15.796875 59.796875 15.519531 60.140625 15.519531 Z M 60.140625 15.519531 "/>
<path style=" stroke:none;fill-rule:nonzero;fill:rgb(0%,0%,0%);fill-opacity:1;" d="M 61.796875 17.300781 L 62.105469 17.300781 C 62.246094 17.300781 62.355469 17.410156 62.355469 17.546875 L 62.355469 53.203125 C 62.355469 53.339844 62.246094 53.449219 62.105469 53.449219 L 61.796875 53.449219 C 61.660156 53.449219 61.546875 53.339844 61.546875 53.203125 L 61.546875 17.546875 C 61.546875 17.410156 61.660156 17.300781 61.796875 17.300781 Z M 61.796875 17.300781 "/>
<path style=" stroke:none;fill-rule:nonzero;fill:rgb(0%,0%,0%);fill-opacity:1;" d="M 47.363281 15.121094 L 47.335938 16.765625 L 47.335938 17.039062 C 47.335938 17.585938 47.363281 18.132812 47.4375 18.679688 C 48.554688 17.734375 49.75 16.6875 49.75 15.222656 C 49.75 14.402344 49.402344 13.554688 48.679688 13.554688 C 47.910156 13.554688 47.386719 14.300781 47.363281 15.121094 Z M 46.316406 19.574219 L 46.019531 4.773438 C 46.21875 4.652344 46.46875 4.578125 46.691406 4.578125 C 46.914062 4.578125 47.164062 4.652344 47.363281 4.773438 L 47.1875 13.355469 C 47.808594 12.835938 48.632812 12.511719 49.453125 12.511719 C 50.746094 12.511719 51.664062 13.703125 51.664062 15.046875 C 51.664062 17.039062 49.527344 17.957031 48.007812 19.25 C 47.636719 19.574219 47.414062 20.195312 46.890625 20.195312 C 46.566406 20.195312 46.316406 19.921875 46.316406 19.574219 Z M 46.316406 19.574219 "/>
<path style=" stroke:none;fill-rule:nonzero;fill:rgb(0%,0%,0%);fill-opacity:1;" d="M 37.226562 18.230469 L 37.199219 19.871094 L 37.199219 20.148438 C 37.199219 20.695312 37.226562 21.242188 37.300781 21.789062 C 38.417969 20.84375 39.613281 19.796875 39.613281 18.332031 C 39.613281 17.511719 39.265625 16.664062 38.542969 16.664062 C 37.773438 16.664062 37.25 17.410156 37.226562 18.230469 Z M 36.179688 22.683594 L 35.882812 7.882812 C 36.082031 7.761719 36.328125 7.683594 36.554688 7.683594 C 36.777344 7.683594 37.027344 7.761719 37.226562 7.882812 L 37.050781 16.464844 C 37.671875 15.941406 38.492188 15.621094 39.3125 15.621094 C 40.609375 15.621094 41.527344 16.8125 41.527344 18.15625 C 41.527344 20.148438 39.390625 21.066406 37.871094 22.359375 C 37.5 22.683594 37.273438 23.304688 36.753906 23.304688 C 36.429688 23.304688 36.179688 23.03125 36.179688 22.683594 Z M 36.179688 22.683594 "/>
<path style=" stroke:none;fill-rule:nonzero;fill:rgb(0%,0%,0%);fill-opacity:1;" d="M 30.632812 24.449219 L 30.609375 26.089844 L 30.609375 26.363281 C 30.609375 26.910156 30.632812 27.460938 30.707031 28.007812 C 31.828125 27.0625 33.023438 26.015625 33.023438 24.550781 C 33.023438 23.726562 32.671875 22.882812 31.953125 22.882812 C 31.179688 22.882812 30.660156 23.628906 30.632812 24.449219 Z M 29.589844 28.902344 L 29.289062 14.101562 C 29.488281 13.976562 29.738281 13.902344 29.960938 13.902344 C 30.1875 13.902344 30.433594 13.976562 30.632812 14.101562 L 30.460938 22.683594 C 31.082031 22.160156 31.902344 21.839844 32.722656 21.839844 C 34.015625 21.839844 34.9375 23.03125 34.9375 24.375 C 34.9375 26.363281 32.796875 27.285156 31.28125 28.578125 C 30.90625 28.902344 30.683594 29.523438 30.160156 29.523438 C 29.835938 29.523438 29.589844 29.25 29.589844 28.902344 Z M 29.589844 28.902344 "/>
<path style=" stroke:none;fill-rule:nonzero;fill:rgb(0%,0%,0%);fill-opacity:1;" d="M 43.878906 30.667969 L 43.855469 32.308594 L 43.855469 32.582031 C 43.855469 33.128906 43.878906 33.675781 43.953125 34.222656 C 45.074219 33.28125 46.269531 32.234375 46.269531 30.765625 C 46.269531 29.945312 45.917969 29.101562 45.199219 29.101562 C 44.425781 29.101562 43.90625 29.847656 43.878906 30.667969 Z M 42.835938 35.121094 L 42.539062 20.320312 C 42.734375 20.195312 42.984375 20.121094 43.207031 20.121094 C 43.433594 20.121094 43.679688 20.195312 43.878906 20.320312 L 43.707031 28.902344 C 44.328125 28.378906 45.148438 28.054688 45.96875 28.054688 C 47.261719 28.054688 48.183594 29.25 48.183594 30.59375 C 48.183594 32.582031 46.042969 33.503906 44.527344 34.796875 C 44.152344 35.121094 43.929688 35.742188 43.40625 35.742188 C 43.085938 35.742188 42.835938 35.46875 42.835938 35.121094 Z M 42.835938 35.121094 "/>
<path style=" stroke:none;fill-rule:nonzero;fill:rgb(0%,0%,0%);fill-opacity:1;" d="M 16.152344 56.808594 L 16.003906 56.808594 C 13.316406 56.808594 11.152344 54.621094 11.152344 51.910156 C 11.152344 50.464844 12.46875 49.347656 13.9375 49.347656 C 15.28125 49.347656 16.300781 50.515625 16.300781 51.910156 C 16.300781 53.203125 15.230469 54.273438 13.9375 54.273438 C 13.664062 54.273438 13.414062 54.222656 13.167969 54.121094 C 13.8125 55.09375 14.859375 55.738281 16.078125 55.738281 L 16.175781 55.738281 Z M 21 46.0625 C 22.691406 45.46875 23.8125 43.699219 23.8125 41.984375 C 23.8125 39.746094 22.171875 37.53125 19.507812 37.257812 C 20.105469 40.144531 20.652344 43.003906 21 46.0625 Z M 11.375 40.316406 C 11.375 43.675781 14.585938 46.460938 17.941406 46.460938 C 18.640625 46.460938 19.308594 46.410156 19.980469 46.3125 C 19.632812 43.152344 19.0625 40.21875 18.414062 37.257812 C 16.449219 37.457031 15.332031 38.777344 15.332031 40.21875 C 15.332031 41.3125 15.953125 42.480469 17.34375 43.277344 C 17.46875 43.402344 17.519531 43.527344 17.519531 43.652344 C 17.519531 43.925781 17.269531 44.199219 16.972656 44.199219 C 16.898438 44.199219 16.824219 44.171875 16.75 44.148438 C 14.757812 43.078125 13.839844 41.289062 13.839844 39.546875 C 13.839844 37.359375 15.28125 35.21875 17.816406 34.648438 C 17.46875 33.203125 17.097656 31.738281 16.675781 30.292969 C 14.011719 33.304688 11.375 36.339844 11.375 40.316406 Z M 17.867188 47.53125 C 13.191406 47.53125 9.585938 43.253906 9.585938 38.230469 C 9.585938 33.828125 12.84375 30.617188 15.753906 27.261719 C 15.28125 25.71875 14.832031 24.152344 14.632812 22.535156 C 14.484375 21.242188 14.460938 19.949219 14.460938 18.652344 C 14.460938 15.792969 15.828125 13.082031 18.167969 11.390625 C 18.316406 11.265625 18.515625 11.265625 18.664062 11.390625 C 20.429688 13.480469 21.972656 17.484375 21.972656 20.296875 C 21.972656 23.851562 19.832031 26.636719 17.496094 29.347656 C 18.015625 31.039062 18.464844 32.78125 18.886719 34.5 C 18.988281 34.5 19.113281 34.472656 19.210938 34.472656 C 23.066406 34.472656 25.578125 37.65625 25.578125 40.964844 C 25.578125 42.855469 24.757812 44.796875 22.917969 46.1875 C 22.371094 46.609375 21.746094 46.882812 21.101562 47.082031 C 21.175781 47.953125 21.226562 48.824219 21.226562 49.695312 C 21.226562 50.167969 21.199219 50.664062 21.175781 51.136719 C 21 54.097656 18.988281 56.734375 16.152344 56.808594 L 16.175781 55.738281 C 18.488281 55.691406 19.980469 53.449219 20.132812 50.988281 C 20.15625 50.539062 20.179688 50.066406 20.179688 49.621094 C 20.179688 48.847656 20.15625 48.101562 20.082031 47.332031 C 19.359375 47.457031 18.640625 47.53125 17.867188 47.53125 Z M 20.179688 18.230469 C 20.179688 16.863281 20.082031 16.265625 19.683594 15.023438 C 17.222656 16.214844 15.652344 18.730469 15.652344 21.464844 C 15.652344 23.304688 16.101562 24.773438 16.550781 26.289062 C 18.539062 23.878906 20.179688 21.367188 20.179688 18.230469 Z M 20.179688 18.230469 "/>
<path style=" stroke:none;fill-rule:nonzero;fill:rgb(0%,0%,0%);fill-opacity:1;" d="M 66.96875 12.757812 C 68.335938 12.757812 69.65625 13.457031 69.65625 14.972656 C 69.65625 16.738281 68.289062 17.984375 67.117188 18.679688 C 66.25 19.203125 65.253906 19.523438 64.234375 19.523438 C 62.867188 19.523438 61.546875 18.828125 61.546875 17.3125 C 61.546875 15.546875 62.914062 14.300781 64.085938 13.605469 C 64.953125 13.082031 65.949219 12.757812 66.96875 12.757812 Z M 66.96875 12.757812 "/>
<path style=" stroke:none;fill-rule:nonzero;fill:rgb(0%,0%,0%);fill-opacity:1;" d="M 59.265625 15.867188 C 60.632812 15.867188 61.949219 16.566406 61.949219 18.082031 C 61.949219 19.847656 60.582031 21.089844 59.414062 21.789062 C 58.542969 22.308594 57.546875 22.632812 56.527344 22.632812 C 55.160156 22.632812 53.839844 21.9375 53.839844 20.421875 C 53.839844 18.652344 55.210938 17.410156 56.378906 16.714844 C 57.25 16.191406 58.246094 15.867188 59.265625 15.867188 Z M 59.265625 15.867188 "/>
<path style=" stroke:none;fill-rule:nonzero;fill:rgb(0%,0%,0%);fill-opacity:1;" d="M 66.96875 22.085938 C 68.335938 22.085938 69.65625 22.78125 69.65625 24.300781 C 69.65625 26.066406 68.289062 27.308594 67.117188 28.007812 C 66.25 28.527344 65.253906 28.851562 64.234375 28.851562 C 62.867188 28.851562 61.546875 28.15625 61.546875 26.636719 C 61.546875 24.871094 62.914062 23.628906 64.085938 22.933594 C 64.953125 22.410156 65.949219 22.085938 66.96875 22.085938 Z M 66.96875 22.085938 "/>
<path style=" stroke:none;fill-rule:nonzero;fill:rgb(0%,0%,0%);fill-opacity:1;" d="M 66.96875 28.304688 C 68.335938 28.304688 69.65625 29 69.65625 30.519531 C 69.65625 32.285156 68.289062 33.527344 67.117188 34.222656 C 66.25 34.746094 65.253906 35.070312 64.234375 35.070312 C 62.867188 35.070312 61.546875 34.375 61.546875 32.855469 C 61.546875 31.089844 62.914062 29.847656 64.085938 29.152344 C 64.953125 28.628906 65.949219 28.304688 66.96875 28.304688 Z M 66.96875 28.304688 "/>
</g>
</svg>
