<?xml version="1.0" encoding="UTF-8"?>
<svg xmlns="http://www.w3.org/2000/svg" xmlns:xlink="http://www.w3.org/1999/xlink" width="68.472344pt" height="50.475001pt" viewBox="0 0 68.472344 50.475001" version="1.1">
<g id="surface1">
<path style="fill:none;stroke-width:0.1;stroke-linecap:round;stroke-linejoin:round;stroke:rgb(0%,0%,0%);stroke-opacity:1;stroke-miterlimit:4;" d="M 0.049863 0.000275194 L 8.752337 0.000275194 " transform="matrix(6.218149,0,0,6.218149,4.561038,42.158445)"/>
<path style="fill:none;stroke-width:0.1;stroke-linecap:round;stroke-linejoin:round;stroke:rgb(0%,0%,0%);stroke-opacity:1;stroke-miterlimit:4;" d="M 0.049863 0.000178545 L 8.752337 0.000178545 " transform="matrix(6.218149,0,0,6.218149,4.561038,35.940296)"/>
<path style="fill:none;stroke-width:0.1;stroke-linecap:round;stroke-linejoin:round;stroke:rgb(0%,0%,0%);stroke-opacity:1;stroke-miterlimit:4;" d="M 0.049863 0.0000818968 L 8.752337 0.0000818968 " transform="matrix(6.218149,0,0,6.218149,4.561038,29.722147)"/>
<path style="fill:none;stroke-width:0.1;stroke-linecap:round;stroke-linejoin:round;stroke:rgb(0%,0%,0%);stroke-opacity:1;stroke-miterlimit:4;" d="M 0.049863 -0.0000147518 L 8.752337 -0.0000147518 " transform="matrix(6.218149,0,0,6.218149,4.561038,23.503998)"/>
<path style="fill:none;stroke-width:0.1;stroke-linecap:round;stroke-linejoin:round;stroke:rgb(0%,0%,0%);stroke-opacity:1;stroke-miterlimit:4;" d="M 0.049863 -0.0001114 L 8.752337 -0.0001114 " transform="matrix(6.218149,0,0,6.218149,4.561038,17.285849)"/>
<path style=" stroke:none;fill-rule:nonzero;fill:rgb(0%,0%,0%);fill-opacity:1;" d="M 39.21875 10.445312 L 50.140625 10.445312 C 50.484375 10.445312 50.761719 10.722656 50.761719 11.066406 C 50.761719 11.410156 50.484375 11.691406 50.140625 11.691406 L 39.21875 11.691406 C 38.878906 11.691406 38.597656 11.410156 38.597656 11.066406 C 38.597656 10.722656 38.878906 10.445312 39.21875 10.445312 Z M 39.21875 10.445312 "/>
<path style=" stroke:none;fill-rule:nonzero;fill:rgb(0%,0%,0%);fill-opacity:1;" d="M 40.875 9.117188 L 41.1875 9.117188 C 41.324219 9.117188 41.433594 9.226562 41.433594 9.363281 L 41.433594 41.910156 C 41.433594 42.046875 41.324219 42.160156 41.1875 42.160156 L 40.875 42.160156 C 40.738281 42.160156 40.625 42.046875 40.625 41.910156 L 40.625 9.363281 C 40.625 9.226562 40.738281 9.117188 40.875 9.117188 Z M 40.875 9.117188 "/>
<path style=" stroke:none;fill-rule:nonzero;fill:rgb(0%,0%,0%);fill-opacity:1;" d="M 23.390625 26.613281 C 23.390625 25.917969 23.960938 25.34375 24.65625 25.34375 C 25.355469 25.34375 25.925781 25.917969 25.925781 26.613281 C 25.925781 27.308594 25.355469 27.882812 24.65625 27.882812 C 23.960938 27.882812 23.390625 27.308594 23.390625 26.613281 Z M 23.390625 20.394531 C 23.390625 19.699219 23.960938 19.125 24.65625 19.125 C 25.355469 19.125 25.925781 19.699219 25.925781 20.394531 C 25.925781 21.089844 25.355469 21.664062 24.65625 21.664062 C 23.960938 21.664062 23.390625 21.089844 23.390625 20.394531 Z M 15.304688 16.960938 C 19.585938 16.960938 22.59375 19.152344 22.59375 23.207031 C 22.59375 29.746094 16.050781 33.503906 9.757812 36.164062 C 9.683594 36.238281 9.609375 36.261719 9.535156 36.261719 C 9.363281 36.261719 9.210938 36.113281 9.210938 35.941406 C 9.210938 35.867188 9.238281 35.792969 9.3125 35.714844 C 14.335938 32.78125 19.558594 29.125 19.558594 23.453125 C 19.558594 20.46875 17.992188 17.609375 15.304688 17.609375 C 13.464844 17.609375 12.097656 18.953125 11.476562 20.742188 C 11.75 20.617188 12.023438 20.542969 12.320312 20.542969 C 13.6875 20.542969 14.808594 21.664062 14.808594 23.03125 C 14.808594 24.472656 13.714844 25.667969 12.320312 25.667969 C 10.828125 25.667969 9.535156 24.5 9.535156 23.03125 C 9.535156 19.722656 12.074219 16.960938 15.304688 16.960938 Z M 15.304688 16.960938 "/>
<path style=" stroke:none;fill-rule:nonzero;fill:rgb(0%,0%,0%);fill-opacity:1;" d="M 46.046875 4.574219 C 47.417969 4.574219 48.734375 5.273438 48.734375 6.789062 C 48.734375 8.554688 47.367188 9.800781 46.199219 10.496094 C 45.328125 11.019531 44.332031 11.339844 43.3125 11.339844 C 41.945312 11.339844 40.625 10.644531 40.625 9.128906 C 40.625 7.363281 41.996094 6.117188 43.164062 5.421875 C 44.035156 4.898438 45.027344 4.574219 46.046875 4.574219 Z M 46.046875 4.574219 "/>
<path style=" stroke:none;fill-rule:nonzero;fill:rgb(0%,0%,0%);fill-opacity:1;" d="M 46.046875 10.792969 C 47.417969 10.792969 48.734375 11.492188 48.734375 13.007812 C 48.734375 14.773438 47.367188 16.015625 46.199219 16.714844 C 45.328125 17.234375 44.332031 17.558594 43.3125 17.558594 C 41.945312 17.558594 40.625 16.863281 40.625 15.347656 C 40.625 13.578125 41.996094 12.335938 43.164062 11.640625 C 44.035156 11.117188 45.027344 10.792969 46.046875 10.792969 Z M 46.046875 10.792969 "/>
<path style=" stroke:none;fill-rule:nonzero;fill:rgb(0%,0%,0%);fill-opacity:1;" d="M 46.046875 17.011719 C 47.417969 17.011719 48.734375 17.707031 48.734375 19.226562 C 48.734375 20.992188 47.367188 22.234375 46.199219 22.933594 C 45.328125 23.453125 44.332031 23.777344 43.3125 23.777344 C 41.945312 23.777344 40.625 23.082031 40.625 21.5625 C 40.625 19.796875 41.996094 18.554688 43.164062 17.859375 C 44.035156 17.335938 45.027344 17.011719 46.046875 17.011719 Z M 46.046875 17.011719 "/>
</g>
</svg>
