<?xml version="1.0" encoding="UTF-8"?>
<svg xmlns="http://www.w3.org/2000/svg" xmlns:xlink="http://www.w3.org/1999/xlink" width="69.224853pt" height="62.536462pt" viewBox="0 0 69.224853 62.536462" version="1.1">
<g id="surface1">
<path style="fill:none;stroke-width:0.1;stroke-linecap:round;stroke-linejoin:round;stroke:rgb(0%,0%,0%);stroke-opacity:1;stroke-miterlimit:4;" d="M 0.049863 -0.000290436 L 8.865413 -0.000290436 " transform="matrix(6.218149,0,0,6.218149,4.561038,53.451025)"/>
<path style="fill:none;stroke-width:0.1;stroke-linecap:round;stroke-linejoin:round;stroke:rgb(0%,0%,0%);stroke-opacity:1;stroke-miterlimit:4;" d="M 0.049863 0.00024064 L 8.865413 0.00024064 " transform="matrix(6.218149,0,0,6.218149,4.561038,47.232879)"/>
<path style="fill:none;stroke-width:0.1;stroke-linecap:round;stroke-linejoin:round;stroke:rgb(0%,0%,0%);stroke-opacity:1;stroke-miterlimit:4;" d="M 0.049863 0.000143992 L 8.865413 0.000143992 " transform="matrix(6.218149,0,0,6.218149,4.561038,41.01473)"/>
<path style="fill:none;stroke-width:0.1;stroke-linecap:round;stroke-linejoin:round;stroke:rgb(0%,0%,0%);stroke-opacity:1;stroke-miterlimit:4;" d="M 0.049863 0.000047343 L 8.865413 0.000047343 " transform="matrix(6.218149,0,0,6.218149,4.561038,34.796581)"/>
<path style="fill:none;stroke-width:0.1;stroke-linecap:round;stroke-linejoin:round;stroke:rgb(0%,0%,0%);stroke-opacity:1;stroke-miterlimit:4;" d="M 0.049863 -0.0000493056 L 8.865413 -0.0000493056 " transform="matrix(6.218149,0,0,6.218149,4.561038,28.578432)"/>
<path style=" stroke:none;fill-rule:nonzero;fill:rgb(0%,0%,0%);fill-opacity:1;" d="M 40.863281 15.519531 L 50.847656 15.519531 C 51.191406 15.519531 51.46875 15.796875 51.46875 16.140625 C 51.46875 16.484375 51.191406 16.765625 50.847656 16.765625 L 40.863281 16.765625 C 40.523438 16.765625 40.242188 16.484375 40.242188 16.140625 C 40.242188 15.796875 40.523438 15.519531 40.863281 15.519531 Z M 40.863281 15.519531 "/>
<path style=" stroke:none;fill-rule:nonzero;fill:rgb(0%,0%,0%);fill-opacity:1;" d="M 39.925781 21.738281 L 50.847656 21.738281 C 51.191406 21.738281 51.46875 22.015625 51.46875 22.359375 C 51.46875 22.703125 51.191406 22.980469 50.847656 22.980469 L 39.925781 22.980469 C 39.582031 22.980469 39.304688 22.703125 39.304688 22.359375 C 39.304688 22.015625 39.582031 21.738281 39.925781 21.738281 Z M 39.925781 21.738281 "/>
<path style=" stroke:none;fill-rule:nonzero;fill:rgb(0%,0%,0%);fill-opacity:1;" d="M 41.582031 17.300781 L 41.890625 17.300781 C 42.027344 17.300781 42.140625 17.410156 42.140625 17.546875 L 42.140625 50.09375 C 42.140625 50.230469 42.027344 50.34375 41.890625 50.34375 L 41.582031 50.34375 C 41.441406 50.34375 41.332031 50.230469 41.332031 50.09375 L 41.332031 17.546875 C 41.332031 17.410156 41.441406 17.300781 41.582031 17.300781 Z M 41.582031 17.300781 "/>
<path style=" stroke:none;fill-rule:nonzero;fill:rgb(0%,0%,0%);fill-opacity:1;" d="M 34.851562 15.121094 L 34.828125 16.765625 L 34.828125 17.039062 C 34.828125 17.585938 34.851562 18.132812 34.925781 18.679688 C 36.046875 17.734375 37.238281 16.6875 37.238281 15.222656 C 37.238281 14.402344 36.890625 13.554688 36.171875 13.554688 C 35.398438 13.554688 34.878906 14.300781 34.851562 15.121094 Z M 33.808594 19.574219 L 33.507812 4.773438 C 33.707031 4.652344 33.957031 4.578125 34.179688 4.578125 C 34.40625 4.578125 34.652344 4.652344 34.851562 4.773438 L 34.679688 13.355469 C 35.300781 12.835938 36.121094 12.511719 36.941406 12.511719 C 38.234375 12.511719 39.15625 13.703125 39.15625 15.046875 C 39.15625 17.039062 37.015625 17.957031 35.5 19.25 C 35.125 19.574219 34.902344 20.195312 34.378906 20.195312 C 34.054688 20.195312 33.808594 19.921875 33.808594 19.574219 Z M 33.808594 19.574219 "/>
<path style=" stroke:none;fill-rule:nonzero;fill:rgb(0%,0%,0%);fill-opacity:1;" d="M 31.371094 27.558594 L 31.34375 29.199219 L 31.34375 29.472656 C 31.34375 30.019531 31.371094 30.566406 31.445312 31.117188 C 32.5625 30.171875 33.757812 29.125 33.757812 27.65625 C 33.757812 26.835938 33.410156 25.992188 32.6875 25.992188 C 31.917969 25.992188 31.394531 26.738281 31.371094 27.558594 Z M 30.324219 32.011719 L 30.027344 17.210938 C 30.226562 17.085938 30.472656 17.011719 30.699219 17.011719 C 30.921875 17.011719 31.171875 17.085938 31.371094 17.210938 L 31.195312 25.792969 C 31.816406 25.269531 32.636719 24.945312 33.460938 24.945312 C 34.753906 24.945312 35.671875 26.140625 35.671875 27.484375 C 35.671875 29.472656 33.535156 30.394531 32.015625 31.6875 C 31.644531 32.011719 31.417969 32.632812 30.898438 32.632812 C 30.574219 32.632812 30.324219 32.359375 30.324219 32.011719 Z M 30.324219 32.011719 "/>
<path style=" stroke:none;fill-rule:nonzero;fill:rgb(0%,0%,0%);fill-opacity:1;" d="M 23.390625 37.90625 C 23.390625 37.210938 23.960938 36.636719 24.65625 36.636719 C 25.355469 36.636719 25.925781 37.210938 25.925781 37.90625 C 25.925781 38.601562 25.355469 39.175781 24.65625 39.175781 C 23.960938 39.175781 23.390625 38.601562 23.390625 37.90625 Z M 23.390625 31.6875 C 23.390625 30.992188 23.960938 30.417969 24.65625 30.417969 C 25.355469 30.417969 25.925781 30.992188 25.925781 31.6875 C 25.925781 32.382812 25.355469 32.957031 24.65625 32.957031 C 23.960938 32.957031 23.390625 32.382812 23.390625 31.6875 Z M 15.304688 28.253906 C 19.585938 28.253906 22.59375 30.445312 22.59375 34.5 C 22.59375 41.039062 16.050781 44.796875 9.757812 47.457031 C 9.683594 47.53125 9.609375 47.554688 9.535156 47.554688 C 9.363281 47.554688 9.210938 47.40625 9.210938 47.234375 C 9.210938 47.160156 9.238281 47.082031 9.3125 47.007812 C 14.335938 44.074219 19.558594 40.417969 19.558594 34.746094 C 19.558594 31.761719 17.992188 28.902344 15.304688 28.902344 C 13.464844 28.902344 12.097656 30.246094 11.476562 32.035156 C 11.75 31.910156 12.023438 31.835938 12.320312 31.835938 C 13.6875 31.835938 14.808594 32.957031 14.808594 34.324219 C 14.808594 35.765625 13.714844 36.960938 12.320312 36.960938 C 10.828125 36.960938 9.535156 35.792969 9.535156 34.324219 C 9.535156 31.015625 12.074219 28.253906 15.304688 28.253906 Z M 15.304688 28.253906 "/>
<path style=" stroke:none;fill-rule:nonzero;fill:rgb(0%,0%,0%);fill-opacity:1;" d="M 46.753906 12.757812 C 48.121094 12.757812 49.441406 13.457031 49.441406 14.972656 C 49.441406 16.738281 48.070312 17.984375 46.902344 18.679688 C 46.03125 19.203125 45.039062 19.523438 44.019531 19.523438 C 42.648438 19.523438 41.332031 18.828125 41.332031 17.3125 C 41.332031 15.546875 42.699219 14.300781 43.867188 13.605469 C 44.738281 13.082031 45.734375 12.757812 46.753906 12.757812 Z M 46.753906 12.757812 "/>
<path style=" stroke:none;fill-rule:nonzero;fill:rgb(0%,0%,0%);fill-opacity:1;" d="M 46.753906 18.976562 C 48.121094 18.976562 49.441406 19.675781 49.441406 21.191406 C 49.441406 22.957031 48.070312 24.199219 46.902344 24.898438 C 46.03125 25.417969 45.039062 25.742188 44.019531 25.742188 C 42.648438 25.742188 41.332031 25.046875 41.332031 23.527344 C 41.332031 21.761719 42.699219 20.519531 43.867188 19.824219 C 44.738281 19.300781 45.734375 18.976562 46.753906 18.976562 Z M 46.753906 18.976562 "/>
<path style=" stroke:none;fill-rule:nonzero;fill:rgb(0%,0%,0%);fill-opacity:1;" d="M 46.753906 25.195312 C 48.121094 25.195312 49.441406 25.890625 49.441406 27.410156 C 49.441406 29.175781 48.070312 30.417969 46.902344 31.117188 C 46.03125 31.636719 45.039062 31.960938 44.019531 31.960938 C 42.648438 31.960938 41.332031 31.265625 41.332031 29.746094 C 41.332031 27.980469 42.699219 26.738281 43.867188 26.042969 C 44.738281 25.519531 45.734375 25.195312 46.753906 25.195312 Z M 46.753906 25.195312 "/>
</g>
</svg>
