<?xml version="1.0" encoding="UTF-8"?>
<svg xmlns="http://www.w3.org/2000/svg" xmlns:xlink="http://www.w3.org/1999/xlink" width="89.49953pt" height="66.720746pt" viewBox="0 0 89.49953 66.720746" version="1.1">
<g id="surface1">
<path style="fill:none;stroke-width:0.1;stroke-linecap:round;stroke-linejoin:round;stroke:rgb(0%,0%,0%);stroke-opacity:1;stroke-miterlimit:4;" d="M 0.049863 -0.000298513 L 11.918472 -0.000298513 " transform="matrix(6.218149,0,0,6.218149,4.561038,48.103419)"/>
<path style="fill:none;stroke-width:0.1;stroke-linecap:round;stroke-linejoin:round;stroke:rgb(0%,0%,0%);stroke-opacity:1;stroke-miterlimit:4;" d="M 0.049863 0.00023304 L 11.918472 0.00023304 " transform="matrix(6.218149,0,0,6.218149,4.561038,41.88527)"/>
<path style="fill:none;stroke-width:0.1;stroke-linecap:round;stroke-linejoin:round;stroke:rgb(0%,0%,0%);stroke-opacity:1;stroke-miterlimit:4;" d="M 0.049863 0.000136391 L 11.918472 0.000136391 " transform="matrix(6.218149,0,0,6.218149,4.561038,35.667121)"/>
<path style="fill:none;stroke-width:0.1;stroke-linecap:round;stroke-linejoin:round;stroke:rgb(0%,0%,0%);stroke-opacity:1;stroke-miterlimit:4;" d="M 0.049863 0.0000397429 L 11.918472 0.0000397429 " transform="matrix(6.218149,0,0,6.218149,4.561038,29.448972)"/>
<path style="fill:none;stroke-width:0.1;stroke-linecap:round;stroke-linejoin:round;stroke:rgb(0%,0%,0%);stroke-opacity:1;stroke-miterlimit:4;" d="M 0.049863 -0.0000569057 L 11.918472 -0.0000569057 " transform="matrix(6.218149,0,0,6.218149,4.561038,23.230823)"/>
<path style=" stroke:none;fill-rule:nonzero;fill:rgb(0%,0%,0%);fill-opacity:1;" d="M 58.90625 10.171875 L 69.828125 10.171875 C 70.171875 10.171875 70.449219 10.449219 70.449219 10.792969 C 70.449219 11.136719 70.171875 11.417969 69.828125 11.417969 L 58.90625 11.417969 C 58.5625 11.417969 58.285156 11.136719 58.285156 10.792969 C 58.285156 10.449219 58.5625 10.171875 58.90625 10.171875 Z M 58.90625 10.171875 "/>
<path style=" stroke:none;fill-rule:nonzero;fill:rgb(0%,0%,0%);fill-opacity:1;" d="M 52.140625 16.390625 L 69.828125 16.390625 C 70.171875 16.390625 70.449219 16.667969 70.449219 17.011719 C 70.449219 17.355469 70.171875 17.632812 69.828125 17.632812 L 52.140625 17.632812 C 51.796875 17.632812 51.519531 17.355469 51.519531 17.011719 C 51.519531 16.667969 51.796875 16.390625 52.140625 16.390625 Z M 52.140625 16.390625 "/>
<path style=" stroke:none;fill-rule:nonzero;fill:rgb(0%,0%,0%);fill-opacity:1;" d="M 60.5625 11.953125 L 60.871094 11.953125 C 61.007812 11.953125 61.121094 12.0625 61.121094 12.199219 L 61.121094 47.855469 C 61.121094 47.992188 61.007812 48.101562 60.871094 48.101562 L 60.5625 48.101562 C 60.421875 48.101562 60.3125 47.992188 60.3125 47.855469 L 60.3125 12.199219 C 60.3125 12.0625 60.421875 11.953125 60.5625 11.953125 Z M 60.5625 11.953125 "/>
<path style=" stroke:none;fill-rule:nonzero;fill:rgb(0%,0%,0%);fill-opacity:1;" d="M 39.613281 10.792969 C 40.183594 11.367188 41.003906 11.492188 41.828125 11.492188 C 41.976562 11.492188 42.074219 11.589844 42.074219 11.738281 L 42.300781 13.902344 C 42.324219 14.054688 42.199219 14.175781 42.050781 14.152344 L 39.886719 13.929688 C 39.761719 13.902344 39.636719 13.804688 39.636719 13.679688 C 39.636719 12.859375 39.511719 12.039062 38.941406 11.464844 C 38.367188 12.039062 38.269531 12.859375 38.269531 13.679688 C 38.269531 13.804688 38.144531 13.902344 38.019531 13.929688 L 35.832031 14.152344 C 35.683594 14.175781 35.558594 14.054688 35.582031 13.902344 L 35.808594 11.738281 C 35.808594 11.589844 35.90625 11.492188 36.054688 11.492188 C 36.875 11.492188 37.699219 11.367188 38.269531 10.792969 C 37.699219 10.222656 36.875 10.097656 36.054688 10.097656 C 35.90625 10.097656 35.808594 10 35.808594 9.847656 L 35.582031 7.683594 C 35.558594 7.535156 35.683594 7.410156 35.832031 7.4375 L 38.019531 7.660156 C 38.144531 7.683594 38.246094 7.785156 38.246094 7.910156 C 38.246094 8.730469 38.367188 9.550781 38.941406 10.121094 C 39.511719 9.550781 39.636719 8.730469 39.636719 7.910156 C 39.636719 7.785156 39.761719 7.683594 39.886719 7.660156 L 42.050781 7.4375 C 42.199219 7.410156 42.324219 7.535156 42.300781 7.683594 L 42.074219 9.847656 C 42.074219 10 41.976562 10.097656 41.828125 10.097656 C 41.003906 10.097656 40.183594 10.222656 39.613281 10.792969 Z M 39.613281 10.792969 "/>
<path style=" stroke:none;fill-rule:nonzero;fill:rgb(0%,0%,0%);fill-opacity:1;" d="M 48.964844 21.664062 C 48.964844 21.914062 48.765625 22.136719 48.515625 22.136719 C 48.265625 22.136719 48.042969 21.914062 48.042969 21.664062 L 48.042969 18.058594 L 45.976562 18.828125 L 45.976562 22.757812 C 45.976562 23.007812 45.753906 23.230469 45.503906 23.230469 C 45.257812 23.230469 45.058594 23.007812 45.058594 22.757812 L 45.058594 19.152344 L 44.261719 19.449219 C 44.210938 19.476562 44.136719 19.476562 44.089844 19.476562 C 43.8125 19.476562 43.589844 19.25 43.589844 18.976562 L 43.589844 17.484375 C 43.589844 17.285156 43.714844 17.085938 43.914062 17.011719 L 45.058594 16.613281 L 45.058594 12.636719 L 44.261719 12.910156 C 44.210938 12.933594 44.136719 12.933594 44.089844 12.933594 C 43.8125 12.933594 43.589844 12.710938 43.589844 12.4375 L 43.589844 10.945312 C 43.589844 10.746094 43.714844 10.570312 43.914062 10.496094 L 45.058594 10.074219 L 45.058594 6.144531 C 45.058594 5.894531 45.257812 5.671875 45.503906 5.671875 C 45.753906 5.671875 45.976562 5.894531 45.976562 6.144531 L 45.976562 9.75 L 48.042969 8.980469 L 48.042969 5.050781 C 48.042969 4.800781 48.265625 4.578125 48.515625 4.578125 C 48.765625 4.578125 48.964844 4.800781 48.964844 5.050781 L 48.964844 8.65625 L 49.757812 8.355469 C 49.808594 8.332031 49.882812 8.332031 49.933594 8.332031 C 50.207031 8.332031 50.429688 8.554688 50.429688 8.828125 L 50.429688 10.320312 C 50.429688 10.519531 50.304688 10.71875 50.105469 10.792969 L 48.964844 11.191406 L 48.964844 15.171875 L 49.757812 14.898438 C 49.808594 14.875 49.882812 14.875 49.933594 14.875 C 50.207031 14.875 50.429688 15.097656 50.429688 15.371094 L 50.429688 16.863281 C 50.429688 17.0625 50.304688 17.238281 50.105469 17.3125 L 48.964844 17.734375 Z M 45.976562 12.285156 L 45.976562 16.265625 L 48.042969 15.519531 L 48.042969 11.539062 Z M 45.976562 12.285156 "/>
<path style=" stroke:none;fill-rule:nonzero;fill:rgb(0%,0%,0%);fill-opacity:1;" d="M 32.996094 20.121094 C 33.570312 20.695312 34.390625 20.816406 35.210938 20.816406 C 35.359375 20.816406 35.460938 20.917969 35.460938 21.066406 L 35.683594 23.230469 C 35.707031 23.378906 35.582031 23.503906 35.433594 23.480469 L 33.269531 23.253906 C 33.144531 23.230469 33.023438 23.132812 33.023438 23.007812 C 33.023438 22.1875 32.898438 21.367188 32.324219 20.792969 C 31.753906 21.367188 31.652344 22.1875 31.652344 23.007812 C 31.652344 23.132812 31.527344 23.230469 31.40625 23.253906 L 29.214844 23.480469 C 29.066406 23.503906 28.941406 23.378906 28.96875 23.230469 L 29.191406 21.066406 C 29.191406 20.917969 29.289062 20.816406 29.441406 20.816406 C 30.261719 20.816406 31.082031 20.695312 31.652344 20.121094 C 31.082031 19.550781 30.261719 19.425781 29.441406 19.425781 C 29.289062 19.425781 29.191406 19.324219 29.191406 19.175781 L 28.96875 17.011719 C 28.941406 16.863281 29.066406 16.738281 29.214844 16.765625 L 31.40625 16.988281 C 31.527344 17.011719 31.628906 17.113281 31.628906 17.238281 C 31.628906 18.058594 31.753906 18.878906 32.324219 19.449219 C 32.898438 18.878906 33.023438 18.058594 33.023438 17.238281 C 33.023438 17.113281 33.144531 17.011719 33.269531 16.988281 L 35.433594 16.765625 C 35.582031 16.738281 35.707031 16.863281 35.683594 17.011719 L 35.460938 19.175781 C 35.460938 19.324219 35.359375 19.425781 35.210938 19.425781 C 34.390625 19.425781 33.570312 19.550781 32.996094 20.121094 Z M 32.996094 20.121094 "/>
<path style=" stroke:none;fill-rule:nonzero;fill:rgb(0%,0%,0%);fill-opacity:1;" d="M 42.347656 34.101562 C 42.347656 34.347656 42.148438 34.574219 41.898438 34.574219 C 41.652344 34.574219 41.425781 34.347656 41.425781 34.101562 L 41.425781 30.492188 L 39.363281 31.265625 L 39.363281 35.195312 C 39.363281 35.441406 39.136719 35.667969 38.890625 35.667969 C 38.640625 35.667969 38.441406 35.441406 38.441406 35.195312 L 38.441406 31.589844 L 37.644531 31.886719 C 37.597656 31.910156 37.523438 31.910156 37.472656 31.910156 C 37.199219 31.910156 36.972656 31.6875 36.972656 31.414062 L 36.972656 29.921875 C 36.972656 29.722656 37.097656 29.523438 37.296875 29.449219 L 38.441406 29.050781 L 38.441406 25.070312 L 37.644531 25.34375 C 37.597656 25.371094 37.523438 25.371094 37.472656 25.371094 C 37.199219 25.371094 36.972656 25.144531 36.972656 24.871094 L 36.972656 23.378906 C 36.972656 23.179688 37.097656 23.007812 37.296875 22.933594 L 38.441406 22.507812 L 38.441406 18.578125 C 38.441406 18.332031 38.640625 18.105469 38.890625 18.105469 C 39.136719 18.105469 39.363281 18.332031 39.363281 18.578125 L 39.363281 22.1875 L 41.425781 21.414062 L 41.425781 17.484375 C 41.425781 17.238281 41.652344 17.011719 41.898438 17.011719 C 42.148438 17.011719 42.347656 17.238281 42.347656 17.484375 L 42.347656 21.089844 L 43.144531 20.792969 C 43.191406 20.769531 43.265625 20.769531 43.316406 20.769531 C 43.589844 20.769531 43.8125 20.992188 43.8125 21.265625 L 43.8125 22.757812 C 43.8125 22.957031 43.691406 23.15625 43.492188 23.230469 L 42.347656 23.628906 L 42.347656 27.609375 L 43.144531 27.335938 C 43.191406 27.308594 43.265625 27.308594 43.316406 27.308594 C 43.589844 27.308594 43.8125 27.535156 43.8125 27.808594 L 43.8125 29.300781 C 43.8125 29.5 43.691406 29.671875 43.492188 29.746094 L 42.347656 30.171875 Z M 39.363281 24.722656 L 39.363281 28.703125 L 41.425781 27.957031 L 41.425781 23.976562 Z M 39.363281 24.722656 "/>
<path style=" stroke:none;fill-rule:nonzero;fill:rgb(0%,0%,0%);fill-opacity:1;" d="M 16.152344 57.679688 L 16.003906 57.679688 C 13.316406 57.679688 11.152344 55.492188 11.152344 52.78125 C 11.152344 51.335938 12.46875 50.21875 13.9375 50.21875 C 15.28125 50.21875 16.300781 51.386719 16.300781 52.78125 C 16.300781 54.074219 15.230469 55.140625 13.9375 55.140625 C 13.664062 55.140625 13.414062 55.09375 13.167969 54.992188 C 13.8125 55.964844 14.859375 56.609375 16.078125 56.609375 L 16.175781 56.609375 Z M 21 46.933594 C 22.691406 46.335938 23.8125 44.570312 23.8125 42.855469 C 23.8125 40.617188 22.171875 38.402344 19.507812 38.128906 C 20.105469 41.015625 20.652344 43.875 21 46.933594 Z M 11.375 41.1875 C 11.375 44.546875 14.585938 47.332031 17.941406 47.332031 C 18.640625 47.332031 19.308594 47.28125 19.980469 47.183594 C 19.632812 44.023438 19.0625 41.089844 18.414062 38.128906 C 16.449219 38.328125 15.332031 39.648438 15.332031 41.089844 C 15.332031 42.183594 15.953125 43.351562 17.34375 44.148438 C 17.46875 44.273438 17.519531 44.398438 17.519531 44.523438 C 17.519531 44.796875 17.269531 45.070312 16.972656 45.070312 C 16.898438 45.070312 16.824219 45.042969 16.75 45.019531 C 14.757812 43.949219 13.839844 42.160156 13.839844 40.417969 C 13.839844 38.230469 15.28125 36.089844 17.816406 35.519531 C 17.46875 34.074219 17.097656 32.609375 16.675781 31.164062 C 14.011719 34.175781 11.375 37.210938 11.375 41.1875 Z M 17.867188 48.402344 C 13.191406 48.402344 9.585938 44.125 9.585938 39.097656 C 9.585938 34.695312 12.84375 31.488281 15.753906 28.128906 C 15.28125 26.589844 14.832031 25.023438 14.632812 23.40625 C 14.484375 22.113281 14.460938 20.816406 14.460938 19.523438 C 14.460938 16.664062 15.828125 13.953125 18.167969 12.261719 C 18.316406 12.136719 18.515625 12.136719 18.664062 12.261719 C 20.429688 14.351562 21.972656 18.355469 21.972656 21.167969 C 21.972656 24.722656 19.832031 27.507812 17.496094 30.21875 C 18.015625 31.910156 18.464844 33.652344 18.886719 35.367188 C 18.988281 35.367188 19.113281 35.34375 19.210938 35.34375 C 23.066406 35.34375 25.578125 38.527344 25.578125 41.835938 C 25.578125 43.726562 24.757812 45.664062 22.917969 47.058594 C 22.371094 47.480469 21.746094 47.753906 21.101562 47.953125 C 21.175781 48.824219 21.226562 49.695312 21.226562 50.566406 C 21.226562 51.039062 21.199219 51.535156 21.175781 52.007812 C 21 54.96875 18.988281 57.605469 16.152344 57.679688 L 16.175781 56.609375 C 18.488281 56.558594 19.980469 54.320312 20.132812 51.859375 C 20.15625 51.410156 20.179688 50.9375 20.179688 50.492188 C 20.179688 49.71875 20.15625 48.972656 20.082031 48.203125 C 19.359375 48.328125 18.640625 48.402344 17.867188 48.402344 Z M 20.179688 19.101562 C 20.179688 17.734375 20.082031 17.136719 19.683594 15.894531 C 17.222656 17.085938 15.652344 19.597656 15.652344 22.335938 C 15.652344 24.175781 16.101562 25.644531 16.550781 27.160156 C 18.539062 24.75 20.179688 22.234375 20.179688 19.101562 Z M 20.179688 19.101562 "/>
<path style=" stroke:none;fill-rule:nonzero;fill:rgb(0%,0%,0%);fill-opacity:1;" d="M 65.734375 7.410156 C 67.101562 7.410156 68.421875 8.109375 68.421875 9.625 C 68.421875 11.390625 67.054688 12.636719 65.882812 13.332031 C 65.011719 13.855469 64.019531 14.175781 63 14.175781 C 61.628906 14.175781 60.3125 13.480469 60.3125 11.964844 C 60.3125 10.199219 61.679688 8.953125 62.847656 8.257812 C 63.71875 7.734375 64.714844 7.410156 65.734375 7.410156 Z M 65.734375 7.410156 "/>
<path style=" stroke:none;fill-rule:nonzero;fill:rgb(0%,0%,0%);fill-opacity:1;" d="M 58.027344 10.519531 C 59.398438 10.519531 60.714844 11.21875 60.714844 12.734375 C 60.714844 14.5 59.347656 15.746094 58.179688 16.441406 C 57.308594 16.964844 56.3125 17.285156 55.292969 17.285156 C 53.925781 17.285156 52.605469 16.589844 52.605469 15.074219 C 52.605469 13.308594 53.976562 12.0625 55.144531 11.367188 C 56.015625 10.84375 57.007812 10.519531 58.027344 10.519531 Z M 58.027344 10.519531 "/>
<path style=" stroke:none;fill-rule:nonzero;fill:rgb(0%,0%,0%);fill-opacity:1;" d="M 65.734375 16.738281 C 67.101562 16.738281 68.421875 17.433594 68.421875 18.953125 C 68.421875 20.71875 67.054688 21.960938 65.882812 22.660156 C 65.011719 23.179688 64.019531 23.503906 63 23.503906 C 61.628906 23.503906 60.3125 22.808594 60.3125 21.289062 C 60.3125 19.523438 61.679688 18.28125 62.847656 17.585938 C 63.71875 17.0625 64.714844 16.738281 65.734375 16.738281 Z M 65.734375 16.738281 "/>
<path style=" stroke:none;fill-rule:nonzero;fill:rgb(0%,0%,0%);fill-opacity:1;" d="M 65.734375 22.957031 C 67.101562 22.957031 68.421875 23.652344 68.421875 25.171875 C 68.421875 26.9375 67.054688 28.179688 65.882812 28.875 C 65.011719 29.398438 64.019531 29.722656 63 29.722656 C 61.628906 29.722656 60.3125 29.027344 60.3125 27.507812 C 60.3125 25.742188 61.679688 24.5 62.847656 23.804688 C 63.71875 23.28125 64.714844 22.957031 65.734375 22.957031 Z M 65.734375 22.957031 "/>
</g>
</svg>
