<?xml version="1.0" encoding="UTF-8"?>
<svg xmlns="http://www.w3.org/2000/svg" xmlns:xlink="http://www.w3.org/1999/xlink" width="96.701206pt" height="61.666356pt" viewBox="0 0 96.701206 61.666356" version="1.1">
<g id="surface1">
<path style="fill:none;stroke-width:0.1;stroke-linecap:round;stroke-linejoin:round;stroke:rgb(0%,0%,0%);stroke-opacity:1;stroke-miterlimit:4;" d="M 0.049863 -0.000287501 L 13.002748 -0.000287501 " transform="matrix(6.218149,0,0,6.218149,4.561038,40.517413)"/>
<path style="fill:none;stroke-width:0.1;stroke-linecap:round;stroke-linejoin:round;stroke:rgb(0%,0%,0%);stroke-opacity:1;stroke-miterlimit:4;" d="M 0.049863 0.000244052 L 13.002748 0.000244052 " transform="matrix(6.218149,0,0,6.218149,4.561038,34.299264)"/>
<path style="fill:none;stroke-width:0.1;stroke-linecap:round;stroke-linejoin:round;stroke:rgb(0%,0%,0%);stroke-opacity:1;stroke-miterlimit:4;" d="M 0.049863 0.000147403 L 13.002748 0.000147403 " transform="matrix(6.218149,0,0,6.218149,4.561038,28.081115)"/>
<path style="fill:none;stroke-width:0.1;stroke-linecap:round;stroke-linejoin:round;stroke:rgb(0%,0%,0%);stroke-opacity:1;stroke-miterlimit:4;" d="M 0.049863 0.0000507548 L 13.002748 0.0000507548 " transform="matrix(6.218149,0,0,6.218149,4.561038,21.862966)"/>
<path style="fill:none;stroke-width:0.1;stroke-linecap:round;stroke-linejoin:round;stroke:rgb(0%,0%,0%);stroke-opacity:1;stroke-miterlimit:4;" d="M 0.049863 -0.0000458938 L 13.002748 -0.0000458938 " transform="matrix(6.218149,0,0,6.218149,4.561038,15.644817)"/>
<path style=" stroke:none;fill-rule:nonzero;fill:rgb(0%,0%,0%);fill-opacity:1;" d="M 67.304688 19.910156 L 67.613281 19.910156 C 67.75 19.910156 67.863281 20.023438 67.863281 20.160156 L 67.863281 52.703125 C 67.863281 52.84375 67.75 52.953125 67.613281 52.953125 L 67.304688 52.953125 C 67.167969 52.953125 67.054688 52.84375 67.054688 52.703125 L 67.054688 20.160156 C 67.054688 20.023438 67.167969 19.910156 67.304688 19.910156 Z M 67.304688 19.910156 "/>
<path style=" stroke:none;fill-rule:nonzero;fill:rgb(0%,0%,0%);fill-opacity:1;" d="M 55.707031 26.515625 C 55.707031 26.761719 55.507812 26.988281 55.257812 26.988281 C 55.007812 26.988281 54.785156 26.761719 54.785156 26.515625 L 54.785156 22.90625 L 52.71875 23.679688 L 52.71875 27.609375 C 52.71875 27.855469 52.496094 28.082031 52.246094 28.082031 C 52 28.082031 51.800781 27.855469 51.800781 27.609375 L 51.800781 24.003906 L 51.003906 24.300781 C 50.953125 24.324219 50.878906 24.324219 50.832031 24.324219 C 50.558594 24.324219 50.332031 24.101562 50.332031 23.828125 L 50.332031 22.335938 C 50.332031 22.136719 50.457031 21.9375 50.65625 21.863281 L 51.800781 21.464844 L 51.800781 17.484375 L 51.003906 17.757812 C 50.953125 17.785156 50.878906 17.785156 50.832031 17.785156 C 50.558594 17.785156 50.332031 17.558594 50.332031 17.285156 L 50.332031 15.792969 C 50.332031 15.59375 50.457031 15.421875 50.65625 15.347656 L 51.800781 14.921875 L 51.800781 10.992188 C 51.800781 10.746094 52 10.519531 52.246094 10.519531 C 52.496094 10.519531 52.71875 10.746094 52.71875 10.992188 L 52.71875 14.601562 L 54.785156 13.828125 L 54.785156 9.898438 C 54.785156 9.652344 55.007812 9.425781 55.257812 9.425781 C 55.507812 9.425781 55.707031 9.652344 55.707031 9.898438 L 55.707031 13.503906 L 56.5 13.207031 C 56.550781 13.183594 56.625 13.183594 56.675781 13.183594 C 56.949219 13.183594 57.171875 13.40625 57.171875 13.679688 L 57.171875 15.171875 C 57.171875 15.371094 57.046875 15.570312 56.847656 15.644531 L 55.707031 16.042969 L 55.707031 20.023438 L 56.5 19.75 C 56.550781 19.722656 56.625 19.722656 56.675781 19.722656 C 56.949219 19.722656 57.171875 19.949219 57.171875 20.222656 L 57.171875 21.714844 C 57.171875 21.914062 57.046875 22.085938 56.847656 22.160156 L 55.707031 22.585938 Z M 52.71875 17.136719 L 52.71875 21.117188 L 54.785156 20.371094 L 54.785156 16.390625 Z M 52.71875 17.136719 "/>
<path style=" stroke:none;fill-rule:nonzero;fill:rgb(0%,0%,0%);fill-opacity:1;" d="M 42.671875 29.625 C 42.671875 29.871094 42.472656 30.097656 42.222656 30.097656 C 41.976562 30.097656 41.75 29.871094 41.75 29.625 L 41.75 26.015625 L 39.6875 26.789062 L 39.6875 30.71875 C 39.6875 30.964844 39.464844 31.191406 39.214844 31.191406 C 38.964844 31.191406 38.765625 30.964844 38.765625 30.71875 L 38.765625 27.109375 L 37.972656 27.410156 C 37.921875 27.433594 37.847656 27.433594 37.796875 27.433594 C 37.523438 27.433594 37.300781 27.210938 37.300781 26.9375 L 37.300781 25.445312 C 37.300781 25.246094 37.425781 25.046875 37.621094 24.972656 L 38.765625 24.574219 L 38.765625 20.59375 L 37.972656 20.867188 C 37.921875 20.894531 37.847656 20.894531 37.796875 20.894531 C 37.523438 20.894531 37.300781 20.667969 37.300781 20.394531 L 37.300781 18.902344 C 37.300781 18.703125 37.425781 18.53125 37.621094 18.457031 L 38.765625 18.03125 L 38.765625 14.101562 C 38.765625 13.855469 38.964844 13.628906 39.214844 13.628906 C 39.464844 13.628906 39.6875 13.855469 39.6875 14.101562 L 39.6875 17.710938 L 41.75 16.9375 L 41.75 13.007812 C 41.75 12.757812 41.976562 12.535156 42.222656 12.535156 C 42.472656 12.535156 42.671875 12.757812 42.671875 13.007812 L 42.671875 16.613281 L 43.46875 16.316406 C 43.519531 16.292969 43.59375 16.292969 43.640625 16.292969 C 43.914062 16.292969 44.140625 16.515625 44.140625 16.789062 L 44.140625 18.28125 C 44.140625 18.480469 44.015625 18.679688 43.816406 18.753906 L 42.671875 19.152344 L 42.671875 23.132812 L 43.46875 22.859375 C 43.519531 22.832031 43.59375 22.832031 43.640625 22.832031 C 43.914062 22.832031 44.140625 23.058594 44.140625 23.332031 L 44.140625 24.824219 C 44.140625 25.023438 44.015625 25.195312 43.816406 25.269531 L 42.671875 25.691406 Z M 39.6875 20.246094 L 39.6875 24.226562 L 41.75 23.480469 L 41.75 19.5 Z M 39.6875 20.246094 "/>
<path style=" stroke:none;fill-rule:nonzero;fill:rgb(0%,0%,0%);fill-opacity:1;" d="M 34.589844 35.839844 C 34.589844 36.089844 34.390625 36.3125 34.140625 36.3125 C 33.890625 36.3125 33.667969 36.089844 33.667969 35.839844 L 33.667969 32.234375 L 31.605469 33.007812 L 31.605469 36.9375 C 31.605469 37.183594 31.378906 37.410156 31.132812 37.410156 C 30.882812 37.410156 30.683594 37.183594 30.683594 36.9375 L 30.683594 33.328125 L 29.886719 33.628906 C 29.835938 33.652344 29.761719 33.652344 29.714844 33.652344 C 29.441406 33.652344 29.214844 33.429688 29.214844 33.15625 L 29.214844 31.664062 C 29.214844 31.464844 29.339844 31.265625 29.539062 31.191406 L 30.683594 30.792969 L 30.683594 26.8125 L 29.886719 27.085938 C 29.835938 27.109375 29.761719 27.109375 29.714844 27.109375 C 29.441406 27.109375 29.214844 26.886719 29.214844 26.613281 L 29.214844 25.121094 C 29.214844 24.921875 29.339844 24.75 29.539062 24.671875 L 30.683594 24.25 L 30.683594 20.320312 C 30.683594 20.070312 30.882812 19.847656 31.132812 19.847656 C 31.378906 19.847656 31.605469 20.070312 31.605469 20.320312 L 31.605469 23.925781 L 33.667969 23.15625 L 33.667969 19.226562 C 33.667969 18.976562 33.890625 18.753906 34.140625 18.753906 C 34.390625 18.753906 34.589844 18.976562 34.589844 19.226562 L 34.589844 22.832031 L 35.382812 22.535156 C 35.433594 22.507812 35.507812 22.507812 35.558594 22.507812 C 35.832031 22.507812 36.054688 22.734375 36.054688 23.007812 L 36.054688 24.5 C 36.054688 24.699219 35.929688 24.898438 35.734375 24.972656 L 34.589844 25.371094 L 34.589844 29.351562 L 35.382812 29.074219 C 35.433594 29.050781 35.507812 29.050781 35.558594 29.050781 C 35.832031 29.050781 36.054688 29.273438 36.054688 29.546875 L 36.054688 31.039062 C 36.054688 31.238281 35.929688 31.414062 35.734375 31.488281 L 34.589844 31.910156 Z M 31.605469 26.464844 L 31.605469 30.445312 L 33.667969 29.699219 L 33.667969 25.71875 Z M 31.605469 26.464844 "/>
<path style=" stroke:none;fill-rule:nonzero;fill:rgb(0%,0%,0%);fill-opacity:1;" d="M 49.113281 42.058594 C 49.113281 42.308594 48.914062 42.53125 48.667969 42.53125 C 48.417969 42.53125 48.195312 42.308594 48.195312 42.058594 L 48.195312 38.453125 L 46.128906 39.222656 L 46.128906 43.152344 C 46.128906 43.402344 45.90625 43.625 45.65625 43.625 C 45.40625 43.625 45.210938 43.402344 45.210938 43.152344 L 45.210938 39.546875 L 44.414062 39.847656 C 44.363281 39.871094 44.289062 39.871094 44.238281 39.871094 C 43.964844 39.871094 43.742188 39.648438 43.742188 39.375 L 43.742188 37.882812 C 43.742188 37.683594 43.867188 37.484375 44.066406 37.410156 L 45.210938 37.011719 L 45.210938 33.03125 L 44.414062 33.304688 C 44.363281 33.328125 44.289062 33.328125 44.238281 33.328125 C 43.964844 33.328125 43.742188 33.105469 43.742188 32.832031 L 43.742188 31.339844 C 43.742188 31.140625 43.867188 30.964844 44.066406 30.890625 L 45.210938 30.46875 L 45.210938 26.539062 C 45.210938 26.289062 45.40625 26.066406 45.65625 26.066406 C 45.90625 26.066406 46.128906 26.289062 46.128906 26.539062 L 46.128906 30.144531 L 48.195312 29.375 L 48.195312 25.445312 C 48.195312 25.195312 48.417969 24.972656 48.667969 24.972656 C 48.914062 24.972656 49.113281 25.195312 49.113281 25.445312 L 49.113281 29.050781 L 49.910156 28.753906 C 49.960938 28.726562 50.035156 28.726562 50.085938 28.726562 C 50.359375 28.726562 50.582031 28.953125 50.582031 29.226562 L 50.582031 30.71875 C 50.582031 30.917969 50.457031 31.117188 50.257812 31.191406 L 49.113281 31.589844 L 49.113281 35.566406 L 49.910156 35.292969 C 49.960938 35.269531 50.035156 35.269531 50.085938 35.269531 C 50.359375 35.269531 50.582031 35.492188 50.582031 35.765625 L 50.582031 37.257812 C 50.582031 37.457031 50.457031 37.632812 50.257812 37.707031 L 49.113281 38.128906 Z M 46.128906 32.683594 L 46.128906 36.664062 L 48.195312 35.914062 L 48.195312 31.9375 Z M 46.128906 32.683594 "/>
<path style=" stroke:none;fill-rule:nonzero;fill:rgb(0%,0%,0%);fill-opacity:1;" d="M 16.152344 50.09375 L 16.003906 50.09375 C 13.316406 50.09375 11.152344 47.90625 11.152344 45.195312 C 11.152344 43.75 12.46875 42.632812 13.9375 42.632812 C 15.28125 42.632812 16.300781 43.800781 16.300781 45.195312 C 16.300781 46.488281 15.230469 47.554688 13.9375 47.554688 C 13.664062 47.554688 13.414062 47.507812 13.167969 47.40625 C 13.8125 48.378906 14.859375 49.023438 16.078125 49.023438 L 16.175781 49.023438 Z M 21 39.347656 C 22.691406 38.75 23.8125 36.984375 23.8125 35.269531 C 23.8125 33.03125 22.171875 30.816406 19.507812 30.542969 C 20.105469 33.429688 20.652344 36.289062 21 39.347656 Z M 11.375 33.601562 C 11.375 36.960938 14.585938 39.746094 17.941406 39.746094 C 18.640625 39.746094 19.308594 39.695312 19.980469 39.597656 C 19.632812 36.4375 19.0625 33.503906 18.414062 30.542969 C 16.449219 30.742188 15.332031 32.0625 15.332031 33.503906 C 15.332031 34.597656 15.953125 35.765625 17.34375 36.5625 C 17.46875 36.6875 17.519531 36.8125 17.519531 36.9375 C 17.519531 37.210938 17.269531 37.484375 16.972656 37.484375 C 16.898438 37.484375 16.824219 37.457031 16.75 37.433594 C 14.757812 36.363281 13.839844 34.574219 13.839844 32.832031 C 13.839844 30.644531 15.28125 28.503906 17.816406 27.933594 C 17.46875 26.488281 17.097656 25.023438 16.675781 23.578125 C 14.011719 26.589844 11.375 29.625 11.375 33.601562 Z M 17.867188 40.816406 C 13.191406 40.816406 9.585938 36.539062 9.585938 31.511719 C 9.585938 27.109375 12.84375 23.902344 15.753906 20.542969 C 15.28125 19.003906 14.832031 17.4375 14.632812 15.820312 C 14.484375 14.527344 14.460938 13.230469 14.460938 11.9375 C 14.460938 9.078125 15.828125 6.367188 18.167969 4.675781 C 18.316406 4.550781 18.515625 4.550781 18.664062 4.675781 C 20.429688 6.765625 21.972656 10.769531 21.972656 13.582031 C 21.972656 17.136719 19.832031 19.921875 17.496094 22.632812 C 18.015625 24.324219 18.464844 26.066406 18.886719 27.78125 C 18.988281 27.78125 19.113281 27.757812 19.210938 27.757812 C 23.066406 27.757812 25.578125 30.941406 25.578125 34.25 C 25.578125 36.140625 24.757812 38.078125 22.917969 39.472656 C 22.371094 39.894531 21.746094 40.167969 21.101562 40.367188 C 21.175781 41.238281 21.226562 42.109375 21.226562 42.980469 C 21.226562 43.453125 21.199219 43.949219 21.175781 44.421875 C 21 47.382812 18.988281 50.019531 16.152344 50.09375 L 16.175781 49.023438 C 18.488281 48.972656 19.980469 46.734375 20.132812 44.273438 C 20.15625 43.824219 20.179688 43.351562 20.179688 42.90625 C 20.179688 42.132812 20.15625 41.386719 20.082031 40.617188 C 19.359375 40.742188 18.640625 40.816406 17.867188 40.816406 Z M 20.179688 11.515625 C 20.179688 10.148438 20.082031 9.550781 19.683594 8.308594 C 17.222656 9.5 15.652344 12.011719 15.652344 14.75 C 15.652344 16.589844 16.101562 18.058594 16.550781 19.574219 C 18.539062 17.160156 20.179688 14.648438 20.179688 11.515625 Z M 20.179688 11.515625 "/>
<path style=" stroke:none;fill-rule:nonzero;fill:rgb(0%,0%,0%);fill-opacity:1;" d="M 72.476562 15.371094 C 73.84375 15.371094 75.164062 16.066406 75.164062 17.585938 C 75.164062 19.351562 73.796875 20.59375 72.625 21.289062 C 71.753906 21.8125 70.761719 22.136719 69.742188 22.136719 C 68.371094 22.136719 67.054688 21.441406 67.054688 19.921875 C 67.054688 18.15625 68.421875 16.914062 69.589844 16.21875 C 70.460938 15.695312 71.457031 15.371094 72.476562 15.371094 Z M 72.476562 15.371094 "/>
<path style=" stroke:none;fill-rule:nonzero;fill:rgb(0%,0%,0%);fill-opacity:1;" d="M 64.769531 18.480469 C 66.140625 18.480469 67.457031 19.175781 67.457031 20.695312 C 67.457031 22.460938 66.089844 23.703125 64.921875 24.398438 C 64.050781 24.921875 63.054688 25.246094 62.035156 25.246094 C 60.667969 25.246094 59.347656 24.550781 59.347656 23.03125 C 59.347656 21.265625 60.71875 20.023438 61.886719 19.324219 C 62.757812 18.804688 63.75 18.480469 64.769531 18.480469 Z M 64.769531 18.480469 "/>
<path style=" stroke:none;fill-rule:nonzero;fill:rgb(0%,0%,0%);fill-opacity:1;" d="M 72.476562 24.699219 C 73.84375 24.699219 75.164062 25.394531 75.164062 26.910156 C 75.164062 28.679688 73.796875 29.921875 72.625 30.617188 C 71.753906 31.140625 70.761719 31.464844 69.742188 31.464844 C 68.371094 31.464844 67.054688 30.765625 67.054688 29.25 C 67.054688 27.484375 68.421875 26.242188 69.589844 25.542969 C 70.460938 25.023438 71.457031 24.699219 72.476562 24.699219 Z M 72.476562 24.699219 "/>
<path style=" stroke:none;fill-rule:nonzero;fill:rgb(0%,0%,0%);fill-opacity:1;" d="M 72.476562 30.917969 C 73.84375 30.917969 75.164062 31.613281 75.164062 33.128906 C 75.164062 34.894531 73.796875 36.140625 72.625 36.835938 C 71.753906 37.359375 70.761719 37.683594 69.742188 37.683594 C 68.371094 37.683594 67.054688 36.984375 67.054688 35.46875 C 67.054688 33.703125 68.421875 32.457031 69.589844 31.761719 C 70.460938 31.238281 71.457031 30.917969 72.476562 30.917969 Z M 72.476562 30.917969 "/>
</g>
</svg>
