<?xml version="1.0" encoding="UTF-8"?>
<svg xmlns="http://www.w3.org/2000/svg" xmlns:xlink="http://www.w3.org/1999/xlink" width="68.472344pt" height="62.20434pt" viewBox="0 0 68.472344 62.20434" version="1.1">
<g id="surface1">
<path style="fill:none;stroke-width:0.1;stroke-linecap:round;stroke-linejoin:round;stroke:rgb(0%,0%,0%);stroke-opacity:1;stroke-miterlimit:4;" d="M 0.049863 0.000143992 L 8.752337 0.000143992 " transform="matrix(6.218149,0,0,6.218149,4.561038,41.01473)"/>
<path style="fill:none;stroke-width:0.1;stroke-linecap:round;stroke-linejoin:round;stroke:rgb(0%,0%,0%);stroke-opacity:1;stroke-miterlimit:4;" d="M 0.049863 0.000047343 L 8.752337 0.000047343 " transform="matrix(6.218149,0,0,6.218149,4.561038,34.796581)"/>
<path style="fill:none;stroke-width:0.1;stroke-linecap:round;stroke-linejoin:round;stroke:rgb(0%,0%,0%);stroke-opacity:1;stroke-miterlimit:4;" d="M 0.049863 -0.0000493056 L 8.752337 -0.0000493056 " transform="matrix(6.218149,0,0,6.218149,4.561038,28.578432)"/>
<path style="fill:none;stroke-width:0.1;stroke-linecap:round;stroke-linejoin:round;stroke:rgb(0%,0%,0%);stroke-opacity:1;stroke-miterlimit:4;" d="M 0.049863 -0.000145716 L 8.752337 -0.000145716 " transform="matrix(6.218149,0,0,6.218149,4.561038,22.360281)"/>
<path style="fill:none;stroke-width:0.1;stroke-linecap:round;stroke-linejoin:round;stroke:rgb(0%,0%,0%);stroke-opacity:1;stroke-miterlimit:4;" d="M 0.049863 -0.000242364 L 8.752337 -0.000242364 " transform="matrix(6.218149,0,0,6.218149,4.561038,16.142132)"/>
<path style=" stroke:none;fill-rule:nonzero;fill:rgb(0%,0%,0%);fill-opacity:1;" d="M 34.148438 15.121094 L 34.121094 16.765625 L 34.121094 17.039062 C 34.121094 17.585938 34.148438 18.132812 34.222656 18.679688 C 35.339844 17.734375 36.535156 16.6875 36.535156 15.222656 C 36.535156 14.402344 36.1875 13.554688 35.464844 13.554688 C 34.695312 13.554688 34.171875 14.300781 34.148438 15.121094 Z M 33.101562 19.574219 L 32.804688 4.773438 C 33.003906 4.652344 33.25 4.578125 33.476562 4.578125 C 33.699219 4.578125 33.949219 4.652344 34.148438 4.773438 L 33.972656 13.355469 C 34.59375 12.835938 35.414062 12.511719 36.234375 12.511719 C 37.53125 12.511719 38.449219 13.703125 38.449219 15.046875 C 38.449219 17.039062 36.3125 17.957031 34.792969 19.25 C 34.421875 19.574219 34.195312 20.195312 33.675781 20.195312 C 33.351562 20.195312 33.101562 19.921875 33.101562 19.574219 Z M 33.101562 19.574219 "/>
<path style=" stroke:none;fill-rule:nonzero;fill:rgb(0%,0%,0%);fill-opacity:1;" d="M 34.148438 33.777344 L 34.121094 35.417969 L 34.121094 35.691406 C 34.121094 36.238281 34.148438 36.785156 34.222656 37.332031 C 35.339844 36.386719 36.535156 35.34375 36.535156 33.875 C 36.535156 33.054688 36.1875 32.210938 35.464844 32.210938 C 34.695312 32.210938 34.171875 32.957031 34.148438 33.777344 Z M 33.101562 38.230469 L 32.804688 23.429688 C 33.003906 23.304688 33.25 23.230469 33.476562 23.230469 C 33.699219 23.230469 33.949219 23.304688 34.148438 23.429688 L 33.972656 32.011719 C 34.59375 31.488281 35.414062 31.164062 36.234375 31.164062 C 37.53125 31.164062 38.449219 32.359375 38.449219 33.703125 C 38.449219 35.691406 36.3125 36.613281 34.792969 37.90625 C 34.421875 38.230469 34.195312 38.851562 33.675781 38.851562 C 33.351562 38.851562 33.101562 38.578125 33.101562 38.230469 Z M 33.101562 38.230469 "/>
<path style=" stroke:none;fill-rule:nonzero;fill:rgb(0%,0%,0%);fill-opacity:1;" d="M 40.875 17.300781 L 41.1875 17.300781 C 41.324219 17.300781 41.433594 17.410156 41.433594 17.546875 L 41.433594 53.203125 C 41.433594 53.339844 41.324219 53.449219 41.1875 53.449219 L 40.875 53.449219 C 40.738281 53.449219 40.625 53.339844 40.625 53.203125 L 40.625 17.546875 C 40.625 17.410156 40.738281 17.300781 40.875 17.300781 Z M 40.875 17.300781 "/>
<path style=" stroke:none;fill-rule:nonzero;fill:rgb(0%,0%,0%);fill-opacity:1;" d="M 23.390625 25.46875 C 23.390625 24.773438 23.960938 24.199219 24.65625 24.199219 C 25.355469 24.199219 25.925781 24.773438 25.925781 25.46875 C 25.925781 26.164062 25.355469 26.738281 24.65625 26.738281 C 23.960938 26.738281 23.390625 26.164062 23.390625 25.46875 Z M 23.390625 19.25 C 23.390625 18.554688 23.960938 17.984375 24.65625 17.984375 C 25.355469 17.984375 25.925781 18.554688 25.925781 19.25 C 25.925781 19.949219 25.355469 20.519531 24.65625 20.519531 C 23.960938 20.519531 23.390625 19.949219 23.390625 19.25 Z M 15.304688 15.820312 C 19.585938 15.820312 22.59375 18.007812 22.59375 22.0625 C 22.59375 28.601562 16.050781 32.359375 9.757812 35.019531 C 9.683594 35.09375 9.609375 35.121094 9.535156 35.121094 C 9.363281 35.121094 9.210938 34.96875 9.210938 34.796875 C 9.210938 34.722656 9.238281 34.648438 9.3125 34.574219 C 14.335938 31.636719 19.558594 27.980469 19.558594 22.308594 C 19.558594 19.324219 17.992188 16.464844 15.304688 16.464844 C 13.464844 16.464844 12.097656 17.808594 11.476562 19.597656 C 11.75 19.476562 12.023438 19.402344 12.320312 19.402344 C 13.6875 19.402344 14.808594 20.519531 14.808594 21.886719 C 14.808594 23.332031 13.714844 24.523438 12.320312 24.523438 C 10.828125 24.523438 9.535156 23.355469 9.535156 21.886719 C 9.535156 18.578125 12.074219 15.820312 15.304688 15.820312 Z M 15.304688 15.820312 "/>
<path style=" stroke:none;fill-rule:nonzero;fill:rgb(0%,0%,0%);fill-opacity:1;" d="M 46.046875 12.757812 C 47.417969 12.757812 48.734375 13.457031 48.734375 14.972656 C 48.734375 16.738281 47.367188 17.984375 46.199219 18.679688 C 45.328125 19.203125 44.332031 19.523438 43.3125 19.523438 C 41.945312 19.523438 40.625 18.828125 40.625 17.3125 C 40.625 15.546875 41.996094 14.300781 43.164062 13.605469 C 44.035156 13.082031 45.027344 12.757812 46.046875 12.757812 Z M 46.046875 12.757812 "/>
<path style=" stroke:none;fill-rule:nonzero;fill:rgb(0%,0%,0%);fill-opacity:1;" d="M 46.046875 18.976562 C 47.417969 18.976562 48.734375 19.675781 48.734375 21.191406 C 48.734375 22.957031 47.367188 24.199219 46.199219 24.898438 C 45.328125 25.417969 44.332031 25.742188 43.3125 25.742188 C 41.945312 25.742188 40.625 25.046875 40.625 23.527344 C 40.625 21.761719 41.996094 20.519531 43.164062 19.824219 C 44.035156 19.300781 45.027344 18.976562 46.046875 18.976562 Z M 46.046875 18.976562 "/>
<path style=" stroke:none;fill-rule:nonzero;fill:rgb(0%,0%,0%);fill-opacity:1;" d="M 46.046875 25.195312 C 47.417969 25.195312 48.734375 25.890625 48.734375 27.410156 C 48.734375 29.175781 47.367188 30.417969 46.199219 31.117188 C 45.328125 31.636719 44.332031 31.960938 43.3125 31.960938 C 41.945312 31.960938 40.625 31.265625 40.625 29.746094 C 40.625 27.980469 41.996094 26.738281 43.164062 26.042969 C 44.035156 25.519531 45.027344 25.195312 46.046875 25.195312 Z M 46.046875 25.195312 "/>
<path style=" stroke:none;fill-rule:nonzero;fill:rgb(0%,0%,0%);fill-opacity:1;" d="M 46.046875 31.414062 C 47.417969 31.414062 48.734375 32.109375 48.734375 33.628906 C 48.734375 35.394531 47.367188 36.636719 46.199219 37.332031 C 45.328125 37.855469 44.332031 38.179688 43.3125 38.179688 C 41.945312 38.179688 40.625 37.484375 40.625 35.964844 C 40.625 34.199219 41.996094 32.957031 43.164062 32.257812 C 44.035156 31.738281 45.027344 31.414062 46.046875 31.414062 Z M 46.046875 31.414062 "/>
</g>
</svg>
