<?xml version="1.0" encoding="UTF-8"?>
<svg xmlns="http://www.w3.org/2000/svg" xmlns:xlink="http://www.w3.org/1999/xlink" width="69.224853pt" height="54.181078pt" viewBox="0 0 69.224853 54.181078" version="1.1">
<g id="surface1">
<path style="fill:none;stroke-width:0.1;stroke-linecap:round;stroke-linejoin:round;stroke:rgb(0%,0%,0%);stroke-opacity:1;stroke-miterlimit:4;" d="M 0.049863 0.000136391 L 8.865413 0.000136391 " transform="matrix(6.218149,0,0,6.218149,4.561038,35.667121)"/>
<path style="fill:none;stroke-width:0.1;stroke-linecap:round;stroke-linejoin:round;stroke:rgb(0%,0%,0%);stroke-opacity:1;stroke-miterlimit:4;" d="M 0.049863 0.0000397429 L 8.865413 0.0000397429 " transform="matrix(6.218149,0,0,6.218149,4.561038,29.448972)"/>
<path style="fill:none;stroke-width:0.1;stroke-linecap:round;stroke-linejoin:round;stroke:rgb(0%,0%,0%);stroke-opacity:1;stroke-miterlimit:4;" d="M 0.049863 -0.0000569057 L 8.865413 -0.0000569057 " transform="matrix(6.218149,0,0,6.218149,4.561038,23.230823)"/>
<path style="fill:none;stroke-width:0.1;stroke-linecap:round;stroke-linejoin:round;stroke:rgb(0%,0%,0%);stroke-opacity:1;stroke-miterlimit:4;" d="M 0.049863 -0.000153554 L 8.865413 -0.000153554 " transform="matrix(6.218149,0,0,6.218149,4.561038,17.012674)"/>
<path style="fill:none;stroke-width:0.1;stroke-linecap:round;stroke-linejoin:round;stroke:rgb(0%,0%,0%);stroke-opacity:1;stroke-miterlimit:4;" d="M 0.049863 -0.000250203 L 8.865413 -0.000250203 " transform="matrix(6.218149,0,0,6.218149,4.561038,10.794525)"/>
<path style=" stroke:none;fill-rule:nonzero;fill:rgb(0%,0%,0%);fill-opacity:1;" d="M 39.925781 41.261719 L 50.847656 41.261719 C 51.191406 41.261719 51.46875 41.542969 51.46875 41.886719 C 51.46875 42.230469 51.191406 42.507812 50.847656 42.507812 L 39.925781 42.507812 C 39.582031 42.507812 39.304688 42.230469 39.304688 41.886719 C 39.304688 41.542969 39.582031 41.261719 39.925781 41.261719 Z M 39.925781 41.261719 "/>
<path style=" stroke:none;fill-rule:nonzero;fill:rgb(0%,0%,0%);fill-opacity:1;" d="M 34.851562 28.429688 L 34.828125 30.070312 L 34.828125 30.34375 C 34.828125 30.890625 34.851562 31.4375 34.925781 31.984375 C 36.046875 31.039062 37.238281 29.996094 37.238281 28.527344 C 37.238281 27.707031 36.890625 26.863281 36.171875 26.863281 C 35.398438 26.863281 34.878906 27.609375 34.851562 28.429688 Z M 33.808594 32.882812 L 33.507812 18.082031 C 33.707031 17.957031 33.957031 17.882812 34.179688 17.882812 C 34.40625 17.882812 34.652344 17.957031 34.851562 18.082031 L 34.679688 26.664062 C 35.300781 26.140625 36.121094 25.816406 36.941406 25.816406 C 38.234375 25.816406 39.15625 27.011719 39.15625 28.355469 C 39.15625 30.34375 37.015625 31.265625 35.5 32.558594 C 35.125 32.882812 34.902344 33.503906 34.378906 33.503906 C 34.054688 33.503906 33.808594 33.230469 33.808594 32.882812 Z M 33.808594 32.882812 "/>
<path style=" stroke:none;fill-rule:nonzero;fill:rgb(0%,0%,0%);fill-opacity:1;" d="M 31.371094 40.867188 L 31.34375 42.507812 L 31.34375 42.78125 C 31.34375 43.328125 31.371094 43.875 31.445312 44.421875 C 32.5625 43.476562 33.757812 42.433594 33.757812 40.964844 C 33.757812 40.144531 33.410156 39.296875 32.6875 39.296875 C 31.917969 39.296875 31.394531 40.042969 31.371094 40.867188 Z M 30.324219 45.316406 L 30.027344 30.519531 C 30.226562 30.394531 30.472656 30.320312 30.699219 30.320312 C 30.921875 30.320312 31.171875 30.394531 31.371094 30.519531 L 31.195312 39.097656 C 31.816406 38.578125 32.636719 38.253906 33.460938 38.253906 C 34.753906 38.253906 35.671875 39.449219 35.671875 40.789062 C 35.671875 42.78125 33.535156 43.699219 32.015625 44.996094 C 31.644531 45.316406 31.417969 45.941406 30.898438 45.941406 C 30.574219 45.941406 30.324219 45.664062 30.324219 45.316406 Z M 30.324219 45.316406 "/>
<path style=" stroke:none;fill-rule:nonzero;fill:rgb(0%,0%,0%);fill-opacity:1;" d="M 48.882812 4.578125 L 49.191406 4.578125 C 49.328125 4.578125 49.441406 4.6875 49.441406 4.824219 L 49.441406 40.480469 C 49.441406 40.617188 49.328125 40.726562 49.191406 40.726562 L 48.882812 40.726562 C 48.746094 40.726562 48.632812 40.617188 48.632812 40.480469 L 48.632812 4.824219 C 48.632812 4.6875 48.746094 4.578125 48.882812 4.578125 Z M 48.882812 4.578125 "/>
<path style=" stroke:none;fill-rule:nonzero;fill:rgb(0%,0%,0%);fill-opacity:1;" d="M 23.390625 20.121094 C 23.390625 19.425781 23.960938 18.851562 24.65625 18.851562 C 25.355469 18.851562 25.925781 19.425781 25.925781 20.121094 C 25.925781 20.816406 25.355469 21.390625 24.65625 21.390625 C 23.960938 21.390625 23.390625 20.816406 23.390625 20.121094 Z M 23.390625 13.902344 C 23.390625 13.207031 23.960938 12.636719 24.65625 12.636719 C 25.355469 12.636719 25.925781 13.207031 25.925781 13.902344 C 25.925781 14.601562 25.355469 15.171875 24.65625 15.171875 C 23.960938 15.171875 23.390625 14.601562 23.390625 13.902344 Z M 15.304688 10.472656 C 19.585938 10.472656 22.59375 12.660156 22.59375 16.714844 C 22.59375 23.253906 16.050781 27.011719 9.757812 29.671875 C 9.683594 29.746094 9.609375 29.773438 9.535156 29.773438 C 9.363281 29.773438 9.210938 29.625 9.210938 29.449219 C 9.210938 29.375 9.238281 29.300781 9.3125 29.226562 C 14.335938 26.289062 19.558594 22.632812 19.558594 16.964844 C 19.558594 13.976562 17.992188 11.117188 15.304688 11.117188 C 13.464844 11.117188 12.097656 12.460938 11.476562 14.25 C 11.75 14.128906 12.023438 14.054688 12.320312 14.054688 C 13.6875 14.054688 14.808594 15.171875 14.808594 16.539062 C 14.808594 17.984375 13.714844 19.175781 12.320312 19.175781 C 10.828125 19.175781 9.535156 18.007812 9.535156 16.539062 C 9.535156 13.230469 12.074219 10.472656 15.304688 10.472656 Z M 15.304688 10.472656 "/>
<path style=" stroke:none;fill-rule:nonzero;fill:rgb(0%,0%,0%);fill-opacity:1;" d="M 54.460938 22.957031 C 55.828125 22.957031 57.144531 23.652344 57.144531 25.171875 C 57.144531 26.9375 55.777344 28.179688 54.609375 28.875 C 53.738281 29.398438 52.742188 29.722656 51.722656 29.722656 C 50.355469 29.722656 49.035156 29.027344 49.035156 27.507812 C 49.035156 25.742188 50.40625 24.5 51.574219 23.804688 C 52.445312 23.28125 53.4375 22.957031 54.460938 22.957031 Z M 54.460938 22.957031 "/>
<path style=" stroke:none;fill-rule:nonzero;fill:rgb(0%,0%,0%);fill-opacity:1;" d="M 46.753906 26.066406 C 48.121094 26.066406 49.441406 26.761719 49.441406 28.28125 C 49.441406 30.046875 48.070312 31.289062 46.902344 31.984375 C 46.03125 32.507812 45.039062 32.832031 44.019531 32.832031 C 42.648438 32.832031 41.332031 32.136719 41.332031 30.617188 C 41.332031 28.851562 42.699219 27.609375 43.867188 26.910156 C 44.738281 26.390625 45.734375 26.066406 46.753906 26.066406 Z M 46.753906 26.066406 "/>
<path style=" stroke:none;fill-rule:nonzero;fill:rgb(0%,0%,0%);fill-opacity:1;" d="M 46.753906 32.285156 C 48.121094 32.285156 49.441406 32.980469 49.441406 34.5 C 49.441406 36.265625 48.070312 37.507812 46.902344 38.203125 C 46.03125 38.726562 45.039062 39.050781 44.019531 39.050781 C 42.648438 39.050781 41.332031 38.351562 41.332031 36.835938 C 41.332031 35.070312 42.699219 33.828125 43.867188 33.128906 C 44.738281 32.609375 45.734375 32.285156 46.753906 32.285156 Z M 46.753906 32.285156 "/>
<path style=" stroke:none;fill-rule:nonzero;fill:rgb(0%,0%,0%);fill-opacity:1;" d="M 46.753906 38.503906 C 48.121094 38.503906 49.441406 39.199219 49.441406 40.714844 C 49.441406 42.480469 48.070312 43.726562 46.902344 44.421875 C 46.03125 44.945312 45.039062 45.269531 44.019531 45.269531 C 42.648438 45.269531 41.332031 44.570312 41.332031 43.054688 C 41.332031 41.289062 42.699219 40.042969 43.867188 39.347656 C 44.738281 38.824219 45.734375 38.503906 46.753906 38.503906 Z M 46.753906 38.503906 "/>
</g>
</svg>
