<?xml version="1.0" encoding="UTF-8"?>
<svg xmlns="http://www.w3.org/2000/svg" xmlns:xlink="http://www.w3.org/1999/xlink" width="88.470722pt" height="60.078972pt" viewBox="0 0 88.470722 60.078972" version="1.1">
<g id="surface1">
<path style="fill:none;stroke-width:0.1;stroke-linecap:round;stroke-linejoin:round;stroke:rgb(0%,0%,0%);stroke-opacity:1;stroke-miterlimit:4;" d="M 0.049863 0.00023304 L 11.763307 0.00023304 " transform="matrix(6.218149,0,0,6.218149,4.561038,41.88527)"/>
<path style="fill:none;stroke-width:0.1;stroke-linecap:round;stroke-linejoin:round;stroke:rgb(0%,0%,0%);stroke-opacity:1;stroke-miterlimit:4;" d="M 0.049863 0.000136391 L 11.763307 0.000136391 " transform="matrix(6.218149,0,0,6.218149,4.561038,35.667121)"/>
<path style="fill:none;stroke-width:0.1;stroke-linecap:round;stroke-linejoin:round;stroke:rgb(0%,0%,0%);stroke-opacity:1;stroke-miterlimit:4;" d="M 0.049863 0.0000397429 L 11.763307 0.0000397429 " transform="matrix(6.218149,0,0,6.218149,4.561038,29.448972)"/>
<path style="fill:none;stroke-width:0.1;stroke-linecap:round;stroke-linejoin:round;stroke:rgb(0%,0%,0%);stroke-opacity:1;stroke-miterlimit:4;" d="M 0.049863 -0.0000569057 L 11.763307 -0.0000569057 " transform="matrix(6.218149,0,0,6.218149,4.561038,23.230823)"/>
<path style="fill:none;stroke-width:0.1;stroke-linecap:round;stroke-linejoin:round;stroke:rgb(0%,0%,0%);stroke-opacity:1;stroke-miterlimit:4;" d="M 0.049863 -0.000153554 L 11.763307 -0.000153554 " transform="matrix(6.218149,0,0,6.218149,4.561038,17.012674)"/>
<path style=" stroke:none;fill-rule:nonzero;fill:rgb(0%,0%,0%);fill-opacity:1;" d="M 66.898438 4.578125 L 67.210938 4.578125 C 67.347656 4.578125 67.457031 4.6875 67.457031 4.824219 L 67.457031 37.371094 C 67.457031 37.507812 67.347656 37.617188 67.210938 37.617188 L 66.898438 37.617188 C 66.761719 37.617188 66.652344 37.507812 66.652344 37.371094 L 66.652344 4.824219 C 66.652344 4.6875 66.761719 4.578125 66.898438 4.578125 Z M 66.898438 4.578125 "/>
<path style=" stroke:none;fill-rule:nonzero;fill:rgb(0%,0%,0%);fill-opacity:1;" d="M 55.707031 30.992188 C 55.707031 31.238281 55.507812 31.464844 55.257812 31.464844 C 55.007812 31.464844 54.785156 31.238281 54.785156 30.992188 L 54.785156 27.382812 L 52.71875 28.15625 L 52.71875 32.085938 C 52.71875 32.335938 52.496094 32.558594 52.246094 32.558594 C 52 32.558594 51.800781 32.335938 51.800781 32.085938 L 51.800781 28.480469 L 51.003906 28.777344 C 50.953125 28.800781 50.878906 28.800781 50.832031 28.800781 C 50.558594 28.800781 50.332031 28.578125 50.332031 28.304688 L 50.332031 26.8125 C 50.332031 26.613281 50.457031 26.414062 50.65625 26.339844 L 51.800781 25.941406 L 51.800781 21.960938 L 51.003906 22.234375 C 50.953125 22.261719 50.878906 22.261719 50.832031 22.261719 C 50.558594 22.261719 50.332031 22.035156 50.332031 21.761719 L 50.332031 20.269531 C 50.332031 20.070312 50.457031 19.898438 50.65625 19.824219 L 51.800781 19.402344 L 51.800781 15.46875 C 51.800781 15.222656 52 14.996094 52.246094 14.996094 C 52.496094 14.996094 52.71875 15.222656 52.71875 15.46875 L 52.71875 19.078125 L 54.785156 18.304688 L 54.785156 14.375 C 54.785156 14.128906 55.007812 13.902344 55.257812 13.902344 C 55.507812 13.902344 55.707031 14.128906 55.707031 14.375 L 55.707031 17.984375 L 56.5 17.683594 C 56.550781 17.660156 56.625 17.660156 56.675781 17.660156 C 56.949219 17.660156 57.171875 17.882812 57.171875 18.15625 L 57.171875 19.648438 C 57.171875 19.847656 57.046875 20.046875 56.847656 20.121094 L 55.707031 20.519531 L 55.707031 24.5 L 56.5 24.226562 C 56.550781 24.199219 56.625 24.199219 56.675781 24.199219 C 56.949219 24.199219 57.171875 24.425781 57.171875 24.699219 L 57.171875 26.191406 C 57.171875 26.390625 57.046875 26.5625 56.847656 26.636719 L 55.707031 27.0625 Z M 52.71875 21.613281 L 52.71875 25.59375 L 54.785156 24.847656 L 54.785156 20.867188 Z M 52.71875 21.613281 "/>
<path style=" stroke:none;fill-rule:nonzero;fill:rgb(0%,0%,0%);fill-opacity:1;" d="M 42.671875 34.101562 C 42.671875 34.347656 42.472656 34.574219 42.222656 34.574219 C 41.976562 34.574219 41.75 34.347656 41.75 34.101562 L 41.75 30.492188 L 39.6875 31.265625 L 39.6875 35.195312 C 39.6875 35.441406 39.464844 35.667969 39.214844 35.667969 C 38.964844 35.667969 38.765625 35.441406 38.765625 35.195312 L 38.765625 31.589844 L 37.972656 31.886719 C 37.921875 31.910156 37.847656 31.910156 37.796875 31.910156 C 37.523438 31.910156 37.300781 31.6875 37.300781 31.414062 L 37.300781 29.921875 C 37.300781 29.722656 37.425781 29.523438 37.621094 29.449219 L 38.765625 29.050781 L 38.765625 25.070312 L 37.972656 25.34375 C 37.921875 25.371094 37.847656 25.371094 37.796875 25.371094 C 37.523438 25.371094 37.300781 25.144531 37.300781 24.871094 L 37.300781 23.378906 C 37.300781 23.179688 37.425781 23.007812 37.621094 22.933594 L 38.765625 22.507812 L 38.765625 18.578125 C 38.765625 18.332031 38.964844 18.105469 39.214844 18.105469 C 39.464844 18.105469 39.6875 18.332031 39.6875 18.578125 L 39.6875 22.1875 L 41.75 21.414062 L 41.75 17.484375 C 41.75 17.238281 41.976562 17.011719 42.222656 17.011719 C 42.472656 17.011719 42.671875 17.238281 42.671875 17.484375 L 42.671875 21.089844 L 43.46875 20.792969 C 43.519531 20.769531 43.59375 20.769531 43.640625 20.769531 C 43.914062 20.769531 44.140625 20.992188 44.140625 21.265625 L 44.140625 22.757812 C 44.140625 22.957031 44.015625 23.15625 43.816406 23.230469 L 42.671875 23.628906 L 42.671875 27.609375 L 43.46875 27.335938 C 43.519531 27.308594 43.59375 27.308594 43.640625 27.308594 C 43.914062 27.308594 44.140625 27.535156 44.140625 27.808594 L 44.140625 29.300781 C 44.140625 29.5 44.015625 29.671875 43.816406 29.746094 L 42.671875 30.171875 Z M 39.6875 24.722656 L 39.6875 28.703125 L 41.75 27.957031 L 41.75 23.976562 Z M 39.6875 24.722656 "/>
<path style=" stroke:none;fill-rule:nonzero;fill:rgb(0%,0%,0%);fill-opacity:1;" d="M 34.589844 40.316406 C 34.589844 40.566406 34.390625 40.789062 34.140625 40.789062 C 33.890625 40.789062 33.667969 40.566406 33.667969 40.316406 L 33.667969 36.710938 L 31.605469 37.484375 L 31.605469 41.414062 C 31.605469 41.660156 31.378906 41.886719 31.132812 41.886719 C 30.882812 41.886719 30.683594 41.660156 30.683594 41.414062 L 30.683594 37.804688 L 29.886719 38.105469 C 29.835938 38.128906 29.761719 38.128906 29.714844 38.128906 C 29.441406 38.128906 29.214844 37.90625 29.214844 37.632812 L 29.214844 36.140625 C 29.214844 35.941406 29.339844 35.742188 29.539062 35.667969 L 30.683594 35.269531 L 30.683594 31.289062 L 29.886719 31.5625 C 29.835938 31.589844 29.761719 31.589844 29.714844 31.589844 C 29.441406 31.589844 29.214844 31.363281 29.214844 31.089844 L 29.214844 29.597656 C 29.214844 29.398438 29.339844 29.226562 29.539062 29.152344 L 30.683594 28.726562 L 30.683594 24.796875 C 30.683594 24.550781 30.882812 24.324219 31.132812 24.324219 C 31.378906 24.324219 31.605469 24.550781 31.605469 24.796875 L 31.605469 28.40625 L 33.667969 27.632812 L 33.667969 23.703125 C 33.667969 23.453125 33.890625 23.230469 34.140625 23.230469 C 34.390625 23.230469 34.589844 23.453125 34.589844 23.703125 L 34.589844 27.308594 L 35.382812 27.011719 C 35.433594 26.988281 35.507812 26.988281 35.558594 26.988281 C 35.832031 26.988281 36.054688 27.210938 36.054688 27.484375 L 36.054688 28.976562 C 36.054688 29.175781 35.929688 29.375 35.734375 29.449219 L 34.589844 29.847656 L 34.589844 33.828125 L 35.382812 33.554688 C 35.433594 33.527344 35.507812 33.527344 35.558594 33.527344 C 35.832031 33.527344 36.054688 33.75 36.054688 34.027344 L 36.054688 35.519531 C 36.054688 35.71875 35.929688 35.890625 35.734375 35.964844 L 34.589844 36.386719 Z M 31.605469 30.941406 L 31.605469 34.921875 L 33.667969 34.175781 L 33.667969 30.195312 Z M 31.605469 30.941406 "/>
<path style=" stroke:none;fill-rule:nonzero;fill:rgb(0%,0%,0%);fill-opacity:1;" d="M 49.113281 46.535156 C 49.113281 46.785156 48.914062 47.007812 48.667969 47.007812 C 48.417969 47.007812 48.195312 46.785156 48.195312 46.535156 L 48.195312 42.929688 L 46.128906 43.699219 L 46.128906 47.628906 C 46.128906 47.878906 45.90625 48.101562 45.65625 48.101562 C 45.40625 48.101562 45.210938 47.878906 45.210938 47.628906 L 45.210938 44.023438 L 44.414062 44.324219 C 44.363281 44.347656 44.289062 44.347656 44.238281 44.347656 C 43.964844 44.347656 43.742188 44.125 43.742188 43.851562 L 43.742188 42.359375 C 43.742188 42.160156 43.867188 41.960938 44.066406 41.886719 L 45.210938 41.488281 L 45.210938 37.507812 L 44.414062 37.78125 C 44.363281 37.804688 44.289062 37.804688 44.238281 37.804688 C 43.964844 37.804688 43.742188 37.582031 43.742188 37.308594 L 43.742188 35.816406 C 43.742188 35.617188 43.867188 35.441406 44.066406 35.367188 L 45.210938 34.945312 L 45.210938 31.015625 C 45.210938 30.765625 45.40625 30.542969 45.65625 30.542969 C 45.90625 30.542969 46.128906 30.765625 46.128906 31.015625 L 46.128906 34.621094 L 48.195312 33.851562 L 48.195312 29.921875 C 48.195312 29.671875 48.417969 29.449219 48.667969 29.449219 C 48.914062 29.449219 49.113281 29.671875 49.113281 29.921875 L 49.113281 33.527344 L 49.910156 33.230469 C 49.960938 33.203125 50.035156 33.203125 50.085938 33.203125 C 50.359375 33.203125 50.582031 33.429688 50.582031 33.703125 L 50.582031 35.195312 C 50.582031 35.394531 50.457031 35.59375 50.257812 35.667969 L 49.113281 36.066406 L 49.113281 40.042969 L 49.910156 39.769531 C 49.960938 39.746094 50.035156 39.746094 50.085938 39.746094 C 50.359375 39.746094 50.582031 39.96875 50.582031 40.242188 L 50.582031 41.734375 C 50.582031 41.933594 50.457031 42.109375 50.257812 42.183594 L 49.113281 42.605469 Z M 46.128906 37.160156 L 46.128906 41.140625 L 48.195312 40.394531 L 48.195312 36.414062 Z M 46.128906 37.160156 "/>
<path style=" stroke:none;fill-rule:nonzero;fill:rgb(0%,0%,0%);fill-opacity:1;" d="M 16.152344 51.460938 L 16.003906 51.460938 C 13.316406 51.460938 11.152344 49.273438 11.152344 46.5625 C 11.152344 45.117188 12.46875 44 13.9375 44 C 15.28125 44 16.300781 45.167969 16.300781 46.5625 C 16.300781 47.855469 15.230469 48.925781 13.9375 48.925781 C 13.664062 48.925781 13.414062 48.875 13.167969 48.773438 C 13.8125 49.746094 14.859375 50.390625 16.078125 50.390625 L 16.175781 50.390625 Z M 21 40.714844 C 22.691406 40.121094 23.8125 38.351562 23.8125 36.636719 C 23.8125 34.398438 22.171875 32.183594 19.507812 31.910156 C 20.105469 34.796875 20.652344 37.65625 21 40.714844 Z M 11.375 34.96875 C 11.375 38.328125 14.585938 41.113281 17.941406 41.113281 C 18.640625 41.113281 19.308594 41.066406 19.980469 40.964844 C 19.632812 37.804688 19.0625 34.871094 18.414062 31.910156 C 16.449219 32.109375 15.332031 33.429688 15.332031 34.871094 C 15.332031 35.964844 15.953125 37.132812 17.34375 37.929688 C 17.46875 38.054688 17.519531 38.179688 17.519531 38.304688 C 17.519531 38.578125 17.269531 38.851562 16.972656 38.851562 C 16.898438 38.851562 16.824219 38.824219 16.75 38.800781 C 14.757812 37.730469 13.839844 35.941406 13.839844 34.199219 C 13.839844 32.011719 15.28125 29.871094 17.816406 29.300781 C 17.46875 27.855469 17.097656 26.390625 16.675781 24.945312 C 14.011719 27.957031 11.375 30.992188 11.375 34.96875 Z M 17.867188 42.183594 C 13.191406 42.183594 9.585938 37.90625 9.585938 32.882812 C 9.585938 28.480469 12.84375 25.269531 15.753906 21.914062 C 15.28125 20.371094 14.832031 18.804688 14.632812 17.1875 C 14.484375 15.894531 14.460938 14.601562 14.460938 13.308594 C 14.460938 10.445312 15.828125 7.734375 18.167969 6.042969 C 18.316406 5.917969 18.515625 5.917969 18.664062 6.042969 C 20.429688 8.132812 21.972656 12.136719 21.972656 14.949219 C 21.972656 18.503906 19.832031 21.289062 17.496094 24 C 18.015625 25.691406 18.464844 27.433594 18.886719 29.152344 C 18.988281 29.152344 19.113281 29.125 19.210938 29.125 C 23.066406 29.125 25.578125 32.308594 25.578125 35.617188 C 25.578125 37.507812 24.757812 39.449219 22.917969 40.839844 C 22.371094 41.261719 21.746094 41.535156 21.101562 41.734375 C 21.175781 42.605469 21.226562 43.476562 21.226562 44.347656 C 21.226562 44.820312 21.199219 45.316406 21.175781 45.789062 C 21 48.75 18.988281 51.386719 16.152344 51.460938 L 16.175781 50.390625 C 18.488281 50.34375 19.980469 48.101562 20.132812 45.640625 C 20.15625 45.191406 20.179688 44.722656 20.179688 44.273438 C 20.179688 43.503906 20.15625 42.753906 20.082031 41.984375 C 19.359375 42.109375 18.640625 42.183594 17.867188 42.183594 Z M 20.179688 12.882812 C 20.179688 11.515625 20.082031 10.917969 19.683594 9.675781 C 17.222656 10.871094 15.652344 13.382812 15.652344 16.117188 C 15.652344 17.957031 16.101562 19.425781 16.550781 20.941406 C 18.539062 18.53125 20.179688 16.019531 20.179688 12.882812 Z M 20.179688 12.882812 "/>
<path style=" stroke:none;fill-rule:nonzero;fill:rgb(0%,0%,0%);fill-opacity:1;" d="M 72.476562 19.847656 C 73.84375 19.847656 75.164062 20.542969 75.164062 22.0625 C 75.164062 23.828125 73.796875 25.070312 72.625 25.769531 C 71.753906 26.289062 70.761719 26.613281 69.742188 26.613281 C 68.371094 26.613281 67.054688 25.917969 67.054688 24.398438 C 67.054688 22.632812 68.421875 21.390625 69.589844 20.695312 C 70.460938 20.171875 71.457031 19.847656 72.476562 19.847656 Z M 72.476562 19.847656 "/>
<path style=" stroke:none;fill-rule:nonzero;fill:rgb(0%,0%,0%);fill-opacity:1;" d="M 64.769531 22.957031 C 66.140625 22.957031 67.457031 23.652344 67.457031 25.171875 C 67.457031 26.9375 66.089844 28.179688 64.921875 28.875 C 64.050781 29.398438 63.054688 29.722656 62.035156 29.722656 C 60.667969 29.722656 59.347656 29.027344 59.347656 27.507812 C 59.347656 25.742188 60.71875 24.5 61.886719 23.804688 C 62.757812 23.28125 63.75 22.957031 64.769531 22.957031 Z M 64.769531 22.957031 "/>
<path style=" stroke:none;fill-rule:nonzero;fill:rgb(0%,0%,0%);fill-opacity:1;" d="M 64.769531 29.175781 C 66.140625 29.175781 67.457031 29.871094 67.457031 31.390625 C 67.457031 33.15625 66.089844 34.398438 64.921875 35.09375 C 64.050781 35.617188 63.054688 35.941406 62.035156 35.941406 C 60.667969 35.941406 59.347656 35.246094 59.347656 33.726562 C 59.347656 31.960938 60.71875 30.71875 61.886719 30.019531 C 62.757812 29.5 63.75 29.175781 64.769531 29.175781 Z M 64.769531 29.175781 "/>
<path style=" stroke:none;fill-rule:nonzero;fill:rgb(0%,0%,0%);fill-opacity:1;" d="M 64.769531 35.394531 C 66.140625 35.394531 67.457031 36.089844 67.457031 37.605469 C 67.457031 39.375 66.089844 40.617188 64.921875 41.3125 C 64.050781 41.835938 63.054688 42.160156 62.035156 42.160156 C 60.667969 42.160156 59.347656 41.460938 59.347656 39.945312 C 59.347656 38.179688 60.71875 36.9375 61.886719 36.238281 C 62.757812 35.71875 63.75 35.394531 64.769531 35.394531 Z M 64.769531 35.394531 "/>
</g>
</svg>
