<?xml version="1.0" encoding="UTF-8"?>
<svg xmlns="http://www.w3.org/2000/svg" xmlns:xlink="http://www.w3.org/1999/xlink" width="80.102086pt" height="62.470011pt" viewBox="0 0 80.102086 62.470011" version="1.1">
<g id="surface1">
<path style="fill:none;stroke-width:0.1;stroke-linecap:round;stroke-linejoin:round;stroke:rgb(0%,0%,0%);stroke-opacity:1;stroke-miterlimit:4;" d="M 0.049863 0.000192316 L 10.503135 0.000192316 " transform="matrix(6.218149,0,0,6.218149,4.561038,44.123804)"/>
<path style="fill:none;stroke-width:0.1;stroke-linecap:round;stroke-linejoin:round;stroke:rgb(0%,0%,0%);stroke-opacity:1;stroke-miterlimit:4;" d="M 0.049863 0.0000956673 L 10.503135 0.0000956673 " transform="matrix(6.218149,0,0,6.218149,4.561038,37.905655)"/>
<path style="fill:none;stroke-width:0.1;stroke-linecap:round;stroke-linejoin:round;stroke:rgb(0%,0%,0%);stroke-opacity:1;stroke-miterlimit:4;" d="M 0.049863 -0.000000981293 L 10.503135 -0.000000981293 " transform="matrix(6.218149,0,0,6.218149,4.561038,31.687506)"/>
<path style="fill:none;stroke-width:0.1;stroke-linecap:round;stroke-linejoin:round;stroke:rgb(0%,0%,0%);stroke-opacity:1;stroke-miterlimit:4;" d="M 0.049863 -0.0000976299 L 10.503135 -0.0000976299 " transform="matrix(6.218149,0,0,6.218149,4.561038,25.469357)"/>
<path style="fill:none;stroke-width:0.1;stroke-linecap:round;stroke-linejoin:round;stroke:rgb(0%,0%,0%);stroke-opacity:1;stroke-miterlimit:4;" d="M 0.049863 -0.00019404 L 10.503135 -0.00019404 " transform="matrix(6.218149,0,0,6.218149,4.561038,19.251207)"/>
<path style=" stroke:none;fill-rule:nonzero;fill:rgb(0%,0%,0%);fill-opacity:1;" d="M 51.761719 17.300781 L 52.074219 17.300781 C 52.210938 17.300781 52.324219 17.410156 52.324219 17.546875 L 52.324219 50.09375 C 52.324219 50.230469 52.210938 50.34375 52.074219 50.34375 L 51.761719 50.34375 C 51.625 50.34375 51.515625 50.230469 51.515625 50.09375 L 51.515625 17.546875 C 51.515625 17.410156 51.625 17.300781 51.761719 17.300781 Z M 51.761719 17.300781 "/>
<path style=" stroke:none;fill-rule:nonzero;fill:rgb(0%,0%,0%);fill-opacity:1;" d="M 45.035156 15.121094 L 45.011719 16.765625 L 45.011719 17.039062 C 45.011719 17.585938 45.035156 18.132812 45.109375 18.679688 C 46.230469 17.734375 47.421875 16.6875 47.421875 15.222656 C 47.421875 14.402344 47.074219 13.554688 46.351562 13.554688 C 45.582031 13.554688 45.058594 14.300781 45.035156 15.121094 Z M 43.992188 19.574219 L 43.691406 4.773438 C 43.890625 4.652344 44.140625 4.578125 44.363281 4.578125 C 44.585938 4.578125 44.835938 4.652344 45.035156 4.773438 L 44.859375 13.355469 C 45.484375 12.835938 46.304688 12.511719 47.125 12.511719 C 48.417969 12.511719 49.339844 13.703125 49.339844 15.046875 C 49.339844 17.039062 47.199219 17.957031 45.683594 19.25 C 45.308594 19.574219 45.085938 20.195312 44.5625 20.195312 C 44.238281 20.195312 43.992188 19.921875 43.992188 19.574219 Z M 43.992188 19.574219 "/>
<path style=" stroke:none;fill-rule:nonzero;fill:rgb(0%,0%,0%);fill-opacity:1;" d="M 34.6875 21.339844 L 34.664062 22.980469 C 34.664062 23.082031 34.636719 23.15625 34.636719 23.253906 C 34.636719 23.804688 34.664062 24.351562 34.738281 24.898438 C 35.832031 23.976562 36.902344 22.859375 36.902344 21.441406 C 36.902344 20.621094 36.628906 19.773438 35.90625 19.773438 C 35.160156 19.773438 34.710938 20.519531 34.6875 21.339844 Z M 34.664062 10.992188 L 34.515625 19.574219 C 35.109375 19.050781 35.882812 18.730469 36.679688 18.730469 C 37.996094 18.730469 38.964844 19.898438 38.964844 21.242188 C 38.964844 23.230469 36.828125 24.175781 35.308594 25.46875 C 34.9375 25.792969 34.738281 26.414062 34.214844 26.414062 C 33.890625 26.414062 33.617188 26.140625 33.617188 25.792969 L 33.570312 23.15625 C 32.898438 24 31.925781 24.699219 31.132812 25.46875 C 30.808594 25.792969 30.660156 26.414062 30.160156 26.414062 C 29.835938 26.414062 29.589844 26.117188 29.589844 25.769531 L 29.289062 10.992188 C 29.488281 10.871094 29.738281 10.792969 29.960938 10.792969 C 30.1875 10.792969 30.433594 10.871094 30.632812 10.992188 L 30.460938 19.574219 C 30.882812 19.050781 31.527344 18.730469 32.199219 18.730469 C 32.699219 18.730469 33.144531 18.929688 33.492188 19.25 L 33.320312 10.992188 C 33.519531 10.871094 33.769531 10.792969 33.992188 10.792969 C 34.214844 10.792969 34.464844 10.871094 34.664062 10.992188 Z M 30.386719 23.007812 L 30.386719 23.253906 C 30.386719 23.828125 30.410156 24.375 30.484375 24.945312 C 31.453125 24 32.25 22.808594 32.25 21.441406 C 32.25 20.644531 32.101562 19.773438 31.429688 19.773438 C 30.757812 19.773438 30.460938 20.542969 30.433594 21.316406 Z M 30.386719 23.007812 "/>
<path style=" stroke:none;fill-rule:nonzero;fill:rgb(0%,0%,0%);fill-opacity:1;" d="M 41.554688 27.558594 L 41.527344 29.199219 L 41.527344 29.472656 C 41.527344 30.019531 41.554688 30.566406 41.628906 31.117188 C 42.746094 30.171875 43.941406 29.125 43.941406 27.65625 C 43.941406 26.835938 43.59375 25.992188 42.871094 25.992188 C 42.101562 25.992188 41.578125 26.738281 41.554688 27.558594 Z M 40.507812 32.011719 L 40.210938 17.210938 C 40.410156 17.085938 40.65625 17.011719 40.882812 17.011719 C 41.105469 17.011719 41.355469 17.085938 41.554688 17.210938 L 41.378906 25.792969 C 42 25.269531 42.820312 24.945312 43.640625 24.945312 C 44.933594 24.945312 45.855469 26.140625 45.855469 27.484375 C 45.855469 29.472656 43.714844 30.394531 42.199219 31.6875 C 41.828125 32.011719 41.601562 32.632812 41.082031 32.632812 C 40.757812 32.632812 40.507812 32.359375 40.507812 32.011719 Z M 40.507812 32.011719 "/>
<path style=" stroke:none;fill-rule:nonzero;fill:rgb(0%,0%,0%);fill-opacity:1;" d="M 16.152344 53.699219 L 16.003906 53.699219 C 13.316406 53.699219 11.152344 51.511719 11.152344 48.800781 C 11.152344 47.355469 12.46875 46.238281 13.9375 46.238281 C 15.28125 46.238281 16.300781 47.40625 16.300781 48.800781 C 16.300781 50.09375 15.230469 51.164062 13.9375 51.164062 C 13.664062 51.164062 13.414062 51.113281 13.167969 51.011719 C 13.8125 51.984375 14.859375 52.628906 16.078125 52.628906 L 16.175781 52.628906 Z M 21 42.953125 C 22.691406 42.359375 23.8125 40.59375 23.8125 38.875 C 23.8125 36.636719 22.171875 34.421875 19.507812 34.148438 C 20.105469 37.035156 20.652344 39.894531 21 42.953125 Z M 11.375 37.210938 C 11.375 40.566406 14.585938 43.351562 17.941406 43.351562 C 18.640625 43.351562 19.308594 43.304688 19.980469 43.203125 C 19.632812 40.042969 19.0625 37.109375 18.414062 34.148438 C 16.449219 34.347656 15.332031 35.667969 15.332031 37.109375 C 15.332031 38.203125 15.953125 39.375 17.34375 40.167969 C 17.46875 40.292969 17.519531 40.417969 17.519531 40.542969 C 17.519531 40.816406 17.269531 41.089844 16.972656 41.089844 C 16.898438 41.089844 16.824219 41.066406 16.75 41.039062 C 14.757812 39.96875 13.839844 38.179688 13.839844 36.4375 C 13.839844 34.25 15.28125 32.109375 17.816406 31.539062 C 17.46875 30.09375 17.097656 28.628906 16.675781 27.1875 C 14.011719 30.195312 11.375 33.230469 11.375 37.210938 Z M 17.867188 44.421875 C 13.191406 44.421875 9.585938 40.144531 9.585938 35.121094 C 9.585938 30.71875 12.84375 27.507812 15.753906 24.152344 C 15.28125 22.609375 14.832031 21.042969 14.632812 19.425781 C 14.484375 18.132812 14.460938 16.839844 14.460938 15.546875 C 14.460938 12.683594 15.828125 9.972656 18.167969 8.28125 C 18.316406 8.15625 18.515625 8.15625 18.664062 8.28125 C 20.429688 10.371094 21.972656 14.375 21.972656 17.1875 C 21.972656 20.742188 19.832031 23.527344 17.496094 26.242188 C 18.015625 27.933594 18.464844 29.671875 18.886719 31.390625 C 18.988281 31.390625 19.113281 31.363281 19.210938 31.363281 C 23.066406 31.363281 25.578125 34.546875 25.578125 37.855469 C 25.578125 39.746094 24.757812 41.6875 22.917969 43.078125 C 22.371094 43.503906 21.746094 43.777344 21.101562 43.972656 C 21.175781 44.84375 21.226562 45.714844 21.226562 46.585938 C 21.226562 47.058594 21.199219 47.554688 21.175781 48.027344 C 21 50.988281 18.988281 53.625 16.152344 53.699219 L 16.175781 52.628906 C 18.488281 52.582031 19.980469 50.34375 20.132812 47.878906 C 20.15625 47.433594 20.179688 46.960938 20.179688 46.511719 C 20.179688 45.742188 20.15625 44.996094 20.082031 44.222656 C 19.359375 44.347656 18.640625 44.421875 17.867188 44.421875 Z M 20.179688 15.121094 C 20.179688 13.753906 20.082031 13.15625 19.683594 11.914062 C 17.222656 13.109375 15.652344 15.621094 15.652344 18.355469 C 15.652344 20.195312 16.101562 21.664062 16.550781 23.179688 C 18.539062 20.769531 20.179688 18.257812 20.179688 15.121094 Z M 20.179688 15.121094 "/>
<path style=" stroke:none;fill-rule:nonzero;fill:rgb(0%,0%,0%);fill-opacity:1;" d="M 56.9375 12.757812 C 58.304688 12.757812 59.621094 13.457031 59.621094 14.972656 C 59.621094 16.738281 58.253906 17.984375 57.085938 18.679688 C 56.214844 19.203125 55.21875 19.523438 54.199219 19.523438 C 52.832031 19.523438 51.515625 18.828125 51.515625 17.3125 C 51.515625 15.546875 52.882812 14.300781 54.050781 13.605469 C 54.921875 13.082031 55.917969 12.757812 56.9375 12.757812 Z M 56.9375 12.757812 "/>
<path style=" stroke:none;fill-rule:nonzero;fill:rgb(0%,0%,0%);fill-opacity:1;" d="M 56.9375 18.976562 C 58.304688 18.976562 59.621094 19.675781 59.621094 21.191406 C 59.621094 22.957031 58.253906 24.199219 57.085938 24.898438 C 56.214844 25.417969 55.21875 25.742188 54.199219 25.742188 C 52.832031 25.742188 51.515625 25.046875 51.515625 23.527344 C 51.515625 21.761719 52.882812 20.519531 54.050781 19.824219 C 54.921875 19.300781 55.917969 18.976562 56.9375 18.976562 Z M 56.9375 18.976562 "/>
<path style=" stroke:none;fill-rule:nonzero;fill:rgb(0%,0%,0%);fill-opacity:1;" d="M 56.9375 25.195312 C 58.304688 25.195312 59.621094 25.890625 59.621094 27.410156 C 59.621094 29.175781 58.253906 30.417969 57.085938 31.117188 C 56.214844 31.636719 55.21875 31.960938 54.199219 31.960938 C 52.832031 31.960938 51.515625 31.265625 51.515625 29.746094 C 51.515625 27.980469 52.882812 26.738281 54.050781 26.042969 C 54.921875 25.519531 55.917969 25.195312 56.9375 25.195312 Z M 56.9375 25.195312 "/>
</g>
</svg>
