<?xml version="1.0" encoding="UTF-8"?>
<svg xmlns="http://www.w3.org/2000/svg" xmlns:xlink="http://www.w3.org/1999/xlink" width="89.49953pt" height="59.452652pt" viewBox="0 0 89.49953 59.452652" version="1.1">
<g id="surface1">
<path style="fill:none;stroke-width:0.1;stroke-linecap:round;stroke-linejoin:round;stroke:rgb(0%,0%,0%);stroke-opacity:1;stroke-miterlimit:4;" d="M 0.049863 -0.000287501 L 11.918472 -0.000287501 " transform="matrix(6.218149,0,0,6.218149,4.561038,40.517413)"/>
<path style="fill:none;stroke-width:0.1;stroke-linecap:round;stroke-linejoin:round;stroke:rgb(0%,0%,0%);stroke-opacity:1;stroke-miterlimit:4;" d="M 0.049863 0.000244052 L 11.918472 0.000244052 " transform="matrix(6.218149,0,0,6.218149,4.561038,34.299264)"/>
<path style="fill:none;stroke-width:0.1;stroke-linecap:round;stroke-linejoin:round;stroke:rgb(0%,0%,0%);stroke-opacity:1;stroke-miterlimit:4;" d="M 0.049863 0.000147403 L 11.918472 0.000147403 " transform="matrix(6.218149,0,0,6.218149,4.561038,28.081115)"/>
<path style="fill:none;stroke-width:0.1;stroke-linecap:round;stroke-linejoin:round;stroke:rgb(0%,0%,0%);stroke-opacity:1;stroke-miterlimit:4;" d="M 0.049863 0.0000507548 L 11.918472 0.0000507548 " transform="matrix(6.218149,0,0,6.218149,4.561038,21.862966)"/>
<path style="fill:none;stroke-width:0.1;stroke-linecap:round;stroke-linejoin:round;stroke:rgb(0%,0%,0%);stroke-opacity:1;stroke-miterlimit:4;" d="M 0.049863 -0.0000458938 L 11.918472 -0.0000458938 " transform="matrix(6.218149,0,0,6.218149,4.561038,15.644817)"/>
<path style=" stroke:none;fill-rule:nonzero;fill:rgb(0%,0%,0%);fill-opacity:1;" d="M 60.5625 16.800781 L 60.871094 16.800781 C 61.007812 16.800781 61.121094 16.914062 61.121094 17.050781 L 61.121094 50.632812 C 61.121094 50.769531 61.007812 50.882812 60.871094 50.882812 L 60.5625 50.882812 C 60.421875 50.882812 60.3125 50.769531 60.3125 50.632812 L 60.3125 17.050781 C 60.3125 16.914062 60.421875 16.800781 60.5625 16.800781 Z M 60.5625 16.800781 "/>
<path style=" stroke:none;fill-rule:nonzero;fill:rgb(0%,0%,0%);fill-opacity:1;" d="M 39.613281 15.644531 C 40.183594 16.21875 41.003906 16.339844 41.828125 16.339844 C 41.976562 16.339844 42.074219 16.441406 42.074219 16.589844 L 42.300781 18.753906 C 42.324219 18.902344 42.199219 19.027344 42.050781 19.003906 L 39.886719 18.777344 C 39.761719 18.753906 39.636719 18.65625 39.636719 18.53125 C 39.636719 17.710938 39.511719 16.886719 38.941406 16.316406 C 38.367188 16.886719 38.269531 17.710938 38.269531 18.53125 C 38.269531 18.65625 38.144531 18.753906 38.019531 18.777344 L 35.832031 19.003906 C 35.683594 19.027344 35.558594 18.902344 35.582031 18.753906 L 35.808594 16.589844 C 35.808594 16.441406 35.90625 16.339844 36.054688 16.339844 C 36.875 16.339844 37.699219 16.21875 38.269531 15.644531 C 37.699219 15.074219 36.875 14.949219 36.054688 14.949219 C 35.90625 14.949219 35.808594 14.847656 35.808594 14.699219 L 35.582031 12.535156 C 35.558594 12.386719 35.683594 12.261719 35.832031 12.285156 L 38.019531 12.511719 C 38.144531 12.535156 38.246094 12.636719 38.246094 12.757812 C 38.246094 13.582031 38.367188 14.402344 38.941406 14.972656 C 39.511719 14.402344 39.636719 13.582031 39.636719 12.757812 C 39.636719 12.636719 39.761719 12.535156 39.886719 12.511719 L 42.050781 12.285156 C 42.199219 12.261719 42.324219 12.386719 42.300781 12.535156 L 42.074219 14.699219 C 42.074219 14.847656 41.976562 14.949219 41.828125 14.949219 C 41.003906 14.949219 40.183594 15.074219 39.613281 15.644531 Z M 39.613281 15.644531 "/>
<path style=" stroke:none;fill-rule:nonzero;fill:rgb(0%,0%,0%);fill-opacity:1;" d="M 48.964844 26.515625 C 48.964844 26.761719 48.765625 26.988281 48.515625 26.988281 C 48.265625 26.988281 48.042969 26.761719 48.042969 26.515625 L 48.042969 22.90625 L 45.976562 23.679688 L 45.976562 27.609375 C 45.976562 27.855469 45.753906 28.082031 45.503906 28.082031 C 45.257812 28.082031 45.058594 27.855469 45.058594 27.609375 L 45.058594 24.003906 L 44.261719 24.300781 C 44.210938 24.324219 44.136719 24.324219 44.089844 24.324219 C 43.8125 24.324219 43.589844 24.101562 43.589844 23.828125 L 43.589844 22.335938 C 43.589844 22.136719 43.714844 21.9375 43.914062 21.863281 L 45.058594 21.464844 L 45.058594 17.484375 L 44.261719 17.757812 C 44.210938 17.785156 44.136719 17.785156 44.089844 17.785156 C 43.8125 17.785156 43.589844 17.558594 43.589844 17.285156 L 43.589844 15.792969 C 43.589844 15.59375 43.714844 15.421875 43.914062 15.347656 L 45.058594 14.921875 L 45.058594 10.992188 C 45.058594 10.746094 45.257812 10.519531 45.503906 10.519531 C 45.753906 10.519531 45.976562 10.746094 45.976562 10.992188 L 45.976562 14.601562 L 48.042969 13.828125 L 48.042969 9.898438 C 48.042969 9.652344 48.265625 9.425781 48.515625 9.425781 C 48.765625 9.425781 48.964844 9.652344 48.964844 9.898438 L 48.964844 13.503906 L 49.757812 13.207031 C 49.808594 13.183594 49.882812 13.183594 49.933594 13.183594 C 50.207031 13.183594 50.429688 13.40625 50.429688 13.679688 L 50.429688 15.171875 C 50.429688 15.371094 50.304688 15.570312 50.105469 15.644531 L 48.964844 16.042969 L 48.964844 20.023438 L 49.757812 19.75 C 49.808594 19.722656 49.882812 19.722656 49.933594 19.722656 C 50.207031 19.722656 50.429688 19.949219 50.429688 20.222656 L 50.429688 21.714844 C 50.429688 21.914062 50.304688 22.085938 50.105469 22.160156 L 48.964844 22.585938 Z M 45.976562 17.136719 L 45.976562 21.117188 L 48.042969 20.371094 L 48.042969 16.390625 Z M 45.976562 17.136719 "/>
<path style=" stroke:none;fill-rule:nonzero;fill:rgb(0%,0%,0%);fill-opacity:1;" d="M 32.996094 24.972656 C 33.570312 25.542969 34.390625 25.667969 35.210938 25.667969 C 35.359375 25.667969 35.460938 25.769531 35.460938 25.917969 L 35.683594 28.082031 C 35.707031 28.230469 35.582031 28.355469 35.433594 28.328125 L 33.269531 28.105469 C 33.144531 28.082031 33.023438 27.980469 33.023438 27.855469 C 33.023438 27.035156 32.898438 26.214844 32.324219 25.644531 C 31.753906 26.214844 31.652344 27.035156 31.652344 27.855469 C 31.652344 27.980469 31.527344 28.082031 31.40625 28.105469 L 29.214844 28.328125 C 29.066406 28.355469 28.941406 28.230469 28.96875 28.082031 L 29.191406 25.917969 C 29.191406 25.769531 29.289062 25.667969 29.441406 25.667969 C 30.261719 25.667969 31.082031 25.542969 31.652344 24.972656 C 31.082031 24.398438 30.261719 24.277344 29.441406 24.277344 C 29.289062 24.277344 29.191406 24.175781 29.191406 24.027344 L 28.96875 21.863281 C 28.941406 21.714844 29.066406 21.589844 29.214844 21.613281 L 31.40625 21.839844 C 31.527344 21.863281 31.628906 21.960938 31.628906 22.085938 C 31.628906 22.90625 31.753906 23.726562 32.324219 24.300781 C 32.898438 23.726562 33.023438 22.90625 33.023438 22.085938 C 33.023438 21.960938 33.144531 21.863281 33.269531 21.839844 L 35.433594 21.613281 C 35.582031 21.589844 35.707031 21.714844 35.683594 21.863281 L 35.460938 24.027344 C 35.460938 24.175781 35.359375 24.277344 35.210938 24.277344 C 34.390625 24.277344 33.570312 24.398438 32.996094 24.972656 Z M 32.996094 24.972656 "/>
<path style=" stroke:none;fill-rule:nonzero;fill:rgb(0%,0%,0%);fill-opacity:1;" d="M 42.347656 38.949219 C 42.347656 39.199219 42.148438 39.421875 41.898438 39.421875 C 41.652344 39.421875 41.425781 39.199219 41.425781 38.949219 L 41.425781 35.34375 L 39.363281 36.113281 L 39.363281 40.042969 C 39.363281 40.292969 39.136719 40.515625 38.890625 40.515625 C 38.640625 40.515625 38.441406 40.292969 38.441406 40.042969 L 38.441406 36.4375 L 37.644531 36.738281 C 37.597656 36.761719 37.523438 36.761719 37.472656 36.761719 C 37.199219 36.761719 36.972656 36.539062 36.972656 36.265625 L 36.972656 34.773438 C 36.972656 34.574219 37.097656 34.375 37.296875 34.300781 L 38.441406 33.902344 L 38.441406 29.921875 L 37.644531 30.195312 C 37.597656 30.21875 37.523438 30.21875 37.472656 30.21875 C 37.199219 30.21875 36.972656 29.996094 36.972656 29.722656 L 36.972656 28.230469 C 36.972656 28.03125 37.097656 27.855469 37.296875 27.78125 L 38.441406 27.359375 L 38.441406 23.429688 C 38.441406 23.179688 38.640625 22.957031 38.890625 22.957031 C 39.136719 22.957031 39.363281 23.179688 39.363281 23.429688 L 39.363281 27.035156 L 41.425781 26.265625 L 41.425781 22.335938 C 41.425781 22.085938 41.652344 21.863281 41.898438 21.863281 C 42.148438 21.863281 42.347656 22.085938 42.347656 22.335938 L 42.347656 25.941406 L 43.144531 25.644531 C 43.191406 25.617188 43.265625 25.617188 43.316406 25.617188 C 43.589844 25.617188 43.8125 25.84375 43.8125 26.117188 L 43.8125 27.609375 C 43.8125 27.808594 43.691406 28.007812 43.492188 28.082031 L 42.347656 28.480469 L 42.347656 32.457031 L 43.144531 32.183594 C 43.191406 32.160156 43.265625 32.160156 43.316406 32.160156 C 43.589844 32.160156 43.8125 32.382812 43.8125 32.65625 L 43.8125 34.148438 C 43.8125 34.347656 43.691406 34.523438 43.492188 34.597656 L 42.347656 35.019531 Z M 39.363281 29.574219 L 39.363281 33.554688 L 41.425781 32.808594 L 41.425781 28.828125 Z M 39.363281 29.574219 "/>
<path style=" stroke:none;fill-rule:nonzero;fill:rgb(0%,0%,0%);fill-opacity:1;" d="M 16.152344 50.09375 L 16.003906 50.09375 C 13.316406 50.09375 11.152344 47.90625 11.152344 45.195312 C 11.152344 43.75 12.46875 42.632812 13.9375 42.632812 C 15.28125 42.632812 16.300781 43.800781 16.300781 45.195312 C 16.300781 46.488281 15.230469 47.554688 13.9375 47.554688 C 13.664062 47.554688 13.414062 47.507812 13.167969 47.40625 C 13.8125 48.378906 14.859375 49.023438 16.078125 49.023438 L 16.175781 49.023438 Z M 21 39.347656 C 22.691406 38.75 23.8125 36.984375 23.8125 35.269531 C 23.8125 33.03125 22.171875 30.816406 19.507812 30.542969 C 20.105469 33.429688 20.652344 36.289062 21 39.347656 Z M 11.375 33.601562 C 11.375 36.960938 14.585938 39.746094 17.941406 39.746094 C 18.640625 39.746094 19.308594 39.695312 19.980469 39.597656 C 19.632812 36.4375 19.0625 33.503906 18.414062 30.542969 C 16.449219 30.742188 15.332031 32.0625 15.332031 33.503906 C 15.332031 34.597656 15.953125 35.765625 17.34375 36.5625 C 17.46875 36.6875 17.519531 36.8125 17.519531 36.9375 C 17.519531 37.210938 17.269531 37.484375 16.972656 37.484375 C 16.898438 37.484375 16.824219 37.457031 16.75 37.433594 C 14.757812 36.363281 13.839844 34.574219 13.839844 32.832031 C 13.839844 30.644531 15.28125 28.503906 17.816406 27.933594 C 17.46875 26.488281 17.097656 25.023438 16.675781 23.578125 C 14.011719 26.589844 11.375 29.625 11.375 33.601562 Z M 17.867188 40.816406 C 13.191406 40.816406 9.585938 36.539062 9.585938 31.511719 C 9.585938 27.109375 12.84375 23.902344 15.753906 20.542969 C 15.28125 19.003906 14.832031 17.4375 14.632812 15.820312 C 14.484375 14.527344 14.460938 13.230469 14.460938 11.9375 C 14.460938 9.078125 15.828125 6.367188 18.167969 4.675781 C 18.316406 4.550781 18.515625 4.550781 18.664062 4.675781 C 20.429688 6.765625 21.972656 10.769531 21.972656 13.582031 C 21.972656 17.136719 19.832031 19.921875 17.496094 22.632812 C 18.015625 24.324219 18.464844 26.066406 18.886719 27.78125 C 18.988281 27.78125 19.113281 27.757812 19.210938 27.757812 C 23.066406 27.757812 25.578125 30.941406 25.578125 34.25 C 25.578125 36.140625 24.757812 38.078125 22.917969 39.472656 C 22.371094 39.894531 21.746094 40.167969 21.101562 40.367188 C 21.175781 41.238281 21.226562 42.109375 21.226562 42.980469 C 21.226562 43.453125 21.199219 43.949219 21.175781 44.421875 C 21 47.382812 18.988281 50.019531 16.152344 50.09375 L 16.175781 49.023438 C 18.488281 48.972656 19.980469 46.734375 20.132812 44.273438 C 20.15625 43.824219 20.179688 43.351562 20.179688 42.90625 C 20.179688 42.132812 20.15625 41.386719 20.082031 40.617188 C 19.359375 40.742188 18.640625 40.816406 17.867188 40.816406 Z M 20.179688 11.515625 C 20.179688 10.148438 20.082031 9.550781 19.683594 8.308594 C 17.222656 9.5 15.652344 12.011719 15.652344 14.75 C 15.652344 16.589844 16.101562 18.058594 16.550781 19.574219 C 18.539062 17.160156 20.179688 14.648438 20.179688 11.515625 Z M 20.179688 11.515625 "/>
<path style=" stroke:none;fill-rule:nonzero;fill:rgb(0%,0%,0%);fill-opacity:1;" d="M 65.734375 12.261719 C 67.101562 12.261719 68.421875 12.957031 68.421875 14.476562 C 68.421875 16.242188 67.054688 17.484375 65.882812 18.183594 C 65.011719 18.703125 64.019531 19.027344 63 19.027344 C 61.628906 19.027344 60.3125 18.332031 60.3125 16.8125 C 60.3125 15.046875 61.679688 13.804688 62.847656 13.109375 C 63.71875 12.585938 64.714844 12.261719 65.734375 12.261719 Z M 65.734375 12.261719 "/>
<path style=" stroke:none;fill-rule:nonzero;fill:rgb(0%,0%,0%);fill-opacity:1;" d="M 58.027344 15.371094 C 59.398438 15.371094 60.714844 16.066406 60.714844 17.585938 C 60.714844 19.351562 59.347656 20.59375 58.179688 21.289062 C 57.308594 21.8125 56.3125 22.136719 55.292969 22.136719 C 53.925781 22.136719 52.605469 21.441406 52.605469 19.921875 C 52.605469 18.15625 53.976562 16.914062 55.144531 16.21875 C 56.015625 15.695312 57.007812 15.371094 58.027344 15.371094 Z M 58.027344 15.371094 "/>
<path style=" stroke:none;fill-rule:nonzero;fill:rgb(0%,0%,0%);fill-opacity:1;" d="M 65.734375 21.589844 C 67.101562 21.589844 68.421875 22.285156 68.421875 23.804688 C 68.421875 25.570312 67.054688 26.8125 65.882812 27.507812 C 65.011719 28.03125 64.019531 28.355469 63 28.355469 C 61.628906 28.355469 60.3125 27.660156 60.3125 26.140625 C 60.3125 24.375 61.679688 23.132812 62.847656 22.433594 C 63.71875 21.914062 64.714844 21.589844 65.734375 21.589844 Z M 65.734375 21.589844 "/>
<path style=" stroke:none;fill-rule:nonzero;fill:rgb(0%,0%,0%);fill-opacity:1;" d="M 65.734375 27.808594 C 67.101562 27.808594 68.421875 28.503906 68.421875 30.019531 C 68.421875 31.789062 67.054688 33.03125 65.882812 33.726562 C 65.011719 34.25 64.019531 34.574219 63 34.574219 C 61.628906 34.574219 60.3125 33.875 60.3125 32.359375 C 60.3125 30.59375 61.679688 29.351562 62.847656 28.652344 C 63.71875 28.132812 64.714844 27.808594 65.734375 27.808594 Z M 65.734375 27.808594 "/>
</g>
</svg>
