<?xml version="1.0" encoding="UTF-8"?>
<svg xmlns="http://www.w3.org/2000/svg" xmlns:xlink="http://www.w3.org/1999/xlink" width="68.472344pt" height="65.790898pt" viewBox="0 0 68.472344 65.790898" version="1.1">
<g id="surface1">
<path style="fill:none;stroke-width:0.1;stroke-linecap:round;stroke-linejoin:round;stroke:rgb(0%,0%,0%);stroke-opacity:1;stroke-miterlimit:4;" d="M 0.049863 0.00024064 L 8.752337 0.00024064 " transform="matrix(6.218149,0,0,6.218149,4.561038,47.232879)"/>
<path style="fill:none;stroke-width:0.1;stroke-linecap:round;stroke-linejoin:round;stroke:rgb(0%,0%,0%);stroke-opacity:1;stroke-miterlimit:4;" d="M 0.049863 0.000143992 L 8.752337 0.000143992 " transform="matrix(6.218149,0,0,6.218149,4.561038,41.01473)"/>
<path style="fill:none;stroke-width:0.1;stroke-linecap:round;stroke-linejoin:round;stroke:rgb(0%,0%,0%);stroke-opacity:1;stroke-miterlimit:4;" d="M 0.049863 0.000047343 L 8.752337 0.000047343 " transform="matrix(6.218149,0,0,6.218149,4.561038,34.796581)"/>
<path style="fill:none;stroke-width:0.1;stroke-linecap:round;stroke-linejoin:round;stroke:rgb(0%,0%,0%);stroke-opacity:1;stroke-miterlimit:4;" d="M 0.049863 -0.0000493056 L 8.752337 -0.0000493056 " transform="matrix(6.218149,0,0,6.218149,4.561038,28.578432)"/>
<path style="fill:none;stroke-width:0.1;stroke-linecap:round;stroke-linejoin:round;stroke:rgb(0%,0%,0%);stroke-opacity:1;stroke-miterlimit:4;" d="M 0.049863 -0.000145716 L 8.752337 -0.000145716 " transform="matrix(6.218149,0,0,6.218149,4.561038,22.360281)"/>
<path style=" stroke:none;fill-rule:nonzero;fill:rgb(0%,0%,0%);fill-opacity:1;" d="M 39.21875 9.300781 L 50.140625 9.300781 C 50.484375 9.300781 50.761719 9.582031 50.761719 9.925781 C 50.761719 10.265625 50.484375 10.546875 50.140625 10.546875 L 39.21875 10.546875 C 38.878906 10.546875 38.597656 10.265625 38.597656 9.925781 C 38.597656 9.582031 38.878906 9.300781 39.21875 9.300781 Z M 39.21875 9.300781 "/>
<path style=" stroke:none;fill-rule:nonzero;fill:rgb(0%,0%,0%);fill-opacity:1;" d="M 39.21875 15.519531 L 50.140625 15.519531 C 50.484375 15.519531 50.761719 15.796875 50.761719 16.140625 C 50.761719 16.484375 50.484375 16.765625 50.140625 16.765625 L 39.21875 16.765625 C 38.878906 16.765625 38.597656 16.484375 38.597656 16.140625 C 38.597656 15.796875 38.878906 15.519531 39.21875 15.519531 Z M 39.21875 15.519531 "/>
<path style=" stroke:none;fill-rule:nonzero;fill:rgb(0%,0%,0%);fill-opacity:1;" d="M 34.148438 15.121094 L 34.121094 16.765625 L 34.121094 17.039062 C 34.121094 17.585938 34.148438 18.132812 34.222656 18.679688 C 35.339844 17.734375 36.535156 16.6875 36.535156 15.222656 C 36.535156 14.402344 36.1875 13.554688 35.464844 13.554688 C 34.695312 13.554688 34.171875 14.300781 34.148438 15.121094 Z M 33.101562 19.574219 L 32.804688 4.773438 C 33.003906 4.652344 33.25 4.578125 33.476562 4.578125 C 33.699219 4.578125 33.949219 4.652344 34.148438 4.773438 L 33.972656 13.355469 C 34.59375 12.835938 35.414062 12.511719 36.234375 12.511719 C 37.53125 12.511719 38.449219 13.703125 38.449219 15.046875 C 38.449219 17.039062 36.3125 17.957031 34.792969 19.25 C 34.421875 19.574219 34.195312 20.195312 33.675781 20.195312 C 33.351562 20.195312 33.101562 19.921875 33.101562 19.574219 Z M 33.101562 19.574219 "/>
<path style=" stroke:none;fill-rule:nonzero;fill:rgb(0%,0%,0%);fill-opacity:1;" d="M 40.875 11.082031 L 41.1875 11.082031 C 41.324219 11.082031 41.433594 11.191406 41.433594 11.328125 L 41.433594 43.875 C 41.433594 44.011719 41.324219 44.125 41.1875 44.125 L 40.875 44.125 C 40.738281 44.125 40.625 44.011719 40.625 43.875 L 40.625 11.328125 C 40.625 11.191406 40.738281 11.082031 40.875 11.082031 Z M 40.875 11.082031 "/>
<path style=" stroke:none;fill-rule:nonzero;fill:rgb(0%,0%,0%);fill-opacity:1;" d="M 16.152344 56.808594 L 16.003906 56.808594 C 13.316406 56.808594 11.152344 54.621094 11.152344 51.910156 C 11.152344 50.464844 12.46875 49.347656 13.9375 49.347656 C 15.28125 49.347656 16.300781 50.515625 16.300781 51.910156 C 16.300781 53.203125 15.230469 54.273438 13.9375 54.273438 C 13.664062 54.273438 13.414062 54.222656 13.167969 54.121094 C 13.8125 55.09375 14.859375 55.738281 16.078125 55.738281 L 16.175781 55.738281 Z M 21 46.0625 C 22.691406 45.46875 23.8125 43.699219 23.8125 41.984375 C 23.8125 39.746094 22.171875 37.53125 19.507812 37.257812 C 20.105469 40.144531 20.652344 43.003906 21 46.0625 Z M 11.375 40.316406 C 11.375 43.675781 14.585938 46.460938 17.941406 46.460938 C 18.640625 46.460938 19.308594 46.410156 19.980469 46.3125 C 19.632812 43.152344 19.0625 40.21875 18.414062 37.257812 C 16.449219 37.457031 15.332031 38.777344 15.332031 40.21875 C 15.332031 41.3125 15.953125 42.480469 17.34375 43.277344 C 17.46875 43.402344 17.519531 43.527344 17.519531 43.652344 C 17.519531 43.925781 17.269531 44.199219 16.972656 44.199219 C 16.898438 44.199219 16.824219 44.171875 16.75 44.148438 C 14.757812 43.078125 13.839844 41.289062 13.839844 39.546875 C 13.839844 37.359375 15.28125 35.21875 17.816406 34.648438 C 17.46875 33.203125 17.097656 31.738281 16.675781 30.292969 C 14.011719 33.304688 11.375 36.339844 11.375 40.316406 Z M 17.867188 47.53125 C 13.191406 47.53125 9.585938 43.253906 9.585938 38.230469 C 9.585938 33.828125 12.84375 30.617188 15.753906 27.261719 C 15.28125 25.71875 14.832031 24.152344 14.632812 22.535156 C 14.484375 21.242188 14.460938 19.949219 14.460938 18.652344 C 14.460938 15.792969 15.828125 13.082031 18.167969 11.390625 C 18.316406 11.265625 18.515625 11.265625 18.664062 11.390625 C 20.429688 13.480469 21.972656 17.484375 21.972656 20.296875 C 21.972656 23.851562 19.832031 26.636719 17.496094 29.347656 C 18.015625 31.039062 18.464844 32.78125 18.886719 34.5 C 18.988281 34.5 19.113281 34.472656 19.210938 34.472656 C 23.066406 34.472656 25.578125 37.65625 25.578125 40.964844 C 25.578125 42.855469 24.757812 44.796875 22.917969 46.1875 C 22.371094 46.609375 21.746094 46.882812 21.101562 47.082031 C 21.175781 47.953125 21.226562 48.824219 21.226562 49.695312 C 21.226562 50.167969 21.199219 50.664062 21.175781 51.136719 C 21 54.097656 18.988281 56.734375 16.152344 56.808594 L 16.175781 55.738281 C 18.488281 55.691406 19.980469 53.449219 20.132812 50.988281 C 20.15625 50.539062 20.179688 50.066406 20.179688 49.621094 C 20.179688 48.847656 20.15625 48.101562 20.082031 47.332031 C 19.359375 47.457031 18.640625 47.53125 17.867188 47.53125 Z M 20.179688 18.230469 C 20.179688 16.863281 20.082031 16.265625 19.683594 15.023438 C 17.222656 16.214844 15.652344 18.730469 15.652344 21.464844 C 15.652344 23.304688 16.101562 24.773438 16.550781 26.289062 C 18.539062 23.878906 20.179688 21.367188 20.179688 18.230469 Z M 20.179688 18.230469 "/>
<path style=" stroke:none;fill-rule:nonzero;fill:rgb(0%,0%,0%);fill-opacity:1;" d="M 46.046875 6.542969 C 47.417969 6.542969 48.734375 7.238281 48.734375 8.753906 C 48.734375 10.519531 47.367188 11.765625 46.199219 12.460938 C 45.328125 12.984375 44.332031 13.308594 43.3125 13.308594 C 41.945312 13.308594 40.625 12.609375 40.625 11.09375 C 40.625 9.328125 41.996094 8.082031 43.164062 7.386719 C 44.035156 6.863281 45.027344 6.542969 46.046875 6.542969 Z M 46.046875 6.542969 "/>
<path style=" stroke:none;fill-rule:nonzero;fill:rgb(0%,0%,0%);fill-opacity:1;" d="M 46.046875 12.757812 C 47.417969 12.757812 48.734375 13.457031 48.734375 14.972656 C 48.734375 16.738281 47.367188 17.984375 46.199219 18.679688 C 45.328125 19.203125 44.332031 19.523438 43.3125 19.523438 C 41.945312 19.523438 40.625 18.828125 40.625 17.3125 C 40.625 15.546875 41.996094 14.300781 43.164062 13.605469 C 44.035156 13.082031 45.027344 12.757812 46.046875 12.757812 Z M 46.046875 12.757812 "/>
<path style=" stroke:none;fill-rule:nonzero;fill:rgb(0%,0%,0%);fill-opacity:1;" d="M 46.046875 18.976562 C 47.417969 18.976562 48.734375 19.675781 48.734375 21.191406 C 48.734375 22.957031 47.367188 24.199219 46.199219 24.898438 C 45.328125 25.417969 44.332031 25.742188 43.3125 25.742188 C 41.945312 25.742188 40.625 25.046875 40.625 23.527344 C 40.625 21.761719 41.996094 20.519531 43.164062 19.824219 C 44.035156 19.300781 45.027344 18.976562 46.046875 18.976562 Z M 46.046875 18.976562 "/>
</g>
</svg>
