<?xml version="1.0" encoding="UTF-8"?>
<svg xmlns="http://www.w3.org/2000/svg" xmlns:xlink="http://www.w3.org/1999/xlink" width="78.868712pt" height="62.20434pt" viewBox="0 0 78.868712 62.20434" version="1.1">
<g id="surface1">
<path style="fill:none;stroke-width:0.1;stroke-linecap:round;stroke-linejoin:round;stroke:rgb(0%,0%,0%);stroke-opacity:1;stroke-miterlimit:4;" d="M 0.049863 0.000143992 L 10.317815 0.000143992 " transform="matrix(6.218149,0,0,6.218149,4.561038,41.01473)"/>
<path style="fill:none;stroke-width:0.1;stroke-linecap:round;stroke-linejoin:round;stroke:rgb(0%,0%,0%);stroke-opacity:1;stroke-miterlimit:4;" d="M 0.049863 0.000047343 L 10.317815 0.000047343 " transform="matrix(6.218149,0,0,6.218149,4.561038,34.796581)"/>
<path style="fill:none;stroke-width:0.1;stroke-linecap:round;stroke-linejoin:round;stroke:rgb(0%,0%,0%);stroke-opacity:1;stroke-miterlimit:4;" d="M 0.049863 -0.0000493056 L 10.317815 -0.0000493056 " transform="matrix(6.218149,0,0,6.218149,4.561038,28.578432)"/>
<path style="fill:none;stroke-width:0.1;stroke-linecap:round;stroke-linejoin:round;stroke:rgb(0%,0%,0%);stroke-opacity:1;stroke-miterlimit:4;" d="M 0.049863 -0.000145716 L 10.317815 -0.000145716 " transform="matrix(6.218149,0,0,6.218149,4.561038,22.360281)"/>
<path style="fill:none;stroke-width:0.1;stroke-linecap:round;stroke-linejoin:round;stroke:rgb(0%,0%,0%);stroke-opacity:1;stroke-miterlimit:4;" d="M 0.049863 -0.000242364 L 10.317815 -0.000242364 " transform="matrix(6.218149,0,0,6.218149,4.561038,16.142132)"/>
<path style=" stroke:none;fill-rule:nonzero;fill:rgb(0%,0%,0%);fill-opacity:1;" d="M 50.609375 17.300781 L 50.917969 17.300781 C 51.054688 17.300781 51.167969 17.410156 51.167969 17.546875 L 51.167969 53.203125 C 51.167969 53.339844 51.054688 53.449219 50.917969 53.449219 L 50.609375 53.449219 C 50.472656 53.449219 50.359375 53.339844 50.359375 53.203125 L 50.359375 17.546875 C 50.359375 17.410156 50.472656 17.300781 50.609375 17.300781 Z M 50.609375 17.300781 "/>
<path style=" stroke:none;fill-rule:nonzero;fill:rgb(0%,0%,0%);fill-opacity:1;" d="M 43.878906 15.121094 L 43.855469 16.765625 L 43.855469 17.039062 C 43.855469 17.585938 43.878906 18.132812 43.953125 18.679688 C 45.074219 17.734375 46.269531 16.6875 46.269531 15.222656 C 46.269531 14.402344 45.917969 13.554688 45.199219 13.554688 C 44.425781 13.554688 43.90625 14.300781 43.878906 15.121094 Z M 42.835938 19.574219 L 42.539062 4.773438 C 42.734375 4.652344 42.984375 4.578125 43.207031 4.578125 C 43.433594 4.578125 43.679688 4.652344 43.878906 4.773438 L 43.707031 13.355469 C 44.328125 12.835938 45.148438 12.511719 45.96875 12.511719 C 47.261719 12.511719 48.183594 13.703125 48.183594 15.046875 C 48.183594 17.039062 46.042969 17.957031 44.527344 19.25 C 44.152344 19.574219 43.929688 20.195312 43.40625 20.195312 C 43.085938 20.195312 42.835938 19.921875 42.835938 19.574219 Z M 42.835938 19.574219 "/>
<path style=" stroke:none;fill-rule:nonzero;fill:rgb(0%,0%,0%);fill-opacity:1;" d="M 37.226562 21.339844 L 37.199219 22.980469 L 37.199219 23.253906 C 37.199219 23.804688 37.226562 24.351562 37.300781 24.898438 C 38.417969 23.953125 39.613281 22.90625 39.613281 21.441406 C 39.613281 20.621094 39.265625 19.773438 38.542969 19.773438 C 37.773438 19.773438 37.25 20.519531 37.226562 21.339844 Z M 36.179688 25.792969 L 35.882812 10.992188 C 36.082031 10.871094 36.328125 10.792969 36.554688 10.792969 C 36.777344 10.792969 37.027344 10.871094 37.226562 10.992188 L 37.050781 19.574219 C 37.671875 19.050781 38.492188 18.730469 39.3125 18.730469 C 40.609375 18.730469 41.527344 19.921875 41.527344 21.265625 C 41.527344 23.253906 39.390625 24.175781 37.871094 25.46875 C 37.5 25.792969 37.273438 26.414062 36.753906 26.414062 C 36.429688 26.414062 36.179688 26.140625 36.179688 25.792969 Z M 36.179688 25.792969 "/>
<path style=" stroke:none;fill-rule:nonzero;fill:rgb(0%,0%,0%);fill-opacity:1;" d="M 30.632812 27.558594 L 30.609375 29.199219 L 30.609375 29.472656 C 30.609375 30.019531 30.632812 30.566406 30.707031 31.117188 C 31.828125 30.171875 33.023438 29.125 33.023438 27.65625 C 33.023438 26.835938 32.671875 25.992188 31.953125 25.992188 C 31.179688 25.992188 30.660156 26.738281 30.632812 27.558594 Z M 29.589844 32.011719 L 29.289062 17.210938 C 29.488281 17.085938 29.738281 17.011719 29.960938 17.011719 C 30.1875 17.011719 30.433594 17.085938 30.632812 17.210938 L 30.460938 25.792969 C 31.082031 25.269531 31.902344 24.945312 32.722656 24.945312 C 34.015625 24.945312 34.9375 26.140625 34.9375 27.484375 C 34.9375 29.472656 32.796875 30.394531 31.28125 31.6875 C 30.90625 32.011719 30.683594 32.632812 30.160156 32.632812 C 29.835938 32.632812 29.589844 32.359375 29.589844 32.011719 Z M 29.589844 32.011719 "/>
<path style=" stroke:none;fill-rule:nonzero;fill:rgb(0%,0%,0%);fill-opacity:1;" d="M 43.878906 33.777344 L 43.855469 35.417969 L 43.855469 35.691406 C 43.855469 36.238281 43.878906 36.785156 43.953125 37.332031 C 45.074219 36.386719 46.269531 35.34375 46.269531 33.875 C 46.269531 33.054688 45.917969 32.210938 45.199219 32.210938 C 44.425781 32.210938 43.90625 32.957031 43.878906 33.777344 Z M 42.835938 38.230469 L 42.539062 23.429688 C 42.734375 23.304688 42.984375 23.230469 43.207031 23.230469 C 43.433594 23.230469 43.679688 23.304688 43.878906 23.429688 L 43.707031 32.011719 C 44.328125 31.488281 45.148438 31.164062 45.96875 31.164062 C 47.261719 31.164062 48.183594 32.359375 48.183594 33.703125 C 48.183594 35.691406 46.042969 36.613281 44.527344 37.90625 C 44.152344 38.230469 43.929688 38.851562 43.40625 38.851562 C 43.085938 38.851562 42.835938 38.578125 42.835938 38.230469 Z M 42.835938 38.230469 "/>
<path style=" stroke:none;fill-rule:nonzero;fill:rgb(0%,0%,0%);fill-opacity:1;" d="M 16.152344 50.589844 L 16.003906 50.589844 C 13.316406 50.589844 11.152344 48.402344 11.152344 45.691406 C 11.152344 44.25 12.46875 43.128906 13.9375 43.128906 C 15.28125 43.128906 16.300781 44.296875 16.300781 45.691406 C 16.300781 46.984375 15.230469 48.054688 13.9375 48.054688 C 13.664062 48.054688 13.414062 48.003906 13.167969 47.90625 C 13.8125 48.875 14.859375 49.519531 16.078125 49.519531 L 16.175781 49.519531 Z M 21 39.847656 C 22.691406 39.25 23.8125 37.484375 23.8125 35.765625 C 23.8125 33.527344 22.171875 31.3125 19.507812 31.039062 C 20.105469 33.925781 20.652344 36.785156 21 39.847656 Z M 11.375 34.101562 C 11.375 37.457031 14.585938 40.242188 17.941406 40.242188 C 18.640625 40.242188 19.308594 40.195312 19.980469 40.09375 C 19.632812 36.9375 19.0625 34 18.414062 31.039062 C 16.449219 31.238281 15.332031 32.558594 15.332031 34 C 15.332031 35.09375 15.953125 36.265625 17.34375 37.058594 C 17.46875 37.183594 17.519531 37.308594 17.519531 37.433594 C 17.519531 37.707031 17.269531 37.980469 16.972656 37.980469 C 16.898438 37.980469 16.824219 37.957031 16.75 37.929688 C 14.757812 36.859375 13.839844 35.070312 13.839844 33.328125 C 13.839844 31.140625 15.28125 29 17.816406 28.429688 C 17.46875 26.988281 17.097656 25.519531 16.675781 24.078125 C 14.011719 27.085938 11.375 30.121094 11.375 34.101562 Z M 17.867188 41.3125 C 13.191406 41.3125 9.585938 37.035156 9.585938 32.011719 C 9.585938 27.609375 12.84375 24.398438 15.753906 21.042969 C 15.28125 19.5 14.832031 17.933594 14.632812 16.316406 C 14.484375 15.023438 14.460938 13.730469 14.460938 12.4375 C 14.460938 9.574219 15.828125 6.863281 18.167969 5.171875 C 18.316406 5.050781 18.515625 5.050781 18.664062 5.171875 C 20.429688 7.261719 21.972656 11.265625 21.972656 14.078125 C 21.972656 17.632812 19.832031 20.421875 17.496094 23.132812 C 18.015625 24.824219 18.464844 26.5625 18.886719 28.28125 C 18.988281 28.28125 19.113281 28.253906 19.210938 28.253906 C 23.066406 28.253906 25.578125 31.4375 25.578125 34.746094 C 25.578125 36.636719 24.757812 38.578125 22.917969 39.96875 C 22.371094 40.394531 21.746094 40.667969 21.101562 40.867188 C 21.175781 41.734375 21.226562 42.605469 21.226562 43.476562 C 21.226562 43.949219 21.199219 44.445312 21.175781 44.917969 C 21 47.878906 18.988281 50.515625 16.152344 50.589844 L 16.175781 49.519531 C 18.488281 49.472656 19.980469 47.234375 20.132812 44.769531 C 20.15625 44.324219 20.179688 43.851562 20.179688 43.402344 C 20.179688 42.632812 20.15625 41.886719 20.082031 41.113281 C 19.359375 41.238281 18.640625 41.3125 17.867188 41.3125 Z M 20.179688 12.011719 C 20.179688 10.644531 20.082031 10.046875 19.683594 8.804688 C 17.222656 10 15.652344 12.511719 15.652344 15.246094 C 15.652344 17.085938 16.101562 18.554688 16.550781 20.070312 C 18.539062 17.660156 20.179688 15.148438 20.179688 12.011719 Z M 20.179688 12.011719 "/>
<path style=" stroke:none;fill-rule:nonzero;fill:rgb(0%,0%,0%);fill-opacity:1;" d="M 55.78125 12.757812 C 57.148438 12.757812 58.46875 13.457031 58.46875 14.972656 C 58.46875 16.738281 57.101562 17.984375 55.929688 18.679688 C 55.058594 19.203125 54.066406 19.523438 53.046875 19.523438 C 51.679688 19.523438 50.359375 18.828125 50.359375 17.3125 C 50.359375 15.546875 51.726562 14.300781 52.898438 13.605469 C 53.765625 13.082031 54.761719 12.757812 55.78125 12.757812 Z M 55.78125 12.757812 "/>
<path style=" stroke:none;fill-rule:nonzero;fill:rgb(0%,0%,0%);fill-opacity:1;" d="M 55.78125 18.976562 C 57.148438 18.976562 58.46875 19.675781 58.46875 21.191406 C 58.46875 22.957031 57.101562 24.199219 55.929688 24.898438 C 55.058594 25.417969 54.066406 25.742188 53.046875 25.742188 C 51.679688 25.742188 50.359375 25.046875 50.359375 23.527344 C 50.359375 21.761719 51.726562 20.519531 52.898438 19.824219 C 53.765625 19.300781 54.761719 18.976562 55.78125 18.976562 Z M 55.78125 18.976562 "/>
<path style=" stroke:none;fill-rule:nonzero;fill:rgb(0%,0%,0%);fill-opacity:1;" d="M 55.78125 25.195312 C 57.148438 25.195312 58.46875 25.890625 58.46875 27.410156 C 58.46875 29.175781 57.101562 30.417969 55.929688 31.117188 C 55.058594 31.636719 54.066406 31.960938 53.046875 31.960938 C 51.679688 31.960938 50.359375 31.265625 50.359375 29.746094 C 50.359375 27.980469 51.726562 26.738281 52.898438 26.042969 C 53.765625 25.519531 54.761719 25.195312 55.78125 25.195312 Z M 55.78125 25.195312 "/>
<path style=" stroke:none;fill-rule:nonzero;fill:rgb(0%,0%,0%);fill-opacity:1;" d="M 55.78125 31.414062 C 57.148438 31.414062 58.46875 32.109375 58.46875 33.628906 C 58.46875 35.394531 57.101562 36.636719 55.929688 37.332031 C 55.058594 37.855469 54.066406 38.179688 53.046875 38.179688 C 51.679688 38.179688 50.359375 37.484375 50.359375 35.964844 C 50.359375 34.199219 51.726562 32.957031 52.898438 32.257812 C 53.765625 31.738281 54.761719 31.414062 55.78125 31.414062 Z M 55.78125 31.414062 "/>
</g>
</svg>
