<?xml version="1.0" encoding="UTF-8"?>
<svg xmlns="http://www.w3.org/2000/svg" xmlns:xlink="http://www.w3.org/1999/xlink" width="68.472344pt" height="50.027976pt" viewBox="0 0 68.472344 50.027976" version="1.1">
<g id="surface1">
<path style="fill:none;stroke-width:0.1;stroke-linecap:round;stroke-linejoin:round;stroke:rgb(0%,0%,0%);stroke-opacity:1;stroke-miterlimit:4;" d="M 0.049863 0.0000868666 L 8.752337 0.0000868666 " transform="matrix(6.218149,0,0,6.218149,4.561038,31.479929)"/>
<path style="fill:none;stroke-width:0.1;stroke-linecap:round;stroke-linejoin:round;stroke:rgb(0%,0%,0%);stroke-opacity:1;stroke-miterlimit:4;" d="M 0.049863 -0.00000978202 L 8.752337 -0.00000978202 " transform="matrix(6.218149,0,0,6.218149,4.561038,25.26178)"/>
<path style="fill:none;stroke-width:0.1;stroke-linecap:round;stroke-linejoin:round;stroke:rgb(0%,0%,0%);stroke-opacity:1;stroke-miterlimit:4;" d="M 0.049863 -0.000106431 L 8.752337 -0.000106431 " transform="matrix(6.218149,0,0,6.218149,4.561038,19.043631)"/>
<path style="fill:none;stroke-width:0.1;stroke-linecap:round;stroke-linejoin:round;stroke:rgb(0%,0%,0%);stroke-opacity:1;stroke-miterlimit:4;" d="M 0.049863 -0.000203079 L 8.752337 -0.000203079 " transform="matrix(6.218149,0,0,6.218149,4.561038,12.825482)"/>
<path style="fill:none;stroke-width:0.1;stroke-linecap:round;stroke-linejoin:round;stroke:rgb(0%,0%,0%);stroke-opacity:1;stroke-miterlimit:4;" d="M 0.049863 -0.000299847 L 8.752337 -0.000299847 " transform="matrix(6.218149,0,0,6.218149,4.561038,6.607333)"/>
<path style=" stroke:none;fill-rule:nonzero;fill:rgb(0%,0%,0%);fill-opacity:1;" d="M 34.148438 14.914062 L 34.121094 16.554688 L 34.121094 16.828125 C 34.121094 17.378906 34.148438 17.925781 34.222656 18.472656 C 35.339844 17.527344 36.535156 16.480469 36.535156 15.015625 C 36.535156 14.195312 36.1875 13.347656 35.464844 13.347656 C 34.695312 13.347656 34.171875 14.09375 34.148438 14.914062 Z M 33.101562 19.367188 L 32.804688 4.566406 C 33.003906 4.445312 33.25 4.367188 33.476562 4.367188 C 33.699219 4.367188 33.949219 4.445312 34.148438 4.566406 L 33.972656 13.148438 C 34.59375 12.625 35.414062 12.304688 36.234375 12.304688 C 37.53125 12.304688 38.449219 13.496094 38.449219 14.839844 C 38.449219 16.828125 36.3125 17.75 34.792969 19.042969 C 34.421875 19.367188 34.195312 19.988281 33.675781 19.988281 C 33.351562 19.988281 33.101562 19.714844 33.101562 19.367188 Z M 33.101562 19.367188 "/>
<path style=" stroke:none;fill-rule:nonzero;fill:rgb(0%,0%,0%);fill-opacity:1;" d="M 40.875 10.875 L 41.1875 10.875 C 41.324219 10.875 41.433594 10.984375 41.433594 11.121094 L 41.433594 41.59375 C 41.433594 41.730469 41.324219 41.84375 41.1875 41.84375 L 40.875 41.84375 C 40.738281 41.84375 40.625 41.730469 40.625 41.59375 L 40.625 11.121094 C 40.625 10.984375 40.738281 10.875 40.875 10.875 Z M 40.875 10.875 "/>
<path style=" stroke:none;fill-rule:nonzero;fill:rgb(0%,0%,0%);fill-opacity:1;" d="M 23.390625 15.933594 C 23.390625 15.238281 23.960938 14.667969 24.65625 14.667969 C 25.355469 14.667969 25.925781 15.238281 25.925781 15.933594 C 25.925781 16.632812 25.355469 17.203125 24.65625 17.203125 C 23.960938 17.203125 23.390625 16.632812 23.390625 15.933594 Z M 23.390625 9.714844 C 23.390625 9.019531 23.960938 8.449219 24.65625 8.449219 C 25.355469 8.449219 25.925781 9.019531 25.925781 9.714844 C 25.925781 10.414062 25.355469 10.984375 24.65625 10.984375 C 23.960938 10.984375 23.390625 10.414062 23.390625 9.714844 Z M 15.304688 6.285156 C 19.585938 6.285156 22.59375 8.472656 22.59375 12.527344 C 22.59375 19.070312 16.050781 22.824219 9.757812 25.484375 C 9.683594 25.558594 9.609375 25.585938 9.535156 25.585938 C 9.363281 25.585938 9.210938 25.4375 9.210938 25.261719 C 9.210938 25.1875 9.238281 25.113281 9.3125 25.039062 C 14.335938 22.101562 19.558594 18.445312 19.558594 12.777344 C 19.558594 9.792969 17.992188 6.929688 15.304688 6.929688 C 13.464844 6.929688 12.097656 8.273438 11.476562 10.066406 C 11.75 9.941406 12.023438 9.867188 12.320312 9.867188 C 13.6875 9.867188 14.808594 10.984375 14.808594 12.351562 C 14.808594 13.796875 13.714844 14.988281 12.320312 14.988281 C 10.828125 14.988281 9.535156 13.820312 9.535156 12.351562 C 9.535156 9.042969 12.074219 6.285156 15.304688 6.285156 Z M 15.304688 6.285156 "/>
<path style=" stroke:none;fill-rule:nonzero;fill:rgb(0%,0%,0%);fill-opacity:1;" d="M 46.046875 6.332031 C 47.417969 6.332031 48.734375 7.03125 48.734375 8.546875 C 48.734375 10.3125 47.367188 11.558594 46.199219 12.253906 C 45.328125 12.777344 44.332031 13.097656 43.3125 13.097656 C 41.945312 13.097656 40.625 12.402344 40.625 10.886719 C 40.625 9.121094 41.996094 7.875 43.164062 7.179688 C 44.035156 6.65625 45.027344 6.332031 46.046875 6.332031 Z M 46.046875 6.332031 "/>
<path style=" stroke:none;fill-rule:nonzero;fill:rgb(0%,0%,0%);fill-opacity:1;" d="M 46.046875 12.550781 C 47.417969 12.550781 48.734375 13.25 48.734375 14.765625 C 48.734375 16.53125 47.367188 17.773438 46.199219 18.472656 C 45.328125 18.992188 44.332031 19.316406 43.3125 19.316406 C 41.945312 19.316406 40.625 18.621094 40.625 17.105469 C 40.625 15.335938 41.996094 14.09375 43.164062 13.398438 C 44.035156 12.875 45.027344 12.550781 46.046875 12.550781 Z M 46.046875 12.550781 "/>
<path style=" stroke:none;fill-rule:nonzero;fill:rgb(0%,0%,0%);fill-opacity:1;" d="M 46.046875 18.769531 C 47.417969 18.769531 48.734375 19.464844 48.734375 20.984375 C 48.734375 22.75 47.367188 23.992188 46.199219 24.691406 C 45.328125 25.210938 44.332031 25.535156 43.3125 25.535156 C 41.945312 25.535156 40.625 24.839844 40.625 23.320312 C 40.625 21.554688 41.996094 20.3125 43.164062 19.617188 C 44.035156 19.09375 45.027344 18.769531 46.046875 18.769531 Z M 46.046875 18.769531 "/>
</g>
</svg>
