<?xml version="1.0" encoding="UTF-8"?>
<svg xmlns="http://www.w3.org/2000/svg" xmlns:xlink="http://www.w3.org/1999/xlink" width="71.760022pt" height="61.666356pt" viewBox="0 0 71.760022 61.666356" version="1.1">
<g id="surface1">
<path style="fill:none;stroke-width:0.1;stroke-linecap:round;stroke-linejoin:round;stroke:rgb(0%,0%,0%);stroke-opacity:1;stroke-miterlimit:4;" d="M 0.049863 -0.000287501 L 9.24736 -0.000287501 " transform="matrix(6.218149,0,0,6.218149,4.561038,40.517413)"/>
<path style="fill:none;stroke-width:0.1;stroke-linecap:round;stroke-linejoin:round;stroke:rgb(0%,0%,0%);stroke-opacity:1;stroke-miterlimit:4;" d="M 0.049863 0.000244052 L 9.24736 0.000244052 " transform="matrix(6.218149,0,0,6.218149,4.561038,34.299264)"/>
<path style="fill:none;stroke-width:0.1;stroke-linecap:round;stroke-linejoin:round;stroke:rgb(0%,0%,0%);stroke-opacity:1;stroke-miterlimit:4;" d="M 0.049863 0.000147403 L 9.24736 0.000147403 " transform="matrix(6.218149,0,0,6.218149,4.561038,28.081115)"/>
<path style="fill:none;stroke-width:0.1;stroke-linecap:round;stroke-linejoin:round;stroke:rgb(0%,0%,0%);stroke-opacity:1;stroke-miterlimit:4;" d="M 0.049863 0.0000507548 L 9.24736 0.0000507548 " transform="matrix(6.218149,0,0,6.218149,4.561038,21.862966)"/>
<path style="fill:none;stroke-width:0.1;stroke-linecap:round;stroke-linejoin:round;stroke:rgb(0%,0%,0%);stroke-opacity:1;stroke-miterlimit:4;" d="M 0.049863 -0.0000458938 L 9.24736 -0.0000458938 " transform="matrix(6.218149,0,0,6.218149,4.561038,15.644817)"/>
<path style=" stroke:none;fill-rule:nonzero;fill:rgb(0%,0%,0%);fill-opacity:1;" d="M 43.953125 23.019531 L 44.265625 23.019531 C 44.402344 23.019531 44.511719 23.132812 44.511719 23.269531 L 44.511719 52.703125 C 44.511719 52.84375 44.402344 52.953125 44.265625 52.953125 L 43.953125 52.953125 C 43.816406 52.953125 43.703125 52.84375 43.703125 52.703125 L 43.703125 23.269531 C 43.703125 23.132812 43.816406 23.019531 43.953125 23.019531 Z M 43.953125 23.019531 "/>
<path style=" stroke:none;fill-rule:nonzero;fill:rgb(0%,0%,0%);fill-opacity:1;" d="M 37.226562 27.0625 L 37.199219 28.703125 L 37.199219 28.976562 C 37.199219 29.523438 37.226562 30.070312 37.300781 30.617188 C 38.417969 29.671875 39.613281 28.628906 39.613281 27.160156 C 39.613281 26.339844 39.265625 25.496094 38.542969 25.496094 C 37.773438 25.496094 37.25 26.242188 37.226562 27.0625 Z M 36.179688 31.511719 L 35.882812 16.714844 C 36.082031 16.589844 36.328125 16.515625 36.554688 16.515625 C 36.777344 16.515625 37.027344 16.589844 37.226562 16.714844 L 37.050781 25.296875 C 37.671875 24.773438 38.492188 24.449219 39.3125 24.449219 C 40.609375 24.449219 41.527344 25.644531 41.527344 26.988281 C 41.527344 28.976562 39.390625 29.898438 37.871094 31.191406 C 37.5 31.511719 37.273438 32.136719 36.753906 32.136719 C 36.429688 32.136719 36.179688 31.863281 36.179688 31.511719 Z M 36.179688 31.511719 "/>
<path style=" stroke:none;fill-rule:nonzero;fill:rgb(0%,0%,0%);fill-opacity:1;" d="M 30.632812 33.28125 L 30.609375 34.921875 L 30.609375 35.195312 C 30.609375 35.742188 30.632812 36.289062 30.707031 36.835938 C 31.828125 35.890625 33.023438 34.847656 33.023438 33.378906 C 33.023438 32.558594 32.671875 31.710938 31.953125 31.710938 C 31.179688 31.710938 30.660156 32.457031 30.632812 33.28125 Z M 29.589844 37.730469 L 29.289062 22.933594 C 29.488281 22.808594 29.738281 22.734375 29.960938 22.734375 C 30.1875 22.734375 30.433594 22.808594 30.632812 22.933594 L 30.460938 31.511719 C 31.082031 30.992188 31.902344 30.667969 32.722656 30.667969 C 34.015625 30.667969 34.9375 31.863281 34.9375 33.203125 C 34.9375 35.195312 32.796875 36.113281 31.28125 37.410156 C 30.90625 37.730469 30.683594 38.351562 30.160156 38.351562 C 29.835938 38.351562 29.589844 38.078125 29.589844 37.730469 Z M 29.589844 37.730469 "/>
<path style=" stroke:none;fill-rule:nonzero;fill:rgb(0%,0%,0%);fill-opacity:1;" d="M 16.152344 50.09375 L 16.003906 50.09375 C 13.316406 50.09375 11.152344 47.90625 11.152344 45.195312 C 11.152344 43.75 12.46875 42.632812 13.9375 42.632812 C 15.28125 42.632812 16.300781 43.800781 16.300781 45.195312 C 16.300781 46.488281 15.230469 47.554688 13.9375 47.554688 C 13.664062 47.554688 13.414062 47.507812 13.167969 47.40625 C 13.8125 48.378906 14.859375 49.023438 16.078125 49.023438 L 16.175781 49.023438 Z M 21 39.347656 C 22.691406 38.75 23.8125 36.984375 23.8125 35.269531 C 23.8125 33.03125 22.171875 30.816406 19.507812 30.542969 C 20.105469 33.429688 20.652344 36.289062 21 39.347656 Z M 11.375 33.601562 C 11.375 36.960938 14.585938 39.746094 17.941406 39.746094 C 18.640625 39.746094 19.308594 39.695312 19.980469 39.597656 C 19.632812 36.4375 19.0625 33.503906 18.414062 30.542969 C 16.449219 30.742188 15.332031 32.0625 15.332031 33.503906 C 15.332031 34.597656 15.953125 35.765625 17.34375 36.5625 C 17.46875 36.6875 17.519531 36.8125 17.519531 36.9375 C 17.519531 37.210938 17.269531 37.484375 16.972656 37.484375 C 16.898438 37.484375 16.824219 37.457031 16.75 37.433594 C 14.757812 36.363281 13.839844 34.574219 13.839844 32.832031 C 13.839844 30.644531 15.28125 28.503906 17.816406 27.933594 C 17.46875 26.488281 17.097656 25.023438 16.675781 23.578125 C 14.011719 26.589844 11.375 29.625 11.375 33.601562 Z M 17.867188 40.816406 C 13.191406 40.816406 9.585938 36.539062 9.585938 31.511719 C 9.585938 27.109375 12.84375 23.902344 15.753906 20.542969 C 15.28125 19.003906 14.832031 17.4375 14.632812 15.820312 C 14.484375 14.527344 14.460938 13.230469 14.460938 11.9375 C 14.460938 9.078125 15.828125 6.367188 18.167969 4.675781 C 18.316406 4.550781 18.515625 4.550781 18.664062 4.675781 C 20.429688 6.765625 21.972656 10.769531 21.972656 13.582031 C 21.972656 17.136719 19.832031 19.921875 17.496094 22.632812 C 18.015625 24.324219 18.464844 26.066406 18.886719 27.78125 C 18.988281 27.78125 19.113281 27.757812 19.210938 27.757812 C 23.066406 27.757812 25.578125 30.941406 25.578125 34.25 C 25.578125 36.140625 24.757812 38.078125 22.917969 39.472656 C 22.371094 39.894531 21.746094 40.167969 21.101562 40.367188 C 21.175781 41.238281 21.226562 42.109375 21.226562 42.980469 C 21.226562 43.453125 21.199219 43.949219 21.175781 44.421875 C 21 47.382812 18.988281 50.019531 16.152344 50.09375 L 16.175781 49.023438 C 18.488281 48.972656 19.980469 46.734375 20.132812 44.273438 C 20.15625 43.824219 20.179688 43.351562 20.179688 42.90625 C 20.179688 42.132812 20.15625 41.386719 20.082031 40.617188 C 19.359375 40.742188 18.640625 40.816406 17.867188 40.816406 Z M 20.179688 11.515625 C 20.179688 10.148438 20.082031 9.550781 19.683594 8.308594 C 17.222656 9.5 15.652344 12.011719 15.652344 14.75 C 15.652344 16.589844 16.101562 18.058594 16.550781 19.574219 C 18.539062 17.160156 20.179688 14.648438 20.179688 11.515625 Z M 20.179688 11.515625 "/>
<path style=" stroke:none;fill-rule:nonzero;fill:rgb(0%,0%,0%);fill-opacity:1;" d="M 49.125 18.480469 C 50.496094 18.480469 51.8125 19.175781 51.8125 20.695312 C 51.8125 22.460938 50.445312 23.703125 49.277344 24.398438 C 48.40625 24.921875 47.410156 25.246094 46.390625 25.246094 C 45.023438 25.246094 43.703125 24.550781 43.703125 23.03125 C 43.703125 21.265625 45.074219 20.023438 46.242188 19.324219 C 47.113281 18.804688 48.105469 18.480469 49.125 18.480469 Z M 49.125 18.480469 "/>
<path style=" stroke:none;fill-rule:nonzero;fill:rgb(0%,0%,0%);fill-opacity:1;" d="M 49.125 24.699219 C 50.496094 24.699219 51.8125 25.394531 51.8125 26.910156 C 51.8125 28.679688 50.445312 29.921875 49.277344 30.617188 C 48.40625 31.140625 47.410156 31.464844 46.390625 31.464844 C 45.023438 31.464844 43.703125 30.765625 43.703125 29.25 C 43.703125 27.484375 45.074219 26.242188 46.242188 25.542969 C 47.113281 25.023438 48.105469 24.699219 49.125 24.699219 Z M 49.125 24.699219 "/>
<path style=" stroke:none;fill-rule:nonzero;fill:rgb(0%,0%,0%);fill-opacity:1;" d="M 49.125 30.917969 C 50.496094 30.917969 51.8125 31.613281 51.8125 33.128906 C 51.8125 34.894531 50.445312 36.140625 49.277344 36.835938 C 48.40625 37.359375 47.410156 37.683594 46.390625 37.683594 C 45.023438 37.683594 43.703125 36.984375 43.703125 35.46875 C 43.703125 33.703125 45.074219 32.457031 46.242188 31.761719 C 47.113281 31.238281 48.105469 30.917969 49.125 30.917969 Z M 49.125 30.917969 "/>
</g>
</svg>
