<?xml version="1.0" encoding="UTF-8"?>
<svg xmlns="http://www.w3.org/2000/svg" xmlns:xlink="http://www.w3.org/1999/xlink" width="72.614154pt" height="57.501964pt" viewBox="0 0 72.614154 57.501964" version="1.1">
<g id="surface1">
<path style="fill:none;stroke-width:0.1;stroke-linecap:round;stroke-linejoin:round;stroke:rgb(0%,0%,0%);stroke-opacity:1;stroke-miterlimit:4;" d="M 0.049863 0.000136391 L 9.376141 0.000136391 " transform="matrix(6.218149,0,0,6.218149,4.561038,35.667121)"/>
<path style="fill:none;stroke-width:0.1;stroke-linecap:round;stroke-linejoin:round;stroke:rgb(0%,0%,0%);stroke-opacity:1;stroke-miterlimit:4;" d="M 0.049863 0.0000397429 L 9.376141 0.0000397429 " transform="matrix(6.218149,0,0,6.218149,4.561038,29.448972)"/>
<path style="fill:none;stroke-width:0.1;stroke-linecap:round;stroke-linejoin:round;stroke:rgb(0%,0%,0%);stroke-opacity:1;stroke-miterlimit:4;" d="M 0.049863 -0.0000569057 L 9.376141 -0.0000569057 " transform="matrix(6.218149,0,0,6.218149,4.561038,23.230823)"/>
<path style="fill:none;stroke-width:0.1;stroke-linecap:round;stroke-linejoin:round;stroke:rgb(0%,0%,0%);stroke-opacity:1;stroke-miterlimit:4;" d="M 0.049863 -0.000153554 L 9.376141 -0.000153554 " transform="matrix(6.218149,0,0,6.218149,4.561038,17.012674)"/>
<path style="fill:none;stroke-width:0.1;stroke-linecap:round;stroke-linejoin:round;stroke:rgb(0%,0%,0%);stroke-opacity:1;stroke-miterlimit:4;" d="M 0.049863 -0.000250203 L 9.376141 -0.000250203 " transform="matrix(6.218149,0,0,6.218149,4.561038,10.794525)"/>
<path style=" stroke:none;fill-rule:nonzero;fill:rgb(0%,0%,0%);fill-opacity:1;" d="M 44.039062 41.261719 L 54.019531 41.261719 C 54.363281 41.261719 54.640625 41.542969 54.640625 41.886719 C 54.640625 42.230469 54.363281 42.507812 54.019531 42.507812 L 44.039062 42.507812 C 43.695312 42.507812 43.414062 42.230469 43.414062 41.886719 C 43.414062 41.542969 43.695312 41.261719 44.039062 41.261719 Z M 44.039062 41.261719 "/>
<path style=" stroke:none;fill-rule:nonzero;fill:rgb(0%,0%,0%);fill-opacity:1;" d="M 52.054688 4.578125 L 52.363281 4.578125 C 52.503906 4.578125 52.613281 4.6875 52.613281 4.824219 L 52.613281 43.589844 C 52.613281 43.726562 52.503906 43.835938 52.363281 43.835938 L 52.054688 43.835938 C 51.917969 43.835938 51.804688 43.726562 51.804688 43.589844 L 51.804688 4.824219 C 51.804688 4.6875 51.917969 4.578125 52.054688 4.578125 Z M 52.054688 4.578125 "/>
<path style=" stroke:none;fill-rule:nonzero;fill:rgb(0%,0%,0%);fill-opacity:1;" d="M 38.023438 25.320312 L 38 26.960938 L 38 27.234375 C 38 27.78125 38.023438 28.328125 38.097656 28.875 C 39.21875 27.933594 40.414062 26.886719 40.414062 25.417969 C 40.414062 24.597656 40.0625 23.753906 39.34375 23.753906 C 38.570312 23.753906 38.050781 24.5 38.023438 25.320312 Z M 36.980469 29.773438 L 36.679688 14.972656 C 36.878906 14.847656 37.128906 14.773438 37.351562 14.773438 C 37.578125 14.773438 37.824219 14.847656 38.023438 14.972656 L 37.851562 23.554688 C 38.472656 23.03125 39.292969 22.707031 40.113281 22.707031 C 41.40625 22.707031 42.328125 23.902344 42.328125 25.246094 C 42.328125 27.234375 40.1875 28.15625 38.671875 29.449219 C 38.296875 29.773438 38.074219 30.394531 37.550781 30.394531 C 37.230469 30.394531 36.980469 30.121094 36.980469 29.773438 Z M 36.980469 29.773438 "/>
<path style=" stroke:none;fill-rule:nonzero;fill:rgb(0%,0%,0%);fill-opacity:1;" d="M 31.371094 31.539062 L 31.34375 33.179688 L 31.34375 33.453125 C 31.34375 34 31.371094 34.546875 31.445312 35.09375 C 32.5625 34.148438 33.757812 33.105469 33.757812 31.636719 C 33.757812 30.816406 33.410156 29.972656 32.6875 29.972656 C 31.917969 29.972656 31.394531 30.71875 31.371094 31.539062 Z M 30.324219 35.992188 L 30.027344 21.191406 C 30.226562 21.066406 30.472656 20.992188 30.699219 20.992188 C 30.921875 20.992188 31.171875 21.066406 31.371094 21.191406 L 31.195312 29.773438 C 31.816406 29.25 32.636719 28.925781 33.460938 28.925781 C 34.753906 28.925781 35.671875 30.121094 35.671875 31.464844 C 35.671875 33.453125 33.535156 34.375 32.015625 35.667969 C 31.644531 35.992188 31.417969 36.613281 30.898438 36.613281 C 30.574219 36.613281 30.324219 36.339844 30.324219 35.992188 Z M 30.324219 35.992188 "/>
<path style=" stroke:none;fill-rule:nonzero;fill:rgb(0%,0%,0%);fill-opacity:1;" d="M 38.023438 43.972656 L 38 45.617188 L 38 45.890625 C 38 46.4375 38.023438 46.984375 38.097656 47.53125 C 39.21875 46.585938 40.414062 45.542969 40.414062 44.074219 C 40.414062 43.253906 40.0625 42.40625 39.34375 42.40625 C 38.570312 42.40625 38.050781 43.152344 38.023438 43.972656 Z M 36.980469 48.425781 L 36.679688 33.628906 C 36.878906 33.503906 37.128906 33.429688 37.351562 33.429688 C 37.578125 33.429688 37.824219 33.503906 38.023438 33.628906 L 37.851562 42.207031 C 38.472656 41.6875 39.292969 41.363281 40.113281 41.363281 C 41.40625 41.363281 42.328125 42.558594 42.328125 43.898438 C 42.328125 45.890625 40.1875 46.808594 38.671875 48.101562 C 38.296875 48.425781 38.074219 49.046875 37.550781 49.046875 C 37.230469 49.046875 36.980469 48.773438 36.980469 48.425781 Z M 36.980469 48.425781 "/>
<path style=" stroke:none;fill-rule:nonzero;fill:rgb(0%,0%,0%);fill-opacity:1;" d="M 23.390625 20.121094 C 23.390625 19.425781 23.960938 18.851562 24.65625 18.851562 C 25.355469 18.851562 25.925781 19.425781 25.925781 20.121094 C 25.925781 20.816406 25.355469 21.390625 24.65625 21.390625 C 23.960938 21.390625 23.390625 20.816406 23.390625 20.121094 Z M 23.390625 13.902344 C 23.390625 13.207031 23.960938 12.636719 24.65625 12.636719 C 25.355469 12.636719 25.925781 13.207031 25.925781 13.902344 C 25.925781 14.601562 25.355469 15.171875 24.65625 15.171875 C 23.960938 15.171875 23.390625 14.601562 23.390625 13.902344 Z M 15.304688 10.472656 C 19.585938 10.472656 22.59375 12.660156 22.59375 16.714844 C 22.59375 23.253906 16.050781 27.011719 9.757812 29.671875 C 9.683594 29.746094 9.609375 29.773438 9.535156 29.773438 C 9.363281 29.773438 9.210938 29.625 9.210938 29.449219 C 9.210938 29.375 9.238281 29.300781 9.3125 29.226562 C 14.335938 26.289062 19.558594 22.632812 19.558594 16.964844 C 19.558594 13.976562 17.992188 11.117188 15.304688 11.117188 C 13.464844 11.117188 12.097656 12.460938 11.476562 14.25 C 11.75 14.128906 12.023438 14.054688 12.320312 14.054688 C 13.6875 14.054688 14.808594 15.171875 14.808594 16.539062 C 14.808594 17.984375 13.714844 19.175781 12.320312 19.175781 C 10.828125 19.175781 9.535156 18.007812 9.535156 16.539062 C 9.535156 13.230469 12.074219 10.472656 15.304688 10.472656 Z M 15.304688 10.472656 "/>
<path style=" stroke:none;fill-rule:nonzero;fill:rgb(0%,0%,0%);fill-opacity:1;" d="M 49.925781 22.957031 C 51.292969 22.957031 52.613281 23.652344 52.613281 25.171875 C 52.613281 26.9375 51.246094 28.179688 50.074219 28.875 C 49.203125 29.398438 48.210938 29.722656 47.191406 29.722656 C 45.820312 29.722656 44.503906 29.027344 44.503906 27.507812 C 44.503906 25.742188 45.871094 24.5 47.039062 23.804688 C 47.910156 23.28125 48.90625 22.957031 49.925781 22.957031 Z M 49.925781 22.957031 "/>
<path style=" stroke:none;fill-rule:nonzero;fill:rgb(0%,0%,0%);fill-opacity:1;" d="M 49.925781 29.175781 C 51.292969 29.175781 52.613281 29.871094 52.613281 31.390625 C 52.613281 33.15625 51.246094 34.398438 50.074219 35.09375 C 49.203125 35.617188 48.210938 35.941406 47.191406 35.941406 C 45.820312 35.941406 44.503906 35.246094 44.503906 33.726562 C 44.503906 31.960938 45.871094 30.71875 47.039062 30.019531 C 47.910156 29.5 48.90625 29.175781 49.925781 29.175781 Z M 49.925781 29.175781 "/>
<path style=" stroke:none;fill-rule:nonzero;fill:rgb(0%,0%,0%);fill-opacity:1;" d="M 49.925781 35.394531 C 51.292969 35.394531 52.613281 36.089844 52.613281 37.605469 C 52.613281 39.375 51.246094 40.617188 50.074219 41.3125 C 49.203125 41.835938 48.210938 42.160156 47.191406 42.160156 C 45.820312 42.160156 44.503906 41.460938 44.503906 39.945312 C 44.503906 38.179688 45.871094 36.9375 47.039062 36.238281 C 47.910156 35.71875 48.90625 35.394531 49.925781 35.394531 Z M 49.925781 35.394531 "/>
<path style=" stroke:none;fill-rule:nonzero;fill:rgb(0%,0%,0%);fill-opacity:1;" d="M 49.925781 41.613281 C 51.292969 41.613281 52.613281 42.308594 52.613281 43.824219 C 52.613281 45.589844 51.246094 46.835938 50.074219 47.53125 C 49.203125 48.054688 48.210938 48.378906 47.191406 48.378906 C 45.820312 48.378906 44.503906 47.679688 44.503906 46.164062 C 44.503906 44.398438 45.871094 43.152344 47.039062 42.457031 C 47.910156 41.933594 48.90625 41.613281 49.925781 41.613281 Z M 49.925781 41.613281 "/>
</g>
</svg>
