<?xml version="1.0" encoding="UTF-8"?>
<svg xmlns="http://www.w3.org/2000/svg" xmlns:xlink="http://www.w3.org/1999/xlink" width="71.82843pt" height="75.753558pt" viewBox="0 0 71.82843 75.753558" version="1.1">
<g id="surface1">
<path style="fill:none;stroke-width:0.1;stroke-linecap:round;stroke-linejoin:round;stroke:rgb(0%,0%,0%);stroke-opacity:1;stroke-miterlimit:4;" d="M 0.049863 -0.000242111 L 9.257411 -0.000242111 " transform="matrix(6.218149,0,0,6.218149,4.561038,56.560099)"/>
<path style="fill:none;stroke-width:0.1;stroke-linecap:round;stroke-linejoin:round;stroke:rgb(0%,0%,0%);stroke-opacity:1;stroke-miterlimit:4;" d="M 0.049863 0.000289441 L 9.257411 0.000289441 " transform="matrix(6.218149,0,0,6.218149,4.561038,50.34195)"/>
<path style="fill:none;stroke-width:0.1;stroke-linecap:round;stroke-linejoin:round;stroke:rgb(0%,0%,0%);stroke-opacity:1;stroke-miterlimit:4;" d="M 0.049863 0.000192316 L 9.257411 0.000192316 " transform="matrix(6.218149,0,0,6.218149,4.561038,44.123804)"/>
<path style="fill:none;stroke-width:0.1;stroke-linecap:round;stroke-linejoin:round;stroke:rgb(0%,0%,0%);stroke-opacity:1;stroke-miterlimit:4;" d="M 0.049863 0.0000956673 L 9.257411 0.0000956673 " transform="matrix(6.218149,0,0,6.218149,4.561038,37.905655)"/>
<path style="fill:none;stroke-width:0.1;stroke-linecap:round;stroke-linejoin:round;stroke:rgb(0%,0%,0%);stroke-opacity:1;stroke-miterlimit:4;" d="M 0.049863 -0.000000981293 L 9.257411 -0.000000981293 " transform="matrix(6.218149,0,0,6.218149,4.561038,31.687506)"/>
<path style=" stroke:none;fill-rule:nonzero;fill:rgb(0%,0%,0%);fill-opacity:1;" d="M 43.300781 18.628906 L 53.285156 18.628906 C 53.628906 18.628906 53.90625 18.90625 53.90625 19.25 C 53.90625 19.59375 53.628906 19.871094 53.285156 19.871094 L 43.300781 19.871094 C 42.957031 19.871094 42.679688 19.59375 42.679688 19.25 C 42.679688 18.90625 42.957031 18.628906 43.300781 18.628906 Z M 43.300781 18.628906 "/>
<path style=" stroke:none;fill-rule:nonzero;fill:rgb(0%,0%,0%);fill-opacity:1;" d="M 42.363281 24.847656 L 53.285156 24.847656 C 53.625 24.847656 53.90625 25.125 53.90625 25.46875 C 53.90625 25.8125 53.625 26.089844 53.285156 26.089844 L 42.363281 26.089844 C 42.019531 26.089844 41.742188 25.8125 41.742188 25.46875 C 41.742188 25.125 42.019531 24.847656 42.363281 24.847656 Z M 42.363281 24.847656 "/>
<path style=" stroke:none;fill-rule:nonzero;fill:rgb(0%,0%,0%);fill-opacity:1;" d="M 44.015625 17.300781 L 44.328125 17.300781 C 44.464844 17.300781 44.578125 17.410156 44.578125 17.546875 L 44.578125 56.3125 C 44.578125 56.449219 44.464844 56.558594 44.328125 56.558594 L 44.015625 56.558594 C 43.878906 56.558594 43.769531 56.449219 43.769531 56.3125 L 43.769531 17.546875 C 43.769531 17.410156 43.878906 17.300781 44.015625 17.300781 Z M 44.015625 17.300781 "/>
<path style=" stroke:none;fill-rule:nonzero;fill:rgb(0%,0%,0%);fill-opacity:1;" d="M 37.289062 15.121094 L 37.265625 16.765625 L 37.265625 17.039062 C 37.265625 17.585938 37.289062 18.132812 37.363281 18.679688 C 38.484375 17.734375 39.675781 16.6875 39.675781 15.222656 C 39.675781 14.402344 39.328125 13.554688 38.605469 13.554688 C 37.835938 13.554688 37.3125 14.300781 37.289062 15.121094 Z M 36.246094 19.574219 L 35.945312 4.773438 C 36.144531 4.652344 36.394531 4.578125 36.617188 4.578125 C 36.839844 4.578125 37.089844 4.652344 37.289062 4.773438 L 37.113281 13.355469 C 37.738281 12.835938 38.558594 12.511719 39.378906 12.511719 C 40.671875 12.511719 41.59375 13.703125 41.59375 15.046875 C 41.59375 17.039062 39.453125 17.957031 37.9375 19.25 C 37.5625 19.574219 37.339844 20.195312 36.816406 20.195312 C 36.492188 20.195312 36.246094 19.921875 36.246094 19.574219 Z M 36.246094 19.574219 "/>
<path style=" stroke:none;fill-rule:nonzero;fill:rgb(0%,0%,0%);fill-opacity:1;" d="M 30.632812 21.339844 L 30.609375 22.980469 L 30.609375 23.253906 C 30.609375 23.804688 30.632812 24.351562 30.707031 24.898438 C 31.828125 23.953125 33.023438 22.90625 33.023438 21.441406 C 33.023438 20.621094 32.671875 19.773438 31.953125 19.773438 C 31.179688 19.773438 30.660156 20.519531 30.632812 21.339844 Z M 29.589844 25.792969 L 29.289062 10.992188 C 29.488281 10.871094 29.738281 10.792969 29.960938 10.792969 C 30.1875 10.792969 30.433594 10.871094 30.632812 10.992188 L 30.460938 19.574219 C 31.082031 19.050781 31.902344 18.730469 32.722656 18.730469 C 34.015625 18.730469 34.9375 19.921875 34.9375 21.265625 C 34.9375 23.253906 32.796875 24.175781 31.28125 25.46875 C 30.90625 25.792969 30.683594 26.414062 30.160156 26.414062 C 29.835938 26.414062 29.589844 26.140625 29.589844 25.792969 Z M 29.589844 25.792969 "/>
<path style=" stroke:none;fill-rule:nonzero;fill:rgb(0%,0%,0%);fill-opacity:1;" d="M 37.289062 33.777344 L 37.265625 35.417969 L 37.265625 35.691406 C 37.265625 36.238281 37.289062 36.785156 37.363281 37.332031 C 38.484375 36.386719 39.675781 35.34375 39.675781 33.875 C 39.675781 33.054688 39.328125 32.210938 38.605469 32.210938 C 37.835938 32.210938 37.3125 32.957031 37.289062 33.777344 Z M 36.246094 38.230469 L 35.945312 23.429688 C 36.144531 23.304688 36.394531 23.230469 36.617188 23.230469 C 36.839844 23.230469 37.089844 23.304688 37.289062 23.429688 L 37.113281 32.011719 C 37.738281 31.488281 38.558594 31.164062 39.378906 31.164062 C 40.671875 31.164062 41.59375 32.359375 41.59375 33.703125 C 41.59375 35.691406 39.453125 36.613281 37.9375 37.90625 C 37.5625 38.230469 37.339844 38.851562 36.816406 38.851562 C 36.492188 38.851562 36.246094 38.578125 36.246094 38.230469 Z M 36.246094 38.230469 "/>
<path style=" stroke:none;fill-rule:nonzero;fill:rgb(0%,0%,0%);fill-opacity:1;" d="M 16.152344 66.136719 L 16.003906 66.136719 C 13.316406 66.136719 11.152344 63.945312 11.152344 61.234375 C 11.152344 59.792969 12.46875 58.675781 13.9375 58.675781 C 15.28125 58.675781 16.300781 59.84375 16.300781 61.234375 C 16.300781 62.53125 15.230469 63.597656 13.9375 63.597656 C 13.664062 63.597656 13.414062 63.550781 13.167969 63.449219 C 13.8125 64.417969 14.859375 65.066406 16.078125 65.066406 L 16.175781 65.066406 Z M 21 55.390625 C 22.691406 54.792969 23.8125 53.027344 23.8125 51.3125 C 23.8125 49.074219 22.171875 46.859375 19.507812 46.585938 C 20.105469 49.472656 20.652344 52.332031 21 55.390625 Z M 11.375 49.644531 C 11.375 53.003906 14.585938 55.789062 17.941406 55.789062 C 18.640625 55.789062 19.308594 55.738281 19.980469 55.640625 C 19.632812 52.480469 19.0625 49.546875 18.414062 46.585938 C 16.449219 46.785156 15.332031 48.101562 15.332031 49.546875 C 15.332031 50.640625 15.953125 51.808594 17.34375 52.605469 C 17.46875 52.730469 17.519531 52.855469 17.519531 52.976562 C 17.519531 53.253906 17.269531 53.527344 16.972656 53.527344 C 16.898438 53.527344 16.824219 53.5 16.75 53.476562 C 14.757812 52.40625 13.839844 50.617188 13.839844 48.875 C 13.839844 46.6875 15.28125 44.546875 17.816406 43.972656 C 17.46875 42.53125 17.097656 41.066406 16.675781 39.621094 C 14.011719 42.632812 11.375 45.664062 11.375 49.644531 Z M 17.867188 56.859375 C 13.191406 56.859375 9.585938 52.582031 9.585938 47.554688 C 9.585938 43.152344 12.84375 39.945312 15.753906 36.585938 C 15.28125 35.046875 14.832031 33.476562 14.632812 31.863281 C 14.484375 30.566406 14.460938 29.273438 14.460938 27.980469 C 14.460938 25.121094 15.828125 22.410156 18.167969 20.71875 C 18.316406 20.59375 18.515625 20.59375 18.664062 20.71875 C 20.429688 22.808594 21.972656 26.8125 21.972656 29.625 C 21.972656 33.179688 19.832031 35.964844 17.496094 38.675781 C 18.015625 40.367188 18.464844 42.109375 18.886719 43.824219 C 18.988281 43.824219 19.113281 43.800781 19.210938 43.800781 C 23.066406 43.800781 25.578125 46.984375 25.578125 50.292969 C 25.578125 52.183594 24.757812 54.121094 22.917969 55.515625 C 22.371094 55.9375 21.746094 56.210938 21.101562 56.410156 C 21.175781 57.28125 21.226562 58.152344 21.226562 59.023438 C 21.226562 59.496094 21.199219 59.992188 21.175781 60.464844 C 21 63.425781 18.988281 66.0625 16.152344 66.136719 L 16.175781 65.066406 C 18.488281 65.015625 19.980469 62.777344 20.132812 60.316406 C 20.15625 59.867188 20.179688 59.394531 20.179688 58.949219 C 20.179688 58.175781 20.15625 57.429688 20.082031 56.660156 C 19.359375 56.785156 18.640625 56.859375 17.867188 56.859375 Z M 20.179688 27.558594 C 20.179688 26.191406 20.082031 25.59375 19.683594 24.351562 C 17.222656 25.542969 15.652344 28.054688 15.652344 30.792969 C 15.652344 32.632812 16.101562 34.101562 16.550781 35.617188 C 18.539062 33.203125 20.179688 30.691406 20.179688 27.558594 Z M 20.179688 27.558594 "/>
<path style=" stroke:none;fill-rule:nonzero;fill:rgb(0%,0%,0%);fill-opacity:1;" d="M 49.191406 12.757812 C 50.558594 12.757812 51.875 13.457031 51.875 14.972656 C 51.875 16.738281 50.507812 17.984375 49.339844 18.679688 C 48.46875 19.203125 47.472656 19.523438 46.453125 19.523438 C 45.085938 19.523438 43.769531 18.828125 43.769531 17.3125 C 43.769531 15.546875 45.136719 14.300781 46.304688 13.605469 C 47.175781 13.082031 48.171875 12.757812 49.191406 12.757812 Z M 49.191406 12.757812 "/>
<path style=" stroke:none;fill-rule:nonzero;fill:rgb(0%,0%,0%);fill-opacity:1;" d="M 49.191406 18.976562 C 50.558594 18.976562 51.875 19.675781 51.875 21.191406 C 51.875 22.957031 50.507812 24.199219 49.339844 24.898438 C 48.46875 25.417969 47.472656 25.742188 46.453125 25.742188 C 45.085938 25.742188 43.769531 25.046875 43.769531 23.527344 C 43.769531 21.761719 45.136719 20.519531 46.304688 19.824219 C 47.175781 19.300781 48.171875 18.976562 49.191406 18.976562 Z M 49.191406 18.976562 "/>
<path style=" stroke:none;fill-rule:nonzero;fill:rgb(0%,0%,0%);fill-opacity:1;" d="M 49.191406 25.195312 C 50.558594 25.195312 51.875 25.890625 51.875 27.410156 C 51.875 29.175781 50.507812 30.417969 49.339844 31.117188 C 48.46875 31.636719 47.472656 31.960938 46.453125 31.960938 C 45.085938 31.960938 43.769531 31.265625 43.769531 29.746094 C 43.769531 27.980469 45.136719 26.738281 46.304688 26.042969 C 47.175781 25.519531 48.171875 25.195312 49.191406 25.195312 Z M 49.191406 25.195312 "/>
<path style=" stroke:none;fill-rule:nonzero;fill:rgb(0%,0%,0%);fill-opacity:1;" d="M 49.191406 31.414062 C 50.558594 31.414062 51.875 32.109375 51.875 33.628906 C 51.875 35.394531 50.507812 36.636719 49.339844 37.332031 C 48.46875 37.855469 47.472656 38.179688 46.453125 38.179688 C 45.085938 38.179688 43.769531 37.484375 43.769531 35.964844 C 43.769531 34.199219 45.136719 32.957031 46.304688 32.257812 C 47.175781 31.738281 48.171875 31.414062 49.191406 31.414062 Z M 49.191406 31.414062 "/>
</g>
</svg>
