<?xml version="1.0" encoding="UTF-8"?>
<svg xmlns="http://www.w3.org/2000/svg" xmlns:xlink="http://www.w3.org/1999/xlink" width="87.368186pt" height="62.027005pt" viewBox="0 0 87.368186 62.027005" version="1.1">
<g id="surface1">
<path style="fill:none;stroke-width:0.1;stroke-linecap:round;stroke-linejoin:round;stroke:rgb(0%,0%,0%);stroke-opacity:1;stroke-miterlimit:4;" d="M 0.049863 0.000281364 L 11.597461 0.000281364 " transform="matrix(6.218149,0,0,6.218149,4.561038,44.994344)"/>
<path style="fill:none;stroke-width:0.1;stroke-linecap:round;stroke-linejoin:round;stroke:rgb(0%,0%,0%);stroke-opacity:1;stroke-miterlimit:4;" d="M 0.049863 0.000184716 L 11.597461 0.000184716 " transform="matrix(6.218149,0,0,6.218149,4.561038,38.776195)"/>
<path style="fill:none;stroke-width:0.1;stroke-linecap:round;stroke-linejoin:round;stroke:rgb(0%,0%,0%);stroke-opacity:1;stroke-miterlimit:4;" d="M 0.049863 0.0000880672 L 11.597461 0.0000880672 " transform="matrix(6.218149,0,0,6.218149,4.561038,32.558046)"/>
<path style="fill:none;stroke-width:0.1;stroke-linecap:round;stroke-linejoin:round;stroke:rgb(0%,0%,0%);stroke-opacity:1;stroke-miterlimit:4;" d="M 0.049863 -0.00000858141 L 11.597461 -0.00000858141 " transform="matrix(6.218149,0,0,6.218149,4.561038,26.339897)"/>
<path style="fill:none;stroke-width:0.1;stroke-linecap:round;stroke-linejoin:round;stroke:rgb(0%,0%,0%);stroke-opacity:1;stroke-miterlimit:4;" d="M 0.049863 -0.00010523 L 11.597461 -0.00010523 " transform="matrix(6.218149,0,0,6.218149,4.561038,20.121748)"/>
<path style=" stroke:none;fill-rule:nonzero;fill:rgb(0%,0%,0%);fill-opacity:1;" d="M 57.851562 13.28125 L 67.832031 13.28125 C 68.175781 13.28125 68.453125 13.558594 68.453125 13.902344 C 68.453125 14.246094 68.175781 14.527344 67.832031 14.527344 L 57.851562 14.527344 C 57.507812 14.527344 57.230469 14.246094 57.230469 13.902344 C 57.230469 13.558594 57.507812 13.28125 57.851562 13.28125 Z M 57.851562 13.28125 "/>
<path style=" stroke:none;fill-rule:nonzero;fill:rgb(0%,0%,0%);fill-opacity:1;" d="M 58.566406 15.0625 L 58.878906 15.0625 C 59.015625 15.0625 59.125 15.171875 59.125 15.308594 L 59.125 53.035156 C 59.125 53.171875 59.015625 53.285156 58.878906 53.285156 L 58.566406 53.285156 C 58.429688 53.285156 58.316406 53.171875 58.316406 53.035156 L 58.316406 15.308594 C 58.316406 15.171875 58.429688 15.0625 58.566406 15.0625 Z M 58.566406 15.0625 "/>
<path style=" stroke:none;fill-rule:nonzero;fill:rgb(0%,0%,0%);fill-opacity:1;" d="M 54.671875 21.664062 C 54.671875 21.914062 54.476562 22.136719 54.226562 22.136719 C 53.976562 22.136719 53.753906 21.914062 53.753906 21.664062 L 53.753906 18.058594 L 51.6875 18.828125 L 51.6875 22.757812 C 51.6875 23.007812 51.464844 23.230469 51.214844 23.230469 C 50.96875 23.230469 50.769531 23.007812 50.769531 22.757812 L 50.769531 19.152344 L 49.972656 19.449219 C 49.921875 19.476562 49.847656 19.476562 49.796875 19.476562 C 49.523438 19.476562 49.300781 19.25 49.300781 18.976562 L 49.300781 17.484375 C 49.300781 17.285156 49.425781 17.085938 49.625 17.011719 L 50.769531 16.613281 L 50.769531 12.636719 L 49.972656 12.910156 C 49.921875 12.933594 49.847656 12.933594 49.796875 12.933594 C 49.523438 12.933594 49.300781 12.710938 49.300781 12.4375 L 49.300781 10.945312 C 49.300781 10.746094 49.425781 10.570312 49.625 10.496094 L 50.769531 10.074219 L 50.769531 6.144531 C 50.769531 5.894531 50.96875 5.671875 51.214844 5.671875 C 51.464844 5.671875 51.6875 5.894531 51.6875 6.144531 L 51.6875 9.75 L 53.753906 8.980469 L 53.753906 5.050781 C 53.753906 4.800781 53.976562 4.578125 54.226562 4.578125 C 54.476562 4.578125 54.671875 4.800781 54.671875 5.050781 L 54.671875 8.65625 L 55.46875 8.355469 C 55.519531 8.332031 55.59375 8.332031 55.644531 8.332031 C 55.917969 8.332031 56.140625 8.554688 56.140625 8.828125 L 56.140625 10.320312 C 56.140625 10.519531 56.015625 10.71875 55.816406 10.792969 L 54.671875 11.191406 L 54.671875 15.171875 L 55.46875 14.898438 C 55.519531 14.875 55.59375 14.875 55.644531 14.875 C 55.917969 14.875 56.140625 15.097656 56.140625 15.371094 L 56.140625 16.863281 C 56.140625 17.0625 56.015625 17.238281 55.816406 17.3125 L 54.671875 17.734375 Z M 51.6875 12.285156 L 51.6875 16.265625 L 53.753906 15.519531 L 53.753906 11.539062 Z M 51.6875 12.285156 "/>
<path style=" stroke:none;fill-rule:nonzero;fill:rgb(0%,0%,0%);fill-opacity:1;" d="M 43.082031 27.882812 C 43.082031 28.128906 42.882812 28.355469 42.636719 28.355469 C 42.386719 28.355469 42.164062 28.128906 42.164062 27.882812 L 42.164062 24.277344 L 40.097656 25.046875 L 40.097656 28.976562 C 40.097656 29.226562 39.875 29.449219 39.625 29.449219 C 39.378906 29.449219 39.179688 29.226562 39.179688 28.976562 L 39.179688 25.371094 L 38.382812 25.667969 C 38.332031 25.691406 38.257812 25.691406 38.207031 25.691406 C 37.933594 25.691406 37.710938 25.46875 37.710938 25.195312 L 37.710938 23.703125 C 37.710938 23.503906 37.835938 23.304688 38.035156 23.230469 L 39.179688 22.832031 L 39.179688 18.851562 L 38.382812 19.125 C 38.332031 19.152344 38.257812 19.152344 38.207031 19.152344 C 37.933594 19.152344 37.710938 18.929688 37.710938 18.652344 L 37.710938 17.160156 C 37.710938 16.964844 37.835938 16.789062 38.035156 16.714844 L 39.179688 16.292969 L 39.179688 12.363281 C 39.179688 12.113281 39.378906 11.890625 39.625 11.890625 C 39.875 11.890625 40.097656 12.113281 40.097656 12.363281 L 40.097656 15.96875 L 42.164062 15.195312 L 42.164062 11.265625 C 42.164062 11.019531 42.386719 10.792969 42.636719 10.792969 C 42.882812 10.792969 43.082031 11.019531 43.082031 11.265625 L 43.082031 14.875 L 43.878906 14.574219 C 43.929688 14.550781 44.003906 14.550781 44.054688 14.550781 C 44.328125 14.550781 44.550781 14.773438 44.550781 15.046875 L 44.550781 16.539062 C 44.550781 16.738281 44.425781 16.9375 44.226562 17.011719 L 43.082031 17.410156 L 43.082031 21.390625 L 43.878906 21.117188 C 43.929688 21.089844 44.003906 21.089844 44.054688 21.089844 C 44.328125 21.089844 44.550781 21.316406 44.550781 21.589844 L 44.550781 23.082031 C 44.550781 23.28125 44.425781 23.453125 44.226562 23.527344 L 43.082031 23.953125 Z M 40.097656 18.503906 L 40.097656 22.484375 L 42.164062 21.738281 L 42.164062 17.757812 Z M 40.097656 18.503906 "/>
<path style=" stroke:none;fill-rule:nonzero;fill:rgb(0%,0%,0%);fill-opacity:1;" d="M 33.734375 26.339844 C 34.304688 26.910156 35.125 27.035156 35.945312 27.035156 C 36.097656 27.035156 36.195312 27.136719 36.195312 27.285156 L 36.417969 29.449219 C 36.445312 29.597656 36.320312 29.722656 36.171875 29.699219 L 34.007812 29.472656 C 33.882812 29.449219 33.757812 29.347656 33.757812 29.226562 C 33.757812 28.40625 33.632812 27.582031 33.0625 27.011719 C 32.488281 27.582031 32.390625 28.40625 32.390625 29.226562 C 32.390625 29.347656 32.265625 29.449219 32.140625 29.472656 L 29.953125 29.699219 C 29.804688 29.722656 29.679688 29.597656 29.703125 29.449219 L 29.925781 27.285156 C 29.925781 27.136719 30.027344 27.035156 30.175781 27.035156 C 30.996094 27.035156 31.816406 26.910156 32.390625 26.339844 C 31.816406 25.769531 30.996094 25.644531 30.175781 25.644531 C 30.027344 25.644531 29.925781 25.542969 29.925781 25.394531 L 29.703125 23.230469 C 29.679688 23.082031 29.804688 22.957031 29.953125 22.980469 L 32.140625 23.207031 C 32.265625 23.230469 32.363281 23.332031 32.363281 23.453125 C 32.363281 24.277344 32.488281 25.097656 33.0625 25.667969 C 33.632812 25.097656 33.757812 24.277344 33.757812 23.453125 C 33.757812 23.332031 33.882812 23.230469 34.007812 23.207031 L 36.171875 22.980469 C 36.320312 22.957031 36.445312 23.082031 36.417969 23.230469 L 36.195312 25.394531 C 36.195312 25.542969 36.097656 25.644531 35.945312 25.644531 C 35.125 25.644531 34.304688 25.769531 33.734375 26.339844 Z M 33.734375 26.339844 "/>
<path style=" stroke:none;fill-rule:nonzero;fill:rgb(0%,0%,0%);fill-opacity:1;" d="M 49.523438 40.316406 C 49.523438 40.566406 49.324219 40.789062 49.078125 40.789062 C 48.828125 40.789062 48.605469 40.566406 48.605469 40.316406 L 48.605469 36.710938 L 46.539062 37.484375 L 46.539062 41.414062 C 46.539062 41.660156 46.316406 41.886719 46.066406 41.886719 C 45.820312 41.886719 45.621094 41.660156 45.621094 41.414062 L 45.621094 37.804688 L 44.824219 38.105469 C 44.773438 38.128906 44.699219 38.128906 44.648438 38.128906 C 44.375 38.128906 44.152344 37.90625 44.152344 37.632812 L 44.152344 36.140625 C 44.152344 35.941406 44.277344 35.742188 44.476562 35.667969 L 45.621094 35.269531 L 45.621094 31.289062 L 44.824219 31.5625 C 44.773438 31.589844 44.699219 31.589844 44.648438 31.589844 C 44.375 31.589844 44.152344 31.363281 44.152344 31.089844 L 44.152344 29.597656 C 44.152344 29.398438 44.277344 29.226562 44.476562 29.152344 L 45.621094 28.726562 L 45.621094 24.796875 C 45.621094 24.550781 45.820312 24.324219 46.066406 24.324219 C 46.316406 24.324219 46.539062 24.550781 46.539062 24.796875 L 46.539062 28.40625 L 48.605469 27.632812 L 48.605469 23.703125 C 48.605469 23.453125 48.828125 23.230469 49.078125 23.230469 C 49.324219 23.230469 49.523438 23.453125 49.523438 23.703125 L 49.523438 27.308594 L 50.320312 27.011719 C 50.371094 26.988281 50.445312 26.988281 50.496094 26.988281 C 50.769531 26.988281 50.992188 27.210938 50.992188 27.484375 L 50.992188 28.976562 C 50.992188 29.175781 50.867188 29.375 50.667969 29.449219 L 49.523438 29.847656 L 49.523438 33.828125 L 50.320312 33.554688 C 50.371094 33.527344 50.445312 33.527344 50.496094 33.527344 C 50.769531 33.527344 50.992188 33.75 50.992188 34.027344 L 50.992188 35.519531 C 50.992188 35.71875 50.867188 35.890625 50.667969 35.964844 L 49.523438 36.386719 Z M 46.539062 30.941406 L 46.539062 34.921875 L 48.605469 34.175781 L 48.605469 30.195312 Z M 46.539062 30.941406 "/>
<path style=" stroke:none;fill-rule:nonzero;fill:rgb(0%,0%,0%);fill-opacity:1;" d="M 23.390625 29.449219 C 23.390625 28.753906 23.960938 28.179688 24.65625 28.179688 C 25.355469 28.179688 25.925781 28.753906 25.925781 29.449219 C 25.925781 30.144531 25.355469 30.71875 24.65625 30.71875 C 23.960938 30.71875 23.390625 30.144531 23.390625 29.449219 Z M 23.390625 23.230469 C 23.390625 22.535156 23.960938 21.960938 24.65625 21.960938 C 25.355469 21.960938 25.925781 22.535156 25.925781 23.230469 C 25.925781 23.925781 25.355469 24.5 24.65625 24.5 C 23.960938 24.5 23.390625 23.925781 23.390625 23.230469 Z M 15.304688 19.796875 C 19.585938 19.796875 22.59375 21.988281 22.59375 26.042969 C 22.59375 32.582031 16.050781 36.339844 9.757812 39 C 9.683594 39.074219 9.609375 39.097656 9.535156 39.097656 C 9.363281 39.097656 9.210938 38.949219 9.210938 38.777344 C 9.210938 38.703125 9.238281 38.628906 9.3125 38.550781 C 14.335938 35.617188 19.558594 31.960938 19.558594 26.289062 C 19.558594 23.304688 17.992188 20.445312 15.304688 20.445312 C 13.464844 20.445312 12.097656 21.789062 11.476562 23.578125 C 11.75 23.453125 12.023438 23.378906 12.320312 23.378906 C 13.6875 23.378906 14.808594 24.5 14.808594 25.867188 C 14.808594 27.308594 13.714844 28.503906 12.320312 28.503906 C 10.828125 28.503906 9.535156 27.335938 9.535156 25.867188 C 9.535156 22.558594 12.074219 19.796875 15.304688 19.796875 Z M 15.304688 19.796875 "/>
<path style=" stroke:none;fill-rule:nonzero;fill:rgb(0%,0%,0%);fill-opacity:1;" d="M 63.738281 10.519531 C 65.109375 10.519531 66.425781 11.21875 66.425781 12.734375 C 66.425781 14.5 65.058594 15.746094 63.890625 16.441406 C 63.019531 16.964844 62.023438 17.285156 61.003906 17.285156 C 59.636719 17.285156 58.316406 16.589844 58.316406 15.074219 C 58.316406 13.308594 59.6875 12.0625 60.855469 11.367188 C 61.726562 10.84375 62.71875 10.519531 63.738281 10.519531 Z M 63.738281 10.519531 "/>
<path style=" stroke:none;fill-rule:nonzero;fill:rgb(0%,0%,0%);fill-opacity:1;" d="M 63.738281 16.738281 C 65.109375 16.738281 66.425781 17.433594 66.425781 18.953125 C 66.425781 20.71875 65.058594 21.960938 63.890625 22.660156 C 63.019531 23.179688 62.023438 23.503906 61.003906 23.503906 C 59.636719 23.503906 58.316406 22.808594 58.316406 21.289062 C 58.316406 19.523438 59.6875 18.28125 60.855469 17.585938 C 61.726562 17.0625 62.71875 16.738281 63.738281 16.738281 Z M 63.738281 16.738281 "/>
<path style=" stroke:none;fill-rule:nonzero;fill:rgb(0%,0%,0%);fill-opacity:1;" d="M 63.738281 22.957031 C 65.109375 22.957031 66.425781 23.652344 66.425781 25.171875 C 66.425781 26.9375 65.058594 28.179688 63.890625 28.875 C 63.019531 29.398438 62.023438 29.722656 61.003906 29.722656 C 59.636719 29.722656 58.316406 29.027344 58.316406 27.507812 C 58.316406 25.742188 59.6875 24.5 60.855469 23.804688 C 61.726562 23.28125 62.71875 22.957031 63.738281 22.957031 Z M 63.738281 22.957031 "/>
<path style=" stroke:none;fill-rule:nonzero;fill:rgb(0%,0%,0%);fill-opacity:1;" d="M 63.738281 29.175781 C 65.109375 29.175781 66.425781 29.871094 66.425781 31.390625 C 66.425781 33.15625 65.058594 34.398438 63.890625 35.09375 C 63.019531 35.617188 62.023438 35.941406 61.003906 35.941406 C 59.636719 35.941406 58.316406 35.246094 58.316406 33.726562 C 58.316406 31.960938 59.6875 30.71875 60.855469 30.019531 C 61.726562 29.5 62.71875 29.175781 63.738281 29.175781 Z M 63.738281 29.175781 "/>
</g>
</svg>
