<?xml version="1.0" encoding="UTF-8"?>
<svg xmlns="http://www.w3.org/2000/svg" xmlns:xlink="http://www.w3.org/1999/xlink" width="90.907592pt" height="76.975644pt" viewBox="0 0 90.907592 76.975644" version="1.1">
<g id="surface1">
<path style="fill:none;stroke-width:0.1;stroke-linecap:round;stroke-linejoin:round;stroke:rgb(0%,0%,0%);stroke-opacity:1;stroke-miterlimit:4;" d="M 0.049863 -0.000111386 L 12.130176 -0.000111386 " transform="matrix(6.218149,0,0,6.218149,4.561038,57.703818)"/>
<path style="fill:none;stroke-width:0.1;stroke-linecap:round;stroke-linejoin:round;stroke:rgb(0%,0%,0%);stroke-opacity:1;stroke-miterlimit:4;" d="M 0.049863 -0.000208034 L 12.130176 -0.000208034 " transform="matrix(6.218149,0,0,6.218149,4.561038,51.485669)"/>
<path style="fill:none;stroke-width:0.1;stroke-linecap:round;stroke-linejoin:round;stroke:rgb(0%,0%,0%);stroke-opacity:1;stroke-miterlimit:4;" d="M 0.049863 -0.000304683 L 12.130176 -0.000304683 " transform="matrix(6.218149,0,0,6.218149,4.561038,45.26752)"/>
<path style="fill:none;stroke-width:0.1;stroke-linecap:round;stroke-linejoin:round;stroke:rgb(0%,0%,0%);stroke-opacity:1;stroke-miterlimit:4;" d="M 0.049863 0.00022687 L 12.130176 0.00022687 " transform="matrix(6.218149,0,0,6.218149,4.561038,39.049371)"/>
<path style="fill:none;stroke-width:0.1;stroke-linecap:round;stroke-linejoin:round;stroke:rgb(0%,0%,0%);stroke-opacity:1;stroke-miterlimit:4;" d="M 0.049863 0.000130221 L 12.130176 0.000130221 " transform="matrix(6.218149,0,0,6.218149,4.561038,32.831222)"/>
<path style=" stroke:none;fill-rule:nonzero;fill:rgb(0%,0%,0%);fill-opacity:1;" d="M 60.226562 7.335938 L 71.144531 7.335938 C 71.488281 7.335938 71.769531 7.613281 71.769531 7.957031 C 71.769531 8.300781 71.488281 8.582031 71.144531 8.582031 L 60.226562 8.582031 C 59.882812 8.582031 59.601562 8.300781 59.601562 7.957031 C 59.601562 7.613281 59.882812 7.335938 60.226562 7.335938 Z M 60.226562 7.335938 "/>
<path style=" stroke:none;fill-rule:nonzero;fill:rgb(0%,0%,0%);fill-opacity:1;" d="M 52.519531 13.554688 L 71.144531 13.554688 C 71.488281 13.554688 71.769531 13.832031 71.769531 14.175781 C 71.769531 14.519531 71.488281 14.796875 71.144531 14.796875 L 52.519531 14.796875 C 52.175781 14.796875 51.898438 14.519531 51.898438 14.175781 C 51.898438 13.832031 52.175781 13.554688 52.519531 13.554688 Z M 52.519531 13.554688 "/>
<path style=" stroke:none;fill-rule:nonzero;fill:rgb(0%,0%,0%);fill-opacity:1;" d="M 52.519531 19.773438 L 71.144531 19.773438 C 71.488281 19.773438 71.769531 20.050781 71.769531 20.394531 C 71.769531 20.738281 71.488281 21.015625 71.144531 21.015625 L 52.519531 21.015625 C 52.175781 21.015625 51.898438 20.738281 51.898438 20.394531 C 51.898438 20.050781 52.175781 19.773438 52.519531 19.773438 Z M 52.519531 19.773438 "/>
<path style=" stroke:none;fill-rule:nonzero;fill:rgb(0%,0%,0%);fill-opacity:1;" d="M 52.519531 25.992188 L 71.144531 25.992188 C 71.488281 25.992188 71.769531 26.269531 71.769531 26.613281 C 71.769531 26.957031 71.488281 27.234375 71.144531 27.234375 L 52.519531 27.234375 C 52.175781 27.234375 51.898438 26.957031 51.898438 26.613281 C 51.898438 26.269531 52.175781 25.992188 52.519531 25.992188 Z M 52.519531 25.992188 "/>
<path style=" stroke:none;fill-rule:nonzero;fill:rgb(0%,0%,0%);fill-opacity:1;" d="M 61.878906 9.117188 L 62.191406 9.117188 C 62.328125 9.117188 62.4375 9.226562 62.4375 9.363281 L 62.4375 45.019531 C 62.4375 45.15625 62.328125 45.265625 62.191406 45.265625 L 61.878906 45.265625 C 61.742188 45.265625 61.628906 45.15625 61.628906 45.019531 L 61.628906 9.363281 C 61.628906 9.226562 61.742188 9.117188 61.878906 9.117188 Z M 61.878906 9.117188 "/>
<path style=" stroke:none;fill-rule:nonzero;fill:rgb(0%,0%,0%);fill-opacity:1;" d="M 49.015625 7.957031 C 49.585938 8.53125 50.40625 8.65625 51.226562 8.65625 C 51.378906 8.65625 51.476562 8.753906 51.476562 8.902344 L 51.699219 11.066406 C 51.726562 11.21875 51.601562 11.339844 51.453125 11.316406 L 49.289062 11.09375 C 49.164062 11.066406 49.039062 10.96875 49.039062 10.84375 C 49.039062 10.023438 48.914062 9.203125 48.34375 8.628906 C 47.769531 9.203125 47.671875 10.023438 47.671875 10.84375 C 47.671875 10.96875 47.546875 11.066406 47.421875 11.09375 L 45.234375 11.316406 C 45.085938 11.339844 44.960938 11.21875 44.984375 11.066406 L 45.210938 8.902344 C 45.210938 8.753906 45.308594 8.65625 45.457031 8.65625 C 46.277344 8.65625 47.097656 8.53125 47.671875 7.957031 C 47.097656 7.386719 46.277344 7.261719 45.457031 7.261719 C 45.308594 7.261719 45.210938 7.164062 45.210938 7.011719 L 44.984375 4.847656 C 44.960938 4.699219 45.085938 4.574219 45.234375 4.601562 L 47.421875 4.824219 C 47.546875 4.847656 47.648438 4.949219 47.648438 5.074219 C 47.648438 5.894531 47.769531 6.714844 48.34375 7.285156 C 48.914062 6.714844 49.039062 5.894531 49.039062 5.074219 C 49.039062 4.949219 49.164062 4.847656 49.289062 4.824219 L 51.453125 4.601562 C 51.601562 4.574219 51.726562 4.699219 51.699219 4.847656 L 51.476562 7.011719 C 51.476562 7.164062 51.378906 7.261719 51.226562 7.261719 C 50.40625 7.261719 49.585938 7.386719 49.015625 7.957031 Z M 49.015625 7.957031 "/>
<path style=" stroke:none;fill-rule:nonzero;fill:rgb(0%,0%,0%);fill-opacity:1;" d="M 41.003906 11.066406 C 41.578125 11.640625 42.398438 11.765625 43.21875 11.765625 C 43.367188 11.765625 43.46875 11.863281 43.46875 12.011719 L 43.691406 14.175781 C 43.714844 14.324219 43.59375 14.449219 43.441406 14.425781 L 41.277344 14.203125 C 41.15625 14.175781 41.03125 14.078125 41.03125 13.953125 C 41.03125 13.132812 40.90625 12.3125 40.335938 11.738281 C 39.761719 12.3125 39.664062 13.132812 39.664062 13.953125 C 39.664062 14.078125 39.539062 14.175781 39.414062 14.203125 L 37.226562 14.425781 C 37.074219 14.449219 36.953125 14.324219 36.976562 14.175781 L 37.199219 12.011719 C 37.199219 11.863281 37.300781 11.765625 37.449219 11.765625 C 38.269531 11.765625 39.089844 11.640625 39.664062 11.066406 C 39.089844 10.496094 38.269531 10.371094 37.449219 10.371094 C 37.300781 10.371094 37.199219 10.273438 37.199219 10.121094 L 36.976562 7.957031 C 36.953125 7.808594 37.074219 7.683594 37.226562 7.710938 L 39.414062 7.933594 C 39.539062 7.957031 39.636719 8.058594 39.636719 8.183594 C 39.636719 9.003906 39.761719 9.824219 40.335938 10.394531 C 40.90625 9.824219 41.03125 9.003906 41.03125 8.183594 C 41.03125 8.058594 41.15625 7.957031 41.277344 7.933594 L 43.441406 7.710938 C 43.59375 7.683594 43.714844 7.808594 43.691406 7.957031 L 43.46875 10.121094 C 43.46875 10.273438 43.367188 10.371094 43.21875 10.371094 C 42.398438 10.371094 41.578125 10.496094 41.003906 11.066406 Z M 41.003906 11.066406 "/>
<path style=" stroke:none;fill-rule:nonzero;fill:rgb(0%,0%,0%);fill-opacity:1;" d="M 32.996094 17.285156 C 33.570312 17.859375 34.390625 17.980469 35.210938 17.980469 C 35.359375 17.980469 35.460938 18.082031 35.460938 18.230469 L 35.683594 20.394531 C 35.707031 20.542969 35.582031 20.667969 35.433594 20.644531 L 33.269531 20.417969 C 33.144531 20.394531 33.023438 20.296875 33.023438 20.171875 C 33.023438 19.351562 32.898438 18.53125 32.324219 17.957031 C 31.753906 18.53125 31.652344 19.351562 31.652344 20.171875 C 31.652344 20.296875 31.527344 20.394531 31.40625 20.417969 L 29.214844 20.644531 C 29.066406 20.667969 28.941406 20.542969 28.96875 20.394531 L 29.191406 18.230469 C 29.191406 18.082031 29.289062 17.980469 29.441406 17.980469 C 30.261719 17.980469 31.082031 17.859375 31.652344 17.285156 C 31.082031 16.714844 30.261719 16.589844 29.441406 16.589844 C 29.289062 16.589844 29.191406 16.488281 29.191406 16.339844 L 28.96875 14.175781 C 28.941406 14.027344 29.066406 13.902344 29.214844 13.929688 L 31.40625 14.152344 C 31.527344 14.175781 31.628906 14.277344 31.628906 14.402344 C 31.628906 15.222656 31.753906 16.042969 32.324219 16.613281 C 32.898438 16.042969 33.023438 15.222656 33.023438 14.402344 C 33.023438 14.277344 33.144531 14.175781 33.269531 14.152344 L 35.433594 13.929688 C 35.582031 13.902344 35.707031 14.027344 35.683594 14.175781 L 35.460938 16.339844 C 35.460938 16.488281 35.359375 16.589844 35.210938 16.589844 C 34.390625 16.589844 33.570312 16.714844 32.996094 17.285156 Z M 32.996094 17.285156 "/>
<path style=" stroke:none;fill-rule:nonzero;fill:rgb(0%,0%,0%);fill-opacity:1;" d="M 51.75 31.265625 C 51.75 31.511719 51.550781 31.738281 51.300781 31.738281 C 51.050781 31.738281 50.828125 31.511719 50.828125 31.265625 L 50.828125 27.65625 L 48.765625 28.429688 L 48.765625 32.359375 C 48.765625 32.605469 48.539062 32.832031 48.292969 32.832031 C 48.042969 32.832031 47.84375 32.605469 47.84375 32.359375 L 47.84375 28.753906 L 47.046875 29.050781 C 46.996094 29.074219 46.921875 29.074219 46.875 29.074219 C 46.601562 29.074219 46.375 28.851562 46.375 28.578125 L 46.375 27.085938 C 46.375 26.886719 46.5 26.6875 46.699219 26.613281 L 47.84375 26.214844 L 47.84375 22.234375 L 47.046875 22.507812 C 46.996094 22.535156 46.921875 22.535156 46.875 22.535156 C 46.601562 22.535156 46.375 22.308594 46.375 22.035156 L 46.375 20.542969 C 46.375 20.34375 46.5 20.171875 46.699219 20.097656 L 47.84375 19.671875 L 47.84375 15.742188 C 47.84375 15.496094 48.042969 15.269531 48.292969 15.269531 C 48.539062 15.269531 48.765625 15.496094 48.765625 15.742188 L 48.765625 19.351562 L 50.828125 18.578125 L 50.828125 14.648438 C 50.828125 14.402344 51.050781 14.175781 51.300781 14.175781 C 51.550781 14.175781 51.75 14.402344 51.75 14.648438 L 51.75 18.257812 L 52.542969 17.957031 C 52.59375 17.933594 52.667969 17.933594 52.71875 17.933594 C 52.992188 17.933594 53.214844 18.15625 53.214844 18.429688 L 53.214844 19.921875 C 53.214844 20.121094 53.09375 20.320312 52.894531 20.394531 L 51.75 20.792969 L 51.75 24.773438 L 52.542969 24.5 C 52.59375 24.472656 52.667969 24.472656 52.71875 24.472656 C 52.992188 24.472656 53.214844 24.699219 53.214844 24.972656 L 53.214844 26.464844 C 53.214844 26.664062 53.09375 26.835938 52.894531 26.910156 L 51.75 27.335938 Z M 48.765625 21.886719 L 48.765625 25.867188 L 50.828125 25.121094 L 50.828125 21.140625 Z M 48.765625 21.886719 "/>
<path style=" stroke:none;fill-rule:nonzero;fill:rgb(0%,0%,0%);fill-opacity:1;" d="M 16.152344 67.28125 L 16.003906 67.28125 C 13.316406 67.28125 11.152344 65.089844 11.152344 62.378906 C 11.152344 60.9375 12.46875 59.816406 13.9375 59.816406 C 15.28125 59.816406 16.300781 60.988281 16.300781 62.378906 C 16.300781 63.671875 15.230469 64.742188 13.9375 64.742188 C 13.664062 64.742188 13.414062 64.691406 13.167969 64.59375 C 13.8125 65.5625 14.859375 66.210938 16.078125 66.210938 L 16.175781 66.210938 Z M 21 56.535156 C 22.691406 55.9375 23.8125 54.171875 23.8125 52.457031 C 23.8125 50.21875 22.171875 48.003906 19.507812 47.730469 C 20.105469 50.613281 20.652344 53.476562 21 56.535156 Z M 11.375 50.789062 C 11.375 54.148438 14.585938 56.933594 17.941406 56.933594 C 18.640625 56.933594 19.308594 56.882812 19.980469 56.785156 C 19.632812 53.625 19.0625 50.691406 18.414062 47.730469 C 16.449219 47.929688 15.332031 49.246094 15.332031 50.691406 C 15.332031 51.785156 15.953125 52.953125 17.34375 53.75 C 17.46875 53.875 17.519531 53.996094 17.519531 54.121094 C 17.519531 54.394531 17.269531 54.667969 16.972656 54.667969 C 16.898438 54.667969 16.824219 54.644531 16.75 54.621094 C 14.757812 53.550781 13.839844 51.757812 13.839844 50.019531 C 13.839844 47.828125 15.28125 45.691406 17.816406 45.117188 C 17.46875 43.675781 17.097656 42.207031 16.675781 40.765625 C 14.011719 43.773438 11.375 46.808594 11.375 50.789062 Z M 17.867188 58.003906 C 13.191406 58.003906 9.585938 53.722656 9.585938 48.699219 C 9.585938 44.296875 12.84375 41.089844 15.753906 37.730469 C 15.28125 36.1875 14.832031 34.621094 14.632812 33.003906 C 14.484375 31.710938 14.460938 30.417969 14.460938 29.125 C 14.460938 26.265625 15.828125 23.554688 18.167969 21.863281 C 18.316406 21.738281 18.515625 21.738281 18.664062 21.863281 C 20.429688 23.953125 21.972656 27.957031 21.972656 30.765625 C 21.972656 34.324219 19.832031 37.109375 17.496094 39.820312 C 18.015625 41.511719 18.464844 43.253906 18.886719 44.96875 C 18.988281 44.96875 19.113281 44.945312 19.210938 44.945312 C 23.066406 44.945312 25.578125 48.128906 25.578125 51.4375 C 25.578125 53.328125 24.757812 55.265625 22.917969 56.660156 C 22.371094 57.082031 21.746094 57.355469 21.101562 57.554688 C 21.175781 58.425781 21.226562 59.296875 21.226562 60.167969 C 21.226562 60.640625 21.199219 61.136719 21.175781 61.609375 C 21 64.570312 18.988281 67.207031 16.152344 67.28125 L 16.175781 66.210938 C 18.488281 66.160156 19.980469 63.921875 20.132812 61.460938 C 20.15625 61.011719 20.179688 60.539062 20.179688 60.089844 C 20.179688 59.320312 20.15625 58.574219 20.082031 57.804688 C 19.359375 57.925781 18.640625 58.003906 17.867188 58.003906 Z M 20.179688 28.703125 C 20.179688 27.335938 20.082031 26.738281 19.683594 25.492188 C 17.222656 26.6875 15.652344 29.199219 15.652344 31.9375 C 15.652344 33.777344 16.101562 35.242188 16.550781 36.761719 C 18.539062 34.347656 20.179688 31.835938 20.179688 28.703125 Z M 20.179688 28.703125 "/>
<path style=" stroke:none;fill-rule:nonzero;fill:rgb(0%,0%,0%);fill-opacity:1;" d="M 67.054688 4.574219 C 68.421875 4.574219 69.738281 5.273438 69.738281 6.789062 C 69.738281 8.554688 68.371094 9.800781 67.203125 10.496094 C 66.332031 11.019531 65.335938 11.339844 64.316406 11.339844 C 62.949219 11.339844 61.628906 10.644531 61.628906 9.128906 C 61.628906 7.363281 63 6.117188 64.167969 5.421875 C 65.039062 4.898438 66.03125 4.574219 67.054688 4.574219 Z M 67.054688 4.574219 "/>
<path style=" stroke:none;fill-rule:nonzero;fill:rgb(0%,0%,0%);fill-opacity:1;" d="M 59.347656 7.683594 C 60.714844 7.683594 62.035156 8.382812 62.035156 9.898438 C 62.035156 11.664062 60.664062 12.910156 59.496094 13.605469 C 58.625 14.128906 57.632812 14.449219 56.609375 14.449219 C 55.242188 14.449219 53.925781 13.753906 53.925781 12.238281 C 53.925781 10.472656 55.292969 9.226562 56.460938 8.53125 C 57.332031 8.007812 58.328125 7.683594 59.347656 7.683594 Z M 59.347656 7.683594 "/>
<path style=" stroke:none;fill-rule:nonzero;fill:rgb(0%,0%,0%);fill-opacity:1;" d="M 67.054688 13.902344 C 68.421875 13.902344 69.738281 14.597656 69.738281 16.117188 C 69.738281 17.882812 68.371094 19.125 67.203125 19.824219 C 66.332031 20.34375 65.335938 20.667969 64.316406 20.667969 C 62.949219 20.667969 61.628906 19.972656 61.628906 18.453125 C 61.628906 16.6875 63 15.445312 64.167969 14.75 C 65.039062 14.226562 66.03125 13.902344 67.054688 13.902344 Z M 67.054688 13.902344 "/>
<path style=" stroke:none;fill-rule:nonzero;fill:rgb(0%,0%,0%);fill-opacity:1;" d="M 67.054688 20.121094 C 68.421875 20.121094 69.738281 20.816406 69.738281 22.335938 C 69.738281 24.101562 68.371094 25.34375 67.203125 26.039062 C 66.332031 26.5625 65.335938 26.886719 64.316406 26.886719 C 62.949219 26.886719 61.628906 26.191406 61.628906 24.671875 C 61.628906 22.90625 63 21.664062 64.167969 20.96875 C 65.039062 20.445312 66.03125 20.121094 67.054688 20.121094 Z M 67.054688 20.121094 "/>
</g>
</svg>
