<?xml version="1.0" encoding="UTF-8"?>
<svg xmlns="http://www.w3.org/2000/svg" xmlns:xlink="http://www.w3.org/1999/xlink" width="75.798219pt" height="59.452652pt" viewBox="0 0 75.798219 59.452652" version="1.1">
<g id="surface1">
<path style="fill:none;stroke-width:0.1;stroke-linecap:round;stroke-linejoin:round;stroke:rgb(0%,0%,0%);stroke-opacity:1;stroke-miterlimit:4;" d="M 0.049863 -0.000287501 L 9.855459 -0.000287501 " transform="matrix(6.218149,0,0,6.218149,4.561038,40.517413)"/>
<path style="fill:none;stroke-width:0.1;stroke-linecap:round;stroke-linejoin:round;stroke:rgb(0%,0%,0%);stroke-opacity:1;stroke-miterlimit:4;" d="M 0.049863 0.000244052 L 9.855459 0.000244052 " transform="matrix(6.218149,0,0,6.218149,4.561038,34.299264)"/>
<path style="fill:none;stroke-width:0.1;stroke-linecap:round;stroke-linejoin:round;stroke:rgb(0%,0%,0%);stroke-opacity:1;stroke-miterlimit:4;" d="M 0.049863 0.000147403 L 9.855459 0.000147403 " transform="matrix(6.218149,0,0,6.218149,4.561038,28.081115)"/>
<path style="fill:none;stroke-width:0.1;stroke-linecap:round;stroke-linejoin:round;stroke:rgb(0%,0%,0%);stroke-opacity:1;stroke-miterlimit:4;" d="M 0.049863 0.0000507548 L 9.855459 0.0000507548 " transform="matrix(6.218149,0,0,6.218149,4.561038,21.862966)"/>
<path style="fill:none;stroke-width:0.1;stroke-linecap:round;stroke-linejoin:round;stroke:rgb(0%,0%,0%);stroke-opacity:1;stroke-miterlimit:4;" d="M 0.049863 -0.0000458938 L 9.855459 -0.0000458938 " transform="matrix(6.218149,0,0,6.218149,4.561038,15.644817)"/>
<path style=" stroke:none;fill-rule:nonzero;fill:rgb(0%,0%,0%);fill-opacity:1;" d="M 47.734375 19.910156 L 48.042969 19.910156 C 48.183594 19.910156 48.292969 20.023438 48.292969 20.160156 L 48.292969 50.632812 C 48.292969 50.769531 48.183594 50.882812 48.042969 50.882812 L 47.734375 50.882812 C 47.597656 50.882812 47.484375 50.769531 47.484375 50.632812 L 47.484375 20.160156 C 47.484375 20.023438 47.597656 19.910156 47.734375 19.910156 Z M 47.734375 19.910156 "/>
<path style=" stroke:none;fill-rule:nonzero;fill:rgb(0%,0%,0%);fill-opacity:1;" d="M 41.003906 17.734375 L 40.980469 19.375 L 40.980469 19.648438 C 40.980469 20.195312 41.003906 20.742188 41.082031 21.289062 C 42.199219 20.347656 43.394531 19.300781 43.394531 17.832031 C 43.394531 17.011719 43.046875 16.167969 42.324219 16.167969 C 41.554688 16.167969 41.03125 16.914062 41.003906 17.734375 Z M 39.960938 22.1875 L 39.664062 7.386719 C 39.863281 7.261719 40.109375 7.1875 40.335938 7.1875 C 40.558594 7.1875 40.804688 7.261719 41.003906 7.386719 L 40.832031 15.96875 C 41.453125 15.445312 42.273438 15.121094 43.09375 15.121094 C 44.386719 15.121094 45.308594 16.316406 45.308594 17.660156 C 45.308594 19.648438 43.167969 20.570312 41.652344 21.863281 C 41.277344 22.1875 41.054688 22.808594 40.53125 22.808594 C 40.210938 22.808594 39.960938 22.535156 39.960938 22.1875 Z M 39.960938 22.1875 "/>
<path style=" stroke:none;fill-rule:nonzero;fill:rgb(0%,0%,0%);fill-opacity:1;" d="M 30.632812 23.953125 L 30.609375 25.59375 L 30.609375 25.867188 C 30.609375 26.414062 30.632812 26.960938 30.707031 27.507812 C 31.828125 26.5625 33.023438 25.519531 33.023438 24.050781 C 33.023438 23.230469 32.671875 22.386719 31.953125 22.386719 C 31.179688 22.386719 30.660156 23.132812 30.632812 23.953125 Z M 29.589844 28.40625 L 29.289062 13.605469 C 29.488281 13.480469 29.738281 13.40625 29.960938 13.40625 C 30.1875 13.40625 30.433594 13.480469 30.632812 13.605469 L 30.460938 22.1875 C 31.082031 21.664062 31.902344 21.339844 32.722656 21.339844 C 34.015625 21.339844 34.9375 22.535156 34.9375 23.878906 C 34.9375 25.867188 32.796875 26.789062 31.28125 28.082031 C 30.90625 28.40625 30.683594 29.027344 30.160156 29.027344 C 29.835938 29.027344 29.589844 28.753906 29.589844 28.40625 Z M 29.589844 28.40625 "/>
<path style=" stroke:none;fill-rule:nonzero;fill:rgb(0%,0%,0%);fill-opacity:1;" d="M 37.523438 30.171875 L 37.5 31.8125 L 37.5 32.085938 C 37.5 32.632812 37.523438 33.179688 37.597656 33.726562 C 38.71875 32.78125 39.910156 31.738281 39.910156 30.269531 C 39.910156 29.449219 39.5625 28.601562 38.839844 28.601562 C 38.070312 28.601562 37.546875 29.351562 37.523438 30.171875 Z M 36.480469 34.621094 L 36.179688 19.824219 C 36.378906 19.699219 36.628906 19.625 36.851562 19.625 C 37.074219 19.625 37.324219 19.699219 37.523438 19.824219 L 37.347656 28.40625 C 37.972656 27.882812 38.792969 27.558594 39.613281 27.558594 C 40.90625 27.558594 41.828125 28.753906 41.828125 30.097656 C 41.828125 32.085938 39.6875 33.007812 38.171875 34.300781 C 37.796875 34.621094 37.574219 35.246094 37.050781 35.246094 C 36.726562 35.246094 36.480469 34.972656 36.480469 34.621094 Z M 36.480469 34.621094 "/>
<path style=" stroke:none;fill-rule:nonzero;fill:rgb(0%,0%,0%);fill-opacity:1;" d="M 16.152344 50.09375 L 16.003906 50.09375 C 13.316406 50.09375 11.152344 47.90625 11.152344 45.195312 C 11.152344 43.75 12.46875 42.632812 13.9375 42.632812 C 15.28125 42.632812 16.300781 43.800781 16.300781 45.195312 C 16.300781 46.488281 15.230469 47.554688 13.9375 47.554688 C 13.664062 47.554688 13.414062 47.507812 13.167969 47.40625 C 13.8125 48.378906 14.859375 49.023438 16.078125 49.023438 L 16.175781 49.023438 Z M 21 39.347656 C 22.691406 38.75 23.8125 36.984375 23.8125 35.269531 C 23.8125 33.03125 22.171875 30.816406 19.507812 30.542969 C 20.105469 33.429688 20.652344 36.289062 21 39.347656 Z M 11.375 33.601562 C 11.375 36.960938 14.585938 39.746094 17.941406 39.746094 C 18.640625 39.746094 19.308594 39.695312 19.980469 39.597656 C 19.632812 36.4375 19.0625 33.503906 18.414062 30.542969 C 16.449219 30.742188 15.332031 32.0625 15.332031 33.503906 C 15.332031 34.597656 15.953125 35.765625 17.34375 36.5625 C 17.46875 36.6875 17.519531 36.8125 17.519531 36.9375 C 17.519531 37.210938 17.269531 37.484375 16.972656 37.484375 C 16.898438 37.484375 16.824219 37.457031 16.75 37.433594 C 14.757812 36.363281 13.839844 34.574219 13.839844 32.832031 C 13.839844 30.644531 15.28125 28.503906 17.816406 27.933594 C 17.46875 26.488281 17.097656 25.023438 16.675781 23.578125 C 14.011719 26.589844 11.375 29.625 11.375 33.601562 Z M 17.867188 40.816406 C 13.191406 40.816406 9.585938 36.539062 9.585938 31.511719 C 9.585938 27.109375 12.84375 23.902344 15.753906 20.542969 C 15.28125 19.003906 14.832031 17.4375 14.632812 15.820312 C 14.484375 14.527344 14.460938 13.230469 14.460938 11.9375 C 14.460938 9.078125 15.828125 6.367188 18.167969 4.675781 C 18.316406 4.550781 18.515625 4.550781 18.664062 4.675781 C 20.429688 6.765625 21.972656 10.769531 21.972656 13.582031 C 21.972656 17.136719 19.832031 19.921875 17.496094 22.632812 C 18.015625 24.324219 18.464844 26.066406 18.886719 27.78125 C 18.988281 27.78125 19.113281 27.757812 19.210938 27.757812 C 23.066406 27.757812 25.578125 30.941406 25.578125 34.25 C 25.578125 36.140625 24.757812 38.078125 22.917969 39.472656 C 22.371094 39.894531 21.746094 40.167969 21.101562 40.367188 C 21.175781 41.238281 21.226562 42.109375 21.226562 42.980469 C 21.226562 43.453125 21.199219 43.949219 21.175781 44.421875 C 21 47.382812 18.988281 50.019531 16.152344 50.09375 L 16.175781 49.023438 C 18.488281 48.972656 19.980469 46.734375 20.132812 44.273438 C 20.15625 43.824219 20.179688 43.351562 20.179688 42.90625 C 20.179688 42.132812 20.15625 41.386719 20.082031 40.617188 C 19.359375 40.742188 18.640625 40.816406 17.867188 40.816406 Z M 20.179688 11.515625 C 20.179688 10.148438 20.082031 9.550781 19.683594 8.308594 C 17.222656 9.5 15.652344 12.011719 15.652344 14.75 C 15.652344 16.589844 16.101562 18.058594 16.550781 19.574219 C 18.539062 17.160156 20.179688 14.648438 20.179688 11.515625 Z M 20.179688 11.515625 "/>
<path style=" stroke:none;fill-rule:nonzero;fill:rgb(0%,0%,0%);fill-opacity:1;" d="M 52.90625 15.371094 C 54.273438 15.371094 55.59375 16.066406 55.59375 17.585938 C 55.59375 19.351562 54.226562 20.59375 53.054688 21.289062 C 52.1875 21.8125 51.191406 22.136719 50.171875 22.136719 C 48.804688 22.136719 47.484375 21.441406 47.484375 19.921875 C 47.484375 18.15625 48.851562 16.914062 50.023438 16.21875 C 50.890625 15.695312 51.886719 15.371094 52.90625 15.371094 Z M 52.90625 15.371094 "/>
<path style=" stroke:none;fill-rule:nonzero;fill:rgb(0%,0%,0%);fill-opacity:1;" d="M 52.90625 21.589844 C 54.273438 21.589844 55.59375 22.285156 55.59375 23.804688 C 55.59375 25.570312 54.226562 26.8125 53.054688 27.507812 C 52.1875 28.03125 51.191406 28.355469 50.171875 28.355469 C 48.804688 28.355469 47.484375 27.660156 47.484375 26.140625 C 47.484375 24.375 48.851562 23.132812 50.023438 22.433594 C 50.890625 21.914062 51.886719 21.589844 52.90625 21.589844 Z M 52.90625 21.589844 "/>
<path style=" stroke:none;fill-rule:nonzero;fill:rgb(0%,0%,0%);fill-opacity:1;" d="M 52.90625 27.808594 C 54.273438 27.808594 55.59375 28.503906 55.59375 30.019531 C 55.59375 31.789062 54.226562 33.03125 53.054688 33.726562 C 52.1875 34.25 51.191406 34.574219 50.171875 34.574219 C 48.804688 34.574219 47.484375 33.875 47.484375 32.359375 C 47.484375 30.59375 48.851562 29.351562 50.023438 28.652344 C 50.890625 28.132812 51.886719 27.808594 52.90625 27.808594 Z M 52.90625 27.808594 "/>
</g>
</svg>
