<?xml version="1.0" encoding="UTF-8"?>
<svg xmlns="http://www.w3.org/2000/svg" xmlns:xlink="http://www.w3.org/1999/xlink" width="89.256447pt" height="60.158674pt" viewBox="0 0 89.256447 60.158674" version="1.1">
<g id="surface1">
<path style="fill:none;stroke-width:0.1;stroke-linecap:round;stroke-linejoin:round;stroke:rgb(0%,0%,0%);stroke-opacity:1;stroke-miterlimit:4;" d="M 0.049863 -0.0001075 L 11.881408 -0.0001075 " transform="matrix(6.218149,0,0,6.218149,4.561038,29.434262)"/>
<path style="fill:none;stroke-width:0.1;stroke-linecap:round;stroke-linejoin:round;stroke:rgb(0%,0%,0%);stroke-opacity:1;stroke-miterlimit:4;" d="M 0.049863 -0.000204149 L 11.881408 -0.000204149 " transform="matrix(6.218149,0,0,6.218149,4.561038,23.216113)"/>
<path style="fill:none;stroke-width:0.1;stroke-linecap:round;stroke-linejoin:round;stroke:rgb(0%,0%,0%);stroke-opacity:1;stroke-miterlimit:4;" d="M 0.049863 -0.000300797 L 11.881408 -0.000300797 " transform="matrix(6.218149,0,0,6.218149,4.561038,16.997964)"/>
<path style="fill:none;stroke-width:0.1;stroke-linecap:round;stroke-linejoin:round;stroke:rgb(0%,0%,0%);stroke-opacity:1;stroke-miterlimit:4;" d="M 0.049863 0.000230756 L 11.881408 0.000230756 " transform="matrix(6.218149,0,0,6.218149,4.561038,10.779815)"/>
<path style="fill:none;stroke-width:0.1;stroke-linecap:round;stroke-linejoin:round;stroke:rgb(0%,0%,0%);stroke-opacity:1;stroke-miterlimit:4;" d="M 0.049863 0.000133988 L 11.881408 0.000133988 " transform="matrix(6.218149,0,0,6.218149,4.561038,4.561667)"/>
<path style=" stroke:none;fill-rule:nonzero;fill:rgb(0%,0%,0%);fill-opacity:1;" d="M 58.679688 35.03125 L 69.601562 35.03125 C 69.945312 35.03125 70.222656 35.308594 70.222656 35.652344 C 70.222656 35.996094 69.945312 36.273438 69.601562 36.273438 L 58.679688 36.273438 C 58.335938 36.273438 58.058594 35.996094 58.058594 35.652344 C 58.058594 35.308594 58.335938 35.03125 58.679688 35.03125 Z M 58.679688 35.03125 "/>
<path style=" stroke:none;fill-rule:nonzero;fill:rgb(0%,0%,0%);fill-opacity:1;" d="M 58.679688 41.25 L 69.601562 41.25 C 69.945312 41.25 70.222656 41.527344 70.222656 41.871094 C 70.222656 42.214844 69.945312 42.492188 69.601562 42.492188 L 58.679688 42.492188 C 58.335938 42.492188 58.058594 42.214844 58.058594 41.871094 C 58.058594 41.527344 58.335938 41.25 58.679688 41.25 Z M 58.679688 41.25 "/>
<path style=" stroke:none;fill-rule:nonzero;fill:rgb(0%,0%,0%);fill-opacity:1;" d="M 67.636719 4.5625 L 67.945312 4.5625 C 68.082031 4.5625 68.195312 4.671875 68.195312 4.808594 L 68.195312 40.464844 C 68.195312 40.601562 68.082031 40.714844 67.945312 40.714844 L 67.636719 40.714844 C 67.5 40.714844 67.386719 40.601562 67.386719 40.464844 L 67.386719 4.808594 C 67.386719 4.671875 67.5 4.5625 67.636719 4.5625 Z M 67.636719 4.5625 "/>
<path style=" stroke:none;fill-rule:nonzero;fill:rgb(0%,0%,0%);fill-opacity:1;" d="M 56.441406 34.085938 C 56.441406 34.335938 56.242188 34.558594 55.992188 34.558594 C 55.746094 34.558594 55.519531 34.335938 55.519531 34.085938 L 55.519531 30.480469 L 53.457031 31.25 L 53.457031 35.179688 C 53.457031 35.429688 53.234375 35.652344 52.984375 35.652344 C 52.734375 35.652344 52.535156 35.429688 52.535156 35.179688 L 52.535156 31.574219 L 51.742188 31.871094 C 51.691406 31.898438 51.617188 31.898438 51.566406 31.898438 C 51.292969 31.898438 51.070312 31.671875 51.070312 31.398438 L 51.070312 29.90625 C 51.070312 29.707031 51.195312 29.507812 51.390625 29.433594 L 52.535156 29.035156 L 52.535156 25.058594 L 51.742188 25.332031 C 51.691406 25.355469 51.617188 25.355469 51.566406 25.355469 C 51.292969 25.355469 51.070312 25.132812 51.070312 24.859375 L 51.070312 23.367188 C 51.070312 23.167969 51.195312 22.992188 51.390625 22.917969 L 52.535156 22.496094 L 52.535156 18.566406 C 52.535156 18.316406 52.734375 18.09375 52.984375 18.09375 C 53.234375 18.09375 53.457031 18.316406 53.457031 18.566406 L 53.457031 22.171875 L 55.519531 21.402344 L 55.519531 17.46875 C 55.519531 17.222656 55.746094 16.996094 55.992188 16.996094 C 56.242188 16.996094 56.441406 17.222656 56.441406 17.46875 L 56.441406 21.078125 L 57.238281 20.777344 C 57.289062 20.753906 57.363281 20.753906 57.410156 20.753906 C 57.683594 20.753906 57.910156 20.976562 57.910156 21.25 L 57.910156 22.742188 C 57.910156 22.941406 57.785156 23.140625 57.585938 23.214844 L 56.441406 23.613281 L 56.441406 27.59375 L 57.238281 27.320312 C 57.289062 27.296875 57.363281 27.296875 57.410156 27.296875 C 57.683594 27.296875 57.910156 27.519531 57.910156 27.792969 L 57.910156 29.285156 C 57.910156 29.484375 57.785156 29.65625 57.585938 29.734375 L 56.441406 30.15625 Z M 53.457031 24.707031 L 53.457031 28.6875 L 55.519531 27.941406 L 55.519531 23.960938 Z M 53.457031 24.707031 "/>
<path style=" stroke:none;fill-rule:nonzero;fill:rgb(0%,0%,0%);fill-opacity:1;" d="M 43.410156 37.195312 C 43.410156 37.441406 43.210938 37.667969 42.960938 37.667969 C 42.710938 37.667969 42.488281 37.441406 42.488281 37.195312 L 42.488281 33.589844 L 40.421875 34.359375 L 40.421875 38.289062 C 40.421875 38.539062 40.199219 38.761719 39.949219 38.761719 C 39.703125 38.761719 39.503906 38.539062 39.503906 38.289062 L 39.503906 34.683594 L 38.707031 34.980469 C 38.65625 35.003906 38.582031 35.003906 38.535156 35.003906 C 38.257812 35.003906 38.035156 34.78125 38.035156 34.507812 L 38.035156 33.015625 C 38.035156 32.816406 38.160156 32.617188 38.359375 32.542969 L 39.503906 32.144531 L 39.503906 28.164062 L 38.707031 28.4375 C 38.65625 28.464844 38.582031 28.464844 38.535156 28.464844 C 38.257812 28.464844 38.035156 28.242188 38.035156 27.964844 L 38.035156 26.472656 C 38.035156 26.277344 38.160156 26.101562 38.359375 26.027344 L 39.503906 25.605469 L 39.503906 21.675781 C 39.503906 21.425781 39.703125 21.203125 39.949219 21.203125 C 40.199219 21.203125 40.421875 21.425781 40.421875 21.675781 L 40.421875 25.28125 L 42.488281 24.507812 L 42.488281 20.578125 C 42.488281 20.332031 42.710938 20.105469 42.960938 20.105469 C 43.210938 20.105469 43.410156 20.332031 43.410156 20.578125 L 43.410156 24.1875 L 44.203125 23.886719 C 44.253906 23.863281 44.328125 23.863281 44.378906 23.863281 C 44.652344 23.863281 44.875 24.085938 44.875 24.359375 L 44.875 25.851562 C 44.875 26.050781 44.75 26.25 44.550781 26.324219 L 43.410156 26.722656 L 43.410156 30.703125 L 44.203125 30.429688 C 44.253906 30.402344 44.328125 30.402344 44.378906 30.402344 C 44.652344 30.402344 44.875 30.628906 44.875 30.902344 L 44.875 32.394531 C 44.875 32.59375 44.75 32.765625 44.550781 32.84375 L 43.410156 33.265625 Z M 40.421875 27.816406 L 40.421875 31.796875 L 42.488281 31.050781 L 42.488281 27.070312 Z M 40.421875 27.816406 "/>
<path style=" stroke:none;fill-rule:nonzero;fill:rgb(0%,0%,0%);fill-opacity:1;" d="M 35.324219 43.414062 C 35.324219 43.660156 35.125 43.886719 34.878906 43.886719 C 34.628906 43.886719 34.40625 43.660156 34.40625 43.414062 L 34.40625 39.804688 L 32.339844 40.578125 L 32.339844 44.507812 C 32.339844 44.753906 32.117188 44.980469 31.867188 44.980469 C 31.617188 44.980469 31.417969 44.753906 31.417969 44.507812 L 31.417969 40.902344 L 30.625 41.199219 C 30.574219 41.222656 30.5 41.222656 30.449219 41.222656 C 30.175781 41.222656 29.953125 41 29.953125 40.726562 L 29.953125 39.234375 C 29.953125 39.035156 30.078125 38.835938 30.277344 38.761719 L 31.417969 38.363281 L 31.417969 34.382812 L 30.625 34.65625 C 30.574219 34.683594 30.5 34.683594 30.449219 34.683594 C 30.175781 34.683594 29.953125 34.457031 29.953125 34.183594 L 29.953125 32.691406 C 29.953125 32.492188 30.078125 32.320312 30.277344 32.246094 L 31.417969 31.820312 L 31.417969 27.890625 C 31.417969 27.644531 31.617188 27.417969 31.867188 27.417969 C 32.117188 27.417969 32.339844 27.644531 32.339844 27.890625 L 32.339844 31.5 L 34.40625 30.726562 L 34.40625 26.796875 C 34.40625 26.550781 34.628906 26.324219 34.878906 26.324219 C 35.125 26.324219 35.324219 26.550781 35.324219 26.796875 L 35.324219 30.402344 L 36.121094 30.105469 C 36.171875 30.082031 36.246094 30.082031 36.292969 30.082031 C 36.566406 30.082031 36.792969 30.304688 36.792969 30.578125 L 36.792969 32.070312 C 36.792969 32.269531 36.667969 32.46875 36.46875 32.542969 L 35.324219 32.941406 L 35.324219 36.921875 L 36.121094 36.648438 C 36.171875 36.621094 36.246094 36.621094 36.292969 36.621094 C 36.566406 36.621094 36.792969 36.847656 36.792969 37.121094 L 36.792969 38.613281 C 36.792969 38.8125 36.667969 38.984375 36.46875 39.058594 L 35.324219 39.484375 Z M 32.339844 34.035156 L 32.339844 38.015625 L 34.40625 37.269531 L 34.40625 33.289062 Z M 32.339844 34.035156 "/>
<path style=" stroke:none;fill-rule:nonzero;fill:rgb(0%,0%,0%);fill-opacity:1;" d="M 49.851562 49.628906 C 49.851562 49.878906 49.652344 50.101562 49.402344 50.101562 C 49.152344 50.101562 48.929688 49.878906 48.929688 49.628906 L 48.929688 46.023438 L 46.867188 46.796875 L 46.867188 50.726562 C 46.867188 50.972656 46.640625 51.199219 46.394531 51.199219 C 46.144531 51.199219 45.945312 50.972656 45.945312 50.726562 L 45.945312 47.117188 L 45.148438 47.417969 C 45.101562 47.441406 45.023438 47.441406 44.976562 47.441406 C 44.703125 47.441406 44.476562 47.21875 44.476562 46.945312 L 44.476562 45.453125 C 44.476562 45.253906 44.601562 45.054688 44.800781 44.980469 L 45.945312 44.582031 L 45.945312 40.601562 L 45.148438 40.875 C 45.101562 40.902344 45.023438 40.902344 44.976562 40.902344 C 44.703125 40.902344 44.476562 40.675781 44.476562 40.402344 L 44.476562 38.910156 C 44.476562 38.710938 44.601562 38.539062 44.800781 38.464844 L 45.945312 38.039062 L 45.945312 34.109375 C 45.945312 33.863281 46.144531 33.636719 46.394531 33.636719 C 46.640625 33.636719 46.867188 33.863281 46.867188 34.109375 L 46.867188 37.71875 L 48.929688 36.945312 L 48.929688 33.015625 C 48.929688 32.765625 49.152344 32.542969 49.402344 32.542969 C 49.652344 32.542969 49.851562 32.765625 49.851562 33.015625 L 49.851562 36.621094 L 50.644531 36.324219 C 50.695312 36.300781 50.769531 36.300781 50.820312 36.300781 C 51.09375 36.300781 51.316406 36.523438 51.316406 36.796875 L 51.316406 38.289062 C 51.316406 38.488281 51.195312 38.6875 50.996094 38.761719 L 49.851562 39.160156 L 49.851562 43.140625 L 50.644531 42.867188 C 50.695312 42.839844 50.769531 42.839844 50.820312 42.839844 C 51.09375 42.839844 51.316406 43.0625 51.316406 43.339844 L 51.316406 44.832031 C 51.316406 45.03125 51.195312 45.203125 50.996094 45.277344 L 49.851562 45.699219 Z M 46.867188 40.253906 L 46.867188 44.234375 L 48.929688 43.488281 L 48.929688 39.507812 Z M 46.867188 40.253906 "/>
<path style=" stroke:none;fill-rule:nonzero;fill:rgb(0%,0%,0%);fill-opacity:1;" d="M 23.390625 13.890625 C 23.390625 13.191406 23.960938 12.621094 24.65625 12.621094 C 25.355469 12.621094 25.925781 13.191406 25.925781 13.890625 C 25.925781 14.585938 25.355469 15.15625 24.65625 15.15625 C 23.960938 15.15625 23.390625 14.585938 23.390625 13.890625 Z M 23.390625 7.671875 C 23.390625 6.972656 23.960938 6.402344 24.65625 6.402344 C 25.355469 6.402344 25.925781 6.972656 25.925781 7.671875 C 25.925781 8.367188 25.355469 8.9375 24.65625 8.9375 C 23.960938 8.9375 23.390625 8.367188 23.390625 7.671875 Z M 15.304688 4.238281 C 19.585938 4.238281 22.59375 6.425781 22.59375 10.480469 C 22.59375 17.023438 16.050781 20.777344 9.757812 23.441406 C 9.683594 23.515625 9.609375 23.539062 9.535156 23.539062 C 9.363281 23.539062 9.210938 23.390625 9.210938 23.214844 C 9.210938 23.140625 9.238281 23.066406 9.3125 22.992188 C 14.335938 20.058594 19.558594 16.402344 19.558594 10.730469 C 19.558594 7.746094 17.992188 4.886719 15.304688 4.886719 C 13.464844 4.886719 12.097656 6.226562 11.476562 8.019531 C 11.75 7.894531 12.023438 7.820312 12.320312 7.820312 C 13.6875 7.820312 14.808594 8.9375 14.808594 10.308594 C 14.808594 11.75 13.714844 12.945312 12.320312 12.945312 C 10.828125 12.945312 9.535156 11.773438 9.535156 10.308594 C 9.535156 7 12.074219 4.238281 15.304688 4.238281 Z M 15.304688 4.238281 "/>
<path style=" stroke:none;fill-rule:nonzero;fill:rgb(0%,0%,0%);fill-opacity:1;" d="M 73.214844 22.941406 C 74.582031 22.941406 75.898438 23.640625 75.898438 25.15625 C 75.898438 26.921875 74.53125 28.164062 73.363281 28.863281 C 72.492188 29.382812 71.496094 29.707031 70.476562 29.707031 C 69.109375 29.707031 67.789062 29.011719 67.789062 27.496094 C 67.789062 25.726562 69.160156 24.484375 70.328125 23.789062 C 71.199219 23.265625 72.191406 22.941406 73.214844 22.941406 Z M 73.214844 22.941406 "/>
<path style=" stroke:none;fill-rule:nonzero;fill:rgb(0%,0%,0%);fill-opacity:1;" d="M 65.507812 26.050781 C 66.875 26.050781 68.195312 26.746094 68.195312 28.265625 C 68.195312 30.03125 66.824219 31.273438 65.65625 31.972656 C 64.785156 32.492188 63.792969 32.816406 62.773438 32.816406 C 61.402344 32.816406 60.085938 32.121094 60.085938 30.601562 C 60.085938 28.835938 61.453125 27.59375 62.621094 26.898438 C 63.492188 26.375 64.488281 26.050781 65.507812 26.050781 Z M 65.507812 26.050781 "/>
<path style=" stroke:none;fill-rule:nonzero;fill:rgb(0%,0%,0%);fill-opacity:1;" d="M 65.507812 32.269531 C 66.875 32.269531 68.195312 32.964844 68.195312 34.484375 C 68.195312 36.25 66.824219 37.492188 65.65625 38.1875 C 64.785156 38.710938 63.792969 39.035156 62.773438 39.035156 C 61.402344 39.035156 60.085938 38.339844 60.085938 36.820312 C 60.085938 35.054688 61.453125 33.8125 62.621094 33.117188 C 63.492188 32.59375 64.488281 32.269531 65.507812 32.269531 Z M 65.507812 32.269531 "/>
<path style=" stroke:none;fill-rule:nonzero;fill:rgb(0%,0%,0%);fill-opacity:1;" d="M 65.507812 38.488281 C 66.875 38.488281 68.195312 39.183594 68.195312 40.703125 C 68.195312 42.46875 66.824219 43.710938 65.65625 44.40625 C 64.785156 44.929688 63.792969 45.253906 62.773438 45.253906 C 61.402344 45.253906 60.085938 44.558594 60.085938 43.039062 C 60.085938 41.273438 61.453125 40.03125 62.621094 39.332031 C 63.492188 38.8125 64.488281 38.488281 65.507812 38.488281 Z M 65.507812 38.488281 "/>
</g>
</svg>
