<?xml version="1.0" encoding="UTF-8"?>
<svg xmlns="http://www.w3.org/2000/svg" xmlns:xlink="http://www.w3.org/1999/xlink" width="69.224853pt" height="56.394781pt" viewBox="0 0 69.224853 56.394781" version="1.1">
<g id="surface1">
<path style="fill:none;stroke-width:0.1;stroke-linecap:round;stroke-linejoin:round;stroke:rgb(0%,0%,0%);stroke-opacity:1;stroke-miterlimit:4;" d="M 0.049863 -0.000217086 L 8.865413 -0.000217086 " transform="matrix(6.218149,0,0,6.218149,4.561038,37.739631)"/>
<path style="fill:none;stroke-width:0.1;stroke-linecap:round;stroke-linejoin:round;stroke:rgb(0%,0%,0%);stroke-opacity:1;stroke-miterlimit:4;" d="M 0.049863 -0.000313735 L 8.865413 -0.000313735 " transform="matrix(6.218149,0,0,6.218149,4.561038,31.521482)"/>
<path style="fill:none;stroke-width:0.1;stroke-linecap:round;stroke-linejoin:round;stroke:rgb(0%,0%,0%);stroke-opacity:1;stroke-miterlimit:4;" d="M 0.049863 0.000217818 L 8.865413 0.000217818 " transform="matrix(6.218149,0,0,6.218149,4.561038,25.303333)"/>
<path style="fill:none;stroke-width:0.1;stroke-linecap:round;stroke-linejoin:round;stroke:rgb(0%,0%,0%);stroke-opacity:1;stroke-miterlimit:4;" d="M 0.049863 0.000121169 L 8.865413 0.000121169 " transform="matrix(6.218149,0,0,6.218149,4.561038,19.085184)"/>
<path style="fill:none;stroke-width:0.1;stroke-linecap:round;stroke-linejoin:round;stroke:rgb(0%,0%,0%);stroke-opacity:1;stroke-miterlimit:4;" d="M 0.049863 0.0000245208 L 8.865413 0.0000245208 " transform="matrix(6.218149,0,0,6.218149,4.561038,12.867035)"/>
<path style=" stroke:none;fill-rule:nonzero;fill:rgb(0%,0%,0%);fill-opacity:1;" d="M 39.925781 43.335938 L 50.847656 43.335938 C 51.191406 43.335938 51.46875 43.613281 51.46875 43.957031 C 51.46875 44.300781 51.191406 44.578125 50.847656 44.578125 L 39.925781 44.578125 C 39.582031 44.578125 39.304688 44.300781 39.304688 43.957031 C 39.304688 43.613281 39.582031 43.335938 39.925781 43.335938 Z M 39.925781 43.335938 "/>
<path style=" stroke:none;fill-rule:nonzero;fill:rgb(0%,0%,0%);fill-opacity:1;" d="M 34.851562 30.5 L 34.828125 32.144531 L 34.828125 32.417969 C 34.828125 32.964844 34.851562 33.511719 34.925781 34.058594 C 36.046875 33.113281 37.238281 32.070312 37.238281 30.601562 C 37.238281 29.78125 36.890625 28.933594 36.171875 28.933594 C 35.398438 28.933594 34.878906 29.679688 34.851562 30.5 Z M 33.808594 34.953125 L 33.507812 20.15625 C 33.707031 20.03125 33.957031 19.957031 34.179688 19.957031 C 34.40625 19.957031 34.652344 20.03125 34.851562 20.15625 L 34.679688 28.734375 C 35.300781 28.214844 36.121094 27.890625 36.941406 27.890625 C 38.234375 27.890625 39.15625 29.082031 39.15625 30.425781 C 39.15625 32.417969 37.015625 33.335938 35.5 34.628906 C 35.125 34.953125 34.902344 35.574219 34.378906 35.574219 C 34.054688 35.574219 33.808594 35.300781 33.808594 34.953125 Z M 33.808594 34.953125 "/>
<path style=" stroke:none;fill-rule:nonzero;fill:rgb(0%,0%,0%);fill-opacity:1;" d="M 31.371094 42.9375 L 31.34375 44.578125 L 31.34375 44.851562 C 31.34375 45.402344 31.371094 45.949219 31.445312 46.496094 C 32.5625 45.550781 33.757812 44.503906 33.757812 43.039062 C 33.757812 42.214844 33.410156 41.371094 32.6875 41.371094 C 31.917969 41.371094 31.394531 42.117188 31.371094 42.9375 Z M 30.324219 47.390625 L 30.027344 32.589844 C 30.226562 32.464844 30.472656 32.390625 30.699219 32.390625 C 30.921875 32.390625 31.171875 32.464844 31.371094 32.589844 L 31.195312 41.171875 C 31.816406 40.648438 32.636719 40.328125 33.460938 40.328125 C 34.753906 40.328125 35.671875 41.519531 35.671875 42.863281 C 35.671875 44.851562 33.535156 45.773438 32.015625 47.066406 C 31.644531 47.390625 31.417969 48.011719 30.898438 48.011719 C 30.574219 48.011719 30.324219 47.738281 30.324219 47.390625 Z M 30.324219 47.390625 "/>
<path style=" stroke:none;fill-rule:nonzero;fill:rgb(0%,0%,0%);fill-opacity:1;" d="M 48.882812 4.578125 L 49.191406 4.578125 C 49.328125 4.578125 49.441406 4.6875 49.441406 4.824219 L 49.441406 42.550781 C 49.441406 42.6875 49.328125 42.800781 49.191406 42.800781 L 48.882812 42.800781 C 48.746094 42.800781 48.632812 42.6875 48.632812 42.550781 L 48.632812 4.824219 C 48.632812 4.6875 48.746094 4.578125 48.882812 4.578125 Z M 48.882812 4.578125 "/>
<path style=" stroke:none;fill-rule:nonzero;fill:rgb(0%,0%,0%);fill-opacity:1;" d="M 23.390625 22.195312 C 23.390625 21.496094 23.960938 20.925781 24.65625 20.925781 C 25.355469 20.925781 25.925781 21.496094 25.925781 22.195312 C 25.925781 22.890625 25.355469 23.460938 24.65625 23.460938 C 23.960938 23.460938 23.390625 22.890625 23.390625 22.195312 Z M 23.390625 15.976562 C 23.390625 15.28125 23.960938 14.707031 24.65625 14.707031 C 25.355469 14.707031 25.925781 15.28125 25.925781 15.976562 C 25.925781 16.671875 25.355469 17.246094 24.65625 17.246094 C 23.960938 17.246094 23.390625 16.671875 23.390625 15.976562 Z M 15.304688 12.542969 C 19.585938 12.542969 22.59375 14.734375 22.59375 18.785156 C 22.59375 25.328125 16.050781 29.082031 9.757812 31.746094 C 9.683594 31.820312 9.609375 31.84375 9.535156 31.84375 C 9.363281 31.84375 9.210938 31.695312 9.210938 31.519531 C 9.210938 31.445312 9.238281 31.371094 9.3125 31.296875 C 14.335938 28.363281 19.558594 24.707031 19.558594 19.035156 C 19.558594 16.050781 17.992188 13.191406 15.304688 13.191406 C 13.464844 13.191406 12.097656 14.535156 11.476562 16.324219 C 11.75 16.199219 12.023438 16.125 12.320312 16.125 C 13.6875 16.125 14.808594 17.246094 14.808594 18.613281 C 14.808594 20.054688 13.714844 21.25 12.320312 21.25 C 10.828125 21.25 9.535156 20.082031 9.535156 18.613281 C 9.535156 15.304688 12.074219 12.542969 15.304688 12.542969 Z M 15.304688 12.542969 "/>
<path style=" stroke:none;fill-rule:nonzero;fill:rgb(0%,0%,0%);fill-opacity:1;" d="M 46.753906 21.921875 C 48.121094 21.921875 49.441406 22.617188 49.441406 24.132812 C 49.441406 25.898438 48.070312 27.144531 46.902344 27.839844 C 46.03125 28.363281 45.039062 28.6875 44.019531 28.6875 C 42.648438 28.6875 41.332031 27.988281 41.332031 26.472656 C 41.332031 24.707031 42.699219 23.460938 43.867188 22.765625 C 44.738281 22.242188 45.734375 21.921875 46.753906 21.921875 Z M 46.753906 21.921875 "/>
<path style=" stroke:none;fill-rule:nonzero;fill:rgb(0%,0%,0%);fill-opacity:1;" d="M 46.753906 28.140625 C 48.121094 28.140625 49.441406 28.835938 49.441406 30.351562 C 49.441406 32.117188 48.070312 33.363281 46.902344 34.058594 C 46.03125 34.582031 45.039062 34.902344 44.019531 34.902344 C 42.648438 34.902344 41.332031 34.207031 41.332031 32.691406 C 41.332031 30.925781 42.699219 29.679688 43.867188 28.984375 C 44.738281 28.460938 45.734375 28.140625 46.753906 28.140625 Z M 46.753906 28.140625 "/>
<path style=" stroke:none;fill-rule:nonzero;fill:rgb(0%,0%,0%);fill-opacity:1;" d="M 46.753906 34.355469 C 48.121094 34.355469 49.441406 35.054688 49.441406 36.570312 C 49.441406 38.335938 48.070312 39.582031 46.902344 40.277344 C 46.03125 40.800781 45.039062 41.121094 44.019531 41.121094 C 42.648438 41.121094 41.332031 40.425781 41.332031 38.910156 C 41.332031 37.144531 42.699219 35.898438 43.867188 35.203125 C 44.738281 34.679688 45.734375 34.355469 46.753906 34.355469 Z M 46.753906 34.355469 "/>
<path style=" stroke:none;fill-rule:nonzero;fill:rgb(0%,0%,0%);fill-opacity:1;" d="M 46.753906 40.574219 C 48.121094 40.574219 49.441406 41.273438 49.441406 42.789062 C 49.441406 44.554688 48.070312 45.796875 46.902344 46.496094 C 46.03125 47.015625 45.039062 47.339844 44.019531 47.339844 C 42.648438 47.339844 41.332031 46.644531 41.332031 45.125 C 41.332031 43.359375 42.699219 42.117188 43.867188 41.421875 C 44.738281 40.898438 45.734375 40.574219 46.753906 40.574219 Z M 46.753906 40.574219 "/>
</g>
</svg>
