<?xml version="1.0" encoding="UTF-8"?>
<svg xmlns="http://www.w3.org/2000/svg" xmlns:xlink="http://www.w3.org/1999/xlink" width="77.455343pt" height="58.883453pt" viewBox="0 0 77.455343 58.883453" version="1.1">
<g id="surface1">
<path style="fill:none;stroke-width:0.1;stroke-linecap:round;stroke-linejoin:round;stroke:rgb(0%,0%,0%);stroke-opacity:1;stroke-miterlimit:4;" d="M 0.049863 0.000192316 L 10.104855 0.000192316 " transform="matrix(6.218149,0,0,6.218149,4.561038,44.123804)"/>
<path style="fill:none;stroke-width:0.1;stroke-linecap:round;stroke-linejoin:round;stroke:rgb(0%,0%,0%);stroke-opacity:1;stroke-miterlimit:4;" d="M 0.049863 0.0000956673 L 10.104855 0.0000956673 " transform="matrix(6.218149,0,0,6.218149,4.561038,37.905655)"/>
<path style="fill:none;stroke-width:0.1;stroke-linecap:round;stroke-linejoin:round;stroke:rgb(0%,0%,0%);stroke-opacity:1;stroke-miterlimit:4;" d="M 0.049863 -0.000000981293 L 10.104855 -0.000000981293 " transform="matrix(6.218149,0,0,6.218149,4.561038,31.687506)"/>
<path style="fill:none;stroke-width:0.1;stroke-linecap:round;stroke-linejoin:round;stroke:rgb(0%,0%,0%);stroke-opacity:1;stroke-miterlimit:4;" d="M 0.049863 -0.0000976299 L 10.104855 -0.0000976299 " transform="matrix(6.218149,0,0,6.218149,4.561038,25.469357)"/>
<path style="fill:none;stroke-width:0.1;stroke-linecap:round;stroke-linejoin:round;stroke:rgb(0%,0%,0%);stroke-opacity:1;stroke-miterlimit:4;" d="M 0.049863 -0.00019404 L 10.104855 -0.00019404 " transform="matrix(6.218149,0,0,6.218149,4.561038,19.251207)"/>
<path style=" stroke:none;fill-rule:nonzero;fill:rgb(0%,0%,0%);fill-opacity:1;" d="M 47.632812 12.410156 L 58.550781 12.410156 C 58.894531 12.410156 59.171875 12.691406 59.171875 13.03125 C 59.171875 13.375 58.894531 13.65625 58.550781 13.65625 L 47.632812 13.65625 C 47.289062 13.65625 47.007812 13.375 47.007812 13.03125 C 47.007812 12.691406 47.289062 12.410156 47.632812 12.410156 Z M 47.632812 12.410156 "/>
<path style=" stroke:none;fill-rule:nonzero;fill:rgb(0%,0%,0%);fill-opacity:1;" d="M 34.851562 15.121094 L 34.828125 16.765625 L 34.828125 17.039062 C 34.828125 17.585938 34.851562 18.132812 34.925781 18.679688 C 36.046875 17.734375 37.238281 16.6875 37.238281 15.222656 C 37.238281 14.402344 36.890625 13.554688 36.171875 13.554688 C 35.398438 13.554688 34.878906 14.300781 34.851562 15.121094 Z M 33.808594 19.574219 L 33.507812 4.773438 C 33.707031 4.652344 33.957031 4.578125 34.179688 4.578125 C 34.40625 4.578125 34.652344 4.652344 34.851562 4.773438 L 34.679688 13.355469 C 35.300781 12.835938 36.121094 12.511719 36.941406 12.511719 C 38.234375 12.511719 39.15625 13.703125 39.15625 15.046875 C 39.15625 17.039062 37.015625 17.957031 35.5 19.25 C 35.125 19.574219 34.902344 20.195312 34.378906 20.195312 C 34.054688 20.195312 33.808594 19.921875 33.808594 19.574219 Z M 33.808594 19.574219 "/>
<path style=" stroke:none;fill-rule:nonzero;fill:rgb(0%,0%,0%);fill-opacity:1;" d="M 31.371094 27.558594 L 31.34375 29.199219 L 31.34375 29.472656 C 31.34375 30.019531 31.371094 30.566406 31.445312 31.117188 C 32.5625 30.171875 33.757812 29.125 33.757812 27.65625 C 33.757812 26.835938 33.410156 25.992188 32.6875 25.992188 C 31.917969 25.992188 31.394531 26.738281 31.371094 27.558594 Z M 30.324219 32.011719 L 30.027344 17.210938 C 30.226562 17.085938 30.472656 17.011719 30.699219 17.011719 C 30.921875 17.011719 31.171875 17.085938 31.371094 17.210938 L 31.195312 25.792969 C 31.816406 25.269531 32.636719 24.945312 33.460938 24.945312 C 34.753906 24.945312 35.671875 26.140625 35.671875 27.484375 C 35.671875 29.472656 33.535156 30.394531 32.015625 31.6875 C 31.644531 32.011719 31.417969 32.632812 30.898438 32.632812 C 30.574219 32.632812 30.324219 32.359375 30.324219 32.011719 Z M 30.324219 32.011719 "/>
<path style=" stroke:none;fill-rule:nonzero;fill:rgb(0%,0%,0%);fill-opacity:1;" d="M 49.285156 14.191406 L 49.597656 14.191406 C 49.734375 14.191406 49.84375 14.300781 49.84375 14.4375 L 49.84375 50.09375 C 49.84375 50.230469 49.734375 50.34375 49.597656 50.34375 L 49.285156 50.34375 C 49.148438 50.34375 49.035156 50.230469 49.035156 50.09375 L 49.035156 14.4375 C 49.035156 14.300781 49.148438 14.191406 49.285156 14.191406 Z M 49.285156 14.191406 "/>
<path style=" stroke:none;fill-rule:nonzero;fill:rgb(0%,0%,0%);fill-opacity:1;" d="M 23.390625 28.578125 C 23.390625 27.882812 23.960938 27.308594 24.65625 27.308594 C 25.355469 27.308594 25.925781 27.882812 25.925781 28.578125 C 25.925781 29.273438 25.355469 29.847656 24.65625 29.847656 C 23.960938 29.847656 23.390625 29.273438 23.390625 28.578125 Z M 23.390625 22.359375 C 23.390625 21.664062 23.960938 21.089844 24.65625 21.089844 C 25.355469 21.089844 25.925781 21.664062 25.925781 22.359375 C 25.925781 23.058594 25.355469 23.628906 24.65625 23.628906 C 23.960938 23.628906 23.390625 23.058594 23.390625 22.359375 Z M 15.304688 18.929688 C 19.585938 18.929688 22.59375 21.117188 22.59375 25.171875 C 22.59375 31.710938 16.050781 35.46875 9.757812 38.128906 C 9.683594 38.203125 9.609375 38.230469 9.535156 38.230469 C 9.363281 38.230469 9.210938 38.078125 9.210938 37.90625 C 9.210938 37.832031 9.238281 37.757812 9.3125 37.683594 C 14.335938 34.746094 19.558594 31.089844 19.558594 25.417969 C 19.558594 22.433594 17.992188 19.574219 15.304688 19.574219 C 13.464844 19.574219 12.097656 20.917969 11.476562 22.707031 C 11.75 22.585938 12.023438 22.507812 12.320312 22.507812 C 13.6875 22.507812 14.808594 23.628906 14.808594 24.996094 C 14.808594 26.4375 13.714844 27.632812 12.320312 27.632812 C 10.828125 27.632812 9.535156 26.464844 9.535156 24.996094 C 9.535156 21.6875 12.074219 18.929688 15.304688 18.929688 Z M 15.304688 18.929688 "/>
<path style=" stroke:none;fill-rule:nonzero;fill:rgb(0%,0%,0%);fill-opacity:1;" d="M 54.460938 9.648438 C 55.828125 9.648438 57.144531 10.347656 57.144531 11.863281 C 57.144531 13.628906 55.777344 14.875 54.609375 15.570312 C 53.738281 16.09375 52.742188 16.414062 51.722656 16.414062 C 50.355469 16.414062 49.035156 15.71875 49.035156 14.203125 C 49.035156 12.4375 50.40625 11.191406 51.574219 10.496094 C 52.445312 9.972656 53.4375 9.648438 54.460938 9.648438 Z M 54.460938 9.648438 "/>
<path style=" stroke:none;fill-rule:nonzero;fill:rgb(0%,0%,0%);fill-opacity:1;" d="M 46.753906 12.757812 C 48.121094 12.757812 49.441406 13.457031 49.441406 14.972656 C 49.441406 16.738281 48.070312 17.984375 46.902344 18.679688 C 46.03125 19.203125 45.039062 19.523438 44.019531 19.523438 C 42.648438 19.523438 41.332031 18.828125 41.332031 17.3125 C 41.332031 15.546875 42.699219 14.300781 43.867188 13.605469 C 44.738281 13.082031 45.734375 12.757812 46.753906 12.757812 Z M 46.753906 12.757812 "/>
<path style=" stroke:none;fill-rule:nonzero;fill:rgb(0%,0%,0%);fill-opacity:1;" d="M 54.460938 18.976562 C 55.828125 18.976562 57.144531 19.675781 57.144531 21.191406 C 57.144531 22.957031 55.777344 24.199219 54.609375 24.898438 C 53.738281 25.417969 52.742188 25.742188 51.722656 25.742188 C 50.355469 25.742188 49.035156 25.046875 49.035156 23.527344 C 49.035156 21.761719 50.40625 20.519531 51.574219 19.824219 C 52.445312 19.300781 53.4375 18.976562 54.460938 18.976562 Z M 54.460938 18.976562 "/>
<path style=" stroke:none;fill-rule:nonzero;fill:rgb(0%,0%,0%);fill-opacity:1;" d="M 54.460938 25.195312 C 55.828125 25.195312 57.144531 25.890625 57.144531 27.410156 C 57.144531 29.175781 55.777344 30.417969 54.609375 31.117188 C 53.738281 31.636719 52.742188 31.960938 51.722656 31.960938 C 50.355469 31.960938 49.035156 31.265625 49.035156 29.746094 C 49.035156 27.980469 50.40625 26.738281 51.574219 26.042969 C 52.445312 25.519531 53.4375 25.195312 54.460938 25.195312 Z M 54.460938 25.195312 "/>
</g>
</svg>
