<?xml version="1.0" encoding="UTF-8"?>
<svg xmlns="http://www.w3.org/2000/svg" xmlns:xlink="http://www.w3.org/1999/xlink" width="87.368186pt" height="62.027005pt" viewBox="0 0 87.368186 62.027005" version="1.1">
<g id="surface1">
<path style="fill:none;stroke-width:0.1;stroke-linecap:round;stroke-linejoin:round;stroke:rgb(0%,0%,0%);stroke-opacity:1;stroke-miterlimit:4;" d="M 0.049863 -0.000217086 L 11.597461 -0.000217086 " transform="matrix(6.218149,0,0,6.218149,4.561038,37.739631)"/>
<path style="fill:none;stroke-width:0.1;stroke-linecap:round;stroke-linejoin:round;stroke:rgb(0%,0%,0%);stroke-opacity:1;stroke-miterlimit:4;" d="M 0.049863 -0.000313735 L 11.597461 -0.000313735 " transform="matrix(6.218149,0,0,6.218149,4.561038,31.521482)"/>
<path style="fill:none;stroke-width:0.1;stroke-linecap:round;stroke-linejoin:round;stroke:rgb(0%,0%,0%);stroke-opacity:1;stroke-miterlimit:4;" d="M 0.049863 0.000217818 L 11.597461 0.000217818 " transform="matrix(6.218149,0,0,6.218149,4.561038,25.303333)"/>
<path style="fill:none;stroke-width:0.1;stroke-linecap:round;stroke-linejoin:round;stroke:rgb(0%,0%,0%);stroke-opacity:1;stroke-miterlimit:4;" d="M 0.049863 0.000121169 L 11.597461 0.000121169 " transform="matrix(6.218149,0,0,6.218149,4.561038,19.085184)"/>
<path style="fill:none;stroke-width:0.1;stroke-linecap:round;stroke-linejoin:round;stroke:rgb(0%,0%,0%);stroke-opacity:1;stroke-miterlimit:4;" d="M 0.049863 0.0000245208 L 11.597461 0.0000245208 " transform="matrix(6.218149,0,0,6.218149,4.561038,12.867035)"/>
<path style=" stroke:none;fill-rule:nonzero;fill:rgb(0%,0%,0%);fill-opacity:1;" d="M 56.910156 43.335938 L 67.832031 43.335938 C 68.175781 43.335938 68.453125 43.613281 68.453125 43.957031 C 68.453125 44.300781 68.175781 44.578125 67.832031 44.578125 L 56.910156 44.578125 C 56.566406 44.578125 56.289062 44.300781 56.289062 43.957031 C 56.289062 43.613281 56.566406 43.335938 56.910156 43.335938 Z M 56.910156 43.335938 "/>
<path style=" stroke:none;fill-rule:nonzero;fill:rgb(0%,0%,0%);fill-opacity:1;" d="M 65.867188 4.578125 L 66.179688 4.578125 C 66.316406 4.578125 66.425781 4.6875 66.425781 4.824219 L 66.425781 42.550781 C 66.425781 42.6875 66.316406 42.800781 66.179688 42.800781 L 65.867188 42.800781 C 65.730469 42.800781 65.617188 42.6875 65.617188 42.550781 L 65.617188 4.824219 C 65.617188 4.6875 65.730469 4.578125 65.867188 4.578125 Z M 65.867188 4.578125 "/>
<path style=" stroke:none;fill-rule:nonzero;fill:rgb(0%,0%,0%);fill-opacity:1;" d="M 54.671875 33.0625 C 54.671875 33.3125 54.476562 33.535156 54.226562 33.535156 C 53.976562 33.535156 53.753906 33.3125 53.753906 33.0625 L 53.753906 29.457031 L 51.6875 30.226562 L 51.6875 34.15625 C 51.6875 34.40625 51.464844 34.628906 51.214844 34.628906 C 50.96875 34.628906 50.769531 34.40625 50.769531 34.15625 L 50.769531 30.550781 L 49.972656 30.851562 C 49.921875 30.875 49.847656 30.875 49.796875 30.875 C 49.523438 30.875 49.300781 30.652344 49.300781 30.378906 L 49.300781 28.886719 C 49.300781 28.6875 49.425781 28.488281 49.625 28.414062 L 50.769531 28.015625 L 50.769531 24.035156 L 49.972656 24.308594 C 49.921875 24.332031 49.847656 24.332031 49.796875 24.332031 C 49.523438 24.332031 49.300781 24.109375 49.300781 23.835938 L 49.300781 22.34375 C 49.300781 22.144531 49.425781 21.96875 49.625 21.894531 L 50.769531 21.472656 L 50.769531 17.542969 C 50.769531 17.292969 50.96875 17.070312 51.214844 17.070312 C 51.464844 17.070312 51.6875 17.292969 51.6875 17.542969 L 51.6875 21.148438 L 53.753906 20.378906 L 53.753906 16.449219 C 53.753906 16.199219 53.976562 15.976562 54.226562 15.976562 C 54.476562 15.976562 54.671875 16.199219 54.671875 16.449219 L 54.671875 20.054688 L 55.46875 19.757812 C 55.519531 19.730469 55.59375 19.730469 55.644531 19.730469 C 55.917969 19.730469 56.140625 19.957031 56.140625 20.230469 L 56.140625 21.722656 C 56.140625 21.921875 56.015625 22.121094 55.816406 22.195312 L 54.671875 22.59375 L 54.671875 26.570312 L 55.46875 26.296875 C 55.519531 26.273438 55.59375 26.273438 55.644531 26.273438 C 55.917969 26.273438 56.140625 26.496094 56.140625 26.769531 L 56.140625 28.261719 C 56.140625 28.460938 56.015625 28.636719 55.816406 28.710938 L 54.671875 29.132812 Z M 51.6875 23.6875 L 51.6875 27.667969 L 53.753906 26.921875 L 53.753906 22.941406 Z M 51.6875 23.6875 "/>
<path style=" stroke:none;fill-rule:nonzero;fill:rgb(0%,0%,0%);fill-opacity:1;" d="M 43.082031 39.28125 C 43.082031 39.53125 42.882812 39.753906 42.636719 39.753906 C 42.386719 39.753906 42.164062 39.53125 42.164062 39.28125 L 42.164062 35.675781 L 40.097656 36.445312 L 40.097656 40.375 C 40.097656 40.625 39.875 40.847656 39.625 40.847656 C 39.378906 40.847656 39.179688 40.625 39.179688 40.375 L 39.179688 36.769531 L 38.382812 37.066406 C 38.332031 37.09375 38.257812 37.09375 38.207031 37.09375 C 37.933594 37.09375 37.710938 36.867188 37.710938 36.59375 L 37.710938 35.101562 C 37.710938 34.902344 37.835938 34.707031 38.035156 34.628906 L 39.179688 34.234375 L 39.179688 30.253906 L 38.382812 30.527344 C 38.332031 30.550781 38.257812 30.550781 38.207031 30.550781 C 37.933594 30.550781 37.710938 30.328125 37.710938 30.054688 L 37.710938 28.5625 C 37.710938 28.363281 37.835938 28.1875 38.035156 28.113281 L 39.179688 27.691406 L 39.179688 23.761719 C 39.179688 23.511719 39.378906 23.289062 39.625 23.289062 C 39.875 23.289062 40.097656 23.511719 40.097656 23.761719 L 40.097656 27.367188 L 42.164062 26.597656 L 42.164062 22.667969 C 42.164062 22.417969 42.386719 22.195312 42.636719 22.195312 C 42.882812 22.195312 43.082031 22.417969 43.082031 22.667969 L 43.082031 26.273438 L 43.878906 25.976562 C 43.929688 25.949219 44.003906 25.949219 44.054688 25.949219 C 44.328125 25.949219 44.550781 26.175781 44.550781 26.449219 L 44.550781 27.941406 C 44.550781 28.140625 44.425781 28.335938 44.226562 28.414062 L 43.082031 28.808594 L 43.082031 32.789062 L 43.878906 32.515625 C 43.929688 32.492188 44.003906 32.492188 44.054688 32.492188 C 44.328125 32.492188 44.550781 32.714844 44.550781 32.988281 L 44.550781 34.480469 C 44.550781 34.679688 44.425781 34.855469 44.226562 34.929688 L 43.082031 35.351562 Z M 40.097656 29.90625 L 40.097656 33.882812 L 42.164062 33.136719 L 42.164062 29.160156 Z M 40.097656 29.90625 "/>
<path style=" stroke:none;fill-rule:nonzero;fill:rgb(0%,0%,0%);fill-opacity:1;" d="M 33.734375 37.738281 C 34.304688 38.3125 35.125 38.4375 35.945312 38.4375 C 36.097656 38.4375 36.195312 38.535156 36.195312 38.683594 L 36.417969 40.847656 C 36.445312 40.996094 36.320312 41.121094 36.171875 41.097656 L 34.007812 40.875 C 33.882812 40.847656 33.757812 40.75 33.757812 40.625 C 33.757812 39.804688 33.632812 38.984375 33.0625 38.410156 C 32.488281 38.984375 32.390625 39.804688 32.390625 40.625 C 32.390625 40.75 32.265625 40.847656 32.140625 40.875 L 29.953125 41.097656 C 29.804688 41.121094 29.679688 40.996094 29.703125 40.847656 L 29.925781 38.683594 C 29.925781 38.535156 30.027344 38.4375 30.175781 38.4375 C 30.996094 38.4375 31.816406 38.3125 32.390625 37.738281 C 31.816406 37.167969 30.996094 37.042969 30.175781 37.042969 C 30.027344 37.042969 29.925781 36.945312 29.925781 36.792969 L 29.703125 34.628906 C 29.679688 34.480469 29.804688 34.355469 29.953125 34.382812 L 32.140625 34.605469 C 32.265625 34.628906 32.363281 34.730469 32.363281 34.855469 C 32.363281 35.675781 32.488281 36.496094 33.0625 37.066406 C 33.632812 36.496094 33.757812 35.675781 33.757812 34.855469 C 33.757812 34.730469 33.882812 34.628906 34.007812 34.605469 L 36.171875 34.382812 C 36.320312 34.355469 36.445312 34.480469 36.417969 34.628906 L 36.195312 36.792969 C 36.195312 36.945312 36.097656 37.042969 35.945312 37.042969 C 35.125 37.042969 34.304688 37.167969 33.734375 37.738281 Z M 33.734375 37.738281 "/>
<path style=" stroke:none;fill-rule:nonzero;fill:rgb(0%,0%,0%);fill-opacity:1;" d="M 49.523438 51.71875 C 49.523438 51.964844 49.324219 52.191406 49.078125 52.191406 C 48.828125 52.191406 48.605469 51.964844 48.605469 51.71875 L 48.605469 48.113281 L 46.539062 48.882812 L 46.539062 52.8125 C 46.539062 53.0625 46.316406 53.285156 46.066406 53.285156 C 45.820312 53.285156 45.621094 53.0625 45.621094 52.8125 L 45.621094 49.207031 L 44.824219 49.503906 C 44.773438 49.527344 44.699219 49.527344 44.648438 49.527344 C 44.375 49.527344 44.152344 49.304688 44.152344 49.03125 L 44.152344 47.539062 C 44.152344 47.339844 44.277344 47.140625 44.476562 47.066406 L 45.621094 46.667969 L 45.621094 42.6875 L 44.824219 42.960938 C 44.773438 42.988281 44.699219 42.988281 44.648438 42.988281 C 44.375 42.988281 44.152344 42.765625 44.152344 42.492188 L 44.152344 40.996094 C 44.152344 40.800781 44.277344 40.625 44.476562 40.550781 L 45.621094 40.128906 L 45.621094 36.199219 C 45.621094 35.949219 45.820312 35.726562 46.066406 35.726562 C 46.316406 35.726562 46.539062 35.949219 46.539062 36.199219 L 46.539062 39.804688 L 48.605469 39.03125 L 48.605469 35.101562 C 48.605469 34.855469 48.828125 34.628906 49.078125 34.628906 C 49.324219 34.628906 49.523438 34.855469 49.523438 35.101562 L 49.523438 38.710938 L 50.320312 38.410156 C 50.371094 38.386719 50.445312 38.386719 50.496094 38.386719 C 50.769531 38.386719 50.992188 38.609375 50.992188 38.882812 L 50.992188 40.375 C 50.992188 40.574219 50.867188 40.773438 50.667969 40.847656 L 49.523438 41.246094 L 49.523438 45.226562 L 50.320312 44.953125 C 50.371094 44.929688 50.445312 44.929688 50.496094 44.929688 C 50.769531 44.929688 50.992188 45.152344 50.992188 45.425781 L 50.992188 46.917969 C 50.992188 47.117188 50.867188 47.289062 50.667969 47.367188 L 49.523438 47.789062 Z M 46.539062 42.339844 L 46.539062 46.320312 L 48.605469 45.574219 L 48.605469 41.59375 Z M 46.539062 42.339844 "/>
<path style=" stroke:none;fill-rule:nonzero;fill:rgb(0%,0%,0%);fill-opacity:1;" d="M 23.390625 22.195312 C 23.390625 21.496094 23.960938 20.925781 24.65625 20.925781 C 25.355469 20.925781 25.925781 21.496094 25.925781 22.195312 C 25.925781 22.890625 25.355469 23.460938 24.65625 23.460938 C 23.960938 23.460938 23.390625 22.890625 23.390625 22.195312 Z M 23.390625 15.976562 C 23.390625 15.28125 23.960938 14.707031 24.65625 14.707031 C 25.355469 14.707031 25.925781 15.28125 25.925781 15.976562 C 25.925781 16.671875 25.355469 17.246094 24.65625 17.246094 C 23.960938 17.246094 23.390625 16.671875 23.390625 15.976562 Z M 15.304688 12.542969 C 19.585938 12.542969 22.59375 14.734375 22.59375 18.785156 C 22.59375 25.328125 16.050781 29.082031 9.757812 31.746094 C 9.683594 31.820312 9.609375 31.84375 9.535156 31.84375 C 9.363281 31.84375 9.210938 31.695312 9.210938 31.519531 C 9.210938 31.445312 9.238281 31.371094 9.3125 31.296875 C 14.335938 28.363281 19.558594 24.707031 19.558594 19.035156 C 19.558594 16.050781 17.992188 13.191406 15.304688 13.191406 C 13.464844 13.191406 12.097656 14.535156 11.476562 16.324219 C 11.75 16.199219 12.023438 16.125 12.320312 16.125 C 13.6875 16.125 14.808594 17.246094 14.808594 18.613281 C 14.808594 20.054688 13.714844 21.25 12.320312 21.25 C 10.828125 21.25 9.535156 20.082031 9.535156 18.613281 C 9.535156 15.304688 12.074219 12.542969 15.304688 12.542969 Z M 15.304688 12.542969 "/>
<path style=" stroke:none;fill-rule:nonzero;fill:rgb(0%,0%,0%);fill-opacity:1;" d="M 63.738281 21.921875 C 65.109375 21.921875 66.425781 22.617188 66.425781 24.132812 C 66.425781 25.898438 65.058594 27.144531 63.890625 27.839844 C 63.019531 28.363281 62.023438 28.6875 61.003906 28.6875 C 59.636719 28.6875 58.316406 27.988281 58.316406 26.472656 C 58.316406 24.707031 59.6875 23.460938 60.855469 22.765625 C 61.726562 22.242188 62.71875 21.921875 63.738281 21.921875 Z M 63.738281 21.921875 "/>
<path style=" stroke:none;fill-rule:nonzero;fill:rgb(0%,0%,0%);fill-opacity:1;" d="M 63.738281 28.140625 C 65.109375 28.140625 66.425781 28.835938 66.425781 30.351562 C 66.425781 32.117188 65.058594 33.363281 63.890625 34.058594 C 63.019531 34.582031 62.023438 34.902344 61.003906 34.902344 C 59.636719 34.902344 58.316406 34.207031 58.316406 32.691406 C 58.316406 30.925781 59.6875 29.679688 60.855469 28.984375 C 61.726562 28.460938 62.71875 28.140625 63.738281 28.140625 Z M 63.738281 28.140625 "/>
<path style=" stroke:none;fill-rule:nonzero;fill:rgb(0%,0%,0%);fill-opacity:1;" d="M 63.738281 34.355469 C 65.109375 34.355469 66.425781 35.054688 66.425781 36.570312 C 66.425781 38.335938 65.058594 39.582031 63.890625 40.277344 C 63.019531 40.800781 62.023438 41.121094 61.003906 41.121094 C 59.636719 41.121094 58.316406 40.425781 58.316406 38.910156 C 58.316406 37.144531 59.6875 35.898438 60.855469 35.203125 C 61.726562 34.679688 62.71875 34.355469 63.738281 34.355469 Z M 63.738281 34.355469 "/>
<path style=" stroke:none;fill-rule:nonzero;fill:rgb(0%,0%,0%);fill-opacity:1;" d="M 63.738281 40.574219 C 65.109375 40.574219 66.425781 41.273438 66.425781 42.789062 C 66.425781 44.554688 65.058594 45.796875 63.890625 46.496094 C 63.019531 47.015625 62.023438 47.339844 61.003906 47.339844 C 59.636719 47.339844 58.316406 46.644531 58.316406 45.125 C 58.316406 43.359375 59.6875 42.117188 60.855469 41.421875 C 61.726562 40.898438 62.71875 40.574219 63.738281 40.574219 Z M 63.738281 40.574219 "/>
</g>
</svg>
