<?xml version="1.0" encoding="UTF-8"?>
<svg xmlns="http://www.w3.org/2000/svg" xmlns:xlink="http://www.w3.org/1999/xlink" width="79.654431pt" height="57.501964pt" viewBox="0 0 79.654431 57.501964" version="1.1">
<g id="surface1">
<path style="fill:none;stroke-width:0.1;stroke-linecap:round;stroke-linejoin:round;stroke:rgb(0%,0%,0%);stroke-opacity:1;stroke-miterlimit:4;" d="M 0.049863 0.0000610068 L 10.435917 0.0000610068 " transform="matrix(6.218149,0,0,6.218149,4.561038,32.409777)"/>
<path style="fill:none;stroke-width:0.1;stroke-linecap:round;stroke-linejoin:round;stroke:rgb(0%,0%,0%);stroke-opacity:1;stroke-miterlimit:4;" d="M 0.049863 -0.0000356418 L 10.435917 -0.0000356418 " transform="matrix(6.218149,0,0,6.218149,4.561038,26.191628)"/>
<path style="fill:none;stroke-width:0.1;stroke-linecap:round;stroke-linejoin:round;stroke:rgb(0%,0%,0%);stroke-opacity:1;stroke-miterlimit:4;" d="M 0.049863 -0.00013229 L 10.435917 -0.00013229 " transform="matrix(6.218149,0,0,6.218149,4.561038,19.973479)"/>
<path style="fill:none;stroke-width:0.1;stroke-linecap:round;stroke-linejoin:round;stroke:rgb(0%,0%,0%);stroke-opacity:1;stroke-miterlimit:4;" d="M 0.049863 -0.000228939 L 10.435917 -0.000228939 " transform="matrix(6.218149,0,0,6.218149,4.561038,13.75533)"/>
<path style="fill:none;stroke-width:0.1;stroke-linecap:round;stroke-linejoin:round;stroke:rgb(0%,0%,0%);stroke-opacity:1;stroke-miterlimit:4;" d="M 0.049863 0.000302495 L 10.435917 0.000302495 " transform="matrix(6.218149,0,0,6.218149,4.561038,7.537182)"/>
<path style=" stroke:none;fill-rule:nonzero;fill:rgb(0%,0%,0%);fill-opacity:1;" d="M 49.691406 38.007812 L 60.609375 38.007812 C 60.953125 38.007812 61.234375 38.285156 61.234375 38.628906 C 61.234375 38.972656 60.953125 39.25 60.609375 39.25 L 49.691406 39.25 C 49.347656 39.25 49.066406 38.972656 49.066406 38.628906 C 49.066406 38.285156 49.347656 38.007812 49.691406 38.007812 Z M 49.691406 38.007812 "/>
<path style=" stroke:none;fill-rule:nonzero;fill:rgb(0%,0%,0%);fill-opacity:1;" d="M 50.628906 44.222656 L 60.609375 44.222656 C 60.953125 44.222656 61.234375 44.503906 61.234375 44.847656 C 61.234375 45.191406 60.953125 45.46875 60.609375 45.46875 L 50.628906 45.46875 C 50.285156 45.46875 50.007812 45.191406 50.007812 44.847656 C 50.007812 44.503906 50.285156 44.222656 50.628906 44.222656 Z M 50.628906 44.222656 "/>
<path style=" stroke:none;fill-rule:nonzero;fill:rgb(0%,0%,0%);fill-opacity:1;" d="M 58.644531 4.429688 L 58.957031 4.429688 C 59.09375 4.429688 59.203125 4.539062 59.203125 4.675781 L 59.203125 43.441406 C 59.203125 43.578125 59.09375 43.6875 58.957031 43.6875 L 58.644531 43.6875 C 58.507812 43.6875 58.398438 43.578125 58.398438 43.441406 L 58.398438 4.675781 C 58.398438 4.539062 58.507812 4.429688 58.644531 4.429688 Z M 58.644531 4.429688 "/>
<path style=" stroke:none;fill-rule:nonzero;fill:rgb(0%,0%,0%);fill-opacity:1;" d="M 44.617188 25.171875 L 44.589844 26.8125 L 44.589844 27.085938 C 44.589844 27.632812 44.617188 28.179688 44.691406 28.730469 C 45.808594 27.785156 47.003906 26.738281 47.003906 25.269531 C 47.003906 24.449219 46.65625 23.605469 45.933594 23.605469 C 45.164062 23.605469 44.640625 24.351562 44.617188 25.171875 Z M 43.570312 29.625 L 43.273438 14.824219 C 43.472656 14.699219 43.71875 14.625 43.945312 14.625 C 44.167969 14.625 44.417969 14.699219 44.617188 14.824219 L 44.441406 23.40625 C 45.0625 22.882812 45.882812 22.558594 46.707031 22.558594 C 48 22.558594 48.917969 23.753906 48.917969 25.097656 C 48.917969 27.085938 46.78125 28.007812 45.261719 29.300781 C 44.890625 29.625 44.664062 30.246094 44.144531 30.246094 C 43.820312 30.246094 43.570312 29.972656 43.570312 29.625 Z M 43.570312 29.625 "/>
<path style=" stroke:none;fill-rule:nonzero;fill:rgb(0%,0%,0%);fill-opacity:1;" d="M 37.960938 31.390625 L 37.9375 33.03125 L 37.9375 33.304688 C 37.9375 33.851562 37.960938 34.398438 38.035156 34.945312 C 39.15625 34 40.347656 32.957031 40.347656 31.488281 C 40.347656 30.667969 40 29.824219 39.28125 29.824219 C 38.507812 29.824219 37.984375 30.570312 37.960938 31.390625 Z M 36.917969 35.84375 L 36.617188 21.042969 C 36.816406 20.917969 37.066406 20.84375 37.289062 20.84375 C 37.511719 20.84375 37.761719 20.917969 37.960938 21.042969 L 37.785156 29.625 C 38.410156 29.101562 39.230469 28.777344 40.050781 28.777344 C 41.34375 28.777344 42.265625 29.972656 42.265625 31.316406 C 42.265625 33.304688 40.125 34.226562 38.609375 35.519531 C 38.234375 35.84375 38.011719 36.464844 37.488281 36.464844 C 37.164062 36.464844 36.917969 36.191406 36.917969 35.84375 Z M 36.917969 35.84375 "/>
<path style=" stroke:none;fill-rule:nonzero;fill:rgb(0%,0%,0%);fill-opacity:1;" d="M 31.371094 37.609375 L 31.34375 39.25 L 31.34375 39.523438 C 31.34375 40.070312 31.371094 40.617188 31.445312 41.164062 C 32.5625 40.21875 33.757812 39.175781 33.757812 37.707031 C 33.757812 36.886719 33.410156 36.042969 32.6875 36.042969 C 31.917969 36.042969 31.394531 36.789062 31.371094 37.609375 Z M 30.324219 42.058594 L 30.027344 27.261719 C 30.226562 27.136719 30.472656 27.0625 30.699219 27.0625 C 30.921875 27.0625 31.171875 27.136719 31.371094 27.261719 L 31.195312 35.84375 C 31.816406 35.320312 32.636719 34.996094 33.460938 34.996094 C 34.753906 34.996094 35.671875 36.191406 35.671875 37.535156 C 35.671875 39.523438 33.535156 40.445312 32.015625 41.738281 C 31.644531 42.058594 31.417969 42.683594 30.898438 42.683594 C 30.574219 42.683594 30.324219 42.410156 30.324219 42.058594 Z M 30.324219 42.058594 "/>
<path style=" stroke:none;fill-rule:nonzero;fill:rgb(0%,0%,0%);fill-opacity:1;" d="M 44.617188 43.828125 L 44.589844 45.46875 L 44.589844 45.742188 C 44.589844 46.289062 44.617188 46.835938 44.691406 47.382812 C 45.808594 46.4375 47.003906 45.394531 47.003906 43.925781 C 47.003906 43.105469 46.65625 42.257812 45.933594 42.257812 C 45.164062 42.257812 44.640625 43.003906 44.617188 43.828125 Z M 43.570312 48.277344 L 43.273438 33.480469 C 43.472656 33.355469 43.71875 33.28125 43.945312 33.28125 C 44.167969 33.28125 44.417969 33.355469 44.617188 33.480469 L 44.441406 42.058594 C 45.0625 41.539062 45.882812 41.214844 46.707031 41.214844 C 48 41.214844 48.917969 42.410156 48.917969 43.75 C 48.917969 45.742188 46.78125 46.660156 45.261719 47.957031 C 44.890625 48.277344 44.664062 48.898438 44.144531 48.898438 C 43.820312 48.898438 43.570312 48.625 43.570312 48.277344 Z M 43.570312 48.277344 "/>
<path style=" stroke:none;fill-rule:nonzero;fill:rgb(0%,0%,0%);fill-opacity:1;" d="M 23.390625 16.863281 C 23.390625 16.167969 23.960938 15.597656 24.65625 15.597656 C 25.355469 15.597656 25.925781 16.167969 25.925781 16.863281 C 25.925781 17.5625 25.355469 18.132812 24.65625 18.132812 C 23.960938 18.132812 23.390625 17.5625 23.390625 16.863281 Z M 23.390625 10.644531 C 23.390625 9.949219 23.960938 9.378906 24.65625 9.378906 C 25.355469 9.378906 25.925781 9.949219 25.925781 10.644531 C 25.925781 11.34375 25.355469 11.914062 24.65625 11.914062 C 23.960938 11.914062 23.390625 11.34375 23.390625 10.644531 Z M 15.304688 7.214844 C 19.585938 7.214844 22.59375 9.402344 22.59375 13.457031 C 22.59375 20 16.050781 23.753906 9.757812 26.414062 C 9.683594 26.488281 9.609375 26.515625 9.535156 26.515625 C 9.363281 26.515625 9.210938 26.367188 9.210938 26.191406 C 9.210938 26.117188 9.238281 26.042969 9.3125 25.96875 C 14.335938 23.03125 19.558594 19.375 19.558594 13.707031 C 19.558594 10.722656 17.992188 7.859375 15.304688 7.859375 C 13.464844 7.859375 12.097656 9.203125 11.476562 10.996094 C 11.75 10.871094 12.023438 10.796875 12.320312 10.796875 C 13.6875 10.796875 14.808594 11.914062 14.808594 13.28125 C 14.808594 14.726562 13.714844 15.917969 12.320312 15.917969 C 10.828125 15.917969 9.535156 14.75 9.535156 13.28125 C 9.535156 9.976562 12.074219 7.214844 15.304688 7.214844 Z M 15.304688 7.214844 "/>
<path style=" stroke:none;fill-rule:nonzero;fill:rgb(0%,0%,0%);fill-opacity:1;" d="M 56.515625 22.808594 C 57.886719 22.808594 59.203125 23.503906 59.203125 25.023438 C 59.203125 26.789062 57.835938 28.03125 56.667969 28.730469 C 55.796875 29.25 54.800781 29.574219 53.78125 29.574219 C 52.414062 29.574219 51.09375 28.878906 51.09375 27.359375 C 51.09375 25.59375 52.464844 24.351562 53.632812 23.65625 C 54.503906 23.132812 55.496094 22.808594 56.515625 22.808594 Z M 56.515625 22.808594 "/>
<path style=" stroke:none;fill-rule:nonzero;fill:rgb(0%,0%,0%);fill-opacity:1;" d="M 56.515625 29.027344 C 57.886719 29.027344 59.203125 29.722656 59.203125 31.242188 C 59.203125 33.007812 57.835938 34.25 56.667969 34.945312 C 55.796875 35.46875 54.800781 35.792969 53.78125 35.792969 C 52.414062 35.792969 51.09375 35.097656 51.09375 33.578125 C 51.09375 31.8125 52.464844 30.570312 53.632812 29.871094 C 54.503906 29.351562 55.496094 29.027344 56.515625 29.027344 Z M 56.515625 29.027344 "/>
<path style=" stroke:none;fill-rule:nonzero;fill:rgb(0%,0%,0%);fill-opacity:1;" d="M 56.515625 35.246094 C 57.886719 35.246094 59.203125 35.941406 59.203125 37.457031 C 59.203125 39.226562 57.835938 40.46875 56.667969 41.164062 C 55.796875 41.6875 54.800781 42.011719 53.78125 42.011719 C 52.414062 42.011719 51.09375 41.3125 51.09375 39.796875 C 51.09375 38.03125 52.464844 36.789062 53.632812 36.089844 C 54.503906 35.570312 55.496094 35.246094 56.515625 35.246094 Z M 56.515625 35.246094 "/>
<path style=" stroke:none;fill-rule:nonzero;fill:rgb(0%,0%,0%);fill-opacity:1;" d="M 56.515625 41.464844 C 57.886719 41.464844 59.203125 42.160156 59.203125 43.675781 C 59.203125 45.441406 57.835938 46.6875 56.667969 47.382812 C 55.796875 47.90625 54.800781 48.230469 53.78125 48.230469 C 52.414062 48.230469 51.09375 47.53125 51.09375 46.015625 C 51.09375 44.25 52.464844 43.003906 53.632812 42.308594 C 54.503906 41.785156 55.496094 41.464844 56.515625 41.464844 Z M 56.515625 41.464844 "/>
</g>
</svg>
