<?xml version="1.0" encoding="UTF-8"?>
<svg xmlns="http://www.w3.org/2000/svg" xmlns:xlink="http://www.w3.org/1999/xlink" width="82.402133pt" height="54.570949pt" viewBox="0 0 82.402133 54.570949" version="1.1">
<g id="surface1">
<path style="fill:none;stroke-width:0.1;stroke-linecap:round;stroke-linejoin:round;stroke:rgb(0%,0%,0%);stroke-opacity:1;stroke-miterlimit:4;" d="M 0.049863 0.000178545 L 10.849902 0.000178545 " transform="matrix(6.218149,0,0,6.218149,4.561038,35.940296)"/>
<path style="fill:none;stroke-width:0.1;stroke-linecap:round;stroke-linejoin:round;stroke:rgb(0%,0%,0%);stroke-opacity:1;stroke-miterlimit:4;" d="M 0.049863 0.0000818968 L 10.849902 0.0000818968 " transform="matrix(6.218149,0,0,6.218149,4.561038,29.722147)"/>
<path style="fill:none;stroke-width:0.1;stroke-linecap:round;stroke-linejoin:round;stroke:rgb(0%,0%,0%);stroke-opacity:1;stroke-miterlimit:4;" d="M 0.049863 -0.0000147518 L 10.849902 -0.0000147518 " transform="matrix(6.218149,0,0,6.218149,4.561038,23.503998)"/>
<path style="fill:none;stroke-width:0.1;stroke-linecap:round;stroke-linejoin:round;stroke:rgb(0%,0%,0%);stroke-opacity:1;stroke-miterlimit:4;" d="M 0.049863 -0.0001114 L 10.849902 -0.0001114 " transform="matrix(6.218149,0,0,6.218149,4.561038,17.285849)"/>
<path style="fill:none;stroke-width:0.1;stroke-linecap:round;stroke-linejoin:round;stroke:rgb(0%,0%,0%);stroke-opacity:1;stroke-miterlimit:4;" d="M 0.049863 -0.000208049 L 10.849902 -0.000208049 " transform="matrix(6.218149,0,0,6.218149,4.561038,11.0677)"/>
<path style=" stroke:none;fill-rule:nonzero;fill:rgb(0%,0%,0%);fill-opacity:1;" d="M 53.917969 9.117188 L 54.226562 9.117188 C 54.367188 9.117188 54.476562 9.226562 54.476562 9.363281 L 54.476562 46.054688 C 54.476562 46.191406 54.367188 46.304688 54.226562 46.304688 L 53.917969 46.304688 C 53.78125 46.304688 53.667969 46.191406 53.667969 46.054688 L 53.667969 9.363281 C 53.667969 9.226562 53.78125 9.117188 53.917969 9.117188 Z M 53.917969 9.117188 "/>
<path style=" stroke:none;fill-rule:nonzero;fill:rgb(0%,0%,0%);fill-opacity:1;" d="M 50.023438 21.9375 C 50.023438 22.1875 49.824219 22.410156 49.578125 22.410156 C 49.328125 22.410156 49.105469 22.1875 49.105469 21.9375 L 49.105469 18.332031 L 47.039062 19.101562 L 47.039062 23.03125 C 47.039062 23.28125 46.816406 23.503906 46.566406 23.503906 C 46.320312 23.503906 46.121094 23.28125 46.121094 23.03125 L 46.121094 19.425781 L 45.324219 19.722656 C 45.273438 19.75 45.199219 19.75 45.148438 19.75 C 44.875 19.75 44.652344 19.523438 44.652344 19.25 L 44.652344 17.757812 C 44.652344 17.558594 44.777344 17.359375 44.976562 17.285156 L 46.121094 16.886719 L 46.121094 12.910156 L 45.324219 13.183594 C 45.273438 13.207031 45.199219 13.207031 45.148438 13.207031 C 44.875 13.207031 44.652344 12.984375 44.652344 12.710938 L 44.652344 11.21875 C 44.652344 11.019531 44.777344 10.84375 44.976562 10.769531 L 46.121094 10.347656 L 46.121094 6.417969 C 46.121094 6.167969 46.320312 5.945312 46.566406 5.945312 C 46.816406 5.945312 47.039062 6.167969 47.039062 6.417969 L 47.039062 10.023438 L 49.105469 9.253906 L 49.105469 5.320312 C 49.105469 5.074219 49.328125 4.847656 49.578125 4.847656 C 49.824219 4.847656 50.023438 5.074219 50.023438 5.320312 L 50.023438 8.929688 L 50.820312 8.628906 C 50.871094 8.605469 50.945312 8.605469 50.996094 8.605469 C 51.269531 8.605469 51.492188 8.828125 51.492188 9.101562 L 51.492188 10.59375 C 51.492188 10.792969 51.367188 10.992188 51.167969 11.066406 L 50.023438 11.464844 L 50.023438 15.445312 L 50.820312 15.171875 C 50.871094 15.148438 50.945312 15.148438 50.996094 15.148438 C 51.269531 15.148438 51.492188 15.371094 51.492188 15.644531 L 51.492188 17.136719 C 51.492188 17.335938 51.367188 17.507812 51.167969 17.585938 L 50.023438 18.007812 Z M 47.039062 12.558594 L 47.039062 16.539062 L 49.105469 15.792969 L 49.105469 11.8125 Z M 47.039062 12.558594 "/>
<path style=" stroke:none;fill-rule:nonzero;fill:rgb(0%,0%,0%);fill-opacity:1;" d="M 35.324219 28.15625 C 35.324219 28.402344 35.125 28.628906 34.878906 28.628906 C 34.628906 28.628906 34.40625 28.402344 34.40625 28.15625 L 34.40625 24.546875 L 32.339844 25.320312 L 32.339844 29.25 C 32.339844 29.5 32.117188 29.722656 31.867188 29.722656 C 31.617188 29.722656 31.417969 29.5 31.417969 29.25 L 31.417969 25.644531 L 30.625 25.941406 C 30.574219 25.964844 30.5 25.964844 30.449219 25.964844 C 30.175781 25.964844 29.953125 25.742188 29.953125 25.46875 L 29.953125 23.976562 C 29.953125 23.777344 30.078125 23.578125 30.277344 23.503906 L 31.417969 23.105469 L 31.417969 19.125 L 30.625 19.398438 C 30.574219 19.425781 30.5 19.425781 30.449219 19.425781 C 30.175781 19.425781 29.953125 19.199219 29.953125 18.925781 L 29.953125 17.433594 C 29.953125 17.234375 30.078125 17.0625 30.277344 16.988281 L 31.417969 16.566406 L 31.417969 12.632812 C 31.417969 12.386719 31.617188 12.160156 31.867188 12.160156 C 32.117188 12.160156 32.339844 12.386719 32.339844 12.632812 L 32.339844 16.242188 L 34.40625 15.46875 L 34.40625 11.539062 C 34.40625 11.292969 34.628906 11.066406 34.878906 11.066406 C 35.125 11.066406 35.324219 11.292969 35.324219 11.539062 L 35.324219 15.148438 L 36.121094 14.847656 C 36.171875 14.824219 36.246094 14.824219 36.292969 14.824219 C 36.566406 14.824219 36.792969 15.046875 36.792969 15.320312 L 36.792969 16.8125 C 36.792969 17.011719 36.667969 17.210938 36.46875 17.285156 L 35.324219 17.683594 L 35.324219 21.664062 L 36.121094 21.390625 C 36.171875 21.363281 36.246094 21.363281 36.292969 21.363281 C 36.566406 21.363281 36.792969 21.589844 36.792969 21.863281 L 36.792969 23.355469 C 36.792969 23.554688 36.667969 23.726562 36.46875 23.800781 L 35.324219 24.226562 Z M 32.339844 18.777344 L 32.339844 22.757812 L 34.40625 22.011719 L 34.40625 18.03125 Z M 32.339844 18.777344 "/>
<path style=" stroke:none;fill-rule:nonzero;fill:rgb(0%,0%,0%);fill-opacity:1;" d="M 43.410156 34.375 C 43.410156 34.621094 43.210938 34.847656 42.960938 34.847656 C 42.710938 34.847656 42.488281 34.621094 42.488281 34.375 L 42.488281 30.765625 L 40.421875 31.539062 L 40.421875 35.46875 C 40.421875 35.714844 40.199219 35.941406 39.949219 35.941406 C 39.703125 35.941406 39.503906 35.714844 39.503906 35.46875 L 39.503906 31.859375 L 38.707031 32.160156 C 38.65625 32.183594 38.582031 32.183594 38.535156 32.183594 C 38.257812 32.183594 38.035156 31.960938 38.035156 31.6875 L 38.035156 30.195312 C 38.035156 29.996094 38.160156 29.796875 38.359375 29.722656 L 39.503906 29.324219 L 39.503906 25.34375 L 38.707031 25.617188 C 38.65625 25.644531 38.582031 25.644531 38.535156 25.644531 C 38.257812 25.644531 38.035156 25.417969 38.035156 25.144531 L 38.035156 23.652344 C 38.035156 23.453125 38.160156 23.28125 38.359375 23.207031 L 39.503906 22.78125 L 39.503906 18.851562 C 39.503906 18.605469 39.703125 18.378906 39.949219 18.378906 C 40.199219 18.378906 40.421875 18.605469 40.421875 18.851562 L 40.421875 22.460938 L 42.488281 21.6875 L 42.488281 17.757812 C 42.488281 17.507812 42.710938 17.285156 42.960938 17.285156 C 43.210938 17.285156 43.410156 17.507812 43.410156 17.757812 L 43.410156 21.363281 L 44.203125 21.066406 C 44.253906 21.042969 44.328125 21.042969 44.378906 21.042969 C 44.652344 21.042969 44.875 21.265625 44.875 21.539062 L 44.875 23.03125 C 44.875 23.230469 44.75 23.429688 44.550781 23.503906 L 43.410156 23.902344 L 43.410156 27.882812 L 44.203125 27.609375 C 44.253906 27.582031 44.328125 27.582031 44.378906 27.582031 C 44.652344 27.582031 44.875 27.808594 44.875 28.082031 L 44.875 29.574219 C 44.875 29.773438 44.75 29.945312 44.550781 30.019531 L 43.410156 30.445312 Z M 40.421875 24.996094 L 40.421875 28.976562 L 42.488281 28.230469 L 42.488281 24.25 Z M 40.421875 24.996094 "/>
<path style=" stroke:none;fill-rule:nonzero;fill:rgb(0%,0%,0%);fill-opacity:1;" d="M 23.390625 20.394531 C 23.390625 19.699219 23.960938 19.125 24.65625 19.125 C 25.355469 19.125 25.925781 19.699219 25.925781 20.394531 C 25.925781 21.089844 25.355469 21.664062 24.65625 21.664062 C 23.960938 21.664062 23.390625 21.089844 23.390625 20.394531 Z M 23.390625 14.175781 C 23.390625 13.480469 23.960938 12.910156 24.65625 12.910156 C 25.355469 12.910156 25.925781 13.480469 25.925781 14.175781 C 25.925781 14.875 25.355469 15.445312 24.65625 15.445312 C 23.960938 15.445312 23.390625 14.875 23.390625 14.175781 Z M 15.304688 10.746094 C 19.585938 10.746094 22.59375 12.933594 22.59375 16.988281 C 22.59375 23.527344 16.050781 27.285156 9.757812 29.945312 C 9.683594 30.019531 9.609375 30.046875 9.535156 30.046875 C 9.363281 30.046875 9.210938 29.894531 9.210938 29.722656 C 9.210938 29.648438 9.238281 29.574219 9.3125 29.5 C 14.335938 26.5625 19.558594 22.90625 19.558594 17.234375 C 19.558594 14.25 17.992188 11.390625 15.304688 11.390625 C 13.464844 11.390625 12.097656 12.734375 11.476562 14.523438 C 11.75 14.402344 12.023438 14.324219 12.320312 14.324219 C 13.6875 14.324219 14.808594 15.445312 14.808594 16.8125 C 14.808594 18.257812 13.714844 19.449219 12.320312 19.449219 C 10.828125 19.449219 9.535156 18.28125 9.535156 16.8125 C 9.535156 13.503906 12.074219 10.746094 15.304688 10.746094 Z M 15.304688 10.746094 "/>
<path style=" stroke:none;fill-rule:nonzero;fill:rgb(0%,0%,0%);fill-opacity:1;" d="M 59.089844 4.574219 C 60.457031 4.574219 61.777344 5.273438 61.777344 6.789062 C 61.777344 8.554688 60.410156 9.800781 59.238281 10.496094 C 58.371094 11.019531 57.375 11.339844 56.355469 11.339844 C 54.988281 11.339844 53.667969 10.644531 53.667969 9.128906 C 53.667969 7.363281 55.035156 6.117188 56.207031 5.421875 C 57.074219 4.898438 58.070312 4.574219 59.089844 4.574219 Z M 59.089844 4.574219 "/>
<path style=" stroke:none;fill-rule:nonzero;fill:rgb(0%,0%,0%);fill-opacity:1;" d="M 59.089844 10.792969 C 60.457031 10.792969 61.777344 11.492188 61.777344 13.007812 C 61.777344 14.773438 60.410156 16.015625 59.238281 16.714844 C 58.371094 17.234375 57.375 17.558594 56.355469 17.558594 C 54.988281 17.558594 53.667969 16.863281 53.667969 15.347656 C 53.667969 13.578125 55.035156 12.335938 56.207031 11.640625 C 57.074219 11.117188 58.070312 10.792969 59.089844 10.792969 Z M 59.089844 10.792969 "/>
<path style=" stroke:none;fill-rule:nonzero;fill:rgb(0%,0%,0%);fill-opacity:1;" d="M 59.089844 17.011719 C 60.457031 17.011719 61.777344 17.707031 61.777344 19.226562 C 61.777344 20.992188 60.410156 22.234375 59.238281 22.933594 C 58.371094 23.453125 57.375 23.777344 56.355469 23.777344 C 54.988281 23.777344 53.667969 23.082031 53.667969 21.5625 C 53.667969 19.796875 55.035156 18.554688 56.207031 17.859375 C 57.074219 17.335938 58.070312 17.011719 59.089844 17.011719 Z M 59.089844 17.011719 "/>
<path style=" stroke:none;fill-rule:nonzero;fill:rgb(0%,0%,0%);fill-opacity:1;" d="M 59.089844 23.230469 C 60.457031 23.230469 61.777344 23.925781 61.777344 25.445312 C 61.777344 27.210938 60.410156 28.453125 59.238281 29.148438 C 58.371094 29.671875 57.375 29.996094 56.355469 29.996094 C 54.988281 29.996094 53.667969 29.300781 53.667969 27.78125 C 53.667969 26.015625 55.035156 24.773438 56.207031 24.074219 C 57.074219 23.554688 58.070312 23.230469 59.089844 23.230469 Z M 59.089844 23.230469 "/>
</g>
</svg>
