<?xml version="1.0" encoding="UTF-8"?>
<svg xmlns="http://www.w3.org/2000/svg" xmlns:xlink="http://www.w3.org/1999/xlink" width="71.760022pt" height="59.355019pt" viewBox="0 0 71.760022 59.355019" version="1.1">
<g id="surface1">
<path style="fill:none;stroke-width:0.1;stroke-linecap:round;stroke-linejoin:round;stroke:rgb(0%,0%,0%);stroke-opacity:1;stroke-miterlimit:4;" d="M 0.049863 -0.000287501 L 9.24736 -0.000287501 " transform="matrix(6.218149,0,0,6.218149,4.561038,40.517413)"/>
<path style="fill:none;stroke-width:0.1;stroke-linecap:round;stroke-linejoin:round;stroke:rgb(0%,0%,0%);stroke-opacity:1;stroke-miterlimit:4;" d="M 0.049863 0.000244052 L 9.24736 0.000244052 " transform="matrix(6.218149,0,0,6.218149,4.561038,34.299264)"/>
<path style="fill:none;stroke-width:0.1;stroke-linecap:round;stroke-linejoin:round;stroke:rgb(0%,0%,0%);stroke-opacity:1;stroke-miterlimit:4;" d="M 0.049863 0.000147403 L 9.24736 0.000147403 " transform="matrix(6.218149,0,0,6.218149,4.561038,28.081115)"/>
<path style="fill:none;stroke-width:0.1;stroke-linecap:round;stroke-linejoin:round;stroke:rgb(0%,0%,0%);stroke-opacity:1;stroke-miterlimit:4;" d="M 0.049863 0.0000507548 L 9.24736 0.0000507548 " transform="matrix(6.218149,0,0,6.218149,4.561038,21.862966)"/>
<path style="fill:none;stroke-width:0.1;stroke-linecap:round;stroke-linejoin:round;stroke:rgb(0%,0%,0%);stroke-opacity:1;stroke-miterlimit:4;" d="M 0.049863 -0.0000458938 L 9.24736 -0.0000458938 " transform="matrix(6.218149,0,0,6.218149,4.561038,15.644817)"/>
<path style=" stroke:none;fill-rule:nonzero;fill:rgb(0%,0%,0%);fill-opacity:1;" d="M 42.300781 46.113281 L 53.21875 46.113281 C 53.5625 46.113281 53.839844 46.390625 53.839844 46.734375 C 53.839844 47.078125 53.5625 47.355469 53.21875 47.355469 L 42.300781 47.355469 C 41.957031 47.355469 41.675781 47.078125 41.675781 46.734375 C 41.675781 46.390625 41.957031 46.113281 42.300781 46.113281 Z M 42.300781 46.113281 "/>
<path style=" stroke:none;fill-rule:nonzero;fill:rgb(0%,0%,0%);fill-opacity:1;" d="M 51.253906 12.535156 L 51.566406 12.535156 C 51.703125 12.535156 51.816406 12.648438 51.816406 12.785156 L 51.816406 45.328125 C 51.816406 45.46875 51.703125 45.578125 51.566406 45.578125 L 51.253906 45.578125 C 51.117188 45.578125 51.007812 45.46875 51.007812 45.328125 L 51.007812 12.785156 C 51.007812 12.648438 51.117188 12.535156 51.253906 12.535156 Z M 51.253906 12.535156 "/>
<path style=" stroke:none;fill-rule:nonzero;fill:rgb(0%,0%,0%);fill-opacity:1;" d="M 37.226562 39.496094 L 37.199219 41.140625 L 37.199219 41.414062 C 37.199219 41.960938 37.226562 42.507812 37.300781 43.054688 C 38.417969 42.109375 39.613281 41.066406 39.613281 39.597656 C 39.613281 38.777344 39.265625 37.929688 38.542969 37.929688 C 37.773438 37.929688 37.25 38.675781 37.226562 39.496094 Z M 36.179688 43.949219 L 35.882812 29.152344 C 36.082031 29.027344 36.328125 28.953125 36.554688 28.953125 C 36.777344 28.953125 37.027344 29.027344 37.226562 29.152344 L 37.050781 37.730469 C 37.671875 37.210938 38.492188 36.886719 39.3125 36.886719 C 40.609375 36.886719 41.527344 38.078125 41.527344 39.421875 C 41.527344 41.414062 39.390625 42.332031 37.871094 43.625 C 37.5 43.949219 37.273438 44.570312 36.753906 44.570312 C 36.429688 44.570312 36.179688 44.296875 36.179688 43.949219 Z M 36.179688 43.949219 "/>
<path style=" stroke:none;fill-rule:nonzero;fill:rgb(0%,0%,0%);fill-opacity:1;" d="M 30.632812 45.714844 L 30.609375 47.355469 L 30.609375 47.632812 C 30.609375 48.179688 30.632812 48.726562 30.707031 49.273438 C 31.828125 48.328125 33.023438 47.28125 33.023438 45.816406 C 33.023438 44.996094 32.671875 44.148438 31.953125 44.148438 C 31.179688 44.148438 30.660156 44.894531 30.632812 45.714844 Z M 29.589844 50.167969 L 29.289062 35.367188 C 29.488281 35.246094 29.738281 35.167969 29.960938 35.167969 C 30.1875 35.167969 30.433594 35.246094 30.632812 35.367188 L 30.460938 43.949219 C 31.082031 43.425781 31.902344 43.105469 32.722656 43.105469 C 34.015625 43.105469 34.9375 44.296875 34.9375 45.640625 C 34.9375 47.632812 32.796875 48.550781 31.28125 49.84375 C 30.90625 50.167969 30.683594 50.789062 30.160156 50.789062 C 29.835938 50.789062 29.589844 50.515625 29.589844 50.167969 Z M 29.589844 50.167969 "/>
<path style=" stroke:none;fill-rule:nonzero;fill:rgb(0%,0%,0%);fill-opacity:1;" d="M 16.152344 50.09375 L 16.003906 50.09375 C 13.316406 50.09375 11.152344 47.90625 11.152344 45.195312 C 11.152344 43.75 12.46875 42.632812 13.9375 42.632812 C 15.28125 42.632812 16.300781 43.800781 16.300781 45.195312 C 16.300781 46.488281 15.230469 47.554688 13.9375 47.554688 C 13.664062 47.554688 13.414062 47.507812 13.167969 47.40625 C 13.8125 48.378906 14.859375 49.023438 16.078125 49.023438 L 16.175781 49.023438 Z M 21 39.347656 C 22.691406 38.75 23.8125 36.984375 23.8125 35.269531 C 23.8125 33.03125 22.171875 30.816406 19.507812 30.542969 C 20.105469 33.429688 20.652344 36.289062 21 39.347656 Z M 11.375 33.601562 C 11.375 36.960938 14.585938 39.746094 17.941406 39.746094 C 18.640625 39.746094 19.308594 39.695312 19.980469 39.597656 C 19.632812 36.4375 19.0625 33.503906 18.414062 30.542969 C 16.449219 30.742188 15.332031 32.0625 15.332031 33.503906 C 15.332031 34.597656 15.953125 35.765625 17.34375 36.5625 C 17.46875 36.6875 17.519531 36.8125 17.519531 36.9375 C 17.519531 37.210938 17.269531 37.484375 16.972656 37.484375 C 16.898438 37.484375 16.824219 37.457031 16.75 37.433594 C 14.757812 36.363281 13.839844 34.574219 13.839844 32.832031 C 13.839844 30.644531 15.28125 28.503906 17.816406 27.933594 C 17.46875 26.488281 17.097656 25.023438 16.675781 23.578125 C 14.011719 26.589844 11.375 29.625 11.375 33.601562 Z M 17.867188 40.816406 C 13.191406 40.816406 9.585938 36.539062 9.585938 31.511719 C 9.585938 27.109375 12.84375 23.902344 15.753906 20.542969 C 15.28125 19.003906 14.832031 17.4375 14.632812 15.820312 C 14.484375 14.527344 14.460938 13.230469 14.460938 11.9375 C 14.460938 9.078125 15.828125 6.367188 18.167969 4.675781 C 18.316406 4.550781 18.515625 4.550781 18.664062 4.675781 C 20.429688 6.765625 21.972656 10.769531 21.972656 13.582031 C 21.972656 17.136719 19.832031 19.921875 17.496094 22.632812 C 18.015625 24.324219 18.464844 26.066406 18.886719 27.78125 C 18.988281 27.78125 19.113281 27.757812 19.210938 27.757812 C 23.066406 27.757812 25.578125 30.941406 25.578125 34.25 C 25.578125 36.140625 24.757812 38.078125 22.917969 39.472656 C 22.371094 39.894531 21.746094 40.167969 21.101562 40.367188 C 21.175781 41.238281 21.226562 42.109375 21.226562 42.980469 C 21.226562 43.453125 21.199219 43.949219 21.175781 44.421875 C 21 47.382812 18.988281 50.019531 16.152344 50.09375 L 16.175781 49.023438 C 18.488281 48.972656 19.980469 46.734375 20.132812 44.273438 C 20.15625 43.824219 20.179688 43.351562 20.179688 42.90625 C 20.179688 42.132812 20.15625 41.386719 20.082031 40.617188 C 19.359375 40.742188 18.640625 40.816406 17.867188 40.816406 Z M 20.179688 11.515625 C 20.179688 10.148438 20.082031 9.550781 19.683594 8.308594 C 17.222656 9.5 15.652344 12.011719 15.652344 14.75 C 15.652344 16.589844 16.101562 18.058594 16.550781 19.574219 C 18.539062 17.160156 20.179688 14.648438 20.179688 11.515625 Z M 20.179688 11.515625 "/>
<path style=" stroke:none;fill-rule:nonzero;fill:rgb(0%,0%,0%);fill-opacity:1;" d="M 49.125 30.917969 C 50.496094 30.917969 51.8125 31.613281 51.8125 33.128906 C 51.8125 34.894531 50.445312 36.140625 49.277344 36.835938 C 48.40625 37.359375 47.410156 37.683594 46.390625 37.683594 C 45.023438 37.683594 43.703125 36.984375 43.703125 35.46875 C 43.703125 33.703125 45.074219 32.457031 46.242188 31.761719 C 47.113281 31.238281 48.105469 30.917969 49.125 30.917969 Z M 49.125 30.917969 "/>
<path style=" stroke:none;fill-rule:nonzero;fill:rgb(0%,0%,0%);fill-opacity:1;" d="M 49.125 37.132812 C 50.496094 37.132812 51.8125 37.832031 51.8125 39.347656 C 51.8125 41.113281 50.445312 42.359375 49.277344 43.054688 C 48.40625 43.578125 47.410156 43.898438 46.390625 43.898438 C 45.023438 43.898438 43.703125 43.203125 43.703125 41.6875 C 43.703125 39.921875 45.074219 38.675781 46.242188 37.980469 C 47.113281 37.457031 48.105469 37.132812 49.125 37.132812 Z M 49.125 37.132812 "/>
<path style=" stroke:none;fill-rule:nonzero;fill:rgb(0%,0%,0%);fill-opacity:1;" d="M 49.125 43.351562 C 50.496094 43.351562 51.8125 44.050781 51.8125 45.566406 C 51.8125 47.332031 50.445312 48.574219 49.277344 49.273438 C 48.40625 49.792969 47.410156 50.117188 46.390625 50.117188 C 45.023438 50.117188 43.703125 49.421875 43.703125 47.90625 C 43.703125 46.136719 45.074219 44.894531 46.242188 44.199219 C 47.113281 43.675781 48.105469 43.351562 49.125 43.351562 Z M 49.125 43.351562 "/>
</g>
</svg>
