<?xml version="1.0" encoding="UTF-8"?>
<svg xmlns="http://www.w3.org/2000/svg" xmlns:xlink="http://www.w3.org/1999/xlink" width="76.583943pt" height="54.52645pt" viewBox="0 0 76.583943 54.52645" version="1.1">
<g id="surface1">
<path style="fill:none;stroke-width:0.1;stroke-linecap:round;stroke-linejoin:round;stroke:rgb(0%,0%,0%);stroke-opacity:1;stroke-miterlimit:4;" d="M 0.049863 -0.0001075 L 9.973561 -0.0001075 " transform="matrix(6.218149,0,0,6.218149,4.561038,29.434262)"/>
<path style="fill:none;stroke-width:0.1;stroke-linecap:round;stroke-linejoin:round;stroke:rgb(0%,0%,0%);stroke-opacity:1;stroke-miterlimit:4;" d="M 0.049863 -0.000204149 L 9.973561 -0.000204149 " transform="matrix(6.218149,0,0,6.218149,4.561038,23.216113)"/>
<path style="fill:none;stroke-width:0.1;stroke-linecap:round;stroke-linejoin:round;stroke:rgb(0%,0%,0%);stroke-opacity:1;stroke-miterlimit:4;" d="M 0.049863 -0.000300797 L 9.973561 -0.000300797 " transform="matrix(6.218149,0,0,6.218149,4.561038,16.997964)"/>
<path style="fill:none;stroke-width:0.1;stroke-linecap:round;stroke-linejoin:round;stroke:rgb(0%,0%,0%);stroke-opacity:1;stroke-miterlimit:4;" d="M 0.049863 0.000230756 L 9.973561 0.000230756 " transform="matrix(6.218149,0,0,6.218149,4.561038,10.779815)"/>
<path style="fill:none;stroke-width:0.1;stroke-linecap:round;stroke-linejoin:round;stroke:rgb(0%,0%,0%);stroke-opacity:1;stroke-miterlimit:4;" d="M 0.049863 0.000133988 L 9.973561 0.000133988 " transform="matrix(6.218149,0,0,6.218149,4.561038,4.561667)"/>
<path style=" stroke:none;fill-rule:nonzero;fill:rgb(0%,0%,0%);fill-opacity:1;" d="M 46.816406 35.03125 L 57.734375 35.03125 C 58.078125 35.03125 58.359375 35.308594 58.359375 35.652344 C 58.359375 35.996094 58.078125 36.273438 57.734375 36.273438 L 46.816406 36.273438 C 46.472656 36.273438 46.195312 35.996094 46.195312 35.652344 C 46.195312 35.308594 46.472656 35.03125 46.816406 35.03125 Z M 46.816406 35.03125 "/>
<path style=" stroke:none;fill-rule:nonzero;fill:rgb(0%,0%,0%);fill-opacity:1;" d="M 46.816406 41.25 L 57.734375 41.25 C 58.078125 41.25 58.359375 41.527344 58.359375 41.871094 C 58.359375 42.214844 58.078125 42.492188 57.734375 42.492188 L 46.816406 42.492188 C 46.472656 42.492188 46.195312 42.214844 46.195312 41.871094 C 46.195312 41.527344 46.472656 41.25 46.816406 41.25 Z M 46.816406 41.25 "/>
<path style=" stroke:none;fill-rule:nonzero;fill:rgb(0%,0%,0%);fill-opacity:1;" d="M 55.769531 7.671875 L 56.082031 7.671875 C 56.21875 7.671875 56.332031 7.78125 56.332031 7.917969 L 56.332031 40.464844 C 56.332031 40.601562 56.21875 40.714844 56.082031 40.714844 L 55.769531 40.714844 C 55.632812 40.714844 55.523438 40.601562 55.523438 40.464844 L 55.523438 7.917969 C 55.523438 7.78125 55.632812 7.671875 55.769531 7.671875 Z M 55.769531 7.671875 "/>
<path style=" stroke:none;fill-rule:nonzero;fill:rgb(0%,0%,0%);fill-opacity:1;" d="M 41.742188 28.414062 L 41.71875 30.054688 L 41.71875 30.328125 C 41.71875 30.875 41.742188 31.425781 41.816406 31.972656 C 42.9375 31.027344 44.128906 29.980469 44.128906 28.515625 C 44.128906 27.691406 43.78125 26.847656 43.058594 26.847656 C 42.289062 26.847656 41.765625 27.59375 41.742188 28.414062 Z M 40.695312 32.867188 L 40.398438 18.066406 C 40.597656 17.941406 40.847656 17.867188 41.070312 17.867188 C 41.292969 17.867188 41.542969 17.941406 41.742188 18.066406 L 41.566406 26.648438 C 42.191406 26.125 43.011719 25.804688 43.832031 25.804688 C 45.125 25.804688 46.042969 26.996094 46.042969 28.339844 C 46.042969 30.328125 43.90625 31.25 42.386719 32.542969 C 42.015625 32.867188 41.792969 33.488281 41.269531 33.488281 C 40.945312 33.488281 40.695312 33.214844 40.695312 32.867188 Z M 40.695312 32.867188 "/>
<path style=" stroke:none;fill-rule:nonzero;fill:rgb(0%,0%,0%);fill-opacity:1;" d="M 31.371094 34.632812 L 31.34375 36.273438 L 31.34375 36.546875 C 31.34375 37.09375 31.371094 37.640625 31.445312 38.1875 C 32.5625 37.246094 33.757812 36.199219 33.757812 34.730469 C 33.757812 33.910156 33.410156 33.066406 32.6875 33.066406 C 31.917969 33.066406 31.394531 33.8125 31.371094 34.632812 Z M 30.324219 39.085938 L 30.027344 24.285156 C 30.226562 24.160156 30.472656 24.085938 30.699219 24.085938 C 30.921875 24.085938 31.171875 24.160156 31.371094 24.285156 L 31.195312 32.867188 C 31.816406 32.34375 32.636719 32.019531 33.460938 32.019531 C 34.753906 32.019531 35.671875 33.214844 35.671875 34.558594 C 35.671875 36.546875 33.535156 37.46875 32.015625 38.761719 C 31.644531 39.085938 31.417969 39.707031 30.898438 39.707031 C 30.574219 39.707031 30.324219 39.433594 30.324219 39.085938 Z M 30.324219 39.085938 "/>
<path style=" stroke:none;fill-rule:nonzero;fill:rgb(0%,0%,0%);fill-opacity:1;" d="M 38.257812 40.851562 L 38.234375 42.492188 L 38.234375 42.765625 C 38.234375 43.3125 38.257812 43.859375 38.335938 44.40625 C 39.453125 43.460938 40.648438 42.417969 40.648438 40.949219 C 40.648438 40.128906 40.300781 39.285156 39.578125 39.285156 C 38.808594 39.285156 38.285156 40.03125 38.257812 40.851562 Z M 37.214844 45.304688 L 36.917969 30.503906 C 37.117188 30.378906 37.363281 30.304688 37.589844 30.304688 C 37.8125 30.304688 38.0625 30.378906 38.257812 30.503906 L 38.085938 39.085938 C 38.707031 38.5625 39.527344 38.238281 40.347656 38.238281 C 41.640625 38.238281 42.5625 39.433594 42.5625 40.777344 C 42.5625 42.765625 40.421875 43.6875 38.90625 44.980469 C 38.535156 45.304688 38.308594 45.925781 37.785156 45.925781 C 37.464844 45.925781 37.214844 45.652344 37.214844 45.304688 Z M 37.214844 45.304688 "/>
<path style=" stroke:none;fill-rule:nonzero;fill:rgb(0%,0%,0%);fill-opacity:1;" d="M 23.390625 13.890625 C 23.390625 13.191406 23.960938 12.621094 24.65625 12.621094 C 25.355469 12.621094 25.925781 13.191406 25.925781 13.890625 C 25.925781 14.585938 25.355469 15.15625 24.65625 15.15625 C 23.960938 15.15625 23.390625 14.585938 23.390625 13.890625 Z M 23.390625 7.671875 C 23.390625 6.972656 23.960938 6.402344 24.65625 6.402344 C 25.355469 6.402344 25.925781 6.972656 25.925781 7.671875 C 25.925781 8.367188 25.355469 8.9375 24.65625 8.9375 C 23.960938 8.9375 23.390625 8.367188 23.390625 7.671875 Z M 15.304688 4.238281 C 19.585938 4.238281 22.59375 6.425781 22.59375 10.480469 C 22.59375 17.023438 16.050781 20.777344 9.757812 23.441406 C 9.683594 23.515625 9.609375 23.539062 9.535156 23.539062 C 9.363281 23.539062 9.210938 23.390625 9.210938 23.214844 C 9.210938 23.140625 9.238281 23.066406 9.3125 22.992188 C 14.335938 20.058594 19.558594 16.402344 19.558594 10.730469 C 19.558594 7.746094 17.992188 4.886719 15.304688 4.886719 C 13.464844 4.886719 12.097656 6.226562 11.476562 8.019531 C 11.75 7.894531 12.023438 7.820312 12.320312 7.820312 C 13.6875 7.820312 14.808594 8.9375 14.808594 10.308594 C 14.808594 11.75 13.714844 12.945312 12.320312 12.945312 C 10.828125 12.945312 9.535156 11.773438 9.535156 10.308594 C 9.535156 7 12.074219 4.238281 15.304688 4.238281 Z M 15.304688 4.238281 "/>
<path style=" stroke:none;fill-rule:nonzero;fill:rgb(0%,0%,0%);fill-opacity:1;" d="M 53.644531 26.050781 C 55.011719 26.050781 56.328125 26.746094 56.328125 28.265625 C 56.328125 30.03125 54.960938 31.273438 53.792969 31.972656 C 52.921875 32.492188 51.925781 32.816406 50.90625 32.816406 C 49.539062 32.816406 48.222656 32.121094 48.222656 30.601562 C 48.222656 28.835938 49.589844 27.59375 50.757812 26.898438 C 51.628906 26.375 52.625 26.050781 53.644531 26.050781 Z M 53.644531 26.050781 "/>
<path style=" stroke:none;fill-rule:nonzero;fill:rgb(0%,0%,0%);fill-opacity:1;" d="M 53.644531 32.269531 C 55.011719 32.269531 56.328125 32.964844 56.328125 34.484375 C 56.328125 36.25 54.960938 37.492188 53.792969 38.1875 C 52.921875 38.710938 51.925781 39.035156 50.90625 39.035156 C 49.539062 39.035156 48.222656 38.339844 48.222656 36.820312 C 48.222656 35.054688 49.589844 33.8125 50.757812 33.117188 C 51.628906 32.59375 52.625 32.269531 53.644531 32.269531 Z M 53.644531 32.269531 "/>
<path style=" stroke:none;fill-rule:nonzero;fill:rgb(0%,0%,0%);fill-opacity:1;" d="M 53.644531 38.488281 C 55.011719 38.488281 56.328125 39.183594 56.328125 40.703125 C 56.328125 42.46875 54.960938 43.710938 53.792969 44.40625 C 52.921875 44.929688 51.925781 45.253906 50.90625 45.253906 C 49.539062 45.253906 48.222656 44.558594 48.222656 43.039062 C 48.222656 41.273438 49.589844 40.03125 50.757812 39.332031 C 51.628906 38.8125 52.625 38.488281 53.644531 38.488281 Z M 53.644531 38.488281 "/>
</g>
</svg>
