<?xml version="1.0" encoding="UTF-8"?>
<svg xmlns="http://www.w3.org/2000/svg" xmlns:xlink="http://www.w3.org/1999/xlink" width="81.97507pt" height="54.278711pt" viewBox="0 0 81.97507 54.278711" version="1.1">
<g id="surface1">
<path style="fill:none;stroke-width:0.1;stroke-linecap:round;stroke-linejoin:round;stroke:rgb(0%,0%,0%);stroke-opacity:1;stroke-miterlimit:4;" d="M 0.049863 -0.0000416676 L 10.785197 -0.0000416676 " transform="matrix(6.218149,0,0,6.218149,4.561038,39.812759)"/>
<path style="fill:none;stroke-width:0.1;stroke-linecap:round;stroke-linejoin:round;stroke:rgb(0%,0%,0%);stroke-opacity:1;stroke-miterlimit:4;" d="M 0.049863 -0.000138316 L 10.785197 -0.000138316 " transform="matrix(6.218149,0,0,6.218149,4.561038,33.59461)"/>
<path style="fill:none;stroke-width:0.1;stroke-linecap:round;stroke-linejoin:round;stroke:rgb(0%,0%,0%);stroke-opacity:1;stroke-miterlimit:4;" d="M 0.049863 -0.000234965 L 10.785197 -0.000234965 " transform="matrix(6.218149,0,0,6.218149,4.561038,27.376461)"/>
<path style="fill:none;stroke-width:0.1;stroke-linecap:round;stroke-linejoin:round;stroke:rgb(0%,0%,0%);stroke-opacity:1;stroke-miterlimit:4;" d="M 0.049863 0.000296588 L 10.785197 0.000296588 " transform="matrix(6.218149,0,0,6.218149,4.561038,21.158312)"/>
<path style="fill:none;stroke-width:0.1;stroke-linecap:round;stroke-linejoin:round;stroke:rgb(0%,0%,0%);stroke-opacity:1;stroke-miterlimit:4;" d="M 0.049863 0.000199939 L 10.785197 0.000199939 " transform="matrix(6.218149,0,0,6.218149,4.561038,14.940163)"/>
<path style=" stroke:none;fill-rule:nonzero;fill:rgb(0%,0%,0%);fill-opacity:1;" d="M 60.820312 4.578125 L 61.128906 4.578125 C 61.265625 4.578125 61.378906 4.6875 61.378906 4.824219 L 61.378906 35.296875 C 61.378906 35.433594 61.265625 35.546875 61.128906 35.546875 L 60.820312 35.546875 C 60.679688 35.546875 60.570312 35.433594 60.570312 35.296875 L 60.570312 4.824219 C 60.570312 4.6875 60.679688 4.578125 60.820312 4.578125 Z M 60.820312 4.578125 "/>
<path style=" stroke:none;fill-rule:nonzero;fill:rgb(0%,0%,0%);fill-opacity:1;" d="M 48.359375 24.265625 C 48.929688 24.839844 49.75 24.964844 50.570312 24.964844 C 50.722656 24.964844 50.820312 25.0625 50.820312 25.210938 L 51.042969 27.375 C 51.070312 27.527344 50.945312 27.648438 50.796875 27.625 L 48.632812 27.402344 C 48.507812 27.375 48.382812 27.277344 48.382812 27.152344 C 48.382812 26.332031 48.257812 25.511719 47.6875 24.9375 C 47.113281 25.511719 47.015625 26.332031 47.015625 27.152344 C 47.015625 27.277344 46.890625 27.375 46.765625 27.402344 L 44.578125 27.625 C 44.429688 27.648438 44.304688 27.527344 44.328125 27.375 L 44.550781 25.210938 C 44.550781 25.0625 44.652344 24.964844 44.800781 24.964844 C 45.621094 24.964844 46.441406 24.839844 47.015625 24.265625 C 46.441406 23.695312 45.621094 23.570312 44.800781 23.570312 C 44.652344 23.570312 44.550781 23.472656 44.550781 23.320312 L 44.328125 21.160156 C 44.304688 21.007812 44.429688 20.882812 44.578125 20.910156 L 46.765625 21.132812 C 46.890625 21.160156 46.988281 21.257812 46.988281 21.382812 C 46.988281 22.203125 47.113281 23.023438 47.6875 23.597656 C 48.257812 23.023438 48.382812 22.203125 48.382812 21.382812 C 48.382812 21.257812 48.507812 21.160156 48.632812 21.132812 L 50.796875 20.910156 C 50.945312 20.882812 51.070312 21.007812 51.042969 21.160156 L 50.820312 23.320312 C 50.820312 23.472656 50.722656 23.570312 50.570312 23.570312 C 49.75 23.570312 48.929688 23.695312 48.359375 24.265625 Z M 48.359375 24.265625 "/>
<path style=" stroke:none;fill-rule:nonzero;fill:rgb(0%,0%,0%);fill-opacity:1;" d="M 33.734375 30.484375 C 34.304688 31.058594 35.125 31.183594 35.945312 31.183594 C 36.097656 31.183594 36.195312 31.28125 36.195312 31.429688 L 36.417969 33.59375 C 36.445312 33.742188 36.320312 33.867188 36.171875 33.84375 L 34.007812 33.621094 C 33.882812 33.59375 33.757812 33.496094 33.757812 33.371094 C 33.757812 32.550781 33.632812 31.730469 33.0625 31.15625 C 32.488281 31.730469 32.390625 32.550781 32.390625 33.371094 C 32.390625 33.496094 32.265625 33.59375 32.140625 33.621094 L 29.953125 33.84375 C 29.804688 33.867188 29.679688 33.742188 29.703125 33.59375 L 29.925781 31.429688 C 29.925781 31.28125 30.027344 31.183594 30.175781 31.183594 C 30.996094 31.183594 31.816406 31.058594 32.390625 30.484375 C 31.816406 29.914062 30.996094 29.789062 30.175781 29.789062 C 30.027344 29.789062 29.925781 29.691406 29.925781 29.539062 L 29.703125 27.375 C 29.679688 27.226562 29.804688 27.101562 29.953125 27.128906 L 32.140625 27.351562 C 32.265625 27.375 32.363281 27.476562 32.363281 27.601562 C 32.363281 28.421875 32.488281 29.242188 33.0625 29.8125 C 33.632812 29.242188 33.757812 28.421875 33.757812 27.601562 C 33.757812 27.476562 33.882812 27.375 34.007812 27.351562 L 36.171875 27.128906 C 36.320312 27.101562 36.445312 27.226562 36.417969 27.375 L 36.195312 29.539062 C 36.195312 29.691406 36.097656 29.789062 35.945312 29.789062 C 35.125 29.789062 34.304688 29.914062 33.734375 30.484375 Z M 33.734375 30.484375 "/>
<path style=" stroke:none;fill-rule:nonzero;fill:rgb(0%,0%,0%);fill-opacity:1;" d="M 43.082031 44.464844 C 43.082031 44.710938 42.882812 44.9375 42.636719 44.9375 C 42.386719 44.9375 42.164062 44.710938 42.164062 44.464844 L 42.164062 40.855469 L 40.097656 41.628906 L 40.097656 45.558594 C 40.097656 45.808594 39.875 46.03125 39.625 46.03125 C 39.378906 46.03125 39.179688 45.808594 39.179688 45.558594 L 39.179688 41.953125 L 38.382812 42.25 C 38.332031 42.273438 38.257812 42.273438 38.207031 42.273438 C 37.933594 42.273438 37.710938 42.050781 37.710938 41.777344 L 37.710938 40.285156 C 37.710938 40.085938 37.835938 39.886719 38.035156 39.8125 L 39.179688 39.414062 L 39.179688 35.433594 L 38.382812 35.707031 C 38.332031 35.734375 38.257812 35.734375 38.207031 35.734375 C 37.933594 35.734375 37.710938 35.511719 37.710938 35.234375 L 37.710938 33.742188 C 37.710938 33.542969 37.835938 33.371094 38.035156 33.296875 L 39.179688 32.875 L 39.179688 28.945312 C 39.179688 28.695312 39.378906 28.472656 39.625 28.472656 C 39.875 28.472656 40.097656 28.695312 40.097656 28.945312 L 40.097656 32.550781 L 42.164062 31.777344 L 42.164062 27.847656 C 42.164062 27.601562 42.386719 27.375 42.636719 27.375 C 42.882812 27.375 43.082031 27.601562 43.082031 27.847656 L 43.082031 31.457031 L 43.878906 31.15625 C 43.929688 31.132812 44.003906 31.132812 44.054688 31.132812 C 44.328125 31.132812 44.550781 31.355469 44.550781 31.628906 L 44.550781 33.121094 C 44.550781 33.320312 44.425781 33.519531 44.226562 33.59375 L 43.082031 33.992188 L 43.082031 37.972656 L 43.878906 37.699219 C 43.929688 37.671875 44.003906 37.671875 44.054688 37.671875 C 44.328125 37.671875 44.550781 37.898438 44.550781 38.171875 L 44.550781 39.664062 C 44.550781 39.863281 44.425781 40.035156 44.226562 40.109375 L 43.082031 40.535156 Z M 40.097656 35.085938 L 40.097656 39.066406 L 42.164062 38.320312 L 42.164062 34.339844 Z M 40.097656 35.085938 "/>
<path style=" stroke:none;fill-rule:nonzero;fill:rgb(0%,0%,0%);fill-opacity:1;" d="M 23.390625 24.265625 C 23.390625 23.570312 23.960938 23 24.65625 23 C 25.355469 23 25.925781 23.570312 25.925781 24.265625 C 25.925781 24.964844 25.355469 25.535156 24.65625 25.535156 C 23.960938 25.535156 23.390625 24.964844 23.390625 24.265625 Z M 23.390625 18.050781 C 23.390625 17.351562 23.960938 16.78125 24.65625 16.78125 C 25.355469 16.78125 25.925781 17.351562 25.925781 18.050781 C 25.925781 18.746094 25.355469 19.316406 24.65625 19.316406 C 23.960938 19.316406 23.390625 18.746094 23.390625 18.050781 Z M 15.304688 14.617188 C 19.585938 14.617188 22.59375 16.804688 22.59375 20.859375 C 22.59375 27.402344 16.050781 31.15625 9.757812 33.820312 C 9.683594 33.894531 9.609375 33.917969 9.535156 33.917969 C 9.363281 33.917969 9.210938 33.769531 9.210938 33.59375 C 9.210938 33.519531 9.238281 33.445312 9.3125 33.371094 C 14.335938 30.4375 19.558594 26.78125 19.558594 21.109375 C 19.558594 18.125 17.992188 15.261719 15.304688 15.261719 C 13.464844 15.261719 12.097656 16.605469 11.476562 18.398438 C 11.75 18.273438 12.023438 18.199219 12.320312 18.199219 C 13.6875 18.199219 14.808594 19.316406 14.808594 20.6875 C 14.808594 22.128906 13.714844 23.320312 12.320312 23.320312 C 10.828125 23.320312 9.535156 22.152344 9.535156 20.6875 C 9.535156 17.378906 12.074219 14.617188 15.304688 14.617188 Z M 15.304688 14.617188 "/>
<path style=" stroke:none;fill-rule:nonzero;fill:rgb(0%,0%,0%);fill-opacity:1;" d="M 58.691406 20.882812 C 60.058594 20.882812 61.375 21.582031 61.375 23.097656 C 61.375 24.863281 60.007812 26.109375 58.839844 26.804688 C 57.96875 27.328125 56.972656 27.648438 55.953125 27.648438 C 54.585938 27.648438 53.269531 26.953125 53.269531 25.4375 C 53.269531 23.671875 54.636719 22.425781 55.804688 21.730469 C 56.675781 21.207031 57.671875 20.882812 58.691406 20.882812 Z M 58.691406 20.882812 "/>
<path style=" stroke:none;fill-rule:nonzero;fill:rgb(0%,0%,0%);fill-opacity:1;" d="M 58.691406 27.101562 C 60.058594 27.101562 61.375 27.800781 61.375 29.316406 C 61.375 31.082031 60.007812 32.324219 58.839844 33.023438 C 57.96875 33.542969 56.972656 33.867188 55.953125 33.867188 C 54.585938 33.867188 53.269531 33.171875 53.269531 31.65625 C 53.269531 29.886719 54.636719 28.644531 55.804688 27.949219 C 56.675781 27.425781 57.671875 27.101562 58.691406 27.101562 Z M 58.691406 27.101562 "/>
<path style=" stroke:none;fill-rule:nonzero;fill:rgb(0%,0%,0%);fill-opacity:1;" d="M 58.691406 33.320312 C 60.058594 33.320312 61.375 34.015625 61.375 35.535156 C 61.375 37.300781 60.007812 38.542969 58.839844 39.242188 C 57.96875 39.761719 56.972656 40.085938 55.953125 40.085938 C 54.585938 40.085938 53.269531 39.390625 53.269531 37.871094 C 53.269531 36.105469 54.636719 34.863281 55.804688 34.167969 C 56.675781 33.644531 57.671875 33.320312 58.691406 33.320312 Z M 58.691406 33.320312 "/>
</g>
</svg>
