<?xml version="1.0" encoding="UTF-8"?>
<svg xmlns="http://www.w3.org/2000/svg" xmlns:xlink="http://www.w3.org/1999/xlink" width="82.677102pt" height="58.61114pt" viewBox="0 0 82.677102 58.61114" version="1.1">
<g id="surface1">
<path style="fill:none;stroke-width:0.1;stroke-linecap:round;stroke-linejoin:round;stroke:rgb(0%,0%,0%);stroke-opacity:1;stroke-miterlimit:4;" d="M 0.049863 -0.000287501 L 10.890735 -0.000287501 " transform="matrix(6.218149,0,0,6.218149,4.561038,40.517413)"/>
<path style="fill:none;stroke-width:0.1;stroke-linecap:round;stroke-linejoin:round;stroke:rgb(0%,0%,0%);stroke-opacity:1;stroke-miterlimit:4;" d="M 0.049863 0.000244052 L 10.890735 0.000244052 " transform="matrix(6.218149,0,0,6.218149,4.561038,34.299264)"/>
<path style="fill:none;stroke-width:0.1;stroke-linecap:round;stroke-linejoin:round;stroke:rgb(0%,0%,0%);stroke-opacity:1;stroke-miterlimit:4;" d="M 0.049863 0.000147403 L 10.890735 0.000147403 " transform="matrix(6.218149,0,0,6.218149,4.561038,28.081115)"/>
<path style="fill:none;stroke-width:0.1;stroke-linecap:round;stroke-linejoin:round;stroke:rgb(0%,0%,0%);stroke-opacity:1;stroke-miterlimit:4;" d="M 0.049863 0.0000507548 L 10.890735 0.0000507548 " transform="matrix(6.218149,0,0,6.218149,4.561038,21.862966)"/>
<path style="fill:none;stroke-width:0.1;stroke-linecap:round;stroke-linejoin:round;stroke:rgb(0%,0%,0%);stroke-opacity:1;stroke-miterlimit:4;" d="M 0.049863 -0.0000458938 L 10.890735 -0.0000458938 " transform="matrix(6.218149,0,0,6.218149,4.561038,15.644817)"/>
<path style=" stroke:none;fill-rule:nonzero;fill:rgb(0%,0%,0%);fill-opacity:1;" d="M 53.3125 8.804688 L 63.441406 8.804688 C 63.785156 8.804688 64.0625 9.082031 64.0625 9.425781 C 64.0625 9.769531 63.785156 10.046875 63.441406 10.046875 L 53.3125 10.046875 C 52.96875 10.046875 52.6875 9.769531 52.6875 9.425781 C 52.6875 9.082031 52.96875 8.804688 53.3125 8.804688 Z M 53.3125 8.804688 "/>
<path style=" stroke:none;fill-rule:nonzero;fill:rgb(0%,0%,0%);fill-opacity:1;" d="M 54.171875 10.582031 L 54.484375 10.582031 C 54.621094 10.582031 54.734375 10.695312 54.734375 10.832031 L 54.734375 48.558594 C 54.734375 48.695312 54.621094 48.808594 54.484375 48.808594 L 54.171875 48.808594 C 54.035156 48.808594 53.925781 48.695312 53.925781 48.558594 L 53.925781 10.832031 C 53.925781 10.695312 54.035156 10.582031 54.171875 10.582031 Z M 54.171875 10.582031 "/>
<path style=" stroke:none;fill-rule:nonzero;fill:rgb(0%,0%,0%);fill-opacity:1;" d="M 49.015625 9.425781 C 49.585938 10 50.40625 10.125 51.226562 10.125 C 51.378906 10.125 51.476562 10.222656 51.476562 10.371094 L 51.699219 12.535156 C 51.726562 12.683594 51.601562 12.808594 51.453125 12.785156 L 49.289062 12.5625 C 49.164062 12.535156 49.039062 12.4375 49.039062 12.3125 C 49.039062 11.492188 48.914062 10.671875 48.34375 10.097656 C 47.769531 10.671875 47.671875 11.492188 47.671875 12.3125 C 47.671875 12.4375 47.546875 12.535156 47.421875 12.5625 L 45.234375 12.785156 C 45.085938 12.808594 44.960938 12.683594 44.984375 12.535156 L 45.210938 10.371094 C 45.210938 10.222656 45.308594 10.125 45.457031 10.125 C 46.277344 10.125 47.097656 10 47.671875 9.425781 C 47.097656 8.855469 46.277344 8.730469 45.457031 8.730469 C 45.308594 8.730469 45.210938 8.628906 45.210938 8.480469 L 44.984375 6.316406 C 44.960938 6.167969 45.085938 6.042969 45.234375 6.070312 L 47.421875 6.292969 C 47.546875 6.316406 47.648438 6.417969 47.648438 6.542969 C 47.648438 7.363281 47.769531 8.183594 48.34375 8.753906 C 48.914062 8.183594 49.039062 7.363281 49.039062 6.542969 C 49.039062 6.417969 49.164062 6.316406 49.289062 6.292969 L 51.453125 6.070312 C 51.601562 6.042969 51.726562 6.167969 51.699219 6.316406 L 51.476562 8.480469 C 51.476562 8.628906 51.378906 8.730469 51.226562 8.730469 C 50.40625 8.730469 49.585938 8.855469 49.015625 9.425781 Z M 49.015625 9.425781 "/>
<path style=" stroke:none;fill-rule:nonzero;fill:rgb(0%,0%,0%);fill-opacity:1;" d="M 41.003906 15.644531 C 41.578125 16.21875 42.398438 16.339844 43.21875 16.339844 C 43.367188 16.339844 43.46875 16.441406 43.46875 16.589844 L 43.691406 18.753906 C 43.714844 18.902344 43.59375 19.027344 43.441406 19.003906 L 41.277344 18.777344 C 41.15625 18.753906 41.03125 18.65625 41.03125 18.53125 C 41.03125 17.710938 40.90625 16.886719 40.335938 16.316406 C 39.761719 16.886719 39.664062 17.710938 39.664062 18.53125 C 39.664062 18.65625 39.539062 18.753906 39.414062 18.777344 L 37.226562 19.003906 C 37.074219 19.027344 36.953125 18.902344 36.976562 18.753906 L 37.199219 16.589844 C 37.199219 16.441406 37.300781 16.339844 37.449219 16.339844 C 38.269531 16.339844 39.089844 16.21875 39.664062 15.644531 C 39.089844 15.074219 38.269531 14.949219 37.449219 14.949219 C 37.300781 14.949219 37.199219 14.847656 37.199219 14.699219 L 36.976562 12.535156 C 36.953125 12.386719 37.074219 12.261719 37.226562 12.285156 L 39.414062 12.511719 C 39.539062 12.535156 39.636719 12.636719 39.636719 12.757812 C 39.636719 13.582031 39.761719 14.402344 40.335938 14.972656 C 40.90625 14.402344 41.03125 13.582031 41.03125 12.757812 C 41.03125 12.636719 41.15625 12.535156 41.277344 12.511719 L 43.441406 12.285156 C 43.59375 12.261719 43.714844 12.386719 43.691406 12.535156 L 43.46875 14.699219 C 43.46875 14.847656 43.367188 14.949219 43.21875 14.949219 C 42.398438 14.949219 41.578125 15.074219 41.003906 15.644531 Z M 41.003906 15.644531 "/>
<path style=" stroke:none;fill-rule:nonzero;fill:rgb(0%,0%,0%);fill-opacity:1;" d="M 32.996094 21.863281 C 33.570312 22.433594 34.390625 22.558594 35.210938 22.558594 C 35.359375 22.558594 35.460938 22.660156 35.460938 22.808594 L 35.683594 24.972656 C 35.707031 25.121094 35.582031 25.246094 35.433594 25.222656 L 33.269531 24.996094 C 33.144531 24.972656 33.023438 24.871094 33.023438 24.75 C 33.023438 23.925781 32.898438 23.105469 32.324219 22.535156 C 31.753906 23.105469 31.652344 23.925781 31.652344 24.75 C 31.652344 24.871094 31.527344 24.972656 31.40625 24.996094 L 29.214844 25.222656 C 29.066406 25.246094 28.941406 25.121094 28.96875 24.972656 L 29.191406 22.808594 C 29.191406 22.660156 29.289062 22.558594 29.441406 22.558594 C 30.261719 22.558594 31.082031 22.433594 31.652344 21.863281 C 31.082031 21.289062 30.261719 21.167969 29.441406 21.167969 C 29.289062 21.167969 29.191406 21.066406 29.191406 20.917969 L 28.96875 18.753906 C 28.941406 18.605469 29.066406 18.480469 29.214844 18.503906 L 31.40625 18.730469 C 31.527344 18.753906 31.628906 18.851562 31.628906 18.976562 C 31.628906 19.796875 31.753906 20.621094 32.324219 21.191406 C 32.898438 20.621094 33.023438 19.796875 33.023438 18.976562 C 33.023438 18.851562 33.144531 18.753906 33.269531 18.730469 L 35.433594 18.503906 C 35.582031 18.480469 35.707031 18.605469 35.683594 18.753906 L 35.460938 20.917969 C 35.460938 21.066406 35.359375 21.167969 35.210938 21.167969 C 34.390625 21.167969 33.570312 21.289062 32.996094 21.863281 Z M 32.996094 21.863281 "/>
<path style=" stroke:none;fill-rule:nonzero;fill:rgb(0%,0%,0%);fill-opacity:1;" d="M 50.28125 35.839844 C 50.28125 36.089844 50.082031 36.3125 49.832031 36.3125 C 49.585938 36.3125 49.359375 36.089844 49.359375 35.839844 L 49.359375 32.234375 L 47.296875 33.007812 L 47.296875 36.9375 C 47.296875 37.183594 47.074219 37.410156 46.824219 37.410156 C 46.574219 37.410156 46.375 37.183594 46.375 36.9375 L 46.375 33.328125 L 45.582031 33.628906 C 45.53125 33.652344 45.457031 33.652344 45.40625 33.652344 C 45.132812 33.652344 44.910156 33.429688 44.910156 33.15625 L 44.910156 31.664062 C 44.910156 31.464844 45.03125 31.265625 45.230469 31.191406 L 46.375 30.792969 L 46.375 26.8125 L 45.582031 27.085938 C 45.53125 27.109375 45.457031 27.109375 45.40625 27.109375 C 45.132812 27.109375 44.910156 26.886719 44.910156 26.613281 L 44.910156 25.121094 C 44.910156 24.921875 45.03125 24.75 45.230469 24.671875 L 46.375 24.25 L 46.375 20.320312 C 46.375 20.070312 46.574219 19.847656 46.824219 19.847656 C 47.074219 19.847656 47.296875 20.070312 47.296875 20.320312 L 47.296875 23.925781 L 49.359375 23.15625 L 49.359375 19.226562 C 49.359375 18.976562 49.585938 18.753906 49.832031 18.753906 C 50.082031 18.753906 50.28125 18.976562 50.28125 19.226562 L 50.28125 22.832031 L 51.078125 22.535156 C 51.125 22.507812 51.203125 22.507812 51.25 22.507812 C 51.523438 22.507812 51.75 22.734375 51.75 23.007812 L 51.75 24.5 C 51.75 24.699219 51.625 24.898438 51.425781 24.972656 L 50.28125 25.371094 L 50.28125 29.351562 L 51.078125 29.074219 C 51.125 29.050781 51.203125 29.050781 51.25 29.050781 C 51.523438 29.050781 51.75 29.273438 51.75 29.546875 L 51.75 31.039062 C 51.75 31.238281 51.625 31.414062 51.425781 31.488281 L 50.28125 31.910156 Z M 47.296875 26.464844 L 47.296875 30.445312 L 49.359375 29.699219 L 49.359375 25.71875 Z M 47.296875 26.464844 "/>
<path style=" stroke:none;fill-rule:nonzero;fill:rgb(0%,0%,0%);fill-opacity:1;" d="M 16.152344 50.09375 L 16.003906 50.09375 C 13.316406 50.09375 11.152344 47.90625 11.152344 45.195312 C 11.152344 43.75 12.46875 42.632812 13.9375 42.632812 C 15.28125 42.632812 16.300781 43.800781 16.300781 45.195312 C 16.300781 46.488281 15.230469 47.554688 13.9375 47.554688 C 13.664062 47.554688 13.414062 47.507812 13.167969 47.40625 C 13.8125 48.378906 14.859375 49.023438 16.078125 49.023438 L 16.175781 49.023438 Z M 21 39.347656 C 22.691406 38.75 23.8125 36.984375 23.8125 35.269531 C 23.8125 33.03125 22.171875 30.816406 19.507812 30.542969 C 20.105469 33.429688 20.652344 36.289062 21 39.347656 Z M 11.375 33.601562 C 11.375 36.960938 14.585938 39.746094 17.941406 39.746094 C 18.640625 39.746094 19.308594 39.695312 19.980469 39.597656 C 19.632812 36.4375 19.0625 33.503906 18.414062 30.542969 C 16.449219 30.742188 15.332031 32.0625 15.332031 33.503906 C 15.332031 34.597656 15.953125 35.765625 17.34375 36.5625 C 17.46875 36.6875 17.519531 36.8125 17.519531 36.9375 C 17.519531 37.210938 17.269531 37.484375 16.972656 37.484375 C 16.898438 37.484375 16.824219 37.457031 16.75 37.433594 C 14.757812 36.363281 13.839844 34.574219 13.839844 32.832031 C 13.839844 30.644531 15.28125 28.503906 17.816406 27.933594 C 17.46875 26.488281 17.097656 25.023438 16.675781 23.578125 C 14.011719 26.589844 11.375 29.625 11.375 33.601562 Z M 17.867188 40.816406 C 13.191406 40.816406 9.585938 36.539062 9.585938 31.511719 C 9.585938 27.109375 12.84375 23.902344 15.753906 20.542969 C 15.28125 19.003906 14.832031 17.4375 14.632812 15.820312 C 14.484375 14.527344 14.460938 13.230469 14.460938 11.9375 C 14.460938 9.078125 15.828125 6.367188 18.167969 4.675781 C 18.316406 4.550781 18.515625 4.550781 18.664062 4.675781 C 20.429688 6.765625 21.972656 10.769531 21.972656 13.582031 C 21.972656 17.136719 19.832031 19.921875 17.496094 22.632812 C 18.015625 24.324219 18.464844 26.066406 18.886719 27.78125 C 18.988281 27.78125 19.113281 27.757812 19.210938 27.757812 C 23.066406 27.757812 25.578125 30.941406 25.578125 34.25 C 25.578125 36.140625 24.757812 38.078125 22.917969 39.472656 C 22.371094 39.894531 21.746094 40.167969 21.101562 40.367188 C 21.175781 41.238281 21.226562 42.109375 21.226562 42.980469 C 21.226562 43.453125 21.199219 43.949219 21.175781 44.421875 C 21 47.382812 18.988281 50.019531 16.152344 50.09375 L 16.175781 49.023438 C 18.488281 48.972656 19.980469 46.734375 20.132812 44.273438 C 20.15625 43.824219 20.179688 43.351562 20.179688 42.90625 C 20.179688 42.132812 20.15625 41.386719 20.082031 40.617188 C 19.359375 40.742188 18.640625 40.816406 17.867188 40.816406 Z M 20.179688 11.515625 C 20.179688 10.148438 20.082031 9.550781 19.683594 8.308594 C 17.222656 9.5 15.652344 12.011719 15.652344 14.75 C 15.652344 16.589844 16.101562 18.058594 16.550781 19.574219 C 18.539062 17.160156 20.179688 14.648438 20.179688 11.515625 Z M 20.179688 11.515625 "/>
<path style=" stroke:none;fill-rule:nonzero;fill:rgb(0%,0%,0%);fill-opacity:1;" d="M 59.347656 6.042969 C 60.714844 6.042969 62.035156 6.742188 62.035156 8.257812 C 62.035156 10.023438 60.664062 11.265625 59.496094 11.964844 C 58.625 12.484375 57.632812 12.808594 56.609375 12.808594 C 55.242188 12.808594 53.925781 12.113281 53.925781 10.59375 C 53.925781 8.828125 55.292969 7.585938 56.460938 6.890625 C 57.332031 6.367188 58.328125 6.042969 59.347656 6.042969 Z M 59.347656 6.042969 "/>
<path style=" stroke:none;fill-rule:nonzero;fill:rgb(0%,0%,0%);fill-opacity:1;" d="M 59.347656 12.261719 C 60.714844 12.261719 62.035156 12.957031 62.035156 14.476562 C 62.035156 16.242188 60.664062 17.484375 59.496094 18.183594 C 58.625 18.703125 57.632812 19.027344 56.609375 19.027344 C 55.242188 19.027344 53.925781 18.332031 53.925781 16.8125 C 53.925781 15.046875 55.292969 13.804688 56.460938 13.109375 C 57.332031 12.585938 58.328125 12.261719 59.347656 12.261719 Z M 59.347656 12.261719 "/>
<path style=" stroke:none;fill-rule:nonzero;fill:rgb(0%,0%,0%);fill-opacity:1;" d="M 59.347656 18.480469 C 60.714844 18.480469 62.035156 19.175781 62.035156 20.695312 C 62.035156 22.460938 60.664062 23.703125 59.496094 24.398438 C 58.625 24.921875 57.632812 25.246094 56.609375 25.246094 C 55.242188 25.246094 53.925781 24.550781 53.925781 23.03125 C 53.925781 21.265625 55.292969 20.023438 56.460938 19.324219 C 57.332031 18.804688 58.328125 18.480469 59.347656 18.480469 Z M 59.347656 18.480469 "/>
<path style=" stroke:none;fill-rule:nonzero;fill:rgb(0%,0%,0%);fill-opacity:1;" d="M 59.347656 24.699219 C 60.714844 24.699219 62.035156 25.394531 62.035156 26.910156 C 62.035156 28.679688 60.664062 29.921875 59.496094 30.617188 C 58.625 31.140625 57.632812 31.464844 56.609375 31.464844 C 55.242188 31.464844 53.925781 30.765625 53.925781 29.25 C 53.925781 27.484375 55.292969 26.242188 56.460938 25.542969 C 57.332031 25.023438 58.328125 24.699219 59.347656 24.699219 Z M 59.347656 24.699219 "/>
</g>
</svg>
