<?xml version="1.0" encoding="UTF-8"?>
<svg xmlns="http://www.w3.org/2000/svg" xmlns:xlink="http://www.w3.org/1999/xlink" width="68.472344pt" height="67.012984pt" viewBox="0 0 68.472344 67.012984" version="1.1">
<g id="surface1">
<path style="fill:none;stroke-width:0.1;stroke-linecap:round;stroke-linejoin:round;stroke:rgb(0%,0%,0%);stroke-opacity:1;stroke-miterlimit:4;" d="M 0.049863 -0.000256359 L 8.752337 -0.000256359 " transform="matrix(6.218149,0,0,6.218149,4.561038,48.376594)"/>
<path style="fill:none;stroke-width:0.1;stroke-linecap:round;stroke-linejoin:round;stroke:rgb(0%,0%,0%);stroke-opacity:1;stroke-miterlimit:4;" d="M 0.049863 0.000275194 L 8.752337 0.000275194 " transform="matrix(6.218149,0,0,6.218149,4.561038,42.158445)"/>
<path style="fill:none;stroke-width:0.1;stroke-linecap:round;stroke-linejoin:round;stroke:rgb(0%,0%,0%);stroke-opacity:1;stroke-miterlimit:4;" d="M 0.049863 0.000178545 L 8.752337 0.000178545 " transform="matrix(6.218149,0,0,6.218149,4.561038,35.940296)"/>
<path style="fill:none;stroke-width:0.1;stroke-linecap:round;stroke-linejoin:round;stroke:rgb(0%,0%,0%);stroke-opacity:1;stroke-miterlimit:4;" d="M 0.049863 0.0000818968 L 8.752337 0.0000818968 " transform="matrix(6.218149,0,0,6.218149,4.561038,29.722147)"/>
<path style="fill:none;stroke-width:0.1;stroke-linecap:round;stroke-linejoin:round;stroke:rgb(0%,0%,0%);stroke-opacity:1;stroke-miterlimit:4;" d="M 0.049863 -0.0000147518 L 8.752337 -0.0000147518 " transform="matrix(6.218149,0,0,6.218149,4.561038,23.503998)"/>
<path style=" stroke:none;fill-rule:nonzero;fill:rgb(0%,0%,0%);fill-opacity:1;" d="M 39.21875 10.445312 L 50.140625 10.445312 C 50.484375 10.445312 50.761719 10.722656 50.761719 11.066406 C 50.761719 11.410156 50.484375 11.691406 50.140625 11.691406 L 39.21875 11.691406 C 38.878906 11.691406 38.597656 11.410156 38.597656 11.066406 C 38.597656 10.722656 38.878906 10.445312 39.21875 10.445312 Z M 39.21875 10.445312 "/>
<path style=" stroke:none;fill-rule:nonzero;fill:rgb(0%,0%,0%);fill-opacity:1;" d="M 39.21875 16.664062 L 50.140625 16.664062 C 50.484375 16.664062 50.761719 16.941406 50.761719 17.285156 C 50.761719 17.628906 50.484375 17.90625 50.140625 17.90625 L 39.21875 17.90625 C 38.878906 17.90625 38.597656 17.628906 38.597656 17.285156 C 38.597656 16.941406 38.878906 16.664062 39.21875 16.664062 Z M 39.21875 16.664062 "/>
<path style=" stroke:none;fill-rule:nonzero;fill:rgb(0%,0%,0%);fill-opacity:1;" d="M 40.875 9.117188 L 41.1875 9.117188 C 41.324219 9.117188 41.433594 9.226562 41.433594 9.363281 L 41.433594 41.910156 C 41.433594 42.046875 41.324219 42.160156 41.1875 42.160156 L 40.875 42.160156 C 40.738281 42.160156 40.625 42.046875 40.625 41.910156 L 40.625 9.363281 C 40.625 9.226562 40.738281 9.117188 40.875 9.117188 Z M 40.875 9.117188 "/>
<path style=" stroke:none;fill-rule:nonzero;fill:rgb(0%,0%,0%);fill-opacity:1;" d="M 16.152344 57.953125 L 16.003906 57.953125 C 13.316406 57.953125 11.152344 55.765625 11.152344 53.050781 C 11.152344 51.609375 12.46875 50.492188 13.9375 50.492188 C 15.28125 50.492188 16.300781 51.660156 16.300781 53.050781 C 16.300781 54.347656 15.230469 55.414062 13.9375 55.414062 C 13.664062 55.414062 13.414062 55.367188 13.167969 55.265625 C 13.8125 56.238281 14.859375 56.882812 16.078125 56.882812 L 16.175781 56.882812 Z M 21 47.207031 C 22.691406 46.609375 23.8125 44.84375 23.8125 43.128906 C 23.8125 40.890625 22.171875 38.675781 19.507812 38.402344 C 20.105469 41.289062 20.652344 44.148438 21 47.207031 Z M 11.375 41.460938 C 11.375 44.820312 14.585938 47.605469 17.941406 47.605469 C 18.640625 47.605469 19.308594 47.554688 19.980469 47.457031 C 19.632812 44.296875 19.0625 41.363281 18.414062 38.402344 C 16.449219 38.601562 15.332031 39.917969 15.332031 41.363281 C 15.332031 42.457031 15.953125 43.625 17.34375 44.421875 C 17.46875 44.546875 17.519531 44.671875 17.519531 44.796875 C 17.519531 45.070312 17.269531 45.34375 16.972656 45.34375 C 16.898438 45.34375 16.824219 45.316406 16.75 45.292969 C 14.757812 44.222656 13.839844 42.433594 13.839844 40.691406 C 13.839844 38.503906 15.28125 36.363281 17.816406 35.792969 C 17.46875 34.347656 17.097656 32.882812 16.675781 31.4375 C 14.011719 34.449219 11.375 37.480469 11.375 41.460938 Z M 17.867188 48.675781 C 13.191406 48.675781 9.585938 44.398438 9.585938 39.371094 C 9.585938 34.96875 12.84375 31.761719 15.753906 28.402344 C 15.28125 26.863281 14.832031 25.292969 14.632812 23.679688 C 14.484375 22.382812 14.460938 21.089844 14.460938 19.796875 C 14.460938 16.9375 15.828125 14.226562 18.167969 12.535156 C 18.316406 12.410156 18.515625 12.410156 18.664062 12.535156 C 20.429688 14.625 21.972656 18.628906 21.972656 21.441406 C 21.972656 24.996094 19.832031 27.78125 17.496094 30.492188 C 18.015625 32.183594 18.464844 33.925781 18.886719 35.640625 C 18.988281 35.640625 19.113281 35.617188 19.210938 35.617188 C 23.066406 35.617188 25.578125 38.800781 25.578125 42.109375 C 25.578125 44 24.757812 45.9375 22.917969 47.332031 C 22.371094 47.753906 21.746094 48.027344 21.101562 48.226562 C 21.175781 49.097656 21.226562 49.96875 21.226562 50.839844 C 21.226562 51.3125 21.199219 51.808594 21.175781 52.28125 C 21 55.242188 18.988281 57.878906 16.152344 57.953125 L 16.175781 56.882812 C 18.488281 56.832031 19.980469 54.59375 20.132812 52.132812 C 20.15625 51.683594 20.179688 51.210938 20.179688 50.765625 C 20.179688 49.992188 20.15625 49.246094 20.082031 48.476562 C 19.359375 48.601562 18.640625 48.675781 17.867188 48.675781 Z M 20.179688 19.375 C 20.179688 18.007812 20.082031 17.410156 19.683594 16.167969 C 17.222656 17.359375 15.652344 19.871094 15.652344 22.609375 C 15.652344 24.449219 16.101562 25.917969 16.550781 27.433594 C 18.539062 25.019531 20.179688 22.507812 20.179688 19.375 Z M 20.179688 19.375 "/>
<path style=" stroke:none;fill-rule:nonzero;fill:rgb(0%,0%,0%);fill-opacity:1;" d="M 46.046875 4.574219 C 47.417969 4.574219 48.734375 5.273438 48.734375 6.789062 C 48.734375 8.554688 47.367188 9.800781 46.199219 10.496094 C 45.328125 11.019531 44.332031 11.339844 43.3125 11.339844 C 41.945312 11.339844 40.625 10.644531 40.625 9.128906 C 40.625 7.363281 41.996094 6.117188 43.164062 5.421875 C 44.035156 4.898438 45.027344 4.574219 46.046875 4.574219 Z M 46.046875 4.574219 "/>
<path style=" stroke:none;fill-rule:nonzero;fill:rgb(0%,0%,0%);fill-opacity:1;" d="M 46.046875 10.792969 C 47.417969 10.792969 48.734375 11.492188 48.734375 13.007812 C 48.734375 14.773438 47.367188 16.015625 46.199219 16.714844 C 45.328125 17.234375 44.332031 17.558594 43.3125 17.558594 C 41.945312 17.558594 40.625 16.863281 40.625 15.347656 C 40.625 13.578125 41.996094 12.335938 43.164062 11.640625 C 44.035156 11.117188 45.027344 10.792969 46.046875 10.792969 Z M 46.046875 10.792969 "/>
<path style=" stroke:none;fill-rule:nonzero;fill:rgb(0%,0%,0%);fill-opacity:1;" d="M 46.046875 17.011719 C 47.417969 17.011719 48.734375 17.707031 48.734375 19.226562 C 48.734375 20.992188 47.367188 22.234375 46.199219 22.933594 C 45.328125 23.453125 44.332031 23.777344 43.3125 23.777344 C 41.945312 23.777344 40.625 23.082031 40.625 21.5625 C 40.625 19.796875 41.996094 18.554688 43.164062 17.859375 C 44.035156 17.335938 45.027344 17.011719 46.046875 17.011719 Z M 46.046875 17.011719 "/>
</g>
</svg>
