<?xml version="1.0" encoding="UTF-8"?>
<svg xmlns="http://www.w3.org/2000/svg" xmlns:xlink="http://www.w3.org/1999/xlink" width="74.469865pt" height="73.654757pt" viewBox="0 0 74.469865 73.654757" version="1.1">
<g id="surface1">
<path style="fill:none;stroke-width:0.1;stroke-linecap:round;stroke-linejoin:round;stroke:rgb(0%,0%,0%);stroke-opacity:1;stroke-miterlimit:4;" d="M 0.049863 -0.0000525166 L 9.655063 -0.0000525166 " transform="matrix(6.218149,0,0,6.218149,4.561038,54.551108)"/>
<path style="fill:none;stroke-width:0.1;stroke-linecap:round;stroke-linejoin:round;stroke:rgb(0%,0%,0%);stroke-opacity:1;stroke-miterlimit:4;" d="M 0.049863 -0.000149165 L 9.655063 -0.000149165 " transform="matrix(6.218149,0,0,6.218149,4.561038,48.332959)"/>
<path style="fill:none;stroke-width:0.1;stroke-linecap:round;stroke-linejoin:round;stroke:rgb(0%,0%,0%);stroke-opacity:1;stroke-miterlimit:4;" d="M 0.049863 -0.000245814 L 9.655063 -0.000245814 " transform="matrix(6.218149,0,0,6.218149,4.561038,42.11481)"/>
<path style="fill:none;stroke-width:0.1;stroke-linecap:round;stroke-linejoin:round;stroke:rgb(0%,0%,0%);stroke-opacity:1;stroke-miterlimit:4;" d="M 0.049863 0.000285739 L 9.655063 0.000285739 " transform="matrix(6.218149,0,0,6.218149,4.561038,35.896661)"/>
<path style="fill:none;stroke-width:0.1;stroke-linecap:round;stroke-linejoin:round;stroke:rgb(0%,0%,0%);stroke-opacity:1;stroke-miterlimit:4;" d="M 0.049863 0.00018909 L 9.655063 0.00018909 " transform="matrix(6.218149,0,0,6.218149,4.561038,29.678512)"/>
<path style=" stroke:none;fill-rule:nonzero;fill:rgb(0%,0%,0%);fill-opacity:1;" d="M 45.625 10.402344 L 55.757812 10.402344 C 56.101562 10.402344 56.378906 10.679688 56.378906 11.023438 C 56.378906 11.367188 56.101562 11.644531 55.757812 11.644531 L 45.625 11.644531 C 45.285156 11.644531 45.003906 11.367188 45.003906 11.023438 C 45.003906 10.679688 45.285156 10.402344 45.625 10.402344 Z M 45.625 10.402344 "/>
<path style=" stroke:none;fill-rule:nonzero;fill:rgb(0%,0%,0%);fill-opacity:1;" d="M 44.835938 16.621094 L 55.757812 16.621094 C 56.101562 16.621094 56.378906 16.898438 56.378906 17.242188 C 56.378906 17.585938 56.101562 17.863281 55.757812 17.863281 L 44.835938 17.863281 C 44.492188 17.863281 44.214844 17.585938 44.214844 17.242188 C 44.214844 16.898438 44.492188 16.621094 44.835938 16.621094 Z M 44.835938 16.621094 "/>
<path style=" stroke:none;fill-rule:nonzero;fill:rgb(0%,0%,0%);fill-opacity:1;" d="M 44.835938 22.839844 L 55.757812 22.839844 C 56.101562 22.839844 56.378906 23.117188 56.378906 23.460938 C 56.378906 23.804688 56.101562 24.082031 55.757812 24.082031 L 44.835938 24.082031 C 44.492188 24.082031 44.214844 23.804688 44.214844 23.460938 C 44.214844 23.117188 44.492188 22.839844 44.835938 22.839844 Z M 44.835938 22.839844 "/>
<path style=" stroke:none;fill-rule:nonzero;fill:rgb(0%,0%,0%);fill-opacity:1;" d="M 46.488281 9.070312 L 46.800781 9.070312 C 46.9375 9.070312 47.050781 9.183594 47.050781 9.320312 L 47.050781 41.867188 C 47.050781 42.003906 46.9375 42.113281 46.800781 42.113281 L 46.488281 42.113281 C 46.351562 42.113281 46.242188 42.003906 46.242188 41.867188 L 46.242188 9.320312 C 46.242188 9.183594 46.351562 9.070312 46.488281 9.070312 Z M 46.488281 9.070312 "/>
<path style=" stroke:none;fill-rule:nonzero;fill:rgb(0%,0%,0%);fill-opacity:1;" d="M 41.332031 7.914062 C 41.902344 8.488281 42.722656 8.613281 43.542969 8.613281 C 43.695312 8.613281 43.792969 8.710938 43.792969 8.859375 L 44.015625 11.023438 C 44.042969 11.171875 43.917969 11.296875 43.769531 11.273438 L 41.605469 11.050781 C 41.480469 11.023438 41.355469 10.925781 41.355469 10.800781 C 41.355469 9.980469 41.230469 9.160156 40.660156 8.585938 C 40.085938 9.160156 39.988281 9.980469 39.988281 10.800781 C 39.988281 10.925781 39.863281 11.023438 39.738281 11.050781 L 37.550781 11.273438 C 37.402344 11.296875 37.277344 11.171875 37.300781 11.023438 L 37.523438 8.859375 C 37.523438 8.710938 37.625 8.613281 37.773438 8.613281 C 38.59375 8.613281 39.414062 8.488281 39.988281 7.914062 C 39.414062 7.34375 38.59375 7.21875 37.773438 7.21875 C 37.625 7.21875 37.523438 7.117188 37.523438 6.96875 L 37.300781 4.804688 C 37.277344 4.65625 37.402344 4.53125 37.550781 4.558594 L 39.738281 4.78125 C 39.863281 4.804688 39.960938 4.90625 39.960938 5.03125 C 39.960938 5.851562 40.085938 6.671875 40.660156 7.242188 C 41.230469 6.671875 41.355469 5.851562 41.355469 5.03125 C 41.355469 4.90625 41.480469 4.804688 41.605469 4.78125 L 43.769531 4.558594 C 43.917969 4.53125 44.042969 4.65625 44.015625 4.804688 L 43.792969 6.96875 C 43.792969 7.117188 43.695312 7.21875 43.542969 7.21875 C 42.722656 7.21875 41.902344 7.34375 41.332031 7.914062 Z M 41.332031 7.914062 "/>
<path style=" stroke:none;fill-rule:nonzero;fill:rgb(0%,0%,0%);fill-opacity:1;" d="M 34.589844 21.894531 C 34.589844 22.140625 34.390625 22.367188 34.140625 22.367188 C 33.890625 22.367188 33.667969 22.140625 33.667969 21.894531 L 33.667969 18.285156 L 31.605469 19.058594 L 31.605469 22.988281 C 31.605469 23.238281 31.378906 23.460938 31.132812 23.460938 C 30.882812 23.460938 30.683594 23.238281 30.683594 22.988281 L 30.683594 19.382812 L 29.886719 19.679688 C 29.835938 19.703125 29.761719 19.703125 29.714844 19.703125 C 29.441406 19.703125 29.214844 19.480469 29.214844 19.207031 L 29.214844 17.714844 C 29.214844 17.515625 29.339844 17.316406 29.539062 17.242188 L 30.683594 16.84375 L 30.683594 12.863281 L 29.886719 13.136719 C 29.835938 13.164062 29.761719 13.164062 29.714844 13.164062 C 29.441406 13.164062 29.214844 12.9375 29.214844 12.664062 L 29.214844 11.171875 C 29.214844 10.972656 29.339844 10.800781 29.539062 10.726562 L 30.683594 10.304688 L 30.683594 6.371094 C 30.683594 6.125 30.882812 5.898438 31.132812 5.898438 C 31.378906 5.898438 31.605469 6.125 31.605469 6.371094 L 31.605469 9.980469 L 33.667969 9.207031 L 33.667969 5.277344 C 33.667969 5.03125 33.890625 4.804688 34.140625 4.804688 C 34.390625 4.804688 34.589844 5.03125 34.589844 5.277344 L 34.589844 8.886719 L 35.382812 8.585938 C 35.433594 8.5625 35.507812 8.5625 35.558594 8.5625 C 35.832031 8.5625 36.054688 8.785156 36.054688 9.058594 L 36.054688 10.550781 C 36.054688 10.75 35.929688 10.949219 35.734375 11.023438 L 34.589844 11.421875 L 34.589844 15.402344 L 35.382812 15.128906 C 35.433594 15.101562 35.507812 15.101562 35.558594 15.101562 C 35.832031 15.101562 36.054688 15.328125 36.054688 15.601562 L 36.054688 17.09375 C 36.054688 17.292969 35.929688 17.464844 35.734375 17.539062 L 34.589844 17.964844 Z M 31.605469 12.515625 L 31.605469 16.496094 L 33.667969 15.75 L 33.667969 11.769531 Z M 31.605469 12.515625 "/>
<path style=" stroke:none;fill-rule:nonzero;fill:rgb(0%,0%,0%);fill-opacity:1;" d="M 16.152344 64.128906 L 16.003906 64.128906 C 13.316406 64.128906 11.152344 61.9375 11.152344 59.226562 C 11.152344 57.785156 12.46875 56.664062 13.9375 56.664062 C 15.28125 56.664062 16.300781 57.835938 16.300781 59.226562 C 16.300781 60.519531 15.230469 61.589844 13.9375 61.589844 C 13.664062 61.589844 13.414062 61.539062 13.167969 61.441406 C 13.8125 62.410156 14.859375 63.058594 16.078125 63.058594 L 16.175781 63.058594 Z M 21 53.382812 C 22.691406 52.785156 23.8125 51.019531 23.8125 49.304688 C 23.8125 47.066406 22.171875 44.851562 19.507812 44.578125 C 20.105469 47.460938 20.652344 50.324219 21 53.382812 Z M 11.375 47.636719 C 11.375 50.996094 14.585938 53.78125 17.941406 53.78125 C 18.640625 53.78125 19.308594 53.730469 19.980469 53.628906 C 19.632812 50.472656 19.0625 47.535156 18.414062 44.578125 C 16.449219 44.777344 15.332031 46.09375 15.332031 47.535156 C 15.332031 48.632812 15.953125 49.800781 17.34375 50.597656 C 17.46875 50.722656 17.519531 50.84375 17.519531 50.96875 C 17.519531 51.242188 17.269531 51.515625 16.972656 51.515625 C 16.898438 51.515625 16.824219 51.492188 16.75 51.46875 C 14.757812 50.398438 13.839844 48.605469 13.839844 46.867188 C 13.839844 44.675781 15.28125 42.539062 17.816406 41.964844 C 17.46875 40.523438 17.097656 39.054688 16.675781 37.613281 C 14.011719 40.621094 11.375 43.65625 11.375 47.636719 Z M 17.867188 54.847656 C 13.191406 54.847656 9.585938 50.570312 9.585938 45.546875 C 9.585938 41.144531 12.84375 37.9375 15.753906 34.578125 C 15.28125 33.035156 14.832031 31.46875 14.632812 29.851562 C 14.484375 28.558594 14.460938 27.265625 14.460938 25.972656 C 14.460938 23.113281 15.828125 20.402344 18.167969 18.710938 C 18.316406 18.585938 18.515625 18.585938 18.664062 18.710938 C 20.429688 20.800781 21.972656 24.804688 21.972656 27.613281 C 21.972656 31.171875 19.832031 33.957031 17.496094 36.667969 C 18.015625 38.359375 18.464844 40.101562 18.886719 41.816406 C 18.988281 41.816406 19.113281 41.792969 19.210938 41.792969 C 23.066406 41.792969 25.578125 44.976562 25.578125 48.285156 C 25.578125 50.171875 24.757812 52.113281 22.917969 53.507812 C 22.371094 53.929688 21.746094 54.203125 21.101562 54.402344 C 21.175781 55.273438 21.226562 56.144531 21.226562 57.011719 C 21.226562 57.484375 21.199219 57.984375 21.175781 58.457031 C 21 61.414062 18.988281 64.050781 16.152344 64.128906 L 16.175781 63.058594 C 18.488281 63.007812 19.980469 60.769531 20.132812 58.308594 C 20.15625 57.859375 20.179688 57.386719 20.179688 56.9375 C 20.179688 56.167969 20.15625 55.421875 20.082031 54.652344 C 19.359375 54.773438 18.640625 54.847656 17.867188 54.847656 Z M 20.179688 25.550781 C 20.179688 24.183594 20.082031 23.585938 19.683594 22.339844 C 17.222656 23.535156 15.652344 26.046875 15.652344 28.78125 C 15.652344 30.625 16.101562 32.089844 16.550781 33.609375 C 18.539062 31.195312 20.179688 28.683594 20.179688 25.550781 Z M 20.179688 25.550781 "/>
<path style=" stroke:none;fill-rule:nonzero;fill:rgb(0%,0%,0%);fill-opacity:1;" d="M 51.664062 4.53125 C 53.03125 4.53125 54.351562 5.230469 54.351562 6.746094 C 54.351562 8.511719 52.980469 9.753906 51.8125 10.453125 C 50.941406 10.972656 49.949219 11.296875 48.925781 11.296875 C 47.558594 11.296875 46.242188 10.601562 46.242188 9.085938 C 46.242188 7.316406 47.609375 6.074219 48.777344 5.378906 C 49.648438 4.855469 50.644531 4.53125 51.664062 4.53125 Z M 51.664062 4.53125 "/>
<path style=" stroke:none;fill-rule:nonzero;fill:rgb(0%,0%,0%);fill-opacity:1;" d="M 51.664062 10.75 C 53.03125 10.75 54.351562 11.445312 54.351562 12.964844 C 54.351562 14.730469 52.980469 15.972656 51.8125 16.671875 C 50.941406 17.191406 49.949219 17.515625 48.925781 17.515625 C 47.558594 17.515625 46.242188 16.820312 46.242188 15.300781 C 46.242188 13.535156 47.609375 12.292969 48.777344 11.597656 C 49.648438 11.074219 50.644531 10.75 51.664062 10.75 Z M 51.664062 10.75 "/>
<path style=" stroke:none;fill-rule:nonzero;fill:rgb(0%,0%,0%);fill-opacity:1;" d="M 51.664062 16.96875 C 53.03125 16.96875 54.351562 17.664062 54.351562 19.183594 C 54.351562 20.949219 52.980469 22.191406 51.8125 22.886719 C 50.941406 23.410156 49.949219 23.734375 48.925781 23.734375 C 47.558594 23.734375 46.242188 23.039062 46.242188 21.519531 C 46.242188 19.753906 47.609375 18.511719 48.777344 17.8125 C 49.648438 17.292969 50.644531 16.96875 51.664062 16.96875 Z M 51.664062 16.96875 "/>
</g>
</svg>
