<?xml version="1.0" encoding="UTF-8"?>
<svg xmlns="http://www.w3.org/2000/svg" xmlns:xlink="http://www.w3.org/1999/xlink" width="91.60431pt" height="59.990636pt" viewBox="0 0 91.60431 59.990636" version="1.1">
<g id="surface1">
<path style="fill:none;stroke-width:0.1;stroke-linecap:round;stroke-linejoin:round;stroke:rgb(0%,0%,0%);stroke-opacity:1;stroke-miterlimit:4;" d="M 0.049863 0.000143992 L 12.235086 0.000143992 " transform="matrix(6.218149,0,0,6.218149,4.561038,41.01473)"/>
<path style="fill:none;stroke-width:0.1;stroke-linecap:round;stroke-linejoin:round;stroke:rgb(0%,0%,0%);stroke-opacity:1;stroke-miterlimit:4;" d="M 0.049863 0.000047343 L 12.235086 0.000047343 " transform="matrix(6.218149,0,0,6.218149,4.561038,34.796581)"/>
<path style="fill:none;stroke-width:0.1;stroke-linecap:round;stroke-linejoin:round;stroke:rgb(0%,0%,0%);stroke-opacity:1;stroke-miterlimit:4;" d="M 0.049863 -0.0000493056 L 12.235086 -0.0000493056 " transform="matrix(6.218149,0,0,6.218149,4.561038,28.578432)"/>
<path style="fill:none;stroke-width:0.1;stroke-linecap:round;stroke-linejoin:round;stroke:rgb(0%,0%,0%);stroke-opacity:1;stroke-miterlimit:4;" d="M 0.049863 -0.000145716 L 12.235086 -0.000145716 " transform="matrix(6.218149,0,0,6.218149,4.561038,22.360281)"/>
<path style="fill:none;stroke-width:0.1;stroke-linecap:round;stroke-linejoin:round;stroke:rgb(0%,0%,0%);stroke-opacity:1;stroke-miterlimit:4;" d="M 0.049863 -0.000242364 L 12.235086 -0.000242364 " transform="matrix(6.218149,0,0,6.218149,4.561038,16.142132)"/>
<path style=" stroke:none;fill-rule:nonzero;fill:rgb(0%,0%,0%);fill-opacity:1;" d="M 62.53125 17.300781 L 62.84375 17.300781 C 62.980469 17.300781 63.089844 17.410156 63.089844 17.546875 L 63.089844 51.128906 C 63.089844 51.265625 62.980469 51.378906 62.84375 51.378906 L 62.53125 51.378906 C 62.394531 51.378906 62.28125 51.265625 62.28125 51.128906 L 62.28125 17.546875 C 62.28125 17.410156 62.394531 17.300781 62.53125 17.300781 Z M 62.53125 17.300781 "/>
<path style=" stroke:none;fill-rule:nonzero;fill:rgb(0%,0%,0%);fill-opacity:1;" d="M 48.097656 15.121094 L 48.074219 16.765625 L 48.074219 17.039062 C 48.074219 17.585938 48.097656 18.132812 48.171875 18.679688 C 49.292969 17.734375 50.484375 16.6875 50.484375 15.222656 C 50.484375 14.402344 50.136719 13.554688 49.417969 13.554688 C 48.644531 13.554688 48.121094 14.300781 48.097656 15.121094 Z M 47.054688 19.574219 L 46.753906 4.773438 C 46.953125 4.652344 47.203125 4.578125 47.425781 4.578125 C 47.648438 4.578125 47.898438 4.652344 48.097656 4.773438 L 47.925781 13.355469 C 48.546875 12.835938 49.367188 12.511719 50.1875 12.511719 C 51.480469 12.511719 52.402344 13.703125 52.402344 15.046875 C 52.402344 17.039062 50.261719 17.957031 48.746094 19.25 C 48.371094 19.574219 48.148438 20.195312 47.625 20.195312 C 47.300781 20.195312 47.054688 19.921875 47.054688 19.574219 Z M 47.054688 19.574219 "/>
<path style=" stroke:none;fill-rule:nonzero;fill:rgb(0%,0%,0%);fill-opacity:1;" d="M 37.960938 18.230469 L 37.9375 19.871094 L 37.9375 20.148438 C 37.9375 20.695312 37.960938 21.242188 38.035156 21.789062 C 39.15625 20.84375 40.347656 19.796875 40.347656 18.332031 C 40.347656 17.511719 40 16.664062 39.28125 16.664062 C 38.507812 16.664062 37.984375 17.410156 37.960938 18.230469 Z M 36.917969 22.683594 L 36.617188 7.882812 C 36.816406 7.761719 37.066406 7.683594 37.289062 7.683594 C 37.511719 7.683594 37.761719 7.761719 37.960938 7.882812 L 37.785156 16.464844 C 38.410156 15.941406 39.230469 15.621094 40.050781 15.621094 C 41.34375 15.621094 42.265625 16.8125 42.265625 18.15625 C 42.265625 20.148438 40.125 21.066406 38.609375 22.359375 C 38.234375 22.683594 38.011719 23.304688 37.488281 23.304688 C 37.164062 23.304688 36.917969 23.03125 36.917969 22.683594 Z M 36.917969 22.683594 "/>
<path style=" stroke:none;fill-rule:nonzero;fill:rgb(0%,0%,0%);fill-opacity:1;" d="M 31.371094 24.449219 L 31.34375 26.089844 L 31.34375 26.363281 C 31.34375 26.910156 31.371094 27.460938 31.445312 28.007812 C 32.5625 27.0625 33.757812 26.015625 33.757812 24.550781 C 33.757812 23.726562 33.410156 22.882812 32.6875 22.882812 C 31.917969 22.882812 31.394531 23.628906 31.371094 24.449219 Z M 30.324219 28.902344 L 30.027344 14.101562 C 30.226562 13.976562 30.472656 13.902344 30.699219 13.902344 C 30.921875 13.902344 31.171875 13.976562 31.371094 14.101562 L 31.195312 22.683594 C 31.816406 22.160156 32.636719 21.839844 33.460938 21.839844 C 34.753906 21.839844 35.671875 23.03125 35.671875 24.375 C 35.671875 26.363281 33.535156 27.285156 32.015625 28.578125 C 31.644531 28.902344 31.417969 29.523438 30.898438 29.523438 C 30.574219 29.523438 30.324219 29.25 30.324219 28.902344 Z M 30.324219 28.902344 "/>
<path style=" stroke:none;fill-rule:nonzero;fill:rgb(0%,0%,0%);fill-opacity:1;" d="M 44.617188 30.667969 L 44.589844 32.308594 L 44.589844 32.582031 C 44.589844 33.128906 44.617188 33.675781 44.691406 34.222656 C 45.808594 33.28125 47.003906 32.234375 47.003906 30.765625 C 47.003906 29.945312 46.65625 29.101562 45.933594 29.101562 C 45.164062 29.101562 44.640625 29.847656 44.617188 30.667969 Z M 43.570312 35.121094 L 43.273438 20.320312 C 43.472656 20.195312 43.71875 20.121094 43.945312 20.121094 C 44.167969 20.121094 44.417969 20.195312 44.617188 20.320312 L 44.441406 28.902344 C 45.0625 28.378906 45.882812 28.054688 46.707031 28.054688 C 48 28.054688 48.917969 29.25 48.917969 30.59375 C 48.917969 32.582031 46.78125 33.503906 45.261719 34.796875 C 44.890625 35.121094 44.664062 35.742188 44.144531 35.742188 C 43.820312 35.742188 43.570312 35.46875 43.570312 35.121094 Z M 43.570312 35.121094 "/>
<path style=" stroke:none;fill-rule:nonzero;fill:rgb(0%,0%,0%);fill-opacity:1;" d="M 23.390625 25.46875 C 23.390625 24.773438 23.960938 24.199219 24.65625 24.199219 C 25.355469 24.199219 25.925781 24.773438 25.925781 25.46875 C 25.925781 26.164062 25.355469 26.738281 24.65625 26.738281 C 23.960938 26.738281 23.390625 26.164062 23.390625 25.46875 Z M 23.390625 19.25 C 23.390625 18.554688 23.960938 17.984375 24.65625 17.984375 C 25.355469 17.984375 25.925781 18.554688 25.925781 19.25 C 25.925781 19.949219 25.355469 20.519531 24.65625 20.519531 C 23.960938 20.519531 23.390625 19.949219 23.390625 19.25 Z M 15.304688 15.820312 C 19.585938 15.820312 22.59375 18.007812 22.59375 22.0625 C 22.59375 28.601562 16.050781 32.359375 9.757812 35.019531 C 9.683594 35.09375 9.609375 35.121094 9.535156 35.121094 C 9.363281 35.121094 9.210938 34.96875 9.210938 34.796875 C 9.210938 34.722656 9.238281 34.648438 9.3125 34.574219 C 14.335938 31.636719 19.558594 27.980469 19.558594 22.308594 C 19.558594 19.324219 17.992188 16.464844 15.304688 16.464844 C 13.464844 16.464844 12.097656 17.808594 11.476562 19.597656 C 11.75 19.476562 12.023438 19.402344 12.320312 19.402344 C 13.6875 19.402344 14.808594 20.519531 14.808594 21.886719 C 14.808594 23.332031 13.714844 24.523438 12.320312 24.523438 C 10.828125 24.523438 9.535156 23.355469 9.535156 21.886719 C 9.535156 18.578125 12.074219 15.820312 15.304688 15.820312 Z M 15.304688 15.820312 "/>
<path style=" stroke:none;fill-rule:nonzero;fill:rgb(0%,0%,0%);fill-opacity:1;" d="M 67.707031 12.757812 C 69.074219 12.757812 70.390625 13.457031 70.390625 14.972656 C 70.390625 16.738281 69.023438 17.984375 67.855469 18.679688 C 66.984375 19.203125 65.988281 19.523438 64.96875 19.523438 C 63.601562 19.523438 62.28125 18.828125 62.28125 17.3125 C 62.28125 15.546875 63.652344 14.300781 64.820312 13.605469 C 65.691406 13.082031 66.683594 12.757812 67.707031 12.757812 Z M 67.707031 12.757812 "/>
<path style=" stroke:none;fill-rule:nonzero;fill:rgb(0%,0%,0%);fill-opacity:1;" d="M 60 15.867188 C 61.367188 15.867188 62.6875 16.566406 62.6875 18.082031 C 62.6875 19.847656 61.316406 21.089844 60.148438 21.789062 C 59.277344 22.308594 58.285156 22.632812 57.261719 22.632812 C 55.894531 22.632812 54.578125 21.9375 54.578125 20.421875 C 54.578125 18.652344 55.945312 17.410156 57.113281 16.714844 C 57.984375 16.191406 58.980469 15.867188 60 15.867188 Z M 60 15.867188 "/>
<path style=" stroke:none;fill-rule:nonzero;fill:rgb(0%,0%,0%);fill-opacity:1;" d="M 67.707031 22.085938 C 69.074219 22.085938 70.390625 22.78125 70.390625 24.300781 C 70.390625 26.066406 69.023438 27.308594 67.855469 28.007812 C 66.984375 28.527344 65.988281 28.851562 64.96875 28.851562 C 63.601562 28.851562 62.28125 28.15625 62.28125 26.636719 C 62.28125 24.871094 63.652344 23.628906 64.820312 22.933594 C 65.691406 22.410156 66.683594 22.085938 67.707031 22.085938 Z M 67.707031 22.085938 "/>
<path style=" stroke:none;fill-rule:nonzero;fill:rgb(0%,0%,0%);fill-opacity:1;" d="M 67.707031 28.304688 C 69.074219 28.304688 70.390625 29 70.390625 30.519531 C 70.390625 32.285156 69.023438 33.527344 67.855469 34.222656 C 66.984375 34.746094 65.988281 35.070312 64.96875 35.070312 C 63.601562 35.070312 62.28125 34.375 62.28125 32.855469 C 62.28125 31.089844 63.652344 29.847656 64.820312 29.152344 C 65.691406 28.628906 66.683594 28.304688 67.707031 28.304688 Z M 67.707031 28.304688 "/>
</g>
</svg>
