<?xml version="1.0" encoding="UTF-8"?>
<svg xmlns="http://www.w3.org/2000/svg" xmlns:xlink="http://www.w3.org/1999/xlink" width="83.373827pt" height="54.52645pt" viewBox="0 0 83.373827 54.52645" version="1.1">
<g id="surface1">
<path style="fill:none;stroke-width:0.1;stroke-linecap:round;stroke-linejoin:round;stroke:rgb(0%,0%,0%);stroke-opacity:1;stroke-miterlimit:4;" d="M 0.049863 -0.0001075 L 10.995644 -0.0001075 " transform="matrix(6.218149,0,0,6.218149,4.561038,29.434262)"/>
<path style="fill:none;stroke-width:0.1;stroke-linecap:round;stroke-linejoin:round;stroke:rgb(0%,0%,0%);stroke-opacity:1;stroke-miterlimit:4;" d="M 0.049863 -0.000204149 L 10.995644 -0.000204149 " transform="matrix(6.218149,0,0,6.218149,4.561038,23.216113)"/>
<path style="fill:none;stroke-width:0.1;stroke-linecap:round;stroke-linejoin:round;stroke:rgb(0%,0%,0%);stroke-opacity:1;stroke-miterlimit:4;" d="M 0.049863 -0.000300797 L 10.995644 -0.000300797 " transform="matrix(6.218149,0,0,6.218149,4.561038,16.997964)"/>
<path style="fill:none;stroke-width:0.1;stroke-linecap:round;stroke-linejoin:round;stroke:rgb(0%,0%,0%);stroke-opacity:1;stroke-miterlimit:4;" d="M 0.049863 0.000230756 L 10.995644 0.000230756 " transform="matrix(6.218149,0,0,6.218149,4.561038,10.779815)"/>
<path style="fill:none;stroke-width:0.1;stroke-linecap:round;stroke-linejoin:round;stroke:rgb(0%,0%,0%);stroke-opacity:1;stroke-miterlimit:4;" d="M 0.049863 0.000133988 L 10.995644 0.000133988 " transform="matrix(6.218149,0,0,6.218149,4.561038,4.561667)"/>
<path style=" stroke:none;fill-rule:nonzero;fill:rgb(0%,0%,0%);fill-opacity:1;" d="M 53.171875 35.03125 L 64.09375 35.03125 C 64.4375 35.03125 64.714844 35.308594 64.714844 35.652344 C 64.714844 35.996094 64.4375 36.273438 64.09375 36.273438 L 53.171875 36.273438 C 52.828125 36.273438 52.550781 35.996094 52.550781 35.652344 C 52.550781 35.308594 52.828125 35.03125 53.171875 35.03125 Z M 53.171875 35.03125 "/>
<path style=" stroke:none;fill-rule:nonzero;fill:rgb(0%,0%,0%);fill-opacity:1;" d="M 53.171875 41.25 L 64.09375 41.25 C 64.4375 41.25 64.714844 41.527344 64.714844 41.871094 C 64.714844 42.214844 64.4375 42.492188 64.09375 42.492188 L 53.171875 42.492188 C 52.828125 42.492188 52.550781 42.214844 52.550781 41.871094 C 52.550781 41.527344 52.828125 41.25 53.171875 41.25 Z M 53.171875 41.25 "/>
<path style=" stroke:none;fill-rule:nonzero;fill:rgb(0%,0%,0%);fill-opacity:1;" d="M 62.128906 4.5625 L 62.4375 4.5625 C 62.574219 4.5625 62.6875 4.671875 62.6875 4.808594 L 62.6875 40.464844 C 62.6875 40.601562 62.574219 40.714844 62.4375 40.714844 L 62.128906 40.714844 C 61.988281 40.714844 61.878906 40.601562 61.878906 40.464844 L 61.878906 4.808594 C 61.878906 4.671875 61.988281 4.5625 62.128906 4.5625 Z M 62.128906 4.5625 "/>
<path style=" stroke:none;fill-rule:nonzero;fill:rgb(0%,0%,0%);fill-opacity:1;" d="M 48.097656 25.304688 L 48.074219 26.945312 L 48.074219 27.21875 C 48.074219 27.769531 48.097656 28.316406 48.171875 28.863281 C 49.292969 27.917969 50.484375 26.871094 50.484375 25.40625 C 50.484375 24.585938 50.136719 23.738281 49.417969 23.738281 C 48.644531 23.738281 48.121094 24.484375 48.097656 25.304688 Z M 47.054688 29.757812 L 46.753906 14.957031 C 46.953125 14.835938 47.203125 14.757812 47.425781 14.757812 C 47.648438 14.757812 47.898438 14.835938 48.097656 14.957031 L 47.925781 23.539062 C 48.546875 23.015625 49.367188 22.695312 50.1875 22.695312 C 51.480469 22.695312 52.402344 23.886719 52.402344 25.230469 C 52.402344 27.21875 50.261719 28.140625 48.746094 29.433594 C 48.371094 29.757812 48.148438 30.378906 47.625 30.378906 C 47.300781 30.378906 47.054688 30.105469 47.054688 29.757812 Z M 47.054688 29.757812 "/>
<path style=" stroke:none;fill-rule:nonzero;fill:rgb(0%,0%,0%);fill-opacity:1;" d="M 37.960938 28.414062 L 37.9375 30.054688 L 37.9375 30.328125 C 37.9375 30.875 37.960938 31.425781 38.035156 31.972656 C 39.15625 31.027344 40.347656 29.980469 40.347656 28.515625 C 40.347656 27.691406 40 26.847656 39.28125 26.847656 C 38.507812 26.847656 37.984375 27.59375 37.960938 28.414062 Z M 36.917969 32.867188 L 36.617188 18.066406 C 36.816406 17.941406 37.066406 17.867188 37.289062 17.867188 C 37.511719 17.867188 37.761719 17.941406 37.960938 18.066406 L 37.785156 26.648438 C 38.410156 26.125 39.230469 25.804688 40.050781 25.804688 C 41.34375 25.804688 42.265625 26.996094 42.265625 28.339844 C 42.265625 30.328125 40.125 31.25 38.609375 32.542969 C 38.234375 32.867188 38.011719 33.488281 37.488281 33.488281 C 37.164062 33.488281 36.917969 33.214844 36.917969 32.867188 Z M 36.917969 32.867188 "/>
<path style=" stroke:none;fill-rule:nonzero;fill:rgb(0%,0%,0%);fill-opacity:1;" d="M 31.371094 34.632812 L 31.34375 36.273438 L 31.34375 36.546875 C 31.34375 37.09375 31.371094 37.640625 31.445312 38.1875 C 32.5625 37.246094 33.757812 36.199219 33.757812 34.730469 C 33.757812 33.910156 33.410156 33.066406 32.6875 33.066406 C 31.917969 33.066406 31.394531 33.8125 31.371094 34.632812 Z M 30.324219 39.085938 L 30.027344 24.285156 C 30.226562 24.160156 30.472656 24.085938 30.699219 24.085938 C 30.921875 24.085938 31.171875 24.160156 31.371094 24.285156 L 31.195312 32.867188 C 31.816406 32.34375 32.636719 32.019531 33.460938 32.019531 C 34.753906 32.019531 35.671875 33.214844 35.671875 34.558594 C 35.671875 36.546875 33.535156 37.46875 32.015625 38.761719 C 31.644531 39.085938 31.417969 39.707031 30.898438 39.707031 C 30.574219 39.707031 30.324219 39.433594 30.324219 39.085938 Z M 30.324219 39.085938 "/>
<path style=" stroke:none;fill-rule:nonzero;fill:rgb(0%,0%,0%);fill-opacity:1;" d="M 44.617188 40.851562 L 44.589844 42.492188 L 44.589844 42.765625 C 44.589844 43.3125 44.617188 43.859375 44.691406 44.40625 C 45.808594 43.460938 47.003906 42.417969 47.003906 40.949219 C 47.003906 40.128906 46.65625 39.285156 45.933594 39.285156 C 45.164062 39.285156 44.640625 40.03125 44.617188 40.851562 Z M 43.570312 45.304688 L 43.273438 30.503906 C 43.472656 30.378906 43.71875 30.304688 43.945312 30.304688 C 44.167969 30.304688 44.417969 30.378906 44.617188 30.503906 L 44.441406 39.085938 C 45.0625 38.5625 45.882812 38.238281 46.707031 38.238281 C 48 38.238281 48.917969 39.433594 48.917969 40.777344 C 48.917969 42.765625 46.78125 43.6875 45.261719 44.980469 C 44.890625 45.304688 44.664062 45.925781 44.144531 45.925781 C 43.820312 45.925781 43.570312 45.652344 43.570312 45.304688 Z M 43.570312 45.304688 "/>
<path style=" stroke:none;fill-rule:nonzero;fill:rgb(0%,0%,0%);fill-opacity:1;" d="M 23.390625 13.890625 C 23.390625 13.191406 23.960938 12.621094 24.65625 12.621094 C 25.355469 12.621094 25.925781 13.191406 25.925781 13.890625 C 25.925781 14.585938 25.355469 15.15625 24.65625 15.15625 C 23.960938 15.15625 23.390625 14.585938 23.390625 13.890625 Z M 23.390625 7.671875 C 23.390625 6.972656 23.960938 6.402344 24.65625 6.402344 C 25.355469 6.402344 25.925781 6.972656 25.925781 7.671875 C 25.925781 8.367188 25.355469 8.9375 24.65625 8.9375 C 23.960938 8.9375 23.390625 8.367188 23.390625 7.671875 Z M 15.304688 4.238281 C 19.585938 4.238281 22.59375 6.425781 22.59375 10.480469 C 22.59375 17.023438 16.050781 20.777344 9.757812 23.441406 C 9.683594 23.515625 9.609375 23.539062 9.535156 23.539062 C 9.363281 23.539062 9.210938 23.390625 9.210938 23.214844 C 9.210938 23.140625 9.238281 23.066406 9.3125 22.992188 C 14.335938 20.058594 19.558594 16.402344 19.558594 10.730469 C 19.558594 7.746094 17.992188 4.886719 15.304688 4.886719 C 13.464844 4.886719 12.097656 6.226562 11.476562 8.019531 C 11.75 7.894531 12.023438 7.820312 12.320312 7.820312 C 13.6875 7.820312 14.808594 8.9375 14.808594 10.308594 C 14.808594 11.75 13.714844 12.945312 12.320312 12.945312 C 10.828125 12.945312 9.535156 11.773438 9.535156 10.308594 C 9.535156 7 12.074219 4.238281 15.304688 4.238281 Z M 15.304688 4.238281 "/>
<path style=" stroke:none;fill-rule:nonzero;fill:rgb(0%,0%,0%);fill-opacity:1;" d="M 67.707031 22.941406 C 69.074219 22.941406 70.390625 23.640625 70.390625 25.15625 C 70.390625 26.921875 69.023438 28.164062 67.855469 28.863281 C 66.984375 29.382812 65.988281 29.707031 64.96875 29.707031 C 63.601562 29.707031 62.28125 29.011719 62.28125 27.496094 C 62.28125 25.726562 63.652344 24.484375 64.820312 23.789062 C 65.691406 23.265625 66.683594 22.941406 67.707031 22.941406 Z M 67.707031 22.941406 "/>
<path style=" stroke:none;fill-rule:nonzero;fill:rgb(0%,0%,0%);fill-opacity:1;" d="M 60 26.050781 C 61.367188 26.050781 62.6875 26.746094 62.6875 28.265625 C 62.6875 30.03125 61.316406 31.273438 60.148438 31.972656 C 59.277344 32.492188 58.285156 32.816406 57.261719 32.816406 C 55.894531 32.816406 54.578125 32.121094 54.578125 30.601562 C 54.578125 28.835938 55.945312 27.59375 57.113281 26.898438 C 57.984375 26.375 58.980469 26.050781 60 26.050781 Z M 60 26.050781 "/>
<path style=" stroke:none;fill-rule:nonzero;fill:rgb(0%,0%,0%);fill-opacity:1;" d="M 60 32.269531 C 61.367188 32.269531 62.6875 32.964844 62.6875 34.484375 C 62.6875 36.25 61.316406 37.492188 60.148438 38.1875 C 59.277344 38.710938 58.285156 39.035156 57.261719 39.035156 C 55.894531 39.035156 54.578125 38.339844 54.578125 36.820312 C 54.578125 35.054688 55.945312 33.8125 57.113281 33.117188 C 57.984375 32.59375 58.980469 32.269531 60 32.269531 Z M 60 32.269531 "/>
<path style=" stroke:none;fill-rule:nonzero;fill:rgb(0%,0%,0%);fill-opacity:1;" d="M 60 38.488281 C 61.367188 38.488281 62.6875 39.183594 62.6875 40.703125 C 62.6875 42.46875 61.316406 43.710938 60.148438 44.40625 C 59.277344 44.929688 58.285156 45.253906 57.261719 45.253906 C 55.894531 45.253906 54.578125 44.558594 54.578125 43.039062 C 54.578125 41.273438 55.945312 40.03125 57.113281 39.332031 C 57.984375 38.8125 58.980469 38.488281 60 38.488281 Z M 60 38.488281 "/>
</g>
</svg>
