<?xml version="1.0" encoding="UTF-8"?>
<svg xmlns="http://www.w3.org/2000/svg" xmlns:xlink="http://www.w3.org/1999/xlink" width="86.929829pt" height="63.88006pt" viewBox="0 0 86.929829 63.88006" version="1.1">
<g id="surface1">
<path style="fill:none;stroke-width:0.1;stroke-linecap:round;stroke-linejoin:round;stroke:rgb(0%,0%,0%);stroke-opacity:1;stroke-miterlimit:4;" d="M 0.049863 -0.000287501 L 11.5315 -0.000287501 " transform="matrix(6.218149,0,0,6.218149,4.561038,40.517413)"/>
<path style="fill:none;stroke-width:0.1;stroke-linecap:round;stroke-linejoin:round;stroke:rgb(0%,0%,0%);stroke-opacity:1;stroke-miterlimit:4;" d="M 0.049863 0.000244052 L 11.5315 0.000244052 " transform="matrix(6.218149,0,0,6.218149,4.561038,34.299264)"/>
<path style="fill:none;stroke-width:0.1;stroke-linecap:round;stroke-linejoin:round;stroke:rgb(0%,0%,0%);stroke-opacity:1;stroke-miterlimit:4;" d="M 0.049863 0.000147403 L 11.5315 0.000147403 " transform="matrix(6.218149,0,0,6.218149,4.561038,28.081115)"/>
<path style="fill:none;stroke-width:0.1;stroke-linecap:round;stroke-linejoin:round;stroke:rgb(0%,0%,0%);stroke-opacity:1;stroke-miterlimit:4;" d="M 0.049863 0.0000507548 L 11.5315 0.0000507548 " transform="matrix(6.218149,0,0,6.218149,4.561038,21.862966)"/>
<path style="fill:none;stroke-width:0.1;stroke-linecap:round;stroke-linejoin:round;stroke:rgb(0%,0%,0%);stroke-opacity:1;stroke-miterlimit:4;" d="M 0.049863 -0.0000458938 L 11.5315 -0.0000458938 " transform="matrix(6.218149,0,0,6.218149,4.561038,15.644817)"/>
<path style=" stroke:none;fill-rule:nonzero;fill:rgb(0%,0%,0%);fill-opacity:1;" d="M 58.15625 19.910156 L 58.464844 19.910156 C 58.605469 19.910156 58.714844 20.023438 58.714844 20.160156 L 58.714844 54.777344 C 58.714844 54.914062 58.605469 55.027344 58.464844 55.027344 L 58.15625 55.027344 C 58.019531 55.027344 57.90625 54.914062 57.90625 54.777344 L 57.90625 20.160156 C 57.90625 20.023438 58.019531 19.910156 58.15625 19.910156 Z M 58.15625 19.910156 "/>
<path style=" stroke:none;fill-rule:nonzero;fill:rgb(0%,0%,0%);fill-opacity:1;" d="M 54.261719 26.515625 C 54.261719 26.761719 54.0625 26.988281 53.816406 26.988281 C 53.566406 26.988281 53.34375 26.761719 53.34375 26.515625 L 53.34375 22.90625 L 51.277344 23.679688 L 51.277344 27.609375 C 51.277344 27.855469 51.054688 28.082031 50.804688 28.082031 C 50.558594 28.082031 50.359375 27.855469 50.359375 27.609375 L 50.359375 24.003906 L 49.5625 24.300781 C 49.511719 24.324219 49.4375 24.324219 49.386719 24.324219 C 49.113281 24.324219 48.890625 24.101562 48.890625 23.828125 L 48.890625 22.335938 C 48.890625 22.136719 49.015625 21.9375 49.214844 21.863281 L 50.359375 21.464844 L 50.359375 17.484375 L 49.5625 17.757812 C 49.511719 17.785156 49.4375 17.785156 49.386719 17.785156 C 49.113281 17.785156 48.890625 17.558594 48.890625 17.285156 L 48.890625 15.792969 C 48.890625 15.59375 49.015625 15.421875 49.214844 15.347656 L 50.359375 14.921875 L 50.359375 10.992188 C 50.359375 10.746094 50.558594 10.519531 50.804688 10.519531 C 51.054688 10.519531 51.277344 10.746094 51.277344 10.992188 L 51.277344 14.601562 L 53.34375 13.828125 L 53.34375 9.898438 C 53.34375 9.652344 53.566406 9.425781 53.816406 9.425781 C 54.0625 9.425781 54.261719 9.652344 54.261719 9.898438 L 54.261719 13.503906 L 55.058594 13.207031 C 55.109375 13.183594 55.183594 13.183594 55.234375 13.183594 C 55.507812 13.183594 55.730469 13.40625 55.730469 13.679688 L 55.730469 15.171875 C 55.730469 15.371094 55.605469 15.570312 55.40625 15.644531 L 54.261719 16.042969 L 54.261719 20.023438 L 55.058594 19.75 C 55.109375 19.722656 55.183594 19.722656 55.234375 19.722656 C 55.507812 19.722656 55.730469 19.949219 55.730469 20.222656 L 55.730469 21.714844 C 55.730469 21.914062 55.605469 22.085938 55.40625 22.160156 L 54.261719 22.585938 Z M 51.277344 17.136719 L 51.277344 21.117188 L 53.34375 20.371094 L 53.34375 16.390625 Z M 51.277344 17.136719 "/>
<path style=" stroke:none;fill-rule:nonzero;fill:rgb(0%,0%,0%);fill-opacity:1;" d="M 42.671875 32.730469 C 42.671875 32.980469 42.472656 33.203125 42.222656 33.203125 C 41.976562 33.203125 41.75 32.980469 41.75 32.730469 L 41.75 29.125 L 39.6875 29.898438 L 39.6875 33.828125 C 39.6875 34.074219 39.464844 34.300781 39.214844 34.300781 C 38.964844 34.300781 38.765625 34.074219 38.765625 33.828125 L 38.765625 30.21875 L 37.972656 30.519531 C 37.921875 30.542969 37.847656 30.542969 37.796875 30.542969 C 37.523438 30.542969 37.300781 30.320312 37.300781 30.046875 L 37.300781 28.554688 C 37.300781 28.355469 37.425781 28.15625 37.621094 28.082031 L 38.765625 27.683594 L 38.765625 23.703125 L 37.972656 23.976562 C 37.921875 24.003906 37.847656 24.003906 37.796875 24.003906 C 37.523438 24.003906 37.300781 23.777344 37.300781 23.503906 L 37.300781 22.011719 C 37.300781 21.8125 37.425781 21.640625 37.621094 21.566406 L 38.765625 21.140625 L 38.765625 17.210938 C 38.765625 16.964844 38.964844 16.738281 39.214844 16.738281 C 39.464844 16.738281 39.6875 16.964844 39.6875 17.210938 L 39.6875 20.816406 L 41.75 20.046875 L 41.75 16.117188 C 41.75 15.867188 41.976562 15.644531 42.222656 15.644531 C 42.472656 15.644531 42.671875 15.867188 42.671875 16.117188 L 42.671875 19.722656 L 43.46875 19.425781 C 43.519531 19.402344 43.59375 19.402344 43.640625 19.402344 C 43.914062 19.402344 44.140625 19.625 44.140625 19.898438 L 44.140625 21.390625 C 44.140625 21.589844 44.015625 21.789062 43.816406 21.863281 L 42.671875 22.261719 L 42.671875 26.242188 L 43.46875 25.96875 C 43.519531 25.941406 43.59375 25.941406 43.640625 25.941406 C 43.914062 25.941406 44.140625 26.164062 44.140625 26.441406 L 44.140625 27.933594 C 44.140625 28.132812 44.015625 28.304688 43.816406 28.378906 L 42.671875 28.800781 Z M 39.6875 23.355469 L 39.6875 27.335938 L 41.75 26.589844 L 41.75 22.609375 Z M 39.6875 23.355469 "/>
<path style=" stroke:none;fill-rule:nonzero;fill:rgb(0%,0%,0%);fill-opacity:1;" d="M 34.589844 38.949219 C 34.589844 39.199219 34.390625 39.421875 34.140625 39.421875 C 33.890625 39.421875 33.667969 39.199219 33.667969 38.949219 L 33.667969 35.34375 L 31.605469 36.113281 L 31.605469 40.042969 C 31.605469 40.292969 31.378906 40.515625 31.132812 40.515625 C 30.882812 40.515625 30.683594 40.292969 30.683594 40.042969 L 30.683594 36.4375 L 29.886719 36.738281 C 29.835938 36.761719 29.761719 36.761719 29.714844 36.761719 C 29.441406 36.761719 29.214844 36.539062 29.214844 36.265625 L 29.214844 34.773438 C 29.214844 34.574219 29.339844 34.375 29.539062 34.300781 L 30.683594 33.902344 L 30.683594 29.921875 L 29.886719 30.195312 C 29.835938 30.21875 29.761719 30.21875 29.714844 30.21875 C 29.441406 30.21875 29.214844 29.996094 29.214844 29.722656 L 29.214844 28.230469 C 29.214844 28.03125 29.339844 27.855469 29.539062 27.78125 L 30.683594 27.359375 L 30.683594 23.429688 C 30.683594 23.179688 30.882812 22.957031 31.132812 22.957031 C 31.378906 22.957031 31.605469 23.179688 31.605469 23.429688 L 31.605469 27.035156 L 33.667969 26.265625 L 33.667969 22.335938 C 33.667969 22.085938 33.890625 21.863281 34.140625 21.863281 C 34.390625 21.863281 34.589844 22.085938 34.589844 22.335938 L 34.589844 25.941406 L 35.382812 25.644531 C 35.433594 25.617188 35.507812 25.617188 35.558594 25.617188 C 35.832031 25.617188 36.054688 25.84375 36.054688 26.117188 L 36.054688 27.609375 C 36.054688 27.808594 35.929688 28.007812 35.734375 28.082031 L 34.589844 28.480469 L 34.589844 32.457031 L 35.382812 32.183594 C 35.433594 32.160156 35.507812 32.160156 35.558594 32.160156 C 35.832031 32.160156 36.054688 32.382812 36.054688 32.65625 L 36.054688 34.148438 C 36.054688 34.347656 35.929688 34.523438 35.734375 34.597656 L 34.589844 35.019531 Z M 31.605469 29.574219 L 31.605469 33.554688 L 33.667969 32.808594 L 33.667969 28.828125 Z M 31.605469 29.574219 "/>
<path style=" stroke:none;fill-rule:nonzero;fill:rgb(0%,0%,0%);fill-opacity:1;" d="M 49.113281 45.167969 C 49.113281 45.417969 48.914062 45.640625 48.667969 45.640625 C 48.417969 45.640625 48.195312 45.417969 48.195312 45.167969 L 48.195312 41.5625 L 46.128906 42.332031 L 46.128906 46.261719 C 46.128906 46.511719 45.90625 46.734375 45.65625 46.734375 C 45.40625 46.734375 45.210938 46.511719 45.210938 46.261719 L 45.210938 42.65625 L 44.414062 42.953125 C 44.363281 42.980469 44.289062 42.980469 44.238281 42.980469 C 43.964844 42.980469 43.742188 42.757812 43.742188 42.480469 L 43.742188 40.988281 C 43.742188 40.789062 43.867188 40.59375 44.066406 40.515625 L 45.210938 40.121094 L 45.210938 36.140625 L 44.414062 36.414062 C 44.363281 36.4375 44.289062 36.4375 44.238281 36.4375 C 43.964844 36.4375 43.742188 36.214844 43.742188 35.941406 L 43.742188 34.449219 C 43.742188 34.25 43.867188 34.074219 44.066406 34 L 45.210938 33.578125 L 45.210938 29.648438 C 45.210938 29.398438 45.40625 29.175781 45.65625 29.175781 C 45.90625 29.175781 46.128906 29.398438 46.128906 29.648438 L 46.128906 33.253906 L 48.195312 32.484375 L 48.195312 28.554688 C 48.195312 28.304688 48.417969 28.082031 48.667969 28.082031 C 48.914062 28.082031 49.113281 28.304688 49.113281 28.554688 L 49.113281 32.160156 L 49.910156 31.863281 C 49.960938 31.835938 50.035156 31.835938 50.085938 31.835938 C 50.359375 31.835938 50.582031 32.0625 50.582031 32.335938 L 50.582031 33.828125 C 50.582031 34.027344 50.457031 34.226562 50.257812 34.300781 L 49.113281 34.695312 L 49.113281 38.675781 L 49.910156 38.402344 C 49.960938 38.378906 50.035156 38.378906 50.085938 38.378906 C 50.359375 38.378906 50.582031 38.601562 50.582031 38.875 L 50.582031 40.367188 C 50.582031 40.566406 50.457031 40.742188 50.257812 40.816406 L 49.113281 41.238281 Z M 46.128906 35.792969 L 46.128906 39.769531 L 48.195312 39.023438 L 48.195312 35.046875 Z M 46.128906 35.792969 "/>
<path style=" stroke:none;fill-rule:nonzero;fill:rgb(0%,0%,0%);fill-opacity:1;" d="M 16.152344 50.09375 L 16.003906 50.09375 C 13.316406 50.09375 11.152344 47.90625 11.152344 45.195312 C 11.152344 43.75 12.46875 42.632812 13.9375 42.632812 C 15.28125 42.632812 16.300781 43.800781 16.300781 45.195312 C 16.300781 46.488281 15.230469 47.554688 13.9375 47.554688 C 13.664062 47.554688 13.414062 47.507812 13.167969 47.40625 C 13.8125 48.378906 14.859375 49.023438 16.078125 49.023438 L 16.175781 49.023438 Z M 21 39.347656 C 22.691406 38.75 23.8125 36.984375 23.8125 35.269531 C 23.8125 33.03125 22.171875 30.816406 19.507812 30.542969 C 20.105469 33.429688 20.652344 36.289062 21 39.347656 Z M 11.375 33.601562 C 11.375 36.960938 14.585938 39.746094 17.941406 39.746094 C 18.640625 39.746094 19.308594 39.695312 19.980469 39.597656 C 19.632812 36.4375 19.0625 33.503906 18.414062 30.542969 C 16.449219 30.742188 15.332031 32.0625 15.332031 33.503906 C 15.332031 34.597656 15.953125 35.765625 17.34375 36.5625 C 17.46875 36.6875 17.519531 36.8125 17.519531 36.9375 C 17.519531 37.210938 17.269531 37.484375 16.972656 37.484375 C 16.898438 37.484375 16.824219 37.457031 16.75 37.433594 C 14.757812 36.363281 13.839844 34.574219 13.839844 32.832031 C 13.839844 30.644531 15.28125 28.503906 17.816406 27.933594 C 17.46875 26.488281 17.097656 25.023438 16.675781 23.578125 C 14.011719 26.589844 11.375 29.625 11.375 33.601562 Z M 17.867188 40.816406 C 13.191406 40.816406 9.585938 36.539062 9.585938 31.511719 C 9.585938 27.109375 12.84375 23.902344 15.753906 20.542969 C 15.28125 19.003906 14.832031 17.4375 14.632812 15.820312 C 14.484375 14.527344 14.460938 13.230469 14.460938 11.9375 C 14.460938 9.078125 15.828125 6.367188 18.167969 4.675781 C 18.316406 4.550781 18.515625 4.550781 18.664062 4.675781 C 20.429688 6.765625 21.972656 10.769531 21.972656 13.582031 C 21.972656 17.136719 19.832031 19.921875 17.496094 22.632812 C 18.015625 24.324219 18.464844 26.066406 18.886719 27.78125 C 18.988281 27.78125 19.113281 27.757812 19.210938 27.757812 C 23.066406 27.757812 25.578125 30.941406 25.578125 34.25 C 25.578125 36.140625 24.757812 38.078125 22.917969 39.472656 C 22.371094 39.894531 21.746094 40.167969 21.101562 40.367188 C 21.175781 41.238281 21.226562 42.109375 21.226562 42.980469 C 21.226562 43.453125 21.199219 43.949219 21.175781 44.421875 C 21 47.382812 18.988281 50.019531 16.152344 50.09375 L 16.175781 49.023438 C 18.488281 48.972656 19.980469 46.734375 20.132812 44.273438 C 20.15625 43.824219 20.179688 43.351562 20.179688 42.90625 C 20.179688 42.132812 20.15625 41.386719 20.082031 40.617188 C 19.359375 40.742188 18.640625 40.816406 17.867188 40.816406 Z M 20.179688 11.515625 C 20.179688 10.148438 20.082031 9.550781 19.683594 8.308594 C 17.222656 9.5 15.652344 12.011719 15.652344 14.75 C 15.652344 16.589844 16.101562 18.058594 16.550781 19.574219 C 18.539062 17.160156 20.179688 14.648438 20.179688 11.515625 Z M 20.179688 11.515625 "/>
<path style=" stroke:none;fill-rule:nonzero;fill:rgb(0%,0%,0%);fill-opacity:1;" d="M 63.328125 15.371094 C 64.695312 15.371094 66.015625 16.066406 66.015625 17.585938 C 66.015625 19.351562 64.648438 20.59375 63.476562 21.289062 C 62.609375 21.8125 61.613281 22.136719 60.59375 22.136719 C 59.226562 22.136719 57.90625 21.441406 57.90625 19.921875 C 57.90625 18.15625 59.273438 16.914062 60.445312 16.21875 C 61.3125 15.695312 62.308594 15.371094 63.328125 15.371094 Z M 63.328125 15.371094 "/>
<path style=" stroke:none;fill-rule:nonzero;fill:rgb(0%,0%,0%);fill-opacity:1;" d="M 63.328125 21.589844 C 64.695312 21.589844 66.015625 22.285156 66.015625 23.804688 C 66.015625 25.570312 64.648438 26.8125 63.476562 27.507812 C 62.609375 28.03125 61.613281 28.355469 60.59375 28.355469 C 59.226562 28.355469 57.90625 27.660156 57.90625 26.140625 C 57.90625 24.375 59.273438 23.132812 60.445312 22.433594 C 61.3125 21.914062 62.308594 21.589844 63.328125 21.589844 Z M 63.328125 21.589844 "/>
<path style=" stroke:none;fill-rule:nonzero;fill:rgb(0%,0%,0%);fill-opacity:1;" d="M 63.328125 27.808594 C 64.695312 27.808594 66.015625 28.503906 66.015625 30.019531 C 66.015625 31.789062 64.648438 33.03125 63.476562 33.726562 C 62.609375 34.25 61.613281 34.574219 60.59375 34.574219 C 59.226562 34.574219 57.90625 33.875 57.90625 32.359375 C 57.90625 30.59375 59.273438 29.351562 60.445312 28.652344 C 61.3125 28.132812 62.308594 27.808594 63.328125 27.808594 Z M 63.328125 27.808594 "/>
<path style=" stroke:none;fill-rule:nonzero;fill:rgb(0%,0%,0%);fill-opacity:1;" d="M 63.328125 34.027344 C 64.695312 34.027344 66.015625 34.722656 66.015625 36.238281 C 66.015625 38.003906 64.648438 39.25 63.476562 39.945312 C 62.609375 40.46875 61.613281 40.789062 60.59375 40.789062 C 59.226562 40.789062 57.90625 40.09375 57.90625 38.578125 C 57.90625 36.8125 59.273438 35.566406 60.445312 34.871094 C 61.3125 34.347656 62.308594 34.027344 63.328125 34.027344 Z M 63.328125 34.027344 "/>
</g>
</svg>
