<?xml version="1.0" encoding="UTF-8"?>
<svg xmlns="http://www.w3.org/2000/svg" xmlns:xlink="http://www.w3.org/1999/xlink" width="71.760022pt" height="75.753558pt" viewBox="0 0 71.760022 75.753558" version="1.1">
<g id="surface1">
<path style="fill:none;stroke-width:0.1;stroke-linecap:round;stroke-linejoin:round;stroke:rgb(0%,0%,0%);stroke-opacity:1;stroke-miterlimit:4;" d="M 0.049863 -0.000242111 L 9.24736 -0.000242111 " transform="matrix(6.218149,0,0,6.218149,4.561038,56.560099)"/>
<path style="fill:none;stroke-width:0.1;stroke-linecap:round;stroke-linejoin:round;stroke:rgb(0%,0%,0%);stroke-opacity:1;stroke-miterlimit:4;" d="M 0.049863 0.000289441 L 9.24736 0.000289441 " transform="matrix(6.218149,0,0,6.218149,4.561038,50.34195)"/>
<path style="fill:none;stroke-width:0.1;stroke-linecap:round;stroke-linejoin:round;stroke:rgb(0%,0%,0%);stroke-opacity:1;stroke-miterlimit:4;" d="M 0.049863 0.000192316 L 9.24736 0.000192316 " transform="matrix(6.218149,0,0,6.218149,4.561038,44.123804)"/>
<path style="fill:none;stroke-width:0.1;stroke-linecap:round;stroke-linejoin:round;stroke:rgb(0%,0%,0%);stroke-opacity:1;stroke-miterlimit:4;" d="M 0.049863 0.0000956673 L 9.24736 0.0000956673 " transform="matrix(6.218149,0,0,6.218149,4.561038,37.905655)"/>
<path style="fill:none;stroke-width:0.1;stroke-linecap:round;stroke-linejoin:round;stroke:rgb(0%,0%,0%);stroke-opacity:1;stroke-miterlimit:4;" d="M 0.049863 -0.000000981293 L 9.24736 -0.000000981293 " transform="matrix(6.218149,0,0,6.218149,4.561038,31.687506)"/>
<path style=" stroke:none;fill-rule:nonzero;fill:rgb(0%,0%,0%);fill-opacity:1;" d="M 42.300781 12.410156 L 53.21875 12.410156 C 53.5625 12.410156 53.839844 12.691406 53.839844 13.03125 C 53.839844 13.375 53.5625 13.65625 53.21875 13.65625 L 42.300781 13.65625 C 41.957031 13.65625 41.675781 13.375 41.675781 13.03125 C 41.675781 12.691406 41.957031 12.410156 42.300781 12.410156 Z M 42.300781 12.410156 "/>
<path style=" stroke:none;fill-rule:nonzero;fill:rgb(0%,0%,0%);fill-opacity:1;" d="M 42.300781 18.628906 L 53.21875 18.628906 C 53.5625 18.628906 53.839844 18.90625 53.839844 19.25 C 53.839844 19.59375 53.5625 19.871094 53.21875 19.871094 L 42.300781 19.871094 C 41.957031 19.871094 41.675781 19.59375 41.675781 19.25 C 41.675781 18.90625 41.957031 18.628906 42.300781 18.628906 Z M 42.300781 18.628906 "/>
<path style=" stroke:none;fill-rule:nonzero;fill:rgb(0%,0%,0%);fill-opacity:1;" d="M 42.300781 24.847656 L 53.21875 24.847656 C 53.5625 24.847656 53.839844 25.125 53.839844 25.46875 C 53.839844 25.8125 53.5625 26.089844 53.21875 26.089844 L 42.300781 26.089844 C 41.957031 26.089844 41.675781 25.8125 41.675781 25.46875 C 41.675781 25.125 41.957031 24.847656 42.300781 24.847656 Z M 42.300781 24.847656 "/>
<path style=" stroke:none;fill-rule:nonzero;fill:rgb(0%,0%,0%);fill-opacity:1;" d="M 43.953125 11.082031 L 44.265625 11.082031 C 44.402344 11.082031 44.511719 11.191406 44.511719 11.328125 L 44.511719 43.875 C 44.511719 44.011719 44.402344 44.125 44.265625 44.125 L 43.953125 44.125 C 43.816406 44.125 43.703125 44.011719 43.703125 43.875 L 43.703125 11.328125 C 43.703125 11.191406 43.816406 11.082031 43.953125 11.082031 Z M 43.953125 11.082031 "/>
<path style=" stroke:none;fill-rule:nonzero;fill:rgb(0%,0%,0%);fill-opacity:1;" d="M 37.226562 15.121094 L 37.199219 16.765625 L 37.199219 17.039062 C 37.199219 17.585938 37.226562 18.132812 37.300781 18.679688 C 38.417969 17.734375 39.613281 16.6875 39.613281 15.222656 C 39.613281 14.402344 39.265625 13.554688 38.542969 13.554688 C 37.773438 13.554688 37.25 14.300781 37.226562 15.121094 Z M 36.179688 19.574219 L 35.882812 4.773438 C 36.082031 4.652344 36.328125 4.578125 36.554688 4.578125 C 36.777344 4.578125 37.027344 4.652344 37.226562 4.773438 L 37.050781 13.355469 C 37.671875 12.835938 38.492188 12.511719 39.3125 12.511719 C 40.609375 12.511719 41.527344 13.703125 41.527344 15.046875 C 41.527344 17.039062 39.390625 17.957031 37.871094 19.25 C 37.5 19.574219 37.273438 20.195312 36.753906 20.195312 C 36.429688 20.195312 36.179688 19.921875 36.179688 19.574219 Z M 36.179688 19.574219 "/>
<path style=" stroke:none;fill-rule:nonzero;fill:rgb(0%,0%,0%);fill-opacity:1;" d="M 30.632812 21.339844 L 30.609375 22.980469 L 30.609375 23.253906 C 30.609375 23.804688 30.632812 24.351562 30.707031 24.898438 C 31.828125 23.953125 33.023438 22.90625 33.023438 21.441406 C 33.023438 20.621094 32.671875 19.773438 31.953125 19.773438 C 31.179688 19.773438 30.660156 20.519531 30.632812 21.339844 Z M 29.589844 25.792969 L 29.289062 10.992188 C 29.488281 10.871094 29.738281 10.792969 29.960938 10.792969 C 30.1875 10.792969 30.433594 10.871094 30.632812 10.992188 L 30.460938 19.574219 C 31.082031 19.050781 31.902344 18.730469 32.722656 18.730469 C 34.015625 18.730469 34.9375 19.921875 34.9375 21.265625 C 34.9375 23.253906 32.796875 24.175781 31.28125 25.46875 C 30.90625 25.792969 30.683594 26.414062 30.160156 26.414062 C 29.835938 26.414062 29.589844 26.140625 29.589844 25.792969 Z M 29.589844 25.792969 "/>
<path style=" stroke:none;fill-rule:nonzero;fill:rgb(0%,0%,0%);fill-opacity:1;" d="M 16.152344 66.136719 L 16.003906 66.136719 C 13.316406 66.136719 11.152344 63.945312 11.152344 61.234375 C 11.152344 59.792969 12.46875 58.675781 13.9375 58.675781 C 15.28125 58.675781 16.300781 59.84375 16.300781 61.234375 C 16.300781 62.53125 15.230469 63.597656 13.9375 63.597656 C 13.664062 63.597656 13.414062 63.550781 13.167969 63.449219 C 13.8125 64.417969 14.859375 65.066406 16.078125 65.066406 L 16.175781 65.066406 Z M 21 55.390625 C 22.691406 54.792969 23.8125 53.027344 23.8125 51.3125 C 23.8125 49.074219 22.171875 46.859375 19.507812 46.585938 C 20.105469 49.472656 20.652344 52.332031 21 55.390625 Z M 11.375 49.644531 C 11.375 53.003906 14.585938 55.789062 17.941406 55.789062 C 18.640625 55.789062 19.308594 55.738281 19.980469 55.640625 C 19.632812 52.480469 19.0625 49.546875 18.414062 46.585938 C 16.449219 46.785156 15.332031 48.101562 15.332031 49.546875 C 15.332031 50.640625 15.953125 51.808594 17.34375 52.605469 C 17.46875 52.730469 17.519531 52.855469 17.519531 52.976562 C 17.519531 53.253906 17.269531 53.527344 16.972656 53.527344 C 16.898438 53.527344 16.824219 53.5 16.75 53.476562 C 14.757812 52.40625 13.839844 50.617188 13.839844 48.875 C 13.839844 46.6875 15.28125 44.546875 17.816406 43.972656 C 17.46875 42.53125 17.097656 41.066406 16.675781 39.621094 C 14.011719 42.632812 11.375 45.664062 11.375 49.644531 Z M 17.867188 56.859375 C 13.191406 56.859375 9.585938 52.582031 9.585938 47.554688 C 9.585938 43.152344 12.84375 39.945312 15.753906 36.585938 C 15.28125 35.046875 14.832031 33.476562 14.632812 31.863281 C 14.484375 30.566406 14.460938 29.273438 14.460938 27.980469 C 14.460938 25.121094 15.828125 22.410156 18.167969 20.71875 C 18.316406 20.59375 18.515625 20.59375 18.664062 20.71875 C 20.429688 22.808594 21.972656 26.8125 21.972656 29.625 C 21.972656 33.179688 19.832031 35.964844 17.496094 38.675781 C 18.015625 40.367188 18.464844 42.109375 18.886719 43.824219 C 18.988281 43.824219 19.113281 43.800781 19.210938 43.800781 C 23.066406 43.800781 25.578125 46.984375 25.578125 50.292969 C 25.578125 52.183594 24.757812 54.121094 22.917969 55.515625 C 22.371094 55.9375 21.746094 56.210938 21.101562 56.410156 C 21.175781 57.28125 21.226562 58.152344 21.226562 59.023438 C 21.226562 59.496094 21.199219 59.992188 21.175781 60.464844 C 21 63.425781 18.988281 66.0625 16.152344 66.136719 L 16.175781 65.066406 C 18.488281 65.015625 19.980469 62.777344 20.132812 60.316406 C 20.15625 59.867188 20.179688 59.394531 20.179688 58.949219 C 20.179688 58.175781 20.15625 57.429688 20.082031 56.660156 C 19.359375 56.785156 18.640625 56.859375 17.867188 56.859375 Z M 20.179688 27.558594 C 20.179688 26.191406 20.082031 25.59375 19.683594 24.351562 C 17.222656 25.542969 15.652344 28.054688 15.652344 30.792969 C 15.652344 32.632812 16.101562 34.101562 16.550781 35.617188 C 18.539062 33.203125 20.179688 30.691406 20.179688 27.558594 Z M 20.179688 27.558594 "/>
<path style=" stroke:none;fill-rule:nonzero;fill:rgb(0%,0%,0%);fill-opacity:1;" d="M 49.125 6.542969 C 50.496094 6.542969 51.8125 7.238281 51.8125 8.753906 C 51.8125 10.519531 50.445312 11.765625 49.277344 12.460938 C 48.40625 12.984375 47.410156 13.308594 46.390625 13.308594 C 45.023438 13.308594 43.703125 12.609375 43.703125 11.09375 C 43.703125 9.328125 45.074219 8.082031 46.242188 7.386719 C 47.113281 6.863281 48.105469 6.542969 49.125 6.542969 Z M 49.125 6.542969 "/>
<path style=" stroke:none;fill-rule:nonzero;fill:rgb(0%,0%,0%);fill-opacity:1;" d="M 49.125 12.757812 C 50.496094 12.757812 51.8125 13.457031 51.8125 14.972656 C 51.8125 16.738281 50.445312 17.984375 49.277344 18.679688 C 48.40625 19.203125 47.410156 19.523438 46.390625 19.523438 C 45.023438 19.523438 43.703125 18.828125 43.703125 17.3125 C 43.703125 15.546875 45.074219 14.300781 46.242188 13.605469 C 47.113281 13.082031 48.105469 12.757812 49.125 12.757812 Z M 49.125 12.757812 "/>
<path style=" stroke:none;fill-rule:nonzero;fill:rgb(0%,0%,0%);fill-opacity:1;" d="M 49.125 18.976562 C 50.496094 18.976562 51.8125 19.675781 51.8125 21.191406 C 51.8125 22.957031 50.445312 24.199219 49.277344 24.898438 C 48.40625 25.417969 47.410156 25.742188 46.390625 25.742188 C 45.023438 25.742188 43.703125 25.046875 43.703125 23.527344 C 43.703125 21.761719 45.074219 20.519531 46.242188 19.824219 C 47.113281 19.300781 48.105469 18.976562 49.125 18.976562 Z M 49.125 18.976562 "/>
</g>
</svg>
