<?xml version="1.0" encoding="UTF-8"?>
<svg xmlns="http://www.w3.org/2000/svg" xmlns:xlink="http://www.w3.org/1999/xlink" width="72.982108pt" height="78.27079pt" viewBox="0 0 72.982108 78.27079" version="1.1">
<g id="surface1">
<path style="fill:none;stroke-width:0.1;stroke-linecap:round;stroke-linejoin:round;stroke:rgb(0%,0%,0%);stroke-opacity:1;stroke-miterlimit:4;" d="M 0.049863 -0.000287501 L 9.431423 -0.000287501 " transform="matrix(6.218149,0,0,6.218149,4.561038,40.517413)"/>
<path style="fill:none;stroke-width:0.1;stroke-linecap:round;stroke-linejoin:round;stroke:rgb(0%,0%,0%);stroke-opacity:1;stroke-miterlimit:4;" d="M 0.049863 0.000244052 L 9.431423 0.000244052 " transform="matrix(6.218149,0,0,6.218149,4.561038,34.299264)"/>
<path style="fill:none;stroke-width:0.1;stroke-linecap:round;stroke-linejoin:round;stroke:rgb(0%,0%,0%);stroke-opacity:1;stroke-miterlimit:4;" d="M 0.049863 0.000147403 L 9.431423 0.000147403 " transform="matrix(6.218149,0,0,6.218149,4.561038,28.081115)"/>
<path style="fill:none;stroke-width:0.1;stroke-linecap:round;stroke-linejoin:round;stroke:rgb(0%,0%,0%);stroke-opacity:1;stroke-miterlimit:4;" d="M 0.049863 0.0000507548 L 9.431423 0.0000507548 " transform="matrix(6.218149,0,0,6.218149,4.561038,21.862966)"/>
<path style="fill:none;stroke-width:0.1;stroke-linecap:round;stroke-linejoin:round;stroke:rgb(0%,0%,0%);stroke-opacity:1;stroke-miterlimit:4;" d="M 0.049863 -0.0000458938 L 9.431423 -0.0000458938 " transform="matrix(6.218149,0,0,6.218149,4.561038,15.644817)"/>
<path style=" stroke:none;fill-rule:nonzero;fill:rgb(0%,0%,0%);fill-opacity:1;" d="M 43.441406 46.113281 L 54.363281 46.113281 C 54.707031 46.113281 54.984375 46.390625 54.984375 46.734375 C 54.984375 47.078125 54.707031 47.355469 54.363281 47.355469 L 43.441406 47.355469 C 43.101562 47.355469 42.820312 47.078125 42.820312 46.734375 C 42.820312 46.390625 43.101562 46.113281 43.441406 46.113281 Z M 43.441406 46.113281 "/>
<path style=" stroke:none;fill-rule:nonzero;fill:rgb(0%,0%,0%);fill-opacity:1;" d="M 43.441406 52.332031 L 54.363281 52.332031 C 54.707031 52.332031 54.984375 52.609375 54.984375 52.953125 C 54.984375 53.296875 54.707031 53.574219 54.363281 53.574219 L 43.441406 53.574219 C 43.101562 53.574219 42.820312 53.296875 42.820312 52.953125 C 42.820312 52.609375 43.101562 52.332031 43.441406 52.332031 Z M 43.441406 52.332031 "/>
<path style=" stroke:none;fill-rule:nonzero;fill:rgb(0%,0%,0%);fill-opacity:1;" d="M 43.441406 58.550781 L 54.363281 58.550781 C 54.707031 58.550781 54.984375 58.828125 54.984375 59.171875 C 54.984375 59.515625 54.707031 59.792969 54.363281 59.792969 L 43.441406 59.792969 C 43.101562 59.792969 42.820312 59.515625 42.820312 59.171875 C 42.820312 58.828125 43.101562 58.550781 43.441406 58.550781 Z M 43.441406 58.550781 "/>
<path style=" stroke:none;fill-rule:nonzero;fill:rgb(0%,0%,0%);fill-opacity:1;" d="M 52.398438 24.972656 L 52.710938 24.972656 C 52.847656 24.972656 52.957031 25.082031 52.957031 25.222656 L 52.957031 57.765625 C 52.957031 57.902344 52.847656 58.015625 52.710938 58.015625 L 52.398438 58.015625 C 52.261719 58.015625 52.148438 57.902344 52.148438 57.765625 L 52.148438 25.222656 C 52.148438 25.082031 52.261719 24.972656 52.398438 24.972656 Z M 52.398438 24.972656 "/>
<path style=" stroke:none;fill-rule:nonzero;fill:rgb(0%,0%,0%);fill-opacity:1;" d="M 41.203125 54.496094 C 41.203125 54.746094 41.003906 54.96875 40.757812 54.96875 C 40.507812 54.96875 40.285156 54.746094 40.285156 54.496094 L 40.285156 50.890625 L 38.21875 51.660156 L 38.21875 55.589844 C 38.21875 55.839844 37.996094 56.0625 37.746094 56.0625 C 37.5 56.0625 37.300781 55.839844 37.300781 55.589844 L 37.300781 51.984375 L 36.503906 52.28125 C 36.453125 52.308594 36.378906 52.308594 36.328125 52.308594 C 36.054688 52.308594 35.832031 52.082031 35.832031 51.808594 L 35.832031 50.316406 C 35.832031 50.117188 35.957031 49.917969 36.15625 49.84375 L 37.300781 49.445312 L 37.300781 45.46875 L 36.503906 45.742188 C 36.453125 45.765625 36.378906 45.765625 36.328125 45.765625 C 36.054688 45.765625 35.832031 45.542969 35.832031 45.269531 L 35.832031 43.777344 C 35.832031 43.578125 35.957031 43.402344 36.15625 43.328125 L 37.300781 42.90625 L 37.300781 38.976562 C 37.300781 38.726562 37.5 38.503906 37.746094 38.503906 C 37.996094 38.503906 38.21875 38.726562 38.21875 38.976562 L 38.21875 42.582031 L 40.285156 41.8125 L 40.285156 37.882812 C 40.285156 37.632812 40.507812 37.410156 40.757812 37.410156 C 41.003906 37.410156 41.203125 37.632812 41.203125 37.882812 L 41.203125 41.488281 L 42 41.1875 C 42.050781 41.164062 42.125 41.164062 42.175781 41.164062 C 42.449219 41.164062 42.671875 41.386719 42.671875 41.660156 L 42.671875 43.152344 C 42.671875 43.351562 42.546875 43.550781 42.347656 43.625 L 41.203125 44.023438 L 41.203125 48.003906 L 42 47.730469 C 42.050781 47.707031 42.125 47.707031 42.175781 47.707031 C 42.449219 47.707031 42.671875 47.929688 42.671875 48.203125 L 42.671875 49.695312 C 42.671875 49.894531 42.546875 50.070312 42.347656 50.144531 L 41.203125 50.566406 Z M 38.21875 45.117188 L 38.21875 49.097656 L 40.285156 48.351562 L 40.285156 44.371094 Z M 38.21875 45.117188 "/>
<path style=" stroke:none;fill-rule:nonzero;fill:rgb(0%,0%,0%);fill-opacity:1;" d="M 34.589844 66.933594 C 34.589844 67.179688 34.390625 67.40625 34.140625 67.40625 C 33.890625 67.40625 33.667969 67.179688 33.667969 66.933594 L 33.667969 63.324219 L 31.605469 64.097656 L 31.605469 68.027344 C 31.605469 68.273438 31.378906 68.5 31.132812 68.5 C 30.882812 68.5 30.683594 68.273438 30.683594 68.027344 L 30.683594 64.421875 L 29.886719 64.71875 C 29.835938 64.742188 29.761719 64.742188 29.714844 64.742188 C 29.441406 64.742188 29.214844 64.519531 29.214844 64.246094 L 29.214844 62.753906 C 29.214844 62.554688 29.339844 62.355469 29.539062 62.28125 L 30.683594 61.882812 L 30.683594 57.902344 L 29.886719 58.175781 C 29.835938 58.203125 29.761719 58.203125 29.714844 58.203125 C 29.441406 58.203125 29.214844 57.976562 29.214844 57.703125 L 29.214844 56.210938 C 29.214844 56.011719 29.339844 55.839844 29.539062 55.765625 L 30.683594 55.339844 L 30.683594 51.410156 C 30.683594 51.164062 30.882812 50.9375 31.132812 50.9375 C 31.378906 50.9375 31.605469 51.164062 31.605469 51.410156 L 31.605469 55.019531 L 33.667969 54.246094 L 33.667969 50.316406 C 33.667969 50.070312 33.890625 49.84375 34.140625 49.84375 C 34.390625 49.84375 34.589844 50.070312 34.589844 50.316406 L 34.589844 53.921875 L 35.382812 53.625 C 35.433594 53.601562 35.507812 53.601562 35.558594 53.601562 C 35.832031 53.601562 36.054688 53.824219 36.054688 54.097656 L 36.054688 55.589844 C 36.054688 55.789062 35.929688 55.988281 35.734375 56.0625 L 34.589844 56.460938 L 34.589844 60.441406 L 35.382812 60.167969 C 35.433594 60.140625 35.507812 60.140625 35.558594 60.140625 C 35.832031 60.140625 36.054688 60.367188 36.054688 60.640625 L 36.054688 62.132812 C 36.054688 62.332031 35.929688 62.503906 35.734375 62.578125 L 34.589844 63.003906 Z M 31.605469 57.554688 L 31.605469 61.535156 L 33.667969 60.789062 L 33.667969 56.808594 Z M 31.605469 57.554688 "/>
<path style=" stroke:none;fill-rule:nonzero;fill:rgb(0%,0%,0%);fill-opacity:1;" d="M 16.152344 50.09375 L 16.003906 50.09375 C 13.316406 50.09375 11.152344 47.90625 11.152344 45.195312 C 11.152344 43.75 12.46875 42.632812 13.9375 42.632812 C 15.28125 42.632812 16.300781 43.800781 16.300781 45.195312 C 16.300781 46.488281 15.230469 47.554688 13.9375 47.554688 C 13.664062 47.554688 13.414062 47.507812 13.167969 47.40625 C 13.8125 48.378906 14.859375 49.023438 16.078125 49.023438 L 16.175781 49.023438 Z M 21 39.347656 C 22.691406 38.75 23.8125 36.984375 23.8125 35.269531 C 23.8125 33.03125 22.171875 30.816406 19.507812 30.542969 C 20.105469 33.429688 20.652344 36.289062 21 39.347656 Z M 11.375 33.601562 C 11.375 36.960938 14.585938 39.746094 17.941406 39.746094 C 18.640625 39.746094 19.308594 39.695312 19.980469 39.597656 C 19.632812 36.4375 19.0625 33.503906 18.414062 30.542969 C 16.449219 30.742188 15.332031 32.0625 15.332031 33.503906 C 15.332031 34.597656 15.953125 35.765625 17.34375 36.5625 C 17.46875 36.6875 17.519531 36.8125 17.519531 36.9375 C 17.519531 37.210938 17.269531 37.484375 16.972656 37.484375 C 16.898438 37.484375 16.824219 37.457031 16.75 37.433594 C 14.757812 36.363281 13.839844 34.574219 13.839844 32.832031 C 13.839844 30.644531 15.28125 28.503906 17.816406 27.933594 C 17.46875 26.488281 17.097656 25.023438 16.675781 23.578125 C 14.011719 26.589844 11.375 29.625 11.375 33.601562 Z M 17.867188 40.816406 C 13.191406 40.816406 9.585938 36.539062 9.585938 31.511719 C 9.585938 27.109375 12.84375 23.902344 15.753906 20.542969 C 15.28125 19.003906 14.832031 17.4375 14.632812 15.820312 C 14.484375 14.527344 14.460938 13.230469 14.460938 11.9375 C 14.460938 9.078125 15.828125 6.367188 18.167969 4.675781 C 18.316406 4.550781 18.515625 4.550781 18.664062 4.675781 C 20.429688 6.765625 21.972656 10.769531 21.972656 13.582031 C 21.972656 17.136719 19.832031 19.921875 17.496094 22.632812 C 18.015625 24.324219 18.464844 26.066406 18.886719 27.78125 C 18.988281 27.78125 19.113281 27.757812 19.210938 27.757812 C 23.066406 27.757812 25.578125 30.941406 25.578125 34.25 C 25.578125 36.140625 24.757812 38.078125 22.917969 39.472656 C 22.371094 39.894531 21.746094 40.167969 21.101562 40.367188 C 21.175781 41.238281 21.226562 42.109375 21.226562 42.980469 C 21.226562 43.453125 21.199219 43.949219 21.175781 44.421875 C 21 47.382812 18.988281 50.019531 16.152344 50.09375 L 16.175781 49.023438 C 18.488281 48.972656 19.980469 46.734375 20.132812 44.273438 C 20.15625 43.824219 20.179688 43.351562 20.179688 42.90625 C 20.179688 42.132812 20.15625 41.386719 20.082031 40.617188 C 19.359375 40.742188 18.640625 40.816406 17.867188 40.816406 Z M 20.179688 11.515625 C 20.179688 10.148438 20.082031 9.550781 19.683594 8.308594 C 17.222656 9.5 15.652344 12.011719 15.652344 14.75 C 15.652344 16.589844 16.101562 18.058594 16.550781 19.574219 C 18.539062 17.160156 20.179688 14.648438 20.179688 11.515625 Z M 20.179688 11.515625 "/>
<path style=" stroke:none;fill-rule:nonzero;fill:rgb(0%,0%,0%);fill-opacity:1;" d="M 50.269531 43.351562 C 51.636719 43.351562 52.957031 44.050781 52.957031 45.566406 C 52.957031 47.332031 51.589844 48.574219 50.417969 49.273438 C 49.550781 49.792969 48.554688 50.117188 47.535156 50.117188 C 46.167969 50.117188 44.847656 49.421875 44.847656 47.90625 C 44.847656 46.136719 46.214844 44.894531 47.386719 44.199219 C 48.257812 43.675781 49.25 43.351562 50.269531 43.351562 Z M 50.269531 43.351562 "/>
<path style=" stroke:none;fill-rule:nonzero;fill:rgb(0%,0%,0%);fill-opacity:1;" d="M 50.269531 49.570312 C 51.636719 49.570312 52.957031 50.265625 52.957031 51.785156 C 52.957031 53.550781 51.589844 54.792969 50.417969 55.492188 C 49.550781 56.011719 48.554688 56.335938 47.535156 56.335938 C 46.167969 56.335938 44.847656 55.640625 44.847656 54.121094 C 44.847656 52.355469 46.214844 51.113281 47.386719 50.417969 C 48.257812 49.894531 49.25 49.570312 50.269531 49.570312 Z M 50.269531 49.570312 "/>
<path style=" stroke:none;fill-rule:nonzero;fill:rgb(0%,0%,0%);fill-opacity:1;" d="M 50.269531 55.789062 C 51.636719 55.789062 52.957031 56.484375 52.957031 58.003906 C 52.957031 59.769531 51.589844 61.011719 50.417969 61.707031 C 49.550781 62.230469 48.554688 62.554688 47.535156 62.554688 C 46.167969 62.554688 44.847656 61.859375 44.847656 60.339844 C 44.847656 58.574219 46.214844 57.332031 47.386719 56.636719 C 48.257812 56.113281 49.25 55.789062 50.269531 55.789062 Z M 50.269531 55.789062 "/>
</g>
</svg>
