<?xml version="1.0" encoding="UTF-8"?>
<svg xmlns="http://www.w3.org/2000/svg" xmlns:xlink="http://www.w3.org/1999/xlink" width="75.335285pt" height="50.488251pt" viewBox="0 0 75.335285 50.488251" version="1.1">
<g id="surface1">
<path style="fill:none;stroke-width:0.1;stroke-linecap:round;stroke-linejoin:round;stroke:rgb(0%,0%,0%);stroke-opacity:1;stroke-miterlimit:4;" d="M 0.049863 -0.0001075 L 9.785729 -0.0001075 " transform="matrix(6.218149,0,0,6.218149,4.561038,29.434262)"/>
<path style="fill:none;stroke-width:0.1;stroke-linecap:round;stroke-linejoin:round;stroke:rgb(0%,0%,0%);stroke-opacity:1;stroke-miterlimit:4;" d="M 0.049863 -0.000204149 L 9.785729 -0.000204149 " transform="matrix(6.218149,0,0,6.218149,4.561038,23.216113)"/>
<path style="fill:none;stroke-width:0.1;stroke-linecap:round;stroke-linejoin:round;stroke:rgb(0%,0%,0%);stroke-opacity:1;stroke-miterlimit:4;" d="M 0.049863 -0.000300797 L 9.785729 -0.000300797 " transform="matrix(6.218149,0,0,6.218149,4.561038,16.997964)"/>
<path style="fill:none;stroke-width:0.1;stroke-linecap:round;stroke-linejoin:round;stroke:rgb(0%,0%,0%);stroke-opacity:1;stroke-miterlimit:4;" d="M 0.049863 0.000230756 L 9.785729 0.000230756 " transform="matrix(6.218149,0,0,6.218149,4.561038,10.779815)"/>
<path style="fill:none;stroke-width:0.1;stroke-linecap:round;stroke-linejoin:round;stroke:rgb(0%,0%,0%);stroke-opacity:1;stroke-miterlimit:4;" d="M 0.049863 0.000133988 L 9.785729 0.000133988 " transform="matrix(6.218149,0,0,6.218149,4.561038,4.561667)"/>
<path style=" stroke:none;fill-rule:nonzero;fill:rgb(0%,0%,0%);fill-opacity:1;" d="M 45.644531 35.03125 L 56.566406 35.03125 C 56.910156 35.03125 57.1875 35.308594 57.1875 35.652344 C 57.1875 35.996094 56.910156 36.273438 56.566406 36.273438 L 45.644531 36.273438 C 45.304688 36.273438 45.023438 35.996094 45.023438 35.652344 C 45.023438 35.308594 45.304688 35.03125 45.644531 35.03125 Z M 45.644531 35.03125 "/>
<path style=" stroke:none;fill-rule:nonzero;fill:rgb(0%,0%,0%);fill-opacity:1;" d="M 54.601562 4.5625 L 54.914062 4.5625 C 55.050781 4.5625 55.160156 4.671875 55.160156 4.808594 L 55.160156 37.355469 C 55.160156 37.492188 55.050781 37.605469 54.914062 37.605469 L 54.601562 37.605469 C 54.464844 37.605469 54.351562 37.492188 54.351562 37.355469 L 54.351562 4.808594 C 54.351562 4.671875 54.464844 4.5625 54.601562 4.5625 Z M 54.601562 4.5625 "/>
<path style=" stroke:none;fill-rule:nonzero;fill:rgb(0%,0%,0%);fill-opacity:1;" d="M 43.410156 34.085938 C 43.410156 34.335938 43.210938 34.558594 42.960938 34.558594 C 42.710938 34.558594 42.488281 34.335938 42.488281 34.085938 L 42.488281 30.480469 L 40.421875 31.25 L 40.421875 35.179688 C 40.421875 35.429688 40.199219 35.652344 39.949219 35.652344 C 39.703125 35.652344 39.503906 35.429688 39.503906 35.179688 L 39.503906 31.574219 L 38.707031 31.871094 C 38.65625 31.898438 38.582031 31.898438 38.535156 31.898438 C 38.257812 31.898438 38.035156 31.671875 38.035156 31.398438 L 38.035156 29.90625 C 38.035156 29.707031 38.160156 29.507812 38.359375 29.433594 L 39.503906 29.035156 L 39.503906 25.058594 L 38.707031 25.332031 C 38.65625 25.355469 38.582031 25.355469 38.535156 25.355469 C 38.257812 25.355469 38.035156 25.132812 38.035156 24.859375 L 38.035156 23.367188 C 38.035156 23.167969 38.160156 22.992188 38.359375 22.917969 L 39.503906 22.496094 L 39.503906 18.566406 C 39.503906 18.316406 39.703125 18.09375 39.949219 18.09375 C 40.199219 18.09375 40.421875 18.316406 40.421875 18.566406 L 40.421875 22.171875 L 42.488281 21.402344 L 42.488281 17.46875 C 42.488281 17.222656 42.710938 16.996094 42.960938 16.996094 C 43.210938 16.996094 43.410156 17.222656 43.410156 17.46875 L 43.410156 21.078125 L 44.203125 20.777344 C 44.253906 20.753906 44.328125 20.753906 44.378906 20.753906 C 44.652344 20.753906 44.875 20.976562 44.875 21.25 L 44.875 22.742188 C 44.875 22.941406 44.75 23.140625 44.550781 23.214844 L 43.410156 23.613281 L 43.410156 27.59375 L 44.203125 27.320312 C 44.253906 27.296875 44.328125 27.296875 44.378906 27.296875 C 44.652344 27.296875 44.875 27.519531 44.875 27.792969 L 44.875 29.285156 C 44.875 29.484375 44.75 29.65625 44.550781 29.734375 L 43.410156 30.15625 Z M 40.421875 24.707031 L 40.421875 28.6875 L 42.488281 27.941406 L 42.488281 23.960938 Z M 40.421875 24.707031 "/>
<path style=" stroke:none;fill-rule:nonzero;fill:rgb(0%,0%,0%);fill-opacity:1;" d="M 35.324219 40.304688 C 35.324219 40.550781 35.125 40.777344 34.878906 40.777344 C 34.628906 40.777344 34.40625 40.550781 34.40625 40.304688 L 34.40625 36.695312 L 32.339844 37.46875 L 32.339844 41.398438 C 32.339844 41.648438 32.117188 41.871094 31.867188 41.871094 C 31.617188 41.871094 31.417969 41.648438 31.417969 41.398438 L 31.417969 37.792969 L 30.625 38.089844 C 30.574219 38.113281 30.5 38.113281 30.449219 38.113281 C 30.175781 38.113281 29.953125 37.890625 29.953125 37.617188 L 29.953125 36.125 C 29.953125 35.925781 30.078125 35.726562 30.277344 35.652344 L 31.417969 35.253906 L 31.417969 31.273438 L 30.625 31.546875 C 30.574219 31.574219 30.5 31.574219 30.449219 31.574219 C 30.175781 31.574219 29.953125 31.347656 29.953125 31.074219 L 29.953125 29.582031 C 29.953125 29.382812 30.078125 29.210938 30.277344 29.136719 L 31.417969 28.714844 L 31.417969 24.78125 C 31.417969 24.535156 31.617188 24.308594 31.867188 24.308594 C 32.117188 24.308594 32.339844 24.535156 32.339844 24.78125 L 32.339844 28.390625 L 34.40625 27.617188 L 34.40625 23.6875 C 34.40625 23.441406 34.628906 23.214844 34.878906 23.214844 C 35.125 23.214844 35.324219 23.441406 35.324219 23.6875 L 35.324219 27.296875 L 36.121094 26.996094 C 36.171875 26.972656 36.246094 26.972656 36.292969 26.972656 C 36.566406 26.972656 36.792969 27.195312 36.792969 27.46875 L 36.792969 28.960938 C 36.792969 29.160156 36.667969 29.359375 36.46875 29.433594 L 35.324219 29.832031 L 35.324219 33.8125 L 36.121094 33.539062 C 36.171875 33.511719 36.246094 33.511719 36.292969 33.511719 C 36.566406 33.511719 36.792969 33.738281 36.792969 34.011719 L 36.792969 35.503906 C 36.792969 35.703125 36.667969 35.875 36.46875 35.949219 L 35.324219 36.375 Z M 32.339844 30.925781 L 32.339844 34.90625 L 34.40625 34.160156 L 34.40625 30.179688 Z M 32.339844 30.925781 "/>
<path style=" stroke:none;fill-rule:nonzero;fill:rgb(0%,0%,0%);fill-opacity:1;" d="M 23.390625 13.890625 C 23.390625 13.191406 23.960938 12.621094 24.65625 12.621094 C 25.355469 12.621094 25.925781 13.191406 25.925781 13.890625 C 25.925781 14.585938 25.355469 15.15625 24.65625 15.15625 C 23.960938 15.15625 23.390625 14.585938 23.390625 13.890625 Z M 23.390625 7.671875 C 23.390625 6.972656 23.960938 6.402344 24.65625 6.402344 C 25.355469 6.402344 25.925781 6.972656 25.925781 7.671875 C 25.925781 8.367188 25.355469 8.9375 24.65625 8.9375 C 23.960938 8.9375 23.390625 8.367188 23.390625 7.671875 Z M 15.304688 4.238281 C 19.585938 4.238281 22.59375 6.425781 22.59375 10.480469 C 22.59375 17.023438 16.050781 20.777344 9.757812 23.441406 C 9.683594 23.515625 9.609375 23.539062 9.535156 23.539062 C 9.363281 23.539062 9.210938 23.390625 9.210938 23.214844 C 9.210938 23.140625 9.238281 23.066406 9.3125 22.992188 C 14.335938 20.058594 19.558594 16.402344 19.558594 10.730469 C 19.558594 7.746094 17.992188 4.886719 15.304688 4.886719 C 13.464844 4.886719 12.097656 6.226562 11.476562 8.019531 C 11.75 7.894531 12.023438 7.820312 12.320312 7.820312 C 13.6875 7.820312 14.808594 8.9375 14.808594 10.308594 C 14.808594 11.75 13.714844 12.945312 12.320312 12.945312 C 10.828125 12.945312 9.535156 11.773438 9.535156 10.308594 C 9.535156 7 12.074219 4.238281 15.304688 4.238281 Z M 15.304688 4.238281 "/>
<path style=" stroke:none;fill-rule:nonzero;fill:rgb(0%,0%,0%);fill-opacity:1;" d="M 52.472656 22.941406 C 53.84375 22.941406 55.160156 23.640625 55.160156 25.15625 C 55.160156 26.921875 53.792969 28.164062 52.625 28.863281 C 51.753906 29.382812 50.757812 29.707031 49.738281 29.707031 C 48.371094 29.707031 47.050781 29.011719 47.050781 27.496094 C 47.050781 25.726562 48.421875 24.484375 49.589844 23.789062 C 50.460938 23.265625 51.453125 22.941406 52.472656 22.941406 Z M 52.472656 22.941406 "/>
<path style=" stroke:none;fill-rule:nonzero;fill:rgb(0%,0%,0%);fill-opacity:1;" d="M 52.472656 29.160156 C 53.84375 29.160156 55.160156 29.855469 55.160156 31.375 C 55.160156 33.140625 53.792969 34.382812 52.625 35.082031 C 51.753906 35.601562 50.757812 35.925781 49.738281 35.925781 C 48.371094 35.925781 47.050781 35.230469 47.050781 33.710938 C 47.050781 31.945312 48.421875 30.703125 49.589844 30.007812 C 50.460938 29.484375 51.453125 29.160156 52.472656 29.160156 Z M 52.472656 29.160156 "/>
<path style=" stroke:none;fill-rule:nonzero;fill:rgb(0%,0%,0%);fill-opacity:1;" d="M 52.472656 35.378906 C 53.84375 35.378906 55.160156 36.074219 55.160156 37.59375 C 55.160156 39.359375 53.792969 40.601562 52.625 41.296875 C 51.753906 41.820312 50.757812 42.144531 49.738281 42.144531 C 48.371094 42.144531 47.050781 41.449219 47.050781 39.929688 C 47.050781 38.164062 48.421875 36.921875 49.589844 36.222656 C 50.460938 35.703125 51.453125 35.378906 52.472656 35.378906 Z M 52.472656 35.378906 "/>
</g>
</svg>
