<?xml version="1.0" encoding="UTF-8"?>
<svg xmlns="http://www.w3.org/2000/svg" xmlns:xlink="http://www.w3.org/1999/xlink" width="82.78005pt" height="80.004293pt" viewBox="0 0 82.78005 80.004293" version="1.1">
<g id="surface1">
<path style="fill:none;stroke-width:0.1;stroke-linecap:round;stroke-linejoin:round;stroke:rgb(0%,0%,0%);stroke-opacity:1;stroke-miterlimit:4;" d="M 0.049863 -0.000105215 L 10.90644 -0.000105215 " transform="matrix(6.218149,0,0,6.218149,4.561038,60.539717)"/>
<path style="fill:none;stroke-width:0.1;stroke-linecap:round;stroke-linejoin:round;stroke:rgb(0%,0%,0%);stroke-opacity:1;stroke-miterlimit:4;" d="M 0.049863 -0.000201864 L 10.90644 -0.000201864 " transform="matrix(6.218149,0,0,6.218149,4.561038,54.321568)"/>
<path style="fill:none;stroke-width:0.1;stroke-linecap:round;stroke-linejoin:round;stroke:rgb(0%,0%,0%);stroke-opacity:1;stroke-miterlimit:4;" d="M 0.049863 -0.000298513 L 10.90644 -0.000298513 " transform="matrix(6.218149,0,0,6.218149,4.561038,48.103419)"/>
<path style="fill:none;stroke-width:0.1;stroke-linecap:round;stroke-linejoin:round;stroke:rgb(0%,0%,0%);stroke-opacity:1;stroke-miterlimit:4;" d="M 0.049863 0.00023304 L 10.90644 0.00023304 " transform="matrix(6.218149,0,0,6.218149,4.561038,41.88527)"/>
<path style="fill:none;stroke-width:0.1;stroke-linecap:round;stroke-linejoin:round;stroke:rgb(0%,0%,0%);stroke-opacity:1;stroke-miterlimit:4;" d="M 0.049863 0.000136391 L 10.90644 0.000136391 " transform="matrix(6.218149,0,0,6.218149,4.561038,35.667121)"/>
<path style=" stroke:none;fill-rule:nonzero;fill:rgb(0%,0%,0%);fill-opacity:1;" d="M 44.910156 16.390625 L 63.535156 16.390625 C 63.878906 16.390625 64.160156 16.667969 64.160156 17.011719 C 64.160156 17.355469 63.878906 17.632812 63.535156 17.632812 L 44.910156 17.632812 C 44.566406 17.632812 44.289062 17.355469 44.289062 17.011719 C 44.289062 16.667969 44.566406 16.390625 44.910156 16.390625 Z M 44.910156 16.390625 "/>
<path style=" stroke:none;fill-rule:nonzero;fill:rgb(0%,0%,0%);fill-opacity:1;" d="M 44.910156 22.609375 L 63.535156 22.609375 C 63.878906 22.609375 64.160156 22.886719 64.160156 23.230469 C 64.160156 23.574219 63.878906 23.851562 63.535156 23.851562 L 44.910156 23.851562 C 44.566406 23.851562 44.289062 23.574219 44.289062 23.230469 C 44.289062 22.886719 44.566406 22.609375 44.910156 22.609375 Z M 44.910156 22.609375 "/>
<path style=" stroke:none;fill-rule:nonzero;fill:rgb(0%,0%,0%);fill-opacity:1;" d="M 44.910156 28.828125 L 63.535156 28.828125 C 63.878906 28.828125 64.160156 29.105469 64.160156 29.449219 C 64.160156 29.792969 63.878906 30.070312 63.535156 30.070312 L 44.910156 30.070312 C 44.566406 30.070312 44.289062 29.792969 44.289062 29.449219 C 44.289062 29.105469 44.566406 28.828125 44.910156 28.828125 Z M 44.910156 28.828125 "/>
<path style=" stroke:none;fill-rule:nonzero;fill:rgb(0%,0%,0%);fill-opacity:1;" d="M 42.671875 21.664062 C 42.671875 21.914062 42.472656 22.136719 42.222656 22.136719 C 41.976562 22.136719 41.75 21.914062 41.75 21.664062 L 41.75 18.058594 L 39.6875 18.828125 L 39.6875 22.757812 C 39.6875 23.007812 39.464844 23.230469 39.214844 23.230469 C 38.964844 23.230469 38.765625 23.007812 38.765625 22.757812 L 38.765625 19.152344 L 37.972656 19.449219 C 37.921875 19.476562 37.847656 19.476562 37.796875 19.476562 C 37.523438 19.476562 37.300781 19.25 37.300781 18.976562 L 37.300781 17.484375 C 37.300781 17.285156 37.425781 17.085938 37.621094 17.011719 L 38.765625 16.613281 L 38.765625 12.636719 L 37.972656 12.910156 C 37.921875 12.933594 37.847656 12.933594 37.796875 12.933594 C 37.523438 12.933594 37.300781 12.710938 37.300781 12.4375 L 37.300781 10.945312 C 37.300781 10.746094 37.425781 10.570312 37.621094 10.496094 L 38.765625 10.074219 L 38.765625 6.144531 C 38.765625 5.894531 38.964844 5.671875 39.214844 5.671875 C 39.464844 5.671875 39.6875 5.894531 39.6875 6.144531 L 39.6875 9.75 L 41.75 8.980469 L 41.75 5.050781 C 41.75 4.800781 41.976562 4.578125 42.222656 4.578125 C 42.472656 4.578125 42.671875 4.800781 42.671875 5.050781 L 42.671875 8.65625 L 43.46875 8.355469 C 43.519531 8.332031 43.59375 8.332031 43.640625 8.332031 C 43.914062 8.332031 44.140625 8.554688 44.140625 8.828125 L 44.140625 10.320312 C 44.140625 10.519531 44.015625 10.71875 43.816406 10.792969 L 42.671875 11.191406 L 42.671875 15.171875 L 43.46875 14.898438 C 43.519531 14.875 43.59375 14.875 43.640625 14.875 C 43.914062 14.875 44.140625 15.097656 44.140625 15.371094 L 44.140625 16.863281 C 44.140625 17.0625 44.015625 17.238281 43.816406 17.3125 L 42.671875 17.734375 Z M 39.6875 12.285156 L 39.6875 16.265625 L 41.75 15.519531 L 41.75 11.539062 Z M 39.6875 12.285156 "/>
<path style=" stroke:none;fill-rule:nonzero;fill:rgb(0%,0%,0%);fill-opacity:1;" d="M 34.589844 30.992188 C 34.589844 31.238281 34.390625 31.464844 34.140625 31.464844 C 33.890625 31.464844 33.667969 31.238281 33.667969 30.992188 L 33.667969 27.382812 L 31.605469 28.15625 L 31.605469 32.085938 C 31.605469 32.335938 31.378906 32.558594 31.132812 32.558594 C 30.882812 32.558594 30.683594 32.335938 30.683594 32.085938 L 30.683594 28.480469 L 29.886719 28.777344 C 29.835938 28.800781 29.761719 28.800781 29.714844 28.800781 C 29.441406 28.800781 29.214844 28.578125 29.214844 28.304688 L 29.214844 26.8125 C 29.214844 26.613281 29.339844 26.414062 29.539062 26.339844 L 30.683594 25.941406 L 30.683594 21.960938 L 29.886719 22.234375 C 29.835938 22.261719 29.761719 22.261719 29.714844 22.261719 C 29.441406 22.261719 29.214844 22.035156 29.214844 21.761719 L 29.214844 20.269531 C 29.214844 20.070312 29.339844 19.898438 29.539062 19.824219 L 30.683594 19.402344 L 30.683594 15.46875 C 30.683594 15.222656 30.882812 14.996094 31.132812 14.996094 C 31.378906 14.996094 31.605469 15.222656 31.605469 15.46875 L 31.605469 19.078125 L 33.667969 18.304688 L 33.667969 14.375 C 33.667969 14.128906 33.890625 13.902344 34.140625 13.902344 C 34.390625 13.902344 34.589844 14.128906 34.589844 14.375 L 34.589844 17.984375 L 35.382812 17.683594 C 35.433594 17.660156 35.507812 17.660156 35.558594 17.660156 C 35.832031 17.660156 36.054688 17.882812 36.054688 18.15625 L 36.054688 19.648438 C 36.054688 19.847656 35.929688 20.046875 35.734375 20.121094 L 34.589844 20.519531 L 34.589844 24.5 L 35.382812 24.226562 C 35.433594 24.199219 35.507812 24.199219 35.558594 24.199219 C 35.832031 24.199219 36.054688 24.425781 36.054688 24.699219 L 36.054688 26.191406 C 36.054688 26.390625 35.929688 26.5625 35.734375 26.636719 L 34.589844 27.0625 Z M 31.605469 21.613281 L 31.605469 25.59375 L 33.667969 24.847656 L 33.667969 20.867188 Z M 31.605469 21.613281 "/>
<path style=" stroke:none;fill-rule:nonzero;fill:rgb(0%,0%,0%);fill-opacity:1;" d="M 54.269531 15.0625 L 54.582031 15.0625 C 54.71875 15.0625 54.828125 15.171875 54.828125 15.308594 L 54.828125 50.964844 C 54.828125 51.101562 54.71875 51.210938 54.582031 51.210938 L 54.269531 51.210938 C 54.132812 51.210938 54.019531 51.101562 54.019531 50.964844 L 54.019531 15.308594 C 54.019531 15.171875 54.132812 15.0625 54.269531 15.0625 Z M 54.269531 15.0625 "/>
<path style=" stroke:none;fill-rule:nonzero;fill:rgb(0%,0%,0%);fill-opacity:1;" d="M 16.152344 70.117188 L 16.003906 70.117188 C 13.316406 70.117188 11.152344 67.925781 11.152344 65.214844 C 11.152344 63.773438 12.46875 62.652344 13.9375 62.652344 C 15.28125 62.652344 16.300781 63.824219 16.300781 65.214844 C 16.300781 66.507812 15.230469 67.578125 13.9375 67.578125 C 13.664062 67.578125 13.414062 67.527344 13.167969 67.429688 C 13.8125 68.398438 14.859375 69.046875 16.078125 69.046875 L 16.175781 69.046875 Z M 21 59.371094 C 22.691406 58.773438 23.8125 57.007812 23.8125 55.292969 C 23.8125 53.054688 22.171875 50.839844 19.507812 50.566406 C 20.105469 53.449219 20.652344 56.3125 21 59.371094 Z M 11.375 53.625 C 11.375 56.984375 14.585938 59.769531 17.941406 59.769531 C 18.640625 59.769531 19.308594 59.71875 19.980469 59.621094 C 19.632812 56.460938 19.0625 53.527344 18.414062 50.566406 C 16.449219 50.765625 15.332031 52.082031 15.332031 53.527344 C 15.332031 54.621094 15.953125 55.789062 17.34375 56.585938 C 17.46875 56.710938 17.519531 56.832031 17.519531 56.957031 C 17.519531 57.230469 17.269531 57.503906 16.972656 57.503906 C 16.898438 57.503906 16.824219 57.480469 16.75 57.457031 C 14.757812 56.386719 13.839844 54.59375 13.839844 52.855469 C 13.839844 50.664062 15.28125 48.527344 17.816406 47.953125 C 17.46875 46.511719 17.097656 45.042969 16.675781 43.601562 C 14.011719 46.609375 11.375 49.644531 11.375 53.625 Z M 17.867188 60.839844 C 13.191406 60.839844 9.585938 56.558594 9.585938 51.535156 C 9.585938 47.132812 12.84375 43.925781 15.753906 40.566406 C 15.28125 39.023438 14.832031 37.457031 14.632812 35.839844 C 14.484375 34.546875 14.460938 33.253906 14.460938 31.960938 C 14.460938 29.101562 15.828125 26.390625 18.167969 24.699219 C 18.316406 24.574219 18.515625 24.574219 18.664062 24.699219 C 20.429688 26.789062 21.972656 30.792969 21.972656 33.601562 C 21.972656 37.160156 19.832031 39.945312 17.496094 42.65625 C 18.015625 44.347656 18.464844 46.089844 18.886719 47.804688 C 18.988281 47.804688 19.113281 47.78125 19.210938 47.78125 C 23.066406 47.78125 25.578125 50.964844 25.578125 54.273438 C 25.578125 56.164062 24.757812 58.101562 22.917969 59.496094 C 22.371094 59.917969 21.746094 60.191406 21.101562 60.390625 C 21.175781 61.261719 21.226562 62.132812 21.226562 63.003906 C 21.226562 63.476562 21.199219 63.972656 21.175781 64.445312 C 21 67.40625 18.988281 70.042969 16.152344 70.117188 L 16.175781 69.046875 C 18.488281 68.996094 19.980469 66.757812 20.132812 64.296875 C 20.15625 63.847656 20.179688 63.375 20.179688 62.925781 C 20.179688 62.15625 20.15625 61.410156 20.082031 60.640625 C 19.359375 60.761719 18.640625 60.839844 17.867188 60.839844 Z M 20.179688 31.539062 C 20.179688 30.171875 20.082031 29.574219 19.683594 28.328125 C 17.222656 29.523438 15.652344 32.035156 15.652344 34.773438 C 15.652344 36.613281 16.101562 38.078125 16.550781 39.597656 C 18.539062 37.183594 20.179688 34.671875 20.179688 31.539062 Z M 20.179688 31.539062 "/>
<path style=" stroke:none;fill-rule:nonzero;fill:rgb(0%,0%,0%);fill-opacity:1;" d="M 59.445312 10.519531 C 60.8125 10.519531 62.128906 11.21875 62.128906 12.734375 C 62.128906 14.5 60.761719 15.746094 59.59375 16.441406 C 58.722656 16.964844 57.726562 17.285156 56.707031 17.285156 C 55.339844 17.285156 54.019531 16.589844 54.019531 15.074219 C 54.019531 13.308594 55.390625 12.0625 56.558594 11.367188 C 57.429688 10.84375 58.425781 10.519531 59.445312 10.519531 Z M 59.445312 10.519531 "/>
<path style=" stroke:none;fill-rule:nonzero;fill:rgb(0%,0%,0%);fill-opacity:1;" d="M 51.738281 13.628906 C 53.105469 13.628906 54.425781 14.328125 54.425781 15.84375 C 54.425781 17.609375 53.054688 18.851562 51.886719 19.550781 C 51.015625 20.070312 50.023438 20.394531 49.003906 20.394531 C 47.632812 20.394531 46.316406 19.699219 46.316406 18.183594 C 46.316406 16.414062 47.683594 15.171875 48.851562 14.476562 C 49.722656 13.953125 50.71875 13.628906 51.738281 13.628906 Z M 51.738281 13.628906 "/>
<path style=" stroke:none;fill-rule:nonzero;fill:rgb(0%,0%,0%);fill-opacity:1;" d="M 59.445312 19.847656 C 60.8125 19.847656 62.128906 20.542969 62.128906 22.0625 C 62.128906 23.828125 60.761719 25.070312 59.59375 25.769531 C 58.722656 26.289062 57.726562 26.613281 56.707031 26.613281 C 55.339844 26.613281 54.019531 25.917969 54.019531 24.398438 C 54.019531 22.632812 55.390625 21.390625 56.558594 20.695312 C 57.429688 20.171875 58.425781 19.847656 59.445312 19.847656 Z M 59.445312 19.847656 "/>
<path style=" stroke:none;fill-rule:nonzero;fill:rgb(0%,0%,0%);fill-opacity:1;" d="M 59.445312 26.066406 C 60.8125 26.066406 62.128906 26.761719 62.128906 28.28125 C 62.128906 30.046875 60.761719 31.289062 59.59375 31.984375 C 58.722656 32.507812 57.726562 32.832031 56.707031 32.832031 C 55.339844 32.832031 54.019531 32.136719 54.019531 30.617188 C 54.019531 28.851562 55.390625 27.609375 56.558594 26.910156 C 57.429688 26.390625 58.425781 26.066406 59.445312 26.066406 Z M 59.445312 26.066406 "/>
</g>
</svg>
