<?xml version="1.0" encoding="UTF-8"?>
<svg xmlns="http://www.w3.org/2000/svg" xmlns:xlink="http://www.w3.org/1999/xlink" width="68.472344pt" height="45.767944pt" viewBox="0 0 68.472344 45.767944" version="1.1">
<g id="surface1">
<path style="fill:none;stroke-width:0.1;stroke-linecap:round;stroke-linejoin:round;stroke:rgb(0%,0%,0%);stroke-opacity:1;stroke-miterlimit:4;" d="M 0.049863 -0.0001075 L 8.752337 -0.0001075 " transform="matrix(6.218149,0,0,6.218149,4.561038,29.434262)"/>
<path style="fill:none;stroke-width:0.1;stroke-linecap:round;stroke-linejoin:round;stroke:rgb(0%,0%,0%);stroke-opacity:1;stroke-miterlimit:4;" d="M 0.049863 -0.000204149 L 8.752337 -0.000204149 " transform="matrix(6.218149,0,0,6.218149,4.561038,23.216113)"/>
<path style="fill:none;stroke-width:0.1;stroke-linecap:round;stroke-linejoin:round;stroke:rgb(0%,0%,0%);stroke-opacity:1;stroke-miterlimit:4;" d="M 0.049863 -0.000300797 L 8.752337 -0.000300797 " transform="matrix(6.218149,0,0,6.218149,4.561038,16.997964)"/>
<path style="fill:none;stroke-width:0.1;stroke-linecap:round;stroke-linejoin:round;stroke:rgb(0%,0%,0%);stroke-opacity:1;stroke-miterlimit:4;" d="M 0.049863 0.000230756 L 8.752337 0.000230756 " transform="matrix(6.218149,0,0,6.218149,4.561038,10.779815)"/>
<path style="fill:none;stroke-width:0.1;stroke-linecap:round;stroke-linejoin:round;stroke:rgb(0%,0%,0%);stroke-opacity:1;stroke-miterlimit:4;" d="M 0.049863 0.000133988 L 8.752337 0.000133988 " transform="matrix(6.218149,0,0,6.218149,4.561038,4.561667)"/>
<path style=" stroke:none;fill-rule:nonzero;fill:rgb(0%,0%,0%);fill-opacity:1;" d="M 40.875 18.15625 L 41.1875 18.15625 C 41.324219 18.15625 41.433594 18.265625 41.433594 18.402344 L 41.433594 37.476562 C 41.433594 37.613281 41.324219 37.726562 41.1875 37.726562 L 40.875 37.726562 C 40.738281 37.726562 40.625 37.613281 40.625 37.476562 L 40.625 18.402344 C 40.625 18.265625 40.738281 18.15625 40.875 18.15625 Z M 40.875 18.15625 "/>
<path style=" stroke:none;fill-rule:nonzero;fill:rgb(0%,0%,0%);fill-opacity:1;" d="M 36.984375 24.757812 C 36.984375 25.007812 36.785156 25.230469 36.535156 25.230469 C 36.285156 25.230469 36.0625 25.007812 36.0625 24.757812 L 36.0625 21.152344 L 33.996094 21.921875 L 33.996094 25.851562 C 33.996094 26.101562 33.773438 26.324219 33.523438 26.324219 C 33.277344 26.324219 33.078125 26.101562 33.078125 25.851562 L 33.078125 22.246094 L 32.28125 22.542969 C 32.230469 22.570312 32.15625 22.570312 32.109375 22.570312 C 31.832031 22.570312 31.609375 22.34375 31.609375 22.070312 L 31.609375 20.578125 C 31.609375 20.378906 31.734375 20.183594 31.933594 20.105469 L 33.078125 19.710938 L 33.078125 15.730469 L 32.28125 16.003906 C 32.230469 16.027344 32.15625 16.027344 32.109375 16.027344 C 31.832031 16.027344 31.609375 15.804688 31.609375 15.53125 L 31.609375 14.039062 C 31.609375 13.839844 31.734375 13.664062 31.933594 13.589844 L 33.078125 13.167969 L 33.078125 9.238281 C 33.078125 8.988281 33.277344 8.765625 33.523438 8.765625 C 33.773438 8.765625 33.996094 8.988281 33.996094 9.238281 L 33.996094 12.84375 L 36.0625 12.074219 L 36.0625 8.144531 C 36.0625 7.894531 36.285156 7.671875 36.535156 7.671875 C 36.785156 7.671875 36.984375 7.894531 36.984375 8.144531 L 36.984375 11.75 L 37.777344 11.453125 C 37.828125 11.425781 37.902344 11.425781 37.953125 11.425781 C 38.226562 11.425781 38.449219 11.648438 38.449219 11.925781 L 38.449219 13.417969 C 38.449219 13.617188 38.324219 13.8125 38.125 13.890625 L 36.984375 14.285156 L 36.984375 18.265625 L 37.777344 17.992188 C 37.828125 17.96875 37.902344 17.96875 37.953125 17.96875 C 38.226562 17.96875 38.449219 18.191406 38.449219 18.464844 L 38.449219 19.957031 C 38.449219 20.15625 38.324219 20.332031 38.125 20.40625 L 36.984375 20.828125 Z M 33.996094 15.382812 L 33.996094 19.359375 L 36.0625 18.613281 L 36.0625 14.636719 Z M 33.996094 15.382812 "/>
<path style=" stroke:none;fill-rule:nonzero;fill:rgb(0%,0%,0%);fill-opacity:1;" d="M 23.390625 13.890625 C 23.390625 13.191406 23.960938 12.621094 24.65625 12.621094 C 25.355469 12.621094 25.925781 13.191406 25.925781 13.890625 C 25.925781 14.585938 25.355469 15.15625 24.65625 15.15625 C 23.960938 15.15625 23.390625 14.585938 23.390625 13.890625 Z M 23.390625 7.671875 C 23.390625 6.972656 23.960938 6.402344 24.65625 6.402344 C 25.355469 6.402344 25.925781 6.972656 25.925781 7.671875 C 25.925781 8.367188 25.355469 8.9375 24.65625 8.9375 C 23.960938 8.9375 23.390625 8.367188 23.390625 7.671875 Z M 15.304688 4.238281 C 19.585938 4.238281 22.59375 6.425781 22.59375 10.480469 C 22.59375 17.023438 16.050781 20.777344 9.757812 23.441406 C 9.683594 23.515625 9.609375 23.539062 9.535156 23.539062 C 9.363281 23.539062 9.210938 23.390625 9.210938 23.214844 C 9.210938 23.140625 9.238281 23.066406 9.3125 22.992188 C 14.335938 20.058594 19.558594 16.402344 19.558594 10.730469 C 19.558594 7.746094 17.992188 4.886719 15.304688 4.886719 C 13.464844 4.886719 12.097656 6.226562 11.476562 8.019531 C 11.75 7.894531 12.023438 7.820312 12.320312 7.820312 C 13.6875 7.820312 14.808594 8.9375 14.808594 10.308594 C 14.808594 11.75 13.714844 12.945312 12.320312 12.945312 C 10.828125 12.945312 9.535156 11.773438 9.535156 10.308594 C 9.535156 7 12.074219 4.238281 15.304688 4.238281 Z M 15.304688 4.238281 "/>
<path style=" stroke:none;fill-rule:nonzero;fill:rgb(0%,0%,0%);fill-opacity:1;" d="M 46.046875 13.617188 C 47.417969 13.617188 48.734375 14.3125 48.734375 15.828125 C 48.734375 17.59375 47.367188 18.839844 46.199219 19.535156 C 45.328125 20.058594 44.332031 20.378906 43.3125 20.378906 C 41.945312 20.378906 40.625 19.683594 40.625 18.167969 C 40.625 16.402344 41.996094 15.15625 43.164062 14.460938 C 44.035156 13.9375 45.027344 13.617188 46.046875 13.617188 Z M 46.046875 13.617188 "/>
</g>
</svg>
