<?xml version="1.0" encoding="UTF-8"?>
<svg xmlns="http://www.w3.org/2000/svg" xmlns:xlink="http://www.w3.org/1999/xlink" width="81.536713pt" height="58.61114pt" viewBox="0 0 81.536713 58.61114" version="1.1">
<g id="surface1">
<path style="fill:none;stroke-width:0.1;stroke-linecap:round;stroke-linejoin:round;stroke:rgb(0%,0%,0%);stroke-opacity:1;stroke-miterlimit:4;" d="M 0.049863 -0.000287501 L 10.719236 -0.000287501 " transform="matrix(6.218149,0,0,6.218149,4.561038,40.517413)"/>
<path style="fill:none;stroke-width:0.1;stroke-linecap:round;stroke-linejoin:round;stroke:rgb(0%,0%,0%);stroke-opacity:1;stroke-miterlimit:4;" d="M 0.049863 0.000244052 L 10.719236 0.000244052 " transform="matrix(6.218149,0,0,6.218149,4.561038,34.299264)"/>
<path style="fill:none;stroke-width:0.1;stroke-linecap:round;stroke-linejoin:round;stroke:rgb(0%,0%,0%);stroke-opacity:1;stroke-miterlimit:4;" d="M 0.049863 0.000147403 L 10.719236 0.000147403 " transform="matrix(6.218149,0,0,6.218149,4.561038,28.081115)"/>
<path style="fill:none;stroke-width:0.1;stroke-linecap:round;stroke-linejoin:round;stroke:rgb(0%,0%,0%);stroke-opacity:1;stroke-miterlimit:4;" d="M 0.049863 0.0000507548 L 10.719236 0.0000507548 " transform="matrix(6.218149,0,0,6.218149,4.561038,21.862966)"/>
<path style="fill:none;stroke-width:0.1;stroke-linecap:round;stroke-linejoin:round;stroke:rgb(0%,0%,0%);stroke-opacity:1;stroke-miterlimit:4;" d="M 0.049863 -0.0000458938 L 10.719236 -0.0000458938 " transform="matrix(6.218149,0,0,6.218149,4.561038,15.644817)"/>
<path style=" stroke:none;fill-rule:nonzero;fill:rgb(0%,0%,0%);fill-opacity:1;" d="M 60.40625 5.28125 L 60.71875 5.28125 C 60.855469 5.28125 60.96875 5.390625 60.96875 5.53125 L 60.96875 36.003906 C 60.96875 36.140625 60.855469 36.25 60.71875 36.25 L 60.40625 36.25 C 60.269531 36.25 60.160156 36.140625 60.160156 36.003906 L 60.160156 5.53125 C 60.160156 5.390625 60.269531 5.28125 60.40625 5.28125 Z M 60.40625 5.28125 "/>
<path style=" stroke:none;fill-rule:nonzero;fill:rgb(0%,0%,0%);fill-opacity:1;" d="M 47.945312 24.972656 C 48.519531 25.542969 49.339844 25.667969 50.160156 25.667969 C 50.308594 25.667969 50.410156 25.769531 50.410156 25.917969 L 50.632812 28.082031 C 50.65625 28.230469 50.535156 28.355469 50.382812 28.328125 L 48.21875 28.105469 C 48.097656 28.082031 47.972656 27.980469 47.972656 27.855469 C 47.972656 27.035156 47.847656 26.214844 47.273438 25.644531 C 46.703125 26.214844 46.605469 27.035156 46.605469 27.855469 C 46.605469 27.980469 46.480469 28.082031 46.355469 28.105469 L 44.167969 28.328125 C 44.015625 28.355469 43.894531 28.230469 43.917969 28.082031 L 44.140625 25.917969 C 44.140625 25.769531 44.242188 25.667969 44.390625 25.667969 C 45.210938 25.667969 46.03125 25.542969 46.605469 24.972656 C 46.03125 24.398438 45.210938 24.277344 44.390625 24.277344 C 44.242188 24.277344 44.140625 24.175781 44.140625 24.027344 L 43.917969 21.863281 C 43.894531 21.714844 44.015625 21.589844 44.167969 21.613281 L 46.355469 21.839844 C 46.480469 21.863281 46.578125 21.960938 46.578125 22.085938 C 46.578125 22.90625 46.703125 23.726562 47.273438 24.300781 C 47.847656 23.726562 47.972656 22.90625 47.972656 22.085938 C 47.972656 21.960938 48.097656 21.863281 48.21875 21.839844 L 50.382812 21.613281 C 50.535156 21.589844 50.65625 21.714844 50.632812 21.863281 L 50.410156 24.027344 C 50.410156 24.175781 50.308594 24.277344 50.160156 24.277344 C 49.339844 24.277344 48.519531 24.398438 47.945312 24.972656 Z M 47.945312 24.972656 "/>
<path style=" stroke:none;fill-rule:nonzero;fill:rgb(0%,0%,0%);fill-opacity:1;" d="M 34.589844 38.949219 C 34.589844 39.199219 34.390625 39.421875 34.140625 39.421875 C 33.890625 39.421875 33.667969 39.199219 33.667969 38.949219 L 33.667969 35.34375 L 31.605469 36.113281 L 31.605469 40.042969 C 31.605469 40.292969 31.378906 40.515625 31.132812 40.515625 C 30.882812 40.515625 30.683594 40.292969 30.683594 40.042969 L 30.683594 36.4375 L 29.886719 36.738281 C 29.835938 36.761719 29.761719 36.761719 29.714844 36.761719 C 29.441406 36.761719 29.214844 36.539062 29.214844 36.265625 L 29.214844 34.773438 C 29.214844 34.574219 29.339844 34.375 29.539062 34.300781 L 30.683594 33.902344 L 30.683594 29.921875 L 29.886719 30.195312 C 29.835938 30.21875 29.761719 30.21875 29.714844 30.21875 C 29.441406 30.21875 29.214844 29.996094 29.214844 29.722656 L 29.214844 28.230469 C 29.214844 28.03125 29.339844 27.855469 29.539062 27.78125 L 30.683594 27.359375 L 30.683594 23.429688 C 30.683594 23.179688 30.882812 22.957031 31.132812 22.957031 C 31.378906 22.957031 31.605469 23.179688 31.605469 23.429688 L 31.605469 27.035156 L 33.667969 26.265625 L 33.667969 22.335938 C 33.667969 22.085938 33.890625 21.863281 34.140625 21.863281 C 34.390625 21.863281 34.589844 22.085938 34.589844 22.335938 L 34.589844 25.941406 L 35.382812 25.644531 C 35.433594 25.617188 35.507812 25.617188 35.558594 25.617188 C 35.832031 25.617188 36.054688 25.84375 36.054688 26.117188 L 36.054688 27.609375 C 36.054688 27.808594 35.929688 28.007812 35.734375 28.082031 L 34.589844 28.480469 L 34.589844 32.457031 L 35.382812 32.183594 C 35.433594 32.160156 35.507812 32.160156 35.558594 32.160156 C 35.832031 32.160156 36.054688 32.382812 36.054688 32.65625 L 36.054688 34.148438 C 36.054688 34.347656 35.929688 34.523438 35.734375 34.597656 L 34.589844 35.019531 Z M 31.605469 29.574219 L 31.605469 33.554688 L 33.667969 32.808594 L 33.667969 28.828125 Z M 31.605469 29.574219 "/>
<path style=" stroke:none;fill-rule:nonzero;fill:rgb(0%,0%,0%);fill-opacity:1;" d="M 42.671875 45.167969 C 42.671875 45.417969 42.472656 45.640625 42.222656 45.640625 C 41.976562 45.640625 41.75 45.417969 41.75 45.167969 L 41.75 41.5625 L 39.6875 42.332031 L 39.6875 46.261719 C 39.6875 46.511719 39.464844 46.734375 39.214844 46.734375 C 38.964844 46.734375 38.765625 46.511719 38.765625 46.261719 L 38.765625 42.65625 L 37.972656 42.953125 C 37.921875 42.980469 37.847656 42.980469 37.796875 42.980469 C 37.523438 42.980469 37.300781 42.757812 37.300781 42.480469 L 37.300781 40.988281 C 37.300781 40.789062 37.425781 40.59375 37.621094 40.515625 L 38.765625 40.121094 L 38.765625 36.140625 L 37.972656 36.414062 C 37.921875 36.4375 37.847656 36.4375 37.796875 36.4375 C 37.523438 36.4375 37.300781 36.214844 37.300781 35.941406 L 37.300781 34.449219 C 37.300781 34.25 37.425781 34.074219 37.621094 34 L 38.765625 33.578125 L 38.765625 29.648438 C 38.765625 29.398438 38.964844 29.175781 39.214844 29.175781 C 39.464844 29.175781 39.6875 29.398438 39.6875 29.648438 L 39.6875 33.253906 L 41.75 32.484375 L 41.75 28.554688 C 41.75 28.304688 41.976562 28.082031 42.222656 28.082031 C 42.472656 28.082031 42.671875 28.304688 42.671875 28.554688 L 42.671875 32.160156 L 43.46875 31.863281 C 43.519531 31.835938 43.59375 31.835938 43.640625 31.835938 C 43.914062 31.835938 44.140625 32.0625 44.140625 32.335938 L 44.140625 33.828125 C 44.140625 34.027344 44.015625 34.226562 43.816406 34.300781 L 42.671875 34.695312 L 42.671875 38.675781 L 43.46875 38.402344 C 43.519531 38.378906 43.59375 38.378906 43.640625 38.378906 C 43.914062 38.378906 44.140625 38.601562 44.140625 38.875 L 44.140625 40.367188 C 44.140625 40.566406 44.015625 40.742188 43.816406 40.816406 L 42.671875 41.238281 Z M 39.6875 35.792969 L 39.6875 39.769531 L 41.75 39.023438 L 41.75 35.046875 Z M 39.6875 35.792969 "/>
<path style=" stroke:none;fill-rule:nonzero;fill:rgb(0%,0%,0%);fill-opacity:1;" d="M 16.152344 50.09375 L 16.003906 50.09375 C 13.316406 50.09375 11.152344 47.90625 11.152344 45.195312 C 11.152344 43.75 12.46875 42.632812 13.9375 42.632812 C 15.28125 42.632812 16.300781 43.800781 16.300781 45.195312 C 16.300781 46.488281 15.230469 47.554688 13.9375 47.554688 C 13.664062 47.554688 13.414062 47.507812 13.167969 47.40625 C 13.8125 48.378906 14.859375 49.023438 16.078125 49.023438 L 16.175781 49.023438 Z M 21 39.347656 C 22.691406 38.75 23.8125 36.984375 23.8125 35.269531 C 23.8125 33.03125 22.171875 30.816406 19.507812 30.542969 C 20.105469 33.429688 20.652344 36.289062 21 39.347656 Z M 11.375 33.601562 C 11.375 36.960938 14.585938 39.746094 17.941406 39.746094 C 18.640625 39.746094 19.308594 39.695312 19.980469 39.597656 C 19.632812 36.4375 19.0625 33.503906 18.414062 30.542969 C 16.449219 30.742188 15.332031 32.0625 15.332031 33.503906 C 15.332031 34.597656 15.953125 35.765625 17.34375 36.5625 C 17.46875 36.6875 17.519531 36.8125 17.519531 36.9375 C 17.519531 37.210938 17.269531 37.484375 16.972656 37.484375 C 16.898438 37.484375 16.824219 37.457031 16.75 37.433594 C 14.757812 36.363281 13.839844 34.574219 13.839844 32.832031 C 13.839844 30.644531 15.28125 28.503906 17.816406 27.933594 C 17.46875 26.488281 17.097656 25.023438 16.675781 23.578125 C 14.011719 26.589844 11.375 29.625 11.375 33.601562 Z M 17.867188 40.816406 C 13.191406 40.816406 9.585938 36.539062 9.585938 31.511719 C 9.585938 27.109375 12.84375 23.902344 15.753906 20.542969 C 15.28125 19.003906 14.832031 17.4375 14.632812 15.820312 C 14.484375 14.527344 14.460938 13.230469 14.460938 11.9375 C 14.460938 9.078125 15.828125 6.367188 18.167969 4.675781 C 18.316406 4.550781 18.515625 4.550781 18.664062 4.675781 C 20.429688 6.765625 21.972656 10.769531 21.972656 13.582031 C 21.972656 17.136719 19.832031 19.921875 17.496094 22.632812 C 18.015625 24.324219 18.464844 26.066406 18.886719 27.78125 C 18.988281 27.78125 19.113281 27.757812 19.210938 27.757812 C 23.066406 27.757812 25.578125 30.941406 25.578125 34.25 C 25.578125 36.140625 24.757812 38.078125 22.917969 39.472656 C 22.371094 39.894531 21.746094 40.167969 21.101562 40.367188 C 21.175781 41.238281 21.226562 42.109375 21.226562 42.980469 C 21.226562 43.453125 21.199219 43.949219 21.175781 44.421875 C 21 47.382812 18.988281 50.019531 16.152344 50.09375 L 16.175781 49.023438 C 18.488281 48.972656 19.980469 46.734375 20.132812 44.273438 C 20.15625 43.824219 20.179688 43.351562 20.179688 42.90625 C 20.179688 42.132812 20.15625 41.386719 20.082031 40.617188 C 19.359375 40.742188 18.640625 40.816406 17.867188 40.816406 Z M 20.179688 11.515625 C 20.179688 10.148438 20.082031 9.550781 19.683594 8.308594 C 17.222656 9.5 15.652344 12.011719 15.652344 14.75 C 15.652344 16.589844 16.101562 18.058594 16.550781 19.574219 C 18.539062 17.160156 20.179688 14.648438 20.179688 11.515625 Z M 20.179688 11.515625 "/>
<path style=" stroke:none;fill-rule:nonzero;fill:rgb(0%,0%,0%);fill-opacity:1;" d="M 58.28125 21.589844 C 59.648438 21.589844 60.964844 22.285156 60.964844 23.804688 C 60.964844 25.570312 59.597656 26.8125 58.429688 27.507812 C 57.558594 28.03125 56.5625 28.355469 55.542969 28.355469 C 54.175781 28.355469 52.855469 27.660156 52.855469 26.140625 C 52.855469 24.375 54.226562 23.132812 55.394531 22.433594 C 56.265625 21.914062 57.261719 21.589844 58.28125 21.589844 Z M 58.28125 21.589844 "/>
<path style=" stroke:none;fill-rule:nonzero;fill:rgb(0%,0%,0%);fill-opacity:1;" d="M 58.28125 27.808594 C 59.648438 27.808594 60.964844 28.503906 60.964844 30.019531 C 60.964844 31.789062 59.597656 33.03125 58.429688 33.726562 C 57.558594 34.25 56.5625 34.574219 55.542969 34.574219 C 54.175781 34.574219 52.855469 33.875 52.855469 32.359375 C 52.855469 30.59375 54.226562 29.351562 55.394531 28.652344 C 56.265625 28.132812 57.261719 27.808594 58.28125 27.808594 Z M 58.28125 27.808594 "/>
<path style=" stroke:none;fill-rule:nonzero;fill:rgb(0%,0%,0%);fill-opacity:1;" d="M 58.28125 34.027344 C 59.648438 34.027344 60.964844 34.722656 60.964844 36.238281 C 60.964844 38.003906 59.597656 39.25 58.429688 39.945312 C 57.558594 40.46875 56.5625 40.789062 55.542969 40.789062 C 54.175781 40.789062 52.855469 40.09375 52.855469 38.578125 C 52.855469 36.8125 54.226562 35.566406 55.394531 34.871094 C 56.265625 34.347656 57.261719 34.027344 58.28125 34.027344 Z M 58.28125 34.027344 "/>
</g>
</svg>
