<?xml version="1.0" encoding="UTF-8"?>
<svg xmlns="http://www.w3.org/2000/svg" xmlns:xlink="http://www.w3.org/1999/xlink" width="68.472344pt" height="63.692097pt" viewBox="0 0 68.472344 63.692097" version="1.1">
<g id="surface1">
<path style="fill:none;stroke-width:0.1;stroke-linecap:round;stroke-linejoin:round;stroke:rgb(0%,0%,0%);stroke-opacity:1;stroke-miterlimit:4;" d="M 0.049863 -0.000304683 L 8.752337 -0.000304683 " transform="matrix(6.218149,0,0,6.218149,4.561038,45.26752)"/>
<path style="fill:none;stroke-width:0.1;stroke-linecap:round;stroke-linejoin:round;stroke:rgb(0%,0%,0%);stroke-opacity:1;stroke-miterlimit:4;" d="M 0.049863 0.00022687 L 8.752337 0.00022687 " transform="matrix(6.218149,0,0,6.218149,4.561038,39.049371)"/>
<path style="fill:none;stroke-width:0.1;stroke-linecap:round;stroke-linejoin:round;stroke:rgb(0%,0%,0%);stroke-opacity:1;stroke-miterlimit:4;" d="M 0.049863 0.000130221 L 8.752337 0.000130221 " transform="matrix(6.218149,0,0,6.218149,4.561038,32.831222)"/>
<path style="fill:none;stroke-width:0.1;stroke-linecap:round;stroke-linejoin:round;stroke:rgb(0%,0%,0%);stroke-opacity:1;stroke-miterlimit:4;" d="M 0.049863 0.0000335725 L 8.752337 0.0000335725 " transform="matrix(6.218149,0,0,6.218149,4.561038,26.613072)"/>
<path style="fill:none;stroke-width:0.1;stroke-linecap:round;stroke-linejoin:round;stroke:rgb(0%,0%,0%);stroke-opacity:1;stroke-miterlimit:4;" d="M 0.049863 -0.0000630761 L 8.752337 -0.0000630761 " transform="matrix(6.218149,0,0,6.218149,4.561038,20.394923)"/>
<path style=" stroke:none;fill-rule:nonzero;fill:rgb(0%,0%,0%);fill-opacity:1;" d="M 39.21875 7.335938 L 50.140625 7.335938 C 50.484375 7.335938 50.761719 7.613281 50.761719 7.957031 C 50.761719 8.300781 50.484375 8.582031 50.140625 8.582031 L 39.21875 8.582031 C 38.878906 8.582031 38.597656 8.300781 38.597656 7.957031 C 38.597656 7.613281 38.878906 7.335938 39.21875 7.335938 Z M 39.21875 7.335938 "/>
<path style=" stroke:none;fill-rule:nonzero;fill:rgb(0%,0%,0%);fill-opacity:1;" d="M 39.21875 13.554688 L 50.140625 13.554688 C 50.484375 13.554688 50.761719 13.832031 50.761719 14.175781 C 50.761719 14.519531 50.484375 14.796875 50.140625 14.796875 L 39.21875 14.796875 C 38.878906 14.796875 38.597656 14.519531 38.597656 14.175781 C 38.597656 13.832031 38.878906 13.554688 39.21875 13.554688 Z M 39.21875 13.554688 "/>
<path style=" stroke:none;fill-rule:nonzero;fill:rgb(0%,0%,0%);fill-opacity:1;" d="M 36.984375 28.15625 C 36.984375 28.402344 36.785156 28.628906 36.535156 28.628906 C 36.285156 28.628906 36.0625 28.402344 36.0625 28.15625 L 36.0625 24.546875 L 33.996094 25.320312 L 33.996094 29.25 C 33.996094 29.5 33.773438 29.722656 33.523438 29.722656 C 33.277344 29.722656 33.078125 29.5 33.078125 29.25 L 33.078125 25.644531 L 32.28125 25.941406 C 32.230469 25.964844 32.15625 25.964844 32.109375 25.964844 C 31.832031 25.964844 31.609375 25.742188 31.609375 25.46875 L 31.609375 23.976562 C 31.609375 23.777344 31.734375 23.578125 31.933594 23.503906 L 33.078125 23.105469 L 33.078125 19.125 L 32.28125 19.398438 C 32.230469 19.425781 32.15625 19.425781 32.109375 19.425781 C 31.832031 19.425781 31.609375 19.199219 31.609375 18.925781 L 31.609375 17.433594 C 31.609375 17.234375 31.734375 17.0625 31.933594 16.988281 L 33.078125 16.566406 L 33.078125 12.632812 C 33.078125 12.386719 33.277344 12.160156 33.523438 12.160156 C 33.773438 12.160156 33.996094 12.386719 33.996094 12.632812 L 33.996094 16.242188 L 36.0625 15.46875 L 36.0625 11.539062 C 36.0625 11.292969 36.285156 11.066406 36.535156 11.066406 C 36.785156 11.066406 36.984375 11.292969 36.984375 11.539062 L 36.984375 15.148438 L 37.777344 14.847656 C 37.828125 14.824219 37.902344 14.824219 37.953125 14.824219 C 38.226562 14.824219 38.449219 15.046875 38.449219 15.320312 L 38.449219 16.8125 C 38.449219 17.011719 38.324219 17.210938 38.125 17.285156 L 36.984375 17.683594 L 36.984375 21.664062 L 37.777344 21.390625 C 37.828125 21.363281 37.902344 21.363281 37.953125 21.363281 C 38.226562 21.363281 38.449219 21.589844 38.449219 21.863281 L 38.449219 23.355469 C 38.449219 23.554688 38.324219 23.726562 38.125 23.800781 L 36.984375 24.226562 Z M 33.996094 18.777344 L 33.996094 22.757812 L 36.0625 22.011719 L 36.0625 18.03125 Z M 33.996094 18.777344 "/>
<path style=" stroke:none;fill-rule:nonzero;fill:rgb(0%,0%,0%);fill-opacity:1;" d="M 40.875 9.117188 L 41.1875 9.117188 C 41.324219 9.117188 41.433594 9.226562 41.433594 9.363281 L 41.433594 48.128906 C 41.433594 48.265625 41.324219 48.375 41.1875 48.375 L 40.875 48.375 C 40.738281 48.375 40.625 48.265625 40.625 48.128906 L 40.625 9.363281 C 40.625 9.226562 40.738281 9.117188 40.875 9.117188 Z M 40.875 9.117188 "/>
<path style=" stroke:none;fill-rule:nonzero;fill:rgb(0%,0%,0%);fill-opacity:1;" d="M 16.152344 54.84375 L 16.003906 54.84375 C 13.316406 54.84375 11.152344 52.65625 11.152344 49.945312 C 11.152344 48.5 12.46875 47.382812 13.9375 47.382812 C 15.28125 47.382812 16.300781 48.550781 16.300781 49.945312 C 16.300781 51.238281 15.230469 52.304688 13.9375 52.304688 C 13.664062 52.304688 13.414062 52.257812 13.167969 52.15625 C 13.8125 53.128906 14.859375 53.773438 16.078125 53.773438 L 16.175781 53.773438 Z M 21 44.097656 C 22.691406 43.5 23.8125 41.734375 23.8125 40.019531 C 23.8125 37.78125 22.171875 35.566406 19.507812 35.292969 C 20.105469 38.179688 20.652344 41.039062 21 44.097656 Z M 11.375 38.351562 C 11.375 41.710938 14.585938 44.496094 17.941406 44.496094 C 18.640625 44.496094 19.308594 44.445312 19.980469 44.347656 C 19.632812 41.1875 19.0625 38.253906 18.414062 35.292969 C 16.449219 35.492188 15.332031 36.8125 15.332031 38.253906 C 15.332031 39.347656 15.953125 40.515625 17.34375 41.3125 C 17.46875 41.4375 17.519531 41.5625 17.519531 41.6875 C 17.519531 41.960938 17.269531 42.234375 16.972656 42.234375 C 16.898438 42.234375 16.824219 42.207031 16.75 42.183594 C 14.757812 41.113281 13.839844 39.324219 13.839844 37.582031 C 13.839844 35.394531 15.28125 33.253906 17.816406 32.683594 C 17.46875 31.238281 17.097656 29.773438 16.675781 28.328125 C 14.011719 31.339844 11.375 34.375 11.375 38.351562 Z M 17.867188 45.566406 C 13.191406 45.566406 9.585938 41.289062 9.585938 36.261719 C 9.585938 31.859375 12.84375 28.652344 15.753906 25.292969 C 15.28125 23.753906 14.832031 22.1875 14.632812 20.570312 C 14.484375 19.277344 14.460938 17.980469 14.460938 16.6875 C 14.460938 13.828125 15.828125 11.117188 18.167969 9.425781 C 18.316406 9.300781 18.515625 9.300781 18.664062 9.425781 C 20.429688 11.515625 21.972656 15.519531 21.972656 18.332031 C 21.972656 21.886719 19.832031 24.671875 17.496094 27.382812 C 18.015625 29.074219 18.464844 30.816406 18.886719 32.53125 C 18.988281 32.53125 19.113281 32.507812 19.210938 32.507812 C 23.066406 32.507812 25.578125 35.691406 25.578125 39 C 25.578125 40.890625 24.757812 42.828125 22.917969 44.222656 C 22.371094 44.644531 21.746094 44.917969 21.101562 45.117188 C 21.175781 45.988281 21.226562 46.859375 21.226562 47.730469 C 21.226562 48.203125 21.199219 48.699219 21.175781 49.171875 C 21 52.132812 18.988281 54.769531 16.152344 54.84375 L 16.175781 53.773438 C 18.488281 53.722656 19.980469 51.484375 20.132812 49.023438 C 20.15625 48.574219 20.179688 48.101562 20.179688 47.65625 C 20.179688 46.882812 20.15625 46.136719 20.082031 45.367188 C 19.359375 45.492188 18.640625 45.566406 17.867188 45.566406 Z M 20.179688 16.265625 C 20.179688 14.898438 20.082031 14.300781 19.683594 13.058594 C 17.222656 14.25 15.652344 16.761719 15.652344 19.5 C 15.652344 21.339844 16.101562 22.808594 16.550781 24.324219 C 18.539062 21.914062 20.179688 19.398438 20.179688 16.265625 Z M 20.179688 16.265625 "/>
<path style=" stroke:none;fill-rule:nonzero;fill:rgb(0%,0%,0%);fill-opacity:1;" d="M 46.046875 4.574219 C 47.417969 4.574219 48.734375 5.273438 48.734375 6.789062 C 48.734375 8.554688 47.367188 9.800781 46.199219 10.496094 C 45.328125 11.019531 44.332031 11.339844 43.3125 11.339844 C 41.945312 11.339844 40.625 10.644531 40.625 9.128906 C 40.625 7.363281 41.996094 6.117188 43.164062 5.421875 C 44.035156 4.898438 45.027344 4.574219 46.046875 4.574219 Z M 46.046875 4.574219 "/>
<path style=" stroke:none;fill-rule:nonzero;fill:rgb(0%,0%,0%);fill-opacity:1;" d="M 46.046875 10.792969 C 47.417969 10.792969 48.734375 11.492188 48.734375 13.007812 C 48.734375 14.773438 47.367188 16.015625 46.199219 16.714844 C 45.328125 17.234375 44.332031 17.558594 43.3125 17.558594 C 41.945312 17.558594 40.625 16.863281 40.625 15.347656 C 40.625 13.578125 41.996094 12.335938 43.164062 11.640625 C 44.035156 11.117188 45.027344 10.792969 46.046875 10.792969 Z M 46.046875 10.792969 "/>
<path style=" stroke:none;fill-rule:nonzero;fill:rgb(0%,0%,0%);fill-opacity:1;" d="M 46.046875 17.011719 C 47.417969 17.011719 48.734375 17.707031 48.734375 19.226562 C 48.734375 20.992188 47.367188 22.234375 46.199219 22.933594 C 45.328125 23.453125 44.332031 23.777344 43.3125 23.777344 C 41.945312 23.777344 40.625 23.082031 40.625 21.5625 C 40.625 19.796875 41.996094 18.554688 43.164062 17.859375 C 44.035156 17.335938 45.027344 17.011719 46.046875 17.011719 Z M 46.046875 17.011719 "/>
<path style=" stroke:none;fill-rule:nonzero;fill:rgb(0%,0%,0%);fill-opacity:1;" d="M 46.046875 23.230469 C 47.417969 23.230469 48.734375 23.925781 48.734375 25.445312 C 48.734375 27.210938 47.367188 28.453125 46.199219 29.148438 C 45.328125 29.671875 44.332031 29.996094 43.3125 29.996094 C 41.945312 29.996094 40.625 29.300781 40.625 27.78125 C 40.625 26.015625 41.996094 24.773438 43.164062 24.074219 C 44.035156 23.554688 45.027344 23.230469 46.046875 23.230469 Z M 46.046875 23.230469 "/>
</g>
</svg>
