<?xml version="1.0" encoding="UTF-8"?>
<svg xmlns="http://www.w3.org/2000/svg" xmlns:xlink="http://www.w3.org/1999/xlink" width="71.639142pt" height="62.675906pt" viewBox="0 0 71.639142 62.675906" version="1.1">
<g id="surface1">
<path style="fill:none;stroke-width:0.1;stroke-linecap:round;stroke-linejoin:round;stroke:rgb(0%,0%,0%);stroke-opacity:1;stroke-miterlimit:4;" d="M 0.049863 -0.000287501 L 9.229142 -0.000287501 " transform="matrix(6.218149,0,0,6.218149,4.561038,40.517413)"/>
<path style="fill:none;stroke-width:0.1;stroke-linecap:round;stroke-linejoin:round;stroke:rgb(0%,0%,0%);stroke-opacity:1;stroke-miterlimit:4;" d="M 0.049863 0.000244052 L 9.229142 0.000244052 " transform="matrix(6.218149,0,0,6.218149,4.561038,34.299264)"/>
<path style="fill:none;stroke-width:0.1;stroke-linecap:round;stroke-linejoin:round;stroke:rgb(0%,0%,0%);stroke-opacity:1;stroke-miterlimit:4;" d="M 0.049863 0.000147403 L 9.229142 0.000147403 " transform="matrix(6.218149,0,0,6.218149,4.561038,28.081115)"/>
<path style="fill:none;stroke-width:0.1;stroke-linecap:round;stroke-linejoin:round;stroke:rgb(0%,0%,0%);stroke-opacity:1;stroke-miterlimit:4;" d="M 0.049863 0.0000507548 L 9.229142 0.0000507548 " transform="matrix(6.218149,0,0,6.218149,4.561038,21.862966)"/>
<path style="fill:none;stroke-width:0.1;stroke-linecap:round;stroke-linejoin:round;stroke:rgb(0%,0%,0%);stroke-opacity:1;stroke-miterlimit:4;" d="M 0.049863 -0.0000458938 L 9.229142 -0.0000458938 " transform="matrix(6.218149,0,0,6.218149,4.561038,15.644817)"/>
<path style=" stroke:none;fill-rule:nonzero;fill:rgb(0%,0%,0%);fill-opacity:1;" d="M 42.1875 46.113281 L 53.105469 46.113281 C 53.449219 46.113281 53.730469 46.390625 53.730469 46.734375 C 53.730469 47.078125 53.449219 47.355469 53.105469 47.355469 L 42.1875 47.355469 C 41.84375 47.355469 41.5625 47.078125 41.5625 46.734375 C 41.5625 46.390625 41.84375 46.113281 42.1875 46.113281 Z M 42.1875 46.113281 "/>
<path style=" stroke:none;fill-rule:nonzero;fill:rgb(0%,0%,0%);fill-opacity:1;" d="M 51.140625 15.644531 L 51.453125 15.644531 C 51.589844 15.644531 51.699219 15.757812 51.699219 15.894531 L 51.699219 48.4375 C 51.699219 48.574219 51.589844 48.6875 51.453125 48.6875 L 51.140625 48.6875 C 51.003906 48.6875 50.890625 48.574219 50.890625 48.4375 L 50.890625 15.894531 C 50.890625 15.757812 51.003906 15.644531 51.140625 15.644531 Z M 51.140625 15.644531 "/>
<path style=" stroke:none;fill-rule:nonzero;fill:rgb(0%,0%,0%);fill-opacity:1;" d="M 39.949219 45.167969 C 39.949219 45.417969 39.75 45.640625 39.5 45.640625 C 39.25 45.640625 39.027344 45.417969 39.027344 45.167969 L 39.027344 41.5625 L 36.960938 42.332031 L 36.960938 46.261719 C 36.960938 46.511719 36.738281 46.734375 36.488281 46.734375 C 36.242188 46.734375 36.042969 46.511719 36.042969 46.261719 L 36.042969 42.65625 L 35.246094 42.953125 C 35.195312 42.980469 35.121094 42.980469 35.070312 42.980469 C 34.796875 42.980469 34.574219 42.757812 34.574219 42.480469 L 34.574219 40.988281 C 34.574219 40.789062 34.699219 40.59375 34.898438 40.515625 L 36.042969 40.121094 L 36.042969 36.140625 L 35.246094 36.414062 C 35.195312 36.4375 35.121094 36.4375 35.070312 36.4375 C 34.796875 36.4375 34.574219 36.214844 34.574219 35.941406 L 34.574219 34.449219 C 34.574219 34.25 34.699219 34.074219 34.898438 34 L 36.042969 33.578125 L 36.042969 29.648438 C 36.042969 29.398438 36.242188 29.175781 36.488281 29.175781 C 36.738281 29.175781 36.960938 29.398438 36.960938 29.648438 L 36.960938 33.253906 L 39.027344 32.484375 L 39.027344 28.554688 C 39.027344 28.304688 39.25 28.082031 39.5 28.082031 C 39.75 28.082031 39.949219 28.304688 39.949219 28.554688 L 39.949219 32.160156 L 40.742188 31.863281 C 40.792969 31.835938 40.867188 31.835938 40.917969 31.835938 C 41.191406 31.835938 41.414062 32.0625 41.414062 32.335938 L 41.414062 33.828125 C 41.414062 34.027344 41.289062 34.226562 41.089844 34.300781 L 39.949219 34.695312 L 39.949219 38.675781 L 40.742188 38.402344 C 40.792969 38.378906 40.867188 38.378906 40.917969 38.378906 C 41.191406 38.378906 41.414062 38.601562 41.414062 38.875 L 41.414062 40.367188 C 41.414062 40.566406 41.289062 40.742188 41.089844 40.816406 L 39.949219 41.238281 Z M 36.960938 35.792969 L 36.960938 39.769531 L 39.027344 39.023438 L 39.027344 35.046875 Z M 36.960938 35.792969 "/>
<path style=" stroke:none;fill-rule:nonzero;fill:rgb(0%,0%,0%);fill-opacity:1;" d="M 30.632812 48.824219 L 30.609375 50.464844 L 30.609375 50.738281 C 30.609375 51.289062 30.632812 51.835938 30.707031 52.382812 C 31.828125 51.4375 33.023438 50.390625 33.023438 48.925781 C 33.023438 48.105469 32.671875 47.257812 31.953125 47.257812 C 31.179688 47.257812 30.660156 48.003906 30.632812 48.824219 Z M 29.589844 53.277344 L 29.289062 38.476562 C 29.488281 38.351562 29.738281 38.277344 29.960938 38.277344 C 30.1875 38.277344 30.433594 38.351562 30.632812 38.476562 L 30.460938 47.058594 C 31.082031 46.535156 31.902344 46.214844 32.722656 46.214844 C 34.015625 46.214844 34.9375 47.40625 34.9375 48.75 C 34.9375 50.738281 32.796875 51.660156 31.28125 52.953125 C 30.90625 53.277344 30.683594 53.898438 30.160156 53.898438 C 29.835938 53.898438 29.589844 53.625 29.589844 53.277344 Z M 29.589844 53.277344 "/>
<path style=" stroke:none;fill-rule:nonzero;fill:rgb(0%,0%,0%);fill-opacity:1;" d="M 16.152344 50.09375 L 16.003906 50.09375 C 13.316406 50.09375 11.152344 47.90625 11.152344 45.195312 C 11.152344 43.75 12.46875 42.632812 13.9375 42.632812 C 15.28125 42.632812 16.300781 43.800781 16.300781 45.195312 C 16.300781 46.488281 15.230469 47.554688 13.9375 47.554688 C 13.664062 47.554688 13.414062 47.507812 13.167969 47.40625 C 13.8125 48.378906 14.859375 49.023438 16.078125 49.023438 L 16.175781 49.023438 Z M 21 39.347656 C 22.691406 38.75 23.8125 36.984375 23.8125 35.269531 C 23.8125 33.03125 22.171875 30.816406 19.507812 30.542969 C 20.105469 33.429688 20.652344 36.289062 21 39.347656 Z M 11.375 33.601562 C 11.375 36.960938 14.585938 39.746094 17.941406 39.746094 C 18.640625 39.746094 19.308594 39.695312 19.980469 39.597656 C 19.632812 36.4375 19.0625 33.503906 18.414062 30.542969 C 16.449219 30.742188 15.332031 32.0625 15.332031 33.503906 C 15.332031 34.597656 15.953125 35.765625 17.34375 36.5625 C 17.46875 36.6875 17.519531 36.8125 17.519531 36.9375 C 17.519531 37.210938 17.269531 37.484375 16.972656 37.484375 C 16.898438 37.484375 16.824219 37.457031 16.75 37.433594 C 14.757812 36.363281 13.839844 34.574219 13.839844 32.832031 C 13.839844 30.644531 15.28125 28.503906 17.816406 27.933594 C 17.46875 26.488281 17.097656 25.023438 16.675781 23.578125 C 14.011719 26.589844 11.375 29.625 11.375 33.601562 Z M 17.867188 40.816406 C 13.191406 40.816406 9.585938 36.539062 9.585938 31.511719 C 9.585938 27.109375 12.84375 23.902344 15.753906 20.542969 C 15.28125 19.003906 14.832031 17.4375 14.632812 15.820312 C 14.484375 14.527344 14.460938 13.230469 14.460938 11.9375 C 14.460938 9.078125 15.828125 6.367188 18.167969 4.675781 C 18.316406 4.550781 18.515625 4.550781 18.664062 4.675781 C 20.429688 6.765625 21.972656 10.769531 21.972656 13.582031 C 21.972656 17.136719 19.832031 19.921875 17.496094 22.632812 C 18.015625 24.324219 18.464844 26.066406 18.886719 27.78125 C 18.988281 27.78125 19.113281 27.757812 19.210938 27.757812 C 23.066406 27.757812 25.578125 30.941406 25.578125 34.25 C 25.578125 36.140625 24.757812 38.078125 22.917969 39.472656 C 22.371094 39.894531 21.746094 40.167969 21.101562 40.367188 C 21.175781 41.238281 21.226562 42.109375 21.226562 42.980469 C 21.226562 43.453125 21.199219 43.949219 21.175781 44.421875 C 21 47.382812 18.988281 50.019531 16.152344 50.09375 L 16.175781 49.023438 C 18.488281 48.972656 19.980469 46.734375 20.132812 44.273438 C 20.15625 43.824219 20.179688 43.351562 20.179688 42.90625 C 20.179688 42.132812 20.15625 41.386719 20.082031 40.617188 C 19.359375 40.742188 18.640625 40.816406 17.867188 40.816406 Z M 20.179688 11.515625 C 20.179688 10.148438 20.082031 9.550781 19.683594 8.308594 C 17.222656 9.5 15.652344 12.011719 15.652344 14.75 C 15.652344 16.589844 16.101562 18.058594 16.550781 19.574219 C 18.539062 17.160156 20.179688 14.648438 20.179688 11.515625 Z M 20.179688 11.515625 "/>
<path style=" stroke:none;fill-rule:nonzero;fill:rgb(0%,0%,0%);fill-opacity:1;" d="M 49.011719 34.027344 C 50.382812 34.027344 51.699219 34.722656 51.699219 36.238281 C 51.699219 38.003906 50.332031 39.25 49.164062 39.945312 C 48.292969 40.46875 47.296875 40.789062 46.277344 40.789062 C 44.910156 40.789062 43.589844 40.09375 43.589844 38.578125 C 43.589844 36.8125 44.960938 35.566406 46.128906 34.871094 C 47 34.347656 47.992188 34.027344 49.011719 34.027344 Z M 49.011719 34.027344 "/>
<path style=" stroke:none;fill-rule:nonzero;fill:rgb(0%,0%,0%);fill-opacity:1;" d="M 49.011719 40.242188 C 50.382812 40.242188 51.699219 40.941406 51.699219 42.457031 C 51.699219 44.222656 50.332031 45.46875 49.164062 46.164062 C 48.292969 46.6875 47.296875 47.007812 46.277344 47.007812 C 44.910156 47.007812 43.589844 46.3125 43.589844 44.796875 C 43.589844 43.03125 44.960938 41.785156 46.128906 41.089844 C 47 40.566406 47.992188 40.242188 49.011719 40.242188 Z M 49.011719 40.242188 "/>
<path style=" stroke:none;fill-rule:nonzero;fill:rgb(0%,0%,0%);fill-opacity:1;" d="M 49.011719 46.460938 C 50.382812 46.460938 51.699219 47.160156 51.699219 48.675781 C 51.699219 50.441406 50.332031 51.683594 49.164062 52.382812 C 48.292969 52.902344 47.296875 53.226562 46.277344 53.226562 C 44.910156 53.226562 43.589844 52.53125 43.589844 51.011719 C 43.589844 49.246094 44.960938 48.003906 46.128906 47.308594 C 47 46.785156 47.992188 46.460938 49.011719 46.460938 Z M 49.011719 46.460938 "/>
</g>
</svg>
