<?xml version="1.0" encoding="UTF-8"?>
<svg xmlns="http://www.w3.org/2000/svg" xmlns:xlink="http://www.w3.org/1999/xlink" width="79.654431pt" height="65.857349pt" viewBox="0 0 79.654431 65.857349" version="1.1">
<g id="surface1">
<path style="fill:none;stroke-width:0.1;stroke-linecap:round;stroke-linejoin:round;stroke:rgb(0%,0%,0%);stroke-opacity:1;stroke-miterlimit:4;" d="M 0.049863 -0.000242111 L 10.435917 -0.000242111 " transform="matrix(6.218149,0,0,6.218149,4.561038,56.560099)"/>
<path style="fill:none;stroke-width:0.1;stroke-linecap:round;stroke-linejoin:round;stroke:rgb(0%,0%,0%);stroke-opacity:1;stroke-miterlimit:4;" d="M 0.049863 0.000289441 L 10.435917 0.000289441 " transform="matrix(6.218149,0,0,6.218149,4.561038,50.34195)"/>
<path style="fill:none;stroke-width:0.1;stroke-linecap:round;stroke-linejoin:round;stroke:rgb(0%,0%,0%);stroke-opacity:1;stroke-miterlimit:4;" d="M 0.049863 0.000192316 L 10.435917 0.000192316 " transform="matrix(6.218149,0,0,6.218149,4.561038,44.123804)"/>
<path style="fill:none;stroke-width:0.1;stroke-linecap:round;stroke-linejoin:round;stroke:rgb(0%,0%,0%);stroke-opacity:1;stroke-miterlimit:4;" d="M 0.049863 0.0000956673 L 10.435917 0.0000956673 " transform="matrix(6.218149,0,0,6.218149,4.561038,37.905655)"/>
<path style="fill:none;stroke-width:0.1;stroke-linecap:round;stroke-linejoin:round;stroke:rgb(0%,0%,0%);stroke-opacity:1;stroke-miterlimit:4;" d="M 0.049863 -0.000000981293 L 10.435917 -0.000000981293 " transform="matrix(6.218149,0,0,6.218149,4.561038,31.687506)"/>
<path style=" stroke:none;fill-rule:nonzero;fill:rgb(0%,0%,0%);fill-opacity:1;" d="M 50.628906 18.628906 L 60.609375 18.628906 C 60.953125 18.628906 61.234375 18.90625 61.234375 19.25 C 61.234375 19.59375 60.953125 19.871094 60.609375 19.871094 L 50.628906 19.871094 C 50.285156 19.871094 50.007812 19.59375 50.007812 19.25 C 50.007812 18.90625 50.285156 18.628906 50.628906 18.628906 Z M 50.628906 18.628906 "/>
<path style=" stroke:none;fill-rule:nonzero;fill:rgb(0%,0%,0%);fill-opacity:1;" d="M 49.691406 24.847656 L 60.609375 24.847656 C 60.953125 24.847656 61.234375 25.125 61.234375 25.46875 C 61.234375 25.8125 60.953125 26.089844 60.609375 26.089844 L 49.691406 26.089844 C 49.347656 26.089844 49.066406 25.8125 49.066406 25.46875 C 49.066406 25.125 49.347656 24.847656 49.691406 24.847656 Z M 49.691406 24.847656 "/>
<path style=" stroke:none;fill-rule:nonzero;fill:rgb(0%,0%,0%);fill-opacity:1;" d="M 51.34375 17.300781 L 51.65625 17.300781 C 51.792969 17.300781 51.902344 17.410156 51.902344 17.546875 L 51.902344 56.3125 C 51.902344 56.449219 51.792969 56.558594 51.65625 56.558594 L 51.34375 56.558594 C 51.207031 56.558594 51.09375 56.449219 51.09375 56.3125 L 51.09375 17.546875 C 51.09375 17.410156 51.207031 17.300781 51.34375 17.300781 Z M 51.34375 17.300781 "/>
<path style=" stroke:none;fill-rule:nonzero;fill:rgb(0%,0%,0%);fill-opacity:1;" d="M 44.617188 15.121094 L 44.589844 16.765625 L 44.589844 17.039062 C 44.589844 17.585938 44.617188 18.132812 44.691406 18.679688 C 45.808594 17.734375 47.003906 16.6875 47.003906 15.222656 C 47.003906 14.402344 46.65625 13.554688 45.933594 13.554688 C 45.164062 13.554688 44.640625 14.300781 44.617188 15.121094 Z M 43.570312 19.574219 L 43.273438 4.773438 C 43.472656 4.652344 43.71875 4.578125 43.945312 4.578125 C 44.167969 4.578125 44.417969 4.652344 44.617188 4.773438 L 44.441406 13.355469 C 45.0625 12.835938 45.882812 12.511719 46.707031 12.511719 C 48 12.511719 48.917969 13.703125 48.917969 15.046875 C 48.917969 17.039062 46.78125 17.957031 45.261719 19.25 C 44.890625 19.574219 44.664062 20.195312 44.144531 20.195312 C 43.820312 20.195312 43.570312 19.921875 43.570312 19.574219 Z M 43.570312 19.574219 "/>
<path style=" stroke:none;fill-rule:nonzero;fill:rgb(0%,0%,0%);fill-opacity:1;" d="M 37.960938 21.339844 L 37.9375 22.980469 L 37.9375 23.253906 C 37.9375 23.804688 37.960938 24.351562 38.035156 24.898438 C 39.15625 23.953125 40.347656 22.90625 40.347656 21.441406 C 40.347656 20.621094 40 19.773438 39.28125 19.773438 C 38.507812 19.773438 37.984375 20.519531 37.960938 21.339844 Z M 36.917969 25.792969 L 36.617188 10.992188 C 36.816406 10.871094 37.066406 10.792969 37.289062 10.792969 C 37.511719 10.792969 37.761719 10.871094 37.960938 10.992188 L 37.785156 19.574219 C 38.410156 19.050781 39.230469 18.730469 40.050781 18.730469 C 41.34375 18.730469 42.265625 19.921875 42.265625 21.265625 C 42.265625 23.253906 40.125 24.175781 38.609375 25.46875 C 38.234375 25.792969 38.011719 26.414062 37.488281 26.414062 C 37.164062 26.414062 36.917969 26.140625 36.917969 25.792969 Z M 36.917969 25.792969 "/>
<path style=" stroke:none;fill-rule:nonzero;fill:rgb(0%,0%,0%);fill-opacity:1;" d="M 31.371094 27.558594 L 31.34375 29.199219 L 31.34375 29.472656 C 31.34375 30.019531 31.371094 30.566406 31.445312 31.117188 C 32.5625 30.171875 33.757812 29.125 33.757812 27.65625 C 33.757812 26.835938 33.410156 25.992188 32.6875 25.992188 C 31.917969 25.992188 31.394531 26.738281 31.371094 27.558594 Z M 30.324219 32.011719 L 30.027344 17.210938 C 30.226562 17.085938 30.472656 17.011719 30.699219 17.011719 C 30.921875 17.011719 31.171875 17.085938 31.371094 17.210938 L 31.195312 25.792969 C 31.816406 25.269531 32.636719 24.945312 33.460938 24.945312 C 34.753906 24.945312 35.671875 26.140625 35.671875 27.484375 C 35.671875 29.472656 33.535156 30.394531 32.015625 31.6875 C 31.644531 32.011719 31.417969 32.632812 30.898438 32.632812 C 30.574219 32.632812 30.324219 32.359375 30.324219 32.011719 Z M 30.324219 32.011719 "/>
<path style=" stroke:none;fill-rule:nonzero;fill:rgb(0%,0%,0%);fill-opacity:1;" d="M 44.617188 33.777344 L 44.589844 35.417969 L 44.589844 35.691406 C 44.589844 36.238281 44.617188 36.785156 44.691406 37.332031 C 45.808594 36.386719 47.003906 35.34375 47.003906 33.875 C 47.003906 33.054688 46.65625 32.210938 45.933594 32.210938 C 45.164062 32.210938 44.640625 32.957031 44.617188 33.777344 Z M 43.570312 38.230469 L 43.273438 23.429688 C 43.472656 23.304688 43.71875 23.230469 43.945312 23.230469 C 44.167969 23.230469 44.417969 23.304688 44.617188 23.429688 L 44.441406 32.011719 C 45.0625 31.488281 45.882812 31.164062 46.707031 31.164062 C 48 31.164062 48.917969 32.359375 48.917969 33.703125 C 48.917969 35.691406 46.78125 36.613281 45.261719 37.90625 C 44.890625 38.230469 44.664062 38.851562 44.144531 38.851562 C 43.820312 38.851562 43.570312 38.578125 43.570312 38.230469 Z M 43.570312 38.230469 "/>
<path style=" stroke:none;fill-rule:nonzero;fill:rgb(0%,0%,0%);fill-opacity:1;" d="M 23.390625 41.015625 C 23.390625 40.316406 23.960938 39.746094 24.65625 39.746094 C 25.355469 39.746094 25.925781 40.316406 25.925781 41.015625 C 25.925781 41.710938 25.355469 42.285156 24.65625 42.285156 C 23.960938 42.285156 23.390625 41.710938 23.390625 41.015625 Z M 23.390625 34.796875 C 23.390625 34.101562 23.960938 33.527344 24.65625 33.527344 C 25.355469 33.527344 25.925781 34.101562 25.925781 34.796875 C 25.925781 35.492188 25.355469 36.066406 24.65625 36.066406 C 23.960938 36.066406 23.390625 35.492188 23.390625 34.796875 Z M 15.304688 31.363281 C 19.585938 31.363281 22.59375 33.554688 22.59375 37.605469 C 22.59375 44.148438 16.050781 47.90625 9.757812 50.566406 C 9.683594 50.640625 9.609375 50.664062 9.535156 50.664062 C 9.363281 50.664062 9.210938 50.515625 9.210938 50.34375 C 9.210938 50.265625 9.238281 50.191406 9.3125 50.117188 C 14.335938 47.183594 19.558594 43.527344 19.558594 37.855469 C 19.558594 34.871094 17.992188 32.011719 15.304688 32.011719 C 13.464844 32.011719 12.097656 33.355469 11.476562 35.144531 C 11.75 35.019531 12.023438 34.945312 12.320312 34.945312 C 13.6875 34.945312 14.808594 36.066406 14.808594 37.433594 C 14.808594 38.875 13.714844 40.070312 12.320312 40.070312 C 10.828125 40.070312 9.535156 38.902344 9.535156 37.433594 C 9.535156 34.125 12.074219 31.363281 15.304688 31.363281 Z M 15.304688 31.363281 "/>
<path style=" stroke:none;fill-rule:nonzero;fill:rgb(0%,0%,0%);fill-opacity:1;" d="M 56.515625 12.757812 C 57.886719 12.757812 59.203125 13.457031 59.203125 14.972656 C 59.203125 16.738281 57.835938 17.984375 56.667969 18.679688 C 55.796875 19.203125 54.800781 19.523438 53.78125 19.523438 C 52.414062 19.523438 51.09375 18.828125 51.09375 17.3125 C 51.09375 15.546875 52.464844 14.300781 53.632812 13.605469 C 54.503906 13.082031 55.496094 12.757812 56.515625 12.757812 Z M 56.515625 12.757812 "/>
<path style=" stroke:none;fill-rule:nonzero;fill:rgb(0%,0%,0%);fill-opacity:1;" d="M 56.515625 18.976562 C 57.886719 18.976562 59.203125 19.675781 59.203125 21.191406 C 59.203125 22.957031 57.835938 24.199219 56.667969 24.898438 C 55.796875 25.417969 54.800781 25.742188 53.78125 25.742188 C 52.414062 25.742188 51.09375 25.046875 51.09375 23.527344 C 51.09375 21.761719 52.464844 20.519531 53.632812 19.824219 C 54.503906 19.300781 55.496094 18.976562 56.515625 18.976562 Z M 56.515625 18.976562 "/>
<path style=" stroke:none;fill-rule:nonzero;fill:rgb(0%,0%,0%);fill-opacity:1;" d="M 56.515625 25.195312 C 57.886719 25.195312 59.203125 25.890625 59.203125 27.410156 C 59.203125 29.175781 57.835938 30.417969 56.667969 31.117188 C 55.796875 31.636719 54.800781 31.960938 53.78125 31.960938 C 52.414062 31.960938 51.09375 31.265625 51.09375 29.746094 C 51.09375 27.980469 52.464844 26.738281 53.632812 26.042969 C 54.503906 25.519531 55.496094 25.195312 56.515625 25.195312 Z M 56.515625 25.195312 "/>
<path style=" stroke:none;fill-rule:nonzero;fill:rgb(0%,0%,0%);fill-opacity:1;" d="M 56.515625 31.414062 C 57.886719 31.414062 59.203125 32.109375 59.203125 33.628906 C 59.203125 35.394531 57.835938 36.636719 56.667969 37.332031 C 55.796875 37.855469 54.800781 38.179688 53.78125 38.179688 C 52.414062 38.179688 51.09375 37.484375 51.09375 35.964844 C 51.09375 34.199219 52.464844 32.957031 53.632812 32.257812 C 54.503906 31.738281 55.496094 31.414062 56.515625 31.414062 Z M 56.515625 31.414062 "/>
</g>
</svg>
