<?xml version="1.0" encoding="UTF-8"?>
<svg xmlns="http://www.w3.org/2000/svg" xmlns:xlink="http://www.w3.org/1999/xlink" width="72.614154pt" height="61.097157pt" viewBox="0 0 72.614154 61.097157" version="1.1">
<g id="surface1">
<path style="fill:none;stroke-width:0.1;stroke-linecap:round;stroke-linejoin:round;stroke:rgb(0%,0%,0%);stroke-opacity:1;stroke-miterlimit:4;" d="M 0.049863 0.0000956673 L 9.376141 0.0000956673 " transform="matrix(6.218149,0,0,6.218149,4.561038,37.905655)"/>
<path style="fill:none;stroke-width:0.1;stroke-linecap:round;stroke-linejoin:round;stroke:rgb(0%,0%,0%);stroke-opacity:1;stroke-miterlimit:4;" d="M 0.049863 -0.000000981293 L 9.376141 -0.000000981293 " transform="matrix(6.218149,0,0,6.218149,4.561038,31.687506)"/>
<path style="fill:none;stroke-width:0.1;stroke-linecap:round;stroke-linejoin:round;stroke:rgb(0%,0%,0%);stroke-opacity:1;stroke-miterlimit:4;" d="M 0.049863 -0.0000976299 L 9.376141 -0.0000976299 " transform="matrix(6.218149,0,0,6.218149,4.561038,25.469357)"/>
<path style="fill:none;stroke-width:0.1;stroke-linecap:round;stroke-linejoin:round;stroke:rgb(0%,0%,0%);stroke-opacity:1;stroke-miterlimit:4;" d="M 0.049863 -0.00019404 L 9.376141 -0.00019404 " transform="matrix(6.218149,0,0,6.218149,4.561038,19.251207)"/>
<path style="fill:none;stroke-width:0.1;stroke-linecap:round;stroke-linejoin:round;stroke:rgb(0%,0%,0%);stroke-opacity:1;stroke-miterlimit:4;" d="M 0.049863 -0.000290689 L 9.376141 -0.000290689 " transform="matrix(6.218149,0,0,6.218149,4.561038,13.033058)"/>
<path style=" stroke:none;fill-rule:nonzero;fill:rgb(0%,0%,0%);fill-opacity:1;" d="M 44.753906 17.300781 L 45.0625 17.300781 C 45.199219 17.300781 45.3125 17.410156 45.3125 17.546875 L 45.3125 52.164062 C 45.3125 52.304688 45.199219 52.414062 45.0625 52.414062 L 44.753906 52.414062 C 44.617188 52.414062 44.503906 52.304688 44.503906 52.164062 L 44.503906 17.546875 C 44.503906 17.410156 44.617188 17.300781 44.753906 17.300781 Z M 44.753906 17.300781 "/>
<path style=" stroke:none;fill-rule:nonzero;fill:rgb(0%,0%,0%);fill-opacity:1;" d="M 38.023438 15.121094 L 38 16.765625 L 38 17.039062 C 38 17.585938 38.023438 18.132812 38.097656 18.679688 C 39.21875 17.734375 40.414062 16.6875 40.414062 15.222656 C 40.414062 14.402344 40.0625 13.554688 39.34375 13.554688 C 38.570312 13.554688 38.050781 14.300781 38.023438 15.121094 Z M 36.980469 19.574219 L 36.679688 4.773438 C 36.878906 4.652344 37.128906 4.578125 37.351562 4.578125 C 37.578125 4.578125 37.824219 4.652344 38.023438 4.773438 L 37.851562 13.355469 C 38.472656 12.835938 39.292969 12.511719 40.113281 12.511719 C 41.40625 12.511719 42.328125 13.703125 42.328125 15.046875 C 42.328125 17.039062 40.1875 17.957031 38.671875 19.25 C 38.296875 19.574219 38.074219 20.195312 37.550781 20.195312 C 37.230469 20.195312 36.980469 19.921875 36.980469 19.574219 Z M 36.980469 19.574219 "/>
<path style=" stroke:none;fill-rule:nonzero;fill:rgb(0%,0%,0%);fill-opacity:1;" d="M 31.371094 21.339844 L 31.34375 22.980469 L 31.34375 23.253906 C 31.34375 23.804688 31.371094 24.351562 31.445312 24.898438 C 32.5625 23.953125 33.757812 22.90625 33.757812 21.441406 C 33.757812 20.621094 33.410156 19.773438 32.6875 19.773438 C 31.917969 19.773438 31.394531 20.519531 31.371094 21.339844 Z M 30.324219 25.792969 L 30.027344 10.992188 C 30.226562 10.871094 30.472656 10.792969 30.699219 10.792969 C 30.921875 10.792969 31.171875 10.871094 31.371094 10.992188 L 31.195312 19.574219 C 31.816406 19.050781 32.636719 18.730469 33.460938 18.730469 C 34.753906 18.730469 35.671875 19.921875 35.671875 21.265625 C 35.671875 23.253906 33.535156 24.175781 32.015625 25.46875 C 31.644531 25.792969 31.417969 26.414062 30.898438 26.414062 C 30.574219 26.414062 30.324219 26.140625 30.324219 25.792969 Z M 30.324219 25.792969 "/>
<path style=" stroke:none;fill-rule:nonzero;fill:rgb(0%,0%,0%);fill-opacity:1;" d="M 38.023438 33.777344 L 38 35.417969 L 38 35.691406 C 38 36.238281 38.023438 36.785156 38.097656 37.332031 C 39.21875 36.386719 40.414062 35.34375 40.414062 33.875 C 40.414062 33.054688 40.0625 32.210938 39.34375 32.210938 C 38.570312 32.210938 38.050781 32.957031 38.023438 33.777344 Z M 36.980469 38.230469 L 36.679688 23.429688 C 36.878906 23.304688 37.128906 23.230469 37.351562 23.230469 C 37.578125 23.230469 37.824219 23.304688 38.023438 23.429688 L 37.851562 32.011719 C 38.472656 31.488281 39.292969 31.164062 40.113281 31.164062 C 41.40625 31.164062 42.328125 32.359375 42.328125 33.703125 C 42.328125 35.691406 40.1875 36.613281 38.671875 37.90625 C 38.296875 38.230469 38.074219 38.851562 37.550781 38.851562 C 37.230469 38.851562 36.980469 38.578125 36.980469 38.230469 Z M 36.980469 38.230469 "/>
<path style=" stroke:none;fill-rule:nonzero;fill:rgb(0%,0%,0%);fill-opacity:1;" d="M 23.390625 22.359375 C 23.390625 21.664062 23.960938 21.089844 24.65625 21.089844 C 25.355469 21.089844 25.925781 21.664062 25.925781 22.359375 C 25.925781 23.058594 25.355469 23.628906 24.65625 23.628906 C 23.960938 23.628906 23.390625 23.058594 23.390625 22.359375 Z M 23.390625 16.140625 C 23.390625 15.445312 23.960938 14.875 24.65625 14.875 C 25.355469 14.875 25.925781 15.445312 25.925781 16.140625 C 25.925781 16.839844 25.355469 17.410156 24.65625 17.410156 C 23.960938 17.410156 23.390625 16.839844 23.390625 16.140625 Z M 15.304688 12.710938 C 19.585938 12.710938 22.59375 14.898438 22.59375 18.953125 C 22.59375 25.496094 16.050781 29.25 9.757812 31.910156 C 9.683594 31.984375 9.609375 32.011719 9.535156 32.011719 C 9.363281 32.011719 9.210938 31.863281 9.210938 31.6875 C 9.210938 31.613281 9.238281 31.539062 9.3125 31.464844 C 14.335938 28.527344 19.558594 24.871094 19.558594 19.203125 C 19.558594 16.214844 17.992188 13.355469 15.304688 13.355469 C 13.464844 13.355469 12.097656 14.699219 11.476562 16.492188 C 11.75 16.367188 12.023438 16.292969 12.320312 16.292969 C 13.6875 16.292969 14.808594 17.410156 14.808594 18.777344 C 14.808594 20.222656 13.714844 21.414062 12.320312 21.414062 C 10.828125 21.414062 9.535156 20.246094 9.535156 18.777344 C 9.535156 15.46875 12.074219 12.710938 15.304688 12.710938 Z M 15.304688 12.710938 "/>
<path style=" stroke:none;fill-rule:nonzero;fill:rgb(0%,0%,0%);fill-opacity:1;" d="M 49.925781 12.757812 C 51.292969 12.757812 52.613281 13.457031 52.613281 14.972656 C 52.613281 16.738281 51.246094 17.984375 50.074219 18.679688 C 49.203125 19.203125 48.210938 19.523438 47.191406 19.523438 C 45.820312 19.523438 44.503906 18.828125 44.503906 17.3125 C 44.503906 15.546875 45.871094 14.300781 47.039062 13.605469 C 47.910156 13.082031 48.90625 12.757812 49.925781 12.757812 Z M 49.925781 12.757812 "/>
<path style=" stroke:none;fill-rule:nonzero;fill:rgb(0%,0%,0%);fill-opacity:1;" d="M 49.925781 18.976562 C 51.292969 18.976562 52.613281 19.675781 52.613281 21.191406 C 52.613281 22.957031 51.246094 24.199219 50.074219 24.898438 C 49.203125 25.417969 48.210938 25.742188 47.191406 25.742188 C 45.820312 25.742188 44.503906 25.046875 44.503906 23.527344 C 44.503906 21.761719 45.871094 20.519531 47.039062 19.824219 C 47.910156 19.300781 48.90625 18.976562 49.925781 18.976562 Z M 49.925781 18.976562 "/>
<path style=" stroke:none;fill-rule:nonzero;fill:rgb(0%,0%,0%);fill-opacity:1;" d="M 49.925781 25.195312 C 51.292969 25.195312 52.613281 25.890625 52.613281 27.410156 C 52.613281 29.175781 51.246094 30.417969 50.074219 31.117188 C 49.203125 31.636719 48.210938 31.960938 47.191406 31.960938 C 45.820312 31.960938 44.503906 31.265625 44.503906 29.746094 C 44.503906 27.980469 45.871094 26.738281 47.039062 26.042969 C 47.910156 25.519531 48.90625 25.195312 49.925781 25.195312 Z M 49.925781 25.195312 "/>
<path style=" stroke:none;fill-rule:nonzero;fill:rgb(0%,0%,0%);fill-opacity:1;" d="M 49.925781 31.414062 C 51.292969 31.414062 52.613281 32.109375 52.613281 33.628906 C 52.613281 35.394531 51.246094 36.636719 50.074219 37.332031 C 49.203125 37.855469 48.210938 38.179688 47.191406 38.179688 C 45.820312 38.179688 44.503906 37.484375 44.503906 35.964844 C 44.503906 34.199219 45.871094 32.957031 47.039062 32.257812 C 47.910156 31.738281 48.90625 31.414062 49.925781 31.414062 Z M 49.925781 31.414062 "/>
</g>
</svg>
