<?xml version="1.0" encoding="UTF-8"?>
<svg xmlns="http://www.w3.org/2000/svg" xmlns:xlink="http://www.w3.org/1999/xlink" width="68.472344pt" height="45.932028pt" viewBox="0 0 68.472344 45.932028" version="1.1">
<g id="surface1">
<path style="fill:none;stroke-width:0.1;stroke-linecap:round;stroke-linejoin:round;stroke:rgb(0%,0%,0%);stroke-opacity:1;stroke-miterlimit:4;" d="M 0.049863 0.0000956673 L 8.752337 0.0000956673 " transform="matrix(6.218149,0,0,6.218149,4.561038,37.905655)"/>
<path style="fill:none;stroke-width:0.1;stroke-linecap:round;stroke-linejoin:round;stroke:rgb(0%,0%,0%);stroke-opacity:1;stroke-miterlimit:4;" d="M 0.049863 -0.000000981293 L 8.752337 -0.000000981293 " transform="matrix(6.218149,0,0,6.218149,4.561038,31.687506)"/>
<path style="fill:none;stroke-width:0.1;stroke-linecap:round;stroke-linejoin:round;stroke:rgb(0%,0%,0%);stroke-opacity:1;stroke-miterlimit:4;" d="M 0.049863 -0.0000976299 L 8.752337 -0.0000976299 " transform="matrix(6.218149,0,0,6.218149,4.561038,25.469357)"/>
<path style="fill:none;stroke-width:0.1;stroke-linecap:round;stroke-linejoin:round;stroke:rgb(0%,0%,0%);stroke-opacity:1;stroke-miterlimit:4;" d="M 0.049863 -0.00019404 L 8.752337 -0.00019404 " transform="matrix(6.218149,0,0,6.218149,4.561038,19.251207)"/>
<path style="fill:none;stroke-width:0.1;stroke-linecap:round;stroke-linejoin:round;stroke:rgb(0%,0%,0%);stroke-opacity:1;stroke-miterlimit:4;" d="M 0.049863 -0.000290689 L 8.752337 -0.000290689 " transform="matrix(6.218149,0,0,6.218149,4.561038,13.033058)"/>
<path style=" stroke:none;fill-rule:nonzero;fill:rgb(0%,0%,0%);fill-opacity:1;" d="M 40.875 17.300781 L 41.1875 17.300781 C 41.324219 17.300781 41.433594 17.410156 41.433594 17.546875 L 41.433594 37.65625 C 41.433594 37.792969 41.324219 37.90625 41.1875 37.90625 L 40.875 37.90625 C 40.738281 37.90625 40.625 37.792969 40.625 37.65625 L 40.625 17.546875 C 40.625 17.410156 40.738281 17.300781 40.875 17.300781 Z M 40.875 17.300781 "/>
<path style=" stroke:none;fill-rule:nonzero;fill:rgb(0%,0%,0%);fill-opacity:1;" d="M 34.148438 15.121094 L 34.121094 16.765625 L 34.121094 17.039062 C 34.121094 17.585938 34.148438 18.132812 34.222656 18.679688 C 35.339844 17.734375 36.535156 16.6875 36.535156 15.222656 C 36.535156 14.402344 36.1875 13.554688 35.464844 13.554688 C 34.695312 13.554688 34.171875 14.300781 34.148438 15.121094 Z M 33.101562 19.574219 L 32.804688 4.773438 C 33.003906 4.652344 33.25 4.578125 33.476562 4.578125 C 33.699219 4.578125 33.949219 4.652344 34.148438 4.773438 L 33.972656 13.355469 C 34.59375 12.835938 35.414062 12.511719 36.234375 12.511719 C 37.53125 12.511719 38.449219 13.703125 38.449219 15.046875 C 38.449219 17.039062 36.3125 17.957031 34.792969 19.25 C 34.421875 19.574219 34.195312 20.195312 33.675781 20.195312 C 33.351562 20.195312 33.101562 19.921875 33.101562 19.574219 Z M 33.101562 19.574219 "/>
<path style=" stroke:none;fill-rule:nonzero;fill:rgb(0%,0%,0%);fill-opacity:1;" d="M 23.390625 22.359375 C 23.390625 21.664062 23.960938 21.089844 24.65625 21.089844 C 25.355469 21.089844 25.925781 21.664062 25.925781 22.359375 C 25.925781 23.058594 25.355469 23.628906 24.65625 23.628906 C 23.960938 23.628906 23.390625 23.058594 23.390625 22.359375 Z M 23.390625 16.140625 C 23.390625 15.445312 23.960938 14.875 24.65625 14.875 C 25.355469 14.875 25.925781 15.445312 25.925781 16.140625 C 25.925781 16.839844 25.355469 17.410156 24.65625 17.410156 C 23.960938 17.410156 23.390625 16.839844 23.390625 16.140625 Z M 15.304688 12.710938 C 19.585938 12.710938 22.59375 14.898438 22.59375 18.953125 C 22.59375 25.496094 16.050781 29.25 9.757812 31.910156 C 9.683594 31.984375 9.609375 32.011719 9.535156 32.011719 C 9.363281 32.011719 9.210938 31.863281 9.210938 31.6875 C 9.210938 31.613281 9.238281 31.539062 9.3125 31.464844 C 14.335938 28.527344 19.558594 24.871094 19.558594 19.203125 C 19.558594 16.214844 17.992188 13.355469 15.304688 13.355469 C 13.464844 13.355469 12.097656 14.699219 11.476562 16.492188 C 11.75 16.367188 12.023438 16.292969 12.320312 16.292969 C 13.6875 16.292969 14.808594 17.410156 14.808594 18.777344 C 14.808594 20.222656 13.714844 21.414062 12.320312 21.414062 C 10.828125 21.414062 9.535156 20.246094 9.535156 18.777344 C 9.535156 15.46875 12.074219 12.710938 15.304688 12.710938 Z M 15.304688 12.710938 "/>
<path style=" stroke:none;fill-rule:nonzero;fill:rgb(0%,0%,0%);fill-opacity:1;" d="M 46.046875 12.757812 C 47.417969 12.757812 48.734375 13.457031 48.734375 14.972656 C 48.734375 16.738281 47.367188 17.984375 46.199219 18.679688 C 45.328125 19.203125 44.332031 19.523438 43.3125 19.523438 C 41.945312 19.523438 40.625 18.828125 40.625 17.3125 C 40.625 15.546875 41.996094 14.300781 43.164062 13.605469 C 44.035156 13.082031 45.027344 12.757812 46.046875 12.757812 Z M 46.046875 12.757812 "/>
</g>
</svg>
