<?xml version="1.0" encoding="UTF-8"?>
<svg xmlns="http://www.w3.org/2000/svg" xmlns:xlink="http://www.w3.org/1999/xlink" width="81.536713pt" height="64.987243pt" viewBox="0 0 81.536713 64.987243" version="1.1">
<g id="surface1">
<path style="fill:none;stroke-width:0.1;stroke-linecap:round;stroke-linejoin:round;stroke:rgb(0%,0%,0%);stroke-opacity:1;stroke-miterlimit:4;" d="M 0.049863 -0.000287501 L 10.719236 -0.000287501 " transform="matrix(6.218149,0,0,6.218149,4.561038,40.517413)"/>
<path style="fill:none;stroke-width:0.1;stroke-linecap:round;stroke-linejoin:round;stroke:rgb(0%,0%,0%);stroke-opacity:1;stroke-miterlimit:4;" d="M 0.049863 0.000244052 L 10.719236 0.000244052 " transform="matrix(6.218149,0,0,6.218149,4.561038,34.299264)"/>
<path style="fill:none;stroke-width:0.1;stroke-linecap:round;stroke-linejoin:round;stroke:rgb(0%,0%,0%);stroke-opacity:1;stroke-miterlimit:4;" d="M 0.049863 0.000147403 L 10.719236 0.000147403 " transform="matrix(6.218149,0,0,6.218149,4.561038,28.081115)"/>
<path style="fill:none;stroke-width:0.1;stroke-linecap:round;stroke-linejoin:round;stroke:rgb(0%,0%,0%);stroke-opacity:1;stroke-miterlimit:4;" d="M 0.049863 0.0000507548 L 10.719236 0.0000507548 " transform="matrix(6.218149,0,0,6.218149,4.561038,21.862966)"/>
<path style="fill:none;stroke-width:0.1;stroke-linecap:round;stroke-linejoin:round;stroke:rgb(0%,0%,0%);stroke-opacity:1;stroke-miterlimit:4;" d="M 0.049863 -0.0000458938 L 10.719236 -0.0000458938 " transform="matrix(6.218149,0,0,6.218149,4.561038,15.644817)"/>
<path style=" stroke:none;fill-rule:nonzero;fill:rgb(0%,0%,0%);fill-opacity:1;" d="M 51.453125 46.113281 L 62.371094 46.113281 C 62.714844 46.113281 62.996094 46.390625 62.996094 46.734375 C 62.996094 47.078125 62.714844 47.355469 62.371094 47.355469 L 51.453125 47.355469 C 51.109375 47.355469 50.832031 47.078125 50.832031 46.734375 C 50.832031 46.390625 51.109375 46.113281 51.453125 46.113281 Z M 51.453125 46.113281 "/>
<path style=" stroke:none;fill-rule:nonzero;fill:rgb(0%,0%,0%);fill-opacity:1;" d="M 60.40625 12.535156 L 60.71875 12.535156 C 60.855469 12.535156 60.96875 12.648438 60.96875 12.785156 L 60.96875 45.328125 C 60.96875 45.46875 60.855469 45.578125 60.71875 45.578125 L 60.40625 45.578125 C 60.269531 45.578125 60.160156 45.46875 60.160156 45.328125 L 60.160156 12.785156 C 60.160156 12.648438 60.269531 12.535156 60.40625 12.535156 Z M 60.40625 12.535156 "/>
<path style=" stroke:none;fill-rule:nonzero;fill:rgb(0%,0%,0%);fill-opacity:1;" d="M 47.945312 34.300781 C 48.519531 34.871094 49.339844 34.996094 50.160156 34.996094 C 50.308594 34.996094 50.410156 35.09375 50.410156 35.246094 L 50.632812 37.410156 C 50.65625 37.558594 50.535156 37.683594 50.382812 37.65625 L 48.21875 37.433594 C 48.097656 37.410156 47.972656 37.308594 47.972656 37.183594 C 47.972656 36.363281 47.847656 35.542969 47.273438 34.972656 C 46.703125 35.542969 46.605469 36.363281 46.605469 37.183594 C 46.605469 37.308594 46.480469 37.410156 46.355469 37.433594 L 44.167969 37.65625 C 44.015625 37.683594 43.894531 37.558594 43.917969 37.410156 L 44.140625 35.246094 C 44.140625 35.09375 44.242188 34.996094 44.390625 34.996094 C 45.210938 34.996094 46.03125 34.871094 46.605469 34.300781 C 46.03125 33.726562 45.210938 33.601562 44.390625 33.601562 C 44.242188 33.601562 44.140625 33.503906 44.140625 33.355469 L 43.917969 31.191406 C 43.894531 31.039062 44.015625 30.917969 44.167969 30.941406 L 46.355469 31.164062 C 46.480469 31.191406 46.578125 31.289062 46.578125 31.414062 C 46.578125 32.234375 46.703125 33.054688 47.273438 33.628906 C 47.847656 33.054688 47.972656 32.234375 47.972656 31.414062 C 47.972656 31.289062 48.097656 31.191406 48.21875 31.164062 L 50.382812 30.941406 C 50.535156 30.917969 50.65625 31.039062 50.632812 31.191406 L 50.410156 33.355469 C 50.410156 33.503906 50.308594 33.601562 50.160156 33.601562 C 49.339844 33.601562 48.519531 33.726562 47.945312 34.300781 Z M 47.945312 34.300781 "/>
<path style=" stroke:none;fill-rule:nonzero;fill:rgb(0%,0%,0%);fill-opacity:1;" d="M 34.589844 48.277344 C 34.589844 48.527344 34.390625 48.75 34.140625 48.75 C 33.890625 48.75 33.667969 48.527344 33.667969 48.277344 L 33.667969 44.671875 L 31.605469 45.441406 L 31.605469 49.371094 C 31.605469 49.621094 31.378906 49.84375 31.132812 49.84375 C 30.882812 49.84375 30.683594 49.621094 30.683594 49.371094 L 30.683594 45.765625 L 29.886719 46.0625 C 29.835938 46.089844 29.761719 46.089844 29.714844 46.089844 C 29.441406 46.089844 29.214844 45.863281 29.214844 45.589844 L 29.214844 44.097656 C 29.214844 43.898438 29.339844 43.699219 29.539062 43.625 L 30.683594 43.230469 L 30.683594 39.25 L 29.886719 39.523438 C 29.835938 39.546875 29.761719 39.546875 29.714844 39.546875 C 29.441406 39.546875 29.214844 39.324219 29.214844 39.050781 L 29.214844 37.558594 C 29.214844 37.359375 29.339844 37.183594 29.539062 37.109375 L 30.683594 36.6875 L 30.683594 32.757812 C 30.683594 32.507812 30.882812 32.285156 31.132812 32.285156 C 31.378906 32.285156 31.605469 32.507812 31.605469 32.757812 L 31.605469 36.363281 L 33.667969 35.59375 L 33.667969 31.664062 C 33.667969 31.414062 33.890625 31.191406 34.140625 31.191406 C 34.390625 31.191406 34.589844 31.414062 34.589844 31.664062 L 34.589844 35.269531 L 35.382812 34.972656 C 35.433594 34.945312 35.507812 34.945312 35.558594 34.945312 C 35.832031 34.945312 36.054688 35.167969 36.054688 35.445312 L 36.054688 36.9375 C 36.054688 37.132812 35.929688 37.332031 35.734375 37.410156 L 34.589844 37.804688 L 34.589844 41.785156 L 35.382812 41.511719 C 35.433594 41.488281 35.507812 41.488281 35.558594 41.488281 C 35.832031 41.488281 36.054688 41.710938 36.054688 41.984375 L 36.054688 43.476562 C 36.054688 43.675781 35.929688 43.851562 35.734375 43.925781 L 34.589844 44.347656 Z M 31.605469 38.902344 L 31.605469 42.878906 L 33.667969 42.132812 L 33.667969 38.15625 Z M 31.605469 38.902344 "/>
<path style=" stroke:none;fill-rule:nonzero;fill:rgb(0%,0%,0%);fill-opacity:1;" d="M 42.671875 54.496094 C 42.671875 54.746094 42.472656 54.96875 42.222656 54.96875 C 41.976562 54.96875 41.75 54.746094 41.75 54.496094 L 41.75 50.890625 L 39.6875 51.660156 L 39.6875 55.589844 C 39.6875 55.839844 39.464844 56.0625 39.214844 56.0625 C 38.964844 56.0625 38.765625 55.839844 38.765625 55.589844 L 38.765625 51.984375 L 37.972656 52.28125 C 37.921875 52.308594 37.847656 52.308594 37.796875 52.308594 C 37.523438 52.308594 37.300781 52.082031 37.300781 51.808594 L 37.300781 50.316406 C 37.300781 50.117188 37.425781 49.917969 37.621094 49.84375 L 38.765625 49.445312 L 38.765625 45.46875 L 37.972656 45.742188 C 37.921875 45.765625 37.847656 45.765625 37.796875 45.765625 C 37.523438 45.765625 37.300781 45.542969 37.300781 45.269531 L 37.300781 43.777344 C 37.300781 43.578125 37.425781 43.402344 37.621094 43.328125 L 38.765625 42.90625 L 38.765625 38.976562 C 38.765625 38.726562 38.964844 38.503906 39.214844 38.503906 C 39.464844 38.503906 39.6875 38.726562 39.6875 38.976562 L 39.6875 42.582031 L 41.75 41.8125 L 41.75 37.882812 C 41.75 37.632812 41.976562 37.410156 42.222656 37.410156 C 42.472656 37.410156 42.671875 37.632812 42.671875 37.882812 L 42.671875 41.488281 L 43.46875 41.1875 C 43.519531 41.164062 43.59375 41.164062 43.640625 41.164062 C 43.914062 41.164062 44.140625 41.386719 44.140625 41.660156 L 44.140625 43.152344 C 44.140625 43.351562 44.015625 43.550781 43.816406 43.625 L 42.671875 44.023438 L 42.671875 48.003906 L 43.46875 47.730469 C 43.519531 47.707031 43.59375 47.707031 43.640625 47.707031 C 43.914062 47.707031 44.140625 47.929688 44.140625 48.203125 L 44.140625 49.695312 C 44.140625 49.894531 44.015625 50.070312 43.816406 50.144531 L 42.671875 50.566406 Z M 39.6875 45.117188 L 39.6875 49.097656 L 41.75 48.351562 L 41.75 44.371094 Z M 39.6875 45.117188 "/>
<path style=" stroke:none;fill-rule:nonzero;fill:rgb(0%,0%,0%);fill-opacity:1;" d="M 16.152344 50.09375 L 16.003906 50.09375 C 13.316406 50.09375 11.152344 47.90625 11.152344 45.195312 C 11.152344 43.75 12.46875 42.632812 13.9375 42.632812 C 15.28125 42.632812 16.300781 43.800781 16.300781 45.195312 C 16.300781 46.488281 15.230469 47.554688 13.9375 47.554688 C 13.664062 47.554688 13.414062 47.507812 13.167969 47.40625 C 13.8125 48.378906 14.859375 49.023438 16.078125 49.023438 L 16.175781 49.023438 Z M 21 39.347656 C 22.691406 38.75 23.8125 36.984375 23.8125 35.269531 C 23.8125 33.03125 22.171875 30.816406 19.507812 30.542969 C 20.105469 33.429688 20.652344 36.289062 21 39.347656 Z M 11.375 33.601562 C 11.375 36.960938 14.585938 39.746094 17.941406 39.746094 C 18.640625 39.746094 19.308594 39.695312 19.980469 39.597656 C 19.632812 36.4375 19.0625 33.503906 18.414062 30.542969 C 16.449219 30.742188 15.332031 32.0625 15.332031 33.503906 C 15.332031 34.597656 15.953125 35.765625 17.34375 36.5625 C 17.46875 36.6875 17.519531 36.8125 17.519531 36.9375 C 17.519531 37.210938 17.269531 37.484375 16.972656 37.484375 C 16.898438 37.484375 16.824219 37.457031 16.75 37.433594 C 14.757812 36.363281 13.839844 34.574219 13.839844 32.832031 C 13.839844 30.644531 15.28125 28.503906 17.816406 27.933594 C 17.46875 26.488281 17.097656 25.023438 16.675781 23.578125 C 14.011719 26.589844 11.375 29.625 11.375 33.601562 Z M 17.867188 40.816406 C 13.191406 40.816406 9.585938 36.539062 9.585938 31.511719 C 9.585938 27.109375 12.84375 23.902344 15.753906 20.542969 C 15.28125 19.003906 14.832031 17.4375 14.632812 15.820312 C 14.484375 14.527344 14.460938 13.230469 14.460938 11.9375 C 14.460938 9.078125 15.828125 6.367188 18.167969 4.675781 C 18.316406 4.550781 18.515625 4.550781 18.664062 4.675781 C 20.429688 6.765625 21.972656 10.769531 21.972656 13.582031 C 21.972656 17.136719 19.832031 19.921875 17.496094 22.632812 C 18.015625 24.324219 18.464844 26.066406 18.886719 27.78125 C 18.988281 27.78125 19.113281 27.757812 19.210938 27.757812 C 23.066406 27.757812 25.578125 30.941406 25.578125 34.25 C 25.578125 36.140625 24.757812 38.078125 22.917969 39.472656 C 22.371094 39.894531 21.746094 40.167969 21.101562 40.367188 C 21.175781 41.238281 21.226562 42.109375 21.226562 42.980469 C 21.226562 43.453125 21.199219 43.949219 21.175781 44.421875 C 21 47.382812 18.988281 50.019531 16.152344 50.09375 L 16.175781 49.023438 C 18.488281 48.972656 19.980469 46.734375 20.132812 44.273438 C 20.15625 43.824219 20.179688 43.351562 20.179688 42.90625 C 20.179688 42.132812 20.15625 41.386719 20.082031 40.617188 C 19.359375 40.742188 18.640625 40.816406 17.867188 40.816406 Z M 20.179688 11.515625 C 20.179688 10.148438 20.082031 9.550781 19.683594 8.308594 C 17.222656 9.5 15.652344 12.011719 15.652344 14.75 C 15.652344 16.589844 16.101562 18.058594 16.550781 19.574219 C 18.539062 17.160156 20.179688 14.648438 20.179688 11.515625 Z M 20.179688 11.515625 "/>
<path style=" stroke:none;fill-rule:nonzero;fill:rgb(0%,0%,0%);fill-opacity:1;" d="M 58.28125 30.917969 C 59.648438 30.917969 60.964844 31.613281 60.964844 33.128906 C 60.964844 34.894531 59.597656 36.140625 58.429688 36.835938 C 57.558594 37.359375 56.5625 37.683594 55.542969 37.683594 C 54.175781 37.683594 52.855469 36.984375 52.855469 35.46875 C 52.855469 33.703125 54.226562 32.457031 55.394531 31.761719 C 56.265625 31.238281 57.261719 30.917969 58.28125 30.917969 Z M 58.28125 30.917969 "/>
<path style=" stroke:none;fill-rule:nonzero;fill:rgb(0%,0%,0%);fill-opacity:1;" d="M 58.28125 37.132812 C 59.648438 37.132812 60.964844 37.832031 60.964844 39.347656 C 60.964844 41.113281 59.597656 42.359375 58.429688 43.054688 C 57.558594 43.578125 56.5625 43.898438 55.542969 43.898438 C 54.175781 43.898438 52.855469 43.203125 52.855469 41.6875 C 52.855469 39.921875 54.226562 38.675781 55.394531 37.980469 C 56.265625 37.457031 57.261719 37.132812 58.28125 37.132812 Z M 58.28125 37.132812 "/>
<path style=" stroke:none;fill-rule:nonzero;fill:rgb(0%,0%,0%);fill-opacity:1;" d="M 58.28125 43.351562 C 59.648438 43.351562 60.964844 44.050781 60.964844 45.566406 C 60.964844 47.332031 59.597656 48.574219 58.429688 49.273438 C 57.558594 49.792969 56.5625 50.117188 55.542969 50.117188 C 54.175781 50.117188 52.855469 49.421875 52.855469 47.90625 C 52.855469 46.136719 54.226562 44.894531 55.394531 44.199219 C 56.265625 43.675781 57.261719 43.351562 58.28125 43.351562 Z M 58.28125 43.351562 "/>
</g>
</svg>
