<?xml version="1.0" encoding="UTF-8"?>
<svg xmlns="http://www.w3.org/2000/svg" xmlns:xlink="http://www.w3.org/1999/xlink" width="86.4762pt" height="63.399859pt" viewBox="0 0 86.4762 63.399859" version="1.1">
<g id="surface1">
<path style="fill:none;stroke-width:0.1;stroke-linecap:round;stroke-linejoin:round;stroke:rgb(0%,0%,0%);stroke-opacity:1;stroke-miterlimit:4;" d="M 0.049863 0.000281364 L 11.463026 0.000281364 " transform="matrix(6.218149,0,0,6.218149,4.561038,44.994344)"/>
<path style="fill:none;stroke-width:0.1;stroke-linecap:round;stroke-linejoin:round;stroke:rgb(0%,0%,0%);stroke-opacity:1;stroke-miterlimit:4;" d="M 0.049863 0.000184716 L 11.463026 0.000184716 " transform="matrix(6.218149,0,0,6.218149,4.561038,38.776195)"/>
<path style="fill:none;stroke-width:0.1;stroke-linecap:round;stroke-linejoin:round;stroke:rgb(0%,0%,0%);stroke-opacity:1;stroke-miterlimit:4;" d="M 0.049863 0.0000880672 L 11.463026 0.0000880672 " transform="matrix(6.218149,0,0,6.218149,4.561038,32.558046)"/>
<path style="fill:none;stroke-width:0.1;stroke-linecap:round;stroke-linejoin:round;stroke:rgb(0%,0%,0%);stroke-opacity:1;stroke-miterlimit:4;" d="M 0.049863 -0.00000858141 L 11.463026 -0.00000858141 " transform="matrix(6.218149,0,0,6.218149,4.561038,26.339897)"/>
<path style="fill:none;stroke-width:0.1;stroke-linecap:round;stroke-linejoin:round;stroke:rgb(0%,0%,0%);stroke-opacity:1;stroke-miterlimit:4;" d="M 0.049863 -0.00010523 L 11.463026 -0.00010523 " transform="matrix(6.218149,0,0,6.218149,4.561038,20.121748)"/>
<path style=" stroke:none;fill-rule:nonzero;fill:rgb(0%,0%,0%);fill-opacity:1;" d="M 57.015625 13.28125 L 66.996094 13.28125 C 67.339844 13.28125 67.621094 13.558594 67.621094 13.902344 C 67.621094 14.246094 67.339844 14.527344 66.996094 14.527344 L 57.015625 14.527344 C 56.671875 14.527344 56.394531 14.246094 56.394531 13.902344 C 56.394531 13.558594 56.671875 13.28125 57.015625 13.28125 Z M 57.015625 13.28125 "/>
<path style=" stroke:none;fill-rule:nonzero;fill:rgb(0%,0%,0%);fill-opacity:1;" d="M 57.730469 15.0625 L 58.042969 15.0625 C 58.179688 15.0625 58.289062 15.171875 58.289062 15.308594 L 58.289062 53.035156 C 58.289062 53.171875 58.179688 53.285156 58.042969 53.285156 L 57.730469 53.285156 C 57.59375 53.285156 57.480469 53.171875 57.480469 53.035156 L 57.480469 15.308594 C 57.480469 15.171875 57.59375 15.0625 57.730469 15.0625 Z M 57.730469 15.0625 "/>
<path style=" stroke:none;fill-rule:nonzero;fill:rgb(0%,0%,0%);fill-opacity:1;" d="M 53.839844 21.664062 C 53.839844 21.914062 53.640625 22.136719 53.390625 22.136719 C 53.140625 22.136719 52.917969 21.914062 52.917969 21.664062 L 52.917969 18.058594 L 50.851562 18.828125 L 50.851562 22.757812 C 50.851562 23.007812 50.628906 23.230469 50.378906 23.230469 C 50.132812 23.230469 49.933594 23.007812 49.933594 22.757812 L 49.933594 19.152344 L 49.136719 19.449219 C 49.085938 19.476562 49.011719 19.476562 48.964844 19.476562 C 48.6875 19.476562 48.464844 19.25 48.464844 18.976562 L 48.464844 17.484375 C 48.464844 17.285156 48.589844 17.085938 48.789062 17.011719 L 49.933594 16.613281 L 49.933594 12.636719 L 49.136719 12.910156 C 49.085938 12.933594 49.011719 12.933594 48.964844 12.933594 C 48.6875 12.933594 48.464844 12.710938 48.464844 12.4375 L 48.464844 10.945312 C 48.464844 10.746094 48.589844 10.570312 48.789062 10.496094 L 49.933594 10.074219 L 49.933594 6.144531 C 49.933594 5.894531 50.132812 5.671875 50.378906 5.671875 C 50.628906 5.671875 50.851562 5.894531 50.851562 6.144531 L 50.851562 9.75 L 52.917969 8.980469 L 52.917969 5.050781 C 52.917969 4.800781 53.140625 4.578125 53.390625 4.578125 C 53.640625 4.578125 53.839844 4.800781 53.839844 5.050781 L 53.839844 8.65625 L 54.632812 8.355469 C 54.683594 8.332031 54.757812 8.332031 54.808594 8.332031 C 55.082031 8.332031 55.304688 8.554688 55.304688 8.828125 L 55.304688 10.320312 C 55.304688 10.519531 55.179688 10.71875 54.980469 10.792969 L 53.839844 11.191406 L 53.839844 15.171875 L 54.632812 14.898438 C 54.683594 14.875 54.757812 14.875 54.808594 14.875 C 55.082031 14.875 55.304688 15.097656 55.304688 15.371094 L 55.304688 16.863281 C 55.304688 17.0625 55.179688 17.238281 54.980469 17.3125 L 53.839844 17.734375 Z M 50.851562 12.285156 L 50.851562 16.265625 L 52.917969 15.519531 L 52.917969 11.539062 Z M 50.851562 12.285156 "/>
<path style=" stroke:none;fill-rule:nonzero;fill:rgb(0%,0%,0%);fill-opacity:1;" d="M 41.003906 20.121094 C 41.578125 20.695312 42.398438 20.816406 43.21875 20.816406 C 43.367188 20.816406 43.46875 20.917969 43.46875 21.066406 L 43.691406 23.230469 C 43.714844 23.378906 43.59375 23.503906 43.441406 23.480469 L 41.277344 23.253906 C 41.15625 23.230469 41.03125 23.132812 41.03125 23.007812 C 41.03125 22.1875 40.90625 21.367188 40.335938 20.792969 C 39.761719 21.367188 39.664062 22.1875 39.664062 23.007812 C 39.664062 23.132812 39.539062 23.230469 39.414062 23.253906 L 37.226562 23.480469 C 37.074219 23.503906 36.953125 23.378906 36.976562 23.230469 L 37.199219 21.066406 C 37.199219 20.917969 37.300781 20.816406 37.449219 20.816406 C 38.269531 20.816406 39.089844 20.695312 39.664062 20.121094 C 39.089844 19.550781 38.269531 19.425781 37.449219 19.425781 C 37.300781 19.425781 37.199219 19.324219 37.199219 19.175781 L 36.976562 17.011719 C 36.953125 16.863281 37.074219 16.738281 37.226562 16.765625 L 39.414062 16.988281 C 39.539062 17.011719 39.636719 17.113281 39.636719 17.238281 C 39.636719 18.058594 39.761719 18.878906 40.335938 19.449219 C 40.90625 18.878906 41.03125 18.058594 41.03125 17.238281 C 41.03125 17.113281 41.15625 17.011719 41.277344 16.988281 L 43.441406 16.765625 C 43.59375 16.738281 43.714844 16.863281 43.691406 17.011719 L 43.46875 19.175781 C 43.46875 19.324219 43.367188 19.425781 43.21875 19.425781 C 42.398438 19.425781 41.578125 19.550781 41.003906 20.121094 Z M 41.003906 20.121094 "/>
<path style=" stroke:none;fill-rule:nonzero;fill:rgb(0%,0%,0%);fill-opacity:1;" d="M 32.996094 26.339844 C 33.570312 26.910156 34.390625 27.035156 35.210938 27.035156 C 35.359375 27.035156 35.460938 27.136719 35.460938 27.285156 L 35.683594 29.449219 C 35.707031 29.597656 35.582031 29.722656 35.433594 29.699219 L 33.269531 29.472656 C 33.144531 29.449219 33.023438 29.347656 33.023438 29.226562 C 33.023438 28.40625 32.898438 27.582031 32.324219 27.011719 C 31.753906 27.582031 31.652344 28.40625 31.652344 29.226562 C 31.652344 29.347656 31.527344 29.449219 31.40625 29.472656 L 29.214844 29.699219 C 29.066406 29.722656 28.941406 29.597656 28.96875 29.449219 L 29.191406 27.285156 C 29.191406 27.136719 29.289062 27.035156 29.441406 27.035156 C 30.261719 27.035156 31.082031 26.910156 31.652344 26.339844 C 31.082031 25.769531 30.261719 25.644531 29.441406 25.644531 C 29.289062 25.644531 29.191406 25.542969 29.191406 25.394531 L 28.96875 23.230469 C 28.941406 23.082031 29.066406 22.957031 29.214844 22.980469 L 31.40625 23.207031 C 31.527344 23.230469 31.628906 23.332031 31.628906 23.453125 C 31.628906 24.277344 31.753906 25.097656 32.324219 25.667969 C 32.898438 25.097656 33.023438 24.277344 33.023438 23.453125 C 33.023438 23.332031 33.144531 23.230469 33.269531 23.207031 L 35.433594 22.980469 C 35.582031 22.957031 35.707031 23.082031 35.683594 23.230469 L 35.460938 25.394531 C 35.460938 25.542969 35.359375 25.644531 35.210938 25.644531 C 34.390625 25.644531 33.570312 25.769531 32.996094 26.339844 Z M 32.996094 26.339844 "/>
<path style=" stroke:none;fill-rule:nonzero;fill:rgb(0%,0%,0%);fill-opacity:1;" d="M 48.6875 40.316406 C 48.6875 40.566406 48.492188 40.789062 48.242188 40.789062 C 47.992188 40.789062 47.769531 40.566406 47.769531 40.316406 L 47.769531 36.710938 L 45.703125 37.484375 L 45.703125 41.414062 C 45.703125 41.660156 45.480469 41.886719 45.230469 41.886719 C 44.984375 41.886719 44.785156 41.660156 44.785156 41.414062 L 44.785156 37.804688 L 43.988281 38.105469 C 43.9375 38.128906 43.863281 38.128906 43.8125 38.128906 C 43.539062 38.128906 43.316406 37.90625 43.316406 37.632812 L 43.316406 36.140625 C 43.316406 35.941406 43.441406 35.742188 43.640625 35.667969 L 44.785156 35.269531 L 44.785156 31.289062 L 43.988281 31.5625 C 43.9375 31.589844 43.863281 31.589844 43.8125 31.589844 C 43.539062 31.589844 43.316406 31.363281 43.316406 31.089844 L 43.316406 29.597656 C 43.316406 29.398438 43.441406 29.226562 43.640625 29.152344 L 44.785156 28.726562 L 44.785156 24.796875 C 44.785156 24.550781 44.984375 24.324219 45.230469 24.324219 C 45.480469 24.324219 45.703125 24.550781 45.703125 24.796875 L 45.703125 28.40625 L 47.769531 27.632812 L 47.769531 23.703125 C 47.769531 23.453125 47.992188 23.230469 48.242188 23.230469 C 48.492188 23.230469 48.6875 23.453125 48.6875 23.703125 L 48.6875 27.308594 L 49.484375 27.011719 C 49.535156 26.988281 49.609375 26.988281 49.660156 26.988281 C 49.933594 26.988281 50.15625 27.210938 50.15625 27.484375 L 50.15625 28.976562 C 50.15625 29.175781 50.03125 29.375 49.832031 29.449219 L 48.6875 29.847656 L 48.6875 33.828125 L 49.484375 33.554688 C 49.535156 33.527344 49.609375 33.527344 49.660156 33.527344 C 49.933594 33.527344 50.15625 33.75 50.15625 34.027344 L 50.15625 35.519531 C 50.15625 35.71875 50.03125 35.890625 49.832031 35.964844 L 48.6875 36.386719 Z M 45.703125 30.941406 L 45.703125 34.921875 L 47.769531 34.175781 L 47.769531 30.195312 Z M 45.703125 30.941406 "/>
<path style=" stroke:none;fill-rule:nonzero;fill:rgb(0%,0%,0%);fill-opacity:1;" d="M 16.152344 54.570312 L 16.003906 54.570312 C 13.316406 54.570312 11.152344 52.382812 11.152344 49.671875 C 11.152344 48.226562 12.46875 47.109375 13.9375 47.109375 C 15.28125 47.109375 16.300781 48.277344 16.300781 49.671875 C 16.300781 50.964844 15.230469 52.035156 13.9375 52.035156 C 13.664062 52.035156 13.414062 51.984375 13.167969 51.882812 C 13.8125 52.855469 14.859375 53.5 16.078125 53.5 L 16.175781 53.5 Z M 21 43.824219 C 22.691406 43.226562 23.8125 41.460938 23.8125 39.746094 C 23.8125 37.507812 22.171875 35.292969 19.507812 35.019531 C 20.105469 37.90625 20.652344 40.765625 21 43.824219 Z M 11.375 38.078125 C 11.375 41.4375 14.585938 44.222656 17.941406 44.222656 C 18.640625 44.222656 19.308594 44.171875 19.980469 44.074219 C 19.632812 40.914062 19.0625 37.980469 18.414062 35.019531 C 16.449219 35.21875 15.332031 36.539062 15.332031 37.980469 C 15.332031 39.074219 15.953125 40.242188 17.34375 41.039062 C 17.46875 41.164062 17.519531 41.289062 17.519531 41.414062 C 17.519531 41.6875 17.269531 41.960938 16.972656 41.960938 C 16.898438 41.960938 16.824219 41.933594 16.75 41.910156 C 14.757812 40.839844 13.839844 39.050781 13.839844 37.308594 C 13.839844 35.121094 15.28125 32.980469 17.816406 32.410156 C 17.46875 30.964844 17.097656 29.5 16.675781 28.054688 C 14.011719 31.066406 11.375 34.101562 11.375 38.078125 Z M 17.867188 45.292969 C 13.191406 45.292969 9.585938 41.015625 9.585938 35.992188 C 9.585938 31.589844 12.84375 28.378906 15.753906 25.023438 C 15.28125 23.480469 14.832031 21.914062 14.632812 20.296875 C 14.484375 19.003906 14.460938 17.710938 14.460938 16.414062 C 14.460938 13.554688 15.828125 10.84375 18.167969 9.152344 C 18.316406 9.027344 18.515625 9.027344 18.664062 9.152344 C 20.429688 11.242188 21.972656 15.246094 21.972656 18.058594 C 21.972656 21.613281 19.832031 24.398438 17.496094 27.109375 C 18.015625 28.800781 18.464844 30.542969 18.886719 32.257812 C 18.988281 32.257812 19.113281 32.234375 19.210938 32.234375 C 23.066406 32.234375 25.578125 35.417969 25.578125 38.726562 C 25.578125 40.617188 24.757812 42.558594 22.917969 43.949219 C 22.371094 44.371094 21.746094 44.644531 21.101562 44.84375 C 21.175781 45.714844 21.226562 46.585938 21.226562 47.457031 C 21.226562 47.929688 21.199219 48.425781 21.175781 48.898438 C 21 51.859375 18.988281 54.496094 16.152344 54.570312 L 16.175781 53.5 C 18.488281 53.449219 19.980469 51.210938 20.132812 48.75 C 20.15625 48.300781 20.179688 47.828125 20.179688 47.382812 C 20.179688 46.609375 20.15625 45.863281 20.082031 45.09375 C 19.359375 45.21875 18.640625 45.292969 17.867188 45.292969 Z M 20.179688 15.992188 C 20.179688 14.625 20.082031 14.027344 19.683594 12.785156 C 17.222656 13.976562 15.652344 16.492188 15.652344 19.226562 C 15.652344 21.066406 16.101562 22.535156 16.550781 24.050781 C 18.539062 21.640625 20.179688 19.125 20.179688 15.992188 Z M 20.179688 15.992188 "/>
<path style=" stroke:none;fill-rule:nonzero;fill:rgb(0%,0%,0%);fill-opacity:1;" d="M 62.902344 10.519531 C 64.273438 10.519531 65.589844 11.21875 65.589844 12.734375 C 65.589844 14.5 64.222656 15.746094 63.054688 16.441406 C 62.183594 16.964844 61.1875 17.285156 60.167969 17.285156 C 58.800781 17.285156 57.480469 16.589844 57.480469 15.074219 C 57.480469 13.308594 58.851562 12.0625 60.019531 11.367188 C 60.890625 10.84375 61.882812 10.519531 62.902344 10.519531 Z M 62.902344 10.519531 "/>
<path style=" stroke:none;fill-rule:nonzero;fill:rgb(0%,0%,0%);fill-opacity:1;" d="M 62.902344 16.738281 C 64.273438 16.738281 65.589844 17.433594 65.589844 18.953125 C 65.589844 20.71875 64.222656 21.960938 63.054688 22.660156 C 62.183594 23.179688 61.1875 23.503906 60.167969 23.503906 C 58.800781 23.503906 57.480469 22.808594 57.480469 21.289062 C 57.480469 19.523438 58.851562 18.28125 60.019531 17.585938 C 60.890625 17.0625 61.882812 16.738281 62.902344 16.738281 Z M 62.902344 16.738281 "/>
<path style=" stroke:none;fill-rule:nonzero;fill:rgb(0%,0%,0%);fill-opacity:1;" d="M 62.902344 22.957031 C 64.273438 22.957031 65.589844 23.652344 65.589844 25.171875 C 65.589844 26.9375 64.222656 28.179688 63.054688 28.875 C 62.183594 29.398438 61.1875 29.722656 60.167969 29.722656 C 58.800781 29.722656 57.480469 29.027344 57.480469 27.507812 C 57.480469 25.742188 58.851562 24.5 60.019531 23.804688 C 60.890625 23.28125 61.882812 22.957031 62.902344 22.957031 Z M 62.902344 22.957031 "/>
<path style=" stroke:none;fill-rule:nonzero;fill:rgb(0%,0%,0%);fill-opacity:1;" d="M 62.902344 29.175781 C 64.273438 29.175781 65.589844 29.871094 65.589844 31.390625 C 65.589844 33.15625 64.222656 34.398438 63.054688 35.09375 C 62.183594 35.617188 61.1875 35.941406 60.167969 35.941406 C 58.800781 35.941406 57.480469 35.246094 57.480469 33.726562 C 57.480469 31.960938 58.851562 30.71875 60.019531 30.019531 C 60.890625 29.5 61.882812 29.175781 62.902344 29.175781 Z M 62.902344 29.175781 "/>
</g>
</svg>
