<?xml version="1.0" encoding="UTF-8"?>
<svg xmlns="http://www.w3.org/2000/svg" xmlns:xlink="http://www.w3.org/1999/xlink" width="71.82843pt" height="65.996793pt" viewBox="0 0 71.82843 65.996793" version="1.1">
<g id="surface1">
<path style="fill:none;stroke-width:0.1;stroke-linecap:round;stroke-linejoin:round;stroke:rgb(0%,0%,0%);stroke-opacity:1;stroke-miterlimit:4;" d="M 0.049863 -0.000287501 L 9.257411 -0.000287501 " transform="matrix(6.218149,0,0,6.218149,4.561038,40.517413)"/>
<path style="fill:none;stroke-width:0.1;stroke-linecap:round;stroke-linejoin:round;stroke:rgb(0%,0%,0%);stroke-opacity:1;stroke-miterlimit:4;" d="M 0.049863 0.000244052 L 9.257411 0.000244052 " transform="matrix(6.218149,0,0,6.218149,4.561038,34.299264)"/>
<path style="fill:none;stroke-width:0.1;stroke-linecap:round;stroke-linejoin:round;stroke:rgb(0%,0%,0%);stroke-opacity:1;stroke-miterlimit:4;" d="M 0.049863 0.000147403 L 9.257411 0.000147403 " transform="matrix(6.218149,0,0,6.218149,4.561038,28.081115)"/>
<path style="fill:none;stroke-width:0.1;stroke-linecap:round;stroke-linejoin:round;stroke:rgb(0%,0%,0%);stroke-opacity:1;stroke-miterlimit:4;" d="M 0.049863 0.0000507548 L 9.257411 0.0000507548 " transform="matrix(6.218149,0,0,6.218149,4.561038,21.862966)"/>
<path style="fill:none;stroke-width:0.1;stroke-linecap:round;stroke-linejoin:round;stroke:rgb(0%,0%,0%);stroke-opacity:1;stroke-miterlimit:4;" d="M 0.049863 -0.0000458938 L 9.257411 -0.0000458938 " transform="matrix(6.218149,0,0,6.218149,4.561038,15.644817)"/>
<path style=" stroke:none;fill-rule:nonzero;fill:rgb(0%,0%,0%);fill-opacity:1;" d="M 42.363281 46.113281 L 53.285156 46.113281 C 53.625 46.113281 53.90625 46.390625 53.90625 46.734375 C 53.90625 47.078125 53.625 47.355469 53.285156 47.355469 L 42.363281 47.355469 C 42.019531 47.355469 41.742188 47.078125 41.742188 46.734375 C 41.742188 46.390625 42.019531 46.113281 42.363281 46.113281 Z M 42.363281 46.113281 "/>
<path style=" stroke:none;fill-rule:nonzero;fill:rgb(0%,0%,0%);fill-opacity:1;" d="M 43.300781 52.332031 L 53.285156 52.332031 C 53.628906 52.332031 53.90625 52.609375 53.90625 52.953125 C 53.90625 53.296875 53.628906 53.574219 53.285156 53.574219 L 43.300781 53.574219 C 42.957031 53.574219 42.679688 53.296875 42.679688 52.953125 C 42.679688 52.609375 42.957031 52.332031 43.300781 52.332031 Z M 43.300781 52.332031 "/>
<path style=" stroke:none;fill-rule:nonzero;fill:rgb(0%,0%,0%);fill-opacity:1;" d="M 51.320312 12.535156 L 51.628906 12.535156 C 51.765625 12.535156 51.878906 12.648438 51.878906 12.785156 L 51.878906 51.546875 C 51.878906 51.683594 51.765625 51.796875 51.628906 51.796875 L 51.320312 51.796875 C 51.179688 51.796875 51.070312 51.683594 51.070312 51.546875 L 51.070312 12.785156 C 51.070312 12.648438 51.179688 12.535156 51.320312 12.535156 Z M 51.320312 12.535156 "/>
<path style=" stroke:none;fill-rule:nonzero;fill:rgb(0%,0%,0%);fill-opacity:1;" d="M 37.289062 33.28125 L 37.265625 34.921875 L 37.265625 35.195312 C 37.265625 35.742188 37.289062 36.289062 37.363281 36.835938 C 38.484375 35.890625 39.675781 34.847656 39.675781 33.378906 C 39.675781 32.558594 39.328125 31.710938 38.605469 31.710938 C 37.835938 31.710938 37.3125 32.457031 37.289062 33.28125 Z M 36.246094 37.730469 L 35.945312 22.933594 C 36.144531 22.808594 36.394531 22.734375 36.617188 22.734375 C 36.839844 22.734375 37.089844 22.808594 37.289062 22.933594 L 37.113281 31.511719 C 37.738281 30.992188 38.558594 30.667969 39.378906 30.667969 C 40.671875 30.667969 41.59375 31.863281 41.59375 33.203125 C 41.59375 35.195312 39.453125 36.113281 37.9375 37.410156 C 37.5625 37.730469 37.339844 38.351562 36.816406 38.351562 C 36.492188 38.351562 36.246094 38.078125 36.246094 37.730469 Z M 36.246094 37.730469 "/>
<path style=" stroke:none;fill-rule:nonzero;fill:rgb(0%,0%,0%);fill-opacity:1;" d="M 30.632812 39.496094 L 30.609375 41.140625 L 30.609375 41.414062 C 30.609375 41.960938 30.632812 42.507812 30.707031 43.054688 C 31.828125 42.109375 33.023438 41.066406 33.023438 39.597656 C 33.023438 38.777344 32.671875 37.929688 31.953125 37.929688 C 31.179688 37.929688 30.660156 38.675781 30.632812 39.496094 Z M 29.589844 43.949219 L 29.289062 29.152344 C 29.488281 29.027344 29.738281 28.953125 29.960938 28.953125 C 30.1875 28.953125 30.433594 29.027344 30.632812 29.152344 L 30.460938 37.730469 C 31.082031 37.210938 31.902344 36.886719 32.722656 36.886719 C 34.015625 36.886719 34.9375 38.078125 34.9375 39.421875 C 34.9375 41.414062 32.796875 42.332031 31.28125 43.625 C 30.90625 43.949219 30.683594 44.570312 30.160156 44.570312 C 29.835938 44.570312 29.589844 44.296875 29.589844 43.949219 Z M 29.589844 43.949219 "/>
<path style=" stroke:none;fill-rule:nonzero;fill:rgb(0%,0%,0%);fill-opacity:1;" d="M 37.289062 51.933594 L 37.265625 53.574219 L 37.265625 53.847656 C 37.265625 54.394531 37.289062 54.945312 37.363281 55.492188 C 38.484375 54.546875 39.675781 53.5 39.675781 52.035156 C 39.675781 51.210938 39.328125 50.367188 38.605469 50.367188 C 37.835938 50.367188 37.3125 51.113281 37.289062 51.933594 Z M 36.246094 56.386719 L 35.945312 41.585938 C 36.144531 41.460938 36.394531 41.386719 36.617188 41.386719 C 36.839844 41.386719 37.089844 41.460938 37.289062 41.585938 L 37.113281 50.167969 C 37.738281 49.644531 38.558594 49.324219 39.378906 49.324219 C 40.671875 49.324219 41.59375 50.515625 41.59375 51.859375 C 41.59375 53.847656 39.453125 54.769531 37.9375 56.0625 C 37.5625 56.386719 37.339844 57.007812 36.816406 57.007812 C 36.492188 57.007812 36.246094 56.734375 36.246094 56.386719 Z M 36.246094 56.386719 "/>
<path style=" stroke:none;fill-rule:nonzero;fill:rgb(0%,0%,0%);fill-opacity:1;" d="M 16.152344 50.09375 L 16.003906 50.09375 C 13.316406 50.09375 11.152344 47.90625 11.152344 45.195312 C 11.152344 43.75 12.46875 42.632812 13.9375 42.632812 C 15.28125 42.632812 16.300781 43.800781 16.300781 45.195312 C 16.300781 46.488281 15.230469 47.554688 13.9375 47.554688 C 13.664062 47.554688 13.414062 47.507812 13.167969 47.40625 C 13.8125 48.378906 14.859375 49.023438 16.078125 49.023438 L 16.175781 49.023438 Z M 21 39.347656 C 22.691406 38.75 23.8125 36.984375 23.8125 35.269531 C 23.8125 33.03125 22.171875 30.816406 19.507812 30.542969 C 20.105469 33.429688 20.652344 36.289062 21 39.347656 Z M 11.375 33.601562 C 11.375 36.960938 14.585938 39.746094 17.941406 39.746094 C 18.640625 39.746094 19.308594 39.695312 19.980469 39.597656 C 19.632812 36.4375 19.0625 33.503906 18.414062 30.542969 C 16.449219 30.742188 15.332031 32.0625 15.332031 33.503906 C 15.332031 34.597656 15.953125 35.765625 17.34375 36.5625 C 17.46875 36.6875 17.519531 36.8125 17.519531 36.9375 C 17.519531 37.210938 17.269531 37.484375 16.972656 37.484375 C 16.898438 37.484375 16.824219 37.457031 16.75 37.433594 C 14.757812 36.363281 13.839844 34.574219 13.839844 32.832031 C 13.839844 30.644531 15.28125 28.503906 17.816406 27.933594 C 17.46875 26.488281 17.097656 25.023438 16.675781 23.578125 C 14.011719 26.589844 11.375 29.625 11.375 33.601562 Z M 17.867188 40.816406 C 13.191406 40.816406 9.585938 36.539062 9.585938 31.511719 C 9.585938 27.109375 12.84375 23.902344 15.753906 20.542969 C 15.28125 19.003906 14.832031 17.4375 14.632812 15.820312 C 14.484375 14.527344 14.460938 13.230469 14.460938 11.9375 C 14.460938 9.078125 15.828125 6.367188 18.167969 4.675781 C 18.316406 4.550781 18.515625 4.550781 18.664062 4.675781 C 20.429688 6.765625 21.972656 10.769531 21.972656 13.582031 C 21.972656 17.136719 19.832031 19.921875 17.496094 22.632812 C 18.015625 24.324219 18.464844 26.066406 18.886719 27.78125 C 18.988281 27.78125 19.113281 27.757812 19.210938 27.757812 C 23.066406 27.757812 25.578125 30.941406 25.578125 34.25 C 25.578125 36.140625 24.757812 38.078125 22.917969 39.472656 C 22.371094 39.894531 21.746094 40.167969 21.101562 40.367188 C 21.175781 41.238281 21.226562 42.109375 21.226562 42.980469 C 21.226562 43.453125 21.199219 43.949219 21.175781 44.421875 C 21 47.382812 18.988281 50.019531 16.152344 50.09375 L 16.175781 49.023438 C 18.488281 48.972656 19.980469 46.734375 20.132812 44.273438 C 20.15625 43.824219 20.179688 43.351562 20.179688 42.90625 C 20.179688 42.132812 20.15625 41.386719 20.082031 40.617188 C 19.359375 40.742188 18.640625 40.816406 17.867188 40.816406 Z M 20.179688 11.515625 C 20.179688 10.148438 20.082031 9.550781 19.683594 8.308594 C 17.222656 9.5 15.652344 12.011719 15.652344 14.75 C 15.652344 16.589844 16.101562 18.058594 16.550781 19.574219 C 18.539062 17.160156 20.179688 14.648438 20.179688 11.515625 Z M 20.179688 11.515625 "/>
<path style=" stroke:none;fill-rule:nonzero;fill:rgb(0%,0%,0%);fill-opacity:1;" d="M 49.191406 30.917969 C 50.558594 30.917969 51.875 31.613281 51.875 33.128906 C 51.875 34.894531 50.507812 36.140625 49.339844 36.835938 C 48.46875 37.359375 47.472656 37.683594 46.453125 37.683594 C 45.085938 37.683594 43.769531 36.984375 43.769531 35.46875 C 43.769531 33.703125 45.136719 32.457031 46.304688 31.761719 C 47.175781 31.238281 48.171875 30.917969 49.191406 30.917969 Z M 49.191406 30.917969 "/>
<path style=" stroke:none;fill-rule:nonzero;fill:rgb(0%,0%,0%);fill-opacity:1;" d="M 49.191406 37.132812 C 50.558594 37.132812 51.875 37.832031 51.875 39.347656 C 51.875 41.113281 50.507812 42.359375 49.339844 43.054688 C 48.46875 43.578125 47.472656 43.898438 46.453125 43.898438 C 45.085938 43.898438 43.769531 43.203125 43.769531 41.6875 C 43.769531 39.921875 45.136719 38.675781 46.304688 37.980469 C 47.175781 37.457031 48.171875 37.132812 49.191406 37.132812 Z M 49.191406 37.132812 "/>
<path style=" stroke:none;fill-rule:nonzero;fill:rgb(0%,0%,0%);fill-opacity:1;" d="M 49.191406 43.351562 C 50.558594 43.351562 51.875 44.050781 51.875 45.566406 C 51.875 47.332031 50.507812 48.574219 49.339844 49.273438 C 48.46875 49.792969 47.472656 50.117188 46.453125 50.117188 C 45.085938 50.117188 43.769531 49.421875 43.769531 47.90625 C 43.769531 46.136719 45.136719 44.894531 46.304688 44.199219 C 47.175781 43.675781 48.171875 43.351562 49.191406 43.351562 Z M 49.191406 43.351562 "/>
<path style=" stroke:none;fill-rule:nonzero;fill:rgb(0%,0%,0%);fill-opacity:1;" d="M 49.191406 49.570312 C 50.558594 49.570312 51.875 50.265625 51.875 51.785156 C 51.875 53.550781 50.507812 54.792969 49.339844 55.492188 C 48.46875 56.011719 47.472656 56.335938 46.453125 56.335938 C 45.085938 56.335938 43.769531 55.640625 43.769531 54.121094 C 43.769531 52.355469 45.136719 51.113281 46.304688 50.417969 C 47.175781 49.894531 48.171875 49.570312 49.191406 49.570312 Z M 49.191406 49.570312 "/>
</g>
</svg>
