<?xml version="1.0" encoding="UTF-8"?>
<svg xmlns="http://www.w3.org/2000/svg" xmlns:xlink="http://www.w3.org/1999/xlink" width="68.472344pt" height="80.296531pt" viewBox="0 0 68.472344 80.296531" version="1.1">
<g id="surface1">
<path style="fill:none;stroke-width:0.1;stroke-linecap:round;stroke-linejoin:round;stroke:rgb(0%,0%,0%);stroke-opacity:1;stroke-miterlimit:4;" d="M 0.049863 -0.0000630615 L 8.752337 -0.0000630615 " transform="matrix(6.218149,0,0,6.218149,4.561038,60.812892)"/>
<path style="fill:none;stroke-width:0.1;stroke-linecap:round;stroke-linejoin:round;stroke:rgb(0%,0%,0%);stroke-opacity:1;stroke-miterlimit:4;" d="M 0.049863 -0.00015971 L 8.752337 -0.00015971 " transform="matrix(6.218149,0,0,6.218149,4.561038,54.594743)"/>
<path style="fill:none;stroke-width:0.1;stroke-linecap:round;stroke-linejoin:round;stroke:rgb(0%,0%,0%);stroke-opacity:1;stroke-miterlimit:4;" d="M 0.049863 -0.000256359 L 8.752337 -0.000256359 " transform="matrix(6.218149,0,0,6.218149,4.561038,48.376594)"/>
<path style="fill:none;stroke-width:0.1;stroke-linecap:round;stroke-linejoin:round;stroke:rgb(0%,0%,0%);stroke-opacity:1;stroke-miterlimit:4;" d="M 0.049863 0.000275194 L 8.752337 0.000275194 " transform="matrix(6.218149,0,0,6.218149,4.561038,42.158445)"/>
<path style="fill:none;stroke-width:0.1;stroke-linecap:round;stroke-linejoin:round;stroke:rgb(0%,0%,0%);stroke-opacity:1;stroke-miterlimit:4;" d="M 0.049863 0.000178545 L 8.752337 0.000178545 " transform="matrix(6.218149,0,0,6.218149,4.561038,35.940296)"/>
<path style=" stroke:none;fill-rule:nonzero;fill:rgb(0%,0%,0%);fill-opacity:1;" d="M 39.21875 10.445312 L 50.140625 10.445312 C 50.484375 10.445312 50.761719 10.722656 50.761719 11.066406 C 50.761719 11.410156 50.484375 11.691406 50.140625 11.691406 L 39.21875 11.691406 C 38.878906 11.691406 38.597656 11.410156 38.597656 11.066406 C 38.597656 10.722656 38.878906 10.445312 39.21875 10.445312 Z M 39.21875 10.445312 "/>
<path style=" stroke:none;fill-rule:nonzero;fill:rgb(0%,0%,0%);fill-opacity:1;" d="M 39.21875 16.664062 L 50.140625 16.664062 C 50.484375 16.664062 50.761719 16.941406 50.761719 17.285156 C 50.761719 17.628906 50.484375 17.90625 50.140625 17.90625 L 39.21875 17.90625 C 38.878906 17.90625 38.597656 17.628906 38.597656 17.285156 C 38.597656 16.941406 38.878906 16.664062 39.21875 16.664062 Z M 39.21875 16.664062 "/>
<path style=" stroke:none;fill-rule:nonzero;fill:rgb(0%,0%,0%);fill-opacity:1;" d="M 39.21875 22.882812 L 50.140625 22.882812 C 50.484375 22.882812 50.761719 23.160156 50.761719 23.503906 C 50.761719 23.847656 50.484375 24.125 50.140625 24.125 L 39.21875 24.125 C 38.878906 24.125 38.597656 23.847656 38.597656 23.503906 C 38.597656 23.160156 38.878906 22.882812 39.21875 22.882812 Z M 39.21875 22.882812 "/>
<path style=" stroke:none;fill-rule:nonzero;fill:rgb(0%,0%,0%);fill-opacity:1;" d="M 39.21875 29.101562 L 50.140625 29.101562 C 50.484375 29.101562 50.761719 29.378906 50.761719 29.722656 C 50.761719 30.066406 50.484375 30.34375 50.140625 30.34375 L 39.21875 30.34375 C 38.878906 30.34375 38.597656 30.066406 38.597656 29.722656 C 38.597656 29.378906 38.878906 29.101562 39.21875 29.101562 Z M 39.21875 29.101562 "/>
<path style=" stroke:none;fill-rule:nonzero;fill:rgb(0%,0%,0%);fill-opacity:1;" d="M 34.148438 25.59375 L 34.121094 27.234375 L 34.121094 27.507812 C 34.121094 28.054688 34.148438 28.601562 34.222656 29.148438 C 35.339844 28.203125 36.535156 27.160156 36.535156 25.691406 C 36.535156 24.871094 36.1875 24.027344 35.464844 24.027344 C 34.695312 24.027344 34.171875 24.773438 34.148438 25.59375 Z M 33.101562 30.046875 L 32.804688 15.246094 C 33.003906 15.121094 33.25 15.046875 33.476562 15.046875 C 33.699219 15.046875 33.949219 15.121094 34.148438 15.246094 L 33.972656 23.828125 C 34.59375 23.304688 35.414062 22.980469 36.234375 22.980469 C 37.53125 22.980469 38.449219 24.175781 38.449219 25.519531 C 38.449219 27.507812 36.3125 28.429688 34.792969 29.722656 C 34.421875 30.046875 34.195312 30.667969 33.675781 30.667969 C 33.351562 30.667969 33.101562 30.394531 33.101562 30.046875 Z M 33.101562 30.046875 "/>
<path style=" stroke:none;fill-rule:nonzero;fill:rgb(0%,0%,0%);fill-opacity:1;" d="M 40.875 9.117188 L 41.1875 9.117188 C 41.324219 9.117188 41.433594 9.226562 41.433594 9.363281 L 41.433594 48.128906 C 41.433594 48.265625 41.324219 48.375 41.1875 48.375 L 40.875 48.375 C 40.738281 48.375 40.625 48.265625 40.625 48.128906 L 40.625 9.363281 C 40.625 9.226562 40.738281 9.117188 40.875 9.117188 Z M 40.875 9.117188 "/>
<path style=" stroke:none;fill-rule:nonzero;fill:rgb(0%,0%,0%);fill-opacity:1;" d="M 16.152344 70.390625 L 16.003906 70.390625 C 13.316406 70.390625 11.152344 68.199219 11.152344 65.488281 C 11.152344 64.046875 12.46875 62.925781 13.9375 62.925781 C 15.28125 62.925781 16.300781 64.097656 16.300781 65.488281 C 16.300781 66.78125 15.230469 67.851562 13.9375 67.851562 C 13.664062 67.851562 13.414062 67.800781 13.167969 67.703125 C 13.8125 68.671875 14.859375 69.320312 16.078125 69.320312 L 16.175781 69.320312 Z M 21 59.644531 C 22.691406 59.046875 23.8125 57.28125 23.8125 55.566406 C 23.8125 53.328125 22.171875 51.113281 19.507812 50.839844 C 20.105469 53.722656 20.652344 56.585938 21 59.644531 Z M 11.375 53.898438 C 11.375 57.257812 14.585938 60.042969 17.941406 60.042969 C 18.640625 60.042969 19.308594 59.992188 19.980469 59.894531 C 19.632812 56.734375 19.0625 53.796875 18.414062 50.839844 C 16.449219 51.039062 15.332031 52.355469 15.332031 53.796875 C 15.332031 54.894531 15.953125 56.0625 17.34375 56.859375 C 17.46875 56.984375 17.519531 57.105469 17.519531 57.230469 C 17.519531 57.503906 17.269531 57.777344 16.972656 57.777344 C 16.898438 57.777344 16.824219 57.753906 16.75 57.730469 C 14.757812 56.660156 13.839844 54.867188 13.839844 53.128906 C 13.839844 50.9375 15.28125 48.800781 17.816406 48.226562 C 17.46875 46.785156 17.097656 45.316406 16.675781 43.875 C 14.011719 46.882812 11.375 49.917969 11.375 53.898438 Z M 17.867188 61.113281 C 13.191406 61.113281 9.585938 56.832031 9.585938 51.808594 C 9.585938 47.40625 12.84375 44.199219 15.753906 40.839844 C 15.28125 39.296875 14.832031 37.730469 14.632812 36.113281 C 14.484375 34.820312 14.460938 33.527344 14.460938 32.234375 C 14.460938 29.375 15.828125 26.664062 18.167969 24.972656 C 18.316406 24.847656 18.515625 24.847656 18.664062 24.972656 C 20.429688 27.0625 21.972656 31.066406 21.972656 33.875 C 21.972656 37.433594 19.832031 40.21875 17.496094 42.929688 C 18.015625 44.621094 18.464844 46.363281 18.886719 48.078125 C 18.988281 48.078125 19.113281 48.054688 19.210938 48.054688 C 23.066406 48.054688 25.578125 51.238281 25.578125 54.546875 C 25.578125 56.433594 24.757812 58.375 22.917969 59.769531 C 22.371094 60.191406 21.746094 60.464844 21.101562 60.664062 C 21.175781 61.535156 21.226562 62.40625 21.226562 63.273438 C 21.226562 63.746094 21.199219 64.246094 21.175781 64.71875 C 21 67.675781 18.988281 70.3125 16.152344 70.390625 L 16.175781 69.320312 C 18.488281 69.269531 19.980469 67.03125 20.132812 64.570312 C 20.15625 64.121094 20.179688 63.648438 20.179688 63.199219 C 20.179688 62.429688 20.15625 61.683594 20.082031 60.914062 C 19.359375 61.035156 18.640625 61.113281 17.867188 61.113281 Z M 20.179688 31.8125 C 20.179688 30.445312 20.082031 29.847656 19.683594 28.601562 C 17.222656 29.796875 15.652344 32.308594 15.652344 35.042969 C 15.652344 36.886719 16.101562 38.351562 16.550781 39.871094 C 18.539062 37.457031 20.179688 34.945312 20.179688 31.8125 Z M 20.179688 31.8125 "/>
<path style=" stroke:none;fill-rule:nonzero;fill:rgb(0%,0%,0%);fill-opacity:1;" d="M 46.046875 4.574219 C 47.417969 4.574219 48.734375 5.273438 48.734375 6.789062 C 48.734375 8.554688 47.367188 9.800781 46.199219 10.496094 C 45.328125 11.019531 44.332031 11.339844 43.3125 11.339844 C 41.945312 11.339844 40.625 10.644531 40.625 9.128906 C 40.625 7.363281 41.996094 6.117188 43.164062 5.421875 C 44.035156 4.898438 45.027344 4.574219 46.046875 4.574219 Z M 46.046875 4.574219 "/>
<path style=" stroke:none;fill-rule:nonzero;fill:rgb(0%,0%,0%);fill-opacity:1;" d="M 46.046875 10.792969 C 47.417969 10.792969 48.734375 11.492188 48.734375 13.007812 C 48.734375 14.773438 47.367188 16.015625 46.199219 16.714844 C 45.328125 17.234375 44.332031 17.558594 43.3125 17.558594 C 41.945312 17.558594 40.625 16.863281 40.625 15.347656 C 40.625 13.578125 41.996094 12.335938 43.164062 11.640625 C 44.035156 11.117188 45.027344 10.792969 46.046875 10.792969 Z M 46.046875 10.792969 "/>
<path style=" stroke:none;fill-rule:nonzero;fill:rgb(0%,0%,0%);fill-opacity:1;" d="M 46.046875 17.011719 C 47.417969 17.011719 48.734375 17.707031 48.734375 19.226562 C 48.734375 20.992188 47.367188 22.234375 46.199219 22.933594 C 45.328125 23.453125 44.332031 23.777344 43.3125 23.777344 C 41.945312 23.777344 40.625 23.082031 40.625 21.5625 C 40.625 19.796875 41.996094 18.554688 43.164062 17.859375 C 44.035156 17.335938 45.027344 17.011719 46.046875 17.011719 Z M 46.046875 17.011719 "/>
<path style=" stroke:none;fill-rule:nonzero;fill:rgb(0%,0%,0%);fill-opacity:1;" d="M 46.046875 23.230469 C 47.417969 23.230469 48.734375 23.925781 48.734375 25.445312 C 48.734375 27.210938 47.367188 28.453125 46.199219 29.148438 C 45.328125 29.671875 44.332031 29.996094 43.3125 29.996094 C 41.945312 29.996094 40.625 29.300781 40.625 27.78125 C 40.625 26.015625 41.996094 24.773438 43.164062 24.074219 C 44.035156 23.554688 45.027344 23.230469 46.046875 23.230469 Z M 46.046875 23.230469 "/>
</g>
</svg>
