<?xml version="1.0" encoding="UTF-8"?>
<svg xmlns="http://www.w3.org/2000/svg" xmlns:xlink="http://www.w3.org/1999/xlink" width="83.542529pt" height="55.67747pt" viewBox="0 0 83.542529 55.67747" version="1.1">
<g id="surface1">
<path style="fill:none;stroke-width:0.1;stroke-linecap:round;stroke-linejoin:round;stroke:rgb(0%,0%,0%);stroke-opacity:1;stroke-miterlimit:4;" d="M 0.049863 0.00022687 L 11.021401 0.00022687 " transform="matrix(6.218149,0,0,6.218149,4.561038,39.049371)"/>
<path style="fill:none;stroke-width:0.1;stroke-linecap:round;stroke-linejoin:round;stroke:rgb(0%,0%,0%);stroke-opacity:1;stroke-miterlimit:4;" d="M 0.049863 0.000130221 L 11.021401 0.000130221 " transform="matrix(6.218149,0,0,6.218149,4.561038,32.831222)"/>
<path style="fill:none;stroke-width:0.1;stroke-linecap:round;stroke-linejoin:round;stroke:rgb(0%,0%,0%);stroke-opacity:1;stroke-miterlimit:4;" d="M 0.049863 0.0000335725 L 11.021401 0.0000335725 " transform="matrix(6.218149,0,0,6.218149,4.561038,26.613072)"/>
<path style="fill:none;stroke-width:0.1;stroke-linecap:round;stroke-linejoin:round;stroke:rgb(0%,0%,0%);stroke-opacity:1;stroke-miterlimit:4;" d="M 0.049863 -0.0000630761 L 11.021401 -0.0000630761 " transform="matrix(6.218149,0,0,6.218149,4.561038,20.394923)"/>
<path style="fill:none;stroke-width:0.1;stroke-linecap:round;stroke-linejoin:round;stroke:rgb(0%,0%,0%);stroke-opacity:1;stroke-miterlimit:4;" d="M 0.049863 -0.000159725 L 11.021401 -0.000159725 " transform="matrix(6.218149,0,0,6.218149,4.561038,14.176774)"/>
<path style=" stroke:none;fill-rule:nonzero;fill:rgb(0%,0%,0%);fill-opacity:1;" d="M 54.121094 7.335938 L 64.25 7.335938 C 64.59375 7.335938 64.871094 7.613281 64.871094 7.957031 C 64.871094 8.300781 64.59375 8.582031 64.25 8.582031 L 54.121094 8.582031 C 53.777344 8.582031 53.5 8.300781 53.5 7.957031 C 53.5 7.613281 53.777344 7.335938 54.121094 7.335938 Z M 54.121094 7.335938 "/>
<path style=" stroke:none;fill-rule:nonzero;fill:rgb(0%,0%,0%);fill-opacity:1;" d="M 54.984375 9.117188 L 55.296875 9.117188 C 55.433594 9.117188 55.542969 9.226562 55.542969 9.363281 L 55.542969 47.089844 C 55.542969 47.230469 55.433594 47.339844 55.296875 47.339844 L 54.984375 47.339844 C 54.847656 47.339844 54.734375 47.230469 54.734375 47.089844 L 54.734375 9.363281 C 54.734375 9.226562 54.847656 9.117188 54.984375 9.117188 Z M 54.984375 9.117188 "/>
<path style=" stroke:none;fill-rule:nonzero;fill:rgb(0%,0%,0%);fill-opacity:1;" d="M 49.824219 7.957031 C 50.398438 8.53125 51.21875 8.65625 52.039062 8.65625 C 52.1875 8.65625 52.289062 8.753906 52.289062 8.902344 L 52.511719 11.066406 C 52.535156 11.21875 52.414062 11.339844 52.261719 11.316406 L 50.097656 11.09375 C 49.976562 11.066406 49.851562 10.96875 49.851562 10.84375 C 49.851562 10.023438 49.726562 9.203125 49.152344 8.628906 C 48.582031 9.203125 48.480469 10.023438 48.480469 10.84375 C 48.480469 10.96875 48.359375 11.066406 48.234375 11.09375 L 46.042969 11.316406 C 45.894531 11.339844 45.769531 11.21875 45.796875 11.066406 L 46.019531 8.902344 C 46.019531 8.753906 46.121094 8.65625 46.269531 8.65625 C 47.089844 8.65625 47.910156 8.53125 48.480469 7.957031 C 47.910156 7.386719 47.089844 7.261719 46.269531 7.261719 C 46.121094 7.261719 46.019531 7.164062 46.019531 7.011719 L 45.796875 4.847656 C 45.769531 4.699219 45.894531 4.574219 46.042969 4.601562 L 48.234375 4.824219 C 48.359375 4.847656 48.457031 4.949219 48.457031 5.074219 C 48.457031 5.894531 48.582031 6.714844 49.152344 7.285156 C 49.726562 6.714844 49.851562 5.894531 49.851562 5.074219 C 49.851562 4.949219 49.976562 4.847656 50.097656 4.824219 L 52.261719 4.601562 C 52.414062 4.574219 52.535156 4.699219 52.511719 4.847656 L 52.289062 7.011719 C 52.289062 7.164062 52.1875 7.261719 52.039062 7.261719 C 51.21875 7.261719 50.398438 7.386719 49.824219 7.957031 Z M 49.824219 7.957031 "/>
<path style=" stroke:none;fill-rule:nonzero;fill:rgb(0%,0%,0%);fill-opacity:1;" d="M 43.082031 21.9375 C 43.082031 22.1875 42.882812 22.410156 42.636719 22.410156 C 42.386719 22.410156 42.164062 22.1875 42.164062 21.9375 L 42.164062 18.332031 L 40.097656 19.101562 L 40.097656 23.03125 C 40.097656 23.28125 39.875 23.503906 39.625 23.503906 C 39.378906 23.503906 39.179688 23.28125 39.179688 23.03125 L 39.179688 19.425781 L 38.382812 19.722656 C 38.332031 19.75 38.257812 19.75 38.207031 19.75 C 37.933594 19.75 37.710938 19.523438 37.710938 19.25 L 37.710938 17.757812 C 37.710938 17.558594 37.835938 17.359375 38.035156 17.285156 L 39.179688 16.886719 L 39.179688 12.910156 L 38.382812 13.183594 C 38.332031 13.207031 38.257812 13.207031 38.207031 13.207031 C 37.933594 13.207031 37.710938 12.984375 37.710938 12.710938 L 37.710938 11.21875 C 37.710938 11.019531 37.835938 10.84375 38.035156 10.769531 L 39.179688 10.347656 L 39.179688 6.417969 C 39.179688 6.167969 39.378906 5.945312 39.625 5.945312 C 39.875 5.945312 40.097656 6.167969 40.097656 6.417969 L 40.097656 10.023438 L 42.164062 9.253906 L 42.164062 5.320312 C 42.164062 5.074219 42.386719 4.847656 42.636719 4.847656 C 42.882812 4.847656 43.082031 5.074219 43.082031 5.320312 L 43.082031 8.929688 L 43.878906 8.628906 C 43.929688 8.605469 44.003906 8.605469 44.054688 8.605469 C 44.328125 8.605469 44.550781 8.828125 44.550781 9.101562 L 44.550781 10.59375 C 44.550781 10.792969 44.425781 10.992188 44.226562 11.066406 L 43.082031 11.464844 L 43.082031 15.445312 L 43.878906 15.171875 C 43.929688 15.148438 44.003906 15.148438 44.054688 15.148438 C 44.328125 15.148438 44.550781 15.371094 44.550781 15.644531 L 44.550781 17.136719 C 44.550781 17.335938 44.425781 17.507812 44.226562 17.585938 L 43.082031 18.007812 Z M 40.097656 12.558594 L 40.097656 16.539062 L 42.164062 15.792969 L 42.164062 11.8125 Z M 40.097656 12.558594 "/>
<path style=" stroke:none;fill-rule:nonzero;fill:rgb(0%,0%,0%);fill-opacity:1;" d="M 33.734375 20.394531 C 34.304688 20.96875 35.125 21.089844 35.945312 21.089844 C 36.097656 21.089844 36.195312 21.191406 36.195312 21.339844 L 36.417969 23.503906 C 36.445312 23.652344 36.320312 23.777344 36.171875 23.753906 L 34.007812 23.527344 C 33.882812 23.503906 33.757812 23.40625 33.757812 23.28125 C 33.757812 22.460938 33.632812 21.636719 33.0625 21.066406 C 32.488281 21.636719 32.390625 22.460938 32.390625 23.28125 C 32.390625 23.40625 32.265625 23.503906 32.140625 23.527344 L 29.953125 23.753906 C 29.804688 23.777344 29.679688 23.652344 29.703125 23.503906 L 29.925781 21.339844 C 29.925781 21.191406 30.027344 21.089844 30.175781 21.089844 C 30.996094 21.089844 31.816406 20.96875 32.390625 20.394531 C 31.816406 19.824219 30.996094 19.699219 30.175781 19.699219 C 30.027344 19.699219 29.925781 19.597656 29.925781 19.449219 L 29.703125 17.285156 C 29.679688 17.136719 29.804688 17.011719 29.953125 17.039062 L 32.140625 17.261719 C 32.265625 17.285156 32.363281 17.386719 32.363281 17.507812 C 32.363281 18.332031 32.488281 19.152344 33.0625 19.722656 C 33.632812 19.152344 33.757812 18.332031 33.757812 17.507812 C 33.757812 17.386719 33.882812 17.285156 34.007812 17.261719 L 36.171875 17.039062 C 36.320312 17.011719 36.445312 17.136719 36.417969 17.285156 L 36.195312 19.449219 C 36.195312 19.597656 36.097656 19.699219 35.945312 19.699219 C 35.125 19.699219 34.304688 19.824219 33.734375 20.394531 Z M 33.734375 20.394531 "/>
<path style=" stroke:none;fill-rule:nonzero;fill:rgb(0%,0%,0%);fill-opacity:1;" d="M 51.09375 34.375 C 51.09375 34.621094 50.894531 34.847656 50.644531 34.847656 C 50.394531 34.847656 50.171875 34.621094 50.171875 34.375 L 50.171875 30.765625 L 48.105469 31.539062 L 48.105469 35.46875 C 48.105469 35.714844 47.882812 35.941406 47.636719 35.941406 C 47.386719 35.941406 47.1875 35.714844 47.1875 35.46875 L 47.1875 31.859375 L 46.390625 32.160156 C 46.339844 32.183594 46.265625 32.183594 46.21875 32.183594 C 45.945312 32.183594 45.71875 31.960938 45.71875 31.6875 L 45.71875 30.195312 C 45.71875 29.996094 45.84375 29.796875 46.042969 29.722656 L 47.1875 29.324219 L 47.1875 25.34375 L 46.390625 25.617188 C 46.339844 25.644531 46.265625 25.644531 46.21875 25.644531 C 45.945312 25.644531 45.71875 25.417969 45.71875 25.144531 L 45.71875 23.652344 C 45.71875 23.453125 45.84375 23.28125 46.042969 23.207031 L 47.1875 22.78125 L 47.1875 18.851562 C 47.1875 18.605469 47.386719 18.378906 47.636719 18.378906 C 47.882812 18.378906 48.105469 18.605469 48.105469 18.851562 L 48.105469 22.460938 L 50.171875 21.6875 L 50.171875 17.757812 C 50.171875 17.507812 50.394531 17.285156 50.644531 17.285156 C 50.894531 17.285156 51.09375 17.507812 51.09375 17.757812 L 51.09375 21.363281 L 51.886719 21.066406 C 51.9375 21.042969 52.011719 21.042969 52.0625 21.042969 C 52.335938 21.042969 52.558594 21.265625 52.558594 21.539062 L 52.558594 23.03125 C 52.558594 23.230469 52.433594 23.429688 52.234375 23.503906 L 51.09375 23.902344 L 51.09375 27.882812 L 51.886719 27.609375 C 51.9375 27.582031 52.011719 27.582031 52.0625 27.582031 C 52.335938 27.582031 52.558594 27.808594 52.558594 28.082031 L 52.558594 29.574219 C 52.558594 29.773438 52.433594 29.945312 52.234375 30.019531 L 51.09375 30.445312 Z M 48.105469 24.996094 L 48.105469 28.976562 L 50.171875 28.230469 L 50.171875 24.25 Z M 48.105469 24.996094 "/>
<path style=" stroke:none;fill-rule:nonzero;fill:rgb(0%,0%,0%);fill-opacity:1;" d="M 23.390625 23.503906 C 23.390625 22.808594 23.960938 22.234375 24.65625 22.234375 C 25.355469 22.234375 25.925781 22.808594 25.925781 23.503906 C 25.925781 24.199219 25.355469 24.773438 24.65625 24.773438 C 23.960938 24.773438 23.390625 24.199219 23.390625 23.503906 Z M 23.390625 17.285156 C 23.390625 16.589844 23.960938 16.015625 24.65625 16.015625 C 25.355469 16.015625 25.925781 16.589844 25.925781 17.285156 C 25.925781 17.980469 25.355469 18.554688 24.65625 18.554688 C 23.960938 18.554688 23.390625 17.980469 23.390625 17.285156 Z M 15.304688 13.851562 C 19.585938 13.851562 22.59375 16.042969 22.59375 20.097656 C 22.59375 26.636719 16.050781 30.394531 9.757812 33.054688 C 9.683594 33.128906 9.609375 33.15625 9.535156 33.15625 C 9.363281 33.15625 9.210938 33.003906 9.210938 32.832031 C 9.210938 32.757812 9.238281 32.683594 9.3125 32.605469 C 14.335938 29.671875 19.558594 26.015625 19.558594 20.34375 C 19.558594 17.359375 17.992188 14.5 15.304688 14.5 C 13.464844 14.5 12.097656 15.84375 11.476562 17.632812 C 11.75 17.507812 12.023438 17.433594 12.320312 17.433594 C 13.6875 17.433594 14.808594 18.554688 14.808594 19.921875 C 14.808594 21.363281 13.714844 22.558594 12.320312 22.558594 C 10.828125 22.558594 9.535156 21.390625 9.535156 19.921875 C 9.535156 16.613281 12.074219 13.851562 15.304688 13.851562 Z M 15.304688 13.851562 "/>
<path style=" stroke:none;fill-rule:nonzero;fill:rgb(0%,0%,0%);fill-opacity:1;" d="M 60.15625 4.574219 C 61.527344 4.574219 62.84375 5.273438 62.84375 6.789062 C 62.84375 8.554688 61.476562 9.800781 60.308594 10.496094 C 59.4375 11.019531 58.441406 11.339844 57.421875 11.339844 C 56.054688 11.339844 54.734375 10.644531 54.734375 9.128906 C 54.734375 7.363281 56.105469 6.117188 57.273438 5.421875 C 58.144531 4.898438 59.136719 4.574219 60.15625 4.574219 Z M 60.15625 4.574219 "/>
<path style=" stroke:none;fill-rule:nonzero;fill:rgb(0%,0%,0%);fill-opacity:1;" d="M 60.15625 10.792969 C 61.527344 10.792969 62.84375 11.492188 62.84375 13.007812 C 62.84375 14.773438 61.476562 16.015625 60.308594 16.714844 C 59.4375 17.234375 58.441406 17.558594 57.421875 17.558594 C 56.054688 17.558594 54.734375 16.863281 54.734375 15.347656 C 54.734375 13.578125 56.105469 12.335938 57.273438 11.640625 C 58.144531 11.117188 59.136719 10.792969 60.15625 10.792969 Z M 60.15625 10.792969 "/>
<path style=" stroke:none;fill-rule:nonzero;fill:rgb(0%,0%,0%);fill-opacity:1;" d="M 60.15625 17.011719 C 61.527344 17.011719 62.84375 17.707031 62.84375 19.226562 C 62.84375 20.992188 61.476562 22.234375 60.308594 22.933594 C 59.4375 23.453125 58.441406 23.777344 57.421875 23.777344 C 56.054688 23.777344 54.734375 23.082031 54.734375 21.5625 C 54.734375 19.796875 56.105469 18.554688 57.273438 17.859375 C 58.144531 17.335938 59.136719 17.011719 60.15625 17.011719 Z M 60.15625 17.011719 "/>
<path style=" stroke:none;fill-rule:nonzero;fill:rgb(0%,0%,0%);fill-opacity:1;" d="M 60.15625 23.230469 C 61.527344 23.230469 62.84375 23.925781 62.84375 25.445312 C 62.84375 27.210938 61.476562 28.453125 60.308594 29.148438 C 59.4375 29.671875 58.441406 29.996094 57.421875 29.996094 C 56.054688 29.996094 54.734375 29.300781 54.734375 27.78125 C 54.734375 26.015625 56.105469 24.773438 57.273438 24.074219 C 58.144531 23.554688 59.136719 23.230469 60.15625 23.230469 Z M 60.15625 23.230469 "/>
</g>
</svg>
