<?xml version="1.0" encoding="UTF-8"?>
<svg xmlns="http://www.w3.org/2000/svg" xmlns:xlink="http://www.w3.org/1999/xlink" width="81.536713pt" height="74.949903pt" viewBox="0 0 81.536713 74.949903" version="1.1">
<g id="surface1">
<path style="fill:none;stroke-width:0.1;stroke-linecap:round;stroke-linejoin:round;stroke:rgb(0%,0%,0%);stroke-opacity:1;stroke-miterlimit:4;" d="M 0.049863 -0.000287501 L 10.719236 -0.000287501 " transform="matrix(6.218149,0,0,6.218149,4.561038,40.517413)"/>
<path style="fill:none;stroke-width:0.1;stroke-linecap:round;stroke-linejoin:round;stroke:rgb(0%,0%,0%);stroke-opacity:1;stroke-miterlimit:4;" d="M 0.049863 0.000244052 L 10.719236 0.000244052 " transform="matrix(6.218149,0,0,6.218149,4.561038,34.299264)"/>
<path style="fill:none;stroke-width:0.1;stroke-linecap:round;stroke-linejoin:round;stroke:rgb(0%,0%,0%);stroke-opacity:1;stroke-miterlimit:4;" d="M 0.049863 0.000147403 L 10.719236 0.000147403 " transform="matrix(6.218149,0,0,6.218149,4.561038,28.081115)"/>
<path style="fill:none;stroke-width:0.1;stroke-linecap:round;stroke-linejoin:round;stroke:rgb(0%,0%,0%);stroke-opacity:1;stroke-miterlimit:4;" d="M 0.049863 0.0000507548 L 10.719236 0.0000507548 " transform="matrix(6.218149,0,0,6.218149,4.561038,21.862966)"/>
<path style="fill:none;stroke-width:0.1;stroke-linecap:round;stroke-linejoin:round;stroke:rgb(0%,0%,0%);stroke-opacity:1;stroke-miterlimit:4;" d="M 0.049863 -0.0000458938 L 10.719236 -0.0000458938 " transform="matrix(6.218149,0,0,6.218149,4.561038,15.644817)"/>
<path style=" stroke:none;fill-rule:nonzero;fill:rgb(0%,0%,0%);fill-opacity:1;" d="M 51.453125 46.113281 L 62.371094 46.113281 C 62.714844 46.113281 62.996094 46.390625 62.996094 46.734375 C 62.996094 47.078125 62.714844 47.355469 62.371094 47.355469 L 51.453125 47.355469 C 51.109375 47.355469 50.832031 47.078125 50.832031 46.734375 C 50.832031 46.390625 51.109375 46.113281 51.453125 46.113281 Z M 51.453125 46.113281 "/>
<path style=" stroke:none;fill-rule:nonzero;fill:rgb(0%,0%,0%);fill-opacity:1;" d="M 51.453125 52.332031 L 62.371094 52.332031 C 62.714844 52.332031 62.996094 52.609375 62.996094 52.953125 C 62.996094 53.296875 62.714844 53.574219 62.371094 53.574219 L 51.453125 53.574219 C 51.109375 53.574219 50.832031 53.296875 50.832031 52.953125 C 50.832031 52.609375 51.109375 52.332031 51.453125 52.332031 Z M 51.453125 52.332031 "/>
<path style=" stroke:none;fill-rule:nonzero;fill:rgb(0%,0%,0%);fill-opacity:1;" d="M 60.40625 21.863281 L 60.71875 21.863281 C 60.855469 21.863281 60.96875 21.972656 60.96875 22.113281 L 60.96875 54.65625 C 60.96875 54.792969 60.855469 54.90625 60.71875 54.90625 L 60.40625 54.90625 C 60.269531 54.90625 60.160156 54.792969 60.160156 54.65625 L 60.160156 22.113281 C 60.160156 21.972656 60.269531 21.863281 60.40625 21.863281 Z M 60.40625 21.863281 "/>
<path style=" stroke:none;fill-rule:nonzero;fill:rgb(0%,0%,0%);fill-opacity:1;" d="M 47.945312 43.625 C 48.519531 44.199219 49.339844 44.324219 50.160156 44.324219 C 50.308594 44.324219 50.410156 44.421875 50.410156 44.570312 L 50.632812 46.734375 C 50.65625 46.886719 50.535156 47.007812 50.382812 46.984375 L 48.21875 46.761719 C 48.097656 46.734375 47.972656 46.636719 47.972656 46.511719 C 47.972656 45.691406 47.847656 44.871094 47.273438 44.296875 C 46.703125 44.871094 46.605469 45.691406 46.605469 46.511719 C 46.605469 46.636719 46.480469 46.734375 46.355469 46.761719 L 44.167969 46.984375 C 44.015625 47.007812 43.894531 46.886719 43.917969 46.734375 L 44.140625 44.570312 C 44.140625 44.421875 44.242188 44.324219 44.390625 44.324219 C 45.210938 44.324219 46.03125 44.199219 46.605469 43.625 C 46.03125 43.054688 45.210938 42.929688 44.390625 42.929688 C 44.242188 42.929688 44.140625 42.832031 44.140625 42.679688 L 43.917969 40.515625 C 43.894531 40.367188 44.015625 40.242188 44.167969 40.269531 L 46.355469 40.492188 C 46.480469 40.515625 46.578125 40.617188 46.578125 40.742188 C 46.578125 41.5625 46.703125 42.382812 47.273438 42.953125 C 47.847656 42.382812 47.972656 41.5625 47.972656 40.742188 C 47.972656 40.617188 48.097656 40.515625 48.21875 40.492188 L 50.382812 40.269531 C 50.535156 40.242188 50.65625 40.367188 50.632812 40.515625 L 50.410156 42.679688 C 50.410156 42.832031 50.308594 42.929688 50.160156 42.929688 C 49.339844 42.929688 48.519531 43.054688 47.945312 43.625 Z M 47.945312 43.625 "/>
<path style=" stroke:none;fill-rule:nonzero;fill:rgb(0%,0%,0%);fill-opacity:1;" d="M 34.589844 57.605469 C 34.589844 57.855469 34.390625 58.078125 34.140625 58.078125 C 33.890625 58.078125 33.667969 57.855469 33.667969 57.605469 L 33.667969 54 L 31.605469 54.769531 L 31.605469 58.699219 C 31.605469 58.949219 31.378906 59.171875 31.132812 59.171875 C 30.882812 59.171875 30.683594 58.949219 30.683594 58.699219 L 30.683594 55.09375 L 29.886719 55.390625 C 29.835938 55.417969 29.761719 55.417969 29.714844 55.417969 C 29.441406 55.417969 29.214844 55.191406 29.214844 54.917969 L 29.214844 53.425781 C 29.214844 53.226562 29.339844 53.027344 29.539062 52.953125 L 30.683594 52.554688 L 30.683594 48.574219 L 29.886719 48.851562 C 29.835938 48.875 29.761719 48.875 29.714844 48.875 C 29.441406 48.875 29.214844 48.652344 29.214844 48.378906 L 29.214844 46.886719 C 29.214844 46.6875 29.339844 46.511719 29.539062 46.4375 L 30.683594 46.015625 L 30.683594 42.085938 C 30.683594 41.835938 30.882812 41.613281 31.132812 41.613281 C 31.378906 41.613281 31.605469 41.835938 31.605469 42.085938 L 31.605469 45.691406 L 33.667969 44.917969 L 33.667969 40.988281 C 33.667969 40.742188 33.890625 40.515625 34.140625 40.515625 C 34.390625 40.515625 34.589844 40.742188 34.589844 40.988281 L 34.589844 44.597656 L 35.382812 44.296875 C 35.433594 44.273438 35.507812 44.273438 35.558594 44.273438 C 35.832031 44.273438 36.054688 44.496094 36.054688 44.769531 L 36.054688 46.261719 C 36.054688 46.460938 35.929688 46.660156 35.734375 46.734375 L 34.589844 47.132812 L 34.589844 51.113281 L 35.382812 50.839844 C 35.433594 50.816406 35.507812 50.816406 35.558594 50.816406 C 35.832031 50.816406 36.054688 51.039062 36.054688 51.3125 L 36.054688 52.804688 C 36.054688 53.003906 35.929688 53.175781 35.734375 53.253906 L 34.589844 53.675781 Z M 31.605469 48.226562 L 31.605469 52.207031 L 33.667969 51.460938 L 33.667969 47.480469 Z M 31.605469 48.226562 "/>
<path style=" stroke:none;fill-rule:nonzero;fill:rgb(0%,0%,0%);fill-opacity:1;" d="M 42.671875 63.824219 C 42.671875 64.070312 42.472656 64.296875 42.222656 64.296875 C 41.976562 64.296875 41.75 64.070312 41.75 63.824219 L 41.75 60.214844 L 39.6875 60.988281 L 39.6875 64.917969 C 39.6875 65.167969 39.464844 65.390625 39.214844 65.390625 C 38.964844 65.390625 38.765625 65.167969 38.765625 64.917969 L 38.765625 61.3125 L 37.972656 61.609375 C 37.921875 61.632812 37.847656 61.632812 37.796875 61.632812 C 37.523438 61.632812 37.300781 61.410156 37.300781 61.136719 L 37.300781 59.644531 C 37.300781 59.445312 37.425781 59.246094 37.621094 59.171875 L 38.765625 58.773438 L 38.765625 54.792969 L 37.972656 55.066406 C 37.921875 55.09375 37.847656 55.09375 37.796875 55.09375 C 37.523438 55.09375 37.300781 54.867188 37.300781 54.59375 L 37.300781 53.101562 C 37.300781 52.902344 37.425781 52.730469 37.621094 52.65625 L 38.765625 52.230469 L 38.765625 48.300781 C 38.765625 48.054688 38.964844 47.828125 39.214844 47.828125 C 39.464844 47.828125 39.6875 48.054688 39.6875 48.300781 L 39.6875 51.910156 L 41.75 51.136719 L 41.75 47.207031 C 41.75 46.960938 41.976562 46.734375 42.222656 46.734375 C 42.472656 46.734375 42.671875 46.960938 42.671875 47.207031 L 42.671875 50.816406 L 43.46875 50.515625 C 43.519531 50.492188 43.59375 50.492188 43.640625 50.492188 C 43.914062 50.492188 44.140625 50.714844 44.140625 50.988281 L 44.140625 52.480469 C 44.140625 52.679688 44.015625 52.878906 43.816406 52.953125 L 42.671875 53.351562 L 42.671875 57.332031 L 43.46875 57.058594 C 43.519531 57.03125 43.59375 57.03125 43.640625 57.03125 C 43.914062 57.03125 44.140625 57.257812 44.140625 57.53125 L 44.140625 59.023438 C 44.140625 59.222656 44.015625 59.394531 43.816406 59.46875 L 42.671875 59.894531 Z M 39.6875 54.445312 L 39.6875 58.425781 L 41.75 57.679688 L 41.75 53.699219 Z M 39.6875 54.445312 "/>
<path style=" stroke:none;fill-rule:nonzero;fill:rgb(0%,0%,0%);fill-opacity:1;" d="M 16.152344 50.09375 L 16.003906 50.09375 C 13.316406 50.09375 11.152344 47.90625 11.152344 45.195312 C 11.152344 43.75 12.46875 42.632812 13.9375 42.632812 C 15.28125 42.632812 16.300781 43.800781 16.300781 45.195312 C 16.300781 46.488281 15.230469 47.554688 13.9375 47.554688 C 13.664062 47.554688 13.414062 47.507812 13.167969 47.40625 C 13.8125 48.378906 14.859375 49.023438 16.078125 49.023438 L 16.175781 49.023438 Z M 21 39.347656 C 22.691406 38.75 23.8125 36.984375 23.8125 35.269531 C 23.8125 33.03125 22.171875 30.816406 19.507812 30.542969 C 20.105469 33.429688 20.652344 36.289062 21 39.347656 Z M 11.375 33.601562 C 11.375 36.960938 14.585938 39.746094 17.941406 39.746094 C 18.640625 39.746094 19.308594 39.695312 19.980469 39.597656 C 19.632812 36.4375 19.0625 33.503906 18.414062 30.542969 C 16.449219 30.742188 15.332031 32.0625 15.332031 33.503906 C 15.332031 34.597656 15.953125 35.765625 17.34375 36.5625 C 17.46875 36.6875 17.519531 36.8125 17.519531 36.9375 C 17.519531 37.210938 17.269531 37.484375 16.972656 37.484375 C 16.898438 37.484375 16.824219 37.457031 16.75 37.433594 C 14.757812 36.363281 13.839844 34.574219 13.839844 32.832031 C 13.839844 30.644531 15.28125 28.503906 17.816406 27.933594 C 17.46875 26.488281 17.097656 25.023438 16.675781 23.578125 C 14.011719 26.589844 11.375 29.625 11.375 33.601562 Z M 17.867188 40.816406 C 13.191406 40.816406 9.585938 36.539062 9.585938 31.511719 C 9.585938 27.109375 12.84375 23.902344 15.753906 20.542969 C 15.28125 19.003906 14.832031 17.4375 14.632812 15.820312 C 14.484375 14.527344 14.460938 13.230469 14.460938 11.9375 C 14.460938 9.078125 15.828125 6.367188 18.167969 4.675781 C 18.316406 4.550781 18.515625 4.550781 18.664062 4.675781 C 20.429688 6.765625 21.972656 10.769531 21.972656 13.582031 C 21.972656 17.136719 19.832031 19.921875 17.496094 22.632812 C 18.015625 24.324219 18.464844 26.066406 18.886719 27.78125 C 18.988281 27.78125 19.113281 27.757812 19.210938 27.757812 C 23.066406 27.757812 25.578125 30.941406 25.578125 34.25 C 25.578125 36.140625 24.757812 38.078125 22.917969 39.472656 C 22.371094 39.894531 21.746094 40.167969 21.101562 40.367188 C 21.175781 41.238281 21.226562 42.109375 21.226562 42.980469 C 21.226562 43.453125 21.199219 43.949219 21.175781 44.421875 C 21 47.382812 18.988281 50.019531 16.152344 50.09375 L 16.175781 49.023438 C 18.488281 48.972656 19.980469 46.734375 20.132812 44.273438 C 20.15625 43.824219 20.179688 43.351562 20.179688 42.90625 C 20.179688 42.132812 20.15625 41.386719 20.082031 40.617188 C 19.359375 40.742188 18.640625 40.816406 17.867188 40.816406 Z M 20.179688 11.515625 C 20.179688 10.148438 20.082031 9.550781 19.683594 8.308594 C 17.222656 9.5 15.652344 12.011719 15.652344 14.75 C 15.652344 16.589844 16.101562 18.058594 16.550781 19.574219 C 18.539062 17.160156 20.179688 14.648438 20.179688 11.515625 Z M 20.179688 11.515625 "/>
<path style=" stroke:none;fill-rule:nonzero;fill:rgb(0%,0%,0%);fill-opacity:1;" d="M 58.28125 40.242188 C 59.648438 40.242188 60.964844 40.941406 60.964844 42.457031 C 60.964844 44.222656 59.597656 45.46875 58.429688 46.164062 C 57.558594 46.6875 56.5625 47.007812 55.542969 47.007812 C 54.175781 47.007812 52.855469 46.3125 52.855469 44.796875 C 52.855469 43.03125 54.226562 41.785156 55.394531 41.089844 C 56.265625 40.566406 57.261719 40.242188 58.28125 40.242188 Z M 58.28125 40.242188 "/>
<path style=" stroke:none;fill-rule:nonzero;fill:rgb(0%,0%,0%);fill-opacity:1;" d="M 58.28125 46.460938 C 59.648438 46.460938 60.964844 47.160156 60.964844 48.675781 C 60.964844 50.441406 59.597656 51.683594 58.429688 52.382812 C 57.558594 52.902344 56.5625 53.226562 55.542969 53.226562 C 54.175781 53.226562 52.855469 52.53125 52.855469 51.011719 C 52.855469 49.246094 54.226562 48.003906 55.394531 47.308594 C 56.265625 46.785156 57.261719 46.460938 58.28125 46.460938 Z M 58.28125 46.460938 "/>
<path style=" stroke:none;fill-rule:nonzero;fill:rgb(0%,0%,0%);fill-opacity:1;" d="M 58.28125 52.679688 C 59.648438 52.679688 60.964844 53.375 60.964844 54.894531 C 60.964844 56.660156 59.597656 57.902344 58.429688 58.601562 C 57.558594 59.121094 56.5625 59.445312 55.542969 59.445312 C 54.175781 59.445312 52.855469 58.75 52.855469 57.230469 C 52.855469 55.464844 54.226562 54.222656 55.394531 53.527344 C 56.265625 53.003906 57.261719 52.679688 58.28125 52.679688 Z M 58.28125 52.679688 "/>
</g>
</svg>
