<?xml version="1.0" encoding="UTF-8"?>
<svg xmlns="http://www.w3.org/2000/svg" xmlns:xlink="http://www.w3.org/1999/xlink" width="82.588102pt" height="59.355019pt" viewBox="0 0 82.588102 59.355019" version="1.1">
<g id="surface1">
<path style="fill:none;stroke-width:0.1;stroke-linecap:round;stroke-linejoin:round;stroke:rgb(0%,0%,0%);stroke-opacity:1;stroke-miterlimit:4;" d="M 0.049863 -0.000287501 L 10.877543 -0.000287501 " transform="matrix(6.218149,0,0,6.218149,4.561038,40.517413)"/>
<path style="fill:none;stroke-width:0.1;stroke-linecap:round;stroke-linejoin:round;stroke:rgb(0%,0%,0%);stroke-opacity:1;stroke-miterlimit:4;" d="M 0.049863 0.000244052 L 10.877543 0.000244052 " transform="matrix(6.218149,0,0,6.218149,4.561038,34.299264)"/>
<path style="fill:none;stroke-width:0.1;stroke-linecap:round;stroke-linejoin:round;stroke:rgb(0%,0%,0%);stroke-opacity:1;stroke-miterlimit:4;" d="M 0.049863 0.000147403 L 10.877543 0.000147403 " transform="matrix(6.218149,0,0,6.218149,4.561038,28.081115)"/>
<path style="fill:none;stroke-width:0.1;stroke-linecap:round;stroke-linejoin:round;stroke:rgb(0%,0%,0%);stroke-opacity:1;stroke-miterlimit:4;" d="M 0.049863 0.0000507548 L 10.877543 0.0000507548 " transform="matrix(6.218149,0,0,6.218149,4.561038,21.862966)"/>
<path style="fill:none;stroke-width:0.1;stroke-linecap:round;stroke-linejoin:round;stroke:rgb(0%,0%,0%);stroke-opacity:1;stroke-miterlimit:4;" d="M 0.049863 -0.0000458938 L 10.877543 -0.0000458938 " transform="matrix(6.218149,0,0,6.218149,4.561038,15.644817)"/>
<path style=" stroke:none;fill-rule:nonzero;fill:rgb(0%,0%,0%);fill-opacity:1;" d="M 52.4375 46.113281 L 63.355469 46.113281 C 63.699219 46.113281 63.980469 46.390625 63.980469 46.734375 C 63.980469 47.078125 63.699219 47.355469 63.355469 47.355469 L 52.4375 47.355469 C 52.09375 47.355469 51.8125 47.078125 51.8125 46.734375 C 51.8125 46.390625 52.09375 46.113281 52.4375 46.113281 Z M 52.4375 46.113281 "/>
<path style=" stroke:none;fill-rule:nonzero;fill:rgb(0%,0%,0%);fill-opacity:1;" d="M 61.390625 9.425781 L 61.703125 9.425781 C 61.839844 9.425781 61.953125 9.539062 61.953125 9.675781 L 61.953125 45.328125 C 61.953125 45.46875 61.839844 45.578125 61.703125 45.578125 L 61.390625 45.578125 C 61.253906 45.578125 61.144531 45.46875 61.144531 45.328125 L 61.144531 9.675781 C 61.144531 9.539062 61.253906 9.425781 61.390625 9.425781 Z M 61.390625 9.425781 "/>
<path style=" stroke:none;fill-rule:nonzero;fill:rgb(0%,0%,0%);fill-opacity:1;" d="M 47.363281 30.171875 L 47.335938 31.8125 L 47.335938 32.085938 C 47.335938 32.632812 47.363281 33.179688 47.4375 33.726562 C 48.554688 32.78125 49.75 31.738281 49.75 30.269531 C 49.75 29.449219 49.402344 28.601562 48.679688 28.601562 C 47.910156 28.601562 47.386719 29.351562 47.363281 30.171875 Z M 46.316406 34.621094 L 46.019531 19.824219 C 46.21875 19.699219 46.46875 19.625 46.691406 19.625 C 46.914062 19.625 47.164062 19.699219 47.363281 19.824219 L 47.1875 28.40625 C 47.808594 27.882812 48.632812 27.558594 49.453125 27.558594 C 50.746094 27.558594 51.664062 28.753906 51.664062 30.097656 C 51.664062 32.085938 49.527344 33.007812 48.007812 34.300781 C 47.636719 34.621094 47.414062 35.246094 46.890625 35.246094 C 46.566406 35.246094 46.316406 34.972656 46.316406 34.621094 Z M 46.316406 34.621094 "/>
<path style=" stroke:none;fill-rule:nonzero;fill:rgb(0%,0%,0%);fill-opacity:1;" d="M 37.226562 33.28125 L 37.199219 34.921875 L 37.199219 35.195312 C 37.199219 35.742188 37.226562 36.289062 37.300781 36.835938 C 38.417969 35.890625 39.613281 34.847656 39.613281 33.378906 C 39.613281 32.558594 39.265625 31.710938 38.542969 31.710938 C 37.773438 31.710938 37.25 32.457031 37.226562 33.28125 Z M 36.179688 37.730469 L 35.882812 22.933594 C 36.082031 22.808594 36.328125 22.734375 36.554688 22.734375 C 36.777344 22.734375 37.027344 22.808594 37.226562 22.933594 L 37.050781 31.511719 C 37.671875 30.992188 38.492188 30.667969 39.3125 30.667969 C 40.609375 30.667969 41.527344 31.863281 41.527344 33.203125 C 41.527344 35.195312 39.390625 36.113281 37.871094 37.410156 C 37.5 37.730469 37.273438 38.351562 36.753906 38.351562 C 36.429688 38.351562 36.179688 38.078125 36.179688 37.730469 Z M 36.179688 37.730469 "/>
<path style=" stroke:none;fill-rule:nonzero;fill:rgb(0%,0%,0%);fill-opacity:1;" d="M 30.632812 39.496094 L 30.609375 41.140625 L 30.609375 41.414062 C 30.609375 41.960938 30.632812 42.507812 30.707031 43.054688 C 31.828125 42.109375 33.023438 41.066406 33.023438 39.597656 C 33.023438 38.777344 32.671875 37.929688 31.953125 37.929688 C 31.179688 37.929688 30.660156 38.675781 30.632812 39.496094 Z M 29.589844 43.949219 L 29.289062 29.152344 C 29.488281 29.027344 29.738281 28.953125 29.960938 28.953125 C 30.1875 28.953125 30.433594 29.027344 30.632812 29.152344 L 30.460938 37.730469 C 31.082031 37.210938 31.902344 36.886719 32.722656 36.886719 C 34.015625 36.886719 34.9375 38.078125 34.9375 39.421875 C 34.9375 41.414062 32.796875 42.332031 31.28125 43.625 C 30.90625 43.949219 30.683594 44.570312 30.160156 44.570312 C 29.835938 44.570312 29.589844 44.296875 29.589844 43.949219 Z M 29.589844 43.949219 "/>
<path style=" stroke:none;fill-rule:nonzero;fill:rgb(0%,0%,0%);fill-opacity:1;" d="M 43.878906 45.714844 L 43.855469 47.355469 L 43.855469 47.632812 C 43.855469 48.179688 43.878906 48.726562 43.953125 49.273438 C 45.074219 48.328125 46.269531 47.28125 46.269531 45.816406 C 46.269531 44.996094 45.917969 44.148438 45.199219 44.148438 C 44.425781 44.148438 43.90625 44.894531 43.878906 45.714844 Z M 42.835938 50.167969 L 42.539062 35.367188 C 42.734375 35.246094 42.984375 35.167969 43.207031 35.167969 C 43.433594 35.167969 43.679688 35.246094 43.878906 35.367188 L 43.707031 43.949219 C 44.328125 43.425781 45.148438 43.105469 45.96875 43.105469 C 47.261719 43.105469 48.183594 44.296875 48.183594 45.640625 C 48.183594 47.632812 46.042969 48.550781 44.527344 49.84375 C 44.152344 50.167969 43.929688 50.789062 43.40625 50.789062 C 43.085938 50.789062 42.835938 50.515625 42.835938 50.167969 Z M 42.835938 50.167969 "/>
<path style=" stroke:none;fill-rule:nonzero;fill:rgb(0%,0%,0%);fill-opacity:1;" d="M 16.152344 50.09375 L 16.003906 50.09375 C 13.316406 50.09375 11.152344 47.90625 11.152344 45.195312 C 11.152344 43.75 12.46875 42.632812 13.9375 42.632812 C 15.28125 42.632812 16.300781 43.800781 16.300781 45.195312 C 16.300781 46.488281 15.230469 47.554688 13.9375 47.554688 C 13.664062 47.554688 13.414062 47.507812 13.167969 47.40625 C 13.8125 48.378906 14.859375 49.023438 16.078125 49.023438 L 16.175781 49.023438 Z M 21 39.347656 C 22.691406 38.75 23.8125 36.984375 23.8125 35.269531 C 23.8125 33.03125 22.171875 30.816406 19.507812 30.542969 C 20.105469 33.429688 20.652344 36.289062 21 39.347656 Z M 11.375 33.601562 C 11.375 36.960938 14.585938 39.746094 17.941406 39.746094 C 18.640625 39.746094 19.308594 39.695312 19.980469 39.597656 C 19.632812 36.4375 19.0625 33.503906 18.414062 30.542969 C 16.449219 30.742188 15.332031 32.0625 15.332031 33.503906 C 15.332031 34.597656 15.953125 35.765625 17.34375 36.5625 C 17.46875 36.6875 17.519531 36.8125 17.519531 36.9375 C 17.519531 37.210938 17.269531 37.484375 16.972656 37.484375 C 16.898438 37.484375 16.824219 37.457031 16.75 37.433594 C 14.757812 36.363281 13.839844 34.574219 13.839844 32.832031 C 13.839844 30.644531 15.28125 28.503906 17.816406 27.933594 C 17.46875 26.488281 17.097656 25.023438 16.675781 23.578125 C 14.011719 26.589844 11.375 29.625 11.375 33.601562 Z M 17.867188 40.816406 C 13.191406 40.816406 9.585938 36.539062 9.585938 31.511719 C 9.585938 27.109375 12.84375 23.902344 15.753906 20.542969 C 15.28125 19.003906 14.832031 17.4375 14.632812 15.820312 C 14.484375 14.527344 14.460938 13.230469 14.460938 11.9375 C 14.460938 9.078125 15.828125 6.367188 18.167969 4.675781 C 18.316406 4.550781 18.515625 4.550781 18.664062 4.675781 C 20.429688 6.765625 21.972656 10.769531 21.972656 13.582031 C 21.972656 17.136719 19.832031 19.921875 17.496094 22.632812 C 18.015625 24.324219 18.464844 26.066406 18.886719 27.78125 C 18.988281 27.78125 19.113281 27.757812 19.210938 27.757812 C 23.066406 27.757812 25.578125 30.941406 25.578125 34.25 C 25.578125 36.140625 24.757812 38.078125 22.917969 39.472656 C 22.371094 39.894531 21.746094 40.167969 21.101562 40.367188 C 21.175781 41.238281 21.226562 42.109375 21.226562 42.980469 C 21.226562 43.453125 21.199219 43.949219 21.175781 44.421875 C 21 47.382812 18.988281 50.019531 16.152344 50.09375 L 16.175781 49.023438 C 18.488281 48.972656 19.980469 46.734375 20.132812 44.273438 C 20.15625 43.824219 20.179688 43.351562 20.179688 42.90625 C 20.179688 42.132812 20.15625 41.386719 20.082031 40.617188 C 19.359375 40.742188 18.640625 40.816406 17.867188 40.816406 Z M 20.179688 11.515625 C 20.179688 10.148438 20.082031 9.550781 19.683594 8.308594 C 17.222656 9.5 15.652344 12.011719 15.652344 14.75 C 15.652344 16.589844 16.101562 18.058594 16.550781 19.574219 C 18.539062 17.160156 20.179688 14.648438 20.179688 11.515625 Z M 20.179688 11.515625 "/>
<path style=" stroke:none;fill-rule:nonzero;fill:rgb(0%,0%,0%);fill-opacity:1;" d="M 66.96875 27.808594 C 68.335938 27.808594 69.65625 28.503906 69.65625 30.019531 C 69.65625 31.789062 68.289062 33.03125 67.117188 33.726562 C 66.25 34.25 65.253906 34.574219 64.234375 34.574219 C 62.867188 34.574219 61.546875 33.875 61.546875 32.359375 C 61.546875 30.59375 62.914062 29.351562 64.085938 28.652344 C 64.953125 28.132812 65.949219 27.808594 66.96875 27.808594 Z M 66.96875 27.808594 "/>
<path style=" stroke:none;fill-rule:nonzero;fill:rgb(0%,0%,0%);fill-opacity:1;" d="M 59.265625 30.917969 C 60.632812 30.917969 61.949219 31.613281 61.949219 33.128906 C 61.949219 34.894531 60.582031 36.140625 59.414062 36.835938 C 58.542969 37.359375 57.546875 37.683594 56.527344 37.683594 C 55.160156 37.683594 53.839844 36.984375 53.839844 35.46875 C 53.839844 33.703125 55.210938 32.457031 56.378906 31.761719 C 57.25 31.238281 58.246094 30.917969 59.265625 30.917969 Z M 59.265625 30.917969 "/>
<path style=" stroke:none;fill-rule:nonzero;fill:rgb(0%,0%,0%);fill-opacity:1;" d="M 59.265625 37.132812 C 60.632812 37.132812 61.949219 37.832031 61.949219 39.347656 C 61.949219 41.113281 60.582031 42.359375 59.414062 43.054688 C 58.542969 43.578125 57.546875 43.898438 56.527344 43.898438 C 55.160156 43.898438 53.839844 43.203125 53.839844 41.6875 C 53.839844 39.921875 55.210938 38.675781 56.378906 37.980469 C 57.25 37.457031 58.246094 37.132812 59.265625 37.132812 Z M 59.265625 37.132812 "/>
<path style=" stroke:none;fill-rule:nonzero;fill:rgb(0%,0%,0%);fill-opacity:1;" d="M 59.265625 43.351562 C 60.632812 43.351562 61.949219 44.050781 61.949219 45.566406 C 61.949219 47.332031 60.582031 48.574219 59.414062 49.273438 C 58.542969 49.792969 57.546875 50.117188 56.527344 50.117188 C 55.160156 50.117188 53.839844 49.421875 53.839844 47.90625 C 53.839844 46.136719 55.210938 44.894531 56.378906 44.199219 C 57.25 43.675781 58.246094 43.351562 59.265625 43.351562 Z M 59.265625 43.351562 "/>
</g>
</svg>
