<?xml version="1.0" encoding="UTF-8"?>
<svg xmlns="http://www.w3.org/2000/svg" xmlns:xlink="http://www.w3.org/1999/xlink" width="68.472344pt" height="65.857349pt" viewBox="0 0 68.472344 65.857349" version="1.1">
<g id="surface1">
<path style="fill:none;stroke-width:0.1;stroke-linecap:round;stroke-linejoin:round;stroke:rgb(0%,0%,0%);stroke-opacity:1;stroke-miterlimit:4;" d="M 0.049863 -0.000242111 L 8.752337 -0.000242111 " transform="matrix(6.218149,0,0,6.218149,4.561038,56.560099)"/>
<path style="fill:none;stroke-width:0.1;stroke-linecap:round;stroke-linejoin:round;stroke:rgb(0%,0%,0%);stroke-opacity:1;stroke-miterlimit:4;" d="M 0.049863 0.000289441 L 8.752337 0.000289441 " transform="matrix(6.218149,0,0,6.218149,4.561038,50.34195)"/>
<path style="fill:none;stroke-width:0.1;stroke-linecap:round;stroke-linejoin:round;stroke:rgb(0%,0%,0%);stroke-opacity:1;stroke-miterlimit:4;" d="M 0.049863 0.000192316 L 8.752337 0.000192316 " transform="matrix(6.218149,0,0,6.218149,4.561038,44.123804)"/>
<path style="fill:none;stroke-width:0.1;stroke-linecap:round;stroke-linejoin:round;stroke:rgb(0%,0%,0%);stroke-opacity:1;stroke-miterlimit:4;" d="M 0.049863 0.0000956673 L 8.752337 0.0000956673 " transform="matrix(6.218149,0,0,6.218149,4.561038,37.905655)"/>
<path style="fill:none;stroke-width:0.1;stroke-linecap:round;stroke-linejoin:round;stroke:rgb(0%,0%,0%);stroke-opacity:1;stroke-miterlimit:4;" d="M 0.049863 -0.000000981293 L 8.752337 -0.000000981293 " transform="matrix(6.218149,0,0,6.218149,4.561038,31.687506)"/>
<path style=" stroke:none;fill-rule:nonzero;fill:rgb(0%,0%,0%);fill-opacity:1;" d="M 40.160156 18.628906 L 50.140625 18.628906 C 50.484375 18.628906 50.765625 18.90625 50.765625 19.25 C 50.765625 19.59375 50.484375 19.871094 50.140625 19.871094 L 40.160156 19.871094 C 39.816406 19.871094 39.539062 19.59375 39.539062 19.25 C 39.539062 18.90625 39.816406 18.628906 40.160156 18.628906 Z M 40.160156 18.628906 "/>
<path style=" stroke:none;fill-rule:nonzero;fill:rgb(0%,0%,0%);fill-opacity:1;" d="M 39.21875 24.847656 L 50.140625 24.847656 C 50.484375 24.847656 50.761719 25.125 50.761719 25.46875 C 50.761719 25.8125 50.484375 26.089844 50.140625 26.089844 L 39.21875 26.089844 C 38.878906 26.089844 38.597656 25.8125 38.597656 25.46875 C 38.597656 25.125 38.878906 24.847656 39.21875 24.847656 Z M 39.21875 24.847656 "/>
<path style=" stroke:none;fill-rule:nonzero;fill:rgb(0%,0%,0%);fill-opacity:1;" d="M 40.875 17.300781 L 41.1875 17.300781 C 41.324219 17.300781 41.433594 17.410156 41.433594 17.546875 L 41.433594 43.875 C 41.433594 44.011719 41.324219 44.125 41.1875 44.125 L 40.875 44.125 C 40.738281 44.125 40.625 44.011719 40.625 43.875 L 40.625 17.546875 C 40.625 17.410156 40.738281 17.300781 40.875 17.300781 Z M 40.875 17.300781 "/>
<path style=" stroke:none;fill-rule:nonzero;fill:rgb(0%,0%,0%);fill-opacity:1;" d="M 34.148438 15.121094 L 34.121094 16.765625 L 34.121094 17.039062 C 34.121094 17.585938 34.148438 18.132812 34.222656 18.679688 C 35.339844 17.734375 36.535156 16.6875 36.535156 15.222656 C 36.535156 14.402344 36.1875 13.554688 35.464844 13.554688 C 34.695312 13.554688 34.171875 14.300781 34.148438 15.121094 Z M 33.101562 19.574219 L 32.804688 4.773438 C 33.003906 4.652344 33.25 4.578125 33.476562 4.578125 C 33.699219 4.578125 33.949219 4.652344 34.148438 4.773438 L 33.972656 13.355469 C 34.59375 12.835938 35.414062 12.511719 36.234375 12.511719 C 37.53125 12.511719 38.449219 13.703125 38.449219 15.046875 C 38.449219 17.039062 36.3125 17.957031 34.792969 19.25 C 34.421875 19.574219 34.195312 20.195312 33.675781 20.195312 C 33.351562 20.195312 33.101562 19.921875 33.101562 19.574219 Z M 33.101562 19.574219 "/>
<path style=" stroke:none;fill-rule:nonzero;fill:rgb(0%,0%,0%);fill-opacity:1;" d="M 23.390625 41.015625 C 23.390625 40.316406 23.960938 39.746094 24.65625 39.746094 C 25.355469 39.746094 25.925781 40.316406 25.925781 41.015625 C 25.925781 41.710938 25.355469 42.285156 24.65625 42.285156 C 23.960938 42.285156 23.390625 41.710938 23.390625 41.015625 Z M 23.390625 34.796875 C 23.390625 34.101562 23.960938 33.527344 24.65625 33.527344 C 25.355469 33.527344 25.925781 34.101562 25.925781 34.796875 C 25.925781 35.492188 25.355469 36.066406 24.65625 36.066406 C 23.960938 36.066406 23.390625 35.492188 23.390625 34.796875 Z M 15.304688 31.363281 C 19.585938 31.363281 22.59375 33.554688 22.59375 37.605469 C 22.59375 44.148438 16.050781 47.90625 9.757812 50.566406 C 9.683594 50.640625 9.609375 50.664062 9.535156 50.664062 C 9.363281 50.664062 9.210938 50.515625 9.210938 50.34375 C 9.210938 50.265625 9.238281 50.191406 9.3125 50.117188 C 14.335938 47.183594 19.558594 43.527344 19.558594 37.855469 C 19.558594 34.871094 17.992188 32.011719 15.304688 32.011719 C 13.464844 32.011719 12.097656 33.355469 11.476562 35.144531 C 11.75 35.019531 12.023438 34.945312 12.320312 34.945312 C 13.6875 34.945312 14.808594 36.066406 14.808594 37.433594 C 14.808594 38.875 13.714844 40.070312 12.320312 40.070312 C 10.828125 40.070312 9.535156 38.902344 9.535156 37.433594 C 9.535156 34.125 12.074219 31.363281 15.304688 31.363281 Z M 15.304688 31.363281 "/>
<path style=" stroke:none;fill-rule:nonzero;fill:rgb(0%,0%,0%);fill-opacity:1;" d="M 46.046875 12.757812 C 47.417969 12.757812 48.734375 13.457031 48.734375 14.972656 C 48.734375 16.738281 47.367188 17.984375 46.199219 18.679688 C 45.328125 19.203125 44.332031 19.523438 43.3125 19.523438 C 41.945312 19.523438 40.625 18.828125 40.625 17.3125 C 40.625 15.546875 41.996094 14.300781 43.164062 13.605469 C 44.035156 13.082031 45.027344 12.757812 46.046875 12.757812 Z M 46.046875 12.757812 "/>
</g>
</svg>
