<?xml version="1.0" encoding="UTF-8"?>
<svg xmlns="http://www.w3.org/2000/svg" xmlns:xlink="http://www.w3.org/1999/xlink" width="72.54574pt" height="54.52645pt" viewBox="0 0 72.54574 54.52645" version="1.1">
<g id="surface1">
<path style="fill:none;stroke-width:0.1;stroke-linecap:round;stroke-linejoin:round;stroke:rgb(0%,0%,0%);stroke-opacity:1;stroke-miterlimit:4;" d="M 0.049863 -0.0001075 L 9.365462 -0.0001075 " transform="matrix(6.218149,0,0,6.218149,4.561038,29.434262)"/>
<path style="fill:none;stroke-width:0.1;stroke-linecap:round;stroke-linejoin:round;stroke:rgb(0%,0%,0%);stroke-opacity:1;stroke-miterlimit:4;" d="M 0.049863 -0.000204149 L 9.365462 -0.000204149 " transform="matrix(6.218149,0,0,6.218149,4.561038,23.216113)"/>
<path style="fill:none;stroke-width:0.1;stroke-linecap:round;stroke-linejoin:round;stroke:rgb(0%,0%,0%);stroke-opacity:1;stroke-miterlimit:4;" d="M 0.049863 -0.000300797 L 9.365462 -0.000300797 " transform="matrix(6.218149,0,0,6.218149,4.561038,16.997964)"/>
<path style="fill:none;stroke-width:0.1;stroke-linecap:round;stroke-linejoin:round;stroke:rgb(0%,0%,0%);stroke-opacity:1;stroke-miterlimit:4;" d="M 0.049863 0.000230756 L 9.365462 0.000230756 " transform="matrix(6.218149,0,0,6.218149,4.561038,10.779815)"/>
<path style="fill:none;stroke-width:0.1;stroke-linecap:round;stroke-linejoin:round;stroke:rgb(0%,0%,0%);stroke-opacity:1;stroke-miterlimit:4;" d="M 0.049863 0.000133988 L 9.365462 0.000133988 " transform="matrix(6.218149,0,0,6.218149,4.561038,4.561667)"/>
<path style=" stroke:none;fill-rule:nonzero;fill:rgb(0%,0%,0%);fill-opacity:1;" d="M 43.035156 35.03125 L 53.957031 35.03125 C 54.300781 35.03125 54.578125 35.308594 54.578125 35.652344 C 54.578125 35.996094 54.300781 36.273438 53.957031 36.273438 L 43.035156 36.273438 C 42.691406 36.273438 42.414062 35.996094 42.414062 35.652344 C 42.414062 35.308594 42.691406 35.03125 43.035156 35.03125 Z M 43.035156 35.03125 "/>
<path style=" stroke:none;fill-rule:nonzero;fill:rgb(0%,0%,0%);fill-opacity:1;" d="M 43.035156 41.25 L 53.957031 41.25 C 54.300781 41.25 54.578125 41.527344 54.578125 41.871094 C 54.578125 42.214844 54.300781 42.492188 53.957031 42.492188 L 43.035156 42.492188 C 42.691406 42.492188 42.414062 42.214844 42.414062 41.871094 C 42.414062 41.527344 42.691406 41.25 43.035156 41.25 Z M 43.035156 41.25 "/>
<path style=" stroke:none;fill-rule:nonzero;fill:rgb(0%,0%,0%);fill-opacity:1;" d="M 51.992188 7.671875 L 52.300781 7.671875 C 52.4375 7.671875 52.550781 7.78125 52.550781 7.917969 L 52.550781 40.464844 C 52.550781 40.601562 52.4375 40.714844 52.300781 40.714844 L 51.992188 40.714844 C 51.851562 40.714844 51.742188 40.601562 51.742188 40.464844 L 51.742188 7.917969 C 51.742188 7.78125 51.851562 7.671875 51.992188 7.671875 Z M 51.992188 7.671875 "/>
<path style=" stroke:none;fill-rule:nonzero;fill:rgb(0%,0%,0%);fill-opacity:1;" d="M 37.960938 34.632812 L 37.9375 36.273438 L 37.9375 36.546875 C 37.9375 37.09375 37.960938 37.640625 38.035156 38.1875 C 39.15625 37.246094 40.347656 36.199219 40.347656 34.730469 C 40.347656 33.910156 40 33.066406 39.28125 33.066406 C 38.507812 33.066406 37.984375 33.8125 37.960938 34.632812 Z M 36.917969 39.085938 L 36.617188 24.285156 C 36.816406 24.160156 37.066406 24.085938 37.289062 24.085938 C 37.511719 24.085938 37.761719 24.160156 37.960938 24.285156 L 37.785156 32.867188 C 38.410156 32.34375 39.230469 32.019531 40.050781 32.019531 C 41.34375 32.019531 42.265625 33.214844 42.265625 34.558594 C 42.265625 36.546875 40.125 37.46875 38.609375 38.761719 C 38.234375 39.085938 38.011719 39.707031 37.488281 39.707031 C 37.164062 39.707031 36.917969 39.433594 36.917969 39.085938 Z M 36.917969 39.085938 "/>
<path style=" stroke:none;fill-rule:nonzero;fill:rgb(0%,0%,0%);fill-opacity:1;" d="M 31.371094 40.851562 L 31.34375 42.492188 L 31.34375 42.765625 C 31.34375 43.3125 31.371094 43.859375 31.445312 44.40625 C 32.5625 43.460938 33.757812 42.417969 33.757812 40.949219 C 33.757812 40.128906 33.410156 39.285156 32.6875 39.285156 C 31.917969 39.285156 31.394531 40.03125 31.371094 40.851562 Z M 30.324219 45.304688 L 30.027344 30.503906 C 30.226562 30.378906 30.472656 30.304688 30.699219 30.304688 C 30.921875 30.304688 31.171875 30.378906 31.371094 30.503906 L 31.195312 39.085938 C 31.816406 38.5625 32.636719 38.238281 33.460938 38.238281 C 34.753906 38.238281 35.671875 39.433594 35.671875 40.777344 C 35.671875 42.765625 33.535156 43.6875 32.015625 44.980469 C 31.644531 45.304688 31.417969 45.925781 30.898438 45.925781 C 30.574219 45.925781 30.324219 45.652344 30.324219 45.304688 Z M 30.324219 45.304688 "/>
<path style=" stroke:none;fill-rule:nonzero;fill:rgb(0%,0%,0%);fill-opacity:1;" d="M 23.390625 13.890625 C 23.390625 13.191406 23.960938 12.621094 24.65625 12.621094 C 25.355469 12.621094 25.925781 13.191406 25.925781 13.890625 C 25.925781 14.585938 25.355469 15.15625 24.65625 15.15625 C 23.960938 15.15625 23.390625 14.585938 23.390625 13.890625 Z M 23.390625 7.671875 C 23.390625 6.972656 23.960938 6.402344 24.65625 6.402344 C 25.355469 6.402344 25.925781 6.972656 25.925781 7.671875 C 25.925781 8.367188 25.355469 8.9375 24.65625 8.9375 C 23.960938 8.9375 23.390625 8.367188 23.390625 7.671875 Z M 15.304688 4.238281 C 19.585938 4.238281 22.59375 6.425781 22.59375 10.480469 C 22.59375 17.023438 16.050781 20.777344 9.757812 23.441406 C 9.683594 23.515625 9.609375 23.539062 9.535156 23.539062 C 9.363281 23.539062 9.210938 23.390625 9.210938 23.214844 C 9.210938 23.140625 9.238281 23.066406 9.3125 22.992188 C 14.335938 20.058594 19.558594 16.402344 19.558594 10.730469 C 19.558594 7.746094 17.992188 4.886719 15.304688 4.886719 C 13.464844 4.886719 12.097656 6.226562 11.476562 8.019531 C 11.75 7.894531 12.023438 7.820312 12.320312 7.820312 C 13.6875 7.820312 14.808594 8.9375 14.808594 10.308594 C 14.808594 11.75 13.714844 12.945312 12.320312 12.945312 C 10.828125 12.945312 9.535156 11.773438 9.535156 10.308594 C 9.535156 7 12.074219 4.238281 15.304688 4.238281 Z M 15.304688 4.238281 "/>
<path style=" stroke:none;fill-rule:nonzero;fill:rgb(0%,0%,0%);fill-opacity:1;" d="M 49.863281 26.050781 C 51.230469 26.050781 52.550781 26.746094 52.550781 28.265625 C 52.550781 30.03125 51.179688 31.273438 50.011719 31.972656 C 49.140625 32.492188 48.148438 32.816406 47.125 32.816406 C 45.757812 32.816406 44.441406 32.121094 44.441406 30.601562 C 44.441406 28.835938 45.808594 27.59375 46.976562 26.898438 C 47.847656 26.375 48.84375 26.050781 49.863281 26.050781 Z M 49.863281 26.050781 "/>
<path style=" stroke:none;fill-rule:nonzero;fill:rgb(0%,0%,0%);fill-opacity:1;" d="M 49.863281 32.269531 C 51.230469 32.269531 52.550781 32.964844 52.550781 34.484375 C 52.550781 36.25 51.179688 37.492188 50.011719 38.1875 C 49.140625 38.710938 48.148438 39.035156 47.125 39.035156 C 45.757812 39.035156 44.441406 38.339844 44.441406 36.820312 C 44.441406 35.054688 45.808594 33.8125 46.976562 33.117188 C 47.847656 32.59375 48.84375 32.269531 49.863281 32.269531 Z M 49.863281 32.269531 "/>
<path style=" stroke:none;fill-rule:nonzero;fill:rgb(0%,0%,0%);fill-opacity:1;" d="M 49.863281 38.488281 C 51.230469 38.488281 52.550781 39.183594 52.550781 40.703125 C 52.550781 42.46875 51.179688 43.710938 50.011719 44.40625 C 49.140625 44.929688 48.148438 45.253906 47.125 45.253906 C 45.757812 45.253906 44.441406 44.558594 44.441406 43.039062 C 44.441406 41.273438 45.808594 40.03125 46.976562 39.332031 C 47.847656 38.8125 48.84375 38.488281 49.863281 38.488281 Z M 49.863281 38.488281 "/>
</g>
</svg>
