<?xml version="1.0" encoding="UTF-8"?>
<svg xmlns="http://www.w3.org/2000/svg" xmlns:xlink="http://www.w3.org/1999/xlink" width="68.472344pt" height="70.041633pt" viewBox="0 0 68.472344 70.041633" version="1.1">
<g id="surface1">
<path style="fill:none;stroke-width:0.1;stroke-linecap:round;stroke-linejoin:round;stroke:rgb(0%,0%,0%);stroke-opacity:1;stroke-miterlimit:4;" d="M 0.049863 -0.000250188 L 8.752337 -0.000250188 " transform="matrix(6.218149,0,0,6.218149,4.561038,51.212493)"/>
<path style="fill:none;stroke-width:0.1;stroke-linecap:round;stroke-linejoin:round;stroke:rgb(0%,0%,0%);stroke-opacity:1;stroke-miterlimit:4;" d="M 0.049863 0.000281364 L 8.752337 0.000281364 " transform="matrix(6.218149,0,0,6.218149,4.561038,44.994344)"/>
<path style="fill:none;stroke-width:0.1;stroke-linecap:round;stroke-linejoin:round;stroke:rgb(0%,0%,0%);stroke-opacity:1;stroke-miterlimit:4;" d="M 0.049863 0.000184716 L 8.752337 0.000184716 " transform="matrix(6.218149,0,0,6.218149,4.561038,38.776195)"/>
<path style="fill:none;stroke-width:0.1;stroke-linecap:round;stroke-linejoin:round;stroke:rgb(0%,0%,0%);stroke-opacity:1;stroke-miterlimit:4;" d="M 0.049863 0.0000880672 L 8.752337 0.0000880672 " transform="matrix(6.218149,0,0,6.218149,4.561038,32.558046)"/>
<path style="fill:none;stroke-width:0.1;stroke-linecap:round;stroke-linejoin:round;stroke:rgb(0%,0%,0%);stroke-opacity:1;stroke-miterlimit:4;" d="M 0.049863 -0.00000858141 L 8.752337 -0.00000858141 " transform="matrix(6.218149,0,0,6.218149,4.561038,26.339897)"/>
<path style=" stroke:none;fill-rule:nonzero;fill:rgb(0%,0%,0%);fill-opacity:1;" d="M 40.160156 13.28125 L 50.140625 13.28125 C 50.484375 13.28125 50.765625 13.558594 50.765625 13.902344 C 50.765625 14.246094 50.484375 14.527344 50.140625 14.527344 L 40.160156 14.527344 C 39.816406 14.527344 39.539062 14.246094 39.539062 13.902344 C 39.539062 13.558594 39.816406 13.28125 40.160156 13.28125 Z M 40.160156 13.28125 "/>
<path style=" stroke:none;fill-rule:nonzero;fill:rgb(0%,0%,0%);fill-opacity:1;" d="M 39.21875 19.5 L 50.140625 19.5 C 50.484375 19.5 50.761719 19.777344 50.761719 20.121094 C 50.761719 20.464844 50.484375 20.742188 50.140625 20.742188 L 39.21875 20.742188 C 38.878906 20.742188 38.597656 20.464844 38.597656 20.121094 C 38.597656 19.777344 38.878906 19.5 39.21875 19.5 Z M 39.21875 19.5 "/>
<path style=" stroke:none;fill-rule:nonzero;fill:rgb(0%,0%,0%);fill-opacity:1;" d="M 36.984375 21.664062 C 36.984375 21.914062 36.785156 22.136719 36.535156 22.136719 C 36.285156 22.136719 36.0625 21.914062 36.0625 21.664062 L 36.0625 18.058594 L 33.996094 18.828125 L 33.996094 22.757812 C 33.996094 23.007812 33.773438 23.230469 33.523438 23.230469 C 33.277344 23.230469 33.078125 23.007812 33.078125 22.757812 L 33.078125 19.152344 L 32.28125 19.449219 C 32.230469 19.476562 32.15625 19.476562 32.109375 19.476562 C 31.832031 19.476562 31.609375 19.25 31.609375 18.976562 L 31.609375 17.484375 C 31.609375 17.285156 31.734375 17.085938 31.933594 17.011719 L 33.078125 16.613281 L 33.078125 12.636719 L 32.28125 12.910156 C 32.230469 12.933594 32.15625 12.933594 32.109375 12.933594 C 31.832031 12.933594 31.609375 12.710938 31.609375 12.4375 L 31.609375 10.945312 C 31.609375 10.746094 31.734375 10.570312 31.933594 10.496094 L 33.078125 10.074219 L 33.078125 6.144531 C 33.078125 5.894531 33.277344 5.671875 33.523438 5.671875 C 33.773438 5.671875 33.996094 5.894531 33.996094 6.144531 L 33.996094 9.75 L 36.0625 8.980469 L 36.0625 5.050781 C 36.0625 4.800781 36.285156 4.578125 36.535156 4.578125 C 36.785156 4.578125 36.984375 4.800781 36.984375 5.050781 L 36.984375 8.65625 L 37.777344 8.355469 C 37.828125 8.332031 37.902344 8.332031 37.953125 8.332031 C 38.226562 8.332031 38.449219 8.554688 38.449219 8.828125 L 38.449219 10.320312 C 38.449219 10.519531 38.324219 10.71875 38.125 10.792969 L 36.984375 11.191406 L 36.984375 15.171875 L 37.777344 14.898438 C 37.828125 14.875 37.902344 14.875 37.953125 14.875 C 38.226562 14.875 38.449219 15.097656 38.449219 15.371094 L 38.449219 16.863281 C 38.449219 17.0625 38.324219 17.238281 38.125 17.3125 L 36.984375 17.734375 Z M 33.996094 12.285156 L 33.996094 16.265625 L 36.0625 15.519531 L 36.0625 11.539062 Z M 33.996094 12.285156 "/>
<path style=" stroke:none;fill-rule:nonzero;fill:rgb(0%,0%,0%);fill-opacity:1;" d="M 40.875 15.0625 L 41.1875 15.0625 C 41.324219 15.0625 41.433594 15.171875 41.433594 15.308594 L 41.433594 47.855469 C 41.433594 47.992188 41.324219 48.101562 41.1875 48.101562 L 40.875 48.101562 C 40.738281 48.101562 40.625 47.992188 40.625 47.855469 L 40.625 15.308594 C 40.625 15.171875 40.738281 15.0625 40.875 15.0625 Z M 40.875 15.0625 "/>
<path style=" stroke:none;fill-rule:nonzero;fill:rgb(0%,0%,0%);fill-opacity:1;" d="M 16.152344 60.789062 L 16.003906 60.789062 C 13.316406 60.789062 11.152344 58.601562 11.152344 55.886719 C 11.152344 54.445312 12.46875 53.328125 13.9375 53.328125 C 15.28125 53.328125 16.300781 54.496094 16.300781 55.886719 C 16.300781 57.183594 15.230469 58.25 13.9375 58.25 C 13.664062 58.25 13.414062 58.203125 13.167969 58.101562 C 13.8125 59.070312 14.859375 59.71875 16.078125 59.71875 L 16.175781 59.71875 Z M 21 50.042969 C 22.691406 49.445312 23.8125 47.679688 23.8125 45.964844 C 23.8125 43.726562 22.171875 41.511719 19.507812 41.238281 C 20.105469 44.125 20.652344 46.984375 21 50.042969 Z M 11.375 44.296875 C 11.375 47.65625 14.585938 50.441406 17.941406 50.441406 C 18.640625 50.441406 19.308594 50.390625 19.980469 50.292969 C 19.632812 47.132812 19.0625 44.199219 18.414062 41.238281 C 16.449219 41.4375 15.332031 42.753906 15.332031 44.199219 C 15.332031 45.292969 15.953125 46.460938 17.34375 47.257812 C 17.46875 47.382812 17.519531 47.507812 17.519531 47.628906 C 17.519531 47.90625 17.269531 48.179688 16.972656 48.179688 C 16.898438 48.179688 16.824219 48.152344 16.75 48.128906 C 14.757812 47.058594 13.839844 45.269531 13.839844 43.527344 C 13.839844 41.339844 15.28125 39.199219 17.816406 38.628906 C 17.46875 37.183594 17.097656 35.71875 16.675781 34.273438 C 14.011719 37.285156 11.375 40.316406 11.375 44.296875 Z M 17.867188 51.511719 C 13.191406 51.511719 9.585938 47.234375 9.585938 42.207031 C 9.585938 37.804688 12.84375 34.597656 15.753906 31.238281 C 15.28125 29.699219 14.832031 28.128906 14.632812 26.515625 C 14.484375 25.21875 14.460938 23.925781 14.460938 22.632812 C 14.460938 19.773438 15.828125 17.0625 18.167969 15.371094 C 18.316406 15.246094 18.515625 15.246094 18.664062 15.371094 C 20.429688 17.460938 21.972656 21.464844 21.972656 24.277344 C 21.972656 27.832031 19.832031 30.617188 17.496094 33.328125 C 18.015625 35.019531 18.464844 36.761719 18.886719 38.476562 C 18.988281 38.476562 19.113281 38.453125 19.210938 38.453125 C 23.066406 38.453125 25.578125 41.636719 25.578125 44.945312 C 25.578125 46.835938 24.757812 48.773438 22.917969 50.167969 C 22.371094 50.589844 21.746094 50.863281 21.101562 51.0625 C 21.175781 51.933594 21.226562 52.804688 21.226562 53.675781 C 21.226562 54.148438 21.199219 54.644531 21.175781 55.117188 C 21 58.078125 18.988281 60.714844 16.152344 60.789062 L 16.175781 59.71875 C 18.488281 59.667969 19.980469 57.429688 20.132812 54.96875 C 20.15625 54.519531 20.179688 54.046875 20.179688 53.601562 C 20.179688 52.828125 20.15625 52.082031 20.082031 51.3125 C 19.359375 51.4375 18.640625 51.511719 17.867188 51.511719 Z M 20.179688 22.210938 C 20.179688 20.84375 20.082031 20.246094 19.683594 19.003906 C 17.222656 20.195312 15.652344 22.707031 15.652344 25.445312 C 15.652344 27.285156 16.101562 28.753906 16.550781 30.269531 C 18.539062 27.855469 20.179688 25.34375 20.179688 22.210938 Z M 20.179688 22.210938 "/>
<path style=" stroke:none;fill-rule:nonzero;fill:rgb(0%,0%,0%);fill-opacity:1;" d="M 46.046875 10.519531 C 47.417969 10.519531 48.734375 11.21875 48.734375 12.734375 C 48.734375 14.5 47.367188 15.746094 46.199219 16.441406 C 45.328125 16.964844 44.332031 17.285156 43.3125 17.285156 C 41.945312 17.285156 40.625 16.589844 40.625 15.074219 C 40.625 13.308594 41.996094 12.0625 43.164062 11.367188 C 44.035156 10.84375 45.027344 10.519531 46.046875 10.519531 Z M 46.046875 10.519531 "/>
<path style=" stroke:none;fill-rule:nonzero;fill:rgb(0%,0%,0%);fill-opacity:1;" d="M 46.046875 16.738281 C 47.417969 16.738281 48.734375 17.433594 48.734375 18.953125 C 48.734375 20.71875 47.367188 21.960938 46.199219 22.660156 C 45.328125 23.179688 44.332031 23.503906 43.3125 23.503906 C 41.945312 23.503906 40.625 22.808594 40.625 21.289062 C 40.625 19.523438 41.996094 18.28125 43.164062 17.585938 C 44.035156 17.0625 45.027344 16.738281 46.046875 16.738281 Z M 46.046875 16.738281 "/>
<path style=" stroke:none;fill-rule:nonzero;fill:rgb(0%,0%,0%);fill-opacity:1;" d="M 46.046875 22.957031 C 47.417969 22.957031 48.734375 23.652344 48.734375 25.171875 C 48.734375 26.9375 47.367188 28.179688 46.199219 28.875 C 45.328125 29.398438 44.332031 29.722656 43.3125 29.722656 C 41.945312 29.722656 40.625 29.027344 40.625 27.507812 C 40.625 25.742188 41.996094 24.5 43.164062 23.804688 C 44.035156 23.28125 45.027344 22.957031 46.046875 22.957031 Z M 46.046875 22.957031 "/>
</g>
</svg>
