<?xml version="1.0" encoding="UTF-8"?>
<svg xmlns="http://www.w3.org/2000/svg" xmlns:xlink="http://www.w3.org/1999/xlink" width="74.549567pt" height="58.61114pt" viewBox="0 0 74.549567 58.61114" version="1.1">
<g id="surface1">
<path style="fill:none;stroke-width:0.1;stroke-linecap:round;stroke-linejoin:round;stroke:rgb(0%,0%,0%);stroke-opacity:1;stroke-miterlimit:4;" d="M 0.049863 -0.000287501 L 9.666998 -0.000287501 " transform="matrix(6.218149,0,0,6.218149,4.561038,40.517413)"/>
<path style="fill:none;stroke-width:0.1;stroke-linecap:round;stroke-linejoin:round;stroke:rgb(0%,0%,0%);stroke-opacity:1;stroke-miterlimit:4;" d="M 0.049863 0.000244052 L 9.666998 0.000244052 " transform="matrix(6.218149,0,0,6.218149,4.561038,34.299264)"/>
<path style="fill:none;stroke-width:0.1;stroke-linecap:round;stroke-linejoin:round;stroke:rgb(0%,0%,0%);stroke-opacity:1;stroke-miterlimit:4;" d="M 0.049863 0.000147403 L 9.666998 0.000147403 " transform="matrix(6.218149,0,0,6.218149,4.561038,28.081115)"/>
<path style="fill:none;stroke-width:0.1;stroke-linecap:round;stroke-linejoin:round;stroke:rgb(0%,0%,0%);stroke-opacity:1;stroke-miterlimit:4;" d="M 0.049863 0.0000507548 L 9.666998 0.0000507548 " transform="matrix(6.218149,0,0,6.218149,4.561038,21.862966)"/>
<path style="fill:none;stroke-width:0.1;stroke-linecap:round;stroke-linejoin:round;stroke:rgb(0%,0%,0%);stroke-opacity:1;stroke-miterlimit:4;" d="M 0.049863 -0.0000458938 L 9.666998 -0.0000458938 " transform="matrix(6.218149,0,0,6.218149,4.561038,15.644817)"/>
<path style=" stroke:none;fill-rule:nonzero;fill:rgb(0%,0%,0%);fill-opacity:1;" d="M 42.671875 32.730469 C 42.671875 32.980469 42.472656 33.203125 42.222656 33.203125 C 41.976562 33.203125 41.75 32.980469 41.75 32.730469 L 41.75 29.125 L 39.6875 29.898438 L 39.6875 33.828125 C 39.6875 34.074219 39.464844 34.300781 39.214844 34.300781 C 38.964844 34.300781 38.765625 34.074219 38.765625 33.828125 L 38.765625 30.21875 L 37.972656 30.519531 C 37.921875 30.542969 37.847656 30.542969 37.796875 30.542969 C 37.523438 30.542969 37.300781 30.320312 37.300781 30.046875 L 37.300781 28.554688 C 37.300781 28.355469 37.425781 28.15625 37.621094 28.082031 L 38.765625 27.683594 L 38.765625 23.703125 L 37.972656 23.976562 C 37.921875 24.003906 37.847656 24.003906 37.796875 24.003906 C 37.523438 24.003906 37.300781 23.777344 37.300781 23.503906 L 37.300781 22.011719 C 37.300781 21.8125 37.425781 21.640625 37.621094 21.566406 L 38.765625 21.140625 L 38.765625 17.210938 C 38.765625 16.964844 38.964844 16.738281 39.214844 16.738281 C 39.464844 16.738281 39.6875 16.964844 39.6875 17.210938 L 39.6875 20.816406 L 41.75 20.046875 L 41.75 16.117188 C 41.75 15.867188 41.976562 15.644531 42.222656 15.644531 C 42.472656 15.644531 42.671875 15.867188 42.671875 16.117188 L 42.671875 19.722656 L 43.46875 19.425781 C 43.519531 19.402344 43.59375 19.402344 43.640625 19.402344 C 43.914062 19.402344 44.140625 19.625 44.140625 19.898438 L 44.140625 21.390625 C 44.140625 21.589844 44.015625 21.789062 43.816406 21.863281 L 42.671875 22.261719 L 42.671875 26.242188 L 43.46875 25.96875 C 43.519531 25.941406 43.59375 25.941406 43.640625 25.941406 C 43.914062 25.941406 44.140625 26.164062 44.140625 26.441406 L 44.140625 27.933594 C 44.140625 28.132812 44.015625 28.304688 43.816406 28.378906 L 42.671875 28.800781 Z M 39.6875 23.355469 L 39.6875 27.335938 L 41.75 26.589844 L 41.75 22.609375 Z M 39.6875 23.355469 "/>
<path style=" stroke:none;fill-rule:nonzero;fill:rgb(0%,0%,0%);fill-opacity:1;" d="M 34.589844 42.058594 C 34.589844 42.308594 34.390625 42.53125 34.140625 42.53125 C 33.890625 42.53125 33.667969 42.308594 33.667969 42.058594 L 33.667969 38.453125 L 31.605469 39.222656 L 31.605469 43.152344 C 31.605469 43.402344 31.378906 43.625 31.132812 43.625 C 30.882812 43.625 30.683594 43.402344 30.683594 43.152344 L 30.683594 39.546875 L 29.886719 39.847656 C 29.835938 39.871094 29.761719 39.871094 29.714844 39.871094 C 29.441406 39.871094 29.214844 39.648438 29.214844 39.375 L 29.214844 37.882812 C 29.214844 37.683594 29.339844 37.484375 29.539062 37.410156 L 30.683594 37.011719 L 30.683594 33.03125 L 29.886719 33.304688 C 29.835938 33.328125 29.761719 33.328125 29.714844 33.328125 C 29.441406 33.328125 29.214844 33.105469 29.214844 32.832031 L 29.214844 31.339844 C 29.214844 31.140625 29.339844 30.964844 29.539062 30.890625 L 30.683594 30.46875 L 30.683594 26.539062 C 30.683594 26.289062 30.882812 26.066406 31.132812 26.066406 C 31.378906 26.066406 31.605469 26.289062 31.605469 26.539062 L 31.605469 30.144531 L 33.667969 29.375 L 33.667969 25.445312 C 33.667969 25.195312 33.890625 24.972656 34.140625 24.972656 C 34.390625 24.972656 34.589844 25.195312 34.589844 25.445312 L 34.589844 29.050781 L 35.382812 28.753906 C 35.433594 28.726562 35.507812 28.726562 35.558594 28.726562 C 35.832031 28.726562 36.054688 28.953125 36.054688 29.226562 L 36.054688 30.71875 C 36.054688 30.917969 35.929688 31.117188 35.734375 31.191406 L 34.589844 31.589844 L 34.589844 35.566406 L 35.382812 35.292969 C 35.433594 35.269531 35.507812 35.269531 35.558594 35.269531 C 35.832031 35.269531 36.054688 35.492188 36.054688 35.765625 L 36.054688 37.257812 C 36.054688 37.457031 35.929688 37.632812 35.734375 37.707031 L 34.589844 38.128906 Z M 31.605469 32.683594 L 31.605469 36.664062 L 33.667969 35.914062 L 33.667969 31.9375 Z M 31.605469 32.683594 "/>
<path style=" stroke:none;fill-rule:nonzero;fill:rgb(0%,0%,0%);fill-opacity:1;" d="M 53.867188 5.28125 L 54.175781 5.28125 C 54.3125 5.28125 54.425781 5.390625 54.425781 5.53125 L 54.425781 39.113281 C 54.425781 39.25 54.3125 39.359375 54.175781 39.359375 L 53.867188 39.359375 C 53.730469 39.359375 53.617188 39.25 53.617188 39.113281 L 53.617188 5.53125 C 53.617188 5.390625 53.730469 5.28125 53.867188 5.28125 Z M 53.867188 5.28125 "/>
<path style=" stroke:none;fill-rule:nonzero;fill:rgb(0%,0%,0%);fill-opacity:1;" d="M 16.152344 50.09375 L 16.003906 50.09375 C 13.316406 50.09375 11.152344 47.90625 11.152344 45.195312 C 11.152344 43.75 12.46875 42.632812 13.9375 42.632812 C 15.28125 42.632812 16.300781 43.800781 16.300781 45.195312 C 16.300781 46.488281 15.230469 47.554688 13.9375 47.554688 C 13.664062 47.554688 13.414062 47.507812 13.167969 47.40625 C 13.8125 48.378906 14.859375 49.023438 16.078125 49.023438 L 16.175781 49.023438 Z M 21 39.347656 C 22.691406 38.75 23.8125 36.984375 23.8125 35.269531 C 23.8125 33.03125 22.171875 30.816406 19.507812 30.542969 C 20.105469 33.429688 20.652344 36.289062 21 39.347656 Z M 11.375 33.601562 C 11.375 36.960938 14.585938 39.746094 17.941406 39.746094 C 18.640625 39.746094 19.308594 39.695312 19.980469 39.597656 C 19.632812 36.4375 19.0625 33.503906 18.414062 30.542969 C 16.449219 30.742188 15.332031 32.0625 15.332031 33.503906 C 15.332031 34.597656 15.953125 35.765625 17.34375 36.5625 C 17.46875 36.6875 17.519531 36.8125 17.519531 36.9375 C 17.519531 37.210938 17.269531 37.484375 16.972656 37.484375 C 16.898438 37.484375 16.824219 37.457031 16.75 37.433594 C 14.757812 36.363281 13.839844 34.574219 13.839844 32.832031 C 13.839844 30.644531 15.28125 28.503906 17.816406 27.933594 C 17.46875 26.488281 17.097656 25.023438 16.675781 23.578125 C 14.011719 26.589844 11.375 29.625 11.375 33.601562 Z M 17.867188 40.816406 C 13.191406 40.816406 9.585938 36.539062 9.585938 31.511719 C 9.585938 27.109375 12.84375 23.902344 15.753906 20.542969 C 15.28125 19.003906 14.832031 17.4375 14.632812 15.820312 C 14.484375 14.527344 14.460938 13.230469 14.460938 11.9375 C 14.460938 9.078125 15.828125 6.367188 18.167969 4.675781 C 18.316406 4.550781 18.515625 4.550781 18.664062 4.675781 C 20.429688 6.765625 21.972656 10.769531 21.972656 13.582031 C 21.972656 17.136719 19.832031 19.921875 17.496094 22.632812 C 18.015625 24.324219 18.464844 26.066406 18.886719 27.78125 C 18.988281 27.78125 19.113281 27.757812 19.210938 27.757812 C 23.066406 27.757812 25.578125 30.941406 25.578125 34.25 C 25.578125 36.140625 24.757812 38.078125 22.917969 39.472656 C 22.371094 39.894531 21.746094 40.167969 21.101562 40.367188 C 21.175781 41.238281 21.226562 42.109375 21.226562 42.980469 C 21.226562 43.453125 21.199219 43.949219 21.175781 44.421875 C 21 47.382812 18.988281 50.019531 16.152344 50.09375 L 16.175781 49.023438 C 18.488281 48.972656 19.980469 46.734375 20.132812 44.273438 C 20.15625 43.824219 20.179688 43.351562 20.179688 42.90625 C 20.179688 42.132812 20.15625 41.386719 20.082031 40.617188 C 19.359375 40.742188 18.640625 40.816406 17.867188 40.816406 Z M 20.179688 11.515625 C 20.179688 10.148438 20.082031 9.550781 19.683594 8.308594 C 17.222656 9.5 15.652344 12.011719 15.652344 14.75 C 15.652344 16.589844 16.101562 18.058594 16.550781 19.574219 C 18.539062 17.160156 20.179688 14.648438 20.179688 11.515625 Z M 20.179688 11.515625 "/>
<path style=" stroke:none;fill-rule:nonzero;fill:rgb(0%,0%,0%);fill-opacity:1;" d="M 59.445312 21.589844 C 60.8125 21.589844 62.128906 22.285156 62.128906 23.804688 C 62.128906 25.570312 60.761719 26.8125 59.59375 27.507812 C 58.722656 28.03125 57.726562 28.355469 56.707031 28.355469 C 55.339844 28.355469 54.019531 27.660156 54.019531 26.140625 C 54.019531 24.375 55.390625 23.132812 56.558594 22.433594 C 57.429688 21.914062 58.425781 21.589844 59.445312 21.589844 Z M 59.445312 21.589844 "/>
<path style=" stroke:none;fill-rule:nonzero;fill:rgb(0%,0%,0%);fill-opacity:1;" d="M 51.738281 24.699219 C 53.105469 24.699219 54.425781 25.394531 54.425781 26.910156 C 54.425781 28.679688 53.054688 29.921875 51.886719 30.617188 C 51.015625 31.140625 50.023438 31.464844 49.003906 31.464844 C 47.632812 31.464844 46.316406 30.765625 46.316406 29.25 C 46.316406 27.484375 47.683594 26.242188 48.851562 25.542969 C 49.722656 25.023438 50.71875 24.699219 51.738281 24.699219 Z M 51.738281 24.699219 "/>
<path style=" stroke:none;fill-rule:nonzero;fill:rgb(0%,0%,0%);fill-opacity:1;" d="M 51.738281 30.917969 C 53.105469 30.917969 54.425781 31.613281 54.425781 33.128906 C 54.425781 34.894531 53.054688 36.140625 51.886719 36.835938 C 51.015625 37.359375 50.023438 37.683594 49.003906 37.683594 C 47.632812 37.683594 46.316406 36.984375 46.316406 35.46875 C 46.316406 33.703125 47.683594 32.457031 48.851562 31.761719 C 49.722656 31.238281 50.71875 30.917969 51.738281 30.917969 Z M 51.738281 30.917969 "/>
<path style=" stroke:none;fill-rule:nonzero;fill:rgb(0%,0%,0%);fill-opacity:1;" d="M 51.738281 37.132812 C 53.105469 37.132812 54.425781 37.832031 54.425781 39.347656 C 54.425781 41.113281 53.054688 42.359375 51.886719 43.054688 C 51.015625 43.578125 50.023438 43.898438 49.003906 43.898438 C 47.632812 43.898438 46.316406 43.203125 46.316406 41.6875 C 46.316406 39.921875 47.683594 38.675781 48.851562 37.980469 C 49.722656 37.457031 50.71875 37.132812 51.738281 37.132812 Z M 51.738281 37.132812 "/>
</g>
</svg>
