<?xml version="1.0" encoding="UTF-8"?>
<svg xmlns="http://www.w3.org/2000/svg" xmlns:xlink="http://www.w3.org/1999/xlink" width="75.798219pt" height="61.666356pt" viewBox="0 0 75.798219 61.666356" version="1.1">
<g id="surface1">
<path style="fill:none;stroke-width:0.1;stroke-linecap:round;stroke-linejoin:round;stroke:rgb(0%,0%,0%);stroke-opacity:1;stroke-miterlimit:4;" d="M 0.049863 -0.000287501 L 9.855459 -0.000287501 " transform="matrix(6.218149,0,0,6.218149,4.561038,40.517413)"/>
<path style="fill:none;stroke-width:0.1;stroke-linecap:round;stroke-linejoin:round;stroke:rgb(0%,0%,0%);stroke-opacity:1;stroke-miterlimit:4;" d="M 0.049863 0.000244052 L 9.855459 0.000244052 " transform="matrix(6.218149,0,0,6.218149,4.561038,34.299264)"/>
<path style="fill:none;stroke-width:0.1;stroke-linecap:round;stroke-linejoin:round;stroke:rgb(0%,0%,0%);stroke-opacity:1;stroke-miterlimit:4;" d="M 0.049863 0.000147403 L 9.855459 0.000147403 " transform="matrix(6.218149,0,0,6.218149,4.561038,28.081115)"/>
<path style="fill:none;stroke-width:0.1;stroke-linecap:round;stroke-linejoin:round;stroke:rgb(0%,0%,0%);stroke-opacity:1;stroke-miterlimit:4;" d="M 0.049863 0.0000507548 L 9.855459 0.0000507548 " transform="matrix(6.218149,0,0,6.218149,4.561038,21.862966)"/>
<path style="fill:none;stroke-width:0.1;stroke-linecap:round;stroke-linejoin:round;stroke:rgb(0%,0%,0%);stroke-opacity:1;stroke-miterlimit:4;" d="M 0.049863 -0.0000458938 L 9.855459 -0.0000458938 " transform="matrix(6.218149,0,0,6.218149,4.561038,15.644817)"/>
<path style=" stroke:none;fill-rule:nonzero;fill:rgb(0%,0%,0%);fill-opacity:1;" d="M 47.734375 23.019531 L 48.042969 23.019531 C 48.183594 23.019531 48.292969 23.132812 48.292969 23.269531 L 48.292969 52.703125 C 48.292969 52.84375 48.183594 52.953125 48.042969 52.953125 L 47.734375 52.953125 C 47.597656 52.953125 47.484375 52.84375 47.484375 52.703125 L 47.484375 23.269531 C 47.484375 23.132812 47.597656 23.019531 47.734375 23.019531 Z M 47.734375 23.019531 "/>
<path style=" stroke:none;fill-rule:nonzero;fill:rgb(0%,0%,0%);fill-opacity:1;" d="M 41.003906 20.84375 L 40.980469 22.484375 L 40.980469 22.757812 C 40.980469 23.304688 41.003906 23.851562 41.082031 24.398438 C 42.199219 23.453125 43.394531 22.410156 43.394531 20.941406 C 43.394531 20.121094 43.046875 19.277344 42.324219 19.277344 C 41.554688 19.277344 41.03125 20.023438 41.003906 20.84375 Z M 39.960938 25.296875 L 39.664062 10.496094 C 39.863281 10.371094 40.109375 10.296875 40.335938 10.296875 C 40.558594 10.296875 40.804688 10.371094 41.003906 10.496094 L 40.832031 19.078125 C 41.453125 18.554688 42.273438 18.230469 43.09375 18.230469 C 44.386719 18.230469 45.308594 19.425781 45.308594 20.769531 C 45.308594 22.757812 43.167969 23.679688 41.652344 24.972656 C 41.277344 25.296875 41.054688 25.917969 40.53125 25.917969 C 40.210938 25.917969 39.960938 25.644531 39.960938 25.296875 Z M 39.960938 25.296875 "/>
<path style=" stroke:none;fill-rule:nonzero;fill:rgb(0%,0%,0%);fill-opacity:1;" d="M 30.632812 27.0625 L 30.609375 28.703125 L 30.609375 28.976562 C 30.609375 29.523438 30.632812 30.070312 30.707031 30.617188 C 31.828125 29.671875 33.023438 28.628906 33.023438 27.160156 C 33.023438 26.339844 32.671875 25.496094 31.953125 25.496094 C 31.179688 25.496094 30.660156 26.242188 30.632812 27.0625 Z M 29.589844 31.511719 L 29.289062 16.714844 C 29.488281 16.589844 29.738281 16.515625 29.960938 16.515625 C 30.1875 16.515625 30.433594 16.589844 30.632812 16.714844 L 30.460938 25.296875 C 31.082031 24.773438 31.902344 24.449219 32.722656 24.449219 C 34.015625 24.449219 34.9375 25.644531 34.9375 26.988281 C 34.9375 28.976562 32.796875 29.898438 31.28125 31.191406 C 30.90625 31.511719 30.683594 32.136719 30.160156 32.136719 C 29.835938 32.136719 29.589844 31.863281 29.589844 31.511719 Z M 29.589844 31.511719 "/>
<path style=" stroke:none;fill-rule:nonzero;fill:rgb(0%,0%,0%);fill-opacity:1;" d="M 37.523438 33.28125 L 37.5 34.921875 L 37.5 35.195312 C 37.5 35.742188 37.523438 36.289062 37.597656 36.835938 C 38.71875 35.890625 39.910156 34.847656 39.910156 33.378906 C 39.910156 32.558594 39.5625 31.710938 38.839844 31.710938 C 38.070312 31.710938 37.546875 32.457031 37.523438 33.28125 Z M 36.480469 37.730469 L 36.179688 22.933594 C 36.378906 22.808594 36.628906 22.734375 36.851562 22.734375 C 37.074219 22.734375 37.324219 22.808594 37.523438 22.933594 L 37.347656 31.511719 C 37.972656 30.992188 38.792969 30.667969 39.613281 30.667969 C 40.90625 30.667969 41.828125 31.863281 41.828125 33.203125 C 41.828125 35.195312 39.6875 36.113281 38.171875 37.410156 C 37.796875 37.730469 37.574219 38.351562 37.050781 38.351562 C 36.726562 38.351562 36.480469 38.078125 36.480469 37.730469 Z M 36.480469 37.730469 "/>
<path style=" stroke:none;fill-rule:nonzero;fill:rgb(0%,0%,0%);fill-opacity:1;" d="M 16.152344 50.09375 L 16.003906 50.09375 C 13.316406 50.09375 11.152344 47.90625 11.152344 45.195312 C 11.152344 43.75 12.46875 42.632812 13.9375 42.632812 C 15.28125 42.632812 16.300781 43.800781 16.300781 45.195312 C 16.300781 46.488281 15.230469 47.554688 13.9375 47.554688 C 13.664062 47.554688 13.414062 47.507812 13.167969 47.40625 C 13.8125 48.378906 14.859375 49.023438 16.078125 49.023438 L 16.175781 49.023438 Z M 21 39.347656 C 22.691406 38.75 23.8125 36.984375 23.8125 35.269531 C 23.8125 33.03125 22.171875 30.816406 19.507812 30.542969 C 20.105469 33.429688 20.652344 36.289062 21 39.347656 Z M 11.375 33.601562 C 11.375 36.960938 14.585938 39.746094 17.941406 39.746094 C 18.640625 39.746094 19.308594 39.695312 19.980469 39.597656 C 19.632812 36.4375 19.0625 33.503906 18.414062 30.542969 C 16.449219 30.742188 15.332031 32.0625 15.332031 33.503906 C 15.332031 34.597656 15.953125 35.765625 17.34375 36.5625 C 17.46875 36.6875 17.519531 36.8125 17.519531 36.9375 C 17.519531 37.210938 17.269531 37.484375 16.972656 37.484375 C 16.898438 37.484375 16.824219 37.457031 16.75 37.433594 C 14.757812 36.363281 13.839844 34.574219 13.839844 32.832031 C 13.839844 30.644531 15.28125 28.503906 17.816406 27.933594 C 17.46875 26.488281 17.097656 25.023438 16.675781 23.578125 C 14.011719 26.589844 11.375 29.625 11.375 33.601562 Z M 17.867188 40.816406 C 13.191406 40.816406 9.585938 36.539062 9.585938 31.511719 C 9.585938 27.109375 12.84375 23.902344 15.753906 20.542969 C 15.28125 19.003906 14.832031 17.4375 14.632812 15.820312 C 14.484375 14.527344 14.460938 13.230469 14.460938 11.9375 C 14.460938 9.078125 15.828125 6.367188 18.167969 4.675781 C 18.316406 4.550781 18.515625 4.550781 18.664062 4.675781 C 20.429688 6.765625 21.972656 10.769531 21.972656 13.582031 C 21.972656 17.136719 19.832031 19.921875 17.496094 22.632812 C 18.015625 24.324219 18.464844 26.066406 18.886719 27.78125 C 18.988281 27.78125 19.113281 27.757812 19.210938 27.757812 C 23.066406 27.757812 25.578125 30.941406 25.578125 34.25 C 25.578125 36.140625 24.757812 38.078125 22.917969 39.472656 C 22.371094 39.894531 21.746094 40.167969 21.101562 40.367188 C 21.175781 41.238281 21.226562 42.109375 21.226562 42.980469 C 21.226562 43.453125 21.199219 43.949219 21.175781 44.421875 C 21 47.382812 18.988281 50.019531 16.152344 50.09375 L 16.175781 49.023438 C 18.488281 48.972656 19.980469 46.734375 20.132812 44.273438 C 20.15625 43.824219 20.179688 43.351562 20.179688 42.90625 C 20.179688 42.132812 20.15625 41.386719 20.082031 40.617188 C 19.359375 40.742188 18.640625 40.816406 17.867188 40.816406 Z M 20.179688 11.515625 C 20.179688 10.148438 20.082031 9.550781 19.683594 8.308594 C 17.222656 9.5 15.652344 12.011719 15.652344 14.75 C 15.652344 16.589844 16.101562 18.058594 16.550781 19.574219 C 18.539062 17.160156 20.179688 14.648438 20.179688 11.515625 Z M 20.179688 11.515625 "/>
<path style=" stroke:none;fill-rule:nonzero;fill:rgb(0%,0%,0%);fill-opacity:1;" d="M 52.90625 18.480469 C 54.273438 18.480469 55.59375 19.175781 55.59375 20.695312 C 55.59375 22.460938 54.226562 23.703125 53.054688 24.398438 C 52.1875 24.921875 51.191406 25.246094 50.171875 25.246094 C 48.804688 25.246094 47.484375 24.550781 47.484375 23.03125 C 47.484375 21.265625 48.851562 20.023438 50.023438 19.324219 C 50.890625 18.804688 51.886719 18.480469 52.90625 18.480469 Z M 52.90625 18.480469 "/>
<path style=" stroke:none;fill-rule:nonzero;fill:rgb(0%,0%,0%);fill-opacity:1;" d="M 52.90625 24.699219 C 54.273438 24.699219 55.59375 25.394531 55.59375 26.910156 C 55.59375 28.679688 54.226562 29.921875 53.054688 30.617188 C 52.1875 31.140625 51.191406 31.464844 50.171875 31.464844 C 48.804688 31.464844 47.484375 30.765625 47.484375 29.25 C 47.484375 27.484375 48.851562 26.242188 50.023438 25.542969 C 50.890625 25.023438 51.886719 24.699219 52.90625 24.699219 Z M 52.90625 24.699219 "/>
<path style=" stroke:none;fill-rule:nonzero;fill:rgb(0%,0%,0%);fill-opacity:1;" d="M 52.90625 30.917969 C 54.273438 30.917969 55.59375 31.613281 55.59375 33.128906 C 55.59375 34.894531 54.226562 36.140625 53.054688 36.835938 C 52.1875 37.359375 51.191406 37.683594 50.171875 37.683594 C 48.804688 37.683594 47.484375 36.984375 47.484375 35.46875 C 47.484375 33.703125 48.851562 32.457031 50.023438 31.761719 C 50.890625 31.238281 51.886719 30.917969 52.90625 30.917969 Z M 52.90625 30.917969 "/>
</g>
</svg>
