<?xml version="1.0" encoding="UTF-8"?>
<svg xmlns="http://www.w3.org/2000/svg" xmlns:xlink="http://www.w3.org/1999/xlink" width="82.054772pt" height="59.813301pt" viewBox="0 0 82.054772 59.813301" version="1.1">
<g id="surface1">
<path style="fill:none;stroke-width:0.1;stroke-linecap:round;stroke-linejoin:round;stroke:rgb(0%,0%,0%);stroke-opacity:1;stroke-miterlimit:4;" d="M 0.049863 0.000136391 L 10.797133 0.000136391 " transform="matrix(6.218149,0,0,6.218149,4.561038,35.667121)"/>
<path style="fill:none;stroke-width:0.1;stroke-linecap:round;stroke-linejoin:round;stroke:rgb(0%,0%,0%);stroke-opacity:1;stroke-miterlimit:4;" d="M 0.049863 0.0000397429 L 10.797133 0.0000397429 " transform="matrix(6.218149,0,0,6.218149,4.561038,29.448972)"/>
<path style="fill:none;stroke-width:0.1;stroke-linecap:round;stroke-linejoin:round;stroke:rgb(0%,0%,0%);stroke-opacity:1;stroke-miterlimit:4;" d="M 0.049863 -0.0000569057 L 10.797133 -0.0000569057 " transform="matrix(6.218149,0,0,6.218149,4.561038,23.230823)"/>
<path style="fill:none;stroke-width:0.1;stroke-linecap:round;stroke-linejoin:round;stroke:rgb(0%,0%,0%);stroke-opacity:1;stroke-miterlimit:4;" d="M 0.049863 -0.000153554 L 10.797133 -0.000153554 " transform="matrix(6.218149,0,0,6.218149,4.561038,17.012674)"/>
<path style="fill:none;stroke-width:0.1;stroke-linecap:round;stroke-linejoin:round;stroke:rgb(0%,0%,0%);stroke-opacity:1;stroke-miterlimit:4;" d="M 0.049863 -0.000250203 L 10.797133 -0.000250203 " transform="matrix(6.218149,0,0,6.218149,4.561038,10.794525)"/>
<path style=" stroke:none;fill-rule:nonzero;fill:rgb(0%,0%,0%);fill-opacity:1;" d="M 51.9375 41.261719 L 62.859375 41.261719 C 63.203125 41.261719 63.480469 41.542969 63.480469 41.886719 C 63.480469 42.230469 63.203125 42.507812 62.859375 42.507812 L 51.9375 42.507812 C 51.59375 42.507812 51.316406 42.230469 51.316406 41.886719 C 51.316406 41.542969 51.59375 41.261719 51.9375 41.261719 Z M 51.9375 41.261719 "/>
<path style=" stroke:none;fill-rule:nonzero;fill:rgb(0%,0%,0%);fill-opacity:1;" d="M 60.894531 4.578125 L 61.203125 4.578125 C 61.339844 4.578125 61.453125 4.6875 61.453125 4.824219 L 61.453125 40.480469 C 61.453125 40.617188 61.339844 40.726562 61.203125 40.726562 L 60.894531 40.726562 C 60.753906 40.726562 60.644531 40.617188 60.644531 40.480469 L 60.644531 4.824219 C 60.644531 4.6875 60.753906 4.578125 60.894531 4.578125 Z M 60.894531 4.578125 "/>
<path style=" stroke:none;fill-rule:nonzero;fill:rgb(0%,0%,0%);fill-opacity:1;" d="M 40.347656 26.339844 C 40.921875 26.910156 41.742188 27.035156 42.5625 27.035156 C 42.710938 27.035156 42.8125 27.136719 42.8125 27.285156 L 43.035156 29.449219 C 43.058594 29.597656 42.9375 29.722656 42.785156 29.699219 L 40.621094 29.472656 C 40.5 29.449219 40.375 29.347656 40.375 29.226562 C 40.375 28.40625 40.25 27.582031 39.675781 27.011719 C 39.105469 27.582031 39.003906 28.40625 39.003906 29.226562 C 39.003906 29.347656 38.882812 29.449219 38.757812 29.472656 L 36.566406 29.699219 C 36.417969 29.722656 36.292969 29.597656 36.320312 29.449219 L 36.542969 27.285156 C 36.542969 27.136719 36.644531 27.035156 36.792969 27.035156 C 37.613281 27.035156 38.433594 26.910156 39.003906 26.339844 C 38.433594 25.769531 37.613281 25.644531 36.792969 25.644531 C 36.644531 25.644531 36.542969 25.542969 36.542969 25.394531 L 36.320312 23.230469 C 36.292969 23.082031 36.417969 22.957031 36.566406 22.980469 L 38.757812 23.207031 C 38.882812 23.230469 38.980469 23.332031 38.980469 23.453125 C 38.980469 24.277344 39.105469 25.097656 39.675781 25.667969 C 40.25 25.097656 40.375 24.277344 40.375 23.453125 C 40.375 23.332031 40.5 23.230469 40.621094 23.207031 L 42.785156 22.980469 C 42.9375 22.957031 43.058594 23.082031 43.035156 23.230469 L 42.8125 25.394531 C 42.8125 25.542969 42.710938 25.644531 42.5625 25.644531 C 41.742188 25.644531 40.921875 25.769531 40.347656 26.339844 Z M 40.347656 26.339844 "/>
<path style=" stroke:none;fill-rule:nonzero;fill:rgb(0%,0%,0%);fill-opacity:1;" d="M 49.699219 37.210938 C 49.699219 37.457031 49.5 37.683594 49.25 37.683594 C 49.003906 37.683594 48.777344 37.457031 48.777344 37.210938 L 48.777344 33.601562 L 46.714844 34.375 L 46.714844 38.304688 C 46.714844 38.550781 46.492188 38.777344 46.242188 38.777344 C 45.992188 38.777344 45.792969 38.550781 45.792969 38.304688 L 45.792969 34.695312 L 45 34.996094 C 44.949219 35.019531 44.875 35.019531 44.824219 35.019531 C 44.550781 35.019531 44.328125 34.796875 44.328125 34.523438 L 44.328125 33.03125 C 44.328125 32.832031 44.449219 32.632812 44.648438 32.558594 L 45.792969 32.160156 L 45.792969 28.179688 L 45 28.453125 C 44.949219 28.480469 44.875 28.480469 44.824219 28.480469 C 44.550781 28.480469 44.328125 28.253906 44.328125 27.980469 L 44.328125 26.488281 C 44.328125 26.289062 44.449219 26.117188 44.648438 26.042969 L 45.792969 25.617188 L 45.792969 21.6875 C 45.792969 21.441406 45.992188 21.214844 46.242188 21.214844 C 46.492188 21.214844 46.714844 21.441406 46.714844 21.6875 L 46.714844 25.296875 L 48.777344 24.523438 L 48.777344 20.59375 C 48.777344 20.34375 49.003906 20.121094 49.25 20.121094 C 49.5 20.121094 49.699219 20.34375 49.699219 20.59375 L 49.699219 24.199219 L 50.496094 23.902344 C 50.542969 23.878906 50.621094 23.878906 50.667969 23.878906 C 50.941406 23.878906 51.167969 24.101562 51.167969 24.375 L 51.167969 25.867188 C 51.167969 26.066406 51.042969 26.265625 50.84375 26.339844 L 49.699219 26.738281 L 49.699219 30.71875 L 50.496094 30.445312 C 50.542969 30.417969 50.621094 30.417969 50.667969 30.417969 C 50.941406 30.417969 51.167969 30.644531 51.167969 30.917969 L 51.167969 32.410156 C 51.167969 32.609375 51.042969 32.78125 50.84375 32.855469 L 49.699219 33.28125 Z M 46.714844 27.832031 L 46.714844 31.8125 L 48.777344 31.066406 L 48.777344 27.085938 Z M 46.714844 27.832031 "/>
<path style=" stroke:none;fill-rule:nonzero;fill:rgb(0%,0%,0%);fill-opacity:1;" d="M 33.734375 35.667969 C 34.304688 36.238281 35.125 36.363281 35.945312 36.363281 C 36.097656 36.363281 36.195312 36.464844 36.195312 36.613281 L 36.417969 38.777344 C 36.445312 38.925781 36.320312 39.050781 36.171875 39.023438 L 34.007812 38.800781 C 33.882812 38.777344 33.757812 38.675781 33.757812 38.550781 C 33.757812 37.730469 33.632812 36.910156 33.0625 36.339844 C 32.488281 36.910156 32.390625 37.730469 32.390625 38.550781 C 32.390625 38.675781 32.265625 38.777344 32.140625 38.800781 L 29.953125 39.023438 C 29.804688 39.050781 29.679688 38.925781 29.703125 38.777344 L 29.925781 36.613281 C 29.925781 36.464844 30.027344 36.363281 30.175781 36.363281 C 30.996094 36.363281 31.816406 36.238281 32.390625 35.667969 C 31.816406 35.09375 30.996094 34.96875 30.175781 34.96875 C 30.027344 34.96875 29.925781 34.871094 29.925781 34.722656 L 29.703125 32.558594 C 29.679688 32.410156 29.804688 32.285156 29.953125 32.308594 L 32.140625 32.53125 C 32.265625 32.558594 32.363281 32.65625 32.363281 32.78125 C 32.363281 33.601562 32.488281 34.421875 33.0625 34.996094 C 33.632812 34.421875 33.757812 33.601562 33.757812 32.78125 C 33.757812 32.65625 33.882812 32.558594 34.007812 32.53125 L 36.171875 32.308594 C 36.320312 32.285156 36.445312 32.410156 36.417969 32.558594 L 36.195312 34.722656 C 36.195312 34.871094 36.097656 34.96875 35.945312 34.96875 C 35.125 34.96875 34.304688 35.09375 33.734375 35.667969 Z M 33.734375 35.667969 "/>
<path style=" stroke:none;fill-rule:nonzero;fill:rgb(0%,0%,0%);fill-opacity:1;" d="M 43.082031 49.644531 C 43.082031 49.894531 42.882812 50.117188 42.636719 50.117188 C 42.386719 50.117188 42.164062 49.894531 42.164062 49.644531 L 42.164062 46.039062 L 40.097656 46.808594 L 40.097656 50.738281 C 40.097656 50.988281 39.875 51.210938 39.625 51.210938 C 39.378906 51.210938 39.179688 50.988281 39.179688 50.738281 L 39.179688 47.132812 L 38.382812 47.433594 C 38.332031 47.457031 38.257812 47.457031 38.207031 47.457031 C 37.933594 47.457031 37.710938 47.234375 37.710938 46.960938 L 37.710938 45.46875 C 37.710938 45.269531 37.835938 45.070312 38.035156 44.996094 L 39.179688 44.597656 L 39.179688 40.617188 L 38.382812 40.890625 C 38.332031 40.914062 38.257812 40.914062 38.207031 40.914062 C 37.933594 40.914062 37.710938 40.691406 37.710938 40.417969 L 37.710938 38.925781 C 37.710938 38.726562 37.835938 38.550781 38.035156 38.476562 L 39.179688 38.054688 L 39.179688 34.125 C 39.179688 33.875 39.378906 33.652344 39.625 33.652344 C 39.875 33.652344 40.097656 33.875 40.097656 34.125 L 40.097656 37.730469 L 42.164062 36.960938 L 42.164062 33.03125 C 42.164062 32.78125 42.386719 32.558594 42.636719 32.558594 C 42.882812 32.558594 43.082031 32.78125 43.082031 33.03125 L 43.082031 36.636719 L 43.878906 36.339844 C 43.929688 36.3125 44.003906 36.3125 44.054688 36.3125 C 44.328125 36.3125 44.550781 36.539062 44.550781 36.8125 L 44.550781 38.304688 C 44.550781 38.503906 44.425781 38.703125 44.226562 38.777344 L 43.082031 39.175781 L 43.082031 43.152344 L 43.878906 42.878906 C 43.929688 42.855469 44.003906 42.855469 44.054688 42.855469 C 44.328125 42.855469 44.550781 43.078125 44.550781 43.351562 L 44.550781 44.84375 C 44.550781 45.042969 44.425781 45.21875 44.226562 45.292969 L 43.082031 45.714844 Z M 40.097656 40.269531 L 40.097656 44.25 L 42.164062 43.503906 L 42.164062 39.523438 Z M 40.097656 40.269531 "/>
<path style=" stroke:none;fill-rule:nonzero;fill:rgb(0%,0%,0%);fill-opacity:1;" d="M 23.390625 20.121094 C 23.390625 19.425781 23.960938 18.851562 24.65625 18.851562 C 25.355469 18.851562 25.925781 19.425781 25.925781 20.121094 C 25.925781 20.816406 25.355469 21.390625 24.65625 21.390625 C 23.960938 21.390625 23.390625 20.816406 23.390625 20.121094 Z M 23.390625 13.902344 C 23.390625 13.207031 23.960938 12.636719 24.65625 12.636719 C 25.355469 12.636719 25.925781 13.207031 25.925781 13.902344 C 25.925781 14.601562 25.355469 15.171875 24.65625 15.171875 C 23.960938 15.171875 23.390625 14.601562 23.390625 13.902344 Z M 15.304688 10.472656 C 19.585938 10.472656 22.59375 12.660156 22.59375 16.714844 C 22.59375 23.253906 16.050781 27.011719 9.757812 29.671875 C 9.683594 29.746094 9.609375 29.773438 9.535156 29.773438 C 9.363281 29.773438 9.210938 29.625 9.210938 29.449219 C 9.210938 29.375 9.238281 29.300781 9.3125 29.226562 C 14.335938 26.289062 19.558594 22.632812 19.558594 16.964844 C 19.558594 13.976562 17.992188 11.117188 15.304688 11.117188 C 13.464844 11.117188 12.097656 12.460938 11.476562 14.25 C 11.75 14.128906 12.023438 14.054688 12.320312 14.054688 C 13.6875 14.054688 14.808594 15.171875 14.808594 16.539062 C 14.808594 17.984375 13.714844 19.175781 12.320312 19.175781 C 10.828125 19.175781 9.535156 18.007812 9.535156 16.539062 C 9.535156 13.230469 12.074219 10.472656 15.304688 10.472656 Z M 15.304688 10.472656 "/>
<path style=" stroke:none;fill-rule:nonzero;fill:rgb(0%,0%,0%);fill-opacity:1;" d="M 66.472656 22.957031 C 67.839844 22.957031 69.15625 23.652344 69.15625 25.171875 C 69.15625 26.9375 67.789062 28.179688 66.621094 28.875 C 65.75 29.398438 64.753906 29.722656 63.734375 29.722656 C 62.367188 29.722656 61.046875 29.027344 61.046875 27.507812 C 61.046875 25.742188 62.417969 24.5 63.585938 23.804688 C 64.457031 23.28125 65.449219 22.957031 66.472656 22.957031 Z M 66.472656 22.957031 "/>
<path style=" stroke:none;fill-rule:nonzero;fill:rgb(0%,0%,0%);fill-opacity:1;" d="M 58.765625 26.066406 C 60.132812 26.066406 61.453125 26.761719 61.453125 28.28125 C 61.453125 30.046875 60.082031 31.289062 58.914062 31.984375 C 58.042969 32.507812 57.050781 32.832031 56.027344 32.832031 C 54.660156 32.832031 53.34375 32.136719 53.34375 30.617188 C 53.34375 28.851562 54.710938 27.609375 55.878906 26.910156 C 56.75 26.390625 57.746094 26.066406 58.765625 26.066406 Z M 58.765625 26.066406 "/>
<path style=" stroke:none;fill-rule:nonzero;fill:rgb(0%,0%,0%);fill-opacity:1;" d="M 58.765625 32.285156 C 60.132812 32.285156 61.453125 32.980469 61.453125 34.5 C 61.453125 36.265625 60.082031 37.507812 58.914062 38.203125 C 58.042969 38.726562 57.050781 39.050781 56.027344 39.050781 C 54.660156 39.050781 53.34375 38.351562 53.34375 36.835938 C 53.34375 35.070312 54.710938 33.828125 55.878906 33.128906 C 56.75 32.609375 57.746094 32.285156 58.765625 32.285156 Z M 58.765625 32.285156 "/>
<path style=" stroke:none;fill-rule:nonzero;fill:rgb(0%,0%,0%);fill-opacity:1;" d="M 58.765625 38.503906 C 60.132812 38.503906 61.453125 39.199219 61.453125 40.714844 C 61.453125 42.480469 60.082031 43.726562 58.914062 44.421875 C 58.042969 44.945312 57.050781 45.269531 56.027344 45.269531 C 54.660156 45.269531 53.34375 44.570312 53.34375 43.054688 C 53.34375 41.289062 54.710938 40.042969 55.878906 39.347656 C 56.75 38.824219 57.746094 38.503906 58.765625 38.503906 Z M 58.765625 38.503906 "/>
</g>
</svg>
