<?xml version="1.0" encoding="UTF-8"?>
<svg xmlns="http://www.w3.org/2000/svg" xmlns:xlink="http://www.w3.org/1999/xlink" width="89.256447pt" height="58.706119pt" viewBox="0 0 89.256447 58.706119" version="1.1">
<g id="surface1">
<path style="fill:none;stroke-width:0.1;stroke-linecap:round;stroke-linejoin:round;stroke:rgb(0%,0%,0%);stroke-opacity:1;stroke-miterlimit:4;" d="M 0.049863 -0.000217086 L 11.881408 -0.000217086 " transform="matrix(6.218149,0,0,6.218149,4.561038,37.739631)"/>
<path style="fill:none;stroke-width:0.1;stroke-linecap:round;stroke-linejoin:round;stroke:rgb(0%,0%,0%);stroke-opacity:1;stroke-miterlimit:4;" d="M 0.049863 -0.000313735 L 11.881408 -0.000313735 " transform="matrix(6.218149,0,0,6.218149,4.561038,31.521482)"/>
<path style="fill:none;stroke-width:0.1;stroke-linecap:round;stroke-linejoin:round;stroke:rgb(0%,0%,0%);stroke-opacity:1;stroke-miterlimit:4;" d="M 0.049863 0.000217818 L 11.881408 0.000217818 " transform="matrix(6.218149,0,0,6.218149,4.561038,25.303333)"/>
<path style="fill:none;stroke-width:0.1;stroke-linecap:round;stroke-linejoin:round;stroke:rgb(0%,0%,0%);stroke-opacity:1;stroke-miterlimit:4;" d="M 0.049863 0.000121169 L 11.881408 0.000121169 " transform="matrix(6.218149,0,0,6.218149,4.561038,19.085184)"/>
<path style="fill:none;stroke-width:0.1;stroke-linecap:round;stroke-linejoin:round;stroke:rgb(0%,0%,0%);stroke-opacity:1;stroke-miterlimit:4;" d="M 0.049863 0.0000245208 L 11.881408 0.0000245208 " transform="matrix(6.218149,0,0,6.218149,4.561038,12.867035)"/>
<path style=" stroke:none;fill-rule:nonzero;fill:rgb(0%,0%,0%);fill-opacity:1;" d="M 67.636719 4.578125 L 67.945312 4.578125 C 68.082031 4.578125 68.195312 4.6875 68.195312 4.824219 L 68.195312 39.441406 C 68.195312 39.582031 68.082031 39.691406 67.945312 39.691406 L 67.636719 39.691406 C 67.5 39.691406 67.386719 39.582031 67.386719 39.441406 L 67.386719 4.824219 C 67.386719 4.6875 67.5 4.578125 67.636719 4.578125 Z M 67.636719 4.578125 "/>
<path style=" stroke:none;fill-rule:nonzero;fill:rgb(0%,0%,0%);fill-opacity:1;" d="M 56.441406 33.0625 C 56.441406 33.3125 56.242188 33.535156 55.992188 33.535156 C 55.746094 33.535156 55.519531 33.3125 55.519531 33.0625 L 55.519531 29.457031 L 53.457031 30.226562 L 53.457031 34.15625 C 53.457031 34.40625 53.234375 34.628906 52.984375 34.628906 C 52.734375 34.628906 52.535156 34.40625 52.535156 34.15625 L 52.535156 30.550781 L 51.742188 30.851562 C 51.691406 30.875 51.617188 30.875 51.566406 30.875 C 51.292969 30.875 51.070312 30.652344 51.070312 30.378906 L 51.070312 28.886719 C 51.070312 28.6875 51.195312 28.488281 51.390625 28.414062 L 52.535156 28.015625 L 52.535156 24.035156 L 51.742188 24.308594 C 51.691406 24.332031 51.617188 24.332031 51.566406 24.332031 C 51.292969 24.332031 51.070312 24.109375 51.070312 23.835938 L 51.070312 22.34375 C 51.070312 22.144531 51.195312 21.96875 51.390625 21.894531 L 52.535156 21.472656 L 52.535156 17.542969 C 52.535156 17.292969 52.734375 17.070312 52.984375 17.070312 C 53.234375 17.070312 53.457031 17.292969 53.457031 17.542969 L 53.457031 21.148438 L 55.519531 20.378906 L 55.519531 16.449219 C 55.519531 16.199219 55.746094 15.976562 55.992188 15.976562 C 56.242188 15.976562 56.441406 16.199219 56.441406 16.449219 L 56.441406 20.054688 L 57.238281 19.757812 C 57.289062 19.730469 57.363281 19.730469 57.410156 19.730469 C 57.683594 19.730469 57.910156 19.957031 57.910156 20.230469 L 57.910156 21.722656 C 57.910156 21.921875 57.785156 22.121094 57.585938 22.195312 L 56.441406 22.59375 L 56.441406 26.570312 L 57.238281 26.296875 C 57.289062 26.273438 57.363281 26.273438 57.410156 26.273438 C 57.683594 26.273438 57.910156 26.496094 57.910156 26.769531 L 57.910156 28.261719 C 57.910156 28.460938 57.785156 28.636719 57.585938 28.710938 L 56.441406 29.132812 Z M 53.457031 23.6875 L 53.457031 27.667969 L 55.519531 26.921875 L 55.519531 22.941406 Z M 53.457031 23.6875 "/>
<path style=" stroke:none;fill-rule:nonzero;fill:rgb(0%,0%,0%);fill-opacity:1;" d="M 43.410156 36.171875 C 43.410156 36.421875 43.210938 36.644531 42.960938 36.644531 C 42.710938 36.644531 42.488281 36.421875 42.488281 36.171875 L 42.488281 32.566406 L 40.421875 33.335938 L 40.421875 37.265625 C 40.421875 37.515625 40.199219 37.738281 39.949219 37.738281 C 39.703125 37.738281 39.503906 37.515625 39.503906 37.265625 L 39.503906 33.660156 L 38.707031 33.960938 C 38.65625 33.984375 38.582031 33.984375 38.535156 33.984375 C 38.257812 33.984375 38.035156 33.761719 38.035156 33.488281 L 38.035156 31.992188 C 38.035156 31.796875 38.160156 31.597656 38.359375 31.519531 L 39.503906 31.125 L 39.503906 27.144531 L 38.707031 27.417969 C 38.65625 27.441406 38.582031 27.441406 38.535156 27.441406 C 38.257812 27.441406 38.035156 27.21875 38.035156 26.945312 L 38.035156 25.453125 C 38.035156 25.253906 38.160156 25.078125 38.359375 25.003906 L 39.503906 24.582031 L 39.503906 20.652344 C 39.503906 20.402344 39.703125 20.179688 39.949219 20.179688 C 40.199219 20.179688 40.421875 20.402344 40.421875 20.652344 L 40.421875 24.257812 L 42.488281 23.488281 L 42.488281 19.558594 C 42.488281 19.308594 42.710938 19.085938 42.960938 19.085938 C 43.210938 19.085938 43.410156 19.308594 43.410156 19.558594 L 43.410156 23.164062 L 44.203125 22.867188 C 44.253906 22.839844 44.328125 22.839844 44.378906 22.839844 C 44.652344 22.839844 44.875 23.066406 44.875 23.339844 L 44.875 24.832031 C 44.875 25.03125 44.75 25.230469 44.550781 25.304688 L 43.410156 25.703125 L 43.410156 29.679688 L 44.203125 29.40625 C 44.253906 29.382812 44.328125 29.382812 44.378906 29.382812 C 44.652344 29.382812 44.875 29.605469 44.875 29.878906 L 44.875 31.371094 C 44.875 31.570312 44.75 31.746094 44.550781 31.820312 L 43.410156 32.242188 Z M 40.421875 26.796875 L 40.421875 30.773438 L 42.488281 30.027344 L 42.488281 26.050781 Z M 40.421875 26.796875 "/>
<path style=" stroke:none;fill-rule:nonzero;fill:rgb(0%,0%,0%);fill-opacity:1;" d="M 35.324219 42.390625 C 35.324219 42.640625 35.125 42.863281 34.878906 42.863281 C 34.628906 42.863281 34.40625 42.640625 34.40625 42.390625 L 34.40625 38.785156 L 32.339844 39.554688 L 32.339844 43.484375 C 32.339844 43.734375 32.117188 43.957031 31.867188 43.957031 C 31.617188 43.957031 31.417969 43.734375 31.417969 43.484375 L 31.417969 39.878906 L 30.625 40.175781 C 30.574219 40.203125 30.5 40.203125 30.449219 40.203125 C 30.175781 40.203125 29.953125 39.976562 29.953125 39.703125 L 29.953125 38.210938 C 29.953125 38.011719 30.078125 37.8125 30.277344 37.738281 L 31.417969 37.339844 L 31.417969 33.363281 L 30.625 33.636719 C 30.574219 33.660156 30.5 33.660156 30.449219 33.660156 C 30.175781 33.660156 29.953125 33.4375 29.953125 33.164062 L 29.953125 31.671875 C 29.953125 31.472656 30.078125 31.296875 30.277344 31.222656 L 31.417969 30.800781 L 31.417969 26.871094 C 31.417969 26.621094 31.617188 26.398438 31.867188 26.398438 C 32.117188 26.398438 32.339844 26.621094 32.339844 26.871094 L 32.339844 30.476562 L 34.40625 29.707031 L 34.40625 25.777344 C 34.40625 25.527344 34.628906 25.304688 34.878906 25.304688 C 35.125 25.304688 35.324219 25.527344 35.324219 25.777344 L 35.324219 29.382812 L 36.121094 29.082031 C 36.171875 29.058594 36.246094 29.058594 36.292969 29.058594 C 36.566406 29.058594 36.792969 29.28125 36.792969 29.554688 L 36.792969 31.050781 C 36.792969 31.246094 36.667969 31.445312 36.46875 31.519531 L 35.324219 31.917969 L 35.324219 35.898438 L 36.121094 35.625 C 36.171875 35.601562 36.246094 35.601562 36.292969 35.601562 C 36.566406 35.601562 36.792969 35.824219 36.792969 36.097656 L 36.792969 37.589844 C 36.792969 37.789062 36.667969 37.964844 36.46875 38.039062 L 35.324219 38.460938 Z M 32.339844 33.015625 L 32.339844 36.992188 L 34.40625 36.246094 L 34.40625 32.269531 Z M 32.339844 33.015625 "/>
<path style=" stroke:none;fill-rule:nonzero;fill:rgb(0%,0%,0%);fill-opacity:1;" d="M 49.851562 48.609375 C 49.851562 48.859375 49.652344 49.082031 49.402344 49.082031 C 49.152344 49.082031 48.929688 48.859375 48.929688 48.609375 L 48.929688 45.003906 L 46.867188 45.773438 L 46.867188 49.703125 C 46.867188 49.953125 46.640625 50.175781 46.394531 50.175781 C 46.144531 50.175781 45.945312 49.953125 45.945312 49.703125 L 45.945312 46.097656 L 45.148438 46.394531 C 45.101562 46.421875 45.023438 46.421875 44.976562 46.421875 C 44.703125 46.421875 44.476562 46.195312 44.476562 45.921875 L 44.476562 44.429688 C 44.476562 44.230469 44.601562 44.03125 44.800781 43.957031 L 45.945312 43.558594 L 45.945312 39.582031 L 45.148438 39.855469 C 45.101562 39.878906 45.023438 39.878906 44.976562 39.878906 C 44.703125 39.878906 44.476562 39.65625 44.476562 39.382812 L 44.476562 37.890625 C 44.476562 37.691406 44.601562 37.515625 44.800781 37.441406 L 45.945312 37.019531 L 45.945312 33.089844 C 45.945312 32.839844 46.144531 32.617188 46.394531 32.617188 C 46.640625 32.617188 46.867188 32.839844 46.867188 33.089844 L 46.867188 36.695312 L 48.929688 35.925781 L 48.929688 31.992188 C 48.929688 31.746094 49.152344 31.519531 49.402344 31.519531 C 49.652344 31.519531 49.851562 31.746094 49.851562 31.992188 L 49.851562 35.601562 L 50.644531 35.300781 C 50.695312 35.277344 50.769531 35.277344 50.820312 35.277344 C 51.09375 35.277344 51.316406 35.5 51.316406 35.773438 L 51.316406 37.265625 C 51.316406 37.464844 51.195312 37.664062 50.996094 37.738281 L 49.851562 38.136719 L 49.851562 42.117188 L 50.644531 41.84375 C 50.695312 41.820312 50.769531 41.820312 50.820312 41.820312 C 51.09375 41.820312 51.316406 42.042969 51.316406 42.316406 L 51.316406 43.808594 C 51.316406 44.007812 51.195312 44.179688 50.996094 44.257812 L 49.851562 44.679688 Z M 46.867188 39.230469 L 46.867188 43.210938 L 48.929688 42.464844 L 48.929688 38.484375 Z M 46.867188 39.230469 "/>
<path style=" stroke:none;fill-rule:nonzero;fill:rgb(0%,0%,0%);fill-opacity:1;" d="M 23.390625 22.195312 C 23.390625 21.496094 23.960938 20.925781 24.65625 20.925781 C 25.355469 20.925781 25.925781 21.496094 25.925781 22.195312 C 25.925781 22.890625 25.355469 23.460938 24.65625 23.460938 C 23.960938 23.460938 23.390625 22.890625 23.390625 22.195312 Z M 23.390625 15.976562 C 23.390625 15.28125 23.960938 14.707031 24.65625 14.707031 C 25.355469 14.707031 25.925781 15.28125 25.925781 15.976562 C 25.925781 16.671875 25.355469 17.246094 24.65625 17.246094 C 23.960938 17.246094 23.390625 16.671875 23.390625 15.976562 Z M 15.304688 12.542969 C 19.585938 12.542969 22.59375 14.734375 22.59375 18.785156 C 22.59375 25.328125 16.050781 29.082031 9.757812 31.746094 C 9.683594 31.820312 9.609375 31.84375 9.535156 31.84375 C 9.363281 31.84375 9.210938 31.695312 9.210938 31.519531 C 9.210938 31.445312 9.238281 31.371094 9.3125 31.296875 C 14.335938 28.363281 19.558594 24.707031 19.558594 19.035156 C 19.558594 16.050781 17.992188 13.191406 15.304688 13.191406 C 13.464844 13.191406 12.097656 14.535156 11.476562 16.324219 C 11.75 16.199219 12.023438 16.125 12.320312 16.125 C 13.6875 16.125 14.808594 17.246094 14.808594 18.613281 C 14.808594 20.054688 13.714844 21.25 12.320312 21.25 C 10.828125 21.25 9.535156 20.082031 9.535156 18.613281 C 9.535156 15.304688 12.074219 12.542969 15.304688 12.542969 Z M 15.304688 12.542969 "/>
<path style=" stroke:none;fill-rule:nonzero;fill:rgb(0%,0%,0%);fill-opacity:1;" d="M 73.214844 21.921875 C 74.582031 21.921875 75.898438 22.617188 75.898438 24.132812 C 75.898438 25.898438 74.53125 27.144531 73.363281 27.839844 C 72.492188 28.363281 71.496094 28.6875 70.476562 28.6875 C 69.109375 28.6875 67.789062 27.988281 67.789062 26.472656 C 67.789062 24.707031 69.160156 23.460938 70.328125 22.765625 C 71.199219 22.242188 72.191406 21.921875 73.214844 21.921875 Z M 73.214844 21.921875 "/>
<path style=" stroke:none;fill-rule:nonzero;fill:rgb(0%,0%,0%);fill-opacity:1;" d="M 65.507812 25.03125 C 66.875 25.03125 68.195312 25.726562 68.195312 27.242188 C 68.195312 29.007812 66.824219 30.253906 65.65625 30.949219 C 64.785156 31.472656 63.792969 31.796875 62.773438 31.796875 C 61.402344 31.796875 60.085938 31.097656 60.085938 29.582031 C 60.085938 27.816406 61.453125 26.570312 62.621094 25.875 C 63.492188 25.351562 64.488281 25.03125 65.507812 25.03125 Z M 65.507812 25.03125 "/>
<path style=" stroke:none;fill-rule:nonzero;fill:rgb(0%,0%,0%);fill-opacity:1;" d="M 65.507812 31.246094 C 66.875 31.246094 68.195312 31.945312 68.195312 33.460938 C 68.195312 35.226562 66.824219 36.472656 65.65625 37.167969 C 64.785156 37.691406 63.792969 38.011719 62.773438 38.011719 C 61.402344 38.011719 60.085938 37.316406 60.085938 35.800781 C 60.085938 34.035156 61.453125 32.789062 62.621094 32.09375 C 63.492188 31.570312 64.488281 31.246094 65.507812 31.246094 Z M 65.507812 31.246094 "/>
<path style=" stroke:none;fill-rule:nonzero;fill:rgb(0%,0%,0%);fill-opacity:1;" d="M 65.507812 37.464844 C 66.875 37.464844 68.195312 38.164062 68.195312 39.679688 C 68.195312 41.445312 66.824219 42.6875 65.65625 43.386719 C 64.785156 43.90625 63.792969 44.230469 62.773438 44.230469 C 61.402344 44.230469 60.085938 43.535156 60.085938 42.019531 C 60.085938 40.25 61.453125 39.007812 62.621094 38.3125 C 63.492188 37.789062 64.488281 37.464844 65.507812 37.464844 Z M 65.507812 37.464844 "/>
</g>
</svg>
