<?xml version="1.0" encoding="UTF-8"?>
<svg xmlns="http://www.w3.org/2000/svg" xmlns:xlink="http://www.w3.org/1999/xlink" width="83.104172pt" height="61.666356pt" viewBox="0 0 83.104172 61.666356" version="1.1">
<g id="surface1">
<path style="fill:none;stroke-width:0.1;stroke-linecap:round;stroke-linejoin:round;stroke:rgb(0%,0%,0%);stroke-opacity:1;stroke-miterlimit:4;" d="M 0.049863 -0.000287501 L 10.95544 -0.000287501 " transform="matrix(6.218149,0,0,6.218149,4.561038,40.517413)"/>
<path style="fill:none;stroke-width:0.1;stroke-linecap:round;stroke-linejoin:round;stroke:rgb(0%,0%,0%);stroke-opacity:1;stroke-miterlimit:4;" d="M 0.049863 0.000244052 L 10.95544 0.000244052 " transform="matrix(6.218149,0,0,6.218149,4.561038,34.299264)"/>
<path style="fill:none;stroke-width:0.1;stroke-linecap:round;stroke-linejoin:round;stroke:rgb(0%,0%,0%);stroke-opacity:1;stroke-miterlimit:4;" d="M 0.049863 0.000147403 L 10.95544 0.000147403 " transform="matrix(6.218149,0,0,6.218149,4.561038,28.081115)"/>
<path style="fill:none;stroke-width:0.1;stroke-linecap:round;stroke-linejoin:round;stroke:rgb(0%,0%,0%);stroke-opacity:1;stroke-miterlimit:4;" d="M 0.049863 0.0000507548 L 10.95544 0.0000507548 " transform="matrix(6.218149,0,0,6.218149,4.561038,21.862966)"/>
<path style="fill:none;stroke-width:0.1;stroke-linecap:round;stroke-linejoin:round;stroke:rgb(0%,0%,0%);stroke-opacity:1;stroke-miterlimit:4;" d="M 0.049863 -0.0000458938 L 10.95544 -0.0000458938 " transform="matrix(6.218149,0,0,6.218149,4.561038,15.644817)"/>
<path style=" stroke:none;fill-rule:nonzero;fill:rgb(0%,0%,0%);fill-opacity:1;" d="M 54.574219 16.800781 L 54.882812 16.800781 C 55.023438 16.800781 55.132812 16.914062 55.132812 17.050781 L 55.132812 52.703125 C 55.132812 52.84375 55.023438 52.953125 54.882812 52.953125 L 54.574219 52.953125 C 54.4375 52.953125 54.324219 52.84375 54.324219 52.703125 L 54.324219 17.050781 C 54.324219 16.914062 54.4375 16.800781 54.574219 16.800781 Z M 54.574219 16.800781 "/>
<path style=" stroke:none;fill-rule:nonzero;fill:rgb(0%,0%,0%);fill-opacity:1;" d="M 49.414062 15.644531 C 49.988281 16.21875 50.808594 16.339844 51.628906 16.339844 C 51.777344 16.339844 51.875 16.441406 51.875 16.589844 L 52.101562 18.753906 C 52.125 18.902344 52 19.027344 51.851562 19.003906 L 49.6875 18.777344 C 49.5625 18.753906 49.4375 18.65625 49.4375 18.53125 C 49.4375 17.710938 49.316406 16.886719 48.742188 16.316406 C 48.171875 16.886719 48.070312 17.710938 48.070312 18.53125 C 48.070312 18.65625 47.945312 18.753906 47.824219 18.777344 L 45.632812 19.003906 C 45.484375 19.027344 45.359375 18.902344 45.386719 18.753906 L 45.609375 16.589844 C 45.609375 16.441406 45.707031 16.339844 45.859375 16.339844 C 46.679688 16.339844 47.5 16.21875 48.070312 15.644531 C 47.5 15.074219 46.679688 14.949219 45.859375 14.949219 C 45.707031 14.949219 45.609375 14.847656 45.609375 14.699219 L 45.386719 12.535156 C 45.359375 12.386719 45.484375 12.261719 45.632812 12.285156 L 47.824219 12.511719 C 47.945312 12.535156 48.046875 12.636719 48.046875 12.757812 C 48.046875 13.582031 48.171875 14.402344 48.742188 14.972656 C 49.316406 14.402344 49.4375 13.582031 49.4375 12.757812 C 49.4375 12.636719 49.5625 12.535156 49.6875 12.511719 L 51.851562 12.285156 C 52 12.261719 52.125 12.386719 52.101562 12.535156 L 51.875 14.699219 C 51.875 14.847656 51.777344 14.949219 51.628906 14.949219 C 50.808594 14.949219 49.988281 15.074219 49.414062 15.644531 Z M 49.414062 15.644531 "/>
<path style=" stroke:none;fill-rule:nonzero;fill:rgb(0%,0%,0%);fill-opacity:1;" d="M 42.671875 29.625 C 42.671875 29.871094 42.472656 30.097656 42.222656 30.097656 C 41.976562 30.097656 41.75 29.871094 41.75 29.625 L 41.75 26.015625 L 39.6875 26.789062 L 39.6875 30.71875 C 39.6875 30.964844 39.464844 31.191406 39.214844 31.191406 C 38.964844 31.191406 38.765625 30.964844 38.765625 30.71875 L 38.765625 27.109375 L 37.972656 27.410156 C 37.921875 27.433594 37.847656 27.433594 37.796875 27.433594 C 37.523438 27.433594 37.300781 27.210938 37.300781 26.9375 L 37.300781 25.445312 C 37.300781 25.246094 37.425781 25.046875 37.621094 24.972656 L 38.765625 24.574219 L 38.765625 20.59375 L 37.972656 20.867188 C 37.921875 20.894531 37.847656 20.894531 37.796875 20.894531 C 37.523438 20.894531 37.300781 20.667969 37.300781 20.394531 L 37.300781 18.902344 C 37.300781 18.703125 37.425781 18.53125 37.621094 18.457031 L 38.765625 18.03125 L 38.765625 14.101562 C 38.765625 13.855469 38.964844 13.628906 39.214844 13.628906 C 39.464844 13.628906 39.6875 13.855469 39.6875 14.101562 L 39.6875 17.710938 L 41.75 16.9375 L 41.75 13.007812 C 41.75 12.757812 41.976562 12.535156 42.222656 12.535156 C 42.472656 12.535156 42.671875 12.757812 42.671875 13.007812 L 42.671875 16.613281 L 43.46875 16.316406 C 43.519531 16.292969 43.59375 16.292969 43.640625 16.292969 C 43.914062 16.292969 44.140625 16.515625 44.140625 16.789062 L 44.140625 18.28125 C 44.140625 18.480469 44.015625 18.679688 43.816406 18.753906 L 42.671875 19.152344 L 42.671875 23.132812 L 43.46875 22.859375 C 43.519531 22.832031 43.59375 22.832031 43.640625 22.832031 C 43.914062 22.832031 44.140625 23.058594 44.140625 23.332031 L 44.140625 24.824219 C 44.140625 25.023438 44.015625 25.195312 43.816406 25.269531 L 42.671875 25.691406 Z M 39.6875 20.246094 L 39.6875 24.226562 L 41.75 23.480469 L 41.75 19.5 Z M 39.6875 20.246094 "/>
<path style=" stroke:none;fill-rule:nonzero;fill:rgb(0%,0%,0%);fill-opacity:1;" d="M 34.589844 35.839844 C 34.589844 36.089844 34.390625 36.3125 34.140625 36.3125 C 33.890625 36.3125 33.667969 36.089844 33.667969 35.839844 L 33.667969 32.234375 L 31.605469 33.007812 L 31.605469 36.9375 C 31.605469 37.183594 31.378906 37.410156 31.132812 37.410156 C 30.882812 37.410156 30.683594 37.183594 30.683594 36.9375 L 30.683594 33.328125 L 29.886719 33.628906 C 29.835938 33.652344 29.761719 33.652344 29.714844 33.652344 C 29.441406 33.652344 29.214844 33.429688 29.214844 33.15625 L 29.214844 31.664062 C 29.214844 31.464844 29.339844 31.265625 29.539062 31.191406 L 30.683594 30.792969 L 30.683594 26.8125 L 29.886719 27.085938 C 29.835938 27.109375 29.761719 27.109375 29.714844 27.109375 C 29.441406 27.109375 29.214844 26.886719 29.214844 26.613281 L 29.214844 25.121094 C 29.214844 24.921875 29.339844 24.75 29.539062 24.671875 L 30.683594 24.25 L 30.683594 20.320312 C 30.683594 20.070312 30.882812 19.847656 31.132812 19.847656 C 31.378906 19.847656 31.605469 20.070312 31.605469 20.320312 L 31.605469 23.925781 L 33.667969 23.15625 L 33.667969 19.226562 C 33.667969 18.976562 33.890625 18.753906 34.140625 18.753906 C 34.390625 18.753906 34.589844 18.976562 34.589844 19.226562 L 34.589844 22.832031 L 35.382812 22.535156 C 35.433594 22.507812 35.507812 22.507812 35.558594 22.507812 C 35.832031 22.507812 36.054688 22.734375 36.054688 23.007812 L 36.054688 24.5 C 36.054688 24.699219 35.929688 24.898438 35.734375 24.972656 L 34.589844 25.371094 L 34.589844 29.351562 L 35.382812 29.074219 C 35.433594 29.050781 35.507812 29.050781 35.558594 29.050781 C 35.832031 29.050781 36.054688 29.273438 36.054688 29.546875 L 36.054688 31.039062 C 36.054688 31.238281 35.929688 31.414062 35.734375 31.488281 L 34.589844 31.910156 Z M 31.605469 26.464844 L 31.605469 30.445312 L 33.667969 29.699219 L 33.667969 25.71875 Z M 31.605469 26.464844 "/>
<path style=" stroke:none;fill-rule:nonzero;fill:rgb(0%,0%,0%);fill-opacity:1;" d="M 50.679688 42.058594 C 50.679688 42.308594 50.480469 42.53125 50.234375 42.53125 C 49.984375 42.53125 49.761719 42.308594 49.761719 42.058594 L 49.761719 38.453125 L 47.695312 39.222656 L 47.695312 43.152344 C 47.695312 43.402344 47.472656 43.625 47.222656 43.625 C 46.976562 43.625 46.777344 43.402344 46.777344 43.152344 L 46.777344 39.546875 L 45.980469 39.847656 C 45.929688 39.871094 45.855469 39.871094 45.804688 39.871094 C 45.53125 39.871094 45.308594 39.648438 45.308594 39.375 L 45.308594 37.882812 C 45.308594 37.683594 45.433594 37.484375 45.632812 37.410156 L 46.777344 37.011719 L 46.777344 33.03125 L 45.980469 33.304688 C 45.929688 33.328125 45.855469 33.328125 45.804688 33.328125 C 45.53125 33.328125 45.308594 33.105469 45.308594 32.832031 L 45.308594 31.339844 C 45.308594 31.140625 45.433594 30.964844 45.632812 30.890625 L 46.777344 30.46875 L 46.777344 26.539062 C 46.777344 26.289062 46.976562 26.066406 47.222656 26.066406 C 47.472656 26.066406 47.695312 26.289062 47.695312 26.539062 L 47.695312 30.144531 L 49.761719 29.375 L 49.761719 25.445312 C 49.761719 25.195312 49.984375 24.972656 50.234375 24.972656 C 50.480469 24.972656 50.679688 25.195312 50.679688 25.445312 L 50.679688 29.050781 L 51.476562 28.753906 C 51.527344 28.726562 51.601562 28.726562 51.652344 28.726562 C 51.925781 28.726562 52.148438 28.953125 52.148438 29.226562 L 52.148438 30.71875 C 52.148438 30.917969 52.023438 31.117188 51.824219 31.191406 L 50.679688 31.589844 L 50.679688 35.566406 L 51.476562 35.292969 C 51.527344 35.269531 51.601562 35.269531 51.652344 35.269531 C 51.925781 35.269531 52.148438 35.492188 52.148438 35.765625 L 52.148438 37.257812 C 52.148438 37.457031 52.023438 37.632812 51.824219 37.707031 L 50.679688 38.128906 Z M 47.695312 32.683594 L 47.695312 36.664062 L 49.761719 35.914062 L 49.761719 31.9375 Z M 47.695312 32.683594 "/>
<path style=" stroke:none;fill-rule:nonzero;fill:rgb(0%,0%,0%);fill-opacity:1;" d="M 16.152344 50.09375 L 16.003906 50.09375 C 13.316406 50.09375 11.152344 47.90625 11.152344 45.195312 C 11.152344 43.75 12.46875 42.632812 13.9375 42.632812 C 15.28125 42.632812 16.300781 43.800781 16.300781 45.195312 C 16.300781 46.488281 15.230469 47.554688 13.9375 47.554688 C 13.664062 47.554688 13.414062 47.507812 13.167969 47.40625 C 13.8125 48.378906 14.859375 49.023438 16.078125 49.023438 L 16.175781 49.023438 Z M 21 39.347656 C 22.691406 38.75 23.8125 36.984375 23.8125 35.269531 C 23.8125 33.03125 22.171875 30.816406 19.507812 30.542969 C 20.105469 33.429688 20.652344 36.289062 21 39.347656 Z M 11.375 33.601562 C 11.375 36.960938 14.585938 39.746094 17.941406 39.746094 C 18.640625 39.746094 19.308594 39.695312 19.980469 39.597656 C 19.632812 36.4375 19.0625 33.503906 18.414062 30.542969 C 16.449219 30.742188 15.332031 32.0625 15.332031 33.503906 C 15.332031 34.597656 15.953125 35.765625 17.34375 36.5625 C 17.46875 36.6875 17.519531 36.8125 17.519531 36.9375 C 17.519531 37.210938 17.269531 37.484375 16.972656 37.484375 C 16.898438 37.484375 16.824219 37.457031 16.75 37.433594 C 14.757812 36.363281 13.839844 34.574219 13.839844 32.832031 C 13.839844 30.644531 15.28125 28.503906 17.816406 27.933594 C 17.46875 26.488281 17.097656 25.023438 16.675781 23.578125 C 14.011719 26.589844 11.375 29.625 11.375 33.601562 Z M 17.867188 40.816406 C 13.191406 40.816406 9.585938 36.539062 9.585938 31.511719 C 9.585938 27.109375 12.84375 23.902344 15.753906 20.542969 C 15.28125 19.003906 14.832031 17.4375 14.632812 15.820312 C 14.484375 14.527344 14.460938 13.230469 14.460938 11.9375 C 14.460938 9.078125 15.828125 6.367188 18.167969 4.675781 C 18.316406 4.550781 18.515625 4.550781 18.664062 4.675781 C 20.429688 6.765625 21.972656 10.769531 21.972656 13.582031 C 21.972656 17.136719 19.832031 19.921875 17.496094 22.632812 C 18.015625 24.324219 18.464844 26.066406 18.886719 27.78125 C 18.988281 27.78125 19.113281 27.757812 19.210938 27.757812 C 23.066406 27.757812 25.578125 30.941406 25.578125 34.25 C 25.578125 36.140625 24.757812 38.078125 22.917969 39.472656 C 22.371094 39.894531 21.746094 40.167969 21.101562 40.367188 C 21.175781 41.238281 21.226562 42.109375 21.226562 42.980469 C 21.226562 43.453125 21.199219 43.949219 21.175781 44.421875 C 21 47.382812 18.988281 50.019531 16.152344 50.09375 L 16.175781 49.023438 C 18.488281 48.972656 19.980469 46.734375 20.132812 44.273438 C 20.15625 43.824219 20.179688 43.351562 20.179688 42.90625 C 20.179688 42.132812 20.15625 41.386719 20.082031 40.617188 C 19.359375 40.742188 18.640625 40.816406 17.867188 40.816406 Z M 20.179688 11.515625 C 20.179688 10.148438 20.082031 9.550781 19.683594 8.308594 C 17.222656 9.5 15.652344 12.011719 15.652344 14.75 C 15.652344 16.589844 16.101562 18.058594 16.550781 19.574219 C 18.539062 17.160156 20.179688 14.648438 20.179688 11.515625 Z M 20.179688 11.515625 "/>
<path style=" stroke:none;fill-rule:nonzero;fill:rgb(0%,0%,0%);fill-opacity:1;" d="M 59.746094 12.261719 C 61.113281 12.261719 62.433594 12.957031 62.433594 14.476562 C 62.433594 16.242188 61.066406 17.484375 59.894531 18.183594 C 59.027344 18.703125 58.03125 19.027344 57.011719 19.027344 C 55.644531 19.027344 54.324219 18.332031 54.324219 16.8125 C 54.324219 15.046875 55.691406 13.804688 56.863281 13.109375 C 57.734375 12.585938 58.726562 12.261719 59.746094 12.261719 Z M 59.746094 12.261719 "/>
<path style=" stroke:none;fill-rule:nonzero;fill:rgb(0%,0%,0%);fill-opacity:1;" d="M 59.746094 18.480469 C 61.113281 18.480469 62.433594 19.175781 62.433594 20.695312 C 62.433594 22.460938 61.066406 23.703125 59.894531 24.398438 C 59.027344 24.921875 58.03125 25.246094 57.011719 25.246094 C 55.644531 25.246094 54.324219 24.550781 54.324219 23.03125 C 54.324219 21.265625 55.691406 20.023438 56.863281 19.324219 C 57.734375 18.804688 58.726562 18.480469 59.746094 18.480469 Z M 59.746094 18.480469 "/>
<path style=" stroke:none;fill-rule:nonzero;fill:rgb(0%,0%,0%);fill-opacity:1;" d="M 59.746094 24.699219 C 61.113281 24.699219 62.433594 25.394531 62.433594 26.910156 C 62.433594 28.679688 61.066406 29.921875 59.894531 30.617188 C 59.027344 31.140625 58.03125 31.464844 57.011719 31.464844 C 55.644531 31.464844 54.324219 30.765625 54.324219 29.25 C 54.324219 27.484375 55.691406 26.242188 56.863281 25.542969 C 57.734375 25.023438 58.726562 24.699219 59.746094 24.699219 Z M 59.746094 24.699219 "/>
<path style=" stroke:none;fill-rule:nonzero;fill:rgb(0%,0%,0%);fill-opacity:1;" d="M 59.746094 30.917969 C 61.113281 30.917969 62.433594 31.613281 62.433594 33.128906 C 62.433594 34.894531 61.066406 36.140625 59.894531 36.835938 C 59.027344 37.359375 58.03125 37.683594 57.011719 37.683594 C 55.644531 37.683594 54.324219 36.984375 54.324219 35.46875 C 54.324219 33.703125 55.691406 32.457031 56.863281 31.761719 C 57.734375 31.238281 58.726562 30.917969 59.746094 30.917969 Z M 59.746094 30.917969 "/>
</g>
</svg>
