<?xml version="1.0" encoding="UTF-8"?>
<svg xmlns="http://www.w3.org/2000/svg" xmlns:xlink="http://www.w3.org/1999/xlink" width="68.472344pt" height="45.599906pt" viewBox="0 0 68.472344 45.599906" version="1.1">
<g id="surface1">
<path style="fill:none;stroke-width:0.1;stroke-linecap:round;stroke-linejoin:round;stroke:rgb(0%,0%,0%);stroke-opacity:1;stroke-miterlimit:4;" d="M 0.049863 0.000047343 L 8.752337 0.000047343 " transform="matrix(6.218149,0,0,6.218149,4.561038,34.796581)"/>
<path style="fill:none;stroke-width:0.1;stroke-linecap:round;stroke-linejoin:round;stroke:rgb(0%,0%,0%);stroke-opacity:1;stroke-miterlimit:4;" d="M 0.049863 -0.0000493056 L 8.752337 -0.0000493056 " transform="matrix(6.218149,0,0,6.218149,4.561038,28.578432)"/>
<path style="fill:none;stroke-width:0.1;stroke-linecap:round;stroke-linejoin:round;stroke:rgb(0%,0%,0%);stroke-opacity:1;stroke-miterlimit:4;" d="M 0.049863 -0.000145716 L 8.752337 -0.000145716 " transform="matrix(6.218149,0,0,6.218149,4.561038,22.360281)"/>
<path style="fill:none;stroke-width:0.1;stroke-linecap:round;stroke-linejoin:round;stroke:rgb(0%,0%,0%);stroke-opacity:1;stroke-miterlimit:4;" d="M 0.049863 -0.000242364 L 8.752337 -0.000242364 " transform="matrix(6.218149,0,0,6.218149,4.561038,16.142132)"/>
<path style="fill:none;stroke-width:0.1;stroke-linecap:round;stroke-linejoin:round;stroke:rgb(0%,0%,0%);stroke-opacity:1;stroke-miterlimit:4;" d="M 0.049863 0.000289069 L 8.752337 0.000289069 " transform="matrix(6.218149,0,0,6.218149,4.561038,9.923984)"/>
<path style=" stroke:none;fill-rule:nonzero;fill:rgb(0%,0%,0%);fill-opacity:1;" d="M 40.875 17.300781 L 41.1875 17.300781 C 41.324219 17.300781 41.433594 17.410156 41.433594 17.546875 L 41.433594 37.65625 C 41.433594 37.792969 41.324219 37.90625 41.1875 37.90625 L 40.875 37.90625 C 40.738281 37.90625 40.625 37.792969 40.625 37.65625 L 40.625 17.546875 C 40.625 17.410156 40.738281 17.300781 40.875 17.300781 Z M 40.875 17.300781 "/>
<path style=" stroke:none;fill-rule:nonzero;fill:rgb(0%,0%,0%);fill-opacity:1;" d="M 34.148438 15.121094 L 34.121094 16.765625 L 34.121094 17.039062 C 34.121094 17.585938 34.148438 18.132812 34.222656 18.679688 C 35.339844 17.734375 36.535156 16.6875 36.535156 15.222656 C 36.535156 14.402344 36.1875 13.554688 35.464844 13.554688 C 34.695312 13.554688 34.171875 14.300781 34.148438 15.121094 Z M 33.101562 19.574219 L 32.804688 4.773438 C 33.003906 4.652344 33.25 4.578125 33.476562 4.578125 C 33.699219 4.578125 33.949219 4.652344 34.148438 4.773438 L 33.972656 13.355469 C 34.59375 12.835938 35.414062 12.511719 36.234375 12.511719 C 37.53125 12.511719 38.449219 13.703125 38.449219 15.046875 C 38.449219 17.039062 36.3125 17.957031 34.792969 19.25 C 34.421875 19.574219 34.195312 20.195312 33.675781 20.195312 C 33.351562 20.195312 33.101562 19.921875 33.101562 19.574219 Z M 33.101562 19.574219 "/>
<path style=" stroke:none;fill-rule:nonzero;fill:rgb(0%,0%,0%);fill-opacity:1;" d="M 23.390625 19.25 C 23.390625 18.554688 23.960938 17.984375 24.65625 17.984375 C 25.355469 17.984375 25.925781 18.554688 25.925781 19.25 C 25.925781 19.949219 25.355469 20.519531 24.65625 20.519531 C 23.960938 20.519531 23.390625 19.949219 23.390625 19.25 Z M 23.390625 13.03125 C 23.390625 12.335938 23.960938 11.765625 24.65625 11.765625 C 25.355469 11.765625 25.925781 12.335938 25.925781 13.03125 C 25.925781 13.730469 25.355469 14.300781 24.65625 14.300781 C 23.960938 14.300781 23.390625 13.730469 23.390625 13.03125 Z M 15.304688 9.601562 C 19.585938 9.601562 22.59375 11.789062 22.59375 15.84375 C 22.59375 22.386719 16.050781 26.140625 9.757812 28.800781 C 9.683594 28.875 9.609375 28.902344 9.535156 28.902344 C 9.363281 28.902344 9.210938 28.753906 9.210938 28.578125 C 9.210938 28.503906 9.238281 28.429688 9.3125 28.355469 C 14.335938 25.417969 19.558594 21.761719 19.558594 16.09375 C 19.558594 13.109375 17.992188 10.246094 15.304688 10.246094 C 13.464844 10.246094 12.097656 11.589844 11.476562 13.382812 C 11.75 13.257812 12.023438 13.183594 12.320312 13.183594 C 13.6875 13.183594 14.808594 14.300781 14.808594 15.667969 C 14.808594 17.113281 13.714844 18.304688 12.320312 18.304688 C 10.828125 18.304688 9.535156 17.136719 9.535156 15.667969 C 9.535156 12.363281 12.074219 9.601562 15.304688 9.601562 Z M 15.304688 9.601562 "/>
<path style=" stroke:none;fill-rule:nonzero;fill:rgb(0%,0%,0%);fill-opacity:1;" d="M 46.046875 12.757812 C 47.417969 12.757812 48.734375 13.457031 48.734375 14.972656 C 48.734375 16.738281 47.367188 17.984375 46.199219 18.679688 C 45.328125 19.203125 44.332031 19.523438 43.3125 19.523438 C 41.945312 19.523438 40.625 18.828125 40.625 17.3125 C 40.625 15.546875 41.996094 14.300781 43.164062 13.605469 C 44.035156 13.082031 45.027344 12.757812 46.046875 12.757812 Z M 46.046875 12.757812 "/>
</g>
</svg>
