<?xml version="1.0" encoding="UTF-8"?>
<svg xmlns="http://www.w3.org/2000/svg" xmlns:xlink="http://www.w3.org/1999/xlink" width="70.41506pt" height="50.196013pt" viewBox="0 0 70.41506 50.196013" version="1.1">
<g id="surface1">
<path style="fill:none;stroke-width:0.1;stroke-linecap:round;stroke-linejoin:round;stroke:rgb(0%,0%,0%);stroke-opacity:1;stroke-miterlimit:4;" d="M 0.049863 -0.0001075 L 9.045079 -0.0001075 " transform="matrix(6.218149,0,0,6.218149,4.561038,29.434262)"/>
<path style="fill:none;stroke-width:0.1;stroke-linecap:round;stroke-linejoin:round;stroke:rgb(0%,0%,0%);stroke-opacity:1;stroke-miterlimit:4;" d="M 0.049863 -0.000204149 L 9.045079 -0.000204149 " transform="matrix(6.218149,0,0,6.218149,4.561038,23.216113)"/>
<path style="fill:none;stroke-width:0.1;stroke-linecap:round;stroke-linejoin:round;stroke:rgb(0%,0%,0%);stroke-opacity:1;stroke-miterlimit:4;" d="M 0.049863 -0.000300797 L 9.045079 -0.000300797 " transform="matrix(6.218149,0,0,6.218149,4.561038,16.997964)"/>
<path style="fill:none;stroke-width:0.1;stroke-linecap:round;stroke-linejoin:round;stroke:rgb(0%,0%,0%);stroke-opacity:1;stroke-miterlimit:4;" d="M 0.049863 0.000230756 L 9.045079 0.000230756 " transform="matrix(6.218149,0,0,6.218149,4.561038,10.779815)"/>
<path style="fill:none;stroke-width:0.1;stroke-linecap:round;stroke-linejoin:round;stroke:rgb(0%,0%,0%);stroke-opacity:1;stroke-miterlimit:4;" d="M 0.049863 0.000133988 L 9.045079 0.000133988 " transform="matrix(6.218149,0,0,6.218149,4.561038,4.561667)"/>
<path style=" stroke:none;fill-rule:nonzero;fill:rgb(0%,0%,0%);fill-opacity:1;" d="M 31.371094 22.195312 L 31.34375 23.839844 L 31.34375 24.113281 C 31.34375 24.660156 31.371094 25.207031 31.445312 25.753906 C 32.5625 24.808594 33.757812 23.761719 33.757812 22.296875 C 33.757812 21.476562 33.410156 20.628906 32.6875 20.628906 C 31.917969 20.628906 31.394531 21.375 31.371094 22.195312 Z M 30.324219 26.648438 L 30.027344 11.847656 C 30.226562 11.726562 30.472656 11.648438 30.699219 11.648438 C 30.921875 11.648438 31.171875 11.726562 31.371094 11.847656 L 31.195312 20.429688 C 31.816406 19.90625 32.636719 19.585938 33.460938 19.585938 C 34.753906 19.585938 35.671875 20.777344 35.671875 22.121094 C 35.671875 24.113281 33.535156 25.03125 32.015625 26.324219 C 31.644531 26.648438 31.417969 27.269531 30.898438 27.269531 C 30.574219 27.269531 30.324219 26.996094 30.324219 26.648438 Z M 30.324219 26.648438 "/>
<path style=" stroke:none;fill-rule:nonzero;fill:rgb(0%,0%,0%);fill-opacity:1;" d="M 42.695312 8.828125 L 43.003906 8.828125 C 43.144531 8.828125 43.253906 8.9375 43.253906 9.078125 L 43.253906 41.621094 C 43.253906 41.757812 43.144531 41.871094 43.003906 41.871094 L 42.695312 41.871094 C 42.558594 41.871094 42.445312 41.757812 42.445312 41.621094 L 42.445312 9.078125 C 42.445312 8.9375 42.558594 8.828125 42.695312 8.828125 Z M 42.695312 8.828125 "/>
<path style=" stroke:none;fill-rule:nonzero;fill:rgb(0%,0%,0%);fill-opacity:1;" d="M 23.390625 13.890625 C 23.390625 13.191406 23.960938 12.621094 24.65625 12.621094 C 25.355469 12.621094 25.925781 13.191406 25.925781 13.890625 C 25.925781 14.585938 25.355469 15.15625 24.65625 15.15625 C 23.960938 15.15625 23.390625 14.585938 23.390625 13.890625 Z M 23.390625 7.671875 C 23.390625 6.972656 23.960938 6.402344 24.65625 6.402344 C 25.355469 6.402344 25.925781 6.972656 25.925781 7.671875 C 25.925781 8.367188 25.355469 8.9375 24.65625 8.9375 C 23.960938 8.9375 23.390625 8.367188 23.390625 7.671875 Z M 15.304688 4.238281 C 19.585938 4.238281 22.59375 6.425781 22.59375 10.480469 C 22.59375 17.023438 16.050781 20.777344 9.757812 23.441406 C 9.683594 23.515625 9.609375 23.539062 9.535156 23.539062 C 9.363281 23.539062 9.210938 23.390625 9.210938 23.214844 C 9.210938 23.140625 9.238281 23.066406 9.3125 22.992188 C 14.335938 20.058594 19.558594 16.402344 19.558594 10.730469 C 19.558594 7.746094 17.992188 4.886719 15.304688 4.886719 C 13.464844 4.886719 12.097656 6.226562 11.476562 8.019531 C 11.75 7.894531 12.023438 7.820312 12.320312 7.820312 C 13.6875 7.820312 14.808594 8.9375 14.808594 10.308594 C 14.808594 11.75 13.714844 12.945312 12.320312 12.945312 C 10.828125 12.945312 9.535156 11.773438 9.535156 10.308594 C 9.535156 7 12.074219 4.238281 15.304688 4.238281 Z M 15.304688 4.238281 "/>
<path style=" stroke:none;fill-rule:nonzero;fill:rgb(0%,0%,0%);fill-opacity:1;" d="M 47.867188 4.289062 C 49.234375 4.289062 50.554688 4.984375 50.554688 6.5 C 50.554688 8.269531 49.1875 9.511719 48.015625 10.207031 C 47.148438 10.730469 46.152344 11.054688 45.132812 11.054688 C 43.765625 11.054688 42.445312 10.355469 42.445312 8.839844 C 42.445312 7.074219 43.8125 5.832031 44.984375 5.132812 C 45.851562 4.613281 46.847656 4.289062 47.867188 4.289062 Z M 47.867188 4.289062 "/>
<path style=" stroke:none;fill-rule:nonzero;fill:rgb(0%,0%,0%);fill-opacity:1;" d="M 40.164062 7.398438 C 41.53125 7.398438 42.847656 8.09375 42.847656 9.609375 C 42.847656 11.375 41.480469 12.621094 40.3125 13.316406 C 39.441406 13.839844 38.445312 14.164062 37.425781 14.164062 C 36.058594 14.164062 34.738281 13.464844 34.738281 11.949219 C 34.738281 10.183594 36.109375 8.9375 37.277344 8.242188 C 38.148438 7.71875 39.144531 7.398438 40.164062 7.398438 Z M 40.164062 7.398438 "/>
<path style=" stroke:none;fill-rule:nonzero;fill:rgb(0%,0%,0%);fill-opacity:1;" d="M 47.867188 13.617188 C 49.234375 13.617188 50.554688 14.3125 50.554688 15.828125 C 50.554688 17.59375 49.1875 18.839844 48.015625 19.535156 C 47.148438 20.058594 46.152344 20.378906 45.132812 20.378906 C 43.765625 20.378906 42.445312 19.683594 42.445312 18.167969 C 42.445312 16.402344 43.8125 15.15625 44.984375 14.460938 C 45.851562 13.9375 46.847656 13.617188 47.867188 13.617188 Z M 47.867188 13.617188 "/>
<path style=" stroke:none;fill-rule:nonzero;fill:rgb(0%,0%,0%);fill-opacity:1;" d="M 47.867188 19.832031 C 49.234375 19.832031 50.554688 20.53125 50.554688 22.046875 C 50.554688 23.8125 49.1875 25.058594 48.015625 25.753906 C 47.148438 26.277344 46.152344 26.597656 45.132812 26.597656 C 43.765625 26.597656 42.445312 25.902344 42.445312 24.386719 C 42.445312 22.621094 43.8125 21.375 44.984375 20.679688 C 45.851562 20.15625 46.847656 19.832031 47.867188 19.832031 Z M 47.867188 19.832031 "/>
</g>
</svg>
