<?xml version="1.0" encoding="UTF-8"?>
<svg xmlns="http://www.w3.org/2000/svg" xmlns:xlink="http://www.w3.org/1999/xlink" width="68.472344pt" height="53.795888pt" viewBox="0 0 68.472344 53.795888" version="1.1">
<g id="surface1">
<path style="fill:none;stroke-width:0.1;stroke-linecap:round;stroke-linejoin:round;stroke:rgb(0%,0%,0%);stroke-opacity:1;stroke-miterlimit:4;" d="M 0.049863 -0.000304683 L 8.752337 -0.000304683 " transform="matrix(6.218149,0,0,6.218149,4.561038,45.26752)"/>
<path style="fill:none;stroke-width:0.1;stroke-linecap:round;stroke-linejoin:round;stroke:rgb(0%,0%,0%);stroke-opacity:1;stroke-miterlimit:4;" d="M 0.049863 0.00022687 L 8.752337 0.00022687 " transform="matrix(6.218149,0,0,6.218149,4.561038,39.049371)"/>
<path style="fill:none;stroke-width:0.1;stroke-linecap:round;stroke-linejoin:round;stroke:rgb(0%,0%,0%);stroke-opacity:1;stroke-miterlimit:4;" d="M 0.049863 0.000130221 L 8.752337 0.000130221 " transform="matrix(6.218149,0,0,6.218149,4.561038,32.831222)"/>
<path style="fill:none;stroke-width:0.1;stroke-linecap:round;stroke-linejoin:round;stroke:rgb(0%,0%,0%);stroke-opacity:1;stroke-miterlimit:4;" d="M 0.049863 0.0000335725 L 8.752337 0.0000335725 " transform="matrix(6.218149,0,0,6.218149,4.561038,26.613072)"/>
<path style="fill:none;stroke-width:0.1;stroke-linecap:round;stroke-linejoin:round;stroke:rgb(0%,0%,0%);stroke-opacity:1;stroke-miterlimit:4;" d="M 0.049863 -0.0000630761 L 8.752337 -0.0000630761 " transform="matrix(6.218149,0,0,6.218149,4.561038,20.394923)"/>
<path style=" stroke:none;fill-rule:nonzero;fill:rgb(0%,0%,0%);fill-opacity:1;" d="M 39.21875 7.335938 L 50.140625 7.335938 C 50.484375 7.335938 50.761719 7.613281 50.761719 7.957031 C 50.761719 8.300781 50.484375 8.582031 50.140625 8.582031 L 39.21875 8.582031 C 38.878906 8.582031 38.597656 8.300781 38.597656 7.957031 C 38.597656 7.613281 38.878906 7.335938 39.21875 7.335938 Z M 39.21875 7.335938 "/>
<path style=" stroke:none;fill-rule:nonzero;fill:rgb(0%,0%,0%);fill-opacity:1;" d="M 39.21875 13.554688 L 50.140625 13.554688 C 50.484375 13.554688 50.761719 13.832031 50.761719 14.175781 C 50.761719 14.519531 50.484375 14.796875 50.140625 14.796875 L 39.21875 14.796875 C 38.878906 14.796875 38.597656 14.519531 38.597656 14.175781 C 38.597656 13.832031 38.878906 13.554688 39.21875 13.554688 Z M 39.21875 13.554688 "/>
<path style=" stroke:none;fill-rule:nonzero;fill:rgb(0%,0%,0%);fill-opacity:1;" d="M 40.875 9.117188 L 41.1875 9.117188 C 41.324219 9.117188 41.433594 9.226562 41.433594 9.363281 L 41.433594 32.582031 C 41.433594 32.71875 41.324219 32.832031 41.1875 32.832031 L 40.875 32.832031 C 40.738281 32.832031 40.625 32.71875 40.625 32.582031 L 40.625 9.363281 C 40.625 9.226562 40.738281 9.117188 40.875 9.117188 Z M 40.875 9.117188 "/>
<path style=" stroke:none;fill-rule:nonzero;fill:rgb(0%,0%,0%);fill-opacity:1;" d="M 23.390625 29.722656 C 23.390625 29.027344 23.960938 28.453125 24.65625 28.453125 C 25.355469 28.453125 25.925781 29.027344 25.925781 29.722656 C 25.925781 30.417969 25.355469 30.992188 24.65625 30.992188 C 23.960938 30.992188 23.390625 30.417969 23.390625 29.722656 Z M 23.390625 23.503906 C 23.390625 22.808594 23.960938 22.234375 24.65625 22.234375 C 25.355469 22.234375 25.925781 22.808594 25.925781 23.503906 C 25.925781 24.199219 25.355469 24.773438 24.65625 24.773438 C 23.960938 24.773438 23.390625 24.199219 23.390625 23.503906 Z M 15.304688 20.070312 C 19.585938 20.070312 22.59375 22.261719 22.59375 26.316406 C 22.59375 32.855469 16.050781 36.613281 9.757812 39.273438 C 9.683594 39.347656 9.609375 39.371094 9.535156 39.371094 C 9.363281 39.371094 9.210938 39.222656 9.210938 39.050781 C 9.210938 38.976562 9.238281 38.898438 9.3125 38.824219 C 14.335938 35.890625 19.558594 32.234375 19.558594 26.5625 C 19.558594 23.578125 17.992188 20.71875 15.304688 20.71875 C 13.464844 20.71875 12.097656 22.0625 11.476562 23.851562 C 11.75 23.726562 12.023438 23.652344 12.320312 23.652344 C 13.6875 23.652344 14.808594 24.773438 14.808594 26.140625 C 14.808594 27.582031 13.714844 28.777344 12.320312 28.777344 C 10.828125 28.777344 9.535156 27.609375 9.535156 26.140625 C 9.535156 22.832031 12.074219 20.070312 15.304688 20.070312 Z M 15.304688 20.070312 "/>
<path style=" stroke:none;fill-rule:nonzero;fill:rgb(0%,0%,0%);fill-opacity:1;" d="M 46.046875 4.574219 C 47.417969 4.574219 48.734375 5.273438 48.734375 6.789062 C 48.734375 8.554688 47.367188 9.800781 46.199219 10.496094 C 45.328125 11.019531 44.332031 11.339844 43.3125 11.339844 C 41.945312 11.339844 40.625 10.644531 40.625 9.128906 C 40.625 7.363281 41.996094 6.117188 43.164062 5.421875 C 44.035156 4.898438 45.027344 4.574219 46.046875 4.574219 Z M 46.046875 4.574219 "/>
</g>
</svg>
