<?xml version="1.0" encoding="UTF-8"?>
<svg xmlns="http://www.w3.org/2000/svg" xmlns:xlink="http://www.w3.org/1999/xlink" width="87.715553pt" height="63.134188pt" viewBox="0 0 87.715553 63.134188" version="1.1">
<g id="surface1">
<path style="fill:none;stroke-width:0.1;stroke-linecap:round;stroke-linejoin:round;stroke:rgb(0%,0%,0%);stroke-opacity:1;stroke-miterlimit:4;" d="M 0.049863 -0.000250188 L 11.649602 -0.000250188 " transform="matrix(6.218149,0,0,6.218149,4.561038,51.212493)"/>
<path style="fill:none;stroke-width:0.1;stroke-linecap:round;stroke-linejoin:round;stroke:rgb(0%,0%,0%);stroke-opacity:1;stroke-miterlimit:4;" d="M 0.049863 0.000281364 L 11.649602 0.000281364 " transform="matrix(6.218149,0,0,6.218149,4.561038,44.994344)"/>
<path style="fill:none;stroke-width:0.1;stroke-linecap:round;stroke-linejoin:round;stroke:rgb(0%,0%,0%);stroke-opacity:1;stroke-miterlimit:4;" d="M 0.049863 0.000184716 L 11.649602 0.000184716 " transform="matrix(6.218149,0,0,6.218149,4.561038,38.776195)"/>
<path style="fill:none;stroke-width:0.1;stroke-linecap:round;stroke-linejoin:round;stroke:rgb(0%,0%,0%);stroke-opacity:1;stroke-miterlimit:4;" d="M 0.049863 0.0000880672 L 11.649602 0.0000880672 " transform="matrix(6.218149,0,0,6.218149,4.561038,32.558046)"/>
<path style="fill:none;stroke-width:0.1;stroke-linecap:round;stroke-linejoin:round;stroke:rgb(0%,0%,0%);stroke-opacity:1;stroke-miterlimit:4;" d="M 0.049863 -0.00000858141 L 11.649602 -0.00000858141 " transform="matrix(6.218149,0,0,6.218149,4.561038,26.339897)"/>
<path style=" stroke:none;fill-rule:nonzero;fill:rgb(0%,0%,0%);fill-opacity:1;" d="M 58.175781 13.28125 L 68.15625 13.28125 C 68.5 13.28125 68.78125 13.558594 68.78125 13.902344 C 68.78125 14.246094 68.5 14.527344 68.15625 14.527344 L 58.175781 14.527344 C 57.832031 14.527344 57.554688 14.246094 57.554688 13.902344 C 57.554688 13.558594 57.832031 13.28125 58.175781 13.28125 Z M 58.175781 13.28125 "/>
<path style=" stroke:none;fill-rule:nonzero;fill:rgb(0%,0%,0%);fill-opacity:1;" d="M 57.238281 19.5 L 68.15625 19.5 C 68.5 19.5 68.78125 19.777344 68.78125 20.121094 C 68.78125 20.464844 68.5 20.742188 68.15625 20.742188 L 57.238281 20.742188 C 56.894531 20.742188 56.613281 20.464844 56.613281 20.121094 C 56.613281 19.777344 56.894531 19.5 57.238281 19.5 Z M 57.238281 19.5 "/>
<path style=" stroke:none;fill-rule:nonzero;fill:rgb(0%,0%,0%);fill-opacity:1;" d="M 58.890625 15.0625 L 59.203125 15.0625 C 59.339844 15.0625 59.449219 15.171875 59.449219 15.308594 L 59.449219 54.074219 C 59.449219 54.210938 59.339844 54.320312 59.203125 54.320312 L 58.890625 54.320312 C 58.753906 54.320312 58.644531 54.210938 58.644531 54.074219 L 58.644531 15.308594 C 58.644531 15.171875 58.753906 15.0625 58.890625 15.0625 Z M 58.890625 15.0625 "/>
<path style=" stroke:none;fill-rule:nonzero;fill:rgb(0%,0%,0%);fill-opacity:1;" d="M 55 21.664062 C 55 21.914062 54.800781 22.136719 54.550781 22.136719 C 54.300781 22.136719 54.078125 21.914062 54.078125 21.664062 L 54.078125 18.058594 L 52.015625 18.828125 L 52.015625 22.757812 C 52.015625 23.007812 51.789062 23.230469 51.542969 23.230469 C 51.292969 23.230469 51.09375 23.007812 51.09375 22.757812 L 51.09375 19.152344 L 50.296875 19.449219 C 50.25 19.476562 50.171875 19.476562 50.125 19.476562 C 49.851562 19.476562 49.625 19.25 49.625 18.976562 L 49.625 17.484375 C 49.625 17.285156 49.75 17.085938 49.949219 17.011719 L 51.09375 16.613281 L 51.09375 12.636719 L 50.296875 12.910156 C 50.25 12.933594 50.171875 12.933594 50.125 12.933594 C 49.851562 12.933594 49.625 12.710938 49.625 12.4375 L 49.625 10.945312 C 49.625 10.746094 49.75 10.570312 49.949219 10.496094 L 51.09375 10.074219 L 51.09375 6.144531 C 51.09375 5.894531 51.292969 5.671875 51.542969 5.671875 C 51.789062 5.671875 52.015625 5.894531 52.015625 6.144531 L 52.015625 9.75 L 54.078125 8.980469 L 54.078125 5.050781 C 54.078125 4.800781 54.300781 4.578125 54.550781 4.578125 C 54.800781 4.578125 55 4.800781 55 5.050781 L 55 8.65625 L 55.792969 8.355469 C 55.84375 8.332031 55.917969 8.332031 55.96875 8.332031 C 56.242188 8.332031 56.464844 8.554688 56.464844 8.828125 L 56.464844 10.320312 C 56.464844 10.519531 56.34375 10.71875 56.144531 10.792969 L 55 11.191406 L 55 15.171875 L 55.792969 14.898438 C 55.84375 14.875 55.917969 14.875 55.96875 14.875 C 56.242188 14.875 56.464844 15.097656 56.464844 15.371094 L 56.464844 16.863281 C 56.464844 17.0625 56.34375 17.238281 56.144531 17.3125 L 55 17.734375 Z M 52.015625 12.285156 L 52.015625 16.265625 L 54.078125 15.519531 L 54.078125 11.539062 Z M 52.015625 12.285156 "/>
<path style=" stroke:none;fill-rule:nonzero;fill:rgb(0%,0%,0%);fill-opacity:1;" d="M 43.410156 27.882812 C 43.410156 28.128906 43.210938 28.355469 42.960938 28.355469 C 42.710938 28.355469 42.488281 28.128906 42.488281 27.882812 L 42.488281 24.277344 L 40.421875 25.046875 L 40.421875 28.976562 C 40.421875 29.226562 40.199219 29.449219 39.949219 29.449219 C 39.703125 29.449219 39.503906 29.226562 39.503906 28.976562 L 39.503906 25.371094 L 38.707031 25.667969 C 38.65625 25.691406 38.582031 25.691406 38.535156 25.691406 C 38.257812 25.691406 38.035156 25.46875 38.035156 25.195312 L 38.035156 23.703125 C 38.035156 23.503906 38.160156 23.304688 38.359375 23.230469 L 39.503906 22.832031 L 39.503906 18.851562 L 38.707031 19.125 C 38.65625 19.152344 38.582031 19.152344 38.535156 19.152344 C 38.257812 19.152344 38.035156 18.929688 38.035156 18.652344 L 38.035156 17.160156 C 38.035156 16.964844 38.160156 16.789062 38.359375 16.714844 L 39.503906 16.292969 L 39.503906 12.363281 C 39.503906 12.113281 39.703125 11.890625 39.949219 11.890625 C 40.199219 11.890625 40.421875 12.113281 40.421875 12.363281 L 40.421875 15.96875 L 42.488281 15.195312 L 42.488281 11.265625 C 42.488281 11.019531 42.710938 10.792969 42.960938 10.792969 C 43.210938 10.792969 43.410156 11.019531 43.410156 11.265625 L 43.410156 14.875 L 44.203125 14.574219 C 44.253906 14.550781 44.328125 14.550781 44.378906 14.550781 C 44.652344 14.550781 44.875 14.773438 44.875 15.046875 L 44.875 16.539062 C 44.875 16.738281 44.75 16.9375 44.550781 17.011719 L 43.410156 17.410156 L 43.410156 21.390625 L 44.203125 21.117188 C 44.253906 21.089844 44.328125 21.089844 44.378906 21.089844 C 44.652344 21.089844 44.875 21.316406 44.875 21.589844 L 44.875 23.082031 C 44.875 23.28125 44.75 23.453125 44.550781 23.527344 L 43.410156 23.953125 Z M 40.421875 18.503906 L 40.421875 22.484375 L 42.488281 21.738281 L 42.488281 17.757812 Z M 40.421875 18.503906 "/>
<path style=" stroke:none;fill-rule:nonzero;fill:rgb(0%,0%,0%);fill-opacity:1;" d="M 35.324219 34.101562 C 35.324219 34.347656 35.125 34.574219 34.878906 34.574219 C 34.628906 34.574219 34.40625 34.347656 34.40625 34.101562 L 34.40625 30.492188 L 32.339844 31.265625 L 32.339844 35.195312 C 32.339844 35.441406 32.117188 35.667969 31.867188 35.667969 C 31.617188 35.667969 31.417969 35.441406 31.417969 35.195312 L 31.417969 31.589844 L 30.625 31.886719 C 30.574219 31.910156 30.5 31.910156 30.449219 31.910156 C 30.175781 31.910156 29.953125 31.6875 29.953125 31.414062 L 29.953125 29.921875 C 29.953125 29.722656 30.078125 29.523438 30.277344 29.449219 L 31.417969 29.050781 L 31.417969 25.070312 L 30.625 25.34375 C 30.574219 25.371094 30.5 25.371094 30.449219 25.371094 C 30.175781 25.371094 29.953125 25.144531 29.953125 24.871094 L 29.953125 23.378906 C 29.953125 23.179688 30.078125 23.007812 30.277344 22.933594 L 31.417969 22.507812 L 31.417969 18.578125 C 31.417969 18.332031 31.617188 18.105469 31.867188 18.105469 C 32.117188 18.105469 32.339844 18.332031 32.339844 18.578125 L 32.339844 22.1875 L 34.40625 21.414062 L 34.40625 17.484375 C 34.40625 17.238281 34.628906 17.011719 34.878906 17.011719 C 35.125 17.011719 35.324219 17.238281 35.324219 17.484375 L 35.324219 21.089844 L 36.121094 20.792969 C 36.171875 20.769531 36.246094 20.769531 36.292969 20.769531 C 36.566406 20.769531 36.792969 20.992188 36.792969 21.265625 L 36.792969 22.757812 C 36.792969 22.957031 36.667969 23.15625 36.46875 23.230469 L 35.324219 23.628906 L 35.324219 27.609375 L 36.121094 27.335938 C 36.171875 27.308594 36.246094 27.308594 36.292969 27.308594 C 36.566406 27.308594 36.792969 27.535156 36.792969 27.808594 L 36.792969 29.300781 C 36.792969 29.5 36.667969 29.671875 36.46875 29.746094 L 35.324219 30.171875 Z M 32.339844 24.722656 L 32.339844 28.703125 L 34.40625 27.957031 L 34.40625 23.976562 Z M 32.339844 24.722656 "/>
<path style=" stroke:none;fill-rule:nonzero;fill:rgb(0%,0%,0%);fill-opacity:1;" d="M 49.851562 40.316406 C 49.851562 40.566406 49.652344 40.789062 49.402344 40.789062 C 49.152344 40.789062 48.929688 40.566406 48.929688 40.316406 L 48.929688 36.710938 L 46.867188 37.484375 L 46.867188 41.414062 C 46.867188 41.660156 46.640625 41.886719 46.394531 41.886719 C 46.144531 41.886719 45.945312 41.660156 45.945312 41.414062 L 45.945312 37.804688 L 45.148438 38.105469 C 45.101562 38.128906 45.023438 38.128906 44.976562 38.128906 C 44.703125 38.128906 44.476562 37.90625 44.476562 37.632812 L 44.476562 36.140625 C 44.476562 35.941406 44.601562 35.742188 44.800781 35.667969 L 45.945312 35.269531 L 45.945312 31.289062 L 45.148438 31.5625 C 45.101562 31.589844 45.023438 31.589844 44.976562 31.589844 C 44.703125 31.589844 44.476562 31.363281 44.476562 31.089844 L 44.476562 29.597656 C 44.476562 29.398438 44.601562 29.226562 44.800781 29.152344 L 45.945312 28.726562 L 45.945312 24.796875 C 45.945312 24.550781 46.144531 24.324219 46.394531 24.324219 C 46.640625 24.324219 46.867188 24.550781 46.867188 24.796875 L 46.867188 28.40625 L 48.929688 27.632812 L 48.929688 23.703125 C 48.929688 23.453125 49.152344 23.230469 49.402344 23.230469 C 49.652344 23.230469 49.851562 23.453125 49.851562 23.703125 L 49.851562 27.308594 L 50.644531 27.011719 C 50.695312 26.988281 50.769531 26.988281 50.820312 26.988281 C 51.09375 26.988281 51.316406 27.210938 51.316406 27.484375 L 51.316406 28.976562 C 51.316406 29.175781 51.195312 29.375 50.996094 29.449219 L 49.851562 29.847656 L 49.851562 33.828125 L 50.644531 33.554688 C 50.695312 33.527344 50.769531 33.527344 50.820312 33.527344 C 51.09375 33.527344 51.316406 33.75 51.316406 34.027344 L 51.316406 35.519531 C 51.316406 35.71875 51.195312 35.890625 50.996094 35.964844 L 49.851562 36.386719 Z M 46.867188 30.941406 L 46.867188 34.921875 L 48.929688 34.175781 L 48.929688 30.195312 Z M 46.867188 30.941406 "/>
<path style=" stroke:none;fill-rule:nonzero;fill:rgb(0%,0%,0%);fill-opacity:1;" d="M 23.390625 35.667969 C 23.390625 34.96875 23.960938 34.398438 24.65625 34.398438 C 25.355469 34.398438 25.925781 34.96875 25.925781 35.667969 C 25.925781 36.363281 25.355469 36.9375 24.65625 36.9375 C 23.960938 36.9375 23.390625 36.363281 23.390625 35.667969 Z M 23.390625 29.449219 C 23.390625 28.753906 23.960938 28.179688 24.65625 28.179688 C 25.355469 28.179688 25.925781 28.753906 25.925781 29.449219 C 25.925781 30.144531 25.355469 30.71875 24.65625 30.71875 C 23.960938 30.71875 23.390625 30.144531 23.390625 29.449219 Z M 15.304688 26.015625 C 19.585938 26.015625 22.59375 28.207031 22.59375 32.257812 C 22.59375 38.800781 16.050781 42.558594 9.757812 45.21875 C 9.683594 45.292969 9.609375 45.316406 9.535156 45.316406 C 9.363281 45.316406 9.210938 45.167969 9.210938 44.996094 C 9.210938 44.917969 9.238281 44.84375 9.3125 44.769531 C 14.335938 41.835938 19.558594 38.179688 19.558594 32.507812 C 19.558594 29.523438 17.992188 26.664062 15.304688 26.664062 C 13.464844 26.664062 12.097656 28.007812 11.476562 29.796875 C 11.75 29.671875 12.023438 29.597656 12.320312 29.597656 C 13.6875 29.597656 14.808594 30.71875 14.808594 32.085938 C 14.808594 33.527344 13.714844 34.722656 12.320312 34.722656 C 10.828125 34.722656 9.535156 33.554688 9.535156 32.085938 C 9.535156 28.777344 12.074219 26.015625 15.304688 26.015625 Z M 15.304688 26.015625 "/>
<path style=" stroke:none;fill-rule:nonzero;fill:rgb(0%,0%,0%);fill-opacity:1;" d="M 64.066406 10.519531 C 65.433594 10.519531 66.75 11.21875 66.75 12.734375 C 66.75 14.5 65.382812 15.746094 64.214844 16.441406 C 63.34375 16.964844 62.347656 17.285156 61.328125 17.285156 C 59.960938 17.285156 58.644531 16.589844 58.644531 15.074219 C 58.644531 13.308594 60.011719 12.0625 61.179688 11.367188 C 62.050781 10.84375 63.046875 10.519531 64.066406 10.519531 Z M 64.066406 10.519531 "/>
<path style=" stroke:none;fill-rule:nonzero;fill:rgb(0%,0%,0%);fill-opacity:1;" d="M 64.066406 16.738281 C 65.433594 16.738281 66.75 17.433594 66.75 18.953125 C 66.75 20.71875 65.382812 21.960938 64.214844 22.660156 C 63.34375 23.179688 62.347656 23.503906 61.328125 23.503906 C 59.960938 23.503906 58.644531 22.808594 58.644531 21.289062 C 58.644531 19.523438 60.011719 18.28125 61.179688 17.585938 C 62.050781 17.0625 63.046875 16.738281 64.066406 16.738281 Z M 64.066406 16.738281 "/>
<path style=" stroke:none;fill-rule:nonzero;fill:rgb(0%,0%,0%);fill-opacity:1;" d="M 64.066406 22.957031 C 65.433594 22.957031 66.75 23.652344 66.75 25.171875 C 66.75 26.9375 65.382812 28.179688 64.214844 28.875 C 63.34375 29.398438 62.347656 29.722656 61.328125 29.722656 C 59.960938 29.722656 58.644531 29.027344 58.644531 27.507812 C 58.644531 25.742188 60.011719 24.5 61.179688 23.804688 C 62.050781 23.28125 63.046875 22.957031 64.066406 22.957031 Z M 64.066406 22.957031 "/>
<path style=" stroke:none;fill-rule:nonzero;fill:rgb(0%,0%,0%);fill-opacity:1;" d="M 64.066406 29.175781 C 65.433594 29.175781 66.75 29.871094 66.75 31.390625 C 66.75 33.15625 65.382812 34.398438 64.214844 35.09375 C 63.34375 35.617188 62.347656 35.941406 61.328125 35.941406 C 59.960938 35.941406 58.644531 35.246094 58.644531 33.726562 C 58.644531 31.960938 60.011719 30.71875 61.179688 30.019531 C 62.050781 29.5 63.046875 29.175781 64.066406 29.175781 Z M 64.066406 29.175781 "/>
</g>
</svg>
