<?xml version="1.0" encoding="UTF-8"?>
<svg xmlns="http://www.w3.org/2000/svg" xmlns:xlink="http://www.w3.org/1999/xlink" width="82.054772pt" height="56.492415pt" viewBox="0 0 82.054772 56.492415" version="1.1">
<g id="surface1">
<path style="fill:none;stroke-width:0.1;stroke-linecap:round;stroke-linejoin:round;stroke:rgb(0%,0%,0%);stroke-opacity:1;stroke-miterlimit:4;" d="M 0.049863 0.00023304 L 10.797133 0.00023304 " transform="matrix(6.218149,0,0,6.218149,4.561038,41.88527)"/>
<path style="fill:none;stroke-width:0.1;stroke-linecap:round;stroke-linejoin:round;stroke:rgb(0%,0%,0%);stroke-opacity:1;stroke-miterlimit:4;" d="M 0.049863 0.000136391 L 10.797133 0.000136391 " transform="matrix(6.218149,0,0,6.218149,4.561038,35.667121)"/>
<path style="fill:none;stroke-width:0.1;stroke-linecap:round;stroke-linejoin:round;stroke:rgb(0%,0%,0%);stroke-opacity:1;stroke-miterlimit:4;" d="M 0.049863 0.0000397429 L 10.797133 0.0000397429 " transform="matrix(6.218149,0,0,6.218149,4.561038,29.448972)"/>
<path style="fill:none;stroke-width:0.1;stroke-linecap:round;stroke-linejoin:round;stroke:rgb(0%,0%,0%);stroke-opacity:1;stroke-miterlimit:4;" d="M 0.049863 -0.0000569057 L 10.797133 -0.0000569057 " transform="matrix(6.218149,0,0,6.218149,4.561038,23.230823)"/>
<path style="fill:none;stroke-width:0.1;stroke-linecap:round;stroke-linejoin:round;stroke:rgb(0%,0%,0%);stroke-opacity:1;stroke-miterlimit:4;" d="M 0.049863 -0.000153554 L 10.797133 -0.000153554 " transform="matrix(6.218149,0,0,6.218149,4.561038,17.012674)"/>
<path style=" stroke:none;fill-rule:nonzero;fill:rgb(0%,0%,0%);fill-opacity:1;" d="M 60.894531 4.578125 L 61.203125 4.578125 C 61.339844 4.578125 61.453125 4.6875 61.453125 4.824219 L 61.453125 37.371094 C 61.453125 37.507812 61.339844 37.617188 61.203125 37.617188 L 60.894531 37.617188 C 60.753906 37.617188 60.644531 37.507812 60.644531 37.371094 L 60.644531 4.824219 C 60.644531 4.6875 60.753906 4.578125 60.894531 4.578125 Z M 60.894531 4.578125 "/>
<path style=" stroke:none;fill-rule:nonzero;fill:rgb(0%,0%,0%);fill-opacity:1;" d="M 40.347656 23.230469 C 40.921875 23.804688 41.742188 23.925781 42.5625 23.925781 C 42.710938 23.925781 42.8125 24.027344 42.8125 24.175781 L 43.035156 26.339844 C 43.058594 26.488281 42.9375 26.613281 42.785156 26.589844 L 40.621094 26.363281 C 40.5 26.339844 40.375 26.242188 40.375 26.117188 C 40.375 25.296875 40.25 24.472656 39.675781 23.902344 C 39.105469 24.472656 39.003906 25.296875 39.003906 26.117188 C 39.003906 26.242188 38.882812 26.339844 38.757812 26.363281 L 36.566406 26.589844 C 36.417969 26.613281 36.292969 26.488281 36.320312 26.339844 L 36.542969 24.175781 C 36.542969 24.027344 36.644531 23.925781 36.792969 23.925781 C 37.613281 23.925781 38.433594 23.804688 39.003906 23.230469 C 38.433594 22.660156 37.613281 22.535156 36.792969 22.535156 C 36.644531 22.535156 36.542969 22.433594 36.542969 22.285156 L 36.320312 20.121094 C 36.292969 19.972656 36.417969 19.847656 36.566406 19.871094 L 38.757812 20.097656 C 38.882812 20.121094 38.980469 20.222656 38.980469 20.34375 C 38.980469 21.167969 39.105469 21.988281 39.675781 22.558594 C 40.25 21.988281 40.375 21.167969 40.375 20.34375 C 40.375 20.222656 40.5 20.121094 40.621094 20.097656 L 42.785156 19.871094 C 42.9375 19.847656 43.058594 19.972656 43.035156 20.121094 L 42.8125 22.285156 C 42.8125 22.433594 42.710938 22.535156 42.5625 22.535156 C 41.742188 22.535156 40.921875 22.660156 40.347656 23.230469 Z M 40.347656 23.230469 "/>
<path style=" stroke:none;fill-rule:nonzero;fill:rgb(0%,0%,0%);fill-opacity:1;" d="M 49.699219 34.101562 C 49.699219 34.347656 49.5 34.574219 49.25 34.574219 C 49.003906 34.574219 48.777344 34.347656 48.777344 34.101562 L 48.777344 30.492188 L 46.714844 31.265625 L 46.714844 35.195312 C 46.714844 35.441406 46.492188 35.667969 46.242188 35.667969 C 45.992188 35.667969 45.792969 35.441406 45.792969 35.195312 L 45.792969 31.589844 L 45 31.886719 C 44.949219 31.910156 44.875 31.910156 44.824219 31.910156 C 44.550781 31.910156 44.328125 31.6875 44.328125 31.414062 L 44.328125 29.921875 C 44.328125 29.722656 44.449219 29.523438 44.648438 29.449219 L 45.792969 29.050781 L 45.792969 25.070312 L 45 25.34375 C 44.949219 25.371094 44.875 25.371094 44.824219 25.371094 C 44.550781 25.371094 44.328125 25.144531 44.328125 24.871094 L 44.328125 23.378906 C 44.328125 23.179688 44.449219 23.007812 44.648438 22.933594 L 45.792969 22.507812 L 45.792969 18.578125 C 45.792969 18.332031 45.992188 18.105469 46.242188 18.105469 C 46.492188 18.105469 46.714844 18.332031 46.714844 18.578125 L 46.714844 22.1875 L 48.777344 21.414062 L 48.777344 17.484375 C 48.777344 17.238281 49.003906 17.011719 49.25 17.011719 C 49.5 17.011719 49.699219 17.238281 49.699219 17.484375 L 49.699219 21.089844 L 50.496094 20.792969 C 50.542969 20.769531 50.621094 20.769531 50.667969 20.769531 C 50.941406 20.769531 51.167969 20.992188 51.167969 21.265625 L 51.167969 22.757812 C 51.167969 22.957031 51.042969 23.15625 50.84375 23.230469 L 49.699219 23.628906 L 49.699219 27.609375 L 50.496094 27.335938 C 50.542969 27.308594 50.621094 27.308594 50.667969 27.308594 C 50.941406 27.308594 51.167969 27.535156 51.167969 27.808594 L 51.167969 29.300781 C 51.167969 29.5 51.042969 29.671875 50.84375 29.746094 L 49.699219 30.171875 Z M 46.714844 24.722656 L 46.714844 28.703125 L 48.777344 27.957031 L 48.777344 23.976562 Z M 46.714844 24.722656 "/>
<path style=" stroke:none;fill-rule:nonzero;fill:rgb(0%,0%,0%);fill-opacity:1;" d="M 33.734375 32.558594 C 34.304688 33.128906 35.125 33.253906 35.945312 33.253906 C 36.097656 33.253906 36.195312 33.355469 36.195312 33.503906 L 36.417969 35.667969 C 36.445312 35.816406 36.320312 35.941406 36.171875 35.914062 L 34.007812 35.691406 C 33.882812 35.667969 33.757812 35.566406 33.757812 35.441406 C 33.757812 34.621094 33.632812 33.800781 33.0625 33.230469 C 32.488281 33.800781 32.390625 34.621094 32.390625 35.441406 C 32.390625 35.566406 32.265625 35.667969 32.140625 35.691406 L 29.953125 35.914062 C 29.804688 35.941406 29.679688 35.816406 29.703125 35.667969 L 29.925781 33.503906 C 29.925781 33.355469 30.027344 33.253906 30.175781 33.253906 C 30.996094 33.253906 31.816406 33.128906 32.390625 32.558594 C 31.816406 31.984375 30.996094 31.863281 30.175781 31.863281 C 30.027344 31.863281 29.925781 31.761719 29.925781 31.613281 L 29.703125 29.449219 C 29.679688 29.300781 29.804688 29.175781 29.953125 29.199219 L 32.140625 29.425781 C 32.265625 29.449219 32.363281 29.546875 32.363281 29.671875 C 32.363281 30.492188 32.488281 31.3125 33.0625 31.886719 C 33.632812 31.3125 33.757812 30.492188 33.757812 29.671875 C 33.757812 29.546875 33.882812 29.449219 34.007812 29.425781 L 36.171875 29.199219 C 36.320312 29.175781 36.445312 29.300781 36.417969 29.449219 L 36.195312 31.613281 C 36.195312 31.761719 36.097656 31.863281 35.945312 31.863281 C 35.125 31.863281 34.304688 31.984375 33.734375 32.558594 Z M 33.734375 32.558594 "/>
<path style=" stroke:none;fill-rule:nonzero;fill:rgb(0%,0%,0%);fill-opacity:1;" d="M 43.082031 46.535156 C 43.082031 46.785156 42.882812 47.007812 42.636719 47.007812 C 42.386719 47.007812 42.164062 46.785156 42.164062 46.535156 L 42.164062 42.929688 L 40.097656 43.699219 L 40.097656 47.628906 C 40.097656 47.878906 39.875 48.101562 39.625 48.101562 C 39.378906 48.101562 39.179688 47.878906 39.179688 47.628906 L 39.179688 44.023438 L 38.382812 44.324219 C 38.332031 44.347656 38.257812 44.347656 38.207031 44.347656 C 37.933594 44.347656 37.710938 44.125 37.710938 43.851562 L 37.710938 42.359375 C 37.710938 42.160156 37.835938 41.960938 38.035156 41.886719 L 39.179688 41.488281 L 39.179688 37.507812 L 38.382812 37.78125 C 38.332031 37.804688 38.257812 37.804688 38.207031 37.804688 C 37.933594 37.804688 37.710938 37.582031 37.710938 37.308594 L 37.710938 35.816406 C 37.710938 35.617188 37.835938 35.441406 38.035156 35.367188 L 39.179688 34.945312 L 39.179688 31.015625 C 39.179688 30.765625 39.378906 30.542969 39.625 30.542969 C 39.875 30.542969 40.097656 30.765625 40.097656 31.015625 L 40.097656 34.621094 L 42.164062 33.851562 L 42.164062 29.921875 C 42.164062 29.671875 42.386719 29.449219 42.636719 29.449219 C 42.882812 29.449219 43.082031 29.671875 43.082031 29.921875 L 43.082031 33.527344 L 43.878906 33.230469 C 43.929688 33.203125 44.003906 33.203125 44.054688 33.203125 C 44.328125 33.203125 44.550781 33.429688 44.550781 33.703125 L 44.550781 35.195312 C 44.550781 35.394531 44.425781 35.59375 44.226562 35.667969 L 43.082031 36.066406 L 43.082031 40.042969 L 43.878906 39.769531 C 43.929688 39.746094 44.003906 39.746094 44.054688 39.746094 C 44.328125 39.746094 44.550781 39.96875 44.550781 40.242188 L 44.550781 41.734375 C 44.550781 41.933594 44.425781 42.109375 44.226562 42.183594 L 43.082031 42.605469 Z M 40.097656 37.160156 L 40.097656 41.140625 L 42.164062 40.394531 L 42.164062 36.414062 Z M 40.097656 37.160156 "/>
<path style=" stroke:none;fill-rule:nonzero;fill:rgb(0%,0%,0%);fill-opacity:1;" d="M 23.390625 26.339844 C 23.390625 25.644531 23.960938 25.070312 24.65625 25.070312 C 25.355469 25.070312 25.925781 25.644531 25.925781 26.339844 C 25.925781 27.035156 25.355469 27.609375 24.65625 27.609375 C 23.960938 27.609375 23.390625 27.035156 23.390625 26.339844 Z M 23.390625 20.121094 C 23.390625 19.425781 23.960938 18.851562 24.65625 18.851562 C 25.355469 18.851562 25.925781 19.425781 25.925781 20.121094 C 25.925781 20.816406 25.355469 21.390625 24.65625 21.390625 C 23.960938 21.390625 23.390625 20.816406 23.390625 20.121094 Z M 15.304688 16.6875 C 19.585938 16.6875 22.59375 18.878906 22.59375 22.933594 C 22.59375 29.472656 16.050781 33.230469 9.757812 35.890625 C 9.683594 35.964844 9.609375 35.992188 9.535156 35.992188 C 9.363281 35.992188 9.210938 35.839844 9.210938 35.667969 C 9.210938 35.59375 9.238281 35.519531 9.3125 35.441406 C 14.335938 32.507812 19.558594 28.851562 19.558594 23.179688 C 19.558594 20.195312 17.992188 17.335938 15.304688 17.335938 C 13.464844 17.335938 12.097656 18.679688 11.476562 20.46875 C 11.75 20.34375 12.023438 20.269531 12.320312 20.269531 C 13.6875 20.269531 14.808594 21.390625 14.808594 22.757812 C 14.808594 24.199219 13.714844 25.394531 12.320312 25.394531 C 10.828125 25.394531 9.535156 24.226562 9.535156 22.757812 C 9.535156 19.449219 12.074219 16.6875 15.304688 16.6875 Z M 15.304688 16.6875 "/>
<path style=" stroke:none;fill-rule:nonzero;fill:rgb(0%,0%,0%);fill-opacity:1;" d="M 66.472656 19.847656 C 67.839844 19.847656 69.15625 20.542969 69.15625 22.0625 C 69.15625 23.828125 67.789062 25.070312 66.621094 25.769531 C 65.75 26.289062 64.753906 26.613281 63.734375 26.613281 C 62.367188 26.613281 61.046875 25.917969 61.046875 24.398438 C 61.046875 22.632812 62.417969 21.390625 63.585938 20.695312 C 64.457031 20.171875 65.449219 19.847656 66.472656 19.847656 Z M 66.472656 19.847656 "/>
<path style=" stroke:none;fill-rule:nonzero;fill:rgb(0%,0%,0%);fill-opacity:1;" d="M 58.765625 22.957031 C 60.132812 22.957031 61.453125 23.652344 61.453125 25.171875 C 61.453125 26.9375 60.082031 28.179688 58.914062 28.875 C 58.042969 29.398438 57.050781 29.722656 56.027344 29.722656 C 54.660156 29.722656 53.34375 29.027344 53.34375 27.507812 C 53.34375 25.742188 54.710938 24.5 55.878906 23.804688 C 56.75 23.28125 57.746094 22.957031 58.765625 22.957031 Z M 58.765625 22.957031 "/>
<path style=" stroke:none;fill-rule:nonzero;fill:rgb(0%,0%,0%);fill-opacity:1;" d="M 58.765625 29.175781 C 60.132812 29.175781 61.453125 29.871094 61.453125 31.390625 C 61.453125 33.15625 60.082031 34.398438 58.914062 35.09375 C 58.042969 35.617188 57.050781 35.941406 56.027344 35.941406 C 54.660156 35.941406 53.34375 35.246094 53.34375 33.726562 C 53.34375 31.960938 54.710938 30.71875 55.878906 30.019531 C 56.75 29.5 57.746094 29.175781 58.765625 29.175781 Z M 58.765625 29.175781 "/>
<path style=" stroke:none;fill-rule:nonzero;fill:rgb(0%,0%,0%);fill-opacity:1;" d="M 58.765625 35.394531 C 60.132812 35.394531 61.453125 36.089844 61.453125 37.605469 C 61.453125 39.375 60.082031 40.617188 58.914062 41.3125 C 58.042969 41.835938 57.050781 42.160156 56.027344 42.160156 C 54.660156 42.160156 53.34375 41.460938 53.34375 39.945312 C 53.34375 38.179688 54.710938 36.9375 55.878906 36.238281 C 56.75 35.71875 57.746094 35.394531 58.765625 35.394531 Z M 58.765625 35.394531 "/>
</g>
</svg>
