<?xml version="1.0" encoding="UTF-8"?>
<svg xmlns="http://www.w3.org/2000/svg" xmlns:xlink="http://www.w3.org/1999/xlink" width="68.472344pt" height="62.470011pt" viewBox="0 0 68.472344 62.470011" version="1.1">
<g id="surface1">
<path style="fill:none;stroke-width:0.1;stroke-linecap:round;stroke-linejoin:round;stroke:rgb(0%,0%,0%);stroke-opacity:1;stroke-miterlimit:4;" d="M 0.049863 0.000192316 L 8.752337 0.000192316 " transform="matrix(6.218149,0,0,6.218149,4.561038,44.123804)"/>
<path style="fill:none;stroke-width:0.1;stroke-linecap:round;stroke-linejoin:round;stroke:rgb(0%,0%,0%);stroke-opacity:1;stroke-miterlimit:4;" d="M 0.049863 0.0000956673 L 8.752337 0.0000956673 " transform="matrix(6.218149,0,0,6.218149,4.561038,37.905655)"/>
<path style="fill:none;stroke-width:0.1;stroke-linecap:round;stroke-linejoin:round;stroke:rgb(0%,0%,0%);stroke-opacity:1;stroke-miterlimit:4;" d="M 0.049863 -0.000000981293 L 8.752337 -0.000000981293 " transform="matrix(6.218149,0,0,6.218149,4.561038,31.687506)"/>
<path style="fill:none;stroke-width:0.1;stroke-linecap:round;stroke-linejoin:round;stroke:rgb(0%,0%,0%);stroke-opacity:1;stroke-miterlimit:4;" d="M 0.049863 -0.0000976299 L 8.752337 -0.0000976299 " transform="matrix(6.218149,0,0,6.218149,4.561038,25.469357)"/>
<path style="fill:none;stroke-width:0.1;stroke-linecap:round;stroke-linejoin:round;stroke:rgb(0%,0%,0%);stroke-opacity:1;stroke-miterlimit:4;" d="M 0.049863 -0.00019404 L 8.752337 -0.00019404 " transform="matrix(6.218149,0,0,6.218149,4.561038,19.251207)"/>
<path style=" stroke:none;fill-rule:nonzero;fill:rgb(0%,0%,0%);fill-opacity:1;" d="M 40.875 17.300781 L 41.1875 17.300781 C 41.324219 17.300781 41.433594 17.410156 41.433594 17.546875 L 41.433594 37.65625 C 41.433594 37.792969 41.324219 37.90625 41.1875 37.90625 L 40.875 37.90625 C 40.738281 37.90625 40.625 37.792969 40.625 37.65625 L 40.625 17.546875 C 40.625 17.410156 40.738281 17.300781 40.875 17.300781 Z M 40.875 17.300781 "/>
<path style=" stroke:none;fill-rule:nonzero;fill:rgb(0%,0%,0%);fill-opacity:1;" d="M 34.148438 15.121094 L 34.121094 16.765625 L 34.121094 17.039062 C 34.121094 17.585938 34.148438 18.132812 34.222656 18.679688 C 35.339844 17.734375 36.535156 16.6875 36.535156 15.222656 C 36.535156 14.402344 36.1875 13.554688 35.464844 13.554688 C 34.695312 13.554688 34.171875 14.300781 34.148438 15.121094 Z M 33.101562 19.574219 L 32.804688 4.773438 C 33.003906 4.652344 33.25 4.578125 33.476562 4.578125 C 33.699219 4.578125 33.949219 4.652344 34.148438 4.773438 L 33.972656 13.355469 C 34.59375 12.835938 35.414062 12.511719 36.234375 12.511719 C 37.53125 12.511719 38.449219 13.703125 38.449219 15.046875 C 38.449219 17.039062 36.3125 17.957031 34.792969 19.25 C 34.421875 19.574219 34.195312 20.195312 33.675781 20.195312 C 33.351562 20.195312 33.101562 19.921875 33.101562 19.574219 Z M 33.101562 19.574219 "/>
<path style=" stroke:none;fill-rule:nonzero;fill:rgb(0%,0%,0%);fill-opacity:1;" d="M 16.152344 53.699219 L 16.003906 53.699219 C 13.316406 53.699219 11.152344 51.511719 11.152344 48.800781 C 11.152344 47.355469 12.46875 46.238281 13.9375 46.238281 C 15.28125 46.238281 16.300781 47.40625 16.300781 48.800781 C 16.300781 50.09375 15.230469 51.164062 13.9375 51.164062 C 13.664062 51.164062 13.414062 51.113281 13.167969 51.011719 C 13.8125 51.984375 14.859375 52.628906 16.078125 52.628906 L 16.175781 52.628906 Z M 21 42.953125 C 22.691406 42.359375 23.8125 40.59375 23.8125 38.875 C 23.8125 36.636719 22.171875 34.421875 19.507812 34.148438 C 20.105469 37.035156 20.652344 39.894531 21 42.953125 Z M 11.375 37.210938 C 11.375 40.566406 14.585938 43.351562 17.941406 43.351562 C 18.640625 43.351562 19.308594 43.304688 19.980469 43.203125 C 19.632812 40.042969 19.0625 37.109375 18.414062 34.148438 C 16.449219 34.347656 15.332031 35.667969 15.332031 37.109375 C 15.332031 38.203125 15.953125 39.375 17.34375 40.167969 C 17.46875 40.292969 17.519531 40.417969 17.519531 40.542969 C 17.519531 40.816406 17.269531 41.089844 16.972656 41.089844 C 16.898438 41.089844 16.824219 41.066406 16.75 41.039062 C 14.757812 39.96875 13.839844 38.179688 13.839844 36.4375 C 13.839844 34.25 15.28125 32.109375 17.816406 31.539062 C 17.46875 30.09375 17.097656 28.628906 16.675781 27.1875 C 14.011719 30.195312 11.375 33.230469 11.375 37.210938 Z M 17.867188 44.421875 C 13.191406 44.421875 9.585938 40.144531 9.585938 35.121094 C 9.585938 30.71875 12.84375 27.507812 15.753906 24.152344 C 15.28125 22.609375 14.832031 21.042969 14.632812 19.425781 C 14.484375 18.132812 14.460938 16.839844 14.460938 15.546875 C 14.460938 12.683594 15.828125 9.972656 18.167969 8.28125 C 18.316406 8.15625 18.515625 8.15625 18.664062 8.28125 C 20.429688 10.371094 21.972656 14.375 21.972656 17.1875 C 21.972656 20.742188 19.832031 23.527344 17.496094 26.242188 C 18.015625 27.933594 18.464844 29.671875 18.886719 31.390625 C 18.988281 31.390625 19.113281 31.363281 19.210938 31.363281 C 23.066406 31.363281 25.578125 34.546875 25.578125 37.855469 C 25.578125 39.746094 24.757812 41.6875 22.917969 43.078125 C 22.371094 43.503906 21.746094 43.777344 21.101562 43.972656 C 21.175781 44.84375 21.226562 45.714844 21.226562 46.585938 C 21.226562 47.058594 21.199219 47.554688 21.175781 48.027344 C 21 50.988281 18.988281 53.625 16.152344 53.699219 L 16.175781 52.628906 C 18.488281 52.582031 19.980469 50.34375 20.132812 47.878906 C 20.15625 47.433594 20.179688 46.960938 20.179688 46.511719 C 20.179688 45.742188 20.15625 44.996094 20.082031 44.222656 C 19.359375 44.347656 18.640625 44.421875 17.867188 44.421875 Z M 20.179688 15.121094 C 20.179688 13.753906 20.082031 13.15625 19.683594 11.914062 C 17.222656 13.109375 15.652344 15.621094 15.652344 18.355469 C 15.652344 20.195312 16.101562 21.664062 16.550781 23.179688 C 18.539062 20.769531 20.179688 18.257812 20.179688 15.121094 Z M 20.179688 15.121094 "/>
<path style=" stroke:none;fill-rule:nonzero;fill:rgb(0%,0%,0%);fill-opacity:1;" d="M 46.046875 12.757812 C 47.417969 12.757812 48.734375 13.457031 48.734375 14.972656 C 48.734375 16.738281 47.367188 17.984375 46.199219 18.679688 C 45.328125 19.203125 44.332031 19.523438 43.3125 19.523438 C 41.945312 19.523438 40.625 18.828125 40.625 17.3125 C 40.625 15.546875 41.996094 14.300781 43.164062 13.605469 C 44.035156 13.082031 45.027344 12.757812 46.046875 12.757812 Z M 46.046875 12.757812 "/>
</g>
</svg>
