<?xml version="1.0" encoding="UTF-8"?>
<svg xmlns="http://www.w3.org/2000/svg" xmlns:xlink="http://www.w3.org/1999/xlink" width="68.472344pt" height="59.149124pt" viewBox="0 0 68.472344 59.149124" version="1.1">
<g id="surface1">
<path style="fill:none;stroke-width:0.1;stroke-linecap:round;stroke-linejoin:round;stroke:rgb(0%,0%,0%);stroke-opacity:1;stroke-miterlimit:4;" d="M 0.049863 0.000143992 L 8.752337 0.000143992 " transform="matrix(6.218149,0,0,6.218149,4.561038,41.01473)"/>
<path style="fill:none;stroke-width:0.1;stroke-linecap:round;stroke-linejoin:round;stroke:rgb(0%,0%,0%);stroke-opacity:1;stroke-miterlimit:4;" d="M 0.049863 0.000047343 L 8.752337 0.000047343 " transform="matrix(6.218149,0,0,6.218149,4.561038,34.796581)"/>
<path style="fill:none;stroke-width:0.1;stroke-linecap:round;stroke-linejoin:round;stroke:rgb(0%,0%,0%);stroke-opacity:1;stroke-miterlimit:4;" d="M 0.049863 -0.0000493056 L 8.752337 -0.0000493056 " transform="matrix(6.218149,0,0,6.218149,4.561038,28.578432)"/>
<path style="fill:none;stroke-width:0.1;stroke-linecap:round;stroke-linejoin:round;stroke:rgb(0%,0%,0%);stroke-opacity:1;stroke-miterlimit:4;" d="M 0.049863 -0.000145716 L 8.752337 -0.000145716 " transform="matrix(6.218149,0,0,6.218149,4.561038,22.360281)"/>
<path style="fill:none;stroke-width:0.1;stroke-linecap:round;stroke-linejoin:round;stroke:rgb(0%,0%,0%);stroke-opacity:1;stroke-miterlimit:4;" d="M 0.049863 -0.000242364 L 8.752337 -0.000242364 " transform="matrix(6.218149,0,0,6.218149,4.561038,16.142132)"/>
<path style=" stroke:none;fill-rule:nonzero;fill:rgb(0%,0%,0%);fill-opacity:1;" d="M 40.875 17.300781 L 41.1875 17.300781 C 41.324219 17.300781 41.433594 17.410156 41.433594 17.546875 L 41.433594 37.65625 C 41.433594 37.792969 41.324219 37.90625 41.1875 37.90625 L 40.875 37.90625 C 40.738281 37.90625 40.625 37.792969 40.625 37.65625 L 40.625 17.546875 C 40.625 17.410156 40.738281 17.300781 40.875 17.300781 Z M 40.875 17.300781 "/>
<path style=" stroke:none;fill-rule:nonzero;fill:rgb(0%,0%,0%);fill-opacity:1;" d="M 34.148438 15.121094 L 34.121094 16.765625 L 34.121094 17.039062 C 34.121094 17.585938 34.148438 18.132812 34.222656 18.679688 C 35.339844 17.734375 36.535156 16.6875 36.535156 15.222656 C 36.535156 14.402344 36.1875 13.554688 35.464844 13.554688 C 34.695312 13.554688 34.171875 14.300781 34.148438 15.121094 Z M 33.101562 19.574219 L 32.804688 4.773438 C 33.003906 4.652344 33.25 4.578125 33.476562 4.578125 C 33.699219 4.578125 33.949219 4.652344 34.148438 4.773438 L 33.972656 13.355469 C 34.59375 12.835938 35.414062 12.511719 36.234375 12.511719 C 37.53125 12.511719 38.449219 13.703125 38.449219 15.046875 C 38.449219 17.039062 36.3125 17.957031 34.792969 19.25 C 34.421875 19.574219 34.195312 20.195312 33.675781 20.195312 C 33.351562 20.195312 33.101562 19.921875 33.101562 19.574219 Z M 33.101562 19.574219 "/>
<path style=" stroke:none;fill-rule:nonzero;fill:rgb(0%,0%,0%);fill-opacity:1;" d="M 16.152344 50.589844 L 16.003906 50.589844 C 13.316406 50.589844 11.152344 48.402344 11.152344 45.691406 C 11.152344 44.25 12.46875 43.128906 13.9375 43.128906 C 15.28125 43.128906 16.300781 44.296875 16.300781 45.691406 C 16.300781 46.984375 15.230469 48.054688 13.9375 48.054688 C 13.664062 48.054688 13.414062 48.003906 13.167969 47.90625 C 13.8125 48.875 14.859375 49.519531 16.078125 49.519531 L 16.175781 49.519531 Z M 21 39.847656 C 22.691406 39.25 23.8125 37.484375 23.8125 35.765625 C 23.8125 33.527344 22.171875 31.3125 19.507812 31.039062 C 20.105469 33.925781 20.652344 36.785156 21 39.847656 Z M 11.375 34.101562 C 11.375 37.457031 14.585938 40.242188 17.941406 40.242188 C 18.640625 40.242188 19.308594 40.195312 19.980469 40.09375 C 19.632812 36.9375 19.0625 34 18.414062 31.039062 C 16.449219 31.238281 15.332031 32.558594 15.332031 34 C 15.332031 35.09375 15.953125 36.265625 17.34375 37.058594 C 17.46875 37.183594 17.519531 37.308594 17.519531 37.433594 C 17.519531 37.707031 17.269531 37.980469 16.972656 37.980469 C 16.898438 37.980469 16.824219 37.957031 16.75 37.929688 C 14.757812 36.859375 13.839844 35.070312 13.839844 33.328125 C 13.839844 31.140625 15.28125 29 17.816406 28.429688 C 17.46875 26.988281 17.097656 25.519531 16.675781 24.078125 C 14.011719 27.085938 11.375 30.121094 11.375 34.101562 Z M 17.867188 41.3125 C 13.191406 41.3125 9.585938 37.035156 9.585938 32.011719 C 9.585938 27.609375 12.84375 24.398438 15.753906 21.042969 C 15.28125 19.5 14.832031 17.933594 14.632812 16.316406 C 14.484375 15.023438 14.460938 13.730469 14.460938 12.4375 C 14.460938 9.574219 15.828125 6.863281 18.167969 5.171875 C 18.316406 5.050781 18.515625 5.050781 18.664062 5.171875 C 20.429688 7.261719 21.972656 11.265625 21.972656 14.078125 C 21.972656 17.632812 19.832031 20.421875 17.496094 23.132812 C 18.015625 24.824219 18.464844 26.5625 18.886719 28.28125 C 18.988281 28.28125 19.113281 28.253906 19.210938 28.253906 C 23.066406 28.253906 25.578125 31.4375 25.578125 34.746094 C 25.578125 36.636719 24.757812 38.578125 22.917969 39.96875 C 22.371094 40.394531 21.746094 40.667969 21.101562 40.867188 C 21.175781 41.734375 21.226562 42.605469 21.226562 43.476562 C 21.226562 43.949219 21.199219 44.445312 21.175781 44.917969 C 21 47.878906 18.988281 50.515625 16.152344 50.589844 L 16.175781 49.519531 C 18.488281 49.472656 19.980469 47.234375 20.132812 44.769531 C 20.15625 44.324219 20.179688 43.851562 20.179688 43.402344 C 20.179688 42.632812 20.15625 41.886719 20.082031 41.113281 C 19.359375 41.238281 18.640625 41.3125 17.867188 41.3125 Z M 20.179688 12.011719 C 20.179688 10.644531 20.082031 10.046875 19.683594 8.804688 C 17.222656 10 15.652344 12.511719 15.652344 15.246094 C 15.652344 17.085938 16.101562 18.554688 16.550781 20.070312 C 18.539062 17.660156 20.179688 15.148438 20.179688 12.011719 Z M 20.179688 12.011719 "/>
<path style=" stroke:none;fill-rule:nonzero;fill:rgb(0%,0%,0%);fill-opacity:1;" d="M 46.046875 12.757812 C 47.417969 12.757812 48.734375 13.457031 48.734375 14.972656 C 48.734375 16.738281 47.367188 17.984375 46.199219 18.679688 C 45.328125 19.203125 44.332031 19.523438 43.3125 19.523438 C 41.945312 19.523438 40.625 18.828125 40.625 17.3125 C 40.625 15.546875 41.996094 14.300781 43.164062 13.605469 C 44.035156 13.082031 45.027344 12.757812 46.046875 12.757812 Z M 46.046875 12.757812 "/>
</g>
</svg>
