<?xml version="1.0" encoding="UTF-8"?>
<svg xmlns="http://www.w3.org/2000/svg" xmlns:xlink="http://www.w3.org/1999/xlink" width="68.472344pt" height="59.452652pt" viewBox="0 0 68.472344 59.452652" version="1.1">
<g id="surface1">
<path style="fill:none;stroke-width:0.1;stroke-linecap:round;stroke-linejoin:round;stroke:rgb(0%,0%,0%);stroke-opacity:1;stroke-miterlimit:4;" d="M 0.049863 -0.000287501 L 8.752337 -0.000287501 " transform="matrix(6.218149,0,0,6.218149,4.561038,40.517413)"/>
<path style="fill:none;stroke-width:0.1;stroke-linecap:round;stroke-linejoin:round;stroke:rgb(0%,0%,0%);stroke-opacity:1;stroke-miterlimit:4;" d="M 0.049863 0.000244052 L 8.752337 0.000244052 " transform="matrix(6.218149,0,0,6.218149,4.561038,34.299264)"/>
<path style="fill:none;stroke-width:0.1;stroke-linecap:round;stroke-linejoin:round;stroke:rgb(0%,0%,0%);stroke-opacity:1;stroke-miterlimit:4;" d="M 0.049863 0.000147403 L 8.752337 0.000147403 " transform="matrix(6.218149,0,0,6.218149,4.561038,28.081115)"/>
<path style="fill:none;stroke-width:0.1;stroke-linecap:round;stroke-linejoin:round;stroke:rgb(0%,0%,0%);stroke-opacity:1;stroke-miterlimit:4;" d="M 0.049863 0.0000507548 L 8.752337 0.0000507548 " transform="matrix(6.218149,0,0,6.218149,4.561038,21.862966)"/>
<path style="fill:none;stroke-width:0.1;stroke-linecap:round;stroke-linejoin:round;stroke:rgb(0%,0%,0%);stroke-opacity:1;stroke-miterlimit:4;" d="M 0.049863 -0.0000458938 L 8.752337 -0.0000458938 " transform="matrix(6.218149,0,0,6.218149,4.561038,15.644817)"/>
<path style=" stroke:none;fill-rule:nonzero;fill:rgb(0%,0%,0%);fill-opacity:1;" d="M 34.148438 17.734375 L 34.121094 19.375 L 34.121094 19.648438 C 34.121094 20.195312 34.148438 20.742188 34.222656 21.289062 C 35.339844 20.347656 36.535156 19.300781 36.535156 17.832031 C 36.535156 17.011719 36.1875 16.167969 35.464844 16.167969 C 34.695312 16.167969 34.171875 16.914062 34.148438 17.734375 Z M 33.101562 22.1875 L 32.804688 7.386719 C 33.003906 7.261719 33.25 7.1875 33.476562 7.1875 C 33.699219 7.1875 33.949219 7.261719 34.148438 7.386719 L 33.972656 15.96875 C 34.59375 15.445312 35.414062 15.121094 36.234375 15.121094 C 37.53125 15.121094 38.449219 16.316406 38.449219 17.660156 C 38.449219 19.648438 36.3125 20.570312 34.792969 21.863281 C 34.421875 22.1875 34.195312 22.808594 33.675781 22.808594 C 33.351562 22.808594 33.101562 22.535156 33.101562 22.1875 Z M 33.101562 22.1875 "/>
<path style=" stroke:none;fill-rule:nonzero;fill:rgb(0%,0%,0%);fill-opacity:1;" d="M 30.664062 30.171875 L 30.640625 31.8125 L 30.640625 32.085938 C 30.640625 32.632812 30.664062 33.179688 30.738281 33.726562 C 31.859375 32.78125 33.050781 31.738281 33.050781 30.269531 C 33.050781 29.449219 32.703125 28.601562 31.984375 28.601562 C 31.210938 28.601562 30.691406 29.351562 30.664062 30.171875 Z M 29.621094 34.621094 L 29.320312 19.824219 C 29.519531 19.699219 29.769531 19.625 29.992188 19.625 C 30.21875 19.625 30.464844 19.699219 30.664062 19.824219 L 30.492188 28.40625 C 31.113281 27.882812 31.933594 27.558594 32.753906 27.558594 C 34.046875 27.558594 34.96875 28.753906 34.96875 30.097656 C 34.96875 32.085938 32.828125 33.007812 31.3125 34.300781 C 30.9375 34.621094 30.714844 35.246094 30.191406 35.246094 C 29.867188 35.246094 29.621094 34.972656 29.621094 34.621094 Z M 29.621094 34.621094 "/>
<path style=" stroke:none;fill-rule:nonzero;fill:rgb(0%,0%,0%);fill-opacity:1;" d="M 40.875 13.691406 L 41.1875 13.691406 C 41.324219 13.691406 41.433594 13.804688 41.433594 13.941406 L 41.433594 50.632812 C 41.433594 50.769531 41.324219 50.882812 41.1875 50.882812 L 40.875 50.882812 C 40.738281 50.882812 40.625 50.769531 40.625 50.632812 L 40.625 13.941406 C 40.625 13.804688 40.738281 13.691406 40.875 13.691406 Z M 40.875 13.691406 "/>
<path style=" stroke:none;fill-rule:nonzero;fill:rgb(0%,0%,0%);fill-opacity:1;" d="M 16.152344 50.09375 L 16.003906 50.09375 C 13.316406 50.09375 11.152344 47.90625 11.152344 45.195312 C 11.152344 43.75 12.46875 42.632812 13.9375 42.632812 C 15.28125 42.632812 16.300781 43.800781 16.300781 45.195312 C 16.300781 46.488281 15.230469 47.554688 13.9375 47.554688 C 13.664062 47.554688 13.414062 47.507812 13.167969 47.40625 C 13.8125 48.378906 14.859375 49.023438 16.078125 49.023438 L 16.175781 49.023438 Z M 21 39.347656 C 22.691406 38.75 23.8125 36.984375 23.8125 35.269531 C 23.8125 33.03125 22.171875 30.816406 19.507812 30.542969 C 20.105469 33.429688 20.652344 36.289062 21 39.347656 Z M 11.375 33.601562 C 11.375 36.960938 14.585938 39.746094 17.941406 39.746094 C 18.640625 39.746094 19.308594 39.695312 19.980469 39.597656 C 19.632812 36.4375 19.0625 33.503906 18.414062 30.542969 C 16.449219 30.742188 15.332031 32.0625 15.332031 33.503906 C 15.332031 34.597656 15.953125 35.765625 17.34375 36.5625 C 17.46875 36.6875 17.519531 36.8125 17.519531 36.9375 C 17.519531 37.210938 17.269531 37.484375 16.972656 37.484375 C 16.898438 37.484375 16.824219 37.457031 16.75 37.433594 C 14.757812 36.363281 13.839844 34.574219 13.839844 32.832031 C 13.839844 30.644531 15.28125 28.503906 17.816406 27.933594 C 17.46875 26.488281 17.097656 25.023438 16.675781 23.578125 C 14.011719 26.589844 11.375 29.625 11.375 33.601562 Z M 17.867188 40.816406 C 13.191406 40.816406 9.585938 36.539062 9.585938 31.511719 C 9.585938 27.109375 12.84375 23.902344 15.753906 20.542969 C 15.28125 19.003906 14.832031 17.4375 14.632812 15.820312 C 14.484375 14.527344 14.460938 13.230469 14.460938 11.9375 C 14.460938 9.078125 15.828125 6.367188 18.167969 4.675781 C 18.316406 4.550781 18.515625 4.550781 18.664062 4.675781 C 20.429688 6.765625 21.972656 10.769531 21.972656 13.582031 C 21.972656 17.136719 19.832031 19.921875 17.496094 22.632812 C 18.015625 24.324219 18.464844 26.066406 18.886719 27.78125 C 18.988281 27.78125 19.113281 27.757812 19.210938 27.757812 C 23.066406 27.757812 25.578125 30.941406 25.578125 34.25 C 25.578125 36.140625 24.757812 38.078125 22.917969 39.472656 C 22.371094 39.894531 21.746094 40.167969 21.101562 40.367188 C 21.175781 41.238281 21.226562 42.109375 21.226562 42.980469 C 21.226562 43.453125 21.199219 43.949219 21.175781 44.421875 C 21 47.382812 18.988281 50.019531 16.152344 50.09375 L 16.175781 49.023438 C 18.488281 48.972656 19.980469 46.734375 20.132812 44.273438 C 20.15625 43.824219 20.179688 43.351562 20.179688 42.90625 C 20.179688 42.132812 20.15625 41.386719 20.082031 40.617188 C 19.359375 40.742188 18.640625 40.816406 17.867188 40.816406 Z M 20.179688 11.515625 C 20.179688 10.148438 20.082031 9.550781 19.683594 8.308594 C 17.222656 9.5 15.652344 12.011719 15.652344 14.75 C 15.652344 16.589844 16.101562 18.058594 16.550781 19.574219 C 18.539062 17.160156 20.179688 14.648438 20.179688 11.515625 Z M 20.179688 11.515625 "/>
<path style=" stroke:none;fill-rule:nonzero;fill:rgb(0%,0%,0%);fill-opacity:1;" d="M 46.046875 9.152344 C 47.417969 9.152344 48.734375 9.847656 48.734375 11.367188 C 48.734375 13.132812 47.367188 14.375 46.199219 15.074219 C 45.328125 15.59375 44.332031 15.917969 43.3125 15.917969 C 41.945312 15.917969 40.625 15.222656 40.625 13.703125 C 40.625 11.9375 41.996094 10.695312 43.164062 10 C 44.035156 9.476562 45.027344 9.152344 46.046875 9.152344 Z M 46.046875 9.152344 "/>
<path style=" stroke:none;fill-rule:nonzero;fill:rgb(0%,0%,0%);fill-opacity:1;" d="M 46.046875 15.371094 C 47.417969 15.371094 48.734375 16.066406 48.734375 17.585938 C 48.734375 19.351562 47.367188 20.59375 46.199219 21.289062 C 45.328125 21.8125 44.332031 22.136719 43.3125 22.136719 C 41.945312 22.136719 40.625 21.441406 40.625 19.921875 C 40.625 18.15625 41.996094 16.914062 43.164062 16.21875 C 44.035156 15.695312 45.027344 15.371094 46.046875 15.371094 Z M 46.046875 15.371094 "/>
<path style=" stroke:none;fill-rule:nonzero;fill:rgb(0%,0%,0%);fill-opacity:1;" d="M 46.046875 21.589844 C 47.417969 21.589844 48.734375 22.285156 48.734375 23.804688 C 48.734375 25.570312 47.367188 26.8125 46.199219 27.507812 C 45.328125 28.03125 44.332031 28.355469 43.3125 28.355469 C 41.945312 28.355469 40.625 27.660156 40.625 26.140625 C 40.625 24.375 41.996094 23.132812 43.164062 22.433594 C 44.035156 21.914062 45.027344 21.589844 46.046875 21.589844 Z M 46.046875 21.589844 "/>
<path style=" stroke:none;fill-rule:nonzero;fill:rgb(0%,0%,0%);fill-opacity:1;" d="M 46.046875 27.808594 C 47.417969 27.808594 48.734375 28.503906 48.734375 30.019531 C 48.734375 31.789062 47.367188 33.03125 46.199219 33.726562 C 45.328125 34.25 44.332031 34.574219 43.3125 34.574219 C 41.945312 34.574219 40.625 33.875 40.625 32.359375 C 40.625 30.59375 41.996094 29.351562 43.164062 28.652344 C 44.035156 28.132812 45.027344 27.808594 46.046875 27.808594 Z M 46.046875 27.808594 "/>
</g>
</svg>
