<?xml version="1.0" encoding="UTF-8"?>
<svg xmlns="http://www.w3.org/2000/svg" xmlns:xlink="http://www.w3.org/1999/xlink" width="83.542529pt" height="52.409717pt" viewBox="0 0 83.542529 52.409717" version="1.1">
<g id="surface1">
<path style="fill:none;stroke-width:0.1;stroke-linecap:round;stroke-linejoin:round;stroke:rgb(0%,0%,0%);stroke-opacity:1;stroke-miterlimit:4;" d="M 0.049863 -0.0001075 L 11.021401 -0.0001075 " transform="matrix(6.218149,0,0,6.218149,4.561038,29.434262)"/>
<path style="fill:none;stroke-width:0.1;stroke-linecap:round;stroke-linejoin:round;stroke:rgb(0%,0%,0%);stroke-opacity:1;stroke-miterlimit:4;" d="M 0.049863 -0.000204149 L 11.021401 -0.000204149 " transform="matrix(6.218149,0,0,6.218149,4.561038,23.216113)"/>
<path style="fill:none;stroke-width:0.1;stroke-linecap:round;stroke-linejoin:round;stroke:rgb(0%,0%,0%);stroke-opacity:1;stroke-miterlimit:4;" d="M 0.049863 -0.000300797 L 11.021401 -0.000300797 " transform="matrix(6.218149,0,0,6.218149,4.561038,16.997964)"/>
<path style="fill:none;stroke-width:0.1;stroke-linecap:round;stroke-linejoin:round;stroke:rgb(0%,0%,0%);stroke-opacity:1;stroke-miterlimit:4;" d="M 0.049863 0.000230756 L 11.021401 0.000230756 " transform="matrix(6.218149,0,0,6.218149,4.561038,10.779815)"/>
<path style="fill:none;stroke-width:0.1;stroke-linecap:round;stroke-linejoin:round;stroke:rgb(0%,0%,0%);stroke-opacity:1;stroke-miterlimit:4;" d="M 0.049863 0.000133988 L 11.021401 0.000133988 " transform="matrix(6.218149,0,0,6.218149,4.561038,4.561667)"/>
<path style=" stroke:none;fill-rule:nonzero;fill:rgb(0%,0%,0%);fill-opacity:1;" d="M 54.984375 8.828125 L 55.296875 8.828125 C 55.433594 8.828125 55.542969 8.9375 55.542969 9.078125 L 55.542969 43.695312 C 55.542969 43.832031 55.433594 43.941406 55.296875 43.941406 L 54.984375 43.941406 C 54.847656 43.941406 54.734375 43.832031 54.734375 43.695312 L 54.734375 9.078125 C 54.734375 8.9375 54.847656 8.828125 54.984375 8.828125 Z M 54.984375 8.828125 "/>
<path style=" stroke:none;fill-rule:nonzero;fill:rgb(0%,0%,0%);fill-opacity:1;" d="M 49.824219 7.671875 C 50.398438 8.242188 51.21875 8.367188 52.039062 8.367188 C 52.1875 8.367188 52.289062 8.464844 52.289062 8.617188 L 52.511719 10.78125 C 52.535156 10.929688 52.414062 11.054688 52.261719 11.027344 L 50.097656 10.804688 C 49.976562 10.78125 49.851562 10.679688 49.851562 10.554688 C 49.851562 9.734375 49.726562 8.914062 49.152344 8.34375 C 48.582031 8.914062 48.480469 9.734375 48.480469 10.554688 C 48.480469 10.679688 48.359375 10.78125 48.234375 10.804688 L 46.042969 11.027344 C 45.894531 11.054688 45.769531 10.929688 45.796875 10.78125 L 46.019531 8.617188 C 46.019531 8.464844 46.121094 8.367188 46.269531 8.367188 C 47.089844 8.367188 47.910156 8.242188 48.480469 7.671875 C 47.910156 7.097656 47.089844 6.972656 46.269531 6.972656 C 46.121094 6.972656 46.019531 6.875 46.019531 6.726562 L 45.796875 4.5625 C 45.769531 4.414062 45.894531 4.289062 46.042969 4.3125 L 48.234375 4.535156 C 48.359375 4.5625 48.457031 4.660156 48.457031 4.785156 C 48.457031 5.605469 48.582031 6.425781 49.152344 7 C 49.726562 6.425781 49.851562 5.605469 49.851562 4.785156 C 49.851562 4.660156 49.976562 4.5625 50.097656 4.535156 L 52.261719 4.3125 C 52.414062 4.289062 52.535156 4.414062 52.511719 4.5625 L 52.289062 6.726562 C 52.289062 6.875 52.1875 6.972656 52.039062 6.972656 C 51.21875 6.972656 50.398438 7.097656 49.824219 7.671875 Z M 49.824219 7.671875 "/>
<path style=" stroke:none;fill-rule:nonzero;fill:rgb(0%,0%,0%);fill-opacity:1;" d="M 43.082031 21.648438 C 43.082031 21.898438 42.882812 22.121094 42.636719 22.121094 C 42.386719 22.121094 42.164062 21.898438 42.164062 21.648438 L 42.164062 18.042969 L 40.097656 18.8125 L 40.097656 22.742188 C 40.097656 22.992188 39.875 23.214844 39.625 23.214844 C 39.378906 23.214844 39.179688 22.992188 39.179688 22.742188 L 39.179688 19.136719 L 38.382812 19.433594 C 38.332031 19.460938 38.257812 19.460938 38.207031 19.460938 C 37.933594 19.460938 37.710938 19.238281 37.710938 18.964844 L 37.710938 17.46875 C 37.710938 17.273438 37.835938 17.074219 38.035156 16.996094 L 39.179688 16.601562 L 39.179688 12.621094 L 38.382812 12.894531 C 38.332031 12.917969 38.257812 12.917969 38.207031 12.917969 C 37.933594 12.917969 37.710938 12.695312 37.710938 12.421875 L 37.710938 10.929688 C 37.710938 10.730469 37.835938 10.554688 38.035156 10.480469 L 39.179688 10.058594 L 39.179688 6.128906 C 39.179688 5.878906 39.378906 5.65625 39.625 5.65625 C 39.875 5.65625 40.097656 5.878906 40.097656 6.128906 L 40.097656 9.734375 L 42.164062 8.964844 L 42.164062 5.035156 C 42.164062 4.785156 42.386719 4.5625 42.636719 4.5625 C 42.882812 4.5625 43.082031 4.785156 43.082031 5.035156 L 43.082031 8.640625 L 43.878906 8.34375 C 43.929688 8.316406 44.003906 8.316406 44.054688 8.316406 C 44.328125 8.316406 44.550781 8.542969 44.550781 8.816406 L 44.550781 10.308594 C 44.550781 10.507812 44.425781 10.707031 44.226562 10.78125 L 43.082031 11.179688 L 43.082031 15.15625 L 43.878906 14.882812 C 43.929688 14.859375 44.003906 14.859375 44.054688 14.859375 C 44.328125 14.859375 44.550781 15.082031 44.550781 15.355469 L 44.550781 16.847656 C 44.550781 17.046875 44.425781 17.222656 44.226562 17.296875 L 43.082031 17.71875 Z M 40.097656 12.273438 L 40.097656 16.25 L 42.164062 15.503906 L 42.164062 11.527344 Z M 40.097656 12.273438 "/>
<path style=" stroke:none;fill-rule:nonzero;fill:rgb(0%,0%,0%);fill-opacity:1;" d="M 33.734375 20.105469 C 34.304688 20.679688 35.125 20.804688 35.945312 20.804688 C 36.097656 20.804688 36.195312 20.902344 36.195312 21.050781 L 36.417969 23.214844 C 36.445312 23.367188 36.320312 23.488281 36.171875 23.464844 L 34.007812 23.242188 C 33.882812 23.214844 33.757812 23.117188 33.757812 22.992188 C 33.757812 22.171875 33.632812 21.351562 33.0625 20.777344 C 32.488281 21.351562 32.390625 22.171875 32.390625 22.992188 C 32.390625 23.117188 32.265625 23.214844 32.140625 23.242188 L 29.953125 23.464844 C 29.804688 23.488281 29.679688 23.367188 29.703125 23.214844 L 29.925781 21.050781 C 29.925781 20.902344 30.027344 20.804688 30.175781 20.804688 C 30.996094 20.804688 31.816406 20.679688 32.390625 20.105469 C 31.816406 19.535156 30.996094 19.410156 30.175781 19.410156 C 30.027344 19.410156 29.925781 19.3125 29.925781 19.160156 L 29.703125 16.996094 C 29.679688 16.847656 29.804688 16.722656 29.953125 16.75 L 32.140625 16.972656 C 32.265625 16.996094 32.363281 17.097656 32.363281 17.222656 C 32.363281 18.042969 32.488281 18.863281 33.0625 19.433594 C 33.632812 18.863281 33.757812 18.042969 33.757812 17.222656 C 33.757812 17.097656 33.882812 16.996094 34.007812 16.972656 L 36.171875 16.75 C 36.320312 16.722656 36.445312 16.847656 36.417969 16.996094 L 36.195312 19.160156 C 36.195312 19.3125 36.097656 19.410156 35.945312 19.410156 C 35.125 19.410156 34.304688 19.535156 33.734375 20.105469 Z M 33.734375 20.105469 "/>
<path style=" stroke:none;fill-rule:nonzero;fill:rgb(0%,0%,0%);fill-opacity:1;" d="M 51.09375 34.085938 C 51.09375 34.335938 50.894531 34.558594 50.644531 34.558594 C 50.394531 34.558594 50.171875 34.335938 50.171875 34.085938 L 50.171875 30.480469 L 48.105469 31.25 L 48.105469 35.179688 C 48.105469 35.429688 47.882812 35.652344 47.636719 35.652344 C 47.386719 35.652344 47.1875 35.429688 47.1875 35.179688 L 47.1875 31.574219 L 46.390625 31.871094 C 46.339844 31.898438 46.265625 31.898438 46.21875 31.898438 C 45.945312 31.898438 45.71875 31.671875 45.71875 31.398438 L 45.71875 29.90625 C 45.71875 29.707031 45.84375 29.507812 46.042969 29.433594 L 47.1875 29.035156 L 47.1875 25.058594 L 46.390625 25.332031 C 46.339844 25.355469 46.265625 25.355469 46.21875 25.355469 C 45.945312 25.355469 45.71875 25.132812 45.71875 24.859375 L 45.71875 23.367188 C 45.71875 23.167969 45.84375 22.992188 46.042969 22.917969 L 47.1875 22.496094 L 47.1875 18.566406 C 47.1875 18.316406 47.386719 18.09375 47.636719 18.09375 C 47.882812 18.09375 48.105469 18.316406 48.105469 18.566406 L 48.105469 22.171875 L 50.171875 21.402344 L 50.171875 17.46875 C 50.171875 17.222656 50.394531 16.996094 50.644531 16.996094 C 50.894531 16.996094 51.09375 17.222656 51.09375 17.46875 L 51.09375 21.078125 L 51.886719 20.777344 C 51.9375 20.753906 52.011719 20.753906 52.0625 20.753906 C 52.335938 20.753906 52.558594 20.976562 52.558594 21.25 L 52.558594 22.742188 C 52.558594 22.941406 52.433594 23.140625 52.234375 23.214844 L 51.09375 23.613281 L 51.09375 27.59375 L 51.886719 27.320312 C 51.9375 27.296875 52.011719 27.296875 52.0625 27.296875 C 52.335938 27.296875 52.558594 27.519531 52.558594 27.792969 L 52.558594 29.285156 C 52.558594 29.484375 52.433594 29.65625 52.234375 29.734375 L 51.09375 30.15625 Z M 48.105469 24.707031 L 48.105469 28.6875 L 50.171875 27.941406 L 50.171875 23.960938 Z M 48.105469 24.707031 "/>
<path style=" stroke:none;fill-rule:nonzero;fill:rgb(0%,0%,0%);fill-opacity:1;" d="M 23.390625 13.890625 C 23.390625 13.191406 23.960938 12.621094 24.65625 12.621094 C 25.355469 12.621094 25.925781 13.191406 25.925781 13.890625 C 25.925781 14.585938 25.355469 15.15625 24.65625 15.15625 C 23.960938 15.15625 23.390625 14.585938 23.390625 13.890625 Z M 23.390625 7.671875 C 23.390625 6.972656 23.960938 6.402344 24.65625 6.402344 C 25.355469 6.402344 25.925781 6.972656 25.925781 7.671875 C 25.925781 8.367188 25.355469 8.9375 24.65625 8.9375 C 23.960938 8.9375 23.390625 8.367188 23.390625 7.671875 Z M 15.304688 4.238281 C 19.585938 4.238281 22.59375 6.425781 22.59375 10.480469 C 22.59375 17.023438 16.050781 20.777344 9.757812 23.441406 C 9.683594 23.515625 9.609375 23.539062 9.535156 23.539062 C 9.363281 23.539062 9.210938 23.390625 9.210938 23.214844 C 9.210938 23.140625 9.238281 23.066406 9.3125 22.992188 C 14.335938 20.058594 19.558594 16.402344 19.558594 10.730469 C 19.558594 7.746094 17.992188 4.886719 15.304688 4.886719 C 13.464844 4.886719 12.097656 6.226562 11.476562 8.019531 C 11.75 7.894531 12.023438 7.820312 12.320312 7.820312 C 13.6875 7.820312 14.808594 8.9375 14.808594 10.308594 C 14.808594 11.75 13.714844 12.945312 12.320312 12.945312 C 10.828125 12.945312 9.535156 11.773438 9.535156 10.308594 C 9.535156 7 12.074219 4.238281 15.304688 4.238281 Z M 15.304688 4.238281 "/>
<path style=" stroke:none;fill-rule:nonzero;fill:rgb(0%,0%,0%);fill-opacity:1;" d="M 60.15625 4.289062 C 61.527344 4.289062 62.84375 4.984375 62.84375 6.5 C 62.84375 8.269531 61.476562 9.511719 60.308594 10.207031 C 59.4375 10.730469 58.441406 11.054688 57.421875 11.054688 C 56.054688 11.054688 54.734375 10.355469 54.734375 8.839844 C 54.734375 7.074219 56.105469 5.832031 57.273438 5.132812 C 58.144531 4.613281 59.136719 4.289062 60.15625 4.289062 Z M 60.15625 4.289062 "/>
<path style=" stroke:none;fill-rule:nonzero;fill:rgb(0%,0%,0%);fill-opacity:1;" d="M 60.15625 10.507812 C 61.527344 10.507812 62.84375 11.203125 62.84375 12.71875 C 62.84375 14.484375 61.476562 15.730469 60.308594 16.425781 C 59.4375 16.949219 58.441406 17.273438 57.421875 17.273438 C 56.054688 17.273438 54.734375 16.574219 54.734375 15.058594 C 54.734375 13.292969 56.105469 12.046875 57.273438 11.351562 C 58.144531 10.828125 59.136719 10.507812 60.15625 10.507812 Z M 60.15625 10.507812 "/>
<path style=" stroke:none;fill-rule:nonzero;fill:rgb(0%,0%,0%);fill-opacity:1;" d="M 60.15625 16.722656 C 61.527344 16.722656 62.84375 17.421875 62.84375 18.9375 C 62.84375 20.703125 61.476562 21.949219 60.308594 22.644531 C 59.4375 23.167969 58.441406 23.488281 57.421875 23.488281 C 56.054688 23.488281 54.734375 22.792969 54.734375 21.277344 C 54.734375 19.511719 56.105469 18.265625 57.273438 17.570312 C 58.144531 17.046875 59.136719 16.722656 60.15625 16.722656 Z M 60.15625 16.722656 "/>
<path style=" stroke:none;fill-rule:nonzero;fill:rgb(0%,0%,0%);fill-opacity:1;" d="M 60.15625 22.941406 C 61.527344 22.941406 62.84375 23.640625 62.84375 25.15625 C 62.84375 26.921875 61.476562 28.164062 60.308594 28.863281 C 59.4375 29.382812 58.441406 29.707031 57.421875 29.707031 C 56.054688 29.707031 54.734375 29.011719 54.734375 27.496094 C 54.734375 25.726562 56.105469 24.484375 57.273438 23.789062 C 58.144531 23.265625 59.136719 22.941406 60.15625 22.941406 Z M 60.15625 22.941406 "/>
</g>
</svg>
