<?xml version="1.0" encoding="UTF-8"?>
<svg xmlns="http://www.w3.org/2000/svg" xmlns:xlink="http://www.w3.org/1999/xlink" width="68.472344pt" height="60.078972pt" viewBox="0 0 68.472344 60.078972" version="1.1">
<g id="surface1">
<path style="fill:none;stroke-width:0.1;stroke-linecap:round;stroke-linejoin:round;stroke:rgb(0%,0%,0%);stroke-opacity:1;stroke-miterlimit:4;" d="M 0.049863 0.00023304 L 8.752337 0.00023304 " transform="matrix(6.218149,0,0,6.218149,4.561038,41.88527)"/>
<path style="fill:none;stroke-width:0.1;stroke-linecap:round;stroke-linejoin:round;stroke:rgb(0%,0%,0%);stroke-opacity:1;stroke-miterlimit:4;" d="M 0.049863 0.000136391 L 8.752337 0.000136391 " transform="matrix(6.218149,0,0,6.218149,4.561038,35.667121)"/>
<path style="fill:none;stroke-width:0.1;stroke-linecap:round;stroke-linejoin:round;stroke:rgb(0%,0%,0%);stroke-opacity:1;stroke-miterlimit:4;" d="M 0.049863 0.0000397429 L 8.752337 0.0000397429 " transform="matrix(6.218149,0,0,6.218149,4.561038,29.448972)"/>
<path style="fill:none;stroke-width:0.1;stroke-linecap:round;stroke-linejoin:round;stroke:rgb(0%,0%,0%);stroke-opacity:1;stroke-miterlimit:4;" d="M 0.049863 -0.0000569057 L 8.752337 -0.0000569057 " transform="matrix(6.218149,0,0,6.218149,4.561038,23.230823)"/>
<path style="fill:none;stroke-width:0.1;stroke-linecap:round;stroke-linejoin:round;stroke:rgb(0%,0%,0%);stroke-opacity:1;stroke-miterlimit:4;" d="M 0.049863 -0.000153554 L 8.752337 -0.000153554 " transform="matrix(6.218149,0,0,6.218149,4.561038,17.012674)"/>
<path style=" stroke:none;fill-rule:nonzero;fill:rgb(0%,0%,0%);fill-opacity:1;" d="M 40.875 15.0625 L 41.1875 15.0625 C 41.324219 15.0625 41.433594 15.171875 41.433594 15.308594 L 41.433594 35.417969 C 41.433594 35.554688 41.324219 35.667969 41.1875 35.667969 L 40.875 35.667969 C 40.738281 35.667969 40.625 35.554688 40.625 35.417969 L 40.625 15.308594 C 40.625 15.171875 40.738281 15.0625 40.875 15.0625 Z M 40.875 15.0625 "/>
<path style=" stroke:none;fill-rule:nonzero;fill:rgb(0%,0%,0%);fill-opacity:1;" d="M 36.984375 21.664062 C 36.984375 21.914062 36.785156 22.136719 36.535156 22.136719 C 36.285156 22.136719 36.0625 21.914062 36.0625 21.664062 L 36.0625 18.058594 L 33.996094 18.828125 L 33.996094 22.757812 C 33.996094 23.007812 33.773438 23.230469 33.523438 23.230469 C 33.277344 23.230469 33.078125 23.007812 33.078125 22.757812 L 33.078125 19.152344 L 32.28125 19.449219 C 32.230469 19.476562 32.15625 19.476562 32.109375 19.476562 C 31.832031 19.476562 31.609375 19.25 31.609375 18.976562 L 31.609375 17.484375 C 31.609375 17.285156 31.734375 17.085938 31.933594 17.011719 L 33.078125 16.613281 L 33.078125 12.636719 L 32.28125 12.910156 C 32.230469 12.933594 32.15625 12.933594 32.109375 12.933594 C 31.832031 12.933594 31.609375 12.710938 31.609375 12.4375 L 31.609375 10.945312 C 31.609375 10.746094 31.734375 10.570312 31.933594 10.496094 L 33.078125 10.074219 L 33.078125 6.144531 C 33.078125 5.894531 33.277344 5.671875 33.523438 5.671875 C 33.773438 5.671875 33.996094 5.894531 33.996094 6.144531 L 33.996094 9.75 L 36.0625 8.980469 L 36.0625 5.050781 C 36.0625 4.800781 36.285156 4.578125 36.535156 4.578125 C 36.785156 4.578125 36.984375 4.800781 36.984375 5.050781 L 36.984375 8.65625 L 37.777344 8.355469 C 37.828125 8.332031 37.902344 8.332031 37.953125 8.332031 C 38.226562 8.332031 38.449219 8.554688 38.449219 8.828125 L 38.449219 10.320312 C 38.449219 10.519531 38.324219 10.71875 38.125 10.792969 L 36.984375 11.191406 L 36.984375 15.171875 L 37.777344 14.898438 C 37.828125 14.875 37.902344 14.875 37.953125 14.875 C 38.226562 14.875 38.449219 15.097656 38.449219 15.371094 L 38.449219 16.863281 C 38.449219 17.0625 38.324219 17.238281 38.125 17.3125 L 36.984375 17.734375 Z M 33.996094 12.285156 L 33.996094 16.265625 L 36.0625 15.519531 L 36.0625 11.539062 Z M 33.996094 12.285156 "/>
<path style=" stroke:none;fill-rule:nonzero;fill:rgb(0%,0%,0%);fill-opacity:1;" d="M 16.152344 51.460938 L 16.003906 51.460938 C 13.316406 51.460938 11.152344 49.273438 11.152344 46.5625 C 11.152344 45.117188 12.46875 44 13.9375 44 C 15.28125 44 16.300781 45.167969 16.300781 46.5625 C 16.300781 47.855469 15.230469 48.925781 13.9375 48.925781 C 13.664062 48.925781 13.414062 48.875 13.167969 48.773438 C 13.8125 49.746094 14.859375 50.390625 16.078125 50.390625 L 16.175781 50.390625 Z M 21 40.714844 C 22.691406 40.121094 23.8125 38.351562 23.8125 36.636719 C 23.8125 34.398438 22.171875 32.183594 19.507812 31.910156 C 20.105469 34.796875 20.652344 37.65625 21 40.714844 Z M 11.375 34.96875 C 11.375 38.328125 14.585938 41.113281 17.941406 41.113281 C 18.640625 41.113281 19.308594 41.066406 19.980469 40.964844 C 19.632812 37.804688 19.0625 34.871094 18.414062 31.910156 C 16.449219 32.109375 15.332031 33.429688 15.332031 34.871094 C 15.332031 35.964844 15.953125 37.132812 17.34375 37.929688 C 17.46875 38.054688 17.519531 38.179688 17.519531 38.304688 C 17.519531 38.578125 17.269531 38.851562 16.972656 38.851562 C 16.898438 38.851562 16.824219 38.824219 16.75 38.800781 C 14.757812 37.730469 13.839844 35.941406 13.839844 34.199219 C 13.839844 32.011719 15.28125 29.871094 17.816406 29.300781 C 17.46875 27.855469 17.097656 26.390625 16.675781 24.945312 C 14.011719 27.957031 11.375 30.992188 11.375 34.96875 Z M 17.867188 42.183594 C 13.191406 42.183594 9.585938 37.90625 9.585938 32.882812 C 9.585938 28.480469 12.84375 25.269531 15.753906 21.914062 C 15.28125 20.371094 14.832031 18.804688 14.632812 17.1875 C 14.484375 15.894531 14.460938 14.601562 14.460938 13.308594 C 14.460938 10.445312 15.828125 7.734375 18.167969 6.042969 C 18.316406 5.917969 18.515625 5.917969 18.664062 6.042969 C 20.429688 8.132812 21.972656 12.136719 21.972656 14.949219 C 21.972656 18.503906 19.832031 21.289062 17.496094 24 C 18.015625 25.691406 18.464844 27.433594 18.886719 29.152344 C 18.988281 29.152344 19.113281 29.125 19.210938 29.125 C 23.066406 29.125 25.578125 32.308594 25.578125 35.617188 C 25.578125 37.507812 24.757812 39.449219 22.917969 40.839844 C 22.371094 41.261719 21.746094 41.535156 21.101562 41.734375 C 21.175781 42.605469 21.226562 43.476562 21.226562 44.347656 C 21.226562 44.820312 21.199219 45.316406 21.175781 45.789062 C 21 48.75 18.988281 51.386719 16.152344 51.460938 L 16.175781 50.390625 C 18.488281 50.34375 19.980469 48.101562 20.132812 45.640625 C 20.15625 45.191406 20.179688 44.722656 20.179688 44.273438 C 20.179688 43.503906 20.15625 42.753906 20.082031 41.984375 C 19.359375 42.109375 18.640625 42.183594 17.867188 42.183594 Z M 20.179688 12.882812 C 20.179688 11.515625 20.082031 10.917969 19.683594 9.675781 C 17.222656 10.871094 15.652344 13.382812 15.652344 16.117188 C 15.652344 17.957031 16.101562 19.425781 16.550781 20.941406 C 18.539062 18.53125 20.179688 16.019531 20.179688 12.882812 Z M 20.179688 12.882812 "/>
<path style=" stroke:none;fill-rule:nonzero;fill:rgb(0%,0%,0%);fill-opacity:1;" d="M 46.046875 10.519531 C 47.417969 10.519531 48.734375 11.21875 48.734375 12.734375 C 48.734375 14.5 47.367188 15.746094 46.199219 16.441406 C 45.328125 16.964844 44.332031 17.285156 43.3125 17.285156 C 41.945312 17.285156 40.625 16.589844 40.625 15.074219 C 40.625 13.308594 41.996094 12.0625 43.164062 11.367188 C 44.035156 10.84375 45.027344 10.519531 46.046875 10.519531 Z M 46.046875 10.519531 "/>
</g>
</svg>
