<?xml version="1.0" encoding="UTF-8"?>
<svg xmlns="http://www.w3.org/2000/svg" xmlns:xlink="http://www.w3.org/1999/xlink" width="71.82843pt" height="63.311523pt" viewBox="0 0 71.82843 63.311523" version="1.1">
<g id="surface1">
<path style="fill:none;stroke-width:0.1;stroke-linecap:round;stroke-linejoin:round;stroke:rgb(0%,0%,0%);stroke-opacity:1;stroke-miterlimit:4;" d="M 0.049863 0.000192316 L 9.257411 0.000192316 " transform="matrix(6.218149,0,0,6.218149,4.561038,44.123804)"/>
<path style="fill:none;stroke-width:0.1;stroke-linecap:round;stroke-linejoin:round;stroke:rgb(0%,0%,0%);stroke-opacity:1;stroke-miterlimit:4;" d="M 0.049863 0.0000956673 L 9.257411 0.0000956673 " transform="matrix(6.218149,0,0,6.218149,4.561038,37.905655)"/>
<path style="fill:none;stroke-width:0.1;stroke-linecap:round;stroke-linejoin:round;stroke:rgb(0%,0%,0%);stroke-opacity:1;stroke-miterlimit:4;" d="M 0.049863 -0.000000981293 L 9.257411 -0.000000981293 " transform="matrix(6.218149,0,0,6.218149,4.561038,31.687506)"/>
<path style="fill:none;stroke-width:0.1;stroke-linecap:round;stroke-linejoin:round;stroke:rgb(0%,0%,0%);stroke-opacity:1;stroke-miterlimit:4;" d="M 0.049863 -0.0000976299 L 9.257411 -0.0000976299 " transform="matrix(6.218149,0,0,6.218149,4.561038,25.469357)"/>
<path style="fill:none;stroke-width:0.1;stroke-linecap:round;stroke-linejoin:round;stroke:rgb(0%,0%,0%);stroke-opacity:1;stroke-miterlimit:4;" d="M 0.049863 -0.00019404 L 9.257411 -0.00019404 " transform="matrix(6.218149,0,0,6.218149,4.561038,19.251207)"/>
<path style=" stroke:none;fill-rule:nonzero;fill:rgb(0%,0%,0%);fill-opacity:1;" d="M 44.015625 17.300781 L 44.328125 17.300781 C 44.464844 17.300781 44.578125 17.410156 44.578125 17.546875 L 44.578125 54.238281 C 44.578125 54.375 44.464844 54.488281 44.328125 54.488281 L 44.015625 54.488281 C 43.878906 54.488281 43.769531 54.375 43.769531 54.238281 L 43.769531 17.546875 C 43.769531 17.410156 43.878906 17.300781 44.015625 17.300781 Z M 44.015625 17.300781 "/>
<path style=" stroke:none;fill-rule:nonzero;fill:rgb(0%,0%,0%);fill-opacity:1;" d="M 37.289062 15.121094 L 37.265625 16.765625 L 37.265625 17.039062 C 37.265625 17.585938 37.289062 18.132812 37.363281 18.679688 C 38.484375 17.734375 39.675781 16.6875 39.675781 15.222656 C 39.675781 14.402344 39.328125 13.554688 38.605469 13.554688 C 37.835938 13.554688 37.3125 14.300781 37.289062 15.121094 Z M 36.246094 19.574219 L 35.945312 4.773438 C 36.144531 4.652344 36.394531 4.578125 36.617188 4.578125 C 36.839844 4.578125 37.089844 4.652344 37.289062 4.773438 L 37.113281 13.355469 C 37.738281 12.835938 38.558594 12.511719 39.378906 12.511719 C 40.671875 12.511719 41.59375 13.703125 41.59375 15.046875 C 41.59375 17.039062 39.453125 17.957031 37.9375 19.25 C 37.5625 19.574219 37.339844 20.195312 36.816406 20.195312 C 36.492188 20.195312 36.246094 19.921875 36.246094 19.574219 Z M 36.246094 19.574219 "/>
<path style=" stroke:none;fill-rule:nonzero;fill:rgb(0%,0%,0%);fill-opacity:1;" d="M 30.632812 21.339844 L 30.609375 22.980469 L 30.609375 23.253906 C 30.609375 23.804688 30.632812 24.351562 30.707031 24.898438 C 31.828125 23.953125 33.023438 22.90625 33.023438 21.441406 C 33.023438 20.621094 32.671875 19.773438 31.953125 19.773438 C 31.179688 19.773438 30.660156 20.519531 30.632812 21.339844 Z M 29.589844 25.792969 L 29.289062 10.992188 C 29.488281 10.871094 29.738281 10.792969 29.960938 10.792969 C 30.1875 10.792969 30.433594 10.871094 30.632812 10.992188 L 30.460938 19.574219 C 31.082031 19.050781 31.902344 18.730469 32.722656 18.730469 C 34.015625 18.730469 34.9375 19.921875 34.9375 21.265625 C 34.9375 23.253906 32.796875 24.175781 31.28125 25.46875 C 30.90625 25.792969 30.683594 26.414062 30.160156 26.414062 C 29.835938 26.414062 29.589844 26.140625 29.589844 25.792969 Z M 29.589844 25.792969 "/>
<path style=" stroke:none;fill-rule:nonzero;fill:rgb(0%,0%,0%);fill-opacity:1;" d="M 37.289062 33.777344 L 37.265625 35.417969 L 37.265625 35.691406 C 37.265625 36.238281 37.289062 36.785156 37.363281 37.332031 C 38.484375 36.386719 39.675781 35.34375 39.675781 33.875 C 39.675781 33.054688 39.328125 32.210938 38.605469 32.210938 C 37.835938 32.210938 37.3125 32.957031 37.289062 33.777344 Z M 36.246094 38.230469 L 35.945312 23.429688 C 36.144531 23.304688 36.394531 23.230469 36.617188 23.230469 C 36.839844 23.230469 37.089844 23.304688 37.289062 23.429688 L 37.113281 32.011719 C 37.738281 31.488281 38.558594 31.164062 39.378906 31.164062 C 40.671875 31.164062 41.59375 32.359375 41.59375 33.703125 C 41.59375 35.691406 39.453125 36.613281 37.9375 37.90625 C 37.5625 38.230469 37.339844 38.851562 36.816406 38.851562 C 36.492188 38.851562 36.246094 38.578125 36.246094 38.230469 Z M 36.246094 38.230469 "/>
<path style=" stroke:none;fill-rule:nonzero;fill:rgb(0%,0%,0%);fill-opacity:1;" d="M 16.152344 53.699219 L 16.003906 53.699219 C 13.316406 53.699219 11.152344 51.511719 11.152344 48.800781 C 11.152344 47.355469 12.46875 46.238281 13.9375 46.238281 C 15.28125 46.238281 16.300781 47.40625 16.300781 48.800781 C 16.300781 50.09375 15.230469 51.164062 13.9375 51.164062 C 13.664062 51.164062 13.414062 51.113281 13.167969 51.011719 C 13.8125 51.984375 14.859375 52.628906 16.078125 52.628906 L 16.175781 52.628906 Z M 21 42.953125 C 22.691406 42.359375 23.8125 40.59375 23.8125 38.875 C 23.8125 36.636719 22.171875 34.421875 19.507812 34.148438 C 20.105469 37.035156 20.652344 39.894531 21 42.953125 Z M 11.375 37.210938 C 11.375 40.566406 14.585938 43.351562 17.941406 43.351562 C 18.640625 43.351562 19.308594 43.304688 19.980469 43.203125 C 19.632812 40.042969 19.0625 37.109375 18.414062 34.148438 C 16.449219 34.347656 15.332031 35.667969 15.332031 37.109375 C 15.332031 38.203125 15.953125 39.375 17.34375 40.167969 C 17.46875 40.292969 17.519531 40.417969 17.519531 40.542969 C 17.519531 40.816406 17.269531 41.089844 16.972656 41.089844 C 16.898438 41.089844 16.824219 41.066406 16.75 41.039062 C 14.757812 39.96875 13.839844 38.179688 13.839844 36.4375 C 13.839844 34.25 15.28125 32.109375 17.816406 31.539062 C 17.46875 30.09375 17.097656 28.628906 16.675781 27.1875 C 14.011719 30.195312 11.375 33.230469 11.375 37.210938 Z M 17.867188 44.421875 C 13.191406 44.421875 9.585938 40.144531 9.585938 35.121094 C 9.585938 30.71875 12.84375 27.507812 15.753906 24.152344 C 15.28125 22.609375 14.832031 21.042969 14.632812 19.425781 C 14.484375 18.132812 14.460938 16.839844 14.460938 15.546875 C 14.460938 12.683594 15.828125 9.972656 18.167969 8.28125 C 18.316406 8.15625 18.515625 8.15625 18.664062 8.28125 C 20.429688 10.371094 21.972656 14.375 21.972656 17.1875 C 21.972656 20.742188 19.832031 23.527344 17.496094 26.242188 C 18.015625 27.933594 18.464844 29.671875 18.886719 31.390625 C 18.988281 31.390625 19.113281 31.363281 19.210938 31.363281 C 23.066406 31.363281 25.578125 34.546875 25.578125 37.855469 C 25.578125 39.746094 24.757812 41.6875 22.917969 43.078125 C 22.371094 43.503906 21.746094 43.777344 21.101562 43.972656 C 21.175781 44.84375 21.226562 45.714844 21.226562 46.585938 C 21.226562 47.058594 21.199219 47.554688 21.175781 48.027344 C 21 50.988281 18.988281 53.625 16.152344 53.699219 L 16.175781 52.628906 C 18.488281 52.582031 19.980469 50.34375 20.132812 47.878906 C 20.15625 47.433594 20.179688 46.960938 20.179688 46.511719 C 20.179688 45.742188 20.15625 44.996094 20.082031 44.222656 C 19.359375 44.347656 18.640625 44.421875 17.867188 44.421875 Z M 20.179688 15.121094 C 20.179688 13.753906 20.082031 13.15625 19.683594 11.914062 C 17.222656 13.109375 15.652344 15.621094 15.652344 18.355469 C 15.652344 20.195312 16.101562 21.664062 16.550781 23.179688 C 18.539062 20.769531 20.179688 18.257812 20.179688 15.121094 Z M 20.179688 15.121094 "/>
<path style=" stroke:none;fill-rule:nonzero;fill:rgb(0%,0%,0%);fill-opacity:1;" d="M 49.191406 12.757812 C 50.558594 12.757812 51.875 13.457031 51.875 14.972656 C 51.875 16.738281 50.507812 17.984375 49.339844 18.679688 C 48.46875 19.203125 47.472656 19.523438 46.453125 19.523438 C 45.085938 19.523438 43.769531 18.828125 43.769531 17.3125 C 43.769531 15.546875 45.136719 14.300781 46.304688 13.605469 C 47.175781 13.082031 48.171875 12.757812 49.191406 12.757812 Z M 49.191406 12.757812 "/>
<path style=" stroke:none;fill-rule:nonzero;fill:rgb(0%,0%,0%);fill-opacity:1;" d="M 49.191406 18.976562 C 50.558594 18.976562 51.875 19.675781 51.875 21.191406 C 51.875 22.957031 50.507812 24.199219 49.339844 24.898438 C 48.46875 25.417969 47.472656 25.742188 46.453125 25.742188 C 45.085938 25.742188 43.769531 25.046875 43.769531 23.527344 C 43.769531 21.761719 45.136719 20.519531 46.304688 19.824219 C 47.175781 19.300781 48.171875 18.976562 49.191406 18.976562 Z M 49.191406 18.976562 "/>
<path style=" stroke:none;fill-rule:nonzero;fill:rgb(0%,0%,0%);fill-opacity:1;" d="M 49.191406 25.195312 C 50.558594 25.195312 51.875 25.890625 51.875 27.410156 C 51.875 29.175781 50.507812 30.417969 49.339844 31.117188 C 48.46875 31.636719 47.472656 31.960938 46.453125 31.960938 C 45.085938 31.960938 43.769531 31.265625 43.769531 29.746094 C 43.769531 27.980469 45.136719 26.738281 46.304688 26.042969 C 47.175781 25.519531 48.171875 25.195312 49.191406 25.195312 Z M 49.191406 25.195312 "/>
<path style=" stroke:none;fill-rule:nonzero;fill:rgb(0%,0%,0%);fill-opacity:1;" d="M 49.191406 31.414062 C 50.558594 31.414062 51.875 32.109375 51.875 33.628906 C 51.875 35.394531 50.507812 36.636719 49.339844 37.332031 C 48.46875 37.855469 47.472656 38.179688 46.453125 38.179688 C 45.085938 38.179688 43.769531 37.484375 43.769531 35.964844 C 43.769531 34.199219 45.136719 32.957031 46.304688 32.257812 C 47.175781 31.738281 48.171875 31.414062 49.191406 31.414062 Z M 49.191406 31.414062 "/>
</g>
</svg>
