<?xml version="1.0" encoding="UTF-8"?>
<svg xmlns="http://www.w3.org/2000/svg" xmlns:xlink="http://www.w3.org/1999/xlink" width="68.472344pt" height="52.409717pt" viewBox="0 0 68.472344 52.409717" version="1.1">
<g id="surface1">
<path style="fill:none;stroke-width:0.1;stroke-linecap:round;stroke-linejoin:round;stroke:rgb(0%,0%,0%);stroke-opacity:1;stroke-miterlimit:4;" d="M 0.049863 -0.0001075 L 8.752337 -0.0001075 " transform="matrix(6.218149,0,0,6.218149,4.561038,29.434262)"/>
<path style="fill:none;stroke-width:0.1;stroke-linecap:round;stroke-linejoin:round;stroke:rgb(0%,0%,0%);stroke-opacity:1;stroke-miterlimit:4;" d="M 0.049863 -0.000204149 L 8.752337 -0.000204149 " transform="matrix(6.218149,0,0,6.218149,4.561038,23.216113)"/>
<path style="fill:none;stroke-width:0.1;stroke-linecap:round;stroke-linejoin:round;stroke:rgb(0%,0%,0%);stroke-opacity:1;stroke-miterlimit:4;" d="M 0.049863 -0.000300797 L 8.752337 -0.000300797 " transform="matrix(6.218149,0,0,6.218149,4.561038,16.997964)"/>
<path style="fill:none;stroke-width:0.1;stroke-linecap:round;stroke-linejoin:round;stroke:rgb(0%,0%,0%);stroke-opacity:1;stroke-miterlimit:4;" d="M 0.049863 0.000230756 L 8.752337 0.000230756 " transform="matrix(6.218149,0,0,6.218149,4.561038,10.779815)"/>
<path style="fill:none;stroke-width:0.1;stroke-linecap:round;stroke-linejoin:round;stroke:rgb(0%,0%,0%);stroke-opacity:1;stroke-miterlimit:4;" d="M 0.049863 0.000133988 L 8.752337 0.000133988 " transform="matrix(6.218149,0,0,6.218149,4.561038,4.561667)"/>
<path style=" stroke:none;fill-rule:nonzero;fill:rgb(0%,0%,0%);fill-opacity:1;" d="M 36.984375 27.867188 C 36.984375 28.117188 36.785156 28.339844 36.535156 28.339844 C 36.285156 28.339844 36.0625 28.117188 36.0625 27.867188 L 36.0625 24.261719 L 33.996094 25.03125 L 33.996094 28.960938 C 33.996094 29.210938 33.773438 29.433594 33.523438 29.433594 C 33.277344 29.433594 33.078125 29.210938 33.078125 28.960938 L 33.078125 25.355469 L 32.28125 25.652344 C 32.230469 25.679688 32.15625 25.679688 32.109375 25.679688 C 31.832031 25.679688 31.609375 25.453125 31.609375 25.179688 L 31.609375 23.6875 C 31.609375 23.488281 31.734375 23.289062 31.933594 23.214844 L 33.078125 22.816406 L 33.078125 18.839844 L 32.28125 19.113281 C 32.230469 19.136719 32.15625 19.136719 32.109375 19.136719 C 31.832031 19.136719 31.609375 18.914062 31.609375 18.640625 L 31.609375 17.148438 C 31.609375 16.949219 31.734375 16.773438 31.933594 16.699219 L 33.078125 16.277344 L 33.078125 12.347656 C 33.078125 12.097656 33.277344 11.875 33.523438 11.875 C 33.773438 11.875 33.996094 12.097656 33.996094 12.347656 L 33.996094 15.953125 L 36.0625 15.183594 L 36.0625 11.253906 C 36.0625 11.003906 36.285156 10.78125 36.535156 10.78125 C 36.785156 10.78125 36.984375 11.003906 36.984375 11.253906 L 36.984375 14.859375 L 37.777344 14.558594 C 37.828125 14.535156 37.902344 14.535156 37.953125 14.535156 C 38.226562 14.535156 38.449219 14.757812 38.449219 15.03125 L 38.449219 16.523438 C 38.449219 16.722656 38.324219 16.921875 38.125 16.996094 L 36.984375 17.394531 L 36.984375 21.375 L 37.777344 21.101562 C 37.828125 21.078125 37.902344 21.078125 37.953125 21.078125 C 38.226562 21.078125 38.449219 21.300781 38.449219 21.574219 L 38.449219 23.066406 C 38.449219 23.265625 38.324219 23.441406 38.125 23.515625 L 36.984375 23.9375 Z M 33.996094 18.492188 L 33.996094 22.46875 L 36.0625 21.722656 L 36.0625 17.746094 Z M 33.996094 18.492188 "/>
<path style=" stroke:none;fill-rule:nonzero;fill:rgb(0%,0%,0%);fill-opacity:1;" d="M 40.875 8.828125 L 41.1875 8.828125 C 41.324219 8.828125 41.433594 8.9375 41.433594 9.078125 L 41.433594 43.695312 C 41.433594 43.832031 41.324219 43.941406 41.1875 43.941406 L 40.875 43.941406 C 40.738281 43.941406 40.625 43.832031 40.625 43.695312 L 40.625 9.078125 C 40.625 8.9375 40.738281 8.828125 40.875 8.828125 Z M 40.875 8.828125 "/>
<path style=" stroke:none;fill-rule:nonzero;fill:rgb(0%,0%,0%);fill-opacity:1;" d="M 23.390625 13.890625 C 23.390625 13.191406 23.960938 12.621094 24.65625 12.621094 C 25.355469 12.621094 25.925781 13.191406 25.925781 13.890625 C 25.925781 14.585938 25.355469 15.15625 24.65625 15.15625 C 23.960938 15.15625 23.390625 14.585938 23.390625 13.890625 Z M 23.390625 7.671875 C 23.390625 6.972656 23.960938 6.402344 24.65625 6.402344 C 25.355469 6.402344 25.925781 6.972656 25.925781 7.671875 C 25.925781 8.367188 25.355469 8.9375 24.65625 8.9375 C 23.960938 8.9375 23.390625 8.367188 23.390625 7.671875 Z M 15.304688 4.238281 C 19.585938 4.238281 22.59375 6.425781 22.59375 10.480469 C 22.59375 17.023438 16.050781 20.777344 9.757812 23.441406 C 9.683594 23.515625 9.609375 23.539062 9.535156 23.539062 C 9.363281 23.539062 9.210938 23.390625 9.210938 23.214844 C 9.210938 23.140625 9.238281 23.066406 9.3125 22.992188 C 14.335938 20.058594 19.558594 16.402344 19.558594 10.730469 C 19.558594 7.746094 17.992188 4.886719 15.304688 4.886719 C 13.464844 4.886719 12.097656 6.226562 11.476562 8.019531 C 11.75 7.894531 12.023438 7.820312 12.320312 7.820312 C 13.6875 7.820312 14.808594 8.9375 14.808594 10.308594 C 14.808594 11.75 13.714844 12.945312 12.320312 12.945312 C 10.828125 12.945312 9.535156 11.773438 9.535156 10.308594 C 9.535156 7 12.074219 4.238281 15.304688 4.238281 Z M 15.304688 4.238281 "/>
<path style=" stroke:none;fill-rule:nonzero;fill:rgb(0%,0%,0%);fill-opacity:1;" d="M 46.046875 4.289062 C 47.417969 4.289062 48.734375 4.984375 48.734375 6.5 C 48.734375 8.269531 47.367188 9.511719 46.199219 10.207031 C 45.328125 10.730469 44.332031 11.054688 43.3125 11.054688 C 41.945312 11.054688 40.625 10.355469 40.625 8.839844 C 40.625 7.074219 41.996094 5.832031 43.164062 5.132812 C 44.035156 4.613281 45.027344 4.289062 46.046875 4.289062 Z M 46.046875 4.289062 "/>
<path style=" stroke:none;fill-rule:nonzero;fill:rgb(0%,0%,0%);fill-opacity:1;" d="M 46.046875 10.507812 C 47.417969 10.507812 48.734375 11.203125 48.734375 12.71875 C 48.734375 14.484375 47.367188 15.730469 46.199219 16.425781 C 45.328125 16.949219 44.332031 17.273438 43.3125 17.273438 C 41.945312 17.273438 40.625 16.574219 40.625 15.058594 C 40.625 13.292969 41.996094 12.046875 43.164062 11.351562 C 44.035156 10.828125 45.027344 10.507812 46.046875 10.507812 Z M 46.046875 10.507812 "/>
<path style=" stroke:none;fill-rule:nonzero;fill:rgb(0%,0%,0%);fill-opacity:1;" d="M 46.046875 16.722656 C 47.417969 16.722656 48.734375 17.421875 48.734375 18.9375 C 48.734375 20.703125 47.367188 21.949219 46.199219 22.644531 C 45.328125 23.167969 44.332031 23.488281 43.3125 23.488281 C 41.945312 23.488281 40.625 22.792969 40.625 21.277344 C 40.625 19.511719 41.996094 18.265625 43.164062 17.570312 C 44.035156 17.046875 45.027344 16.722656 46.046875 16.722656 Z M 46.046875 16.722656 "/>
<path style=" stroke:none;fill-rule:nonzero;fill:rgb(0%,0%,0%);fill-opacity:1;" d="M 46.046875 22.941406 C 47.417969 22.941406 48.734375 23.640625 48.734375 25.15625 C 48.734375 26.921875 47.367188 28.164062 46.199219 28.863281 C 45.328125 29.382812 44.332031 29.707031 43.3125 29.707031 C 41.945312 29.707031 40.625 29.011719 40.625 27.496094 C 40.625 25.726562 41.996094 24.484375 43.164062 23.789062 C 44.035156 23.265625 45.027344 22.941406 46.046875 22.941406 Z M 46.046875 22.941406 "/>
</g>
</svg>
