<?xml version="1.0" encoding="UTF-8"?>
<svg xmlns="http://www.w3.org/2000/svg" xmlns:xlink="http://www.w3.org/1999/xlink" width="76.583943pt" height="59.215575pt" viewBox="0 0 76.583943 59.215575" version="1.1">
<g id="surface1">
<path style="fill:none;stroke-width:0.1;stroke-linecap:round;stroke-linejoin:round;stroke:rgb(0%,0%,0%);stroke-opacity:1;stroke-miterlimit:4;" d="M 0.049863 0.000289441 L 9.973561 0.000289441 " transform="matrix(6.218149,0,0,6.218149,4.561038,50.34195)"/>
<path style="fill:none;stroke-width:0.1;stroke-linecap:round;stroke-linejoin:round;stroke:rgb(0%,0%,0%);stroke-opacity:1;stroke-miterlimit:4;" d="M 0.049863 0.000192316 L 9.973561 0.000192316 " transform="matrix(6.218149,0,0,6.218149,4.561038,44.123804)"/>
<path style="fill:none;stroke-width:0.1;stroke-linecap:round;stroke-linejoin:round;stroke:rgb(0%,0%,0%);stroke-opacity:1;stroke-miterlimit:4;" d="M 0.049863 0.0000956673 L 9.973561 0.0000956673 " transform="matrix(6.218149,0,0,6.218149,4.561038,37.905655)"/>
<path style="fill:none;stroke-width:0.1;stroke-linecap:round;stroke-linejoin:round;stroke:rgb(0%,0%,0%);stroke-opacity:1;stroke-miterlimit:4;" d="M 0.049863 -0.000000981293 L 9.973561 -0.000000981293 " transform="matrix(6.218149,0,0,6.218149,4.561038,31.687506)"/>
<path style="fill:none;stroke-width:0.1;stroke-linecap:round;stroke-linejoin:round;stroke:rgb(0%,0%,0%);stroke-opacity:1;stroke-miterlimit:4;" d="M 0.049863 -0.0000976299 L 9.973561 -0.0000976299 " transform="matrix(6.218149,0,0,6.218149,4.561038,25.469357)"/>
<path style=" stroke:none;fill-rule:nonzero;fill:rgb(0%,0%,0%);fill-opacity:1;" d="M 47.753906 18.628906 L 57.738281 18.628906 C 58.082031 18.628906 58.359375 18.90625 58.359375 19.25 C 58.359375 19.59375 58.082031 19.871094 57.738281 19.871094 L 47.753906 19.871094 C 47.410156 19.871094 47.132812 19.59375 47.132812 19.25 C 47.132812 18.90625 47.410156 18.628906 47.753906 18.628906 Z M 47.753906 18.628906 "/>
<path style=" stroke:none;fill-rule:nonzero;fill:rgb(0%,0%,0%);fill-opacity:1;" d="M 48.46875 17.300781 L 48.78125 17.300781 C 48.917969 17.300781 49.03125 17.410156 49.03125 17.546875 L 49.03125 50.09375 C 49.03125 50.230469 48.917969 50.34375 48.78125 50.34375 L 48.46875 50.34375 C 48.332031 50.34375 48.222656 50.230469 48.222656 50.09375 L 48.222656 17.546875 C 48.222656 17.410156 48.332031 17.300781 48.46875 17.300781 Z M 48.46875 17.300781 "/>
<path style=" stroke:none;fill-rule:nonzero;fill:rgb(0%,0%,0%);fill-opacity:1;" d="M 41.742188 15.121094 L 41.71875 16.765625 L 41.71875 17.039062 C 41.71875 17.585938 41.742188 18.132812 41.816406 18.679688 C 42.9375 17.734375 44.128906 16.6875 44.128906 15.222656 C 44.128906 14.402344 43.78125 13.554688 43.058594 13.554688 C 42.289062 13.554688 41.765625 14.300781 41.742188 15.121094 Z M 40.695312 19.574219 L 40.398438 4.773438 C 40.597656 4.652344 40.847656 4.578125 41.070312 4.578125 C 41.292969 4.578125 41.542969 4.652344 41.742188 4.773438 L 41.566406 13.355469 C 42.191406 12.835938 43.011719 12.511719 43.832031 12.511719 C 45.125 12.511719 46.042969 13.703125 46.042969 15.046875 C 46.042969 17.039062 43.90625 17.957031 42.386719 19.25 C 42.015625 19.574219 41.792969 20.195312 41.269531 20.195312 C 40.945312 20.195312 40.695312 19.921875 40.695312 19.574219 Z M 40.695312 19.574219 "/>
<path style=" stroke:none;fill-rule:nonzero;fill:rgb(0%,0%,0%);fill-opacity:1;" d="M 31.371094 21.339844 L 31.34375 22.980469 L 31.34375 23.253906 C 31.34375 23.804688 31.371094 24.351562 31.445312 24.898438 C 32.5625 23.953125 33.757812 22.90625 33.757812 21.441406 C 33.757812 20.621094 33.410156 19.773438 32.6875 19.773438 C 31.917969 19.773438 31.394531 20.519531 31.371094 21.339844 Z M 30.324219 25.792969 L 30.027344 10.992188 C 30.226562 10.871094 30.472656 10.792969 30.699219 10.792969 C 30.921875 10.792969 31.171875 10.871094 31.371094 10.992188 L 31.195312 19.574219 C 31.816406 19.050781 32.636719 18.730469 33.460938 18.730469 C 34.753906 18.730469 35.671875 19.921875 35.671875 21.265625 C 35.671875 23.253906 33.535156 24.175781 32.015625 25.46875 C 31.644531 25.792969 31.417969 26.414062 30.898438 26.414062 C 30.574219 26.414062 30.324219 26.140625 30.324219 25.792969 Z M 30.324219 25.792969 "/>
<path style=" stroke:none;fill-rule:nonzero;fill:rgb(0%,0%,0%);fill-opacity:1;" d="M 38.257812 27.558594 L 38.234375 29.199219 L 38.234375 29.472656 C 38.234375 30.019531 38.257812 30.566406 38.335938 31.117188 C 39.453125 30.171875 40.648438 29.125 40.648438 27.65625 C 40.648438 26.835938 40.300781 25.992188 39.578125 25.992188 C 38.808594 25.992188 38.285156 26.738281 38.257812 27.558594 Z M 37.214844 32.011719 L 36.917969 17.210938 C 37.117188 17.085938 37.363281 17.011719 37.589844 17.011719 C 37.8125 17.011719 38.0625 17.085938 38.257812 17.210938 L 38.085938 25.792969 C 38.707031 25.269531 39.527344 24.945312 40.347656 24.945312 C 41.640625 24.945312 42.5625 26.140625 42.5625 27.484375 C 42.5625 29.472656 40.421875 30.394531 38.90625 31.6875 C 38.535156 32.011719 38.308594 32.632812 37.785156 32.632812 C 37.464844 32.632812 37.214844 32.359375 37.214844 32.011719 Z M 37.214844 32.011719 "/>
<path style=" stroke:none;fill-rule:nonzero;fill:rgb(0%,0%,0%);fill-opacity:1;" d="M 23.390625 34.796875 C 23.390625 34.101562 23.960938 33.527344 24.65625 33.527344 C 25.355469 33.527344 25.925781 34.101562 25.925781 34.796875 C 25.925781 35.492188 25.355469 36.066406 24.65625 36.066406 C 23.960938 36.066406 23.390625 35.492188 23.390625 34.796875 Z M 23.390625 28.578125 C 23.390625 27.882812 23.960938 27.308594 24.65625 27.308594 C 25.355469 27.308594 25.925781 27.882812 25.925781 28.578125 C 25.925781 29.273438 25.355469 29.847656 24.65625 29.847656 C 23.960938 29.847656 23.390625 29.273438 23.390625 28.578125 Z M 15.304688 25.144531 C 19.585938 25.144531 22.59375 27.335938 22.59375 31.390625 C 22.59375 37.929688 16.050781 41.6875 9.757812 44.347656 C 9.683594 44.421875 9.609375 44.445312 9.535156 44.445312 C 9.363281 44.445312 9.210938 44.296875 9.210938 44.125 C 9.210938 44.050781 9.238281 43.972656 9.3125 43.898438 C 14.335938 40.964844 19.558594 37.308594 19.558594 31.636719 C 19.558594 28.652344 17.992188 25.792969 15.304688 25.792969 C 13.464844 25.792969 12.097656 27.136719 11.476562 28.925781 C 11.75 28.800781 12.023438 28.726562 12.320312 28.726562 C 13.6875 28.726562 14.808594 29.847656 14.808594 31.214844 C 14.808594 32.65625 13.714844 33.851562 12.320312 33.851562 C 10.828125 33.851562 9.535156 32.683594 9.535156 31.214844 C 9.535156 27.90625 12.074219 25.144531 15.304688 25.144531 Z M 15.304688 25.144531 "/>
<path style=" stroke:none;fill-rule:nonzero;fill:rgb(0%,0%,0%);fill-opacity:1;" d="M 53.644531 12.757812 C 55.011719 12.757812 56.328125 13.457031 56.328125 14.972656 C 56.328125 16.738281 54.960938 17.984375 53.792969 18.679688 C 52.921875 19.203125 51.925781 19.523438 50.90625 19.523438 C 49.539062 19.523438 48.222656 18.828125 48.222656 17.3125 C 48.222656 15.546875 49.589844 14.300781 50.757812 13.605469 C 51.628906 13.082031 52.625 12.757812 53.644531 12.757812 Z M 53.644531 12.757812 "/>
<path style=" stroke:none;fill-rule:nonzero;fill:rgb(0%,0%,0%);fill-opacity:1;" d="M 53.644531 18.976562 C 55.011719 18.976562 56.328125 19.675781 56.328125 21.191406 C 56.328125 22.957031 54.960938 24.199219 53.792969 24.898438 C 52.921875 25.417969 51.925781 25.742188 50.90625 25.742188 C 49.539062 25.742188 48.222656 25.046875 48.222656 23.527344 C 48.222656 21.761719 49.589844 20.519531 50.757812 19.824219 C 51.628906 19.300781 52.625 18.976562 53.644531 18.976562 Z M 53.644531 18.976562 "/>
<path style=" stroke:none;fill-rule:nonzero;fill:rgb(0%,0%,0%);fill-opacity:1;" d="M 53.644531 25.195312 C 55.011719 25.195312 56.328125 25.890625 56.328125 27.410156 C 56.328125 29.175781 54.960938 30.417969 53.792969 31.117188 C 52.921875 31.636719 51.925781 31.960938 50.90625 31.960938 C 49.539062 31.960938 48.222656 31.265625 48.222656 29.746094 C 48.222656 27.980469 49.589844 26.738281 50.757812 26.042969 C 51.628906 25.519531 52.625 25.195312 53.644531 25.195312 Z M 53.644531 25.195312 "/>
</g>
</svg>
