<?xml version="1.0" encoding="UTF-8"?>
<svg xmlns="http://www.w3.org/2000/svg" xmlns:xlink="http://www.w3.org/1999/xlink" width="72.982108pt" height="60.920484pt" viewBox="0 0 72.982108 60.920484" version="1.1">
<g id="surface1">
<path style="fill:none;stroke-width:0.1;stroke-linecap:round;stroke-linejoin:round;stroke:rgb(0%,0%,0%);stroke-opacity:1;stroke-miterlimit:4;" d="M 0.049863 0.00023304 L 9.431423 0.00023304 " transform="matrix(6.218149,0,0,6.218149,4.561038,41.88527)"/>
<path style="fill:none;stroke-width:0.1;stroke-linecap:round;stroke-linejoin:round;stroke:rgb(0%,0%,0%);stroke-opacity:1;stroke-miterlimit:4;" d="M 0.049863 0.000136391 L 9.431423 0.000136391 " transform="matrix(6.218149,0,0,6.218149,4.561038,35.667121)"/>
<path style="fill:none;stroke-width:0.1;stroke-linecap:round;stroke-linejoin:round;stroke:rgb(0%,0%,0%);stroke-opacity:1;stroke-miterlimit:4;" d="M 0.049863 0.0000397429 L 9.431423 0.0000397429 " transform="matrix(6.218149,0,0,6.218149,4.561038,29.448972)"/>
<path style="fill:none;stroke-width:0.1;stroke-linecap:round;stroke-linejoin:round;stroke:rgb(0%,0%,0%);stroke-opacity:1;stroke-miterlimit:4;" d="M 0.049863 -0.0000569057 L 9.431423 -0.0000569057 " transform="matrix(6.218149,0,0,6.218149,4.561038,23.230823)"/>
<path style="fill:none;stroke-width:0.1;stroke-linecap:round;stroke-linejoin:round;stroke:rgb(0%,0%,0%);stroke-opacity:1;stroke-miterlimit:4;" d="M 0.049863 -0.000153554 L 9.431423 -0.000153554 " transform="matrix(6.218149,0,0,6.218149,4.561038,17.012674)"/>
<path style=" stroke:none;fill-rule:nonzero;fill:rgb(0%,0%,0%);fill-opacity:1;" d="M 41.203125 21.664062 C 41.203125 21.914062 41.003906 22.136719 40.757812 22.136719 C 40.507812 22.136719 40.285156 21.914062 40.285156 21.664062 L 40.285156 18.058594 L 38.21875 18.828125 L 38.21875 22.757812 C 38.21875 23.007812 37.996094 23.230469 37.746094 23.230469 C 37.5 23.230469 37.300781 23.007812 37.300781 22.757812 L 37.300781 19.152344 L 36.503906 19.449219 C 36.453125 19.476562 36.378906 19.476562 36.328125 19.476562 C 36.054688 19.476562 35.832031 19.25 35.832031 18.976562 L 35.832031 17.484375 C 35.832031 17.285156 35.957031 17.085938 36.15625 17.011719 L 37.300781 16.613281 L 37.300781 12.636719 L 36.503906 12.910156 C 36.453125 12.933594 36.378906 12.933594 36.328125 12.933594 C 36.054688 12.933594 35.832031 12.710938 35.832031 12.4375 L 35.832031 10.945312 C 35.832031 10.746094 35.957031 10.570312 36.15625 10.496094 L 37.300781 10.074219 L 37.300781 6.144531 C 37.300781 5.894531 37.5 5.671875 37.746094 5.671875 C 37.996094 5.671875 38.21875 5.894531 38.21875 6.144531 L 38.21875 9.75 L 40.285156 8.980469 L 40.285156 5.050781 C 40.285156 4.800781 40.507812 4.578125 40.757812 4.578125 C 41.003906 4.578125 41.203125 4.800781 41.203125 5.050781 L 41.203125 8.65625 L 42 8.355469 C 42.050781 8.332031 42.125 8.332031 42.175781 8.332031 C 42.449219 8.332031 42.671875 8.554688 42.671875 8.828125 L 42.671875 10.320312 C 42.671875 10.519531 42.546875 10.71875 42.347656 10.792969 L 41.203125 11.191406 L 41.203125 15.171875 L 42 14.898438 C 42.050781 14.875 42.125 14.875 42.175781 14.875 C 42.449219 14.875 42.671875 15.097656 42.671875 15.371094 L 42.671875 16.863281 C 42.671875 17.0625 42.546875 17.238281 42.347656 17.3125 L 41.203125 17.734375 Z M 38.21875 12.285156 L 38.21875 16.265625 L 40.285156 15.519531 L 40.285156 11.539062 Z M 38.21875 12.285156 "/>
<path style=" stroke:none;fill-rule:nonzero;fill:rgb(0%,0%,0%);fill-opacity:1;" d="M 34.589844 34.101562 C 34.589844 34.347656 34.390625 34.574219 34.140625 34.574219 C 33.890625 34.574219 33.667969 34.347656 33.667969 34.101562 L 33.667969 30.492188 L 31.605469 31.265625 L 31.605469 35.195312 C 31.605469 35.441406 31.378906 35.667969 31.132812 35.667969 C 30.882812 35.667969 30.683594 35.441406 30.683594 35.195312 L 30.683594 31.589844 L 29.886719 31.886719 C 29.835938 31.910156 29.761719 31.910156 29.714844 31.910156 C 29.441406 31.910156 29.214844 31.6875 29.214844 31.414062 L 29.214844 29.921875 C 29.214844 29.722656 29.339844 29.523438 29.539062 29.449219 L 30.683594 29.050781 L 30.683594 25.070312 L 29.886719 25.34375 C 29.835938 25.371094 29.761719 25.371094 29.714844 25.371094 C 29.441406 25.371094 29.214844 25.144531 29.214844 24.871094 L 29.214844 23.378906 C 29.214844 23.179688 29.339844 23.007812 29.539062 22.933594 L 30.683594 22.507812 L 30.683594 18.578125 C 30.683594 18.332031 30.882812 18.105469 31.132812 18.105469 C 31.378906 18.105469 31.605469 18.332031 31.605469 18.578125 L 31.605469 22.1875 L 33.667969 21.414062 L 33.667969 17.484375 C 33.667969 17.238281 33.890625 17.011719 34.140625 17.011719 C 34.390625 17.011719 34.589844 17.238281 34.589844 17.484375 L 34.589844 21.089844 L 35.382812 20.792969 C 35.433594 20.769531 35.507812 20.769531 35.558594 20.769531 C 35.832031 20.769531 36.054688 20.992188 36.054688 21.265625 L 36.054688 22.757812 C 36.054688 22.957031 35.929688 23.15625 35.734375 23.230469 L 34.589844 23.628906 L 34.589844 27.609375 L 35.382812 27.335938 C 35.433594 27.308594 35.507812 27.308594 35.558594 27.308594 C 35.832031 27.308594 36.054688 27.535156 36.054688 27.808594 L 36.054688 29.300781 C 36.054688 29.5 35.929688 29.671875 35.734375 29.746094 L 34.589844 30.171875 Z M 31.605469 24.722656 L 31.605469 28.703125 L 33.667969 27.957031 L 33.667969 23.976562 Z M 31.605469 24.722656 "/>
<path style=" stroke:none;fill-rule:nonzero;fill:rgb(0%,0%,0%);fill-opacity:1;" d="M 45.097656 15.0625 L 45.40625 15.0625 C 45.546875 15.0625 45.65625 15.171875 45.65625 15.308594 L 45.65625 52 C 45.65625 52.136719 45.546875 52.25 45.40625 52.25 L 45.097656 52.25 C 44.960938 52.25 44.847656 52.136719 44.847656 52 L 44.847656 15.308594 C 44.847656 15.171875 44.960938 15.0625 45.097656 15.0625 Z M 45.097656 15.0625 "/>
<path style=" stroke:none;fill-rule:nonzero;fill:rgb(0%,0%,0%);fill-opacity:1;" d="M 16.152344 51.460938 L 16.003906 51.460938 C 13.316406 51.460938 11.152344 49.273438 11.152344 46.5625 C 11.152344 45.117188 12.46875 44 13.9375 44 C 15.28125 44 16.300781 45.167969 16.300781 46.5625 C 16.300781 47.855469 15.230469 48.925781 13.9375 48.925781 C 13.664062 48.925781 13.414062 48.875 13.167969 48.773438 C 13.8125 49.746094 14.859375 50.390625 16.078125 50.390625 L 16.175781 50.390625 Z M 21 40.714844 C 22.691406 40.121094 23.8125 38.351562 23.8125 36.636719 C 23.8125 34.398438 22.171875 32.183594 19.507812 31.910156 C 20.105469 34.796875 20.652344 37.65625 21 40.714844 Z M 11.375 34.96875 C 11.375 38.328125 14.585938 41.113281 17.941406 41.113281 C 18.640625 41.113281 19.308594 41.066406 19.980469 40.964844 C 19.632812 37.804688 19.0625 34.871094 18.414062 31.910156 C 16.449219 32.109375 15.332031 33.429688 15.332031 34.871094 C 15.332031 35.964844 15.953125 37.132812 17.34375 37.929688 C 17.46875 38.054688 17.519531 38.179688 17.519531 38.304688 C 17.519531 38.578125 17.269531 38.851562 16.972656 38.851562 C 16.898438 38.851562 16.824219 38.824219 16.75 38.800781 C 14.757812 37.730469 13.839844 35.941406 13.839844 34.199219 C 13.839844 32.011719 15.28125 29.871094 17.816406 29.300781 C 17.46875 27.855469 17.097656 26.390625 16.675781 24.945312 C 14.011719 27.957031 11.375 30.992188 11.375 34.96875 Z M 17.867188 42.183594 C 13.191406 42.183594 9.585938 37.90625 9.585938 32.882812 C 9.585938 28.480469 12.84375 25.269531 15.753906 21.914062 C 15.28125 20.371094 14.832031 18.804688 14.632812 17.1875 C 14.484375 15.894531 14.460938 14.601562 14.460938 13.308594 C 14.460938 10.445312 15.828125 7.734375 18.167969 6.042969 C 18.316406 5.917969 18.515625 5.917969 18.664062 6.042969 C 20.429688 8.132812 21.972656 12.136719 21.972656 14.949219 C 21.972656 18.503906 19.832031 21.289062 17.496094 24 C 18.015625 25.691406 18.464844 27.433594 18.886719 29.152344 C 18.988281 29.152344 19.113281 29.125 19.210938 29.125 C 23.066406 29.125 25.578125 32.308594 25.578125 35.617188 C 25.578125 37.507812 24.757812 39.449219 22.917969 40.839844 C 22.371094 41.261719 21.746094 41.535156 21.101562 41.734375 C 21.175781 42.605469 21.226562 43.476562 21.226562 44.347656 C 21.226562 44.820312 21.199219 45.316406 21.175781 45.789062 C 21 48.75 18.988281 51.386719 16.152344 51.460938 L 16.175781 50.390625 C 18.488281 50.34375 19.980469 48.101562 20.132812 45.640625 C 20.15625 45.191406 20.179688 44.722656 20.179688 44.273438 C 20.179688 43.503906 20.15625 42.753906 20.082031 41.984375 C 19.359375 42.109375 18.640625 42.183594 17.867188 42.183594 Z M 20.179688 12.882812 C 20.179688 11.515625 20.082031 10.917969 19.683594 9.675781 C 17.222656 10.871094 15.652344 13.382812 15.652344 16.117188 C 15.652344 17.957031 16.101562 19.425781 16.550781 20.941406 C 18.539062 18.53125 20.179688 16.019531 20.179688 12.882812 Z M 20.179688 12.882812 "/>
<path style=" stroke:none;fill-rule:nonzero;fill:rgb(0%,0%,0%);fill-opacity:1;" d="M 50.269531 10.519531 C 51.636719 10.519531 52.957031 11.21875 52.957031 12.734375 C 52.957031 14.5 51.589844 15.746094 50.417969 16.441406 C 49.550781 16.964844 48.554688 17.285156 47.535156 17.285156 C 46.167969 17.285156 44.847656 16.589844 44.847656 15.074219 C 44.847656 13.308594 46.214844 12.0625 47.386719 11.367188 C 48.257812 10.84375 49.25 10.519531 50.269531 10.519531 Z M 50.269531 10.519531 "/>
<path style=" stroke:none;fill-rule:nonzero;fill:rgb(0%,0%,0%);fill-opacity:1;" d="M 50.269531 16.738281 C 51.636719 16.738281 52.957031 17.433594 52.957031 18.953125 C 52.957031 20.71875 51.589844 21.960938 50.417969 22.660156 C 49.550781 23.179688 48.554688 23.503906 47.535156 23.503906 C 46.167969 23.503906 44.847656 22.808594 44.847656 21.289062 C 44.847656 19.523438 46.214844 18.28125 47.386719 17.585938 C 48.257812 17.0625 49.25 16.738281 50.269531 16.738281 Z M 50.269531 16.738281 "/>
<path style=" stroke:none;fill-rule:nonzero;fill:rgb(0%,0%,0%);fill-opacity:1;" d="M 50.269531 22.957031 C 51.636719 22.957031 52.957031 23.652344 52.957031 25.171875 C 52.957031 26.9375 51.589844 28.179688 50.417969 28.875 C 49.550781 29.398438 48.554688 29.722656 47.535156 29.722656 C 46.167969 29.722656 44.847656 29.027344 44.847656 27.507812 C 44.847656 25.742188 46.214844 24.5 47.386719 23.804688 C 48.257812 23.28125 49.25 22.957031 50.269531 22.957031 Z M 50.269531 22.957031 "/>
<path style=" stroke:none;fill-rule:nonzero;fill:rgb(0%,0%,0%);fill-opacity:1;" d="M 50.269531 29.175781 C 51.636719 29.175781 52.957031 29.871094 52.957031 31.390625 C 52.957031 33.15625 51.589844 34.398438 50.417969 35.09375 C 49.550781 35.617188 48.554688 35.941406 47.535156 35.941406 C 46.167969 35.941406 44.847656 35.246094 44.847656 33.726562 C 44.847656 31.960938 46.214844 30.71875 47.386719 30.019531 C 48.257812 29.5 49.25 29.175781 50.269531 29.175781 Z M 50.269531 29.175781 "/>
</g>
</svg>
