<?xml version="1.0" encoding="UTF-8"?>
<svg xmlns="http://www.w3.org/2000/svg" xmlns:xlink="http://www.w3.org/1999/xlink" width="82.054772pt" height="60.145423pt" viewBox="0 0 82.054772 60.145423" version="1.1">
<g id="surface1">
<path style="fill:none;stroke-width:0.1;stroke-linecap:round;stroke-linejoin:round;stroke:rgb(0%,0%,0%);stroke-opacity:1;stroke-miterlimit:4;" d="M 0.049863 -0.000250188 L 10.797133 -0.000250188 " transform="matrix(6.218149,0,0,6.218149,4.561038,51.212493)"/>
<path style="fill:none;stroke-width:0.1;stroke-linecap:round;stroke-linejoin:round;stroke:rgb(0%,0%,0%);stroke-opacity:1;stroke-miterlimit:4;" d="M 0.049863 0.000281364 L 10.797133 0.000281364 " transform="matrix(6.218149,0,0,6.218149,4.561038,44.994344)"/>
<path style="fill:none;stroke-width:0.1;stroke-linecap:round;stroke-linejoin:round;stroke:rgb(0%,0%,0%);stroke-opacity:1;stroke-miterlimit:4;" d="M 0.049863 0.000184716 L 10.797133 0.000184716 " transform="matrix(6.218149,0,0,6.218149,4.561038,38.776195)"/>
<path style="fill:none;stroke-width:0.1;stroke-linecap:round;stroke-linejoin:round;stroke:rgb(0%,0%,0%);stroke-opacity:1;stroke-miterlimit:4;" d="M 0.049863 0.0000880672 L 10.797133 0.0000880672 " transform="matrix(6.218149,0,0,6.218149,4.561038,32.558046)"/>
<path style="fill:none;stroke-width:0.1;stroke-linecap:round;stroke-linejoin:round;stroke:rgb(0%,0%,0%);stroke-opacity:1;stroke-miterlimit:4;" d="M 0.049863 -0.00000858141 L 10.797133 -0.00000858141 " transform="matrix(6.218149,0,0,6.218149,4.561038,26.339897)"/>
<path style=" stroke:none;fill-rule:nonzero;fill:rgb(0%,0%,0%);fill-opacity:1;" d="M 52.875 13.28125 L 62.859375 13.28125 C 63.203125 13.28125 63.480469 13.558594 63.480469 13.902344 C 63.480469 14.246094 63.203125 14.527344 62.859375 14.527344 L 52.875 14.527344 C 52.53125 14.527344 52.253906 14.246094 52.253906 13.902344 C 52.253906 13.558594 52.53125 13.28125 52.875 13.28125 Z M 52.875 13.28125 "/>
<path style=" stroke:none;fill-rule:nonzero;fill:rgb(0%,0%,0%);fill-opacity:1;" d="M 51.9375 19.5 L 62.859375 19.5 C 63.203125 19.5 63.480469 19.777344 63.480469 20.121094 C 63.480469 20.464844 63.203125 20.742188 62.859375 20.742188 L 51.9375 20.742188 C 51.59375 20.742188 51.316406 20.464844 51.316406 20.121094 C 51.316406 19.777344 51.59375 19.5 51.9375 19.5 Z M 51.9375 19.5 "/>
<path style=" stroke:none;fill-rule:nonzero;fill:rgb(0%,0%,0%);fill-opacity:1;" d="M 53.589844 15.0625 L 53.902344 15.0625 C 54.039062 15.0625 54.152344 15.171875 54.152344 15.308594 L 54.152344 47.855469 C 54.152344 47.992188 54.039062 48.101562 53.902344 48.101562 L 53.589844 48.101562 C 53.453125 48.101562 53.34375 47.992188 53.34375 47.855469 L 53.34375 15.308594 C 53.34375 15.171875 53.453125 15.0625 53.589844 15.0625 Z M 53.589844 15.0625 "/>
<path style=" stroke:none;fill-rule:nonzero;fill:rgb(0%,0%,0%);fill-opacity:1;" d="M 49.699219 21.664062 C 49.699219 21.914062 49.5 22.136719 49.25 22.136719 C 49.003906 22.136719 48.777344 21.914062 48.777344 21.664062 L 48.777344 18.058594 L 46.714844 18.828125 L 46.714844 22.757812 C 46.714844 23.007812 46.492188 23.230469 46.242188 23.230469 C 45.992188 23.230469 45.792969 23.007812 45.792969 22.757812 L 45.792969 19.152344 L 45 19.449219 C 44.949219 19.476562 44.875 19.476562 44.824219 19.476562 C 44.550781 19.476562 44.328125 19.25 44.328125 18.976562 L 44.328125 17.484375 C 44.328125 17.285156 44.449219 17.085938 44.648438 17.011719 L 45.792969 16.613281 L 45.792969 12.636719 L 45 12.910156 C 44.949219 12.933594 44.875 12.933594 44.824219 12.933594 C 44.550781 12.933594 44.328125 12.710938 44.328125 12.4375 L 44.328125 10.945312 C 44.328125 10.746094 44.449219 10.570312 44.648438 10.496094 L 45.792969 10.074219 L 45.792969 6.144531 C 45.792969 5.894531 45.992188 5.671875 46.242188 5.671875 C 46.492188 5.671875 46.714844 5.894531 46.714844 6.144531 L 46.714844 9.75 L 48.777344 8.980469 L 48.777344 5.050781 C 48.777344 4.800781 49.003906 4.578125 49.25 4.578125 C 49.5 4.578125 49.699219 4.800781 49.699219 5.050781 L 49.699219 8.65625 L 50.496094 8.355469 C 50.542969 8.332031 50.621094 8.332031 50.667969 8.332031 C 50.941406 8.332031 51.167969 8.554688 51.167969 8.828125 L 51.167969 10.320312 C 51.167969 10.519531 51.042969 10.71875 50.84375 10.792969 L 49.699219 11.191406 L 49.699219 15.171875 L 50.496094 14.898438 C 50.542969 14.875 50.621094 14.875 50.667969 14.875 C 50.941406 14.875 51.167969 15.097656 51.167969 15.371094 L 51.167969 16.863281 C 51.167969 17.0625 51.042969 17.238281 50.84375 17.3125 L 49.699219 17.734375 Z M 46.714844 12.285156 L 46.714844 16.265625 L 48.777344 15.519531 L 48.777344 11.539062 Z M 46.714844 12.285156 "/>
<path style=" stroke:none;fill-rule:nonzero;fill:rgb(0%,0%,0%);fill-opacity:1;" d="M 33.734375 20.121094 C 34.304688 20.695312 35.125 20.816406 35.945312 20.816406 C 36.097656 20.816406 36.195312 20.917969 36.195312 21.066406 L 36.417969 23.230469 C 36.445312 23.378906 36.320312 23.503906 36.171875 23.480469 L 34.007812 23.253906 C 33.882812 23.230469 33.757812 23.132812 33.757812 23.007812 C 33.757812 22.1875 33.632812 21.367188 33.0625 20.792969 C 32.488281 21.367188 32.390625 22.1875 32.390625 23.007812 C 32.390625 23.132812 32.265625 23.230469 32.140625 23.253906 L 29.953125 23.480469 C 29.804688 23.503906 29.679688 23.378906 29.703125 23.230469 L 29.925781 21.066406 C 29.925781 20.917969 30.027344 20.816406 30.175781 20.816406 C 30.996094 20.816406 31.816406 20.695312 32.390625 20.121094 C 31.816406 19.550781 30.996094 19.425781 30.175781 19.425781 C 30.027344 19.425781 29.925781 19.324219 29.925781 19.175781 L 29.703125 17.011719 C 29.679688 16.863281 29.804688 16.738281 29.953125 16.765625 L 32.140625 16.988281 C 32.265625 17.011719 32.363281 17.113281 32.363281 17.238281 C 32.363281 18.058594 32.488281 18.878906 33.0625 19.449219 C 33.632812 18.878906 33.757812 18.058594 33.757812 17.238281 C 33.757812 17.113281 33.882812 17.011719 34.007812 16.988281 L 36.171875 16.765625 C 36.320312 16.738281 36.445312 16.863281 36.417969 17.011719 L 36.195312 19.175781 C 36.195312 19.324219 36.097656 19.425781 35.945312 19.425781 C 35.125 19.425781 34.304688 19.550781 33.734375 20.121094 Z M 33.734375 20.121094 "/>
<path style=" stroke:none;fill-rule:nonzero;fill:rgb(0%,0%,0%);fill-opacity:1;" d="M 43.082031 34.101562 C 43.082031 34.347656 42.882812 34.574219 42.636719 34.574219 C 42.386719 34.574219 42.164062 34.347656 42.164062 34.101562 L 42.164062 30.492188 L 40.097656 31.265625 L 40.097656 35.195312 C 40.097656 35.441406 39.875 35.667969 39.625 35.667969 C 39.378906 35.667969 39.179688 35.441406 39.179688 35.195312 L 39.179688 31.589844 L 38.382812 31.886719 C 38.332031 31.910156 38.257812 31.910156 38.207031 31.910156 C 37.933594 31.910156 37.710938 31.6875 37.710938 31.414062 L 37.710938 29.921875 C 37.710938 29.722656 37.835938 29.523438 38.035156 29.449219 L 39.179688 29.050781 L 39.179688 25.070312 L 38.382812 25.34375 C 38.332031 25.371094 38.257812 25.371094 38.207031 25.371094 C 37.933594 25.371094 37.710938 25.144531 37.710938 24.871094 L 37.710938 23.378906 C 37.710938 23.179688 37.835938 23.007812 38.035156 22.933594 L 39.179688 22.507812 L 39.179688 18.578125 C 39.179688 18.332031 39.378906 18.105469 39.625 18.105469 C 39.875 18.105469 40.097656 18.332031 40.097656 18.578125 L 40.097656 22.1875 L 42.164062 21.414062 L 42.164062 17.484375 C 42.164062 17.238281 42.386719 17.011719 42.636719 17.011719 C 42.882812 17.011719 43.082031 17.238281 43.082031 17.484375 L 43.082031 21.089844 L 43.878906 20.792969 C 43.929688 20.769531 44.003906 20.769531 44.054688 20.769531 C 44.328125 20.769531 44.550781 20.992188 44.550781 21.265625 L 44.550781 22.757812 C 44.550781 22.957031 44.425781 23.15625 44.226562 23.230469 L 43.082031 23.628906 L 43.082031 27.609375 L 43.878906 27.335938 C 43.929688 27.308594 44.003906 27.308594 44.054688 27.308594 C 44.328125 27.308594 44.550781 27.535156 44.550781 27.808594 L 44.550781 29.300781 C 44.550781 29.5 44.425781 29.671875 44.226562 29.746094 L 43.082031 30.171875 Z M 40.097656 24.722656 L 40.097656 28.703125 L 42.164062 27.957031 L 42.164062 23.976562 Z M 40.097656 24.722656 "/>
<path style=" stroke:none;fill-rule:nonzero;fill:rgb(0%,0%,0%);fill-opacity:1;" d="M 23.390625 35.667969 C 23.390625 34.96875 23.960938 34.398438 24.65625 34.398438 C 25.355469 34.398438 25.925781 34.96875 25.925781 35.667969 C 25.925781 36.363281 25.355469 36.9375 24.65625 36.9375 C 23.960938 36.9375 23.390625 36.363281 23.390625 35.667969 Z M 23.390625 29.449219 C 23.390625 28.753906 23.960938 28.179688 24.65625 28.179688 C 25.355469 28.179688 25.925781 28.753906 25.925781 29.449219 C 25.925781 30.144531 25.355469 30.71875 24.65625 30.71875 C 23.960938 30.71875 23.390625 30.144531 23.390625 29.449219 Z M 15.304688 26.015625 C 19.585938 26.015625 22.59375 28.207031 22.59375 32.257812 C 22.59375 38.800781 16.050781 42.558594 9.757812 45.21875 C 9.683594 45.292969 9.609375 45.316406 9.535156 45.316406 C 9.363281 45.316406 9.210938 45.167969 9.210938 44.996094 C 9.210938 44.917969 9.238281 44.84375 9.3125 44.769531 C 14.335938 41.835938 19.558594 38.179688 19.558594 32.507812 C 19.558594 29.523438 17.992188 26.664062 15.304688 26.664062 C 13.464844 26.664062 12.097656 28.007812 11.476562 29.796875 C 11.75 29.671875 12.023438 29.597656 12.320312 29.597656 C 13.6875 29.597656 14.808594 30.71875 14.808594 32.085938 C 14.808594 33.527344 13.714844 34.722656 12.320312 34.722656 C 10.828125 34.722656 9.535156 33.554688 9.535156 32.085938 C 9.535156 28.777344 12.074219 26.015625 15.304688 26.015625 Z M 15.304688 26.015625 "/>
<path style=" stroke:none;fill-rule:nonzero;fill:rgb(0%,0%,0%);fill-opacity:1;" d="M 58.765625 10.519531 C 60.132812 10.519531 61.453125 11.21875 61.453125 12.734375 C 61.453125 14.5 60.082031 15.746094 58.914062 16.441406 C 58.042969 16.964844 57.050781 17.285156 56.027344 17.285156 C 54.660156 17.285156 53.34375 16.589844 53.34375 15.074219 C 53.34375 13.308594 54.710938 12.0625 55.878906 11.367188 C 56.75 10.84375 57.746094 10.519531 58.765625 10.519531 Z M 58.765625 10.519531 "/>
<path style=" stroke:none;fill-rule:nonzero;fill:rgb(0%,0%,0%);fill-opacity:1;" d="M 58.765625 16.738281 C 60.132812 16.738281 61.453125 17.433594 61.453125 18.953125 C 61.453125 20.71875 60.082031 21.960938 58.914062 22.660156 C 58.042969 23.179688 57.050781 23.503906 56.027344 23.503906 C 54.660156 23.503906 53.34375 22.808594 53.34375 21.289062 C 53.34375 19.523438 54.710938 18.28125 55.878906 17.585938 C 56.75 17.0625 57.746094 16.738281 58.765625 16.738281 Z M 58.765625 16.738281 "/>
<path style=" stroke:none;fill-rule:nonzero;fill:rgb(0%,0%,0%);fill-opacity:1;" d="M 58.765625 22.957031 C 60.132812 22.957031 61.453125 23.652344 61.453125 25.171875 C 61.453125 26.9375 60.082031 28.179688 58.914062 28.875 C 58.042969 29.398438 57.050781 29.722656 56.027344 29.722656 C 54.660156 29.722656 53.34375 29.027344 53.34375 27.507812 C 53.34375 25.742188 54.710938 24.5 55.878906 23.804688 C 56.75 23.28125 57.746094 22.957031 58.765625 22.957031 Z M 58.765625 22.957031 "/>
</g>
</svg>
