<?xml version="1.0" encoding="UTF-8"?>
<svg xmlns="http://www.w3.org/2000/svg" xmlns:xlink="http://www.w3.org/1999/xlink" width="68.472344pt" height="73.362519pt" viewBox="0 0 68.472344 73.362519" version="1.1">
<g id="surface1">
<path style="fill:none;stroke-width:0.1;stroke-linecap:round;stroke-linejoin:round;stroke:rgb(0%,0%,0%);stroke-opacity:1;stroke-miterlimit:4;" d="M 0.049863 -0.000201864 L 8.752337 -0.000201864 " transform="matrix(6.218149,0,0,6.218149,4.561038,54.321568)"/>
<path style="fill:none;stroke-width:0.1;stroke-linecap:round;stroke-linejoin:round;stroke:rgb(0%,0%,0%);stroke-opacity:1;stroke-miterlimit:4;" d="M 0.049863 -0.000298513 L 8.752337 -0.000298513 " transform="matrix(6.218149,0,0,6.218149,4.561038,48.103419)"/>
<path style="fill:none;stroke-width:0.1;stroke-linecap:round;stroke-linejoin:round;stroke:rgb(0%,0%,0%);stroke-opacity:1;stroke-miterlimit:4;" d="M 0.049863 0.00023304 L 8.752337 0.00023304 " transform="matrix(6.218149,0,0,6.218149,4.561038,41.88527)"/>
<path style="fill:none;stroke-width:0.1;stroke-linecap:round;stroke-linejoin:round;stroke:rgb(0%,0%,0%);stroke-opacity:1;stroke-miterlimit:4;" d="M 0.049863 0.000136391 L 8.752337 0.000136391 " transform="matrix(6.218149,0,0,6.218149,4.561038,35.667121)"/>
<path style="fill:none;stroke-width:0.1;stroke-linecap:round;stroke-linejoin:round;stroke:rgb(0%,0%,0%);stroke-opacity:1;stroke-miterlimit:4;" d="M 0.049863 0.0000397429 L 8.752337 0.0000397429 " transform="matrix(6.218149,0,0,6.218149,4.561038,29.448972)"/>
<path style=" stroke:none;fill-rule:nonzero;fill:rgb(0%,0%,0%);fill-opacity:1;" d="M 40.160156 16.390625 L 50.140625 16.390625 C 50.484375 16.390625 50.765625 16.667969 50.765625 17.011719 C 50.765625 17.355469 50.484375 17.632812 50.140625 17.632812 L 40.160156 17.632812 C 39.816406 17.632812 39.539062 17.355469 39.539062 17.011719 C 39.539062 16.667969 39.816406 16.390625 40.160156 16.390625 Z M 40.160156 16.390625 "/>
<path style=" stroke:none;fill-rule:nonzero;fill:rgb(0%,0%,0%);fill-opacity:1;" d="M 39.21875 22.609375 L 50.140625 22.609375 C 50.484375 22.609375 50.761719 22.886719 50.761719 23.230469 C 50.761719 23.574219 50.484375 23.851562 50.140625 23.851562 L 39.21875 23.851562 C 38.878906 23.851562 38.597656 23.574219 38.597656 23.230469 C 38.597656 22.886719 38.878906 22.609375 39.21875 22.609375 Z M 39.21875 22.609375 "/>
<path style=" stroke:none;fill-rule:nonzero;fill:rgb(0%,0%,0%);fill-opacity:1;" d="M 36.984375 21.664062 C 36.984375 21.914062 36.785156 22.136719 36.535156 22.136719 C 36.285156 22.136719 36.0625 21.914062 36.0625 21.664062 L 36.0625 18.058594 L 33.996094 18.828125 L 33.996094 22.757812 C 33.996094 23.007812 33.773438 23.230469 33.523438 23.230469 C 33.277344 23.230469 33.078125 23.007812 33.078125 22.757812 L 33.078125 19.152344 L 32.28125 19.449219 C 32.230469 19.476562 32.15625 19.476562 32.109375 19.476562 C 31.832031 19.476562 31.609375 19.25 31.609375 18.976562 L 31.609375 17.484375 C 31.609375 17.285156 31.734375 17.085938 31.933594 17.011719 L 33.078125 16.613281 L 33.078125 12.636719 L 32.28125 12.910156 C 32.230469 12.933594 32.15625 12.933594 32.109375 12.933594 C 31.832031 12.933594 31.609375 12.710938 31.609375 12.4375 L 31.609375 10.945312 C 31.609375 10.746094 31.734375 10.570312 31.933594 10.496094 L 33.078125 10.074219 L 33.078125 6.144531 C 33.078125 5.894531 33.277344 5.671875 33.523438 5.671875 C 33.773438 5.671875 33.996094 5.894531 33.996094 6.144531 L 33.996094 9.75 L 36.0625 8.980469 L 36.0625 5.050781 C 36.0625 4.800781 36.285156 4.578125 36.535156 4.578125 C 36.785156 4.578125 36.984375 4.800781 36.984375 5.050781 L 36.984375 8.65625 L 37.777344 8.355469 C 37.828125 8.332031 37.902344 8.332031 37.953125 8.332031 C 38.226562 8.332031 38.449219 8.554688 38.449219 8.828125 L 38.449219 10.320312 C 38.449219 10.519531 38.324219 10.71875 38.125 10.792969 L 36.984375 11.191406 L 36.984375 15.171875 L 37.777344 14.898438 C 37.828125 14.875 37.902344 14.875 37.953125 14.875 C 38.226562 14.875 38.449219 15.097656 38.449219 15.371094 L 38.449219 16.863281 C 38.449219 17.0625 38.324219 17.238281 38.125 17.3125 L 36.984375 17.734375 Z M 33.996094 12.285156 L 33.996094 16.265625 L 36.0625 15.519531 L 36.0625 11.539062 Z M 33.996094 12.285156 "/>
<path style=" stroke:none;fill-rule:nonzero;fill:rgb(0%,0%,0%);fill-opacity:1;" d="M 40.875 15.0625 L 41.1875 15.0625 C 41.324219 15.0625 41.433594 15.171875 41.433594 15.308594 L 41.433594 47.855469 C 41.433594 47.992188 41.324219 48.101562 41.1875 48.101562 L 40.875 48.101562 C 40.738281 48.101562 40.625 47.992188 40.625 47.855469 L 40.625 15.308594 C 40.625 15.171875 40.738281 15.0625 40.875 15.0625 Z M 40.875 15.0625 "/>
<path style=" stroke:none;fill-rule:nonzero;fill:rgb(0%,0%,0%);fill-opacity:1;" d="M 16.152344 63.898438 L 16.003906 63.898438 C 13.316406 63.898438 11.152344 61.707031 11.152344 58.996094 C 11.152344 57.554688 12.46875 56.4375 13.9375 56.4375 C 15.28125 56.4375 16.300781 57.605469 16.300781 58.996094 C 16.300781 60.289062 15.230469 61.359375 13.9375 61.359375 C 13.664062 61.359375 13.414062 61.3125 13.167969 61.210938 C 13.8125 62.179688 14.859375 62.828125 16.078125 62.828125 L 16.175781 62.828125 Z M 21 53.152344 C 22.691406 52.554688 23.8125 50.789062 23.8125 49.074219 C 23.8125 46.835938 22.171875 44.621094 19.507812 44.347656 C 20.105469 47.234375 20.652344 50.09375 21 53.152344 Z M 11.375 47.40625 C 11.375 50.765625 14.585938 53.550781 17.941406 53.550781 C 18.640625 53.550781 19.308594 53.5 19.980469 53.402344 C 19.632812 50.242188 19.0625 47.308594 18.414062 44.347656 C 16.449219 44.546875 15.332031 45.863281 15.332031 47.308594 C 15.332031 48.402344 15.953125 49.570312 17.34375 50.367188 C 17.46875 50.492188 17.519531 50.617188 17.519531 50.738281 C 17.519531 51.011719 17.269531 51.289062 16.972656 51.289062 C 16.898438 51.289062 16.824219 51.261719 16.75 51.238281 C 14.757812 50.167969 13.839844 48.378906 13.839844 46.636719 C 13.839844 44.445312 15.28125 42.308594 17.816406 41.734375 C 17.46875 40.292969 17.097656 38.824219 16.675781 37.382812 C 14.011719 40.394531 11.375 43.425781 11.375 47.40625 Z M 17.867188 54.621094 C 13.191406 54.621094 9.585938 50.34375 9.585938 45.316406 C 9.585938 40.914062 12.84375 37.707031 15.753906 34.347656 C 15.28125 32.808594 14.832031 31.238281 14.632812 29.625 C 14.484375 28.328125 14.460938 27.035156 14.460938 25.742188 C 14.460938 22.882812 15.828125 20.171875 18.167969 18.480469 C 18.316406 18.355469 18.515625 18.355469 18.664062 18.480469 C 20.429688 20.570312 21.972656 24.574219 21.972656 27.382812 C 21.972656 30.941406 19.832031 33.726562 17.496094 36.4375 C 18.015625 38.128906 18.464844 39.871094 18.886719 41.585938 C 18.988281 41.585938 19.113281 41.5625 19.210938 41.5625 C 23.066406 41.5625 25.578125 44.746094 25.578125 48.054688 C 25.578125 49.945312 24.757812 51.882812 22.917969 53.277344 C 22.371094 53.699219 21.746094 53.972656 21.101562 54.171875 C 21.175781 55.042969 21.226562 55.914062 21.226562 56.785156 C 21.226562 57.257812 21.199219 57.753906 21.175781 58.226562 C 21 61.1875 18.988281 63.824219 16.152344 63.898438 L 16.175781 62.828125 C 18.488281 62.777344 19.980469 60.539062 20.132812 58.078125 C 20.15625 57.628906 20.179688 57.15625 20.179688 56.710938 C 20.179688 55.9375 20.15625 55.191406 20.082031 54.421875 C 19.359375 54.546875 18.640625 54.621094 17.867188 54.621094 Z M 20.179688 25.320312 C 20.179688 23.953125 20.082031 23.355469 19.683594 22.113281 C 17.222656 23.304688 15.652344 25.816406 15.652344 28.554688 C 15.652344 30.394531 16.101562 31.863281 16.550781 33.378906 C 18.539062 30.964844 20.179688 28.453125 20.179688 25.320312 Z M 20.179688 25.320312 "/>
<path style=" stroke:none;fill-rule:nonzero;fill:rgb(0%,0%,0%);fill-opacity:1;" d="M 46.046875 10.519531 C 47.417969 10.519531 48.734375 11.21875 48.734375 12.734375 C 48.734375 14.5 47.367188 15.746094 46.199219 16.441406 C 45.328125 16.964844 44.332031 17.285156 43.3125 17.285156 C 41.945312 17.285156 40.625 16.589844 40.625 15.074219 C 40.625 13.308594 41.996094 12.0625 43.164062 11.367188 C 44.035156 10.84375 45.027344 10.519531 46.046875 10.519531 Z M 46.046875 10.519531 "/>
<path style=" stroke:none;fill-rule:nonzero;fill:rgb(0%,0%,0%);fill-opacity:1;" d="M 46.046875 16.738281 C 47.417969 16.738281 48.734375 17.433594 48.734375 18.953125 C 48.734375 20.71875 47.367188 21.960938 46.199219 22.660156 C 45.328125 23.179688 44.332031 23.503906 43.3125 23.503906 C 41.945312 23.503906 40.625 22.808594 40.625 21.289062 C 40.625 19.523438 41.996094 18.28125 43.164062 17.585938 C 44.035156 17.0625 45.027344 16.738281 46.046875 16.738281 Z M 46.046875 16.738281 "/>
<path style=" stroke:none;fill-rule:nonzero;fill:rgb(0%,0%,0%);fill-opacity:1;" d="M 46.046875 22.957031 C 47.417969 22.957031 48.734375 23.652344 48.734375 25.171875 C 48.734375 26.9375 47.367188 28.179688 46.199219 28.875 C 45.328125 29.398438 44.332031 29.722656 43.3125 29.722656 C 41.945312 29.722656 40.625 29.027344 40.625 27.507812 C 40.625 25.742188 41.996094 24.5 43.164062 23.804688 C 44.035156 23.28125 45.027344 22.957031 46.046875 22.957031 Z M 46.046875 22.957031 "/>
</g>
</svg>
