<?xml version="1.0" encoding="UTF-8"?>
<svg xmlns="http://www.w3.org/2000/svg" xmlns:xlink="http://www.w3.org/1999/xlink" width="75.255583pt" height="57.116775pt" viewBox="0 0 75.255583 57.116775" version="1.1">
<g id="surface1">
<path style="fill:none;stroke-width:0.1;stroke-linecap:round;stroke-linejoin:round;stroke:rgb(0%,0%,0%);stroke-opacity:1;stroke-miterlimit:4;" d="M 0.049863 -0.000149165 L 9.773793 -0.000149165 " transform="matrix(6.218149,0,0,6.218149,4.561038,48.332959)"/>
<path style="fill:none;stroke-width:0.1;stroke-linecap:round;stroke-linejoin:round;stroke:rgb(0%,0%,0%);stroke-opacity:1;stroke-miterlimit:4;" d="M 0.049863 -0.000245814 L 9.773793 -0.000245814 " transform="matrix(6.218149,0,0,6.218149,4.561038,42.11481)"/>
<path style="fill:none;stroke-width:0.1;stroke-linecap:round;stroke-linejoin:round;stroke:rgb(0%,0%,0%);stroke-opacity:1;stroke-miterlimit:4;" d="M 0.049863 0.000285739 L 9.773793 0.000285739 " transform="matrix(6.218149,0,0,6.218149,4.561038,35.896661)"/>
<path style="fill:none;stroke-width:0.1;stroke-linecap:round;stroke-linejoin:round;stroke:rgb(0%,0%,0%);stroke-opacity:1;stroke-miterlimit:4;" d="M 0.049863 0.00018909 L 9.773793 0.00018909 " transform="matrix(6.218149,0,0,6.218149,4.561038,29.678512)"/>
<path style="fill:none;stroke-width:0.1;stroke-linecap:round;stroke-linejoin:round;stroke:rgb(0%,0%,0%);stroke-opacity:1;stroke-miterlimit:4;" d="M 0.049863 0.0000924418 L 9.773793 0.0000924418 " transform="matrix(6.218149,0,0,6.218149,4.561038,23.460363)"/>
<path style=" stroke:none;fill-rule:nonzero;fill:rgb(0%,0%,0%);fill-opacity:1;" d="M 46.363281 10.402344 L 56.492188 10.402344 C 56.835938 10.402344 57.113281 10.679688 57.113281 11.023438 C 57.113281 11.367188 56.835938 11.644531 56.492188 11.644531 L 46.363281 11.644531 C 46.019531 11.644531 45.742188 11.367188 45.742188 11.023438 C 45.742188 10.679688 46.019531 10.402344 46.363281 10.402344 Z M 46.363281 10.402344 "/>
<path style=" stroke:none;fill-rule:nonzero;fill:rgb(0%,0%,0%);fill-opacity:1;" d="M 45.570312 16.621094 L 56.492188 16.621094 C 56.835938 16.621094 57.113281 16.898438 57.113281 17.242188 C 57.113281 17.585938 56.835938 17.863281 56.492188 17.863281 L 45.570312 17.863281 C 45.226562 17.863281 44.949219 17.585938 44.949219 17.242188 C 44.949219 16.898438 45.226562 16.621094 45.570312 16.621094 Z M 45.570312 16.621094 "/>
<path style=" stroke:none;fill-rule:nonzero;fill:rgb(0%,0%,0%);fill-opacity:1;" d="M 47.226562 9.070312 L 47.539062 9.070312 C 47.675781 9.070312 47.785156 9.183594 47.785156 9.320312 L 47.785156 41.867188 C 47.785156 42.003906 47.675781 42.113281 47.539062 42.113281 L 47.226562 42.113281 C 47.089844 42.113281 46.976562 42.003906 46.976562 41.867188 L 46.976562 9.320312 C 46.976562 9.183594 47.089844 9.070312 47.226562 9.070312 Z M 47.226562 9.070312 "/>
<path style=" stroke:none;fill-rule:nonzero;fill:rgb(0%,0%,0%);fill-opacity:1;" d="M 42.066406 7.914062 C 42.636719 8.488281 43.460938 8.613281 44.28125 8.613281 C 44.429688 8.613281 44.527344 8.710938 44.527344 8.859375 L 44.753906 11.023438 C 44.777344 11.171875 44.652344 11.296875 44.503906 11.273438 L 42.339844 11.050781 C 42.214844 11.023438 42.089844 10.925781 42.089844 10.800781 C 42.089844 9.980469 41.96875 9.160156 41.394531 8.585938 C 40.824219 9.160156 40.722656 9.980469 40.722656 10.800781 C 40.722656 10.925781 40.597656 11.023438 40.472656 11.050781 L 38.285156 11.273438 C 38.136719 11.296875 38.011719 11.171875 38.035156 11.023438 L 38.261719 8.859375 C 38.261719 8.710938 38.359375 8.613281 38.507812 8.613281 C 39.332031 8.613281 40.152344 8.488281 40.722656 7.914062 C 40.152344 7.34375 39.332031 7.21875 38.507812 7.21875 C 38.359375 7.21875 38.261719 7.117188 38.261719 6.96875 L 38.035156 4.804688 C 38.011719 4.65625 38.136719 4.53125 38.285156 4.558594 L 40.472656 4.78125 C 40.597656 4.804688 40.699219 4.90625 40.699219 5.03125 C 40.699219 5.851562 40.824219 6.671875 41.394531 7.242188 C 41.96875 6.671875 42.089844 5.851562 42.089844 5.03125 C 42.089844 4.90625 42.214844 4.804688 42.339844 4.78125 L 44.503906 4.558594 C 44.652344 4.53125 44.777344 4.65625 44.753906 4.804688 L 44.527344 6.96875 C 44.527344 7.117188 44.429688 7.21875 44.28125 7.21875 C 43.460938 7.21875 42.636719 7.34375 42.066406 7.914062 Z M 42.066406 7.914062 "/>
<path style=" stroke:none;fill-rule:nonzero;fill:rgb(0%,0%,0%);fill-opacity:1;" d="M 35.324219 21.894531 C 35.324219 22.140625 35.125 22.367188 34.878906 22.367188 C 34.628906 22.367188 34.40625 22.140625 34.40625 21.894531 L 34.40625 18.285156 L 32.339844 19.058594 L 32.339844 22.988281 C 32.339844 23.238281 32.117188 23.460938 31.867188 23.460938 C 31.617188 23.460938 31.417969 23.238281 31.417969 22.988281 L 31.417969 19.382812 L 30.625 19.679688 C 30.574219 19.703125 30.5 19.703125 30.449219 19.703125 C 30.175781 19.703125 29.953125 19.480469 29.953125 19.207031 L 29.953125 17.714844 C 29.953125 17.515625 30.078125 17.316406 30.277344 17.242188 L 31.417969 16.84375 L 31.417969 12.863281 L 30.625 13.136719 C 30.574219 13.164062 30.5 13.164062 30.449219 13.164062 C 30.175781 13.164062 29.953125 12.9375 29.953125 12.664062 L 29.953125 11.171875 C 29.953125 10.972656 30.078125 10.800781 30.277344 10.726562 L 31.417969 10.304688 L 31.417969 6.371094 C 31.417969 6.125 31.617188 5.898438 31.867188 5.898438 C 32.117188 5.898438 32.339844 6.125 32.339844 6.371094 L 32.339844 9.980469 L 34.40625 9.207031 L 34.40625 5.277344 C 34.40625 5.03125 34.628906 4.804688 34.878906 4.804688 C 35.125 4.804688 35.324219 5.03125 35.324219 5.277344 L 35.324219 8.886719 L 36.121094 8.585938 C 36.171875 8.5625 36.246094 8.5625 36.292969 8.5625 C 36.566406 8.5625 36.792969 8.785156 36.792969 9.058594 L 36.792969 10.550781 C 36.792969 10.75 36.667969 10.949219 36.46875 11.023438 L 35.324219 11.421875 L 35.324219 15.402344 L 36.121094 15.128906 C 36.171875 15.101562 36.246094 15.101562 36.292969 15.101562 C 36.566406 15.101562 36.792969 15.328125 36.792969 15.601562 L 36.792969 17.09375 C 36.792969 17.292969 36.667969 17.464844 36.46875 17.539062 L 35.324219 17.964844 Z M 32.339844 12.515625 L 32.339844 16.496094 L 34.40625 15.75 L 34.40625 11.769531 Z M 32.339844 12.515625 "/>
<path style=" stroke:none;fill-rule:nonzero;fill:rgb(0%,0%,0%);fill-opacity:1;" d="M 23.390625 32.789062 C 23.390625 32.089844 23.960938 31.519531 24.65625 31.519531 C 25.355469 31.519531 25.925781 32.089844 25.925781 32.789062 C 25.925781 33.484375 25.355469 34.054688 24.65625 34.054688 C 23.960938 34.054688 23.390625 33.484375 23.390625 32.789062 Z M 23.390625 26.570312 C 23.390625 25.871094 23.960938 25.300781 24.65625 25.300781 C 25.355469 25.300781 25.925781 25.871094 25.925781 26.570312 C 25.925781 27.265625 25.355469 27.839844 24.65625 27.839844 C 23.960938 27.839844 23.390625 27.265625 23.390625 26.570312 Z M 15.304688 23.136719 C 19.585938 23.136719 22.59375 25.324219 22.59375 29.378906 C 22.59375 35.921875 16.050781 39.675781 9.757812 42.339844 C 9.683594 42.414062 9.609375 42.4375 9.535156 42.4375 C 9.363281 42.4375 9.210938 42.289062 9.210938 42.113281 C 9.210938 42.039062 9.238281 41.964844 9.3125 41.890625 C 14.335938 38.957031 19.558594 35.300781 19.558594 29.628906 C 19.558594 26.644531 17.992188 23.785156 15.304688 23.785156 C 13.464844 23.785156 12.097656 25.125 11.476562 26.917969 C 11.75 26.792969 12.023438 26.71875 12.320312 26.71875 C 13.6875 26.71875 14.808594 27.839844 14.808594 29.207031 C 14.808594 30.648438 13.714844 31.84375 12.320312 31.84375 C 10.828125 31.84375 9.535156 30.671875 9.535156 29.207031 C 9.535156 25.898438 12.074219 23.136719 15.304688 23.136719 Z M 15.304688 23.136719 "/>
<path style=" stroke:none;fill-rule:nonzero;fill:rgb(0%,0%,0%);fill-opacity:1;" d="M 52.398438 4.53125 C 53.769531 4.53125 55.085938 5.230469 55.085938 6.746094 C 55.085938 8.511719 53.71875 9.753906 52.550781 10.453125 C 51.679688 10.972656 50.683594 11.296875 49.664062 11.296875 C 48.296875 11.296875 46.976562 10.601562 46.976562 9.085938 C 46.976562 7.316406 48.34375 6.074219 49.515625 5.378906 C 50.386719 4.855469 51.378906 4.53125 52.398438 4.53125 Z M 52.398438 4.53125 "/>
<path style=" stroke:none;fill-rule:nonzero;fill:rgb(0%,0%,0%);fill-opacity:1;" d="M 52.398438 10.75 C 53.769531 10.75 55.085938 11.445312 55.085938 12.964844 C 55.085938 14.730469 53.71875 15.972656 52.550781 16.671875 C 51.679688 17.191406 50.683594 17.515625 49.664062 17.515625 C 48.296875 17.515625 46.976562 16.820312 46.976562 15.300781 C 46.976562 13.535156 48.34375 12.292969 49.515625 11.597656 C 50.386719 11.074219 51.378906 10.75 52.398438 10.75 Z M 52.398438 10.75 "/>
<path style=" stroke:none;fill-rule:nonzero;fill:rgb(0%,0%,0%);fill-opacity:1;" d="M 52.398438 16.96875 C 53.769531 16.96875 55.085938 17.664062 55.085938 19.183594 C 55.085938 20.949219 53.71875 22.191406 52.550781 22.886719 C 51.679688 23.410156 50.683594 23.734375 49.664062 23.734375 C 48.296875 23.734375 46.976562 23.039062 46.976562 21.519531 C 46.976562 19.753906 48.34375 18.511719 49.515625 17.8125 C 50.386719 17.292969 51.378906 16.96875 52.398438 16.96875 Z M 52.398438 16.96875 "/>
</g>
</svg>
