<?xml version="1.0" encoding="UTF-8"?>
<svg xmlns="http://www.w3.org/2000/svg" xmlns:xlink="http://www.w3.org/1999/xlink" width="81.189345pt" height="58.61114pt" viewBox="0 0 81.189345 58.61114" version="1.1">
<g id="surface1">
<path style="fill:none;stroke-width:0.1;stroke-linecap:round;stroke-linejoin:round;stroke:rgb(0%,0%,0%);stroke-opacity:1;stroke-miterlimit:4;" d="M 0.049863 -0.000287501 L 10.667095 -0.000287501 " transform="matrix(6.218149,0,0,6.218149,4.561038,40.517413)"/>
<path style="fill:none;stroke-width:0.1;stroke-linecap:round;stroke-linejoin:round;stroke:rgb(0%,0%,0%);stroke-opacity:1;stroke-miterlimit:4;" d="M 0.049863 0.000244052 L 10.667095 0.000244052 " transform="matrix(6.218149,0,0,6.218149,4.561038,34.299264)"/>
<path style="fill:none;stroke-width:0.1;stroke-linecap:round;stroke-linejoin:round;stroke:rgb(0%,0%,0%);stroke-opacity:1;stroke-miterlimit:4;" d="M 0.049863 0.000147403 L 10.667095 0.000147403 " transform="matrix(6.218149,0,0,6.218149,4.561038,28.081115)"/>
<path style="fill:none;stroke-width:0.1;stroke-linecap:round;stroke-linejoin:round;stroke:rgb(0%,0%,0%);stroke-opacity:1;stroke-miterlimit:4;" d="M 0.049863 0.0000507548 L 10.667095 0.0000507548 " transform="matrix(6.218149,0,0,6.218149,4.561038,21.862966)"/>
<path style="fill:none;stroke-width:0.1;stroke-linecap:round;stroke-linejoin:round;stroke:rgb(0%,0%,0%);stroke-opacity:1;stroke-miterlimit:4;" d="M 0.049863 -0.0000458938 L 10.667095 -0.0000458938 " transform="matrix(6.218149,0,0,6.218149,4.561038,15.644817)"/>
<path style=" stroke:none;fill-rule:nonzero;fill:rgb(0%,0%,0%);fill-opacity:1;" d="M 52.78125 16.800781 L 53.09375 16.800781 C 53.230469 16.800781 53.339844 16.914062 53.339844 17.050781 L 53.339844 48.558594 C 53.339844 48.695312 53.230469 48.808594 53.09375 48.808594 L 52.78125 48.808594 C 52.644531 48.808594 52.53125 48.695312 52.53125 48.558594 L 52.53125 17.050781 C 52.53125 16.914062 52.644531 16.800781 52.78125 16.800781 Z M 52.78125 16.800781 "/>
<path style=" stroke:none;fill-rule:nonzero;fill:rgb(0%,0%,0%);fill-opacity:1;" d="M 47.621094 15.644531 C 48.195312 16.21875 49.015625 16.339844 49.835938 16.339844 C 49.984375 16.339844 50.085938 16.441406 50.085938 16.589844 L 50.308594 18.753906 C 50.332031 18.902344 50.207031 19.027344 50.058594 19.003906 L 47.894531 18.777344 C 47.769531 18.753906 47.648438 18.65625 47.648438 18.53125 C 47.648438 17.710938 47.523438 16.886719 46.949219 16.316406 C 46.378906 16.886719 46.277344 17.710938 46.277344 18.53125 C 46.277344 18.65625 46.152344 18.753906 46.03125 18.777344 L 43.839844 19.003906 C 43.691406 19.027344 43.566406 18.902344 43.59375 18.753906 L 43.816406 16.589844 C 43.816406 16.441406 43.914062 16.339844 44.066406 16.339844 C 44.886719 16.339844 45.707031 16.21875 46.277344 15.644531 C 45.707031 15.074219 44.886719 14.949219 44.066406 14.949219 C 43.914062 14.949219 43.816406 14.847656 43.816406 14.699219 L 43.59375 12.535156 C 43.566406 12.386719 43.691406 12.261719 43.839844 12.285156 L 46.03125 12.511719 C 46.152344 12.535156 46.253906 12.636719 46.253906 12.757812 C 46.253906 13.582031 46.378906 14.402344 46.949219 14.972656 C 47.523438 14.402344 47.648438 13.582031 47.648438 12.757812 C 47.648438 12.636719 47.769531 12.535156 47.894531 12.511719 L 50.058594 12.285156 C 50.207031 12.261719 50.332031 12.386719 50.308594 12.535156 L 50.085938 14.699219 C 50.085938 14.847656 49.984375 14.949219 49.835938 14.949219 C 49.015625 14.949219 48.195312 15.074219 47.621094 15.644531 Z M 47.621094 15.644531 "/>
<path style=" stroke:none;fill-rule:nonzero;fill:rgb(0%,0%,0%);fill-opacity:1;" d="M 32.996094 21.863281 C 33.570312 22.433594 34.390625 22.558594 35.210938 22.558594 C 35.359375 22.558594 35.460938 22.660156 35.460938 22.808594 L 35.683594 24.972656 C 35.707031 25.121094 35.582031 25.246094 35.433594 25.222656 L 33.269531 24.996094 C 33.144531 24.972656 33.023438 24.871094 33.023438 24.75 C 33.023438 23.925781 32.898438 23.105469 32.324219 22.535156 C 31.753906 23.105469 31.652344 23.925781 31.652344 24.75 C 31.652344 24.871094 31.527344 24.972656 31.40625 24.996094 L 29.214844 25.222656 C 29.066406 25.246094 28.941406 25.121094 28.96875 24.972656 L 29.191406 22.808594 C 29.191406 22.660156 29.289062 22.558594 29.441406 22.558594 C 30.261719 22.558594 31.082031 22.433594 31.652344 21.863281 C 31.082031 21.289062 30.261719 21.167969 29.441406 21.167969 C 29.289062 21.167969 29.191406 21.066406 29.191406 20.917969 L 28.96875 18.753906 C 28.941406 18.605469 29.066406 18.480469 29.214844 18.503906 L 31.40625 18.730469 C 31.527344 18.753906 31.628906 18.851562 31.628906 18.976562 C 31.628906 19.796875 31.753906 20.621094 32.324219 21.191406 C 32.898438 20.621094 33.023438 19.796875 33.023438 18.976562 C 33.023438 18.851562 33.144531 18.753906 33.269531 18.730469 L 35.433594 18.503906 C 35.582031 18.480469 35.707031 18.605469 35.683594 18.753906 L 35.460938 20.917969 C 35.460938 21.066406 35.359375 21.167969 35.210938 21.167969 C 34.390625 21.167969 33.570312 21.289062 32.996094 21.863281 Z M 32.996094 21.863281 "/>
<path style=" stroke:none;fill-rule:nonzero;fill:rgb(0%,0%,0%);fill-opacity:1;" d="M 42.347656 35.839844 C 42.347656 36.089844 42.148438 36.3125 41.898438 36.3125 C 41.652344 36.3125 41.425781 36.089844 41.425781 35.839844 L 41.425781 32.234375 L 39.363281 33.007812 L 39.363281 36.9375 C 39.363281 37.183594 39.136719 37.410156 38.890625 37.410156 C 38.640625 37.410156 38.441406 37.183594 38.441406 36.9375 L 38.441406 33.328125 L 37.644531 33.628906 C 37.597656 33.652344 37.523438 33.652344 37.472656 33.652344 C 37.199219 33.652344 36.972656 33.429688 36.972656 33.15625 L 36.972656 31.664062 C 36.972656 31.464844 37.097656 31.265625 37.296875 31.191406 L 38.441406 30.792969 L 38.441406 26.8125 L 37.644531 27.085938 C 37.597656 27.109375 37.523438 27.109375 37.472656 27.109375 C 37.199219 27.109375 36.972656 26.886719 36.972656 26.613281 L 36.972656 25.121094 C 36.972656 24.921875 37.097656 24.75 37.296875 24.671875 L 38.441406 24.25 L 38.441406 20.320312 C 38.441406 20.070312 38.640625 19.847656 38.890625 19.847656 C 39.136719 19.847656 39.363281 20.070312 39.363281 20.320312 L 39.363281 23.925781 L 41.425781 23.15625 L 41.425781 19.226562 C 41.425781 18.976562 41.652344 18.753906 41.898438 18.753906 C 42.148438 18.753906 42.347656 18.976562 42.347656 19.226562 L 42.347656 22.832031 L 43.144531 22.535156 C 43.191406 22.507812 43.265625 22.507812 43.316406 22.507812 C 43.589844 22.507812 43.8125 22.734375 43.8125 23.007812 L 43.8125 24.5 C 43.8125 24.699219 43.691406 24.898438 43.492188 24.972656 L 42.347656 25.371094 L 42.347656 29.351562 L 43.144531 29.074219 C 43.191406 29.050781 43.265625 29.050781 43.316406 29.050781 C 43.589844 29.050781 43.8125 29.273438 43.8125 29.546875 L 43.8125 31.039062 C 43.8125 31.238281 43.691406 31.414062 43.492188 31.488281 L 42.347656 31.910156 Z M 39.363281 26.464844 L 39.363281 30.445312 L 41.425781 29.699219 L 41.425781 25.71875 Z M 39.363281 26.464844 "/>
<path style=" stroke:none;fill-rule:nonzero;fill:rgb(0%,0%,0%);fill-opacity:1;" d="M 16.152344 50.09375 L 16.003906 50.09375 C 13.316406 50.09375 11.152344 47.90625 11.152344 45.195312 C 11.152344 43.75 12.46875 42.632812 13.9375 42.632812 C 15.28125 42.632812 16.300781 43.800781 16.300781 45.195312 C 16.300781 46.488281 15.230469 47.554688 13.9375 47.554688 C 13.664062 47.554688 13.414062 47.507812 13.167969 47.40625 C 13.8125 48.378906 14.859375 49.023438 16.078125 49.023438 L 16.175781 49.023438 Z M 21 39.347656 C 22.691406 38.75 23.8125 36.984375 23.8125 35.269531 C 23.8125 33.03125 22.171875 30.816406 19.507812 30.542969 C 20.105469 33.429688 20.652344 36.289062 21 39.347656 Z M 11.375 33.601562 C 11.375 36.960938 14.585938 39.746094 17.941406 39.746094 C 18.640625 39.746094 19.308594 39.695312 19.980469 39.597656 C 19.632812 36.4375 19.0625 33.503906 18.414062 30.542969 C 16.449219 30.742188 15.332031 32.0625 15.332031 33.503906 C 15.332031 34.597656 15.953125 35.765625 17.34375 36.5625 C 17.46875 36.6875 17.519531 36.8125 17.519531 36.9375 C 17.519531 37.210938 17.269531 37.484375 16.972656 37.484375 C 16.898438 37.484375 16.824219 37.457031 16.75 37.433594 C 14.757812 36.363281 13.839844 34.574219 13.839844 32.832031 C 13.839844 30.644531 15.28125 28.503906 17.816406 27.933594 C 17.46875 26.488281 17.097656 25.023438 16.675781 23.578125 C 14.011719 26.589844 11.375 29.625 11.375 33.601562 Z M 17.867188 40.816406 C 13.191406 40.816406 9.585938 36.539062 9.585938 31.511719 C 9.585938 27.109375 12.84375 23.902344 15.753906 20.542969 C 15.28125 19.003906 14.832031 17.4375 14.632812 15.820312 C 14.484375 14.527344 14.460938 13.230469 14.460938 11.9375 C 14.460938 9.078125 15.828125 6.367188 18.167969 4.675781 C 18.316406 4.550781 18.515625 4.550781 18.664062 4.675781 C 20.429688 6.765625 21.972656 10.769531 21.972656 13.582031 C 21.972656 17.136719 19.832031 19.921875 17.496094 22.632812 C 18.015625 24.324219 18.464844 26.066406 18.886719 27.78125 C 18.988281 27.78125 19.113281 27.757812 19.210938 27.757812 C 23.066406 27.757812 25.578125 30.941406 25.578125 34.25 C 25.578125 36.140625 24.757812 38.078125 22.917969 39.472656 C 22.371094 39.894531 21.746094 40.167969 21.101562 40.367188 C 21.175781 41.238281 21.226562 42.109375 21.226562 42.980469 C 21.226562 43.453125 21.199219 43.949219 21.175781 44.421875 C 21 47.382812 18.988281 50.019531 16.152344 50.09375 L 16.175781 49.023438 C 18.488281 48.972656 19.980469 46.734375 20.132812 44.273438 C 20.15625 43.824219 20.179688 43.351562 20.179688 42.90625 C 20.179688 42.132812 20.15625 41.386719 20.082031 40.617188 C 19.359375 40.742188 18.640625 40.816406 17.867188 40.816406 Z M 20.179688 11.515625 C 20.179688 10.148438 20.082031 9.550781 19.683594 8.308594 C 17.222656 9.5 15.652344 12.011719 15.652344 14.75 C 15.652344 16.589844 16.101562 18.058594 16.550781 19.574219 C 18.539062 17.160156 20.179688 14.648438 20.179688 11.515625 Z M 20.179688 11.515625 "/>
<path style=" stroke:none;fill-rule:nonzero;fill:rgb(0%,0%,0%);fill-opacity:1;" d="M 57.953125 12.261719 C 59.324219 12.261719 60.640625 12.957031 60.640625 14.476562 C 60.640625 16.242188 59.273438 17.484375 58.105469 18.183594 C 57.234375 18.703125 56.238281 19.027344 55.21875 19.027344 C 53.851562 19.027344 52.53125 18.332031 52.53125 16.8125 C 52.53125 15.046875 53.898438 13.804688 55.070312 13.109375 C 55.941406 12.585938 56.933594 12.261719 57.953125 12.261719 Z M 57.953125 12.261719 "/>
<path style=" stroke:none;fill-rule:nonzero;fill:rgb(0%,0%,0%);fill-opacity:1;" d="M 57.953125 18.480469 C 59.324219 18.480469 60.640625 19.175781 60.640625 20.695312 C 60.640625 22.460938 59.273438 23.703125 58.105469 24.398438 C 57.234375 24.921875 56.238281 25.246094 55.21875 25.246094 C 53.851562 25.246094 52.53125 24.550781 52.53125 23.03125 C 52.53125 21.265625 53.898438 20.023438 55.070312 19.324219 C 55.941406 18.804688 56.933594 18.480469 57.953125 18.480469 Z M 57.953125 18.480469 "/>
<path style=" stroke:none;fill-rule:nonzero;fill:rgb(0%,0%,0%);fill-opacity:1;" d="M 57.953125 24.699219 C 59.324219 24.699219 60.640625 25.394531 60.640625 26.910156 C 60.640625 28.679688 59.273438 29.921875 58.105469 30.617188 C 57.234375 31.140625 56.238281 31.464844 55.21875 31.464844 C 53.851562 31.464844 52.53125 30.765625 52.53125 29.25 C 52.53125 27.484375 53.898438 26.242188 55.070312 25.542969 C 55.941406 25.023438 56.933594 24.699219 57.953125 24.699219 Z M 57.953125 24.699219 "/>
</g>
</svg>
