<?xml version="1.0" encoding="UTF-8"?>
<svg xmlns="http://www.w3.org/2000/svg" xmlns:xlink="http://www.w3.org/1999/xlink" width="68.472344pt" height="41.242903pt" viewBox="0 0 68.472344 41.242903" version="1.1">
<g id="surface1">
<path style="fill:none;stroke-width:0.1;stroke-linecap:round;stroke-linejoin:round;stroke:rgb(0%,0%,0%);stroke-opacity:1;stroke-miterlimit:4;" d="M 0.049863 -0.0001075 L 8.752337 -0.0001075 " transform="matrix(6.218149,0,0,6.218149,4.561038,29.434262)"/>
<path style="fill:none;stroke-width:0.1;stroke-linecap:round;stroke-linejoin:round;stroke:rgb(0%,0%,0%);stroke-opacity:1;stroke-miterlimit:4;" d="M 0.049863 -0.000204149 L 8.752337 -0.000204149 " transform="matrix(6.218149,0,0,6.218149,4.561038,23.216113)"/>
<path style="fill:none;stroke-width:0.1;stroke-linecap:round;stroke-linejoin:round;stroke:rgb(0%,0%,0%);stroke-opacity:1;stroke-miterlimit:4;" d="M 0.049863 -0.000300797 L 8.752337 -0.000300797 " transform="matrix(6.218149,0,0,6.218149,4.561038,16.997964)"/>
<path style="fill:none;stroke-width:0.1;stroke-linecap:round;stroke-linejoin:round;stroke:rgb(0%,0%,0%);stroke-opacity:1;stroke-miterlimit:4;" d="M 0.049863 0.000230756 L 8.752337 0.000230756 " transform="matrix(6.218149,0,0,6.218149,4.561038,10.779815)"/>
<path style="fill:none;stroke-width:0.1;stroke-linecap:round;stroke-linejoin:round;stroke:rgb(0%,0%,0%);stroke-opacity:1;stroke-miterlimit:4;" d="M 0.049863 0.000133988 L 8.752337 0.000133988 " transform="matrix(6.218149,0,0,6.218149,4.561038,4.561667)"/>
<path style=" stroke:none;fill-rule:nonzero;fill:rgb(0%,0%,0%);fill-opacity:1;" d="M 48.175781 7.671875 L 48.488281 7.671875 C 48.625 7.671875 48.734375 7.78125 48.734375 7.917969 L 48.734375 28.027344 C 48.734375 28.164062 48.625 28.277344 48.488281 28.277344 L 48.175781 28.277344 C 48.039062 28.277344 47.925781 28.164062 47.925781 28.027344 L 47.925781 7.917969 C 47.925781 7.78125 48.039062 7.671875 48.175781 7.671875 Z M 48.175781 7.671875 "/>
<path style=" stroke:none;fill-rule:nonzero;fill:rgb(0%,0%,0%);fill-opacity:1;" d="M 34.148438 28.414062 L 34.121094 30.054688 L 34.121094 30.328125 C 34.121094 30.875 34.148438 31.425781 34.222656 31.972656 C 35.339844 31.027344 36.535156 29.980469 36.535156 28.515625 C 36.535156 27.691406 36.1875 26.847656 35.464844 26.847656 C 34.695312 26.847656 34.171875 27.59375 34.148438 28.414062 Z M 33.101562 32.867188 L 32.804688 18.066406 C 33.003906 17.941406 33.25 17.867188 33.476562 17.867188 C 33.699219 17.867188 33.949219 17.941406 34.148438 18.066406 L 33.972656 26.648438 C 34.59375 26.125 35.414062 25.804688 36.234375 25.804688 C 37.53125 25.804688 38.449219 26.996094 38.449219 28.339844 C 38.449219 30.328125 36.3125 31.25 34.792969 32.542969 C 34.421875 32.867188 34.195312 33.488281 33.675781 33.488281 C 33.351562 33.488281 33.101562 33.214844 33.101562 32.867188 Z M 33.101562 32.867188 "/>
<path style=" stroke:none;fill-rule:nonzero;fill:rgb(0%,0%,0%);fill-opacity:1;" d="M 23.390625 13.890625 C 23.390625 13.191406 23.960938 12.621094 24.65625 12.621094 C 25.355469 12.621094 25.925781 13.191406 25.925781 13.890625 C 25.925781 14.585938 25.355469 15.15625 24.65625 15.15625 C 23.960938 15.15625 23.390625 14.585938 23.390625 13.890625 Z M 23.390625 7.671875 C 23.390625 6.972656 23.960938 6.402344 24.65625 6.402344 C 25.355469 6.402344 25.925781 6.972656 25.925781 7.671875 C 25.925781 8.367188 25.355469 8.9375 24.65625 8.9375 C 23.960938 8.9375 23.390625 8.367188 23.390625 7.671875 Z M 15.304688 4.238281 C 19.585938 4.238281 22.59375 6.425781 22.59375 10.480469 C 22.59375 17.023438 16.050781 20.777344 9.757812 23.441406 C 9.683594 23.515625 9.609375 23.539062 9.535156 23.539062 C 9.363281 23.539062 9.210938 23.390625 9.210938 23.214844 C 9.210938 23.140625 9.238281 23.066406 9.3125 22.992188 C 14.335938 20.058594 19.558594 16.402344 19.558594 10.730469 C 19.558594 7.746094 17.992188 4.886719 15.304688 4.886719 C 13.464844 4.886719 12.097656 6.226562 11.476562 8.019531 C 11.75 7.894531 12.023438 7.820312 12.320312 7.820312 C 13.6875 7.820312 14.808594 8.9375 14.808594 10.308594 C 14.808594 11.75 13.714844 12.945312 12.320312 12.945312 C 10.828125 12.945312 9.535156 11.773438 9.535156 10.308594 C 9.535156 7 12.074219 4.238281 15.304688 4.238281 Z M 15.304688 4.238281 "/>
<path style=" stroke:none;fill-rule:nonzero;fill:rgb(0%,0%,0%);fill-opacity:1;" d="M 46.046875 26.050781 C 47.417969 26.050781 48.734375 26.746094 48.734375 28.265625 C 48.734375 30.03125 47.367188 31.273438 46.199219 31.972656 C 45.328125 32.492188 44.332031 32.816406 43.3125 32.816406 C 41.945312 32.816406 40.625 32.121094 40.625 30.601562 C 40.625 28.835938 41.996094 27.59375 43.164062 26.898438 C 44.035156 26.375 45.027344 26.050781 46.046875 26.050781 Z M 46.046875 26.050781 "/>
</g>
</svg>
