<?xml version="1.0" encoding="UTF-8"?>
<svg xmlns="http://www.w3.org/2000/svg" xmlns:xlink="http://www.w3.org/1999/xlink" width="91.414357pt" height="83.32518pt" viewBox="0 0 91.414357 83.32518" version="1.1">
<g id="surface1">
<path style="fill:none;stroke-width:0.1;stroke-linecap:round;stroke-linejoin:round;stroke:rgb(0%,0%,0%);stroke-opacity:1;stroke-miterlimit:4;" d="M 0.049863 -0.0000568912 L 12.206189 -0.0000568912 " transform="matrix(6.218149,0,0,6.218149,4.561038,63.648791)"/>
<path style="fill:none;stroke-width:0.1;stroke-linecap:round;stroke-linejoin:round;stroke:rgb(0%,0%,0%);stroke-opacity:1;stroke-miterlimit:4;" d="M 0.049863 -0.00015354 L 12.206189 -0.00015354 " transform="matrix(6.218149,0,0,6.218149,4.561038,57.430642)"/>
<path style="fill:none;stroke-width:0.1;stroke-linecap:round;stroke-linejoin:round;stroke:rgb(0%,0%,0%);stroke-opacity:1;stroke-miterlimit:4;" d="M 0.049863 -0.000250188 L 12.206189 -0.000250188 " transform="matrix(6.218149,0,0,6.218149,4.561038,51.212493)"/>
<path style="fill:none;stroke-width:0.1;stroke-linecap:round;stroke-linejoin:round;stroke:rgb(0%,0%,0%);stroke-opacity:1;stroke-miterlimit:4;" d="M 0.049863 0.000281364 L 12.206189 0.000281364 " transform="matrix(6.218149,0,0,6.218149,4.561038,44.994344)"/>
<path style="fill:none;stroke-width:0.1;stroke-linecap:round;stroke-linejoin:round;stroke:rgb(0%,0%,0%);stroke-opacity:1;stroke-miterlimit:4;" d="M 0.049863 0.000184716 L 12.206189 0.000184716 " transform="matrix(6.218149,0,0,6.218149,4.561038,38.776195)"/>
<path style=" stroke:none;fill-rule:nonzero;fill:rgb(0%,0%,0%);fill-opacity:1;" d="M 60.699219 13.28125 L 71.621094 13.28125 C 71.964844 13.28125 72.242188 13.558594 72.242188 13.902344 C 72.242188 14.246094 71.964844 14.527344 71.621094 14.527344 L 60.699219 14.527344 C 60.355469 14.527344 60.078125 14.246094 60.078125 13.902344 C 60.078125 13.558594 60.355469 13.28125 60.699219 13.28125 Z M 60.699219 13.28125 "/>
<path style=" stroke:none;fill-rule:nonzero;fill:rgb(0%,0%,0%);fill-opacity:1;" d="M 52.996094 19.5 L 71.621094 19.5 C 71.964844 19.5 72.242188 19.777344 72.242188 20.121094 C 72.242188 20.464844 71.964844 20.742188 71.621094 20.742188 L 52.996094 20.742188 C 52.652344 20.742188 52.371094 20.464844 52.371094 20.121094 C 52.371094 19.777344 52.652344 19.5 52.996094 19.5 Z M 52.996094 19.5 "/>
<path style=" stroke:none;fill-rule:nonzero;fill:rgb(0%,0%,0%);fill-opacity:1;" d="M 52.996094 25.71875 L 71.621094 25.71875 C 71.964844 25.71875 72.242188 25.996094 72.242188 26.339844 C 72.242188 26.683594 71.964844 26.960938 71.621094 26.960938 L 52.996094 26.960938 C 52.652344 26.960938 52.371094 26.683594 52.371094 26.339844 C 52.371094 25.996094 52.652344 25.71875 52.996094 25.71875 Z M 52.996094 25.71875 "/>
<path style=" stroke:none;fill-rule:nonzero;fill:rgb(0%,0%,0%);fill-opacity:1;" d="M 52.996094 31.9375 L 71.621094 31.9375 C 71.964844 31.9375 72.242188 32.214844 72.242188 32.558594 C 72.242188 32.902344 71.964844 33.179688 71.621094 33.179688 L 52.996094 33.179688 C 52.652344 33.179688 52.371094 32.902344 52.371094 32.558594 C 52.371094 32.214844 52.652344 31.9375 52.996094 31.9375 Z M 52.996094 31.9375 "/>
<path style=" stroke:none;fill-rule:nonzero;fill:rgb(0%,0%,0%);fill-opacity:1;" d="M 62.355469 15.0625 L 62.664062 15.0625 C 62.800781 15.0625 62.914062 15.171875 62.914062 15.308594 L 62.914062 50.964844 C 62.914062 51.101562 62.800781 51.210938 62.664062 51.210938 L 62.355469 51.210938 C 62.214844 51.210938 62.105469 51.101562 62.105469 50.964844 L 62.105469 15.308594 C 62.105469 15.171875 62.214844 15.0625 62.355469 15.0625 Z M 62.355469 15.0625 "/>
<path style=" stroke:none;fill-rule:nonzero;fill:rgb(0%,0%,0%);fill-opacity:1;" d="M 50.753906 21.664062 C 50.753906 21.914062 50.558594 22.136719 50.308594 22.136719 C 50.058594 22.136719 49.835938 21.914062 49.835938 21.664062 L 49.835938 18.058594 L 47.769531 18.828125 L 47.769531 22.757812 C 47.769531 23.007812 47.546875 23.230469 47.296875 23.230469 C 47.050781 23.230469 46.851562 23.007812 46.851562 22.757812 L 46.851562 19.152344 L 46.054688 19.449219 C 46.003906 19.476562 45.929688 19.476562 45.878906 19.476562 C 45.605469 19.476562 45.382812 19.25 45.382812 18.976562 L 45.382812 17.484375 C 45.382812 17.285156 45.507812 17.085938 45.707031 17.011719 L 46.851562 16.613281 L 46.851562 12.636719 L 46.054688 12.910156 C 46.003906 12.933594 45.929688 12.933594 45.878906 12.933594 C 45.605469 12.933594 45.382812 12.710938 45.382812 12.4375 L 45.382812 10.945312 C 45.382812 10.746094 45.507812 10.570312 45.707031 10.496094 L 46.851562 10.074219 L 46.851562 6.144531 C 46.851562 5.894531 47.050781 5.671875 47.296875 5.671875 C 47.546875 5.671875 47.769531 5.894531 47.769531 6.144531 L 47.769531 9.75 L 49.835938 8.980469 L 49.835938 5.050781 C 49.835938 4.800781 50.058594 4.578125 50.308594 4.578125 C 50.558594 4.578125 50.753906 4.800781 50.753906 5.050781 L 50.753906 8.65625 L 51.550781 8.355469 C 51.601562 8.332031 51.675781 8.332031 51.726562 8.332031 C 52 8.332031 52.222656 8.554688 52.222656 8.828125 L 52.222656 10.320312 C 52.222656 10.519531 52.097656 10.71875 51.898438 10.792969 L 50.753906 11.191406 L 50.753906 15.171875 L 51.550781 14.898438 C 51.601562 14.875 51.675781 14.875 51.726562 14.875 C 52 14.875 52.222656 15.097656 52.222656 15.371094 L 52.222656 16.863281 C 52.222656 17.0625 52.097656 17.238281 51.898438 17.3125 L 50.753906 17.734375 Z M 47.769531 12.285156 L 47.769531 16.265625 L 49.835938 15.519531 L 49.835938 11.539062 Z M 47.769531 12.285156 "/>
<path style=" stroke:none;fill-rule:nonzero;fill:rgb(0%,0%,0%);fill-opacity:1;" d="M 34.589844 24.773438 C 34.589844 25.023438 34.390625 25.246094 34.140625 25.246094 C 33.890625 25.246094 33.667969 25.023438 33.667969 24.773438 L 33.667969 21.167969 L 31.605469 21.9375 L 31.605469 25.867188 C 31.605469 26.117188 31.378906 26.339844 31.132812 26.339844 C 30.882812 26.339844 30.683594 26.117188 30.683594 25.867188 L 30.683594 22.261719 L 29.886719 22.558594 C 29.835938 22.585938 29.761719 22.585938 29.714844 22.585938 C 29.441406 22.585938 29.214844 22.359375 29.214844 22.085938 L 29.214844 20.59375 C 29.214844 20.394531 29.339844 20.195312 29.539062 20.121094 L 30.683594 19.722656 L 30.683594 15.746094 L 29.886719 16.019531 C 29.835938 16.042969 29.761719 16.042969 29.714844 16.042969 C 29.441406 16.042969 29.214844 15.820312 29.214844 15.546875 L 29.214844 14.054688 C 29.214844 13.855469 29.339844 13.679688 29.539062 13.605469 L 30.683594 13.183594 L 30.683594 9.253906 C 30.683594 9.003906 30.882812 8.78125 31.132812 8.78125 C 31.378906 8.78125 31.605469 9.003906 31.605469 9.253906 L 31.605469 12.859375 L 33.667969 12.089844 L 33.667969 8.15625 C 33.667969 7.910156 33.890625 7.683594 34.140625 7.683594 C 34.390625 7.683594 34.589844 7.910156 34.589844 8.15625 L 34.589844 11.765625 L 35.382812 11.464844 C 35.433594 11.441406 35.507812 11.441406 35.558594 11.441406 C 35.832031 11.441406 36.054688 11.664062 36.054688 11.9375 L 36.054688 13.429688 C 36.054688 13.628906 35.929688 13.828125 35.734375 13.902344 L 34.589844 14.300781 L 34.589844 18.28125 L 35.382812 18.007812 C 35.433594 17.984375 35.507812 17.984375 35.558594 17.984375 C 35.832031 17.984375 36.054688 18.207031 36.054688 18.480469 L 36.054688 19.972656 C 36.054688 20.171875 35.929688 20.34375 35.734375 20.421875 L 34.589844 20.84375 Z M 31.605469 15.394531 L 31.605469 19.375 L 33.667969 18.628906 L 33.667969 14.648438 Z M 31.605469 15.394531 "/>
<path style=" stroke:none;fill-rule:nonzero;fill:rgb(0%,0%,0%);fill-opacity:1;" d="M 42.671875 30.992188 C 42.671875 31.238281 42.472656 31.464844 42.222656 31.464844 C 41.976562 31.464844 41.75 31.238281 41.75 30.992188 L 41.75 27.382812 L 39.6875 28.15625 L 39.6875 32.085938 C 39.6875 32.335938 39.464844 32.558594 39.214844 32.558594 C 38.964844 32.558594 38.765625 32.335938 38.765625 32.085938 L 38.765625 28.480469 L 37.972656 28.777344 C 37.921875 28.800781 37.847656 28.800781 37.796875 28.800781 C 37.523438 28.800781 37.300781 28.578125 37.300781 28.304688 L 37.300781 26.8125 C 37.300781 26.613281 37.425781 26.414062 37.621094 26.339844 L 38.765625 25.941406 L 38.765625 21.960938 L 37.972656 22.234375 C 37.921875 22.261719 37.847656 22.261719 37.796875 22.261719 C 37.523438 22.261719 37.300781 22.035156 37.300781 21.761719 L 37.300781 20.269531 C 37.300781 20.070312 37.425781 19.898438 37.621094 19.824219 L 38.765625 19.402344 L 38.765625 15.46875 C 38.765625 15.222656 38.964844 14.996094 39.214844 14.996094 C 39.464844 14.996094 39.6875 15.222656 39.6875 15.46875 L 39.6875 19.078125 L 41.75 18.304688 L 41.75 14.375 C 41.75 14.128906 41.976562 13.902344 42.222656 13.902344 C 42.472656 13.902344 42.671875 14.128906 42.671875 14.375 L 42.671875 17.984375 L 43.46875 17.683594 C 43.519531 17.660156 43.59375 17.660156 43.640625 17.660156 C 43.914062 17.660156 44.140625 17.882812 44.140625 18.15625 L 44.140625 19.648438 C 44.140625 19.847656 44.015625 20.046875 43.816406 20.121094 L 42.671875 20.519531 L 42.671875 24.5 L 43.46875 24.226562 C 43.519531 24.199219 43.59375 24.199219 43.640625 24.199219 C 43.914062 24.199219 44.140625 24.425781 44.140625 24.699219 L 44.140625 26.191406 C 44.140625 26.390625 44.015625 26.5625 43.816406 26.636719 L 42.671875 27.0625 Z M 39.6875 21.613281 L 39.6875 25.59375 L 41.75 24.847656 L 41.75 20.867188 Z M 39.6875 21.613281 "/>
<path style=" stroke:none;fill-rule:nonzero;fill:rgb(0%,0%,0%);fill-opacity:1;" d="M 16.152344 73.226562 L 16.003906 73.226562 C 13.316406 73.226562 11.152344 71.035156 11.152344 68.324219 C 11.152344 66.882812 12.46875 65.761719 13.9375 65.761719 C 15.28125 65.761719 16.300781 66.933594 16.300781 68.324219 C 16.300781 69.617188 15.230469 70.6875 13.9375 70.6875 C 13.664062 70.6875 13.414062 70.636719 13.167969 70.539062 C 13.8125 71.507812 14.859375 72.15625 16.078125 72.15625 L 16.175781 72.15625 Z M 21 62.480469 C 22.691406 61.882812 23.8125 60.117188 23.8125 58.402344 C 23.8125 56.164062 22.171875 53.949219 19.507812 53.675781 C 20.105469 56.558594 20.652344 59.421875 21 62.480469 Z M 11.375 56.734375 C 11.375 60.09375 14.585938 62.878906 17.941406 62.878906 C 18.640625 62.878906 19.308594 62.828125 19.980469 62.726562 C 19.632812 59.570312 19.0625 56.632812 18.414062 53.675781 C 16.449219 53.875 15.332031 55.191406 15.332031 56.632812 C 15.332031 57.730469 15.953125 58.898438 17.34375 59.695312 C 17.46875 59.820312 17.519531 59.941406 17.519531 60.066406 C 17.519531 60.339844 17.269531 60.613281 16.972656 60.613281 C 16.898438 60.613281 16.824219 60.589844 16.75 60.566406 C 14.757812 59.496094 13.839844 57.703125 13.839844 55.964844 C 13.839844 53.773438 15.28125 51.636719 17.816406 51.0625 C 17.46875 49.621094 17.097656 48.152344 16.675781 46.710938 C 14.011719 49.71875 11.375 52.753906 11.375 56.734375 Z M 17.867188 63.945312 C 13.191406 63.945312 9.585938 59.667969 9.585938 54.644531 C 9.585938 50.242188 12.84375 47.035156 15.753906 43.675781 C 15.28125 42.132812 14.832031 40.566406 14.632812 38.949219 C 14.484375 37.65625 14.460938 36.363281 14.460938 35.070312 C 14.460938 32.210938 15.828125 29.5 18.167969 27.808594 C 18.316406 27.683594 18.515625 27.683594 18.664062 27.808594 C 20.429688 29.898438 21.972656 33.902344 21.972656 36.710938 C 21.972656 40.269531 19.832031 43.054688 17.496094 45.765625 C 18.015625 47.457031 18.464844 49.199219 18.886719 50.914062 C 18.988281 50.914062 19.113281 50.890625 19.210938 50.890625 C 23.066406 50.890625 25.578125 54.074219 25.578125 57.382812 C 25.578125 59.269531 24.757812 61.210938 22.917969 62.605469 C 22.371094 63.027344 21.746094 63.300781 21.101562 63.5 C 21.175781 64.371094 21.226562 65.242188 21.226562 66.109375 C 21.226562 66.582031 21.199219 67.082031 21.175781 67.554688 C 21 70.511719 18.988281 73.148438 16.152344 73.226562 L 16.175781 72.15625 C 18.488281 72.105469 19.980469 69.867188 20.132812 67.40625 C 20.15625 66.957031 20.179688 66.484375 20.179688 66.035156 C 20.179688 65.265625 20.15625 64.519531 20.082031 63.75 C 19.359375 63.871094 18.640625 63.945312 17.867188 63.945312 Z M 20.179688 34.648438 C 20.179688 33.28125 20.082031 32.683594 19.683594 31.4375 C 17.222656 32.632812 15.652344 35.144531 15.652344 37.878906 C 15.652344 39.722656 16.101562 41.1875 16.550781 42.707031 C 18.539062 40.292969 20.179688 37.78125 20.179688 34.648438 Z M 20.179688 34.648438 "/>
<path style=" stroke:none;fill-rule:nonzero;fill:rgb(0%,0%,0%);fill-opacity:1;" d="M 67.527344 10.519531 C 68.894531 10.519531 70.214844 11.21875 70.214844 12.734375 C 70.214844 14.5 68.84375 15.746094 67.675781 16.441406 C 66.804688 16.964844 65.8125 17.285156 64.792969 17.285156 C 63.421875 17.285156 62.105469 16.589844 62.105469 15.074219 C 62.105469 13.308594 63.472656 12.0625 64.640625 11.367188 C 65.511719 10.84375 66.507812 10.519531 67.527344 10.519531 Z M 67.527344 10.519531 "/>
<path style=" stroke:none;fill-rule:nonzero;fill:rgb(0%,0%,0%);fill-opacity:1;" d="M 59.820312 13.628906 C 61.191406 13.628906 62.507812 14.328125 62.507812 15.84375 C 62.507812 17.609375 61.140625 18.851562 59.972656 19.550781 C 59.101562 20.070312 58.105469 20.394531 57.085938 20.394531 C 55.71875 20.394531 54.398438 19.699219 54.398438 18.183594 C 54.398438 16.414062 55.765625 15.171875 56.9375 14.476562 C 57.808594 13.953125 58.800781 13.628906 59.820312 13.628906 Z M 59.820312 13.628906 "/>
<path style=" stroke:none;fill-rule:nonzero;fill:rgb(0%,0%,0%);fill-opacity:1;" d="M 67.527344 19.847656 C 68.894531 19.847656 70.214844 20.542969 70.214844 22.0625 C 70.214844 23.828125 68.84375 25.070312 67.675781 25.769531 C 66.804688 26.289062 65.8125 26.613281 64.792969 26.613281 C 63.421875 26.613281 62.105469 25.917969 62.105469 24.398438 C 62.105469 22.632812 63.472656 21.390625 64.640625 20.695312 C 65.511719 20.171875 66.507812 19.847656 67.527344 19.847656 Z M 67.527344 19.847656 "/>
<path style=" stroke:none;fill-rule:nonzero;fill:rgb(0%,0%,0%);fill-opacity:1;" d="M 67.527344 26.066406 C 68.894531 26.066406 70.214844 26.761719 70.214844 28.28125 C 70.214844 30.046875 68.84375 31.289062 67.675781 31.984375 C 66.804688 32.507812 65.8125 32.832031 64.792969 32.832031 C 63.421875 32.832031 62.105469 32.136719 62.105469 30.617188 C 62.105469 28.851562 63.472656 27.609375 64.640625 26.910156 C 65.511719 26.390625 66.507812 26.066406 67.527344 26.066406 Z M 67.527344 26.066406 "/>
</g>
</svg>
