<?xml version="1.0" encoding="UTF-8"?>
<svg xmlns="http://www.w3.org/2000/svg" xmlns:xlink="http://www.w3.org/1999/xlink" width="96.701206pt" height="73.362519pt" viewBox="0 0 96.701206 73.362519" version="1.1">
<g id="surface1">
<path style="fill:none;stroke-width:0.1;stroke-linecap:round;stroke-linejoin:round;stroke:rgb(0%,0%,0%);stroke-opacity:1;stroke-miterlimit:4;" d="M 0.049863 -0.000201864 L 13.002748 -0.000201864 " transform="matrix(6.218149,0,0,6.218149,4.561038,54.321568)"/>
<path style="fill:none;stroke-width:0.1;stroke-linecap:round;stroke-linejoin:round;stroke:rgb(0%,0%,0%);stroke-opacity:1;stroke-miterlimit:4;" d="M 0.049863 -0.000298513 L 13.002748 -0.000298513 " transform="matrix(6.218149,0,0,6.218149,4.561038,48.103419)"/>
<path style="fill:none;stroke-width:0.1;stroke-linecap:round;stroke-linejoin:round;stroke:rgb(0%,0%,0%);stroke-opacity:1;stroke-miterlimit:4;" d="M 0.049863 0.00023304 L 13.002748 0.00023304 " transform="matrix(6.218149,0,0,6.218149,4.561038,41.88527)"/>
<path style="fill:none;stroke-width:0.1;stroke-linecap:round;stroke-linejoin:round;stroke:rgb(0%,0%,0%);stroke-opacity:1;stroke-miterlimit:4;" d="M 0.049863 0.000136391 L 13.002748 0.000136391 " transform="matrix(6.218149,0,0,6.218149,4.561038,35.667121)"/>
<path style="fill:none;stroke-width:0.1;stroke-linecap:round;stroke-linejoin:round;stroke:rgb(0%,0%,0%);stroke-opacity:1;stroke-miterlimit:4;" d="M 0.049863 0.0000397429 L 13.002748 0.0000397429 " transform="matrix(6.218149,0,0,6.218149,4.561038,29.448972)"/>
<path style=" stroke:none;fill-rule:nonzero;fill:rgb(0%,0%,0%);fill-opacity:1;" d="M 57.945312 16.390625 L 76.570312 16.390625 C 76.914062 16.390625 77.191406 16.667969 77.191406 17.011719 C 77.191406 17.355469 76.914062 17.632812 76.570312 17.632812 L 57.945312 17.632812 C 57.601562 17.632812 57.320312 17.355469 57.320312 17.011719 C 57.320312 16.667969 57.601562 16.390625 57.945312 16.390625 Z M 57.945312 16.390625 "/>
<path style=" stroke:none;fill-rule:nonzero;fill:rgb(0%,0%,0%);fill-opacity:1;" d="M 57.945312 22.609375 L 76.570312 22.609375 C 76.914062 22.609375 77.191406 22.886719 77.191406 23.230469 C 77.191406 23.574219 76.914062 23.851562 76.570312 23.851562 L 57.945312 23.851562 C 57.601562 23.851562 57.320312 23.574219 57.320312 23.230469 C 57.320312 22.886719 57.601562 22.609375 57.945312 22.609375 Z M 57.945312 22.609375 "/>
<path style=" stroke:none;fill-rule:nonzero;fill:rgb(0%,0%,0%);fill-opacity:1;" d="M 67.304688 15.0625 L 67.613281 15.0625 C 67.75 15.0625 67.863281 15.171875 67.863281 15.308594 L 67.863281 50.964844 C 67.863281 51.101562 67.75 51.210938 67.613281 51.210938 L 67.304688 51.210938 C 67.167969 51.210938 67.054688 51.101562 67.054688 50.964844 L 67.054688 15.308594 C 67.054688 15.171875 67.167969 15.0625 67.304688 15.0625 Z M 67.304688 15.0625 "/>
<path style=" stroke:none;fill-rule:nonzero;fill:rgb(0%,0%,0%);fill-opacity:1;" d="M 55.707031 21.664062 C 55.707031 21.914062 55.507812 22.136719 55.257812 22.136719 C 55.007812 22.136719 54.785156 21.914062 54.785156 21.664062 L 54.785156 18.058594 L 52.71875 18.828125 L 52.71875 22.757812 C 52.71875 23.007812 52.496094 23.230469 52.246094 23.230469 C 52 23.230469 51.800781 23.007812 51.800781 22.757812 L 51.800781 19.152344 L 51.003906 19.449219 C 50.953125 19.476562 50.878906 19.476562 50.832031 19.476562 C 50.558594 19.476562 50.332031 19.25 50.332031 18.976562 L 50.332031 17.484375 C 50.332031 17.285156 50.457031 17.085938 50.65625 17.011719 L 51.800781 16.613281 L 51.800781 12.636719 L 51.003906 12.910156 C 50.953125 12.933594 50.878906 12.933594 50.832031 12.933594 C 50.558594 12.933594 50.332031 12.710938 50.332031 12.4375 L 50.332031 10.945312 C 50.332031 10.746094 50.457031 10.570312 50.65625 10.496094 L 51.800781 10.074219 L 51.800781 6.144531 C 51.800781 5.894531 52 5.671875 52.246094 5.671875 C 52.496094 5.671875 52.71875 5.894531 52.71875 6.144531 L 52.71875 9.75 L 54.785156 8.980469 L 54.785156 5.050781 C 54.785156 4.800781 55.007812 4.578125 55.257812 4.578125 C 55.507812 4.578125 55.707031 4.800781 55.707031 5.050781 L 55.707031 8.65625 L 56.5 8.355469 C 56.550781 8.332031 56.625 8.332031 56.675781 8.332031 C 56.949219 8.332031 57.171875 8.554688 57.171875 8.828125 L 57.171875 10.320312 C 57.171875 10.519531 57.046875 10.71875 56.847656 10.792969 L 55.707031 11.191406 L 55.707031 15.171875 L 56.5 14.898438 C 56.550781 14.875 56.625 14.875 56.675781 14.875 C 56.949219 14.875 57.171875 15.097656 57.171875 15.371094 L 57.171875 16.863281 C 57.171875 17.0625 57.046875 17.238281 56.847656 17.3125 L 55.707031 17.734375 Z M 52.71875 12.285156 L 52.71875 16.265625 L 54.785156 15.519531 L 54.785156 11.539062 Z M 52.71875 12.285156 "/>
<path style=" stroke:none;fill-rule:nonzero;fill:rgb(0%,0%,0%);fill-opacity:1;" d="M 42.671875 24.773438 C 42.671875 25.023438 42.472656 25.246094 42.222656 25.246094 C 41.976562 25.246094 41.75 25.023438 41.75 24.773438 L 41.75 21.167969 L 39.6875 21.9375 L 39.6875 25.867188 C 39.6875 26.117188 39.464844 26.339844 39.214844 26.339844 C 38.964844 26.339844 38.765625 26.117188 38.765625 25.867188 L 38.765625 22.261719 L 37.972656 22.558594 C 37.921875 22.585938 37.847656 22.585938 37.796875 22.585938 C 37.523438 22.585938 37.300781 22.359375 37.300781 22.085938 L 37.300781 20.59375 C 37.300781 20.394531 37.425781 20.195312 37.621094 20.121094 L 38.765625 19.722656 L 38.765625 15.746094 L 37.972656 16.019531 C 37.921875 16.042969 37.847656 16.042969 37.796875 16.042969 C 37.523438 16.042969 37.300781 15.820312 37.300781 15.546875 L 37.300781 14.054688 C 37.300781 13.855469 37.425781 13.679688 37.621094 13.605469 L 38.765625 13.183594 L 38.765625 9.253906 C 38.765625 9.003906 38.964844 8.78125 39.214844 8.78125 C 39.464844 8.78125 39.6875 9.003906 39.6875 9.253906 L 39.6875 12.859375 L 41.75 12.089844 L 41.75 8.15625 C 41.75 7.910156 41.976562 7.683594 42.222656 7.683594 C 42.472656 7.683594 42.671875 7.910156 42.671875 8.15625 L 42.671875 11.765625 L 43.46875 11.464844 C 43.519531 11.441406 43.59375 11.441406 43.640625 11.441406 C 43.914062 11.441406 44.140625 11.664062 44.140625 11.9375 L 44.140625 13.429688 C 44.140625 13.628906 44.015625 13.828125 43.816406 13.902344 L 42.671875 14.300781 L 42.671875 18.28125 L 43.46875 18.007812 C 43.519531 17.984375 43.59375 17.984375 43.640625 17.984375 C 43.914062 17.984375 44.140625 18.207031 44.140625 18.480469 L 44.140625 19.972656 C 44.140625 20.171875 44.015625 20.34375 43.816406 20.421875 L 42.671875 20.84375 Z M 39.6875 15.394531 L 39.6875 19.375 L 41.75 18.628906 L 41.75 14.648438 Z M 39.6875 15.394531 "/>
<path style=" stroke:none;fill-rule:nonzero;fill:rgb(0%,0%,0%);fill-opacity:1;" d="M 34.589844 30.992188 C 34.589844 31.238281 34.390625 31.464844 34.140625 31.464844 C 33.890625 31.464844 33.667969 31.238281 33.667969 30.992188 L 33.667969 27.382812 L 31.605469 28.15625 L 31.605469 32.085938 C 31.605469 32.335938 31.378906 32.558594 31.132812 32.558594 C 30.882812 32.558594 30.683594 32.335938 30.683594 32.085938 L 30.683594 28.480469 L 29.886719 28.777344 C 29.835938 28.800781 29.761719 28.800781 29.714844 28.800781 C 29.441406 28.800781 29.214844 28.578125 29.214844 28.304688 L 29.214844 26.8125 C 29.214844 26.613281 29.339844 26.414062 29.539062 26.339844 L 30.683594 25.941406 L 30.683594 21.960938 L 29.886719 22.234375 C 29.835938 22.261719 29.761719 22.261719 29.714844 22.261719 C 29.441406 22.261719 29.214844 22.035156 29.214844 21.761719 L 29.214844 20.269531 C 29.214844 20.070312 29.339844 19.898438 29.539062 19.824219 L 30.683594 19.402344 L 30.683594 15.46875 C 30.683594 15.222656 30.882812 14.996094 31.132812 14.996094 C 31.378906 14.996094 31.605469 15.222656 31.605469 15.46875 L 31.605469 19.078125 L 33.667969 18.304688 L 33.667969 14.375 C 33.667969 14.128906 33.890625 13.902344 34.140625 13.902344 C 34.390625 13.902344 34.589844 14.128906 34.589844 14.375 L 34.589844 17.984375 L 35.382812 17.683594 C 35.433594 17.660156 35.507812 17.660156 35.558594 17.660156 C 35.832031 17.660156 36.054688 17.882812 36.054688 18.15625 L 36.054688 19.648438 C 36.054688 19.847656 35.929688 20.046875 35.734375 20.121094 L 34.589844 20.519531 L 34.589844 24.5 L 35.382812 24.226562 C 35.433594 24.199219 35.507812 24.199219 35.558594 24.199219 C 35.832031 24.199219 36.054688 24.425781 36.054688 24.699219 L 36.054688 26.191406 C 36.054688 26.390625 35.929688 26.5625 35.734375 26.636719 L 34.589844 27.0625 Z M 31.605469 21.613281 L 31.605469 25.59375 L 33.667969 24.847656 L 33.667969 20.867188 Z M 31.605469 21.613281 "/>
<path style=" stroke:none;fill-rule:nonzero;fill:rgb(0%,0%,0%);fill-opacity:1;" d="M 49.113281 37.210938 C 49.113281 37.457031 48.914062 37.683594 48.667969 37.683594 C 48.417969 37.683594 48.195312 37.457031 48.195312 37.210938 L 48.195312 33.601562 L 46.128906 34.375 L 46.128906 38.304688 C 46.128906 38.550781 45.90625 38.777344 45.65625 38.777344 C 45.40625 38.777344 45.210938 38.550781 45.210938 38.304688 L 45.210938 34.695312 L 44.414062 34.996094 C 44.363281 35.019531 44.289062 35.019531 44.238281 35.019531 C 43.964844 35.019531 43.742188 34.796875 43.742188 34.523438 L 43.742188 33.03125 C 43.742188 32.832031 43.867188 32.632812 44.066406 32.558594 L 45.210938 32.160156 L 45.210938 28.179688 L 44.414062 28.453125 C 44.363281 28.480469 44.289062 28.480469 44.238281 28.480469 C 43.964844 28.480469 43.742188 28.253906 43.742188 27.980469 L 43.742188 26.488281 C 43.742188 26.289062 43.867188 26.117188 44.066406 26.042969 L 45.210938 25.617188 L 45.210938 21.6875 C 45.210938 21.441406 45.40625 21.214844 45.65625 21.214844 C 45.90625 21.214844 46.128906 21.441406 46.128906 21.6875 L 46.128906 25.296875 L 48.195312 24.523438 L 48.195312 20.59375 C 48.195312 20.34375 48.417969 20.121094 48.667969 20.121094 C 48.914062 20.121094 49.113281 20.34375 49.113281 20.59375 L 49.113281 24.199219 L 49.910156 23.902344 C 49.960938 23.878906 50.035156 23.878906 50.085938 23.878906 C 50.359375 23.878906 50.582031 24.101562 50.582031 24.375 L 50.582031 25.867188 C 50.582031 26.066406 50.457031 26.265625 50.257812 26.339844 L 49.113281 26.738281 L 49.113281 30.71875 L 49.910156 30.445312 C 49.960938 30.417969 50.035156 30.417969 50.085938 30.417969 C 50.359375 30.417969 50.582031 30.644531 50.582031 30.917969 L 50.582031 32.410156 C 50.582031 32.609375 50.457031 32.78125 50.257812 32.855469 L 49.113281 33.28125 Z M 46.128906 27.832031 L 46.128906 31.8125 L 48.195312 31.066406 L 48.195312 27.085938 Z M 46.128906 27.832031 "/>
<path style=" stroke:none;fill-rule:nonzero;fill:rgb(0%,0%,0%);fill-opacity:1;" d="M 16.152344 63.898438 L 16.003906 63.898438 C 13.316406 63.898438 11.152344 61.707031 11.152344 58.996094 C 11.152344 57.554688 12.46875 56.4375 13.9375 56.4375 C 15.28125 56.4375 16.300781 57.605469 16.300781 58.996094 C 16.300781 60.289062 15.230469 61.359375 13.9375 61.359375 C 13.664062 61.359375 13.414062 61.3125 13.167969 61.210938 C 13.8125 62.179688 14.859375 62.828125 16.078125 62.828125 L 16.175781 62.828125 Z M 21 53.152344 C 22.691406 52.554688 23.8125 50.789062 23.8125 49.074219 C 23.8125 46.835938 22.171875 44.621094 19.507812 44.347656 C 20.105469 47.234375 20.652344 50.09375 21 53.152344 Z M 11.375 47.40625 C 11.375 50.765625 14.585938 53.550781 17.941406 53.550781 C 18.640625 53.550781 19.308594 53.5 19.980469 53.402344 C 19.632812 50.242188 19.0625 47.308594 18.414062 44.347656 C 16.449219 44.546875 15.332031 45.863281 15.332031 47.308594 C 15.332031 48.402344 15.953125 49.570312 17.34375 50.367188 C 17.46875 50.492188 17.519531 50.617188 17.519531 50.738281 C 17.519531 51.011719 17.269531 51.289062 16.972656 51.289062 C 16.898438 51.289062 16.824219 51.261719 16.75 51.238281 C 14.757812 50.167969 13.839844 48.378906 13.839844 46.636719 C 13.839844 44.445312 15.28125 42.308594 17.816406 41.734375 C 17.46875 40.292969 17.097656 38.824219 16.675781 37.382812 C 14.011719 40.394531 11.375 43.425781 11.375 47.40625 Z M 17.867188 54.621094 C 13.191406 54.621094 9.585938 50.34375 9.585938 45.316406 C 9.585938 40.914062 12.84375 37.707031 15.753906 34.347656 C 15.28125 32.808594 14.832031 31.238281 14.632812 29.625 C 14.484375 28.328125 14.460938 27.035156 14.460938 25.742188 C 14.460938 22.882812 15.828125 20.171875 18.167969 18.480469 C 18.316406 18.355469 18.515625 18.355469 18.664062 18.480469 C 20.429688 20.570312 21.972656 24.574219 21.972656 27.382812 C 21.972656 30.941406 19.832031 33.726562 17.496094 36.4375 C 18.015625 38.128906 18.464844 39.871094 18.886719 41.585938 C 18.988281 41.585938 19.113281 41.5625 19.210938 41.5625 C 23.066406 41.5625 25.578125 44.746094 25.578125 48.054688 C 25.578125 49.945312 24.757812 51.882812 22.917969 53.277344 C 22.371094 53.699219 21.746094 53.972656 21.101562 54.171875 C 21.175781 55.042969 21.226562 55.914062 21.226562 56.785156 C 21.226562 57.257812 21.199219 57.753906 21.175781 58.226562 C 21 61.1875 18.988281 63.824219 16.152344 63.898438 L 16.175781 62.828125 C 18.488281 62.777344 19.980469 60.539062 20.132812 58.078125 C 20.15625 57.628906 20.179688 57.15625 20.179688 56.710938 C 20.179688 55.9375 20.15625 55.191406 20.082031 54.421875 C 19.359375 54.546875 18.640625 54.621094 17.867188 54.621094 Z M 20.179688 25.320312 C 20.179688 23.953125 20.082031 23.355469 19.683594 22.113281 C 17.222656 23.304688 15.652344 25.816406 15.652344 28.554688 C 15.652344 30.394531 16.101562 31.863281 16.550781 33.378906 C 18.539062 30.964844 20.179688 28.453125 20.179688 25.320312 Z M 20.179688 25.320312 "/>
<path style=" stroke:none;fill-rule:nonzero;fill:rgb(0%,0%,0%);fill-opacity:1;" d="M 72.476562 10.519531 C 73.84375 10.519531 75.164062 11.21875 75.164062 12.734375 C 75.164062 14.5 73.796875 15.746094 72.625 16.441406 C 71.753906 16.964844 70.761719 17.285156 69.742188 17.285156 C 68.371094 17.285156 67.054688 16.589844 67.054688 15.074219 C 67.054688 13.308594 68.421875 12.0625 69.589844 11.367188 C 70.460938 10.84375 71.457031 10.519531 72.476562 10.519531 Z M 72.476562 10.519531 "/>
<path style=" stroke:none;fill-rule:nonzero;fill:rgb(0%,0%,0%);fill-opacity:1;" d="M 64.769531 13.628906 C 66.140625 13.628906 67.457031 14.328125 67.457031 15.84375 C 67.457031 17.609375 66.089844 18.851562 64.921875 19.550781 C 64.050781 20.070312 63.054688 20.394531 62.035156 20.394531 C 60.667969 20.394531 59.347656 19.699219 59.347656 18.183594 C 59.347656 16.414062 60.71875 15.171875 61.886719 14.476562 C 62.757812 13.953125 63.75 13.628906 64.769531 13.628906 Z M 64.769531 13.628906 "/>
<path style=" stroke:none;fill-rule:nonzero;fill:rgb(0%,0%,0%);fill-opacity:1;" d="M 72.476562 19.847656 C 73.84375 19.847656 75.164062 20.542969 75.164062 22.0625 C 75.164062 23.828125 73.796875 25.070312 72.625 25.769531 C 71.753906 26.289062 70.761719 26.613281 69.742188 26.613281 C 68.371094 26.613281 67.054688 25.917969 67.054688 24.398438 C 67.054688 22.632812 68.421875 21.390625 69.589844 20.695312 C 70.460938 20.171875 71.457031 19.847656 72.476562 19.847656 Z M 72.476562 19.847656 "/>
<path style=" stroke:none;fill-rule:nonzero;fill:rgb(0%,0%,0%);fill-opacity:1;" d="M 72.476562 26.066406 C 73.84375 26.066406 75.164062 26.761719 75.164062 28.28125 C 75.164062 30.046875 73.796875 31.289062 72.625 31.984375 C 71.753906 32.507812 70.761719 32.832031 69.742188 32.832031 C 68.371094 32.832031 67.054688 32.136719 67.054688 30.617188 C 67.054688 28.851562 68.421875 27.609375 69.589844 26.910156 C 70.460938 26.390625 71.457031 26.066406 72.476562 26.066406 Z M 72.476562 26.066406 "/>
</g>
</svg>
