<?xml version="1.0" encoding="UTF-8"?>
<svg xmlns="http://www.w3.org/2000/svg" xmlns:xlink="http://www.w3.org/1999/xlink" width="82.402133pt" height="60.920484pt" viewBox="0 0 82.402133 60.920484" version="1.1">
<g id="surface1">
<path style="fill:none;stroke-width:0.1;stroke-linecap:round;stroke-linejoin:round;stroke:rgb(0%,0%,0%);stroke-opacity:1;stroke-miterlimit:4;" d="M 0.049863 -0.0000416676 L 10.849902 -0.0000416676 " transform="matrix(6.218149,0,0,6.218149,4.561038,39.812759)"/>
<path style="fill:none;stroke-width:0.1;stroke-linecap:round;stroke-linejoin:round;stroke:rgb(0%,0%,0%);stroke-opacity:1;stroke-miterlimit:4;" d="M 0.049863 -0.000138316 L 10.849902 -0.000138316 " transform="matrix(6.218149,0,0,6.218149,4.561038,33.59461)"/>
<path style="fill:none;stroke-width:0.1;stroke-linecap:round;stroke-linejoin:round;stroke:rgb(0%,0%,0%);stroke-opacity:1;stroke-miterlimit:4;" d="M 0.049863 -0.000234965 L 10.849902 -0.000234965 " transform="matrix(6.218149,0,0,6.218149,4.561038,27.376461)"/>
<path style="fill:none;stroke-width:0.1;stroke-linecap:round;stroke-linejoin:round;stroke:rgb(0%,0%,0%);stroke-opacity:1;stroke-miterlimit:4;" d="M 0.049863 0.000296588 L 10.849902 0.000296588 " transform="matrix(6.218149,0,0,6.218149,4.561038,21.158312)"/>
<path style="fill:none;stroke-width:0.1;stroke-linecap:round;stroke-linejoin:round;stroke:rgb(0%,0%,0%);stroke-opacity:1;stroke-miterlimit:4;" d="M 0.049863 0.000199939 L 10.849902 0.000199939 " transform="matrix(6.218149,0,0,6.218149,4.561038,14.940163)"/>
<path style=" stroke:none;fill-rule:nonzero;fill:rgb(0%,0%,0%);fill-opacity:1;" d="M 61.21875 4.578125 L 61.527344 4.578125 C 61.667969 4.578125 61.777344 4.6875 61.777344 4.824219 L 61.777344 41.515625 C 61.777344 41.652344 61.667969 41.765625 61.527344 41.765625 L 61.21875 41.765625 C 61.082031 41.765625 60.96875 41.652344 60.96875 41.515625 L 60.96875 4.824219 C 60.96875 4.6875 61.082031 4.578125 61.21875 4.578125 Z M 61.21875 4.578125 "/>
<path style=" stroke:none;fill-rule:nonzero;fill:rgb(0%,0%,0%);fill-opacity:1;" d="M 50.023438 38.246094 C 50.023438 38.496094 49.824219 38.71875 49.578125 38.71875 C 49.328125 38.71875 49.105469 38.496094 49.105469 38.246094 L 49.105469 34.640625 L 47.039062 35.410156 L 47.039062 39.339844 C 47.039062 39.589844 46.816406 39.8125 46.566406 39.8125 C 46.320312 39.8125 46.121094 39.589844 46.121094 39.339844 L 46.121094 35.734375 L 45.324219 36.03125 C 45.273438 36.058594 45.199219 36.058594 45.148438 36.058594 C 44.875 36.058594 44.652344 35.832031 44.652344 35.558594 L 44.652344 34.066406 C 44.652344 33.867188 44.777344 33.667969 44.976562 33.59375 L 46.121094 33.195312 L 46.121094 29.21875 L 45.324219 29.492188 C 45.273438 29.515625 45.199219 29.515625 45.148438 29.515625 C 44.875 29.515625 44.652344 29.292969 44.652344 29.019531 L 44.652344 27.527344 C 44.652344 27.328125 44.777344 27.152344 44.976562 27.078125 L 46.121094 26.65625 L 46.121094 22.726562 C 46.121094 22.476562 46.320312 22.253906 46.566406 22.253906 C 46.816406 22.253906 47.039062 22.476562 47.039062 22.726562 L 47.039062 26.332031 L 49.105469 25.5625 L 49.105469 21.632812 C 49.105469 21.382812 49.328125 21.160156 49.578125 21.160156 C 49.824219 21.160156 50.023438 21.382812 50.023438 21.632812 L 50.023438 25.238281 L 50.820312 24.9375 C 50.871094 24.914062 50.945312 24.914062 50.996094 24.914062 C 51.269531 24.914062 51.492188 25.136719 51.492188 25.410156 L 51.492188 26.902344 C 51.492188 27.101562 51.367188 27.300781 51.167969 27.375 L 50.023438 27.773438 L 50.023438 31.753906 L 50.820312 31.480469 C 50.871094 31.457031 50.945312 31.457031 50.996094 31.457031 C 51.269531 31.457031 51.492188 31.679688 51.492188 31.953125 L 51.492188 33.445312 C 51.492188 33.644531 51.367188 33.820312 51.167969 33.894531 L 50.023438 34.316406 Z M 47.039062 28.867188 L 47.039062 32.847656 L 49.105469 32.101562 L 49.105469 28.121094 Z M 47.039062 28.867188 "/>
<path style=" stroke:none;fill-rule:nonzero;fill:rgb(0%,0%,0%);fill-opacity:1;" d="M 35.324219 44.464844 C 35.324219 44.710938 35.125 44.9375 34.878906 44.9375 C 34.628906 44.9375 34.40625 44.710938 34.40625 44.464844 L 34.40625 40.855469 L 32.339844 41.628906 L 32.339844 45.558594 C 32.339844 45.808594 32.117188 46.03125 31.867188 46.03125 C 31.617188 46.03125 31.417969 45.808594 31.417969 45.558594 L 31.417969 41.953125 L 30.625 42.25 C 30.574219 42.273438 30.5 42.273438 30.449219 42.273438 C 30.175781 42.273438 29.953125 42.050781 29.953125 41.777344 L 29.953125 40.285156 C 29.953125 40.085938 30.078125 39.886719 30.277344 39.8125 L 31.417969 39.414062 L 31.417969 35.433594 L 30.625 35.707031 C 30.574219 35.734375 30.5 35.734375 30.449219 35.734375 C 30.175781 35.734375 29.953125 35.511719 29.953125 35.234375 L 29.953125 33.742188 C 29.953125 33.542969 30.078125 33.371094 30.277344 33.296875 L 31.417969 32.875 L 31.417969 28.945312 C 31.417969 28.695312 31.617188 28.472656 31.867188 28.472656 C 32.117188 28.472656 32.339844 28.695312 32.339844 28.945312 L 32.339844 32.550781 L 34.40625 31.777344 L 34.40625 27.847656 C 34.40625 27.601562 34.628906 27.375 34.878906 27.375 C 35.125 27.375 35.324219 27.601562 35.324219 27.847656 L 35.324219 31.457031 L 36.121094 31.15625 C 36.171875 31.132812 36.246094 31.132812 36.292969 31.132812 C 36.566406 31.132812 36.792969 31.355469 36.792969 31.628906 L 36.792969 33.121094 C 36.792969 33.320312 36.667969 33.519531 36.46875 33.59375 L 35.324219 33.992188 L 35.324219 37.972656 L 36.121094 37.699219 C 36.171875 37.671875 36.246094 37.671875 36.292969 37.671875 C 36.566406 37.671875 36.792969 37.898438 36.792969 38.171875 L 36.792969 39.664062 C 36.792969 39.863281 36.667969 40.035156 36.46875 40.109375 L 35.324219 40.535156 Z M 32.339844 35.085938 L 32.339844 39.066406 L 34.40625 38.320312 L 34.40625 34.339844 Z M 32.339844 35.085938 "/>
<path style=" stroke:none;fill-rule:nonzero;fill:rgb(0%,0%,0%);fill-opacity:1;" d="M 43.410156 50.683594 C 43.410156 50.929688 43.210938 51.15625 42.960938 51.15625 C 42.710938 51.15625 42.488281 50.929688 42.488281 50.683594 L 42.488281 47.074219 L 40.421875 47.847656 L 40.421875 51.777344 C 40.421875 52.023438 40.199219 52.25 39.949219 52.25 C 39.703125 52.25 39.503906 52.023438 39.503906 51.777344 L 39.503906 48.171875 L 38.707031 48.46875 C 38.65625 48.492188 38.582031 48.492188 38.535156 48.492188 C 38.257812 48.492188 38.035156 48.269531 38.035156 47.996094 L 38.035156 46.503906 C 38.035156 46.304688 38.160156 46.105469 38.359375 46.03125 L 39.503906 45.632812 L 39.503906 41.652344 L 38.707031 41.925781 C 38.65625 41.953125 38.582031 41.953125 38.535156 41.953125 C 38.257812 41.953125 38.035156 41.726562 38.035156 41.453125 L 38.035156 39.960938 C 38.035156 39.761719 38.160156 39.589844 38.359375 39.515625 L 39.503906 39.089844 L 39.503906 35.160156 C 39.503906 34.914062 39.703125 34.6875 39.949219 34.6875 C 40.199219 34.6875 40.421875 34.914062 40.421875 35.160156 L 40.421875 38.769531 L 42.488281 37.996094 L 42.488281 34.066406 C 42.488281 33.820312 42.710938 33.59375 42.960938 33.59375 C 43.210938 33.59375 43.410156 33.820312 43.410156 34.066406 L 43.410156 37.671875 L 44.203125 37.375 C 44.253906 37.351562 44.328125 37.351562 44.378906 37.351562 C 44.652344 37.351562 44.875 37.574219 44.875 37.847656 L 44.875 39.339844 C 44.875 39.539062 44.75 39.738281 44.550781 39.8125 L 43.410156 40.210938 L 43.410156 44.191406 L 44.203125 43.917969 C 44.253906 43.890625 44.328125 43.890625 44.378906 43.890625 C 44.652344 43.890625 44.875 44.117188 44.875 44.390625 L 44.875 45.882812 C 44.875 46.082031 44.75 46.253906 44.550781 46.328125 L 43.410156 46.753906 Z M 40.421875 41.304688 L 40.421875 45.285156 L 42.488281 44.539062 L 42.488281 40.558594 Z M 40.421875 41.304688 "/>
<path style=" stroke:none;fill-rule:nonzero;fill:rgb(0%,0%,0%);fill-opacity:1;" d="M 23.390625 24.265625 C 23.390625 23.570312 23.960938 23 24.65625 23 C 25.355469 23 25.925781 23.570312 25.925781 24.265625 C 25.925781 24.964844 25.355469 25.535156 24.65625 25.535156 C 23.960938 25.535156 23.390625 24.964844 23.390625 24.265625 Z M 23.390625 18.050781 C 23.390625 17.351562 23.960938 16.78125 24.65625 16.78125 C 25.355469 16.78125 25.925781 17.351562 25.925781 18.050781 C 25.925781 18.746094 25.355469 19.316406 24.65625 19.316406 C 23.960938 19.316406 23.390625 18.746094 23.390625 18.050781 Z M 15.304688 14.617188 C 19.585938 14.617188 22.59375 16.804688 22.59375 20.859375 C 22.59375 27.402344 16.050781 31.15625 9.757812 33.820312 C 9.683594 33.894531 9.609375 33.917969 9.535156 33.917969 C 9.363281 33.917969 9.210938 33.769531 9.210938 33.59375 C 9.210938 33.519531 9.238281 33.445312 9.3125 33.371094 C 14.335938 30.4375 19.558594 26.78125 19.558594 21.109375 C 19.558594 18.125 17.992188 15.261719 15.304688 15.261719 C 13.464844 15.261719 12.097656 16.605469 11.476562 18.398438 C 11.75 18.273438 12.023438 18.199219 12.320312 18.199219 C 13.6875 18.199219 14.808594 19.316406 14.808594 20.6875 C 14.808594 22.128906 13.714844 23.320312 12.320312 23.320312 C 10.828125 23.320312 9.535156 22.152344 9.535156 20.6875 C 9.535156 17.378906 12.074219 14.617188 15.304688 14.617188 Z M 15.304688 14.617188 "/>
<path style=" stroke:none;fill-rule:nonzero;fill:rgb(0%,0%,0%);fill-opacity:1;" d="M 59.089844 20.882812 C 60.457031 20.882812 61.777344 21.582031 61.777344 23.097656 C 61.777344 24.863281 60.410156 26.109375 59.238281 26.804688 C 58.371094 27.328125 57.375 27.648438 56.355469 27.648438 C 54.988281 27.648438 53.667969 26.953125 53.667969 25.4375 C 53.667969 23.671875 55.035156 22.425781 56.207031 21.730469 C 57.074219 21.207031 58.070312 20.882812 59.089844 20.882812 Z M 59.089844 20.882812 "/>
<path style=" stroke:none;fill-rule:nonzero;fill:rgb(0%,0%,0%);fill-opacity:1;" d="M 59.089844 27.101562 C 60.457031 27.101562 61.777344 27.800781 61.777344 29.316406 C 61.777344 31.082031 60.410156 32.324219 59.238281 33.023438 C 58.371094 33.542969 57.375 33.867188 56.355469 33.867188 C 54.988281 33.867188 53.667969 33.171875 53.667969 31.65625 C 53.667969 29.886719 55.035156 28.644531 56.207031 27.949219 C 57.074219 27.425781 58.070312 27.101562 59.089844 27.101562 Z M 59.089844 27.101562 "/>
<path style=" stroke:none;fill-rule:nonzero;fill:rgb(0%,0%,0%);fill-opacity:1;" d="M 59.089844 33.320312 C 60.457031 33.320312 61.777344 34.015625 61.777344 35.535156 C 61.777344 37.300781 60.410156 38.542969 59.238281 39.242188 C 58.371094 39.761719 57.375 40.085938 56.355469 40.085938 C 54.988281 40.085938 53.667969 39.390625 53.667969 37.871094 C 53.667969 36.105469 55.035156 34.863281 56.207031 34.167969 C 57.074219 33.644531 58.070312 33.320312 59.089844 33.320312 Z M 59.089844 33.320312 "/>
<path style=" stroke:none;fill-rule:nonzero;fill:rgb(0%,0%,0%);fill-opacity:1;" d="M 59.089844 39.539062 C 60.457031 39.539062 61.777344 40.234375 61.777344 41.753906 C 61.777344 43.519531 60.410156 44.761719 59.238281 45.457031 C 58.371094 45.980469 57.375 46.304688 56.355469 46.304688 C 54.988281 46.304688 53.667969 45.609375 53.667969 44.089844 C 53.667969 42.324219 55.035156 41.082031 56.207031 40.386719 C 57.074219 39.863281 58.070312 39.539062 59.089844 39.539062 Z M 59.089844 39.539062 "/>
</g>
</svg>
