<?xml version="1.0" encoding="UTF-8"?>
<svg xmlns="http://www.w3.org/2000/svg" xmlns:xlink="http://www.w3.org/1999/xlink" width="68.472344pt" height="63.46631pt" viewBox="0 0 68.472344 63.46631" version="1.1">
<g id="surface1">
<path style="fill:none;stroke-width:0.1;stroke-linecap:round;stroke-linejoin:round;stroke:rgb(0%,0%,0%);stroke-opacity:1;stroke-miterlimit:4;" d="M 0.049863 -0.000201864 L 8.752337 -0.000201864 " transform="matrix(6.218149,0,0,6.218149,4.561038,54.321568)"/>
<path style="fill:none;stroke-width:0.1;stroke-linecap:round;stroke-linejoin:round;stroke:rgb(0%,0%,0%);stroke-opacity:1;stroke-miterlimit:4;" d="M 0.049863 -0.000298513 L 8.752337 -0.000298513 " transform="matrix(6.218149,0,0,6.218149,4.561038,48.103419)"/>
<path style="fill:none;stroke-width:0.1;stroke-linecap:round;stroke-linejoin:round;stroke:rgb(0%,0%,0%);stroke-opacity:1;stroke-miterlimit:4;" d="M 0.049863 0.00023304 L 8.752337 0.00023304 " transform="matrix(6.218149,0,0,6.218149,4.561038,41.88527)"/>
<path style="fill:none;stroke-width:0.1;stroke-linecap:round;stroke-linejoin:round;stroke:rgb(0%,0%,0%);stroke-opacity:1;stroke-miterlimit:4;" d="M 0.049863 0.000136391 L 8.752337 0.000136391 " transform="matrix(6.218149,0,0,6.218149,4.561038,35.667121)"/>
<path style="fill:none;stroke-width:0.1;stroke-linecap:round;stroke-linejoin:round;stroke:rgb(0%,0%,0%);stroke-opacity:1;stroke-miterlimit:4;" d="M 0.049863 0.0000397429 L 8.752337 0.0000397429 " transform="matrix(6.218149,0,0,6.218149,4.561038,29.448972)"/>
<path style=" stroke:none;fill-rule:nonzero;fill:rgb(0%,0%,0%);fill-opacity:1;" d="M 40.160156 16.390625 L 50.140625 16.390625 C 50.484375 16.390625 50.765625 16.667969 50.765625 17.011719 C 50.765625 17.355469 50.484375 17.632812 50.140625 17.632812 L 40.160156 17.632812 C 39.816406 17.632812 39.539062 17.355469 39.539062 17.011719 C 39.539062 16.667969 39.816406 16.390625 40.160156 16.390625 Z M 40.160156 16.390625 "/>
<path style=" stroke:none;fill-rule:nonzero;fill:rgb(0%,0%,0%);fill-opacity:1;" d="M 39.21875 22.609375 L 50.140625 22.609375 C 50.484375 22.609375 50.761719 22.886719 50.761719 23.230469 C 50.761719 23.574219 50.484375 23.851562 50.140625 23.851562 L 39.21875 23.851562 C 38.878906 23.851562 38.597656 23.574219 38.597656 23.230469 C 38.597656 22.886719 38.878906 22.609375 39.21875 22.609375 Z M 39.21875 22.609375 "/>
<path style=" stroke:none;fill-rule:nonzero;fill:rgb(0%,0%,0%);fill-opacity:1;" d="M 36.984375 21.664062 C 36.984375 21.914062 36.785156 22.136719 36.535156 22.136719 C 36.285156 22.136719 36.0625 21.914062 36.0625 21.664062 L 36.0625 18.058594 L 33.996094 18.828125 L 33.996094 22.757812 C 33.996094 23.007812 33.773438 23.230469 33.523438 23.230469 C 33.277344 23.230469 33.078125 23.007812 33.078125 22.757812 L 33.078125 19.152344 L 32.28125 19.449219 C 32.230469 19.476562 32.15625 19.476562 32.109375 19.476562 C 31.832031 19.476562 31.609375 19.25 31.609375 18.976562 L 31.609375 17.484375 C 31.609375 17.285156 31.734375 17.085938 31.933594 17.011719 L 33.078125 16.613281 L 33.078125 12.636719 L 32.28125 12.910156 C 32.230469 12.933594 32.15625 12.933594 32.109375 12.933594 C 31.832031 12.933594 31.609375 12.710938 31.609375 12.4375 L 31.609375 10.945312 C 31.609375 10.746094 31.734375 10.570312 31.933594 10.496094 L 33.078125 10.074219 L 33.078125 6.144531 C 33.078125 5.894531 33.277344 5.671875 33.523438 5.671875 C 33.773438 5.671875 33.996094 5.894531 33.996094 6.144531 L 33.996094 9.75 L 36.0625 8.980469 L 36.0625 5.050781 C 36.0625 4.800781 36.285156 4.578125 36.535156 4.578125 C 36.785156 4.578125 36.984375 4.800781 36.984375 5.050781 L 36.984375 8.65625 L 37.777344 8.355469 C 37.828125 8.332031 37.902344 8.332031 37.953125 8.332031 C 38.226562 8.332031 38.449219 8.554688 38.449219 8.828125 L 38.449219 10.320312 C 38.449219 10.519531 38.324219 10.71875 38.125 10.792969 L 36.984375 11.191406 L 36.984375 15.171875 L 37.777344 14.898438 C 37.828125 14.875 37.902344 14.875 37.953125 14.875 C 38.226562 14.875 38.449219 15.097656 38.449219 15.371094 L 38.449219 16.863281 C 38.449219 17.0625 38.324219 17.238281 38.125 17.3125 L 36.984375 17.734375 Z M 33.996094 12.285156 L 33.996094 16.265625 L 36.0625 15.519531 L 36.0625 11.539062 Z M 33.996094 12.285156 "/>
<path style=" stroke:none;fill-rule:nonzero;fill:rgb(0%,0%,0%);fill-opacity:1;" d="M 40.875 15.0625 L 41.1875 15.0625 C 41.324219 15.0625 41.433594 15.171875 41.433594 15.308594 L 41.433594 54.074219 C 41.433594 54.210938 41.324219 54.320312 41.1875 54.320312 L 40.875 54.320312 C 40.738281 54.320312 40.625 54.210938 40.625 54.074219 L 40.625 15.308594 C 40.625 15.171875 40.738281 15.0625 40.875 15.0625 Z M 40.875 15.0625 "/>
<path style=" stroke:none;fill-rule:nonzero;fill:rgb(0%,0%,0%);fill-opacity:1;" d="M 23.390625 38.777344 C 23.390625 38.078125 23.960938 37.507812 24.65625 37.507812 C 25.355469 37.507812 25.925781 38.078125 25.925781 38.777344 C 25.925781 39.472656 25.355469 40.042969 24.65625 40.042969 C 23.960938 40.042969 23.390625 39.472656 23.390625 38.777344 Z M 23.390625 32.558594 C 23.390625 31.863281 23.960938 31.289062 24.65625 31.289062 C 25.355469 31.289062 25.925781 31.863281 25.925781 32.558594 C 25.925781 33.253906 25.355469 33.828125 24.65625 33.828125 C 23.960938 33.828125 23.390625 33.253906 23.390625 32.558594 Z M 15.304688 29.125 C 19.585938 29.125 22.59375 31.3125 22.59375 35.367188 C 22.59375 41.910156 16.050781 45.664062 9.757812 48.328125 C 9.683594 48.402344 9.609375 48.425781 9.535156 48.425781 C 9.363281 48.425781 9.210938 48.277344 9.210938 48.101562 C 9.210938 48.027344 9.238281 47.953125 9.3125 47.878906 C 14.335938 44.945312 19.558594 41.289062 19.558594 35.617188 C 19.558594 32.632812 17.992188 29.773438 15.304688 29.773438 C 13.464844 29.773438 12.097656 31.117188 11.476562 32.90625 C 11.75 32.78125 12.023438 32.707031 12.320312 32.707031 C 13.6875 32.707031 14.808594 33.828125 14.808594 35.195312 C 14.808594 36.636719 13.714844 37.832031 12.320312 37.832031 C 10.828125 37.832031 9.535156 36.660156 9.535156 35.195312 C 9.535156 31.886719 12.074219 29.125 15.304688 29.125 Z M 15.304688 29.125 "/>
<path style=" stroke:none;fill-rule:nonzero;fill:rgb(0%,0%,0%);fill-opacity:1;" d="M 46.046875 10.519531 C 47.417969 10.519531 48.734375 11.21875 48.734375 12.734375 C 48.734375 14.5 47.367188 15.746094 46.199219 16.441406 C 45.328125 16.964844 44.332031 17.285156 43.3125 17.285156 C 41.945312 17.285156 40.625 16.589844 40.625 15.074219 C 40.625 13.308594 41.996094 12.0625 43.164062 11.367188 C 44.035156 10.84375 45.027344 10.519531 46.046875 10.519531 Z M 46.046875 10.519531 "/>
<path style=" stroke:none;fill-rule:nonzero;fill:rgb(0%,0%,0%);fill-opacity:1;" d="M 46.046875 16.738281 C 47.417969 16.738281 48.734375 17.433594 48.734375 18.953125 C 48.734375 20.71875 47.367188 21.960938 46.199219 22.660156 C 45.328125 23.179688 44.332031 23.503906 43.3125 23.503906 C 41.945312 23.503906 40.625 22.808594 40.625 21.289062 C 40.625 19.523438 41.996094 18.28125 43.164062 17.585938 C 44.035156 17.0625 45.027344 16.738281 46.046875 16.738281 Z M 46.046875 16.738281 "/>
<path style=" stroke:none;fill-rule:nonzero;fill:rgb(0%,0%,0%);fill-opacity:1;" d="M 46.046875 22.957031 C 47.417969 22.957031 48.734375 23.652344 48.734375 25.171875 C 48.734375 26.9375 47.367188 28.179688 46.199219 28.875 C 45.328125 29.398438 44.332031 29.722656 43.3125 29.722656 C 41.945312 29.722656 40.625 29.027344 40.625 27.507812 C 40.625 25.742188 41.996094 24.5 43.164062 23.804688 C 44.035156 23.28125 45.027344 22.957031 46.046875 22.957031 Z M 46.046875 22.957031 "/>
<path style=" stroke:none;fill-rule:nonzero;fill:rgb(0%,0%,0%);fill-opacity:1;" d="M 46.046875 29.175781 C 47.417969 29.175781 48.734375 29.871094 48.734375 31.390625 C 48.734375 33.15625 47.367188 34.398438 46.199219 35.09375 C 45.328125 35.617188 44.332031 35.941406 43.3125 35.941406 C 41.945312 35.941406 40.625 35.246094 40.625 33.726562 C 40.625 31.960938 41.996094 30.71875 43.164062 30.019531 C 44.035156 29.5 45.027344 29.175781 46.046875 29.175781 Z M 46.046875 29.175781 "/>
</g>
</svg>
