<?xml version="1.0" encoding="UTF-8"?>
<svg xmlns="http://www.w3.org/2000/svg" xmlns:xlink="http://www.w3.org/1999/xlink" width="81.616415pt" height="71.629017pt" viewBox="0 0 81.616415 71.629017" version="1.1">
<g id="surface1">
<path style="fill:none;stroke-width:0.1;stroke-linecap:round;stroke-linejoin:round;stroke:rgb(0%,0%,0%);stroke-opacity:1;stroke-miterlimit:4;" d="M 0.049863 -0.000287501 L 10.731172 -0.000287501 " transform="matrix(6.218149,0,0,6.218149,4.561038,40.517413)"/>
<path style="fill:none;stroke-width:0.1;stroke-linecap:round;stroke-linejoin:round;stroke:rgb(0%,0%,0%);stroke-opacity:1;stroke-miterlimit:4;" d="M 0.049863 0.000244052 L 10.731172 0.000244052 " transform="matrix(6.218149,0,0,6.218149,4.561038,34.299264)"/>
<path style="fill:none;stroke-width:0.1;stroke-linecap:round;stroke-linejoin:round;stroke:rgb(0%,0%,0%);stroke-opacity:1;stroke-miterlimit:4;" d="M 0.049863 0.000147403 L 10.731172 0.000147403 " transform="matrix(6.218149,0,0,6.218149,4.561038,28.081115)"/>
<path style="fill:none;stroke-width:0.1;stroke-linecap:round;stroke-linejoin:round;stroke:rgb(0%,0%,0%);stroke-opacity:1;stroke-miterlimit:4;" d="M 0.049863 0.0000507548 L 10.731172 0.0000507548 " transform="matrix(6.218149,0,0,6.218149,4.561038,21.862966)"/>
<path style="fill:none;stroke-width:0.1;stroke-linecap:round;stroke-linejoin:round;stroke:rgb(0%,0%,0%);stroke-opacity:1;stroke-miterlimit:4;" d="M 0.049863 -0.0000458938 L 10.731172 -0.0000458938 " transform="matrix(6.218149,0,0,6.218149,4.561038,15.644817)"/>
<path style=" stroke:none;fill-rule:nonzero;fill:rgb(0%,0%,0%);fill-opacity:1;" d="M 51.527344 46.113281 L 62.449219 46.113281 C 62.792969 46.113281 63.070312 46.390625 63.070312 46.734375 C 63.070312 47.078125 62.792969 47.355469 62.449219 47.355469 L 51.527344 47.355469 C 51.183594 47.355469 50.90625 47.078125 50.90625 46.734375 C 50.90625 46.390625 51.183594 46.113281 51.527344 46.113281 Z M 51.527344 46.113281 "/>
<path style=" stroke:none;fill-rule:nonzero;fill:rgb(0%,0%,0%);fill-opacity:1;" d="M 51.527344 52.332031 L 62.449219 52.332031 C 62.792969 52.332031 63.070312 52.609375 63.070312 52.953125 C 63.070312 53.296875 62.792969 53.574219 62.449219 53.574219 L 51.527344 53.574219 C 51.183594 53.574219 50.90625 53.296875 50.90625 52.953125 C 50.90625 52.609375 51.183594 52.332031 51.527344 52.332031 Z M 51.527344 52.332031 "/>
<path style=" stroke:none;fill-rule:nonzero;fill:rgb(0%,0%,0%);fill-opacity:1;" d="M 60.480469 18.753906 L 60.792969 18.753906 C 60.929688 18.753906 61.042969 18.867188 61.042969 19.003906 L 61.042969 51.546875 C 61.042969 51.683594 60.929688 51.796875 60.792969 51.796875 L 60.480469 51.796875 C 60.34375 51.796875 60.234375 51.683594 60.234375 51.546875 L 60.234375 19.003906 C 60.234375 18.867188 60.34375 18.753906 60.480469 18.753906 Z M 60.480469 18.753906 "/>
<path style=" stroke:none;fill-rule:nonzero;fill:rgb(0%,0%,0%);fill-opacity:1;" d="M 49.289062 48.277344 C 49.289062 48.527344 49.089844 48.75 48.839844 48.75 C 48.589844 48.75 48.367188 48.527344 48.367188 48.277344 L 48.367188 44.671875 L 46.304688 45.441406 L 46.304688 49.371094 C 46.304688 49.621094 46.078125 49.84375 45.832031 49.84375 C 45.582031 49.84375 45.382812 49.621094 45.382812 49.371094 L 45.382812 45.765625 L 44.585938 46.0625 C 44.539062 46.089844 44.464844 46.089844 44.414062 46.089844 C 44.140625 46.089844 43.914062 45.863281 43.914062 45.589844 L 43.914062 44.097656 C 43.914062 43.898438 44.039062 43.699219 44.238281 43.625 L 45.382812 43.230469 L 45.382812 39.25 L 44.585938 39.523438 C 44.539062 39.546875 44.464844 39.546875 44.414062 39.546875 C 44.140625 39.546875 43.914062 39.324219 43.914062 39.050781 L 43.914062 37.558594 C 43.914062 37.359375 44.039062 37.183594 44.238281 37.109375 L 45.382812 36.6875 L 45.382812 32.757812 C 45.382812 32.507812 45.582031 32.285156 45.832031 32.285156 C 46.078125 32.285156 46.304688 32.507812 46.304688 32.757812 L 46.304688 36.363281 L 48.367188 35.59375 L 48.367188 31.664062 C 48.367188 31.414062 48.589844 31.191406 48.839844 31.191406 C 49.089844 31.191406 49.289062 31.414062 49.289062 31.664062 L 49.289062 35.269531 L 50.085938 34.972656 C 50.132812 34.945312 50.207031 34.945312 50.257812 34.945312 C 50.53125 34.945312 50.753906 35.167969 50.753906 35.445312 L 50.753906 36.9375 C 50.753906 37.132812 50.632812 37.332031 50.433594 37.410156 L 49.289062 37.804688 L 49.289062 41.785156 L 50.085938 41.511719 C 50.132812 41.488281 50.207031 41.488281 50.257812 41.488281 C 50.53125 41.488281 50.753906 41.710938 50.753906 41.984375 L 50.753906 43.476562 C 50.753906 43.675781 50.632812 43.851562 50.433594 43.925781 L 49.289062 44.347656 Z M 46.304688 38.902344 L 46.304688 42.878906 L 48.367188 42.132812 L 48.367188 38.15625 Z M 46.304688 38.902344 "/>
<path style=" stroke:none;fill-rule:nonzero;fill:rgb(0%,0%,0%);fill-opacity:1;" d="M 34.589844 54.496094 C 34.589844 54.746094 34.390625 54.96875 34.140625 54.96875 C 33.890625 54.96875 33.667969 54.746094 33.667969 54.496094 L 33.667969 50.890625 L 31.605469 51.660156 L 31.605469 55.589844 C 31.605469 55.839844 31.378906 56.0625 31.132812 56.0625 C 30.882812 56.0625 30.683594 55.839844 30.683594 55.589844 L 30.683594 51.984375 L 29.886719 52.28125 C 29.835938 52.308594 29.761719 52.308594 29.714844 52.308594 C 29.441406 52.308594 29.214844 52.082031 29.214844 51.808594 L 29.214844 50.316406 C 29.214844 50.117188 29.339844 49.917969 29.539062 49.84375 L 30.683594 49.445312 L 30.683594 45.46875 L 29.886719 45.742188 C 29.835938 45.765625 29.761719 45.765625 29.714844 45.765625 C 29.441406 45.765625 29.214844 45.542969 29.214844 45.269531 L 29.214844 43.777344 C 29.214844 43.578125 29.339844 43.402344 29.539062 43.328125 L 30.683594 42.90625 L 30.683594 38.976562 C 30.683594 38.726562 30.882812 38.503906 31.132812 38.503906 C 31.378906 38.503906 31.605469 38.726562 31.605469 38.976562 L 31.605469 42.582031 L 33.667969 41.8125 L 33.667969 37.882812 C 33.667969 37.632812 33.890625 37.410156 34.140625 37.410156 C 34.390625 37.410156 34.589844 37.632812 34.589844 37.882812 L 34.589844 41.488281 L 35.382812 41.1875 C 35.433594 41.164062 35.507812 41.164062 35.558594 41.164062 C 35.832031 41.164062 36.054688 41.386719 36.054688 41.660156 L 36.054688 43.152344 C 36.054688 43.351562 35.929688 43.550781 35.734375 43.625 L 34.589844 44.023438 L 34.589844 48.003906 L 35.382812 47.730469 C 35.433594 47.707031 35.507812 47.707031 35.558594 47.707031 C 35.832031 47.707031 36.054688 47.929688 36.054688 48.203125 L 36.054688 49.695312 C 36.054688 49.894531 35.929688 50.070312 35.734375 50.144531 L 34.589844 50.566406 Z M 31.605469 45.117188 L 31.605469 49.097656 L 33.667969 48.351562 L 33.667969 44.371094 Z M 31.605469 45.117188 "/>
<path style=" stroke:none;fill-rule:nonzero;fill:rgb(0%,0%,0%);fill-opacity:1;" d="M 42.671875 60.714844 C 42.671875 60.960938 42.472656 61.1875 42.222656 61.1875 C 41.976562 61.1875 41.75 60.960938 41.75 60.714844 L 41.75 57.109375 L 39.6875 57.878906 L 39.6875 61.808594 C 39.6875 62.058594 39.464844 62.28125 39.214844 62.28125 C 38.964844 62.28125 38.765625 62.058594 38.765625 61.808594 L 38.765625 58.203125 L 37.972656 58.5 C 37.921875 58.523438 37.847656 58.523438 37.796875 58.523438 C 37.523438 58.523438 37.300781 58.300781 37.300781 58.027344 L 37.300781 56.535156 C 37.300781 56.335938 37.425781 56.136719 37.621094 56.0625 L 38.765625 55.664062 L 38.765625 51.683594 L 37.972656 51.957031 C 37.921875 51.984375 37.847656 51.984375 37.796875 51.984375 C 37.523438 51.984375 37.300781 51.761719 37.300781 51.484375 L 37.300781 49.992188 C 37.300781 49.792969 37.425781 49.621094 37.621094 49.546875 L 38.765625 49.125 L 38.765625 45.195312 C 38.765625 44.945312 38.964844 44.722656 39.214844 44.722656 C 39.464844 44.722656 39.6875 44.945312 39.6875 45.195312 L 39.6875 48.800781 L 41.75 48.027344 L 41.75 44.097656 C 41.75 43.851562 41.976562 43.625 42.222656 43.625 C 42.472656 43.625 42.671875 43.851562 42.671875 44.097656 L 42.671875 47.707031 L 43.46875 47.40625 C 43.519531 47.382812 43.59375 47.382812 43.640625 47.382812 C 43.914062 47.382812 44.140625 47.605469 44.140625 47.878906 L 44.140625 49.371094 C 44.140625 49.570312 44.015625 49.769531 43.816406 49.84375 L 42.671875 50.242188 L 42.671875 54.222656 L 43.46875 53.949219 C 43.519531 53.921875 43.59375 53.921875 43.640625 53.921875 C 43.914062 53.921875 44.140625 54.148438 44.140625 54.421875 L 44.140625 55.914062 C 44.140625 56.113281 44.015625 56.285156 43.816406 56.359375 L 42.671875 56.785156 Z M 39.6875 51.335938 L 39.6875 55.316406 L 41.75 54.570312 L 41.75 50.589844 Z M 39.6875 51.335938 "/>
<path style=" stroke:none;fill-rule:nonzero;fill:rgb(0%,0%,0%);fill-opacity:1;" d="M 16.152344 50.09375 L 16.003906 50.09375 C 13.316406 50.09375 11.152344 47.90625 11.152344 45.195312 C 11.152344 43.75 12.46875 42.632812 13.9375 42.632812 C 15.28125 42.632812 16.300781 43.800781 16.300781 45.195312 C 16.300781 46.488281 15.230469 47.554688 13.9375 47.554688 C 13.664062 47.554688 13.414062 47.507812 13.167969 47.40625 C 13.8125 48.378906 14.859375 49.023438 16.078125 49.023438 L 16.175781 49.023438 Z M 21 39.347656 C 22.691406 38.75 23.8125 36.984375 23.8125 35.269531 C 23.8125 33.03125 22.171875 30.816406 19.507812 30.542969 C 20.105469 33.429688 20.652344 36.289062 21 39.347656 Z M 11.375 33.601562 C 11.375 36.960938 14.585938 39.746094 17.941406 39.746094 C 18.640625 39.746094 19.308594 39.695312 19.980469 39.597656 C 19.632812 36.4375 19.0625 33.503906 18.414062 30.542969 C 16.449219 30.742188 15.332031 32.0625 15.332031 33.503906 C 15.332031 34.597656 15.953125 35.765625 17.34375 36.5625 C 17.46875 36.6875 17.519531 36.8125 17.519531 36.9375 C 17.519531 37.210938 17.269531 37.484375 16.972656 37.484375 C 16.898438 37.484375 16.824219 37.457031 16.75 37.433594 C 14.757812 36.363281 13.839844 34.574219 13.839844 32.832031 C 13.839844 30.644531 15.28125 28.503906 17.816406 27.933594 C 17.46875 26.488281 17.097656 25.023438 16.675781 23.578125 C 14.011719 26.589844 11.375 29.625 11.375 33.601562 Z M 17.867188 40.816406 C 13.191406 40.816406 9.585938 36.539062 9.585938 31.511719 C 9.585938 27.109375 12.84375 23.902344 15.753906 20.542969 C 15.28125 19.003906 14.832031 17.4375 14.632812 15.820312 C 14.484375 14.527344 14.460938 13.230469 14.460938 11.9375 C 14.460938 9.078125 15.828125 6.367188 18.167969 4.675781 C 18.316406 4.550781 18.515625 4.550781 18.664062 4.675781 C 20.429688 6.765625 21.972656 10.769531 21.972656 13.582031 C 21.972656 17.136719 19.832031 19.921875 17.496094 22.632812 C 18.015625 24.324219 18.464844 26.066406 18.886719 27.78125 C 18.988281 27.78125 19.113281 27.757812 19.210938 27.757812 C 23.066406 27.757812 25.578125 30.941406 25.578125 34.25 C 25.578125 36.140625 24.757812 38.078125 22.917969 39.472656 C 22.371094 39.894531 21.746094 40.167969 21.101562 40.367188 C 21.175781 41.238281 21.226562 42.109375 21.226562 42.980469 C 21.226562 43.453125 21.199219 43.949219 21.175781 44.421875 C 21 47.382812 18.988281 50.019531 16.152344 50.09375 L 16.175781 49.023438 C 18.488281 48.972656 19.980469 46.734375 20.132812 44.273438 C 20.15625 43.824219 20.179688 43.351562 20.179688 42.90625 C 20.179688 42.132812 20.15625 41.386719 20.082031 40.617188 C 19.359375 40.742188 18.640625 40.816406 17.867188 40.816406 Z M 20.179688 11.515625 C 20.179688 10.148438 20.082031 9.550781 19.683594 8.308594 C 17.222656 9.5 15.652344 12.011719 15.652344 14.75 C 15.652344 16.589844 16.101562 18.058594 16.550781 19.574219 C 18.539062 17.160156 20.179688 14.648438 20.179688 11.515625 Z M 20.179688 11.515625 "/>
<path style=" stroke:none;fill-rule:nonzero;fill:rgb(0%,0%,0%);fill-opacity:1;" d="M 58.355469 37.132812 C 59.722656 37.132812 61.039062 37.832031 61.039062 39.347656 C 61.039062 41.113281 59.671875 42.359375 58.503906 43.054688 C 57.632812 43.578125 56.636719 43.898438 55.617188 43.898438 C 54.25 43.898438 52.933594 43.203125 52.933594 41.6875 C 52.933594 39.921875 54.300781 38.675781 55.46875 37.980469 C 56.339844 37.457031 57.335938 37.132812 58.355469 37.132812 Z M 58.355469 37.132812 "/>
<path style=" stroke:none;fill-rule:nonzero;fill:rgb(0%,0%,0%);fill-opacity:1;" d="M 58.355469 43.351562 C 59.722656 43.351562 61.039062 44.050781 61.039062 45.566406 C 61.039062 47.332031 59.671875 48.574219 58.503906 49.273438 C 57.632812 49.792969 56.636719 50.117188 55.617188 50.117188 C 54.25 50.117188 52.933594 49.421875 52.933594 47.90625 C 52.933594 46.136719 54.300781 44.894531 55.46875 44.199219 C 56.339844 43.675781 57.335938 43.351562 58.355469 43.351562 Z M 58.355469 43.351562 "/>
<path style=" stroke:none;fill-rule:nonzero;fill:rgb(0%,0%,0%);fill-opacity:1;" d="M 58.355469 49.570312 C 59.722656 49.570312 61.039062 50.265625 61.039062 51.785156 C 61.039062 53.550781 59.671875 54.792969 58.503906 55.492188 C 57.632812 56.011719 56.636719 56.335938 55.617188 56.335938 C 54.25 56.335938 52.933594 55.640625 52.933594 54.121094 C 52.933594 52.355469 54.300781 51.113281 55.46875 50.417969 C 56.339844 49.894531 57.335938 49.570312 58.355469 49.570312 Z M 58.355469 49.570312 "/>
</g>
</svg>
