<?xml version="1.0" encoding="UTF-8"?>
<svg xmlns="http://www.w3.org/2000/svg" xmlns:xlink="http://www.w3.org/1999/xlink" width="96.353844pt" height="66.720746pt" viewBox="0 0 96.353844 66.720746" version="1.1">
<g id="surface1">
<path style="fill:none;stroke-width:0.1;stroke-linecap:round;stroke-linejoin:round;stroke:rgb(0%,0%,0%);stroke-opacity:1;stroke-miterlimit:4;" d="M 0.049863 -0.000298513 L 12.949979 -0.000298513 " transform="matrix(6.218149,0,0,6.218149,4.561038,48.103419)"/>
<path style="fill:none;stroke-width:0.1;stroke-linecap:round;stroke-linejoin:round;stroke:rgb(0%,0%,0%);stroke-opacity:1;stroke-miterlimit:4;" d="M 0.049863 0.00023304 L 12.949979 0.00023304 " transform="matrix(6.218149,0,0,6.218149,4.561038,41.88527)"/>
<path style="fill:none;stroke-width:0.1;stroke-linecap:round;stroke-linejoin:round;stroke:rgb(0%,0%,0%);stroke-opacity:1;stroke-miterlimit:4;" d="M 0.049863 0.000136391 L 12.949979 0.000136391 " transform="matrix(6.218149,0,0,6.218149,4.561038,35.667121)"/>
<path style="fill:none;stroke-width:0.1;stroke-linecap:round;stroke-linejoin:round;stroke:rgb(0%,0%,0%);stroke-opacity:1;stroke-miterlimit:4;" d="M 0.049863 0.0000397429 L 12.949979 0.0000397429 " transform="matrix(6.218149,0,0,6.218149,4.561038,29.448972)"/>
<path style="fill:none;stroke-width:0.1;stroke-linecap:round;stroke-linejoin:round;stroke:rgb(0%,0%,0%);stroke-opacity:1;stroke-miterlimit:4;" d="M 0.049863 -0.0000569057 L 12.949979 -0.0000569057 " transform="matrix(6.218149,0,0,6.218149,4.561038,23.230823)"/>
<path style=" stroke:none;fill-rule:nonzero;fill:rgb(0%,0%,0%);fill-opacity:1;" d="M 57.617188 16.390625 L 76.246094 16.390625 C 76.589844 16.390625 76.867188 16.667969 76.867188 17.011719 C 76.867188 17.355469 76.589844 17.632812 76.246094 17.632812 L 57.617188 17.632812 C 57.273438 17.632812 56.996094 17.355469 56.996094 17.011719 C 56.996094 16.667969 57.273438 16.390625 57.617188 16.390625 Z M 57.617188 16.390625 "/>
<path style=" stroke:none;fill-rule:nonzero;fill:rgb(0%,0%,0%);fill-opacity:1;" d="M 66.976562 15.0625 L 67.289062 15.0625 C 67.425781 15.0625 67.539062 15.171875 67.539062 15.308594 L 67.539062 50.964844 C 67.539062 51.101562 67.425781 51.210938 67.289062 51.210938 L 66.976562 51.210938 C 66.839844 51.210938 66.730469 51.101562 66.730469 50.964844 L 66.730469 15.308594 C 66.730469 15.171875 66.839844 15.0625 66.976562 15.0625 Z M 66.976562 15.0625 "/>
<path style=" stroke:none;fill-rule:nonzero;fill:rgb(0%,0%,0%);fill-opacity:1;" d="M 55.378906 21.664062 C 55.378906 21.914062 55.179688 22.136719 54.933594 22.136719 C 54.683594 22.136719 54.460938 21.914062 54.460938 21.664062 L 54.460938 18.058594 L 52.394531 18.828125 L 52.394531 22.757812 C 52.394531 23.007812 52.171875 23.230469 51.921875 23.230469 C 51.675781 23.230469 51.476562 23.007812 51.476562 22.757812 L 51.476562 19.152344 L 50.679688 19.449219 C 50.628906 19.476562 50.554688 19.476562 50.503906 19.476562 C 50.230469 19.476562 50.007812 19.25 50.007812 18.976562 L 50.007812 17.484375 C 50.007812 17.285156 50.132812 17.085938 50.332031 17.011719 L 51.476562 16.613281 L 51.476562 12.636719 L 50.679688 12.910156 C 50.628906 12.933594 50.554688 12.933594 50.503906 12.933594 C 50.230469 12.933594 50.007812 12.710938 50.007812 12.4375 L 50.007812 10.945312 C 50.007812 10.746094 50.132812 10.570312 50.332031 10.496094 L 51.476562 10.074219 L 51.476562 6.144531 C 51.476562 5.894531 51.675781 5.671875 51.921875 5.671875 C 52.171875 5.671875 52.394531 5.894531 52.394531 6.144531 L 52.394531 9.75 L 54.460938 8.980469 L 54.460938 5.050781 C 54.460938 4.800781 54.683594 4.578125 54.933594 4.578125 C 55.179688 4.578125 55.378906 4.800781 55.378906 5.050781 L 55.378906 8.65625 L 56.175781 8.355469 C 56.226562 8.332031 56.300781 8.332031 56.351562 8.332031 C 56.625 8.332031 56.847656 8.554688 56.847656 8.828125 L 56.847656 10.320312 C 56.847656 10.519531 56.722656 10.71875 56.523438 10.792969 L 55.378906 11.191406 L 55.378906 15.171875 L 56.175781 14.898438 C 56.226562 14.875 56.300781 14.875 56.351562 14.875 C 56.625 14.875 56.847656 15.097656 56.847656 15.371094 L 56.847656 16.863281 C 56.847656 17.0625 56.722656 17.238281 56.523438 17.3125 L 55.378906 17.734375 Z M 52.394531 12.285156 L 52.394531 16.265625 L 54.460938 15.519531 L 54.460938 11.539062 Z M 52.394531 12.285156 "/>
<path style=" stroke:none;fill-rule:nonzero;fill:rgb(0%,0%,0%);fill-opacity:1;" d="M 42.347656 24.773438 C 42.347656 25.023438 42.148438 25.246094 41.898438 25.246094 C 41.652344 25.246094 41.425781 25.023438 41.425781 24.773438 L 41.425781 21.167969 L 39.363281 21.9375 L 39.363281 25.867188 C 39.363281 26.117188 39.136719 26.339844 38.890625 26.339844 C 38.640625 26.339844 38.441406 26.117188 38.441406 25.867188 L 38.441406 22.261719 L 37.644531 22.558594 C 37.597656 22.585938 37.523438 22.585938 37.472656 22.585938 C 37.199219 22.585938 36.972656 22.359375 36.972656 22.085938 L 36.972656 20.59375 C 36.972656 20.394531 37.097656 20.195312 37.296875 20.121094 L 38.441406 19.722656 L 38.441406 15.746094 L 37.644531 16.019531 C 37.597656 16.042969 37.523438 16.042969 37.472656 16.042969 C 37.199219 16.042969 36.972656 15.820312 36.972656 15.546875 L 36.972656 14.054688 C 36.972656 13.855469 37.097656 13.679688 37.296875 13.605469 L 38.441406 13.183594 L 38.441406 9.253906 C 38.441406 9.003906 38.640625 8.78125 38.890625 8.78125 C 39.136719 8.78125 39.363281 9.003906 39.363281 9.253906 L 39.363281 12.859375 L 41.425781 12.089844 L 41.425781 8.15625 C 41.425781 7.910156 41.652344 7.683594 41.898438 7.683594 C 42.148438 7.683594 42.347656 7.910156 42.347656 8.15625 L 42.347656 11.765625 L 43.144531 11.464844 C 43.191406 11.441406 43.265625 11.441406 43.316406 11.441406 C 43.589844 11.441406 43.8125 11.664062 43.8125 11.9375 L 43.8125 13.429688 C 43.8125 13.628906 43.691406 13.828125 43.492188 13.902344 L 42.347656 14.300781 L 42.347656 18.28125 L 43.144531 18.007812 C 43.191406 17.984375 43.265625 17.984375 43.316406 17.984375 C 43.589844 17.984375 43.8125 18.207031 43.8125 18.480469 L 43.8125 19.972656 C 43.8125 20.171875 43.691406 20.34375 43.492188 20.421875 L 42.347656 20.84375 Z M 39.363281 15.394531 L 39.363281 19.375 L 41.425781 18.628906 L 41.425781 14.648438 Z M 39.363281 15.394531 "/>
<path style=" stroke:none;fill-rule:nonzero;fill:rgb(0%,0%,0%);fill-opacity:1;" d="M 32.996094 23.230469 C 33.570312 23.804688 34.390625 23.925781 35.210938 23.925781 C 35.359375 23.925781 35.460938 24.027344 35.460938 24.175781 L 35.683594 26.339844 C 35.707031 26.488281 35.582031 26.613281 35.433594 26.589844 L 33.269531 26.363281 C 33.144531 26.339844 33.023438 26.242188 33.023438 26.117188 C 33.023438 25.296875 32.898438 24.472656 32.324219 23.902344 C 31.753906 24.472656 31.652344 25.296875 31.652344 26.117188 C 31.652344 26.242188 31.527344 26.339844 31.40625 26.363281 L 29.214844 26.589844 C 29.066406 26.613281 28.941406 26.488281 28.96875 26.339844 L 29.191406 24.175781 C 29.191406 24.027344 29.289062 23.925781 29.441406 23.925781 C 30.261719 23.925781 31.082031 23.804688 31.652344 23.230469 C 31.082031 22.660156 30.261719 22.535156 29.441406 22.535156 C 29.289062 22.535156 29.191406 22.433594 29.191406 22.285156 L 28.96875 20.121094 C 28.941406 19.972656 29.066406 19.847656 29.214844 19.871094 L 31.40625 20.097656 C 31.527344 20.121094 31.628906 20.222656 31.628906 20.34375 C 31.628906 21.167969 31.753906 21.988281 32.324219 22.558594 C 32.898438 21.988281 33.023438 21.167969 33.023438 20.34375 C 33.023438 20.222656 33.144531 20.121094 33.269531 20.097656 L 35.433594 19.871094 C 35.582031 19.847656 35.707031 19.972656 35.683594 20.121094 L 35.460938 22.285156 C 35.460938 22.433594 35.359375 22.535156 35.210938 22.535156 C 34.390625 22.535156 33.570312 22.660156 32.996094 23.230469 Z M 32.996094 23.230469 "/>
<path style=" stroke:none;fill-rule:nonzero;fill:rgb(0%,0%,0%);fill-opacity:1;" d="M 48.789062 37.210938 C 48.789062 37.457031 48.589844 37.683594 48.339844 37.683594 C 48.09375 37.683594 47.867188 37.457031 47.867188 37.210938 L 47.867188 33.601562 L 45.804688 34.375 L 45.804688 38.304688 C 45.804688 38.550781 45.582031 38.777344 45.332031 38.777344 C 45.082031 38.777344 44.882812 38.550781 44.882812 38.304688 L 44.882812 34.695312 L 44.089844 34.996094 C 44.039062 35.019531 43.964844 35.019531 43.914062 35.019531 C 43.640625 35.019531 43.417969 34.796875 43.417969 34.523438 L 43.417969 33.03125 C 43.417969 32.832031 43.539062 32.632812 43.738281 32.558594 L 44.882812 32.160156 L 44.882812 28.179688 L 44.089844 28.453125 C 44.039062 28.480469 43.964844 28.480469 43.914062 28.480469 C 43.640625 28.480469 43.417969 28.253906 43.417969 27.980469 L 43.417969 26.488281 C 43.417969 26.289062 43.539062 26.117188 43.738281 26.042969 L 44.882812 25.617188 L 44.882812 21.6875 C 44.882812 21.441406 45.082031 21.214844 45.332031 21.214844 C 45.582031 21.214844 45.804688 21.441406 45.804688 21.6875 L 45.804688 25.296875 L 47.867188 24.523438 L 47.867188 20.59375 C 47.867188 20.34375 48.09375 20.121094 48.339844 20.121094 C 48.589844 20.121094 48.789062 20.34375 48.789062 20.59375 L 48.789062 24.199219 L 49.585938 23.902344 C 49.632812 23.878906 49.710938 23.878906 49.757812 23.878906 C 50.03125 23.878906 50.257812 24.101562 50.257812 24.375 L 50.257812 25.867188 C 50.257812 26.066406 50.132812 26.265625 49.933594 26.339844 L 48.789062 26.738281 L 48.789062 30.71875 L 49.585938 30.445312 C 49.632812 30.417969 49.710938 30.417969 49.757812 30.417969 C 50.03125 30.417969 50.257812 30.644531 50.257812 30.917969 L 50.257812 32.410156 C 50.257812 32.609375 50.132812 32.78125 49.933594 32.855469 L 48.789062 33.28125 Z M 45.804688 27.832031 L 45.804688 31.8125 L 47.867188 31.066406 L 47.867188 27.085938 Z M 45.804688 27.832031 "/>
<path style=" stroke:none;fill-rule:nonzero;fill:rgb(0%,0%,0%);fill-opacity:1;" d="M 16.152344 57.679688 L 16.003906 57.679688 C 13.316406 57.679688 11.152344 55.492188 11.152344 52.78125 C 11.152344 51.335938 12.46875 50.21875 13.9375 50.21875 C 15.28125 50.21875 16.300781 51.386719 16.300781 52.78125 C 16.300781 54.074219 15.230469 55.140625 13.9375 55.140625 C 13.664062 55.140625 13.414062 55.09375 13.167969 54.992188 C 13.8125 55.964844 14.859375 56.609375 16.078125 56.609375 L 16.175781 56.609375 Z M 21 46.933594 C 22.691406 46.335938 23.8125 44.570312 23.8125 42.855469 C 23.8125 40.617188 22.171875 38.402344 19.507812 38.128906 C 20.105469 41.015625 20.652344 43.875 21 46.933594 Z M 11.375 41.1875 C 11.375 44.546875 14.585938 47.332031 17.941406 47.332031 C 18.640625 47.332031 19.308594 47.28125 19.980469 47.183594 C 19.632812 44.023438 19.0625 41.089844 18.414062 38.128906 C 16.449219 38.328125 15.332031 39.648438 15.332031 41.089844 C 15.332031 42.183594 15.953125 43.351562 17.34375 44.148438 C 17.46875 44.273438 17.519531 44.398438 17.519531 44.523438 C 17.519531 44.796875 17.269531 45.070312 16.972656 45.070312 C 16.898438 45.070312 16.824219 45.042969 16.75 45.019531 C 14.757812 43.949219 13.839844 42.160156 13.839844 40.417969 C 13.839844 38.230469 15.28125 36.089844 17.816406 35.519531 C 17.46875 34.074219 17.097656 32.609375 16.675781 31.164062 C 14.011719 34.175781 11.375 37.210938 11.375 41.1875 Z M 17.867188 48.402344 C 13.191406 48.402344 9.585938 44.125 9.585938 39.097656 C 9.585938 34.695312 12.84375 31.488281 15.753906 28.128906 C 15.28125 26.589844 14.832031 25.023438 14.632812 23.40625 C 14.484375 22.113281 14.460938 20.816406 14.460938 19.523438 C 14.460938 16.664062 15.828125 13.953125 18.167969 12.261719 C 18.316406 12.136719 18.515625 12.136719 18.664062 12.261719 C 20.429688 14.351562 21.972656 18.355469 21.972656 21.167969 C 21.972656 24.722656 19.832031 27.507812 17.496094 30.21875 C 18.015625 31.910156 18.464844 33.652344 18.886719 35.367188 C 18.988281 35.367188 19.113281 35.34375 19.210938 35.34375 C 23.066406 35.34375 25.578125 38.527344 25.578125 41.835938 C 25.578125 43.726562 24.757812 45.664062 22.917969 47.058594 C 22.371094 47.480469 21.746094 47.753906 21.101562 47.953125 C 21.175781 48.824219 21.226562 49.695312 21.226562 50.566406 C 21.226562 51.039062 21.199219 51.535156 21.175781 52.007812 C 21 54.96875 18.988281 57.605469 16.152344 57.679688 L 16.175781 56.609375 C 18.488281 56.558594 19.980469 54.320312 20.132812 51.859375 C 20.15625 51.410156 20.179688 50.9375 20.179688 50.492188 C 20.179688 49.71875 20.15625 48.972656 20.082031 48.203125 C 19.359375 48.328125 18.640625 48.402344 17.867188 48.402344 Z M 20.179688 19.101562 C 20.179688 17.734375 20.082031 17.136719 19.683594 15.894531 C 17.222656 17.085938 15.652344 19.597656 15.652344 22.335938 C 15.652344 24.175781 16.101562 25.644531 16.550781 27.160156 C 18.539062 24.75 20.179688 22.234375 20.179688 19.101562 Z M 20.179688 19.101562 "/>
<path style=" stroke:none;fill-rule:nonzero;fill:rgb(0%,0%,0%);fill-opacity:1;" d="M 72.152344 10.519531 C 73.519531 10.519531 74.839844 11.21875 74.839844 12.734375 C 74.839844 14.5 73.46875 15.746094 72.300781 16.441406 C 71.429688 16.964844 70.433594 17.285156 69.414062 17.285156 C 68.046875 17.285156 66.730469 16.589844 66.730469 15.074219 C 66.730469 13.308594 68.097656 12.0625 69.265625 11.367188 C 70.136719 10.84375 71.132812 10.519531 72.152344 10.519531 Z M 72.152344 10.519531 "/>
<path style=" stroke:none;fill-rule:nonzero;fill:rgb(0%,0%,0%);fill-opacity:1;" d="M 64.445312 13.628906 C 65.8125 13.628906 67.132812 14.328125 67.132812 15.84375 C 67.132812 17.609375 65.765625 18.851562 64.59375 19.550781 C 63.726562 20.070312 62.730469 20.394531 61.710938 20.394531 C 60.34375 20.394531 59.023438 19.699219 59.023438 18.183594 C 59.023438 16.414062 60.390625 15.171875 61.5625 14.476562 C 62.429688 13.953125 63.425781 13.628906 64.445312 13.628906 Z M 64.445312 13.628906 "/>
<path style=" stroke:none;fill-rule:nonzero;fill:rgb(0%,0%,0%);fill-opacity:1;" d="M 72.152344 19.847656 C 73.519531 19.847656 74.839844 20.542969 74.839844 22.0625 C 74.839844 23.828125 73.46875 25.070312 72.300781 25.769531 C 71.429688 26.289062 70.433594 26.613281 69.414062 26.613281 C 68.046875 26.613281 66.730469 25.917969 66.730469 24.398438 C 66.730469 22.632812 68.097656 21.390625 69.265625 20.695312 C 70.136719 20.171875 71.132812 19.847656 72.152344 19.847656 Z M 72.152344 19.847656 "/>
<path style=" stroke:none;fill-rule:nonzero;fill:rgb(0%,0%,0%);fill-opacity:1;" d="M 72.152344 26.066406 C 73.519531 26.066406 74.839844 26.761719 74.839844 28.28125 C 74.839844 30.046875 73.46875 31.289062 72.300781 31.984375 C 71.429688 32.507812 70.433594 32.832031 69.414062 32.832031 C 68.046875 32.832031 66.730469 32.136719 66.730469 30.617188 C 66.730469 28.851562 68.097656 27.609375 69.265625 26.910156 C 70.136719 26.390625 71.132812 26.066406 72.152344 26.066406 Z M 72.152344 26.066406 "/>
</g>
</svg>
