<?xml version="1.0" encoding="UTF-8"?>
<svg xmlns="http://www.w3.org/2000/svg" xmlns:xlink="http://www.w3.org/1999/xlink" width="68.472344pt" height="70.333871pt" viewBox="0 0 68.472344 70.333871" version="1.1">
<g id="surface1">
<path style="fill:none;stroke-width:0.1;stroke-linecap:round;stroke-linejoin:round;stroke:rgb(0%,0%,0%);stroke-opacity:1;stroke-miterlimit:4;" d="M 0.049863 -0.000208034 L 8.752337 -0.000208034 " transform="matrix(6.218149,0,0,6.218149,4.561038,51.485669)"/>
<path style="fill:none;stroke-width:0.1;stroke-linecap:round;stroke-linejoin:round;stroke:rgb(0%,0%,0%);stroke-opacity:1;stroke-miterlimit:4;" d="M 0.049863 -0.000304683 L 8.752337 -0.000304683 " transform="matrix(6.218149,0,0,6.218149,4.561038,45.26752)"/>
<path style="fill:none;stroke-width:0.1;stroke-linecap:round;stroke-linejoin:round;stroke:rgb(0%,0%,0%);stroke-opacity:1;stroke-miterlimit:4;" d="M 0.049863 0.00022687 L 8.752337 0.00022687 " transform="matrix(6.218149,0,0,6.218149,4.561038,39.049371)"/>
<path style="fill:none;stroke-width:0.1;stroke-linecap:round;stroke-linejoin:round;stroke:rgb(0%,0%,0%);stroke-opacity:1;stroke-miterlimit:4;" d="M 0.049863 0.000130221 L 8.752337 0.000130221 " transform="matrix(6.218149,0,0,6.218149,4.561038,32.831222)"/>
<path style="fill:none;stroke-width:0.1;stroke-linecap:round;stroke-linejoin:round;stroke:rgb(0%,0%,0%);stroke-opacity:1;stroke-miterlimit:4;" d="M 0.049863 0.0000335725 L 8.752337 0.0000335725 " transform="matrix(6.218149,0,0,6.218149,4.561038,26.613072)"/>
<path style=" stroke:none;fill-rule:nonzero;fill:rgb(0%,0%,0%);fill-opacity:1;" d="M 39.21875 7.335938 L 50.140625 7.335938 C 50.484375 7.335938 50.761719 7.613281 50.761719 7.957031 C 50.761719 8.300781 50.484375 8.582031 50.140625 8.582031 L 39.21875 8.582031 C 38.878906 8.582031 38.597656 8.300781 38.597656 7.957031 C 38.597656 7.613281 38.878906 7.335938 39.21875 7.335938 Z M 39.21875 7.335938 "/>
<path style=" stroke:none;fill-rule:nonzero;fill:rgb(0%,0%,0%);fill-opacity:1;" d="M 39.21875 13.554688 L 50.140625 13.554688 C 50.484375 13.554688 50.761719 13.832031 50.761719 14.175781 C 50.761719 14.519531 50.484375 14.796875 50.140625 14.796875 L 39.21875 14.796875 C 38.878906 14.796875 38.597656 14.519531 38.597656 14.175781 C 38.597656 13.832031 38.878906 13.554688 39.21875 13.554688 Z M 39.21875 13.554688 "/>
<path style=" stroke:none;fill-rule:nonzero;fill:rgb(0%,0%,0%);fill-opacity:1;" d="M 39.21875 19.773438 L 50.140625 19.773438 C 50.484375 19.773438 50.761719 20.050781 50.761719 20.394531 C 50.761719 20.738281 50.484375 21.015625 50.140625 21.015625 L 39.21875 21.015625 C 38.878906 21.015625 38.597656 20.738281 38.597656 20.394531 C 38.597656 20.050781 38.878906 19.773438 39.21875 19.773438 Z M 39.21875 19.773438 "/>
<path style=" stroke:none;fill-rule:nonzero;fill:rgb(0%,0%,0%);fill-opacity:1;" d="M 40.875 9.117188 L 41.1875 9.117188 C 41.324219 9.117188 41.433594 9.226562 41.433594 9.363281 L 41.433594 48.128906 C 41.433594 48.265625 41.324219 48.375 41.1875 48.375 L 40.875 48.375 C 40.738281 48.375 40.625 48.265625 40.625 48.128906 L 40.625 9.363281 C 40.625 9.226562 40.738281 9.117188 40.875 9.117188 Z M 40.875 9.117188 "/>
<path style=" stroke:none;fill-rule:nonzero;fill:rgb(0%,0%,0%);fill-opacity:1;" d="M 16.152344 61.0625 L 16.003906 61.0625 C 13.316406 61.0625 11.152344 58.871094 11.152344 56.160156 C 11.152344 54.71875 12.46875 53.601562 13.9375 53.601562 C 15.28125 53.601562 16.300781 54.769531 16.300781 56.160156 C 16.300781 57.457031 15.230469 58.523438 13.9375 58.523438 C 13.664062 58.523438 13.414062 58.476562 13.167969 58.375 C 13.8125 59.34375 14.859375 59.992188 16.078125 59.992188 L 16.175781 59.992188 Z M 21 50.316406 C 22.691406 49.71875 23.8125 47.953125 23.8125 46.238281 C 23.8125 44 22.171875 41.785156 19.507812 41.511719 C 20.105469 44.398438 20.652344 47.257812 21 50.316406 Z M 11.375 44.570312 C 11.375 47.929688 14.585938 50.714844 17.941406 50.714844 C 18.640625 50.714844 19.308594 50.664062 19.980469 50.566406 C 19.632812 47.40625 19.0625 44.472656 18.414062 41.511719 C 16.449219 41.710938 15.332031 43.027344 15.332031 44.472656 C 15.332031 45.566406 15.953125 46.734375 17.34375 47.53125 C 17.46875 47.65625 17.519531 47.78125 17.519531 47.902344 C 17.519531 48.175781 17.269531 48.453125 16.972656 48.453125 C 16.898438 48.453125 16.824219 48.425781 16.75 48.402344 C 14.757812 47.332031 13.839844 45.542969 13.839844 43.800781 C 13.839844 41.609375 15.28125 39.472656 17.816406 38.898438 C 17.46875 37.457031 17.097656 35.988281 16.675781 34.546875 C 14.011719 37.558594 11.375 40.589844 11.375 44.570312 Z M 17.867188 51.785156 C 13.191406 51.785156 9.585938 47.507812 9.585938 42.480469 C 9.585938 38.078125 12.84375 34.871094 15.753906 31.511719 C 15.28125 29.972656 14.832031 28.402344 14.632812 26.789062 C 14.484375 25.492188 14.460938 24.199219 14.460938 22.90625 C 14.460938 20.046875 15.828125 17.335938 18.167969 15.644531 C 18.316406 15.519531 18.515625 15.519531 18.664062 15.644531 C 20.429688 17.734375 21.972656 21.738281 21.972656 24.546875 C 21.972656 28.105469 19.832031 30.890625 17.496094 33.601562 C 18.015625 35.292969 18.464844 37.035156 18.886719 38.75 C 18.988281 38.75 19.113281 38.726562 19.210938 38.726562 C 23.066406 38.726562 25.578125 41.910156 25.578125 45.21875 C 25.578125 47.109375 24.757812 49.046875 22.917969 50.441406 C 22.371094 50.863281 21.746094 51.136719 21.101562 51.335938 C 21.175781 52.207031 21.226562 53.078125 21.226562 53.949219 C 21.226562 54.421875 21.199219 54.917969 21.175781 55.390625 C 21 58.351562 18.988281 60.988281 16.152344 61.0625 L 16.175781 59.992188 C 18.488281 59.941406 19.980469 57.703125 20.132812 55.242188 C 20.15625 54.792969 20.179688 54.320312 20.179688 53.875 C 20.179688 53.101562 20.15625 52.355469 20.082031 51.585938 C 19.359375 51.710938 18.640625 51.785156 17.867188 51.785156 Z M 20.179688 22.484375 C 20.179688 21.117188 20.082031 20.519531 19.683594 19.277344 C 17.222656 20.46875 15.652344 22.980469 15.652344 25.71875 C 15.652344 27.558594 16.101562 29.027344 16.550781 30.542969 C 18.539062 28.128906 20.179688 25.617188 20.179688 22.484375 Z M 20.179688 22.484375 "/>
<path style=" stroke:none;fill-rule:nonzero;fill:rgb(0%,0%,0%);fill-opacity:1;" d="M 46.046875 4.574219 C 47.417969 4.574219 48.734375 5.273438 48.734375 6.789062 C 48.734375 8.554688 47.367188 9.800781 46.199219 10.496094 C 45.328125 11.019531 44.332031 11.339844 43.3125 11.339844 C 41.945312 11.339844 40.625 10.644531 40.625 9.128906 C 40.625 7.363281 41.996094 6.117188 43.164062 5.421875 C 44.035156 4.898438 45.027344 4.574219 46.046875 4.574219 Z M 46.046875 4.574219 "/>
<path style=" stroke:none;fill-rule:nonzero;fill:rgb(0%,0%,0%);fill-opacity:1;" d="M 46.046875 10.792969 C 47.417969 10.792969 48.734375 11.492188 48.734375 13.007812 C 48.734375 14.773438 47.367188 16.015625 46.199219 16.714844 C 45.328125 17.234375 44.332031 17.558594 43.3125 17.558594 C 41.945312 17.558594 40.625 16.863281 40.625 15.347656 C 40.625 13.578125 41.996094 12.335938 43.164062 11.640625 C 44.035156 11.117188 45.027344 10.792969 46.046875 10.792969 Z M 46.046875 10.792969 "/>
<path style=" stroke:none;fill-rule:nonzero;fill:rgb(0%,0%,0%);fill-opacity:1;" d="M 46.046875 17.011719 C 47.417969 17.011719 48.734375 17.707031 48.734375 19.226562 C 48.734375 20.992188 47.367188 22.234375 46.199219 22.933594 C 45.328125 23.453125 44.332031 23.777344 43.3125 23.777344 C 41.945312 23.777344 40.625 23.082031 40.625 21.5625 C 40.625 19.796875 41.996094 18.554688 43.164062 17.859375 C 44.035156 17.335938 45.027344 17.011719 46.046875 17.011719 Z M 46.046875 17.011719 "/>
<path style=" stroke:none;fill-rule:nonzero;fill:rgb(0%,0%,0%);fill-opacity:1;" d="M 46.046875 23.230469 C 47.417969 23.230469 48.734375 23.925781 48.734375 25.445312 C 48.734375 27.210938 47.367188 28.453125 46.199219 29.148438 C 45.328125 29.671875 44.332031 29.996094 43.3125 29.996094 C 41.945312 29.996094 40.625 29.300781 40.625 27.78125 C 40.625 26.015625 41.996094 24.773438 43.164062 24.074219 C 44.035156 23.554688 45.027344 23.230469 46.046875 23.230469 Z M 46.046875 23.230469 "/>
</g>
</svg>
