<?xml version="1.0" encoding="UTF-8"?>
<svg xmlns="http://www.w3.org/2000/svg" xmlns:xlink="http://www.w3.org/1999/xlink" width="87.368186pt" height="63.134188pt" viewBox="0 0 87.368186 63.134188" version="1.1">
<g id="surface1">
<path style="fill:none;stroke-width:0.1;stroke-linecap:round;stroke-linejoin:round;stroke:rgb(0%,0%,0%);stroke-opacity:1;stroke-miterlimit:4;" d="M 0.049863 0.000136391 L 11.597461 0.000136391 " transform="matrix(6.218149,0,0,6.218149,4.561038,35.667121)"/>
<path style="fill:none;stroke-width:0.1;stroke-linecap:round;stroke-linejoin:round;stroke:rgb(0%,0%,0%);stroke-opacity:1;stroke-miterlimit:4;" d="M 0.049863 0.0000397429 L 11.597461 0.0000397429 " transform="matrix(6.218149,0,0,6.218149,4.561038,29.448972)"/>
<path style="fill:none;stroke-width:0.1;stroke-linecap:round;stroke-linejoin:round;stroke:rgb(0%,0%,0%);stroke-opacity:1;stroke-miterlimit:4;" d="M 0.049863 -0.0000569057 L 11.597461 -0.0000569057 " transform="matrix(6.218149,0,0,6.218149,4.561038,23.230823)"/>
<path style="fill:none;stroke-width:0.1;stroke-linecap:round;stroke-linejoin:round;stroke:rgb(0%,0%,0%);stroke-opacity:1;stroke-miterlimit:4;" d="M 0.049863 -0.000153554 L 11.597461 -0.000153554 " transform="matrix(6.218149,0,0,6.218149,4.561038,17.012674)"/>
<path style="fill:none;stroke-width:0.1;stroke-linecap:round;stroke-linejoin:round;stroke:rgb(0%,0%,0%);stroke-opacity:1;stroke-miterlimit:4;" d="M 0.049863 -0.000250203 L 11.597461 -0.000250203 " transform="matrix(6.218149,0,0,6.218149,4.561038,10.794525)"/>
<path style=" stroke:none;fill-rule:nonzero;fill:rgb(0%,0%,0%);fill-opacity:1;" d="M 56.910156 41.261719 L 67.832031 41.261719 C 68.175781 41.261719 68.453125 41.542969 68.453125 41.886719 C 68.453125 42.230469 68.175781 42.507812 67.832031 42.507812 L 56.910156 42.507812 C 56.566406 42.507812 56.289062 42.230469 56.289062 41.886719 C 56.289062 41.542969 56.566406 41.261719 56.910156 41.261719 Z M 56.910156 41.261719 "/>
<path style=" stroke:none;fill-rule:nonzero;fill:rgb(0%,0%,0%);fill-opacity:1;" d="M 65.867188 4.578125 L 66.179688 4.578125 C 66.316406 4.578125 66.425781 4.6875 66.425781 4.824219 L 66.425781 43.589844 C 66.425781 43.726562 66.316406 43.835938 66.179688 43.835938 L 65.867188 43.835938 C 65.730469 43.835938 65.617188 43.726562 65.617188 43.589844 L 65.617188 4.824219 C 65.617188 4.6875 65.730469 4.578125 65.867188 4.578125 Z M 65.867188 4.578125 "/>
<path style=" stroke:none;fill-rule:nonzero;fill:rgb(0%,0%,0%);fill-opacity:1;" d="M 54.671875 34.101562 C 54.671875 34.347656 54.476562 34.574219 54.226562 34.574219 C 53.976562 34.574219 53.753906 34.347656 53.753906 34.101562 L 53.753906 30.492188 L 51.6875 31.265625 L 51.6875 35.195312 C 51.6875 35.441406 51.464844 35.667969 51.214844 35.667969 C 50.96875 35.667969 50.769531 35.441406 50.769531 35.195312 L 50.769531 31.589844 L 49.972656 31.886719 C 49.921875 31.910156 49.847656 31.910156 49.796875 31.910156 C 49.523438 31.910156 49.300781 31.6875 49.300781 31.414062 L 49.300781 29.921875 C 49.300781 29.722656 49.425781 29.523438 49.625 29.449219 L 50.769531 29.050781 L 50.769531 25.070312 L 49.972656 25.34375 C 49.921875 25.371094 49.847656 25.371094 49.796875 25.371094 C 49.523438 25.371094 49.300781 25.144531 49.300781 24.871094 L 49.300781 23.378906 C 49.300781 23.179688 49.425781 23.007812 49.625 22.933594 L 50.769531 22.507812 L 50.769531 18.578125 C 50.769531 18.332031 50.96875 18.105469 51.214844 18.105469 C 51.464844 18.105469 51.6875 18.332031 51.6875 18.578125 L 51.6875 22.1875 L 53.753906 21.414062 L 53.753906 17.484375 C 53.753906 17.238281 53.976562 17.011719 54.226562 17.011719 C 54.476562 17.011719 54.671875 17.238281 54.671875 17.484375 L 54.671875 21.089844 L 55.46875 20.792969 C 55.519531 20.769531 55.59375 20.769531 55.644531 20.769531 C 55.917969 20.769531 56.140625 20.992188 56.140625 21.265625 L 56.140625 22.757812 C 56.140625 22.957031 56.015625 23.15625 55.816406 23.230469 L 54.671875 23.628906 L 54.671875 27.609375 L 55.46875 27.335938 C 55.519531 27.308594 55.59375 27.308594 55.644531 27.308594 C 55.917969 27.308594 56.140625 27.535156 56.140625 27.808594 L 56.140625 29.300781 C 56.140625 29.5 56.015625 29.671875 55.816406 29.746094 L 54.671875 30.171875 Z M 51.6875 24.722656 L 51.6875 28.703125 L 53.753906 27.957031 L 53.753906 23.976562 Z M 51.6875 24.722656 "/>
<path style=" stroke:none;fill-rule:nonzero;fill:rgb(0%,0%,0%);fill-opacity:1;" d="M 43.082031 40.316406 C 43.082031 40.566406 42.882812 40.789062 42.636719 40.789062 C 42.386719 40.789062 42.164062 40.566406 42.164062 40.316406 L 42.164062 36.710938 L 40.097656 37.484375 L 40.097656 41.414062 C 40.097656 41.660156 39.875 41.886719 39.625 41.886719 C 39.378906 41.886719 39.179688 41.660156 39.179688 41.414062 L 39.179688 37.804688 L 38.382812 38.105469 C 38.332031 38.128906 38.257812 38.128906 38.207031 38.128906 C 37.933594 38.128906 37.710938 37.90625 37.710938 37.632812 L 37.710938 36.140625 C 37.710938 35.941406 37.835938 35.742188 38.035156 35.667969 L 39.179688 35.269531 L 39.179688 31.289062 L 38.382812 31.5625 C 38.332031 31.589844 38.257812 31.589844 38.207031 31.589844 C 37.933594 31.589844 37.710938 31.363281 37.710938 31.089844 L 37.710938 29.597656 C 37.710938 29.398438 37.835938 29.226562 38.035156 29.152344 L 39.179688 28.726562 L 39.179688 24.796875 C 39.179688 24.550781 39.378906 24.324219 39.625 24.324219 C 39.875 24.324219 40.097656 24.550781 40.097656 24.796875 L 40.097656 28.40625 L 42.164062 27.632812 L 42.164062 23.703125 C 42.164062 23.453125 42.386719 23.230469 42.636719 23.230469 C 42.882812 23.230469 43.082031 23.453125 43.082031 23.703125 L 43.082031 27.308594 L 43.878906 27.011719 C 43.929688 26.988281 44.003906 26.988281 44.054688 26.988281 C 44.328125 26.988281 44.550781 27.210938 44.550781 27.484375 L 44.550781 28.976562 C 44.550781 29.175781 44.425781 29.375 44.226562 29.449219 L 43.082031 29.847656 L 43.082031 33.828125 L 43.878906 33.554688 C 43.929688 33.527344 44.003906 33.527344 44.054688 33.527344 C 44.328125 33.527344 44.550781 33.75 44.550781 34.027344 L 44.550781 35.519531 C 44.550781 35.71875 44.425781 35.890625 44.226562 35.964844 L 43.082031 36.386719 Z M 40.097656 30.941406 L 40.097656 34.921875 L 42.164062 34.175781 L 42.164062 30.195312 Z M 40.097656 30.941406 "/>
<path style=" stroke:none;fill-rule:nonzero;fill:rgb(0%,0%,0%);fill-opacity:1;" d="M 33.734375 38.777344 C 34.304688 39.347656 35.125 39.472656 35.945312 39.472656 C 36.097656 39.472656 36.195312 39.570312 36.195312 39.722656 L 36.417969 41.886719 C 36.445312 42.035156 36.320312 42.160156 36.171875 42.132812 L 34.007812 41.910156 C 33.882812 41.886719 33.757812 41.785156 33.757812 41.660156 C 33.757812 40.839844 33.632812 40.019531 33.0625 39.449219 C 32.488281 40.019531 32.390625 40.839844 32.390625 41.660156 C 32.390625 41.785156 32.265625 41.886719 32.140625 41.910156 L 29.953125 42.132812 C 29.804688 42.160156 29.679688 42.035156 29.703125 41.886719 L 29.925781 39.722656 C 29.925781 39.570312 30.027344 39.472656 30.175781 39.472656 C 30.996094 39.472656 31.816406 39.347656 32.390625 38.777344 C 31.816406 38.203125 30.996094 38.078125 30.175781 38.078125 C 30.027344 38.078125 29.925781 37.980469 29.925781 37.832031 L 29.703125 35.667969 C 29.679688 35.519531 29.804688 35.394531 29.953125 35.417969 L 32.140625 35.640625 C 32.265625 35.667969 32.363281 35.765625 32.363281 35.890625 C 32.363281 36.710938 32.488281 37.53125 33.0625 38.105469 C 33.632812 37.53125 33.757812 36.710938 33.757812 35.890625 C 33.757812 35.765625 33.882812 35.667969 34.007812 35.640625 L 36.171875 35.417969 C 36.320312 35.394531 36.445312 35.519531 36.417969 35.667969 L 36.195312 37.832031 C 36.195312 37.980469 36.097656 38.078125 35.945312 38.078125 C 35.125 38.078125 34.304688 38.203125 33.734375 38.777344 Z M 33.734375 38.777344 "/>
<path style=" stroke:none;fill-rule:nonzero;fill:rgb(0%,0%,0%);fill-opacity:1;" d="M 49.523438 52.753906 C 49.523438 53.003906 49.324219 53.226562 49.078125 53.226562 C 48.828125 53.226562 48.605469 53.003906 48.605469 52.753906 L 48.605469 49.148438 L 46.539062 49.917969 L 46.539062 53.847656 C 46.539062 54.097656 46.316406 54.320312 46.066406 54.320312 C 45.820312 54.320312 45.621094 54.097656 45.621094 53.847656 L 45.621094 50.242188 L 44.824219 50.539062 C 44.773438 50.566406 44.699219 50.566406 44.648438 50.566406 C 44.375 50.566406 44.152344 50.34375 44.152344 50.066406 L 44.152344 48.574219 C 44.152344 48.378906 44.277344 48.179688 44.476562 48.101562 L 45.621094 47.707031 L 45.621094 43.726562 L 44.824219 44 C 44.773438 44.023438 44.699219 44.023438 44.648438 44.023438 C 44.375 44.023438 44.152344 43.800781 44.152344 43.527344 L 44.152344 42.035156 C 44.152344 41.835938 44.277344 41.660156 44.476562 41.585938 L 45.621094 41.164062 L 45.621094 37.234375 C 45.621094 36.984375 45.820312 36.761719 46.066406 36.761719 C 46.316406 36.761719 46.539062 36.984375 46.539062 37.234375 L 46.539062 40.839844 L 48.605469 40.070312 L 48.605469 36.140625 C 48.605469 35.890625 48.828125 35.667969 49.078125 35.667969 C 49.324219 35.667969 49.523438 35.890625 49.523438 36.140625 L 49.523438 39.746094 L 50.320312 39.449219 C 50.371094 39.421875 50.445312 39.421875 50.496094 39.421875 C 50.769531 39.421875 50.992188 39.648438 50.992188 39.921875 L 50.992188 41.414062 C 50.992188 41.613281 50.867188 41.8125 50.667969 41.886719 L 49.523438 42.285156 L 49.523438 46.261719 L 50.320312 45.988281 C 50.371094 45.964844 50.445312 45.964844 50.496094 45.964844 C 50.769531 45.964844 50.992188 46.1875 50.992188 46.460938 L 50.992188 47.953125 C 50.992188 48.152344 50.867188 48.328125 50.667969 48.402344 L 49.523438 48.824219 Z M 46.539062 43.378906 L 46.539062 47.355469 L 48.605469 46.609375 L 48.605469 42.632812 Z M 46.539062 43.378906 "/>
<path style=" stroke:none;fill-rule:nonzero;fill:rgb(0%,0%,0%);fill-opacity:1;" d="M 23.390625 20.121094 C 23.390625 19.425781 23.960938 18.851562 24.65625 18.851562 C 25.355469 18.851562 25.925781 19.425781 25.925781 20.121094 C 25.925781 20.816406 25.355469 21.390625 24.65625 21.390625 C 23.960938 21.390625 23.390625 20.816406 23.390625 20.121094 Z M 23.390625 13.902344 C 23.390625 13.207031 23.960938 12.636719 24.65625 12.636719 C 25.355469 12.636719 25.925781 13.207031 25.925781 13.902344 C 25.925781 14.601562 25.355469 15.171875 24.65625 15.171875 C 23.960938 15.171875 23.390625 14.601562 23.390625 13.902344 Z M 15.304688 10.472656 C 19.585938 10.472656 22.59375 12.660156 22.59375 16.714844 C 22.59375 23.253906 16.050781 27.011719 9.757812 29.671875 C 9.683594 29.746094 9.609375 29.773438 9.535156 29.773438 C 9.363281 29.773438 9.210938 29.625 9.210938 29.449219 C 9.210938 29.375 9.238281 29.300781 9.3125 29.226562 C 14.335938 26.289062 19.558594 22.632812 19.558594 16.964844 C 19.558594 13.976562 17.992188 11.117188 15.304688 11.117188 C 13.464844 11.117188 12.097656 12.460938 11.476562 14.25 C 11.75 14.128906 12.023438 14.054688 12.320312 14.054688 C 13.6875 14.054688 14.808594 15.171875 14.808594 16.539062 C 14.808594 17.984375 13.714844 19.175781 12.320312 19.175781 C 10.828125 19.175781 9.535156 18.007812 9.535156 16.539062 C 9.535156 13.230469 12.074219 10.472656 15.304688 10.472656 Z M 15.304688 10.472656 "/>
<path style=" stroke:none;fill-rule:nonzero;fill:rgb(0%,0%,0%);fill-opacity:1;" d="M 63.738281 22.957031 C 65.109375 22.957031 66.425781 23.652344 66.425781 25.171875 C 66.425781 26.9375 65.058594 28.179688 63.890625 28.875 C 63.019531 29.398438 62.023438 29.722656 61.003906 29.722656 C 59.636719 29.722656 58.316406 29.027344 58.316406 27.507812 C 58.316406 25.742188 59.6875 24.5 60.855469 23.804688 C 61.726562 23.28125 62.71875 22.957031 63.738281 22.957031 Z M 63.738281 22.957031 "/>
<path style=" stroke:none;fill-rule:nonzero;fill:rgb(0%,0%,0%);fill-opacity:1;" d="M 63.738281 29.175781 C 65.109375 29.175781 66.425781 29.871094 66.425781 31.390625 C 66.425781 33.15625 65.058594 34.398438 63.890625 35.09375 C 63.019531 35.617188 62.023438 35.941406 61.003906 35.941406 C 59.636719 35.941406 58.316406 35.246094 58.316406 33.726562 C 58.316406 31.960938 59.6875 30.71875 60.855469 30.019531 C 61.726562 29.5 62.71875 29.175781 63.738281 29.175781 Z M 63.738281 29.175781 "/>
<path style=" stroke:none;fill-rule:nonzero;fill:rgb(0%,0%,0%);fill-opacity:1;" d="M 63.738281 35.394531 C 65.109375 35.394531 66.425781 36.089844 66.425781 37.605469 C 66.425781 39.375 65.058594 40.617188 63.890625 41.3125 C 63.019531 41.835938 62.023438 42.160156 61.003906 42.160156 C 59.636719 42.160156 58.316406 41.460938 58.316406 39.945312 C 58.316406 38.179688 59.6875 36.9375 60.855469 36.238281 C 61.726562 35.71875 62.71875 35.394531 63.738281 35.394531 Z M 63.738281 35.394531 "/>
<path style=" stroke:none;fill-rule:nonzero;fill:rgb(0%,0%,0%);fill-opacity:1;" d="M 63.738281 41.613281 C 65.109375 41.613281 66.425781 42.308594 66.425781 43.824219 C 66.425781 45.589844 65.058594 46.835938 63.890625 47.53125 C 63.019531 48.054688 62.023438 48.378906 61.003906 48.378906 C 59.636719 48.378906 58.316406 47.679688 58.316406 46.164062 C 58.316406 44.398438 59.6875 43.152344 60.855469 42.457031 C 61.726562 41.933594 62.71875 41.613281 63.738281 41.613281 Z M 63.738281 41.613281 "/>
</g>
</svg>
