<?xml version="1.0" encoding="UTF-8"?>
<svg xmlns="http://www.w3.org/2000/svg" xmlns:xlink="http://www.w3.org/1999/xlink" width="73.767826pt" height="60.158674pt" viewBox="0 0 73.767826 60.158674" version="1.1">
<g id="surface1">
<path style="fill:none;stroke-width:0.1;stroke-linecap:round;stroke-linejoin:round;stroke:rgb(0%,0%,0%);stroke-opacity:1;stroke-miterlimit:4;" d="M 0.049863 -0.0001075 L 9.549525 -0.0001075 " transform="matrix(6.218149,0,0,6.218149,4.561038,29.434262)"/>
<path style="fill:none;stroke-width:0.1;stroke-linecap:round;stroke-linejoin:round;stroke:rgb(0%,0%,0%);stroke-opacity:1;stroke-miterlimit:4;" d="M 0.049863 -0.000204149 L 9.549525 -0.000204149 " transform="matrix(6.218149,0,0,6.218149,4.561038,23.216113)"/>
<path style="fill:none;stroke-width:0.1;stroke-linecap:round;stroke-linejoin:round;stroke:rgb(0%,0%,0%);stroke-opacity:1;stroke-miterlimit:4;" d="M 0.049863 -0.000300797 L 9.549525 -0.000300797 " transform="matrix(6.218149,0,0,6.218149,4.561038,16.997964)"/>
<path style="fill:none;stroke-width:0.1;stroke-linecap:round;stroke-linejoin:round;stroke:rgb(0%,0%,0%);stroke-opacity:1;stroke-miterlimit:4;" d="M 0.049863 0.000230756 L 9.549525 0.000230756 " transform="matrix(6.218149,0,0,6.218149,4.561038,10.779815)"/>
<path style="fill:none;stroke-width:0.1;stroke-linecap:round;stroke-linejoin:round;stroke:rgb(0%,0%,0%);stroke-opacity:1;stroke-miterlimit:4;" d="M 0.049863 0.000133988 L 9.549525 0.000133988 " transform="matrix(6.218149,0,0,6.218149,4.561038,4.561667)"/>
<path style=" stroke:none;fill-rule:nonzero;fill:rgb(0%,0%,0%);fill-opacity:1;" d="M 44.179688 35.03125 L 55.101562 35.03125 C 55.441406 35.03125 55.722656 35.308594 55.722656 35.652344 C 55.722656 35.996094 55.441406 36.273438 55.101562 36.273438 L 44.179688 36.273438 C 43.835938 36.273438 43.558594 35.996094 43.558594 35.652344 C 43.558594 35.308594 43.835938 35.03125 44.179688 35.03125 Z M 44.179688 35.03125 "/>
<path style=" stroke:none;fill-rule:nonzero;fill:rgb(0%,0%,0%);fill-opacity:1;" d="M 44.179688 41.25 L 55.101562 41.25 C 55.441406 41.25 55.722656 41.527344 55.722656 41.871094 C 55.722656 42.214844 55.441406 42.492188 55.101562 42.492188 L 44.179688 42.492188 C 43.835938 42.492188 43.558594 42.214844 43.558594 41.871094 C 43.558594 41.527344 43.835938 41.25 44.179688 41.25 Z M 44.179688 41.25 "/>
<path style=" stroke:none;fill-rule:nonzero;fill:rgb(0%,0%,0%);fill-opacity:1;" d="M 53.132812 7.671875 L 53.445312 7.671875 C 53.582031 7.671875 53.695312 7.78125 53.695312 7.917969 L 53.695312 40.464844 C 53.695312 40.601562 53.582031 40.714844 53.445312 40.714844 L 53.132812 40.714844 C 52.996094 40.714844 52.886719 40.601562 52.886719 40.464844 L 52.886719 7.917969 C 52.886719 7.78125 52.996094 7.671875 53.132812 7.671875 Z M 53.132812 7.671875 "/>
<path style=" stroke:none;fill-rule:nonzero;fill:rgb(0%,0%,0%);fill-opacity:1;" d="M 41.941406 37.195312 C 41.941406 37.441406 41.742188 37.667969 41.492188 37.667969 C 41.246094 37.667969 41.019531 37.441406 41.019531 37.195312 L 41.019531 33.589844 L 38.957031 34.359375 L 38.957031 38.289062 C 38.957031 38.539062 38.730469 38.761719 38.484375 38.761719 C 38.234375 38.761719 38.035156 38.539062 38.035156 38.289062 L 38.035156 34.683594 L 37.238281 34.980469 C 37.191406 35.003906 37.117188 35.003906 37.066406 35.003906 C 36.792969 35.003906 36.566406 34.78125 36.566406 34.507812 L 36.566406 33.015625 C 36.566406 32.816406 36.691406 32.617188 36.890625 32.542969 L 38.035156 32.144531 L 38.035156 28.164062 L 37.238281 28.4375 C 37.191406 28.464844 37.117188 28.464844 37.066406 28.464844 C 36.792969 28.464844 36.566406 28.242188 36.566406 27.964844 L 36.566406 26.472656 C 36.566406 26.277344 36.691406 26.101562 36.890625 26.027344 L 38.035156 25.605469 L 38.035156 21.675781 C 38.035156 21.425781 38.234375 21.203125 38.484375 21.203125 C 38.730469 21.203125 38.957031 21.425781 38.957031 21.675781 L 38.957031 25.28125 L 41.019531 24.507812 L 41.019531 20.578125 C 41.019531 20.332031 41.246094 20.105469 41.492188 20.105469 C 41.742188 20.105469 41.941406 20.332031 41.941406 20.578125 L 41.941406 24.1875 L 42.738281 23.886719 C 42.785156 23.863281 42.859375 23.863281 42.910156 23.863281 C 43.183594 23.863281 43.410156 24.085938 43.410156 24.359375 L 43.410156 25.851562 C 43.410156 26.050781 43.285156 26.25 43.085938 26.324219 L 41.941406 26.722656 L 41.941406 30.703125 L 42.738281 30.429688 C 42.785156 30.402344 42.859375 30.402344 42.910156 30.402344 C 43.183594 30.402344 43.410156 30.628906 43.410156 30.902344 L 43.410156 32.394531 C 43.410156 32.59375 43.285156 32.765625 43.085938 32.84375 L 41.941406 33.265625 Z M 38.957031 27.816406 L 38.957031 31.796875 L 41.019531 31.050781 L 41.019531 27.070312 Z M 38.957031 27.816406 "/>
<path style=" stroke:none;fill-rule:nonzero;fill:rgb(0%,0%,0%);fill-opacity:1;" d="M 35.324219 49.628906 C 35.324219 49.878906 35.125 50.101562 34.878906 50.101562 C 34.628906 50.101562 34.40625 49.878906 34.40625 49.628906 L 34.40625 46.023438 L 32.339844 46.796875 L 32.339844 50.726562 C 32.339844 50.972656 32.117188 51.199219 31.867188 51.199219 C 31.617188 51.199219 31.417969 50.972656 31.417969 50.726562 L 31.417969 47.117188 L 30.625 47.417969 C 30.574219 47.441406 30.5 47.441406 30.449219 47.441406 C 30.175781 47.441406 29.953125 47.21875 29.953125 46.945312 L 29.953125 45.453125 C 29.953125 45.253906 30.078125 45.054688 30.277344 44.980469 L 31.417969 44.582031 L 31.417969 40.601562 L 30.625 40.875 C 30.574219 40.902344 30.5 40.902344 30.449219 40.902344 C 30.175781 40.902344 29.953125 40.675781 29.953125 40.402344 L 29.953125 38.910156 C 29.953125 38.710938 30.078125 38.539062 30.277344 38.464844 L 31.417969 38.039062 L 31.417969 34.109375 C 31.417969 33.863281 31.617188 33.636719 31.867188 33.636719 C 32.117188 33.636719 32.339844 33.863281 32.339844 34.109375 L 32.339844 37.71875 L 34.40625 36.945312 L 34.40625 33.015625 C 34.40625 32.765625 34.628906 32.542969 34.878906 32.542969 C 35.125 32.542969 35.324219 32.765625 35.324219 33.015625 L 35.324219 36.621094 L 36.121094 36.324219 C 36.171875 36.300781 36.246094 36.300781 36.292969 36.300781 C 36.566406 36.300781 36.792969 36.523438 36.792969 36.796875 L 36.792969 38.289062 C 36.792969 38.488281 36.667969 38.6875 36.46875 38.761719 L 35.324219 39.160156 L 35.324219 43.140625 L 36.121094 42.867188 C 36.171875 42.839844 36.246094 42.839844 36.292969 42.839844 C 36.566406 42.839844 36.792969 43.0625 36.792969 43.339844 L 36.792969 44.832031 C 36.792969 45.03125 36.667969 45.203125 36.46875 45.277344 L 35.324219 45.699219 Z M 32.339844 40.253906 L 32.339844 44.234375 L 34.40625 43.488281 L 34.40625 39.507812 Z M 32.339844 40.253906 "/>
<path style=" stroke:none;fill-rule:nonzero;fill:rgb(0%,0%,0%);fill-opacity:1;" d="M 23.390625 13.890625 C 23.390625 13.191406 23.960938 12.621094 24.65625 12.621094 C 25.355469 12.621094 25.925781 13.191406 25.925781 13.890625 C 25.925781 14.585938 25.355469 15.15625 24.65625 15.15625 C 23.960938 15.15625 23.390625 14.585938 23.390625 13.890625 Z M 23.390625 7.671875 C 23.390625 6.972656 23.960938 6.402344 24.65625 6.402344 C 25.355469 6.402344 25.925781 6.972656 25.925781 7.671875 C 25.925781 8.367188 25.355469 8.9375 24.65625 8.9375 C 23.960938 8.9375 23.390625 8.367188 23.390625 7.671875 Z M 15.304688 4.238281 C 19.585938 4.238281 22.59375 6.425781 22.59375 10.480469 C 22.59375 17.023438 16.050781 20.777344 9.757812 23.441406 C 9.683594 23.515625 9.609375 23.539062 9.535156 23.539062 C 9.363281 23.539062 9.210938 23.390625 9.210938 23.214844 C 9.210938 23.140625 9.238281 23.066406 9.3125 22.992188 C 14.335938 20.058594 19.558594 16.402344 19.558594 10.730469 C 19.558594 7.746094 17.992188 4.886719 15.304688 4.886719 C 13.464844 4.886719 12.097656 6.226562 11.476562 8.019531 C 11.75 7.894531 12.023438 7.820312 12.320312 7.820312 C 13.6875 7.820312 14.808594 8.9375 14.808594 10.308594 C 14.808594 11.75 13.714844 12.945312 12.320312 12.945312 C 10.828125 12.945312 9.535156 11.773438 9.535156 10.308594 C 9.535156 7 12.074219 4.238281 15.304688 4.238281 Z M 15.304688 4.238281 "/>
<path style=" stroke:none;fill-rule:nonzero;fill:rgb(0%,0%,0%);fill-opacity:1;" d="M 51.007812 26.050781 C 52.375 26.050781 53.691406 26.746094 53.691406 28.265625 C 53.691406 30.03125 52.324219 31.273438 51.15625 31.972656 C 50.285156 32.492188 49.289062 32.816406 48.269531 32.816406 C 46.902344 32.816406 45.585938 32.121094 45.585938 30.601562 C 45.585938 28.835938 46.953125 27.59375 48.121094 26.898438 C 48.992188 26.375 49.988281 26.050781 51.007812 26.050781 Z M 51.007812 26.050781 "/>
<path style=" stroke:none;fill-rule:nonzero;fill:rgb(0%,0%,0%);fill-opacity:1;" d="M 51.007812 32.269531 C 52.375 32.269531 53.691406 32.964844 53.691406 34.484375 C 53.691406 36.25 52.324219 37.492188 51.15625 38.1875 C 50.285156 38.710938 49.289062 39.035156 48.269531 39.035156 C 46.902344 39.035156 45.585938 38.339844 45.585938 36.820312 C 45.585938 35.054688 46.953125 33.8125 48.121094 33.117188 C 48.992188 32.59375 49.988281 32.269531 51.007812 32.269531 Z M 51.007812 32.269531 "/>
<path style=" stroke:none;fill-rule:nonzero;fill:rgb(0%,0%,0%);fill-opacity:1;" d="M 51.007812 38.488281 C 52.375 38.488281 53.691406 39.183594 53.691406 40.703125 C 53.691406 42.46875 52.324219 43.710938 51.15625 44.40625 C 50.285156 44.929688 49.289062 45.253906 48.269531 45.253906 C 46.902344 45.253906 45.585938 44.558594 45.585938 43.039062 C 45.585938 41.273438 46.953125 40.03125 48.121094 39.332031 C 48.992188 38.8125 49.988281 38.488281 51.007812 38.488281 Z M 51.007812 38.488281 "/>
</g>
</svg>
