<?xml version="1.0" encoding="UTF-8"?>
<svg xmlns="http://www.w3.org/2000/svg" xmlns:xlink="http://www.w3.org/1999/xlink" width="81.189345pt" height="60.37121pt" viewBox="0 0 81.189345 60.37121" version="1.1">
<g id="surface1">
<path style="fill:none;stroke-width:0.1;stroke-linecap:round;stroke-linejoin:round;stroke:rgb(0%,0%,0%);stroke-opacity:1;stroke-miterlimit:4;" d="M 0.049863 0.000275194 L 10.667095 0.000275194 " transform="matrix(6.218149,0,0,6.218149,4.561038,42.158445)"/>
<path style="fill:none;stroke-width:0.1;stroke-linecap:round;stroke-linejoin:round;stroke:rgb(0%,0%,0%);stroke-opacity:1;stroke-miterlimit:4;" d="M 0.049863 0.000178545 L 10.667095 0.000178545 " transform="matrix(6.218149,0,0,6.218149,4.561038,35.940296)"/>
<path style="fill:none;stroke-width:0.1;stroke-linecap:round;stroke-linejoin:round;stroke:rgb(0%,0%,0%);stroke-opacity:1;stroke-miterlimit:4;" d="M 0.049863 0.0000818968 L 10.667095 0.0000818968 " transform="matrix(6.218149,0,0,6.218149,4.561038,29.722147)"/>
<path style="fill:none;stroke-width:0.1;stroke-linecap:round;stroke-linejoin:round;stroke:rgb(0%,0%,0%);stroke-opacity:1;stroke-miterlimit:4;" d="M 0.049863 -0.0000147518 L 10.667095 -0.0000147518 " transform="matrix(6.218149,0,0,6.218149,4.561038,23.503998)"/>
<path style="fill:none;stroke-width:0.1;stroke-linecap:round;stroke-linejoin:round;stroke:rgb(0%,0%,0%);stroke-opacity:1;stroke-miterlimit:4;" d="M 0.049863 -0.0001114 L 10.667095 -0.0001114 " transform="matrix(6.218149,0,0,6.218149,4.561038,17.285849)"/>
<path style=" stroke:none;fill-rule:nonzero;fill:rgb(0%,0%,0%);fill-opacity:1;" d="M 51.917969 10.445312 L 62.046875 10.445312 C 62.390625 10.445312 62.667969 10.722656 62.667969 11.066406 C 62.667969 11.410156 62.390625 11.691406 62.046875 11.691406 L 51.917969 11.691406 C 51.574219 11.691406 51.296875 11.410156 51.296875 11.066406 C 51.296875 10.722656 51.574219 10.445312 51.917969 10.445312 Z M 51.917969 10.445312 "/>
<path style=" stroke:none;fill-rule:nonzero;fill:rgb(0%,0%,0%);fill-opacity:1;" d="M 52.78125 9.117188 L 53.09375 9.117188 C 53.230469 9.117188 53.339844 9.226562 53.339844 9.363281 L 53.339844 41.910156 C 53.339844 42.046875 53.230469 42.160156 53.09375 42.160156 L 52.78125 42.160156 C 52.644531 42.160156 52.53125 42.046875 52.53125 41.910156 L 52.53125 9.363281 C 52.53125 9.226562 52.644531 9.117188 52.78125 9.117188 Z M 52.78125 9.117188 "/>
<path style=" stroke:none;fill-rule:nonzero;fill:rgb(0%,0%,0%);fill-opacity:1;" d="M 47.621094 7.957031 C 48.195312 8.53125 49.015625 8.65625 49.835938 8.65625 C 49.984375 8.65625 50.085938 8.753906 50.085938 8.902344 L 50.308594 11.066406 C 50.332031 11.21875 50.207031 11.339844 50.058594 11.316406 L 47.894531 11.09375 C 47.769531 11.066406 47.648438 10.96875 47.648438 10.84375 C 47.648438 10.023438 47.523438 9.203125 46.949219 8.628906 C 46.378906 9.203125 46.277344 10.023438 46.277344 10.84375 C 46.277344 10.96875 46.152344 11.066406 46.03125 11.09375 L 43.839844 11.316406 C 43.691406 11.339844 43.566406 11.21875 43.59375 11.066406 L 43.816406 8.902344 C 43.816406 8.753906 43.914062 8.65625 44.066406 8.65625 C 44.886719 8.65625 45.707031 8.53125 46.277344 7.957031 C 45.707031 7.386719 44.886719 7.261719 44.066406 7.261719 C 43.914062 7.261719 43.816406 7.164062 43.816406 7.011719 L 43.59375 4.847656 C 43.566406 4.699219 43.691406 4.574219 43.839844 4.601562 L 46.03125 4.824219 C 46.152344 4.847656 46.253906 4.949219 46.253906 5.074219 C 46.253906 5.894531 46.378906 6.714844 46.949219 7.285156 C 47.523438 6.714844 47.648438 5.894531 47.648438 5.074219 C 47.648438 4.949219 47.769531 4.847656 47.894531 4.824219 L 50.058594 4.601562 C 50.207031 4.574219 50.332031 4.699219 50.308594 4.847656 L 50.085938 7.011719 C 50.085938 7.164062 49.984375 7.261719 49.835938 7.261719 C 49.015625 7.261719 48.195312 7.386719 47.621094 7.957031 Z M 47.621094 7.957031 "/>
<path style=" stroke:none;fill-rule:nonzero;fill:rgb(0%,0%,0%);fill-opacity:1;" d="M 32.996094 14.175781 C 33.570312 14.75 34.390625 14.875 35.210938 14.875 C 35.359375 14.875 35.460938 14.972656 35.460938 15.121094 L 35.683594 17.285156 C 35.707031 17.433594 35.582031 17.558594 35.433594 17.535156 L 33.269531 17.3125 C 33.144531 17.285156 33.023438 17.1875 33.023438 17.0625 C 33.023438 16.242188 32.898438 15.421875 32.324219 14.847656 C 31.753906 15.421875 31.652344 16.242188 31.652344 17.0625 C 31.652344 17.1875 31.527344 17.285156 31.40625 17.3125 L 29.214844 17.535156 C 29.066406 17.558594 28.941406 17.433594 28.96875 17.285156 L 29.191406 15.121094 C 29.191406 14.972656 29.289062 14.875 29.441406 14.875 C 30.261719 14.875 31.082031 14.75 31.652344 14.175781 C 31.082031 13.605469 30.261719 13.480469 29.441406 13.480469 C 29.289062 13.480469 29.191406 13.378906 29.191406 13.230469 L 28.96875 11.066406 C 28.941406 10.917969 29.066406 10.792969 29.214844 10.820312 L 31.40625 11.042969 C 31.527344 11.066406 31.628906 11.167969 31.628906 11.292969 C 31.628906 12.113281 31.753906 12.933594 32.324219 13.503906 C 32.898438 12.933594 33.023438 12.113281 33.023438 11.292969 C 33.023438 11.167969 33.144531 11.066406 33.269531 11.042969 L 35.433594 10.820312 C 35.582031 10.792969 35.707031 10.917969 35.683594 11.066406 L 35.460938 13.230469 C 35.460938 13.378906 35.359375 13.480469 35.210938 13.480469 C 34.390625 13.480469 33.570312 13.605469 32.996094 14.175781 Z M 32.996094 14.175781 "/>
<path style=" stroke:none;fill-rule:nonzero;fill:rgb(0%,0%,0%);fill-opacity:1;" d="M 42.347656 28.15625 C 42.347656 28.402344 42.148438 28.628906 41.898438 28.628906 C 41.652344 28.628906 41.425781 28.402344 41.425781 28.15625 L 41.425781 24.546875 L 39.363281 25.320312 L 39.363281 29.25 C 39.363281 29.5 39.136719 29.722656 38.890625 29.722656 C 38.640625 29.722656 38.441406 29.5 38.441406 29.25 L 38.441406 25.644531 L 37.644531 25.941406 C 37.597656 25.964844 37.523438 25.964844 37.472656 25.964844 C 37.199219 25.964844 36.972656 25.742188 36.972656 25.46875 L 36.972656 23.976562 C 36.972656 23.777344 37.097656 23.578125 37.296875 23.503906 L 38.441406 23.105469 L 38.441406 19.125 L 37.644531 19.398438 C 37.597656 19.425781 37.523438 19.425781 37.472656 19.425781 C 37.199219 19.425781 36.972656 19.199219 36.972656 18.925781 L 36.972656 17.433594 C 36.972656 17.234375 37.097656 17.0625 37.296875 16.988281 L 38.441406 16.566406 L 38.441406 12.632812 C 38.441406 12.386719 38.640625 12.160156 38.890625 12.160156 C 39.136719 12.160156 39.363281 12.386719 39.363281 12.632812 L 39.363281 16.242188 L 41.425781 15.46875 L 41.425781 11.539062 C 41.425781 11.292969 41.652344 11.066406 41.898438 11.066406 C 42.148438 11.066406 42.347656 11.292969 42.347656 11.539062 L 42.347656 15.148438 L 43.144531 14.847656 C 43.191406 14.824219 43.265625 14.824219 43.316406 14.824219 C 43.589844 14.824219 43.8125 15.046875 43.8125 15.320312 L 43.8125 16.8125 C 43.8125 17.011719 43.691406 17.210938 43.492188 17.285156 L 42.347656 17.683594 L 42.347656 21.664062 L 43.144531 21.390625 C 43.191406 21.363281 43.265625 21.363281 43.316406 21.363281 C 43.589844 21.363281 43.8125 21.589844 43.8125 21.863281 L 43.8125 23.355469 C 43.8125 23.554688 43.691406 23.726562 43.492188 23.800781 L 42.347656 24.226562 Z M 39.363281 18.777344 L 39.363281 22.757812 L 41.425781 22.011719 L 41.425781 18.03125 Z M 39.363281 18.777344 "/>
<path style=" stroke:none;fill-rule:nonzero;fill:rgb(0%,0%,0%);fill-opacity:1;" d="M 16.152344 51.734375 L 16.003906 51.734375 C 13.316406 51.734375 11.152344 49.546875 11.152344 46.835938 C 11.152344 45.390625 12.46875 44.273438 13.9375 44.273438 C 15.28125 44.273438 16.300781 45.441406 16.300781 46.835938 C 16.300781 48.128906 15.230469 49.199219 13.9375 49.199219 C 13.664062 49.199219 13.414062 49.148438 13.167969 49.046875 C 13.8125 50.019531 14.859375 50.664062 16.078125 50.664062 L 16.175781 50.664062 Z M 21 40.988281 C 22.691406 40.390625 23.8125 38.625 23.8125 36.910156 C 23.8125 34.671875 22.171875 32.457031 19.507812 32.183594 C 20.105469 35.070312 20.652344 37.929688 21 40.988281 Z M 11.375 35.242188 C 11.375 38.601562 14.585938 41.386719 17.941406 41.386719 C 18.640625 41.386719 19.308594 41.335938 19.980469 41.238281 C 19.632812 38.078125 19.0625 35.144531 18.414062 32.183594 C 16.449219 32.382812 15.332031 33.703125 15.332031 35.144531 C 15.332031 36.238281 15.953125 37.40625 17.34375 38.203125 C 17.46875 38.328125 17.519531 38.453125 17.519531 38.578125 C 17.519531 38.851562 17.269531 39.125 16.972656 39.125 C 16.898438 39.125 16.824219 39.097656 16.75 39.074219 C 14.757812 38.003906 13.839844 36.214844 13.839844 34.472656 C 13.839844 32.285156 15.28125 30.144531 17.816406 29.574219 C 17.46875 28.128906 17.097656 26.664062 16.675781 25.21875 C 14.011719 28.230469 11.375 31.265625 11.375 35.242188 Z M 17.867188 42.457031 C 13.191406 42.457031 9.585938 38.179688 9.585938 33.15625 C 9.585938 28.753906 12.84375 25.542969 15.753906 22.1875 C 15.28125 20.644531 14.832031 19.078125 14.632812 17.460938 C 14.484375 16.167969 14.460938 14.875 14.460938 13.578125 C 14.460938 10.71875 15.828125 8.007812 18.167969 6.316406 C 18.316406 6.191406 18.515625 6.191406 18.664062 6.316406 C 20.429688 8.40625 21.972656 12.410156 21.972656 15.222656 C 21.972656 18.777344 19.832031 21.5625 17.496094 24.273438 C 18.015625 25.964844 18.464844 27.707031 18.886719 29.421875 C 18.988281 29.421875 19.113281 29.398438 19.210938 29.398438 C 23.066406 29.398438 25.578125 32.582031 25.578125 35.890625 C 25.578125 37.78125 24.757812 39.722656 22.917969 41.113281 C 22.371094 41.535156 21.746094 41.808594 21.101562 42.007812 C 21.175781 42.878906 21.226562 43.75 21.226562 44.621094 C 21.226562 45.09375 21.199219 45.589844 21.175781 46.0625 C 21 49.023438 18.988281 51.660156 16.152344 51.734375 L 16.175781 50.664062 C 18.488281 50.613281 19.980469 48.375 20.132812 45.914062 C 20.15625 45.464844 20.179688 44.992188 20.179688 44.546875 C 20.179688 43.773438 20.15625 43.027344 20.082031 42.257812 C 19.359375 42.382812 18.640625 42.457031 17.867188 42.457031 Z M 20.179688 13.15625 C 20.179688 11.789062 20.082031 11.191406 19.683594 9.949219 C 17.222656 11.140625 15.652344 13.65625 15.652344 16.390625 C 15.652344 18.230469 16.101562 19.699219 16.550781 21.214844 C 18.539062 18.804688 20.179688 16.289062 20.179688 13.15625 Z M 20.179688 13.15625 "/>
<path style=" stroke:none;fill-rule:nonzero;fill:rgb(0%,0%,0%);fill-opacity:1;" d="M 57.953125 4.574219 C 59.324219 4.574219 60.640625 5.273438 60.640625 6.789062 C 60.640625 8.554688 59.273438 9.800781 58.105469 10.496094 C 57.234375 11.019531 56.238281 11.339844 55.21875 11.339844 C 53.851562 11.339844 52.53125 10.644531 52.53125 9.128906 C 52.53125 7.363281 53.898438 6.117188 55.070312 5.421875 C 55.941406 4.898438 56.933594 4.574219 57.953125 4.574219 Z M 57.953125 4.574219 "/>
<path style=" stroke:none;fill-rule:nonzero;fill:rgb(0%,0%,0%);fill-opacity:1;" d="M 57.953125 10.792969 C 59.324219 10.792969 60.640625 11.492188 60.640625 13.007812 C 60.640625 14.773438 59.273438 16.015625 58.105469 16.714844 C 57.234375 17.234375 56.238281 17.558594 55.21875 17.558594 C 53.851562 17.558594 52.53125 16.863281 52.53125 15.347656 C 52.53125 13.578125 53.898438 12.335938 55.070312 11.640625 C 55.941406 11.117188 56.933594 10.792969 57.953125 10.792969 Z M 57.953125 10.792969 "/>
<path style=" stroke:none;fill-rule:nonzero;fill:rgb(0%,0%,0%);fill-opacity:1;" d="M 57.953125 17.011719 C 59.324219 17.011719 60.640625 17.707031 60.640625 19.226562 C 60.640625 20.992188 59.273438 22.234375 58.105469 22.933594 C 57.234375 23.453125 56.238281 23.777344 55.21875 23.777344 C 53.851562 23.777344 52.53125 23.082031 52.53125 21.5625 C 52.53125 19.796875 53.898438 18.554688 55.070312 17.859375 C 55.941406 17.335938 56.933594 17.011719 57.953125 17.011719 Z M 57.953125 17.011719 "/>
</g>
</svg>
