<?xml version="1.0" encoding="UTF-8"?>
<svg xmlns="http://www.w3.org/2000/svg" xmlns:xlink="http://www.w3.org/1999/xlink" width="87.261919pt" height="59.813301pt" viewBox="0 0 87.261919 59.813301" version="1.1">
<g id="surface1">
<path style="fill:none;stroke-width:0.1;stroke-linecap:round;stroke-linejoin:round;stroke:rgb(0%,0%,0%);stroke-opacity:1;stroke-miterlimit:4;" d="M 0.049863 0.000184716 L 11.581128 0.000184716 " transform="matrix(6.218149,0,0,6.218149,4.561038,38.776195)"/>
<path style="fill:none;stroke-width:0.1;stroke-linecap:round;stroke-linejoin:round;stroke:rgb(0%,0%,0%);stroke-opacity:1;stroke-miterlimit:4;" d="M 0.049863 0.0000880672 L 11.581128 0.0000880672 " transform="matrix(6.218149,0,0,6.218149,4.561038,32.558046)"/>
<path style="fill:none;stroke-width:0.1;stroke-linecap:round;stroke-linejoin:round;stroke:rgb(0%,0%,0%);stroke-opacity:1;stroke-miterlimit:4;" d="M 0.049863 -0.00000858141 L 11.581128 -0.00000858141 " transform="matrix(6.218149,0,0,6.218149,4.561038,26.339897)"/>
<path style="fill:none;stroke-width:0.1;stroke-linecap:round;stroke-linejoin:round;stroke:rgb(0%,0%,0%);stroke-opacity:1;stroke-miterlimit:4;" d="M 0.049863 -0.00010523 L 11.581128 -0.00010523 " transform="matrix(6.218149,0,0,6.218149,4.561038,20.121748)"/>
<path style="fill:none;stroke-width:0.1;stroke-linecap:round;stroke-linejoin:round;stroke:rgb(0%,0%,0%);stroke-opacity:1;stroke-miterlimit:4;" d="M 0.049863 -0.000201879 L 11.581128 -0.000201879 " transform="matrix(6.218149,0,0,6.218149,4.561038,13.903599)"/>
<path style=" stroke:none;fill-rule:nonzero;fill:rgb(0%,0%,0%);fill-opacity:1;" d="M 58.464844 15.0625 L 58.777344 15.0625 C 58.914062 15.0625 59.027344 15.171875 59.027344 15.308594 L 59.027344 50.964844 C 59.027344 51.101562 58.914062 51.210938 58.777344 51.210938 L 58.464844 51.210938 C 58.328125 51.210938 58.21875 51.101562 58.21875 50.964844 L 58.21875 15.308594 C 58.21875 15.171875 58.328125 15.0625 58.464844 15.0625 Z M 58.464844 15.0625 "/>
<path style=" stroke:none;fill-rule:nonzero;fill:rgb(0%,0%,0%);fill-opacity:1;" d="M 54.574219 21.664062 C 54.574219 21.914062 54.375 22.136719 54.125 22.136719 C 53.878906 22.136719 53.652344 21.914062 53.652344 21.664062 L 53.652344 18.058594 L 51.589844 18.828125 L 51.589844 22.757812 C 51.589844 23.007812 51.367188 23.230469 51.117188 23.230469 C 50.867188 23.230469 50.667969 23.007812 50.667969 22.757812 L 50.667969 19.152344 L 49.875 19.449219 C 49.824219 19.476562 49.75 19.476562 49.699219 19.476562 C 49.425781 19.476562 49.203125 19.25 49.203125 18.976562 L 49.203125 17.484375 C 49.203125 17.285156 49.324219 17.085938 49.523438 17.011719 L 50.667969 16.613281 L 50.667969 12.636719 L 49.875 12.910156 C 49.824219 12.933594 49.75 12.933594 49.699219 12.933594 C 49.425781 12.933594 49.203125 12.710938 49.203125 12.4375 L 49.203125 10.945312 C 49.203125 10.746094 49.324219 10.570312 49.523438 10.496094 L 50.667969 10.074219 L 50.667969 6.144531 C 50.667969 5.894531 50.867188 5.671875 51.117188 5.671875 C 51.367188 5.671875 51.589844 5.894531 51.589844 6.144531 L 51.589844 9.75 L 53.652344 8.980469 L 53.652344 5.050781 C 53.652344 4.800781 53.878906 4.578125 54.125 4.578125 C 54.375 4.578125 54.574219 4.800781 54.574219 5.050781 L 54.574219 8.65625 L 55.371094 8.355469 C 55.417969 8.332031 55.496094 8.332031 55.542969 8.332031 C 55.816406 8.332031 56.042969 8.554688 56.042969 8.828125 L 56.042969 10.320312 C 56.042969 10.519531 55.917969 10.71875 55.71875 10.792969 L 54.574219 11.191406 L 54.574219 15.171875 L 55.371094 14.898438 C 55.417969 14.875 55.496094 14.875 55.542969 14.875 C 55.816406 14.875 56.042969 15.097656 56.042969 15.371094 L 56.042969 16.863281 C 56.042969 17.0625 55.917969 17.238281 55.71875 17.3125 L 54.574219 17.734375 Z M 51.589844 12.285156 L 51.589844 16.265625 L 53.652344 15.519531 L 53.652344 11.539062 Z M 51.589844 12.285156 "/>
<path style=" stroke:none;fill-rule:nonzero;fill:rgb(0%,0%,0%);fill-opacity:1;" d="M 41.742188 20.121094 C 42.3125 20.695312 43.132812 20.816406 43.957031 20.816406 C 44.105469 20.816406 44.203125 20.917969 44.203125 21.066406 L 44.429688 23.230469 C 44.453125 23.378906 44.328125 23.503906 44.179688 23.480469 L 42.015625 23.253906 C 41.890625 23.230469 41.765625 23.132812 41.765625 23.007812 C 41.765625 22.1875 41.640625 21.367188 41.070312 20.792969 C 40.5 21.367188 40.398438 22.1875 40.398438 23.007812 C 40.398438 23.132812 40.273438 23.230469 40.148438 23.253906 L 37.960938 23.480469 C 37.8125 23.503906 37.6875 23.378906 37.710938 23.230469 L 37.9375 21.066406 C 37.9375 20.917969 38.035156 20.816406 38.183594 20.816406 C 39.003906 20.816406 39.828125 20.695312 40.398438 20.121094 C 39.828125 19.550781 39.003906 19.425781 38.183594 19.425781 C 38.035156 19.425781 37.9375 19.324219 37.9375 19.175781 L 37.710938 17.011719 C 37.6875 16.863281 37.8125 16.738281 37.960938 16.765625 L 40.148438 16.988281 C 40.273438 17.011719 40.375 17.113281 40.375 17.238281 C 40.375 18.058594 40.5 18.878906 41.070312 19.449219 C 41.640625 18.878906 41.765625 18.058594 41.765625 17.238281 C 41.765625 17.113281 41.890625 17.011719 42.015625 16.988281 L 44.179688 16.765625 C 44.328125 16.738281 44.453125 16.863281 44.429688 17.011719 L 44.203125 19.175781 C 44.203125 19.324219 44.105469 19.425781 43.957031 19.425781 C 43.132812 19.425781 42.3125 19.550781 41.742188 20.121094 Z M 41.742188 20.121094 "/>
<path style=" stroke:none;fill-rule:nonzero;fill:rgb(0%,0%,0%);fill-opacity:1;" d="M 33.734375 26.339844 C 34.304688 26.910156 35.125 27.035156 35.945312 27.035156 C 36.097656 27.035156 36.195312 27.136719 36.195312 27.285156 L 36.417969 29.449219 C 36.445312 29.597656 36.320312 29.722656 36.171875 29.699219 L 34.007812 29.472656 C 33.882812 29.449219 33.757812 29.347656 33.757812 29.226562 C 33.757812 28.40625 33.632812 27.582031 33.0625 27.011719 C 32.488281 27.582031 32.390625 28.40625 32.390625 29.226562 C 32.390625 29.347656 32.265625 29.449219 32.140625 29.472656 L 29.953125 29.699219 C 29.804688 29.722656 29.679688 29.597656 29.703125 29.449219 L 29.925781 27.285156 C 29.925781 27.136719 30.027344 27.035156 30.175781 27.035156 C 30.996094 27.035156 31.816406 26.910156 32.390625 26.339844 C 31.816406 25.769531 30.996094 25.644531 30.175781 25.644531 C 30.027344 25.644531 29.925781 25.542969 29.925781 25.394531 L 29.703125 23.230469 C 29.679688 23.082031 29.804688 22.957031 29.953125 22.980469 L 32.140625 23.207031 C 32.265625 23.230469 32.363281 23.332031 32.363281 23.453125 C 32.363281 24.277344 32.488281 25.097656 33.0625 25.667969 C 33.632812 25.097656 33.757812 24.277344 33.757812 23.453125 C 33.757812 23.332031 33.882812 23.230469 34.007812 23.207031 L 36.171875 22.980469 C 36.320312 22.957031 36.445312 23.082031 36.417969 23.230469 L 36.195312 25.394531 C 36.195312 25.542969 36.097656 25.644531 35.945312 25.644531 C 35.125 25.644531 34.304688 25.769531 33.734375 26.339844 Z M 33.734375 26.339844 "/>
<path style=" stroke:none;fill-rule:nonzero;fill:rgb(0%,0%,0%);fill-opacity:1;" d="M 49.425781 40.316406 C 49.425781 40.566406 49.226562 40.789062 48.976562 40.789062 C 48.730469 40.789062 48.503906 40.566406 48.503906 40.316406 L 48.503906 36.710938 L 46.441406 37.484375 L 46.441406 41.414062 C 46.441406 41.660156 46.21875 41.886719 45.96875 41.886719 C 45.71875 41.886719 45.519531 41.660156 45.519531 41.414062 L 45.519531 37.804688 L 44.726562 38.105469 C 44.675781 38.128906 44.601562 38.128906 44.550781 38.128906 C 44.277344 38.128906 44.054688 37.90625 44.054688 37.632812 L 44.054688 36.140625 C 44.054688 35.941406 44.175781 35.742188 44.375 35.667969 L 45.519531 35.269531 L 45.519531 31.289062 L 44.726562 31.5625 C 44.675781 31.589844 44.601562 31.589844 44.550781 31.589844 C 44.277344 31.589844 44.054688 31.363281 44.054688 31.089844 L 44.054688 29.597656 C 44.054688 29.398438 44.175781 29.226562 44.375 29.152344 L 45.519531 28.726562 L 45.519531 24.796875 C 45.519531 24.550781 45.71875 24.324219 45.96875 24.324219 C 46.21875 24.324219 46.441406 24.550781 46.441406 24.796875 L 46.441406 28.40625 L 48.503906 27.632812 L 48.503906 23.703125 C 48.503906 23.453125 48.730469 23.230469 48.976562 23.230469 C 49.226562 23.230469 49.425781 23.453125 49.425781 23.703125 L 49.425781 27.308594 L 50.222656 27.011719 C 50.269531 26.988281 50.347656 26.988281 50.394531 26.988281 C 50.667969 26.988281 50.894531 27.210938 50.894531 27.484375 L 50.894531 28.976562 C 50.894531 29.175781 50.769531 29.375 50.570312 29.449219 L 49.425781 29.847656 L 49.425781 33.828125 L 50.222656 33.554688 C 50.269531 33.527344 50.347656 33.527344 50.394531 33.527344 C 50.667969 33.527344 50.894531 33.75 50.894531 34.027344 L 50.894531 35.519531 C 50.894531 35.71875 50.769531 35.890625 50.570312 35.964844 L 49.425781 36.386719 Z M 46.441406 30.941406 L 46.441406 34.921875 L 48.503906 34.175781 L 48.503906 30.195312 Z M 46.441406 30.941406 "/>
<path style=" stroke:none;fill-rule:nonzero;fill:rgb(0%,0%,0%);fill-opacity:1;" d="M 23.390625 23.230469 C 23.390625 22.535156 23.960938 21.960938 24.65625 21.960938 C 25.355469 21.960938 25.925781 22.535156 25.925781 23.230469 C 25.925781 23.925781 25.355469 24.5 24.65625 24.5 C 23.960938 24.5 23.390625 23.925781 23.390625 23.230469 Z M 23.390625 17.011719 C 23.390625 16.316406 23.960938 15.746094 24.65625 15.746094 C 25.355469 15.746094 25.925781 16.316406 25.925781 17.011719 C 25.925781 17.710938 25.355469 18.28125 24.65625 18.28125 C 23.960938 18.28125 23.390625 17.710938 23.390625 17.011719 Z M 15.304688 13.582031 C 19.585938 13.582031 22.59375 15.769531 22.59375 19.824219 C 22.59375 26.363281 16.050781 30.121094 9.757812 32.78125 C 9.683594 32.855469 9.609375 32.882812 9.535156 32.882812 C 9.363281 32.882812 9.210938 32.730469 9.210938 32.558594 C 9.210938 32.484375 9.238281 32.410156 9.3125 32.335938 C 14.335938 29.398438 19.558594 25.742188 19.558594 20.070312 C 19.558594 17.085938 17.992188 14.226562 15.304688 14.226562 C 13.464844 14.226562 12.097656 15.570312 11.476562 17.359375 C 11.75 17.238281 12.023438 17.160156 12.320312 17.160156 C 13.6875 17.160156 14.808594 18.28125 14.808594 19.648438 C 14.808594 21.089844 13.714844 22.285156 12.320312 22.285156 C 10.828125 22.285156 9.535156 21.117188 9.535156 19.648438 C 9.535156 16.339844 12.074219 13.582031 15.304688 13.582031 Z M 15.304688 13.582031 "/>
<path style=" stroke:none;fill-rule:nonzero;fill:rgb(0%,0%,0%);fill-opacity:1;" d="M 63.640625 10.519531 C 65.007812 10.519531 66.328125 11.21875 66.328125 12.734375 C 66.328125 14.5 64.957031 15.746094 63.789062 16.441406 C 62.917969 16.964844 61.925781 17.285156 60.90625 17.285156 C 59.535156 17.285156 58.21875 16.589844 58.21875 15.074219 C 58.21875 13.308594 59.585938 12.0625 60.753906 11.367188 C 61.625 10.84375 62.621094 10.519531 63.640625 10.519531 Z M 63.640625 10.519531 "/>
<path style=" stroke:none;fill-rule:nonzero;fill:rgb(0%,0%,0%);fill-opacity:1;" d="M 63.640625 16.738281 C 65.007812 16.738281 66.328125 17.433594 66.328125 18.953125 C 66.328125 20.71875 64.957031 21.960938 63.789062 22.660156 C 62.917969 23.179688 61.925781 23.503906 60.90625 23.503906 C 59.535156 23.503906 58.21875 22.808594 58.21875 21.289062 C 58.21875 19.523438 59.585938 18.28125 60.753906 17.585938 C 61.625 17.0625 62.621094 16.738281 63.640625 16.738281 Z M 63.640625 16.738281 "/>
<path style=" stroke:none;fill-rule:nonzero;fill:rgb(0%,0%,0%);fill-opacity:1;" d="M 63.640625 22.957031 C 65.007812 22.957031 66.328125 23.652344 66.328125 25.171875 C 66.328125 26.9375 64.957031 28.179688 63.789062 28.875 C 62.917969 29.398438 61.925781 29.722656 60.90625 29.722656 C 59.535156 29.722656 58.21875 29.027344 58.21875 27.507812 C 58.21875 25.742188 59.585938 24.5 60.753906 23.804688 C 61.625 23.28125 62.621094 22.957031 63.640625 22.957031 Z M 63.640625 22.957031 "/>
<path style=" stroke:none;fill-rule:nonzero;fill:rgb(0%,0%,0%);fill-opacity:1;" d="M 63.640625 29.175781 C 65.007812 29.175781 66.328125 29.871094 66.328125 31.390625 C 66.328125 33.15625 64.957031 34.398438 63.789062 35.09375 C 62.917969 35.617188 61.925781 35.941406 60.90625 35.941406 C 59.535156 35.941406 58.21875 35.246094 58.21875 33.726562 C 58.21875 31.960938 59.585938 30.71875 60.753906 30.019531 C 61.625 29.5 62.621094 29.175781 63.640625 29.175781 Z M 63.640625 29.175781 "/>
</g>
</svg>
