<?xml version="1.0" encoding="UTF-8"?>
<svg xmlns="http://www.w3.org/2000/svg" xmlns:xlink="http://www.w3.org/1999/xlink" width="78.868712pt" height="59.355019pt" viewBox="0 0 78.868712 59.355019" version="1.1">
<g id="surface1">
<path style="fill:none;stroke-width:0.1;stroke-linecap:round;stroke-linejoin:round;stroke:rgb(0%,0%,0%);stroke-opacity:1;stroke-miterlimit:4;" d="M 0.049863 -0.000287501 L 10.317815 -0.000287501 " transform="matrix(6.218149,0,0,6.218149,4.561038,40.517413)"/>
<path style="fill:none;stroke-width:0.1;stroke-linecap:round;stroke-linejoin:round;stroke:rgb(0%,0%,0%);stroke-opacity:1;stroke-miterlimit:4;" d="M 0.049863 0.000244052 L 10.317815 0.000244052 " transform="matrix(6.218149,0,0,6.218149,4.561038,34.299264)"/>
<path style="fill:none;stroke-width:0.1;stroke-linecap:round;stroke-linejoin:round;stroke:rgb(0%,0%,0%);stroke-opacity:1;stroke-miterlimit:4;" d="M 0.049863 0.000147403 L 10.317815 0.000147403 " transform="matrix(6.218149,0,0,6.218149,4.561038,28.081115)"/>
<path style="fill:none;stroke-width:0.1;stroke-linecap:round;stroke-linejoin:round;stroke:rgb(0%,0%,0%);stroke-opacity:1;stroke-miterlimit:4;" d="M 0.049863 0.0000507548 L 10.317815 0.0000507548 " transform="matrix(6.218149,0,0,6.218149,4.561038,21.862966)"/>
<path style="fill:none;stroke-width:0.1;stroke-linecap:round;stroke-linejoin:round;stroke:rgb(0%,0%,0%);stroke-opacity:1;stroke-miterlimit:4;" d="M 0.049863 -0.0000458938 L 10.317815 -0.0000458938 " transform="matrix(6.218149,0,0,6.218149,4.561038,15.644817)"/>
<path style=" stroke:none;fill-rule:nonzero;fill:rgb(0%,0%,0%);fill-opacity:1;" d="M 49.894531 46.113281 L 59.875 46.113281 C 60.21875 46.113281 60.496094 46.390625 60.496094 46.734375 C 60.496094 47.078125 60.21875 47.355469 59.875 47.355469 L 49.894531 47.355469 C 49.550781 47.355469 49.269531 47.078125 49.269531 46.734375 C 49.269531 46.390625 49.550781 46.113281 49.894531 46.113281 Z M 49.894531 46.113281 "/>
<path style=" stroke:none;fill-rule:nonzero;fill:rgb(0%,0%,0%);fill-opacity:1;" d="M 57.910156 7.355469 L 58.21875 7.355469 C 58.359375 7.355469 58.46875 7.464844 58.46875 7.601562 L 58.46875 45.328125 C 58.46875 45.46875 58.359375 45.578125 58.21875 45.578125 L 57.910156 45.578125 C 57.773438 45.578125 57.660156 45.46875 57.660156 45.328125 L 57.660156 7.601562 C 57.660156 7.464844 57.773438 7.355469 57.910156 7.355469 Z M 57.910156 7.355469 "/>
<path style=" stroke:none;fill-rule:nonzero;fill:rgb(0%,0%,0%);fill-opacity:1;" d="M 43.878906 27.0625 L 43.855469 28.703125 L 43.855469 28.976562 C 43.855469 29.523438 43.878906 30.070312 43.953125 30.617188 C 45.074219 29.671875 46.269531 28.628906 46.269531 27.160156 C 46.269531 26.339844 45.917969 25.496094 45.199219 25.496094 C 44.425781 25.496094 43.90625 26.242188 43.878906 27.0625 Z M 42.835938 31.511719 L 42.539062 16.714844 C 42.734375 16.589844 42.984375 16.515625 43.207031 16.515625 C 43.433594 16.515625 43.679688 16.589844 43.878906 16.714844 L 43.707031 25.296875 C 44.328125 24.773438 45.148438 24.449219 45.96875 24.449219 C 47.261719 24.449219 48.183594 25.644531 48.183594 26.988281 C 48.183594 28.976562 46.042969 29.898438 44.527344 31.191406 C 44.152344 31.511719 43.929688 32.136719 43.40625 32.136719 C 43.085938 32.136719 42.835938 31.863281 42.835938 31.511719 Z M 42.835938 31.511719 "/>
<path style=" stroke:none;fill-rule:nonzero;fill:rgb(0%,0%,0%);fill-opacity:1;" d="M 37.226562 33.28125 L 37.199219 34.921875 L 37.199219 35.195312 C 37.199219 35.742188 37.226562 36.289062 37.300781 36.835938 C 38.417969 35.890625 39.613281 34.847656 39.613281 33.378906 C 39.613281 32.558594 39.265625 31.710938 38.542969 31.710938 C 37.773438 31.710938 37.25 32.457031 37.226562 33.28125 Z M 36.179688 37.730469 L 35.882812 22.933594 C 36.082031 22.808594 36.328125 22.734375 36.554688 22.734375 C 36.777344 22.734375 37.027344 22.808594 37.226562 22.933594 L 37.050781 31.511719 C 37.671875 30.992188 38.492188 30.667969 39.3125 30.667969 C 40.609375 30.667969 41.527344 31.863281 41.527344 33.203125 C 41.527344 35.195312 39.390625 36.113281 37.871094 37.410156 C 37.5 37.730469 37.273438 38.351562 36.753906 38.351562 C 36.429688 38.351562 36.179688 38.078125 36.179688 37.730469 Z M 36.179688 37.730469 "/>
<path style=" stroke:none;fill-rule:nonzero;fill:rgb(0%,0%,0%);fill-opacity:1;" d="M 30.632812 39.496094 L 30.609375 41.140625 L 30.609375 41.414062 C 30.609375 41.960938 30.632812 42.507812 30.707031 43.054688 C 31.828125 42.109375 33.023438 41.066406 33.023438 39.597656 C 33.023438 38.777344 32.671875 37.929688 31.953125 37.929688 C 31.179688 37.929688 30.660156 38.675781 30.632812 39.496094 Z M 29.589844 43.949219 L 29.289062 29.152344 C 29.488281 29.027344 29.738281 28.953125 29.960938 28.953125 C 30.1875 28.953125 30.433594 29.027344 30.632812 29.152344 L 30.460938 37.730469 C 31.082031 37.210938 31.902344 36.886719 32.722656 36.886719 C 34.015625 36.886719 34.9375 38.078125 34.9375 39.421875 C 34.9375 41.414062 32.796875 42.332031 31.28125 43.625 C 30.90625 43.949219 30.683594 44.570312 30.160156 44.570312 C 29.835938 44.570312 29.589844 44.296875 29.589844 43.949219 Z M 29.589844 43.949219 "/>
<path style=" stroke:none;fill-rule:nonzero;fill:rgb(0%,0%,0%);fill-opacity:1;" d="M 43.878906 45.714844 L 43.855469 47.355469 L 43.855469 47.632812 C 43.855469 48.179688 43.878906 48.726562 43.953125 49.273438 C 45.074219 48.328125 46.269531 47.28125 46.269531 45.816406 C 46.269531 44.996094 45.917969 44.148438 45.199219 44.148438 C 44.425781 44.148438 43.90625 44.894531 43.878906 45.714844 Z M 42.835938 50.167969 L 42.539062 35.367188 C 42.734375 35.246094 42.984375 35.167969 43.207031 35.167969 C 43.433594 35.167969 43.679688 35.246094 43.878906 35.367188 L 43.707031 43.949219 C 44.328125 43.425781 45.148438 43.105469 45.96875 43.105469 C 47.261719 43.105469 48.183594 44.296875 48.183594 45.640625 C 48.183594 47.632812 46.042969 48.550781 44.527344 49.84375 C 44.152344 50.167969 43.929688 50.789062 43.40625 50.789062 C 43.085938 50.789062 42.835938 50.515625 42.835938 50.167969 Z M 42.835938 50.167969 "/>
<path style=" stroke:none;fill-rule:nonzero;fill:rgb(0%,0%,0%);fill-opacity:1;" d="M 16.152344 50.09375 L 16.003906 50.09375 C 13.316406 50.09375 11.152344 47.90625 11.152344 45.195312 C 11.152344 43.75 12.46875 42.632812 13.9375 42.632812 C 15.28125 42.632812 16.300781 43.800781 16.300781 45.195312 C 16.300781 46.488281 15.230469 47.554688 13.9375 47.554688 C 13.664062 47.554688 13.414062 47.507812 13.167969 47.40625 C 13.8125 48.378906 14.859375 49.023438 16.078125 49.023438 L 16.175781 49.023438 Z M 21 39.347656 C 22.691406 38.75 23.8125 36.984375 23.8125 35.269531 C 23.8125 33.03125 22.171875 30.816406 19.507812 30.542969 C 20.105469 33.429688 20.652344 36.289062 21 39.347656 Z M 11.375 33.601562 C 11.375 36.960938 14.585938 39.746094 17.941406 39.746094 C 18.640625 39.746094 19.308594 39.695312 19.980469 39.597656 C 19.632812 36.4375 19.0625 33.503906 18.414062 30.542969 C 16.449219 30.742188 15.332031 32.0625 15.332031 33.503906 C 15.332031 34.597656 15.953125 35.765625 17.34375 36.5625 C 17.46875 36.6875 17.519531 36.8125 17.519531 36.9375 C 17.519531 37.210938 17.269531 37.484375 16.972656 37.484375 C 16.898438 37.484375 16.824219 37.457031 16.75 37.433594 C 14.757812 36.363281 13.839844 34.574219 13.839844 32.832031 C 13.839844 30.644531 15.28125 28.503906 17.816406 27.933594 C 17.46875 26.488281 17.097656 25.023438 16.675781 23.578125 C 14.011719 26.589844 11.375 29.625 11.375 33.601562 Z M 17.867188 40.816406 C 13.191406 40.816406 9.585938 36.539062 9.585938 31.511719 C 9.585938 27.109375 12.84375 23.902344 15.753906 20.542969 C 15.28125 19.003906 14.832031 17.4375 14.632812 15.820312 C 14.484375 14.527344 14.460938 13.230469 14.460938 11.9375 C 14.460938 9.078125 15.828125 6.367188 18.167969 4.675781 C 18.316406 4.550781 18.515625 4.550781 18.664062 4.675781 C 20.429688 6.765625 21.972656 10.769531 21.972656 13.582031 C 21.972656 17.136719 19.832031 19.921875 17.496094 22.632812 C 18.015625 24.324219 18.464844 26.066406 18.886719 27.78125 C 18.988281 27.78125 19.113281 27.757812 19.210938 27.757812 C 23.066406 27.757812 25.578125 30.941406 25.578125 34.25 C 25.578125 36.140625 24.757812 38.078125 22.917969 39.472656 C 22.371094 39.894531 21.746094 40.167969 21.101562 40.367188 C 21.175781 41.238281 21.226562 42.109375 21.226562 42.980469 C 21.226562 43.453125 21.199219 43.949219 21.175781 44.421875 C 21 47.382812 18.988281 50.019531 16.152344 50.09375 L 16.175781 49.023438 C 18.488281 48.972656 19.980469 46.734375 20.132812 44.273438 C 20.15625 43.824219 20.179688 43.351562 20.179688 42.90625 C 20.179688 42.132812 20.15625 41.386719 20.082031 40.617188 C 19.359375 40.742188 18.640625 40.816406 17.867188 40.816406 Z M 20.179688 11.515625 C 20.179688 10.148438 20.082031 9.550781 19.683594 8.308594 C 17.222656 9.5 15.652344 12.011719 15.652344 14.75 C 15.652344 16.589844 16.101562 18.058594 16.550781 19.574219 C 18.539062 17.160156 20.179688 14.648438 20.179688 11.515625 Z M 20.179688 11.515625 "/>
<path style=" stroke:none;fill-rule:nonzero;fill:rgb(0%,0%,0%);fill-opacity:1;" d="M 55.78125 24.699219 C 57.148438 24.699219 58.46875 25.394531 58.46875 26.910156 C 58.46875 28.679688 57.101562 29.921875 55.929688 30.617188 C 55.058594 31.140625 54.066406 31.464844 53.046875 31.464844 C 51.679688 31.464844 50.359375 30.765625 50.359375 29.25 C 50.359375 27.484375 51.726562 26.242188 52.898438 25.542969 C 53.765625 25.023438 54.761719 24.699219 55.78125 24.699219 Z M 55.78125 24.699219 "/>
<path style=" stroke:none;fill-rule:nonzero;fill:rgb(0%,0%,0%);fill-opacity:1;" d="M 55.78125 30.917969 C 57.148438 30.917969 58.46875 31.613281 58.46875 33.128906 C 58.46875 34.894531 57.101562 36.140625 55.929688 36.835938 C 55.058594 37.359375 54.066406 37.683594 53.046875 37.683594 C 51.679688 37.683594 50.359375 36.984375 50.359375 35.46875 C 50.359375 33.703125 51.726562 32.457031 52.898438 31.761719 C 53.765625 31.238281 54.761719 30.917969 55.78125 30.917969 Z M 55.78125 30.917969 "/>
<path style=" stroke:none;fill-rule:nonzero;fill:rgb(0%,0%,0%);fill-opacity:1;" d="M 55.78125 37.132812 C 57.148438 37.132812 58.46875 37.832031 58.46875 39.347656 C 58.46875 41.113281 57.101562 42.359375 55.929688 43.054688 C 55.058594 43.578125 54.066406 43.898438 53.046875 43.898438 C 51.679688 43.898438 50.359375 43.203125 50.359375 41.6875 C 50.359375 39.921875 51.726562 38.675781 52.898438 37.980469 C 53.765625 37.457031 54.761719 37.132812 55.78125 37.132812 Z M 55.78125 37.132812 "/>
<path style=" stroke:none;fill-rule:nonzero;fill:rgb(0%,0%,0%);fill-opacity:1;" d="M 55.78125 43.351562 C 57.148438 43.351562 58.46875 44.050781 58.46875 45.566406 C 58.46875 47.332031 57.101562 48.574219 55.929688 49.273438 C 55.058594 49.792969 54.066406 50.117188 53.046875 50.117188 C 51.679688 50.117188 50.359375 49.421875 50.359375 47.90625 C 50.359375 46.136719 51.726562 44.894531 52.898438 44.199219 C 53.765625 43.675781 54.761719 43.351562 55.78125 43.351562 Z M 55.78125 43.351562 "/>
</g>
</svg>
