<?xml version="1.0" encoding="UTF-8"?>
<svg xmlns="http://www.w3.org/2000/svg" xmlns:xlink="http://www.w3.org/1999/xlink" width="74.549567pt" height="63.399859pt" viewBox="0 0 74.549567 63.399859" version="1.1">
<g id="surface1">
<path style="fill:none;stroke-width:0.1;stroke-linecap:round;stroke-linejoin:round;stroke:rgb(0%,0%,0%);stroke-opacity:1;stroke-miterlimit:4;" d="M 0.049863 0.000281364 L 9.666998 0.000281364 " transform="matrix(6.218149,0,0,6.218149,4.561038,44.994344)"/>
<path style="fill:none;stroke-width:0.1;stroke-linecap:round;stroke-linejoin:round;stroke:rgb(0%,0%,0%);stroke-opacity:1;stroke-miterlimit:4;" d="M 0.049863 0.000184716 L 9.666998 0.000184716 " transform="matrix(6.218149,0,0,6.218149,4.561038,38.776195)"/>
<path style="fill:none;stroke-width:0.1;stroke-linecap:round;stroke-linejoin:round;stroke:rgb(0%,0%,0%);stroke-opacity:1;stroke-miterlimit:4;" d="M 0.049863 0.0000880672 L 9.666998 0.0000880672 " transform="matrix(6.218149,0,0,6.218149,4.561038,32.558046)"/>
<path style="fill:none;stroke-width:0.1;stroke-linecap:round;stroke-linejoin:round;stroke:rgb(0%,0%,0%);stroke-opacity:1;stroke-miterlimit:4;" d="M 0.049863 -0.00000858141 L 9.666998 -0.00000858141 " transform="matrix(6.218149,0,0,6.218149,4.561038,26.339897)"/>
<path style="fill:none;stroke-width:0.1;stroke-linecap:round;stroke-linejoin:round;stroke:rgb(0%,0%,0%);stroke-opacity:1;stroke-miterlimit:4;" d="M 0.049863 -0.00010523 L 9.666998 -0.00010523 " transform="matrix(6.218149,0,0,6.218149,4.561038,20.121748)"/>
<path style=" stroke:none;fill-rule:nonzero;fill:rgb(0%,0%,0%);fill-opacity:1;" d="M 45.847656 13.28125 L 55.832031 13.28125 C 56.175781 13.28125 56.453125 13.558594 56.453125 13.902344 C 56.453125 14.246094 56.175781 14.527344 55.832031 14.527344 L 45.847656 14.527344 C 45.507812 14.527344 45.226562 14.246094 45.226562 13.902344 C 45.226562 13.558594 45.507812 13.28125 45.847656 13.28125 Z M 45.847656 13.28125 "/>
<path style=" stroke:none;fill-rule:nonzero;fill:rgb(0%,0%,0%);fill-opacity:1;" d="M 46.566406 15.0625 L 46.875 15.0625 C 47.011719 15.0625 47.125 15.171875 47.125 15.308594 L 47.125 47.855469 C 47.125 47.992188 47.011719 48.101562 46.875 48.101562 L 46.566406 48.101562 C 46.425781 48.101562 46.316406 47.992188 46.316406 47.855469 L 46.316406 15.308594 C 46.316406 15.171875 46.425781 15.0625 46.566406 15.0625 Z M 46.566406 15.0625 "/>
<path style=" stroke:none;fill-rule:nonzero;fill:rgb(0%,0%,0%);fill-opacity:1;" d="M 42.671875 21.664062 C 42.671875 21.914062 42.472656 22.136719 42.222656 22.136719 C 41.976562 22.136719 41.75 21.914062 41.75 21.664062 L 41.75 18.058594 L 39.6875 18.828125 L 39.6875 22.757812 C 39.6875 23.007812 39.464844 23.230469 39.214844 23.230469 C 38.964844 23.230469 38.765625 23.007812 38.765625 22.757812 L 38.765625 19.152344 L 37.972656 19.449219 C 37.921875 19.476562 37.847656 19.476562 37.796875 19.476562 C 37.523438 19.476562 37.300781 19.25 37.300781 18.976562 L 37.300781 17.484375 C 37.300781 17.285156 37.425781 17.085938 37.621094 17.011719 L 38.765625 16.613281 L 38.765625 12.636719 L 37.972656 12.910156 C 37.921875 12.933594 37.847656 12.933594 37.796875 12.933594 C 37.523438 12.933594 37.300781 12.710938 37.300781 12.4375 L 37.300781 10.945312 C 37.300781 10.746094 37.425781 10.570312 37.621094 10.496094 L 38.765625 10.074219 L 38.765625 6.144531 C 38.765625 5.894531 38.964844 5.671875 39.214844 5.671875 C 39.464844 5.671875 39.6875 5.894531 39.6875 6.144531 L 39.6875 9.75 L 41.75 8.980469 L 41.75 5.050781 C 41.75 4.800781 41.976562 4.578125 42.222656 4.578125 C 42.472656 4.578125 42.671875 4.800781 42.671875 5.050781 L 42.671875 8.65625 L 43.46875 8.355469 C 43.519531 8.332031 43.59375 8.332031 43.640625 8.332031 C 43.914062 8.332031 44.140625 8.554688 44.140625 8.828125 L 44.140625 10.320312 C 44.140625 10.519531 44.015625 10.71875 43.816406 10.792969 L 42.671875 11.191406 L 42.671875 15.171875 L 43.46875 14.898438 C 43.519531 14.875 43.59375 14.875 43.640625 14.875 C 43.914062 14.875 44.140625 15.097656 44.140625 15.371094 L 44.140625 16.863281 C 44.140625 17.0625 44.015625 17.238281 43.816406 17.3125 L 42.671875 17.734375 Z M 39.6875 12.285156 L 39.6875 16.265625 L 41.75 15.519531 L 41.75 11.539062 Z M 39.6875 12.285156 "/>
<path style=" stroke:none;fill-rule:nonzero;fill:rgb(0%,0%,0%);fill-opacity:1;" d="M 34.589844 27.882812 C 34.589844 28.128906 34.390625 28.355469 34.140625 28.355469 C 33.890625 28.355469 33.667969 28.128906 33.667969 27.882812 L 33.667969 24.277344 L 31.605469 25.046875 L 31.605469 28.976562 C 31.605469 29.226562 31.378906 29.449219 31.132812 29.449219 C 30.882812 29.449219 30.683594 29.226562 30.683594 28.976562 L 30.683594 25.371094 L 29.886719 25.667969 C 29.835938 25.691406 29.761719 25.691406 29.714844 25.691406 C 29.441406 25.691406 29.214844 25.46875 29.214844 25.195312 L 29.214844 23.703125 C 29.214844 23.503906 29.339844 23.304688 29.539062 23.230469 L 30.683594 22.832031 L 30.683594 18.851562 L 29.886719 19.125 C 29.835938 19.152344 29.761719 19.152344 29.714844 19.152344 C 29.441406 19.152344 29.214844 18.929688 29.214844 18.652344 L 29.214844 17.160156 C 29.214844 16.964844 29.339844 16.789062 29.539062 16.714844 L 30.683594 16.292969 L 30.683594 12.363281 C 30.683594 12.113281 30.882812 11.890625 31.132812 11.890625 C 31.378906 11.890625 31.605469 12.113281 31.605469 12.363281 L 31.605469 15.96875 L 33.667969 15.195312 L 33.667969 11.265625 C 33.667969 11.019531 33.890625 10.792969 34.140625 10.792969 C 34.390625 10.792969 34.589844 11.019531 34.589844 11.265625 L 34.589844 14.875 L 35.382812 14.574219 C 35.433594 14.550781 35.507812 14.550781 35.558594 14.550781 C 35.832031 14.550781 36.054688 14.773438 36.054688 15.046875 L 36.054688 16.539062 C 36.054688 16.738281 35.929688 16.9375 35.734375 17.011719 L 34.589844 17.410156 L 34.589844 21.390625 L 35.382812 21.117188 C 35.433594 21.089844 35.507812 21.089844 35.558594 21.089844 C 35.832031 21.089844 36.054688 21.316406 36.054688 21.589844 L 36.054688 23.082031 C 36.054688 23.28125 35.929688 23.453125 35.734375 23.527344 L 34.589844 23.953125 Z M 31.605469 18.503906 L 31.605469 22.484375 L 33.667969 21.738281 L 33.667969 17.757812 Z M 31.605469 18.503906 "/>
<path style=" stroke:none;fill-rule:nonzero;fill:rgb(0%,0%,0%);fill-opacity:1;" d="M 16.152344 54.570312 L 16.003906 54.570312 C 13.316406 54.570312 11.152344 52.382812 11.152344 49.671875 C 11.152344 48.226562 12.46875 47.109375 13.9375 47.109375 C 15.28125 47.109375 16.300781 48.277344 16.300781 49.671875 C 16.300781 50.964844 15.230469 52.035156 13.9375 52.035156 C 13.664062 52.035156 13.414062 51.984375 13.167969 51.882812 C 13.8125 52.855469 14.859375 53.5 16.078125 53.5 L 16.175781 53.5 Z M 21 43.824219 C 22.691406 43.226562 23.8125 41.460938 23.8125 39.746094 C 23.8125 37.507812 22.171875 35.292969 19.507812 35.019531 C 20.105469 37.90625 20.652344 40.765625 21 43.824219 Z M 11.375 38.078125 C 11.375 41.4375 14.585938 44.222656 17.941406 44.222656 C 18.640625 44.222656 19.308594 44.171875 19.980469 44.074219 C 19.632812 40.914062 19.0625 37.980469 18.414062 35.019531 C 16.449219 35.21875 15.332031 36.539062 15.332031 37.980469 C 15.332031 39.074219 15.953125 40.242188 17.34375 41.039062 C 17.46875 41.164062 17.519531 41.289062 17.519531 41.414062 C 17.519531 41.6875 17.269531 41.960938 16.972656 41.960938 C 16.898438 41.960938 16.824219 41.933594 16.75 41.910156 C 14.757812 40.839844 13.839844 39.050781 13.839844 37.308594 C 13.839844 35.121094 15.28125 32.980469 17.816406 32.410156 C 17.46875 30.964844 17.097656 29.5 16.675781 28.054688 C 14.011719 31.066406 11.375 34.101562 11.375 38.078125 Z M 17.867188 45.292969 C 13.191406 45.292969 9.585938 41.015625 9.585938 35.992188 C 9.585938 31.589844 12.84375 28.378906 15.753906 25.023438 C 15.28125 23.480469 14.832031 21.914062 14.632812 20.296875 C 14.484375 19.003906 14.460938 17.710938 14.460938 16.414062 C 14.460938 13.554688 15.828125 10.84375 18.167969 9.152344 C 18.316406 9.027344 18.515625 9.027344 18.664062 9.152344 C 20.429688 11.242188 21.972656 15.246094 21.972656 18.058594 C 21.972656 21.613281 19.832031 24.398438 17.496094 27.109375 C 18.015625 28.800781 18.464844 30.542969 18.886719 32.257812 C 18.988281 32.257812 19.113281 32.234375 19.210938 32.234375 C 23.066406 32.234375 25.578125 35.417969 25.578125 38.726562 C 25.578125 40.617188 24.757812 42.558594 22.917969 43.949219 C 22.371094 44.371094 21.746094 44.644531 21.101562 44.84375 C 21.175781 45.714844 21.226562 46.585938 21.226562 47.457031 C 21.226562 47.929688 21.199219 48.425781 21.175781 48.898438 C 21 51.859375 18.988281 54.496094 16.152344 54.570312 L 16.175781 53.5 C 18.488281 53.449219 19.980469 51.210938 20.132812 48.75 C 20.15625 48.300781 20.179688 47.828125 20.179688 47.382812 C 20.179688 46.609375 20.15625 45.863281 20.082031 45.09375 C 19.359375 45.21875 18.640625 45.292969 17.867188 45.292969 Z M 20.179688 15.992188 C 20.179688 14.625 20.082031 14.027344 19.683594 12.785156 C 17.222656 13.976562 15.652344 16.492188 15.652344 19.226562 C 15.652344 21.066406 16.101562 22.535156 16.550781 24.050781 C 18.539062 21.640625 20.179688 19.125 20.179688 15.992188 Z M 20.179688 15.992188 "/>
<path style=" stroke:none;fill-rule:nonzero;fill:rgb(0%,0%,0%);fill-opacity:1;" d="M 51.738281 10.519531 C 53.105469 10.519531 54.425781 11.21875 54.425781 12.734375 C 54.425781 14.5 53.054688 15.746094 51.886719 16.441406 C 51.015625 16.964844 50.023438 17.285156 49.003906 17.285156 C 47.632812 17.285156 46.316406 16.589844 46.316406 15.074219 C 46.316406 13.308594 47.683594 12.0625 48.851562 11.367188 C 49.722656 10.84375 50.71875 10.519531 51.738281 10.519531 Z M 51.738281 10.519531 "/>
<path style=" stroke:none;fill-rule:nonzero;fill:rgb(0%,0%,0%);fill-opacity:1;" d="M 51.738281 16.738281 C 53.105469 16.738281 54.425781 17.433594 54.425781 18.953125 C 54.425781 20.71875 53.054688 21.960938 51.886719 22.660156 C 51.015625 23.179688 50.023438 23.503906 49.003906 23.503906 C 47.632812 23.503906 46.316406 22.808594 46.316406 21.289062 C 46.316406 19.523438 47.683594 18.28125 48.851562 17.585938 C 49.722656 17.0625 50.71875 16.738281 51.738281 16.738281 Z M 51.738281 16.738281 "/>
<path style=" stroke:none;fill-rule:nonzero;fill:rgb(0%,0%,0%);fill-opacity:1;" d="M 51.738281 22.957031 C 53.105469 22.957031 54.425781 23.652344 54.425781 25.171875 C 54.425781 26.9375 53.054688 28.179688 51.886719 28.875 C 51.015625 29.398438 50.023438 29.722656 49.003906 29.722656 C 47.632812 29.722656 46.316406 29.027344 46.316406 27.507812 C 46.316406 25.742188 47.683594 24.5 48.851562 23.804688 C 49.722656 23.28125 50.71875 22.957031 51.738281 22.957031 Z M 51.738281 22.957031 "/>
</g>
</svg>
