<?xml version="1.0" encoding="UTF-8"?>
<svg xmlns="http://www.w3.org/2000/svg" xmlns:xlink="http://www.w3.org/1999/xlink" width="80.102086pt" height="59.355019pt" viewBox="0 0 80.102086 59.355019" version="1.1">
<g id="surface1">
<path style="fill:none;stroke-width:0.1;stroke-linecap:round;stroke-linejoin:round;stroke:rgb(0%,0%,0%);stroke-opacity:1;stroke-miterlimit:4;" d="M 0.049863 -0.000287501 L 10.503135 -0.000287501 " transform="matrix(6.218149,0,0,6.218149,4.561038,40.517413)"/>
<path style="fill:none;stroke-width:0.1;stroke-linecap:round;stroke-linejoin:round;stroke:rgb(0%,0%,0%);stroke-opacity:1;stroke-miterlimit:4;" d="M 0.049863 0.000244052 L 10.503135 0.000244052 " transform="matrix(6.218149,0,0,6.218149,4.561038,34.299264)"/>
<path style="fill:none;stroke-width:0.1;stroke-linecap:round;stroke-linejoin:round;stroke:rgb(0%,0%,0%);stroke-opacity:1;stroke-miterlimit:4;" d="M 0.049863 0.000147403 L 10.503135 0.000147403 " transform="matrix(6.218149,0,0,6.218149,4.561038,28.081115)"/>
<path style="fill:none;stroke-width:0.1;stroke-linecap:round;stroke-linejoin:round;stroke:rgb(0%,0%,0%);stroke-opacity:1;stroke-miterlimit:4;" d="M 0.049863 0.0000507548 L 10.503135 0.0000507548 " transform="matrix(6.218149,0,0,6.218149,4.561038,21.862966)"/>
<path style="fill:none;stroke-width:0.1;stroke-linecap:round;stroke-linejoin:round;stroke:rgb(0%,0%,0%);stroke-opacity:1;stroke-miterlimit:4;" d="M 0.049863 -0.0000458938 L 10.503135 -0.0000458938 " transform="matrix(6.218149,0,0,6.218149,4.561038,15.644817)"/>
<path style=" stroke:none;fill-rule:nonzero;fill:rgb(0%,0%,0%);fill-opacity:1;" d="M 50.109375 46.113281 L 61.03125 46.113281 C 61.375 46.113281 61.652344 46.390625 61.652344 46.734375 C 61.652344 47.078125 61.375 47.355469 61.03125 47.355469 L 50.109375 47.355469 C 49.765625 47.355469 49.488281 47.078125 49.488281 46.734375 C 49.488281 46.390625 49.765625 46.113281 50.109375 46.113281 Z M 50.109375 46.113281 "/>
<path style=" stroke:none;fill-rule:nonzero;fill:rgb(0%,0%,0%);fill-opacity:1;" d="M 59.066406 12.535156 L 59.375 12.535156 C 59.511719 12.535156 59.625 12.648438 59.625 12.785156 L 59.625 45.328125 C 59.625 45.46875 59.511719 45.578125 59.375 45.578125 L 59.066406 45.578125 C 58.925781 45.578125 58.816406 45.46875 58.816406 45.328125 L 58.816406 12.785156 C 58.816406 12.648438 58.925781 12.535156 59.066406 12.535156 Z M 59.066406 12.535156 "/>
<path style=" stroke:none;fill-rule:nonzero;fill:rgb(0%,0%,0%);fill-opacity:1;" d="M 45.035156 33.28125 L 45.011719 34.921875 L 45.011719 35.195312 C 45.011719 35.742188 45.035156 36.289062 45.109375 36.835938 C 46.230469 35.890625 47.421875 34.847656 47.421875 33.378906 C 47.421875 32.558594 47.074219 31.710938 46.351562 31.710938 C 45.582031 31.710938 45.058594 32.457031 45.035156 33.28125 Z M 43.992188 37.730469 L 43.691406 22.933594 C 43.890625 22.808594 44.140625 22.734375 44.363281 22.734375 C 44.585938 22.734375 44.835938 22.808594 45.035156 22.933594 L 44.859375 31.511719 C 45.484375 30.992188 46.304688 30.667969 47.125 30.667969 C 48.417969 30.667969 49.339844 31.863281 49.339844 33.203125 C 49.339844 35.195312 47.199219 36.113281 45.683594 37.410156 C 45.308594 37.730469 45.085938 38.351562 44.5625 38.351562 C 44.238281 38.351562 43.992188 38.078125 43.992188 37.730469 Z M 43.992188 37.730469 "/>
<path style=" stroke:none;fill-rule:nonzero;fill:rgb(0%,0%,0%);fill-opacity:1;" d="M 34.6875 39.496094 L 34.664062 41.140625 C 34.664062 41.238281 34.636719 41.3125 34.636719 41.414062 C 34.636719 41.960938 34.664062 42.507812 34.738281 43.054688 C 35.832031 42.132812 36.902344 41.015625 36.902344 39.597656 C 36.902344 38.777344 36.628906 37.929688 35.90625 37.929688 C 35.160156 37.929688 34.710938 38.675781 34.6875 39.496094 Z M 34.664062 29.152344 L 34.515625 37.730469 C 35.109375 37.210938 35.882812 36.886719 36.679688 36.886719 C 37.996094 36.886719 38.964844 38.054688 38.964844 39.398438 C 38.964844 41.386719 36.828125 42.332031 35.308594 43.625 C 34.9375 43.949219 34.738281 44.570312 34.214844 44.570312 C 33.890625 44.570312 33.617188 44.296875 33.617188 43.949219 L 33.570312 41.3125 C 32.898438 42.160156 31.925781 42.855469 31.132812 43.625 C 30.808594 43.949219 30.660156 44.570312 30.160156 44.570312 C 29.835938 44.570312 29.589844 44.273438 29.589844 43.925781 L 29.289062 29.152344 C 29.488281 29.027344 29.738281 28.953125 29.960938 28.953125 C 30.1875 28.953125 30.433594 29.027344 30.632812 29.152344 L 30.460938 37.730469 C 30.882812 37.210938 31.527344 36.886719 32.199219 36.886719 C 32.699219 36.886719 33.144531 37.085938 33.492188 37.410156 L 33.320312 29.152344 C 33.519531 29.027344 33.769531 28.953125 33.992188 28.953125 C 34.214844 28.953125 34.464844 29.027344 34.664062 29.152344 Z M 30.386719 41.164062 L 30.386719 41.414062 C 30.386719 41.984375 30.410156 42.53125 30.484375 43.105469 C 31.453125 42.160156 32.25 40.964844 32.25 39.597656 C 32.25 38.800781 32.101562 37.929688 31.429688 37.929688 C 30.757812 37.929688 30.460938 38.703125 30.433594 39.472656 Z M 30.386719 41.164062 "/>
<path style=" stroke:none;fill-rule:nonzero;fill:rgb(0%,0%,0%);fill-opacity:1;" d="M 41.554688 45.714844 L 41.527344 47.355469 L 41.527344 47.632812 C 41.527344 48.179688 41.554688 48.726562 41.628906 49.273438 C 42.746094 48.328125 43.941406 47.28125 43.941406 45.816406 C 43.941406 44.996094 43.59375 44.148438 42.871094 44.148438 C 42.101562 44.148438 41.578125 44.894531 41.554688 45.714844 Z M 40.507812 50.167969 L 40.210938 35.367188 C 40.410156 35.246094 40.65625 35.167969 40.882812 35.167969 C 41.105469 35.167969 41.355469 35.246094 41.554688 35.367188 L 41.378906 43.949219 C 42 43.425781 42.820312 43.105469 43.640625 43.105469 C 44.933594 43.105469 45.855469 44.296875 45.855469 45.640625 C 45.855469 47.632812 43.714844 48.550781 42.199219 49.84375 C 41.828125 50.167969 41.601562 50.789062 41.082031 50.789062 C 40.757812 50.789062 40.507812 50.515625 40.507812 50.167969 Z M 40.507812 50.167969 "/>
<path style=" stroke:none;fill-rule:nonzero;fill:rgb(0%,0%,0%);fill-opacity:1;" d="M 16.152344 50.09375 L 16.003906 50.09375 C 13.316406 50.09375 11.152344 47.90625 11.152344 45.195312 C 11.152344 43.75 12.46875 42.632812 13.9375 42.632812 C 15.28125 42.632812 16.300781 43.800781 16.300781 45.195312 C 16.300781 46.488281 15.230469 47.554688 13.9375 47.554688 C 13.664062 47.554688 13.414062 47.507812 13.167969 47.40625 C 13.8125 48.378906 14.859375 49.023438 16.078125 49.023438 L 16.175781 49.023438 Z M 21 39.347656 C 22.691406 38.75 23.8125 36.984375 23.8125 35.269531 C 23.8125 33.03125 22.171875 30.816406 19.507812 30.542969 C 20.105469 33.429688 20.652344 36.289062 21 39.347656 Z M 11.375 33.601562 C 11.375 36.960938 14.585938 39.746094 17.941406 39.746094 C 18.640625 39.746094 19.308594 39.695312 19.980469 39.597656 C 19.632812 36.4375 19.0625 33.503906 18.414062 30.542969 C 16.449219 30.742188 15.332031 32.0625 15.332031 33.503906 C 15.332031 34.597656 15.953125 35.765625 17.34375 36.5625 C 17.46875 36.6875 17.519531 36.8125 17.519531 36.9375 C 17.519531 37.210938 17.269531 37.484375 16.972656 37.484375 C 16.898438 37.484375 16.824219 37.457031 16.75 37.433594 C 14.757812 36.363281 13.839844 34.574219 13.839844 32.832031 C 13.839844 30.644531 15.28125 28.503906 17.816406 27.933594 C 17.46875 26.488281 17.097656 25.023438 16.675781 23.578125 C 14.011719 26.589844 11.375 29.625 11.375 33.601562 Z M 17.867188 40.816406 C 13.191406 40.816406 9.585938 36.539062 9.585938 31.511719 C 9.585938 27.109375 12.84375 23.902344 15.753906 20.542969 C 15.28125 19.003906 14.832031 17.4375 14.632812 15.820312 C 14.484375 14.527344 14.460938 13.230469 14.460938 11.9375 C 14.460938 9.078125 15.828125 6.367188 18.167969 4.675781 C 18.316406 4.550781 18.515625 4.550781 18.664062 4.675781 C 20.429688 6.765625 21.972656 10.769531 21.972656 13.582031 C 21.972656 17.136719 19.832031 19.921875 17.496094 22.632812 C 18.015625 24.324219 18.464844 26.066406 18.886719 27.78125 C 18.988281 27.78125 19.113281 27.757812 19.210938 27.757812 C 23.066406 27.757812 25.578125 30.941406 25.578125 34.25 C 25.578125 36.140625 24.757812 38.078125 22.917969 39.472656 C 22.371094 39.894531 21.746094 40.167969 21.101562 40.367188 C 21.175781 41.238281 21.226562 42.109375 21.226562 42.980469 C 21.226562 43.453125 21.199219 43.949219 21.175781 44.421875 C 21 47.382812 18.988281 50.019531 16.152344 50.09375 L 16.175781 49.023438 C 18.488281 48.972656 19.980469 46.734375 20.132812 44.273438 C 20.15625 43.824219 20.179688 43.351562 20.179688 42.90625 C 20.179688 42.132812 20.15625 41.386719 20.082031 40.617188 C 19.359375 40.742188 18.640625 40.816406 17.867188 40.816406 Z M 20.179688 11.515625 C 20.179688 10.148438 20.082031 9.550781 19.683594 8.308594 C 17.222656 9.5 15.652344 12.011719 15.652344 14.75 C 15.652344 16.589844 16.101562 18.058594 16.550781 19.574219 C 18.539062 17.160156 20.179688 14.648438 20.179688 11.515625 Z M 20.179688 11.515625 "/>
<path style=" stroke:none;fill-rule:nonzero;fill:rgb(0%,0%,0%);fill-opacity:1;" d="M 56.9375 30.917969 C 58.304688 30.917969 59.621094 31.613281 59.621094 33.128906 C 59.621094 34.894531 58.253906 36.140625 57.085938 36.835938 C 56.214844 37.359375 55.21875 37.683594 54.199219 37.683594 C 52.832031 37.683594 51.515625 36.984375 51.515625 35.46875 C 51.515625 33.703125 52.882812 32.457031 54.050781 31.761719 C 54.921875 31.238281 55.917969 30.917969 56.9375 30.917969 Z M 56.9375 30.917969 "/>
<path style=" stroke:none;fill-rule:nonzero;fill:rgb(0%,0%,0%);fill-opacity:1;" d="M 56.9375 37.132812 C 58.304688 37.132812 59.621094 37.832031 59.621094 39.347656 C 59.621094 41.113281 58.253906 42.359375 57.085938 43.054688 C 56.214844 43.578125 55.21875 43.898438 54.199219 43.898438 C 52.832031 43.898438 51.515625 43.203125 51.515625 41.6875 C 51.515625 39.921875 52.882812 38.675781 54.050781 37.980469 C 54.921875 37.457031 55.917969 37.132812 56.9375 37.132812 Z M 56.9375 37.132812 "/>
<path style=" stroke:none;fill-rule:nonzero;fill:rgb(0%,0%,0%);fill-opacity:1;" d="M 56.9375 43.351562 C 58.304688 43.351562 59.621094 44.050781 59.621094 45.566406 C 59.621094 47.332031 58.253906 48.574219 57.085938 49.273438 C 56.214844 49.792969 55.21875 50.117188 54.199219 50.117188 C 52.832031 50.117188 51.515625 49.421875 51.515625 47.90625 C 51.515625 46.136719 52.882812 44.894531 54.050781 44.199219 C 54.921875 43.675781 55.917969 43.351562 56.9375 43.351562 Z M 56.9375 43.351562 "/>
</g>
</svg>
