<?xml version="1.0" encoding="UTF-8"?>
<svg xmlns="http://www.w3.org/2000/svg" xmlns:xlink="http://www.w3.org/1999/xlink" width="73.767826pt" height="58.706119pt" viewBox="0 0 73.767826 58.706119" version="1.1">
<g id="surface1">
<path style="fill:none;stroke-width:0.1;stroke-linecap:round;stroke-linejoin:round;stroke:rgb(0%,0%,0%);stroke-opacity:1;stroke-miterlimit:4;" d="M 0.049863 0.000136391 L 9.549525 0.000136391 " transform="matrix(6.218149,0,0,6.218149,4.561038,35.667121)"/>
<path style="fill:none;stroke-width:0.1;stroke-linecap:round;stroke-linejoin:round;stroke:rgb(0%,0%,0%);stroke-opacity:1;stroke-miterlimit:4;" d="M 0.049863 0.0000397429 L 9.549525 0.0000397429 " transform="matrix(6.218149,0,0,6.218149,4.561038,29.448972)"/>
<path style="fill:none;stroke-width:0.1;stroke-linecap:round;stroke-linejoin:round;stroke:rgb(0%,0%,0%);stroke-opacity:1;stroke-miterlimit:4;" d="M 0.049863 -0.0000569057 L 9.549525 -0.0000569057 " transform="matrix(6.218149,0,0,6.218149,4.561038,23.230823)"/>
<path style="fill:none;stroke-width:0.1;stroke-linecap:round;stroke-linejoin:round;stroke:rgb(0%,0%,0%);stroke-opacity:1;stroke-miterlimit:4;" d="M 0.049863 -0.000153554 L 9.549525 -0.000153554 " transform="matrix(6.218149,0,0,6.218149,4.561038,17.012674)"/>
<path style="fill:none;stroke-width:0.1;stroke-linecap:round;stroke-linejoin:round;stroke:rgb(0%,0%,0%);stroke-opacity:1;stroke-miterlimit:4;" d="M 0.049863 -0.000250203 L 9.549525 -0.000250203 " transform="matrix(6.218149,0,0,6.218149,4.561038,10.794525)"/>
<path style=" stroke:none;fill-rule:nonzero;fill:rgb(0%,0%,0%);fill-opacity:1;" d="M 41.941406 21.664062 C 41.941406 21.914062 41.742188 22.136719 41.492188 22.136719 C 41.246094 22.136719 41.019531 21.914062 41.019531 21.664062 L 41.019531 18.058594 L 38.957031 18.828125 L 38.957031 22.757812 C 38.957031 23.007812 38.730469 23.230469 38.484375 23.230469 C 38.234375 23.230469 38.035156 23.007812 38.035156 22.757812 L 38.035156 19.152344 L 37.238281 19.449219 C 37.191406 19.476562 37.117188 19.476562 37.066406 19.476562 C 36.792969 19.476562 36.566406 19.25 36.566406 18.976562 L 36.566406 17.484375 C 36.566406 17.285156 36.691406 17.085938 36.890625 17.011719 L 38.035156 16.613281 L 38.035156 12.636719 L 37.238281 12.910156 C 37.191406 12.933594 37.117188 12.933594 37.066406 12.933594 C 36.792969 12.933594 36.566406 12.710938 36.566406 12.4375 L 36.566406 10.945312 C 36.566406 10.746094 36.691406 10.570312 36.890625 10.496094 L 38.035156 10.074219 L 38.035156 6.144531 C 38.035156 5.894531 38.234375 5.671875 38.484375 5.671875 C 38.730469 5.671875 38.957031 5.894531 38.957031 6.144531 L 38.957031 9.75 L 41.019531 8.980469 L 41.019531 5.050781 C 41.019531 4.800781 41.246094 4.578125 41.492188 4.578125 C 41.742188 4.578125 41.941406 4.800781 41.941406 5.050781 L 41.941406 8.65625 L 42.738281 8.355469 C 42.785156 8.332031 42.859375 8.332031 42.910156 8.332031 C 43.183594 8.332031 43.410156 8.554688 43.410156 8.828125 L 43.410156 10.320312 C 43.410156 10.519531 43.285156 10.71875 43.085938 10.792969 L 41.941406 11.191406 L 41.941406 15.171875 L 42.738281 14.898438 C 42.785156 14.875 42.859375 14.875 42.910156 14.875 C 43.183594 14.875 43.410156 15.097656 43.410156 15.371094 L 43.410156 16.863281 C 43.410156 17.0625 43.285156 17.238281 43.085938 17.3125 L 41.941406 17.734375 Z M 38.957031 12.285156 L 38.957031 16.265625 L 41.019531 15.519531 L 41.019531 11.539062 Z M 38.957031 12.285156 "/>
<path style=" stroke:none;fill-rule:nonzero;fill:rgb(0%,0%,0%);fill-opacity:1;" d="M 35.324219 34.101562 C 35.324219 34.347656 35.125 34.574219 34.878906 34.574219 C 34.628906 34.574219 34.40625 34.347656 34.40625 34.101562 L 34.40625 30.492188 L 32.339844 31.265625 L 32.339844 35.195312 C 32.339844 35.441406 32.117188 35.667969 31.867188 35.667969 C 31.617188 35.667969 31.417969 35.441406 31.417969 35.195312 L 31.417969 31.589844 L 30.625 31.886719 C 30.574219 31.910156 30.5 31.910156 30.449219 31.910156 C 30.175781 31.910156 29.953125 31.6875 29.953125 31.414062 L 29.953125 29.921875 C 29.953125 29.722656 30.078125 29.523438 30.277344 29.449219 L 31.417969 29.050781 L 31.417969 25.070312 L 30.625 25.34375 C 30.574219 25.371094 30.5 25.371094 30.449219 25.371094 C 30.175781 25.371094 29.953125 25.144531 29.953125 24.871094 L 29.953125 23.378906 C 29.953125 23.179688 30.078125 23.007812 30.277344 22.933594 L 31.417969 22.507812 L 31.417969 18.578125 C 31.417969 18.332031 31.617188 18.105469 31.867188 18.105469 C 32.117188 18.105469 32.339844 18.332031 32.339844 18.578125 L 32.339844 22.1875 L 34.40625 21.414062 L 34.40625 17.484375 C 34.40625 17.238281 34.628906 17.011719 34.878906 17.011719 C 35.125 17.011719 35.324219 17.238281 35.324219 17.484375 L 35.324219 21.089844 L 36.121094 20.792969 C 36.171875 20.769531 36.246094 20.769531 36.292969 20.769531 C 36.566406 20.769531 36.792969 20.992188 36.792969 21.265625 L 36.792969 22.757812 C 36.792969 22.957031 36.667969 23.15625 36.46875 23.230469 L 35.324219 23.628906 L 35.324219 27.609375 L 36.121094 27.335938 C 36.171875 27.308594 36.246094 27.308594 36.292969 27.308594 C 36.566406 27.308594 36.792969 27.535156 36.792969 27.808594 L 36.792969 29.300781 C 36.792969 29.5 36.667969 29.671875 36.46875 29.746094 L 35.324219 30.171875 Z M 32.339844 24.722656 L 32.339844 28.703125 L 34.40625 27.957031 L 34.40625 23.976562 Z M 32.339844 24.722656 "/>
<path style=" stroke:none;fill-rule:nonzero;fill:rgb(0%,0%,0%);fill-opacity:1;" d="M 45.832031 15.0625 L 46.144531 15.0625 C 46.28125 15.0625 46.394531 15.171875 46.394531 15.308594 L 46.394531 49.925781 C 46.394531 50.066406 46.28125 50.175781 46.144531 50.175781 L 45.832031 50.175781 C 45.695312 50.175781 45.585938 50.066406 45.585938 49.925781 L 45.585938 15.308594 C 45.585938 15.171875 45.695312 15.0625 45.832031 15.0625 Z M 45.832031 15.0625 "/>
<path style=" stroke:none;fill-rule:nonzero;fill:rgb(0%,0%,0%);fill-opacity:1;" d="M 23.390625 20.121094 C 23.390625 19.425781 23.960938 18.851562 24.65625 18.851562 C 25.355469 18.851562 25.925781 19.425781 25.925781 20.121094 C 25.925781 20.816406 25.355469 21.390625 24.65625 21.390625 C 23.960938 21.390625 23.390625 20.816406 23.390625 20.121094 Z M 23.390625 13.902344 C 23.390625 13.207031 23.960938 12.636719 24.65625 12.636719 C 25.355469 12.636719 25.925781 13.207031 25.925781 13.902344 C 25.925781 14.601562 25.355469 15.171875 24.65625 15.171875 C 23.960938 15.171875 23.390625 14.601562 23.390625 13.902344 Z M 15.304688 10.472656 C 19.585938 10.472656 22.59375 12.660156 22.59375 16.714844 C 22.59375 23.253906 16.050781 27.011719 9.757812 29.671875 C 9.683594 29.746094 9.609375 29.773438 9.535156 29.773438 C 9.363281 29.773438 9.210938 29.625 9.210938 29.449219 C 9.210938 29.375 9.238281 29.300781 9.3125 29.226562 C 14.335938 26.289062 19.558594 22.632812 19.558594 16.964844 C 19.558594 13.976562 17.992188 11.117188 15.304688 11.117188 C 13.464844 11.117188 12.097656 12.460938 11.476562 14.25 C 11.75 14.128906 12.023438 14.054688 12.320312 14.054688 C 13.6875 14.054688 14.808594 15.171875 14.808594 16.539062 C 14.808594 17.984375 13.714844 19.175781 12.320312 19.175781 C 10.828125 19.175781 9.535156 18.007812 9.535156 16.539062 C 9.535156 13.230469 12.074219 10.472656 15.304688 10.472656 Z M 15.304688 10.472656 "/>
<path style=" stroke:none;fill-rule:nonzero;fill:rgb(0%,0%,0%);fill-opacity:1;" d="M 51.007812 10.519531 C 52.375 10.519531 53.691406 11.21875 53.691406 12.734375 C 53.691406 14.5 52.324219 15.746094 51.15625 16.441406 C 50.285156 16.964844 49.289062 17.285156 48.269531 17.285156 C 46.902344 17.285156 45.585938 16.589844 45.585938 15.074219 C 45.585938 13.308594 46.953125 12.0625 48.121094 11.367188 C 48.992188 10.84375 49.988281 10.519531 51.007812 10.519531 Z M 51.007812 10.519531 "/>
<path style=" stroke:none;fill-rule:nonzero;fill:rgb(0%,0%,0%);fill-opacity:1;" d="M 51.007812 16.738281 C 52.375 16.738281 53.691406 17.433594 53.691406 18.953125 C 53.691406 20.71875 52.324219 21.960938 51.15625 22.660156 C 50.285156 23.179688 49.289062 23.503906 48.269531 23.503906 C 46.902344 23.503906 45.585938 22.808594 45.585938 21.289062 C 45.585938 19.523438 46.953125 18.28125 48.121094 17.585938 C 48.992188 17.0625 49.988281 16.738281 51.007812 16.738281 Z M 51.007812 16.738281 "/>
<path style=" stroke:none;fill-rule:nonzero;fill:rgb(0%,0%,0%);fill-opacity:1;" d="M 51.007812 22.957031 C 52.375 22.957031 53.691406 23.652344 53.691406 25.171875 C 53.691406 26.9375 52.324219 28.179688 51.15625 28.875 C 50.285156 29.398438 49.289062 29.722656 48.269531 29.722656 C 46.902344 29.722656 45.585938 29.027344 45.585938 27.507812 C 45.585938 25.742188 46.953125 24.5 48.121094 23.804688 C 48.992188 23.28125 49.988281 22.957031 51.007812 22.957031 Z M 51.007812 22.957031 "/>
<path style=" stroke:none;fill-rule:nonzero;fill:rgb(0%,0%,0%);fill-opacity:1;" d="M 51.007812 29.175781 C 52.375 29.175781 53.691406 29.871094 53.691406 31.390625 C 53.691406 33.15625 52.324219 34.398438 51.15625 35.09375 C 50.285156 35.617188 49.289062 35.941406 48.269531 35.941406 C 46.902344 35.941406 45.585938 35.246094 45.585938 33.726562 C 45.585938 31.960938 46.953125 30.71875 48.121094 30.019531 C 48.992188 29.5 49.988281 29.175781 51.007812 29.175781 Z M 51.007812 29.175781 "/>
</g>
</svg>
