<?xml version="1.0" encoding="UTF-8"?>
<svg xmlns="http://www.w3.org/2000/svg" xmlns:xlink="http://www.w3.org/1999/xlink" width="68.472344pt" height="76.975644pt" viewBox="0 0 68.472344 76.975644" version="1.1">
<g id="surface1">
<path style="fill:none;stroke-width:0.1;stroke-linecap:round;stroke-linejoin:round;stroke:rgb(0%,0%,0%);stroke-opacity:1;stroke-miterlimit:4;" d="M 0.049863 -0.000111386 L 8.752337 -0.000111386 " transform="matrix(6.218149,0,0,6.218149,4.561038,57.703818)"/>
<path style="fill:none;stroke-width:0.1;stroke-linecap:round;stroke-linejoin:round;stroke:rgb(0%,0%,0%);stroke-opacity:1;stroke-miterlimit:4;" d="M 0.049863 -0.000208034 L 8.752337 -0.000208034 " transform="matrix(6.218149,0,0,6.218149,4.561038,51.485669)"/>
<path style="fill:none;stroke-width:0.1;stroke-linecap:round;stroke-linejoin:round;stroke:rgb(0%,0%,0%);stroke-opacity:1;stroke-miterlimit:4;" d="M 0.049863 -0.000304683 L 8.752337 -0.000304683 " transform="matrix(6.218149,0,0,6.218149,4.561038,45.26752)"/>
<path style="fill:none;stroke-width:0.1;stroke-linecap:round;stroke-linejoin:round;stroke:rgb(0%,0%,0%);stroke-opacity:1;stroke-miterlimit:4;" d="M 0.049863 0.00022687 L 8.752337 0.00022687 " transform="matrix(6.218149,0,0,6.218149,4.561038,39.049371)"/>
<path style="fill:none;stroke-width:0.1;stroke-linecap:round;stroke-linejoin:round;stroke:rgb(0%,0%,0%);stroke-opacity:1;stroke-miterlimit:4;" d="M 0.049863 0.000130221 L 8.752337 0.000130221 " transform="matrix(6.218149,0,0,6.218149,4.561038,32.831222)"/>
<path style=" stroke:none;fill-rule:nonzero;fill:rgb(0%,0%,0%);fill-opacity:1;" d="M 39.21875 7.335938 L 50.140625 7.335938 C 50.484375 7.335938 50.761719 7.613281 50.761719 7.957031 C 50.761719 8.300781 50.484375 8.582031 50.140625 8.582031 L 39.21875 8.582031 C 38.878906 8.582031 38.597656 8.300781 38.597656 7.957031 C 38.597656 7.613281 38.878906 7.335938 39.21875 7.335938 Z M 39.21875 7.335938 "/>
<path style=" stroke:none;fill-rule:nonzero;fill:rgb(0%,0%,0%);fill-opacity:1;" d="M 39.21875 13.554688 L 50.140625 13.554688 C 50.484375 13.554688 50.761719 13.832031 50.761719 14.175781 C 50.761719 14.519531 50.484375 14.796875 50.140625 14.796875 L 39.21875 14.796875 C 38.878906 14.796875 38.597656 14.519531 38.597656 14.175781 C 38.597656 13.832031 38.878906 13.554688 39.21875 13.554688 Z M 39.21875 13.554688 "/>
<path style=" stroke:none;fill-rule:nonzero;fill:rgb(0%,0%,0%);fill-opacity:1;" d="M 39.21875 19.773438 L 50.140625 19.773438 C 50.484375 19.773438 50.761719 20.050781 50.761719 20.394531 C 50.761719 20.738281 50.484375 21.015625 50.140625 21.015625 L 39.21875 21.015625 C 38.878906 21.015625 38.597656 20.738281 38.597656 20.394531 C 38.597656 20.050781 38.878906 19.773438 39.21875 19.773438 Z M 39.21875 19.773438 "/>
<path style=" stroke:none;fill-rule:nonzero;fill:rgb(0%,0%,0%);fill-opacity:1;" d="M 39.21875 25.992188 L 50.140625 25.992188 C 50.484375 25.992188 50.761719 26.269531 50.761719 26.613281 C 50.761719 26.957031 50.484375 27.234375 50.140625 27.234375 L 39.21875 27.234375 C 38.878906 27.234375 38.597656 26.957031 38.597656 26.613281 C 38.597656 26.269531 38.878906 25.992188 39.21875 25.992188 Z M 39.21875 25.992188 "/>
<path style=" stroke:none;fill-rule:nonzero;fill:rgb(0%,0%,0%);fill-opacity:1;" d="M 36.984375 28.15625 C 36.984375 28.402344 36.785156 28.628906 36.535156 28.628906 C 36.285156 28.628906 36.0625 28.402344 36.0625 28.15625 L 36.0625 24.546875 L 33.996094 25.320312 L 33.996094 29.25 C 33.996094 29.5 33.773438 29.722656 33.523438 29.722656 C 33.277344 29.722656 33.078125 29.5 33.078125 29.25 L 33.078125 25.644531 L 32.28125 25.941406 C 32.230469 25.964844 32.15625 25.964844 32.109375 25.964844 C 31.832031 25.964844 31.609375 25.742188 31.609375 25.46875 L 31.609375 23.976562 C 31.609375 23.777344 31.734375 23.578125 31.933594 23.503906 L 33.078125 23.105469 L 33.078125 19.125 L 32.28125 19.398438 C 32.230469 19.425781 32.15625 19.425781 32.109375 19.425781 C 31.832031 19.425781 31.609375 19.199219 31.609375 18.925781 L 31.609375 17.433594 C 31.609375 17.234375 31.734375 17.0625 31.933594 16.988281 L 33.078125 16.566406 L 33.078125 12.632812 C 33.078125 12.386719 33.277344 12.160156 33.523438 12.160156 C 33.773438 12.160156 33.996094 12.386719 33.996094 12.632812 L 33.996094 16.242188 L 36.0625 15.46875 L 36.0625 11.539062 C 36.0625 11.292969 36.285156 11.066406 36.535156 11.066406 C 36.785156 11.066406 36.984375 11.292969 36.984375 11.539062 L 36.984375 15.148438 L 37.777344 14.847656 C 37.828125 14.824219 37.902344 14.824219 37.953125 14.824219 C 38.226562 14.824219 38.449219 15.046875 38.449219 15.320312 L 38.449219 16.8125 C 38.449219 17.011719 38.324219 17.210938 38.125 17.285156 L 36.984375 17.683594 L 36.984375 21.664062 L 37.777344 21.390625 C 37.828125 21.363281 37.902344 21.363281 37.953125 21.363281 C 38.226562 21.363281 38.449219 21.589844 38.449219 21.863281 L 38.449219 23.355469 C 38.449219 23.554688 38.324219 23.726562 38.125 23.800781 L 36.984375 24.226562 Z M 33.996094 18.777344 L 33.996094 22.757812 L 36.0625 22.011719 L 36.0625 18.03125 Z M 33.996094 18.777344 "/>
<path style=" stroke:none;fill-rule:nonzero;fill:rgb(0%,0%,0%);fill-opacity:1;" d="M 40.875 9.117188 L 41.1875 9.117188 C 41.324219 9.117188 41.433594 9.226562 41.433594 9.363281 L 41.433594 48.128906 C 41.433594 48.265625 41.324219 48.375 41.1875 48.375 L 40.875 48.375 C 40.738281 48.375 40.625 48.265625 40.625 48.128906 L 40.625 9.363281 C 40.625 9.226562 40.738281 9.117188 40.875 9.117188 Z M 40.875 9.117188 "/>
<path style=" stroke:none;fill-rule:nonzero;fill:rgb(0%,0%,0%);fill-opacity:1;" d="M 16.152344 67.28125 L 16.003906 67.28125 C 13.316406 67.28125 11.152344 65.089844 11.152344 62.378906 C 11.152344 60.9375 12.46875 59.816406 13.9375 59.816406 C 15.28125 59.816406 16.300781 60.988281 16.300781 62.378906 C 16.300781 63.671875 15.230469 64.742188 13.9375 64.742188 C 13.664062 64.742188 13.414062 64.691406 13.167969 64.59375 C 13.8125 65.5625 14.859375 66.210938 16.078125 66.210938 L 16.175781 66.210938 Z M 21 56.535156 C 22.691406 55.9375 23.8125 54.171875 23.8125 52.457031 C 23.8125 50.21875 22.171875 48.003906 19.507812 47.730469 C 20.105469 50.613281 20.652344 53.476562 21 56.535156 Z M 11.375 50.789062 C 11.375 54.148438 14.585938 56.933594 17.941406 56.933594 C 18.640625 56.933594 19.308594 56.882812 19.980469 56.785156 C 19.632812 53.625 19.0625 50.691406 18.414062 47.730469 C 16.449219 47.929688 15.332031 49.246094 15.332031 50.691406 C 15.332031 51.785156 15.953125 52.953125 17.34375 53.75 C 17.46875 53.875 17.519531 53.996094 17.519531 54.121094 C 17.519531 54.394531 17.269531 54.667969 16.972656 54.667969 C 16.898438 54.667969 16.824219 54.644531 16.75 54.621094 C 14.757812 53.550781 13.839844 51.757812 13.839844 50.019531 C 13.839844 47.828125 15.28125 45.691406 17.816406 45.117188 C 17.46875 43.675781 17.097656 42.207031 16.675781 40.765625 C 14.011719 43.773438 11.375 46.808594 11.375 50.789062 Z M 17.867188 58.003906 C 13.191406 58.003906 9.585938 53.722656 9.585938 48.699219 C 9.585938 44.296875 12.84375 41.089844 15.753906 37.730469 C 15.28125 36.1875 14.832031 34.621094 14.632812 33.003906 C 14.484375 31.710938 14.460938 30.417969 14.460938 29.125 C 14.460938 26.265625 15.828125 23.554688 18.167969 21.863281 C 18.316406 21.738281 18.515625 21.738281 18.664062 21.863281 C 20.429688 23.953125 21.972656 27.957031 21.972656 30.765625 C 21.972656 34.324219 19.832031 37.109375 17.496094 39.820312 C 18.015625 41.511719 18.464844 43.253906 18.886719 44.96875 C 18.988281 44.96875 19.113281 44.945312 19.210938 44.945312 C 23.066406 44.945312 25.578125 48.128906 25.578125 51.4375 C 25.578125 53.328125 24.757812 55.265625 22.917969 56.660156 C 22.371094 57.082031 21.746094 57.355469 21.101562 57.554688 C 21.175781 58.425781 21.226562 59.296875 21.226562 60.167969 C 21.226562 60.640625 21.199219 61.136719 21.175781 61.609375 C 21 64.570312 18.988281 67.207031 16.152344 67.28125 L 16.175781 66.210938 C 18.488281 66.160156 19.980469 63.921875 20.132812 61.460938 C 20.15625 61.011719 20.179688 60.539062 20.179688 60.089844 C 20.179688 59.320312 20.15625 58.574219 20.082031 57.804688 C 19.359375 57.925781 18.640625 58.003906 17.867188 58.003906 Z M 20.179688 28.703125 C 20.179688 27.335938 20.082031 26.738281 19.683594 25.492188 C 17.222656 26.6875 15.652344 29.199219 15.652344 31.9375 C 15.652344 33.777344 16.101562 35.242188 16.550781 36.761719 C 18.539062 34.347656 20.179688 31.835938 20.179688 28.703125 Z M 20.179688 28.703125 "/>
<path style=" stroke:none;fill-rule:nonzero;fill:rgb(0%,0%,0%);fill-opacity:1;" d="M 46.046875 4.574219 C 47.417969 4.574219 48.734375 5.273438 48.734375 6.789062 C 48.734375 8.554688 47.367188 9.800781 46.199219 10.496094 C 45.328125 11.019531 44.332031 11.339844 43.3125 11.339844 C 41.945312 11.339844 40.625 10.644531 40.625 9.128906 C 40.625 7.363281 41.996094 6.117188 43.164062 5.421875 C 44.035156 4.898438 45.027344 4.574219 46.046875 4.574219 Z M 46.046875 4.574219 "/>
<path style=" stroke:none;fill-rule:nonzero;fill:rgb(0%,0%,0%);fill-opacity:1;" d="M 46.046875 10.792969 C 47.417969 10.792969 48.734375 11.492188 48.734375 13.007812 C 48.734375 14.773438 47.367188 16.015625 46.199219 16.714844 C 45.328125 17.234375 44.332031 17.558594 43.3125 17.558594 C 41.945312 17.558594 40.625 16.863281 40.625 15.347656 C 40.625 13.578125 41.996094 12.335938 43.164062 11.640625 C 44.035156 11.117188 45.027344 10.792969 46.046875 10.792969 Z M 46.046875 10.792969 "/>
<path style=" stroke:none;fill-rule:nonzero;fill:rgb(0%,0%,0%);fill-opacity:1;" d="M 46.046875 17.011719 C 47.417969 17.011719 48.734375 17.707031 48.734375 19.226562 C 48.734375 20.992188 47.367188 22.234375 46.199219 22.933594 C 45.328125 23.453125 44.332031 23.777344 43.3125 23.777344 C 41.945312 23.777344 40.625 23.082031 40.625 21.5625 C 40.625 19.796875 41.996094 18.554688 43.164062 17.859375 C 44.035156 17.335938 45.027344 17.011719 46.046875 17.011719 Z M 46.046875 17.011719 "/>
<path style=" stroke:none;fill-rule:nonzero;fill:rgb(0%,0%,0%);fill-opacity:1;" d="M 46.046875 23.230469 C 47.417969 23.230469 48.734375 23.925781 48.734375 25.445312 C 48.734375 27.210938 47.367188 28.453125 46.199219 29.148438 C 45.328125 29.671875 44.332031 29.996094 43.3125 29.996094 C 41.945312 29.996094 40.625 29.300781 40.625 27.78125 C 40.625 26.015625 41.996094 24.773438 43.164062 24.074219 C 44.035156 23.554688 45.027344 23.230469 46.046875 23.230469 Z M 46.046875 23.230469 "/>
</g>
</svg>
