<?xml version="1.0" encoding="UTF-8"?>
<svg xmlns="http://www.w3.org/2000/svg" xmlns:xlink="http://www.w3.org/1999/xlink" width="88.470722pt" height="78.27079pt" viewBox="0 0 88.470722 78.27079" version="1.1">
<g id="surface1">
<path style="fill:none;stroke-width:0.1;stroke-linecap:round;stroke-linejoin:round;stroke:rgb(0%,0%,0%);stroke-opacity:1;stroke-miterlimit:4;" d="M 0.049863 -0.000287501 L 11.763307 -0.000287501 " transform="matrix(6.218149,0,0,6.218149,4.561038,40.517413)"/>
<path style="fill:none;stroke-width:0.1;stroke-linecap:round;stroke-linejoin:round;stroke:rgb(0%,0%,0%);stroke-opacity:1;stroke-miterlimit:4;" d="M 0.049863 0.000244052 L 11.763307 0.000244052 " transform="matrix(6.218149,0,0,6.218149,4.561038,34.299264)"/>
<path style="fill:none;stroke-width:0.1;stroke-linecap:round;stroke-linejoin:round;stroke:rgb(0%,0%,0%);stroke-opacity:1;stroke-miterlimit:4;" d="M 0.049863 0.000147403 L 11.763307 0.000147403 " transform="matrix(6.218149,0,0,6.218149,4.561038,28.081115)"/>
<path style="fill:none;stroke-width:0.1;stroke-linecap:round;stroke-linejoin:round;stroke:rgb(0%,0%,0%);stroke-opacity:1;stroke-miterlimit:4;" d="M 0.049863 0.0000507548 L 11.763307 0.0000507548 " transform="matrix(6.218149,0,0,6.218149,4.561038,21.862966)"/>
<path style="fill:none;stroke-width:0.1;stroke-linecap:round;stroke-linejoin:round;stroke:rgb(0%,0%,0%);stroke-opacity:1;stroke-miterlimit:4;" d="M 0.049863 -0.0000458938 L 11.763307 -0.0000458938 " transform="matrix(6.218149,0,0,6.218149,4.561038,15.644817)"/>
<path style=" stroke:none;fill-rule:nonzero;fill:rgb(0%,0%,0%);fill-opacity:1;" d="M 57.945312 46.113281 L 68.863281 46.113281 C 69.207031 46.113281 69.488281 46.390625 69.488281 46.734375 C 69.488281 47.078125 69.207031 47.355469 68.863281 47.355469 L 57.945312 47.355469 C 57.601562 47.355469 57.320312 47.078125 57.320312 46.734375 C 57.320312 46.390625 57.601562 46.113281 57.945312 46.113281 Z M 57.945312 46.113281 "/>
<path style=" stroke:none;fill-rule:nonzero;fill:rgb(0%,0%,0%);fill-opacity:1;" d="M 57.945312 52.332031 L 68.863281 52.332031 C 69.207031 52.332031 69.488281 52.609375 69.488281 52.953125 C 69.488281 53.296875 69.207031 53.574219 68.863281 53.574219 L 57.945312 53.574219 C 57.601562 53.574219 57.320312 53.296875 57.320312 52.953125 C 57.320312 52.609375 57.601562 52.332031 57.945312 52.332031 Z M 57.945312 52.332031 "/>
<path style=" stroke:none;fill-rule:nonzero;fill:rgb(0%,0%,0%);fill-opacity:1;" d="M 57.945312 58.550781 L 68.863281 58.550781 C 69.207031 58.550781 69.488281 58.828125 69.488281 59.171875 C 69.488281 59.515625 69.207031 59.792969 68.863281 59.792969 L 57.945312 59.792969 C 57.601562 59.792969 57.320312 59.515625 57.320312 59.171875 C 57.320312 58.828125 57.601562 58.550781 57.945312 58.550781 Z M 57.945312 58.550781 "/>
<path style=" stroke:none;fill-rule:nonzero;fill:rgb(0%,0%,0%);fill-opacity:1;" d="M 66.898438 21.863281 L 67.210938 21.863281 C 67.347656 21.863281 67.457031 21.972656 67.457031 22.113281 L 67.457031 57.765625 C 67.457031 57.902344 67.347656 58.015625 67.210938 58.015625 L 66.898438 58.015625 C 66.761719 58.015625 66.652344 57.902344 66.652344 57.765625 L 66.652344 22.113281 C 66.652344 21.972656 66.761719 21.863281 66.898438 21.863281 Z M 66.898438 21.863281 "/>
<path style=" stroke:none;fill-rule:nonzero;fill:rgb(0%,0%,0%);fill-opacity:1;" d="M 55.707031 51.386719 C 55.707031 51.636719 55.507812 51.859375 55.257812 51.859375 C 55.007812 51.859375 54.785156 51.636719 54.785156 51.386719 L 54.785156 47.78125 L 52.71875 48.550781 L 52.71875 52.480469 C 52.71875 52.730469 52.496094 52.953125 52.246094 52.953125 C 52 52.953125 51.800781 52.730469 51.800781 52.480469 L 51.800781 48.875 L 51.003906 49.171875 C 50.953125 49.199219 50.878906 49.199219 50.832031 49.199219 C 50.558594 49.199219 50.332031 48.972656 50.332031 48.699219 L 50.332031 47.207031 C 50.332031 47.007812 50.457031 46.808594 50.65625 46.734375 L 51.800781 46.335938 L 51.800781 42.359375 L 51.003906 42.632812 C 50.953125 42.65625 50.878906 42.65625 50.832031 42.65625 C 50.558594 42.65625 50.332031 42.433594 50.332031 42.160156 L 50.332031 40.667969 C 50.332031 40.46875 50.457031 40.292969 50.65625 40.21875 L 51.800781 39.796875 L 51.800781 35.867188 C 51.800781 35.617188 52 35.394531 52.246094 35.394531 C 52.496094 35.394531 52.71875 35.617188 52.71875 35.867188 L 52.71875 39.472656 L 54.785156 38.703125 L 54.785156 34.773438 C 54.785156 34.523438 55.007812 34.300781 55.257812 34.300781 C 55.507812 34.300781 55.707031 34.523438 55.707031 34.773438 L 55.707031 38.378906 L 56.5 38.078125 C 56.550781 38.054688 56.625 38.054688 56.675781 38.054688 C 56.949219 38.054688 57.171875 38.277344 57.171875 38.550781 L 57.171875 40.042969 C 57.171875 40.242188 57.046875 40.441406 56.847656 40.515625 L 55.707031 40.914062 L 55.707031 44.894531 L 56.5 44.621094 C 56.550781 44.597656 56.625 44.597656 56.675781 44.597656 C 56.949219 44.597656 57.171875 44.820312 57.171875 45.09375 L 57.171875 46.585938 C 57.171875 46.785156 57.046875 46.960938 56.847656 47.035156 L 55.707031 47.457031 Z M 52.71875 42.011719 L 52.71875 45.988281 L 54.785156 45.242188 L 54.785156 41.261719 Z M 52.71875 42.011719 "/>
<path style=" stroke:none;fill-rule:nonzero;fill:rgb(0%,0%,0%);fill-opacity:1;" d="M 42.671875 54.496094 C 42.671875 54.746094 42.472656 54.96875 42.222656 54.96875 C 41.976562 54.96875 41.75 54.746094 41.75 54.496094 L 41.75 50.890625 L 39.6875 51.660156 L 39.6875 55.589844 C 39.6875 55.839844 39.464844 56.0625 39.214844 56.0625 C 38.964844 56.0625 38.765625 55.839844 38.765625 55.589844 L 38.765625 51.984375 L 37.972656 52.28125 C 37.921875 52.308594 37.847656 52.308594 37.796875 52.308594 C 37.523438 52.308594 37.300781 52.082031 37.300781 51.808594 L 37.300781 50.316406 C 37.300781 50.117188 37.425781 49.917969 37.621094 49.84375 L 38.765625 49.445312 L 38.765625 45.46875 L 37.972656 45.742188 C 37.921875 45.765625 37.847656 45.765625 37.796875 45.765625 C 37.523438 45.765625 37.300781 45.542969 37.300781 45.269531 L 37.300781 43.777344 C 37.300781 43.578125 37.425781 43.402344 37.621094 43.328125 L 38.765625 42.90625 L 38.765625 38.976562 C 38.765625 38.726562 38.964844 38.503906 39.214844 38.503906 C 39.464844 38.503906 39.6875 38.726562 39.6875 38.976562 L 39.6875 42.582031 L 41.75 41.8125 L 41.75 37.882812 C 41.75 37.632812 41.976562 37.410156 42.222656 37.410156 C 42.472656 37.410156 42.671875 37.632812 42.671875 37.882812 L 42.671875 41.488281 L 43.46875 41.1875 C 43.519531 41.164062 43.59375 41.164062 43.640625 41.164062 C 43.914062 41.164062 44.140625 41.386719 44.140625 41.660156 L 44.140625 43.152344 C 44.140625 43.351562 44.015625 43.550781 43.816406 43.625 L 42.671875 44.023438 L 42.671875 48.003906 L 43.46875 47.730469 C 43.519531 47.707031 43.59375 47.707031 43.640625 47.707031 C 43.914062 47.707031 44.140625 47.929688 44.140625 48.203125 L 44.140625 49.695312 C 44.140625 49.894531 44.015625 50.070312 43.816406 50.144531 L 42.671875 50.566406 Z M 39.6875 45.117188 L 39.6875 49.097656 L 41.75 48.351562 L 41.75 44.371094 Z M 39.6875 45.117188 "/>
<path style=" stroke:none;fill-rule:nonzero;fill:rgb(0%,0%,0%);fill-opacity:1;" d="M 34.589844 60.714844 C 34.589844 60.960938 34.390625 61.1875 34.140625 61.1875 C 33.890625 61.1875 33.667969 60.960938 33.667969 60.714844 L 33.667969 57.109375 L 31.605469 57.878906 L 31.605469 61.808594 C 31.605469 62.058594 31.378906 62.28125 31.132812 62.28125 C 30.882812 62.28125 30.683594 62.058594 30.683594 61.808594 L 30.683594 58.203125 L 29.886719 58.5 C 29.835938 58.523438 29.761719 58.523438 29.714844 58.523438 C 29.441406 58.523438 29.214844 58.300781 29.214844 58.027344 L 29.214844 56.535156 C 29.214844 56.335938 29.339844 56.136719 29.539062 56.0625 L 30.683594 55.664062 L 30.683594 51.683594 L 29.886719 51.957031 C 29.835938 51.984375 29.761719 51.984375 29.714844 51.984375 C 29.441406 51.984375 29.214844 51.761719 29.214844 51.484375 L 29.214844 49.992188 C 29.214844 49.792969 29.339844 49.621094 29.539062 49.546875 L 30.683594 49.125 L 30.683594 45.195312 C 30.683594 44.945312 30.882812 44.722656 31.132812 44.722656 C 31.378906 44.722656 31.605469 44.945312 31.605469 45.195312 L 31.605469 48.800781 L 33.667969 48.027344 L 33.667969 44.097656 C 33.667969 43.851562 33.890625 43.625 34.140625 43.625 C 34.390625 43.625 34.589844 43.851562 34.589844 44.097656 L 34.589844 47.707031 L 35.382812 47.40625 C 35.433594 47.382812 35.507812 47.382812 35.558594 47.382812 C 35.832031 47.382812 36.054688 47.605469 36.054688 47.878906 L 36.054688 49.371094 C 36.054688 49.570312 35.929688 49.769531 35.734375 49.84375 L 34.589844 50.242188 L 34.589844 54.222656 L 35.382812 53.949219 C 35.433594 53.921875 35.507812 53.921875 35.558594 53.921875 C 35.832031 53.921875 36.054688 54.148438 36.054688 54.421875 L 36.054688 55.914062 C 36.054688 56.113281 35.929688 56.285156 35.734375 56.359375 L 34.589844 56.785156 Z M 31.605469 51.335938 L 31.605469 55.316406 L 33.667969 54.570312 L 33.667969 50.589844 Z M 31.605469 51.335938 "/>
<path style=" stroke:none;fill-rule:nonzero;fill:rgb(0%,0%,0%);fill-opacity:1;" d="M 49.113281 66.933594 C 49.113281 67.179688 48.914062 67.40625 48.667969 67.40625 C 48.417969 67.40625 48.195312 67.179688 48.195312 66.933594 L 48.195312 63.324219 L 46.128906 64.097656 L 46.128906 68.027344 C 46.128906 68.273438 45.90625 68.5 45.65625 68.5 C 45.40625 68.5 45.210938 68.273438 45.210938 68.027344 L 45.210938 64.421875 L 44.414062 64.71875 C 44.363281 64.742188 44.289062 64.742188 44.238281 64.742188 C 43.964844 64.742188 43.742188 64.519531 43.742188 64.246094 L 43.742188 62.753906 C 43.742188 62.554688 43.867188 62.355469 44.066406 62.28125 L 45.210938 61.882812 L 45.210938 57.902344 L 44.414062 58.175781 C 44.363281 58.203125 44.289062 58.203125 44.238281 58.203125 C 43.964844 58.203125 43.742188 57.976562 43.742188 57.703125 L 43.742188 56.210938 C 43.742188 56.011719 43.867188 55.839844 44.066406 55.765625 L 45.210938 55.339844 L 45.210938 51.410156 C 45.210938 51.164062 45.40625 50.9375 45.65625 50.9375 C 45.90625 50.9375 46.128906 51.164062 46.128906 51.410156 L 46.128906 55.019531 L 48.195312 54.246094 L 48.195312 50.316406 C 48.195312 50.070312 48.417969 49.84375 48.667969 49.84375 C 48.914062 49.84375 49.113281 50.070312 49.113281 50.316406 L 49.113281 53.921875 L 49.910156 53.625 C 49.960938 53.601562 50.035156 53.601562 50.085938 53.601562 C 50.359375 53.601562 50.582031 53.824219 50.582031 54.097656 L 50.582031 55.589844 C 50.582031 55.789062 50.457031 55.988281 50.257812 56.0625 L 49.113281 56.460938 L 49.113281 60.441406 L 49.910156 60.167969 C 49.960938 60.140625 50.035156 60.140625 50.085938 60.140625 C 50.359375 60.140625 50.582031 60.367188 50.582031 60.640625 L 50.582031 62.132812 C 50.582031 62.332031 50.457031 62.503906 50.257812 62.578125 L 49.113281 63.003906 Z M 46.128906 57.554688 L 46.128906 61.535156 L 48.195312 60.789062 L 48.195312 56.808594 Z M 46.128906 57.554688 "/>
<path style=" stroke:none;fill-rule:nonzero;fill:rgb(0%,0%,0%);fill-opacity:1;" d="M 16.152344 50.09375 L 16.003906 50.09375 C 13.316406 50.09375 11.152344 47.90625 11.152344 45.195312 C 11.152344 43.75 12.46875 42.632812 13.9375 42.632812 C 15.28125 42.632812 16.300781 43.800781 16.300781 45.195312 C 16.300781 46.488281 15.230469 47.554688 13.9375 47.554688 C 13.664062 47.554688 13.414062 47.507812 13.167969 47.40625 C 13.8125 48.378906 14.859375 49.023438 16.078125 49.023438 L 16.175781 49.023438 Z M 21 39.347656 C 22.691406 38.75 23.8125 36.984375 23.8125 35.269531 C 23.8125 33.03125 22.171875 30.816406 19.507812 30.542969 C 20.105469 33.429688 20.652344 36.289062 21 39.347656 Z M 11.375 33.601562 C 11.375 36.960938 14.585938 39.746094 17.941406 39.746094 C 18.640625 39.746094 19.308594 39.695312 19.980469 39.597656 C 19.632812 36.4375 19.0625 33.503906 18.414062 30.542969 C 16.449219 30.742188 15.332031 32.0625 15.332031 33.503906 C 15.332031 34.597656 15.953125 35.765625 17.34375 36.5625 C 17.46875 36.6875 17.519531 36.8125 17.519531 36.9375 C 17.519531 37.210938 17.269531 37.484375 16.972656 37.484375 C 16.898438 37.484375 16.824219 37.457031 16.75 37.433594 C 14.757812 36.363281 13.839844 34.574219 13.839844 32.832031 C 13.839844 30.644531 15.28125 28.503906 17.816406 27.933594 C 17.46875 26.488281 17.097656 25.023438 16.675781 23.578125 C 14.011719 26.589844 11.375 29.625 11.375 33.601562 Z M 17.867188 40.816406 C 13.191406 40.816406 9.585938 36.539062 9.585938 31.511719 C 9.585938 27.109375 12.84375 23.902344 15.753906 20.542969 C 15.28125 19.003906 14.832031 17.4375 14.632812 15.820312 C 14.484375 14.527344 14.460938 13.230469 14.460938 11.9375 C 14.460938 9.078125 15.828125 6.367188 18.167969 4.675781 C 18.316406 4.550781 18.515625 4.550781 18.664062 4.675781 C 20.429688 6.765625 21.972656 10.769531 21.972656 13.582031 C 21.972656 17.136719 19.832031 19.921875 17.496094 22.632812 C 18.015625 24.324219 18.464844 26.066406 18.886719 27.78125 C 18.988281 27.78125 19.113281 27.757812 19.210938 27.757812 C 23.066406 27.757812 25.578125 30.941406 25.578125 34.25 C 25.578125 36.140625 24.757812 38.078125 22.917969 39.472656 C 22.371094 39.894531 21.746094 40.167969 21.101562 40.367188 C 21.175781 41.238281 21.226562 42.109375 21.226562 42.980469 C 21.226562 43.453125 21.199219 43.949219 21.175781 44.421875 C 21 47.382812 18.988281 50.019531 16.152344 50.09375 L 16.175781 49.023438 C 18.488281 48.972656 19.980469 46.734375 20.132812 44.273438 C 20.15625 43.824219 20.179688 43.351562 20.179688 42.90625 C 20.179688 42.132812 20.15625 41.386719 20.082031 40.617188 C 19.359375 40.742188 18.640625 40.816406 17.867188 40.816406 Z M 20.179688 11.515625 C 20.179688 10.148438 20.082031 9.550781 19.683594 8.308594 C 17.222656 9.5 15.652344 12.011719 15.652344 14.75 C 15.652344 16.589844 16.101562 18.058594 16.550781 19.574219 C 18.539062 17.160156 20.179688 14.648438 20.179688 11.515625 Z M 20.179688 11.515625 "/>
<path style=" stroke:none;fill-rule:nonzero;fill:rgb(0%,0%,0%);fill-opacity:1;" d="M 72.476562 40.242188 C 73.84375 40.242188 75.164062 40.941406 75.164062 42.457031 C 75.164062 44.222656 73.796875 45.46875 72.625 46.164062 C 71.753906 46.6875 70.761719 47.007812 69.742188 47.007812 C 68.371094 47.007812 67.054688 46.3125 67.054688 44.796875 C 67.054688 43.03125 68.421875 41.785156 69.589844 41.089844 C 70.460938 40.566406 71.457031 40.242188 72.476562 40.242188 Z M 72.476562 40.242188 "/>
<path style=" stroke:none;fill-rule:nonzero;fill:rgb(0%,0%,0%);fill-opacity:1;" d="M 64.769531 43.351562 C 66.140625 43.351562 67.457031 44.050781 67.457031 45.566406 C 67.457031 47.332031 66.089844 48.574219 64.921875 49.273438 C 64.050781 49.792969 63.054688 50.117188 62.035156 50.117188 C 60.667969 50.117188 59.347656 49.421875 59.347656 47.90625 C 59.347656 46.136719 60.71875 44.894531 61.886719 44.199219 C 62.757812 43.675781 63.75 43.351562 64.769531 43.351562 Z M 64.769531 43.351562 "/>
<path style=" stroke:none;fill-rule:nonzero;fill:rgb(0%,0%,0%);fill-opacity:1;" d="M 64.769531 49.570312 C 66.140625 49.570312 67.457031 50.265625 67.457031 51.785156 C 67.457031 53.550781 66.089844 54.792969 64.921875 55.492188 C 64.050781 56.011719 63.054688 56.335938 62.035156 56.335938 C 60.667969 56.335938 59.347656 55.640625 59.347656 54.121094 C 59.347656 52.355469 60.71875 51.113281 61.886719 50.417969 C 62.757812 49.894531 63.75 49.570312 64.769531 49.570312 Z M 64.769531 49.570312 "/>
<path style=" stroke:none;fill-rule:nonzero;fill:rgb(0%,0%,0%);fill-opacity:1;" d="M 64.769531 55.789062 C 66.140625 55.789062 67.457031 56.484375 67.457031 58.003906 C 67.457031 59.769531 66.089844 61.011719 64.921875 61.707031 C 64.050781 62.230469 63.054688 62.554688 62.035156 62.554688 C 60.667969 62.554688 59.347656 61.859375 59.347656 60.339844 C 59.347656 58.574219 60.71875 57.332031 61.886719 56.636719 C 62.757812 56.113281 63.75 55.789062 64.769531 55.789062 Z M 64.769531 55.789062 "/>
</g>
</svg>
