<?xml version="1.0" encoding="UTF-8"?>
<svg xmlns="http://www.w3.org/2000/svg" xmlns:xlink="http://www.w3.org/1999/xlink" width="80.102086pt" height="75.753558pt" viewBox="0 0 80.102086 75.753558" version="1.1">
<g id="surface1">
<path style="fill:none;stroke-width:0.1;stroke-linecap:round;stroke-linejoin:round;stroke:rgb(0%,0%,0%);stroke-opacity:1;stroke-miterlimit:4;" d="M 0.049863 -0.000242111 L 10.503135 -0.000242111 " transform="matrix(6.218149,0,0,6.218149,4.561038,56.560099)"/>
<path style="fill:none;stroke-width:0.1;stroke-linecap:round;stroke-linejoin:round;stroke:rgb(0%,0%,0%);stroke-opacity:1;stroke-miterlimit:4;" d="M 0.049863 0.000289441 L 10.503135 0.000289441 " transform="matrix(6.218149,0,0,6.218149,4.561038,50.34195)"/>
<path style="fill:none;stroke-width:0.1;stroke-linecap:round;stroke-linejoin:round;stroke:rgb(0%,0%,0%);stroke-opacity:1;stroke-miterlimit:4;" d="M 0.049863 0.000192316 L 10.503135 0.000192316 " transform="matrix(6.218149,0,0,6.218149,4.561038,44.123804)"/>
<path style="fill:none;stroke-width:0.1;stroke-linecap:round;stroke-linejoin:round;stroke:rgb(0%,0%,0%);stroke-opacity:1;stroke-miterlimit:4;" d="M 0.049863 0.0000956673 L 10.503135 0.0000956673 " transform="matrix(6.218149,0,0,6.218149,4.561038,37.905655)"/>
<path style="fill:none;stroke-width:0.1;stroke-linecap:round;stroke-linejoin:round;stroke:rgb(0%,0%,0%);stroke-opacity:1;stroke-miterlimit:4;" d="M 0.049863 -0.000000981293 L 10.503135 -0.000000981293 " transform="matrix(6.218149,0,0,6.218149,4.561038,31.687506)"/>
<path style=" stroke:none;fill-rule:nonzero;fill:rgb(0%,0%,0%);fill-opacity:1;" d="M 51.046875 18.628906 L 61.03125 18.628906 C 61.375 18.628906 61.652344 18.90625 61.652344 19.25 C 61.652344 19.59375 61.375 19.871094 61.03125 19.871094 L 51.046875 19.871094 C 50.703125 19.871094 50.425781 19.59375 50.425781 19.25 C 50.425781 18.90625 50.703125 18.628906 51.046875 18.628906 Z M 51.046875 18.628906 "/>
<path style=" stroke:none;fill-rule:nonzero;fill:rgb(0%,0%,0%);fill-opacity:1;" d="M 50.109375 24.847656 L 61.03125 24.847656 C 61.375 24.847656 61.652344 25.125 61.652344 25.46875 C 61.652344 25.8125 61.375 26.089844 61.03125 26.089844 L 50.109375 26.089844 C 49.765625 26.089844 49.488281 25.8125 49.488281 25.46875 C 49.488281 25.125 49.765625 24.847656 50.109375 24.847656 Z M 50.109375 24.847656 "/>
<path style=" stroke:none;fill-rule:nonzero;fill:rgb(0%,0%,0%);fill-opacity:1;" d="M 51.761719 17.300781 L 52.074219 17.300781 C 52.210938 17.300781 52.324219 17.410156 52.324219 17.546875 L 52.324219 50.09375 C 52.324219 50.230469 52.210938 50.34375 52.074219 50.34375 L 51.761719 50.34375 C 51.625 50.34375 51.515625 50.230469 51.515625 50.09375 L 51.515625 17.546875 C 51.515625 17.410156 51.625 17.300781 51.761719 17.300781 Z M 51.761719 17.300781 "/>
<path style=" stroke:none;fill-rule:nonzero;fill:rgb(0%,0%,0%);fill-opacity:1;" d="M 45.035156 15.121094 L 45.011719 16.765625 L 45.011719 17.039062 C 45.011719 17.585938 45.035156 18.132812 45.109375 18.679688 C 46.230469 17.734375 47.421875 16.6875 47.421875 15.222656 C 47.421875 14.402344 47.074219 13.554688 46.351562 13.554688 C 45.582031 13.554688 45.058594 14.300781 45.035156 15.121094 Z M 43.992188 19.574219 L 43.691406 4.773438 C 43.890625 4.652344 44.140625 4.578125 44.363281 4.578125 C 44.585938 4.578125 44.835938 4.652344 45.035156 4.773438 L 44.859375 13.355469 C 45.484375 12.835938 46.304688 12.511719 47.125 12.511719 C 48.417969 12.511719 49.339844 13.703125 49.339844 15.046875 C 49.339844 17.039062 47.199219 17.957031 45.683594 19.25 C 45.308594 19.574219 45.085938 20.195312 44.5625 20.195312 C 44.238281 20.195312 43.992188 19.921875 43.992188 19.574219 Z M 43.992188 19.574219 "/>
<path style=" stroke:none;fill-rule:nonzero;fill:rgb(0%,0%,0%);fill-opacity:1;" d="M 34.6875 21.339844 L 34.664062 22.980469 C 34.664062 23.082031 34.636719 23.15625 34.636719 23.253906 C 34.636719 23.804688 34.664062 24.351562 34.738281 24.898438 C 35.832031 23.976562 36.902344 22.859375 36.902344 21.441406 C 36.902344 20.621094 36.628906 19.773438 35.90625 19.773438 C 35.160156 19.773438 34.710938 20.519531 34.6875 21.339844 Z M 34.664062 10.992188 L 34.515625 19.574219 C 35.109375 19.050781 35.882812 18.730469 36.679688 18.730469 C 37.996094 18.730469 38.964844 19.898438 38.964844 21.242188 C 38.964844 23.230469 36.828125 24.175781 35.308594 25.46875 C 34.9375 25.792969 34.738281 26.414062 34.214844 26.414062 C 33.890625 26.414062 33.617188 26.140625 33.617188 25.792969 L 33.570312 23.15625 C 32.898438 24 31.925781 24.699219 31.132812 25.46875 C 30.808594 25.792969 30.660156 26.414062 30.160156 26.414062 C 29.835938 26.414062 29.589844 26.117188 29.589844 25.769531 L 29.289062 10.992188 C 29.488281 10.871094 29.738281 10.792969 29.960938 10.792969 C 30.1875 10.792969 30.433594 10.871094 30.632812 10.992188 L 30.460938 19.574219 C 30.882812 19.050781 31.527344 18.730469 32.199219 18.730469 C 32.699219 18.730469 33.144531 18.929688 33.492188 19.25 L 33.320312 10.992188 C 33.519531 10.871094 33.769531 10.792969 33.992188 10.792969 C 34.214844 10.792969 34.464844 10.871094 34.664062 10.992188 Z M 30.386719 23.007812 L 30.386719 23.253906 C 30.386719 23.828125 30.410156 24.375 30.484375 24.945312 C 31.453125 24 32.25 22.808594 32.25 21.441406 C 32.25 20.644531 32.101562 19.773438 31.429688 19.773438 C 30.757812 19.773438 30.460938 20.542969 30.433594 21.316406 Z M 30.386719 23.007812 "/>
<path style=" stroke:none;fill-rule:nonzero;fill:rgb(0%,0%,0%);fill-opacity:1;" d="M 41.554688 27.558594 L 41.527344 29.199219 L 41.527344 29.472656 C 41.527344 30.019531 41.554688 30.566406 41.628906 31.117188 C 42.746094 30.171875 43.941406 29.125 43.941406 27.65625 C 43.941406 26.835938 43.59375 25.992188 42.871094 25.992188 C 42.101562 25.992188 41.578125 26.738281 41.554688 27.558594 Z M 40.507812 32.011719 L 40.210938 17.210938 C 40.410156 17.085938 40.65625 17.011719 40.882812 17.011719 C 41.105469 17.011719 41.355469 17.085938 41.554688 17.210938 L 41.378906 25.792969 C 42 25.269531 42.820312 24.945312 43.640625 24.945312 C 44.933594 24.945312 45.855469 26.140625 45.855469 27.484375 C 45.855469 29.472656 43.714844 30.394531 42.199219 31.6875 C 41.828125 32.011719 41.601562 32.632812 41.082031 32.632812 C 40.757812 32.632812 40.507812 32.359375 40.507812 32.011719 Z M 40.507812 32.011719 "/>
<path style=" stroke:none;fill-rule:nonzero;fill:rgb(0%,0%,0%);fill-opacity:1;" d="M 16.152344 66.136719 L 16.003906 66.136719 C 13.316406 66.136719 11.152344 63.945312 11.152344 61.234375 C 11.152344 59.792969 12.46875 58.675781 13.9375 58.675781 C 15.28125 58.675781 16.300781 59.84375 16.300781 61.234375 C 16.300781 62.53125 15.230469 63.597656 13.9375 63.597656 C 13.664062 63.597656 13.414062 63.550781 13.167969 63.449219 C 13.8125 64.417969 14.859375 65.066406 16.078125 65.066406 L 16.175781 65.066406 Z M 21 55.390625 C 22.691406 54.792969 23.8125 53.027344 23.8125 51.3125 C 23.8125 49.074219 22.171875 46.859375 19.507812 46.585938 C 20.105469 49.472656 20.652344 52.332031 21 55.390625 Z M 11.375 49.644531 C 11.375 53.003906 14.585938 55.789062 17.941406 55.789062 C 18.640625 55.789062 19.308594 55.738281 19.980469 55.640625 C 19.632812 52.480469 19.0625 49.546875 18.414062 46.585938 C 16.449219 46.785156 15.332031 48.101562 15.332031 49.546875 C 15.332031 50.640625 15.953125 51.808594 17.34375 52.605469 C 17.46875 52.730469 17.519531 52.855469 17.519531 52.976562 C 17.519531 53.253906 17.269531 53.527344 16.972656 53.527344 C 16.898438 53.527344 16.824219 53.5 16.75 53.476562 C 14.757812 52.40625 13.839844 50.617188 13.839844 48.875 C 13.839844 46.6875 15.28125 44.546875 17.816406 43.972656 C 17.46875 42.53125 17.097656 41.066406 16.675781 39.621094 C 14.011719 42.632812 11.375 45.664062 11.375 49.644531 Z M 17.867188 56.859375 C 13.191406 56.859375 9.585938 52.582031 9.585938 47.554688 C 9.585938 43.152344 12.84375 39.945312 15.753906 36.585938 C 15.28125 35.046875 14.832031 33.476562 14.632812 31.863281 C 14.484375 30.566406 14.460938 29.273438 14.460938 27.980469 C 14.460938 25.121094 15.828125 22.410156 18.167969 20.71875 C 18.316406 20.59375 18.515625 20.59375 18.664062 20.71875 C 20.429688 22.808594 21.972656 26.8125 21.972656 29.625 C 21.972656 33.179688 19.832031 35.964844 17.496094 38.675781 C 18.015625 40.367188 18.464844 42.109375 18.886719 43.824219 C 18.988281 43.824219 19.113281 43.800781 19.210938 43.800781 C 23.066406 43.800781 25.578125 46.984375 25.578125 50.292969 C 25.578125 52.183594 24.757812 54.121094 22.917969 55.515625 C 22.371094 55.9375 21.746094 56.210938 21.101562 56.410156 C 21.175781 57.28125 21.226562 58.152344 21.226562 59.023438 C 21.226562 59.496094 21.199219 59.992188 21.175781 60.464844 C 21 63.425781 18.988281 66.0625 16.152344 66.136719 L 16.175781 65.066406 C 18.488281 65.015625 19.980469 62.777344 20.132812 60.316406 C 20.15625 59.867188 20.179688 59.394531 20.179688 58.949219 C 20.179688 58.175781 20.15625 57.429688 20.082031 56.660156 C 19.359375 56.785156 18.640625 56.859375 17.867188 56.859375 Z M 20.179688 27.558594 C 20.179688 26.191406 20.082031 25.59375 19.683594 24.351562 C 17.222656 25.542969 15.652344 28.054688 15.652344 30.792969 C 15.652344 32.632812 16.101562 34.101562 16.550781 35.617188 C 18.539062 33.203125 20.179688 30.691406 20.179688 27.558594 Z M 20.179688 27.558594 "/>
<path style=" stroke:none;fill-rule:nonzero;fill:rgb(0%,0%,0%);fill-opacity:1;" d="M 56.9375 12.757812 C 58.304688 12.757812 59.621094 13.457031 59.621094 14.972656 C 59.621094 16.738281 58.253906 17.984375 57.085938 18.679688 C 56.214844 19.203125 55.21875 19.523438 54.199219 19.523438 C 52.832031 19.523438 51.515625 18.828125 51.515625 17.3125 C 51.515625 15.546875 52.882812 14.300781 54.050781 13.605469 C 54.921875 13.082031 55.917969 12.757812 56.9375 12.757812 Z M 56.9375 12.757812 "/>
<path style=" stroke:none;fill-rule:nonzero;fill:rgb(0%,0%,0%);fill-opacity:1;" d="M 56.9375 18.976562 C 58.304688 18.976562 59.621094 19.675781 59.621094 21.191406 C 59.621094 22.957031 58.253906 24.199219 57.085938 24.898438 C 56.214844 25.417969 55.21875 25.742188 54.199219 25.742188 C 52.832031 25.742188 51.515625 25.046875 51.515625 23.527344 C 51.515625 21.761719 52.882812 20.519531 54.050781 19.824219 C 54.921875 19.300781 55.917969 18.976562 56.9375 18.976562 Z M 56.9375 18.976562 "/>
<path style=" stroke:none;fill-rule:nonzero;fill:rgb(0%,0%,0%);fill-opacity:1;" d="M 56.9375 25.195312 C 58.304688 25.195312 59.621094 25.890625 59.621094 27.410156 C 59.621094 29.175781 58.253906 30.417969 57.085938 31.117188 C 56.214844 31.636719 55.21875 31.960938 54.199219 31.960938 C 52.832031 31.960938 51.515625 31.265625 51.515625 29.746094 C 51.515625 27.980469 52.882812 26.738281 54.050781 26.042969 C 54.921875 25.519531 55.917969 25.195312 56.9375 25.195312 Z M 56.9375 25.195312 "/>
</g>
</svg>
