<?xml version="1.0" encoding="UTF-8"?>
<svg xmlns="http://www.w3.org/2000/svg" xmlns:xlink="http://www.w3.org/1999/xlink" width="68.472344pt" height="60.158674pt" viewBox="0 0 68.472344 60.158674" version="1.1">
<g id="surface1">
<path style="fill:none;stroke-width:0.1;stroke-linecap:round;stroke-linejoin:round;stroke:rgb(0%,0%,0%);stroke-opacity:1;stroke-miterlimit:4;" d="M 0.049863 -0.0001075 L 8.752337 -0.0001075 " transform="matrix(6.218149,0,0,6.218149,4.561038,29.434262)"/>
<path style="fill:none;stroke-width:0.1;stroke-linecap:round;stroke-linejoin:round;stroke:rgb(0%,0%,0%);stroke-opacity:1;stroke-miterlimit:4;" d="M 0.049863 -0.000204149 L 8.752337 -0.000204149 " transform="matrix(6.218149,0,0,6.218149,4.561038,23.216113)"/>
<path style="fill:none;stroke-width:0.1;stroke-linecap:round;stroke-linejoin:round;stroke:rgb(0%,0%,0%);stroke-opacity:1;stroke-miterlimit:4;" d="M 0.049863 -0.000300797 L 8.752337 -0.000300797 " transform="matrix(6.218149,0,0,6.218149,4.561038,16.997964)"/>
<path style="fill:none;stroke-width:0.1;stroke-linecap:round;stroke-linejoin:round;stroke:rgb(0%,0%,0%);stroke-opacity:1;stroke-miterlimit:4;" d="M 0.049863 0.000230756 L 8.752337 0.000230756 " transform="matrix(6.218149,0,0,6.218149,4.561038,10.779815)"/>
<path style="fill:none;stroke-width:0.1;stroke-linecap:round;stroke-linejoin:round;stroke:rgb(0%,0%,0%);stroke-opacity:1;stroke-miterlimit:4;" d="M 0.049863 0.000133988 L 8.752337 0.000133988 " transform="matrix(6.218149,0,0,6.218149,4.561038,4.561667)"/>
<path style=" stroke:none;fill-rule:nonzero;fill:rgb(0%,0%,0%);fill-opacity:1;" d="M 39.21875 35.03125 L 50.140625 35.03125 C 50.484375 35.03125 50.761719 35.308594 50.761719 35.652344 C 50.761719 35.996094 50.484375 36.273438 50.140625 36.273438 L 39.21875 36.273438 C 38.878906 36.273438 38.597656 35.996094 38.597656 35.652344 C 38.597656 35.308594 38.878906 35.03125 39.21875 35.03125 Z M 39.21875 35.03125 "/>
<path style=" stroke:none;fill-rule:nonzero;fill:rgb(0%,0%,0%);fill-opacity:1;" d="M 40.160156 41.25 L 50.140625 41.25 C 50.484375 41.25 50.765625 41.527344 50.765625 41.871094 C 50.765625 42.214844 50.484375 42.492188 50.140625 42.492188 L 40.160156 42.492188 C 39.816406 42.492188 39.539062 42.214844 39.539062 41.871094 C 39.539062 41.527344 39.816406 41.25 40.160156 41.25 Z M 40.160156 41.25 "/>
<path style=" stroke:none;fill-rule:nonzero;fill:rgb(0%,0%,0%);fill-opacity:1;" d="M 48.175781 16.996094 L 48.488281 16.996094 C 48.625 16.996094 48.734375 17.109375 48.734375 17.246094 L 48.734375 40.464844 C 48.734375 40.601562 48.625 40.714844 48.488281 40.714844 L 48.175781 40.714844 C 48.039062 40.714844 47.925781 40.601562 47.925781 40.464844 L 47.925781 17.246094 C 47.925781 17.109375 48.039062 16.996094 48.175781 16.996094 Z M 48.175781 16.996094 "/>
<path style=" stroke:none;fill-rule:nonzero;fill:rgb(0%,0%,0%);fill-opacity:1;" d="M 36.984375 49.628906 C 36.984375 49.878906 36.785156 50.101562 36.535156 50.101562 C 36.285156 50.101562 36.0625 49.878906 36.0625 49.628906 L 36.0625 46.023438 L 33.996094 46.796875 L 33.996094 50.726562 C 33.996094 50.972656 33.773438 51.199219 33.523438 51.199219 C 33.277344 51.199219 33.078125 50.972656 33.078125 50.726562 L 33.078125 47.117188 L 32.28125 47.417969 C 32.230469 47.441406 32.15625 47.441406 32.109375 47.441406 C 31.832031 47.441406 31.609375 47.21875 31.609375 46.945312 L 31.609375 45.453125 C 31.609375 45.253906 31.734375 45.054688 31.933594 44.980469 L 33.078125 44.582031 L 33.078125 40.601562 L 32.28125 40.875 C 32.230469 40.902344 32.15625 40.902344 32.109375 40.902344 C 31.832031 40.902344 31.609375 40.675781 31.609375 40.402344 L 31.609375 38.910156 C 31.609375 38.710938 31.734375 38.539062 31.933594 38.464844 L 33.078125 38.039062 L 33.078125 34.109375 C 33.078125 33.863281 33.277344 33.636719 33.523438 33.636719 C 33.773438 33.636719 33.996094 33.863281 33.996094 34.109375 L 33.996094 37.71875 L 36.0625 36.945312 L 36.0625 33.015625 C 36.0625 32.765625 36.285156 32.542969 36.535156 32.542969 C 36.785156 32.542969 36.984375 32.765625 36.984375 33.015625 L 36.984375 36.621094 L 37.777344 36.324219 C 37.828125 36.300781 37.902344 36.300781 37.953125 36.300781 C 38.226562 36.300781 38.449219 36.523438 38.449219 36.796875 L 38.449219 38.289062 C 38.449219 38.488281 38.324219 38.6875 38.125 38.761719 L 36.984375 39.160156 L 36.984375 43.140625 L 37.777344 42.867188 C 37.828125 42.839844 37.902344 42.839844 37.953125 42.839844 C 38.226562 42.839844 38.449219 43.0625 38.449219 43.339844 L 38.449219 44.832031 C 38.449219 45.03125 38.324219 45.203125 38.125 45.277344 L 36.984375 45.699219 Z M 33.996094 40.253906 L 33.996094 44.234375 L 36.0625 43.488281 L 36.0625 39.507812 Z M 33.996094 40.253906 "/>
<path style=" stroke:none;fill-rule:nonzero;fill:rgb(0%,0%,0%);fill-opacity:1;" d="M 23.390625 13.890625 C 23.390625 13.191406 23.960938 12.621094 24.65625 12.621094 C 25.355469 12.621094 25.925781 13.191406 25.925781 13.890625 C 25.925781 14.585938 25.355469 15.15625 24.65625 15.15625 C 23.960938 15.15625 23.390625 14.585938 23.390625 13.890625 Z M 23.390625 7.671875 C 23.390625 6.972656 23.960938 6.402344 24.65625 6.402344 C 25.355469 6.402344 25.925781 6.972656 25.925781 7.671875 C 25.925781 8.367188 25.355469 8.9375 24.65625 8.9375 C 23.960938 8.9375 23.390625 8.367188 23.390625 7.671875 Z M 15.304688 4.238281 C 19.585938 4.238281 22.59375 6.425781 22.59375 10.480469 C 22.59375 17.023438 16.050781 20.777344 9.757812 23.441406 C 9.683594 23.515625 9.609375 23.539062 9.535156 23.539062 C 9.363281 23.539062 9.210938 23.390625 9.210938 23.214844 C 9.210938 23.140625 9.238281 23.066406 9.3125 22.992188 C 14.335938 20.058594 19.558594 16.402344 19.558594 10.730469 C 19.558594 7.746094 17.992188 4.886719 15.304688 4.886719 C 13.464844 4.886719 12.097656 6.226562 11.476562 8.019531 C 11.75 7.894531 12.023438 7.820312 12.320312 7.820312 C 13.6875 7.820312 14.808594 8.9375 14.808594 10.308594 C 14.808594 11.75 13.714844 12.945312 12.320312 12.945312 C 10.828125 12.945312 9.535156 11.773438 9.535156 10.308594 C 9.535156 7 12.074219 4.238281 15.304688 4.238281 Z M 15.304688 4.238281 "/>
<path style=" stroke:none;fill-rule:nonzero;fill:rgb(0%,0%,0%);fill-opacity:1;" d="M 46.046875 38.488281 C 47.417969 38.488281 48.734375 39.183594 48.734375 40.703125 C 48.734375 42.46875 47.367188 43.710938 46.199219 44.40625 C 45.328125 44.929688 44.332031 45.253906 43.3125 45.253906 C 41.945312 45.253906 40.625 44.558594 40.625 43.039062 C 40.625 41.273438 41.996094 40.03125 43.164062 39.332031 C 44.035156 38.8125 45.027344 38.488281 46.046875 38.488281 Z M 46.046875 38.488281 "/>
</g>
</svg>
