<?xml version="1.0" encoding="UTF-8"?>
<svg xmlns="http://www.w3.org/2000/svg" xmlns:xlink="http://www.w3.org/1999/xlink" width="69.224853pt" height="57.77627pt" viewBox="0 0 69.224853 57.77627" version="1.1">
<g id="surface1">
<path style="fill:none;stroke-width:0.1;stroke-linecap:round;stroke-linejoin:round;stroke:rgb(0%,0%,0%);stroke-opacity:1;stroke-miterlimit:4;" d="M 0.049863 0.000143992 L 8.865413 0.000143992 " transform="matrix(6.218149,0,0,6.218149,4.561038,41.01473)"/>
<path style="fill:none;stroke-width:0.1;stroke-linecap:round;stroke-linejoin:round;stroke:rgb(0%,0%,0%);stroke-opacity:1;stroke-miterlimit:4;" d="M 0.049863 0.000047343 L 8.865413 0.000047343 " transform="matrix(6.218149,0,0,6.218149,4.561038,34.796581)"/>
<path style="fill:none;stroke-width:0.1;stroke-linecap:round;stroke-linejoin:round;stroke:rgb(0%,0%,0%);stroke-opacity:1;stroke-miterlimit:4;" d="M 0.049863 -0.0000493056 L 8.865413 -0.0000493056 " transform="matrix(6.218149,0,0,6.218149,4.561038,28.578432)"/>
<path style="fill:none;stroke-width:0.1;stroke-linecap:round;stroke-linejoin:round;stroke:rgb(0%,0%,0%);stroke-opacity:1;stroke-miterlimit:4;" d="M 0.049863 -0.000145716 L 8.865413 -0.000145716 " transform="matrix(6.218149,0,0,6.218149,4.561038,22.360281)"/>
<path style="fill:none;stroke-width:0.1;stroke-linecap:round;stroke-linejoin:round;stroke:rgb(0%,0%,0%);stroke-opacity:1;stroke-miterlimit:4;" d="M 0.049863 -0.000242364 L 8.865413 -0.000242364 " transform="matrix(6.218149,0,0,6.218149,4.561038,16.142132)"/>
<path style=" stroke:none;fill-rule:nonzero;fill:rgb(0%,0%,0%);fill-opacity:1;" d="M 39.925781 9.300781 L 50.847656 9.300781 C 51.191406 9.300781 51.46875 9.582031 51.46875 9.925781 C 51.46875 10.265625 51.191406 10.546875 50.847656 10.546875 L 39.925781 10.546875 C 39.582031 10.546875 39.304688 10.265625 39.304688 9.925781 C 39.304688 9.582031 39.582031 9.300781 39.925781 9.300781 Z M 39.925781 9.300781 "/>
<path style=" stroke:none;fill-rule:nonzero;fill:rgb(0%,0%,0%);fill-opacity:1;" d="M 34.851562 15.121094 L 34.828125 16.765625 L 34.828125 17.039062 C 34.828125 17.585938 34.851562 18.132812 34.925781 18.679688 C 36.046875 17.734375 37.238281 16.6875 37.238281 15.222656 C 37.238281 14.402344 36.890625 13.554688 36.171875 13.554688 C 35.398438 13.554688 34.878906 14.300781 34.851562 15.121094 Z M 33.808594 19.574219 L 33.507812 4.773438 C 33.707031 4.652344 33.957031 4.578125 34.179688 4.578125 C 34.40625 4.578125 34.652344 4.652344 34.851562 4.773438 L 34.679688 13.355469 C 35.300781 12.835938 36.121094 12.511719 36.941406 12.511719 C 38.234375 12.511719 39.15625 13.703125 39.15625 15.046875 C 39.15625 17.039062 37.015625 17.957031 35.5 19.25 C 35.125 19.574219 34.902344 20.195312 34.378906 20.195312 C 34.054688 20.195312 33.808594 19.921875 33.808594 19.574219 Z M 33.808594 19.574219 "/>
<path style=" stroke:none;fill-rule:nonzero;fill:rgb(0%,0%,0%);fill-opacity:1;" d="M 31.371094 27.558594 L 31.34375 29.199219 L 31.34375 29.472656 C 31.34375 30.019531 31.371094 30.566406 31.445312 31.117188 C 32.5625 30.171875 33.757812 29.125 33.757812 27.65625 C 33.757812 26.835938 33.410156 25.992188 32.6875 25.992188 C 31.917969 25.992188 31.394531 26.738281 31.371094 27.558594 Z M 30.324219 32.011719 L 30.027344 17.210938 C 30.226562 17.085938 30.472656 17.011719 30.699219 17.011719 C 30.921875 17.011719 31.171875 17.085938 31.371094 17.210938 L 31.195312 25.792969 C 31.816406 25.269531 32.636719 24.945312 33.460938 24.945312 C 34.753906 24.945312 35.671875 26.140625 35.671875 27.484375 C 35.671875 29.472656 33.535156 30.394531 32.015625 31.6875 C 31.644531 32.011719 31.417969 32.632812 30.898438 32.632812 C 30.574219 32.632812 30.324219 32.359375 30.324219 32.011719 Z M 30.324219 32.011719 "/>
<path style=" stroke:none;fill-rule:nonzero;fill:rgb(0%,0%,0%);fill-opacity:1;" d="M 41.582031 11.082031 L 41.890625 11.082031 C 42.027344 11.082031 42.140625 11.191406 42.140625 11.328125 L 42.140625 49.058594 C 42.140625 49.195312 42.027344 49.304688 41.890625 49.304688 L 41.582031 49.304688 C 41.441406 49.304688 41.332031 49.195312 41.332031 49.058594 L 41.332031 11.328125 C 41.332031 11.191406 41.441406 11.082031 41.582031 11.082031 Z M 41.582031 11.082031 "/>
<path style=" stroke:none;fill-rule:nonzero;fill:rgb(0%,0%,0%);fill-opacity:1;" d="M 23.390625 25.46875 C 23.390625 24.773438 23.960938 24.199219 24.65625 24.199219 C 25.355469 24.199219 25.925781 24.773438 25.925781 25.46875 C 25.925781 26.164062 25.355469 26.738281 24.65625 26.738281 C 23.960938 26.738281 23.390625 26.164062 23.390625 25.46875 Z M 23.390625 19.25 C 23.390625 18.554688 23.960938 17.984375 24.65625 17.984375 C 25.355469 17.984375 25.925781 18.554688 25.925781 19.25 C 25.925781 19.949219 25.355469 20.519531 24.65625 20.519531 C 23.960938 20.519531 23.390625 19.949219 23.390625 19.25 Z M 15.304688 15.820312 C 19.585938 15.820312 22.59375 18.007812 22.59375 22.0625 C 22.59375 28.601562 16.050781 32.359375 9.757812 35.019531 C 9.683594 35.09375 9.609375 35.121094 9.535156 35.121094 C 9.363281 35.121094 9.210938 34.96875 9.210938 34.796875 C 9.210938 34.722656 9.238281 34.648438 9.3125 34.574219 C 14.335938 31.636719 19.558594 27.980469 19.558594 22.308594 C 19.558594 19.324219 17.992188 16.464844 15.304688 16.464844 C 13.464844 16.464844 12.097656 17.808594 11.476562 19.597656 C 11.75 19.476562 12.023438 19.402344 12.320312 19.402344 C 13.6875 19.402344 14.808594 20.519531 14.808594 21.886719 C 14.808594 23.332031 13.714844 24.523438 12.320312 24.523438 C 10.828125 24.523438 9.535156 23.355469 9.535156 21.886719 C 9.535156 18.578125 12.074219 15.820312 15.304688 15.820312 Z M 15.304688 15.820312 "/>
<path style=" stroke:none;fill-rule:nonzero;fill:rgb(0%,0%,0%);fill-opacity:1;" d="M 46.753906 6.542969 C 48.121094 6.542969 49.441406 7.238281 49.441406 8.753906 C 49.441406 10.519531 48.070312 11.765625 46.902344 12.460938 C 46.03125 12.984375 45.039062 13.308594 44.019531 13.308594 C 42.648438 13.308594 41.332031 12.609375 41.332031 11.09375 C 41.332031 9.328125 42.699219 8.082031 43.867188 7.386719 C 44.738281 6.863281 45.734375 6.542969 46.753906 6.542969 Z M 46.753906 6.542969 "/>
<path style=" stroke:none;fill-rule:nonzero;fill:rgb(0%,0%,0%);fill-opacity:1;" d="M 46.753906 12.757812 C 48.121094 12.757812 49.441406 13.457031 49.441406 14.972656 C 49.441406 16.738281 48.070312 17.984375 46.902344 18.679688 C 46.03125 19.203125 45.039062 19.523438 44.019531 19.523438 C 42.648438 19.523438 41.332031 18.828125 41.332031 17.3125 C 41.332031 15.546875 42.699219 14.300781 43.867188 13.605469 C 44.738281 13.082031 45.734375 12.757812 46.753906 12.757812 Z M 46.753906 12.757812 "/>
<path style=" stroke:none;fill-rule:nonzero;fill:rgb(0%,0%,0%);fill-opacity:1;" d="M 46.753906 18.976562 C 48.121094 18.976562 49.441406 19.675781 49.441406 21.191406 C 49.441406 22.957031 48.070312 24.199219 46.902344 24.898438 C 46.03125 25.417969 45.039062 25.742188 44.019531 25.742188 C 42.648438 25.742188 41.332031 25.046875 41.332031 23.527344 C 41.332031 21.761719 42.699219 20.519531 43.867188 19.824219 C 44.738281 19.300781 45.734375 18.976562 46.753906 18.976562 Z M 46.753906 18.976562 "/>
<path style=" stroke:none;fill-rule:nonzero;fill:rgb(0%,0%,0%);fill-opacity:1;" d="M 46.753906 25.195312 C 48.121094 25.195312 49.441406 25.890625 49.441406 27.410156 C 49.441406 29.175781 48.070312 30.417969 46.902344 31.117188 C 46.03125 31.636719 45.039062 31.960938 44.019531 31.960938 C 42.648438 31.960938 41.332031 31.265625 41.332031 29.746094 C 41.332031 27.980469 42.699219 26.738281 43.867188 26.042969 C 44.738281 25.519531 45.734375 25.195312 46.753906 25.195312 Z M 46.753906 25.195312 "/>
</g>
</svg>
