<?xml version="1.0" encoding="UTF-8"?>
<svg xmlns="http://www.w3.org/2000/svg" xmlns:xlink="http://www.w3.org/1999/xlink" width="68.472344pt" height="53.809138pt" viewBox="0 0 68.472344 53.809138" version="1.1">
<g id="surface1">
<path style="fill:none;stroke-width:0.1;stroke-linecap:round;stroke-linejoin:round;stroke:rgb(0%,0%,0%);stroke-opacity:1;stroke-miterlimit:4;" d="M 0.049863 -0.0001075 L 8.752337 -0.0001075 " transform="matrix(6.218149,0,0,6.218149,4.561038,29.434262)"/>
<path style="fill:none;stroke-width:0.1;stroke-linecap:round;stroke-linejoin:round;stroke:rgb(0%,0%,0%);stroke-opacity:1;stroke-miterlimit:4;" d="M 0.049863 -0.000204149 L 8.752337 -0.000204149 " transform="matrix(6.218149,0,0,6.218149,4.561038,23.216113)"/>
<path style="fill:none;stroke-width:0.1;stroke-linecap:round;stroke-linejoin:round;stroke:rgb(0%,0%,0%);stroke-opacity:1;stroke-miterlimit:4;" d="M 0.049863 -0.000300797 L 8.752337 -0.000300797 " transform="matrix(6.218149,0,0,6.218149,4.561038,16.997964)"/>
<path style="fill:none;stroke-width:0.1;stroke-linecap:round;stroke-linejoin:round;stroke:rgb(0%,0%,0%);stroke-opacity:1;stroke-miterlimit:4;" d="M 0.049863 0.000230756 L 8.752337 0.000230756 " transform="matrix(6.218149,0,0,6.218149,4.561038,10.779815)"/>
<path style="fill:none;stroke-width:0.1;stroke-linecap:round;stroke-linejoin:round;stroke:rgb(0%,0%,0%);stroke-opacity:1;stroke-miterlimit:4;" d="M 0.049863 0.000133988 L 8.752337 0.000133988 " transform="matrix(6.218149,0,0,6.218149,4.561038,4.561667)"/>
<path style=" stroke:none;fill-rule:nonzero;fill:rgb(0%,0%,0%);fill-opacity:1;" d="M 39.21875 35.03125 L 50.140625 35.03125 C 50.484375 35.03125 50.761719 35.308594 50.761719 35.652344 C 50.761719 35.996094 50.484375 36.273438 50.140625 36.273438 L 39.21875 36.273438 C 38.878906 36.273438 38.597656 35.996094 38.597656 35.652344 C 38.597656 35.308594 38.878906 35.03125 39.21875 35.03125 Z M 39.21875 35.03125 "/>
<path style=" stroke:none;fill-rule:nonzero;fill:rgb(0%,0%,0%);fill-opacity:1;" d="M 39.21875 41.25 L 50.140625 41.25 C 50.484375 41.25 50.761719 41.527344 50.761719 41.871094 C 50.761719 42.214844 50.484375 42.492188 50.140625 42.492188 L 39.21875 42.492188 C 38.878906 42.492188 38.597656 42.214844 38.597656 41.871094 C 38.597656 41.527344 38.878906 41.25 39.21875 41.25 Z M 39.21875 41.25 "/>
<path style=" stroke:none;fill-rule:nonzero;fill:rgb(0%,0%,0%);fill-opacity:1;" d="M 34.148438 34.632812 L 34.121094 36.273438 L 34.121094 36.546875 C 34.121094 37.09375 34.148438 37.640625 34.222656 38.1875 C 35.339844 37.246094 36.535156 36.199219 36.535156 34.730469 C 36.535156 33.910156 36.1875 33.066406 35.464844 33.066406 C 34.695312 33.066406 34.171875 33.8125 34.148438 34.632812 Z M 33.101562 39.085938 L 32.804688 24.285156 C 33.003906 24.160156 33.25 24.085938 33.476562 24.085938 C 33.699219 24.085938 33.949219 24.160156 34.148438 24.285156 L 33.972656 32.867188 C 34.59375 32.34375 35.414062 32.019531 36.234375 32.019531 C 37.53125 32.019531 38.449219 33.214844 38.449219 34.558594 C 38.449219 36.546875 36.3125 37.46875 34.792969 38.761719 C 34.421875 39.085938 34.195312 39.707031 33.675781 39.707031 C 33.351562 39.707031 33.101562 39.433594 33.101562 39.085938 Z M 33.101562 39.085938 "/>
<path style=" stroke:none;fill-rule:nonzero;fill:rgb(0%,0%,0%);fill-opacity:1;" d="M 48.175781 7.671875 L 48.488281 7.671875 C 48.625 7.671875 48.734375 7.78125 48.734375 7.917969 L 48.734375 40.464844 C 48.734375 40.601562 48.625 40.714844 48.488281 40.714844 L 48.175781 40.714844 C 48.039062 40.714844 47.925781 40.601562 47.925781 40.464844 L 47.925781 7.917969 C 47.925781 7.78125 48.039062 7.671875 48.175781 7.671875 Z M 48.175781 7.671875 "/>
<path style=" stroke:none;fill-rule:nonzero;fill:rgb(0%,0%,0%);fill-opacity:1;" d="M 23.390625 13.890625 C 23.390625 13.191406 23.960938 12.621094 24.65625 12.621094 C 25.355469 12.621094 25.925781 13.191406 25.925781 13.890625 C 25.925781 14.585938 25.355469 15.15625 24.65625 15.15625 C 23.960938 15.15625 23.390625 14.585938 23.390625 13.890625 Z M 23.390625 7.671875 C 23.390625 6.972656 23.960938 6.402344 24.65625 6.402344 C 25.355469 6.402344 25.925781 6.972656 25.925781 7.671875 C 25.925781 8.367188 25.355469 8.9375 24.65625 8.9375 C 23.960938 8.9375 23.390625 8.367188 23.390625 7.671875 Z M 15.304688 4.238281 C 19.585938 4.238281 22.59375 6.425781 22.59375 10.480469 C 22.59375 17.023438 16.050781 20.777344 9.757812 23.441406 C 9.683594 23.515625 9.609375 23.539062 9.535156 23.539062 C 9.363281 23.539062 9.210938 23.390625 9.210938 23.214844 C 9.210938 23.140625 9.238281 23.066406 9.3125 22.992188 C 14.335938 20.058594 19.558594 16.402344 19.558594 10.730469 C 19.558594 7.746094 17.992188 4.886719 15.304688 4.886719 C 13.464844 4.886719 12.097656 6.226562 11.476562 8.019531 C 11.75 7.894531 12.023438 7.820312 12.320312 7.820312 C 13.6875 7.820312 14.808594 8.9375 14.808594 10.308594 C 14.808594 11.75 13.714844 12.945312 12.320312 12.945312 C 10.828125 12.945312 9.535156 11.773438 9.535156 10.308594 C 9.535156 7 12.074219 4.238281 15.304688 4.238281 Z M 15.304688 4.238281 "/>
<path style=" stroke:none;fill-rule:nonzero;fill:rgb(0%,0%,0%);fill-opacity:1;" d="M 46.046875 26.050781 C 47.417969 26.050781 48.734375 26.746094 48.734375 28.265625 C 48.734375 30.03125 47.367188 31.273438 46.199219 31.972656 C 45.328125 32.492188 44.332031 32.816406 43.3125 32.816406 C 41.945312 32.816406 40.625 32.121094 40.625 30.601562 C 40.625 28.835938 41.996094 27.59375 43.164062 26.898438 C 44.035156 26.375 45.027344 26.050781 46.046875 26.050781 Z M 46.046875 26.050781 "/>
<path style=" stroke:none;fill-rule:nonzero;fill:rgb(0%,0%,0%);fill-opacity:1;" d="M 46.046875 32.269531 C 47.417969 32.269531 48.734375 32.964844 48.734375 34.484375 C 48.734375 36.25 47.367188 37.492188 46.199219 38.1875 C 45.328125 38.710938 44.332031 39.035156 43.3125 39.035156 C 41.945312 39.035156 40.625 38.339844 40.625 36.820312 C 40.625 35.054688 41.996094 33.8125 43.164062 33.117188 C 44.035156 32.59375 45.027344 32.269531 46.046875 32.269531 Z M 46.046875 32.269531 "/>
<path style=" stroke:none;fill-rule:nonzero;fill:rgb(0%,0%,0%);fill-opacity:1;" d="M 46.046875 38.488281 C 47.417969 38.488281 48.734375 39.183594 48.734375 40.703125 C 48.734375 42.46875 47.367188 43.710938 46.199219 44.40625 C 45.328125 44.929688 44.332031 45.253906 43.3125 45.253906 C 41.945312 45.253906 40.625 44.558594 40.625 43.039062 C 40.625 41.273438 41.996094 40.03125 43.164062 39.332031 C 44.035156 38.8125 45.027344 38.488281 46.046875 38.488281 Z M 46.046875 38.488281 "/>
</g>
</svg>
