<?xml version="1.0" encoding="UTF-8"?>
<svg xmlns="http://www.w3.org/2000/svg" xmlns:xlink="http://www.w3.org/1999/xlink" width="83.88989pt" height="57.116775pt" viewBox="0 0 83.88989 57.116775" version="1.1">
<g id="surface1">
<path style="fill:none;stroke-width:0.1;stroke-linecap:round;stroke-linejoin:round;stroke:rgb(0%,0%,0%);stroke-opacity:1;stroke-miterlimit:4;" d="M 0.049863 -0.000256359 L 11.073541 -0.000256359 " transform="matrix(6.218149,0,0,6.218149,4.561038,48.376594)"/>
<path style="fill:none;stroke-width:0.1;stroke-linecap:round;stroke-linejoin:round;stroke:rgb(0%,0%,0%);stroke-opacity:1;stroke-miterlimit:4;" d="M 0.049863 0.000275194 L 11.073541 0.000275194 " transform="matrix(6.218149,0,0,6.218149,4.561038,42.158445)"/>
<path style="fill:none;stroke-width:0.1;stroke-linecap:round;stroke-linejoin:round;stroke:rgb(0%,0%,0%);stroke-opacity:1;stroke-miterlimit:4;" d="M 0.049863 0.000178545 L 11.073541 0.000178545 " transform="matrix(6.218149,0,0,6.218149,4.561038,35.940296)"/>
<path style="fill:none;stroke-width:0.1;stroke-linecap:round;stroke-linejoin:round;stroke:rgb(0%,0%,0%);stroke-opacity:1;stroke-miterlimit:4;" d="M 0.049863 0.0000818968 L 11.073541 0.0000818968 " transform="matrix(6.218149,0,0,6.218149,4.561038,29.722147)"/>
<path style="fill:none;stroke-width:0.1;stroke-linecap:round;stroke-linejoin:round;stroke:rgb(0%,0%,0%);stroke-opacity:1;stroke-miterlimit:4;" d="M 0.049863 -0.0000147518 L 11.073541 -0.0000147518 " transform="matrix(6.218149,0,0,6.218149,4.561038,23.503998)"/>
<path style=" stroke:none;fill-rule:nonzero;fill:rgb(0%,0%,0%);fill-opacity:1;" d="M 54.445312 10.445312 L 64.574219 10.445312 C 64.917969 10.445312 65.199219 10.722656 65.199219 11.066406 C 65.199219 11.410156 64.917969 11.691406 64.574219 11.691406 L 54.445312 11.691406 C 54.101562 11.691406 53.824219 11.410156 53.824219 11.066406 C 53.824219 10.722656 54.101562 10.445312 54.445312 10.445312 Z M 54.445312 10.445312 "/>
<path style=" stroke:none;fill-rule:nonzero;fill:rgb(0%,0%,0%);fill-opacity:1;" d="M 53.65625 16.664062 L 64.574219 16.664062 C 64.917969 16.664062 65.199219 16.941406 65.199219 17.285156 C 65.199219 17.628906 64.917969 17.90625 64.574219 17.90625 L 53.65625 17.90625 C 53.3125 17.90625 53.035156 17.628906 53.035156 17.285156 C 53.035156 16.941406 53.3125 16.664062 53.65625 16.664062 Z M 53.65625 16.664062 "/>
<path style=" stroke:none;fill-rule:nonzero;fill:rgb(0%,0%,0%);fill-opacity:1;" d="M 55.308594 9.117188 L 55.621094 9.117188 C 55.757812 9.117188 55.871094 9.226562 55.871094 9.363281 L 55.871094 48.128906 C 55.871094 48.265625 55.757812 48.375 55.621094 48.375 L 55.308594 48.375 C 55.171875 48.375 55.0625 48.265625 55.0625 48.128906 L 55.0625 9.363281 C 55.0625 9.226562 55.171875 9.117188 55.308594 9.117188 Z M 55.308594 9.117188 "/>
<path style=" stroke:none;fill-rule:nonzero;fill:rgb(0%,0%,0%);fill-opacity:1;" d="M 50.148438 7.957031 C 50.722656 8.53125 51.542969 8.65625 52.363281 8.65625 C 52.511719 8.65625 52.613281 8.753906 52.613281 8.902344 L 52.835938 11.066406 C 52.859375 11.21875 52.738281 11.339844 52.585938 11.316406 L 50.421875 11.09375 C 50.300781 11.066406 50.175781 10.96875 50.175781 10.84375 C 50.175781 10.023438 50.050781 9.203125 49.476562 8.628906 C 48.90625 9.203125 48.808594 10.023438 48.808594 10.84375 C 48.808594 10.96875 48.683594 11.066406 48.558594 11.09375 L 46.371094 11.316406 C 46.21875 11.339844 46.097656 11.21875 46.121094 11.066406 L 46.34375 8.902344 C 46.34375 8.753906 46.445312 8.65625 46.59375 8.65625 C 47.414062 8.65625 48.234375 8.53125 48.808594 7.957031 C 48.234375 7.386719 47.414062 7.261719 46.59375 7.261719 C 46.445312 7.261719 46.34375 7.164062 46.34375 7.011719 L 46.121094 4.847656 C 46.097656 4.699219 46.21875 4.574219 46.371094 4.601562 L 48.558594 4.824219 C 48.683594 4.847656 48.78125 4.949219 48.78125 5.074219 C 48.78125 5.894531 48.90625 6.714844 49.476562 7.285156 C 50.050781 6.714844 50.175781 5.894531 50.175781 5.074219 C 50.175781 4.949219 50.300781 4.847656 50.421875 4.824219 L 52.585938 4.601562 C 52.738281 4.574219 52.859375 4.699219 52.835938 4.847656 L 52.613281 7.011719 C 52.613281 7.164062 52.511719 7.261719 52.363281 7.261719 C 51.542969 7.261719 50.722656 7.386719 50.148438 7.957031 Z M 50.148438 7.957031 "/>
<path style=" stroke:none;fill-rule:nonzero;fill:rgb(0%,0%,0%);fill-opacity:1;" d="M 43.410156 21.9375 C 43.410156 22.1875 43.210938 22.410156 42.960938 22.410156 C 42.710938 22.410156 42.488281 22.1875 42.488281 21.9375 L 42.488281 18.332031 L 40.421875 19.101562 L 40.421875 23.03125 C 40.421875 23.28125 40.199219 23.503906 39.949219 23.503906 C 39.703125 23.503906 39.503906 23.28125 39.503906 23.03125 L 39.503906 19.425781 L 38.707031 19.722656 C 38.65625 19.75 38.582031 19.75 38.535156 19.75 C 38.257812 19.75 38.035156 19.523438 38.035156 19.25 L 38.035156 17.757812 C 38.035156 17.558594 38.160156 17.359375 38.359375 17.285156 L 39.503906 16.886719 L 39.503906 12.910156 L 38.707031 13.183594 C 38.65625 13.207031 38.582031 13.207031 38.535156 13.207031 C 38.257812 13.207031 38.035156 12.984375 38.035156 12.710938 L 38.035156 11.21875 C 38.035156 11.019531 38.160156 10.84375 38.359375 10.769531 L 39.503906 10.347656 L 39.503906 6.417969 C 39.503906 6.167969 39.703125 5.945312 39.949219 5.945312 C 40.199219 5.945312 40.421875 6.167969 40.421875 6.417969 L 40.421875 10.023438 L 42.488281 9.253906 L 42.488281 5.320312 C 42.488281 5.074219 42.710938 4.847656 42.960938 4.847656 C 43.210938 4.847656 43.410156 5.074219 43.410156 5.320312 L 43.410156 8.929688 L 44.203125 8.628906 C 44.253906 8.605469 44.328125 8.605469 44.378906 8.605469 C 44.652344 8.605469 44.875 8.828125 44.875 9.101562 L 44.875 10.59375 C 44.875 10.792969 44.75 10.992188 44.550781 11.066406 L 43.410156 11.464844 L 43.410156 15.445312 L 44.203125 15.171875 C 44.253906 15.148438 44.328125 15.148438 44.378906 15.148438 C 44.652344 15.148438 44.875 15.371094 44.875 15.644531 L 44.875 17.136719 C 44.875 17.335938 44.75 17.507812 44.550781 17.585938 L 43.410156 18.007812 Z M 40.421875 12.558594 L 40.421875 16.539062 L 42.488281 15.792969 L 42.488281 11.8125 Z M 40.421875 12.558594 "/>
<path style=" stroke:none;fill-rule:nonzero;fill:rgb(0%,0%,0%);fill-opacity:1;" d="M 35.324219 28.15625 C 35.324219 28.402344 35.125 28.628906 34.878906 28.628906 C 34.628906 28.628906 34.40625 28.402344 34.40625 28.15625 L 34.40625 24.546875 L 32.339844 25.320312 L 32.339844 29.25 C 32.339844 29.5 32.117188 29.722656 31.867188 29.722656 C 31.617188 29.722656 31.417969 29.5 31.417969 29.25 L 31.417969 25.644531 L 30.625 25.941406 C 30.574219 25.964844 30.5 25.964844 30.449219 25.964844 C 30.175781 25.964844 29.953125 25.742188 29.953125 25.46875 L 29.953125 23.976562 C 29.953125 23.777344 30.078125 23.578125 30.277344 23.503906 L 31.417969 23.105469 L 31.417969 19.125 L 30.625 19.398438 C 30.574219 19.425781 30.5 19.425781 30.449219 19.425781 C 30.175781 19.425781 29.953125 19.199219 29.953125 18.925781 L 29.953125 17.433594 C 29.953125 17.234375 30.078125 17.0625 30.277344 16.988281 L 31.417969 16.566406 L 31.417969 12.632812 C 31.417969 12.386719 31.617188 12.160156 31.867188 12.160156 C 32.117188 12.160156 32.339844 12.386719 32.339844 12.632812 L 32.339844 16.242188 L 34.40625 15.46875 L 34.40625 11.539062 C 34.40625 11.292969 34.628906 11.066406 34.878906 11.066406 C 35.125 11.066406 35.324219 11.292969 35.324219 11.539062 L 35.324219 15.148438 L 36.121094 14.847656 C 36.171875 14.824219 36.246094 14.824219 36.292969 14.824219 C 36.566406 14.824219 36.792969 15.046875 36.792969 15.320312 L 36.792969 16.8125 C 36.792969 17.011719 36.667969 17.210938 36.46875 17.285156 L 35.324219 17.683594 L 35.324219 21.664062 L 36.121094 21.390625 C 36.171875 21.363281 36.246094 21.363281 36.292969 21.363281 C 36.566406 21.363281 36.792969 21.589844 36.792969 21.863281 L 36.792969 23.355469 C 36.792969 23.554688 36.667969 23.726562 36.46875 23.800781 L 35.324219 24.226562 Z M 32.339844 18.777344 L 32.339844 22.757812 L 34.40625 22.011719 L 34.40625 18.03125 Z M 32.339844 18.777344 "/>
<path style=" stroke:none;fill-rule:nonzero;fill:rgb(0%,0%,0%);fill-opacity:1;" d="M 51.417969 34.375 C 51.417969 34.621094 51.21875 34.847656 50.96875 34.847656 C 50.722656 34.847656 50.496094 34.621094 50.496094 34.375 L 50.496094 30.765625 L 48.433594 31.539062 L 48.433594 35.46875 C 48.433594 35.714844 48.207031 35.941406 47.960938 35.941406 C 47.710938 35.941406 47.511719 35.714844 47.511719 35.46875 L 47.511719 31.859375 L 46.714844 32.160156 C 46.667969 32.183594 46.59375 32.183594 46.542969 32.183594 C 46.269531 32.183594 46.042969 31.960938 46.042969 31.6875 L 46.042969 30.195312 C 46.042969 29.996094 46.167969 29.796875 46.367188 29.722656 L 47.511719 29.324219 L 47.511719 25.34375 L 46.714844 25.617188 C 46.667969 25.644531 46.59375 25.644531 46.542969 25.644531 C 46.269531 25.644531 46.042969 25.417969 46.042969 25.144531 L 46.042969 23.652344 C 46.042969 23.453125 46.167969 23.28125 46.367188 23.207031 L 47.511719 22.78125 L 47.511719 18.851562 C 47.511719 18.605469 47.710938 18.378906 47.960938 18.378906 C 48.207031 18.378906 48.433594 18.605469 48.433594 18.851562 L 48.433594 22.460938 L 50.496094 21.6875 L 50.496094 17.757812 C 50.496094 17.507812 50.722656 17.285156 50.96875 17.285156 C 51.21875 17.285156 51.417969 17.507812 51.417969 17.757812 L 51.417969 21.363281 L 52.214844 21.066406 C 52.261719 21.042969 52.335938 21.042969 52.386719 21.042969 C 52.660156 21.042969 52.882812 21.265625 52.882812 21.539062 L 52.882812 23.03125 C 52.882812 23.230469 52.761719 23.429688 52.5625 23.503906 L 51.417969 23.902344 L 51.417969 27.882812 L 52.214844 27.609375 C 52.261719 27.582031 52.335938 27.582031 52.386719 27.582031 C 52.660156 27.582031 52.882812 27.808594 52.882812 28.082031 L 52.882812 29.574219 C 52.882812 29.773438 52.761719 29.945312 52.5625 30.019531 L 51.417969 30.445312 Z M 48.433594 24.996094 L 48.433594 28.976562 L 50.496094 28.230469 L 50.496094 24.25 Z M 48.433594 24.996094 "/>
<path style=" stroke:none;fill-rule:nonzero;fill:rgb(0%,0%,0%);fill-opacity:1;" d="M 23.390625 32.832031 C 23.390625 32.136719 23.960938 31.5625 24.65625 31.5625 C 25.355469 31.5625 25.925781 32.136719 25.925781 32.832031 C 25.925781 33.527344 25.355469 34.101562 24.65625 34.101562 C 23.960938 34.101562 23.390625 33.527344 23.390625 32.832031 Z M 23.390625 26.613281 C 23.390625 25.917969 23.960938 25.34375 24.65625 25.34375 C 25.355469 25.34375 25.925781 25.917969 25.925781 26.613281 C 25.925781 27.308594 25.355469 27.882812 24.65625 27.882812 C 23.960938 27.882812 23.390625 27.308594 23.390625 26.613281 Z M 15.304688 23.179688 C 19.585938 23.179688 22.59375 25.371094 22.59375 29.421875 C 22.59375 35.964844 16.050781 39.722656 9.757812 42.382812 C 9.683594 42.457031 9.609375 42.480469 9.535156 42.480469 C 9.363281 42.480469 9.210938 42.332031 9.210938 42.160156 C 9.210938 42.082031 9.238281 42.007812 9.3125 41.933594 C 14.335938 39 19.558594 35.34375 19.558594 29.671875 C 19.558594 26.6875 17.992188 23.828125 15.304688 23.828125 C 13.464844 23.828125 12.097656 25.171875 11.476562 26.960938 C 11.75 26.835938 12.023438 26.761719 12.320312 26.761719 C 13.6875 26.761719 14.808594 27.882812 14.808594 29.25 C 14.808594 30.691406 13.714844 31.886719 12.320312 31.886719 C 10.828125 31.886719 9.535156 30.71875 9.535156 29.25 C 9.535156 25.941406 12.074219 23.179688 15.304688 23.179688 Z M 15.304688 23.179688 "/>
<path style=" stroke:none;fill-rule:nonzero;fill:rgb(0%,0%,0%);fill-opacity:1;" d="M 60.484375 4.574219 C 61.851562 4.574219 63.167969 5.273438 63.167969 6.789062 C 63.167969 8.554688 61.800781 9.800781 60.632812 10.496094 C 59.761719 11.019531 58.765625 11.339844 57.746094 11.339844 C 56.378906 11.339844 55.0625 10.644531 55.0625 9.128906 C 55.0625 7.363281 56.429688 6.117188 57.597656 5.421875 C 58.46875 4.898438 59.464844 4.574219 60.484375 4.574219 Z M 60.484375 4.574219 "/>
<path style=" stroke:none;fill-rule:nonzero;fill:rgb(0%,0%,0%);fill-opacity:1;" d="M 60.484375 10.792969 C 61.851562 10.792969 63.167969 11.492188 63.167969 13.007812 C 63.167969 14.773438 61.800781 16.015625 60.632812 16.714844 C 59.761719 17.234375 58.765625 17.558594 57.746094 17.558594 C 56.378906 17.558594 55.0625 16.863281 55.0625 15.347656 C 55.0625 13.578125 56.429688 12.335938 57.597656 11.640625 C 58.46875 11.117188 59.464844 10.792969 60.484375 10.792969 Z M 60.484375 10.792969 "/>
<path style=" stroke:none;fill-rule:nonzero;fill:rgb(0%,0%,0%);fill-opacity:1;" d="M 60.484375 17.011719 C 61.851562 17.011719 63.167969 17.707031 63.167969 19.226562 C 63.167969 20.992188 61.800781 22.234375 60.632812 22.933594 C 59.761719 23.453125 58.765625 23.777344 57.746094 23.777344 C 56.378906 23.777344 55.0625 23.082031 55.0625 21.5625 C 55.0625 19.796875 56.429688 18.554688 57.597656 17.859375 C 58.46875 17.335938 59.464844 17.011719 60.484375 17.011719 Z M 60.484375 17.011719 "/>
<path style=" stroke:none;fill-rule:nonzero;fill:rgb(0%,0%,0%);fill-opacity:1;" d="M 60.484375 23.230469 C 61.851562 23.230469 63.167969 23.925781 63.167969 25.445312 C 63.167969 27.210938 61.800781 28.453125 60.632812 29.148438 C 59.761719 29.671875 58.765625 29.996094 57.746094 29.996094 C 56.378906 29.996094 55.0625 29.300781 55.0625 27.78125 C 55.0625 26.015625 56.429688 24.773438 57.597656 24.074219 C 58.46875 23.554688 59.464844 23.230469 60.484375 23.230469 Z M 60.484375 23.230469 "/>
</g>
</svg>
