<?xml version="1.0" encoding="UTF-8"?>
<svg xmlns="http://www.w3.org/2000/svg" xmlns:xlink="http://www.w3.org/1999/xlink" width="69.224853pt" height="50.860191pt" viewBox="0 0 69.224853 50.860191" version="1.1">
<g id="surface1">
<path style="fill:none;stroke-width:0.1;stroke-linecap:round;stroke-linejoin:round;stroke:rgb(0%,0%,0%);stroke-opacity:1;stroke-miterlimit:4;" d="M 0.049863 0.0000610068 L 8.865413 0.0000610068 " transform="matrix(6.218149,0,0,6.218149,4.561038,32.409777)"/>
<path style="fill:none;stroke-width:0.1;stroke-linecap:round;stroke-linejoin:round;stroke:rgb(0%,0%,0%);stroke-opacity:1;stroke-miterlimit:4;" d="M 0.049863 -0.0000356418 L 8.865413 -0.0000356418 " transform="matrix(6.218149,0,0,6.218149,4.561038,26.191628)"/>
<path style="fill:none;stroke-width:0.1;stroke-linecap:round;stroke-linejoin:round;stroke:rgb(0%,0%,0%);stroke-opacity:1;stroke-miterlimit:4;" d="M 0.049863 -0.00013229 L 8.865413 -0.00013229 " transform="matrix(6.218149,0,0,6.218149,4.561038,19.973479)"/>
<path style="fill:none;stroke-width:0.1;stroke-linecap:round;stroke-linejoin:round;stroke:rgb(0%,0%,0%);stroke-opacity:1;stroke-miterlimit:4;" d="M 0.049863 -0.000228939 L 8.865413 -0.000228939 " transform="matrix(6.218149,0,0,6.218149,4.561038,13.75533)"/>
<path style="fill:none;stroke-width:0.1;stroke-linecap:round;stroke-linejoin:round;stroke:rgb(0%,0%,0%);stroke-opacity:1;stroke-miterlimit:4;" d="M 0.049863 0.000302495 L 8.865413 0.000302495 " transform="matrix(6.218149,0,0,6.218149,4.561038,7.537182)"/>
<path style=" stroke:none;fill-rule:nonzero;fill:rgb(0%,0%,0%);fill-opacity:1;" d="M 39.925781 38.007812 L 50.847656 38.007812 C 51.191406 38.007812 51.46875 38.285156 51.46875 38.628906 C 51.46875 38.972656 51.191406 39.25 50.847656 39.25 L 39.925781 39.25 C 39.582031 39.25 39.304688 38.972656 39.304688 38.628906 C 39.304688 38.285156 39.582031 38.007812 39.925781 38.007812 Z M 39.925781 38.007812 "/>
<path style=" stroke:none;fill-rule:nonzero;fill:rgb(0%,0%,0%);fill-opacity:1;" d="M 48.882812 4.429688 L 49.191406 4.429688 C 49.328125 4.429688 49.441406 4.539062 49.441406 4.675781 L 49.441406 37.222656 C 49.441406 37.359375 49.328125 37.472656 49.191406 37.472656 L 48.882812 37.472656 C 48.746094 37.472656 48.632812 37.359375 48.632812 37.222656 L 48.632812 4.675781 C 48.632812 4.539062 48.746094 4.429688 48.882812 4.429688 Z M 48.882812 4.429688 "/>
<path style=" stroke:none;fill-rule:nonzero;fill:rgb(0%,0%,0%);fill-opacity:1;" d="M 34.851562 25.171875 L 34.828125 26.8125 L 34.828125 27.085938 C 34.828125 27.632812 34.851562 28.179688 34.925781 28.730469 C 36.046875 27.785156 37.238281 26.738281 37.238281 25.269531 C 37.238281 24.449219 36.890625 23.605469 36.171875 23.605469 C 35.398438 23.605469 34.878906 24.351562 34.851562 25.171875 Z M 33.808594 29.625 L 33.507812 14.824219 C 33.707031 14.699219 33.957031 14.625 34.179688 14.625 C 34.40625 14.625 34.652344 14.699219 34.851562 14.824219 L 34.679688 23.40625 C 35.300781 22.882812 36.121094 22.558594 36.941406 22.558594 C 38.234375 22.558594 39.15625 23.753906 39.15625 25.097656 C 39.15625 27.085938 37.015625 28.007812 35.5 29.300781 C 35.125 29.625 34.902344 30.246094 34.378906 30.246094 C 34.054688 30.246094 33.808594 29.972656 33.808594 29.625 Z M 33.808594 29.625 "/>
<path style=" stroke:none;fill-rule:nonzero;fill:rgb(0%,0%,0%);fill-opacity:1;" d="M 31.371094 37.609375 L 31.34375 39.25 L 31.34375 39.523438 C 31.34375 40.070312 31.371094 40.617188 31.445312 41.164062 C 32.5625 40.21875 33.757812 39.175781 33.757812 37.707031 C 33.757812 36.886719 33.410156 36.042969 32.6875 36.042969 C 31.917969 36.042969 31.394531 36.789062 31.371094 37.609375 Z M 30.324219 42.058594 L 30.027344 27.261719 C 30.226562 27.136719 30.472656 27.0625 30.699219 27.0625 C 30.921875 27.0625 31.171875 27.136719 31.371094 27.261719 L 31.195312 35.84375 C 31.816406 35.320312 32.636719 34.996094 33.460938 34.996094 C 34.753906 34.996094 35.671875 36.191406 35.671875 37.535156 C 35.671875 39.523438 33.535156 40.445312 32.015625 41.738281 C 31.644531 42.058594 31.417969 42.683594 30.898438 42.683594 C 30.574219 42.683594 30.324219 42.410156 30.324219 42.058594 Z M 30.324219 42.058594 "/>
<path style=" stroke:none;fill-rule:nonzero;fill:rgb(0%,0%,0%);fill-opacity:1;" d="M 23.390625 16.863281 C 23.390625 16.167969 23.960938 15.597656 24.65625 15.597656 C 25.355469 15.597656 25.925781 16.167969 25.925781 16.863281 C 25.925781 17.5625 25.355469 18.132812 24.65625 18.132812 C 23.960938 18.132812 23.390625 17.5625 23.390625 16.863281 Z M 23.390625 10.644531 C 23.390625 9.949219 23.960938 9.378906 24.65625 9.378906 C 25.355469 9.378906 25.925781 9.949219 25.925781 10.644531 C 25.925781 11.34375 25.355469 11.914062 24.65625 11.914062 C 23.960938 11.914062 23.390625 11.34375 23.390625 10.644531 Z M 15.304688 7.214844 C 19.585938 7.214844 22.59375 9.402344 22.59375 13.457031 C 22.59375 20 16.050781 23.753906 9.757812 26.414062 C 9.683594 26.488281 9.609375 26.515625 9.535156 26.515625 C 9.363281 26.515625 9.210938 26.367188 9.210938 26.191406 C 9.210938 26.117188 9.238281 26.042969 9.3125 25.96875 C 14.335938 23.03125 19.558594 19.375 19.558594 13.707031 C 19.558594 10.722656 17.992188 7.859375 15.304688 7.859375 C 13.464844 7.859375 12.097656 9.203125 11.476562 10.996094 C 11.75 10.871094 12.023438 10.796875 12.320312 10.796875 C 13.6875 10.796875 14.808594 11.914062 14.808594 13.28125 C 14.808594 14.726562 13.714844 15.917969 12.320312 15.917969 C 10.828125 15.917969 9.535156 14.75 9.535156 13.28125 C 9.535156 9.976562 12.074219 7.214844 15.304688 7.214844 Z M 15.304688 7.214844 "/>
<path style=" stroke:none;fill-rule:nonzero;fill:rgb(0%,0%,0%);fill-opacity:1;" d="M 46.753906 22.808594 C 48.121094 22.808594 49.441406 23.503906 49.441406 25.023438 C 49.441406 26.789062 48.070312 28.03125 46.902344 28.730469 C 46.03125 29.25 45.039062 29.574219 44.019531 29.574219 C 42.648438 29.574219 41.332031 28.878906 41.332031 27.359375 C 41.332031 25.59375 42.699219 24.351562 43.867188 23.65625 C 44.738281 23.132812 45.734375 22.808594 46.753906 22.808594 Z M 46.753906 22.808594 "/>
<path style=" stroke:none;fill-rule:nonzero;fill:rgb(0%,0%,0%);fill-opacity:1;" d="M 46.753906 29.027344 C 48.121094 29.027344 49.441406 29.722656 49.441406 31.242188 C 49.441406 33.007812 48.070312 34.25 46.902344 34.945312 C 46.03125 35.46875 45.039062 35.792969 44.019531 35.792969 C 42.648438 35.792969 41.332031 35.097656 41.332031 33.578125 C 41.332031 31.8125 42.699219 30.570312 43.867188 29.871094 C 44.738281 29.351562 45.734375 29.027344 46.753906 29.027344 Z M 46.753906 29.027344 "/>
<path style=" stroke:none;fill-rule:nonzero;fill:rgb(0%,0%,0%);fill-opacity:1;" d="M 46.753906 35.246094 C 48.121094 35.246094 49.441406 35.941406 49.441406 37.457031 C 49.441406 39.226562 48.070312 40.46875 46.902344 41.164062 C 46.03125 41.6875 45.039062 42.011719 44.019531 42.011719 C 42.648438 42.011719 41.332031 41.3125 41.332031 39.796875 C 41.332031 38.03125 42.699219 36.789062 43.867188 36.089844 C 44.738281 35.570312 45.734375 35.246094 46.753906 35.246094 Z M 46.753906 35.246094 "/>
</g>
</svg>
