<?xml version="1.0" encoding="UTF-8"?>
<svg xmlns="http://www.w3.org/2000/svg" xmlns:xlink="http://www.w3.org/1999/xlink" width="68.472344pt" height="55.67747pt" viewBox="0 0 68.472344 55.67747" version="1.1">
<g id="surface1">
<path style="fill:none;stroke-width:0.1;stroke-linecap:round;stroke-linejoin:round;stroke:rgb(0%,0%,0%);stroke-opacity:1;stroke-miterlimit:4;" d="M 0.049863 -0.000217086 L 8.752337 -0.000217086 " transform="matrix(6.218149,0,0,6.218149,4.561038,37.739631)"/>
<path style="fill:none;stroke-width:0.1;stroke-linecap:round;stroke-linejoin:round;stroke:rgb(0%,0%,0%);stroke-opacity:1;stroke-miterlimit:4;" d="M 0.049863 -0.000313735 L 8.752337 -0.000313735 " transform="matrix(6.218149,0,0,6.218149,4.561038,31.521482)"/>
<path style="fill:none;stroke-width:0.1;stroke-linecap:round;stroke-linejoin:round;stroke:rgb(0%,0%,0%);stroke-opacity:1;stroke-miterlimit:4;" d="M 0.049863 0.000217818 L 8.752337 0.000217818 " transform="matrix(6.218149,0,0,6.218149,4.561038,25.303333)"/>
<path style="fill:none;stroke-width:0.1;stroke-linecap:round;stroke-linejoin:round;stroke:rgb(0%,0%,0%);stroke-opacity:1;stroke-miterlimit:4;" d="M 0.049863 0.000121169 L 8.752337 0.000121169 " transform="matrix(6.218149,0,0,6.218149,4.561038,19.085184)"/>
<path style="fill:none;stroke-width:0.1;stroke-linecap:round;stroke-linejoin:round;stroke:rgb(0%,0%,0%);stroke-opacity:1;stroke-miterlimit:4;" d="M 0.049863 0.0000245208 L 8.752337 0.0000245208 " transform="matrix(6.218149,0,0,6.218149,4.561038,12.867035)"/>
<path style=" stroke:none;fill-rule:nonzero;fill:rgb(0%,0%,0%);fill-opacity:1;" d="M 39.21875 43.335938 L 50.140625 43.335938 C 50.484375 43.335938 50.761719 43.613281 50.761719 43.957031 C 50.761719 44.300781 50.484375 44.578125 50.140625 44.578125 L 39.21875 44.578125 C 38.878906 44.578125 38.597656 44.300781 38.597656 43.957031 C 38.597656 43.613281 38.878906 43.335938 39.21875 43.335938 Z M 39.21875 43.335938 "/>
<path style=" stroke:none;fill-rule:nonzero;fill:rgb(0%,0%,0%);fill-opacity:1;" d="M 36.984375 45.5 C 36.984375 45.75 36.785156 45.972656 36.535156 45.972656 C 36.285156 45.972656 36.0625 45.75 36.0625 45.5 L 36.0625 41.894531 L 33.996094 42.664062 L 33.996094 46.59375 C 33.996094 46.84375 33.773438 47.066406 33.523438 47.066406 C 33.277344 47.066406 33.078125 46.84375 33.078125 46.59375 L 33.078125 42.988281 L 32.28125 43.285156 C 32.230469 43.3125 32.15625 43.3125 32.109375 43.3125 C 31.832031 43.3125 31.609375 43.085938 31.609375 42.8125 L 31.609375 41.320312 C 31.609375 41.121094 31.734375 40.921875 31.933594 40.847656 L 33.078125 40.449219 L 33.078125 36.472656 L 32.28125 36.746094 C 32.230469 36.769531 32.15625 36.769531 32.109375 36.769531 C 31.832031 36.769531 31.609375 36.546875 31.609375 36.273438 L 31.609375 34.78125 C 31.609375 34.582031 31.734375 34.40625 31.933594 34.332031 L 33.078125 33.910156 L 33.078125 29.980469 C 33.078125 29.730469 33.277344 29.507812 33.523438 29.507812 C 33.773438 29.507812 33.996094 29.730469 33.996094 29.980469 L 33.996094 33.585938 L 36.0625 32.816406 L 36.0625 28.886719 C 36.0625 28.636719 36.285156 28.414062 36.535156 28.414062 C 36.785156 28.414062 36.984375 28.636719 36.984375 28.886719 L 36.984375 32.492188 L 37.777344 32.191406 C 37.828125 32.167969 37.902344 32.167969 37.953125 32.167969 C 38.226562 32.167969 38.449219 32.390625 38.449219 32.664062 L 38.449219 34.15625 C 38.449219 34.355469 38.324219 34.554688 38.125 34.628906 L 36.984375 35.027344 L 36.984375 39.007812 L 37.777344 38.734375 C 37.828125 38.710938 37.902344 38.710938 37.953125 38.710938 C 38.226562 38.710938 38.449219 38.933594 38.449219 39.207031 L 38.449219 40.699219 C 38.449219 40.898438 38.324219 41.074219 38.125 41.148438 L 36.984375 41.570312 Z M 33.996094 36.121094 L 33.996094 40.101562 L 36.0625 39.355469 L 36.0625 35.375 Z M 33.996094 36.121094 "/>
<path style=" stroke:none;fill-rule:nonzero;fill:rgb(0%,0%,0%);fill-opacity:1;" d="M 48.175781 4.578125 L 48.488281 4.578125 C 48.625 4.578125 48.734375 4.6875 48.734375 4.824219 L 48.734375 42.550781 C 48.734375 42.6875 48.625 42.800781 48.488281 42.800781 L 48.175781 42.800781 C 48.039062 42.800781 47.925781 42.6875 47.925781 42.550781 L 47.925781 4.824219 C 47.925781 4.6875 48.039062 4.578125 48.175781 4.578125 Z M 48.175781 4.578125 "/>
<path style=" stroke:none;fill-rule:nonzero;fill:rgb(0%,0%,0%);fill-opacity:1;" d="M 23.390625 22.195312 C 23.390625 21.496094 23.960938 20.925781 24.65625 20.925781 C 25.355469 20.925781 25.925781 21.496094 25.925781 22.195312 C 25.925781 22.890625 25.355469 23.460938 24.65625 23.460938 C 23.960938 23.460938 23.390625 22.890625 23.390625 22.195312 Z M 23.390625 15.976562 C 23.390625 15.28125 23.960938 14.707031 24.65625 14.707031 C 25.355469 14.707031 25.925781 15.28125 25.925781 15.976562 C 25.925781 16.671875 25.355469 17.246094 24.65625 17.246094 C 23.960938 17.246094 23.390625 16.671875 23.390625 15.976562 Z M 15.304688 12.542969 C 19.585938 12.542969 22.59375 14.734375 22.59375 18.785156 C 22.59375 25.328125 16.050781 29.082031 9.757812 31.746094 C 9.683594 31.820312 9.609375 31.84375 9.535156 31.84375 C 9.363281 31.84375 9.210938 31.695312 9.210938 31.519531 C 9.210938 31.445312 9.238281 31.371094 9.3125 31.296875 C 14.335938 28.363281 19.558594 24.707031 19.558594 19.035156 C 19.558594 16.050781 17.992188 13.191406 15.304688 13.191406 C 13.464844 13.191406 12.097656 14.535156 11.476562 16.324219 C 11.75 16.199219 12.023438 16.125 12.320312 16.125 C 13.6875 16.125 14.808594 17.246094 14.808594 18.613281 C 14.808594 20.054688 13.714844 21.25 12.320312 21.25 C 10.828125 21.25 9.535156 20.082031 9.535156 18.613281 C 9.535156 15.304688 12.074219 12.542969 15.304688 12.542969 Z M 15.304688 12.542969 "/>
<path style=" stroke:none;fill-rule:nonzero;fill:rgb(0%,0%,0%);fill-opacity:1;" d="M 46.046875 21.921875 C 47.417969 21.921875 48.734375 22.617188 48.734375 24.132812 C 48.734375 25.898438 47.367188 27.144531 46.199219 27.839844 C 45.328125 28.363281 44.332031 28.6875 43.3125 28.6875 C 41.945312 28.6875 40.625 27.988281 40.625 26.472656 C 40.625 24.707031 41.996094 23.460938 43.164062 22.765625 C 44.035156 22.242188 45.027344 21.921875 46.046875 21.921875 Z M 46.046875 21.921875 "/>
<path style=" stroke:none;fill-rule:nonzero;fill:rgb(0%,0%,0%);fill-opacity:1;" d="M 46.046875 28.140625 C 47.417969 28.140625 48.734375 28.835938 48.734375 30.351562 C 48.734375 32.117188 47.367188 33.363281 46.199219 34.058594 C 45.328125 34.582031 44.332031 34.902344 43.3125 34.902344 C 41.945312 34.902344 40.625 34.207031 40.625 32.691406 C 40.625 30.925781 41.996094 29.679688 43.164062 28.984375 C 44.035156 28.460938 45.027344 28.140625 46.046875 28.140625 Z M 46.046875 28.140625 "/>
<path style=" stroke:none;fill-rule:nonzero;fill:rgb(0%,0%,0%);fill-opacity:1;" d="M 46.046875 34.355469 C 47.417969 34.355469 48.734375 35.054688 48.734375 36.570312 C 48.734375 38.335938 47.367188 39.582031 46.199219 40.277344 C 45.328125 40.800781 44.332031 41.121094 43.3125 41.121094 C 41.945312 41.121094 40.625 40.425781 40.625 38.910156 C 40.625 37.144531 41.996094 35.898438 43.164062 35.203125 C 44.035156 34.679688 45.027344 34.355469 46.046875 34.355469 Z M 46.046875 34.355469 "/>
<path style=" stroke:none;fill-rule:nonzero;fill:rgb(0%,0%,0%);fill-opacity:1;" d="M 46.046875 40.574219 C 47.417969 40.574219 48.734375 41.273438 48.734375 42.789062 C 48.734375 44.554688 47.367188 45.796875 46.199219 46.496094 C 45.328125 47.015625 44.332031 47.339844 43.3125 47.339844 C 41.945312 47.339844 40.625 46.644531 40.625 45.125 C 40.625 43.359375 41.996094 42.117188 43.164062 41.421875 C 44.035156 40.898438 45.027344 40.574219 46.046875 40.574219 Z M 46.046875 40.574219 "/>
</g>
</svg>
