<?xml version="1.0" encoding="UTF-8"?>
<svg xmlns="http://www.w3.org/2000/svg" xmlns:xlink="http://www.w3.org/1999/xlink" width="81.97507pt" height="57.116775pt" viewBox="0 0 81.97507 57.116775" version="1.1">
<g id="surface1">
<path style="fill:none;stroke-width:0.1;stroke-linecap:round;stroke-linejoin:round;stroke:rgb(0%,0%,0%);stroke-opacity:1;stroke-miterlimit:4;" d="M 0.049863 -0.000256359 L 10.785197 -0.000256359 " transform="matrix(6.218149,0,0,6.218149,4.561038,48.376594)"/>
<path style="fill:none;stroke-width:0.1;stroke-linecap:round;stroke-linejoin:round;stroke:rgb(0%,0%,0%);stroke-opacity:1;stroke-miterlimit:4;" d="M 0.049863 0.000275194 L 10.785197 0.000275194 " transform="matrix(6.218149,0,0,6.218149,4.561038,42.158445)"/>
<path style="fill:none;stroke-width:0.1;stroke-linecap:round;stroke-linejoin:round;stroke:rgb(0%,0%,0%);stroke-opacity:1;stroke-miterlimit:4;" d="M 0.049863 0.000178545 L 10.785197 0.000178545 " transform="matrix(6.218149,0,0,6.218149,4.561038,35.940296)"/>
<path style="fill:none;stroke-width:0.1;stroke-linecap:round;stroke-linejoin:round;stroke:rgb(0%,0%,0%);stroke-opacity:1;stroke-miterlimit:4;" d="M 0.049863 0.0000818968 L 10.785197 0.0000818968 " transform="matrix(6.218149,0,0,6.218149,4.561038,29.722147)"/>
<path style="fill:none;stroke-width:0.1;stroke-linecap:round;stroke-linejoin:round;stroke:rgb(0%,0%,0%);stroke-opacity:1;stroke-miterlimit:4;" d="M 0.049863 -0.0000147518 L 10.785197 -0.0000147518 " transform="matrix(6.218149,0,0,6.218149,4.561038,23.503998)"/>
<path style=" stroke:none;fill-rule:nonzero;fill:rgb(0%,0%,0%);fill-opacity:1;" d="M 52.652344 10.445312 L 62.785156 10.445312 C 63.125 10.445312 63.40625 10.722656 63.40625 11.066406 C 63.40625 11.410156 63.125 11.691406 62.785156 11.691406 L 52.652344 11.691406 C 52.308594 11.691406 52.03125 11.410156 52.03125 11.066406 C 52.03125 10.722656 52.308594 10.445312 52.652344 10.445312 Z M 52.652344 10.445312 "/>
<path style=" stroke:none;fill-rule:nonzero;fill:rgb(0%,0%,0%);fill-opacity:1;" d="M 51.863281 16.664062 L 62.785156 16.664062 C 63.125 16.664062 63.40625 16.941406 63.40625 17.285156 C 63.40625 17.628906 63.125 17.90625 62.785156 17.90625 L 51.863281 17.90625 C 51.519531 17.90625 51.242188 17.628906 51.242188 17.285156 C 51.242188 16.941406 51.519531 16.664062 51.863281 16.664062 Z M 51.863281 16.664062 "/>
<path style=" stroke:none;fill-rule:nonzero;fill:rgb(0%,0%,0%);fill-opacity:1;" d="M 53.515625 9.117188 L 53.828125 9.117188 C 53.964844 9.117188 54.078125 9.226562 54.078125 9.363281 L 54.078125 41.910156 C 54.078125 42.046875 53.964844 42.160156 53.828125 42.160156 L 53.515625 42.160156 C 53.378906 42.160156 53.269531 42.046875 53.269531 41.910156 L 53.269531 9.363281 C 53.269531 9.226562 53.378906 9.117188 53.515625 9.117188 Z M 53.515625 9.117188 "/>
<path style=" stroke:none;fill-rule:nonzero;fill:rgb(0%,0%,0%);fill-opacity:1;" d="M 48.359375 7.957031 C 48.929688 8.53125 49.75 8.65625 50.570312 8.65625 C 50.722656 8.65625 50.820312 8.753906 50.820312 8.902344 L 51.042969 11.066406 C 51.070312 11.21875 50.945312 11.339844 50.796875 11.316406 L 48.632812 11.09375 C 48.507812 11.066406 48.382812 10.96875 48.382812 10.84375 C 48.382812 10.023438 48.257812 9.203125 47.6875 8.628906 C 47.113281 9.203125 47.015625 10.023438 47.015625 10.84375 C 47.015625 10.96875 46.890625 11.066406 46.765625 11.09375 L 44.578125 11.316406 C 44.429688 11.339844 44.304688 11.21875 44.328125 11.066406 L 44.550781 8.902344 C 44.550781 8.753906 44.652344 8.65625 44.800781 8.65625 C 45.621094 8.65625 46.441406 8.53125 47.015625 7.957031 C 46.441406 7.386719 45.621094 7.261719 44.800781 7.261719 C 44.652344 7.261719 44.550781 7.164062 44.550781 7.011719 L 44.328125 4.847656 C 44.304688 4.699219 44.429688 4.574219 44.578125 4.601562 L 46.765625 4.824219 C 46.890625 4.847656 46.988281 4.949219 46.988281 5.074219 C 46.988281 5.894531 47.113281 6.714844 47.6875 7.285156 C 48.257812 6.714844 48.382812 5.894531 48.382812 5.074219 C 48.382812 4.949219 48.507812 4.847656 48.632812 4.824219 L 50.796875 4.601562 C 50.945312 4.574219 51.070312 4.699219 51.042969 4.847656 L 50.820312 7.011719 C 50.820312 7.164062 50.722656 7.261719 50.570312 7.261719 C 49.75 7.261719 48.929688 7.386719 48.359375 7.957031 Z M 48.359375 7.957031 "/>
<path style=" stroke:none;fill-rule:nonzero;fill:rgb(0%,0%,0%);fill-opacity:1;" d="M 33.734375 14.175781 C 34.304688 14.75 35.125 14.875 35.945312 14.875 C 36.097656 14.875 36.195312 14.972656 36.195312 15.121094 L 36.417969 17.285156 C 36.445312 17.433594 36.320312 17.558594 36.171875 17.535156 L 34.007812 17.3125 C 33.882812 17.285156 33.757812 17.1875 33.757812 17.0625 C 33.757812 16.242188 33.632812 15.421875 33.0625 14.847656 C 32.488281 15.421875 32.390625 16.242188 32.390625 17.0625 C 32.390625 17.1875 32.265625 17.285156 32.140625 17.3125 L 29.953125 17.535156 C 29.804688 17.558594 29.679688 17.433594 29.703125 17.285156 L 29.925781 15.121094 C 29.925781 14.972656 30.027344 14.875 30.175781 14.875 C 30.996094 14.875 31.816406 14.75 32.390625 14.175781 C 31.816406 13.605469 30.996094 13.480469 30.175781 13.480469 C 30.027344 13.480469 29.925781 13.378906 29.925781 13.230469 L 29.703125 11.066406 C 29.679688 10.917969 29.804688 10.792969 29.953125 10.820312 L 32.140625 11.042969 C 32.265625 11.066406 32.363281 11.167969 32.363281 11.292969 C 32.363281 12.113281 32.488281 12.933594 33.0625 13.503906 C 33.632812 12.933594 33.757812 12.113281 33.757812 11.292969 C 33.757812 11.167969 33.882812 11.066406 34.007812 11.042969 L 36.171875 10.820312 C 36.320312 10.792969 36.445312 10.917969 36.417969 11.066406 L 36.195312 13.230469 C 36.195312 13.378906 36.097656 13.480469 35.945312 13.480469 C 35.125 13.480469 34.304688 13.605469 33.734375 14.175781 Z M 33.734375 14.175781 "/>
<path style=" stroke:none;fill-rule:nonzero;fill:rgb(0%,0%,0%);fill-opacity:1;" d="M 43.082031 28.15625 C 43.082031 28.402344 42.882812 28.628906 42.636719 28.628906 C 42.386719 28.628906 42.164062 28.402344 42.164062 28.15625 L 42.164062 24.546875 L 40.097656 25.320312 L 40.097656 29.25 C 40.097656 29.5 39.875 29.722656 39.625 29.722656 C 39.378906 29.722656 39.179688 29.5 39.179688 29.25 L 39.179688 25.644531 L 38.382812 25.941406 C 38.332031 25.964844 38.257812 25.964844 38.207031 25.964844 C 37.933594 25.964844 37.710938 25.742188 37.710938 25.46875 L 37.710938 23.976562 C 37.710938 23.777344 37.835938 23.578125 38.035156 23.503906 L 39.179688 23.105469 L 39.179688 19.125 L 38.382812 19.398438 C 38.332031 19.425781 38.257812 19.425781 38.207031 19.425781 C 37.933594 19.425781 37.710938 19.199219 37.710938 18.925781 L 37.710938 17.433594 C 37.710938 17.234375 37.835938 17.0625 38.035156 16.988281 L 39.179688 16.566406 L 39.179688 12.632812 C 39.179688 12.386719 39.378906 12.160156 39.625 12.160156 C 39.875 12.160156 40.097656 12.386719 40.097656 12.632812 L 40.097656 16.242188 L 42.164062 15.46875 L 42.164062 11.539062 C 42.164062 11.292969 42.386719 11.066406 42.636719 11.066406 C 42.882812 11.066406 43.082031 11.292969 43.082031 11.539062 L 43.082031 15.148438 L 43.878906 14.847656 C 43.929688 14.824219 44.003906 14.824219 44.054688 14.824219 C 44.328125 14.824219 44.550781 15.046875 44.550781 15.320312 L 44.550781 16.8125 C 44.550781 17.011719 44.425781 17.210938 44.226562 17.285156 L 43.082031 17.683594 L 43.082031 21.664062 L 43.878906 21.390625 C 43.929688 21.363281 44.003906 21.363281 44.054688 21.363281 C 44.328125 21.363281 44.550781 21.589844 44.550781 21.863281 L 44.550781 23.355469 C 44.550781 23.554688 44.425781 23.726562 44.226562 23.800781 L 43.082031 24.226562 Z M 40.097656 18.777344 L 40.097656 22.757812 L 42.164062 22.011719 L 42.164062 18.03125 Z M 40.097656 18.777344 "/>
<path style=" stroke:none;fill-rule:nonzero;fill:rgb(0%,0%,0%);fill-opacity:1;" d="M 23.390625 32.832031 C 23.390625 32.136719 23.960938 31.5625 24.65625 31.5625 C 25.355469 31.5625 25.925781 32.136719 25.925781 32.832031 C 25.925781 33.527344 25.355469 34.101562 24.65625 34.101562 C 23.960938 34.101562 23.390625 33.527344 23.390625 32.832031 Z M 23.390625 26.613281 C 23.390625 25.917969 23.960938 25.34375 24.65625 25.34375 C 25.355469 25.34375 25.925781 25.917969 25.925781 26.613281 C 25.925781 27.308594 25.355469 27.882812 24.65625 27.882812 C 23.960938 27.882812 23.390625 27.308594 23.390625 26.613281 Z M 15.304688 23.179688 C 19.585938 23.179688 22.59375 25.371094 22.59375 29.421875 C 22.59375 35.964844 16.050781 39.722656 9.757812 42.382812 C 9.683594 42.457031 9.609375 42.480469 9.535156 42.480469 C 9.363281 42.480469 9.210938 42.332031 9.210938 42.160156 C 9.210938 42.082031 9.238281 42.007812 9.3125 41.933594 C 14.335938 39 19.558594 35.34375 19.558594 29.671875 C 19.558594 26.6875 17.992188 23.828125 15.304688 23.828125 C 13.464844 23.828125 12.097656 25.171875 11.476562 26.960938 C 11.75 26.835938 12.023438 26.761719 12.320312 26.761719 C 13.6875 26.761719 14.808594 27.882812 14.808594 29.25 C 14.808594 30.691406 13.714844 31.886719 12.320312 31.886719 C 10.828125 31.886719 9.535156 30.71875 9.535156 29.25 C 9.535156 25.941406 12.074219 23.179688 15.304688 23.179688 Z M 15.304688 23.179688 "/>
<path style=" stroke:none;fill-rule:nonzero;fill:rgb(0%,0%,0%);fill-opacity:1;" d="M 58.691406 4.574219 C 60.058594 4.574219 61.375 5.273438 61.375 6.789062 C 61.375 8.554688 60.007812 9.800781 58.839844 10.496094 C 57.96875 11.019531 56.972656 11.339844 55.953125 11.339844 C 54.585938 11.339844 53.269531 10.644531 53.269531 9.128906 C 53.269531 7.363281 54.636719 6.117188 55.804688 5.421875 C 56.675781 4.898438 57.671875 4.574219 58.691406 4.574219 Z M 58.691406 4.574219 "/>
<path style=" stroke:none;fill-rule:nonzero;fill:rgb(0%,0%,0%);fill-opacity:1;" d="M 58.691406 10.792969 C 60.058594 10.792969 61.375 11.492188 61.375 13.007812 C 61.375 14.773438 60.007812 16.015625 58.839844 16.714844 C 57.96875 17.234375 56.972656 17.558594 55.953125 17.558594 C 54.585938 17.558594 53.269531 16.863281 53.269531 15.347656 C 53.269531 13.578125 54.636719 12.335938 55.804688 11.640625 C 56.675781 11.117188 57.671875 10.792969 58.691406 10.792969 Z M 58.691406 10.792969 "/>
<path style=" stroke:none;fill-rule:nonzero;fill:rgb(0%,0%,0%);fill-opacity:1;" d="M 58.691406 17.011719 C 60.058594 17.011719 61.375 17.707031 61.375 19.226562 C 61.375 20.992188 60.007812 22.234375 58.839844 22.933594 C 57.96875 23.453125 56.972656 23.777344 55.953125 23.777344 C 54.585938 23.777344 53.269531 23.082031 53.269531 21.5625 C 53.269531 19.796875 54.636719 18.554688 55.804688 17.859375 C 56.675781 17.335938 57.671875 17.011719 58.691406 17.011719 Z M 58.691406 17.011719 "/>
</g>
</svg>
