<?xml version="1.0" encoding="UTF-8"?>
<svg xmlns="http://www.w3.org/2000/svg" xmlns:xlink="http://www.w3.org/1999/xlink" width="89.256447pt" height="57.599598pt" viewBox="0 0 89.256447 57.599598" version="1.1">
<g id="surface1">
<path style="fill:none;stroke-width:0.1;stroke-linecap:round;stroke-linejoin:round;stroke:rgb(0%,0%,0%);stroke-opacity:1;stroke-miterlimit:4;" d="M 0.049863 -0.0000416676 L 11.881408 -0.0000416676 " transform="matrix(6.218149,0,0,6.218149,4.561038,39.812759)"/>
<path style="fill:none;stroke-width:0.1;stroke-linecap:round;stroke-linejoin:round;stroke:rgb(0%,0%,0%);stroke-opacity:1;stroke-miterlimit:4;" d="M 0.049863 -0.000138316 L 11.881408 -0.000138316 " transform="matrix(6.218149,0,0,6.218149,4.561038,33.59461)"/>
<path style="fill:none;stroke-width:0.1;stroke-linecap:round;stroke-linejoin:round;stroke:rgb(0%,0%,0%);stroke-opacity:1;stroke-miterlimit:4;" d="M 0.049863 -0.000234965 L 11.881408 -0.000234965 " transform="matrix(6.218149,0,0,6.218149,4.561038,27.376461)"/>
<path style="fill:none;stroke-width:0.1;stroke-linecap:round;stroke-linejoin:round;stroke:rgb(0%,0%,0%);stroke-opacity:1;stroke-miterlimit:4;" d="M 0.049863 0.000296588 L 11.881408 0.000296588 " transform="matrix(6.218149,0,0,6.218149,4.561038,21.158312)"/>
<path style="fill:none;stroke-width:0.1;stroke-linecap:round;stroke-linejoin:round;stroke:rgb(0%,0%,0%);stroke-opacity:1;stroke-miterlimit:4;" d="M 0.049863 0.000199939 L 11.881408 0.000199939 " transform="matrix(6.218149,0,0,6.218149,4.561038,14.940163)"/>
<path style=" stroke:none;fill-rule:nonzero;fill:rgb(0%,0%,0%);fill-opacity:1;" d="M 67.636719 4.578125 L 67.945312 4.578125 C 68.082031 4.578125 68.195312 4.6875 68.195312 4.824219 L 68.195312 38.40625 C 68.195312 38.542969 68.082031 38.65625 67.945312 38.65625 L 67.636719 38.65625 C 67.5 38.65625 67.386719 38.542969 67.386719 38.40625 L 67.386719 4.824219 C 67.386719 4.6875 67.5 4.578125 67.636719 4.578125 Z M 67.636719 4.578125 "/>
<path style=" stroke:none;fill-rule:nonzero;fill:rgb(0%,0%,0%);fill-opacity:1;" d="M 56.441406 32.027344 C 56.441406 32.277344 56.242188 32.5 55.992188 32.5 C 55.746094 32.5 55.519531 32.277344 55.519531 32.027344 L 55.519531 28.421875 L 53.457031 29.191406 L 53.457031 33.121094 C 53.457031 33.371094 53.234375 33.59375 52.984375 33.59375 C 52.734375 33.59375 52.535156 33.371094 52.535156 33.121094 L 52.535156 29.515625 L 51.742188 29.8125 C 51.691406 29.839844 51.617188 29.839844 51.566406 29.839844 C 51.292969 29.839844 51.070312 29.613281 51.070312 29.339844 L 51.070312 27.847656 C 51.070312 27.648438 51.195312 27.449219 51.390625 27.375 L 52.535156 26.976562 L 52.535156 23 L 51.742188 23.273438 C 51.691406 23.296875 51.617188 23.296875 51.566406 23.296875 C 51.292969 23.296875 51.070312 23.074219 51.070312 22.800781 L 51.070312 21.308594 C 51.070312 21.109375 51.195312 20.933594 51.390625 20.859375 L 52.535156 20.4375 L 52.535156 16.507812 C 52.535156 16.257812 52.734375 16.035156 52.984375 16.035156 C 53.234375 16.035156 53.457031 16.257812 53.457031 16.507812 L 53.457031 20.113281 L 55.519531 19.34375 L 55.519531 15.414062 C 55.519531 15.164062 55.746094 14.941406 55.992188 14.941406 C 56.242188 14.941406 56.441406 15.164062 56.441406 15.414062 L 56.441406 19.019531 L 57.238281 18.722656 C 57.289062 18.695312 57.363281 18.695312 57.410156 18.695312 C 57.683594 18.695312 57.910156 18.917969 57.910156 19.195312 L 57.910156 20.6875 C 57.910156 20.882812 57.785156 21.082031 57.585938 21.160156 L 56.441406 21.554688 L 56.441406 25.535156 L 57.238281 25.261719 C 57.289062 25.238281 57.363281 25.238281 57.410156 25.238281 C 57.683594 25.238281 57.910156 25.460938 57.910156 25.734375 L 57.910156 27.226562 C 57.910156 27.425781 57.785156 27.601562 57.585938 27.675781 L 56.441406 28.097656 Z M 53.457031 22.652344 L 53.457031 26.628906 L 55.519531 25.882812 L 55.519531 21.90625 Z M 53.457031 22.652344 "/>
<path style=" stroke:none;fill-rule:nonzero;fill:rgb(0%,0%,0%);fill-opacity:1;" d="M 43.410156 35.136719 C 43.410156 35.386719 43.210938 35.609375 42.960938 35.609375 C 42.710938 35.609375 42.488281 35.386719 42.488281 35.136719 L 42.488281 31.53125 L 40.421875 32.300781 L 40.421875 36.230469 C 40.421875 36.480469 40.199219 36.703125 39.949219 36.703125 C 39.703125 36.703125 39.503906 36.480469 39.503906 36.230469 L 39.503906 32.625 L 38.707031 32.921875 C 38.65625 32.949219 38.582031 32.949219 38.535156 32.949219 C 38.257812 32.949219 38.035156 32.722656 38.035156 32.449219 L 38.035156 30.957031 C 38.035156 30.757812 38.160156 30.558594 38.359375 30.484375 L 39.503906 30.085938 L 39.503906 26.109375 L 38.707031 26.382812 C 38.65625 26.40625 38.582031 26.40625 38.535156 26.40625 C 38.257812 26.40625 38.035156 26.183594 38.035156 25.910156 L 38.035156 24.417969 C 38.035156 24.21875 38.160156 24.042969 38.359375 23.96875 L 39.503906 23.546875 L 39.503906 19.617188 C 39.503906 19.367188 39.703125 19.144531 39.949219 19.144531 C 40.199219 19.144531 40.421875 19.367188 40.421875 19.617188 L 40.421875 23.222656 L 42.488281 22.453125 L 42.488281 18.523438 C 42.488281 18.273438 42.710938 18.050781 42.960938 18.050781 C 43.210938 18.050781 43.410156 18.273438 43.410156 18.523438 L 43.410156 22.128906 L 44.203125 21.828125 C 44.253906 21.804688 44.328125 21.804688 44.378906 21.804688 C 44.652344 21.804688 44.875 22.027344 44.875 22.300781 L 44.875 23.792969 C 44.875 23.992188 44.75 24.191406 44.550781 24.265625 L 43.410156 24.664062 L 43.410156 28.644531 L 44.203125 28.371094 C 44.253906 28.347656 44.328125 28.347656 44.378906 28.347656 C 44.652344 28.347656 44.875 28.570312 44.875 28.84375 L 44.875 30.335938 C 44.875 30.535156 44.75 30.710938 44.550781 30.785156 L 43.410156 31.207031 Z M 40.421875 25.757812 L 40.421875 29.738281 L 42.488281 28.992188 L 42.488281 25.011719 Z M 40.421875 25.757812 "/>
<path style=" stroke:none;fill-rule:nonzero;fill:rgb(0%,0%,0%);fill-opacity:1;" d="M 35.324219 41.355469 C 35.324219 41.605469 35.125 41.828125 34.878906 41.828125 C 34.628906 41.828125 34.40625 41.605469 34.40625 41.355469 L 34.40625 37.75 L 32.339844 38.519531 L 32.339844 42.449219 C 32.339844 42.699219 32.117188 42.921875 31.867188 42.921875 C 31.617188 42.921875 31.417969 42.699219 31.417969 42.449219 L 31.417969 38.84375 L 30.625 39.140625 C 30.574219 39.167969 30.5 39.167969 30.449219 39.167969 C 30.175781 39.167969 29.953125 38.941406 29.953125 38.667969 L 29.953125 37.175781 C 29.953125 36.976562 30.078125 36.777344 30.277344 36.703125 L 31.417969 36.304688 L 31.417969 32.324219 L 30.625 32.601562 C 30.574219 32.625 30.5 32.625 30.449219 32.625 C 30.175781 32.625 29.953125 32.402344 29.953125 32.128906 L 29.953125 30.636719 C 29.953125 30.4375 30.078125 30.261719 30.277344 30.1875 L 31.417969 29.765625 L 31.417969 25.835938 C 31.417969 25.585938 31.617188 25.363281 31.867188 25.363281 C 32.117188 25.363281 32.339844 25.585938 32.339844 25.835938 L 32.339844 29.441406 L 34.40625 28.667969 L 34.40625 24.738281 C 34.40625 24.492188 34.628906 24.265625 34.878906 24.265625 C 35.125 24.265625 35.324219 24.492188 35.324219 24.738281 L 35.324219 28.347656 L 36.121094 28.046875 C 36.171875 28.023438 36.246094 28.023438 36.292969 28.023438 C 36.566406 28.023438 36.792969 28.246094 36.792969 28.519531 L 36.792969 30.011719 C 36.792969 30.210938 36.667969 30.410156 36.46875 30.484375 L 35.324219 30.882812 L 35.324219 34.863281 L 36.121094 34.589844 C 36.171875 34.566406 36.246094 34.566406 36.292969 34.566406 C 36.566406 34.566406 36.792969 34.789062 36.792969 35.0625 L 36.792969 36.554688 C 36.792969 36.753906 36.667969 36.925781 36.46875 37.003906 L 35.324219 37.425781 Z M 32.339844 31.976562 L 32.339844 35.957031 L 34.40625 35.210938 L 34.40625 31.230469 Z M 32.339844 31.976562 "/>
<path style=" stroke:none;fill-rule:nonzero;fill:rgb(0%,0%,0%);fill-opacity:1;" d="M 49.851562 47.574219 C 49.851562 47.820312 49.652344 48.046875 49.402344 48.046875 C 49.152344 48.046875 48.929688 47.820312 48.929688 47.574219 L 48.929688 43.964844 L 46.867188 44.738281 L 46.867188 48.667969 C 46.867188 48.917969 46.640625 49.140625 46.394531 49.140625 C 46.144531 49.140625 45.945312 48.917969 45.945312 48.667969 L 45.945312 45.0625 L 45.148438 45.359375 C 45.101562 45.382812 45.023438 45.382812 44.976562 45.382812 C 44.703125 45.382812 44.476562 45.160156 44.476562 44.886719 L 44.476562 43.394531 C 44.476562 43.195312 44.601562 42.996094 44.800781 42.921875 L 45.945312 42.523438 L 45.945312 38.542969 L 45.148438 38.816406 C 45.101562 38.84375 45.023438 38.84375 44.976562 38.84375 C 44.703125 38.84375 44.476562 38.617188 44.476562 38.34375 L 44.476562 36.851562 C 44.476562 36.652344 44.601562 36.480469 44.800781 36.40625 L 45.945312 35.980469 L 45.945312 32.050781 C 45.945312 31.804688 46.144531 31.578125 46.394531 31.578125 C 46.640625 31.578125 46.867188 31.804688 46.867188 32.050781 L 46.867188 35.660156 L 48.929688 34.886719 L 48.929688 30.957031 C 48.929688 30.710938 49.152344 30.484375 49.402344 30.484375 C 49.652344 30.484375 49.851562 30.710938 49.851562 30.957031 L 49.851562 34.566406 L 50.644531 34.265625 C 50.695312 34.242188 50.769531 34.242188 50.820312 34.242188 C 51.09375 34.242188 51.316406 34.464844 51.316406 34.738281 L 51.316406 36.230469 C 51.316406 36.429688 51.195312 36.628906 50.996094 36.703125 L 49.851562 37.101562 L 49.851562 41.082031 L 50.644531 40.808594 C 50.695312 40.78125 50.769531 40.78125 50.820312 40.78125 C 51.09375 40.78125 51.316406 41.007812 51.316406 41.28125 L 51.316406 42.773438 C 51.316406 42.972656 51.195312 43.144531 50.996094 43.21875 L 49.851562 43.644531 Z M 46.867188 38.195312 L 46.867188 42.175781 L 48.929688 41.429688 L 48.929688 37.449219 Z M 46.867188 38.195312 "/>
<path style=" stroke:none;fill-rule:nonzero;fill:rgb(0%,0%,0%);fill-opacity:1;" d="M 23.390625 24.265625 C 23.390625 23.570312 23.960938 23 24.65625 23 C 25.355469 23 25.925781 23.570312 25.925781 24.265625 C 25.925781 24.964844 25.355469 25.535156 24.65625 25.535156 C 23.960938 25.535156 23.390625 24.964844 23.390625 24.265625 Z M 23.390625 18.050781 C 23.390625 17.351562 23.960938 16.78125 24.65625 16.78125 C 25.355469 16.78125 25.925781 17.351562 25.925781 18.050781 C 25.925781 18.746094 25.355469 19.316406 24.65625 19.316406 C 23.960938 19.316406 23.390625 18.746094 23.390625 18.050781 Z M 15.304688 14.617188 C 19.585938 14.617188 22.59375 16.804688 22.59375 20.859375 C 22.59375 27.402344 16.050781 31.15625 9.757812 33.820312 C 9.683594 33.894531 9.609375 33.917969 9.535156 33.917969 C 9.363281 33.917969 9.210938 33.769531 9.210938 33.59375 C 9.210938 33.519531 9.238281 33.445312 9.3125 33.371094 C 14.335938 30.4375 19.558594 26.78125 19.558594 21.109375 C 19.558594 18.125 17.992188 15.261719 15.304688 15.261719 C 13.464844 15.261719 12.097656 16.605469 11.476562 18.398438 C 11.75 18.273438 12.023438 18.199219 12.320312 18.199219 C 13.6875 18.199219 14.808594 19.316406 14.808594 20.6875 C 14.808594 22.128906 13.714844 23.320312 12.320312 23.320312 C 10.828125 23.320312 9.535156 22.152344 9.535156 20.6875 C 9.535156 17.378906 12.074219 14.617188 15.304688 14.617188 Z M 15.304688 14.617188 "/>
<path style=" stroke:none;fill-rule:nonzero;fill:rgb(0%,0%,0%);fill-opacity:1;" d="M 73.214844 20.882812 C 74.582031 20.882812 75.898438 21.582031 75.898438 23.097656 C 75.898438 24.863281 74.53125 26.109375 73.363281 26.804688 C 72.492188 27.328125 71.496094 27.648438 70.476562 27.648438 C 69.109375 27.648438 67.789062 26.953125 67.789062 25.4375 C 67.789062 23.671875 69.160156 22.425781 70.328125 21.730469 C 71.199219 21.207031 72.191406 20.882812 73.214844 20.882812 Z M 73.214844 20.882812 "/>
<path style=" stroke:none;fill-rule:nonzero;fill:rgb(0%,0%,0%);fill-opacity:1;" d="M 65.507812 23.992188 C 66.875 23.992188 68.195312 24.691406 68.195312 26.207031 C 68.195312 27.972656 66.824219 29.21875 65.65625 29.914062 C 64.785156 30.4375 63.792969 30.757812 62.773438 30.757812 C 61.402344 30.757812 60.085938 30.0625 60.085938 28.546875 C 60.085938 26.78125 61.453125 25.535156 62.621094 24.839844 C 63.492188 24.316406 64.488281 23.992188 65.507812 23.992188 Z M 65.507812 23.992188 "/>
<path style=" stroke:none;fill-rule:nonzero;fill:rgb(0%,0%,0%);fill-opacity:1;" d="M 65.507812 30.210938 C 66.875 30.210938 68.195312 30.910156 68.195312 32.425781 C 68.195312 34.191406 66.824219 35.433594 65.65625 36.132812 C 64.785156 36.652344 63.792969 36.976562 62.773438 36.976562 C 61.402344 36.976562 60.085938 36.28125 60.085938 34.761719 C 60.085938 32.996094 61.453125 31.753906 62.621094 31.058594 C 63.492188 30.535156 64.488281 30.210938 65.507812 30.210938 Z M 65.507812 30.210938 "/>
<path style=" stroke:none;fill-rule:nonzero;fill:rgb(0%,0%,0%);fill-opacity:1;" d="M 65.507812 36.429688 C 66.875 36.429688 68.195312 37.125 68.195312 38.644531 C 68.195312 40.410156 66.824219 41.652344 65.65625 42.351562 C 64.785156 42.871094 63.792969 43.195312 62.773438 43.195312 C 61.402344 43.195312 60.085938 42.5 60.085938 40.980469 C 60.085938 39.214844 61.453125 37.972656 62.621094 37.277344 C 63.492188 36.753906 64.488281 36.429688 65.507812 36.429688 Z M 65.507812 36.429688 "/>
</g>
</svg>
