<?xml version="1.0" encoding="UTF-8"?>
<svg xmlns="http://www.w3.org/2000/svg" xmlns:xlink="http://www.w3.org/1999/xlink" width="68.472344pt" height="52.24168pt" viewBox="0 0 68.472344 52.24168" version="1.1">
<g id="surface1">
<path style="fill:none;stroke-width:0.1;stroke-linecap:round;stroke-linejoin:round;stroke:rgb(0%,0%,0%);stroke-opacity:1;stroke-miterlimit:4;" d="M 0.049863 0.000143992 L 8.752337 0.000143992 " transform="matrix(6.218149,0,0,6.218149,4.561038,41.01473)"/>
<path style="fill:none;stroke-width:0.1;stroke-linecap:round;stroke-linejoin:round;stroke:rgb(0%,0%,0%);stroke-opacity:1;stroke-miterlimit:4;" d="M 0.049863 0.000047343 L 8.752337 0.000047343 " transform="matrix(6.218149,0,0,6.218149,4.561038,34.796581)"/>
<path style="fill:none;stroke-width:0.1;stroke-linecap:round;stroke-linejoin:round;stroke:rgb(0%,0%,0%);stroke-opacity:1;stroke-miterlimit:4;" d="M 0.049863 -0.0000493056 L 8.752337 -0.0000493056 " transform="matrix(6.218149,0,0,6.218149,4.561038,28.578432)"/>
<path style="fill:none;stroke-width:0.1;stroke-linecap:round;stroke-linejoin:round;stroke:rgb(0%,0%,0%);stroke-opacity:1;stroke-miterlimit:4;" d="M 0.049863 -0.000145716 L 8.752337 -0.000145716 " transform="matrix(6.218149,0,0,6.218149,4.561038,22.360281)"/>
<path style="fill:none;stroke-width:0.1;stroke-linecap:round;stroke-linejoin:round;stroke:rgb(0%,0%,0%);stroke-opacity:1;stroke-miterlimit:4;" d="M 0.049863 -0.000242364 L 8.752337 -0.000242364 " transform="matrix(6.218149,0,0,6.218149,4.561038,16.142132)"/>
<path style=" stroke:none;fill-rule:nonzero;fill:rgb(0%,0%,0%);fill-opacity:1;" d="M 39.21875 9.300781 L 50.140625 9.300781 C 50.484375 9.300781 50.761719 9.582031 50.761719 9.925781 C 50.761719 10.265625 50.484375 10.546875 50.140625 10.546875 L 39.21875 10.546875 C 38.878906 10.546875 38.597656 10.265625 38.597656 9.925781 C 38.597656 9.582031 38.878906 9.300781 39.21875 9.300781 Z M 39.21875 9.300781 "/>
<path style=" stroke:none;fill-rule:nonzero;fill:rgb(0%,0%,0%);fill-opacity:1;" d="M 34.148438 15.121094 L 34.121094 16.765625 L 34.121094 17.039062 C 34.121094 17.585938 34.148438 18.132812 34.222656 18.679688 C 35.339844 17.734375 36.535156 16.6875 36.535156 15.222656 C 36.535156 14.402344 36.1875 13.554688 35.464844 13.554688 C 34.695312 13.554688 34.171875 14.300781 34.148438 15.121094 Z M 33.101562 19.574219 L 32.804688 4.773438 C 33.003906 4.652344 33.25 4.578125 33.476562 4.578125 C 33.699219 4.578125 33.949219 4.652344 34.148438 4.773438 L 33.972656 13.355469 C 34.59375 12.835938 35.414062 12.511719 36.234375 12.511719 C 37.53125 12.511719 38.449219 13.703125 38.449219 15.046875 C 38.449219 17.039062 36.3125 17.957031 34.792969 19.25 C 34.421875 19.574219 34.195312 20.195312 33.675781 20.195312 C 33.351562 20.195312 33.101562 19.921875 33.101562 19.574219 Z M 33.101562 19.574219 "/>
<path style=" stroke:none;fill-rule:nonzero;fill:rgb(0%,0%,0%);fill-opacity:1;" d="M 40.875 11.082031 L 41.1875 11.082031 C 41.324219 11.082031 41.433594 11.191406 41.433594 11.328125 L 41.433594 43.875 C 41.433594 44.011719 41.324219 44.125 41.1875 44.125 L 40.875 44.125 C 40.738281 44.125 40.625 44.011719 40.625 43.875 L 40.625 11.328125 C 40.625 11.191406 40.738281 11.082031 40.875 11.082031 Z M 40.875 11.082031 "/>
<path style=" stroke:none;fill-rule:nonzero;fill:rgb(0%,0%,0%);fill-opacity:1;" d="M 23.390625 25.46875 C 23.390625 24.773438 23.960938 24.199219 24.65625 24.199219 C 25.355469 24.199219 25.925781 24.773438 25.925781 25.46875 C 25.925781 26.164062 25.355469 26.738281 24.65625 26.738281 C 23.960938 26.738281 23.390625 26.164062 23.390625 25.46875 Z M 23.390625 19.25 C 23.390625 18.554688 23.960938 17.984375 24.65625 17.984375 C 25.355469 17.984375 25.925781 18.554688 25.925781 19.25 C 25.925781 19.949219 25.355469 20.519531 24.65625 20.519531 C 23.960938 20.519531 23.390625 19.949219 23.390625 19.25 Z M 15.304688 15.820312 C 19.585938 15.820312 22.59375 18.007812 22.59375 22.0625 C 22.59375 28.601562 16.050781 32.359375 9.757812 35.019531 C 9.683594 35.09375 9.609375 35.121094 9.535156 35.121094 C 9.363281 35.121094 9.210938 34.96875 9.210938 34.796875 C 9.210938 34.722656 9.238281 34.648438 9.3125 34.574219 C 14.335938 31.636719 19.558594 27.980469 19.558594 22.308594 C 19.558594 19.324219 17.992188 16.464844 15.304688 16.464844 C 13.464844 16.464844 12.097656 17.808594 11.476562 19.597656 C 11.75 19.476562 12.023438 19.402344 12.320312 19.402344 C 13.6875 19.402344 14.808594 20.519531 14.808594 21.886719 C 14.808594 23.332031 13.714844 24.523438 12.320312 24.523438 C 10.828125 24.523438 9.535156 23.355469 9.535156 21.886719 C 9.535156 18.578125 12.074219 15.820312 15.304688 15.820312 Z M 15.304688 15.820312 "/>
<path style=" stroke:none;fill-rule:nonzero;fill:rgb(0%,0%,0%);fill-opacity:1;" d="M 46.046875 6.542969 C 47.417969 6.542969 48.734375 7.238281 48.734375 8.753906 C 48.734375 10.519531 47.367188 11.765625 46.199219 12.460938 C 45.328125 12.984375 44.332031 13.308594 43.3125 13.308594 C 41.945312 13.308594 40.625 12.609375 40.625 11.09375 C 40.625 9.328125 41.996094 8.082031 43.164062 7.386719 C 44.035156 6.863281 45.027344 6.542969 46.046875 6.542969 Z M 46.046875 6.542969 "/>
<path style=" stroke:none;fill-rule:nonzero;fill:rgb(0%,0%,0%);fill-opacity:1;" d="M 46.046875 12.757812 C 47.417969 12.757812 48.734375 13.457031 48.734375 14.972656 C 48.734375 16.738281 47.367188 17.984375 46.199219 18.679688 C 45.328125 19.203125 44.332031 19.523438 43.3125 19.523438 C 41.945312 19.523438 40.625 18.828125 40.625 17.3125 C 40.625 15.546875 41.996094 14.300781 43.164062 13.605469 C 44.035156 13.082031 45.027344 12.757812 46.046875 12.757812 Z M 46.046875 12.757812 "/>
<path style=" stroke:none;fill-rule:nonzero;fill:rgb(0%,0%,0%);fill-opacity:1;" d="M 46.046875 18.976562 C 47.417969 18.976562 48.734375 19.675781 48.734375 21.191406 C 48.734375 22.957031 47.367188 24.199219 46.199219 24.898438 C 45.328125 25.417969 44.332031 25.742188 43.3125 25.742188 C 41.945312 25.742188 40.625 25.046875 40.625 23.527344 C 40.625 21.761719 41.996094 20.519531 43.164062 19.824219 C 44.035156 19.300781 45.027344 18.976562 46.046875 18.976562 Z M 46.046875 18.976562 "/>
</g>
</svg>
