<?xml version="1.0" encoding="UTF-8"?>
<svg xmlns="http://www.w3.org/2000/svg" xmlns:xlink="http://www.w3.org/1999/xlink" width="75.798219pt" height="75.753558pt" viewBox="0 0 75.798219 75.753558" version="1.1">
<g id="surface1">
<path style="fill:none;stroke-width:0.1;stroke-linecap:round;stroke-linejoin:round;stroke:rgb(0%,0%,0%);stroke-opacity:1;stroke-miterlimit:4;" d="M 0.049863 -0.000242111 L 9.855459 -0.000242111 " transform="matrix(6.218149,0,0,6.218149,4.561038,56.560099)"/>
<path style="fill:none;stroke-width:0.1;stroke-linecap:round;stroke-linejoin:round;stroke:rgb(0%,0%,0%);stroke-opacity:1;stroke-miterlimit:4;" d="M 0.049863 0.000289441 L 9.855459 0.000289441 " transform="matrix(6.218149,0,0,6.218149,4.561038,50.34195)"/>
<path style="fill:none;stroke-width:0.1;stroke-linecap:round;stroke-linejoin:round;stroke:rgb(0%,0%,0%);stroke-opacity:1;stroke-miterlimit:4;" d="M 0.049863 0.000192316 L 9.855459 0.000192316 " transform="matrix(6.218149,0,0,6.218149,4.561038,44.123804)"/>
<path style="fill:none;stroke-width:0.1;stroke-linecap:round;stroke-linejoin:round;stroke:rgb(0%,0%,0%);stroke-opacity:1;stroke-miterlimit:4;" d="M 0.049863 0.0000956673 L 9.855459 0.0000956673 " transform="matrix(6.218149,0,0,6.218149,4.561038,37.905655)"/>
<path style="fill:none;stroke-width:0.1;stroke-linecap:round;stroke-linejoin:round;stroke:rgb(0%,0%,0%);stroke-opacity:1;stroke-miterlimit:4;" d="M 0.049863 -0.000000981293 L 9.855459 -0.000000981293 " transform="matrix(6.218149,0,0,6.218149,4.561038,31.687506)"/>
<path style=" stroke:none;fill-rule:nonzero;fill:rgb(0%,0%,0%);fill-opacity:1;" d="M 47.019531 18.628906 L 57 18.628906 C 57.34375 18.628906 57.621094 18.90625 57.621094 19.25 C 57.621094 19.59375 57.34375 19.871094 57 19.871094 L 47.019531 19.871094 C 46.675781 19.871094 46.398438 19.59375 46.398438 19.25 C 46.398438 18.90625 46.675781 18.628906 47.019531 18.628906 Z M 47.019531 18.628906 "/>
<path style=" stroke:none;fill-rule:nonzero;fill:rgb(0%,0%,0%);fill-opacity:1;" d="M 46.078125 24.847656 L 57 24.847656 C 57.34375 24.847656 57.621094 25.125 57.621094 25.46875 C 57.621094 25.8125 57.34375 26.089844 57 26.089844 L 46.078125 26.089844 C 45.734375 26.089844 45.457031 25.8125 45.457031 25.46875 C 45.457031 25.125 45.734375 24.847656 46.078125 24.847656 Z M 46.078125 24.847656 "/>
<path style=" stroke:none;fill-rule:nonzero;fill:rgb(0%,0%,0%);fill-opacity:1;" d="M 47.734375 17.300781 L 48.042969 17.300781 C 48.183594 17.300781 48.292969 17.410156 48.292969 17.546875 L 48.292969 50.09375 C 48.292969 50.230469 48.183594 50.34375 48.042969 50.34375 L 47.734375 50.34375 C 47.597656 50.34375 47.484375 50.230469 47.484375 50.09375 L 47.484375 17.546875 C 47.484375 17.410156 47.597656 17.300781 47.734375 17.300781 Z M 47.734375 17.300781 "/>
<path style=" stroke:none;fill-rule:nonzero;fill:rgb(0%,0%,0%);fill-opacity:1;" d="M 41.003906 15.121094 L 40.980469 16.765625 L 40.980469 17.039062 C 40.980469 17.585938 41.003906 18.132812 41.082031 18.679688 C 42.199219 17.734375 43.394531 16.6875 43.394531 15.222656 C 43.394531 14.402344 43.046875 13.554688 42.324219 13.554688 C 41.554688 13.554688 41.03125 14.300781 41.003906 15.121094 Z M 39.960938 19.574219 L 39.664062 4.773438 C 39.863281 4.652344 40.109375 4.578125 40.335938 4.578125 C 40.558594 4.578125 40.804688 4.652344 41.003906 4.773438 L 40.832031 13.355469 C 41.453125 12.835938 42.273438 12.511719 43.09375 12.511719 C 44.386719 12.511719 45.308594 13.703125 45.308594 15.046875 C 45.308594 17.039062 43.167969 17.957031 41.652344 19.25 C 41.277344 19.574219 41.054688 20.195312 40.53125 20.195312 C 40.210938 20.195312 39.960938 19.921875 39.960938 19.574219 Z M 39.960938 19.574219 "/>
<path style=" stroke:none;fill-rule:nonzero;fill:rgb(0%,0%,0%);fill-opacity:1;" d="M 30.632812 21.339844 L 30.609375 22.980469 L 30.609375 23.253906 C 30.609375 23.804688 30.632812 24.351562 30.707031 24.898438 C 31.828125 23.953125 33.023438 22.90625 33.023438 21.441406 C 33.023438 20.621094 32.671875 19.773438 31.953125 19.773438 C 31.179688 19.773438 30.660156 20.519531 30.632812 21.339844 Z M 29.589844 25.792969 L 29.289062 10.992188 C 29.488281 10.871094 29.738281 10.792969 29.960938 10.792969 C 30.1875 10.792969 30.433594 10.871094 30.632812 10.992188 L 30.460938 19.574219 C 31.082031 19.050781 31.902344 18.730469 32.722656 18.730469 C 34.015625 18.730469 34.9375 19.921875 34.9375 21.265625 C 34.9375 23.253906 32.796875 24.175781 31.28125 25.46875 C 30.90625 25.792969 30.683594 26.414062 30.160156 26.414062 C 29.835938 26.414062 29.589844 26.140625 29.589844 25.792969 Z M 29.589844 25.792969 "/>
<path style=" stroke:none;fill-rule:nonzero;fill:rgb(0%,0%,0%);fill-opacity:1;" d="M 37.523438 27.558594 L 37.5 29.199219 L 37.5 29.472656 C 37.5 30.019531 37.523438 30.566406 37.597656 31.117188 C 38.71875 30.171875 39.910156 29.125 39.910156 27.65625 C 39.910156 26.835938 39.5625 25.992188 38.839844 25.992188 C 38.070312 25.992188 37.546875 26.738281 37.523438 27.558594 Z M 36.480469 32.011719 L 36.179688 17.210938 C 36.378906 17.085938 36.628906 17.011719 36.851562 17.011719 C 37.074219 17.011719 37.324219 17.085938 37.523438 17.210938 L 37.347656 25.792969 C 37.972656 25.269531 38.792969 24.945312 39.613281 24.945312 C 40.90625 24.945312 41.828125 26.140625 41.828125 27.484375 C 41.828125 29.472656 39.6875 30.394531 38.171875 31.6875 C 37.796875 32.011719 37.574219 32.632812 37.050781 32.632812 C 36.726562 32.632812 36.480469 32.359375 36.480469 32.011719 Z M 36.480469 32.011719 "/>
<path style=" stroke:none;fill-rule:nonzero;fill:rgb(0%,0%,0%);fill-opacity:1;" d="M 16.152344 66.136719 L 16.003906 66.136719 C 13.316406 66.136719 11.152344 63.945312 11.152344 61.234375 C 11.152344 59.792969 12.46875 58.675781 13.9375 58.675781 C 15.28125 58.675781 16.300781 59.84375 16.300781 61.234375 C 16.300781 62.53125 15.230469 63.597656 13.9375 63.597656 C 13.664062 63.597656 13.414062 63.550781 13.167969 63.449219 C 13.8125 64.417969 14.859375 65.066406 16.078125 65.066406 L 16.175781 65.066406 Z M 21 55.390625 C 22.691406 54.792969 23.8125 53.027344 23.8125 51.3125 C 23.8125 49.074219 22.171875 46.859375 19.507812 46.585938 C 20.105469 49.472656 20.652344 52.332031 21 55.390625 Z M 11.375 49.644531 C 11.375 53.003906 14.585938 55.789062 17.941406 55.789062 C 18.640625 55.789062 19.308594 55.738281 19.980469 55.640625 C 19.632812 52.480469 19.0625 49.546875 18.414062 46.585938 C 16.449219 46.785156 15.332031 48.101562 15.332031 49.546875 C 15.332031 50.640625 15.953125 51.808594 17.34375 52.605469 C 17.46875 52.730469 17.519531 52.855469 17.519531 52.976562 C 17.519531 53.253906 17.269531 53.527344 16.972656 53.527344 C 16.898438 53.527344 16.824219 53.5 16.75 53.476562 C 14.757812 52.40625 13.839844 50.617188 13.839844 48.875 C 13.839844 46.6875 15.28125 44.546875 17.816406 43.972656 C 17.46875 42.53125 17.097656 41.066406 16.675781 39.621094 C 14.011719 42.632812 11.375 45.664062 11.375 49.644531 Z M 17.867188 56.859375 C 13.191406 56.859375 9.585938 52.582031 9.585938 47.554688 C 9.585938 43.152344 12.84375 39.945312 15.753906 36.585938 C 15.28125 35.046875 14.832031 33.476562 14.632812 31.863281 C 14.484375 30.566406 14.460938 29.273438 14.460938 27.980469 C 14.460938 25.121094 15.828125 22.410156 18.167969 20.71875 C 18.316406 20.59375 18.515625 20.59375 18.664062 20.71875 C 20.429688 22.808594 21.972656 26.8125 21.972656 29.625 C 21.972656 33.179688 19.832031 35.964844 17.496094 38.675781 C 18.015625 40.367188 18.464844 42.109375 18.886719 43.824219 C 18.988281 43.824219 19.113281 43.800781 19.210938 43.800781 C 23.066406 43.800781 25.578125 46.984375 25.578125 50.292969 C 25.578125 52.183594 24.757812 54.121094 22.917969 55.515625 C 22.371094 55.9375 21.746094 56.210938 21.101562 56.410156 C 21.175781 57.28125 21.226562 58.152344 21.226562 59.023438 C 21.226562 59.496094 21.199219 59.992188 21.175781 60.464844 C 21 63.425781 18.988281 66.0625 16.152344 66.136719 L 16.175781 65.066406 C 18.488281 65.015625 19.980469 62.777344 20.132812 60.316406 C 20.15625 59.867188 20.179688 59.394531 20.179688 58.949219 C 20.179688 58.175781 20.15625 57.429688 20.082031 56.660156 C 19.359375 56.785156 18.640625 56.859375 17.867188 56.859375 Z M 20.179688 27.558594 C 20.179688 26.191406 20.082031 25.59375 19.683594 24.351562 C 17.222656 25.542969 15.652344 28.054688 15.652344 30.792969 C 15.652344 32.632812 16.101562 34.101562 16.550781 35.617188 C 18.539062 33.203125 20.179688 30.691406 20.179688 27.558594 Z M 20.179688 27.558594 "/>
<path style=" stroke:none;fill-rule:nonzero;fill:rgb(0%,0%,0%);fill-opacity:1;" d="M 52.90625 12.757812 C 54.273438 12.757812 55.59375 13.457031 55.59375 14.972656 C 55.59375 16.738281 54.226562 17.984375 53.054688 18.679688 C 52.1875 19.203125 51.191406 19.523438 50.171875 19.523438 C 48.804688 19.523438 47.484375 18.828125 47.484375 17.3125 C 47.484375 15.546875 48.851562 14.300781 50.023438 13.605469 C 50.890625 13.082031 51.886719 12.757812 52.90625 12.757812 Z M 52.90625 12.757812 "/>
<path style=" stroke:none;fill-rule:nonzero;fill:rgb(0%,0%,0%);fill-opacity:1;" d="M 52.90625 18.976562 C 54.273438 18.976562 55.59375 19.675781 55.59375 21.191406 C 55.59375 22.957031 54.226562 24.199219 53.054688 24.898438 C 52.1875 25.417969 51.191406 25.742188 50.171875 25.742188 C 48.804688 25.742188 47.484375 25.046875 47.484375 23.527344 C 47.484375 21.761719 48.851562 20.519531 50.023438 19.824219 C 50.890625 19.300781 51.886719 18.976562 52.90625 18.976562 Z M 52.90625 18.976562 "/>
<path style=" stroke:none;fill-rule:nonzero;fill:rgb(0%,0%,0%);fill-opacity:1;" d="M 52.90625 25.195312 C 54.273438 25.195312 55.59375 25.890625 55.59375 27.410156 C 55.59375 29.175781 54.226562 30.417969 53.054688 31.117188 C 52.1875 31.636719 51.191406 31.960938 50.171875 31.960938 C 48.804688 31.960938 47.484375 31.265625 47.484375 29.746094 C 47.484375 27.980469 48.851562 26.738281 50.023438 26.042969 C 50.890625 25.519531 51.886719 25.195312 52.90625 25.195312 Z M 52.90625 25.195312 "/>
</g>
</svg>
