<?xml version="1.0" encoding="UTF-8"?>
<svg xmlns="http://www.w3.org/2000/svg" xmlns:xlink="http://www.w3.org/1999/xlink" width="81.616415pt" height="58.61114pt" viewBox="0 0 81.616415 58.61114" version="1.1">
<g id="surface1">
<path style="fill:none;stroke-width:0.1;stroke-linecap:round;stroke-linejoin:round;stroke:rgb(0%,0%,0%);stroke-opacity:1;stroke-miterlimit:4;" d="M 0.049863 -0.000287501 L 10.731172 -0.000287501 " transform="matrix(6.218149,0,0,6.218149,4.561038,40.517413)"/>
<path style="fill:none;stroke-width:0.1;stroke-linecap:round;stroke-linejoin:round;stroke:rgb(0%,0%,0%);stroke-opacity:1;stroke-miterlimit:4;" d="M 0.049863 0.000244052 L 10.731172 0.000244052 " transform="matrix(6.218149,0,0,6.218149,4.561038,34.299264)"/>
<path style="fill:none;stroke-width:0.1;stroke-linecap:round;stroke-linejoin:round;stroke:rgb(0%,0%,0%);stroke-opacity:1;stroke-miterlimit:4;" d="M 0.049863 0.000147403 L 10.731172 0.000147403 " transform="matrix(6.218149,0,0,6.218149,4.561038,28.081115)"/>
<path style="fill:none;stroke-width:0.1;stroke-linecap:round;stroke-linejoin:round;stroke:rgb(0%,0%,0%);stroke-opacity:1;stroke-miterlimit:4;" d="M 0.049863 0.0000507548 L 10.731172 0.0000507548 " transform="matrix(6.218149,0,0,6.218149,4.561038,21.862966)"/>
<path style="fill:none;stroke-width:0.1;stroke-linecap:round;stroke-linejoin:round;stroke:rgb(0%,0%,0%);stroke-opacity:1;stroke-miterlimit:4;" d="M 0.049863 -0.0000458938 L 10.731172 -0.0000458938 " transform="matrix(6.218149,0,0,6.218149,4.561038,15.644817)"/>
<path style=" stroke:none;fill-rule:nonzero;fill:rgb(0%,0%,0%);fill-opacity:1;" d="M 60.480469 7.355469 L 60.792969 7.355469 C 60.929688 7.355469 61.042969 7.464844 61.042969 7.601562 L 61.042969 39.113281 C 61.042969 39.25 60.929688 39.359375 60.792969 39.359375 L 60.480469 39.359375 C 60.34375 39.359375 60.234375 39.25 60.234375 39.113281 L 60.234375 7.601562 C 60.234375 7.464844 60.34375 7.355469 60.480469 7.355469 Z M 60.480469 7.355469 "/>
<path style=" stroke:none;fill-rule:nonzero;fill:rgb(0%,0%,0%);fill-opacity:1;" d="M 49.289062 35.839844 C 49.289062 36.089844 49.089844 36.3125 48.839844 36.3125 C 48.589844 36.3125 48.367188 36.089844 48.367188 35.839844 L 48.367188 32.234375 L 46.304688 33.007812 L 46.304688 36.9375 C 46.304688 37.183594 46.078125 37.410156 45.832031 37.410156 C 45.582031 37.410156 45.382812 37.183594 45.382812 36.9375 L 45.382812 33.328125 L 44.585938 33.628906 C 44.539062 33.652344 44.464844 33.652344 44.414062 33.652344 C 44.140625 33.652344 43.914062 33.429688 43.914062 33.15625 L 43.914062 31.664062 C 43.914062 31.464844 44.039062 31.265625 44.238281 31.191406 L 45.382812 30.792969 L 45.382812 26.8125 L 44.585938 27.085938 C 44.539062 27.109375 44.464844 27.109375 44.414062 27.109375 C 44.140625 27.109375 43.914062 26.886719 43.914062 26.613281 L 43.914062 25.121094 C 43.914062 24.921875 44.039062 24.75 44.238281 24.671875 L 45.382812 24.25 L 45.382812 20.320312 C 45.382812 20.070312 45.582031 19.847656 45.832031 19.847656 C 46.078125 19.847656 46.304688 20.070312 46.304688 20.320312 L 46.304688 23.925781 L 48.367188 23.15625 L 48.367188 19.226562 C 48.367188 18.976562 48.589844 18.753906 48.839844 18.753906 C 49.089844 18.753906 49.289062 18.976562 49.289062 19.226562 L 49.289062 22.832031 L 50.085938 22.535156 C 50.132812 22.507812 50.207031 22.507812 50.257812 22.507812 C 50.53125 22.507812 50.753906 22.734375 50.753906 23.007812 L 50.753906 24.5 C 50.753906 24.699219 50.632812 24.898438 50.433594 24.972656 L 49.289062 25.371094 L 49.289062 29.351562 L 50.085938 29.074219 C 50.132812 29.050781 50.207031 29.050781 50.257812 29.050781 C 50.53125 29.050781 50.753906 29.273438 50.753906 29.546875 L 50.753906 31.039062 C 50.753906 31.238281 50.632812 31.414062 50.433594 31.488281 L 49.289062 31.910156 Z M 46.304688 26.464844 L 46.304688 30.445312 L 48.367188 29.699219 L 48.367188 25.71875 Z M 46.304688 26.464844 "/>
<path style=" stroke:none;fill-rule:nonzero;fill:rgb(0%,0%,0%);fill-opacity:1;" d="M 34.589844 42.058594 C 34.589844 42.308594 34.390625 42.53125 34.140625 42.53125 C 33.890625 42.53125 33.667969 42.308594 33.667969 42.058594 L 33.667969 38.453125 L 31.605469 39.222656 L 31.605469 43.152344 C 31.605469 43.402344 31.378906 43.625 31.132812 43.625 C 30.882812 43.625 30.683594 43.402344 30.683594 43.152344 L 30.683594 39.546875 L 29.886719 39.847656 C 29.835938 39.871094 29.761719 39.871094 29.714844 39.871094 C 29.441406 39.871094 29.214844 39.648438 29.214844 39.375 L 29.214844 37.882812 C 29.214844 37.683594 29.339844 37.484375 29.539062 37.410156 L 30.683594 37.011719 L 30.683594 33.03125 L 29.886719 33.304688 C 29.835938 33.328125 29.761719 33.328125 29.714844 33.328125 C 29.441406 33.328125 29.214844 33.105469 29.214844 32.832031 L 29.214844 31.339844 C 29.214844 31.140625 29.339844 30.964844 29.539062 30.890625 L 30.683594 30.46875 L 30.683594 26.539062 C 30.683594 26.289062 30.882812 26.066406 31.132812 26.066406 C 31.378906 26.066406 31.605469 26.289062 31.605469 26.539062 L 31.605469 30.144531 L 33.667969 29.375 L 33.667969 25.445312 C 33.667969 25.195312 33.890625 24.972656 34.140625 24.972656 C 34.390625 24.972656 34.589844 25.195312 34.589844 25.445312 L 34.589844 29.050781 L 35.382812 28.753906 C 35.433594 28.726562 35.507812 28.726562 35.558594 28.726562 C 35.832031 28.726562 36.054688 28.953125 36.054688 29.226562 L 36.054688 30.71875 C 36.054688 30.917969 35.929688 31.117188 35.734375 31.191406 L 34.589844 31.589844 L 34.589844 35.566406 L 35.382812 35.292969 C 35.433594 35.269531 35.507812 35.269531 35.558594 35.269531 C 35.832031 35.269531 36.054688 35.492188 36.054688 35.765625 L 36.054688 37.257812 C 36.054688 37.457031 35.929688 37.632812 35.734375 37.707031 L 34.589844 38.128906 Z M 31.605469 32.683594 L 31.605469 36.664062 L 33.667969 35.914062 L 33.667969 31.9375 Z M 31.605469 32.683594 "/>
<path style=" stroke:none;fill-rule:nonzero;fill:rgb(0%,0%,0%);fill-opacity:1;" d="M 42.671875 48.277344 C 42.671875 48.527344 42.472656 48.75 42.222656 48.75 C 41.976562 48.75 41.75 48.527344 41.75 48.277344 L 41.75 44.671875 L 39.6875 45.441406 L 39.6875 49.371094 C 39.6875 49.621094 39.464844 49.84375 39.214844 49.84375 C 38.964844 49.84375 38.765625 49.621094 38.765625 49.371094 L 38.765625 45.765625 L 37.972656 46.0625 C 37.921875 46.089844 37.847656 46.089844 37.796875 46.089844 C 37.523438 46.089844 37.300781 45.863281 37.300781 45.589844 L 37.300781 44.097656 C 37.300781 43.898438 37.425781 43.699219 37.621094 43.625 L 38.765625 43.230469 L 38.765625 39.25 L 37.972656 39.523438 C 37.921875 39.546875 37.847656 39.546875 37.796875 39.546875 C 37.523438 39.546875 37.300781 39.324219 37.300781 39.050781 L 37.300781 37.558594 C 37.300781 37.359375 37.425781 37.183594 37.621094 37.109375 L 38.765625 36.6875 L 38.765625 32.757812 C 38.765625 32.507812 38.964844 32.285156 39.214844 32.285156 C 39.464844 32.285156 39.6875 32.507812 39.6875 32.757812 L 39.6875 36.363281 L 41.75 35.59375 L 41.75 31.664062 C 41.75 31.414062 41.976562 31.191406 42.222656 31.191406 C 42.472656 31.191406 42.671875 31.414062 42.671875 31.664062 L 42.671875 35.269531 L 43.46875 34.972656 C 43.519531 34.945312 43.59375 34.945312 43.640625 34.945312 C 43.914062 34.945312 44.140625 35.167969 44.140625 35.445312 L 44.140625 36.9375 C 44.140625 37.132812 44.015625 37.332031 43.816406 37.410156 L 42.671875 37.804688 L 42.671875 41.785156 L 43.46875 41.511719 C 43.519531 41.488281 43.59375 41.488281 43.640625 41.488281 C 43.914062 41.488281 44.140625 41.710938 44.140625 41.984375 L 44.140625 43.476562 C 44.140625 43.675781 44.015625 43.851562 43.816406 43.925781 L 42.671875 44.347656 Z M 39.6875 38.902344 L 39.6875 42.878906 L 41.75 42.132812 L 41.75 38.15625 Z M 39.6875 38.902344 "/>
<path style=" stroke:none;fill-rule:nonzero;fill:rgb(0%,0%,0%);fill-opacity:1;" d="M 16.152344 50.09375 L 16.003906 50.09375 C 13.316406 50.09375 11.152344 47.90625 11.152344 45.195312 C 11.152344 43.75 12.46875 42.632812 13.9375 42.632812 C 15.28125 42.632812 16.300781 43.800781 16.300781 45.195312 C 16.300781 46.488281 15.230469 47.554688 13.9375 47.554688 C 13.664062 47.554688 13.414062 47.507812 13.167969 47.40625 C 13.8125 48.378906 14.859375 49.023438 16.078125 49.023438 L 16.175781 49.023438 Z M 21 39.347656 C 22.691406 38.75 23.8125 36.984375 23.8125 35.269531 C 23.8125 33.03125 22.171875 30.816406 19.507812 30.542969 C 20.105469 33.429688 20.652344 36.289062 21 39.347656 Z M 11.375 33.601562 C 11.375 36.960938 14.585938 39.746094 17.941406 39.746094 C 18.640625 39.746094 19.308594 39.695312 19.980469 39.597656 C 19.632812 36.4375 19.0625 33.503906 18.414062 30.542969 C 16.449219 30.742188 15.332031 32.0625 15.332031 33.503906 C 15.332031 34.597656 15.953125 35.765625 17.34375 36.5625 C 17.46875 36.6875 17.519531 36.8125 17.519531 36.9375 C 17.519531 37.210938 17.269531 37.484375 16.972656 37.484375 C 16.898438 37.484375 16.824219 37.457031 16.75 37.433594 C 14.757812 36.363281 13.839844 34.574219 13.839844 32.832031 C 13.839844 30.644531 15.28125 28.503906 17.816406 27.933594 C 17.46875 26.488281 17.097656 25.023438 16.675781 23.578125 C 14.011719 26.589844 11.375 29.625 11.375 33.601562 Z M 17.867188 40.816406 C 13.191406 40.816406 9.585938 36.539062 9.585938 31.511719 C 9.585938 27.109375 12.84375 23.902344 15.753906 20.542969 C 15.28125 19.003906 14.832031 17.4375 14.632812 15.820312 C 14.484375 14.527344 14.460938 13.230469 14.460938 11.9375 C 14.460938 9.078125 15.828125 6.367188 18.167969 4.675781 C 18.316406 4.550781 18.515625 4.550781 18.664062 4.675781 C 20.429688 6.765625 21.972656 10.769531 21.972656 13.582031 C 21.972656 17.136719 19.832031 19.921875 17.496094 22.632812 C 18.015625 24.324219 18.464844 26.066406 18.886719 27.78125 C 18.988281 27.78125 19.113281 27.757812 19.210938 27.757812 C 23.066406 27.757812 25.578125 30.941406 25.578125 34.25 C 25.578125 36.140625 24.757812 38.078125 22.917969 39.472656 C 22.371094 39.894531 21.746094 40.167969 21.101562 40.367188 C 21.175781 41.238281 21.226562 42.109375 21.226562 42.980469 C 21.226562 43.453125 21.199219 43.949219 21.175781 44.421875 C 21 47.382812 18.988281 50.019531 16.152344 50.09375 L 16.175781 49.023438 C 18.488281 48.972656 19.980469 46.734375 20.132812 44.273438 C 20.15625 43.824219 20.179688 43.351562 20.179688 42.90625 C 20.179688 42.132812 20.15625 41.386719 20.082031 40.617188 C 19.359375 40.742188 18.640625 40.816406 17.867188 40.816406 Z M 20.179688 11.515625 C 20.179688 10.148438 20.082031 9.550781 19.683594 8.308594 C 17.222656 9.5 15.652344 12.011719 15.652344 14.75 C 15.652344 16.589844 16.101562 18.058594 16.550781 19.574219 C 18.539062 17.160156 20.179688 14.648438 20.179688 11.515625 Z M 20.179688 11.515625 "/>
<path style=" stroke:none;fill-rule:nonzero;fill:rgb(0%,0%,0%);fill-opacity:1;" d="M 58.355469 24.699219 C 59.722656 24.699219 61.039062 25.394531 61.039062 26.910156 C 61.039062 28.679688 59.671875 29.921875 58.503906 30.617188 C 57.632812 31.140625 56.636719 31.464844 55.617188 31.464844 C 54.25 31.464844 52.933594 30.765625 52.933594 29.25 C 52.933594 27.484375 54.300781 26.242188 55.46875 25.542969 C 56.339844 25.023438 57.335938 24.699219 58.355469 24.699219 Z M 58.355469 24.699219 "/>
<path style=" stroke:none;fill-rule:nonzero;fill:rgb(0%,0%,0%);fill-opacity:1;" d="M 58.355469 30.917969 C 59.722656 30.917969 61.039062 31.613281 61.039062 33.128906 C 61.039062 34.894531 59.671875 36.140625 58.503906 36.835938 C 57.632812 37.359375 56.636719 37.683594 55.617188 37.683594 C 54.25 37.683594 52.933594 36.984375 52.933594 35.46875 C 52.933594 33.703125 54.300781 32.457031 55.46875 31.761719 C 56.339844 31.238281 57.335938 30.917969 58.355469 30.917969 Z M 58.355469 30.917969 "/>
<path style=" stroke:none;fill-rule:nonzero;fill:rgb(0%,0%,0%);fill-opacity:1;" d="M 58.355469 37.132812 C 59.722656 37.132812 61.039062 37.832031 61.039062 39.347656 C 61.039062 41.113281 59.671875 42.359375 58.503906 43.054688 C 57.632812 43.578125 56.636719 43.898438 55.617188 43.898438 C 54.25 43.898438 52.933594 43.203125 52.933594 41.6875 C 52.933594 39.921875 54.300781 38.675781 55.46875 37.980469 C 56.339844 37.457031 57.335938 37.132812 58.355469 37.132812 Z M 58.355469 37.132812 "/>
</g>
</svg>
