<?xml version="1.0" encoding="UTF-8"?>
<svg xmlns="http://www.w3.org/2000/svg" xmlns:xlink="http://www.w3.org/1999/xlink" width="88.412278pt" height="43.54099pt" viewBox="0 0 88.412278 43.54099" version="1.1">
<g id="surface1">
<path style="fill:none;stroke-width:0.1;stroke-linecap:round;stroke-linejoin:round;stroke:rgb(0%,0%,0%);stroke-opacity:1;stroke-miterlimit:4;" d="M 0.049863 0.000136391 L 11.754512 0.000136391 " transform="matrix(6.218149,0,0,6.218149,4.561038,35.667121)"/>
<path style="fill:none;stroke-width:0.1;stroke-linecap:round;stroke-linejoin:round;stroke:rgb(0%,0%,0%);stroke-opacity:1;stroke-miterlimit:4;" d="M 0.049863 0.0000397429 L 11.754512 0.0000397429 " transform="matrix(6.218149,0,0,6.218149,4.561038,29.448972)"/>
<path style="fill:none;stroke-width:0.1;stroke-linecap:round;stroke-linejoin:round;stroke:rgb(0%,0%,0%);stroke-opacity:1;stroke-miterlimit:4;" d="M 0.049863 -0.0000569057 L 11.754512 -0.0000569057 " transform="matrix(6.218149,0,0,6.218149,4.561038,23.230823)"/>
<path style="fill:none;stroke-width:0.1;stroke-linecap:round;stroke-linejoin:round;stroke:rgb(0%,0%,0%);stroke-opacity:1;stroke-miterlimit:4;" d="M 0.049863 -0.000153554 L 11.754512 -0.000153554 " transform="matrix(6.218149,0,0,6.218149,4.561038,17.012674)"/>
<path style="fill:none;stroke-width:0.1;stroke-linecap:round;stroke-linejoin:round;stroke:rgb(0%,0%,0%);stroke-opacity:1;stroke-miterlimit:4;" d="M 0.049863 -0.000250203 L 11.754512 -0.000250203 " transform="matrix(6.218149,0,0,6.218149,4.561038,10.794525)"/>
<path style=" stroke:none;fill-rule:nonzero;fill:rgb(0%,0%,0%);fill-opacity:1;" d="M 66.84375 4.578125 L 67.15625 4.578125 C 67.292969 4.578125 67.40625 4.6875 67.40625 4.824219 L 67.40625 24.933594 C 67.40625 25.070312 67.292969 25.183594 67.15625 25.183594 L 66.84375 25.183594 C 66.707031 25.183594 66.597656 25.070312 66.597656 24.933594 L 66.597656 4.824219 C 66.597656 4.6875 66.707031 4.578125 66.84375 4.578125 Z M 66.84375 4.578125 "/>
<path style=" stroke:none;fill-rule:nonzero;fill:rgb(0%,0%,0%);fill-opacity:1;" d="M 64.71875 22.957031 C 66.085938 22.957031 67.402344 23.652344 67.402344 25.171875 C 67.402344 26.9375 66.035156 28.179688 64.867188 28.875 C 63.996094 29.398438 63 29.722656 61.980469 29.722656 C 60.613281 29.722656 59.296875 29.027344 59.296875 27.507812 C 59.296875 25.742188 60.664062 24.5 61.832031 23.804688 C 62.703125 23.28125 63.699219 22.957031 64.71875 22.957031 Z M 64.71875 22.957031 "/>
<path style=" stroke:none;fill-rule:nonzero;fill:rgb(0%,0%,0%);fill-opacity:1;" d="M 34.148438 25.320312 L 34.121094 26.960938 L 34.121094 27.234375 C 34.121094 27.78125 34.148438 28.328125 34.222656 28.875 C 35.339844 27.933594 36.535156 26.886719 36.535156 25.417969 C 36.535156 24.597656 36.1875 23.753906 35.464844 23.753906 C 34.695312 23.753906 34.171875 24.5 34.148438 25.320312 Z M 33.101562 29.773438 L 32.804688 14.972656 C 33.003906 14.847656 33.25 14.773438 33.476562 14.773438 C 33.699219 14.773438 33.949219 14.847656 34.148438 14.972656 L 33.972656 23.554688 C 34.59375 23.03125 35.414062 22.707031 36.234375 22.707031 C 37.53125 22.707031 38.449219 23.902344 38.449219 25.246094 C 38.449219 27.234375 36.3125 28.15625 34.792969 29.449219 C 34.421875 29.773438 34.195312 30.394531 33.675781 30.394531 C 33.351562 30.394531 33.101562 30.121094 33.101562 29.773438 Z M 33.101562 29.773438 "/>
<path style=" stroke:none;fill-rule:nonzero;fill:rgb(0%,0%,0%);fill-opacity:1;" d="M 48.175781 4.578125 L 48.488281 4.578125 C 48.625 4.578125 48.734375 4.6875 48.734375 4.824219 L 48.734375 24.933594 C 48.734375 25.070312 48.625 25.183594 48.488281 25.183594 L 48.175781 25.183594 C 48.039062 25.183594 47.925781 25.070312 47.925781 24.933594 L 47.925781 4.824219 C 47.925781 4.6875 48.039062 4.578125 48.175781 4.578125 Z M 48.175781 4.578125 "/>
<path style=" stroke:none;fill-rule:nonzero;fill:rgb(0%,0%,0%);fill-opacity:1;" d="M 23.390625 20.121094 C 23.390625 19.425781 23.960938 18.851562 24.65625 18.851562 C 25.355469 18.851562 25.925781 19.425781 25.925781 20.121094 C 25.925781 20.816406 25.355469 21.390625 24.65625 21.390625 C 23.960938 21.390625 23.390625 20.816406 23.390625 20.121094 Z M 23.390625 13.902344 C 23.390625 13.207031 23.960938 12.636719 24.65625 12.636719 C 25.355469 12.636719 25.925781 13.207031 25.925781 13.902344 C 25.925781 14.601562 25.355469 15.171875 24.65625 15.171875 C 23.960938 15.171875 23.390625 14.601562 23.390625 13.902344 Z M 15.304688 10.472656 C 19.585938 10.472656 22.59375 12.660156 22.59375 16.714844 C 22.59375 23.253906 16.050781 27.011719 9.757812 29.671875 C 9.683594 29.746094 9.609375 29.773438 9.535156 29.773438 C 9.363281 29.773438 9.210938 29.625 9.210938 29.449219 C 9.210938 29.375 9.238281 29.300781 9.3125 29.226562 C 14.335938 26.289062 19.558594 22.632812 19.558594 16.964844 C 19.558594 13.976562 17.992188 11.117188 15.304688 11.117188 C 13.464844 11.117188 12.097656 12.460938 11.476562 14.25 C 11.75 14.128906 12.023438 14.054688 12.320312 14.054688 C 13.6875 14.054688 14.808594 15.171875 14.808594 16.539062 C 14.808594 17.984375 13.714844 19.175781 12.320312 19.175781 C 10.828125 19.175781 9.535156 18.007812 9.535156 16.539062 C 9.535156 13.230469 12.074219 10.472656 15.304688 10.472656 Z M 15.304688 10.472656 "/>
<path style=" stroke:none;fill-rule:nonzero;fill:rgb(0%,0%,0%);fill-opacity:1;" d="M 46.046875 22.957031 C 47.417969 22.957031 48.734375 23.652344 48.734375 25.171875 C 48.734375 26.9375 47.367188 28.179688 46.199219 28.875 C 45.328125 29.398438 44.332031 29.722656 43.3125 29.722656 C 41.945312 29.722656 40.625 29.027344 40.625 27.507812 C 40.625 25.742188 41.996094 24.5 43.164062 23.804688 C 44.035156 23.28125 45.027344 22.957031 46.046875 22.957031 Z M 46.046875 22.957031 "/>
</g>
</svg>
