<?xml version="1.0" encoding="UTF-8"?>
<svg xmlns="http://www.w3.org/2000/svg" xmlns:xlink="http://www.w3.org/1999/xlink" width="74.549567pt" height="59.452652pt" viewBox="0 0 74.549567 59.452652" version="1.1">
<g id="surface1">
<path style="fill:none;stroke-width:0.1;stroke-linecap:round;stroke-linejoin:round;stroke:rgb(0%,0%,0%);stroke-opacity:1;stroke-miterlimit:4;" d="M 0.049863 -0.000287501 L 9.666998 -0.000287501 " transform="matrix(6.218149,0,0,6.218149,4.561038,40.517413)"/>
<path style="fill:none;stroke-width:0.1;stroke-linecap:round;stroke-linejoin:round;stroke:rgb(0%,0%,0%);stroke-opacity:1;stroke-miterlimit:4;" d="M 0.049863 0.000244052 L 9.666998 0.000244052 " transform="matrix(6.218149,0,0,6.218149,4.561038,34.299264)"/>
<path style="fill:none;stroke-width:0.1;stroke-linecap:round;stroke-linejoin:round;stroke:rgb(0%,0%,0%);stroke-opacity:1;stroke-miterlimit:4;" d="M 0.049863 0.000147403 L 9.666998 0.000147403 " transform="matrix(6.218149,0,0,6.218149,4.561038,28.081115)"/>
<path style="fill:none;stroke-width:0.1;stroke-linecap:round;stroke-linejoin:round;stroke:rgb(0%,0%,0%);stroke-opacity:1;stroke-miterlimit:4;" d="M 0.049863 0.0000507548 L 9.666998 0.0000507548 " transform="matrix(6.218149,0,0,6.218149,4.561038,21.862966)"/>
<path style="fill:none;stroke-width:0.1;stroke-linecap:round;stroke-linejoin:round;stroke:rgb(0%,0%,0%);stroke-opacity:1;stroke-miterlimit:4;" d="M 0.049863 -0.0000458938 L 9.666998 -0.0000458938 " transform="matrix(6.218149,0,0,6.218149,4.561038,15.644817)"/>
<path style=" stroke:none;fill-rule:nonzero;fill:rgb(0%,0%,0%);fill-opacity:1;" d="M 46.566406 19.910156 L 46.875 19.910156 C 47.011719 19.910156 47.125 20.023438 47.125 20.160156 L 47.125 50.632812 C 47.125 50.769531 47.011719 50.882812 46.875 50.882812 L 46.566406 50.882812 C 46.425781 50.882812 46.316406 50.769531 46.316406 50.632812 L 46.316406 20.160156 C 46.316406 20.023438 46.425781 19.910156 46.566406 19.910156 Z M 46.566406 19.910156 "/>
<path style=" stroke:none;fill-rule:nonzero;fill:rgb(0%,0%,0%);fill-opacity:1;" d="M 42.671875 26.515625 C 42.671875 26.761719 42.472656 26.988281 42.222656 26.988281 C 41.976562 26.988281 41.75 26.761719 41.75 26.515625 L 41.75 22.90625 L 39.6875 23.679688 L 39.6875 27.609375 C 39.6875 27.855469 39.464844 28.082031 39.214844 28.082031 C 38.964844 28.082031 38.765625 27.855469 38.765625 27.609375 L 38.765625 24.003906 L 37.972656 24.300781 C 37.921875 24.324219 37.847656 24.324219 37.796875 24.324219 C 37.523438 24.324219 37.300781 24.101562 37.300781 23.828125 L 37.300781 22.335938 C 37.300781 22.136719 37.425781 21.9375 37.621094 21.863281 L 38.765625 21.464844 L 38.765625 17.484375 L 37.972656 17.757812 C 37.921875 17.785156 37.847656 17.785156 37.796875 17.785156 C 37.523438 17.785156 37.300781 17.558594 37.300781 17.285156 L 37.300781 15.792969 C 37.300781 15.59375 37.425781 15.421875 37.621094 15.347656 L 38.765625 14.921875 L 38.765625 10.992188 C 38.765625 10.746094 38.964844 10.519531 39.214844 10.519531 C 39.464844 10.519531 39.6875 10.746094 39.6875 10.992188 L 39.6875 14.601562 L 41.75 13.828125 L 41.75 9.898438 C 41.75 9.652344 41.976562 9.425781 42.222656 9.425781 C 42.472656 9.425781 42.671875 9.652344 42.671875 9.898438 L 42.671875 13.503906 L 43.46875 13.207031 C 43.519531 13.183594 43.59375 13.183594 43.640625 13.183594 C 43.914062 13.183594 44.140625 13.40625 44.140625 13.679688 L 44.140625 15.171875 C 44.140625 15.371094 44.015625 15.570312 43.816406 15.644531 L 42.671875 16.042969 L 42.671875 20.023438 L 43.46875 19.75 C 43.519531 19.722656 43.59375 19.722656 43.640625 19.722656 C 43.914062 19.722656 44.140625 19.949219 44.140625 20.222656 L 44.140625 21.714844 C 44.140625 21.914062 44.015625 22.085938 43.816406 22.160156 L 42.671875 22.585938 Z M 39.6875 17.136719 L 39.6875 21.117188 L 41.75 20.371094 L 41.75 16.390625 Z M 39.6875 17.136719 "/>
<path style=" stroke:none;fill-rule:nonzero;fill:rgb(0%,0%,0%);fill-opacity:1;" d="M 34.589844 32.730469 C 34.589844 32.980469 34.390625 33.203125 34.140625 33.203125 C 33.890625 33.203125 33.667969 32.980469 33.667969 32.730469 L 33.667969 29.125 L 31.605469 29.898438 L 31.605469 33.828125 C 31.605469 34.074219 31.378906 34.300781 31.132812 34.300781 C 30.882812 34.300781 30.683594 34.074219 30.683594 33.828125 L 30.683594 30.21875 L 29.886719 30.519531 C 29.835938 30.542969 29.761719 30.542969 29.714844 30.542969 C 29.441406 30.542969 29.214844 30.320312 29.214844 30.046875 L 29.214844 28.554688 C 29.214844 28.355469 29.339844 28.15625 29.539062 28.082031 L 30.683594 27.683594 L 30.683594 23.703125 L 29.886719 23.976562 C 29.835938 24.003906 29.761719 24.003906 29.714844 24.003906 C 29.441406 24.003906 29.214844 23.777344 29.214844 23.503906 L 29.214844 22.011719 C 29.214844 21.8125 29.339844 21.640625 29.539062 21.566406 L 30.683594 21.140625 L 30.683594 17.210938 C 30.683594 16.964844 30.882812 16.738281 31.132812 16.738281 C 31.378906 16.738281 31.605469 16.964844 31.605469 17.210938 L 31.605469 20.816406 L 33.667969 20.046875 L 33.667969 16.117188 C 33.667969 15.867188 33.890625 15.644531 34.140625 15.644531 C 34.390625 15.644531 34.589844 15.867188 34.589844 16.117188 L 34.589844 19.722656 L 35.382812 19.425781 C 35.433594 19.402344 35.507812 19.402344 35.558594 19.402344 C 35.832031 19.402344 36.054688 19.625 36.054688 19.898438 L 36.054688 21.390625 C 36.054688 21.589844 35.929688 21.789062 35.734375 21.863281 L 34.589844 22.261719 L 34.589844 26.242188 L 35.382812 25.96875 C 35.433594 25.941406 35.507812 25.941406 35.558594 25.941406 C 35.832031 25.941406 36.054688 26.164062 36.054688 26.441406 L 36.054688 27.933594 C 36.054688 28.132812 35.929688 28.304688 35.734375 28.378906 L 34.589844 28.800781 Z M 31.605469 23.355469 L 31.605469 27.335938 L 33.667969 26.589844 L 33.667969 22.609375 Z M 31.605469 23.355469 "/>
<path style=" stroke:none;fill-rule:nonzero;fill:rgb(0%,0%,0%);fill-opacity:1;" d="M 16.152344 50.09375 L 16.003906 50.09375 C 13.316406 50.09375 11.152344 47.90625 11.152344 45.195312 C 11.152344 43.75 12.46875 42.632812 13.9375 42.632812 C 15.28125 42.632812 16.300781 43.800781 16.300781 45.195312 C 16.300781 46.488281 15.230469 47.554688 13.9375 47.554688 C 13.664062 47.554688 13.414062 47.507812 13.167969 47.40625 C 13.8125 48.378906 14.859375 49.023438 16.078125 49.023438 L 16.175781 49.023438 Z M 21 39.347656 C 22.691406 38.75 23.8125 36.984375 23.8125 35.269531 C 23.8125 33.03125 22.171875 30.816406 19.507812 30.542969 C 20.105469 33.429688 20.652344 36.289062 21 39.347656 Z M 11.375 33.601562 C 11.375 36.960938 14.585938 39.746094 17.941406 39.746094 C 18.640625 39.746094 19.308594 39.695312 19.980469 39.597656 C 19.632812 36.4375 19.0625 33.503906 18.414062 30.542969 C 16.449219 30.742188 15.332031 32.0625 15.332031 33.503906 C 15.332031 34.597656 15.953125 35.765625 17.34375 36.5625 C 17.46875 36.6875 17.519531 36.8125 17.519531 36.9375 C 17.519531 37.210938 17.269531 37.484375 16.972656 37.484375 C 16.898438 37.484375 16.824219 37.457031 16.75 37.433594 C 14.757812 36.363281 13.839844 34.574219 13.839844 32.832031 C 13.839844 30.644531 15.28125 28.503906 17.816406 27.933594 C 17.46875 26.488281 17.097656 25.023438 16.675781 23.578125 C 14.011719 26.589844 11.375 29.625 11.375 33.601562 Z M 17.867188 40.816406 C 13.191406 40.816406 9.585938 36.539062 9.585938 31.511719 C 9.585938 27.109375 12.84375 23.902344 15.753906 20.542969 C 15.28125 19.003906 14.832031 17.4375 14.632812 15.820312 C 14.484375 14.527344 14.460938 13.230469 14.460938 11.9375 C 14.460938 9.078125 15.828125 6.367188 18.167969 4.675781 C 18.316406 4.550781 18.515625 4.550781 18.664062 4.675781 C 20.429688 6.765625 21.972656 10.769531 21.972656 13.582031 C 21.972656 17.136719 19.832031 19.921875 17.496094 22.632812 C 18.015625 24.324219 18.464844 26.066406 18.886719 27.78125 C 18.988281 27.78125 19.113281 27.757812 19.210938 27.757812 C 23.066406 27.757812 25.578125 30.941406 25.578125 34.25 C 25.578125 36.140625 24.757812 38.078125 22.917969 39.472656 C 22.371094 39.894531 21.746094 40.167969 21.101562 40.367188 C 21.175781 41.238281 21.226562 42.109375 21.226562 42.980469 C 21.226562 43.453125 21.199219 43.949219 21.175781 44.421875 C 21 47.382812 18.988281 50.019531 16.152344 50.09375 L 16.175781 49.023438 C 18.488281 48.972656 19.980469 46.734375 20.132812 44.273438 C 20.15625 43.824219 20.179688 43.351562 20.179688 42.90625 C 20.179688 42.132812 20.15625 41.386719 20.082031 40.617188 C 19.359375 40.742188 18.640625 40.816406 17.867188 40.816406 Z M 20.179688 11.515625 C 20.179688 10.148438 20.082031 9.550781 19.683594 8.308594 C 17.222656 9.5 15.652344 12.011719 15.652344 14.75 C 15.652344 16.589844 16.101562 18.058594 16.550781 19.574219 C 18.539062 17.160156 20.179688 14.648438 20.179688 11.515625 Z M 20.179688 11.515625 "/>
<path style=" stroke:none;fill-rule:nonzero;fill:rgb(0%,0%,0%);fill-opacity:1;" d="M 51.738281 15.371094 C 53.105469 15.371094 54.425781 16.066406 54.425781 17.585938 C 54.425781 19.351562 53.054688 20.59375 51.886719 21.289062 C 51.015625 21.8125 50.023438 22.136719 49.003906 22.136719 C 47.632812 22.136719 46.316406 21.441406 46.316406 19.921875 C 46.316406 18.15625 47.683594 16.914062 48.851562 16.21875 C 49.722656 15.695312 50.71875 15.371094 51.738281 15.371094 Z M 51.738281 15.371094 "/>
<path style=" stroke:none;fill-rule:nonzero;fill:rgb(0%,0%,0%);fill-opacity:1;" d="M 51.738281 21.589844 C 53.105469 21.589844 54.425781 22.285156 54.425781 23.804688 C 54.425781 25.570312 53.054688 26.8125 51.886719 27.507812 C 51.015625 28.03125 50.023438 28.355469 49.003906 28.355469 C 47.632812 28.355469 46.316406 27.660156 46.316406 26.140625 C 46.316406 24.375 47.683594 23.132812 48.851562 22.433594 C 49.722656 21.914062 50.71875 21.589844 51.738281 21.589844 Z M 51.738281 21.589844 "/>
<path style=" stroke:none;fill-rule:nonzero;fill:rgb(0%,0%,0%);fill-opacity:1;" d="M 51.738281 27.808594 C 53.105469 27.808594 54.425781 28.503906 54.425781 30.019531 C 54.425781 31.789062 53.054688 33.03125 51.886719 33.726562 C 51.015625 34.25 50.023438 34.574219 49.003906 34.574219 C 47.632812 34.574219 46.316406 33.875 46.316406 32.359375 C 46.316406 30.59375 47.683594 29.351562 48.851562 28.652344 C 49.722656 28.132812 50.71875 27.808594 51.738281 27.808594 Z M 51.738281 27.808594 "/>
</g>
</svg>
