<?xml version="1.0" encoding="UTF-8"?>
<svg xmlns="http://www.w3.org/2000/svg" xmlns:xlink="http://www.w3.org/1999/xlink" width="97.48693pt" height="57.599598pt" viewBox="0 0 97.48693 57.599598" version="1.1">
<g id="surface1">
<path style="fill:none;stroke-width:0.1;stroke-linecap:round;stroke-linejoin:round;stroke:rgb(0%,0%,0%);stroke-opacity:1;stroke-miterlimit:4;" d="M 0.049863 0.000184716 L 13.12085 0.000184716 " transform="matrix(6.218149,0,0,6.218149,4.561038,38.776195)"/>
<path style="fill:none;stroke-width:0.1;stroke-linecap:round;stroke-linejoin:round;stroke:rgb(0%,0%,0%);stroke-opacity:1;stroke-miterlimit:4;" d="M 0.049863 0.0000880672 L 13.12085 0.0000880672 " transform="matrix(6.218149,0,0,6.218149,4.561038,32.558046)"/>
<path style="fill:none;stroke-width:0.1;stroke-linecap:round;stroke-linejoin:round;stroke:rgb(0%,0%,0%);stroke-opacity:1;stroke-miterlimit:4;" d="M 0.049863 -0.00000858141 L 13.12085 -0.00000858141 " transform="matrix(6.218149,0,0,6.218149,4.561038,26.339897)"/>
<path style="fill:none;stroke-width:0.1;stroke-linecap:round;stroke-linejoin:round;stroke:rgb(0%,0%,0%);stroke-opacity:1;stroke-miterlimit:4;" d="M 0.049863 -0.00010523 L 13.12085 -0.00010523 " transform="matrix(6.218149,0,0,6.218149,4.561038,20.121748)"/>
<path style="fill:none;stroke-width:0.1;stroke-linecap:round;stroke-linejoin:round;stroke:rgb(0%,0%,0%);stroke-opacity:1;stroke-miterlimit:4;" d="M 0.049863 -0.000201879 L 13.12085 -0.000201879 " transform="matrix(6.218149,0,0,6.218149,4.561038,13.903599)"/>
<path style=" stroke:none;fill-rule:nonzero;fill:rgb(0%,0%,0%);fill-opacity:1;" d="M 68.039062 15.0625 L 68.351562 15.0625 C 68.488281 15.0625 68.597656 15.171875 68.597656 15.308594 L 68.597656 48.890625 C 68.597656 49.027344 68.488281 49.140625 68.351562 49.140625 L 68.039062 49.140625 C 67.902344 49.140625 67.789062 49.027344 67.789062 48.890625 L 67.789062 15.308594 C 67.789062 15.171875 67.902344 15.0625 68.039062 15.0625 Z M 68.039062 15.0625 "/>
<path style=" stroke:none;fill-rule:nonzero;fill:rgb(0%,0%,0%);fill-opacity:1;" d="M 56.441406 21.664062 C 56.441406 21.914062 56.242188 22.136719 55.992188 22.136719 C 55.746094 22.136719 55.519531 21.914062 55.519531 21.664062 L 55.519531 18.058594 L 53.457031 18.828125 L 53.457031 22.757812 C 53.457031 23.007812 53.234375 23.230469 52.984375 23.230469 C 52.734375 23.230469 52.535156 23.007812 52.535156 22.757812 L 52.535156 19.152344 L 51.742188 19.449219 C 51.691406 19.476562 51.617188 19.476562 51.566406 19.476562 C 51.292969 19.476562 51.070312 19.25 51.070312 18.976562 L 51.070312 17.484375 C 51.070312 17.285156 51.195312 17.085938 51.390625 17.011719 L 52.535156 16.613281 L 52.535156 12.636719 L 51.742188 12.910156 C 51.691406 12.933594 51.617188 12.933594 51.566406 12.933594 C 51.292969 12.933594 51.070312 12.710938 51.070312 12.4375 L 51.070312 10.945312 C 51.070312 10.746094 51.195312 10.570312 51.390625 10.496094 L 52.535156 10.074219 L 52.535156 6.144531 C 52.535156 5.894531 52.734375 5.671875 52.984375 5.671875 C 53.234375 5.671875 53.457031 5.894531 53.457031 6.144531 L 53.457031 9.75 L 55.519531 8.980469 L 55.519531 5.050781 C 55.519531 4.800781 55.746094 4.578125 55.992188 4.578125 C 56.242188 4.578125 56.441406 4.800781 56.441406 5.050781 L 56.441406 8.65625 L 57.238281 8.355469 C 57.289062 8.332031 57.363281 8.332031 57.410156 8.332031 C 57.683594 8.332031 57.910156 8.554688 57.910156 8.828125 L 57.910156 10.320312 C 57.910156 10.519531 57.785156 10.71875 57.585938 10.792969 L 56.441406 11.191406 L 56.441406 15.171875 L 57.238281 14.898438 C 57.289062 14.875 57.363281 14.875 57.410156 14.875 C 57.683594 14.875 57.910156 15.097656 57.910156 15.371094 L 57.910156 16.863281 C 57.910156 17.0625 57.785156 17.238281 57.585938 17.3125 L 56.441406 17.734375 Z M 53.457031 12.285156 L 53.457031 16.265625 L 55.519531 15.519531 L 55.519531 11.539062 Z M 53.457031 12.285156 "/>
<path style=" stroke:none;fill-rule:nonzero;fill:rgb(0%,0%,0%);fill-opacity:1;" d="M 43.410156 24.773438 C 43.410156 25.023438 43.210938 25.246094 42.960938 25.246094 C 42.710938 25.246094 42.488281 25.023438 42.488281 24.773438 L 42.488281 21.167969 L 40.421875 21.9375 L 40.421875 25.867188 C 40.421875 26.117188 40.199219 26.339844 39.949219 26.339844 C 39.703125 26.339844 39.503906 26.117188 39.503906 25.867188 L 39.503906 22.261719 L 38.707031 22.558594 C 38.65625 22.585938 38.582031 22.585938 38.535156 22.585938 C 38.257812 22.585938 38.035156 22.359375 38.035156 22.085938 L 38.035156 20.59375 C 38.035156 20.394531 38.160156 20.195312 38.359375 20.121094 L 39.503906 19.722656 L 39.503906 15.746094 L 38.707031 16.019531 C 38.65625 16.042969 38.582031 16.042969 38.535156 16.042969 C 38.257812 16.042969 38.035156 15.820312 38.035156 15.546875 L 38.035156 14.054688 C 38.035156 13.855469 38.160156 13.679688 38.359375 13.605469 L 39.503906 13.183594 L 39.503906 9.253906 C 39.503906 9.003906 39.703125 8.78125 39.949219 8.78125 C 40.199219 8.78125 40.421875 9.003906 40.421875 9.253906 L 40.421875 12.859375 L 42.488281 12.089844 L 42.488281 8.15625 C 42.488281 7.910156 42.710938 7.683594 42.960938 7.683594 C 43.210938 7.683594 43.410156 7.910156 43.410156 8.15625 L 43.410156 11.765625 L 44.203125 11.464844 C 44.253906 11.441406 44.328125 11.441406 44.378906 11.441406 C 44.652344 11.441406 44.875 11.664062 44.875 11.9375 L 44.875 13.429688 C 44.875 13.628906 44.75 13.828125 44.550781 13.902344 L 43.410156 14.300781 L 43.410156 18.28125 L 44.203125 18.007812 C 44.253906 17.984375 44.328125 17.984375 44.378906 17.984375 C 44.652344 17.984375 44.875 18.207031 44.875 18.480469 L 44.875 19.972656 C 44.875 20.171875 44.75 20.34375 44.550781 20.421875 L 43.410156 20.84375 Z M 40.421875 15.394531 L 40.421875 19.375 L 42.488281 18.628906 L 42.488281 14.648438 Z M 40.421875 15.394531 "/>
<path style=" stroke:none;fill-rule:nonzero;fill:rgb(0%,0%,0%);fill-opacity:1;" d="M 35.324219 30.992188 C 35.324219 31.238281 35.125 31.464844 34.878906 31.464844 C 34.628906 31.464844 34.40625 31.238281 34.40625 30.992188 L 34.40625 27.382812 L 32.339844 28.15625 L 32.339844 32.085938 C 32.339844 32.335938 32.117188 32.558594 31.867188 32.558594 C 31.617188 32.558594 31.417969 32.335938 31.417969 32.085938 L 31.417969 28.480469 L 30.625 28.777344 C 30.574219 28.800781 30.5 28.800781 30.449219 28.800781 C 30.175781 28.800781 29.953125 28.578125 29.953125 28.304688 L 29.953125 26.8125 C 29.953125 26.613281 30.078125 26.414062 30.277344 26.339844 L 31.417969 25.941406 L 31.417969 21.960938 L 30.625 22.234375 C 30.574219 22.261719 30.5 22.261719 30.449219 22.261719 C 30.175781 22.261719 29.953125 22.035156 29.953125 21.761719 L 29.953125 20.269531 C 29.953125 20.070312 30.078125 19.898438 30.277344 19.824219 L 31.417969 19.402344 L 31.417969 15.46875 C 31.417969 15.222656 31.617188 14.996094 31.867188 14.996094 C 32.117188 14.996094 32.339844 15.222656 32.339844 15.46875 L 32.339844 19.078125 L 34.40625 18.304688 L 34.40625 14.375 C 34.40625 14.128906 34.628906 13.902344 34.878906 13.902344 C 35.125 13.902344 35.324219 14.128906 35.324219 14.375 L 35.324219 17.984375 L 36.121094 17.683594 C 36.171875 17.660156 36.246094 17.660156 36.292969 17.660156 C 36.566406 17.660156 36.792969 17.882812 36.792969 18.15625 L 36.792969 19.648438 C 36.792969 19.847656 36.667969 20.046875 36.46875 20.121094 L 35.324219 20.519531 L 35.324219 24.5 L 36.121094 24.226562 C 36.171875 24.199219 36.246094 24.199219 36.292969 24.199219 C 36.566406 24.199219 36.792969 24.425781 36.792969 24.699219 L 36.792969 26.191406 C 36.792969 26.390625 36.667969 26.5625 36.46875 26.636719 L 35.324219 27.0625 Z M 32.339844 21.613281 L 32.339844 25.59375 L 34.40625 24.847656 L 34.40625 20.867188 Z M 32.339844 21.613281 "/>
<path style=" stroke:none;fill-rule:nonzero;fill:rgb(0%,0%,0%);fill-opacity:1;" d="M 49.851562 37.210938 C 49.851562 37.457031 49.652344 37.683594 49.402344 37.683594 C 49.152344 37.683594 48.929688 37.457031 48.929688 37.210938 L 48.929688 33.601562 L 46.867188 34.375 L 46.867188 38.304688 C 46.867188 38.550781 46.640625 38.777344 46.394531 38.777344 C 46.144531 38.777344 45.945312 38.550781 45.945312 38.304688 L 45.945312 34.695312 L 45.148438 34.996094 C 45.101562 35.019531 45.023438 35.019531 44.976562 35.019531 C 44.703125 35.019531 44.476562 34.796875 44.476562 34.523438 L 44.476562 33.03125 C 44.476562 32.832031 44.601562 32.632812 44.800781 32.558594 L 45.945312 32.160156 L 45.945312 28.179688 L 45.148438 28.453125 C 45.101562 28.480469 45.023438 28.480469 44.976562 28.480469 C 44.703125 28.480469 44.476562 28.253906 44.476562 27.980469 L 44.476562 26.488281 C 44.476562 26.289062 44.601562 26.117188 44.800781 26.042969 L 45.945312 25.617188 L 45.945312 21.6875 C 45.945312 21.441406 46.144531 21.214844 46.394531 21.214844 C 46.640625 21.214844 46.867188 21.441406 46.867188 21.6875 L 46.867188 25.296875 L 48.929688 24.523438 L 48.929688 20.59375 C 48.929688 20.34375 49.152344 20.121094 49.402344 20.121094 C 49.652344 20.121094 49.851562 20.34375 49.851562 20.59375 L 49.851562 24.199219 L 50.644531 23.902344 C 50.695312 23.878906 50.769531 23.878906 50.820312 23.878906 C 51.09375 23.878906 51.316406 24.101562 51.316406 24.375 L 51.316406 25.867188 C 51.316406 26.066406 51.195312 26.265625 50.996094 26.339844 L 49.851562 26.738281 L 49.851562 30.71875 L 50.644531 30.445312 C 50.695312 30.417969 50.769531 30.417969 50.820312 30.417969 C 51.09375 30.417969 51.316406 30.644531 51.316406 30.917969 L 51.316406 32.410156 C 51.316406 32.609375 51.195312 32.78125 50.996094 32.855469 L 49.851562 33.28125 Z M 46.867188 27.832031 L 46.867188 31.8125 L 48.929688 31.066406 L 48.929688 27.085938 Z M 46.867188 27.832031 "/>
<path style=" stroke:none;fill-rule:nonzero;fill:rgb(0%,0%,0%);fill-opacity:1;" d="M 23.390625 23.230469 C 23.390625 22.535156 23.960938 21.960938 24.65625 21.960938 C 25.355469 21.960938 25.925781 22.535156 25.925781 23.230469 C 25.925781 23.925781 25.355469 24.5 24.65625 24.5 C 23.960938 24.5 23.390625 23.925781 23.390625 23.230469 Z M 23.390625 17.011719 C 23.390625 16.316406 23.960938 15.746094 24.65625 15.746094 C 25.355469 15.746094 25.925781 16.316406 25.925781 17.011719 C 25.925781 17.710938 25.355469 18.28125 24.65625 18.28125 C 23.960938 18.28125 23.390625 17.710938 23.390625 17.011719 Z M 15.304688 13.582031 C 19.585938 13.582031 22.59375 15.769531 22.59375 19.824219 C 22.59375 26.363281 16.050781 30.121094 9.757812 32.78125 C 9.683594 32.855469 9.609375 32.882812 9.535156 32.882812 C 9.363281 32.882812 9.210938 32.730469 9.210938 32.558594 C 9.210938 32.484375 9.238281 32.410156 9.3125 32.335938 C 14.335938 29.398438 19.558594 25.742188 19.558594 20.070312 C 19.558594 17.085938 17.992188 14.226562 15.304688 14.226562 C 13.464844 14.226562 12.097656 15.570312 11.476562 17.359375 C 11.75 17.238281 12.023438 17.160156 12.320312 17.160156 C 13.6875 17.160156 14.808594 18.28125 14.808594 19.648438 C 14.808594 21.089844 13.714844 22.285156 12.320312 22.285156 C 10.828125 22.285156 9.535156 21.117188 9.535156 19.648438 C 9.535156 16.339844 12.074219 13.582031 15.304688 13.582031 Z M 15.304688 13.582031 "/>
<path style=" stroke:none;fill-rule:nonzero;fill:rgb(0%,0%,0%);fill-opacity:1;" d="M 73.214844 10.519531 C 74.582031 10.519531 75.898438 11.21875 75.898438 12.734375 C 75.898438 14.5 74.53125 15.746094 73.363281 16.441406 C 72.492188 16.964844 71.496094 17.285156 70.476562 17.285156 C 69.109375 17.285156 67.789062 16.589844 67.789062 15.074219 C 67.789062 13.308594 69.160156 12.0625 70.328125 11.367188 C 71.199219 10.84375 72.191406 10.519531 73.214844 10.519531 Z M 73.214844 10.519531 "/>
<path style=" stroke:none;fill-rule:nonzero;fill:rgb(0%,0%,0%);fill-opacity:1;" d="M 65.507812 13.628906 C 66.875 13.628906 68.195312 14.328125 68.195312 15.84375 C 68.195312 17.609375 66.824219 18.851562 65.65625 19.550781 C 64.785156 20.070312 63.792969 20.394531 62.773438 20.394531 C 61.402344 20.394531 60.085938 19.699219 60.085938 18.183594 C 60.085938 16.414062 61.453125 15.171875 62.621094 14.476562 C 63.492188 13.953125 64.488281 13.628906 65.507812 13.628906 Z M 65.507812 13.628906 "/>
<path style=" stroke:none;fill-rule:nonzero;fill:rgb(0%,0%,0%);fill-opacity:1;" d="M 73.214844 19.847656 C 74.582031 19.847656 75.898438 20.542969 75.898438 22.0625 C 75.898438 23.828125 74.53125 25.070312 73.363281 25.769531 C 72.492188 26.289062 71.496094 26.613281 70.476562 26.613281 C 69.109375 26.613281 67.789062 25.917969 67.789062 24.398438 C 67.789062 22.632812 69.160156 21.390625 70.328125 20.695312 C 71.199219 20.171875 72.191406 19.847656 73.214844 19.847656 Z M 73.214844 19.847656 "/>
<path style=" stroke:none;fill-rule:nonzero;fill:rgb(0%,0%,0%);fill-opacity:1;" d="M 73.214844 26.066406 C 74.582031 26.066406 75.898438 26.761719 75.898438 28.28125 C 75.898438 30.046875 74.53125 31.289062 73.363281 31.984375 C 72.492188 32.507812 71.496094 32.832031 70.476562 32.832031 C 69.109375 32.832031 67.789062 32.136719 67.789062 30.617188 C 67.789062 28.851562 69.160156 27.609375 70.328125 26.910156 C 71.199219 26.390625 72.191406 26.066406 73.214844 26.066406 Z M 73.214844 26.066406 "/>
</g>
</svg>
