<?xml version="1.0" encoding="UTF-8"?>
<svg xmlns="http://www.w3.org/2000/svg" xmlns:xlink="http://www.w3.org/1999/xlink" width="78.868712pt" height="82.395331pt" viewBox="0 0 78.868712 82.395331" version="1.1">
<g id="surface1">
<path style="fill:none;stroke-width:0.1;stroke-linecap:round;stroke-linejoin:round;stroke:rgb(0%,0%,0%);stroke-opacity:1;stroke-miterlimit:4;" d="M 0.049863 -0.000145463 L 10.317815 -0.000145463 " transform="matrix(6.218149,0,0,6.218149,4.561038,62.778248)"/>
<path style="fill:none;stroke-width:0.1;stroke-linecap:round;stroke-linejoin:round;stroke:rgb(0%,0%,0%);stroke-opacity:1;stroke-miterlimit:4;" d="M 0.049863 -0.000242111 L 10.317815 -0.000242111 " transform="matrix(6.218149,0,0,6.218149,4.561038,56.560099)"/>
<path style="fill:none;stroke-width:0.1;stroke-linecap:round;stroke-linejoin:round;stroke:rgb(0%,0%,0%);stroke-opacity:1;stroke-miterlimit:4;" d="M 0.049863 0.000289441 L 10.317815 0.000289441 " transform="matrix(6.218149,0,0,6.218149,4.561038,50.34195)"/>
<path style="fill:none;stroke-width:0.1;stroke-linecap:round;stroke-linejoin:round;stroke:rgb(0%,0%,0%);stroke-opacity:1;stroke-miterlimit:4;" d="M 0.049863 0.000192316 L 10.317815 0.000192316 " transform="matrix(6.218149,0,0,6.218149,4.561038,44.123804)"/>
<path style="fill:none;stroke-width:0.1;stroke-linecap:round;stroke-linejoin:round;stroke:rgb(0%,0%,0%);stroke-opacity:1;stroke-miterlimit:4;" d="M 0.049863 0.0000956673 L 10.317815 0.0000956673 " transform="matrix(6.218149,0,0,6.218149,4.561038,37.905655)"/>
<path style=" stroke:none;fill-rule:nonzero;fill:rgb(0%,0%,0%);fill-opacity:1;" d="M 49.894531 18.628906 L 59.875 18.628906 C 60.21875 18.628906 60.496094 18.90625 60.496094 19.25 C 60.496094 19.59375 60.21875 19.871094 59.875 19.871094 L 49.894531 19.871094 C 49.550781 19.871094 49.269531 19.59375 49.269531 19.25 C 49.269531 18.90625 49.550781 18.628906 49.894531 18.628906 Z M 49.894531 18.628906 "/>
<path style=" stroke:none;fill-rule:nonzero;fill:rgb(0%,0%,0%);fill-opacity:1;" d="M 48.953125 24.847656 L 59.875 24.847656 C 60.21875 24.847656 60.496094 25.125 60.496094 25.46875 C 60.496094 25.8125 60.21875 26.089844 59.875 26.089844 L 48.953125 26.089844 C 48.609375 26.089844 48.332031 25.8125 48.332031 25.46875 C 48.332031 25.125 48.609375 24.847656 48.953125 24.847656 Z M 48.953125 24.847656 "/>
<path style=" stroke:none;fill-rule:nonzero;fill:rgb(0%,0%,0%);fill-opacity:1;" d="M 48.953125 31.066406 L 59.875 31.066406 C 60.21875 31.066406 60.496094 31.34375 60.496094 31.6875 C 60.496094 32.03125 60.21875 32.308594 59.875 32.308594 L 48.953125 32.308594 C 48.609375 32.308594 48.332031 32.03125 48.332031 31.6875 C 48.332031 31.34375 48.609375 31.066406 48.953125 31.066406 Z M 48.953125 31.066406 "/>
<path style=" stroke:none;fill-rule:nonzero;fill:rgb(0%,0%,0%);fill-opacity:1;" d="M 50.609375 17.300781 L 50.917969 17.300781 C 51.054688 17.300781 51.167969 17.410156 51.167969 17.546875 L 51.167969 56.3125 C 51.167969 56.449219 51.054688 56.558594 50.917969 56.558594 L 50.609375 56.558594 C 50.472656 56.558594 50.359375 56.449219 50.359375 56.3125 L 50.359375 17.546875 C 50.359375 17.410156 50.472656 17.300781 50.609375 17.300781 Z M 50.609375 17.300781 "/>
<path style=" stroke:none;fill-rule:nonzero;fill:rgb(0%,0%,0%);fill-opacity:1;" d="M 43.878906 15.121094 L 43.855469 16.765625 L 43.855469 17.039062 C 43.855469 17.585938 43.878906 18.132812 43.953125 18.679688 C 45.074219 17.734375 46.269531 16.6875 46.269531 15.222656 C 46.269531 14.402344 45.917969 13.554688 45.199219 13.554688 C 44.425781 13.554688 43.90625 14.300781 43.878906 15.121094 Z M 42.835938 19.574219 L 42.539062 4.773438 C 42.734375 4.652344 42.984375 4.578125 43.207031 4.578125 C 43.433594 4.578125 43.679688 4.652344 43.878906 4.773438 L 43.707031 13.355469 C 44.328125 12.835938 45.148438 12.511719 45.96875 12.511719 C 47.261719 12.511719 48.183594 13.703125 48.183594 15.046875 C 48.183594 17.039062 46.042969 17.957031 44.527344 19.25 C 44.152344 19.574219 43.929688 20.195312 43.40625 20.195312 C 43.085938 20.195312 42.835938 19.921875 42.835938 19.574219 Z M 42.835938 19.574219 "/>
<path style=" stroke:none;fill-rule:nonzero;fill:rgb(0%,0%,0%);fill-opacity:1;" d="M 37.226562 21.339844 L 37.199219 22.980469 L 37.199219 23.253906 C 37.199219 23.804688 37.226562 24.351562 37.300781 24.898438 C 38.417969 23.953125 39.613281 22.90625 39.613281 21.441406 C 39.613281 20.621094 39.265625 19.773438 38.542969 19.773438 C 37.773438 19.773438 37.25 20.519531 37.226562 21.339844 Z M 36.179688 25.792969 L 35.882812 10.992188 C 36.082031 10.871094 36.328125 10.792969 36.554688 10.792969 C 36.777344 10.792969 37.027344 10.871094 37.226562 10.992188 L 37.050781 19.574219 C 37.671875 19.050781 38.492188 18.730469 39.3125 18.730469 C 40.609375 18.730469 41.527344 19.921875 41.527344 21.265625 C 41.527344 23.253906 39.390625 24.175781 37.871094 25.46875 C 37.5 25.792969 37.273438 26.414062 36.753906 26.414062 C 36.429688 26.414062 36.179688 26.140625 36.179688 25.792969 Z M 36.179688 25.792969 "/>
<path style=" stroke:none;fill-rule:nonzero;fill:rgb(0%,0%,0%);fill-opacity:1;" d="M 30.632812 27.558594 L 30.609375 29.199219 L 30.609375 29.472656 C 30.609375 30.019531 30.632812 30.566406 30.707031 31.117188 C 31.828125 30.171875 33.023438 29.125 33.023438 27.65625 C 33.023438 26.835938 32.671875 25.992188 31.953125 25.992188 C 31.179688 25.992188 30.660156 26.738281 30.632812 27.558594 Z M 29.589844 32.011719 L 29.289062 17.210938 C 29.488281 17.085938 29.738281 17.011719 29.960938 17.011719 C 30.1875 17.011719 30.433594 17.085938 30.632812 17.210938 L 30.460938 25.792969 C 31.082031 25.269531 31.902344 24.945312 32.722656 24.945312 C 34.015625 24.945312 34.9375 26.140625 34.9375 27.484375 C 34.9375 29.472656 32.796875 30.394531 31.28125 31.6875 C 30.90625 32.011719 30.683594 32.632812 30.160156 32.632812 C 29.835938 32.632812 29.589844 32.359375 29.589844 32.011719 Z M 29.589844 32.011719 "/>
<path style=" stroke:none;fill-rule:nonzero;fill:rgb(0%,0%,0%);fill-opacity:1;" d="M 43.878906 33.777344 L 43.855469 35.417969 L 43.855469 35.691406 C 43.855469 36.238281 43.878906 36.785156 43.953125 37.332031 C 45.074219 36.386719 46.269531 35.34375 46.269531 33.875 C 46.269531 33.054688 45.917969 32.210938 45.199219 32.210938 C 44.425781 32.210938 43.90625 32.957031 43.878906 33.777344 Z M 42.835938 38.230469 L 42.539062 23.429688 C 42.734375 23.304688 42.984375 23.230469 43.207031 23.230469 C 43.433594 23.230469 43.679688 23.304688 43.878906 23.429688 L 43.707031 32.011719 C 44.328125 31.488281 45.148438 31.164062 45.96875 31.164062 C 47.261719 31.164062 48.183594 32.359375 48.183594 33.703125 C 48.183594 35.691406 46.042969 36.613281 44.527344 37.90625 C 44.152344 38.230469 43.929688 38.851562 43.40625 38.851562 C 43.085938 38.851562 42.835938 38.578125 42.835938 38.230469 Z M 42.835938 38.230469 "/>
<path style=" stroke:none;fill-rule:nonzero;fill:rgb(0%,0%,0%);fill-opacity:1;" d="M 16.152344 72.355469 L 16.003906 72.355469 C 13.316406 72.355469 11.152344 70.164062 11.152344 67.453125 C 11.152344 66.011719 12.46875 64.890625 13.9375 64.890625 C 15.28125 64.890625 16.300781 66.0625 16.300781 67.453125 C 16.300781 68.746094 15.230469 69.816406 13.9375 69.816406 C 13.664062 69.816406 13.414062 69.765625 13.167969 69.667969 C 13.8125 70.636719 14.859375 71.285156 16.078125 71.285156 L 16.175781 71.285156 Z M 21 61.609375 C 22.691406 61.011719 23.8125 59.246094 23.8125 57.53125 C 23.8125 55.292969 22.171875 53.078125 19.507812 52.804688 C 20.105469 55.691406 20.652344 58.550781 21 61.609375 Z M 11.375 55.863281 C 11.375 59.222656 14.585938 62.007812 17.941406 62.007812 C 18.640625 62.007812 19.308594 61.957031 19.980469 61.859375 C 19.632812 58.699219 19.0625 55.765625 18.414062 52.804688 C 16.449219 53.003906 15.332031 54.320312 15.332031 55.765625 C 15.332031 56.859375 15.953125 58.027344 17.34375 58.824219 C 17.46875 58.949219 17.519531 59.070312 17.519531 59.195312 C 17.519531 59.46875 17.269531 59.742188 16.972656 59.742188 C 16.898438 59.742188 16.824219 59.71875 16.75 59.695312 C 14.757812 58.625 13.839844 56.832031 13.839844 55.09375 C 13.839844 52.902344 15.28125 50.765625 17.816406 50.191406 C 17.46875 48.75 17.097656 47.28125 16.675781 45.839844 C 14.011719 48.847656 11.375 51.882812 11.375 55.863281 Z M 17.867188 63.078125 C 13.191406 63.078125 9.585938 58.796875 9.585938 53.773438 C 9.585938 49.371094 12.84375 46.164062 15.753906 42.804688 C 15.28125 41.261719 14.832031 39.695312 14.632812 38.078125 C 14.484375 36.785156 14.460938 35.492188 14.460938 34.199219 C 14.460938 31.339844 15.828125 28.628906 18.167969 26.9375 C 18.316406 26.8125 18.515625 26.8125 18.664062 26.9375 C 20.429688 29.027344 21.972656 33.03125 21.972656 35.839844 C 21.972656 39.398438 19.832031 42.183594 17.496094 44.894531 C 18.015625 46.585938 18.464844 48.328125 18.886719 50.042969 C 18.988281 50.042969 19.113281 50.019531 19.210938 50.019531 C 23.066406 50.019531 25.578125 53.203125 25.578125 56.511719 C 25.578125 58.402344 24.757812 60.339844 22.917969 61.734375 C 22.371094 62.15625 21.746094 62.429688 21.101562 62.628906 C 21.175781 63.5 21.226562 64.371094 21.226562 65.242188 C 21.226562 65.714844 21.199219 66.210938 21.175781 66.683594 C 21 69.644531 18.988281 72.28125 16.152344 72.355469 L 16.175781 71.285156 C 18.488281 71.234375 19.980469 68.996094 20.132812 66.535156 C 20.15625 66.085938 20.179688 65.613281 20.179688 65.167969 C 20.179688 64.394531 20.15625 63.648438 20.082031 62.878906 C 19.359375 63.003906 18.640625 63.078125 17.867188 63.078125 Z M 20.179688 33.777344 C 20.179688 32.410156 20.082031 31.8125 19.683594 30.566406 C 17.222656 31.761719 15.652344 34.273438 15.652344 37.011719 C 15.652344 38.851562 16.101562 40.316406 16.550781 41.835938 C 18.539062 39.421875 20.179688 36.910156 20.179688 33.777344 Z M 20.179688 33.777344 "/>
<path style=" stroke:none;fill-rule:nonzero;fill:rgb(0%,0%,0%);fill-opacity:1;" d="M 55.78125 12.757812 C 57.148438 12.757812 58.46875 13.457031 58.46875 14.972656 C 58.46875 16.738281 57.101562 17.984375 55.929688 18.679688 C 55.058594 19.203125 54.066406 19.523438 53.046875 19.523438 C 51.679688 19.523438 50.359375 18.828125 50.359375 17.3125 C 50.359375 15.546875 51.726562 14.300781 52.898438 13.605469 C 53.765625 13.082031 54.761719 12.757812 55.78125 12.757812 Z M 55.78125 12.757812 "/>
<path style=" stroke:none;fill-rule:nonzero;fill:rgb(0%,0%,0%);fill-opacity:1;" d="M 55.78125 18.976562 C 57.148438 18.976562 58.46875 19.675781 58.46875 21.191406 C 58.46875 22.957031 57.101562 24.199219 55.929688 24.898438 C 55.058594 25.417969 54.066406 25.742188 53.046875 25.742188 C 51.679688 25.742188 50.359375 25.046875 50.359375 23.527344 C 50.359375 21.761719 51.726562 20.519531 52.898438 19.824219 C 53.765625 19.300781 54.761719 18.976562 55.78125 18.976562 Z M 55.78125 18.976562 "/>
<path style=" stroke:none;fill-rule:nonzero;fill:rgb(0%,0%,0%);fill-opacity:1;" d="M 55.78125 25.195312 C 57.148438 25.195312 58.46875 25.890625 58.46875 27.410156 C 58.46875 29.175781 57.101562 30.417969 55.929688 31.117188 C 55.058594 31.636719 54.066406 31.960938 53.046875 31.960938 C 51.679688 31.960938 50.359375 31.265625 50.359375 29.746094 C 50.359375 27.980469 51.726562 26.738281 52.898438 26.042969 C 53.765625 25.519531 54.761719 25.195312 55.78125 25.195312 Z M 55.78125 25.195312 "/>
<path style=" stroke:none;fill-rule:nonzero;fill:rgb(0%,0%,0%);fill-opacity:1;" d="M 55.78125 31.414062 C 57.148438 31.414062 58.46875 32.109375 58.46875 33.628906 C 58.46875 35.394531 57.101562 36.636719 55.929688 37.332031 C 55.058594 37.855469 54.066406 38.179688 53.046875 38.179688 C 51.679688 38.179688 50.359375 37.484375 50.359375 35.964844 C 50.359375 34.199219 51.726562 32.957031 52.898438 32.257812 C 53.765625 31.738281 54.761719 31.414062 55.78125 31.414062 Z M 55.78125 31.414062 "/>
</g>
</svg>
