<?xml version="1.0" encoding="UTF-8"?>
<svg xmlns="http://www.w3.org/2000/svg" xmlns:xlink="http://www.w3.org/1999/xlink" width="76.583943pt" height="48.646487pt" viewBox="0 0 76.583943 48.646487" version="1.1">
<g id="surface1">
<path style="fill:none;stroke-width:0.1;stroke-linecap:round;stroke-linejoin:round;stroke:rgb(0%,0%,0%);stroke-opacity:1;stroke-miterlimit:4;" d="M 0.049863 -0.0000416676 L 9.973561 -0.0000416676 " transform="matrix(6.218149,0,0,6.218149,4.561038,39.812759)"/>
<path style="fill:none;stroke-width:0.1;stroke-linecap:round;stroke-linejoin:round;stroke:rgb(0%,0%,0%);stroke-opacity:1;stroke-miterlimit:4;" d="M 0.049863 -0.000138316 L 9.973561 -0.000138316 " transform="matrix(6.218149,0,0,6.218149,4.561038,33.59461)"/>
<path style="fill:none;stroke-width:0.1;stroke-linecap:round;stroke-linejoin:round;stroke:rgb(0%,0%,0%);stroke-opacity:1;stroke-miterlimit:4;" d="M 0.049863 -0.000234965 L 9.973561 -0.000234965 " transform="matrix(6.218149,0,0,6.218149,4.561038,27.376461)"/>
<path style="fill:none;stroke-width:0.1;stroke-linecap:round;stroke-linejoin:round;stroke:rgb(0%,0%,0%);stroke-opacity:1;stroke-miterlimit:4;" d="M 0.049863 0.000296588 L 9.973561 0.000296588 " transform="matrix(6.218149,0,0,6.218149,4.561038,21.158312)"/>
<path style="fill:none;stroke-width:0.1;stroke-linecap:round;stroke-linejoin:round;stroke:rgb(0%,0%,0%);stroke-opacity:1;stroke-miterlimit:4;" d="M 0.049863 0.000199939 L 9.973561 0.000199939 " transform="matrix(6.218149,0,0,6.218149,4.561038,14.940163)"/>
<path style=" stroke:none;fill-rule:nonzero;fill:rgb(0%,0%,0%);fill-opacity:1;" d="M 55.769531 4.578125 L 56.082031 4.578125 C 56.21875 4.578125 56.332031 4.6875 56.332031 4.824219 L 56.332031 35.296875 C 56.332031 35.433594 56.21875 35.546875 56.082031 35.546875 L 55.769531 35.546875 C 55.632812 35.546875 55.523438 35.433594 55.523438 35.296875 L 55.523438 4.824219 C 55.523438 4.6875 55.632812 4.578125 55.769531 4.578125 Z M 55.769531 4.578125 "/>
<path style=" stroke:none;fill-rule:nonzero;fill:rgb(0%,0%,0%);fill-opacity:1;" d="M 41.742188 23.246094 L 41.71875 24.890625 L 41.71875 25.164062 C 41.71875 25.710938 41.742188 26.257812 41.816406 26.804688 C 42.9375 25.859375 44.128906 24.816406 44.128906 23.347656 C 44.128906 22.527344 43.78125 21.679688 43.058594 21.679688 C 42.289062 21.679688 41.765625 22.425781 41.742188 23.246094 Z M 40.695312 27.699219 L 40.398438 12.902344 C 40.597656 12.777344 40.847656 12.703125 41.070312 12.703125 C 41.292969 12.703125 41.542969 12.777344 41.742188 12.902344 L 41.566406 21.480469 C 42.191406 20.960938 43.011719 20.636719 43.832031 20.636719 C 45.125 20.636719 46.042969 21.828125 46.042969 23.171875 C 46.042969 25.164062 43.90625 26.082031 42.386719 27.375 C 42.015625 27.699219 41.792969 28.320312 41.269531 28.320312 C 40.945312 28.320312 40.695312 28.046875 40.695312 27.699219 Z M 40.695312 27.699219 "/>
<path style=" stroke:none;fill-rule:nonzero;fill:rgb(0%,0%,0%);fill-opacity:1;" d="M 31.371094 29.464844 L 31.34375 31.105469 L 31.34375 31.382812 C 31.34375 31.929688 31.371094 32.476562 31.445312 33.023438 C 32.5625 32.078125 33.757812 31.03125 33.757812 29.566406 C 33.757812 28.746094 33.410156 27.898438 32.6875 27.898438 C 31.917969 27.898438 31.394531 28.644531 31.371094 29.464844 Z M 30.324219 33.917969 L 30.027344 19.117188 C 30.226562 18.996094 30.472656 18.917969 30.699219 18.917969 C 30.921875 18.917969 31.171875 18.996094 31.371094 19.117188 L 31.195312 27.699219 C 31.816406 27.175781 32.636719 26.855469 33.460938 26.855469 C 34.753906 26.855469 35.671875 28.046875 35.671875 29.390625 C 35.671875 31.382812 33.535156 32.300781 32.015625 33.59375 C 31.644531 33.917969 31.417969 34.539062 30.898438 34.539062 C 30.574219 34.539062 30.324219 34.265625 30.324219 33.917969 Z M 30.324219 33.917969 "/>
<path style=" stroke:none;fill-rule:nonzero;fill:rgb(0%,0%,0%);fill-opacity:1;" d="M 38.257812 35.683594 L 38.234375 37.324219 L 38.234375 37.597656 C 38.234375 38.144531 38.257812 38.695312 38.335938 39.242188 C 39.453125 38.296875 40.648438 37.25 40.648438 35.785156 C 40.648438 34.960938 40.300781 34.117188 39.578125 34.117188 C 38.808594 34.117188 38.285156 34.863281 38.257812 35.683594 Z M 37.214844 40.136719 L 36.917969 25.335938 C 37.117188 25.210938 37.363281 25.136719 37.589844 25.136719 C 37.8125 25.136719 38.0625 25.210938 38.257812 25.335938 L 38.085938 33.917969 C 38.707031 33.394531 39.527344 33.074219 40.347656 33.074219 C 41.640625 33.074219 42.5625 34.265625 42.5625 35.609375 C 42.5625 37.597656 40.421875 38.519531 38.90625 39.8125 C 38.535156 40.136719 38.308594 40.757812 37.785156 40.757812 C 37.464844 40.757812 37.214844 40.484375 37.214844 40.136719 Z M 37.214844 40.136719 "/>
<path style=" stroke:none;fill-rule:nonzero;fill:rgb(0%,0%,0%);fill-opacity:1;" d="M 23.390625 24.265625 C 23.390625 23.570312 23.960938 23 24.65625 23 C 25.355469 23 25.925781 23.570312 25.925781 24.265625 C 25.925781 24.964844 25.355469 25.535156 24.65625 25.535156 C 23.960938 25.535156 23.390625 24.964844 23.390625 24.265625 Z M 23.390625 18.050781 C 23.390625 17.351562 23.960938 16.78125 24.65625 16.78125 C 25.355469 16.78125 25.925781 17.351562 25.925781 18.050781 C 25.925781 18.746094 25.355469 19.316406 24.65625 19.316406 C 23.960938 19.316406 23.390625 18.746094 23.390625 18.050781 Z M 15.304688 14.617188 C 19.585938 14.617188 22.59375 16.804688 22.59375 20.859375 C 22.59375 27.402344 16.050781 31.15625 9.757812 33.820312 C 9.683594 33.894531 9.609375 33.917969 9.535156 33.917969 C 9.363281 33.917969 9.210938 33.769531 9.210938 33.59375 C 9.210938 33.519531 9.238281 33.445312 9.3125 33.371094 C 14.335938 30.4375 19.558594 26.78125 19.558594 21.109375 C 19.558594 18.125 17.992188 15.261719 15.304688 15.261719 C 13.464844 15.261719 12.097656 16.605469 11.476562 18.398438 C 11.75 18.273438 12.023438 18.199219 12.320312 18.199219 C 13.6875 18.199219 14.808594 19.316406 14.808594 20.6875 C 14.808594 22.128906 13.714844 23.320312 12.320312 23.320312 C 10.828125 23.320312 9.535156 22.152344 9.535156 20.6875 C 9.535156 17.378906 12.074219 14.617188 15.304688 14.617188 Z M 15.304688 14.617188 "/>
<path style=" stroke:none;fill-rule:nonzero;fill:rgb(0%,0%,0%);fill-opacity:1;" d="M 53.644531 20.882812 C 55.011719 20.882812 56.328125 21.582031 56.328125 23.097656 C 56.328125 24.863281 54.960938 26.109375 53.792969 26.804688 C 52.921875 27.328125 51.925781 27.648438 50.90625 27.648438 C 49.539062 27.648438 48.222656 26.953125 48.222656 25.4375 C 48.222656 23.671875 49.589844 22.425781 50.757812 21.730469 C 51.628906 21.207031 52.625 20.882812 53.644531 20.882812 Z M 53.644531 20.882812 "/>
<path style=" stroke:none;fill-rule:nonzero;fill:rgb(0%,0%,0%);fill-opacity:1;" d="M 53.644531 27.101562 C 55.011719 27.101562 56.328125 27.800781 56.328125 29.316406 C 56.328125 31.082031 54.960938 32.324219 53.792969 33.023438 C 52.921875 33.542969 51.925781 33.867188 50.90625 33.867188 C 49.539062 33.867188 48.222656 33.171875 48.222656 31.65625 C 48.222656 29.886719 49.589844 28.644531 50.757812 27.949219 C 51.628906 27.425781 52.625 27.101562 53.644531 27.101562 Z M 53.644531 27.101562 "/>
<path style=" stroke:none;fill-rule:nonzero;fill:rgb(0%,0%,0%);fill-opacity:1;" d="M 53.644531 33.320312 C 55.011719 33.320312 56.328125 34.015625 56.328125 35.535156 C 56.328125 37.300781 54.960938 38.542969 53.792969 39.242188 C 52.921875 39.761719 51.925781 40.085938 50.90625 40.085938 C 49.539062 40.085938 48.222656 39.390625 48.222656 37.871094 C 48.222656 36.105469 49.589844 34.863281 50.757812 34.167969 C 51.628906 33.644531 52.625 33.320312 53.644531 33.320312 Z M 53.644531 33.320312 "/>
</g>
</svg>
