<?xml version="1.0" encoding="UTF-8"?>
<svg xmlns="http://www.w3.org/2000/svg" xmlns:xlink="http://www.w3.org/1999/xlink" width="91.69331pt" height="50.196013pt" viewBox="0 0 91.69331 50.196013" version="1.1">
<g id="surface1">
<path style="fill:none;stroke-width:0.1;stroke-linecap:round;stroke-linejoin:round;stroke:rgb(0%,0%,0%);stroke-opacity:1;stroke-miterlimit:4;" d="M 0.049863 -0.0001075 L 12.248278 -0.0001075 " transform="matrix(6.218149,0,0,6.218149,4.561038,29.434262)"/>
<path style="fill:none;stroke-width:0.1;stroke-linecap:round;stroke-linejoin:round;stroke:rgb(0%,0%,0%);stroke-opacity:1;stroke-miterlimit:4;" d="M 0.049863 -0.000204149 L 12.248278 -0.000204149 " transform="matrix(6.218149,0,0,6.218149,4.561038,23.216113)"/>
<path style="fill:none;stroke-width:0.1;stroke-linecap:round;stroke-linejoin:round;stroke:rgb(0%,0%,0%);stroke-opacity:1;stroke-miterlimit:4;" d="M 0.049863 -0.000300797 L 12.248278 -0.000300797 " transform="matrix(6.218149,0,0,6.218149,4.561038,16.997964)"/>
<path style="fill:none;stroke-width:0.1;stroke-linecap:round;stroke-linejoin:round;stroke:rgb(0%,0%,0%);stroke-opacity:1;stroke-miterlimit:4;" d="M 0.049863 0.000230756 L 12.248278 0.000230756 " transform="matrix(6.218149,0,0,6.218149,4.561038,10.779815)"/>
<path style="fill:none;stroke-width:0.1;stroke-linecap:round;stroke-linejoin:round;stroke:rgb(0%,0%,0%);stroke-opacity:1;stroke-miterlimit:4;" d="M 0.049863 0.000133988 L 12.248278 0.000133988 " transform="matrix(6.218149,0,0,6.218149,4.561038,4.561667)"/>
<path style=" stroke:none;fill-rule:nonzero;fill:rgb(0%,0%,0%);fill-opacity:1;" d="M 62.617188 8.828125 L 62.925781 8.828125 C 63.0625 8.828125 63.175781 8.9375 63.175781 9.078125 L 63.175781 41.621094 C 63.175781 41.757812 63.0625 41.871094 62.925781 41.871094 L 62.617188 41.871094 C 62.476562 41.871094 62.367188 41.757812 62.367188 41.621094 L 62.367188 9.078125 C 62.367188 8.9375 62.476562 8.828125 62.617188 8.828125 Z M 62.617188 8.828125 "/>
<path style=" stroke:none;fill-rule:nonzero;fill:rgb(0%,0%,0%);fill-opacity:1;" d="M 49.75 7.671875 C 50.324219 8.242188 51.144531 8.367188 51.964844 8.367188 C 52.113281 8.367188 52.214844 8.464844 52.214844 8.617188 L 52.4375 10.78125 C 52.460938 10.929688 52.335938 11.054688 52.1875 11.027344 L 50.023438 10.804688 C 49.898438 10.78125 49.777344 10.679688 49.777344 10.554688 C 49.777344 9.734375 49.652344 8.914062 49.078125 8.34375 C 48.507812 8.914062 48.40625 9.734375 48.40625 10.554688 C 48.40625 10.679688 48.285156 10.78125 48.160156 10.804688 L 45.96875 11.027344 C 45.820312 11.054688 45.695312 10.929688 45.722656 10.78125 L 45.945312 8.617188 C 45.945312 8.464844 46.042969 8.367188 46.195312 8.367188 C 47.015625 8.367188 47.835938 8.242188 48.40625 7.671875 C 47.835938 7.097656 47.015625 6.972656 46.195312 6.972656 C 46.042969 6.972656 45.945312 6.875 45.945312 6.726562 L 45.722656 4.5625 C 45.695312 4.414062 45.820312 4.289062 45.96875 4.3125 L 48.160156 4.535156 C 48.285156 4.5625 48.382812 4.660156 48.382812 4.785156 C 48.382812 5.605469 48.507812 6.425781 49.078125 7 C 49.652344 6.425781 49.777344 5.605469 49.777344 4.785156 C 49.777344 4.660156 49.898438 4.5625 50.023438 4.535156 L 52.1875 4.3125 C 52.335938 4.289062 52.460938 4.414062 52.4375 4.5625 L 52.214844 6.726562 C 52.214844 6.875 52.113281 6.972656 51.964844 6.972656 C 51.144531 6.972656 50.324219 7.097656 49.75 7.671875 Z M 49.75 7.671875 "/>
<path style=" stroke:none;fill-rule:nonzero;fill:rgb(0%,0%,0%);fill-opacity:1;" d="M 41.742188 10.78125 C 42.3125 11.351562 43.132812 11.476562 43.957031 11.476562 C 44.105469 11.476562 44.203125 11.574219 44.203125 11.726562 L 44.429688 13.890625 C 44.453125 14.039062 44.328125 14.164062 44.179688 14.136719 L 42.015625 13.914062 C 41.890625 13.890625 41.765625 13.789062 41.765625 13.664062 C 41.765625 12.84375 41.640625 12.023438 41.070312 11.453125 C 40.5 12.023438 40.398438 12.84375 40.398438 13.664062 C 40.398438 13.789062 40.273438 13.890625 40.148438 13.914062 L 37.960938 14.136719 C 37.8125 14.164062 37.6875 14.039062 37.710938 13.890625 L 37.9375 11.726562 C 37.9375 11.574219 38.035156 11.476562 38.183594 11.476562 C 39.003906 11.476562 39.828125 11.351562 40.398438 10.78125 C 39.828125 10.207031 39.003906 10.082031 38.183594 10.082031 C 38.035156 10.082031 37.9375 9.984375 37.9375 9.835938 L 37.710938 7.671875 C 37.6875 7.523438 37.8125 7.398438 37.960938 7.421875 L 40.148438 7.644531 C 40.273438 7.671875 40.375 7.769531 40.375 7.894531 C 40.375 8.714844 40.5 9.535156 41.070312 10.109375 C 41.640625 9.535156 41.765625 8.714844 41.765625 7.894531 C 41.765625 7.769531 41.890625 7.671875 42.015625 7.644531 L 44.179688 7.421875 C 44.328125 7.398438 44.453125 7.523438 44.429688 7.671875 L 44.203125 9.835938 C 44.203125 9.984375 44.105469 10.082031 43.957031 10.082031 C 43.132812 10.082031 42.3125 10.207031 41.742188 10.78125 Z M 41.742188 10.78125 "/>
<path style=" stroke:none;fill-rule:nonzero;fill:rgb(0%,0%,0%);fill-opacity:1;" d="M 33.734375 16.996094 C 34.304688 17.570312 35.125 17.695312 35.945312 17.695312 C 36.097656 17.695312 36.195312 17.792969 36.195312 17.941406 L 36.417969 20.105469 C 36.445312 20.257812 36.320312 20.378906 36.171875 20.355469 L 34.007812 20.132812 C 33.882812 20.105469 33.757812 20.007812 33.757812 19.882812 C 33.757812 19.0625 33.632812 18.242188 33.0625 17.667969 C 32.488281 18.242188 32.390625 19.0625 32.390625 19.882812 C 32.390625 20.007812 32.265625 20.105469 32.140625 20.132812 L 29.953125 20.355469 C 29.804688 20.378906 29.679688 20.257812 29.703125 20.105469 L 29.925781 17.941406 C 29.925781 17.792969 30.027344 17.695312 30.175781 17.695312 C 30.996094 17.695312 31.816406 17.570312 32.390625 16.996094 C 31.816406 16.425781 30.996094 16.300781 30.175781 16.300781 C 30.027344 16.300781 29.925781 16.203125 29.925781 16.054688 L 29.703125 13.890625 C 29.679688 13.738281 29.804688 13.617188 29.953125 13.640625 L 32.140625 13.863281 C 32.265625 13.890625 32.363281 13.988281 32.363281 14.113281 C 32.363281 14.933594 32.488281 15.753906 33.0625 16.328125 C 33.632812 15.753906 33.757812 14.933594 33.757812 14.113281 C 33.757812 13.988281 33.882812 13.890625 34.007812 13.863281 L 36.171875 13.640625 C 36.320312 13.617188 36.445312 13.738281 36.417969 13.890625 L 36.195312 16.054688 C 36.195312 16.203125 36.097656 16.300781 35.945312 16.300781 C 35.125 16.300781 34.304688 16.425781 33.734375 16.996094 Z M 33.734375 16.996094 "/>
<path style=" stroke:none;fill-rule:nonzero;fill:rgb(0%,0%,0%);fill-opacity:1;" d="M 52.484375 30.976562 C 52.484375 31.226562 52.285156 31.449219 52.039062 31.449219 C 51.789062 31.449219 51.566406 31.226562 51.566406 30.976562 L 51.566406 27.371094 L 49.5 28.140625 L 49.5 32.070312 C 49.5 32.320312 49.277344 32.542969 49.027344 32.542969 C 48.777344 32.542969 48.578125 32.320312 48.578125 32.070312 L 48.578125 28.464844 L 47.785156 28.761719 C 47.734375 28.789062 47.660156 28.789062 47.609375 28.789062 C 47.335938 28.789062 47.113281 28.5625 47.113281 28.289062 L 47.113281 26.796875 C 47.113281 26.597656 47.238281 26.398438 47.4375 26.324219 L 48.578125 25.925781 L 48.578125 21.949219 L 47.785156 22.222656 C 47.734375 22.246094 47.660156 22.246094 47.609375 22.246094 C 47.335938 22.246094 47.113281 22.023438 47.113281 21.75 L 47.113281 20.257812 C 47.113281 20.058594 47.238281 19.882812 47.4375 19.808594 L 48.578125 19.386719 L 48.578125 15.457031 C 48.578125 15.207031 48.777344 14.984375 49.027344 14.984375 C 49.277344 14.984375 49.5 15.207031 49.5 15.457031 L 49.5 19.0625 L 51.566406 18.292969 L 51.566406 14.363281 C 51.566406 14.113281 51.789062 13.890625 52.039062 13.890625 C 52.285156 13.890625 52.484375 14.113281 52.484375 14.363281 L 52.484375 17.96875 L 53.28125 17.667969 C 53.332031 17.644531 53.40625 17.644531 53.453125 17.644531 C 53.730469 17.644531 53.953125 17.867188 53.953125 18.140625 L 53.953125 19.632812 C 53.953125 19.832031 53.828125 20.03125 53.628906 20.105469 L 52.484375 20.503906 L 52.484375 24.484375 L 53.28125 24.210938 C 53.332031 24.1875 53.40625 24.1875 53.453125 24.1875 C 53.730469 24.1875 53.953125 24.410156 53.953125 24.683594 L 53.953125 26.175781 C 53.953125 26.375 53.828125 26.550781 53.628906 26.625 L 52.484375 27.046875 Z M 49.5 21.597656 L 49.5 25.578125 L 51.566406 24.832031 L 51.566406 20.851562 Z M 49.5 21.597656 "/>
<path style=" stroke:none;fill-rule:nonzero;fill:rgb(0%,0%,0%);fill-opacity:1;" d="M 23.390625 13.890625 C 23.390625 13.191406 23.960938 12.621094 24.65625 12.621094 C 25.355469 12.621094 25.925781 13.191406 25.925781 13.890625 C 25.925781 14.585938 25.355469 15.15625 24.65625 15.15625 C 23.960938 15.15625 23.390625 14.585938 23.390625 13.890625 Z M 23.390625 7.671875 C 23.390625 6.972656 23.960938 6.402344 24.65625 6.402344 C 25.355469 6.402344 25.925781 6.972656 25.925781 7.671875 C 25.925781 8.367188 25.355469 8.9375 24.65625 8.9375 C 23.960938 8.9375 23.390625 8.367188 23.390625 7.671875 Z M 15.304688 4.238281 C 19.585938 4.238281 22.59375 6.425781 22.59375 10.480469 C 22.59375 17.023438 16.050781 20.777344 9.757812 23.441406 C 9.683594 23.515625 9.609375 23.539062 9.535156 23.539062 C 9.363281 23.539062 9.210938 23.390625 9.210938 23.214844 C 9.210938 23.140625 9.238281 23.066406 9.3125 22.992188 C 14.335938 20.058594 19.558594 16.402344 19.558594 10.730469 C 19.558594 7.746094 17.992188 4.886719 15.304688 4.886719 C 13.464844 4.886719 12.097656 6.226562 11.476562 8.019531 C 11.75 7.894531 12.023438 7.820312 12.320312 7.820312 C 13.6875 7.820312 14.808594 8.9375 14.808594 10.308594 C 14.808594 11.75 13.714844 12.945312 12.320312 12.945312 C 10.828125 12.945312 9.535156 11.773438 9.535156 10.308594 C 9.535156 7 12.074219 4.238281 15.304688 4.238281 Z M 15.304688 4.238281 "/>
<path style=" stroke:none;fill-rule:nonzero;fill:rgb(0%,0%,0%);fill-opacity:1;" d="M 67.789062 4.289062 C 69.15625 4.289062 70.476562 4.984375 70.476562 6.5 C 70.476562 8.269531 69.105469 9.511719 67.9375 10.207031 C 67.066406 10.730469 66.074219 11.054688 65.054688 11.054688 C 63.683594 11.054688 62.367188 10.355469 62.367188 8.839844 C 62.367188 7.074219 63.734375 5.832031 64.902344 5.132812 C 65.773438 4.613281 66.769531 4.289062 67.789062 4.289062 Z M 67.789062 4.289062 "/>
<path style=" stroke:none;fill-rule:nonzero;fill:rgb(0%,0%,0%);fill-opacity:1;" d="M 60.082031 7.398438 C 61.453125 7.398438 62.769531 8.09375 62.769531 9.609375 C 62.769531 11.375 61.402344 12.621094 60.234375 13.316406 C 59.363281 13.839844 58.367188 14.164062 57.347656 14.164062 C 55.980469 14.164062 54.660156 13.464844 54.660156 11.949219 C 54.660156 10.183594 56.027344 8.9375 57.199219 8.242188 C 58.070312 7.71875 59.0625 7.398438 60.082031 7.398438 Z M 60.082031 7.398438 "/>
<path style=" stroke:none;fill-rule:nonzero;fill:rgb(0%,0%,0%);fill-opacity:1;" d="M 67.789062 13.617188 C 69.15625 13.617188 70.476562 14.3125 70.476562 15.828125 C 70.476562 17.59375 69.105469 18.839844 67.9375 19.535156 C 67.066406 20.058594 66.074219 20.378906 65.054688 20.378906 C 63.683594 20.378906 62.367188 19.683594 62.367188 18.167969 C 62.367188 16.402344 63.734375 15.15625 64.902344 14.460938 C 65.773438 13.9375 66.769531 13.617188 67.789062 13.617188 Z M 67.789062 13.617188 "/>
<path style=" stroke:none;fill-rule:nonzero;fill:rgb(0%,0%,0%);fill-opacity:1;" d="M 67.789062 19.832031 C 69.15625 19.832031 70.476562 20.53125 70.476562 22.046875 C 70.476562 23.8125 69.105469 25.058594 67.9375 25.753906 C 67.066406 26.277344 66.074219 26.597656 65.054688 26.597656 C 63.683594 26.597656 62.367188 25.902344 62.367188 24.386719 C 62.367188 22.621094 63.734375 21.375 64.902344 20.679688 C 65.773438 20.15625 66.769531 19.832031 67.789062 19.832031 Z M 67.789062 19.832031 "/>
</g>
</svg>
