<?xml version="1.0" encoding="UTF-8"?>
<svg xmlns="http://www.w3.org/2000/svg" xmlns:xlink="http://www.w3.org/1999/xlink" width="78.868712pt" height="69.317679pt" viewBox="0 0 78.868712 69.317679" version="1.1">
<g id="surface1">
<path style="fill:none;stroke-width:0.1;stroke-linecap:round;stroke-linejoin:round;stroke:rgb(0%,0%,0%);stroke-opacity:1;stroke-miterlimit:4;" d="M 0.049863 -0.000287501 L 10.317815 -0.000287501 " transform="matrix(6.218149,0,0,6.218149,4.561038,40.517413)"/>
<path style="fill:none;stroke-width:0.1;stroke-linecap:round;stroke-linejoin:round;stroke:rgb(0%,0%,0%);stroke-opacity:1;stroke-miterlimit:4;" d="M 0.049863 0.000244052 L 10.317815 0.000244052 " transform="matrix(6.218149,0,0,6.218149,4.561038,34.299264)"/>
<path style="fill:none;stroke-width:0.1;stroke-linecap:round;stroke-linejoin:round;stroke:rgb(0%,0%,0%);stroke-opacity:1;stroke-miterlimit:4;" d="M 0.049863 0.000147403 L 10.317815 0.000147403 " transform="matrix(6.218149,0,0,6.218149,4.561038,28.081115)"/>
<path style="fill:none;stroke-width:0.1;stroke-linecap:round;stroke-linejoin:round;stroke:rgb(0%,0%,0%);stroke-opacity:1;stroke-miterlimit:4;" d="M 0.049863 0.0000507548 L 10.317815 0.0000507548 " transform="matrix(6.218149,0,0,6.218149,4.561038,21.862966)"/>
<path style="fill:none;stroke-width:0.1;stroke-linecap:round;stroke-linejoin:round;stroke:rgb(0%,0%,0%);stroke-opacity:1;stroke-miterlimit:4;" d="M 0.049863 -0.0000458938 L 10.317815 -0.0000458938 " transform="matrix(6.218149,0,0,6.218149,4.561038,15.644817)"/>
<path style=" stroke:none;fill-rule:nonzero;fill:rgb(0%,0%,0%);fill-opacity:1;" d="M 48.953125 46.113281 L 59.875 46.113281 C 60.21875 46.113281 60.496094 46.390625 60.496094 46.734375 C 60.496094 47.078125 60.21875 47.355469 59.875 47.355469 L 48.953125 47.355469 C 48.609375 47.355469 48.332031 47.078125 48.332031 46.734375 C 48.332031 46.390625 48.609375 46.113281 48.953125 46.113281 Z M 48.953125 46.113281 "/>
<path style=" stroke:none;fill-rule:nonzero;fill:rgb(0%,0%,0%);fill-opacity:1;" d="M 49.894531 52.332031 L 59.875 52.332031 C 60.21875 52.332031 60.496094 52.609375 60.496094 52.953125 C 60.496094 53.296875 60.21875 53.574219 59.875 53.574219 L 49.894531 53.574219 C 49.550781 53.574219 49.269531 53.296875 49.269531 52.953125 C 49.269531 52.609375 49.550781 52.332031 49.894531 52.332031 Z M 49.894531 52.332031 "/>
<path style=" stroke:none;fill-rule:nonzero;fill:rgb(0%,0%,0%);fill-opacity:1;" d="M 57.910156 15.644531 L 58.21875 15.644531 C 58.359375 15.644531 58.46875 15.757812 58.46875 15.894531 L 58.46875 54.65625 C 58.46875 54.792969 58.359375 54.90625 58.21875 54.90625 L 57.910156 54.90625 C 57.773438 54.90625 57.660156 54.792969 57.660156 54.65625 L 57.660156 15.894531 C 57.660156 15.757812 57.773438 15.644531 57.910156 15.644531 Z M 57.910156 15.644531 "/>
<path style=" stroke:none;fill-rule:nonzero;fill:rgb(0%,0%,0%);fill-opacity:1;" d="M 43.878906 36.386719 L 43.855469 38.03125 L 43.855469 38.304688 C 43.855469 38.851562 43.878906 39.398438 43.953125 39.945312 C 45.074219 39 46.269531 37.957031 46.269531 36.488281 C 46.269531 35.667969 45.917969 34.820312 45.199219 34.820312 C 44.425781 34.820312 43.90625 35.566406 43.878906 36.386719 Z M 42.835938 40.839844 L 42.539062 26.042969 C 42.734375 25.917969 42.984375 25.84375 43.207031 25.84375 C 43.433594 25.84375 43.679688 25.917969 43.878906 26.042969 L 43.707031 34.621094 C 44.328125 34.101562 45.148438 33.777344 45.96875 33.777344 C 47.261719 33.777344 48.183594 34.972656 48.183594 36.3125 C 48.183594 38.304688 46.042969 39.222656 44.527344 40.515625 C 44.152344 40.839844 43.929688 41.460938 43.40625 41.460938 C 43.085938 41.460938 42.835938 41.1875 42.835938 40.839844 Z M 42.835938 40.839844 "/>
<path style=" stroke:none;fill-rule:nonzero;fill:rgb(0%,0%,0%);fill-opacity:1;" d="M 37.226562 42.605469 L 37.199219 44.25 L 37.199219 44.523438 C 37.199219 45.070312 37.226562 45.617188 37.300781 46.164062 C 38.417969 45.21875 39.613281 44.171875 39.613281 42.707031 C 39.613281 41.886719 39.265625 41.039062 38.542969 41.039062 C 37.773438 41.039062 37.25 41.785156 37.226562 42.605469 Z M 36.179688 47.058594 L 35.882812 32.257812 C 36.082031 32.136719 36.328125 32.0625 36.554688 32.0625 C 36.777344 32.0625 37.027344 32.136719 37.226562 32.257812 L 37.050781 40.839844 C 37.671875 40.320312 38.492188 39.996094 39.3125 39.996094 C 40.609375 39.996094 41.527344 41.1875 41.527344 42.53125 C 41.527344 44.523438 39.390625 45.441406 37.871094 46.734375 C 37.5 47.058594 37.273438 47.679688 36.753906 47.679688 C 36.429688 47.679688 36.179688 47.40625 36.179688 47.058594 Z M 36.179688 47.058594 "/>
<path style=" stroke:none;fill-rule:nonzero;fill:rgb(0%,0%,0%);fill-opacity:1;" d="M 30.632812 48.824219 L 30.609375 50.464844 L 30.609375 50.738281 C 30.609375 51.289062 30.632812 51.835938 30.707031 52.382812 C 31.828125 51.4375 33.023438 50.390625 33.023438 48.925781 C 33.023438 48.105469 32.671875 47.257812 31.953125 47.257812 C 31.179688 47.257812 30.660156 48.003906 30.632812 48.824219 Z M 29.589844 53.277344 L 29.289062 38.476562 C 29.488281 38.351562 29.738281 38.277344 29.960938 38.277344 C 30.1875 38.277344 30.433594 38.351562 30.632812 38.476562 L 30.460938 47.058594 C 31.082031 46.535156 31.902344 46.214844 32.722656 46.214844 C 34.015625 46.214844 34.9375 47.40625 34.9375 48.75 C 34.9375 50.738281 32.796875 51.660156 31.28125 52.953125 C 30.90625 53.277344 30.683594 53.898438 30.160156 53.898438 C 29.835938 53.898438 29.589844 53.625 29.589844 53.277344 Z M 29.589844 53.277344 "/>
<path style=" stroke:none;fill-rule:nonzero;fill:rgb(0%,0%,0%);fill-opacity:1;" d="M 43.878906 55.042969 L 43.855469 56.683594 L 43.855469 56.957031 C 43.855469 57.503906 43.878906 58.050781 43.953125 58.601562 C 45.074219 57.65625 46.269531 56.609375 46.269531 55.140625 C 46.269531 54.320312 45.917969 53.476562 45.199219 53.476562 C 44.425781 53.476562 43.90625 54.222656 43.878906 55.042969 Z M 42.835938 59.496094 L 42.539062 44.695312 C 42.734375 44.570312 42.984375 44.496094 43.207031 44.496094 C 43.433594 44.496094 43.679688 44.570312 43.878906 44.695312 L 43.707031 53.277344 C 44.328125 52.753906 45.148438 52.429688 45.96875 52.429688 C 47.261719 52.429688 48.183594 53.625 48.183594 54.96875 C 48.183594 56.957031 46.042969 57.878906 44.527344 59.171875 C 44.152344 59.496094 43.929688 60.117188 43.40625 60.117188 C 43.085938 60.117188 42.835938 59.84375 42.835938 59.496094 Z M 42.835938 59.496094 "/>
<path style=" stroke:none;fill-rule:nonzero;fill:rgb(0%,0%,0%);fill-opacity:1;" d="M 16.152344 50.09375 L 16.003906 50.09375 C 13.316406 50.09375 11.152344 47.90625 11.152344 45.195312 C 11.152344 43.75 12.46875 42.632812 13.9375 42.632812 C 15.28125 42.632812 16.300781 43.800781 16.300781 45.195312 C 16.300781 46.488281 15.230469 47.554688 13.9375 47.554688 C 13.664062 47.554688 13.414062 47.507812 13.167969 47.40625 C 13.8125 48.378906 14.859375 49.023438 16.078125 49.023438 L 16.175781 49.023438 Z M 21 39.347656 C 22.691406 38.75 23.8125 36.984375 23.8125 35.269531 C 23.8125 33.03125 22.171875 30.816406 19.507812 30.542969 C 20.105469 33.429688 20.652344 36.289062 21 39.347656 Z M 11.375 33.601562 C 11.375 36.960938 14.585938 39.746094 17.941406 39.746094 C 18.640625 39.746094 19.308594 39.695312 19.980469 39.597656 C 19.632812 36.4375 19.0625 33.503906 18.414062 30.542969 C 16.449219 30.742188 15.332031 32.0625 15.332031 33.503906 C 15.332031 34.597656 15.953125 35.765625 17.34375 36.5625 C 17.46875 36.6875 17.519531 36.8125 17.519531 36.9375 C 17.519531 37.210938 17.269531 37.484375 16.972656 37.484375 C 16.898438 37.484375 16.824219 37.457031 16.75 37.433594 C 14.757812 36.363281 13.839844 34.574219 13.839844 32.832031 C 13.839844 30.644531 15.28125 28.503906 17.816406 27.933594 C 17.46875 26.488281 17.097656 25.023438 16.675781 23.578125 C 14.011719 26.589844 11.375 29.625 11.375 33.601562 Z M 17.867188 40.816406 C 13.191406 40.816406 9.585938 36.539062 9.585938 31.511719 C 9.585938 27.109375 12.84375 23.902344 15.753906 20.542969 C 15.28125 19.003906 14.832031 17.4375 14.632812 15.820312 C 14.484375 14.527344 14.460938 13.230469 14.460938 11.9375 C 14.460938 9.078125 15.828125 6.367188 18.167969 4.675781 C 18.316406 4.550781 18.515625 4.550781 18.664062 4.675781 C 20.429688 6.765625 21.972656 10.769531 21.972656 13.582031 C 21.972656 17.136719 19.832031 19.921875 17.496094 22.632812 C 18.015625 24.324219 18.464844 26.066406 18.886719 27.78125 C 18.988281 27.78125 19.113281 27.757812 19.210938 27.757812 C 23.066406 27.757812 25.578125 30.941406 25.578125 34.25 C 25.578125 36.140625 24.757812 38.078125 22.917969 39.472656 C 22.371094 39.894531 21.746094 40.167969 21.101562 40.367188 C 21.175781 41.238281 21.226562 42.109375 21.226562 42.980469 C 21.226562 43.453125 21.199219 43.949219 21.175781 44.421875 C 21 47.382812 18.988281 50.019531 16.152344 50.09375 L 16.175781 49.023438 C 18.488281 48.972656 19.980469 46.734375 20.132812 44.273438 C 20.15625 43.824219 20.179688 43.351562 20.179688 42.90625 C 20.179688 42.132812 20.15625 41.386719 20.082031 40.617188 C 19.359375 40.742188 18.640625 40.816406 17.867188 40.816406 Z M 20.179688 11.515625 C 20.179688 10.148438 20.082031 9.550781 19.683594 8.308594 C 17.222656 9.5 15.652344 12.011719 15.652344 14.75 C 15.652344 16.589844 16.101562 18.058594 16.550781 19.574219 C 18.539062 17.160156 20.179688 14.648438 20.179688 11.515625 Z M 20.179688 11.515625 "/>
<path style=" stroke:none;fill-rule:nonzero;fill:rgb(0%,0%,0%);fill-opacity:1;" d="M 55.78125 34.027344 C 57.148438 34.027344 58.46875 34.722656 58.46875 36.238281 C 58.46875 38.003906 57.101562 39.25 55.929688 39.945312 C 55.058594 40.46875 54.066406 40.789062 53.046875 40.789062 C 51.679688 40.789062 50.359375 40.09375 50.359375 38.578125 C 50.359375 36.8125 51.726562 35.566406 52.898438 34.871094 C 53.765625 34.347656 54.761719 34.027344 55.78125 34.027344 Z M 55.78125 34.027344 "/>
<path style=" stroke:none;fill-rule:nonzero;fill:rgb(0%,0%,0%);fill-opacity:1;" d="M 55.78125 40.242188 C 57.148438 40.242188 58.46875 40.941406 58.46875 42.457031 C 58.46875 44.222656 57.101562 45.46875 55.929688 46.164062 C 55.058594 46.6875 54.066406 47.007812 53.046875 47.007812 C 51.679688 47.007812 50.359375 46.3125 50.359375 44.796875 C 50.359375 43.03125 51.726562 41.785156 52.898438 41.089844 C 53.765625 40.566406 54.761719 40.242188 55.78125 40.242188 Z M 55.78125 40.242188 "/>
<path style=" stroke:none;fill-rule:nonzero;fill:rgb(0%,0%,0%);fill-opacity:1;" d="M 55.78125 46.460938 C 57.148438 46.460938 58.46875 47.160156 58.46875 48.675781 C 58.46875 50.441406 57.101562 51.683594 55.929688 52.382812 C 55.058594 52.902344 54.066406 53.226562 53.046875 53.226562 C 51.679688 53.226562 50.359375 52.53125 50.359375 51.011719 C 50.359375 49.246094 51.726562 48.003906 52.898438 47.308594 C 53.765625 46.785156 54.761719 46.460938 55.78125 46.460938 Z M 55.78125 46.460938 "/>
<path style=" stroke:none;fill-rule:nonzero;fill:rgb(0%,0%,0%);fill-opacity:1;" d="M 55.78125 52.679688 C 57.148438 52.679688 58.46875 53.375 58.46875 54.894531 C 58.46875 56.660156 57.101562 57.902344 55.929688 58.601562 C 55.058594 59.121094 54.066406 59.445312 53.046875 59.445312 C 51.679688 59.445312 50.359375 58.75 50.359375 57.230469 C 50.359375 55.464844 51.726562 54.222656 52.898438 53.527344 C 53.765625 53.003906 54.761719 52.679688 55.78125 52.679688 Z M 55.78125 52.679688 "/>
</g>
</svg>
