<?xml version="1.0" encoding="UTF-8"?>
<svg xmlns="http://www.w3.org/2000/svg" xmlns:xlink="http://www.w3.org/1999/xlink" width="82.677102pt" height="68.30813pt" viewBox="0 0 82.677102 68.30813" version="1.1">
<g id="surface1">
<path style="fill:none;stroke-width:0.1;stroke-linecap:round;stroke-linejoin:round;stroke:rgb(0%,0%,0%);stroke-opacity:1;stroke-miterlimit:4;" d="M 0.049863 -0.000287501 L 10.890735 -0.000287501 " transform="matrix(6.218149,0,0,6.218149,4.561038,40.517413)"/>
<path style="fill:none;stroke-width:0.1;stroke-linecap:round;stroke-linejoin:round;stroke:rgb(0%,0%,0%);stroke-opacity:1;stroke-miterlimit:4;" d="M 0.049863 0.000244052 L 10.890735 0.000244052 " transform="matrix(6.218149,0,0,6.218149,4.561038,34.299264)"/>
<path style="fill:none;stroke-width:0.1;stroke-linecap:round;stroke-linejoin:round;stroke:rgb(0%,0%,0%);stroke-opacity:1;stroke-miterlimit:4;" d="M 0.049863 0.000147403 L 10.890735 0.000147403 " transform="matrix(6.218149,0,0,6.218149,4.561038,28.081115)"/>
<path style="fill:none;stroke-width:0.1;stroke-linecap:round;stroke-linejoin:round;stroke:rgb(0%,0%,0%);stroke-opacity:1;stroke-miterlimit:4;" d="M 0.049863 0.0000507548 L 10.890735 0.0000507548 " transform="matrix(6.218149,0,0,6.218149,4.561038,21.862966)"/>
<path style="fill:none;stroke-width:0.1;stroke-linecap:round;stroke-linejoin:round;stroke:rgb(0%,0%,0%);stroke-opacity:1;stroke-miterlimit:4;" d="M 0.049863 -0.0000458938 L 10.890735 -0.0000458938 " transform="matrix(6.218149,0,0,6.218149,4.561038,15.644817)"/>
<path style=" stroke:none;fill-rule:nonzero;fill:rgb(0%,0%,0%);fill-opacity:1;" d="M 53.457031 46.113281 L 63.441406 46.113281 C 63.785156 46.113281 64.0625 46.390625 64.0625 46.734375 C 64.0625 47.078125 63.785156 47.355469 63.441406 47.355469 L 53.457031 47.355469 C 53.117188 47.355469 52.835938 47.078125 52.835938 46.734375 C 52.835938 46.390625 53.117188 46.113281 53.457031 46.113281 Z M 53.457031 46.113281 "/>
<path style=" stroke:none;fill-rule:nonzero;fill:rgb(0%,0%,0%);fill-opacity:1;" d="M 61.476562 9.425781 L 61.785156 9.425781 C 61.921875 9.425781 62.035156 9.539062 62.035156 9.675781 L 62.035156 48.4375 C 62.035156 48.574219 61.921875 48.6875 61.785156 48.6875 L 61.476562 48.6875 C 61.335938 48.6875 61.226562 48.574219 61.226562 48.4375 L 61.226562 9.675781 C 61.226562 9.539062 61.335938 9.425781 61.476562 9.425781 Z M 61.476562 9.425781 "/>
<path style=" stroke:none;fill-rule:nonzero;fill:rgb(0%,0%,0%);fill-opacity:1;" d="M 49.015625 31.191406 C 49.585938 31.761719 50.40625 31.886719 51.226562 31.886719 C 51.378906 31.886719 51.476562 31.984375 51.476562 32.136719 L 51.699219 34.300781 C 51.726562 34.449219 51.601562 34.574219 51.453125 34.546875 L 49.289062 34.324219 C 49.164062 34.300781 49.039062 34.199219 49.039062 34.074219 C 49.039062 33.253906 48.914062 32.433594 48.34375 31.863281 C 47.769531 32.433594 47.671875 33.253906 47.671875 34.074219 C 47.671875 34.199219 47.546875 34.300781 47.421875 34.324219 L 45.234375 34.546875 C 45.085938 34.574219 44.960938 34.449219 44.984375 34.300781 L 45.210938 32.136719 C 45.210938 31.984375 45.308594 31.886719 45.457031 31.886719 C 46.277344 31.886719 47.097656 31.761719 47.671875 31.191406 C 47.097656 30.617188 46.277344 30.492188 45.457031 30.492188 C 45.308594 30.492188 45.210938 30.394531 45.210938 30.246094 L 44.984375 28.082031 C 44.960938 27.933594 45.085938 27.808594 45.234375 27.832031 L 47.421875 28.054688 C 47.546875 28.082031 47.648438 28.179688 47.648438 28.304688 C 47.648438 29.125 47.769531 29.945312 48.34375 30.519531 C 48.914062 29.945312 49.039062 29.125 49.039062 28.304688 C 49.039062 28.179688 49.164062 28.082031 49.289062 28.054688 L 51.453125 27.832031 C 51.601562 27.808594 51.726562 27.933594 51.699219 28.082031 L 51.476562 30.246094 C 51.476562 30.394531 51.378906 30.492188 51.226562 30.492188 C 50.40625 30.492188 49.585938 30.617188 49.015625 31.191406 Z M 49.015625 31.191406 "/>
<path style=" stroke:none;fill-rule:nonzero;fill:rgb(0%,0%,0%);fill-opacity:1;" d="M 41.003906 37.410156 C 41.578125 37.980469 42.398438 38.105469 43.21875 38.105469 C 43.367188 38.105469 43.46875 38.203125 43.46875 38.351562 L 43.691406 40.515625 C 43.714844 40.667969 43.59375 40.789062 43.441406 40.765625 L 41.277344 40.542969 C 41.15625 40.515625 41.03125 40.417969 41.03125 40.292969 C 41.03125 39.472656 40.90625 38.652344 40.335938 38.078125 C 39.761719 38.652344 39.664062 39.472656 39.664062 40.292969 C 39.664062 40.417969 39.539062 40.515625 39.414062 40.542969 L 37.226562 40.765625 C 37.074219 40.789062 36.953125 40.667969 36.976562 40.515625 L 37.199219 38.351562 C 37.199219 38.203125 37.300781 38.105469 37.449219 38.105469 C 38.269531 38.105469 39.089844 37.980469 39.664062 37.410156 C 39.089844 36.835938 38.269531 36.710938 37.449219 36.710938 C 37.300781 36.710938 37.199219 36.613281 37.199219 36.464844 L 36.976562 34.300781 C 36.953125 34.148438 37.074219 34.027344 37.226562 34.050781 L 39.414062 34.273438 C 39.539062 34.300781 39.636719 34.398438 39.636719 34.523438 C 39.636719 35.34375 39.761719 36.164062 40.335938 36.738281 C 40.90625 36.164062 41.03125 35.34375 41.03125 34.523438 C 41.03125 34.398438 41.15625 34.300781 41.277344 34.273438 L 43.441406 34.050781 C 43.59375 34.027344 43.714844 34.148438 43.691406 34.300781 L 43.46875 36.464844 C 43.46875 36.613281 43.367188 36.710938 43.21875 36.710938 C 42.398438 36.710938 41.578125 36.835938 41.003906 37.410156 Z M 41.003906 37.410156 "/>
<path style=" stroke:none;fill-rule:nonzero;fill:rgb(0%,0%,0%);fill-opacity:1;" d="M 32.996094 43.625 C 33.570312 44.199219 34.390625 44.324219 35.210938 44.324219 C 35.359375 44.324219 35.460938 44.421875 35.460938 44.570312 L 35.683594 46.734375 C 35.707031 46.886719 35.582031 47.007812 35.433594 46.984375 L 33.269531 46.761719 C 33.144531 46.734375 33.023438 46.636719 33.023438 46.511719 C 33.023438 45.691406 32.898438 44.871094 32.324219 44.296875 C 31.753906 44.871094 31.652344 45.691406 31.652344 46.511719 C 31.652344 46.636719 31.527344 46.734375 31.40625 46.761719 L 29.214844 46.984375 C 29.066406 47.007812 28.941406 46.886719 28.96875 46.734375 L 29.191406 44.570312 C 29.191406 44.421875 29.289062 44.324219 29.441406 44.324219 C 30.261719 44.324219 31.082031 44.199219 31.652344 43.625 C 31.082031 43.054688 30.261719 42.929688 29.441406 42.929688 C 29.289062 42.929688 29.191406 42.832031 29.191406 42.679688 L 28.96875 40.515625 C 28.941406 40.367188 29.066406 40.242188 29.214844 40.269531 L 31.40625 40.492188 C 31.527344 40.515625 31.628906 40.617188 31.628906 40.742188 C 31.628906 41.5625 31.753906 42.382812 32.324219 42.953125 C 32.898438 42.382812 33.023438 41.5625 33.023438 40.742188 C 33.023438 40.617188 33.144531 40.515625 33.269531 40.492188 L 35.433594 40.269531 C 35.582031 40.242188 35.707031 40.367188 35.683594 40.515625 L 35.460938 42.679688 C 35.460938 42.832031 35.359375 42.929688 35.210938 42.929688 C 34.390625 42.929688 33.570312 43.054688 32.996094 43.625 Z M 32.996094 43.625 "/>
<path style=" stroke:none;fill-rule:nonzero;fill:rgb(0%,0%,0%);fill-opacity:1;" d="M 50.28125 57.605469 C 50.28125 57.855469 50.082031 58.078125 49.832031 58.078125 C 49.585938 58.078125 49.359375 57.855469 49.359375 57.605469 L 49.359375 54 L 47.296875 54.769531 L 47.296875 58.699219 C 47.296875 58.949219 47.074219 59.171875 46.824219 59.171875 C 46.574219 59.171875 46.375 58.949219 46.375 58.699219 L 46.375 55.09375 L 45.582031 55.390625 C 45.53125 55.417969 45.457031 55.417969 45.40625 55.417969 C 45.132812 55.417969 44.910156 55.191406 44.910156 54.917969 L 44.910156 53.425781 C 44.910156 53.226562 45.03125 53.027344 45.230469 52.953125 L 46.375 52.554688 L 46.375 48.574219 L 45.582031 48.851562 C 45.53125 48.875 45.457031 48.875 45.40625 48.875 C 45.132812 48.875 44.910156 48.652344 44.910156 48.378906 L 44.910156 46.886719 C 44.910156 46.6875 45.03125 46.511719 45.230469 46.4375 L 46.375 46.015625 L 46.375 42.085938 C 46.375 41.835938 46.574219 41.613281 46.824219 41.613281 C 47.074219 41.613281 47.296875 41.835938 47.296875 42.085938 L 47.296875 45.691406 L 49.359375 44.917969 L 49.359375 40.988281 C 49.359375 40.742188 49.585938 40.515625 49.832031 40.515625 C 50.082031 40.515625 50.28125 40.742188 50.28125 40.988281 L 50.28125 44.597656 L 51.078125 44.296875 C 51.125 44.273438 51.203125 44.273438 51.25 44.273438 C 51.523438 44.273438 51.75 44.496094 51.75 44.769531 L 51.75 46.261719 C 51.75 46.460938 51.625 46.660156 51.425781 46.734375 L 50.28125 47.132812 L 50.28125 51.113281 L 51.078125 50.839844 C 51.125 50.816406 51.203125 50.816406 51.25 50.816406 C 51.523438 50.816406 51.75 51.039062 51.75 51.3125 L 51.75 52.804688 C 51.75 53.003906 51.625 53.175781 51.425781 53.253906 L 50.28125 53.675781 Z M 47.296875 48.226562 L 47.296875 52.207031 L 49.359375 51.460938 L 49.359375 47.480469 Z M 47.296875 48.226562 "/>
<path style=" stroke:none;fill-rule:nonzero;fill:rgb(0%,0%,0%);fill-opacity:1;" d="M 16.152344 50.09375 L 16.003906 50.09375 C 13.316406 50.09375 11.152344 47.90625 11.152344 45.195312 C 11.152344 43.75 12.46875 42.632812 13.9375 42.632812 C 15.28125 42.632812 16.300781 43.800781 16.300781 45.195312 C 16.300781 46.488281 15.230469 47.554688 13.9375 47.554688 C 13.664062 47.554688 13.414062 47.507812 13.167969 47.40625 C 13.8125 48.378906 14.859375 49.023438 16.078125 49.023438 L 16.175781 49.023438 Z M 21 39.347656 C 22.691406 38.75 23.8125 36.984375 23.8125 35.269531 C 23.8125 33.03125 22.171875 30.816406 19.507812 30.542969 C 20.105469 33.429688 20.652344 36.289062 21 39.347656 Z M 11.375 33.601562 C 11.375 36.960938 14.585938 39.746094 17.941406 39.746094 C 18.640625 39.746094 19.308594 39.695312 19.980469 39.597656 C 19.632812 36.4375 19.0625 33.503906 18.414062 30.542969 C 16.449219 30.742188 15.332031 32.0625 15.332031 33.503906 C 15.332031 34.597656 15.953125 35.765625 17.34375 36.5625 C 17.46875 36.6875 17.519531 36.8125 17.519531 36.9375 C 17.519531 37.210938 17.269531 37.484375 16.972656 37.484375 C 16.898438 37.484375 16.824219 37.457031 16.75 37.433594 C 14.757812 36.363281 13.839844 34.574219 13.839844 32.832031 C 13.839844 30.644531 15.28125 28.503906 17.816406 27.933594 C 17.46875 26.488281 17.097656 25.023438 16.675781 23.578125 C 14.011719 26.589844 11.375 29.625 11.375 33.601562 Z M 17.867188 40.816406 C 13.191406 40.816406 9.585938 36.539062 9.585938 31.511719 C 9.585938 27.109375 12.84375 23.902344 15.753906 20.542969 C 15.28125 19.003906 14.832031 17.4375 14.632812 15.820312 C 14.484375 14.527344 14.460938 13.230469 14.460938 11.9375 C 14.460938 9.078125 15.828125 6.367188 18.167969 4.675781 C 18.316406 4.550781 18.515625 4.550781 18.664062 4.675781 C 20.429688 6.765625 21.972656 10.769531 21.972656 13.582031 C 21.972656 17.136719 19.832031 19.921875 17.496094 22.632812 C 18.015625 24.324219 18.464844 26.066406 18.886719 27.78125 C 18.988281 27.78125 19.113281 27.757812 19.210938 27.757812 C 23.066406 27.757812 25.578125 30.941406 25.578125 34.25 C 25.578125 36.140625 24.757812 38.078125 22.917969 39.472656 C 22.371094 39.894531 21.746094 40.167969 21.101562 40.367188 C 21.175781 41.238281 21.226562 42.109375 21.226562 42.980469 C 21.226562 43.453125 21.199219 43.949219 21.175781 44.421875 C 21 47.382812 18.988281 50.019531 16.152344 50.09375 L 16.175781 49.023438 C 18.488281 48.972656 19.980469 46.734375 20.132812 44.273438 C 20.15625 43.824219 20.179688 43.351562 20.179688 42.90625 C 20.179688 42.132812 20.15625 41.386719 20.082031 40.617188 C 19.359375 40.742188 18.640625 40.816406 17.867188 40.816406 Z M 20.179688 11.515625 C 20.179688 10.148438 20.082031 9.550781 19.683594 8.308594 C 17.222656 9.5 15.652344 12.011719 15.652344 14.75 C 15.652344 16.589844 16.101562 18.058594 16.550781 19.574219 C 18.539062 17.160156 20.179688 14.648438 20.179688 11.515625 Z M 20.179688 11.515625 "/>
<path style=" stroke:none;fill-rule:nonzero;fill:rgb(0%,0%,0%);fill-opacity:1;" d="M 59.347656 27.808594 C 60.714844 27.808594 62.035156 28.503906 62.035156 30.019531 C 62.035156 31.789062 60.664062 33.03125 59.496094 33.726562 C 58.625 34.25 57.632812 34.574219 56.609375 34.574219 C 55.242188 34.574219 53.925781 33.875 53.925781 32.359375 C 53.925781 30.59375 55.292969 29.351562 56.460938 28.652344 C 57.332031 28.132812 58.328125 27.808594 59.347656 27.808594 Z M 59.347656 27.808594 "/>
<path style=" stroke:none;fill-rule:nonzero;fill:rgb(0%,0%,0%);fill-opacity:1;" d="M 59.347656 34.027344 C 60.714844 34.027344 62.035156 34.722656 62.035156 36.238281 C 62.035156 38.003906 60.664062 39.25 59.496094 39.945312 C 58.625 40.46875 57.632812 40.789062 56.609375 40.789062 C 55.242188 40.789062 53.925781 40.09375 53.925781 38.578125 C 53.925781 36.8125 55.292969 35.566406 56.460938 34.871094 C 57.332031 34.347656 58.328125 34.027344 59.347656 34.027344 Z M 59.347656 34.027344 "/>
<path style=" stroke:none;fill-rule:nonzero;fill:rgb(0%,0%,0%);fill-opacity:1;" d="M 59.347656 40.242188 C 60.714844 40.242188 62.035156 40.941406 62.035156 42.457031 C 62.035156 44.222656 60.664062 45.46875 59.496094 46.164062 C 58.625 46.6875 57.632812 47.007812 56.609375 47.007812 C 55.242188 47.007812 53.925781 46.3125 53.925781 44.796875 C 53.925781 43.03125 55.292969 41.785156 56.460938 41.089844 C 57.332031 40.566406 58.328125 40.242188 59.347656 40.242188 Z M 59.347656 40.242188 "/>
<path style=" stroke:none;fill-rule:nonzero;fill:rgb(0%,0%,0%);fill-opacity:1;" d="M 59.347656 46.460938 C 60.714844 46.460938 62.035156 47.160156 62.035156 48.675781 C 62.035156 50.441406 60.664062 51.683594 59.496094 52.382812 C 58.625 52.902344 57.632812 53.226562 56.609375 53.226562 C 55.242188 53.226562 53.925781 52.53125 53.925781 51.011719 C 53.925781 49.246094 55.292969 48.003906 56.460938 47.308594 C 57.332031 46.785156 58.328125 46.460938 59.347656 46.460938 Z M 59.347656 46.460938 "/>
</g>
</svg>
