<?xml version="1.0" encoding="UTF-8"?>
<svg xmlns="http://www.w3.org/2000/svg" xmlns:xlink="http://www.w3.org/1999/xlink" width="82.054772pt" height="56.837787pt" viewBox="0 0 82.054772 56.837787" version="1.1">
<g id="surface1">
<path style="fill:none;stroke-width:0.1;stroke-linecap:round;stroke-linejoin:round;stroke:rgb(0%,0%,0%);stroke-opacity:1;stroke-miterlimit:4;" d="M 0.049863 -0.0001075 L 10.797133 -0.0001075 " transform="matrix(6.218149,0,0,6.218149,4.561038,29.434262)"/>
<path style="fill:none;stroke-width:0.1;stroke-linecap:round;stroke-linejoin:round;stroke:rgb(0%,0%,0%);stroke-opacity:1;stroke-miterlimit:4;" d="M 0.049863 -0.000204149 L 10.797133 -0.000204149 " transform="matrix(6.218149,0,0,6.218149,4.561038,23.216113)"/>
<path style="fill:none;stroke-width:0.1;stroke-linecap:round;stroke-linejoin:round;stroke:rgb(0%,0%,0%);stroke-opacity:1;stroke-miterlimit:4;" d="M 0.049863 -0.000300797 L 10.797133 -0.000300797 " transform="matrix(6.218149,0,0,6.218149,4.561038,16.997964)"/>
<path style="fill:none;stroke-width:0.1;stroke-linecap:round;stroke-linejoin:round;stroke:rgb(0%,0%,0%);stroke-opacity:1;stroke-miterlimit:4;" d="M 0.049863 0.000230756 L 10.797133 0.000230756 " transform="matrix(6.218149,0,0,6.218149,4.561038,10.779815)"/>
<path style="fill:none;stroke-width:0.1;stroke-linecap:round;stroke-linejoin:round;stroke:rgb(0%,0%,0%);stroke-opacity:1;stroke-miterlimit:4;" d="M 0.049863 0.000133988 L 10.797133 0.000133988 " transform="matrix(6.218149,0,0,6.218149,4.561038,4.561667)"/>
<path style=" stroke:none;fill-rule:nonzero;fill:rgb(0%,0%,0%);fill-opacity:1;" d="M 51.9375 35.03125 L 62.859375 35.03125 C 63.203125 35.03125 63.480469 35.308594 63.480469 35.652344 C 63.480469 35.996094 63.203125 36.273438 62.859375 36.273438 L 51.9375 36.273438 C 51.59375 36.273438 51.316406 35.996094 51.316406 35.652344 C 51.316406 35.308594 51.59375 35.03125 51.9375 35.03125 Z M 51.9375 35.03125 "/>
<path style=" stroke:none;fill-rule:nonzero;fill:rgb(0%,0%,0%);fill-opacity:1;" d="M 60.894531 4.5625 L 61.203125 4.5625 C 61.339844 4.5625 61.453125 4.671875 61.453125 4.808594 L 61.453125 37.355469 C 61.453125 37.492188 61.339844 37.605469 61.203125 37.605469 L 60.894531 37.605469 C 60.753906 37.605469 60.644531 37.492188 60.644531 37.355469 L 60.644531 4.808594 C 60.644531 4.671875 60.753906 4.5625 60.894531 4.5625 Z M 60.894531 4.5625 "/>
<path style=" stroke:none;fill-rule:nonzero;fill:rgb(0%,0%,0%);fill-opacity:1;" d="M 49.699219 34.085938 C 49.699219 34.335938 49.5 34.558594 49.25 34.558594 C 49.003906 34.558594 48.777344 34.335938 48.777344 34.085938 L 48.777344 30.480469 L 46.714844 31.25 L 46.714844 35.179688 C 46.714844 35.429688 46.492188 35.652344 46.242188 35.652344 C 45.992188 35.652344 45.792969 35.429688 45.792969 35.179688 L 45.792969 31.574219 L 45 31.871094 C 44.949219 31.898438 44.875 31.898438 44.824219 31.898438 C 44.550781 31.898438 44.328125 31.671875 44.328125 31.398438 L 44.328125 29.90625 C 44.328125 29.707031 44.449219 29.507812 44.648438 29.433594 L 45.792969 29.035156 L 45.792969 25.058594 L 45 25.332031 C 44.949219 25.355469 44.875 25.355469 44.824219 25.355469 C 44.550781 25.355469 44.328125 25.132812 44.328125 24.859375 L 44.328125 23.367188 C 44.328125 23.167969 44.449219 22.992188 44.648438 22.917969 L 45.792969 22.496094 L 45.792969 18.566406 C 45.792969 18.316406 45.992188 18.09375 46.242188 18.09375 C 46.492188 18.09375 46.714844 18.316406 46.714844 18.566406 L 46.714844 22.171875 L 48.777344 21.402344 L 48.777344 17.46875 C 48.777344 17.222656 49.003906 16.996094 49.25 16.996094 C 49.5 16.996094 49.699219 17.222656 49.699219 17.46875 L 49.699219 21.078125 L 50.496094 20.777344 C 50.542969 20.753906 50.621094 20.753906 50.667969 20.753906 C 50.941406 20.753906 51.167969 20.976562 51.167969 21.25 L 51.167969 22.742188 C 51.167969 22.941406 51.042969 23.140625 50.84375 23.214844 L 49.699219 23.613281 L 49.699219 27.59375 L 50.496094 27.320312 C 50.542969 27.296875 50.621094 27.296875 50.667969 27.296875 C 50.941406 27.296875 51.167969 27.519531 51.167969 27.792969 L 51.167969 29.285156 C 51.167969 29.484375 51.042969 29.65625 50.84375 29.734375 L 49.699219 30.15625 Z M 46.714844 24.707031 L 46.714844 28.6875 L 48.777344 27.941406 L 48.777344 23.960938 Z M 46.714844 24.707031 "/>
<path style=" stroke:none;fill-rule:nonzero;fill:rgb(0%,0%,0%);fill-opacity:1;" d="M 33.734375 32.542969 C 34.304688 33.117188 35.125 33.238281 35.945312 33.238281 C 36.097656 33.238281 36.195312 33.339844 36.195312 33.488281 L 36.417969 35.652344 C 36.445312 35.800781 36.320312 35.925781 36.171875 35.902344 L 34.007812 35.675781 C 33.882812 35.652344 33.757812 35.554688 33.757812 35.429688 C 33.757812 34.609375 33.632812 33.785156 33.0625 33.214844 C 32.488281 33.785156 32.390625 34.609375 32.390625 35.429688 C 32.390625 35.554688 32.265625 35.652344 32.140625 35.675781 L 29.953125 35.902344 C 29.804688 35.925781 29.679688 35.800781 29.703125 35.652344 L 29.925781 33.488281 C 29.925781 33.339844 30.027344 33.238281 30.175781 33.238281 C 30.996094 33.238281 31.816406 33.117188 32.390625 32.542969 C 31.816406 31.972656 30.996094 31.847656 30.175781 31.847656 C 30.027344 31.847656 29.925781 31.746094 29.925781 31.597656 L 29.703125 29.433594 C 29.679688 29.285156 29.804688 29.160156 29.953125 29.183594 L 32.140625 29.410156 C 32.265625 29.433594 32.363281 29.535156 32.363281 29.65625 C 32.363281 30.480469 32.488281 31.300781 33.0625 31.871094 C 33.632812 31.300781 33.757812 30.480469 33.757812 29.65625 C 33.757812 29.535156 33.882812 29.433594 34.007812 29.410156 L 36.171875 29.183594 C 36.320312 29.160156 36.445312 29.285156 36.417969 29.433594 L 36.195312 31.597656 C 36.195312 31.746094 36.097656 31.847656 35.945312 31.847656 C 35.125 31.847656 34.304688 31.972656 33.734375 32.542969 Z M 33.734375 32.542969 "/>
<path style=" stroke:none;fill-rule:nonzero;fill:rgb(0%,0%,0%);fill-opacity:1;" d="M 43.082031 46.523438 C 43.082031 46.769531 42.882812 46.996094 42.636719 46.996094 C 42.386719 46.996094 42.164062 46.769531 42.164062 46.523438 L 42.164062 42.914062 L 40.097656 43.6875 L 40.097656 47.617188 C 40.097656 47.863281 39.875 48.089844 39.625 48.089844 C 39.378906 48.089844 39.179688 47.863281 39.179688 47.617188 L 39.179688 44.007812 L 38.382812 44.308594 C 38.332031 44.332031 38.257812 44.332031 38.207031 44.332031 C 37.933594 44.332031 37.710938 44.109375 37.710938 43.835938 L 37.710938 42.34375 C 37.710938 42.144531 37.835938 41.945312 38.035156 41.871094 L 39.179688 41.472656 L 39.179688 37.492188 L 38.382812 37.765625 C 38.332031 37.792969 38.257812 37.792969 38.207031 37.792969 C 37.933594 37.792969 37.710938 37.566406 37.710938 37.292969 L 37.710938 35.800781 C 37.710938 35.601562 37.835938 35.429688 38.035156 35.355469 L 39.179688 34.929688 L 39.179688 31 C 39.179688 30.753906 39.378906 30.527344 39.625 30.527344 C 39.875 30.527344 40.097656 30.753906 40.097656 31 L 40.097656 34.609375 L 42.164062 33.835938 L 42.164062 29.90625 C 42.164062 29.65625 42.386719 29.433594 42.636719 29.433594 C 42.882812 29.433594 43.082031 29.65625 43.082031 29.90625 L 43.082031 33.511719 L 43.878906 33.214844 C 43.929688 33.191406 44.003906 33.191406 44.054688 33.191406 C 44.328125 33.191406 44.550781 33.414062 44.550781 33.6875 L 44.550781 35.179688 C 44.550781 35.378906 44.425781 35.578125 44.226562 35.652344 L 43.082031 36.050781 L 43.082031 40.03125 L 43.878906 39.757812 C 43.929688 39.730469 44.003906 39.730469 44.054688 39.730469 C 44.328125 39.730469 44.550781 39.957031 44.550781 40.230469 L 44.550781 41.722656 C 44.550781 41.921875 44.425781 42.09375 44.226562 42.167969 L 43.082031 42.59375 Z M 40.097656 37.144531 L 40.097656 41.125 L 42.164062 40.378906 L 42.164062 36.398438 Z M 40.097656 37.144531 "/>
<path style=" stroke:none;fill-rule:nonzero;fill:rgb(0%,0%,0%);fill-opacity:1;" d="M 23.390625 13.890625 C 23.390625 13.191406 23.960938 12.621094 24.65625 12.621094 C 25.355469 12.621094 25.925781 13.191406 25.925781 13.890625 C 25.925781 14.585938 25.355469 15.15625 24.65625 15.15625 C 23.960938 15.15625 23.390625 14.585938 23.390625 13.890625 Z M 23.390625 7.671875 C 23.390625 6.972656 23.960938 6.402344 24.65625 6.402344 C 25.355469 6.402344 25.925781 6.972656 25.925781 7.671875 C 25.925781 8.367188 25.355469 8.9375 24.65625 8.9375 C 23.960938 8.9375 23.390625 8.367188 23.390625 7.671875 Z M 15.304688 4.238281 C 19.585938 4.238281 22.59375 6.425781 22.59375 10.480469 C 22.59375 17.023438 16.050781 20.777344 9.757812 23.441406 C 9.683594 23.515625 9.609375 23.539062 9.535156 23.539062 C 9.363281 23.539062 9.210938 23.390625 9.210938 23.214844 C 9.210938 23.140625 9.238281 23.066406 9.3125 22.992188 C 14.335938 20.058594 19.558594 16.402344 19.558594 10.730469 C 19.558594 7.746094 17.992188 4.886719 15.304688 4.886719 C 13.464844 4.886719 12.097656 6.226562 11.476562 8.019531 C 11.75 7.894531 12.023438 7.820312 12.320312 7.820312 C 13.6875 7.820312 14.808594 8.9375 14.808594 10.308594 C 14.808594 11.75 13.714844 12.945312 12.320312 12.945312 C 10.828125 12.945312 9.535156 11.773438 9.535156 10.308594 C 9.535156 7 12.074219 4.238281 15.304688 4.238281 Z M 15.304688 4.238281 "/>
<path style=" stroke:none;fill-rule:nonzero;fill:rgb(0%,0%,0%);fill-opacity:1;" d="M 58.765625 22.941406 C 60.132812 22.941406 61.453125 23.640625 61.453125 25.15625 C 61.453125 26.921875 60.082031 28.164062 58.914062 28.863281 C 58.042969 29.382812 57.050781 29.707031 56.027344 29.707031 C 54.660156 29.707031 53.34375 29.011719 53.34375 27.496094 C 53.34375 25.726562 54.710938 24.484375 55.878906 23.789062 C 56.75 23.265625 57.746094 22.941406 58.765625 22.941406 Z M 58.765625 22.941406 "/>
<path style=" stroke:none;fill-rule:nonzero;fill:rgb(0%,0%,0%);fill-opacity:1;" d="M 58.765625 29.160156 C 60.132812 29.160156 61.453125 29.855469 61.453125 31.375 C 61.453125 33.140625 60.082031 34.382812 58.914062 35.082031 C 58.042969 35.601562 57.050781 35.925781 56.027344 35.925781 C 54.660156 35.925781 53.34375 35.230469 53.34375 33.710938 C 53.34375 31.945312 54.710938 30.703125 55.878906 30.007812 C 56.75 29.484375 57.746094 29.160156 58.765625 29.160156 Z M 58.765625 29.160156 "/>
<path style=" stroke:none;fill-rule:nonzero;fill:rgb(0%,0%,0%);fill-opacity:1;" d="M 58.765625 35.378906 C 60.132812 35.378906 61.453125 36.074219 61.453125 37.59375 C 61.453125 39.359375 60.082031 40.601562 58.914062 41.296875 C 58.042969 41.820312 57.050781 42.144531 56.027344 42.144531 C 54.660156 42.144531 53.34375 41.449219 53.34375 39.929688 C 53.34375 38.164062 54.710938 36.921875 55.878906 36.222656 C 56.75 35.703125 57.746094 35.378906 58.765625 35.378906 Z M 58.765625 35.378906 "/>
</g>
</svg>
