<?xml version="1.0" encoding="UTF-8"?>
<svg xmlns="http://www.w3.org/2000/svg" xmlns:xlink="http://www.w3.org/1999/xlink" width="81.269047pt" height="58.61114pt" viewBox="0 0 81.269047 58.61114" version="1.1">
<g id="surface1">
<path style="fill:none;stroke-width:0.1;stroke-linecap:round;stroke-linejoin:round;stroke:rgb(0%,0%,0%);stroke-opacity:1;stroke-miterlimit:4;" d="M 0.049863 -0.000287501 L 10.679031 -0.000287501 " transform="matrix(6.218149,0,0,6.218149,4.561038,40.517413)"/>
<path style="fill:none;stroke-width:0.1;stroke-linecap:round;stroke-linejoin:round;stroke:rgb(0%,0%,0%);stroke-opacity:1;stroke-miterlimit:4;" d="M 0.049863 0.000244052 L 10.679031 0.000244052 " transform="matrix(6.218149,0,0,6.218149,4.561038,34.299264)"/>
<path style="fill:none;stroke-width:0.1;stroke-linecap:round;stroke-linejoin:round;stroke:rgb(0%,0%,0%);stroke-opacity:1;stroke-miterlimit:4;" d="M 0.049863 0.000147403 L 10.679031 0.000147403 " transform="matrix(6.218149,0,0,6.218149,4.561038,28.081115)"/>
<path style="fill:none;stroke-width:0.1;stroke-linecap:round;stroke-linejoin:round;stroke:rgb(0%,0%,0%);stroke-opacity:1;stroke-miterlimit:4;" d="M 0.049863 0.0000507548 L 10.679031 0.0000507548 " transform="matrix(6.218149,0,0,6.218149,4.561038,21.862966)"/>
<path style="fill:none;stroke-width:0.1;stroke-linecap:round;stroke-linejoin:round;stroke:rgb(0%,0%,0%);stroke-opacity:1;stroke-miterlimit:4;" d="M 0.049863 -0.0000458938 L 10.679031 -0.0000458938 " transform="matrix(6.218149,0,0,6.218149,4.561038,15.644817)"/>
<path style=" stroke:none;fill-rule:nonzero;fill:rgb(0%,0%,0%);fill-opacity:1;" d="M 60.15625 5.28125 L 60.46875 5.28125 C 60.605469 5.28125 60.714844 5.390625 60.714844 5.53125 L 60.714844 39.113281 C 60.714844 39.25 60.605469 39.359375 60.46875 39.359375 L 60.15625 39.359375 C 60.019531 39.359375 59.90625 39.25 59.90625 39.113281 L 59.90625 5.53125 C 59.90625 5.390625 60.019531 5.28125 60.15625 5.28125 Z M 60.15625 5.28125 "/>
<path style=" stroke:none;fill-rule:nonzero;fill:rgb(0%,0%,0%);fill-opacity:1;" d="M 39.613281 24.972656 C 40.183594 25.542969 41.003906 25.667969 41.828125 25.667969 C 41.976562 25.667969 42.074219 25.769531 42.074219 25.917969 L 42.300781 28.082031 C 42.324219 28.230469 42.199219 28.355469 42.050781 28.328125 L 39.886719 28.105469 C 39.761719 28.082031 39.636719 27.980469 39.636719 27.855469 C 39.636719 27.035156 39.511719 26.214844 38.941406 25.644531 C 38.367188 26.214844 38.269531 27.035156 38.269531 27.855469 C 38.269531 27.980469 38.144531 28.082031 38.019531 28.105469 L 35.832031 28.328125 C 35.683594 28.355469 35.558594 28.230469 35.582031 28.082031 L 35.808594 25.917969 C 35.808594 25.769531 35.90625 25.667969 36.054688 25.667969 C 36.875 25.667969 37.699219 25.542969 38.269531 24.972656 C 37.699219 24.398438 36.875 24.277344 36.054688 24.277344 C 35.90625 24.277344 35.808594 24.175781 35.808594 24.027344 L 35.582031 21.863281 C 35.558594 21.714844 35.683594 21.589844 35.832031 21.613281 L 38.019531 21.839844 C 38.144531 21.863281 38.246094 21.960938 38.246094 22.085938 C 38.246094 22.90625 38.367188 23.726562 38.941406 24.300781 C 39.511719 23.726562 39.636719 22.90625 39.636719 22.085938 C 39.636719 21.960938 39.761719 21.863281 39.886719 21.839844 L 42.050781 21.613281 C 42.199219 21.589844 42.324219 21.714844 42.300781 21.863281 L 42.074219 24.027344 C 42.074219 24.175781 41.976562 24.277344 41.828125 24.277344 C 41.003906 24.277344 40.183594 24.398438 39.613281 24.972656 Z M 39.613281 24.972656 "/>
<path style=" stroke:none;fill-rule:nonzero;fill:rgb(0%,0%,0%);fill-opacity:1;" d="M 48.964844 35.839844 C 48.964844 36.089844 48.765625 36.3125 48.515625 36.3125 C 48.265625 36.3125 48.042969 36.089844 48.042969 35.839844 L 48.042969 32.234375 L 45.976562 33.007812 L 45.976562 36.9375 C 45.976562 37.183594 45.753906 37.410156 45.503906 37.410156 C 45.257812 37.410156 45.058594 37.183594 45.058594 36.9375 L 45.058594 33.328125 L 44.261719 33.628906 C 44.210938 33.652344 44.136719 33.652344 44.089844 33.652344 C 43.8125 33.652344 43.589844 33.429688 43.589844 33.15625 L 43.589844 31.664062 C 43.589844 31.464844 43.714844 31.265625 43.914062 31.191406 L 45.058594 30.792969 L 45.058594 26.8125 L 44.261719 27.085938 C 44.210938 27.109375 44.136719 27.109375 44.089844 27.109375 C 43.8125 27.109375 43.589844 26.886719 43.589844 26.613281 L 43.589844 25.121094 C 43.589844 24.921875 43.714844 24.75 43.914062 24.671875 L 45.058594 24.25 L 45.058594 20.320312 C 45.058594 20.070312 45.257812 19.847656 45.503906 19.847656 C 45.753906 19.847656 45.976562 20.070312 45.976562 20.320312 L 45.976562 23.925781 L 48.042969 23.15625 L 48.042969 19.226562 C 48.042969 18.976562 48.265625 18.753906 48.515625 18.753906 C 48.765625 18.753906 48.964844 18.976562 48.964844 19.226562 L 48.964844 22.832031 L 49.757812 22.535156 C 49.808594 22.507812 49.882812 22.507812 49.933594 22.507812 C 50.207031 22.507812 50.429688 22.734375 50.429688 23.007812 L 50.429688 24.5 C 50.429688 24.699219 50.304688 24.898438 50.105469 24.972656 L 48.964844 25.371094 L 48.964844 29.351562 L 49.757812 29.074219 C 49.808594 29.050781 49.882812 29.050781 49.933594 29.050781 C 50.207031 29.050781 50.429688 29.273438 50.429688 29.546875 L 50.429688 31.039062 C 50.429688 31.238281 50.304688 31.414062 50.105469 31.488281 L 48.964844 31.910156 Z M 45.976562 26.464844 L 45.976562 30.445312 L 48.042969 29.699219 L 48.042969 25.71875 Z M 45.976562 26.464844 "/>
<path style=" stroke:none;fill-rule:nonzero;fill:rgb(0%,0%,0%);fill-opacity:1;" d="M 32.996094 34.300781 C 33.570312 34.871094 34.390625 34.996094 35.210938 34.996094 C 35.359375 34.996094 35.460938 35.09375 35.460938 35.246094 L 35.683594 37.410156 C 35.707031 37.558594 35.582031 37.683594 35.433594 37.65625 L 33.269531 37.433594 C 33.144531 37.410156 33.023438 37.308594 33.023438 37.183594 C 33.023438 36.363281 32.898438 35.542969 32.324219 34.972656 C 31.753906 35.542969 31.652344 36.363281 31.652344 37.183594 C 31.652344 37.308594 31.527344 37.410156 31.40625 37.433594 L 29.214844 37.65625 C 29.066406 37.683594 28.941406 37.558594 28.96875 37.410156 L 29.191406 35.246094 C 29.191406 35.09375 29.289062 34.996094 29.441406 34.996094 C 30.261719 34.996094 31.082031 34.871094 31.652344 34.300781 C 31.082031 33.726562 30.261719 33.601562 29.441406 33.601562 C 29.289062 33.601562 29.191406 33.503906 29.191406 33.355469 L 28.96875 31.191406 C 28.941406 31.039062 29.066406 30.917969 29.214844 30.941406 L 31.40625 31.164062 C 31.527344 31.191406 31.628906 31.289062 31.628906 31.414062 C 31.628906 32.234375 31.753906 33.054688 32.324219 33.628906 C 32.898438 33.054688 33.023438 32.234375 33.023438 31.414062 C 33.023438 31.289062 33.144531 31.191406 33.269531 31.164062 L 35.433594 30.941406 C 35.582031 30.917969 35.707031 31.039062 35.683594 31.191406 L 35.460938 33.355469 C 35.460938 33.503906 35.359375 33.601562 35.210938 33.601562 C 34.390625 33.601562 33.570312 33.726562 32.996094 34.300781 Z M 32.996094 34.300781 "/>
<path style=" stroke:none;fill-rule:nonzero;fill:rgb(0%,0%,0%);fill-opacity:1;" d="M 42.347656 48.277344 C 42.347656 48.527344 42.148438 48.75 41.898438 48.75 C 41.652344 48.75 41.425781 48.527344 41.425781 48.277344 L 41.425781 44.671875 L 39.363281 45.441406 L 39.363281 49.371094 C 39.363281 49.621094 39.136719 49.84375 38.890625 49.84375 C 38.640625 49.84375 38.441406 49.621094 38.441406 49.371094 L 38.441406 45.765625 L 37.644531 46.0625 C 37.597656 46.089844 37.523438 46.089844 37.472656 46.089844 C 37.199219 46.089844 36.972656 45.863281 36.972656 45.589844 L 36.972656 44.097656 C 36.972656 43.898438 37.097656 43.699219 37.296875 43.625 L 38.441406 43.230469 L 38.441406 39.25 L 37.644531 39.523438 C 37.597656 39.546875 37.523438 39.546875 37.472656 39.546875 C 37.199219 39.546875 36.972656 39.324219 36.972656 39.050781 L 36.972656 37.558594 C 36.972656 37.359375 37.097656 37.183594 37.296875 37.109375 L 38.441406 36.6875 L 38.441406 32.757812 C 38.441406 32.507812 38.640625 32.285156 38.890625 32.285156 C 39.136719 32.285156 39.363281 32.507812 39.363281 32.757812 L 39.363281 36.363281 L 41.425781 35.59375 L 41.425781 31.664062 C 41.425781 31.414062 41.652344 31.191406 41.898438 31.191406 C 42.148438 31.191406 42.347656 31.414062 42.347656 31.664062 L 42.347656 35.269531 L 43.144531 34.972656 C 43.191406 34.945312 43.265625 34.945312 43.316406 34.945312 C 43.589844 34.945312 43.8125 35.167969 43.8125 35.445312 L 43.8125 36.9375 C 43.8125 37.132812 43.691406 37.332031 43.492188 37.410156 L 42.347656 37.804688 L 42.347656 41.785156 L 43.144531 41.511719 C 43.191406 41.488281 43.265625 41.488281 43.316406 41.488281 C 43.589844 41.488281 43.8125 41.710938 43.8125 41.984375 L 43.8125 43.476562 C 43.8125 43.675781 43.691406 43.851562 43.492188 43.925781 L 42.347656 44.347656 Z M 39.363281 38.902344 L 39.363281 42.878906 L 41.425781 42.132812 L 41.425781 38.15625 Z M 39.363281 38.902344 "/>
<path style=" stroke:none;fill-rule:nonzero;fill:rgb(0%,0%,0%);fill-opacity:1;" d="M 16.152344 50.09375 L 16.003906 50.09375 C 13.316406 50.09375 11.152344 47.90625 11.152344 45.195312 C 11.152344 43.75 12.46875 42.632812 13.9375 42.632812 C 15.28125 42.632812 16.300781 43.800781 16.300781 45.195312 C 16.300781 46.488281 15.230469 47.554688 13.9375 47.554688 C 13.664062 47.554688 13.414062 47.507812 13.167969 47.40625 C 13.8125 48.378906 14.859375 49.023438 16.078125 49.023438 L 16.175781 49.023438 Z M 21 39.347656 C 22.691406 38.75 23.8125 36.984375 23.8125 35.269531 C 23.8125 33.03125 22.171875 30.816406 19.507812 30.542969 C 20.105469 33.429688 20.652344 36.289062 21 39.347656 Z M 11.375 33.601562 C 11.375 36.960938 14.585938 39.746094 17.941406 39.746094 C 18.640625 39.746094 19.308594 39.695312 19.980469 39.597656 C 19.632812 36.4375 19.0625 33.503906 18.414062 30.542969 C 16.449219 30.742188 15.332031 32.0625 15.332031 33.503906 C 15.332031 34.597656 15.953125 35.765625 17.34375 36.5625 C 17.46875 36.6875 17.519531 36.8125 17.519531 36.9375 C 17.519531 37.210938 17.269531 37.484375 16.972656 37.484375 C 16.898438 37.484375 16.824219 37.457031 16.75 37.433594 C 14.757812 36.363281 13.839844 34.574219 13.839844 32.832031 C 13.839844 30.644531 15.28125 28.503906 17.816406 27.933594 C 17.46875 26.488281 17.097656 25.023438 16.675781 23.578125 C 14.011719 26.589844 11.375 29.625 11.375 33.601562 Z M 17.867188 40.816406 C 13.191406 40.816406 9.585938 36.539062 9.585938 31.511719 C 9.585938 27.109375 12.84375 23.902344 15.753906 20.542969 C 15.28125 19.003906 14.832031 17.4375 14.632812 15.820312 C 14.484375 14.527344 14.460938 13.230469 14.460938 11.9375 C 14.460938 9.078125 15.828125 6.367188 18.167969 4.675781 C 18.316406 4.550781 18.515625 4.550781 18.664062 4.675781 C 20.429688 6.765625 21.972656 10.769531 21.972656 13.582031 C 21.972656 17.136719 19.832031 19.921875 17.496094 22.632812 C 18.015625 24.324219 18.464844 26.066406 18.886719 27.78125 C 18.988281 27.78125 19.113281 27.757812 19.210938 27.757812 C 23.066406 27.757812 25.578125 30.941406 25.578125 34.25 C 25.578125 36.140625 24.757812 38.078125 22.917969 39.472656 C 22.371094 39.894531 21.746094 40.167969 21.101562 40.367188 C 21.175781 41.238281 21.226562 42.109375 21.226562 42.980469 C 21.226562 43.453125 21.199219 43.949219 21.175781 44.421875 C 21 47.382812 18.988281 50.019531 16.152344 50.09375 L 16.175781 49.023438 C 18.488281 48.972656 19.980469 46.734375 20.132812 44.273438 C 20.15625 43.824219 20.179688 43.351562 20.179688 42.90625 C 20.179688 42.132812 20.15625 41.386719 20.082031 40.617188 C 19.359375 40.742188 18.640625 40.816406 17.867188 40.816406 Z M 20.179688 11.515625 C 20.179688 10.148438 20.082031 9.550781 19.683594 8.308594 C 17.222656 9.5 15.652344 12.011719 15.652344 14.75 C 15.652344 16.589844 16.101562 18.058594 16.550781 19.574219 C 18.539062 17.160156 20.179688 14.648438 20.179688 11.515625 Z M 20.179688 11.515625 "/>
<path style=" stroke:none;fill-rule:nonzero;fill:rgb(0%,0%,0%);fill-opacity:1;" d="M 65.734375 21.589844 C 67.101562 21.589844 68.421875 22.285156 68.421875 23.804688 C 68.421875 25.570312 67.054688 26.8125 65.882812 27.507812 C 65.011719 28.03125 64.019531 28.355469 63 28.355469 C 61.628906 28.355469 60.3125 27.660156 60.3125 26.140625 C 60.3125 24.375 61.679688 23.132812 62.847656 22.433594 C 63.71875 21.914062 64.714844 21.589844 65.734375 21.589844 Z M 65.734375 21.589844 "/>
<path style=" stroke:none;fill-rule:nonzero;fill:rgb(0%,0%,0%);fill-opacity:1;" d="M 58.027344 24.699219 C 59.398438 24.699219 60.714844 25.394531 60.714844 26.910156 C 60.714844 28.679688 59.347656 29.921875 58.179688 30.617188 C 57.308594 31.140625 56.3125 31.464844 55.292969 31.464844 C 53.925781 31.464844 52.605469 30.765625 52.605469 29.25 C 52.605469 27.484375 53.976562 26.242188 55.144531 25.542969 C 56.015625 25.023438 57.007812 24.699219 58.027344 24.699219 Z M 58.027344 24.699219 "/>
<path style=" stroke:none;fill-rule:nonzero;fill:rgb(0%,0%,0%);fill-opacity:1;" d="M 58.027344 30.917969 C 59.398438 30.917969 60.714844 31.613281 60.714844 33.128906 C 60.714844 34.894531 59.347656 36.140625 58.179688 36.835938 C 57.308594 37.359375 56.3125 37.683594 55.292969 37.683594 C 53.925781 37.683594 52.605469 36.984375 52.605469 35.46875 C 52.605469 33.703125 53.976562 32.457031 55.144531 31.761719 C 56.015625 31.238281 57.007812 30.917969 58.027344 30.917969 Z M 58.027344 30.917969 "/>
<path style=" stroke:none;fill-rule:nonzero;fill:rgb(0%,0%,0%);fill-opacity:1;" d="M 58.027344 37.132812 C 59.398438 37.132812 60.714844 37.832031 60.714844 39.347656 C 60.714844 41.113281 59.347656 42.359375 58.179688 43.054688 C 57.308594 43.578125 56.3125 43.898438 55.292969 43.898438 C 53.925781 43.898438 52.605469 43.203125 52.605469 41.6875 C 52.605469 39.921875 53.976562 38.675781 55.144531 37.980469 C 56.015625 37.457031 57.007812 37.132812 58.027344 37.132812 Z M 58.027344 37.132812 "/>
</g>
</svg>
