<?xml version="1.0" encoding="UTF-8"?>
<svg xmlns="http://www.w3.org/2000/svg" xmlns:xlink="http://www.w3.org/1999/xlink" width="68.472344pt" height="60.078972pt" viewBox="0 0 68.472344 60.078972" version="1.1">
<g id="surface1">
<path style="fill:none;stroke-width:0.1;stroke-linecap:round;stroke-linejoin:round;stroke:rgb(0%,0%,0%);stroke-opacity:1;stroke-miterlimit:4;" d="M 0.049863 0.00023304 L 8.752337 0.00023304 " transform="matrix(6.218149,0,0,6.218149,4.561038,41.88527)"/>
<path style="fill:none;stroke-width:0.1;stroke-linecap:round;stroke-linejoin:round;stroke:rgb(0%,0%,0%);stroke-opacity:1;stroke-miterlimit:4;" d="M 0.049863 0.000136391 L 8.752337 0.000136391 " transform="matrix(6.218149,0,0,6.218149,4.561038,35.667121)"/>
<path style="fill:none;stroke-width:0.1;stroke-linecap:round;stroke-linejoin:round;stroke:rgb(0%,0%,0%);stroke-opacity:1;stroke-miterlimit:4;" d="M 0.049863 0.0000397429 L 8.752337 0.0000397429 " transform="matrix(6.218149,0,0,6.218149,4.561038,29.448972)"/>
<path style="fill:none;stroke-width:0.1;stroke-linecap:round;stroke-linejoin:round;stroke:rgb(0%,0%,0%);stroke-opacity:1;stroke-miterlimit:4;" d="M 0.049863 -0.0000569057 L 8.752337 -0.0000569057 " transform="matrix(6.218149,0,0,6.218149,4.561038,23.230823)"/>
<path style="fill:none;stroke-width:0.1;stroke-linecap:round;stroke-linejoin:round;stroke:rgb(0%,0%,0%);stroke-opacity:1;stroke-miterlimit:4;" d="M 0.049863 -0.000153554 L 8.752337 -0.000153554 " transform="matrix(6.218149,0,0,6.218149,4.561038,17.012674)"/>
<path style=" stroke:none;fill-rule:nonzero;fill:rgb(0%,0%,0%);fill-opacity:1;" d="M 36.984375 43.425781 C 36.984375 43.675781 36.785156 43.898438 36.535156 43.898438 C 36.285156 43.898438 36.0625 43.675781 36.0625 43.425781 L 36.0625 39.820312 L 33.996094 40.59375 L 33.996094 44.523438 C 33.996094 44.769531 33.773438 44.996094 33.523438 44.996094 C 33.277344 44.996094 33.078125 44.769531 33.078125 44.523438 L 33.078125 40.914062 L 32.28125 41.214844 C 32.230469 41.238281 32.15625 41.238281 32.109375 41.238281 C 31.832031 41.238281 31.609375 41.015625 31.609375 40.742188 L 31.609375 39.25 C 31.609375 39.050781 31.734375 38.851562 31.933594 38.777344 L 33.078125 38.378906 L 33.078125 34.398438 L 32.28125 34.671875 C 32.230469 34.695312 32.15625 34.695312 32.109375 34.695312 C 31.832031 34.695312 31.609375 34.472656 31.609375 34.199219 L 31.609375 32.707031 C 31.609375 32.507812 31.734375 32.335938 31.933594 32.257812 L 33.078125 31.835938 L 33.078125 27.90625 C 33.078125 27.65625 33.277344 27.433594 33.523438 27.433594 C 33.773438 27.433594 33.996094 27.65625 33.996094 27.90625 L 33.996094 31.511719 L 36.0625 30.742188 L 36.0625 26.8125 C 36.0625 26.5625 36.285156 26.339844 36.535156 26.339844 C 36.785156 26.339844 36.984375 26.5625 36.984375 26.8125 L 36.984375 30.417969 L 37.777344 30.121094 C 37.828125 30.09375 37.902344 30.09375 37.953125 30.09375 C 38.226562 30.09375 38.449219 30.320312 38.449219 30.59375 L 38.449219 32.085938 C 38.449219 32.285156 38.324219 32.484375 38.125 32.558594 L 36.984375 32.957031 L 36.984375 36.9375 L 37.777344 36.660156 C 37.828125 36.636719 37.902344 36.636719 37.953125 36.636719 C 38.226562 36.636719 38.449219 36.859375 38.449219 37.132812 L 38.449219 38.628906 C 38.449219 38.824219 38.324219 39 38.125 39.074219 L 36.984375 39.496094 Z M 33.996094 34.050781 L 33.996094 38.03125 L 36.0625 37.285156 L 36.0625 33.304688 Z M 33.996094 34.050781 "/>
<path style=" stroke:none;fill-rule:nonzero;fill:rgb(0%,0%,0%);fill-opacity:1;" d="M 48.175781 4.578125 L 48.488281 4.578125 C 48.625 4.578125 48.734375 4.6875 48.734375 4.824219 L 48.734375 40.480469 C 48.734375 40.617188 48.625 40.726562 48.488281 40.726562 L 48.175781 40.726562 C 48.039062 40.726562 47.925781 40.617188 47.925781 40.480469 L 47.925781 4.824219 C 47.925781 4.6875 48.039062 4.578125 48.175781 4.578125 Z M 48.175781 4.578125 "/>
<path style=" stroke:none;fill-rule:nonzero;fill:rgb(0%,0%,0%);fill-opacity:1;" d="M 16.152344 51.460938 L 16.003906 51.460938 C 13.316406 51.460938 11.152344 49.273438 11.152344 46.5625 C 11.152344 45.117188 12.46875 44 13.9375 44 C 15.28125 44 16.300781 45.167969 16.300781 46.5625 C 16.300781 47.855469 15.230469 48.925781 13.9375 48.925781 C 13.664062 48.925781 13.414062 48.875 13.167969 48.773438 C 13.8125 49.746094 14.859375 50.390625 16.078125 50.390625 L 16.175781 50.390625 Z M 21 40.714844 C 22.691406 40.121094 23.8125 38.351562 23.8125 36.636719 C 23.8125 34.398438 22.171875 32.183594 19.507812 31.910156 C 20.105469 34.796875 20.652344 37.65625 21 40.714844 Z M 11.375 34.96875 C 11.375 38.328125 14.585938 41.113281 17.941406 41.113281 C 18.640625 41.113281 19.308594 41.066406 19.980469 40.964844 C 19.632812 37.804688 19.0625 34.871094 18.414062 31.910156 C 16.449219 32.109375 15.332031 33.429688 15.332031 34.871094 C 15.332031 35.964844 15.953125 37.132812 17.34375 37.929688 C 17.46875 38.054688 17.519531 38.179688 17.519531 38.304688 C 17.519531 38.578125 17.269531 38.851562 16.972656 38.851562 C 16.898438 38.851562 16.824219 38.824219 16.75 38.800781 C 14.757812 37.730469 13.839844 35.941406 13.839844 34.199219 C 13.839844 32.011719 15.28125 29.871094 17.816406 29.300781 C 17.46875 27.855469 17.097656 26.390625 16.675781 24.945312 C 14.011719 27.957031 11.375 30.992188 11.375 34.96875 Z M 17.867188 42.183594 C 13.191406 42.183594 9.585938 37.90625 9.585938 32.882812 C 9.585938 28.480469 12.84375 25.269531 15.753906 21.914062 C 15.28125 20.371094 14.832031 18.804688 14.632812 17.1875 C 14.484375 15.894531 14.460938 14.601562 14.460938 13.308594 C 14.460938 10.445312 15.828125 7.734375 18.167969 6.042969 C 18.316406 5.917969 18.515625 5.917969 18.664062 6.042969 C 20.429688 8.132812 21.972656 12.136719 21.972656 14.949219 C 21.972656 18.503906 19.832031 21.289062 17.496094 24 C 18.015625 25.691406 18.464844 27.433594 18.886719 29.152344 C 18.988281 29.152344 19.113281 29.125 19.210938 29.125 C 23.066406 29.125 25.578125 32.308594 25.578125 35.617188 C 25.578125 37.507812 24.757812 39.449219 22.917969 40.839844 C 22.371094 41.261719 21.746094 41.535156 21.101562 41.734375 C 21.175781 42.605469 21.226562 43.476562 21.226562 44.347656 C 21.226562 44.820312 21.199219 45.316406 21.175781 45.789062 C 21 48.75 18.988281 51.386719 16.152344 51.460938 L 16.175781 50.390625 C 18.488281 50.34375 19.980469 48.101562 20.132812 45.640625 C 20.15625 45.191406 20.179688 44.722656 20.179688 44.273438 C 20.179688 43.503906 20.15625 42.753906 20.082031 41.984375 C 19.359375 42.109375 18.640625 42.183594 17.867188 42.183594 Z M 20.179688 12.882812 C 20.179688 11.515625 20.082031 10.917969 19.683594 9.675781 C 17.222656 10.871094 15.652344 13.382812 15.652344 16.117188 C 15.652344 17.957031 16.101562 19.425781 16.550781 20.941406 C 18.539062 18.53125 20.179688 16.019531 20.179688 12.882812 Z M 20.179688 12.882812 "/>
<path style=" stroke:none;fill-rule:nonzero;fill:rgb(0%,0%,0%);fill-opacity:1;" d="M 46.046875 19.847656 C 47.417969 19.847656 48.734375 20.542969 48.734375 22.0625 C 48.734375 23.828125 47.367188 25.070312 46.199219 25.769531 C 45.328125 26.289062 44.332031 26.613281 43.3125 26.613281 C 41.945312 26.613281 40.625 25.917969 40.625 24.398438 C 40.625 22.632812 41.996094 21.390625 43.164062 20.695312 C 44.035156 20.171875 45.027344 19.847656 46.046875 19.847656 Z M 46.046875 19.847656 "/>
<path style=" stroke:none;fill-rule:nonzero;fill:rgb(0%,0%,0%);fill-opacity:1;" d="M 46.046875 26.066406 C 47.417969 26.066406 48.734375 26.761719 48.734375 28.28125 C 48.734375 30.046875 47.367188 31.289062 46.199219 31.984375 C 45.328125 32.507812 44.332031 32.832031 43.3125 32.832031 C 41.945312 32.832031 40.625 32.136719 40.625 30.617188 C 40.625 28.851562 41.996094 27.609375 43.164062 26.910156 C 44.035156 26.390625 45.027344 26.066406 46.046875 26.066406 Z M 46.046875 26.066406 "/>
<path style=" stroke:none;fill-rule:nonzero;fill:rgb(0%,0%,0%);fill-opacity:1;" d="M 46.046875 32.285156 C 47.417969 32.285156 48.734375 32.980469 48.734375 34.5 C 48.734375 36.265625 47.367188 37.507812 46.199219 38.203125 C 45.328125 38.726562 44.332031 39.050781 43.3125 39.050781 C 41.945312 39.050781 40.625 38.351562 40.625 36.835938 C 40.625 35.070312 41.996094 33.828125 43.164062 33.128906 C 44.035156 32.609375 45.027344 32.285156 46.046875 32.285156 Z M 46.046875 32.285156 "/>
<path style=" stroke:none;fill-rule:nonzero;fill:rgb(0%,0%,0%);fill-opacity:1;" d="M 46.046875 38.503906 C 47.417969 38.503906 48.734375 39.199219 48.734375 40.714844 C 48.734375 42.480469 47.367188 43.726562 46.199219 44.421875 C 45.328125 44.945312 44.332031 45.269531 43.3125 45.269531 C 41.945312 45.269531 40.625 44.570312 40.625 43.054688 C 40.625 41.289062 41.996094 40.042969 43.164062 39.347656 C 44.035156 38.824219 45.027344 38.503906 46.046875 38.503906 Z M 46.046875 38.503906 "/>
</g>
</svg>
