<?xml version="1.0" encoding="UTF-8"?>
<svg xmlns="http://www.w3.org/2000/svg" xmlns:xlink="http://www.w3.org/1999/xlink" width="82.756804pt" height="67.012984pt" viewBox="0 0 82.756804 67.012984" version="1.1">
<g id="surface1">
<path style="fill:none;stroke-width:0.1;stroke-linecap:round;stroke-linejoin:round;stroke:rgb(0%,0%,0%);stroke-opacity:1;stroke-miterlimit:4;" d="M 0.049863 -0.000256359 L 10.903299 -0.000256359 " transform="matrix(6.218149,0,0,6.218149,4.561038,48.376594)"/>
<path style="fill:none;stroke-width:0.1;stroke-linecap:round;stroke-linejoin:round;stroke:rgb(0%,0%,0%);stroke-opacity:1;stroke-miterlimit:4;" d="M 0.049863 0.000275194 L 10.903299 0.000275194 " transform="matrix(6.218149,0,0,6.218149,4.561038,42.158445)"/>
<path style="fill:none;stroke-width:0.1;stroke-linecap:round;stroke-linejoin:round;stroke:rgb(0%,0%,0%);stroke-opacity:1;stroke-miterlimit:4;" d="M 0.049863 0.000178545 L 10.903299 0.000178545 " transform="matrix(6.218149,0,0,6.218149,4.561038,35.940296)"/>
<path style="fill:none;stroke-width:0.1;stroke-linecap:round;stroke-linejoin:round;stroke:rgb(0%,0%,0%);stroke-opacity:1;stroke-miterlimit:4;" d="M 0.049863 0.0000818968 L 10.903299 0.0000818968 " transform="matrix(6.218149,0,0,6.218149,4.561038,29.722147)"/>
<path style="fill:none;stroke-width:0.1;stroke-linecap:round;stroke-linejoin:round;stroke:rgb(0%,0%,0%);stroke-opacity:1;stroke-miterlimit:4;" d="M 0.049863 -0.0000147518 L 10.903299 -0.0000147518 " transform="matrix(6.218149,0,0,6.218149,4.561038,23.503998)"/>
<path style=" stroke:none;fill-rule:nonzero;fill:rgb(0%,0%,0%);fill-opacity:1;" d="M 53.386719 10.445312 L 63.515625 10.445312 C 63.859375 10.445312 64.136719 10.722656 64.136719 11.066406 C 64.136719 11.410156 63.859375 11.691406 63.515625 11.691406 L 53.386719 11.691406 C 53.042969 11.691406 52.761719 11.410156 52.761719 11.066406 C 52.761719 10.722656 53.042969 10.445312 53.386719 10.445312 Z M 53.386719 10.445312 "/>
<path style=" stroke:none;fill-rule:nonzero;fill:rgb(0%,0%,0%);fill-opacity:1;" d="M 52.59375 16.664062 L 63.515625 16.664062 C 63.859375 16.664062 64.136719 16.941406 64.136719 17.285156 C 64.136719 17.628906 63.859375 17.90625 63.515625 17.90625 L 52.59375 17.90625 C 52.25 17.90625 51.972656 17.628906 51.972656 17.285156 C 51.972656 16.941406 52.25 16.664062 52.59375 16.664062 Z M 52.59375 16.664062 "/>
<path style=" stroke:none;fill-rule:nonzero;fill:rgb(0%,0%,0%);fill-opacity:1;" d="M 54.25 9.117188 L 54.558594 9.117188 C 54.695312 9.117188 54.808594 9.226562 54.808594 9.363281 L 54.808594 48.128906 C 54.808594 48.265625 54.695312 48.375 54.558594 48.375 L 54.25 48.375 C 54.109375 48.375 54 48.265625 54 48.128906 L 54 9.363281 C 54 9.226562 54.109375 9.117188 54.25 9.117188 Z M 54.25 9.117188 "/>
<path style=" stroke:none;fill-rule:nonzero;fill:rgb(0%,0%,0%);fill-opacity:1;" d="M 49.089844 7.957031 C 49.660156 8.53125 50.480469 8.65625 51.304688 8.65625 C 51.453125 8.65625 51.550781 8.753906 51.550781 8.902344 L 51.777344 11.066406 C 51.800781 11.21875 51.675781 11.339844 51.527344 11.316406 L 49.363281 11.09375 C 49.238281 11.066406 49.113281 10.96875 49.113281 10.84375 C 49.113281 10.023438 48.988281 9.203125 48.417969 8.628906 C 47.84375 9.203125 47.746094 10.023438 47.746094 10.84375 C 47.746094 10.96875 47.621094 11.066406 47.496094 11.09375 L 45.308594 11.316406 C 45.160156 11.339844 45.035156 11.21875 45.058594 11.066406 L 45.285156 8.902344 C 45.285156 8.753906 45.382812 8.65625 45.53125 8.65625 C 46.351562 8.65625 47.175781 8.53125 47.746094 7.957031 C 47.175781 7.386719 46.351562 7.261719 45.53125 7.261719 C 45.382812 7.261719 45.285156 7.164062 45.285156 7.011719 L 45.058594 4.847656 C 45.035156 4.699219 45.160156 4.574219 45.308594 4.601562 L 47.496094 4.824219 C 47.621094 4.847656 47.722656 4.949219 47.722656 5.074219 C 47.722656 5.894531 47.84375 6.714844 48.417969 7.285156 C 48.988281 6.714844 49.113281 5.894531 49.113281 5.074219 C 49.113281 4.949219 49.238281 4.847656 49.363281 4.824219 L 51.527344 4.601562 C 51.675781 4.574219 51.800781 4.699219 51.777344 4.847656 L 51.550781 7.011719 C 51.550781 7.164062 51.453125 7.261719 51.304688 7.261719 C 50.480469 7.261719 49.660156 7.386719 49.089844 7.957031 Z M 49.089844 7.957031 "/>
<path style=" stroke:none;fill-rule:nonzero;fill:rgb(0%,0%,0%);fill-opacity:1;" d="M 42.347656 21.9375 C 42.347656 22.1875 42.148438 22.410156 41.898438 22.410156 C 41.652344 22.410156 41.425781 22.1875 41.425781 21.9375 L 41.425781 18.332031 L 39.363281 19.101562 L 39.363281 23.03125 C 39.363281 23.28125 39.136719 23.503906 38.890625 23.503906 C 38.640625 23.503906 38.441406 23.28125 38.441406 23.03125 L 38.441406 19.425781 L 37.644531 19.722656 C 37.597656 19.75 37.523438 19.75 37.472656 19.75 C 37.199219 19.75 36.972656 19.523438 36.972656 19.25 L 36.972656 17.757812 C 36.972656 17.558594 37.097656 17.359375 37.296875 17.285156 L 38.441406 16.886719 L 38.441406 12.910156 L 37.644531 13.183594 C 37.597656 13.207031 37.523438 13.207031 37.472656 13.207031 C 37.199219 13.207031 36.972656 12.984375 36.972656 12.710938 L 36.972656 11.21875 C 36.972656 11.019531 37.097656 10.84375 37.296875 10.769531 L 38.441406 10.347656 L 38.441406 6.417969 C 38.441406 6.167969 38.640625 5.945312 38.890625 5.945312 C 39.136719 5.945312 39.363281 6.167969 39.363281 6.417969 L 39.363281 10.023438 L 41.425781 9.253906 L 41.425781 5.320312 C 41.425781 5.074219 41.652344 4.847656 41.898438 4.847656 C 42.148438 4.847656 42.347656 5.074219 42.347656 5.320312 L 42.347656 8.929688 L 43.144531 8.628906 C 43.191406 8.605469 43.265625 8.605469 43.316406 8.605469 C 43.589844 8.605469 43.8125 8.828125 43.8125 9.101562 L 43.8125 10.59375 C 43.8125 10.792969 43.691406 10.992188 43.492188 11.066406 L 42.347656 11.464844 L 42.347656 15.445312 L 43.144531 15.171875 C 43.191406 15.148438 43.265625 15.148438 43.316406 15.148438 C 43.589844 15.148438 43.8125 15.371094 43.8125 15.644531 L 43.8125 17.136719 C 43.8125 17.335938 43.691406 17.507812 43.492188 17.585938 L 42.347656 18.007812 Z M 39.363281 12.558594 L 39.363281 16.539062 L 41.425781 15.792969 L 41.425781 11.8125 Z M 39.363281 12.558594 "/>
<path style=" stroke:none;fill-rule:nonzero;fill:rgb(0%,0%,0%);fill-opacity:1;" d="M 32.996094 20.394531 C 33.570312 20.96875 34.390625 21.089844 35.210938 21.089844 C 35.359375 21.089844 35.460938 21.191406 35.460938 21.339844 L 35.683594 23.503906 C 35.707031 23.652344 35.582031 23.777344 35.433594 23.753906 L 33.269531 23.527344 C 33.144531 23.503906 33.023438 23.40625 33.023438 23.28125 C 33.023438 22.460938 32.898438 21.636719 32.324219 21.066406 C 31.753906 21.636719 31.652344 22.460938 31.652344 23.28125 C 31.652344 23.40625 31.527344 23.503906 31.40625 23.527344 L 29.214844 23.753906 C 29.066406 23.777344 28.941406 23.652344 28.96875 23.503906 L 29.191406 21.339844 C 29.191406 21.191406 29.289062 21.089844 29.441406 21.089844 C 30.261719 21.089844 31.082031 20.96875 31.652344 20.394531 C 31.082031 19.824219 30.261719 19.699219 29.441406 19.699219 C 29.289062 19.699219 29.191406 19.597656 29.191406 19.449219 L 28.96875 17.285156 C 28.941406 17.136719 29.066406 17.011719 29.214844 17.039062 L 31.40625 17.261719 C 31.527344 17.285156 31.628906 17.386719 31.628906 17.507812 C 31.628906 18.332031 31.753906 19.152344 32.324219 19.722656 C 32.898438 19.152344 33.023438 18.332031 33.023438 17.507812 C 33.023438 17.386719 33.144531 17.285156 33.269531 17.261719 L 35.433594 17.039062 C 35.582031 17.011719 35.707031 17.136719 35.683594 17.285156 L 35.460938 19.449219 C 35.460938 19.597656 35.359375 19.699219 35.210938 19.699219 C 34.390625 19.699219 33.570312 19.824219 32.996094 20.394531 Z M 32.996094 20.394531 "/>
<path style=" stroke:none;fill-rule:nonzero;fill:rgb(0%,0%,0%);fill-opacity:1;" d="M 50.355469 34.375 C 50.355469 34.621094 50.15625 34.847656 49.90625 34.847656 C 49.660156 34.847656 49.4375 34.621094 49.4375 34.375 L 49.4375 30.765625 L 47.371094 31.539062 L 47.371094 35.46875 C 47.371094 35.714844 47.148438 35.941406 46.898438 35.941406 C 46.648438 35.941406 46.449219 35.714844 46.449219 35.46875 L 46.449219 31.859375 L 45.65625 32.160156 C 45.605469 32.183594 45.53125 32.183594 45.480469 32.183594 C 45.207031 32.183594 44.984375 31.960938 44.984375 31.6875 L 44.984375 30.195312 C 44.984375 29.996094 45.109375 29.796875 45.308594 29.722656 L 46.449219 29.324219 L 46.449219 25.34375 L 45.65625 25.617188 C 45.605469 25.644531 45.53125 25.644531 45.480469 25.644531 C 45.207031 25.644531 44.984375 25.417969 44.984375 25.144531 L 44.984375 23.652344 C 44.984375 23.453125 45.109375 23.28125 45.308594 23.207031 L 46.449219 22.78125 L 46.449219 18.851562 C 46.449219 18.605469 46.648438 18.378906 46.898438 18.378906 C 47.148438 18.378906 47.371094 18.605469 47.371094 18.851562 L 47.371094 22.460938 L 49.4375 21.6875 L 49.4375 17.757812 C 49.4375 17.507812 49.660156 17.285156 49.90625 17.285156 C 50.15625 17.285156 50.355469 17.507812 50.355469 17.757812 L 50.355469 21.363281 L 51.152344 21.066406 C 51.203125 21.042969 51.277344 21.042969 51.324219 21.042969 C 51.597656 21.042969 51.824219 21.265625 51.824219 21.539062 L 51.824219 23.03125 C 51.824219 23.230469 51.699219 23.429688 51.5 23.503906 L 50.355469 23.902344 L 50.355469 27.882812 L 51.152344 27.609375 C 51.203125 27.582031 51.277344 27.582031 51.324219 27.582031 C 51.597656 27.582031 51.824219 27.808594 51.824219 28.082031 L 51.824219 29.574219 C 51.824219 29.773438 51.699219 29.945312 51.5 30.019531 L 50.355469 30.445312 Z M 47.371094 24.996094 L 47.371094 28.976562 L 49.4375 28.230469 L 49.4375 24.25 Z M 47.371094 24.996094 "/>
<path style=" stroke:none;fill-rule:nonzero;fill:rgb(0%,0%,0%);fill-opacity:1;" d="M 16.152344 57.953125 L 16.003906 57.953125 C 13.316406 57.953125 11.152344 55.765625 11.152344 53.050781 C 11.152344 51.609375 12.46875 50.492188 13.9375 50.492188 C 15.28125 50.492188 16.300781 51.660156 16.300781 53.050781 C 16.300781 54.347656 15.230469 55.414062 13.9375 55.414062 C 13.664062 55.414062 13.414062 55.367188 13.167969 55.265625 C 13.8125 56.238281 14.859375 56.882812 16.078125 56.882812 L 16.175781 56.882812 Z M 21 47.207031 C 22.691406 46.609375 23.8125 44.84375 23.8125 43.128906 C 23.8125 40.890625 22.171875 38.675781 19.507812 38.402344 C 20.105469 41.289062 20.652344 44.148438 21 47.207031 Z M 11.375 41.460938 C 11.375 44.820312 14.585938 47.605469 17.941406 47.605469 C 18.640625 47.605469 19.308594 47.554688 19.980469 47.457031 C 19.632812 44.296875 19.0625 41.363281 18.414062 38.402344 C 16.449219 38.601562 15.332031 39.917969 15.332031 41.363281 C 15.332031 42.457031 15.953125 43.625 17.34375 44.421875 C 17.46875 44.546875 17.519531 44.671875 17.519531 44.796875 C 17.519531 45.070312 17.269531 45.34375 16.972656 45.34375 C 16.898438 45.34375 16.824219 45.316406 16.75 45.292969 C 14.757812 44.222656 13.839844 42.433594 13.839844 40.691406 C 13.839844 38.503906 15.28125 36.363281 17.816406 35.792969 C 17.46875 34.347656 17.097656 32.882812 16.675781 31.4375 C 14.011719 34.449219 11.375 37.480469 11.375 41.460938 Z M 17.867188 48.675781 C 13.191406 48.675781 9.585938 44.398438 9.585938 39.371094 C 9.585938 34.96875 12.84375 31.761719 15.753906 28.402344 C 15.28125 26.863281 14.832031 25.292969 14.632812 23.679688 C 14.484375 22.382812 14.460938 21.089844 14.460938 19.796875 C 14.460938 16.9375 15.828125 14.226562 18.167969 12.535156 C 18.316406 12.410156 18.515625 12.410156 18.664062 12.535156 C 20.429688 14.625 21.972656 18.628906 21.972656 21.441406 C 21.972656 24.996094 19.832031 27.78125 17.496094 30.492188 C 18.015625 32.183594 18.464844 33.925781 18.886719 35.640625 C 18.988281 35.640625 19.113281 35.617188 19.210938 35.617188 C 23.066406 35.617188 25.578125 38.800781 25.578125 42.109375 C 25.578125 44 24.757812 45.9375 22.917969 47.332031 C 22.371094 47.753906 21.746094 48.027344 21.101562 48.226562 C 21.175781 49.097656 21.226562 49.96875 21.226562 50.839844 C 21.226562 51.3125 21.199219 51.808594 21.175781 52.28125 C 21 55.242188 18.988281 57.878906 16.152344 57.953125 L 16.175781 56.882812 C 18.488281 56.832031 19.980469 54.59375 20.132812 52.132812 C 20.15625 51.683594 20.179688 51.210938 20.179688 50.765625 C 20.179688 49.992188 20.15625 49.246094 20.082031 48.476562 C 19.359375 48.601562 18.640625 48.675781 17.867188 48.675781 Z M 20.179688 19.375 C 20.179688 18.007812 20.082031 17.410156 19.683594 16.167969 C 17.222656 17.359375 15.652344 19.871094 15.652344 22.609375 C 15.652344 24.449219 16.101562 25.917969 16.550781 27.433594 C 18.539062 25.019531 20.179688 22.507812 20.179688 19.375 Z M 20.179688 19.375 "/>
<path style=" stroke:none;fill-rule:nonzero;fill:rgb(0%,0%,0%);fill-opacity:1;" d="M 59.421875 4.574219 C 60.789062 4.574219 62.109375 5.273438 62.109375 6.789062 C 62.109375 8.554688 60.738281 9.800781 59.570312 10.496094 C 58.699219 11.019531 57.707031 11.339844 56.6875 11.339844 C 55.316406 11.339844 54 10.644531 54 9.128906 C 54 7.363281 55.367188 6.117188 56.535156 5.421875 C 57.40625 4.898438 58.402344 4.574219 59.421875 4.574219 Z M 59.421875 4.574219 "/>
<path style=" stroke:none;fill-rule:nonzero;fill:rgb(0%,0%,0%);fill-opacity:1;" d="M 59.421875 10.792969 C 60.789062 10.792969 62.109375 11.492188 62.109375 13.007812 C 62.109375 14.773438 60.738281 16.015625 59.570312 16.714844 C 58.699219 17.234375 57.707031 17.558594 56.6875 17.558594 C 55.316406 17.558594 54 16.863281 54 15.347656 C 54 13.578125 55.367188 12.335938 56.535156 11.640625 C 57.40625 11.117188 58.402344 10.792969 59.421875 10.792969 Z M 59.421875 10.792969 "/>
<path style=" stroke:none;fill-rule:nonzero;fill:rgb(0%,0%,0%);fill-opacity:1;" d="M 59.421875 17.011719 C 60.789062 17.011719 62.109375 17.707031 62.109375 19.226562 C 62.109375 20.992188 60.738281 22.234375 59.570312 22.933594 C 58.699219 23.453125 57.707031 23.777344 56.6875 23.777344 C 55.316406 23.777344 54 23.082031 54 21.5625 C 54 19.796875 55.367188 18.554688 56.535156 17.859375 C 57.40625 17.335938 58.402344 17.011719 59.421875 17.011719 Z M 59.421875 17.011719 "/>
<path style=" stroke:none;fill-rule:nonzero;fill:rgb(0%,0%,0%);fill-opacity:1;" d="M 59.421875 23.230469 C 60.789062 23.230469 62.109375 23.925781 62.109375 25.445312 C 62.109375 27.210938 60.738281 28.453125 59.570312 29.148438 C 58.699219 29.671875 57.707031 29.996094 56.6875 29.996094 C 55.316406 29.996094 54 29.300781 54 27.78125 C 54 26.015625 55.367188 24.773438 56.535156 24.074219 C 57.40625 23.554688 58.402344 23.230469 59.421875 23.230469 Z M 59.421875 23.230469 "/>
</g>
</svg>
