<?xml version="1.0" encoding="UTF-8"?>
<svg xmlns="http://www.w3.org/2000/svg" xmlns:xlink="http://www.w3.org/1999/xlink" width="86.582467pt" height="83.32518pt" viewBox="0 0 86.582467 83.32518" version="1.1">
<g id="surface1">
<path style="fill:none;stroke-width:0.1;stroke-linecap:round;stroke-linejoin:round;stroke:rgb(0%,0%,0%);stroke-opacity:1;stroke-miterlimit:4;" d="M 0.049863 -0.0000568912 L 11.478731 -0.0000568912 " transform="matrix(6.218149,0,0,6.218149,4.561038,63.648791)"/>
<path style="fill:none;stroke-width:0.1;stroke-linecap:round;stroke-linejoin:round;stroke:rgb(0%,0%,0%);stroke-opacity:1;stroke-miterlimit:4;" d="M 0.049863 -0.00015354 L 11.478731 -0.00015354 " transform="matrix(6.218149,0,0,6.218149,4.561038,57.430642)"/>
<path style="fill:none;stroke-width:0.1;stroke-linecap:round;stroke-linejoin:round;stroke:rgb(0%,0%,0%);stroke-opacity:1;stroke-miterlimit:4;" d="M 0.049863 -0.000250188 L 11.478731 -0.000250188 " transform="matrix(6.218149,0,0,6.218149,4.561038,51.212493)"/>
<path style="fill:none;stroke-width:0.1;stroke-linecap:round;stroke-linejoin:round;stroke:rgb(0%,0%,0%);stroke-opacity:1;stroke-miterlimit:4;" d="M 0.049863 0.000281364 L 11.478731 0.000281364 " transform="matrix(6.218149,0,0,6.218149,4.561038,44.994344)"/>
<path style="fill:none;stroke-width:0.1;stroke-linecap:round;stroke-linejoin:round;stroke:rgb(0%,0%,0%);stroke-opacity:1;stroke-miterlimit:4;" d="M 0.049863 0.000184716 L 11.478731 0.000184716 " transform="matrix(6.218149,0,0,6.218149,4.561038,38.776195)"/>
<path style=" stroke:none;fill-rule:nonzero;fill:rgb(0%,0%,0%);fill-opacity:1;" d="M 57.113281 13.28125 L 67.097656 13.28125 C 67.441406 13.28125 67.71875 13.558594 67.71875 13.902344 C 67.71875 14.246094 67.441406 14.527344 67.097656 14.527344 L 57.113281 14.527344 C 56.773438 14.527344 56.492188 14.246094 56.492188 13.902344 C 56.492188 13.558594 56.773438 13.28125 57.113281 13.28125 Z M 57.113281 13.28125 "/>
<path style=" stroke:none;fill-rule:nonzero;fill:rgb(0%,0%,0%);fill-opacity:1;" d="M 56.175781 19.5 L 67.097656 19.5 C 67.441406 19.5 67.71875 19.777344 67.71875 20.121094 C 67.71875 20.464844 67.441406 20.742188 67.097656 20.742188 L 56.175781 20.742188 C 55.832031 20.742188 55.554688 20.464844 55.554688 20.121094 C 55.554688 19.777344 55.832031 19.5 56.175781 19.5 Z M 56.175781 19.5 "/>
<path style=" stroke:none;fill-rule:nonzero;fill:rgb(0%,0%,0%);fill-opacity:1;" d="M 56.175781 25.71875 L 67.097656 25.71875 C 67.441406 25.71875 67.71875 25.996094 67.71875 26.339844 C 67.71875 26.683594 67.441406 26.960938 67.097656 26.960938 L 56.175781 26.960938 C 55.832031 26.960938 55.554688 26.683594 55.554688 26.339844 C 55.554688 25.996094 55.832031 25.71875 56.175781 25.71875 Z M 56.175781 25.71875 "/>
<path style=" stroke:none;fill-rule:nonzero;fill:rgb(0%,0%,0%);fill-opacity:1;" d="M 56.175781 31.9375 L 67.097656 31.9375 C 67.441406 31.9375 67.71875 32.214844 67.71875 32.558594 C 67.71875 32.902344 67.441406 33.179688 67.097656 33.179688 L 56.175781 33.179688 C 55.832031 33.179688 55.554688 32.902344 55.554688 32.558594 C 55.554688 32.214844 55.832031 31.9375 56.175781 31.9375 Z M 56.175781 31.9375 "/>
<path style=" stroke:none;fill-rule:nonzero;fill:rgb(0%,0%,0%);fill-opacity:1;" d="M 57.828125 15.0625 L 58.140625 15.0625 C 58.277344 15.0625 58.390625 15.171875 58.390625 15.308594 L 58.390625 54.074219 C 58.390625 54.210938 58.277344 54.320312 58.140625 54.320312 L 57.828125 54.320312 C 57.691406 54.320312 57.582031 54.210938 57.582031 54.074219 L 57.582031 15.308594 C 57.582031 15.171875 57.691406 15.0625 57.828125 15.0625 Z M 57.828125 15.0625 "/>
<path style=" stroke:none;fill-rule:nonzero;fill:rgb(0%,0%,0%);fill-opacity:1;" d="M 53.9375 21.664062 C 53.9375 21.914062 53.738281 22.136719 53.488281 22.136719 C 53.242188 22.136719 53.015625 21.914062 53.015625 21.664062 L 53.015625 18.058594 L 50.953125 18.828125 L 50.953125 22.757812 C 50.953125 23.007812 50.730469 23.230469 50.480469 23.230469 C 50.230469 23.230469 50.03125 23.007812 50.03125 22.757812 L 50.03125 19.152344 L 49.238281 19.449219 C 49.1875 19.476562 49.113281 19.476562 49.0625 19.476562 C 48.789062 19.476562 48.566406 19.25 48.566406 18.976562 L 48.566406 17.484375 C 48.566406 17.285156 48.6875 17.085938 48.886719 17.011719 L 50.03125 16.613281 L 50.03125 12.636719 L 49.238281 12.910156 C 49.1875 12.933594 49.113281 12.933594 49.0625 12.933594 C 48.789062 12.933594 48.566406 12.710938 48.566406 12.4375 L 48.566406 10.945312 C 48.566406 10.746094 48.6875 10.570312 48.886719 10.496094 L 50.03125 10.074219 L 50.03125 6.144531 C 50.03125 5.894531 50.230469 5.671875 50.480469 5.671875 C 50.730469 5.671875 50.953125 5.894531 50.953125 6.144531 L 50.953125 9.75 L 53.015625 8.980469 L 53.015625 5.050781 C 53.015625 4.800781 53.242188 4.578125 53.488281 4.578125 C 53.738281 4.578125 53.9375 4.800781 53.9375 5.050781 L 53.9375 8.65625 L 54.734375 8.355469 C 54.78125 8.332031 54.859375 8.332031 54.90625 8.332031 C 55.179688 8.332031 55.40625 8.554688 55.40625 8.828125 L 55.40625 10.320312 C 55.40625 10.519531 55.28125 10.71875 55.082031 10.792969 L 53.9375 11.191406 L 53.9375 15.171875 L 54.734375 14.898438 C 54.78125 14.875 54.859375 14.875 54.90625 14.875 C 55.179688 14.875 55.40625 15.097656 55.40625 15.371094 L 55.40625 16.863281 C 55.40625 17.0625 55.28125 17.238281 55.082031 17.3125 L 53.9375 17.734375 Z M 50.953125 12.285156 L 50.953125 16.265625 L 53.015625 15.519531 L 53.015625 11.539062 Z M 50.953125 12.285156 "/>
<path style=" stroke:none;fill-rule:nonzero;fill:rgb(0%,0%,0%);fill-opacity:1;" d="M 42.347656 27.882812 C 42.347656 28.128906 42.148438 28.355469 41.898438 28.355469 C 41.652344 28.355469 41.425781 28.128906 41.425781 27.882812 L 41.425781 24.277344 L 39.363281 25.046875 L 39.363281 28.976562 C 39.363281 29.226562 39.136719 29.449219 38.890625 29.449219 C 38.640625 29.449219 38.441406 29.226562 38.441406 28.976562 L 38.441406 25.371094 L 37.644531 25.667969 C 37.597656 25.691406 37.523438 25.691406 37.472656 25.691406 C 37.199219 25.691406 36.972656 25.46875 36.972656 25.195312 L 36.972656 23.703125 C 36.972656 23.503906 37.097656 23.304688 37.296875 23.230469 L 38.441406 22.832031 L 38.441406 18.851562 L 37.644531 19.125 C 37.597656 19.152344 37.523438 19.152344 37.472656 19.152344 C 37.199219 19.152344 36.972656 18.929688 36.972656 18.652344 L 36.972656 17.160156 C 36.972656 16.964844 37.097656 16.789062 37.296875 16.714844 L 38.441406 16.292969 L 38.441406 12.363281 C 38.441406 12.113281 38.640625 11.890625 38.890625 11.890625 C 39.136719 11.890625 39.363281 12.113281 39.363281 12.363281 L 39.363281 15.96875 L 41.425781 15.195312 L 41.425781 11.265625 C 41.425781 11.019531 41.652344 10.792969 41.898438 10.792969 C 42.148438 10.792969 42.347656 11.019531 42.347656 11.265625 L 42.347656 14.875 L 43.144531 14.574219 C 43.191406 14.550781 43.265625 14.550781 43.316406 14.550781 C 43.589844 14.550781 43.8125 14.773438 43.8125 15.046875 L 43.8125 16.539062 C 43.8125 16.738281 43.691406 16.9375 43.492188 17.011719 L 42.347656 17.410156 L 42.347656 21.390625 L 43.144531 21.117188 C 43.191406 21.089844 43.265625 21.089844 43.316406 21.089844 C 43.589844 21.089844 43.8125 21.316406 43.8125 21.589844 L 43.8125 23.082031 C 43.8125 23.28125 43.691406 23.453125 43.492188 23.527344 L 42.347656 23.953125 Z M 39.363281 18.503906 L 39.363281 22.484375 L 41.425781 21.738281 L 41.425781 17.757812 Z M 39.363281 18.503906 "/>
<path style=" stroke:none;fill-rule:nonzero;fill:rgb(0%,0%,0%);fill-opacity:1;" d="M 32.996094 26.339844 C 33.570312 26.910156 34.390625 27.035156 35.210938 27.035156 C 35.359375 27.035156 35.460938 27.136719 35.460938 27.285156 L 35.683594 29.449219 C 35.707031 29.597656 35.582031 29.722656 35.433594 29.699219 L 33.269531 29.472656 C 33.144531 29.449219 33.023438 29.347656 33.023438 29.226562 C 33.023438 28.40625 32.898438 27.582031 32.324219 27.011719 C 31.753906 27.582031 31.652344 28.40625 31.652344 29.226562 C 31.652344 29.347656 31.527344 29.449219 31.40625 29.472656 L 29.214844 29.699219 C 29.066406 29.722656 28.941406 29.597656 28.96875 29.449219 L 29.191406 27.285156 C 29.191406 27.136719 29.289062 27.035156 29.441406 27.035156 C 30.261719 27.035156 31.082031 26.910156 31.652344 26.339844 C 31.082031 25.769531 30.261719 25.644531 29.441406 25.644531 C 29.289062 25.644531 29.191406 25.542969 29.191406 25.394531 L 28.96875 23.230469 C 28.941406 23.082031 29.066406 22.957031 29.214844 22.980469 L 31.40625 23.207031 C 31.527344 23.230469 31.628906 23.332031 31.628906 23.453125 C 31.628906 24.277344 31.753906 25.097656 32.324219 25.667969 C 32.898438 25.097656 33.023438 24.277344 33.023438 23.453125 C 33.023438 23.332031 33.144531 23.230469 33.269531 23.207031 L 35.433594 22.980469 C 35.582031 22.957031 35.707031 23.082031 35.683594 23.230469 L 35.460938 25.394531 C 35.460938 25.542969 35.359375 25.644531 35.210938 25.644531 C 34.390625 25.644531 33.570312 25.769531 32.996094 26.339844 Z M 32.996094 26.339844 "/>
<path style=" stroke:none;fill-rule:nonzero;fill:rgb(0%,0%,0%);fill-opacity:1;" d="M 48.789062 40.316406 C 48.789062 40.566406 48.589844 40.789062 48.339844 40.789062 C 48.09375 40.789062 47.867188 40.566406 47.867188 40.316406 L 47.867188 36.710938 L 45.804688 37.484375 L 45.804688 41.414062 C 45.804688 41.660156 45.582031 41.886719 45.332031 41.886719 C 45.082031 41.886719 44.882812 41.660156 44.882812 41.414062 L 44.882812 37.804688 L 44.089844 38.105469 C 44.039062 38.128906 43.964844 38.128906 43.914062 38.128906 C 43.640625 38.128906 43.417969 37.90625 43.417969 37.632812 L 43.417969 36.140625 C 43.417969 35.941406 43.539062 35.742188 43.738281 35.667969 L 44.882812 35.269531 L 44.882812 31.289062 L 44.089844 31.5625 C 44.039062 31.589844 43.964844 31.589844 43.914062 31.589844 C 43.640625 31.589844 43.417969 31.363281 43.417969 31.089844 L 43.417969 29.597656 C 43.417969 29.398438 43.539062 29.226562 43.738281 29.152344 L 44.882812 28.726562 L 44.882812 24.796875 C 44.882812 24.550781 45.082031 24.324219 45.332031 24.324219 C 45.582031 24.324219 45.804688 24.550781 45.804688 24.796875 L 45.804688 28.40625 L 47.867188 27.632812 L 47.867188 23.703125 C 47.867188 23.453125 48.09375 23.230469 48.339844 23.230469 C 48.589844 23.230469 48.789062 23.453125 48.789062 23.703125 L 48.789062 27.308594 L 49.585938 27.011719 C 49.632812 26.988281 49.710938 26.988281 49.757812 26.988281 C 50.03125 26.988281 50.257812 27.210938 50.257812 27.484375 L 50.257812 28.976562 C 50.257812 29.175781 50.132812 29.375 49.933594 29.449219 L 48.789062 29.847656 L 48.789062 33.828125 L 49.585938 33.554688 C 49.632812 33.527344 49.710938 33.527344 49.757812 33.527344 C 50.03125 33.527344 50.257812 33.75 50.257812 34.027344 L 50.257812 35.519531 C 50.257812 35.71875 50.132812 35.890625 49.933594 35.964844 L 48.789062 36.386719 Z M 45.804688 30.941406 L 45.804688 34.921875 L 47.867188 34.175781 L 47.867188 30.195312 Z M 45.804688 30.941406 "/>
<path style=" stroke:none;fill-rule:nonzero;fill:rgb(0%,0%,0%);fill-opacity:1;" d="M 16.152344 73.226562 L 16.003906 73.226562 C 13.316406 73.226562 11.152344 71.035156 11.152344 68.324219 C 11.152344 66.882812 12.46875 65.761719 13.9375 65.761719 C 15.28125 65.761719 16.300781 66.933594 16.300781 68.324219 C 16.300781 69.617188 15.230469 70.6875 13.9375 70.6875 C 13.664062 70.6875 13.414062 70.636719 13.167969 70.539062 C 13.8125 71.507812 14.859375 72.15625 16.078125 72.15625 L 16.175781 72.15625 Z M 21 62.480469 C 22.691406 61.882812 23.8125 60.117188 23.8125 58.402344 C 23.8125 56.164062 22.171875 53.949219 19.507812 53.675781 C 20.105469 56.558594 20.652344 59.421875 21 62.480469 Z M 11.375 56.734375 C 11.375 60.09375 14.585938 62.878906 17.941406 62.878906 C 18.640625 62.878906 19.308594 62.828125 19.980469 62.726562 C 19.632812 59.570312 19.0625 56.632812 18.414062 53.675781 C 16.449219 53.875 15.332031 55.191406 15.332031 56.632812 C 15.332031 57.730469 15.953125 58.898438 17.34375 59.695312 C 17.46875 59.820312 17.519531 59.941406 17.519531 60.066406 C 17.519531 60.339844 17.269531 60.613281 16.972656 60.613281 C 16.898438 60.613281 16.824219 60.589844 16.75 60.566406 C 14.757812 59.496094 13.839844 57.703125 13.839844 55.964844 C 13.839844 53.773438 15.28125 51.636719 17.816406 51.0625 C 17.46875 49.621094 17.097656 48.152344 16.675781 46.710938 C 14.011719 49.71875 11.375 52.753906 11.375 56.734375 Z M 17.867188 63.945312 C 13.191406 63.945312 9.585938 59.667969 9.585938 54.644531 C 9.585938 50.242188 12.84375 47.035156 15.753906 43.675781 C 15.28125 42.132812 14.832031 40.566406 14.632812 38.949219 C 14.484375 37.65625 14.460938 36.363281 14.460938 35.070312 C 14.460938 32.210938 15.828125 29.5 18.167969 27.808594 C 18.316406 27.683594 18.515625 27.683594 18.664062 27.808594 C 20.429688 29.898438 21.972656 33.902344 21.972656 36.710938 C 21.972656 40.269531 19.832031 43.054688 17.496094 45.765625 C 18.015625 47.457031 18.464844 49.199219 18.886719 50.914062 C 18.988281 50.914062 19.113281 50.890625 19.210938 50.890625 C 23.066406 50.890625 25.578125 54.074219 25.578125 57.382812 C 25.578125 59.269531 24.757812 61.210938 22.917969 62.605469 C 22.371094 63.027344 21.746094 63.300781 21.101562 63.5 C 21.175781 64.371094 21.226562 65.242188 21.226562 66.109375 C 21.226562 66.582031 21.199219 67.082031 21.175781 67.554688 C 21 70.511719 18.988281 73.148438 16.152344 73.226562 L 16.175781 72.15625 C 18.488281 72.105469 19.980469 69.867188 20.132812 67.40625 C 20.15625 66.957031 20.179688 66.484375 20.179688 66.035156 C 20.179688 65.265625 20.15625 64.519531 20.082031 63.75 C 19.359375 63.871094 18.640625 63.945312 17.867188 63.945312 Z M 20.179688 34.648438 C 20.179688 33.28125 20.082031 32.683594 19.683594 31.4375 C 17.222656 32.632812 15.652344 35.144531 15.652344 37.878906 C 15.652344 39.722656 16.101562 41.1875 16.550781 42.707031 C 18.539062 40.292969 20.179688 37.78125 20.179688 34.648438 Z M 20.179688 34.648438 "/>
<path style=" stroke:none;fill-rule:nonzero;fill:rgb(0%,0%,0%);fill-opacity:1;" d="M 63.003906 10.519531 C 64.371094 10.519531 65.691406 11.21875 65.691406 12.734375 C 65.691406 14.5 64.320312 15.746094 63.152344 16.441406 C 62.28125 16.964844 61.289062 17.285156 60.265625 17.285156 C 58.898438 17.285156 57.582031 16.589844 57.582031 15.074219 C 57.582031 13.308594 58.949219 12.0625 60.117188 11.367188 C 60.988281 10.84375 61.984375 10.519531 63.003906 10.519531 Z M 63.003906 10.519531 "/>
<path style=" stroke:none;fill-rule:nonzero;fill:rgb(0%,0%,0%);fill-opacity:1;" d="M 63.003906 16.738281 C 64.371094 16.738281 65.691406 17.433594 65.691406 18.953125 C 65.691406 20.71875 64.320312 21.960938 63.152344 22.660156 C 62.28125 23.179688 61.289062 23.503906 60.265625 23.503906 C 58.898438 23.503906 57.582031 22.808594 57.582031 21.289062 C 57.582031 19.523438 58.949219 18.28125 60.117188 17.585938 C 60.988281 17.0625 61.984375 16.738281 63.003906 16.738281 Z M 63.003906 16.738281 "/>
<path style=" stroke:none;fill-rule:nonzero;fill:rgb(0%,0%,0%);fill-opacity:1;" d="M 63.003906 22.957031 C 64.371094 22.957031 65.691406 23.652344 65.691406 25.171875 C 65.691406 26.9375 64.320312 28.179688 63.152344 28.875 C 62.28125 29.398438 61.289062 29.722656 60.265625 29.722656 C 58.898438 29.722656 57.582031 29.027344 57.582031 27.507812 C 57.582031 25.742188 58.949219 24.5 60.117188 23.804688 C 60.988281 23.28125 61.984375 22.957031 63.003906 22.957031 Z M 63.003906 22.957031 "/>
<path style=" stroke:none;fill-rule:nonzero;fill:rgb(0%,0%,0%);fill-opacity:1;" d="M 63.003906 29.175781 C 64.371094 29.175781 65.691406 29.871094 65.691406 31.390625 C 65.691406 33.15625 64.320312 34.398438 63.152344 35.09375 C 62.28125 35.617188 61.289062 35.941406 60.265625 35.941406 C 58.898438 35.941406 57.582031 35.246094 57.582031 33.726562 C 57.582031 31.960938 58.949219 30.71875 60.117188 30.019531 C 60.988281 29.5 61.984375 29.175781 63.003906 29.175781 Z M 63.003906 29.175781 "/>
</g>
</svg>
