<?xml version="1.0" encoding="UTF-8"?>
<svg xmlns="http://www.w3.org/2000/svg" xmlns:xlink="http://www.w3.org/1999/xlink" width="72.54574pt" height="50.027976pt" viewBox="0 0 72.54574 50.027976" version="1.1">
<g id="surface1">
<path style="fill:none;stroke-width:0.1;stroke-linecap:round;stroke-linejoin:round;stroke:rgb(0%,0%,0%);stroke-opacity:1;stroke-miterlimit:4;" d="M 0.049863 0.0000868666 L 9.365462 0.0000868666 " transform="matrix(6.218149,0,0,6.218149,4.561038,31.479929)"/>
<path style="fill:none;stroke-width:0.1;stroke-linecap:round;stroke-linejoin:round;stroke:rgb(0%,0%,0%);stroke-opacity:1;stroke-miterlimit:4;" d="M 0.049863 -0.00000978202 L 9.365462 -0.00000978202 " transform="matrix(6.218149,0,0,6.218149,4.561038,25.26178)"/>
<path style="fill:none;stroke-width:0.1;stroke-linecap:round;stroke-linejoin:round;stroke:rgb(0%,0%,0%);stroke-opacity:1;stroke-miterlimit:4;" d="M 0.049863 -0.000106431 L 9.365462 -0.000106431 " transform="matrix(6.218149,0,0,6.218149,4.561038,19.043631)"/>
<path style="fill:none;stroke-width:0.1;stroke-linecap:round;stroke-linejoin:round;stroke:rgb(0%,0%,0%);stroke-opacity:1;stroke-miterlimit:4;" d="M 0.049863 -0.000203079 L 9.365462 -0.000203079 " transform="matrix(6.218149,0,0,6.218149,4.561038,12.825482)"/>
<path style="fill:none;stroke-width:0.1;stroke-linecap:round;stroke-linejoin:round;stroke:rgb(0%,0%,0%);stroke-opacity:1;stroke-miterlimit:4;" d="M 0.049863 -0.000299847 L 9.365462 -0.000299847 " transform="matrix(6.218149,0,0,6.218149,4.561038,6.607333)"/>
<path style=" stroke:none;fill-rule:nonzero;fill:rgb(0%,0%,0%);fill-opacity:1;" d="M 44.6875 10.875 L 45 10.875 C 45.136719 10.875 45.25 10.984375 45.25 11.121094 L 45.25 41.59375 C 45.25 41.730469 45.136719 41.84375 45 41.84375 L 44.6875 41.84375 C 44.550781 41.84375 44.441406 41.730469 44.441406 41.59375 L 44.441406 11.121094 C 44.441406 10.984375 44.550781 10.875 44.6875 10.875 Z M 44.6875 10.875 "/>
<path style=" stroke:none;fill-rule:nonzero;fill:rgb(0%,0%,0%);fill-opacity:1;" d="M 37.960938 14.914062 L 37.9375 16.554688 L 37.9375 16.828125 C 37.9375 17.378906 37.960938 17.925781 38.035156 18.472656 C 39.15625 17.527344 40.347656 16.480469 40.347656 15.015625 C 40.347656 14.195312 40 13.347656 39.28125 13.347656 C 38.507812 13.347656 37.984375 14.09375 37.960938 14.914062 Z M 36.917969 19.367188 L 36.617188 4.566406 C 36.816406 4.445312 37.066406 4.367188 37.289062 4.367188 C 37.511719 4.367188 37.761719 4.445312 37.960938 4.566406 L 37.785156 13.148438 C 38.410156 12.625 39.230469 12.304688 40.050781 12.304688 C 41.34375 12.304688 42.265625 13.496094 42.265625 14.839844 C 42.265625 16.828125 40.125 17.75 38.609375 19.042969 C 38.234375 19.367188 38.011719 19.988281 37.488281 19.988281 C 37.164062 19.988281 36.917969 19.714844 36.917969 19.367188 Z M 36.917969 19.367188 "/>
<path style=" stroke:none;fill-rule:nonzero;fill:rgb(0%,0%,0%);fill-opacity:1;" d="M 31.371094 21.132812 L 31.34375 22.773438 L 31.34375 23.046875 C 31.34375 23.59375 31.371094 24.140625 31.445312 24.691406 C 32.5625 23.746094 33.757812 22.699219 33.757812 21.230469 C 33.757812 20.410156 33.410156 19.566406 32.6875 19.566406 C 31.917969 19.566406 31.394531 20.3125 31.371094 21.132812 Z M 30.324219 25.585938 L 30.027344 10.785156 C 30.226562 10.660156 30.472656 10.585938 30.699219 10.585938 C 30.921875 10.585938 31.171875 10.660156 31.371094 10.785156 L 31.195312 19.367188 C 31.816406 18.84375 32.636719 18.519531 33.460938 18.519531 C 34.753906 18.519531 35.671875 19.714844 35.671875 21.058594 C 35.671875 23.046875 33.535156 23.96875 32.015625 25.261719 C 31.644531 25.585938 31.417969 26.207031 30.898438 26.207031 C 30.574219 26.207031 30.324219 25.933594 30.324219 25.585938 Z M 30.324219 25.585938 "/>
<path style=" stroke:none;fill-rule:nonzero;fill:rgb(0%,0%,0%);fill-opacity:1;" d="M 23.390625 15.933594 C 23.390625 15.238281 23.960938 14.667969 24.65625 14.667969 C 25.355469 14.667969 25.925781 15.238281 25.925781 15.933594 C 25.925781 16.632812 25.355469 17.203125 24.65625 17.203125 C 23.960938 17.203125 23.390625 16.632812 23.390625 15.933594 Z M 23.390625 9.714844 C 23.390625 9.019531 23.960938 8.449219 24.65625 8.449219 C 25.355469 8.449219 25.925781 9.019531 25.925781 9.714844 C 25.925781 10.414062 25.355469 10.984375 24.65625 10.984375 C 23.960938 10.984375 23.390625 10.414062 23.390625 9.714844 Z M 15.304688 6.285156 C 19.585938 6.285156 22.59375 8.472656 22.59375 12.527344 C 22.59375 19.070312 16.050781 22.824219 9.757812 25.484375 C 9.683594 25.558594 9.609375 25.585938 9.535156 25.585938 C 9.363281 25.585938 9.210938 25.4375 9.210938 25.261719 C 9.210938 25.1875 9.238281 25.113281 9.3125 25.039062 C 14.335938 22.101562 19.558594 18.445312 19.558594 12.777344 C 19.558594 9.792969 17.992188 6.929688 15.304688 6.929688 C 13.464844 6.929688 12.097656 8.273438 11.476562 10.066406 C 11.75 9.941406 12.023438 9.867188 12.320312 9.867188 C 13.6875 9.867188 14.808594 10.984375 14.808594 12.351562 C 14.808594 13.796875 13.714844 14.988281 12.320312 14.988281 C 10.828125 14.988281 9.535156 13.820312 9.535156 12.351562 C 9.535156 9.042969 12.074219 6.285156 15.304688 6.285156 Z M 15.304688 6.285156 "/>
<path style=" stroke:none;fill-rule:nonzero;fill:rgb(0%,0%,0%);fill-opacity:1;" d="M 49.863281 6.332031 C 51.230469 6.332031 52.550781 7.03125 52.550781 8.546875 C 52.550781 10.3125 51.179688 11.558594 50.011719 12.253906 C 49.140625 12.777344 48.148438 13.097656 47.125 13.097656 C 45.757812 13.097656 44.441406 12.402344 44.441406 10.886719 C 44.441406 9.121094 45.808594 7.875 46.976562 7.179688 C 47.847656 6.65625 48.84375 6.332031 49.863281 6.332031 Z M 49.863281 6.332031 "/>
<path style=" stroke:none;fill-rule:nonzero;fill:rgb(0%,0%,0%);fill-opacity:1;" d="M 49.863281 12.550781 C 51.230469 12.550781 52.550781 13.25 52.550781 14.765625 C 52.550781 16.53125 51.179688 17.773438 50.011719 18.472656 C 49.140625 18.992188 48.148438 19.316406 47.125 19.316406 C 45.757812 19.316406 44.441406 18.621094 44.441406 17.105469 C 44.441406 15.335938 45.808594 14.09375 46.976562 13.398438 C 47.847656 12.875 48.84375 12.550781 49.863281 12.550781 Z M 49.863281 12.550781 "/>
<path style=" stroke:none;fill-rule:nonzero;fill:rgb(0%,0%,0%);fill-opacity:1;" d="M 49.863281 18.769531 C 51.230469 18.769531 52.550781 19.464844 52.550781 20.984375 C 52.550781 22.75 51.179688 23.992188 50.011719 24.691406 C 49.140625 25.210938 48.148438 25.535156 47.125 25.535156 C 45.757812 25.535156 44.441406 24.839844 44.441406 23.320312 C 44.441406 21.554688 45.808594 20.3125 46.976562 19.617188 C 47.847656 19.09375 48.84375 18.769531 49.863281 18.769531 Z M 49.863281 18.769531 "/>
</g>
</svg>
