<?xml version="1.0" encoding="UTF-8"?>
<svg xmlns="http://www.w3.org/2000/svg" xmlns:xlink="http://www.w3.org/1999/xlink" width="82.402133pt" height="63.134188pt" viewBox="0 0 82.402133 63.134188" version="1.1">
<g id="surface1">
<path style="fill:none;stroke-width:0.1;stroke-linecap:round;stroke-linejoin:round;stroke:rgb(0%,0%,0%);stroke-opacity:1;stroke-miterlimit:4;" d="M 0.049863 0.0000610068 L 10.849902 0.0000610068 " transform="matrix(6.218149,0,0,6.218149,4.561038,32.409777)"/>
<path style="fill:none;stroke-width:0.1;stroke-linecap:round;stroke-linejoin:round;stroke:rgb(0%,0%,0%);stroke-opacity:1;stroke-miterlimit:4;" d="M 0.049863 -0.0000356418 L 10.849902 -0.0000356418 " transform="matrix(6.218149,0,0,6.218149,4.561038,26.191628)"/>
<path style="fill:none;stroke-width:0.1;stroke-linecap:round;stroke-linejoin:round;stroke:rgb(0%,0%,0%);stroke-opacity:1;stroke-miterlimit:4;" d="M 0.049863 -0.00013229 L 10.849902 -0.00013229 " transform="matrix(6.218149,0,0,6.218149,4.561038,19.973479)"/>
<path style="fill:none;stroke-width:0.1;stroke-linecap:round;stroke-linejoin:round;stroke:rgb(0%,0%,0%);stroke-opacity:1;stroke-miterlimit:4;" d="M 0.049863 -0.000228939 L 10.849902 -0.000228939 " transform="matrix(6.218149,0,0,6.218149,4.561038,13.75533)"/>
<path style="fill:none;stroke-width:0.1;stroke-linecap:round;stroke-linejoin:round;stroke:rgb(0%,0%,0%);stroke-opacity:1;stroke-miterlimit:4;" d="M 0.049863 0.000302495 L 10.849902 0.000302495 " transform="matrix(6.218149,0,0,6.218149,4.561038,7.537182)"/>
<path style=" stroke:none;fill-rule:nonzero;fill:rgb(0%,0%,0%);fill-opacity:1;" d="M 52.261719 38.007812 L 63.183594 38.007812 C 63.527344 38.007812 63.804688 38.285156 63.804688 38.628906 C 63.804688 38.972656 63.527344 39.25 63.183594 39.25 L 52.261719 39.25 C 51.917969 39.25 51.640625 38.972656 51.640625 38.628906 C 51.640625 38.285156 51.917969 38.007812 52.261719 38.007812 Z M 52.261719 38.007812 "/>
<path style=" stroke:none;fill-rule:nonzero;fill:rgb(0%,0%,0%);fill-opacity:1;" d="M 52.261719 44.222656 L 63.183594 44.222656 C 63.527344 44.222656 63.804688 44.503906 63.804688 44.847656 C 63.804688 45.191406 63.527344 45.46875 63.183594 45.46875 L 52.261719 45.46875 C 51.917969 45.46875 51.640625 45.191406 51.640625 44.847656 C 51.640625 44.503906 51.917969 44.222656 52.261719 44.222656 Z M 52.261719 44.222656 "/>
<path style=" stroke:none;fill-rule:nonzero;fill:rgb(0%,0%,0%);fill-opacity:1;" d="M 61.21875 4.429688 L 61.527344 4.429688 C 61.667969 4.429688 61.777344 4.539062 61.777344 4.675781 L 61.777344 43.441406 C 61.777344 43.578125 61.667969 43.6875 61.527344 43.6875 L 61.21875 43.6875 C 61.082031 43.6875 60.96875 43.578125 60.96875 43.441406 L 60.96875 4.675781 C 60.96875 4.539062 61.082031 4.429688 61.21875 4.429688 Z M 61.21875 4.429688 "/>
<path style=" stroke:none;fill-rule:nonzero;fill:rgb(0%,0%,0%);fill-opacity:1;" d="M 50.023438 40.171875 C 50.023438 40.417969 49.824219 40.644531 49.578125 40.644531 C 49.328125 40.644531 49.105469 40.417969 49.105469 40.171875 L 49.105469 36.5625 L 47.039062 37.335938 L 47.039062 41.265625 C 47.039062 41.511719 46.816406 41.738281 46.566406 41.738281 C 46.320312 41.738281 46.121094 41.511719 46.121094 41.265625 L 46.121094 37.65625 L 45.324219 37.957031 C 45.273438 37.980469 45.199219 37.980469 45.148438 37.980469 C 44.875 37.980469 44.652344 37.757812 44.652344 37.484375 L 44.652344 35.992188 C 44.652344 35.792969 44.777344 35.59375 44.976562 35.519531 L 46.121094 35.121094 L 46.121094 31.140625 L 45.324219 31.414062 C 45.273438 31.441406 45.199219 31.441406 45.148438 31.441406 C 44.875 31.441406 44.652344 31.214844 44.652344 30.941406 L 44.652344 29.449219 C 44.652344 29.25 44.777344 29.078125 44.976562 29.003906 L 46.121094 28.578125 L 46.121094 24.648438 C 46.121094 24.402344 46.320312 24.175781 46.566406 24.175781 C 46.816406 24.175781 47.039062 24.402344 47.039062 24.648438 L 47.039062 28.257812 L 49.105469 27.484375 L 49.105469 23.554688 C 49.105469 23.304688 49.328125 23.082031 49.578125 23.082031 C 49.824219 23.082031 50.023438 23.304688 50.023438 23.554688 L 50.023438 27.160156 L 50.820312 26.863281 C 50.871094 26.839844 50.945312 26.839844 50.996094 26.839844 C 51.269531 26.839844 51.492188 27.0625 51.492188 27.335938 L 51.492188 28.828125 C 51.492188 29.027344 51.367188 29.226562 51.167969 29.300781 L 50.023438 29.699219 L 50.023438 33.679688 L 50.820312 33.40625 C 50.871094 33.378906 50.945312 33.378906 50.996094 33.378906 C 51.269531 33.378906 51.492188 33.605469 51.492188 33.878906 L 51.492188 35.371094 C 51.492188 35.570312 51.367188 35.742188 51.167969 35.816406 L 50.023438 36.238281 Z M 47.039062 30.792969 L 47.039062 34.773438 L 49.105469 34.027344 L 49.105469 30.046875 Z M 47.039062 30.792969 "/>
<path style=" stroke:none;fill-rule:nonzero;fill:rgb(0%,0%,0%);fill-opacity:1;" d="M 35.324219 46.386719 C 35.324219 46.636719 35.125 46.859375 34.878906 46.859375 C 34.628906 46.859375 34.40625 46.636719 34.40625 46.386719 L 34.40625 42.78125 L 32.339844 43.550781 L 32.339844 47.484375 C 32.339844 47.730469 32.117188 47.957031 31.867188 47.957031 C 31.617188 47.957031 31.417969 47.730469 31.417969 47.484375 L 31.417969 43.875 L 30.625 44.175781 C 30.574219 44.199219 30.5 44.199219 30.449219 44.199219 C 30.175781 44.199219 29.953125 43.976562 29.953125 43.703125 L 29.953125 42.210938 C 29.953125 42.011719 30.078125 41.8125 30.277344 41.738281 L 31.417969 41.339844 L 31.417969 37.359375 L 30.625 37.632812 C 30.574219 37.65625 30.5 37.65625 30.449219 37.65625 C 30.175781 37.65625 29.953125 37.433594 29.953125 37.160156 L 29.953125 35.667969 C 29.953125 35.46875 30.078125 35.296875 30.277344 35.21875 L 31.417969 34.796875 L 31.417969 30.867188 C 31.417969 30.617188 31.617188 30.394531 31.867188 30.394531 C 32.117188 30.394531 32.339844 30.617188 32.339844 30.867188 L 32.339844 34.472656 L 34.40625 33.703125 L 34.40625 29.773438 C 34.40625 29.523438 34.628906 29.300781 34.878906 29.300781 C 35.125 29.300781 35.324219 29.523438 35.324219 29.773438 L 35.324219 33.378906 L 36.121094 33.082031 C 36.171875 33.054688 36.246094 33.054688 36.292969 33.054688 C 36.566406 33.054688 36.792969 33.28125 36.792969 33.554688 L 36.792969 35.046875 C 36.792969 35.246094 36.667969 35.445312 36.46875 35.519531 L 35.324219 35.917969 L 35.324219 39.894531 L 36.121094 39.621094 C 36.171875 39.597656 36.246094 39.597656 36.292969 39.597656 C 36.566406 39.597656 36.792969 39.820312 36.792969 40.09375 L 36.792969 41.585938 C 36.792969 41.785156 36.667969 41.960938 36.46875 42.035156 L 35.324219 42.457031 Z M 32.339844 37.011719 L 32.339844 40.992188 L 34.40625 40.246094 L 34.40625 36.265625 Z M 32.339844 37.011719 "/>
<path style=" stroke:none;fill-rule:nonzero;fill:rgb(0%,0%,0%);fill-opacity:1;" d="M 43.410156 52.605469 C 43.410156 52.855469 43.210938 53.078125 42.960938 53.078125 C 42.710938 53.078125 42.488281 52.855469 42.488281 52.605469 L 42.488281 49 L 40.421875 49.769531 L 40.421875 53.699219 C 40.421875 53.949219 40.199219 54.171875 39.949219 54.171875 C 39.703125 54.171875 39.503906 53.949219 39.503906 53.699219 L 39.503906 50.09375 L 38.707031 50.394531 C 38.65625 50.417969 38.582031 50.417969 38.535156 50.417969 C 38.257812 50.417969 38.035156 50.195312 38.035156 49.921875 L 38.035156 48.425781 C 38.035156 48.230469 38.160156 48.03125 38.359375 47.957031 L 39.503906 47.558594 L 39.503906 43.578125 L 38.707031 43.851562 C 38.65625 43.875 38.582031 43.875 38.535156 43.875 C 38.257812 43.875 38.035156 43.652344 38.035156 43.378906 L 38.035156 41.886719 C 38.035156 41.6875 38.160156 41.511719 38.359375 41.4375 L 39.503906 41.015625 L 39.503906 37.085938 C 39.503906 36.835938 39.703125 36.613281 39.949219 36.613281 C 40.199219 36.613281 40.421875 36.835938 40.421875 37.085938 L 40.421875 40.691406 L 42.488281 39.921875 L 42.488281 35.992188 C 42.488281 35.742188 42.710938 35.519531 42.960938 35.519531 C 43.210938 35.519531 43.410156 35.742188 43.410156 35.992188 L 43.410156 39.597656 L 44.203125 39.300781 C 44.253906 39.273438 44.328125 39.273438 44.378906 39.273438 C 44.652344 39.273438 44.875 39.5 44.875 39.773438 L 44.875 41.265625 C 44.875 41.464844 44.75 41.664062 44.550781 41.738281 L 43.410156 42.136719 L 43.410156 46.113281 L 44.203125 45.839844 C 44.253906 45.816406 44.328125 45.816406 44.378906 45.816406 C 44.652344 45.816406 44.875 46.039062 44.875 46.3125 L 44.875 47.804688 C 44.875 48.003906 44.75 48.179688 44.550781 48.253906 L 43.410156 48.675781 Z M 40.421875 43.230469 L 40.421875 47.207031 L 42.488281 46.460938 L 42.488281 42.484375 Z M 40.421875 43.230469 "/>
<path style=" stroke:none;fill-rule:nonzero;fill:rgb(0%,0%,0%);fill-opacity:1;" d="M 23.390625 16.863281 C 23.390625 16.167969 23.960938 15.597656 24.65625 15.597656 C 25.355469 15.597656 25.925781 16.167969 25.925781 16.863281 C 25.925781 17.5625 25.355469 18.132812 24.65625 18.132812 C 23.960938 18.132812 23.390625 17.5625 23.390625 16.863281 Z M 23.390625 10.644531 C 23.390625 9.949219 23.960938 9.378906 24.65625 9.378906 C 25.355469 9.378906 25.925781 9.949219 25.925781 10.644531 C 25.925781 11.34375 25.355469 11.914062 24.65625 11.914062 C 23.960938 11.914062 23.390625 11.34375 23.390625 10.644531 Z M 15.304688 7.214844 C 19.585938 7.214844 22.59375 9.402344 22.59375 13.457031 C 22.59375 20 16.050781 23.753906 9.757812 26.414062 C 9.683594 26.488281 9.609375 26.515625 9.535156 26.515625 C 9.363281 26.515625 9.210938 26.367188 9.210938 26.191406 C 9.210938 26.117188 9.238281 26.042969 9.3125 25.96875 C 14.335938 23.03125 19.558594 19.375 19.558594 13.707031 C 19.558594 10.722656 17.992188 7.859375 15.304688 7.859375 C 13.464844 7.859375 12.097656 9.203125 11.476562 10.996094 C 11.75 10.871094 12.023438 10.796875 12.320312 10.796875 C 13.6875 10.796875 14.808594 11.914062 14.808594 13.28125 C 14.808594 14.726562 13.714844 15.917969 12.320312 15.917969 C 10.828125 15.917969 9.535156 14.75 9.535156 13.28125 C 9.535156 9.976562 12.074219 7.214844 15.304688 7.214844 Z M 15.304688 7.214844 "/>
<path style=" stroke:none;fill-rule:nonzero;fill:rgb(0%,0%,0%);fill-opacity:1;" d="M 59.089844 22.808594 C 60.457031 22.808594 61.777344 23.503906 61.777344 25.023438 C 61.777344 26.789062 60.410156 28.03125 59.238281 28.730469 C 58.371094 29.25 57.375 29.574219 56.355469 29.574219 C 54.988281 29.574219 53.667969 28.878906 53.667969 27.359375 C 53.667969 25.59375 55.035156 24.351562 56.207031 23.65625 C 57.074219 23.132812 58.070312 22.808594 59.089844 22.808594 Z M 59.089844 22.808594 "/>
<path style=" stroke:none;fill-rule:nonzero;fill:rgb(0%,0%,0%);fill-opacity:1;" d="M 59.089844 29.027344 C 60.457031 29.027344 61.777344 29.722656 61.777344 31.242188 C 61.777344 33.007812 60.410156 34.25 59.238281 34.945312 C 58.371094 35.46875 57.375 35.792969 56.355469 35.792969 C 54.988281 35.792969 53.667969 35.097656 53.667969 33.578125 C 53.667969 31.8125 55.035156 30.570312 56.207031 29.871094 C 57.074219 29.351562 58.070312 29.027344 59.089844 29.027344 Z M 59.089844 29.027344 "/>
<path style=" stroke:none;fill-rule:nonzero;fill:rgb(0%,0%,0%);fill-opacity:1;" d="M 59.089844 35.246094 C 60.457031 35.246094 61.777344 35.941406 61.777344 37.457031 C 61.777344 39.226562 60.410156 40.46875 59.238281 41.164062 C 58.371094 41.6875 57.375 42.011719 56.355469 42.011719 C 54.988281 42.011719 53.667969 41.3125 53.667969 39.796875 C 53.667969 38.03125 55.035156 36.789062 56.207031 36.089844 C 57.074219 35.570312 58.070312 35.246094 59.089844 35.246094 Z M 59.089844 35.246094 "/>
<path style=" stroke:none;fill-rule:nonzero;fill:rgb(0%,0%,0%);fill-opacity:1;" d="M 59.089844 41.464844 C 60.457031 41.464844 61.777344 42.160156 61.777344 43.675781 C 61.777344 45.441406 60.410156 46.6875 59.238281 47.382812 C 58.371094 47.90625 57.375 48.230469 56.355469 48.230469 C 54.988281 48.230469 53.667969 47.53125 53.667969 46.015625 C 53.667969 44.25 55.035156 43.003906 56.207031 42.308594 C 57.074219 41.785156 58.070312 41.464844 59.089844 41.464844 Z M 59.089844 41.464844 "/>
</g>
</svg>
