<?xml version="1.0" encoding="UTF-8"?>
<svg xmlns="http://www.w3.org/2000/svg" xmlns:xlink="http://www.w3.org/1999/xlink" width="68.472344pt" height="53.463766pt" viewBox="0 0 68.472344 53.463766" version="1.1">
<g id="surface1">
<path style="fill:none;stroke-width:0.1;stroke-linecap:round;stroke-linejoin:round;stroke:rgb(0%,0%,0%);stroke-opacity:1;stroke-miterlimit:4;" d="M 0.049863 0.0000610068 L 8.752337 0.0000610068 " transform="matrix(6.218149,0,0,6.218149,4.561038,32.409777)"/>
<path style="fill:none;stroke-width:0.1;stroke-linecap:round;stroke-linejoin:round;stroke:rgb(0%,0%,0%);stroke-opacity:1;stroke-miterlimit:4;" d="M 0.049863 -0.0000356418 L 8.752337 -0.0000356418 " transform="matrix(6.218149,0,0,6.218149,4.561038,26.191628)"/>
<path style="fill:none;stroke-width:0.1;stroke-linecap:round;stroke-linejoin:round;stroke:rgb(0%,0%,0%);stroke-opacity:1;stroke-miterlimit:4;" d="M 0.049863 -0.00013229 L 8.752337 -0.00013229 " transform="matrix(6.218149,0,0,6.218149,4.561038,19.973479)"/>
<path style="fill:none;stroke-width:0.1;stroke-linecap:round;stroke-linejoin:round;stroke:rgb(0%,0%,0%);stroke-opacity:1;stroke-miterlimit:4;" d="M 0.049863 -0.000228939 L 8.752337 -0.000228939 " transform="matrix(6.218149,0,0,6.218149,4.561038,13.75533)"/>
<path style="fill:none;stroke-width:0.1;stroke-linecap:round;stroke-linejoin:round;stroke:rgb(0%,0%,0%);stroke-opacity:1;stroke-miterlimit:4;" d="M 0.049863 0.000302495 L 8.752337 0.000302495 " transform="matrix(6.218149,0,0,6.218149,4.561038,7.537182)"/>
<path style=" stroke:none;fill-rule:nonzero;fill:rgb(0%,0%,0%);fill-opacity:1;" d="M 39.21875 38.007812 L 50.140625 38.007812 C 50.484375 38.007812 50.761719 38.285156 50.761719 38.628906 C 50.761719 38.972656 50.484375 39.25 50.140625 39.25 L 39.21875 39.25 C 38.878906 39.25 38.597656 38.972656 38.597656 38.628906 C 38.597656 38.285156 38.878906 38.007812 39.21875 38.007812 Z M 39.21875 38.007812 "/>
<path style=" stroke:none;fill-rule:nonzero;fill:rgb(0%,0%,0%);fill-opacity:1;" d="M 36.984375 43.277344 C 36.984375 43.527344 36.785156 43.75 36.535156 43.75 C 36.285156 43.75 36.0625 43.527344 36.0625 43.277344 L 36.0625 39.671875 L 33.996094 40.445312 L 33.996094 44.375 C 33.996094 44.621094 33.773438 44.847656 33.523438 44.847656 C 33.277344 44.847656 33.078125 44.621094 33.078125 44.375 L 33.078125 40.765625 L 32.28125 41.066406 C 32.230469 41.089844 32.15625 41.089844 32.109375 41.089844 C 31.832031 41.089844 31.609375 40.867188 31.609375 40.59375 L 31.609375 39.101562 C 31.609375 38.902344 31.734375 38.703125 31.933594 38.628906 L 33.078125 38.230469 L 33.078125 34.25 L 32.28125 34.523438 C 32.230469 34.546875 32.15625 34.546875 32.109375 34.546875 C 31.832031 34.546875 31.609375 34.324219 31.609375 34.050781 L 31.609375 32.558594 C 31.609375 32.359375 31.734375 32.1875 31.933594 32.109375 L 33.078125 31.6875 L 33.078125 27.757812 C 33.078125 27.511719 33.277344 27.285156 33.523438 27.285156 C 33.773438 27.285156 33.996094 27.511719 33.996094 27.757812 L 33.996094 31.363281 L 36.0625 30.59375 L 36.0625 26.664062 C 36.0625 26.414062 36.285156 26.191406 36.535156 26.191406 C 36.785156 26.191406 36.984375 26.414062 36.984375 26.664062 L 36.984375 30.269531 L 37.777344 29.972656 C 37.828125 29.949219 37.902344 29.949219 37.953125 29.949219 C 38.226562 29.949219 38.449219 30.171875 38.449219 30.445312 L 38.449219 31.9375 C 38.449219 32.136719 38.324219 32.335938 38.125 32.410156 L 36.984375 32.808594 L 36.984375 36.789062 L 37.777344 36.515625 C 37.828125 36.488281 37.902344 36.488281 37.953125 36.488281 C 38.226562 36.488281 38.449219 36.710938 38.449219 36.988281 L 38.449219 38.480469 C 38.449219 38.675781 38.324219 38.851562 38.125 38.925781 L 36.984375 39.347656 Z M 33.996094 33.902344 L 33.996094 37.882812 L 36.0625 37.136719 L 36.0625 33.15625 Z M 33.996094 33.902344 "/>
<path style=" stroke:none;fill-rule:nonzero;fill:rgb(0%,0%,0%);fill-opacity:1;" d="M 48.175781 4.429688 L 48.488281 4.429688 C 48.625 4.429688 48.734375 4.539062 48.734375 4.675781 L 48.734375 40.332031 C 48.734375 40.46875 48.625 40.578125 48.488281 40.578125 L 48.175781 40.578125 C 48.039062 40.578125 47.925781 40.46875 47.925781 40.332031 L 47.925781 4.675781 C 47.925781 4.539062 48.039062 4.429688 48.175781 4.429688 Z M 48.175781 4.429688 "/>
<path style=" stroke:none;fill-rule:nonzero;fill:rgb(0%,0%,0%);fill-opacity:1;" d="M 23.390625 16.863281 C 23.390625 16.167969 23.960938 15.597656 24.65625 15.597656 C 25.355469 15.597656 25.925781 16.167969 25.925781 16.863281 C 25.925781 17.5625 25.355469 18.132812 24.65625 18.132812 C 23.960938 18.132812 23.390625 17.5625 23.390625 16.863281 Z M 23.390625 10.644531 C 23.390625 9.949219 23.960938 9.378906 24.65625 9.378906 C 25.355469 9.378906 25.925781 9.949219 25.925781 10.644531 C 25.925781 11.34375 25.355469 11.914062 24.65625 11.914062 C 23.960938 11.914062 23.390625 11.34375 23.390625 10.644531 Z M 15.304688 7.214844 C 19.585938 7.214844 22.59375 9.402344 22.59375 13.457031 C 22.59375 20 16.050781 23.753906 9.757812 26.414062 C 9.683594 26.488281 9.609375 26.515625 9.535156 26.515625 C 9.363281 26.515625 9.210938 26.367188 9.210938 26.191406 C 9.210938 26.117188 9.238281 26.042969 9.3125 25.96875 C 14.335938 23.03125 19.558594 19.375 19.558594 13.707031 C 19.558594 10.722656 17.992188 7.859375 15.304688 7.859375 C 13.464844 7.859375 12.097656 9.203125 11.476562 10.996094 C 11.75 10.871094 12.023438 10.796875 12.320312 10.796875 C 13.6875 10.796875 14.808594 11.914062 14.808594 13.28125 C 14.808594 14.726562 13.714844 15.917969 12.320312 15.917969 C 10.828125 15.917969 9.535156 14.75 9.535156 13.28125 C 9.535156 9.976562 12.074219 7.214844 15.304688 7.214844 Z M 15.304688 7.214844 "/>
<path style=" stroke:none;fill-rule:nonzero;fill:rgb(0%,0%,0%);fill-opacity:1;" d="M 53.753906 22.808594 C 55.121094 22.808594 56.441406 23.503906 56.441406 25.023438 C 56.441406 26.789062 55.074219 28.03125 53.902344 28.730469 C 53.03125 29.25 52.039062 29.574219 51.019531 29.574219 C 49.648438 29.574219 48.332031 28.878906 48.332031 27.359375 C 48.332031 25.59375 49.699219 24.351562 50.867188 23.65625 C 51.738281 23.132812 52.734375 22.808594 53.753906 22.808594 Z M 53.753906 22.808594 "/>
<path style=" stroke:none;fill-rule:nonzero;fill:rgb(0%,0%,0%);fill-opacity:1;" d="M 46.046875 25.917969 C 47.417969 25.917969 48.734375 26.613281 48.734375 28.132812 C 48.734375 29.898438 47.367188 31.140625 46.199219 31.835938 C 45.328125 32.359375 44.332031 32.683594 43.3125 32.683594 C 41.945312 32.683594 40.625 31.988281 40.625 30.46875 C 40.625 28.703125 41.996094 27.460938 43.164062 26.765625 C 44.035156 26.242188 45.027344 25.917969 46.046875 25.917969 Z M 46.046875 25.917969 "/>
<path style=" stroke:none;fill-rule:nonzero;fill:rgb(0%,0%,0%);fill-opacity:1;" d="M 46.046875 32.136719 C 47.417969 32.136719 48.734375 32.832031 48.734375 34.351562 C 48.734375 36.117188 47.367188 37.359375 46.199219 38.054688 C 45.328125 38.578125 44.332031 38.902344 43.3125 38.902344 C 41.945312 38.902344 40.625 38.207031 40.625 36.6875 C 40.625 34.921875 41.996094 33.679688 43.164062 32.980469 C 44.035156 32.460938 45.027344 32.136719 46.046875 32.136719 Z M 46.046875 32.136719 "/>
<path style=" stroke:none;fill-rule:nonzero;fill:rgb(0%,0%,0%);fill-opacity:1;" d="M 46.046875 38.355469 C 47.417969 38.355469 48.734375 39.050781 48.734375 40.566406 C 48.734375 42.332031 47.367188 43.578125 46.199219 44.273438 C 45.328125 44.796875 44.332031 45.121094 43.3125 45.121094 C 41.945312 45.121094 40.625 44.421875 40.625 42.90625 C 40.625 41.140625 41.996094 39.894531 43.164062 39.199219 C 44.035156 38.675781 45.027344 38.355469 46.046875 38.355469 Z M 46.046875 38.355469 "/>
</g>
</svg>
