<?xml version="1.0" encoding="UTF-8"?>
<svg xmlns="http://www.w3.org/2000/svg" xmlns:xlink="http://www.w3.org/1999/xlink" width="73.767826pt" height="56.784653pt" viewBox="0 0 73.767826 56.784653" version="1.1">
<g id="surface1">
<path style="fill:none;stroke-width:0.1;stroke-linecap:round;stroke-linejoin:round;stroke:rgb(0%,0%,0%);stroke-opacity:1;stroke-miterlimit:4;" d="M 0.049863 0.000136391 L 9.549525 0.000136391 " transform="matrix(6.218149,0,0,6.218149,4.561038,35.667121)"/>
<path style="fill:none;stroke-width:0.1;stroke-linecap:round;stroke-linejoin:round;stroke:rgb(0%,0%,0%);stroke-opacity:1;stroke-miterlimit:4;" d="M 0.049863 0.0000397429 L 9.549525 0.0000397429 " transform="matrix(6.218149,0,0,6.218149,4.561038,29.448972)"/>
<path style="fill:none;stroke-width:0.1;stroke-linecap:round;stroke-linejoin:round;stroke:rgb(0%,0%,0%);stroke-opacity:1;stroke-miterlimit:4;" d="M 0.049863 -0.0000569057 L 9.549525 -0.0000569057 " transform="matrix(6.218149,0,0,6.218149,4.561038,23.230823)"/>
<path style="fill:none;stroke-width:0.1;stroke-linecap:round;stroke-linejoin:round;stroke:rgb(0%,0%,0%);stroke-opacity:1;stroke-miterlimit:4;" d="M 0.049863 -0.000153554 L 9.549525 -0.000153554 " transform="matrix(6.218149,0,0,6.218149,4.561038,17.012674)"/>
<path style="fill:none;stroke-width:0.1;stroke-linecap:round;stroke-linejoin:round;stroke:rgb(0%,0%,0%);stroke-opacity:1;stroke-miterlimit:4;" d="M 0.049863 -0.000250203 L 9.549525 -0.000250203 " transform="matrix(6.218149,0,0,6.218149,4.561038,10.794525)"/>
<path style=" stroke:none;fill-rule:nonzero;fill:rgb(0%,0%,0%);fill-opacity:1;" d="M 44.179688 41.261719 L 55.101562 41.261719 C 55.441406 41.261719 55.722656 41.542969 55.722656 41.886719 C 55.722656 42.230469 55.441406 42.507812 55.101562 42.507812 L 44.179688 42.507812 C 43.835938 42.507812 43.558594 42.230469 43.558594 41.886719 C 43.558594 41.542969 43.835938 41.261719 44.179688 41.261719 Z M 44.179688 41.261719 "/>
<path style=" stroke:none;fill-rule:nonzero;fill:rgb(0%,0%,0%);fill-opacity:1;" d="M 41.941406 34.101562 C 41.941406 34.347656 41.742188 34.574219 41.492188 34.574219 C 41.246094 34.574219 41.019531 34.347656 41.019531 34.101562 L 41.019531 30.492188 L 38.957031 31.265625 L 38.957031 35.195312 C 38.957031 35.441406 38.730469 35.667969 38.484375 35.667969 C 38.234375 35.667969 38.035156 35.441406 38.035156 35.195312 L 38.035156 31.589844 L 37.238281 31.886719 C 37.191406 31.910156 37.117188 31.910156 37.066406 31.910156 C 36.792969 31.910156 36.566406 31.6875 36.566406 31.414062 L 36.566406 29.921875 C 36.566406 29.722656 36.691406 29.523438 36.890625 29.449219 L 38.035156 29.050781 L 38.035156 25.070312 L 37.238281 25.34375 C 37.191406 25.371094 37.117188 25.371094 37.066406 25.371094 C 36.792969 25.371094 36.566406 25.144531 36.566406 24.871094 L 36.566406 23.378906 C 36.566406 23.179688 36.691406 23.007812 36.890625 22.933594 L 38.035156 22.507812 L 38.035156 18.578125 C 38.035156 18.332031 38.234375 18.105469 38.484375 18.105469 C 38.730469 18.105469 38.957031 18.332031 38.957031 18.578125 L 38.957031 22.1875 L 41.019531 21.414062 L 41.019531 17.484375 C 41.019531 17.238281 41.246094 17.011719 41.492188 17.011719 C 41.742188 17.011719 41.941406 17.238281 41.941406 17.484375 L 41.941406 21.089844 L 42.738281 20.792969 C 42.785156 20.769531 42.859375 20.769531 42.910156 20.769531 C 43.183594 20.769531 43.410156 20.992188 43.410156 21.265625 L 43.410156 22.757812 C 43.410156 22.957031 43.285156 23.15625 43.085938 23.230469 L 41.941406 23.628906 L 41.941406 27.609375 L 42.738281 27.335938 C 42.785156 27.308594 42.859375 27.308594 42.910156 27.308594 C 43.183594 27.308594 43.410156 27.535156 43.410156 27.808594 L 43.410156 29.300781 C 43.410156 29.5 43.285156 29.671875 43.085938 29.746094 L 41.941406 30.171875 Z M 38.957031 24.722656 L 38.957031 28.703125 L 41.019531 27.957031 L 41.019531 23.976562 Z M 38.957031 24.722656 "/>
<path style=" stroke:none;fill-rule:nonzero;fill:rgb(0%,0%,0%);fill-opacity:1;" d="M 35.324219 46.535156 C 35.324219 46.785156 35.125 47.007812 34.878906 47.007812 C 34.628906 47.007812 34.40625 46.785156 34.40625 46.535156 L 34.40625 42.929688 L 32.339844 43.699219 L 32.339844 47.628906 C 32.339844 47.878906 32.117188 48.101562 31.867188 48.101562 C 31.617188 48.101562 31.417969 47.878906 31.417969 47.628906 L 31.417969 44.023438 L 30.625 44.324219 C 30.574219 44.347656 30.5 44.347656 30.449219 44.347656 C 30.175781 44.347656 29.953125 44.125 29.953125 43.851562 L 29.953125 42.359375 C 29.953125 42.160156 30.078125 41.960938 30.277344 41.886719 L 31.417969 41.488281 L 31.417969 37.507812 L 30.625 37.78125 C 30.574219 37.804688 30.5 37.804688 30.449219 37.804688 C 30.175781 37.804688 29.953125 37.582031 29.953125 37.308594 L 29.953125 35.816406 C 29.953125 35.617188 30.078125 35.441406 30.277344 35.367188 L 31.417969 34.945312 L 31.417969 31.015625 C 31.417969 30.765625 31.617188 30.542969 31.867188 30.542969 C 32.117188 30.542969 32.339844 30.765625 32.339844 31.015625 L 32.339844 34.621094 L 34.40625 33.851562 L 34.40625 29.921875 C 34.40625 29.671875 34.628906 29.449219 34.878906 29.449219 C 35.125 29.449219 35.324219 29.671875 35.324219 29.921875 L 35.324219 33.527344 L 36.121094 33.230469 C 36.171875 33.203125 36.246094 33.203125 36.292969 33.203125 C 36.566406 33.203125 36.792969 33.429688 36.792969 33.703125 L 36.792969 35.195312 C 36.792969 35.394531 36.667969 35.59375 36.46875 35.667969 L 35.324219 36.066406 L 35.324219 40.042969 L 36.121094 39.769531 C 36.171875 39.746094 36.246094 39.746094 36.292969 39.746094 C 36.566406 39.746094 36.792969 39.96875 36.792969 40.242188 L 36.792969 41.734375 C 36.792969 41.933594 36.667969 42.109375 36.46875 42.183594 L 35.324219 42.605469 Z M 32.339844 37.160156 L 32.339844 41.140625 L 34.40625 40.394531 L 34.40625 36.414062 Z M 32.339844 37.160156 "/>
<path style=" stroke:none;fill-rule:nonzero;fill:rgb(0%,0%,0%);fill-opacity:1;" d="M 53.132812 4.578125 L 53.445312 4.578125 C 53.582031 4.578125 53.695312 4.6875 53.695312 4.824219 L 53.695312 43.589844 C 53.695312 43.726562 53.582031 43.835938 53.445312 43.835938 L 53.132812 43.835938 C 52.996094 43.835938 52.886719 43.726562 52.886719 43.589844 L 52.886719 4.824219 C 52.886719 4.6875 52.996094 4.578125 53.132812 4.578125 Z M 53.132812 4.578125 "/>
<path style=" stroke:none;fill-rule:nonzero;fill:rgb(0%,0%,0%);fill-opacity:1;" d="M 23.390625 20.121094 C 23.390625 19.425781 23.960938 18.851562 24.65625 18.851562 C 25.355469 18.851562 25.925781 19.425781 25.925781 20.121094 C 25.925781 20.816406 25.355469 21.390625 24.65625 21.390625 C 23.960938 21.390625 23.390625 20.816406 23.390625 20.121094 Z M 23.390625 13.902344 C 23.390625 13.207031 23.960938 12.636719 24.65625 12.636719 C 25.355469 12.636719 25.925781 13.207031 25.925781 13.902344 C 25.925781 14.601562 25.355469 15.171875 24.65625 15.171875 C 23.960938 15.171875 23.390625 14.601562 23.390625 13.902344 Z M 15.304688 10.472656 C 19.585938 10.472656 22.59375 12.660156 22.59375 16.714844 C 22.59375 23.253906 16.050781 27.011719 9.757812 29.671875 C 9.683594 29.746094 9.609375 29.773438 9.535156 29.773438 C 9.363281 29.773438 9.210938 29.625 9.210938 29.449219 C 9.210938 29.375 9.238281 29.300781 9.3125 29.226562 C 14.335938 26.289062 19.558594 22.632812 19.558594 16.964844 C 19.558594 13.976562 17.992188 11.117188 15.304688 11.117188 C 13.464844 11.117188 12.097656 12.460938 11.476562 14.25 C 11.75 14.128906 12.023438 14.054688 12.320312 14.054688 C 13.6875 14.054688 14.808594 15.171875 14.808594 16.539062 C 14.808594 17.984375 13.714844 19.175781 12.320312 19.175781 C 10.828125 19.175781 9.535156 18.007812 9.535156 16.539062 C 9.535156 13.230469 12.074219 10.472656 15.304688 10.472656 Z M 15.304688 10.472656 "/>
<path style=" stroke:none;fill-rule:nonzero;fill:rgb(0%,0%,0%);fill-opacity:1;" d="M 51.007812 22.957031 C 52.375 22.957031 53.691406 23.652344 53.691406 25.171875 C 53.691406 26.9375 52.324219 28.179688 51.15625 28.875 C 50.285156 29.398438 49.289062 29.722656 48.269531 29.722656 C 46.902344 29.722656 45.585938 29.027344 45.585938 27.507812 C 45.585938 25.742188 46.953125 24.5 48.121094 23.804688 C 48.992188 23.28125 49.988281 22.957031 51.007812 22.957031 Z M 51.007812 22.957031 "/>
<path style=" stroke:none;fill-rule:nonzero;fill:rgb(0%,0%,0%);fill-opacity:1;" d="M 51.007812 29.175781 C 52.375 29.175781 53.691406 29.871094 53.691406 31.390625 C 53.691406 33.15625 52.324219 34.398438 51.15625 35.09375 C 50.285156 35.617188 49.289062 35.941406 48.269531 35.941406 C 46.902344 35.941406 45.585938 35.246094 45.585938 33.726562 C 45.585938 31.960938 46.953125 30.71875 48.121094 30.019531 C 48.992188 29.5 49.988281 29.175781 51.007812 29.175781 Z M 51.007812 29.175781 "/>
<path style=" stroke:none;fill-rule:nonzero;fill:rgb(0%,0%,0%);fill-opacity:1;" d="M 51.007812 35.394531 C 52.375 35.394531 53.691406 36.089844 53.691406 37.605469 C 53.691406 39.375 52.324219 40.617188 51.15625 41.3125 C 50.285156 41.835938 49.289062 42.160156 48.269531 42.160156 C 46.902344 42.160156 45.585938 41.460938 45.585938 39.945312 C 45.585938 38.179688 46.953125 36.9375 48.121094 36.238281 C 48.992188 35.71875 49.988281 35.394531 51.007812 35.394531 Z M 51.007812 35.394531 "/>
<path style=" stroke:none;fill-rule:nonzero;fill:rgb(0%,0%,0%);fill-opacity:1;" d="M 51.007812 41.613281 C 52.375 41.613281 53.691406 42.308594 53.691406 43.824219 C 53.691406 45.589844 52.324219 46.835938 51.15625 47.53125 C 50.285156 48.054688 49.289062 48.378906 48.269531 48.378906 C 46.902344 48.378906 45.585938 47.679688 45.585938 46.164062 C 45.585938 44.398438 46.953125 43.152344 48.121094 42.457031 C 48.992188 41.933594 49.988281 41.613281 51.007812 41.613281 Z M 51.007812 41.613281 "/>
</g>
</svg>
