<?xml version="1.0" encoding="UTF-8"?>
<svg xmlns="http://www.w3.org/2000/svg" xmlns:xlink="http://www.w3.org/1999/xlink" width="83.167931pt" height="59.355019pt" viewBox="0 0 83.167931 59.355019" version="1.1">
<g id="surface1">
<path style="fill:none;stroke-width:0.1;stroke-linecap:round;stroke-linejoin:round;stroke:rgb(0%,0%,0%);stroke-opacity:1;stroke-miterlimit:4;" d="M 0.049863 -0.000287501 L 10.964863 -0.000287501 " transform="matrix(6.218149,0,0,6.218149,4.561038,40.517413)"/>
<path style="fill:none;stroke-width:0.1;stroke-linecap:round;stroke-linejoin:round;stroke:rgb(0%,0%,0%);stroke-opacity:1;stroke-miterlimit:4;" d="M 0.049863 0.000244052 L 10.964863 0.000244052 " transform="matrix(6.218149,0,0,6.218149,4.561038,34.299264)"/>
<path style="fill:none;stroke-width:0.1;stroke-linecap:round;stroke-linejoin:round;stroke:rgb(0%,0%,0%);stroke-opacity:1;stroke-miterlimit:4;" d="M 0.049863 0.000147403 L 10.964863 0.000147403 " transform="matrix(6.218149,0,0,6.218149,4.561038,28.081115)"/>
<path style="fill:none;stroke-width:0.1;stroke-linecap:round;stroke-linejoin:round;stroke:rgb(0%,0%,0%);stroke-opacity:1;stroke-miterlimit:4;" d="M 0.049863 0.0000507548 L 10.964863 0.0000507548 " transform="matrix(6.218149,0,0,6.218149,4.561038,21.862966)"/>
<path style="fill:none;stroke-width:0.1;stroke-linecap:round;stroke-linejoin:round;stroke:rgb(0%,0%,0%);stroke-opacity:1;stroke-miterlimit:4;" d="M 0.049863 -0.0000458938 L 10.964863 -0.0000458938 " transform="matrix(6.218149,0,0,6.218149,4.561038,15.644817)"/>
<path style=" stroke:none;fill-rule:nonzero;fill:rgb(0%,0%,0%);fill-opacity:1;" d="M 53.917969 46.113281 L 63.898438 46.113281 C 64.242188 46.113281 64.523438 46.390625 64.523438 46.734375 C 64.523438 47.078125 64.242188 47.355469 63.898438 47.355469 L 53.917969 47.355469 C 53.574219 47.355469 53.296875 47.078125 53.296875 46.734375 C 53.296875 46.390625 53.574219 46.113281 53.917969 46.113281 Z M 53.917969 46.113281 "/>
<path style=" stroke:none;fill-rule:nonzero;fill:rgb(0%,0%,0%);fill-opacity:1;" d="M 61.933594 7.355469 L 62.246094 7.355469 C 62.382812 7.355469 62.496094 7.464844 62.496094 7.601562 L 62.496094 45.328125 C 62.496094 45.46875 62.382812 45.578125 62.246094 45.578125 L 61.933594 45.578125 C 61.796875 45.578125 61.6875 45.46875 61.6875 45.328125 L 61.6875 7.601562 C 61.6875 7.464844 61.796875 7.355469 61.933594 7.355469 Z M 61.933594 7.355469 "/>
<path style=" stroke:none;fill-rule:nonzero;fill:rgb(0%,0%,0%);fill-opacity:1;" d="M 47.929688 27.0625 L 47.90625 28.703125 C 47.90625 28.800781 47.878906 28.878906 47.878906 28.976562 C 47.878906 29.523438 47.90625 30.070312 47.980469 30.617188 C 49.074219 29.699219 50.144531 28.578125 50.144531 27.160156 C 50.144531 26.339844 49.871094 25.496094 49.148438 25.496094 C 48.402344 25.496094 47.953125 26.242188 47.929688 27.0625 Z M 47.90625 16.714844 L 47.757812 25.296875 C 48.351562 24.773438 49.125 24.449219 49.921875 24.449219 C 51.238281 24.449219 52.207031 25.617188 52.207031 26.960938 C 52.207031 28.953125 50.070312 29.898438 48.550781 31.191406 C 48.179688 31.511719 47.980469 32.136719 47.457031 32.136719 C 47.132812 32.136719 46.859375 31.863281 46.859375 31.511719 L 46.8125 28.878906 C 46.140625 29.722656 45.167969 30.417969 44.375 31.191406 C 44.050781 31.511719 43.902344 32.136719 43.402344 32.136719 C 43.078125 32.136719 42.832031 31.835938 42.832031 31.488281 L 42.53125 16.714844 C 42.730469 16.589844 42.980469 16.515625 43.203125 16.515625 C 43.429688 16.515625 43.675781 16.589844 43.875 16.714844 L 43.703125 25.296875 C 44.125 24.773438 44.769531 24.449219 45.441406 24.449219 C 45.941406 24.449219 46.386719 24.648438 46.734375 24.972656 L 46.5625 16.714844 C 46.761719 16.589844 47.011719 16.515625 47.234375 16.515625 C 47.457031 16.515625 47.707031 16.589844 47.90625 16.714844 Z M 43.628906 28.726562 L 43.628906 28.976562 C 43.628906 29.546875 43.652344 30.097656 43.726562 30.667969 C 44.695312 29.722656 45.492188 28.527344 45.492188 27.160156 C 45.492188 26.363281 45.34375 25.496094 44.671875 25.496094 C 44 25.496094 43.703125 26.265625 43.675781 27.035156 Z M 43.628906 28.726562 "/>
<path style=" stroke:none;fill-rule:nonzero;fill:rgb(0%,0%,0%);fill-opacity:1;" d="M 37.226562 33.28125 L 37.199219 34.921875 L 37.199219 35.195312 C 37.199219 35.742188 37.226562 36.289062 37.300781 36.835938 C 38.417969 35.890625 39.613281 34.847656 39.613281 33.378906 C 39.613281 32.558594 39.265625 31.710938 38.542969 31.710938 C 37.773438 31.710938 37.25 32.457031 37.226562 33.28125 Z M 36.179688 37.730469 L 35.882812 22.933594 C 36.082031 22.808594 36.328125 22.734375 36.554688 22.734375 C 36.777344 22.734375 37.027344 22.808594 37.226562 22.933594 L 37.050781 31.511719 C 37.671875 30.992188 38.492188 30.667969 39.3125 30.667969 C 40.609375 30.667969 41.527344 31.863281 41.527344 33.203125 C 41.527344 35.195312 39.390625 36.113281 37.871094 37.410156 C 37.5 37.730469 37.273438 38.351562 36.753906 38.351562 C 36.429688 38.351562 36.179688 38.078125 36.179688 37.730469 Z M 36.179688 37.730469 "/>
<path style=" stroke:none;fill-rule:nonzero;fill:rgb(0%,0%,0%);fill-opacity:1;" d="M 30.632812 39.496094 L 30.609375 41.140625 L 30.609375 41.414062 C 30.609375 41.960938 30.632812 42.507812 30.707031 43.054688 C 31.828125 42.109375 33.023438 41.066406 33.023438 39.597656 C 33.023438 38.777344 32.671875 37.929688 31.953125 37.929688 C 31.179688 37.929688 30.660156 38.675781 30.632812 39.496094 Z M 29.589844 43.949219 L 29.289062 29.152344 C 29.488281 29.027344 29.738281 28.953125 29.960938 28.953125 C 30.1875 28.953125 30.433594 29.027344 30.632812 29.152344 L 30.460938 37.730469 C 31.082031 37.210938 31.902344 36.886719 32.722656 36.886719 C 34.015625 36.886719 34.9375 38.078125 34.9375 39.421875 C 34.9375 41.414062 32.796875 42.332031 31.28125 43.625 C 30.90625 43.949219 30.683594 44.570312 30.160156 44.570312 C 29.835938 44.570312 29.589844 44.296875 29.589844 43.949219 Z M 29.589844 43.949219 "/>
<path style=" stroke:none;fill-rule:nonzero;fill:rgb(0%,0%,0%);fill-opacity:1;" d="M 47.90625 45.714844 L 47.878906 47.355469 L 47.878906 47.632812 C 47.878906 48.179688 47.90625 48.726562 47.980469 49.273438 C 49.097656 48.328125 50.292969 47.28125 50.292969 45.816406 C 50.292969 44.996094 49.945312 44.148438 49.222656 44.148438 C 48.453125 44.148438 47.929688 44.894531 47.90625 45.714844 Z M 46.859375 50.167969 L 46.5625 35.367188 C 46.761719 35.246094 47.011719 35.167969 47.234375 35.167969 C 47.457031 35.167969 47.707031 35.246094 47.90625 35.367188 L 47.730469 43.949219 C 48.351562 43.425781 49.171875 43.105469 49.996094 43.105469 C 51.289062 43.105469 52.207031 44.296875 52.207031 45.640625 C 52.207031 47.632812 50.070312 48.550781 48.550781 49.84375 C 48.179688 50.167969 47.953125 50.789062 47.433594 50.789062 C 47.109375 50.789062 46.859375 50.515625 46.859375 50.167969 Z M 46.859375 50.167969 "/>
<path style=" stroke:none;fill-rule:nonzero;fill:rgb(0%,0%,0%);fill-opacity:1;" d="M 16.152344 50.09375 L 16.003906 50.09375 C 13.316406 50.09375 11.152344 47.90625 11.152344 45.195312 C 11.152344 43.75 12.46875 42.632812 13.9375 42.632812 C 15.28125 42.632812 16.300781 43.800781 16.300781 45.195312 C 16.300781 46.488281 15.230469 47.554688 13.9375 47.554688 C 13.664062 47.554688 13.414062 47.507812 13.167969 47.40625 C 13.8125 48.378906 14.859375 49.023438 16.078125 49.023438 L 16.175781 49.023438 Z M 21 39.347656 C 22.691406 38.75 23.8125 36.984375 23.8125 35.269531 C 23.8125 33.03125 22.171875 30.816406 19.507812 30.542969 C 20.105469 33.429688 20.652344 36.289062 21 39.347656 Z M 11.375 33.601562 C 11.375 36.960938 14.585938 39.746094 17.941406 39.746094 C 18.640625 39.746094 19.308594 39.695312 19.980469 39.597656 C 19.632812 36.4375 19.0625 33.503906 18.414062 30.542969 C 16.449219 30.742188 15.332031 32.0625 15.332031 33.503906 C 15.332031 34.597656 15.953125 35.765625 17.34375 36.5625 C 17.46875 36.6875 17.519531 36.8125 17.519531 36.9375 C 17.519531 37.210938 17.269531 37.484375 16.972656 37.484375 C 16.898438 37.484375 16.824219 37.457031 16.75 37.433594 C 14.757812 36.363281 13.839844 34.574219 13.839844 32.832031 C 13.839844 30.644531 15.28125 28.503906 17.816406 27.933594 C 17.46875 26.488281 17.097656 25.023438 16.675781 23.578125 C 14.011719 26.589844 11.375 29.625 11.375 33.601562 Z M 17.867188 40.816406 C 13.191406 40.816406 9.585938 36.539062 9.585938 31.511719 C 9.585938 27.109375 12.84375 23.902344 15.753906 20.542969 C 15.28125 19.003906 14.832031 17.4375 14.632812 15.820312 C 14.484375 14.527344 14.460938 13.230469 14.460938 11.9375 C 14.460938 9.078125 15.828125 6.367188 18.167969 4.675781 C 18.316406 4.550781 18.515625 4.550781 18.664062 4.675781 C 20.429688 6.765625 21.972656 10.769531 21.972656 13.582031 C 21.972656 17.136719 19.832031 19.921875 17.496094 22.632812 C 18.015625 24.324219 18.464844 26.066406 18.886719 27.78125 C 18.988281 27.78125 19.113281 27.757812 19.210938 27.757812 C 23.066406 27.757812 25.578125 30.941406 25.578125 34.25 C 25.578125 36.140625 24.757812 38.078125 22.917969 39.472656 C 22.371094 39.894531 21.746094 40.167969 21.101562 40.367188 C 21.175781 41.238281 21.226562 42.109375 21.226562 42.980469 C 21.226562 43.453125 21.199219 43.949219 21.175781 44.421875 C 21 47.382812 18.988281 50.019531 16.152344 50.09375 L 16.175781 49.023438 C 18.488281 48.972656 19.980469 46.734375 20.132812 44.273438 C 20.15625 43.824219 20.179688 43.351562 20.179688 42.90625 C 20.179688 42.132812 20.15625 41.386719 20.082031 40.617188 C 19.359375 40.742188 18.640625 40.816406 17.867188 40.816406 Z M 20.179688 11.515625 C 20.179688 10.148438 20.082031 9.550781 19.683594 8.308594 C 17.222656 9.5 15.652344 12.011719 15.652344 14.75 C 15.652344 16.589844 16.101562 18.058594 16.550781 19.574219 C 18.539062 17.160156 20.179688 14.648438 20.179688 11.515625 Z M 20.179688 11.515625 "/>
<path style=" stroke:none;fill-rule:nonzero;fill:rgb(0%,0%,0%);fill-opacity:1;" d="M 59.808594 24.699219 C 61.175781 24.699219 62.492188 25.394531 62.492188 26.910156 C 62.492188 28.679688 61.125 29.921875 59.957031 30.617188 C 59.085938 31.140625 58.089844 31.464844 57.070312 31.464844 C 55.703125 31.464844 54.382812 30.765625 54.382812 29.25 C 54.382812 27.484375 55.753906 26.242188 56.921875 25.542969 C 57.792969 25.023438 58.785156 24.699219 59.808594 24.699219 Z M 59.808594 24.699219 "/>
<path style=" stroke:none;fill-rule:nonzero;fill:rgb(0%,0%,0%);fill-opacity:1;" d="M 59.808594 30.917969 C 61.175781 30.917969 62.492188 31.613281 62.492188 33.128906 C 62.492188 34.894531 61.125 36.140625 59.957031 36.835938 C 59.085938 37.359375 58.089844 37.683594 57.070312 37.683594 C 55.703125 37.683594 54.382812 36.984375 54.382812 35.46875 C 54.382812 33.703125 55.753906 32.457031 56.921875 31.761719 C 57.792969 31.238281 58.785156 30.917969 59.808594 30.917969 Z M 59.808594 30.917969 "/>
<path style=" stroke:none;fill-rule:nonzero;fill:rgb(0%,0%,0%);fill-opacity:1;" d="M 59.808594 37.132812 C 61.175781 37.132812 62.492188 37.832031 62.492188 39.347656 C 62.492188 41.113281 61.125 42.359375 59.957031 43.054688 C 59.085938 43.578125 58.089844 43.898438 57.070312 43.898438 C 55.703125 43.898438 54.382812 43.203125 54.382812 41.6875 C 54.382812 39.921875 55.753906 38.675781 56.921875 37.980469 C 57.792969 37.457031 58.785156 37.132812 59.808594 37.132812 Z M 59.808594 37.132812 "/>
<path style=" stroke:none;fill-rule:nonzero;fill:rgb(0%,0%,0%);fill-opacity:1;" d="M 59.808594 43.351562 C 61.175781 43.351562 62.492188 44.050781 62.492188 45.566406 C 62.492188 47.332031 61.125 48.574219 59.957031 49.273438 C 59.085938 49.792969 58.089844 50.117188 57.070312 50.117188 C 55.703125 50.117188 54.382812 49.421875 54.382812 47.90625 C 54.382812 46.136719 55.753906 44.894531 56.921875 44.199219 C 57.792969 43.675781 58.785156 43.351562 59.808594 43.351562 Z M 59.808594 43.351562 "/>
</g>
</svg>
