<?xml version="1.0" encoding="UTF-8"?>
<svg xmlns="http://www.w3.org/2000/svg" xmlns:xlink="http://www.w3.org/1999/xlink" width="81.536713pt" height="58.61114pt" viewBox="0 0 81.536713 58.61114" version="1.1">
<g id="surface1">
<path style="fill:none;stroke-width:0.1;stroke-linecap:round;stroke-linejoin:round;stroke:rgb(0%,0%,0%);stroke-opacity:1;stroke-miterlimit:4;" d="M 0.049863 -0.000287501 L 10.719236 -0.000287501 " transform="matrix(6.218149,0,0,6.218149,4.561038,40.517413)"/>
<path style="fill:none;stroke-width:0.1;stroke-linecap:round;stroke-linejoin:round;stroke:rgb(0%,0%,0%);stroke-opacity:1;stroke-miterlimit:4;" d="M 0.049863 0.000244052 L 10.719236 0.000244052 " transform="matrix(6.218149,0,0,6.218149,4.561038,34.299264)"/>
<path style="fill:none;stroke-width:0.1;stroke-linecap:round;stroke-linejoin:round;stroke:rgb(0%,0%,0%);stroke-opacity:1;stroke-miterlimit:4;" d="M 0.049863 0.000147403 L 10.719236 0.000147403 " transform="matrix(6.218149,0,0,6.218149,4.561038,28.081115)"/>
<path style="fill:none;stroke-width:0.1;stroke-linecap:round;stroke-linejoin:round;stroke:rgb(0%,0%,0%);stroke-opacity:1;stroke-miterlimit:4;" d="M 0.049863 0.0000507548 L 10.719236 0.0000507548 " transform="matrix(6.218149,0,0,6.218149,4.561038,21.862966)"/>
<path style="fill:none;stroke-width:0.1;stroke-linecap:round;stroke-linejoin:round;stroke:rgb(0%,0%,0%);stroke-opacity:1;stroke-miterlimit:4;" d="M 0.049863 -0.0000458938 L 10.719236 -0.0000458938 " transform="matrix(6.218149,0,0,6.218149,4.561038,15.644817)"/>
<path style=" stroke:none;fill-rule:nonzero;fill:rgb(0%,0%,0%);fill-opacity:1;" d="M 53.105469 16.800781 L 53.417969 16.800781 C 53.554688 16.800781 53.664062 16.914062 53.664062 17.050781 L 53.664062 48.558594 C 53.664062 48.695312 53.554688 48.808594 53.417969 48.808594 L 53.105469 48.808594 C 52.96875 48.808594 52.855469 48.695312 52.855469 48.558594 L 52.855469 17.050781 C 52.855469 16.914062 52.96875 16.800781 53.105469 16.800781 Z M 53.105469 16.800781 "/>
<path style=" stroke:none;fill-rule:nonzero;fill:rgb(0%,0%,0%);fill-opacity:1;" d="M 47.945312 15.644531 C 48.519531 16.21875 49.339844 16.339844 50.160156 16.339844 C 50.308594 16.339844 50.410156 16.441406 50.410156 16.589844 L 50.632812 18.753906 C 50.65625 18.902344 50.535156 19.027344 50.382812 19.003906 L 48.21875 18.777344 C 48.097656 18.753906 47.972656 18.65625 47.972656 18.53125 C 47.972656 17.710938 47.847656 16.886719 47.273438 16.316406 C 46.703125 16.886719 46.605469 17.710938 46.605469 18.53125 C 46.605469 18.65625 46.480469 18.753906 46.355469 18.777344 L 44.167969 19.003906 C 44.015625 19.027344 43.894531 18.902344 43.917969 18.753906 L 44.140625 16.589844 C 44.140625 16.441406 44.242188 16.339844 44.390625 16.339844 C 45.210938 16.339844 46.03125 16.21875 46.605469 15.644531 C 46.03125 15.074219 45.210938 14.949219 44.390625 14.949219 C 44.242188 14.949219 44.140625 14.847656 44.140625 14.699219 L 43.917969 12.535156 C 43.894531 12.386719 44.015625 12.261719 44.167969 12.285156 L 46.355469 12.511719 C 46.480469 12.535156 46.578125 12.636719 46.578125 12.757812 C 46.578125 13.582031 46.703125 14.402344 47.273438 14.972656 C 47.847656 14.402344 47.972656 13.582031 47.972656 12.757812 C 47.972656 12.636719 48.097656 12.535156 48.21875 12.511719 L 50.382812 12.285156 C 50.535156 12.261719 50.65625 12.386719 50.632812 12.535156 L 50.410156 14.699219 C 50.410156 14.847656 50.308594 14.949219 50.160156 14.949219 C 49.339844 14.949219 48.519531 15.074219 47.945312 15.644531 Z M 47.945312 15.644531 "/>
<path style=" stroke:none;fill-rule:nonzero;fill:rgb(0%,0%,0%);fill-opacity:1;" d="M 34.589844 29.625 C 34.589844 29.871094 34.390625 30.097656 34.140625 30.097656 C 33.890625 30.097656 33.667969 29.871094 33.667969 29.625 L 33.667969 26.015625 L 31.605469 26.789062 L 31.605469 30.71875 C 31.605469 30.964844 31.378906 31.191406 31.132812 31.191406 C 30.882812 31.191406 30.683594 30.964844 30.683594 30.71875 L 30.683594 27.109375 L 29.886719 27.410156 C 29.835938 27.433594 29.761719 27.433594 29.714844 27.433594 C 29.441406 27.433594 29.214844 27.210938 29.214844 26.9375 L 29.214844 25.445312 C 29.214844 25.246094 29.339844 25.046875 29.539062 24.972656 L 30.683594 24.574219 L 30.683594 20.59375 L 29.886719 20.867188 C 29.835938 20.894531 29.761719 20.894531 29.714844 20.894531 C 29.441406 20.894531 29.214844 20.667969 29.214844 20.394531 L 29.214844 18.902344 C 29.214844 18.703125 29.339844 18.53125 29.539062 18.457031 L 30.683594 18.03125 L 30.683594 14.101562 C 30.683594 13.855469 30.882812 13.628906 31.132812 13.628906 C 31.378906 13.628906 31.605469 13.855469 31.605469 14.101562 L 31.605469 17.710938 L 33.667969 16.9375 L 33.667969 13.007812 C 33.667969 12.757812 33.890625 12.535156 34.140625 12.535156 C 34.390625 12.535156 34.589844 12.757812 34.589844 13.007812 L 34.589844 16.613281 L 35.382812 16.316406 C 35.433594 16.292969 35.507812 16.292969 35.558594 16.292969 C 35.832031 16.292969 36.054688 16.515625 36.054688 16.789062 L 36.054688 18.28125 C 36.054688 18.480469 35.929688 18.679688 35.734375 18.753906 L 34.589844 19.152344 L 34.589844 23.132812 L 35.382812 22.859375 C 35.433594 22.832031 35.507812 22.832031 35.558594 22.832031 C 35.832031 22.832031 36.054688 23.058594 36.054688 23.332031 L 36.054688 24.824219 C 36.054688 25.023438 35.929688 25.195312 35.734375 25.269531 L 34.589844 25.691406 Z M 31.605469 20.246094 L 31.605469 24.226562 L 33.667969 23.480469 L 33.667969 19.5 Z M 31.605469 20.246094 "/>
<path style=" stroke:none;fill-rule:nonzero;fill:rgb(0%,0%,0%);fill-opacity:1;" d="M 42.671875 35.839844 C 42.671875 36.089844 42.472656 36.3125 42.222656 36.3125 C 41.976562 36.3125 41.75 36.089844 41.75 35.839844 L 41.75 32.234375 L 39.6875 33.007812 L 39.6875 36.9375 C 39.6875 37.183594 39.464844 37.410156 39.214844 37.410156 C 38.964844 37.410156 38.765625 37.183594 38.765625 36.9375 L 38.765625 33.328125 L 37.972656 33.628906 C 37.921875 33.652344 37.847656 33.652344 37.796875 33.652344 C 37.523438 33.652344 37.300781 33.429688 37.300781 33.15625 L 37.300781 31.664062 C 37.300781 31.464844 37.425781 31.265625 37.621094 31.191406 L 38.765625 30.792969 L 38.765625 26.8125 L 37.972656 27.085938 C 37.921875 27.109375 37.847656 27.109375 37.796875 27.109375 C 37.523438 27.109375 37.300781 26.886719 37.300781 26.613281 L 37.300781 25.121094 C 37.300781 24.921875 37.425781 24.75 37.621094 24.671875 L 38.765625 24.25 L 38.765625 20.320312 C 38.765625 20.070312 38.964844 19.847656 39.214844 19.847656 C 39.464844 19.847656 39.6875 20.070312 39.6875 20.320312 L 39.6875 23.925781 L 41.75 23.15625 L 41.75 19.226562 C 41.75 18.976562 41.976562 18.753906 42.222656 18.753906 C 42.472656 18.753906 42.671875 18.976562 42.671875 19.226562 L 42.671875 22.832031 L 43.46875 22.535156 C 43.519531 22.507812 43.59375 22.507812 43.640625 22.507812 C 43.914062 22.507812 44.140625 22.734375 44.140625 23.007812 L 44.140625 24.5 C 44.140625 24.699219 44.015625 24.898438 43.816406 24.972656 L 42.671875 25.371094 L 42.671875 29.351562 L 43.46875 29.074219 C 43.519531 29.050781 43.59375 29.050781 43.640625 29.050781 C 43.914062 29.050781 44.140625 29.273438 44.140625 29.546875 L 44.140625 31.039062 C 44.140625 31.238281 44.015625 31.414062 43.816406 31.488281 L 42.671875 31.910156 Z M 39.6875 26.464844 L 39.6875 30.445312 L 41.75 29.699219 L 41.75 25.71875 Z M 39.6875 26.464844 "/>
<path style=" stroke:none;fill-rule:nonzero;fill:rgb(0%,0%,0%);fill-opacity:1;" d="M 16.152344 50.09375 L 16.003906 50.09375 C 13.316406 50.09375 11.152344 47.90625 11.152344 45.195312 C 11.152344 43.75 12.46875 42.632812 13.9375 42.632812 C 15.28125 42.632812 16.300781 43.800781 16.300781 45.195312 C 16.300781 46.488281 15.230469 47.554688 13.9375 47.554688 C 13.664062 47.554688 13.414062 47.507812 13.167969 47.40625 C 13.8125 48.378906 14.859375 49.023438 16.078125 49.023438 L 16.175781 49.023438 Z M 21 39.347656 C 22.691406 38.75 23.8125 36.984375 23.8125 35.269531 C 23.8125 33.03125 22.171875 30.816406 19.507812 30.542969 C 20.105469 33.429688 20.652344 36.289062 21 39.347656 Z M 11.375 33.601562 C 11.375 36.960938 14.585938 39.746094 17.941406 39.746094 C 18.640625 39.746094 19.308594 39.695312 19.980469 39.597656 C 19.632812 36.4375 19.0625 33.503906 18.414062 30.542969 C 16.449219 30.742188 15.332031 32.0625 15.332031 33.503906 C 15.332031 34.597656 15.953125 35.765625 17.34375 36.5625 C 17.46875 36.6875 17.519531 36.8125 17.519531 36.9375 C 17.519531 37.210938 17.269531 37.484375 16.972656 37.484375 C 16.898438 37.484375 16.824219 37.457031 16.75 37.433594 C 14.757812 36.363281 13.839844 34.574219 13.839844 32.832031 C 13.839844 30.644531 15.28125 28.503906 17.816406 27.933594 C 17.46875 26.488281 17.097656 25.023438 16.675781 23.578125 C 14.011719 26.589844 11.375 29.625 11.375 33.601562 Z M 17.867188 40.816406 C 13.191406 40.816406 9.585938 36.539062 9.585938 31.511719 C 9.585938 27.109375 12.84375 23.902344 15.753906 20.542969 C 15.28125 19.003906 14.832031 17.4375 14.632812 15.820312 C 14.484375 14.527344 14.460938 13.230469 14.460938 11.9375 C 14.460938 9.078125 15.828125 6.367188 18.167969 4.675781 C 18.316406 4.550781 18.515625 4.550781 18.664062 4.675781 C 20.429688 6.765625 21.972656 10.769531 21.972656 13.582031 C 21.972656 17.136719 19.832031 19.921875 17.496094 22.632812 C 18.015625 24.324219 18.464844 26.066406 18.886719 27.78125 C 18.988281 27.78125 19.113281 27.757812 19.210938 27.757812 C 23.066406 27.757812 25.578125 30.941406 25.578125 34.25 C 25.578125 36.140625 24.757812 38.078125 22.917969 39.472656 C 22.371094 39.894531 21.746094 40.167969 21.101562 40.367188 C 21.175781 41.238281 21.226562 42.109375 21.226562 42.980469 C 21.226562 43.453125 21.199219 43.949219 21.175781 44.421875 C 21 47.382812 18.988281 50.019531 16.152344 50.09375 L 16.175781 49.023438 C 18.488281 48.972656 19.980469 46.734375 20.132812 44.273438 C 20.15625 43.824219 20.179688 43.351562 20.179688 42.90625 C 20.179688 42.132812 20.15625 41.386719 20.082031 40.617188 C 19.359375 40.742188 18.640625 40.816406 17.867188 40.816406 Z M 20.179688 11.515625 C 20.179688 10.148438 20.082031 9.550781 19.683594 8.308594 C 17.222656 9.5 15.652344 12.011719 15.652344 14.75 C 15.652344 16.589844 16.101562 18.058594 16.550781 19.574219 C 18.539062 17.160156 20.179688 14.648438 20.179688 11.515625 Z M 20.179688 11.515625 "/>
<path style=" stroke:none;fill-rule:nonzero;fill:rgb(0%,0%,0%);fill-opacity:1;" d="M 58.28125 12.261719 C 59.648438 12.261719 60.964844 12.957031 60.964844 14.476562 C 60.964844 16.242188 59.597656 17.484375 58.429688 18.183594 C 57.558594 18.703125 56.5625 19.027344 55.542969 19.027344 C 54.175781 19.027344 52.855469 18.332031 52.855469 16.8125 C 52.855469 15.046875 54.226562 13.804688 55.394531 13.109375 C 56.265625 12.585938 57.261719 12.261719 58.28125 12.261719 Z M 58.28125 12.261719 "/>
<path style=" stroke:none;fill-rule:nonzero;fill:rgb(0%,0%,0%);fill-opacity:1;" d="M 58.28125 18.480469 C 59.648438 18.480469 60.964844 19.175781 60.964844 20.695312 C 60.964844 22.460938 59.597656 23.703125 58.429688 24.398438 C 57.558594 24.921875 56.5625 25.246094 55.542969 25.246094 C 54.175781 25.246094 52.855469 24.550781 52.855469 23.03125 C 52.855469 21.265625 54.226562 20.023438 55.394531 19.324219 C 56.265625 18.804688 57.261719 18.480469 58.28125 18.480469 Z M 58.28125 18.480469 "/>
<path style=" stroke:none;fill-rule:nonzero;fill:rgb(0%,0%,0%);fill-opacity:1;" d="M 58.28125 24.699219 C 59.648438 24.699219 60.964844 25.394531 60.964844 26.910156 C 60.964844 28.679688 59.597656 29.921875 58.429688 30.617188 C 57.558594 31.140625 56.5625 31.464844 55.542969 31.464844 C 54.175781 31.464844 52.855469 30.765625 52.855469 29.25 C 52.855469 27.484375 54.226562 26.242188 55.394531 25.542969 C 56.265625 25.023438 57.261719 24.699219 58.28125 24.699219 Z M 58.28125 24.699219 "/>
</g>
</svg>
