<?xml version="1.0" encoding="UTF-8"?>
<svg xmlns="http://www.w3.org/2000/svg" xmlns:xlink="http://www.w3.org/1999/xlink" width="81.616415pt" height="61.958594pt" viewBox="0 0 81.616415 61.958594" version="1.1">
<g id="surface1">
<path style="fill:none;stroke-width:0.1;stroke-linecap:round;stroke-linejoin:round;stroke:rgb(0%,0%,0%);stroke-opacity:1;stroke-miterlimit:4;" d="M 0.049863 -0.000287501 L 10.731172 -0.000287501 " transform="matrix(6.218149,0,0,6.218149,4.561038,40.517413)"/>
<path style="fill:none;stroke-width:0.1;stroke-linecap:round;stroke-linejoin:round;stroke:rgb(0%,0%,0%);stroke-opacity:1;stroke-miterlimit:4;" d="M 0.049863 0.000244052 L 10.731172 0.000244052 " transform="matrix(6.218149,0,0,6.218149,4.561038,34.299264)"/>
<path style="fill:none;stroke-width:0.1;stroke-linecap:round;stroke-linejoin:round;stroke:rgb(0%,0%,0%);stroke-opacity:1;stroke-miterlimit:4;" d="M 0.049863 0.000147403 L 10.731172 0.000147403 " transform="matrix(6.218149,0,0,6.218149,4.561038,28.081115)"/>
<path style="fill:none;stroke-width:0.1;stroke-linecap:round;stroke-linejoin:round;stroke:rgb(0%,0%,0%);stroke-opacity:1;stroke-miterlimit:4;" d="M 0.049863 0.0000507548 L 10.731172 0.0000507548 " transform="matrix(6.218149,0,0,6.218149,4.561038,21.862966)"/>
<path style="fill:none;stroke-width:0.1;stroke-linecap:round;stroke-linejoin:round;stroke:rgb(0%,0%,0%);stroke-opacity:1;stroke-miterlimit:4;" d="M 0.049863 -0.0000458938 L 10.731172 -0.0000458938 " transform="matrix(6.218149,0,0,6.218149,4.561038,15.644817)"/>
<path style=" stroke:none;fill-rule:nonzero;fill:rgb(0%,0%,0%);fill-opacity:1;" d="M 51.527344 46.113281 L 62.449219 46.113281 C 62.792969 46.113281 63.070312 46.390625 63.070312 46.734375 C 63.070312 47.078125 62.792969 47.355469 62.449219 47.355469 L 51.527344 47.355469 C 51.183594 47.355469 50.90625 47.078125 50.90625 46.734375 C 50.90625 46.390625 51.183594 46.113281 51.527344 46.113281 Z M 51.527344 46.113281 "/>
<path style=" stroke:none;fill-rule:nonzero;fill:rgb(0%,0%,0%);fill-opacity:1;" d="M 60.480469 9.425781 L 60.792969 9.425781 C 60.929688 9.425781 61.042969 9.539062 61.042969 9.675781 L 61.042969 48.4375 C 61.042969 48.574219 60.929688 48.6875 60.792969 48.6875 L 60.480469 48.6875 C 60.34375 48.6875 60.234375 48.574219 60.234375 48.4375 L 60.234375 9.675781 C 60.234375 9.539062 60.34375 9.425781 60.480469 9.425781 Z M 60.480469 9.425781 "/>
<path style=" stroke:none;fill-rule:nonzero;fill:rgb(0%,0%,0%);fill-opacity:1;" d="M 49.289062 38.949219 C 49.289062 39.199219 49.089844 39.421875 48.839844 39.421875 C 48.589844 39.421875 48.367188 39.199219 48.367188 38.949219 L 48.367188 35.34375 L 46.304688 36.113281 L 46.304688 40.042969 C 46.304688 40.292969 46.078125 40.515625 45.832031 40.515625 C 45.582031 40.515625 45.382812 40.292969 45.382812 40.042969 L 45.382812 36.4375 L 44.585938 36.738281 C 44.539062 36.761719 44.464844 36.761719 44.414062 36.761719 C 44.140625 36.761719 43.914062 36.539062 43.914062 36.265625 L 43.914062 34.773438 C 43.914062 34.574219 44.039062 34.375 44.238281 34.300781 L 45.382812 33.902344 L 45.382812 29.921875 L 44.585938 30.195312 C 44.539062 30.21875 44.464844 30.21875 44.414062 30.21875 C 44.140625 30.21875 43.914062 29.996094 43.914062 29.722656 L 43.914062 28.230469 C 43.914062 28.03125 44.039062 27.855469 44.238281 27.78125 L 45.382812 27.359375 L 45.382812 23.429688 C 45.382812 23.179688 45.582031 22.957031 45.832031 22.957031 C 46.078125 22.957031 46.304688 23.179688 46.304688 23.429688 L 46.304688 27.035156 L 48.367188 26.265625 L 48.367188 22.335938 C 48.367188 22.085938 48.589844 21.863281 48.839844 21.863281 C 49.089844 21.863281 49.289062 22.085938 49.289062 22.335938 L 49.289062 25.941406 L 50.085938 25.644531 C 50.132812 25.617188 50.207031 25.617188 50.257812 25.617188 C 50.53125 25.617188 50.753906 25.84375 50.753906 26.117188 L 50.753906 27.609375 C 50.753906 27.808594 50.632812 28.007812 50.433594 28.082031 L 49.289062 28.480469 L 49.289062 32.457031 L 50.085938 32.183594 C 50.132812 32.160156 50.207031 32.160156 50.257812 32.160156 C 50.53125 32.160156 50.753906 32.382812 50.753906 32.65625 L 50.753906 34.148438 C 50.753906 34.347656 50.632812 34.523438 50.433594 34.597656 L 49.289062 35.019531 Z M 46.304688 29.574219 L 46.304688 33.554688 L 48.367188 32.808594 L 48.367188 28.828125 Z M 46.304688 29.574219 "/>
<path style=" stroke:none;fill-rule:nonzero;fill:rgb(0%,0%,0%);fill-opacity:1;" d="M 34.589844 45.167969 C 34.589844 45.417969 34.390625 45.640625 34.140625 45.640625 C 33.890625 45.640625 33.667969 45.417969 33.667969 45.167969 L 33.667969 41.5625 L 31.605469 42.332031 L 31.605469 46.261719 C 31.605469 46.511719 31.378906 46.734375 31.132812 46.734375 C 30.882812 46.734375 30.683594 46.511719 30.683594 46.261719 L 30.683594 42.65625 L 29.886719 42.953125 C 29.835938 42.980469 29.761719 42.980469 29.714844 42.980469 C 29.441406 42.980469 29.214844 42.757812 29.214844 42.480469 L 29.214844 40.988281 C 29.214844 40.789062 29.339844 40.59375 29.539062 40.515625 L 30.683594 40.121094 L 30.683594 36.140625 L 29.886719 36.414062 C 29.835938 36.4375 29.761719 36.4375 29.714844 36.4375 C 29.441406 36.4375 29.214844 36.214844 29.214844 35.941406 L 29.214844 34.449219 C 29.214844 34.25 29.339844 34.074219 29.539062 34 L 30.683594 33.578125 L 30.683594 29.648438 C 30.683594 29.398438 30.882812 29.175781 31.132812 29.175781 C 31.378906 29.175781 31.605469 29.398438 31.605469 29.648438 L 31.605469 33.253906 L 33.667969 32.484375 L 33.667969 28.554688 C 33.667969 28.304688 33.890625 28.082031 34.140625 28.082031 C 34.390625 28.082031 34.589844 28.304688 34.589844 28.554688 L 34.589844 32.160156 L 35.382812 31.863281 C 35.433594 31.835938 35.507812 31.835938 35.558594 31.835938 C 35.832031 31.835938 36.054688 32.0625 36.054688 32.335938 L 36.054688 33.828125 C 36.054688 34.027344 35.929688 34.226562 35.734375 34.300781 L 34.589844 34.695312 L 34.589844 38.675781 L 35.382812 38.402344 C 35.433594 38.378906 35.507812 38.378906 35.558594 38.378906 C 35.832031 38.378906 36.054688 38.601562 36.054688 38.875 L 36.054688 40.367188 C 36.054688 40.566406 35.929688 40.742188 35.734375 40.816406 L 34.589844 41.238281 Z M 31.605469 35.792969 L 31.605469 39.769531 L 33.667969 39.023438 L 33.667969 35.046875 Z M 31.605469 35.792969 "/>
<path style=" stroke:none;fill-rule:nonzero;fill:rgb(0%,0%,0%);fill-opacity:1;" d="M 42.671875 51.386719 C 42.671875 51.636719 42.472656 51.859375 42.222656 51.859375 C 41.976562 51.859375 41.75 51.636719 41.75 51.386719 L 41.75 47.78125 L 39.6875 48.550781 L 39.6875 52.480469 C 39.6875 52.730469 39.464844 52.953125 39.214844 52.953125 C 38.964844 52.953125 38.765625 52.730469 38.765625 52.480469 L 38.765625 48.875 L 37.972656 49.171875 C 37.921875 49.199219 37.847656 49.199219 37.796875 49.199219 C 37.523438 49.199219 37.300781 48.972656 37.300781 48.699219 L 37.300781 47.207031 C 37.300781 47.007812 37.425781 46.808594 37.621094 46.734375 L 38.765625 46.335938 L 38.765625 42.359375 L 37.972656 42.632812 C 37.921875 42.65625 37.847656 42.65625 37.796875 42.65625 C 37.523438 42.65625 37.300781 42.433594 37.300781 42.160156 L 37.300781 40.667969 C 37.300781 40.46875 37.425781 40.292969 37.621094 40.21875 L 38.765625 39.796875 L 38.765625 35.867188 C 38.765625 35.617188 38.964844 35.394531 39.214844 35.394531 C 39.464844 35.394531 39.6875 35.617188 39.6875 35.867188 L 39.6875 39.472656 L 41.75 38.703125 L 41.75 34.773438 C 41.75 34.523438 41.976562 34.300781 42.222656 34.300781 C 42.472656 34.300781 42.671875 34.523438 42.671875 34.773438 L 42.671875 38.378906 L 43.46875 38.078125 C 43.519531 38.054688 43.59375 38.054688 43.640625 38.054688 C 43.914062 38.054688 44.140625 38.277344 44.140625 38.550781 L 44.140625 40.042969 C 44.140625 40.242188 44.015625 40.441406 43.816406 40.515625 L 42.671875 40.914062 L 42.671875 44.894531 L 43.46875 44.621094 C 43.519531 44.597656 43.59375 44.597656 43.640625 44.597656 C 43.914062 44.597656 44.140625 44.820312 44.140625 45.09375 L 44.140625 46.585938 C 44.140625 46.785156 44.015625 46.960938 43.816406 47.035156 L 42.671875 47.457031 Z M 39.6875 42.011719 L 39.6875 45.988281 L 41.75 45.242188 L 41.75 41.261719 Z M 39.6875 42.011719 "/>
<path style=" stroke:none;fill-rule:nonzero;fill:rgb(0%,0%,0%);fill-opacity:1;" d="M 16.152344 50.09375 L 16.003906 50.09375 C 13.316406 50.09375 11.152344 47.90625 11.152344 45.195312 C 11.152344 43.75 12.46875 42.632812 13.9375 42.632812 C 15.28125 42.632812 16.300781 43.800781 16.300781 45.195312 C 16.300781 46.488281 15.230469 47.554688 13.9375 47.554688 C 13.664062 47.554688 13.414062 47.507812 13.167969 47.40625 C 13.8125 48.378906 14.859375 49.023438 16.078125 49.023438 L 16.175781 49.023438 Z M 21 39.347656 C 22.691406 38.75 23.8125 36.984375 23.8125 35.269531 C 23.8125 33.03125 22.171875 30.816406 19.507812 30.542969 C 20.105469 33.429688 20.652344 36.289062 21 39.347656 Z M 11.375 33.601562 C 11.375 36.960938 14.585938 39.746094 17.941406 39.746094 C 18.640625 39.746094 19.308594 39.695312 19.980469 39.597656 C 19.632812 36.4375 19.0625 33.503906 18.414062 30.542969 C 16.449219 30.742188 15.332031 32.0625 15.332031 33.503906 C 15.332031 34.597656 15.953125 35.765625 17.34375 36.5625 C 17.46875 36.6875 17.519531 36.8125 17.519531 36.9375 C 17.519531 37.210938 17.269531 37.484375 16.972656 37.484375 C 16.898438 37.484375 16.824219 37.457031 16.75 37.433594 C 14.757812 36.363281 13.839844 34.574219 13.839844 32.832031 C 13.839844 30.644531 15.28125 28.503906 17.816406 27.933594 C 17.46875 26.488281 17.097656 25.023438 16.675781 23.578125 C 14.011719 26.589844 11.375 29.625 11.375 33.601562 Z M 17.867188 40.816406 C 13.191406 40.816406 9.585938 36.539062 9.585938 31.511719 C 9.585938 27.109375 12.84375 23.902344 15.753906 20.542969 C 15.28125 19.003906 14.832031 17.4375 14.632812 15.820312 C 14.484375 14.527344 14.460938 13.230469 14.460938 11.9375 C 14.460938 9.078125 15.828125 6.367188 18.167969 4.675781 C 18.316406 4.550781 18.515625 4.550781 18.664062 4.675781 C 20.429688 6.765625 21.972656 10.769531 21.972656 13.582031 C 21.972656 17.136719 19.832031 19.921875 17.496094 22.632812 C 18.015625 24.324219 18.464844 26.066406 18.886719 27.78125 C 18.988281 27.78125 19.113281 27.757812 19.210938 27.757812 C 23.066406 27.757812 25.578125 30.941406 25.578125 34.25 C 25.578125 36.140625 24.757812 38.078125 22.917969 39.472656 C 22.371094 39.894531 21.746094 40.167969 21.101562 40.367188 C 21.175781 41.238281 21.226562 42.109375 21.226562 42.980469 C 21.226562 43.453125 21.199219 43.949219 21.175781 44.421875 C 21 47.382812 18.988281 50.019531 16.152344 50.09375 L 16.175781 49.023438 C 18.488281 48.972656 19.980469 46.734375 20.132812 44.273438 C 20.15625 43.824219 20.179688 43.351562 20.179688 42.90625 C 20.179688 42.132812 20.15625 41.386719 20.082031 40.617188 C 19.359375 40.742188 18.640625 40.816406 17.867188 40.816406 Z M 20.179688 11.515625 C 20.179688 10.148438 20.082031 9.550781 19.683594 8.308594 C 17.222656 9.5 15.652344 12.011719 15.652344 14.75 C 15.652344 16.589844 16.101562 18.058594 16.550781 19.574219 C 18.539062 17.160156 20.179688 14.648438 20.179688 11.515625 Z M 20.179688 11.515625 "/>
<path style=" stroke:none;fill-rule:nonzero;fill:rgb(0%,0%,0%);fill-opacity:1;" d="M 58.355469 27.808594 C 59.722656 27.808594 61.039062 28.503906 61.039062 30.019531 C 61.039062 31.789062 59.671875 33.03125 58.503906 33.726562 C 57.632812 34.25 56.636719 34.574219 55.617188 34.574219 C 54.25 34.574219 52.933594 33.875 52.933594 32.359375 C 52.933594 30.59375 54.300781 29.351562 55.46875 28.652344 C 56.339844 28.132812 57.335938 27.808594 58.355469 27.808594 Z M 58.355469 27.808594 "/>
<path style=" stroke:none;fill-rule:nonzero;fill:rgb(0%,0%,0%);fill-opacity:1;" d="M 58.355469 34.027344 C 59.722656 34.027344 61.039062 34.722656 61.039062 36.238281 C 61.039062 38.003906 59.671875 39.25 58.503906 39.945312 C 57.632812 40.46875 56.636719 40.789062 55.617188 40.789062 C 54.25 40.789062 52.933594 40.09375 52.933594 38.578125 C 52.933594 36.8125 54.300781 35.566406 55.46875 34.871094 C 56.339844 34.347656 57.335938 34.027344 58.355469 34.027344 Z M 58.355469 34.027344 "/>
<path style=" stroke:none;fill-rule:nonzero;fill:rgb(0%,0%,0%);fill-opacity:1;" d="M 58.355469 40.242188 C 59.722656 40.242188 61.039062 40.941406 61.039062 42.457031 C 61.039062 44.222656 59.671875 45.46875 58.503906 46.164062 C 57.632812 46.6875 56.636719 47.007812 55.617188 47.007812 C 54.25 47.007812 52.933594 46.3125 52.933594 44.796875 C 52.933594 43.03125 54.300781 41.785156 55.46875 41.089844 C 56.339844 40.566406 57.335938 40.242188 58.355469 40.242188 Z M 58.355469 40.242188 "/>
<path style=" stroke:none;fill-rule:nonzero;fill:rgb(0%,0%,0%);fill-opacity:1;" d="M 58.355469 46.460938 C 59.722656 46.460938 61.039062 47.160156 61.039062 48.675781 C 61.039062 50.441406 59.671875 51.683594 58.503906 52.382812 C 57.632812 52.902344 56.636719 53.226562 55.617188 53.226562 C 54.25 53.226562 52.933594 52.53125 52.933594 51.011719 C 52.933594 49.246094 54.300781 48.003906 55.46875 47.308594 C 56.339844 46.785156 57.335938 46.460938 58.355469 46.460938 Z M 58.355469 46.460938 "/>
</g>
</svg>
