<?xml version="1.0" encoding="UTF-8"?>
<svg xmlns="http://www.w3.org/2000/svg" xmlns:xlink="http://www.w3.org/1999/xlink" width="74.549567pt" height="80.296531pt" viewBox="0 0 74.549567 80.296531" version="1.1">
<g id="surface1">
<path style="fill:none;stroke-width:0.1;stroke-linecap:round;stroke-linejoin:round;stroke:rgb(0%,0%,0%);stroke-opacity:1;stroke-miterlimit:4;" d="M 0.049863 -0.0000630615 L 9.666998 -0.0000630615 " transform="matrix(6.218149,0,0,6.218149,4.561038,60.812892)"/>
<path style="fill:none;stroke-width:0.1;stroke-linecap:round;stroke-linejoin:round;stroke:rgb(0%,0%,0%);stroke-opacity:1;stroke-miterlimit:4;" d="M 0.049863 -0.00015971 L 9.666998 -0.00015971 " transform="matrix(6.218149,0,0,6.218149,4.561038,54.594743)"/>
<path style="fill:none;stroke-width:0.1;stroke-linecap:round;stroke-linejoin:round;stroke:rgb(0%,0%,0%);stroke-opacity:1;stroke-miterlimit:4;" d="M 0.049863 -0.000256359 L 9.666998 -0.000256359 " transform="matrix(6.218149,0,0,6.218149,4.561038,48.376594)"/>
<path style="fill:none;stroke-width:0.1;stroke-linecap:round;stroke-linejoin:round;stroke:rgb(0%,0%,0%);stroke-opacity:1;stroke-miterlimit:4;" d="M 0.049863 0.000275194 L 9.666998 0.000275194 " transform="matrix(6.218149,0,0,6.218149,4.561038,42.158445)"/>
<path style="fill:none;stroke-width:0.1;stroke-linecap:round;stroke-linejoin:round;stroke:rgb(0%,0%,0%);stroke-opacity:1;stroke-miterlimit:4;" d="M 0.049863 0.000178545 L 9.666998 0.000178545 " transform="matrix(6.218149,0,0,6.218149,4.561038,35.940296)"/>
<path style=" stroke:none;fill-rule:nonzero;fill:rgb(0%,0%,0%);fill-opacity:1;" d="M 44.910156 10.445312 L 55.832031 10.445312 C 56.175781 10.445312 56.453125 10.722656 56.453125 11.066406 C 56.453125 11.410156 56.175781 11.691406 55.832031 11.691406 L 44.910156 11.691406 C 44.566406 11.691406 44.289062 11.410156 44.289062 11.066406 C 44.289062 10.722656 44.566406 10.445312 44.910156 10.445312 Z M 44.910156 10.445312 "/>
<path style=" stroke:none;fill-rule:nonzero;fill:rgb(0%,0%,0%);fill-opacity:1;" d="M 44.910156 16.664062 L 55.832031 16.664062 C 56.175781 16.664062 56.453125 16.941406 56.453125 17.285156 C 56.453125 17.628906 56.175781 17.90625 55.832031 17.90625 L 44.910156 17.90625 C 44.566406 17.90625 44.289062 17.628906 44.289062 17.285156 C 44.289062 16.941406 44.566406 16.664062 44.910156 16.664062 Z M 44.910156 16.664062 "/>
<path style=" stroke:none;fill-rule:nonzero;fill:rgb(0%,0%,0%);fill-opacity:1;" d="M 44.910156 22.882812 L 55.832031 22.882812 C 56.175781 22.882812 56.453125 23.160156 56.453125 23.503906 C 56.453125 23.847656 56.175781 24.125 55.832031 24.125 L 44.910156 24.125 C 44.566406 24.125 44.289062 23.847656 44.289062 23.503906 C 44.289062 23.160156 44.566406 22.882812 44.910156 22.882812 Z M 44.910156 22.882812 "/>
<path style=" stroke:none;fill-rule:nonzero;fill:rgb(0%,0%,0%);fill-opacity:1;" d="M 44.910156 29.101562 L 55.832031 29.101562 C 56.175781 29.101562 56.453125 29.378906 56.453125 29.722656 C 56.453125 30.066406 56.175781 30.34375 55.832031 30.34375 L 44.910156 30.34375 C 44.566406 30.34375 44.289062 30.066406 44.289062 29.722656 C 44.289062 29.378906 44.566406 29.101562 44.910156 29.101562 Z M 44.910156 29.101562 "/>
<path style=" stroke:none;fill-rule:nonzero;fill:rgb(0%,0%,0%);fill-opacity:1;" d="M 42.671875 21.9375 C 42.671875 22.1875 42.472656 22.410156 42.222656 22.410156 C 41.976562 22.410156 41.75 22.1875 41.75 21.9375 L 41.75 18.332031 L 39.6875 19.101562 L 39.6875 23.03125 C 39.6875 23.28125 39.464844 23.503906 39.214844 23.503906 C 38.964844 23.503906 38.765625 23.28125 38.765625 23.03125 L 38.765625 19.425781 L 37.972656 19.722656 C 37.921875 19.75 37.847656 19.75 37.796875 19.75 C 37.523438 19.75 37.300781 19.523438 37.300781 19.25 L 37.300781 17.757812 C 37.300781 17.558594 37.425781 17.359375 37.621094 17.285156 L 38.765625 16.886719 L 38.765625 12.910156 L 37.972656 13.183594 C 37.921875 13.207031 37.847656 13.207031 37.796875 13.207031 C 37.523438 13.207031 37.300781 12.984375 37.300781 12.710938 L 37.300781 11.21875 C 37.300781 11.019531 37.425781 10.84375 37.621094 10.769531 L 38.765625 10.347656 L 38.765625 6.417969 C 38.765625 6.167969 38.964844 5.945312 39.214844 5.945312 C 39.464844 5.945312 39.6875 6.167969 39.6875 6.417969 L 39.6875 10.023438 L 41.75 9.253906 L 41.75 5.320312 C 41.75 5.074219 41.976562 4.847656 42.222656 4.847656 C 42.472656 4.847656 42.671875 5.074219 42.671875 5.320312 L 42.671875 8.929688 L 43.46875 8.628906 C 43.519531 8.605469 43.59375 8.605469 43.640625 8.605469 C 43.914062 8.605469 44.140625 8.828125 44.140625 9.101562 L 44.140625 10.59375 C 44.140625 10.792969 44.015625 10.992188 43.816406 11.066406 L 42.671875 11.464844 L 42.671875 15.445312 L 43.46875 15.171875 C 43.519531 15.148438 43.59375 15.148438 43.640625 15.148438 C 43.914062 15.148438 44.140625 15.371094 44.140625 15.644531 L 44.140625 17.136719 C 44.140625 17.335938 44.015625 17.507812 43.816406 17.585938 L 42.671875 18.007812 Z M 39.6875 12.558594 L 39.6875 16.539062 L 41.75 15.792969 L 41.75 11.8125 Z M 39.6875 12.558594 "/>
<path style=" stroke:none;fill-rule:nonzero;fill:rgb(0%,0%,0%);fill-opacity:1;" d="M 34.589844 28.15625 C 34.589844 28.402344 34.390625 28.628906 34.140625 28.628906 C 33.890625 28.628906 33.667969 28.402344 33.667969 28.15625 L 33.667969 24.546875 L 31.605469 25.320312 L 31.605469 29.25 C 31.605469 29.5 31.378906 29.722656 31.132812 29.722656 C 30.882812 29.722656 30.683594 29.5 30.683594 29.25 L 30.683594 25.644531 L 29.886719 25.941406 C 29.835938 25.964844 29.761719 25.964844 29.714844 25.964844 C 29.441406 25.964844 29.214844 25.742188 29.214844 25.46875 L 29.214844 23.976562 C 29.214844 23.777344 29.339844 23.578125 29.539062 23.503906 L 30.683594 23.105469 L 30.683594 19.125 L 29.886719 19.398438 C 29.835938 19.425781 29.761719 19.425781 29.714844 19.425781 C 29.441406 19.425781 29.214844 19.199219 29.214844 18.925781 L 29.214844 17.433594 C 29.214844 17.234375 29.339844 17.0625 29.539062 16.988281 L 30.683594 16.566406 L 30.683594 12.632812 C 30.683594 12.386719 30.882812 12.160156 31.132812 12.160156 C 31.378906 12.160156 31.605469 12.386719 31.605469 12.632812 L 31.605469 16.242188 L 33.667969 15.46875 L 33.667969 11.539062 C 33.667969 11.292969 33.890625 11.066406 34.140625 11.066406 C 34.390625 11.066406 34.589844 11.292969 34.589844 11.539062 L 34.589844 15.148438 L 35.382812 14.847656 C 35.433594 14.824219 35.507812 14.824219 35.558594 14.824219 C 35.832031 14.824219 36.054688 15.046875 36.054688 15.320312 L 36.054688 16.8125 C 36.054688 17.011719 35.929688 17.210938 35.734375 17.285156 L 34.589844 17.683594 L 34.589844 21.664062 L 35.382812 21.390625 C 35.433594 21.363281 35.507812 21.363281 35.558594 21.363281 C 35.832031 21.363281 36.054688 21.589844 36.054688 21.863281 L 36.054688 23.355469 C 36.054688 23.554688 35.929688 23.726562 35.734375 23.800781 L 34.589844 24.226562 Z M 31.605469 18.777344 L 31.605469 22.757812 L 33.667969 22.011719 L 33.667969 18.03125 Z M 31.605469 18.777344 "/>
<path style=" stroke:none;fill-rule:nonzero;fill:rgb(0%,0%,0%);fill-opacity:1;" d="M 46.566406 9.117188 L 46.875 9.117188 C 47.011719 9.117188 47.125 9.226562 47.125 9.363281 L 47.125 48.128906 C 47.125 48.265625 47.011719 48.375 46.875 48.375 L 46.566406 48.375 C 46.425781 48.375 46.316406 48.265625 46.316406 48.128906 L 46.316406 9.363281 C 46.316406 9.226562 46.425781 9.117188 46.566406 9.117188 Z M 46.566406 9.117188 "/>
<path style=" stroke:none;fill-rule:nonzero;fill:rgb(0%,0%,0%);fill-opacity:1;" d="M 16.152344 70.390625 L 16.003906 70.390625 C 13.316406 70.390625 11.152344 68.199219 11.152344 65.488281 C 11.152344 64.046875 12.46875 62.925781 13.9375 62.925781 C 15.28125 62.925781 16.300781 64.097656 16.300781 65.488281 C 16.300781 66.78125 15.230469 67.851562 13.9375 67.851562 C 13.664062 67.851562 13.414062 67.800781 13.167969 67.703125 C 13.8125 68.671875 14.859375 69.320312 16.078125 69.320312 L 16.175781 69.320312 Z M 21 59.644531 C 22.691406 59.046875 23.8125 57.28125 23.8125 55.566406 C 23.8125 53.328125 22.171875 51.113281 19.507812 50.839844 C 20.105469 53.722656 20.652344 56.585938 21 59.644531 Z M 11.375 53.898438 C 11.375 57.257812 14.585938 60.042969 17.941406 60.042969 C 18.640625 60.042969 19.308594 59.992188 19.980469 59.894531 C 19.632812 56.734375 19.0625 53.796875 18.414062 50.839844 C 16.449219 51.039062 15.332031 52.355469 15.332031 53.796875 C 15.332031 54.894531 15.953125 56.0625 17.34375 56.859375 C 17.46875 56.984375 17.519531 57.105469 17.519531 57.230469 C 17.519531 57.503906 17.269531 57.777344 16.972656 57.777344 C 16.898438 57.777344 16.824219 57.753906 16.75 57.730469 C 14.757812 56.660156 13.839844 54.867188 13.839844 53.128906 C 13.839844 50.9375 15.28125 48.800781 17.816406 48.226562 C 17.46875 46.785156 17.097656 45.316406 16.675781 43.875 C 14.011719 46.882812 11.375 49.917969 11.375 53.898438 Z M 17.867188 61.113281 C 13.191406 61.113281 9.585938 56.832031 9.585938 51.808594 C 9.585938 47.40625 12.84375 44.199219 15.753906 40.839844 C 15.28125 39.296875 14.832031 37.730469 14.632812 36.113281 C 14.484375 34.820312 14.460938 33.527344 14.460938 32.234375 C 14.460938 29.375 15.828125 26.664062 18.167969 24.972656 C 18.316406 24.847656 18.515625 24.847656 18.664062 24.972656 C 20.429688 27.0625 21.972656 31.066406 21.972656 33.875 C 21.972656 37.433594 19.832031 40.21875 17.496094 42.929688 C 18.015625 44.621094 18.464844 46.363281 18.886719 48.078125 C 18.988281 48.078125 19.113281 48.054688 19.210938 48.054688 C 23.066406 48.054688 25.578125 51.238281 25.578125 54.546875 C 25.578125 56.433594 24.757812 58.375 22.917969 59.769531 C 22.371094 60.191406 21.746094 60.464844 21.101562 60.664062 C 21.175781 61.535156 21.226562 62.40625 21.226562 63.273438 C 21.226562 63.746094 21.199219 64.246094 21.175781 64.71875 C 21 67.675781 18.988281 70.3125 16.152344 70.390625 L 16.175781 69.320312 C 18.488281 69.269531 19.980469 67.03125 20.132812 64.570312 C 20.15625 64.121094 20.179688 63.648438 20.179688 63.199219 C 20.179688 62.429688 20.15625 61.683594 20.082031 60.914062 C 19.359375 61.035156 18.640625 61.113281 17.867188 61.113281 Z M 20.179688 31.8125 C 20.179688 30.445312 20.082031 29.847656 19.683594 28.601562 C 17.222656 29.796875 15.652344 32.308594 15.652344 35.042969 C 15.652344 36.886719 16.101562 38.351562 16.550781 39.871094 C 18.539062 37.457031 20.179688 34.945312 20.179688 31.8125 Z M 20.179688 31.8125 "/>
<path style=" stroke:none;fill-rule:nonzero;fill:rgb(0%,0%,0%);fill-opacity:1;" d="M 51.738281 4.574219 C 53.105469 4.574219 54.425781 5.273438 54.425781 6.789062 C 54.425781 8.554688 53.054688 9.800781 51.886719 10.496094 C 51.015625 11.019531 50.023438 11.339844 49.003906 11.339844 C 47.632812 11.339844 46.316406 10.644531 46.316406 9.128906 C 46.316406 7.363281 47.683594 6.117188 48.851562 5.421875 C 49.722656 4.898438 50.71875 4.574219 51.738281 4.574219 Z M 51.738281 4.574219 "/>
<path style=" stroke:none;fill-rule:nonzero;fill:rgb(0%,0%,0%);fill-opacity:1;" d="M 51.738281 10.792969 C 53.105469 10.792969 54.425781 11.492188 54.425781 13.007812 C 54.425781 14.773438 53.054688 16.015625 51.886719 16.714844 C 51.015625 17.234375 50.023438 17.558594 49.003906 17.558594 C 47.632812 17.558594 46.316406 16.863281 46.316406 15.347656 C 46.316406 13.578125 47.683594 12.335938 48.851562 11.640625 C 49.722656 11.117188 50.71875 10.792969 51.738281 10.792969 Z M 51.738281 10.792969 "/>
<path style=" stroke:none;fill-rule:nonzero;fill:rgb(0%,0%,0%);fill-opacity:1;" d="M 51.738281 17.011719 C 53.105469 17.011719 54.425781 17.707031 54.425781 19.226562 C 54.425781 20.992188 53.054688 22.234375 51.886719 22.933594 C 51.015625 23.453125 50.023438 23.777344 49.003906 23.777344 C 47.632812 23.777344 46.316406 23.082031 46.316406 21.5625 C 46.316406 19.796875 47.683594 18.554688 48.851562 17.859375 C 49.722656 17.335938 50.71875 17.011719 51.738281 17.011719 Z M 51.738281 17.011719 "/>
<path style=" stroke:none;fill-rule:nonzero;fill:rgb(0%,0%,0%);fill-opacity:1;" d="M 51.738281 23.230469 C 53.105469 23.230469 54.425781 23.925781 54.425781 25.445312 C 54.425781 27.210938 53.054688 28.453125 51.886719 29.148438 C 51.015625 29.671875 50.023438 29.996094 49.003906 29.996094 C 47.632812 29.996094 46.316406 29.300781 46.316406 27.78125 C 46.316406 26.015625 47.683594 24.773438 48.851562 24.074219 C 49.722656 23.554688 50.71875 23.230469 51.738281 23.230469 Z M 51.738281 23.230469 "/>
</g>
</svg>
