<?xml version="1.0" encoding="UTF-8"?>
<svg xmlns="http://www.w3.org/2000/svg" xmlns:xlink="http://www.w3.org/1999/xlink" width="88.909079pt" height="59.813301pt" viewBox="0 0 88.909079 59.813301" version="1.1">
<g id="surface1">
<path style="fill:none;stroke-width:0.1;stroke-linecap:round;stroke-linejoin:round;stroke:rgb(0%,0%,0%);stroke-opacity:1;stroke-miterlimit:4;" d="M 0.049863 0.0000610068 L 11.829268 0.0000610068 " transform="matrix(6.218149,0,0,6.218149,4.561038,32.409777)"/>
<path style="fill:none;stroke-width:0.1;stroke-linecap:round;stroke-linejoin:round;stroke:rgb(0%,0%,0%);stroke-opacity:1;stroke-miterlimit:4;" d="M 0.049863 -0.0000356418 L 11.829268 -0.0000356418 " transform="matrix(6.218149,0,0,6.218149,4.561038,26.191628)"/>
<path style="fill:none;stroke-width:0.1;stroke-linecap:round;stroke-linejoin:round;stroke:rgb(0%,0%,0%);stroke-opacity:1;stroke-miterlimit:4;" d="M 0.049863 -0.00013229 L 11.829268 -0.00013229 " transform="matrix(6.218149,0,0,6.218149,4.561038,19.973479)"/>
<path style="fill:none;stroke-width:0.1;stroke-linecap:round;stroke-linejoin:round;stroke:rgb(0%,0%,0%);stroke-opacity:1;stroke-miterlimit:4;" d="M 0.049863 -0.000228939 L 11.829268 -0.000228939 " transform="matrix(6.218149,0,0,6.218149,4.561038,13.75533)"/>
<path style="fill:none;stroke-width:0.1;stroke-linecap:round;stroke-linejoin:round;stroke:rgb(0%,0%,0%);stroke-opacity:1;stroke-miterlimit:4;" d="M 0.049863 0.000302495 L 11.829268 0.000302495 " transform="matrix(6.218149,0,0,6.218149,4.561038,7.537182)"/>
<path style=" stroke:none;fill-rule:nonzero;fill:rgb(0%,0%,0%);fill-opacity:1;" d="M 58.355469 38.007812 L 69.273438 38.007812 C 69.617188 38.007812 69.898438 38.285156 69.898438 38.628906 C 69.898438 38.972656 69.617188 39.25 69.273438 39.25 L 58.355469 39.25 C 58.011719 39.25 57.734375 38.972656 57.734375 38.628906 C 57.734375 38.285156 58.011719 38.007812 58.355469 38.007812 Z M 58.355469 38.007812 "/>
<path style=" stroke:none;fill-rule:nonzero;fill:rgb(0%,0%,0%);fill-opacity:1;" d="M 67.308594 4.429688 L 67.621094 4.429688 C 67.757812 4.429688 67.871094 4.539062 67.871094 4.675781 L 67.871094 40.332031 C 67.871094 40.46875 67.757812 40.578125 67.621094 40.578125 L 67.308594 40.578125 C 67.171875 40.578125 67.0625 40.46875 67.0625 40.332031 L 67.0625 4.675781 C 67.0625 4.539062 67.171875 4.429688 67.308594 4.429688 Z M 67.308594 4.429688 "/>
<path style=" stroke:none;fill-rule:nonzero;fill:rgb(0%,0%,0%);fill-opacity:1;" d="M 56.117188 33.953125 C 56.117188 34.199219 55.917969 34.425781 55.667969 34.425781 C 55.417969 34.425781 55.195312 34.199219 55.195312 33.953125 L 55.195312 30.34375 L 53.132812 31.117188 L 53.132812 35.046875 C 53.132812 35.296875 52.90625 35.519531 52.660156 35.519531 C 52.410156 35.519531 52.210938 35.296875 52.210938 35.046875 L 52.210938 31.441406 L 51.414062 31.738281 C 51.367188 31.761719 51.292969 31.761719 51.242188 31.761719 C 50.96875 31.761719 50.742188 31.539062 50.742188 31.265625 L 50.742188 29.773438 C 50.742188 29.574219 50.867188 29.375 51.066406 29.300781 L 52.210938 28.902344 L 52.210938 24.921875 L 51.414062 25.195312 C 51.367188 25.222656 51.292969 25.222656 51.242188 25.222656 C 50.96875 25.222656 50.742188 24.996094 50.742188 24.722656 L 50.742188 23.230469 C 50.742188 23.03125 50.867188 22.859375 51.066406 22.785156 L 52.210938 22.359375 L 52.210938 18.429688 C 52.210938 18.183594 52.410156 17.957031 52.660156 17.957031 C 52.90625 17.957031 53.132812 18.183594 53.132812 18.429688 L 53.132812 22.039062 L 55.195312 21.265625 L 55.195312 17.335938 C 55.195312 17.089844 55.417969 16.863281 55.667969 16.863281 C 55.917969 16.863281 56.117188 17.089844 56.117188 17.335938 L 56.117188 20.945312 L 56.914062 20.644531 C 56.960938 20.621094 57.035156 20.621094 57.085938 20.621094 C 57.359375 20.621094 57.582031 20.84375 57.582031 21.117188 L 57.582031 22.609375 C 57.582031 22.808594 57.460938 23.007812 57.261719 23.082031 L 56.117188 23.480469 L 56.117188 27.460938 L 56.914062 27.1875 C 56.960938 27.160156 57.035156 27.160156 57.085938 27.160156 C 57.359375 27.160156 57.582031 27.386719 57.582031 27.660156 L 57.582031 29.152344 C 57.582031 29.351562 57.460938 29.523438 57.261719 29.597656 L 56.117188 30.023438 Z M 53.132812 24.574219 L 53.132812 28.554688 L 55.195312 27.808594 L 55.195312 23.828125 Z M 53.132812 24.574219 "/>
<path style=" stroke:none;fill-rule:nonzero;fill:rgb(0%,0%,0%);fill-opacity:1;" d="M 43.082031 37.0625 C 43.082031 37.308594 42.882812 37.535156 42.636719 37.535156 C 42.386719 37.535156 42.164062 37.308594 42.164062 37.0625 L 42.164062 33.453125 L 40.097656 34.226562 L 40.097656 38.15625 C 40.097656 38.402344 39.875 38.628906 39.625 38.628906 C 39.378906 38.628906 39.179688 38.402344 39.179688 38.15625 L 39.179688 34.546875 L 38.382812 34.847656 C 38.332031 34.871094 38.257812 34.871094 38.207031 34.871094 C 37.933594 34.871094 37.710938 34.648438 37.710938 34.375 L 37.710938 32.882812 C 37.710938 32.683594 37.835938 32.484375 38.035156 32.410156 L 39.179688 32.011719 L 39.179688 28.03125 L 38.382812 28.304688 C 38.332031 28.332031 38.257812 28.332031 38.207031 28.332031 C 37.933594 28.332031 37.710938 28.105469 37.710938 27.832031 L 37.710938 26.339844 C 37.710938 26.140625 37.835938 25.96875 38.035156 25.894531 L 39.179688 25.46875 L 39.179688 21.539062 C 39.179688 21.292969 39.378906 21.066406 39.625 21.066406 C 39.875 21.066406 40.097656 21.292969 40.097656 21.539062 L 40.097656 25.148438 L 42.164062 24.375 L 42.164062 20.445312 C 42.164062 20.199219 42.386719 19.972656 42.636719 19.972656 C 42.882812 19.972656 43.082031 20.199219 43.082031 20.445312 L 43.082031 24.050781 L 43.878906 23.753906 C 43.929688 23.730469 44.003906 23.730469 44.054688 23.730469 C 44.328125 23.730469 44.550781 23.953125 44.550781 24.226562 L 44.550781 25.71875 C 44.550781 25.917969 44.425781 26.117188 44.226562 26.191406 L 43.082031 26.589844 L 43.082031 30.570312 L 43.878906 30.296875 C 43.929688 30.269531 44.003906 30.269531 44.054688 30.269531 C 44.328125 30.269531 44.550781 30.496094 44.550781 30.769531 L 44.550781 32.261719 C 44.550781 32.460938 44.425781 32.632812 44.226562 32.707031 L 43.082031 33.132812 Z M 40.097656 27.683594 L 40.097656 31.664062 L 42.164062 30.917969 L 42.164062 26.9375 Z M 40.097656 27.683594 "/>
<path style=" stroke:none;fill-rule:nonzero;fill:rgb(0%,0%,0%);fill-opacity:1;" d="M 33.734375 35.519531 C 34.304688 36.089844 35.125 36.214844 35.945312 36.214844 C 36.097656 36.214844 36.195312 36.316406 36.195312 36.464844 L 36.417969 38.628906 C 36.445312 38.777344 36.320312 38.902344 36.171875 38.875 L 34.007812 38.652344 C 33.882812 38.628906 33.757812 38.527344 33.757812 38.402344 C 33.757812 37.582031 33.632812 36.761719 33.0625 36.191406 C 32.488281 36.761719 32.390625 37.582031 32.390625 38.402344 C 32.390625 38.527344 32.265625 38.628906 32.140625 38.652344 L 29.953125 38.875 C 29.804688 38.902344 29.679688 38.777344 29.703125 38.628906 L 29.925781 36.464844 C 29.925781 36.316406 30.027344 36.214844 30.175781 36.214844 C 30.996094 36.214844 31.816406 36.089844 32.390625 35.519531 C 31.816406 34.945312 30.996094 34.824219 30.175781 34.824219 C 30.027344 34.824219 29.925781 34.722656 29.925781 34.574219 L 29.703125 32.410156 C 29.679688 32.261719 29.804688 32.136719 29.953125 32.160156 L 32.140625 32.386719 C 32.265625 32.410156 32.363281 32.507812 32.363281 32.632812 C 32.363281 33.453125 32.488281 34.273438 33.0625 34.847656 C 33.632812 34.273438 33.757812 33.453125 33.757812 32.632812 C 33.757812 32.507812 33.882812 32.410156 34.007812 32.386719 L 36.171875 32.160156 C 36.320312 32.136719 36.445312 32.261719 36.417969 32.410156 L 36.195312 34.574219 C 36.195312 34.722656 36.097656 34.824219 35.945312 34.824219 C 35.125 34.824219 34.304688 34.945312 33.734375 35.519531 Z M 33.734375 35.519531 "/>
<path style=" stroke:none;fill-rule:nonzero;fill:rgb(0%,0%,0%);fill-opacity:1;" d="M 49.523438 49.496094 C 49.523438 49.746094 49.324219 49.96875 49.078125 49.96875 C 48.828125 49.96875 48.605469 49.746094 48.605469 49.496094 L 48.605469 45.890625 L 46.539062 46.660156 L 46.539062 50.589844 C 46.539062 50.839844 46.316406 51.0625 46.066406 51.0625 C 45.820312 51.0625 45.621094 50.839844 45.621094 50.589844 L 45.621094 46.984375 L 44.824219 47.285156 C 44.773438 47.308594 44.699219 47.308594 44.648438 47.308594 C 44.375 47.308594 44.152344 47.085938 44.152344 46.8125 L 44.152344 45.320312 C 44.152344 45.121094 44.277344 44.921875 44.476562 44.847656 L 45.621094 44.449219 L 45.621094 40.46875 L 44.824219 40.742188 C 44.773438 40.765625 44.699219 40.765625 44.648438 40.765625 C 44.375 40.765625 44.152344 40.542969 44.152344 40.269531 L 44.152344 38.777344 C 44.152344 38.578125 44.277344 38.402344 44.476562 38.328125 L 45.621094 37.90625 L 45.621094 33.976562 C 45.621094 33.726562 45.820312 33.503906 46.066406 33.503906 C 46.316406 33.503906 46.539062 33.726562 46.539062 33.976562 L 46.539062 37.582031 L 48.605469 36.8125 L 48.605469 32.882812 C 48.605469 32.632812 48.828125 32.410156 49.078125 32.410156 C 49.324219 32.410156 49.523438 32.632812 49.523438 32.882812 L 49.523438 36.488281 L 50.320312 36.191406 C 50.371094 36.164062 50.445312 36.164062 50.496094 36.164062 C 50.769531 36.164062 50.992188 36.390625 50.992188 36.664062 L 50.992188 38.15625 C 50.992188 38.355469 50.867188 38.554688 50.667969 38.628906 L 49.523438 39.027344 L 49.523438 43.003906 L 50.320312 42.730469 C 50.371094 42.707031 50.445312 42.707031 50.496094 42.707031 C 50.769531 42.707031 50.992188 42.929688 50.992188 43.203125 L 50.992188 44.695312 C 50.992188 44.894531 50.867188 45.070312 50.667969 45.144531 L 49.523438 45.566406 Z M 46.539062 40.121094 L 46.539062 44.101562 L 48.605469 43.355469 L 48.605469 39.375 Z M 46.539062 40.121094 "/>
<path style=" stroke:none;fill-rule:nonzero;fill:rgb(0%,0%,0%);fill-opacity:1;" d="M 23.390625 16.863281 C 23.390625 16.167969 23.960938 15.597656 24.65625 15.597656 C 25.355469 15.597656 25.925781 16.167969 25.925781 16.863281 C 25.925781 17.5625 25.355469 18.132812 24.65625 18.132812 C 23.960938 18.132812 23.390625 17.5625 23.390625 16.863281 Z M 23.390625 10.644531 C 23.390625 9.949219 23.960938 9.378906 24.65625 9.378906 C 25.355469 9.378906 25.925781 9.949219 25.925781 10.644531 C 25.925781 11.34375 25.355469 11.914062 24.65625 11.914062 C 23.960938 11.914062 23.390625 11.34375 23.390625 10.644531 Z M 15.304688 7.214844 C 19.585938 7.214844 22.59375 9.402344 22.59375 13.457031 C 22.59375 20 16.050781 23.753906 9.757812 26.414062 C 9.683594 26.488281 9.609375 26.515625 9.535156 26.515625 C 9.363281 26.515625 9.210938 26.367188 9.210938 26.191406 C 9.210938 26.117188 9.238281 26.042969 9.3125 25.96875 C 14.335938 23.03125 19.558594 19.375 19.558594 13.707031 C 19.558594 10.722656 17.992188 7.859375 15.304688 7.859375 C 13.464844 7.859375 12.097656 9.203125 11.476562 10.996094 C 11.75 10.871094 12.023438 10.796875 12.320312 10.796875 C 13.6875 10.796875 14.808594 11.914062 14.808594 13.28125 C 14.808594 14.726562 13.714844 15.917969 12.320312 15.917969 C 10.828125 15.917969 9.535156 14.75 9.535156 13.28125 C 9.535156 9.976562 12.074219 7.214844 15.304688 7.214844 Z M 15.304688 7.214844 "/>
<path style=" stroke:none;fill-rule:nonzero;fill:rgb(0%,0%,0%);fill-opacity:1;" d="M 72.886719 22.808594 C 74.257812 22.808594 75.574219 23.503906 75.574219 25.023438 C 75.574219 26.789062 74.207031 28.03125 73.039062 28.730469 C 72.167969 29.25 71.171875 29.574219 70.152344 29.574219 C 68.785156 29.574219 67.464844 28.878906 67.464844 27.359375 C 67.464844 25.59375 68.832031 24.351562 70.003906 23.65625 C 70.875 23.132812 71.867188 22.808594 72.886719 22.808594 Z M 72.886719 22.808594 "/>
<path style=" stroke:none;fill-rule:nonzero;fill:rgb(0%,0%,0%);fill-opacity:1;" d="M 65.183594 25.917969 C 66.550781 25.917969 67.867188 26.613281 67.867188 28.132812 C 67.867188 29.898438 66.5 31.140625 65.332031 31.835938 C 64.460938 32.359375 63.464844 32.683594 62.445312 32.683594 C 61.078125 32.683594 59.761719 31.988281 59.761719 30.46875 C 59.761719 28.703125 61.128906 27.460938 62.296875 26.765625 C 63.167969 26.242188 64.164062 25.917969 65.183594 25.917969 Z M 65.183594 25.917969 "/>
<path style=" stroke:none;fill-rule:nonzero;fill:rgb(0%,0%,0%);fill-opacity:1;" d="M 65.183594 32.136719 C 66.550781 32.136719 67.867188 32.832031 67.867188 34.351562 C 67.867188 36.117188 66.5 37.359375 65.332031 38.054688 C 64.460938 38.578125 63.464844 38.902344 62.445312 38.902344 C 61.078125 38.902344 59.761719 38.207031 59.761719 36.6875 C 59.761719 34.921875 61.128906 33.679688 62.296875 32.980469 C 63.167969 32.460938 64.164062 32.136719 65.183594 32.136719 Z M 65.183594 32.136719 "/>
<path style=" stroke:none;fill-rule:nonzero;fill:rgb(0%,0%,0%);fill-opacity:1;" d="M 65.183594 38.355469 C 66.550781 38.355469 67.867188 39.050781 67.867188 40.566406 C 67.867188 42.332031 66.5 43.578125 65.332031 44.273438 C 64.460938 44.796875 63.464844 45.121094 62.445312 45.121094 C 61.078125 45.121094 59.761719 44.421875 59.761719 42.90625 C 59.761719 41.140625 61.128906 39.894531 62.296875 39.199219 C 63.167969 38.675781 64.164062 38.355469 65.183594 38.355469 Z M 65.183594 38.355469 "/>
</g>
</svg>
