<?xml version="1.0" encoding="UTF-8"?>
<svg xmlns="http://www.w3.org/2000/svg" xmlns:xlink="http://www.w3.org/1999/xlink" width="83.462827pt" height="53.463766pt" viewBox="0 0 83.462827 53.463766" version="1.1">
<g id="surface1">
<path style="fill:none;stroke-width:0.1;stroke-linecap:round;stroke-linejoin:round;stroke:rgb(0%,0%,0%);stroke-opacity:1;stroke-miterlimit:4;" d="M 0.049863 0.00017851 L 11.009465 0.00017851 " transform="matrix(6.218149,0,0,6.218149,4.561038,32.702015)"/>
<path style="fill:none;stroke-width:0.1;stroke-linecap:round;stroke-linejoin:round;stroke:rgb(0%,0%,0%);stroke-opacity:1;stroke-miterlimit:4;" d="M 0.049863 0.000081861 L 11.009465 0.000081861 " transform="matrix(6.218149,0,0,6.218149,4.561038,26.483866)"/>
<path style="fill:none;stroke-width:0.1;stroke-linecap:round;stroke-linejoin:round;stroke:rgb(0%,0%,0%);stroke-opacity:1;stroke-miterlimit:4;" d="M 0.049863 -0.0000147876 L 11.009465 -0.0000147876 " transform="matrix(6.218149,0,0,6.218149,4.561038,20.265717)"/>
<path style="fill:none;stroke-width:0.1;stroke-linecap:round;stroke-linejoin:round;stroke:rgb(0%,0%,0%);stroke-opacity:1;stroke-miterlimit:4;" d="M 0.049863 -0.000111436 L 11.009465 -0.000111436 " transform="matrix(6.218149,0,0,6.218149,4.561038,14.047568)"/>
<path style="fill:none;stroke-width:0.1;stroke-linecap:round;stroke-linejoin:round;stroke:rgb(0%,0%,0%);stroke-opacity:1;stroke-miterlimit:4;" d="M 0.049863 -0.000208204 L 11.009465 -0.000208204 " transform="matrix(6.218149,0,0,6.218149,4.561038,7.82942)"/>
<path style=" stroke:none;fill-rule:nonzero;fill:rgb(0%,0%,0%);fill-opacity:1;" d="M 54.910156 8.988281 L 55.222656 8.988281 C 55.359375 8.988281 55.46875 9.097656 55.46875 9.234375 L 55.46875 44.890625 C 55.46875 45.027344 55.359375 45.136719 55.222656 45.136719 L 54.910156 45.136719 C 54.773438 45.136719 54.660156 45.027344 54.660156 44.890625 L 54.660156 9.234375 C 54.660156 9.097656 54.773438 8.988281 54.910156 8.988281 Z M 54.910156 8.988281 "/>
<path style=" stroke:none;fill-rule:nonzero;fill:rgb(0%,0%,0%);fill-opacity:1;" d="M 49.75 7.828125 C 50.324219 8.402344 51.144531 8.527344 51.964844 8.527344 C 52.113281 8.527344 52.214844 8.625 52.214844 8.773438 L 52.4375 10.9375 C 52.460938 11.085938 52.335938 11.210938 52.1875 11.1875 L 50.023438 10.964844 C 49.898438 10.9375 49.777344 10.839844 49.777344 10.714844 C 49.777344 9.894531 49.652344 9.074219 49.078125 8.5 C 48.507812 9.074219 48.40625 9.894531 48.40625 10.714844 C 48.40625 10.839844 48.285156 10.9375 48.160156 10.964844 L 45.96875 11.1875 C 45.820312 11.210938 45.695312 11.085938 45.722656 10.9375 L 45.945312 8.773438 C 45.945312 8.625 46.042969 8.527344 46.195312 8.527344 C 47.015625 8.527344 47.835938 8.402344 48.40625 7.828125 C 47.835938 7.257812 47.015625 7.132812 46.195312 7.132812 C 46.042969 7.132812 45.945312 7.035156 45.945312 6.882812 L 45.722656 4.71875 C 45.695312 4.570312 45.820312 4.445312 45.96875 4.472656 L 48.160156 4.695312 C 48.285156 4.71875 48.382812 4.820312 48.382812 4.945312 C 48.382812 5.765625 48.507812 6.585938 49.078125 7.15625 C 49.652344 6.585938 49.777344 5.765625 49.777344 4.945312 C 49.777344 4.820312 49.898438 4.71875 50.023438 4.695312 L 52.1875 4.472656 C 52.335938 4.445312 52.460938 4.570312 52.4375 4.71875 L 52.214844 6.882812 C 52.214844 7.035156 52.113281 7.132812 51.964844 7.132812 C 51.144531 7.132812 50.324219 7.257812 49.75 7.828125 Z M 49.75 7.828125 "/>
<path style=" stroke:none;fill-rule:nonzero;fill:rgb(0%,0%,0%);fill-opacity:1;" d="M 41.742188 14.046875 C 42.3125 14.621094 43.132812 14.742188 43.957031 14.742188 C 44.105469 14.742188 44.203125 14.84375 44.203125 14.992188 L 44.429688 17.15625 C 44.453125 17.304688 44.328125 17.429688 44.179688 17.40625 L 42.015625 17.179688 C 41.890625 17.15625 41.765625 17.058594 41.765625 16.933594 C 41.765625 16.113281 41.640625 15.292969 41.070312 14.71875 C 40.5 15.292969 40.398438 16.113281 40.398438 16.933594 C 40.398438 17.058594 40.273438 17.15625 40.148438 17.179688 L 37.960938 17.40625 C 37.8125 17.429688 37.6875 17.304688 37.710938 17.15625 L 37.9375 14.992188 C 37.9375 14.84375 38.035156 14.742188 38.183594 14.742188 C 39.003906 14.742188 39.828125 14.621094 40.398438 14.046875 C 39.828125 13.476562 39.003906 13.351562 38.183594 13.351562 C 38.035156 13.351562 37.9375 13.25 37.9375 13.101562 L 37.710938 10.9375 C 37.6875 10.789062 37.8125 10.664062 37.960938 10.691406 L 40.148438 10.914062 C 40.273438 10.9375 40.375 11.039062 40.375 11.164062 C 40.375 11.984375 40.5 12.804688 41.070312 13.375 C 41.640625 12.804688 41.765625 11.984375 41.765625 11.164062 C 41.765625 11.039062 41.890625 10.9375 42.015625 10.914062 L 44.179688 10.691406 C 44.328125 10.664062 44.453125 10.789062 44.429688 10.9375 L 44.203125 13.101562 C 44.203125 13.25 44.105469 13.351562 43.957031 13.351562 C 43.132812 13.351562 42.3125 13.476562 41.742188 14.046875 Z M 41.742188 14.046875 "/>
<path style=" stroke:none;fill-rule:nonzero;fill:rgb(0%,0%,0%);fill-opacity:1;" d="M 33.734375 20.265625 C 34.304688 20.835938 35.125 20.960938 35.945312 20.960938 C 36.097656 20.960938 36.195312 21.0625 36.195312 21.210938 L 36.417969 23.375 C 36.445312 23.523438 36.320312 23.648438 36.171875 23.625 L 34.007812 23.398438 C 33.882812 23.375 33.757812 23.273438 33.757812 23.152344 C 33.757812 22.332031 33.632812 21.507812 33.0625 20.9375 C 32.488281 21.507812 32.390625 22.332031 32.390625 23.152344 C 32.390625 23.273438 32.265625 23.375 32.140625 23.398438 L 29.953125 23.625 C 29.804688 23.648438 29.679688 23.523438 29.703125 23.375 L 29.925781 21.210938 C 29.925781 21.0625 30.027344 20.960938 30.175781 20.960938 C 30.996094 20.960938 31.816406 20.835938 32.390625 20.265625 C 31.816406 19.695312 30.996094 19.570312 30.175781 19.570312 C 30.027344 19.570312 29.925781 19.46875 29.925781 19.320312 L 29.703125 17.15625 C 29.679688 17.007812 29.804688 16.882812 29.953125 16.90625 L 32.140625 17.132812 C 32.265625 17.15625 32.363281 17.257812 32.363281 17.378906 C 32.363281 18.203125 32.488281 19.023438 33.0625 19.59375 C 33.632812 19.023438 33.757812 18.203125 33.757812 17.378906 C 33.757812 17.257812 33.882812 17.15625 34.007812 17.132812 L 36.171875 16.90625 C 36.320312 16.882812 36.445312 17.007812 36.417969 17.15625 L 36.195312 19.320312 C 36.195312 19.46875 36.097656 19.570312 35.945312 19.570312 C 35.125 19.570312 34.304688 19.695312 33.734375 20.265625 Z M 33.734375 20.265625 "/>
<path style=" stroke:none;fill-rule:nonzero;fill:rgb(0%,0%,0%);fill-opacity:1;" d="M 51.015625 34.242188 C 51.015625 34.492188 50.820312 34.714844 50.570312 34.714844 C 50.320312 34.714844 50.097656 34.492188 50.097656 34.242188 L 50.097656 30.636719 L 48.03125 31.410156 L 48.03125 35.339844 C 48.03125 35.585938 47.808594 35.8125 47.558594 35.8125 C 47.3125 35.8125 47.113281 35.585938 47.113281 35.339844 L 47.113281 31.730469 L 46.316406 32.03125 C 46.265625 32.054688 46.191406 32.054688 46.140625 32.054688 C 45.867188 32.054688 45.644531 31.832031 45.644531 31.558594 L 45.644531 30.066406 C 45.644531 29.867188 45.769531 29.667969 45.96875 29.59375 L 47.113281 29.195312 L 47.113281 25.214844 L 46.316406 25.488281 C 46.265625 25.515625 46.191406 25.515625 46.140625 25.515625 C 45.867188 25.515625 45.644531 25.289062 45.644531 25.015625 L 45.644531 23.523438 C 45.644531 23.324219 45.769531 23.152344 45.96875 23.078125 L 47.113281 22.652344 L 47.113281 18.722656 C 47.113281 18.476562 47.3125 18.25 47.558594 18.25 C 47.808594 18.25 48.03125 18.476562 48.03125 18.722656 L 48.03125 22.332031 L 50.097656 21.558594 L 50.097656 17.628906 C 50.097656 17.378906 50.320312 17.15625 50.570312 17.15625 C 50.820312 17.15625 51.015625 17.378906 51.015625 17.628906 L 51.015625 21.234375 L 51.8125 20.9375 C 51.863281 20.914062 51.9375 20.914062 51.988281 20.914062 C 52.261719 20.914062 52.484375 21.136719 52.484375 21.410156 L 52.484375 22.902344 C 52.484375 23.101562 52.359375 23.300781 52.160156 23.375 L 51.015625 23.773438 L 51.015625 27.753906 L 51.8125 27.480469 C 51.863281 27.453125 51.9375 27.453125 51.988281 27.453125 C 52.261719 27.453125 52.484375 27.679688 52.484375 27.953125 L 52.484375 29.445312 C 52.484375 29.644531 52.359375 29.816406 52.160156 29.890625 L 51.015625 30.3125 Z M 48.03125 24.867188 L 48.03125 28.847656 L 50.097656 28.101562 L 50.097656 24.121094 Z M 48.03125 24.867188 "/>
<path style=" stroke:none;fill-rule:nonzero;fill:rgb(0%,0%,0%);fill-opacity:1;" d="M 23.390625 17.15625 C 23.390625 16.460938 23.960938 15.886719 24.65625 15.886719 C 25.355469 15.886719 25.925781 16.460938 25.925781 17.15625 C 25.925781 17.851562 25.355469 18.425781 24.65625 18.425781 C 23.960938 18.425781 23.390625 17.851562 23.390625 17.15625 Z M 23.390625 10.9375 C 23.390625 10.242188 23.960938 9.671875 24.65625 9.671875 C 25.355469 9.671875 25.925781 10.242188 25.925781 10.9375 C 25.925781 11.636719 25.355469 12.207031 24.65625 12.207031 C 23.960938 12.207031 23.390625 11.636719 23.390625 10.9375 Z M 15.304688 7.507812 C 19.585938 7.507812 22.59375 9.695312 22.59375 13.75 C 22.59375 20.289062 16.050781 24.046875 9.757812 26.707031 C 9.683594 26.78125 9.609375 26.808594 9.535156 26.808594 C 9.363281 26.808594 9.210938 26.65625 9.210938 26.484375 C 9.210938 26.410156 9.238281 26.335938 9.3125 26.261719 C 14.335938 23.324219 19.558594 19.667969 19.558594 13.996094 C 19.558594 11.011719 17.992188 8.152344 15.304688 8.152344 C 13.464844 8.152344 12.097656 9.496094 11.476562 11.285156 C 11.75 11.164062 12.023438 11.085938 12.320312 11.085938 C 13.6875 11.085938 14.808594 12.207031 14.808594 13.574219 C 14.808594 15.019531 13.714844 16.210938 12.320312 16.210938 C 10.828125 16.210938 9.535156 15.042969 9.535156 13.574219 C 9.535156 10.265625 12.074219 7.507812 15.304688 7.507812 Z M 15.304688 7.507812 "/>
<path style=" stroke:none;fill-rule:nonzero;fill:rgb(0%,0%,0%);fill-opacity:1;" d="M 60.082031 4.445312 C 61.453125 4.445312 62.769531 5.144531 62.769531 6.660156 C 62.769531 8.425781 61.402344 9.671875 60.234375 10.367188 C 59.363281 10.890625 58.367188 11.210938 57.347656 11.210938 C 55.980469 11.210938 54.660156 10.515625 54.660156 9 C 54.660156 7.234375 56.027344 5.988281 57.199219 5.292969 C 58.070312 4.769531 59.0625 4.445312 60.082031 4.445312 Z M 60.082031 4.445312 "/>
<path style=" stroke:none;fill-rule:nonzero;fill:rgb(0%,0%,0%);fill-opacity:1;" d="M 60.082031 10.664062 C 61.453125 10.664062 62.769531 11.359375 62.769531 12.878906 C 62.769531 14.644531 61.402344 15.886719 60.234375 16.585938 C 59.363281 17.105469 58.367188 17.429688 57.347656 17.429688 C 55.980469 17.429688 54.660156 16.734375 54.660156 15.214844 C 54.660156 13.449219 56.027344 12.207031 57.199219 11.511719 C 58.070312 10.988281 59.0625 10.664062 60.082031 10.664062 Z M 60.082031 10.664062 "/>
<path style=" stroke:none;fill-rule:nonzero;fill:rgb(0%,0%,0%);fill-opacity:1;" d="M 60.082031 16.882812 C 61.453125 16.882812 62.769531 17.578125 62.769531 19.097656 C 62.769531 20.863281 61.402344 22.105469 60.234375 22.800781 C 59.363281 23.324219 58.367188 23.648438 57.347656 23.648438 C 55.980469 23.648438 54.660156 22.953125 54.660156 21.433594 C 54.660156 19.667969 56.027344 18.425781 57.199219 17.730469 C 58.070312 17.207031 59.0625 16.882812 60.082031 16.882812 Z M 60.082031 16.882812 "/>
<path style=" stroke:none;fill-rule:nonzero;fill:rgb(0%,0%,0%);fill-opacity:1;" d="M 60.082031 23.101562 C 61.453125 23.101562 62.769531 23.796875 62.769531 25.316406 C 62.769531 27.082031 61.402344 28.324219 60.234375 29.019531 C 59.363281 29.542969 58.367188 29.867188 57.347656 29.867188 C 55.980469 29.867188 54.660156 29.171875 54.660156 27.652344 C 54.660156 25.886719 56.027344 24.644531 57.199219 23.945312 C 58.070312 23.425781 59.0625 23.101562 60.082031 23.101562 Z M 60.082031 23.101562 "/>
</g>
</svg>
