<?xml version="1.0" encoding="UTF-8"?>
<svg xmlns="http://www.w3.org/2000/svg" xmlns:xlink="http://www.w3.org/1999/xlink" width="74.549567pt" height="61.958594pt" viewBox="0 0 74.549567 61.958594" version="1.1">
<g id="surface1">
<path style="fill:none;stroke-width:0.1;stroke-linecap:round;stroke-linejoin:round;stroke:rgb(0%,0%,0%);stroke-opacity:1;stroke-miterlimit:4;" d="M 0.049863 -0.000287501 L 9.666998 -0.000287501 " transform="matrix(6.218149,0,0,6.218149,4.561038,40.517413)"/>
<path style="fill:none;stroke-width:0.1;stroke-linecap:round;stroke-linejoin:round;stroke:rgb(0%,0%,0%);stroke-opacity:1;stroke-miterlimit:4;" d="M 0.049863 0.000244052 L 9.666998 0.000244052 " transform="matrix(6.218149,0,0,6.218149,4.561038,34.299264)"/>
<path style="fill:none;stroke-width:0.1;stroke-linecap:round;stroke-linejoin:round;stroke:rgb(0%,0%,0%);stroke-opacity:1;stroke-miterlimit:4;" d="M 0.049863 0.000147403 L 9.666998 0.000147403 " transform="matrix(6.218149,0,0,6.218149,4.561038,28.081115)"/>
<path style="fill:none;stroke-width:0.1;stroke-linecap:round;stroke-linejoin:round;stroke:rgb(0%,0%,0%);stroke-opacity:1;stroke-miterlimit:4;" d="M 0.049863 0.0000507548 L 9.666998 0.0000507548 " transform="matrix(6.218149,0,0,6.218149,4.561038,21.862966)"/>
<path style="fill:none;stroke-width:0.1;stroke-linecap:round;stroke-linejoin:round;stroke:rgb(0%,0%,0%);stroke-opacity:1;stroke-miterlimit:4;" d="M 0.049863 -0.0000458938 L 9.666998 -0.0000458938 " transform="matrix(6.218149,0,0,6.218149,4.561038,15.644817)"/>
<path style=" stroke:none;fill-rule:nonzero;fill:rgb(0%,0%,0%);fill-opacity:1;" d="M 44.910156 46.113281 L 55.832031 46.113281 C 56.175781 46.113281 56.453125 46.390625 56.453125 46.734375 C 56.453125 47.078125 56.175781 47.355469 55.832031 47.355469 L 44.910156 47.355469 C 44.566406 47.355469 44.289062 47.078125 44.289062 46.734375 C 44.289062 46.390625 44.566406 46.113281 44.910156 46.113281 Z M 44.910156 46.113281 "/>
<path style=" stroke:none;fill-rule:nonzero;fill:rgb(0%,0%,0%);fill-opacity:1;" d="M 42.671875 45.167969 C 42.671875 45.417969 42.472656 45.640625 42.222656 45.640625 C 41.976562 45.640625 41.75 45.417969 41.75 45.167969 L 41.75 41.5625 L 39.6875 42.332031 L 39.6875 46.261719 C 39.6875 46.511719 39.464844 46.734375 39.214844 46.734375 C 38.964844 46.734375 38.765625 46.511719 38.765625 46.261719 L 38.765625 42.65625 L 37.972656 42.953125 C 37.921875 42.980469 37.847656 42.980469 37.796875 42.980469 C 37.523438 42.980469 37.300781 42.757812 37.300781 42.480469 L 37.300781 40.988281 C 37.300781 40.789062 37.425781 40.59375 37.621094 40.515625 L 38.765625 40.121094 L 38.765625 36.140625 L 37.972656 36.414062 C 37.921875 36.4375 37.847656 36.4375 37.796875 36.4375 C 37.523438 36.4375 37.300781 36.214844 37.300781 35.941406 L 37.300781 34.449219 C 37.300781 34.25 37.425781 34.074219 37.621094 34 L 38.765625 33.578125 L 38.765625 29.648438 C 38.765625 29.398438 38.964844 29.175781 39.214844 29.175781 C 39.464844 29.175781 39.6875 29.398438 39.6875 29.648438 L 39.6875 33.253906 L 41.75 32.484375 L 41.75 28.554688 C 41.75 28.304688 41.976562 28.082031 42.222656 28.082031 C 42.472656 28.082031 42.671875 28.304688 42.671875 28.554688 L 42.671875 32.160156 L 43.46875 31.863281 C 43.519531 31.835938 43.59375 31.835938 43.640625 31.835938 C 43.914062 31.835938 44.140625 32.0625 44.140625 32.335938 L 44.140625 33.828125 C 44.140625 34.027344 44.015625 34.226562 43.816406 34.300781 L 42.671875 34.695312 L 42.671875 38.675781 L 43.46875 38.402344 C 43.519531 38.378906 43.59375 38.378906 43.640625 38.378906 C 43.914062 38.378906 44.140625 38.601562 44.140625 38.875 L 44.140625 40.367188 C 44.140625 40.566406 44.015625 40.742188 43.816406 40.816406 L 42.671875 41.238281 Z M 39.6875 35.792969 L 39.6875 39.769531 L 41.75 39.023438 L 41.75 35.046875 Z M 39.6875 35.792969 "/>
<path style=" stroke:none;fill-rule:nonzero;fill:rgb(0%,0%,0%);fill-opacity:1;" d="M 34.589844 51.386719 C 34.589844 51.636719 34.390625 51.859375 34.140625 51.859375 C 33.890625 51.859375 33.667969 51.636719 33.667969 51.386719 L 33.667969 47.78125 L 31.605469 48.550781 L 31.605469 52.480469 C 31.605469 52.730469 31.378906 52.953125 31.132812 52.953125 C 30.882812 52.953125 30.683594 52.730469 30.683594 52.480469 L 30.683594 48.875 L 29.886719 49.171875 C 29.835938 49.199219 29.761719 49.199219 29.714844 49.199219 C 29.441406 49.199219 29.214844 48.972656 29.214844 48.699219 L 29.214844 47.207031 C 29.214844 47.007812 29.339844 46.808594 29.539062 46.734375 L 30.683594 46.335938 L 30.683594 42.359375 L 29.886719 42.632812 C 29.835938 42.65625 29.761719 42.65625 29.714844 42.65625 C 29.441406 42.65625 29.214844 42.433594 29.214844 42.160156 L 29.214844 40.667969 C 29.214844 40.46875 29.339844 40.292969 29.539062 40.21875 L 30.683594 39.796875 L 30.683594 35.867188 C 30.683594 35.617188 30.882812 35.394531 31.132812 35.394531 C 31.378906 35.394531 31.605469 35.617188 31.605469 35.867188 L 31.605469 39.472656 L 33.667969 38.703125 L 33.667969 34.773438 C 33.667969 34.523438 33.890625 34.300781 34.140625 34.300781 C 34.390625 34.300781 34.589844 34.523438 34.589844 34.773438 L 34.589844 38.378906 L 35.382812 38.078125 C 35.433594 38.054688 35.507812 38.054688 35.558594 38.054688 C 35.832031 38.054688 36.054688 38.277344 36.054688 38.550781 L 36.054688 40.042969 C 36.054688 40.242188 35.929688 40.441406 35.734375 40.515625 L 34.589844 40.914062 L 34.589844 44.894531 L 35.382812 44.621094 C 35.433594 44.597656 35.507812 44.597656 35.558594 44.597656 C 35.832031 44.597656 36.054688 44.820312 36.054688 45.09375 L 36.054688 46.585938 C 36.054688 46.785156 35.929688 46.960938 35.734375 47.035156 L 34.589844 47.457031 Z M 31.605469 42.011719 L 31.605469 45.988281 L 33.667969 45.242188 L 33.667969 41.261719 Z M 31.605469 42.011719 "/>
<path style=" stroke:none;fill-rule:nonzero;fill:rgb(0%,0%,0%);fill-opacity:1;" d="M 53.867188 9.425781 L 54.175781 9.425781 C 54.3125 9.425781 54.425781 9.539062 54.425781 9.675781 L 54.425781 48.4375 C 54.425781 48.574219 54.3125 48.6875 54.175781 48.6875 L 53.867188 48.6875 C 53.730469 48.6875 53.617188 48.574219 53.617188 48.4375 L 53.617188 9.675781 C 53.617188 9.539062 53.730469 9.425781 53.867188 9.425781 Z M 53.867188 9.425781 "/>
<path style=" stroke:none;fill-rule:nonzero;fill:rgb(0%,0%,0%);fill-opacity:1;" d="M 16.152344 50.09375 L 16.003906 50.09375 C 13.316406 50.09375 11.152344 47.90625 11.152344 45.195312 C 11.152344 43.75 12.46875 42.632812 13.9375 42.632812 C 15.28125 42.632812 16.300781 43.800781 16.300781 45.195312 C 16.300781 46.488281 15.230469 47.554688 13.9375 47.554688 C 13.664062 47.554688 13.414062 47.507812 13.167969 47.40625 C 13.8125 48.378906 14.859375 49.023438 16.078125 49.023438 L 16.175781 49.023438 Z M 21 39.347656 C 22.691406 38.75 23.8125 36.984375 23.8125 35.269531 C 23.8125 33.03125 22.171875 30.816406 19.507812 30.542969 C 20.105469 33.429688 20.652344 36.289062 21 39.347656 Z M 11.375 33.601562 C 11.375 36.960938 14.585938 39.746094 17.941406 39.746094 C 18.640625 39.746094 19.308594 39.695312 19.980469 39.597656 C 19.632812 36.4375 19.0625 33.503906 18.414062 30.542969 C 16.449219 30.742188 15.332031 32.0625 15.332031 33.503906 C 15.332031 34.597656 15.953125 35.765625 17.34375 36.5625 C 17.46875 36.6875 17.519531 36.8125 17.519531 36.9375 C 17.519531 37.210938 17.269531 37.484375 16.972656 37.484375 C 16.898438 37.484375 16.824219 37.457031 16.75 37.433594 C 14.757812 36.363281 13.839844 34.574219 13.839844 32.832031 C 13.839844 30.644531 15.28125 28.503906 17.816406 27.933594 C 17.46875 26.488281 17.097656 25.023438 16.675781 23.578125 C 14.011719 26.589844 11.375 29.625 11.375 33.601562 Z M 17.867188 40.816406 C 13.191406 40.816406 9.585938 36.539062 9.585938 31.511719 C 9.585938 27.109375 12.84375 23.902344 15.753906 20.542969 C 15.28125 19.003906 14.832031 17.4375 14.632812 15.820312 C 14.484375 14.527344 14.460938 13.230469 14.460938 11.9375 C 14.460938 9.078125 15.828125 6.367188 18.167969 4.675781 C 18.316406 4.550781 18.515625 4.550781 18.664062 4.675781 C 20.429688 6.765625 21.972656 10.769531 21.972656 13.582031 C 21.972656 17.136719 19.832031 19.921875 17.496094 22.632812 C 18.015625 24.324219 18.464844 26.066406 18.886719 27.78125 C 18.988281 27.78125 19.113281 27.757812 19.210938 27.757812 C 23.066406 27.757812 25.578125 30.941406 25.578125 34.25 C 25.578125 36.140625 24.757812 38.078125 22.917969 39.472656 C 22.371094 39.894531 21.746094 40.167969 21.101562 40.367188 C 21.175781 41.238281 21.226562 42.109375 21.226562 42.980469 C 21.226562 43.453125 21.199219 43.949219 21.175781 44.421875 C 21 47.382812 18.988281 50.019531 16.152344 50.09375 L 16.175781 49.023438 C 18.488281 48.972656 19.980469 46.734375 20.132812 44.273438 C 20.15625 43.824219 20.179688 43.351562 20.179688 42.90625 C 20.179688 42.132812 20.15625 41.386719 20.082031 40.617188 C 19.359375 40.742188 18.640625 40.816406 17.867188 40.816406 Z M 20.179688 11.515625 C 20.179688 10.148438 20.082031 9.550781 19.683594 8.308594 C 17.222656 9.5 15.652344 12.011719 15.652344 14.75 C 15.652344 16.589844 16.101562 18.058594 16.550781 19.574219 C 18.539062 17.160156 20.179688 14.648438 20.179688 11.515625 Z M 20.179688 11.515625 "/>
<path style=" stroke:none;fill-rule:nonzero;fill:rgb(0%,0%,0%);fill-opacity:1;" d="M 51.738281 27.808594 C 53.105469 27.808594 54.425781 28.503906 54.425781 30.019531 C 54.425781 31.789062 53.054688 33.03125 51.886719 33.726562 C 51.015625 34.25 50.023438 34.574219 49.003906 34.574219 C 47.632812 34.574219 46.316406 33.875 46.316406 32.359375 C 46.316406 30.59375 47.683594 29.351562 48.851562 28.652344 C 49.722656 28.132812 50.71875 27.808594 51.738281 27.808594 Z M 51.738281 27.808594 "/>
<path style=" stroke:none;fill-rule:nonzero;fill:rgb(0%,0%,0%);fill-opacity:1;" d="M 51.738281 34.027344 C 53.105469 34.027344 54.425781 34.722656 54.425781 36.238281 C 54.425781 38.003906 53.054688 39.25 51.886719 39.945312 C 51.015625 40.46875 50.023438 40.789062 49.003906 40.789062 C 47.632812 40.789062 46.316406 40.09375 46.316406 38.578125 C 46.316406 36.8125 47.683594 35.566406 48.851562 34.871094 C 49.722656 34.347656 50.71875 34.027344 51.738281 34.027344 Z M 51.738281 34.027344 "/>
<path style=" stroke:none;fill-rule:nonzero;fill:rgb(0%,0%,0%);fill-opacity:1;" d="M 51.738281 40.242188 C 53.105469 40.242188 54.425781 40.941406 54.425781 42.457031 C 54.425781 44.222656 53.054688 45.46875 51.886719 46.164062 C 51.015625 46.6875 50.023438 47.007812 49.003906 47.007812 C 47.632812 47.007812 46.316406 46.3125 46.316406 44.796875 C 46.316406 43.03125 47.683594 41.785156 48.851562 41.089844 C 49.722656 40.566406 50.71875 40.242188 51.738281 40.242188 Z M 51.738281 40.242188 "/>
<path style=" stroke:none;fill-rule:nonzero;fill:rgb(0%,0%,0%);fill-opacity:1;" d="M 51.738281 46.460938 C 53.105469 46.460938 54.425781 47.160156 54.425781 48.675781 C 54.425781 50.441406 53.054688 51.683594 51.886719 52.382812 C 51.015625 52.902344 50.023438 53.226562 49.003906 53.226562 C 47.632812 53.226562 46.316406 52.53125 46.316406 51.011719 C 46.316406 49.246094 47.683594 48.003906 48.851562 47.308594 C 49.722656 46.785156 50.71875 46.460938 51.738281 46.460938 Z M 51.738281 46.460938 "/>
</g>
</svg>
