<?xml version="1.0" encoding="UTF-8"?>
<svg xmlns="http://www.w3.org/2000/svg" xmlns:xlink="http://www.w3.org/1999/xlink" width="74.931468pt" height="53.50365pt" viewBox="0 0 74.931468 53.50365" version="1.1">
<g id="surface1">
<path style="fill:none;stroke-width:0.1;stroke-linecap:round;stroke-linejoin:round;stroke:rgb(0%,0%,0%);stroke-opacity:1;stroke-miterlimit:4;" d="M 0.049863 0.000313193 L 9.724793 0.000313193 " transform="matrix(6.218149,0,0,6.218149,4.561038,44.931646)"/>
<path style="fill:none;stroke-width:0.1;stroke-linecap:round;stroke-linejoin:round;stroke:rgb(0%,0%,0%);stroke-opacity:1;stroke-miterlimit:4;" d="M 0.049863 0.000216544 L 9.724793 0.000216544 " transform="matrix(6.218149,0,0,6.218149,4.561038,38.713497)"/>
<path style="fill:none;stroke-width:0.1;stroke-linecap:round;stroke-linejoin:round;stroke:rgb(0%,0%,0%);stroke-opacity:1;stroke-miterlimit:4;" d="M 0.049863 0.000119896 L 9.724793 0.000119896 " transform="matrix(6.218149,0,0,6.218149,4.561038,32.495348)"/>
<path style="fill:none;stroke-width:0.1;stroke-linecap:round;stroke-linejoin:round;stroke:rgb(0%,0%,0%);stroke-opacity:1;stroke-miterlimit:4;" d="M 0.049863 0.0000232472 L 9.724793 0.0000232472 " transform="matrix(6.218149,0,0,6.218149,4.561038,26.277199)"/>
<path style="fill:none;stroke-width:0.1;stroke-linecap:round;stroke-linejoin:round;stroke:rgb(0%,0%,0%);stroke-opacity:1;stroke-miterlimit:4;" d="M 0.049863 -0.0000736398 L 9.724793 -0.0000736398 " transform="matrix(6.218149,0,0,6.218149,4.561038,20.059052)"/>
<path style=" stroke:none;fill-rule:nonzero;fill:rgb(0%,0%,0%);fill-opacity:1;" d="M 45.269531 13.21875 L 56.1875 13.21875 C 56.53125 13.21875 56.8125 13.496094 56.8125 13.839844 C 56.8125 14.183594 56.53125 14.460938 56.1875 14.460938 L 45.269531 14.460938 C 44.925781 14.460938 44.644531 14.183594 44.644531 13.839844 C 44.644531 13.496094 44.925781 13.21875 45.269531 13.21875 Z M 45.269531 13.21875 "/>
<path style=" stroke:none;fill-rule:nonzero;fill:rgb(0%,0%,0%);fill-opacity:1;" d="M 46.921875 15 L 47.234375 15 C 47.371094 15 47.484375 15.109375 47.484375 15.246094 L 47.484375 38.464844 C 47.484375 38.601562 47.371094 38.714844 47.234375 38.714844 L 46.921875 38.714844 C 46.785156 38.714844 46.675781 38.601562 46.675781 38.464844 L 46.675781 15.246094 C 46.675781 15.109375 46.785156 15 46.921875 15 Z M 46.921875 15 "/>
<path style=" stroke:none;fill-rule:nonzero;fill:rgb(0%,0%,0%);fill-opacity:1;" d="M 35.324219 21.601562 C 35.324219 21.851562 35.125 22.074219 34.878906 22.074219 C 34.628906 22.074219 34.40625 21.851562 34.40625 21.601562 L 34.40625 17.996094 L 32.339844 18.765625 L 32.339844 22.695312 C 32.339844 22.945312 32.117188 23.167969 31.867188 23.167969 C 31.617188 23.167969 31.417969 22.945312 31.417969 22.695312 L 31.417969 19.089844 L 30.625 19.386719 C 30.574219 19.414062 30.5 19.414062 30.449219 19.414062 C 30.175781 19.414062 29.953125 19.1875 29.953125 18.914062 L 29.953125 17.421875 C 29.953125 17.222656 30.078125 17.023438 30.277344 16.949219 L 31.417969 16.550781 L 31.417969 12.574219 L 30.625 12.847656 C 30.574219 12.871094 30.5 12.871094 30.449219 12.871094 C 30.175781 12.871094 29.953125 12.648438 29.953125 12.375 L 29.953125 10.882812 C 29.953125 10.683594 30.078125 10.507812 30.277344 10.433594 L 31.417969 10.011719 L 31.417969 6.082031 C 31.417969 5.832031 31.617188 5.609375 31.867188 5.609375 C 32.117188 5.609375 32.339844 5.832031 32.339844 6.082031 L 32.339844 9.6875 L 34.40625 8.917969 L 34.40625 4.984375 C 34.40625 4.738281 34.628906 4.515625 34.878906 4.515625 C 35.125 4.515625 35.324219 4.738281 35.324219 4.984375 L 35.324219 8.59375 L 36.121094 8.292969 C 36.171875 8.269531 36.246094 8.269531 36.292969 8.269531 C 36.566406 8.269531 36.792969 8.492188 36.792969 8.765625 L 36.792969 10.257812 C 36.792969 10.457031 36.667969 10.65625 36.46875 10.730469 L 35.324219 11.128906 L 35.324219 15.109375 L 36.121094 14.835938 C 36.171875 14.8125 36.246094 14.8125 36.292969 14.8125 C 36.566406 14.8125 36.792969 15.035156 36.792969 15.308594 L 36.792969 16.800781 C 36.792969 17 36.667969 17.175781 36.46875 17.25 L 35.324219 17.671875 Z M 32.339844 12.222656 L 32.339844 16.203125 L 34.40625 15.457031 L 34.40625 11.476562 Z M 32.339844 12.222656 "/>
<path style=" stroke:none;fill-rule:nonzero;fill:rgb(0%,0%,0%);fill-opacity:1;" d="M 23.390625 29.386719 C 23.390625 28.691406 23.960938 28.117188 24.65625 28.117188 C 25.355469 28.117188 25.925781 28.691406 25.925781 29.386719 C 25.925781 30.082031 25.355469 30.65625 24.65625 30.65625 C 23.960938 30.65625 23.390625 30.082031 23.390625 29.386719 Z M 23.390625 23.167969 C 23.390625 22.472656 23.960938 21.898438 24.65625 21.898438 C 25.355469 21.898438 25.925781 22.472656 25.925781 23.167969 C 25.925781 23.863281 25.355469 24.4375 24.65625 24.4375 C 23.960938 24.4375 23.390625 23.863281 23.390625 23.167969 Z M 15.304688 19.734375 C 19.585938 19.734375 22.59375 21.925781 22.59375 25.980469 C 22.59375 32.519531 16.050781 36.277344 9.757812 38.9375 C 9.683594 39.011719 9.609375 39.035156 9.535156 39.035156 C 9.363281 39.035156 9.210938 38.886719 9.210938 38.714844 C 9.210938 38.640625 9.238281 38.5625 9.3125 38.488281 C 14.335938 35.554688 19.558594 31.898438 19.558594 26.226562 C 19.558594 23.242188 17.992188 20.382812 15.304688 20.382812 C 13.464844 20.382812 12.097656 21.726562 11.476562 23.515625 C 11.75 23.390625 12.023438 23.316406 12.320312 23.316406 C 13.6875 23.316406 14.808594 24.4375 14.808594 25.804688 C 14.808594 27.246094 13.714844 28.441406 12.320312 28.441406 C 10.828125 28.441406 9.535156 27.273438 9.535156 25.804688 C 9.535156 22.496094 12.074219 19.734375 15.304688 19.734375 Z M 15.304688 19.734375 "/>
<path style=" stroke:none;fill-rule:nonzero;fill:rgb(0%,0%,0%);fill-opacity:1;" d="M 52.097656 10.457031 C 53.464844 10.457031 54.78125 11.15625 54.78125 12.671875 C 54.78125 14.4375 53.414062 15.679688 52.246094 16.378906 C 51.375 16.898438 50.378906 17.222656 49.359375 17.222656 C 47.992188 17.222656 46.675781 16.527344 46.675781 15.011719 C 46.675781 13.242188 48.042969 12 49.210938 11.304688 C 50.082031 10.78125 51.078125 10.457031 52.097656 10.457031 Z M 52.097656 10.457031 "/>
<path style=" stroke:none;fill-rule:nonzero;fill:rgb(0%,0%,0%);fill-opacity:1;" d="M 44.390625 13.566406 C 45.757812 13.566406 47.078125 14.265625 47.078125 15.78125 C 47.078125 17.546875 45.710938 18.789062 44.539062 19.488281 C 43.667969 20.007812 42.675781 20.332031 41.65625 20.332031 C 40.285156 20.332031 38.96875 19.636719 38.96875 18.117188 C 38.96875 16.351562 40.335938 15.109375 41.503906 14.414062 C 42.375 13.890625 43.371094 13.566406 44.390625 13.566406 Z M 44.390625 13.566406 "/>
</g>
</svg>
