<?xml version="1.0" encoding="UTF-8"?>
<svg xmlns="http://www.w3.org/2000/svg" xmlns:xlink="http://www.w3.org/1999/xlink" width="71.760022pt" height="69.111784pt" viewBox="0 0 71.760022 69.111784" version="1.1">
<g id="surface1">
<path style="fill:none;stroke-width:0.1;stroke-linecap:round;stroke-linejoin:round;stroke:rgb(0%,0%,0%);stroke-opacity:1;stroke-miterlimit:4;" d="M 0.049863 0.000289441 L 9.24736 0.000289441 " transform="matrix(6.218149,0,0,6.218149,4.561038,50.34195)"/>
<path style="fill:none;stroke-width:0.1;stroke-linecap:round;stroke-linejoin:round;stroke:rgb(0%,0%,0%);stroke-opacity:1;stroke-miterlimit:4;" d="M 0.049863 0.000192316 L 9.24736 0.000192316 " transform="matrix(6.218149,0,0,6.218149,4.561038,44.123804)"/>
<path style="fill:none;stroke-width:0.1;stroke-linecap:round;stroke-linejoin:round;stroke:rgb(0%,0%,0%);stroke-opacity:1;stroke-miterlimit:4;" d="M 0.049863 0.0000956673 L 9.24736 0.0000956673 " transform="matrix(6.218149,0,0,6.218149,4.561038,37.905655)"/>
<path style="fill:none;stroke-width:0.1;stroke-linecap:round;stroke-linejoin:round;stroke:rgb(0%,0%,0%);stroke-opacity:1;stroke-miterlimit:4;" d="M 0.049863 -0.000000981293 L 9.24736 -0.000000981293 " transform="matrix(6.218149,0,0,6.218149,4.561038,31.687506)"/>
<path style="fill:none;stroke-width:0.1;stroke-linecap:round;stroke-linejoin:round;stroke:rgb(0%,0%,0%);stroke-opacity:1;stroke-miterlimit:4;" d="M 0.049863 -0.0000976299 L 9.24736 -0.0000976299 " transform="matrix(6.218149,0,0,6.218149,4.561038,25.469357)"/>
<path style=" stroke:none;fill-rule:nonzero;fill:rgb(0%,0%,0%);fill-opacity:1;" d="M 42.300781 12.410156 L 53.21875 12.410156 C 53.5625 12.410156 53.839844 12.691406 53.839844 13.03125 C 53.839844 13.375 53.5625 13.65625 53.21875 13.65625 L 42.300781 13.65625 C 41.957031 13.65625 41.675781 13.375 41.675781 13.03125 C 41.675781 12.691406 41.957031 12.410156 42.300781 12.410156 Z M 42.300781 12.410156 "/>
<path style=" stroke:none;fill-rule:nonzero;fill:rgb(0%,0%,0%);fill-opacity:1;" d="M 42.300781 18.628906 L 53.21875 18.628906 C 53.5625 18.628906 53.839844 18.90625 53.839844 19.25 C 53.839844 19.59375 53.5625 19.871094 53.21875 19.871094 L 42.300781 19.871094 C 41.957031 19.871094 41.675781 19.59375 41.675781 19.25 C 41.675781 18.90625 41.957031 18.628906 42.300781 18.628906 Z M 42.300781 18.628906 "/>
<path style=" stroke:none;fill-rule:nonzero;fill:rgb(0%,0%,0%);fill-opacity:1;" d="M 43.953125 11.082031 L 44.265625 11.082031 C 44.402344 11.082031 44.511719 11.191406 44.511719 11.328125 L 44.511719 43.875 C 44.511719 44.011719 44.402344 44.125 44.265625 44.125 L 43.953125 44.125 C 43.816406 44.125 43.703125 44.011719 43.703125 43.875 L 43.703125 11.328125 C 43.703125 11.191406 43.816406 11.082031 43.953125 11.082031 Z M 43.953125 11.082031 "/>
<path style=" stroke:none;fill-rule:nonzero;fill:rgb(0%,0%,0%);fill-opacity:1;" d="M 37.226562 15.121094 L 37.199219 16.765625 L 37.199219 17.039062 C 37.199219 17.585938 37.226562 18.132812 37.300781 18.679688 C 38.417969 17.734375 39.613281 16.6875 39.613281 15.222656 C 39.613281 14.402344 39.265625 13.554688 38.542969 13.554688 C 37.773438 13.554688 37.25 14.300781 37.226562 15.121094 Z M 36.179688 19.574219 L 35.882812 4.773438 C 36.082031 4.652344 36.328125 4.578125 36.554688 4.578125 C 36.777344 4.578125 37.027344 4.652344 37.226562 4.773438 L 37.050781 13.355469 C 37.671875 12.835938 38.492188 12.511719 39.3125 12.511719 C 40.609375 12.511719 41.527344 13.703125 41.527344 15.046875 C 41.527344 17.039062 39.390625 17.957031 37.871094 19.25 C 37.5 19.574219 37.273438 20.195312 36.753906 20.195312 C 36.429688 20.195312 36.179688 19.921875 36.179688 19.574219 Z M 36.179688 19.574219 "/>
<path style=" stroke:none;fill-rule:nonzero;fill:rgb(0%,0%,0%);fill-opacity:1;" d="M 30.632812 21.339844 L 30.609375 22.980469 L 30.609375 23.253906 C 30.609375 23.804688 30.632812 24.351562 30.707031 24.898438 C 31.828125 23.953125 33.023438 22.90625 33.023438 21.441406 C 33.023438 20.621094 32.671875 19.773438 31.953125 19.773438 C 31.179688 19.773438 30.660156 20.519531 30.632812 21.339844 Z M 29.589844 25.792969 L 29.289062 10.992188 C 29.488281 10.871094 29.738281 10.792969 29.960938 10.792969 C 30.1875 10.792969 30.433594 10.871094 30.632812 10.992188 L 30.460938 19.574219 C 31.082031 19.050781 31.902344 18.730469 32.722656 18.730469 C 34.015625 18.730469 34.9375 19.921875 34.9375 21.265625 C 34.9375 23.253906 32.796875 24.175781 31.28125 25.46875 C 30.90625 25.792969 30.683594 26.414062 30.160156 26.414062 C 29.835938 26.414062 29.589844 26.140625 29.589844 25.792969 Z M 29.589844 25.792969 "/>
<path style=" stroke:none;fill-rule:nonzero;fill:rgb(0%,0%,0%);fill-opacity:1;" d="M 16.152344 59.917969 L 16.003906 59.917969 C 13.316406 59.917969 11.152344 57.730469 11.152344 55.019531 C 11.152344 53.574219 12.46875 52.457031 13.9375 52.457031 C 15.28125 52.457031 16.300781 53.625 16.300781 55.019531 C 16.300781 56.3125 15.230469 57.382812 13.9375 57.382812 C 13.664062 57.382812 13.414062 57.332031 13.167969 57.230469 C 13.8125 58.203125 14.859375 58.847656 16.078125 58.847656 L 16.175781 58.847656 Z M 21 49.171875 C 22.691406 48.574219 23.8125 46.808594 23.8125 45.09375 C 23.8125 42.855469 22.171875 40.640625 19.507812 40.367188 C 20.105469 43.253906 20.652344 46.113281 21 49.171875 Z M 11.375 43.425781 C 11.375 46.785156 14.585938 49.570312 17.941406 49.570312 C 18.640625 49.570312 19.308594 49.519531 19.980469 49.421875 C 19.632812 46.261719 19.0625 43.328125 18.414062 40.367188 C 16.449219 40.566406 15.332031 41.886719 15.332031 43.328125 C 15.332031 44.421875 15.953125 45.589844 17.34375 46.386719 C 17.46875 46.511719 17.519531 46.636719 17.519531 46.761719 C 17.519531 47.035156 17.269531 47.308594 16.972656 47.308594 C 16.898438 47.308594 16.824219 47.28125 16.75 47.257812 C 14.757812 46.1875 13.839844 44.398438 13.839844 42.65625 C 13.839844 40.46875 15.28125 38.328125 17.816406 37.757812 C 17.46875 36.3125 17.097656 34.847656 16.675781 33.402344 C 14.011719 36.414062 11.375 39.449219 11.375 43.425781 Z M 17.867188 50.640625 C 13.191406 50.640625 9.585938 46.363281 9.585938 41.339844 C 9.585938 36.9375 12.84375 33.726562 15.753906 30.371094 C 15.28125 28.828125 14.832031 27.261719 14.632812 25.644531 C 14.484375 24.351562 14.460938 23.058594 14.460938 21.761719 C 14.460938 18.902344 15.828125 16.191406 18.167969 14.5 C 18.316406 14.375 18.515625 14.375 18.664062 14.5 C 20.429688 16.589844 21.972656 20.59375 21.972656 23.40625 C 21.972656 26.960938 19.832031 29.746094 17.496094 32.457031 C 18.015625 34.148438 18.464844 35.890625 18.886719 37.605469 C 18.988281 37.605469 19.113281 37.582031 19.210938 37.582031 C 23.066406 37.582031 25.578125 40.765625 25.578125 44.074219 C 25.578125 45.964844 24.757812 47.90625 22.917969 49.296875 C 22.371094 49.71875 21.746094 49.992188 21.101562 50.191406 C 21.175781 51.0625 21.226562 51.933594 21.226562 52.804688 C 21.226562 53.277344 21.199219 53.773438 21.175781 54.246094 C 21 57.207031 18.988281 59.84375 16.152344 59.917969 L 16.175781 58.847656 C 18.488281 58.796875 19.980469 56.558594 20.132812 54.097656 C 20.15625 53.648438 20.179688 53.175781 20.179688 52.730469 C 20.179688 51.957031 20.15625 51.210938 20.082031 50.441406 C 19.359375 50.566406 18.640625 50.640625 17.867188 50.640625 Z M 20.179688 21.339844 C 20.179688 19.972656 20.082031 19.375 19.683594 18.132812 C 17.222656 19.324219 15.652344 21.839844 15.652344 24.574219 C 15.652344 26.414062 16.101562 27.882812 16.550781 29.398438 C 18.539062 26.988281 20.179688 24.472656 20.179688 21.339844 Z M 20.179688 21.339844 "/>
<path style=" stroke:none;fill-rule:nonzero;fill:rgb(0%,0%,0%);fill-opacity:1;" d="M 49.125 6.542969 C 50.496094 6.542969 51.8125 7.238281 51.8125 8.753906 C 51.8125 10.519531 50.445312 11.765625 49.277344 12.460938 C 48.40625 12.984375 47.410156 13.308594 46.390625 13.308594 C 45.023438 13.308594 43.703125 12.609375 43.703125 11.09375 C 43.703125 9.328125 45.074219 8.082031 46.242188 7.386719 C 47.113281 6.863281 48.105469 6.542969 49.125 6.542969 Z M 49.125 6.542969 "/>
<path style=" stroke:none;fill-rule:nonzero;fill:rgb(0%,0%,0%);fill-opacity:1;" d="M 49.125 12.757812 C 50.496094 12.757812 51.8125 13.457031 51.8125 14.972656 C 51.8125 16.738281 50.445312 17.984375 49.277344 18.679688 C 48.40625 19.203125 47.410156 19.523438 46.390625 19.523438 C 45.023438 19.523438 43.703125 18.828125 43.703125 17.3125 C 43.703125 15.546875 45.074219 14.300781 46.242188 13.605469 C 47.113281 13.082031 48.105469 12.757812 49.125 12.757812 Z M 49.125 12.757812 "/>
<path style=" stroke:none;fill-rule:nonzero;fill:rgb(0%,0%,0%);fill-opacity:1;" d="M 49.125 18.976562 C 50.496094 18.976562 51.8125 19.675781 51.8125 21.191406 C 51.8125 22.957031 50.445312 24.199219 49.277344 24.898438 C 48.40625 25.417969 47.410156 25.742188 46.390625 25.742188 C 45.023438 25.742188 43.703125 25.046875 43.703125 23.527344 C 43.703125 21.761719 45.074219 20.519531 46.242188 19.824219 C 47.113281 19.300781 48.105469 18.976562 49.125 18.976562 Z M 49.125 18.976562 "/>
</g>
</svg>
