<?xml version="1.0" encoding="UTF-8"?>
<svg xmlns="http://www.w3.org/2000/svg" xmlns:xlink="http://www.w3.org/1999/xlink" width="76.583943pt" height="50.860191pt" viewBox="0 0 76.583943 50.860191" version="1.1">
<g id="surface1">
<path style="fill:none;stroke-width:0.1;stroke-linecap:round;stroke-linejoin:round;stroke:rgb(0%,0%,0%);stroke-opacity:1;stroke-miterlimit:4;" d="M 0.049863 0.0000610068 L 9.973561 0.0000610068 " transform="matrix(6.218149,0,0,6.218149,4.561038,32.409777)"/>
<path style="fill:none;stroke-width:0.1;stroke-linecap:round;stroke-linejoin:round;stroke:rgb(0%,0%,0%);stroke-opacity:1;stroke-miterlimit:4;" d="M 0.049863 -0.0000356418 L 9.973561 -0.0000356418 " transform="matrix(6.218149,0,0,6.218149,4.561038,26.191628)"/>
<path style="fill:none;stroke-width:0.1;stroke-linecap:round;stroke-linejoin:round;stroke:rgb(0%,0%,0%);stroke-opacity:1;stroke-miterlimit:4;" d="M 0.049863 -0.00013229 L 9.973561 -0.00013229 " transform="matrix(6.218149,0,0,6.218149,4.561038,19.973479)"/>
<path style="fill:none;stroke-width:0.1;stroke-linecap:round;stroke-linejoin:round;stroke:rgb(0%,0%,0%);stroke-opacity:1;stroke-miterlimit:4;" d="M 0.049863 -0.000228939 L 9.973561 -0.000228939 " transform="matrix(6.218149,0,0,6.218149,4.561038,13.75533)"/>
<path style="fill:none;stroke-width:0.1;stroke-linecap:round;stroke-linejoin:round;stroke:rgb(0%,0%,0%);stroke-opacity:1;stroke-miterlimit:4;" d="M 0.049863 0.000302495 L 9.973561 0.000302495 " transform="matrix(6.218149,0,0,6.218149,4.561038,7.537182)"/>
<path style=" stroke:none;fill-rule:nonzero;fill:rgb(0%,0%,0%);fill-opacity:1;" d="M 46.816406 38.007812 L 57.734375 38.007812 C 58.078125 38.007812 58.359375 38.285156 58.359375 38.628906 C 58.359375 38.972656 58.078125 39.25 57.734375 39.25 L 46.816406 39.25 C 46.472656 39.25 46.195312 38.972656 46.195312 38.628906 C 46.195312 38.285156 46.472656 38.007812 46.816406 38.007812 Z M 46.816406 38.007812 "/>
<path style=" stroke:none;fill-rule:nonzero;fill:rgb(0%,0%,0%);fill-opacity:1;" d="M 55.769531 4.429688 L 56.082031 4.429688 C 56.21875 4.429688 56.332031 4.539062 56.332031 4.675781 L 56.332031 37.222656 C 56.332031 37.359375 56.21875 37.472656 56.082031 37.472656 L 55.769531 37.472656 C 55.632812 37.472656 55.523438 37.359375 55.523438 37.222656 L 55.523438 4.675781 C 55.523438 4.539062 55.632812 4.429688 55.769531 4.429688 Z M 55.769531 4.429688 "/>
<path style=" stroke:none;fill-rule:nonzero;fill:rgb(0%,0%,0%);fill-opacity:1;" d="M 41.742188 25.171875 L 41.71875 26.8125 L 41.71875 27.085938 C 41.71875 27.632812 41.742188 28.179688 41.816406 28.730469 C 42.9375 27.785156 44.128906 26.738281 44.128906 25.269531 C 44.128906 24.449219 43.78125 23.605469 43.058594 23.605469 C 42.289062 23.605469 41.765625 24.351562 41.742188 25.171875 Z M 40.695312 29.625 L 40.398438 14.824219 C 40.597656 14.699219 40.847656 14.625 41.070312 14.625 C 41.292969 14.625 41.542969 14.699219 41.742188 14.824219 L 41.566406 23.40625 C 42.191406 22.882812 43.011719 22.558594 43.832031 22.558594 C 45.125 22.558594 46.042969 23.753906 46.042969 25.097656 C 46.042969 27.085938 43.90625 28.007812 42.386719 29.300781 C 42.015625 29.625 41.792969 30.246094 41.269531 30.246094 C 40.945312 30.246094 40.695312 29.972656 40.695312 29.625 Z M 40.695312 29.625 "/>
<path style=" stroke:none;fill-rule:nonzero;fill:rgb(0%,0%,0%);fill-opacity:1;" d="M 31.371094 31.390625 L 31.34375 33.03125 L 31.34375 33.304688 C 31.34375 33.851562 31.371094 34.398438 31.445312 34.945312 C 32.5625 34 33.757812 32.957031 33.757812 31.488281 C 33.757812 30.667969 33.410156 29.824219 32.6875 29.824219 C 31.917969 29.824219 31.394531 30.570312 31.371094 31.390625 Z M 30.324219 35.84375 L 30.027344 21.042969 C 30.226562 20.917969 30.472656 20.84375 30.699219 20.84375 C 30.921875 20.84375 31.171875 20.917969 31.371094 21.042969 L 31.195312 29.625 C 31.816406 29.101562 32.636719 28.777344 33.460938 28.777344 C 34.753906 28.777344 35.671875 29.972656 35.671875 31.316406 C 35.671875 33.304688 33.535156 34.226562 32.015625 35.519531 C 31.644531 35.84375 31.417969 36.464844 30.898438 36.464844 C 30.574219 36.464844 30.324219 36.191406 30.324219 35.84375 Z M 30.324219 35.84375 "/>
<path style=" stroke:none;fill-rule:nonzero;fill:rgb(0%,0%,0%);fill-opacity:1;" d="M 38.257812 37.609375 L 38.234375 39.25 L 38.234375 39.523438 C 38.234375 40.070312 38.257812 40.617188 38.335938 41.164062 C 39.453125 40.21875 40.648438 39.175781 40.648438 37.707031 C 40.648438 36.886719 40.300781 36.042969 39.578125 36.042969 C 38.808594 36.042969 38.285156 36.789062 38.257812 37.609375 Z M 37.214844 42.058594 L 36.917969 27.261719 C 37.117188 27.136719 37.363281 27.0625 37.589844 27.0625 C 37.8125 27.0625 38.0625 27.136719 38.257812 27.261719 L 38.085938 35.84375 C 38.707031 35.320312 39.527344 34.996094 40.347656 34.996094 C 41.640625 34.996094 42.5625 36.191406 42.5625 37.535156 C 42.5625 39.523438 40.421875 40.445312 38.90625 41.738281 C 38.535156 42.058594 38.308594 42.683594 37.785156 42.683594 C 37.464844 42.683594 37.214844 42.410156 37.214844 42.058594 Z M 37.214844 42.058594 "/>
<path style=" stroke:none;fill-rule:nonzero;fill:rgb(0%,0%,0%);fill-opacity:1;" d="M 23.390625 16.863281 C 23.390625 16.167969 23.960938 15.597656 24.65625 15.597656 C 25.355469 15.597656 25.925781 16.167969 25.925781 16.863281 C 25.925781 17.5625 25.355469 18.132812 24.65625 18.132812 C 23.960938 18.132812 23.390625 17.5625 23.390625 16.863281 Z M 23.390625 10.644531 C 23.390625 9.949219 23.960938 9.378906 24.65625 9.378906 C 25.355469 9.378906 25.925781 9.949219 25.925781 10.644531 C 25.925781 11.34375 25.355469 11.914062 24.65625 11.914062 C 23.960938 11.914062 23.390625 11.34375 23.390625 10.644531 Z M 15.304688 7.214844 C 19.585938 7.214844 22.59375 9.402344 22.59375 13.457031 C 22.59375 20 16.050781 23.753906 9.757812 26.414062 C 9.683594 26.488281 9.609375 26.515625 9.535156 26.515625 C 9.363281 26.515625 9.210938 26.367188 9.210938 26.191406 C 9.210938 26.117188 9.238281 26.042969 9.3125 25.96875 C 14.335938 23.03125 19.558594 19.375 19.558594 13.707031 C 19.558594 10.722656 17.992188 7.859375 15.304688 7.859375 C 13.464844 7.859375 12.097656 9.203125 11.476562 10.996094 C 11.75 10.871094 12.023438 10.796875 12.320312 10.796875 C 13.6875 10.796875 14.808594 11.914062 14.808594 13.28125 C 14.808594 14.726562 13.714844 15.917969 12.320312 15.917969 C 10.828125 15.917969 9.535156 14.75 9.535156 13.28125 C 9.535156 9.976562 12.074219 7.214844 15.304688 7.214844 Z M 15.304688 7.214844 "/>
<path style=" stroke:none;fill-rule:nonzero;fill:rgb(0%,0%,0%);fill-opacity:1;" d="M 53.644531 22.808594 C 55.011719 22.808594 56.328125 23.503906 56.328125 25.023438 C 56.328125 26.789062 54.960938 28.03125 53.792969 28.730469 C 52.921875 29.25 51.925781 29.574219 50.90625 29.574219 C 49.539062 29.574219 48.222656 28.878906 48.222656 27.359375 C 48.222656 25.59375 49.589844 24.351562 50.757812 23.65625 C 51.628906 23.132812 52.625 22.808594 53.644531 22.808594 Z M 53.644531 22.808594 "/>
<path style=" stroke:none;fill-rule:nonzero;fill:rgb(0%,0%,0%);fill-opacity:1;" d="M 53.644531 29.027344 C 55.011719 29.027344 56.328125 29.722656 56.328125 31.242188 C 56.328125 33.007812 54.960938 34.25 53.792969 34.945312 C 52.921875 35.46875 51.925781 35.792969 50.90625 35.792969 C 49.539062 35.792969 48.222656 35.097656 48.222656 33.578125 C 48.222656 31.8125 49.589844 30.570312 50.757812 29.871094 C 51.628906 29.351562 52.625 29.027344 53.644531 29.027344 Z M 53.644531 29.027344 "/>
<path style=" stroke:none;fill-rule:nonzero;fill:rgb(0%,0%,0%);fill-opacity:1;" d="M 53.644531 35.246094 C 55.011719 35.246094 56.328125 35.941406 56.328125 37.457031 C 56.328125 39.226562 54.960938 40.46875 53.792969 41.164062 C 52.921875 41.6875 51.925781 42.011719 50.90625 42.011719 C 49.539062 42.011719 48.222656 41.3125 48.222656 39.796875 C 48.222656 38.03125 49.589844 36.789062 50.757812 36.089844 C 51.628906 35.570312 52.625 35.246094 53.644531 35.246094 Z M 53.644531 35.246094 "/>
</g>
</svg>
