<?xml version="1.0" encoding="UTF-8"?>
<svg xmlns="http://www.w3.org/2000/svg" xmlns:xlink="http://www.w3.org/1999/xlink" width="74.931468pt" height="52.356583pt" viewBox="0 0 74.931468 52.356583" version="1.1">
<g id="surface1">
<path style="fill:none;stroke-width:0.1;stroke-linecap:round;stroke-linejoin:round;stroke:rgb(0%,0%,0%);stroke-opacity:1;stroke-miterlimit:4;" d="M 0.049863 0.000178545 L 9.724793 0.000178545 " transform="matrix(6.218149,0,0,6.218149,4.561038,35.940296)"/>
<path style="fill:none;stroke-width:0.1;stroke-linecap:round;stroke-linejoin:round;stroke:rgb(0%,0%,0%);stroke-opacity:1;stroke-miterlimit:4;" d="M 0.049863 0.0000818968 L 9.724793 0.0000818968 " transform="matrix(6.218149,0,0,6.218149,4.561038,29.722147)"/>
<path style="fill:none;stroke-width:0.1;stroke-linecap:round;stroke-linejoin:round;stroke:rgb(0%,0%,0%);stroke-opacity:1;stroke-miterlimit:4;" d="M 0.049863 -0.0000147518 L 9.724793 -0.0000147518 " transform="matrix(6.218149,0,0,6.218149,4.561038,23.503998)"/>
<path style="fill:none;stroke-width:0.1;stroke-linecap:round;stroke-linejoin:round;stroke:rgb(0%,0%,0%);stroke-opacity:1;stroke-miterlimit:4;" d="M 0.049863 -0.0001114 L 9.724793 -0.0001114 " transform="matrix(6.218149,0,0,6.218149,4.561038,17.285849)"/>
<path style="fill:none;stroke-width:0.1;stroke-linecap:round;stroke-linejoin:round;stroke:rgb(0%,0%,0%);stroke-opacity:1;stroke-miterlimit:4;" d="M 0.049863 -0.000208049 L 9.724793 -0.000208049 " transform="matrix(6.218149,0,0,6.218149,4.561038,11.0677)"/>
<path style=" stroke:none;fill-rule:nonzero;fill:rgb(0%,0%,0%);fill-opacity:1;" d="M 35.324219 25.046875 C 35.324219 25.292969 35.125 25.519531 34.878906 25.519531 C 34.628906 25.519531 34.40625 25.292969 34.40625 25.046875 L 34.40625 21.441406 L 32.339844 22.210938 L 32.339844 26.140625 C 32.339844 26.390625 32.117188 26.613281 31.867188 26.613281 C 31.617188 26.613281 31.417969 26.390625 31.417969 26.140625 L 31.417969 22.535156 L 30.625 22.832031 C 30.574219 22.855469 30.5 22.855469 30.449219 22.855469 C 30.175781 22.855469 29.953125 22.632812 29.953125 22.359375 L 29.953125 20.867188 C 29.953125 20.667969 30.078125 20.46875 30.277344 20.394531 L 31.417969 19.996094 L 31.417969 16.015625 L 30.625 16.289062 C 30.574219 16.316406 30.5 16.316406 30.449219 16.316406 C 30.175781 16.316406 29.953125 16.09375 29.953125 15.820312 L 29.953125 14.324219 C 29.953125 14.128906 30.078125 13.953125 30.277344 13.878906 L 31.417969 13.457031 L 31.417969 9.527344 C 31.417969 9.277344 31.617188 9.054688 31.867188 9.054688 C 32.117188 9.054688 32.339844 9.277344 32.339844 9.527344 L 32.339844 13.132812 L 34.40625 12.359375 L 34.40625 8.429688 C 34.40625 8.183594 34.628906 7.957031 34.878906 7.957031 C 35.125 7.957031 35.324219 8.183594 35.324219 8.429688 L 35.324219 12.039062 L 36.121094 11.738281 C 36.171875 11.714844 36.246094 11.714844 36.292969 11.714844 C 36.566406 11.714844 36.792969 11.9375 36.792969 12.210938 L 36.792969 13.703125 C 36.792969 13.902344 36.667969 14.101562 36.46875 14.175781 L 35.324219 14.574219 L 35.324219 18.554688 L 36.121094 18.28125 C 36.171875 18.257812 36.246094 18.257812 36.292969 18.257812 C 36.566406 18.257812 36.792969 18.480469 36.792969 18.753906 L 36.792969 20.246094 C 36.792969 20.445312 36.667969 20.617188 36.46875 20.695312 L 35.324219 21.117188 Z M 32.339844 15.667969 L 32.339844 19.648438 L 34.40625 18.902344 L 34.40625 14.921875 Z M 32.339844 15.667969 "/>
<path style=" stroke:none;fill-rule:nonzero;fill:rgb(0%,0%,0%);fill-opacity:1;" d="M 46.921875 9.117188 L 47.234375 9.117188 C 47.371094 9.117188 47.484375 9.226562 47.484375 9.363281 L 47.484375 43.980469 C 47.484375 44.121094 47.371094 44.230469 47.234375 44.230469 L 46.921875 44.230469 C 46.785156 44.230469 46.675781 44.121094 46.675781 43.980469 L 46.675781 9.363281 C 46.675781 9.226562 46.785156 9.117188 46.921875 9.117188 Z M 46.921875 9.117188 "/>
<path style=" stroke:none;fill-rule:nonzero;fill:rgb(0%,0%,0%);fill-opacity:1;" d="M 23.390625 20.394531 C 23.390625 19.699219 23.960938 19.125 24.65625 19.125 C 25.355469 19.125 25.925781 19.699219 25.925781 20.394531 C 25.925781 21.089844 25.355469 21.664062 24.65625 21.664062 C 23.960938 21.664062 23.390625 21.089844 23.390625 20.394531 Z M 23.390625 14.175781 C 23.390625 13.480469 23.960938 12.910156 24.65625 12.910156 C 25.355469 12.910156 25.925781 13.480469 25.925781 14.175781 C 25.925781 14.875 25.355469 15.445312 24.65625 15.445312 C 23.960938 15.445312 23.390625 14.875 23.390625 14.175781 Z M 15.304688 10.746094 C 19.585938 10.746094 22.59375 12.933594 22.59375 16.988281 C 22.59375 23.527344 16.050781 27.285156 9.757812 29.945312 C 9.683594 30.019531 9.609375 30.046875 9.535156 30.046875 C 9.363281 30.046875 9.210938 29.894531 9.210938 29.722656 C 9.210938 29.648438 9.238281 29.574219 9.3125 29.5 C 14.335938 26.5625 19.558594 22.90625 19.558594 17.234375 C 19.558594 14.25 17.992188 11.390625 15.304688 11.390625 C 13.464844 11.390625 12.097656 12.734375 11.476562 14.523438 C 11.75 14.402344 12.023438 14.324219 12.320312 14.324219 C 13.6875 14.324219 14.808594 15.445312 14.808594 16.8125 C 14.808594 18.257812 13.714844 19.449219 12.320312 19.449219 C 10.828125 19.449219 9.535156 18.28125 9.535156 16.8125 C 9.535156 13.503906 12.074219 10.746094 15.304688 10.746094 Z M 15.304688 10.746094 "/>
<path style=" stroke:none;fill-rule:nonzero;fill:rgb(0%,0%,0%);fill-opacity:1;" d="M 52.097656 4.574219 C 53.464844 4.574219 54.78125 5.273438 54.78125 6.789062 C 54.78125 8.554688 53.414062 9.800781 52.246094 10.496094 C 51.375 11.019531 50.378906 11.339844 49.359375 11.339844 C 47.992188 11.339844 46.675781 10.644531 46.675781 9.128906 C 46.675781 7.363281 48.042969 6.117188 49.210938 5.421875 C 50.082031 4.898438 51.078125 4.574219 52.097656 4.574219 Z M 52.097656 4.574219 "/>
<path style=" stroke:none;fill-rule:nonzero;fill:rgb(0%,0%,0%);fill-opacity:1;" d="M 44.390625 7.683594 C 45.757812 7.683594 47.078125 8.382812 47.078125 9.898438 C 47.078125 11.664062 45.710938 12.910156 44.539062 13.605469 C 43.667969 14.128906 42.675781 14.449219 41.65625 14.449219 C 40.285156 14.449219 38.96875 13.753906 38.96875 12.238281 C 38.96875 10.472656 40.335938 9.226562 41.503906 8.53125 C 42.375 8.007812 43.371094 7.683594 44.390625 7.683594 Z M 44.390625 7.683594 "/>
<path style=" stroke:none;fill-rule:nonzero;fill:rgb(0%,0%,0%);fill-opacity:1;" d="M 52.097656 13.902344 C 53.464844 13.902344 54.78125 14.597656 54.78125 16.117188 C 54.78125 17.882812 53.414062 19.125 52.246094 19.824219 C 51.375 20.34375 50.378906 20.667969 49.359375 20.667969 C 47.992188 20.667969 46.675781 19.972656 46.675781 18.453125 C 46.675781 16.6875 48.042969 15.445312 49.210938 14.75 C 50.082031 14.226562 51.078125 13.902344 52.097656 13.902344 Z M 52.097656 13.902344 "/>
<path style=" stroke:none;fill-rule:nonzero;fill:rgb(0%,0%,0%);fill-opacity:1;" d="M 52.097656 20.121094 C 53.464844 20.121094 54.78125 20.816406 54.78125 22.335938 C 54.78125 24.101562 53.414062 25.34375 52.246094 26.039062 C 51.375 26.5625 50.378906 26.886719 49.359375 26.886719 C 47.992188 26.886719 46.675781 26.191406 46.675781 24.671875 C 46.675781 22.90625 48.042969 21.664062 49.210938 20.96875 C 50.082031 20.445312 51.078125 20.121094 52.097656 20.121094 Z M 52.097656 20.121094 "/>
</g>
</svg>
