<?xml version="1.0" encoding="UTF-8"?>
<svg xmlns="http://www.w3.org/2000/svg" xmlns:xlink="http://www.w3.org/1999/xlink" width="75.255583pt" height="50.196013pt" viewBox="0 0 75.255583 50.196013" version="1.1">
<g id="surface1">
<path style="fill:none;stroke-width:0.1;stroke-linecap:round;stroke-linejoin:round;stroke:rgb(0%,0%,0%);stroke-opacity:1;stroke-miterlimit:4;" d="M 0.049863 -0.0001075 L 9.773793 -0.0001075 " transform="matrix(6.218149,0,0,6.218149,4.561038,29.434262)"/>
<path style="fill:none;stroke-width:0.1;stroke-linecap:round;stroke-linejoin:round;stroke:rgb(0%,0%,0%);stroke-opacity:1;stroke-miterlimit:4;" d="M 0.049863 -0.000204149 L 9.773793 -0.000204149 " transform="matrix(6.218149,0,0,6.218149,4.561038,23.216113)"/>
<path style="fill:none;stroke-width:0.1;stroke-linecap:round;stroke-linejoin:round;stroke:rgb(0%,0%,0%);stroke-opacity:1;stroke-miterlimit:4;" d="M 0.049863 -0.000300797 L 9.773793 -0.000300797 " transform="matrix(6.218149,0,0,6.218149,4.561038,16.997964)"/>
<path style="fill:none;stroke-width:0.1;stroke-linecap:round;stroke-linejoin:round;stroke:rgb(0%,0%,0%);stroke-opacity:1;stroke-miterlimit:4;" d="M 0.049863 0.000230756 L 9.773793 0.000230756 " transform="matrix(6.218149,0,0,6.218149,4.561038,10.779815)"/>
<path style="fill:none;stroke-width:0.1;stroke-linecap:round;stroke-linejoin:round;stroke:rgb(0%,0%,0%);stroke-opacity:1;stroke-miterlimit:4;" d="M 0.049863 0.000133988 L 9.773793 0.000133988 " transform="matrix(6.218149,0,0,6.218149,4.561038,4.561667)"/>
<path style=" stroke:none;fill-rule:nonzero;fill:rgb(0%,0%,0%);fill-opacity:1;" d="M 47.226562 11.9375 L 47.539062 11.9375 C 47.675781 11.9375 47.785156 12.046875 47.785156 12.1875 L 47.785156 41.621094 C 47.785156 41.757812 47.675781 41.871094 47.539062 41.871094 L 47.226562 41.871094 C 47.089844 41.871094 46.976562 41.757812 46.976562 41.621094 L 46.976562 12.1875 C 46.976562 12.046875 47.089844 11.9375 47.226562 11.9375 Z M 47.226562 11.9375 "/>
<path style=" stroke:none;fill-rule:nonzero;fill:rgb(0%,0%,0%);fill-opacity:1;" d="M 42.066406 10.78125 C 42.636719 11.351562 43.460938 11.476562 44.28125 11.476562 C 44.429688 11.476562 44.527344 11.574219 44.527344 11.726562 L 44.753906 13.890625 C 44.777344 14.039062 44.652344 14.164062 44.503906 14.136719 L 42.339844 13.914062 C 42.214844 13.890625 42.089844 13.789062 42.089844 13.664062 C 42.089844 12.84375 41.96875 12.023438 41.394531 11.453125 C 40.824219 12.023438 40.722656 12.84375 40.722656 13.664062 C 40.722656 13.789062 40.597656 13.890625 40.472656 13.914062 L 38.285156 14.136719 C 38.136719 14.164062 38.011719 14.039062 38.035156 13.890625 L 38.261719 11.726562 C 38.261719 11.574219 38.359375 11.476562 38.507812 11.476562 C 39.332031 11.476562 40.152344 11.351562 40.722656 10.78125 C 40.152344 10.207031 39.332031 10.082031 38.507812 10.082031 C 38.359375 10.082031 38.261719 9.984375 38.261719 9.835938 L 38.035156 7.671875 C 38.011719 7.523438 38.136719 7.398438 38.285156 7.421875 L 40.472656 7.644531 C 40.597656 7.671875 40.699219 7.769531 40.699219 7.894531 C 40.699219 8.714844 40.824219 9.535156 41.394531 10.109375 C 41.96875 9.535156 42.089844 8.714844 42.089844 7.894531 C 42.089844 7.769531 42.214844 7.671875 42.339844 7.644531 L 44.503906 7.421875 C 44.652344 7.398438 44.777344 7.523438 44.753906 7.671875 L 44.527344 9.835938 C 44.527344 9.984375 44.429688 10.082031 44.28125 10.082031 C 43.460938 10.082031 42.636719 10.207031 42.066406 10.78125 Z M 42.066406 10.78125 "/>
<path style=" stroke:none;fill-rule:nonzero;fill:rgb(0%,0%,0%);fill-opacity:1;" d="M 35.324219 24.757812 C 35.324219 25.007812 35.125 25.230469 34.878906 25.230469 C 34.628906 25.230469 34.40625 25.007812 34.40625 24.757812 L 34.40625 21.152344 L 32.339844 21.921875 L 32.339844 25.851562 C 32.339844 26.101562 32.117188 26.324219 31.867188 26.324219 C 31.617188 26.324219 31.417969 26.101562 31.417969 25.851562 L 31.417969 22.246094 L 30.625 22.542969 C 30.574219 22.570312 30.5 22.570312 30.449219 22.570312 C 30.175781 22.570312 29.953125 22.34375 29.953125 22.070312 L 29.953125 20.578125 C 29.953125 20.378906 30.078125 20.183594 30.277344 20.105469 L 31.417969 19.710938 L 31.417969 15.730469 L 30.625 16.003906 C 30.574219 16.027344 30.5 16.027344 30.449219 16.027344 C 30.175781 16.027344 29.953125 15.804688 29.953125 15.53125 L 29.953125 14.039062 C 29.953125 13.839844 30.078125 13.664062 30.277344 13.589844 L 31.417969 13.167969 L 31.417969 9.238281 C 31.417969 8.988281 31.617188 8.765625 31.867188 8.765625 C 32.117188 8.765625 32.339844 8.988281 32.339844 9.238281 L 32.339844 12.84375 L 34.40625 12.074219 L 34.40625 8.144531 C 34.40625 7.894531 34.628906 7.671875 34.878906 7.671875 C 35.125 7.671875 35.324219 7.894531 35.324219 8.144531 L 35.324219 11.75 L 36.121094 11.453125 C 36.171875 11.425781 36.246094 11.425781 36.292969 11.425781 C 36.566406 11.425781 36.792969 11.648438 36.792969 11.925781 L 36.792969 13.417969 C 36.792969 13.617188 36.667969 13.8125 36.46875 13.890625 L 35.324219 14.285156 L 35.324219 18.265625 L 36.121094 17.992188 C 36.171875 17.96875 36.246094 17.96875 36.292969 17.96875 C 36.566406 17.96875 36.792969 18.191406 36.792969 18.464844 L 36.792969 19.957031 C 36.792969 20.15625 36.667969 20.332031 36.46875 20.40625 L 35.324219 20.828125 Z M 32.339844 15.382812 L 32.339844 19.359375 L 34.40625 18.613281 L 34.40625 14.636719 Z M 32.339844 15.382812 "/>
<path style=" stroke:none;fill-rule:nonzero;fill:rgb(0%,0%,0%);fill-opacity:1;" d="M 23.390625 13.890625 C 23.390625 13.191406 23.960938 12.621094 24.65625 12.621094 C 25.355469 12.621094 25.925781 13.191406 25.925781 13.890625 C 25.925781 14.585938 25.355469 15.15625 24.65625 15.15625 C 23.960938 15.15625 23.390625 14.585938 23.390625 13.890625 Z M 23.390625 7.671875 C 23.390625 6.972656 23.960938 6.402344 24.65625 6.402344 C 25.355469 6.402344 25.925781 6.972656 25.925781 7.671875 C 25.925781 8.367188 25.355469 8.9375 24.65625 8.9375 C 23.960938 8.9375 23.390625 8.367188 23.390625 7.671875 Z M 15.304688 4.238281 C 19.585938 4.238281 22.59375 6.425781 22.59375 10.480469 C 22.59375 17.023438 16.050781 20.777344 9.757812 23.441406 C 9.683594 23.515625 9.609375 23.539062 9.535156 23.539062 C 9.363281 23.539062 9.210938 23.390625 9.210938 23.214844 C 9.210938 23.140625 9.238281 23.066406 9.3125 22.992188 C 14.335938 20.058594 19.558594 16.402344 19.558594 10.730469 C 19.558594 7.746094 17.992188 4.886719 15.304688 4.886719 C 13.464844 4.886719 12.097656 6.226562 11.476562 8.019531 C 11.75 7.894531 12.023438 7.820312 12.320312 7.820312 C 13.6875 7.820312 14.808594 8.9375 14.808594 10.308594 C 14.808594 11.75 13.714844 12.945312 12.320312 12.945312 C 10.828125 12.945312 9.535156 11.773438 9.535156 10.308594 C 9.535156 7 12.074219 4.238281 15.304688 4.238281 Z M 15.304688 4.238281 "/>
<path style=" stroke:none;fill-rule:nonzero;fill:rgb(0%,0%,0%);fill-opacity:1;" d="M 52.398438 7.398438 C 53.769531 7.398438 55.085938 8.09375 55.085938 9.609375 C 55.085938 11.375 53.71875 12.621094 52.550781 13.316406 C 51.679688 13.839844 50.683594 14.164062 49.664062 14.164062 C 48.296875 14.164062 46.976562 13.464844 46.976562 11.949219 C 46.976562 10.183594 48.34375 8.9375 49.515625 8.242188 C 50.386719 7.71875 51.378906 7.398438 52.398438 7.398438 Z M 52.398438 7.398438 "/>
<path style=" stroke:none;fill-rule:nonzero;fill:rgb(0%,0%,0%);fill-opacity:1;" d="M 52.398438 13.617188 C 53.769531 13.617188 55.085938 14.3125 55.085938 15.828125 C 55.085938 17.59375 53.71875 18.839844 52.550781 19.535156 C 51.679688 20.058594 50.683594 20.378906 49.664062 20.378906 C 48.296875 20.378906 46.976562 19.683594 46.976562 18.167969 C 46.976562 16.402344 48.34375 15.15625 49.515625 14.460938 C 50.386719 13.9375 51.378906 13.617188 52.398438 13.617188 Z M 52.398438 13.617188 "/>
<path style=" stroke:none;fill-rule:nonzero;fill:rgb(0%,0%,0%);fill-opacity:1;" d="M 52.398438 19.832031 C 53.769531 19.832031 55.085938 20.53125 55.085938 22.046875 C 55.085938 23.8125 53.71875 25.058594 52.550781 25.753906 C 51.679688 26.277344 50.683594 26.597656 49.664062 26.597656 C 48.296875 26.597656 46.976562 25.902344 46.976562 24.386719 C 46.976562 22.621094 48.34375 21.375 49.515625 20.679688 C 50.386719 20.15625 51.378906 19.832031 52.398438 19.832031 Z M 52.398438 19.832031 "/>
</g>
</svg>
