<?xml version="1.0" encoding="UTF-8"?>
<svg xmlns="http://www.w3.org/2000/svg" xmlns:xlink="http://www.w3.org/1999/xlink" width="72.982108pt" height="70.041633pt" viewBox="0 0 72.982108 70.041633" version="1.1">
<g id="surface1">
<path style="fill:none;stroke-width:0.1;stroke-linecap:round;stroke-linejoin:round;stroke:rgb(0%,0%,0%);stroke-opacity:1;stroke-miterlimit:4;" d="M 0.049863 -0.000250188 L 9.431423 -0.000250188 " transform="matrix(6.218149,0,0,6.218149,4.561038,51.212493)"/>
<path style="fill:none;stroke-width:0.1;stroke-linecap:round;stroke-linejoin:round;stroke:rgb(0%,0%,0%);stroke-opacity:1;stroke-miterlimit:4;" d="M 0.049863 0.000281364 L 9.431423 0.000281364 " transform="matrix(6.218149,0,0,6.218149,4.561038,44.994344)"/>
<path style="fill:none;stroke-width:0.1;stroke-linecap:round;stroke-linejoin:round;stroke:rgb(0%,0%,0%);stroke-opacity:1;stroke-miterlimit:4;" d="M 0.049863 0.000184716 L 9.431423 0.000184716 " transform="matrix(6.218149,0,0,6.218149,4.561038,38.776195)"/>
<path style="fill:none;stroke-width:0.1;stroke-linecap:round;stroke-linejoin:round;stroke:rgb(0%,0%,0%);stroke-opacity:1;stroke-miterlimit:4;" d="M 0.049863 0.0000880672 L 9.431423 0.0000880672 " transform="matrix(6.218149,0,0,6.218149,4.561038,32.558046)"/>
<path style="fill:none;stroke-width:0.1;stroke-linecap:round;stroke-linejoin:round;stroke:rgb(0%,0%,0%);stroke-opacity:1;stroke-miterlimit:4;" d="M 0.049863 -0.00000858141 L 9.431423 -0.00000858141 " transform="matrix(6.218149,0,0,6.218149,4.561038,26.339897)"/>
<path style=" stroke:none;fill-rule:nonzero;fill:rgb(0%,0%,0%);fill-opacity:1;" d="M 44.382812 13.28125 L 54.363281 13.28125 C 54.707031 13.28125 54.984375 13.558594 54.984375 13.902344 C 54.984375 14.246094 54.707031 14.527344 54.363281 14.527344 L 44.382812 14.527344 C 44.039062 14.527344 43.761719 14.246094 43.761719 13.902344 C 43.761719 13.558594 44.039062 13.28125 44.382812 13.28125 Z M 44.382812 13.28125 "/>
<path style=" stroke:none;fill-rule:nonzero;fill:rgb(0%,0%,0%);fill-opacity:1;" d="M 43.441406 19.5 L 54.363281 19.5 C 54.707031 19.5 54.984375 19.777344 54.984375 20.121094 C 54.984375 20.464844 54.707031 20.742188 54.363281 20.742188 L 43.441406 20.742188 C 43.101562 20.742188 42.820312 20.464844 42.820312 20.121094 C 42.820312 19.777344 43.101562 19.5 43.441406 19.5 Z M 43.441406 19.5 "/>
<path style=" stroke:none;fill-rule:nonzero;fill:rgb(0%,0%,0%);fill-opacity:1;" d="M 45.097656 15.0625 L 45.40625 15.0625 C 45.546875 15.0625 45.65625 15.171875 45.65625 15.308594 L 45.65625 47.855469 C 45.65625 47.992188 45.546875 48.101562 45.40625 48.101562 L 45.097656 48.101562 C 44.960938 48.101562 44.847656 47.992188 44.847656 47.855469 L 44.847656 15.308594 C 44.847656 15.171875 44.960938 15.0625 45.097656 15.0625 Z M 45.097656 15.0625 "/>
<path style=" stroke:none;fill-rule:nonzero;fill:rgb(0%,0%,0%);fill-opacity:1;" d="M 41.203125 21.664062 C 41.203125 21.914062 41.003906 22.136719 40.757812 22.136719 C 40.507812 22.136719 40.285156 21.914062 40.285156 21.664062 L 40.285156 18.058594 L 38.21875 18.828125 L 38.21875 22.757812 C 38.21875 23.007812 37.996094 23.230469 37.746094 23.230469 C 37.5 23.230469 37.300781 23.007812 37.300781 22.757812 L 37.300781 19.152344 L 36.503906 19.449219 C 36.453125 19.476562 36.378906 19.476562 36.328125 19.476562 C 36.054688 19.476562 35.832031 19.25 35.832031 18.976562 L 35.832031 17.484375 C 35.832031 17.285156 35.957031 17.085938 36.15625 17.011719 L 37.300781 16.613281 L 37.300781 12.636719 L 36.503906 12.910156 C 36.453125 12.933594 36.378906 12.933594 36.328125 12.933594 C 36.054688 12.933594 35.832031 12.710938 35.832031 12.4375 L 35.832031 10.945312 C 35.832031 10.746094 35.957031 10.570312 36.15625 10.496094 L 37.300781 10.074219 L 37.300781 6.144531 C 37.300781 5.894531 37.5 5.671875 37.746094 5.671875 C 37.996094 5.671875 38.21875 5.894531 38.21875 6.144531 L 38.21875 9.75 L 40.285156 8.980469 L 40.285156 5.050781 C 40.285156 4.800781 40.507812 4.578125 40.757812 4.578125 C 41.003906 4.578125 41.203125 4.800781 41.203125 5.050781 L 41.203125 8.65625 L 42 8.355469 C 42.050781 8.332031 42.125 8.332031 42.175781 8.332031 C 42.449219 8.332031 42.671875 8.554688 42.671875 8.828125 L 42.671875 10.320312 C 42.671875 10.519531 42.546875 10.71875 42.347656 10.792969 L 41.203125 11.191406 L 41.203125 15.171875 L 42 14.898438 C 42.050781 14.875 42.125 14.875 42.175781 14.875 C 42.449219 14.875 42.671875 15.097656 42.671875 15.371094 L 42.671875 16.863281 C 42.671875 17.0625 42.546875 17.238281 42.347656 17.3125 L 41.203125 17.734375 Z M 38.21875 12.285156 L 38.21875 16.265625 L 40.285156 15.519531 L 40.285156 11.539062 Z M 38.21875 12.285156 "/>
<path style=" stroke:none;fill-rule:nonzero;fill:rgb(0%,0%,0%);fill-opacity:1;" d="M 34.589844 34.101562 C 34.589844 34.347656 34.390625 34.574219 34.140625 34.574219 C 33.890625 34.574219 33.667969 34.347656 33.667969 34.101562 L 33.667969 30.492188 L 31.605469 31.265625 L 31.605469 35.195312 C 31.605469 35.441406 31.378906 35.667969 31.132812 35.667969 C 30.882812 35.667969 30.683594 35.441406 30.683594 35.195312 L 30.683594 31.589844 L 29.886719 31.886719 C 29.835938 31.910156 29.761719 31.910156 29.714844 31.910156 C 29.441406 31.910156 29.214844 31.6875 29.214844 31.414062 L 29.214844 29.921875 C 29.214844 29.722656 29.339844 29.523438 29.539062 29.449219 L 30.683594 29.050781 L 30.683594 25.070312 L 29.886719 25.34375 C 29.835938 25.371094 29.761719 25.371094 29.714844 25.371094 C 29.441406 25.371094 29.214844 25.144531 29.214844 24.871094 L 29.214844 23.378906 C 29.214844 23.179688 29.339844 23.007812 29.539062 22.933594 L 30.683594 22.507812 L 30.683594 18.578125 C 30.683594 18.332031 30.882812 18.105469 31.132812 18.105469 C 31.378906 18.105469 31.605469 18.332031 31.605469 18.578125 L 31.605469 22.1875 L 33.667969 21.414062 L 33.667969 17.484375 C 33.667969 17.238281 33.890625 17.011719 34.140625 17.011719 C 34.390625 17.011719 34.589844 17.238281 34.589844 17.484375 L 34.589844 21.089844 L 35.382812 20.792969 C 35.433594 20.769531 35.507812 20.769531 35.558594 20.769531 C 35.832031 20.769531 36.054688 20.992188 36.054688 21.265625 L 36.054688 22.757812 C 36.054688 22.957031 35.929688 23.15625 35.734375 23.230469 L 34.589844 23.628906 L 34.589844 27.609375 L 35.382812 27.335938 C 35.433594 27.308594 35.507812 27.308594 35.558594 27.308594 C 35.832031 27.308594 36.054688 27.535156 36.054688 27.808594 L 36.054688 29.300781 C 36.054688 29.5 35.929688 29.671875 35.734375 29.746094 L 34.589844 30.171875 Z M 31.605469 24.722656 L 31.605469 28.703125 L 33.667969 27.957031 L 33.667969 23.976562 Z M 31.605469 24.722656 "/>
<path style=" stroke:none;fill-rule:nonzero;fill:rgb(0%,0%,0%);fill-opacity:1;" d="M 16.152344 60.789062 L 16.003906 60.789062 C 13.316406 60.789062 11.152344 58.601562 11.152344 55.886719 C 11.152344 54.445312 12.46875 53.328125 13.9375 53.328125 C 15.28125 53.328125 16.300781 54.496094 16.300781 55.886719 C 16.300781 57.183594 15.230469 58.25 13.9375 58.25 C 13.664062 58.25 13.414062 58.203125 13.167969 58.101562 C 13.8125 59.070312 14.859375 59.71875 16.078125 59.71875 L 16.175781 59.71875 Z M 21 50.042969 C 22.691406 49.445312 23.8125 47.679688 23.8125 45.964844 C 23.8125 43.726562 22.171875 41.511719 19.507812 41.238281 C 20.105469 44.125 20.652344 46.984375 21 50.042969 Z M 11.375 44.296875 C 11.375 47.65625 14.585938 50.441406 17.941406 50.441406 C 18.640625 50.441406 19.308594 50.390625 19.980469 50.292969 C 19.632812 47.132812 19.0625 44.199219 18.414062 41.238281 C 16.449219 41.4375 15.332031 42.753906 15.332031 44.199219 C 15.332031 45.292969 15.953125 46.460938 17.34375 47.257812 C 17.46875 47.382812 17.519531 47.507812 17.519531 47.628906 C 17.519531 47.90625 17.269531 48.179688 16.972656 48.179688 C 16.898438 48.179688 16.824219 48.152344 16.75 48.128906 C 14.757812 47.058594 13.839844 45.269531 13.839844 43.527344 C 13.839844 41.339844 15.28125 39.199219 17.816406 38.628906 C 17.46875 37.183594 17.097656 35.71875 16.675781 34.273438 C 14.011719 37.285156 11.375 40.316406 11.375 44.296875 Z M 17.867188 51.511719 C 13.191406 51.511719 9.585938 47.234375 9.585938 42.207031 C 9.585938 37.804688 12.84375 34.597656 15.753906 31.238281 C 15.28125 29.699219 14.832031 28.128906 14.632812 26.515625 C 14.484375 25.21875 14.460938 23.925781 14.460938 22.632812 C 14.460938 19.773438 15.828125 17.0625 18.167969 15.371094 C 18.316406 15.246094 18.515625 15.246094 18.664062 15.371094 C 20.429688 17.460938 21.972656 21.464844 21.972656 24.277344 C 21.972656 27.832031 19.832031 30.617188 17.496094 33.328125 C 18.015625 35.019531 18.464844 36.761719 18.886719 38.476562 C 18.988281 38.476562 19.113281 38.453125 19.210938 38.453125 C 23.066406 38.453125 25.578125 41.636719 25.578125 44.945312 C 25.578125 46.835938 24.757812 48.773438 22.917969 50.167969 C 22.371094 50.589844 21.746094 50.863281 21.101562 51.0625 C 21.175781 51.933594 21.226562 52.804688 21.226562 53.675781 C 21.226562 54.148438 21.199219 54.644531 21.175781 55.117188 C 21 58.078125 18.988281 60.714844 16.152344 60.789062 L 16.175781 59.71875 C 18.488281 59.667969 19.980469 57.429688 20.132812 54.96875 C 20.15625 54.519531 20.179688 54.046875 20.179688 53.601562 C 20.179688 52.828125 20.15625 52.082031 20.082031 51.3125 C 19.359375 51.4375 18.640625 51.511719 17.867188 51.511719 Z M 20.179688 22.210938 C 20.179688 20.84375 20.082031 20.246094 19.683594 19.003906 C 17.222656 20.195312 15.652344 22.707031 15.652344 25.445312 C 15.652344 27.285156 16.101562 28.753906 16.550781 30.269531 C 18.539062 27.855469 20.179688 25.34375 20.179688 22.210938 Z M 20.179688 22.210938 "/>
<path style=" stroke:none;fill-rule:nonzero;fill:rgb(0%,0%,0%);fill-opacity:1;" d="M 50.269531 10.519531 C 51.636719 10.519531 52.957031 11.21875 52.957031 12.734375 C 52.957031 14.5 51.589844 15.746094 50.417969 16.441406 C 49.550781 16.964844 48.554688 17.285156 47.535156 17.285156 C 46.167969 17.285156 44.847656 16.589844 44.847656 15.074219 C 44.847656 13.308594 46.214844 12.0625 47.386719 11.367188 C 48.257812 10.84375 49.25 10.519531 50.269531 10.519531 Z M 50.269531 10.519531 "/>
<path style=" stroke:none;fill-rule:nonzero;fill:rgb(0%,0%,0%);fill-opacity:1;" d="M 50.269531 16.738281 C 51.636719 16.738281 52.957031 17.433594 52.957031 18.953125 C 52.957031 20.71875 51.589844 21.960938 50.417969 22.660156 C 49.550781 23.179688 48.554688 23.503906 47.535156 23.503906 C 46.167969 23.503906 44.847656 22.808594 44.847656 21.289062 C 44.847656 19.523438 46.214844 18.28125 47.386719 17.585938 C 48.257812 17.0625 49.25 16.738281 50.269531 16.738281 Z M 50.269531 16.738281 "/>
<path style=" stroke:none;fill-rule:nonzero;fill:rgb(0%,0%,0%);fill-opacity:1;" d="M 50.269531 22.957031 C 51.636719 22.957031 52.957031 23.652344 52.957031 25.171875 C 52.957031 26.9375 51.589844 28.179688 50.417969 28.875 C 49.550781 29.398438 48.554688 29.722656 47.535156 29.722656 C 46.167969 29.722656 44.847656 29.027344 44.847656 27.507812 C 44.847656 25.742188 46.214844 24.5 47.386719 23.804688 C 48.257812 23.28125 49.25 22.957031 50.269531 22.957031 Z M 50.269531 22.957031 "/>
</g>
</svg>
