<?xml version="1.0" encoding="UTF-8"?>
<svg xmlns="http://www.w3.org/2000/svg" xmlns:xlink="http://www.w3.org/1999/xlink" width="68.472344pt" height="40.512341pt" viewBox="0 0 68.472344 40.512341" version="1.1">
<g id="surface1">
<path style="fill:none;stroke-width:0.1;stroke-linecap:round;stroke-linejoin:round;stroke:rgb(0%,0%,0%);stroke-opacity:1;stroke-miterlimit:4;" d="M 0.049863 0.00017851 L 8.752337 0.00017851 " transform="matrix(6.218149,0,0,6.218149,4.561038,32.702015)"/>
<path style="fill:none;stroke-width:0.1;stroke-linecap:round;stroke-linejoin:round;stroke:rgb(0%,0%,0%);stroke-opacity:1;stroke-miterlimit:4;" d="M 0.049863 0.000081861 L 8.752337 0.000081861 " transform="matrix(6.218149,0,0,6.218149,4.561038,26.483866)"/>
<path style="fill:none;stroke-width:0.1;stroke-linecap:round;stroke-linejoin:round;stroke:rgb(0%,0%,0%);stroke-opacity:1;stroke-miterlimit:4;" d="M 0.049863 -0.0000147876 L 8.752337 -0.0000147876 " transform="matrix(6.218149,0,0,6.218149,4.561038,20.265717)"/>
<path style="fill:none;stroke-width:0.1;stroke-linecap:round;stroke-linejoin:round;stroke:rgb(0%,0%,0%);stroke-opacity:1;stroke-miterlimit:4;" d="M 0.049863 -0.000111436 L 8.752337 -0.000111436 " transform="matrix(6.218149,0,0,6.218149,4.561038,14.047568)"/>
<path style="fill:none;stroke-width:0.1;stroke-linecap:round;stroke-linejoin:round;stroke:rgb(0%,0%,0%);stroke-opacity:1;stroke-miterlimit:4;" d="M 0.049863 -0.000208204 L 8.752337 -0.000208204 " transform="matrix(6.218149,0,0,6.218149,4.561038,7.82942)"/>
<path style=" stroke:none;fill-rule:nonzero;fill:rgb(0%,0%,0%);fill-opacity:1;" d="M 40.875 8.988281 L 41.1875 8.988281 C 41.324219 8.988281 41.433594 9.097656 41.433594 9.234375 L 41.433594 29.34375 C 41.433594 29.480469 41.324219 29.59375 41.1875 29.59375 L 40.875 29.59375 C 40.738281 29.59375 40.625 29.480469 40.625 29.34375 L 40.625 9.234375 C 40.625 9.097656 40.738281 8.988281 40.875 8.988281 Z M 40.875 8.988281 "/>
<path style=" stroke:none;fill-rule:nonzero;fill:rgb(0%,0%,0%);fill-opacity:1;" d="M 23.390625 17.15625 C 23.390625 16.460938 23.960938 15.886719 24.65625 15.886719 C 25.355469 15.886719 25.925781 16.460938 25.925781 17.15625 C 25.925781 17.851562 25.355469 18.425781 24.65625 18.425781 C 23.960938 18.425781 23.390625 17.851562 23.390625 17.15625 Z M 23.390625 10.9375 C 23.390625 10.242188 23.960938 9.671875 24.65625 9.671875 C 25.355469 9.671875 25.925781 10.242188 25.925781 10.9375 C 25.925781 11.636719 25.355469 12.207031 24.65625 12.207031 C 23.960938 12.207031 23.390625 11.636719 23.390625 10.9375 Z M 15.304688 7.507812 C 19.585938 7.507812 22.59375 9.695312 22.59375 13.75 C 22.59375 20.289062 16.050781 24.046875 9.757812 26.707031 C 9.683594 26.78125 9.609375 26.808594 9.535156 26.808594 C 9.363281 26.808594 9.210938 26.65625 9.210938 26.484375 C 9.210938 26.410156 9.238281 26.335938 9.3125 26.261719 C 14.335938 23.324219 19.558594 19.667969 19.558594 13.996094 C 19.558594 11.011719 17.992188 8.152344 15.304688 8.152344 C 13.464844 8.152344 12.097656 9.496094 11.476562 11.285156 C 11.75 11.164062 12.023438 11.085938 12.320312 11.085938 C 13.6875 11.085938 14.808594 12.207031 14.808594 13.574219 C 14.808594 15.019531 13.714844 16.210938 12.320312 16.210938 C 10.828125 16.210938 9.535156 15.042969 9.535156 13.574219 C 9.535156 10.265625 12.074219 7.507812 15.304688 7.507812 Z M 15.304688 7.507812 "/>
<path style=" stroke:none;fill-rule:nonzero;fill:rgb(0%,0%,0%);fill-opacity:1;" d="M 46.046875 4.445312 C 47.417969 4.445312 48.734375 5.144531 48.734375 6.660156 C 48.734375 8.425781 47.367188 9.671875 46.199219 10.367188 C 45.328125 10.890625 44.332031 11.210938 43.3125 11.210938 C 41.945312 11.210938 40.625 10.515625 40.625 9 C 40.625 7.234375 41.996094 5.988281 43.164062 5.292969 C 44.035156 4.769531 45.027344 4.445312 46.046875 4.445312 Z M 46.046875 4.445312 "/>
</g>
</svg>
