<?xml version="1.0" encoding="UTF-8"?>
<svg xmlns="http://www.w3.org/2000/svg" xmlns:xlink="http://www.w3.org/1999/xlink" width="88.123361pt" height="61.666356pt" viewBox="0 0 88.123361 61.666356" version="1.1">
<g id="surface1">
<path style="fill:none;stroke-width:0.1;stroke-linecap:round;stroke-linejoin:round;stroke:rgb(0%,0%,0%);stroke-opacity:1;stroke-miterlimit:4;" d="M 0.049863 -0.000287501 L 11.711166 -0.000287501 " transform="matrix(6.218149,0,0,6.218149,4.561038,40.517413)"/>
<path style="fill:none;stroke-width:0.1;stroke-linecap:round;stroke-linejoin:round;stroke:rgb(0%,0%,0%);stroke-opacity:1;stroke-miterlimit:4;" d="M 0.049863 0.000244052 L 11.711166 0.000244052 " transform="matrix(6.218149,0,0,6.218149,4.561038,34.299264)"/>
<path style="fill:none;stroke-width:0.1;stroke-linecap:round;stroke-linejoin:round;stroke:rgb(0%,0%,0%);stroke-opacity:1;stroke-miterlimit:4;" d="M 0.049863 0.000147403 L 11.711166 0.000147403 " transform="matrix(6.218149,0,0,6.218149,4.561038,28.081115)"/>
<path style="fill:none;stroke-width:0.1;stroke-linecap:round;stroke-linejoin:round;stroke:rgb(0%,0%,0%);stroke-opacity:1;stroke-miterlimit:4;" d="M 0.049863 0.0000507548 L 11.711166 0.0000507548 " transform="matrix(6.218149,0,0,6.218149,4.561038,21.862966)"/>
<path style="fill:none;stroke-width:0.1;stroke-linecap:round;stroke-linejoin:round;stroke:rgb(0%,0%,0%);stroke-opacity:1;stroke-miterlimit:4;" d="M 0.049863 -0.0000458938 L 11.711166 -0.0000458938 " transform="matrix(6.218149,0,0,6.218149,4.561038,15.644817)"/>
<path style=" stroke:none;fill-rule:nonzero;fill:rgb(0%,0%,0%);fill-opacity:1;" d="M 66.574219 7.355469 L 66.886719 7.355469 C 67.023438 7.355469 67.132812 7.464844 67.132812 7.601562 L 67.132812 42.21875 C 67.132812 42.359375 67.023438 42.46875 66.886719 42.46875 L 66.574219 42.46875 C 66.4375 42.46875 66.324219 42.359375 66.324219 42.21875 L 66.324219 7.601562 C 66.324219 7.464844 66.4375 7.355469 66.574219 7.355469 Z M 66.574219 7.355469 "/>
<path style=" stroke:none;fill-rule:nonzero;fill:rgb(0%,0%,0%);fill-opacity:1;" d="M 55.378906 35.839844 C 55.378906 36.089844 55.179688 36.3125 54.933594 36.3125 C 54.683594 36.3125 54.460938 36.089844 54.460938 35.839844 L 54.460938 32.234375 L 52.394531 33.007812 L 52.394531 36.9375 C 52.394531 37.183594 52.171875 37.410156 51.921875 37.410156 C 51.675781 37.410156 51.476562 37.183594 51.476562 36.9375 L 51.476562 33.328125 L 50.679688 33.628906 C 50.628906 33.652344 50.554688 33.652344 50.503906 33.652344 C 50.230469 33.652344 50.007812 33.429688 50.007812 33.15625 L 50.007812 31.664062 C 50.007812 31.464844 50.132812 31.265625 50.332031 31.191406 L 51.476562 30.792969 L 51.476562 26.8125 L 50.679688 27.085938 C 50.628906 27.109375 50.554688 27.109375 50.503906 27.109375 C 50.230469 27.109375 50.007812 26.886719 50.007812 26.613281 L 50.007812 25.121094 C 50.007812 24.921875 50.132812 24.75 50.332031 24.671875 L 51.476562 24.25 L 51.476562 20.320312 C 51.476562 20.070312 51.675781 19.847656 51.921875 19.847656 C 52.171875 19.847656 52.394531 20.070312 52.394531 20.320312 L 52.394531 23.925781 L 54.460938 23.15625 L 54.460938 19.226562 C 54.460938 18.976562 54.683594 18.753906 54.933594 18.753906 C 55.179688 18.753906 55.378906 18.976562 55.378906 19.226562 L 55.378906 22.832031 L 56.175781 22.535156 C 56.226562 22.507812 56.300781 22.507812 56.351562 22.507812 C 56.625 22.507812 56.847656 22.734375 56.847656 23.007812 L 56.847656 24.5 C 56.847656 24.699219 56.722656 24.898438 56.523438 24.972656 L 55.378906 25.371094 L 55.378906 29.351562 L 56.175781 29.074219 C 56.226562 29.050781 56.300781 29.050781 56.351562 29.050781 C 56.625 29.050781 56.847656 29.273438 56.847656 29.546875 L 56.847656 31.039062 C 56.847656 31.238281 56.722656 31.414062 56.523438 31.488281 L 55.378906 31.910156 Z M 52.394531 26.464844 L 52.394531 30.445312 L 54.460938 29.699219 L 54.460938 25.71875 Z M 52.394531 26.464844 "/>
<path style=" stroke:none;fill-rule:nonzero;fill:rgb(0%,0%,0%);fill-opacity:1;" d="M 42.347656 38.949219 C 42.347656 39.199219 42.148438 39.421875 41.898438 39.421875 C 41.652344 39.421875 41.425781 39.199219 41.425781 38.949219 L 41.425781 35.34375 L 39.363281 36.113281 L 39.363281 40.042969 C 39.363281 40.292969 39.136719 40.515625 38.890625 40.515625 C 38.640625 40.515625 38.441406 40.292969 38.441406 40.042969 L 38.441406 36.4375 L 37.644531 36.738281 C 37.597656 36.761719 37.523438 36.761719 37.472656 36.761719 C 37.199219 36.761719 36.972656 36.539062 36.972656 36.265625 L 36.972656 34.773438 C 36.972656 34.574219 37.097656 34.375 37.296875 34.300781 L 38.441406 33.902344 L 38.441406 29.921875 L 37.644531 30.195312 C 37.597656 30.21875 37.523438 30.21875 37.472656 30.21875 C 37.199219 30.21875 36.972656 29.996094 36.972656 29.722656 L 36.972656 28.230469 C 36.972656 28.03125 37.097656 27.855469 37.296875 27.78125 L 38.441406 27.359375 L 38.441406 23.429688 C 38.441406 23.179688 38.640625 22.957031 38.890625 22.957031 C 39.136719 22.957031 39.363281 23.179688 39.363281 23.429688 L 39.363281 27.035156 L 41.425781 26.265625 L 41.425781 22.335938 C 41.425781 22.085938 41.652344 21.863281 41.898438 21.863281 C 42.148438 21.863281 42.347656 22.085938 42.347656 22.335938 L 42.347656 25.941406 L 43.144531 25.644531 C 43.191406 25.617188 43.265625 25.617188 43.316406 25.617188 C 43.589844 25.617188 43.8125 25.84375 43.8125 26.117188 L 43.8125 27.609375 C 43.8125 27.808594 43.691406 28.007812 43.492188 28.082031 L 42.347656 28.480469 L 42.347656 32.457031 L 43.144531 32.183594 C 43.191406 32.160156 43.265625 32.160156 43.316406 32.160156 C 43.589844 32.160156 43.8125 32.382812 43.8125 32.65625 L 43.8125 34.148438 C 43.8125 34.347656 43.691406 34.523438 43.492188 34.597656 L 42.347656 35.019531 Z M 39.363281 29.574219 L 39.363281 33.554688 L 41.425781 32.808594 L 41.425781 28.828125 Z M 39.363281 29.574219 "/>
<path style=" stroke:none;fill-rule:nonzero;fill:rgb(0%,0%,0%);fill-opacity:1;" d="M 32.996094 37.410156 C 33.570312 37.980469 34.390625 38.105469 35.210938 38.105469 C 35.359375 38.105469 35.460938 38.203125 35.460938 38.351562 L 35.683594 40.515625 C 35.707031 40.667969 35.582031 40.789062 35.433594 40.765625 L 33.269531 40.542969 C 33.144531 40.515625 33.023438 40.417969 33.023438 40.292969 C 33.023438 39.472656 32.898438 38.652344 32.324219 38.078125 C 31.753906 38.652344 31.652344 39.472656 31.652344 40.292969 C 31.652344 40.417969 31.527344 40.515625 31.40625 40.542969 L 29.214844 40.765625 C 29.066406 40.789062 28.941406 40.667969 28.96875 40.515625 L 29.191406 38.351562 C 29.191406 38.203125 29.289062 38.105469 29.441406 38.105469 C 30.261719 38.105469 31.082031 37.980469 31.652344 37.410156 C 31.082031 36.835938 30.261719 36.710938 29.441406 36.710938 C 29.289062 36.710938 29.191406 36.613281 29.191406 36.464844 L 28.96875 34.300781 C 28.941406 34.148438 29.066406 34.027344 29.214844 34.050781 L 31.40625 34.273438 C 31.527344 34.300781 31.628906 34.398438 31.628906 34.523438 C 31.628906 35.34375 31.753906 36.164062 32.324219 36.738281 C 32.898438 36.164062 33.023438 35.34375 33.023438 34.523438 C 33.023438 34.398438 33.144531 34.300781 33.269531 34.273438 L 35.433594 34.050781 C 35.582031 34.027344 35.707031 34.148438 35.683594 34.300781 L 35.460938 36.464844 C 35.460938 36.613281 35.359375 36.710938 35.210938 36.710938 C 34.390625 36.710938 33.570312 36.835938 32.996094 37.410156 Z M 32.996094 37.410156 "/>
<path style=" stroke:none;fill-rule:nonzero;fill:rgb(0%,0%,0%);fill-opacity:1;" d="M 48.789062 51.386719 C 48.789062 51.636719 48.589844 51.859375 48.339844 51.859375 C 48.09375 51.859375 47.867188 51.636719 47.867188 51.386719 L 47.867188 47.78125 L 45.804688 48.550781 L 45.804688 52.480469 C 45.804688 52.730469 45.582031 52.953125 45.332031 52.953125 C 45.082031 52.953125 44.882812 52.730469 44.882812 52.480469 L 44.882812 48.875 L 44.089844 49.171875 C 44.039062 49.199219 43.964844 49.199219 43.914062 49.199219 C 43.640625 49.199219 43.417969 48.972656 43.417969 48.699219 L 43.417969 47.207031 C 43.417969 47.007812 43.539062 46.808594 43.738281 46.734375 L 44.882812 46.335938 L 44.882812 42.359375 L 44.089844 42.632812 C 44.039062 42.65625 43.964844 42.65625 43.914062 42.65625 C 43.640625 42.65625 43.417969 42.433594 43.417969 42.160156 L 43.417969 40.667969 C 43.417969 40.46875 43.539062 40.292969 43.738281 40.21875 L 44.882812 39.796875 L 44.882812 35.867188 C 44.882812 35.617188 45.082031 35.394531 45.332031 35.394531 C 45.582031 35.394531 45.804688 35.617188 45.804688 35.867188 L 45.804688 39.472656 L 47.867188 38.703125 L 47.867188 34.773438 C 47.867188 34.523438 48.09375 34.300781 48.339844 34.300781 C 48.589844 34.300781 48.789062 34.523438 48.789062 34.773438 L 48.789062 38.378906 L 49.585938 38.078125 C 49.632812 38.054688 49.710938 38.054688 49.757812 38.054688 C 50.03125 38.054688 50.257812 38.277344 50.257812 38.550781 L 50.257812 40.042969 C 50.257812 40.242188 50.132812 40.441406 49.933594 40.515625 L 48.789062 40.914062 L 48.789062 44.894531 L 49.585938 44.621094 C 49.632812 44.597656 49.710938 44.597656 49.757812 44.597656 C 50.03125 44.597656 50.257812 44.820312 50.257812 45.09375 L 50.257812 46.585938 C 50.257812 46.785156 50.132812 46.960938 49.933594 47.035156 L 48.789062 47.457031 Z M 45.804688 42.011719 L 45.804688 45.988281 L 47.867188 45.242188 L 47.867188 41.261719 Z M 45.804688 42.011719 "/>
<path style=" stroke:none;fill-rule:nonzero;fill:rgb(0%,0%,0%);fill-opacity:1;" d="M 16.152344 50.09375 L 16.003906 50.09375 C 13.316406 50.09375 11.152344 47.90625 11.152344 45.195312 C 11.152344 43.75 12.46875 42.632812 13.9375 42.632812 C 15.28125 42.632812 16.300781 43.800781 16.300781 45.195312 C 16.300781 46.488281 15.230469 47.554688 13.9375 47.554688 C 13.664062 47.554688 13.414062 47.507812 13.167969 47.40625 C 13.8125 48.378906 14.859375 49.023438 16.078125 49.023438 L 16.175781 49.023438 Z M 21 39.347656 C 22.691406 38.75 23.8125 36.984375 23.8125 35.269531 C 23.8125 33.03125 22.171875 30.816406 19.507812 30.542969 C 20.105469 33.429688 20.652344 36.289062 21 39.347656 Z M 11.375 33.601562 C 11.375 36.960938 14.585938 39.746094 17.941406 39.746094 C 18.640625 39.746094 19.308594 39.695312 19.980469 39.597656 C 19.632812 36.4375 19.0625 33.503906 18.414062 30.542969 C 16.449219 30.742188 15.332031 32.0625 15.332031 33.503906 C 15.332031 34.597656 15.953125 35.765625 17.34375 36.5625 C 17.46875 36.6875 17.519531 36.8125 17.519531 36.9375 C 17.519531 37.210938 17.269531 37.484375 16.972656 37.484375 C 16.898438 37.484375 16.824219 37.457031 16.75 37.433594 C 14.757812 36.363281 13.839844 34.574219 13.839844 32.832031 C 13.839844 30.644531 15.28125 28.503906 17.816406 27.933594 C 17.46875 26.488281 17.097656 25.023438 16.675781 23.578125 C 14.011719 26.589844 11.375 29.625 11.375 33.601562 Z M 17.867188 40.816406 C 13.191406 40.816406 9.585938 36.539062 9.585938 31.511719 C 9.585938 27.109375 12.84375 23.902344 15.753906 20.542969 C 15.28125 19.003906 14.832031 17.4375 14.632812 15.820312 C 14.484375 14.527344 14.460938 13.230469 14.460938 11.9375 C 14.460938 9.078125 15.828125 6.367188 18.167969 4.675781 C 18.316406 4.550781 18.515625 4.550781 18.664062 4.675781 C 20.429688 6.765625 21.972656 10.769531 21.972656 13.582031 C 21.972656 17.136719 19.832031 19.921875 17.496094 22.632812 C 18.015625 24.324219 18.464844 26.066406 18.886719 27.78125 C 18.988281 27.78125 19.113281 27.757812 19.210938 27.757812 C 23.066406 27.757812 25.578125 30.941406 25.578125 34.25 C 25.578125 36.140625 24.757812 38.078125 22.917969 39.472656 C 22.371094 39.894531 21.746094 40.167969 21.101562 40.367188 C 21.175781 41.238281 21.226562 42.109375 21.226562 42.980469 C 21.226562 43.453125 21.199219 43.949219 21.175781 44.421875 C 21 47.382812 18.988281 50.019531 16.152344 50.09375 L 16.175781 49.023438 C 18.488281 48.972656 19.980469 46.734375 20.132812 44.273438 C 20.15625 43.824219 20.179688 43.351562 20.179688 42.90625 C 20.179688 42.132812 20.15625 41.386719 20.082031 40.617188 C 19.359375 40.742188 18.640625 40.816406 17.867188 40.816406 Z M 20.179688 11.515625 C 20.179688 10.148438 20.082031 9.550781 19.683594 8.308594 C 17.222656 9.5 15.652344 12.011719 15.652344 14.75 C 15.652344 16.589844 16.101562 18.058594 16.550781 19.574219 C 18.539062 17.160156 20.179688 14.648438 20.179688 11.515625 Z M 20.179688 11.515625 "/>
<path style=" stroke:none;fill-rule:nonzero;fill:rgb(0%,0%,0%);fill-opacity:1;" d="M 72.152344 24.699219 C 73.519531 24.699219 74.839844 25.394531 74.839844 26.910156 C 74.839844 28.679688 73.46875 29.921875 72.300781 30.617188 C 71.429688 31.140625 70.433594 31.464844 69.414062 31.464844 C 68.046875 31.464844 66.730469 30.765625 66.730469 29.25 C 66.730469 27.484375 68.097656 26.242188 69.265625 25.542969 C 70.136719 25.023438 71.132812 24.699219 72.152344 24.699219 Z M 72.152344 24.699219 "/>
<path style=" stroke:none;fill-rule:nonzero;fill:rgb(0%,0%,0%);fill-opacity:1;" d="M 64.445312 27.808594 C 65.8125 27.808594 67.132812 28.503906 67.132812 30.019531 C 67.132812 31.789062 65.765625 33.03125 64.59375 33.726562 C 63.726562 34.25 62.730469 34.574219 61.710938 34.574219 C 60.34375 34.574219 59.023438 33.875 59.023438 32.359375 C 59.023438 30.59375 60.390625 29.351562 61.5625 28.652344 C 62.429688 28.132812 63.425781 27.808594 64.445312 27.808594 Z M 64.445312 27.808594 "/>
<path style=" stroke:none;fill-rule:nonzero;fill:rgb(0%,0%,0%);fill-opacity:1;" d="M 64.445312 34.027344 C 65.8125 34.027344 67.132812 34.722656 67.132812 36.238281 C 67.132812 38.003906 65.765625 39.25 64.59375 39.945312 C 63.726562 40.46875 62.730469 40.789062 61.710938 40.789062 C 60.34375 40.789062 59.023438 40.09375 59.023438 38.578125 C 59.023438 36.8125 60.390625 35.566406 61.5625 34.871094 C 62.429688 34.347656 63.425781 34.027344 64.445312 34.027344 Z M 64.445312 34.027344 "/>
<path style=" stroke:none;fill-rule:nonzero;fill:rgb(0%,0%,0%);fill-opacity:1;" d="M 64.445312 40.242188 C 65.8125 40.242188 67.132812 40.941406 67.132812 42.457031 C 67.132812 44.222656 65.765625 45.46875 64.59375 46.164062 C 63.726562 46.6875 62.730469 47.007812 61.710938 47.007812 C 60.34375 47.007812 59.023438 46.3125 59.023438 44.796875 C 59.023438 43.03125 60.390625 41.785156 61.5625 41.089844 C 62.429688 40.566406 63.425781 40.242188 64.445312 40.242188 Z M 64.445312 40.242188 "/>
</g>
</svg>
