<?xml version="1.0" encoding="UTF-8"?>
<svg xmlns="http://www.w3.org/2000/svg" xmlns:xlink="http://www.w3.org/1999/xlink" width="82.054772pt" height="55.385232pt" viewBox="0 0 82.054772 55.385232" version="1.1">
<g id="surface1">
<path style="fill:none;stroke-width:0.1;stroke-linecap:round;stroke-linejoin:round;stroke:rgb(0%,0%,0%);stroke-opacity:1;stroke-miterlimit:4;" d="M 0.049863 0.000184716 L 10.797133 0.000184716 " transform="matrix(6.218149,0,0,6.218149,4.561038,38.776195)"/>
<path style="fill:none;stroke-width:0.1;stroke-linecap:round;stroke-linejoin:round;stroke:rgb(0%,0%,0%);stroke-opacity:1;stroke-miterlimit:4;" d="M 0.049863 0.0000880672 L 10.797133 0.0000880672 " transform="matrix(6.218149,0,0,6.218149,4.561038,32.558046)"/>
<path style="fill:none;stroke-width:0.1;stroke-linecap:round;stroke-linejoin:round;stroke:rgb(0%,0%,0%);stroke-opacity:1;stroke-miterlimit:4;" d="M 0.049863 -0.00000858141 L 10.797133 -0.00000858141 " transform="matrix(6.218149,0,0,6.218149,4.561038,26.339897)"/>
<path style="fill:none;stroke-width:0.1;stroke-linecap:round;stroke-linejoin:round;stroke:rgb(0%,0%,0%);stroke-opacity:1;stroke-miterlimit:4;" d="M 0.049863 -0.00010523 L 10.797133 -0.00010523 " transform="matrix(6.218149,0,0,6.218149,4.561038,20.121748)"/>
<path style="fill:none;stroke-width:0.1;stroke-linecap:round;stroke-linejoin:round;stroke:rgb(0%,0%,0%);stroke-opacity:1;stroke-miterlimit:4;" d="M 0.049863 -0.000201879 L 10.797133 -0.000201879 " transform="matrix(6.218149,0,0,6.218149,4.561038,13.903599)"/>
<path style=" stroke:none;fill-rule:nonzero;fill:rgb(0%,0%,0%);fill-opacity:1;" d="M 53.589844 15.0625 L 53.902344 15.0625 C 54.039062 15.0625 54.152344 15.171875 54.152344 15.308594 L 54.152344 46.816406 C 54.152344 46.957031 54.039062 47.066406 53.902344 47.066406 L 53.589844 47.066406 C 53.453125 47.066406 53.34375 46.957031 53.34375 46.816406 L 53.34375 15.308594 C 53.34375 15.171875 53.453125 15.0625 53.589844 15.0625 Z M 53.589844 15.0625 "/>
<path style=" stroke:none;fill-rule:nonzero;fill:rgb(0%,0%,0%);fill-opacity:1;" d="M 49.699219 21.664062 C 49.699219 21.914062 49.5 22.136719 49.25 22.136719 C 49.003906 22.136719 48.777344 21.914062 48.777344 21.664062 L 48.777344 18.058594 L 46.714844 18.828125 L 46.714844 22.757812 C 46.714844 23.007812 46.492188 23.230469 46.242188 23.230469 C 45.992188 23.230469 45.792969 23.007812 45.792969 22.757812 L 45.792969 19.152344 L 45 19.449219 C 44.949219 19.476562 44.875 19.476562 44.824219 19.476562 C 44.550781 19.476562 44.328125 19.25 44.328125 18.976562 L 44.328125 17.484375 C 44.328125 17.285156 44.449219 17.085938 44.648438 17.011719 L 45.792969 16.613281 L 45.792969 12.636719 L 45 12.910156 C 44.949219 12.933594 44.875 12.933594 44.824219 12.933594 C 44.550781 12.933594 44.328125 12.710938 44.328125 12.4375 L 44.328125 10.945312 C 44.328125 10.746094 44.449219 10.570312 44.648438 10.496094 L 45.792969 10.074219 L 45.792969 6.144531 C 45.792969 5.894531 45.992188 5.671875 46.242188 5.671875 C 46.492188 5.671875 46.714844 5.894531 46.714844 6.144531 L 46.714844 9.75 L 48.777344 8.980469 L 48.777344 5.050781 C 48.777344 4.800781 49.003906 4.578125 49.25 4.578125 C 49.5 4.578125 49.699219 4.800781 49.699219 5.050781 L 49.699219 8.65625 L 50.496094 8.355469 C 50.542969 8.332031 50.621094 8.332031 50.667969 8.332031 C 50.941406 8.332031 51.167969 8.554688 51.167969 8.828125 L 51.167969 10.320312 C 51.167969 10.519531 51.042969 10.71875 50.84375 10.792969 L 49.699219 11.191406 L 49.699219 15.171875 L 50.496094 14.898438 C 50.542969 14.875 50.621094 14.875 50.667969 14.875 C 50.941406 14.875 51.167969 15.097656 51.167969 15.371094 L 51.167969 16.863281 C 51.167969 17.0625 51.042969 17.238281 50.84375 17.3125 L 49.699219 17.734375 Z M 46.714844 12.285156 L 46.714844 16.265625 L 48.777344 15.519531 L 48.777344 11.539062 Z M 46.714844 12.285156 "/>
<path style=" stroke:none;fill-rule:nonzero;fill:rgb(0%,0%,0%);fill-opacity:1;" d="M 33.734375 20.121094 C 34.304688 20.695312 35.125 20.816406 35.945312 20.816406 C 36.097656 20.816406 36.195312 20.917969 36.195312 21.066406 L 36.417969 23.230469 C 36.445312 23.378906 36.320312 23.503906 36.171875 23.480469 L 34.007812 23.253906 C 33.882812 23.230469 33.757812 23.132812 33.757812 23.007812 C 33.757812 22.1875 33.632812 21.367188 33.0625 20.792969 C 32.488281 21.367188 32.390625 22.1875 32.390625 23.007812 C 32.390625 23.132812 32.265625 23.230469 32.140625 23.253906 L 29.953125 23.480469 C 29.804688 23.503906 29.679688 23.378906 29.703125 23.230469 L 29.925781 21.066406 C 29.925781 20.917969 30.027344 20.816406 30.175781 20.816406 C 30.996094 20.816406 31.816406 20.695312 32.390625 20.121094 C 31.816406 19.550781 30.996094 19.425781 30.175781 19.425781 C 30.027344 19.425781 29.925781 19.324219 29.925781 19.175781 L 29.703125 17.011719 C 29.679688 16.863281 29.804688 16.738281 29.953125 16.765625 L 32.140625 16.988281 C 32.265625 17.011719 32.363281 17.113281 32.363281 17.238281 C 32.363281 18.058594 32.488281 18.878906 33.0625 19.449219 C 33.632812 18.878906 33.757812 18.058594 33.757812 17.238281 C 33.757812 17.113281 33.882812 17.011719 34.007812 16.988281 L 36.171875 16.765625 C 36.320312 16.738281 36.445312 16.863281 36.417969 17.011719 L 36.195312 19.175781 C 36.195312 19.324219 36.097656 19.425781 35.945312 19.425781 C 35.125 19.425781 34.304688 19.550781 33.734375 20.121094 Z M 33.734375 20.121094 "/>
<path style=" stroke:none;fill-rule:nonzero;fill:rgb(0%,0%,0%);fill-opacity:1;" d="M 43.082031 34.101562 C 43.082031 34.347656 42.882812 34.574219 42.636719 34.574219 C 42.386719 34.574219 42.164062 34.347656 42.164062 34.101562 L 42.164062 30.492188 L 40.097656 31.265625 L 40.097656 35.195312 C 40.097656 35.441406 39.875 35.667969 39.625 35.667969 C 39.378906 35.667969 39.179688 35.441406 39.179688 35.195312 L 39.179688 31.589844 L 38.382812 31.886719 C 38.332031 31.910156 38.257812 31.910156 38.207031 31.910156 C 37.933594 31.910156 37.710938 31.6875 37.710938 31.414062 L 37.710938 29.921875 C 37.710938 29.722656 37.835938 29.523438 38.035156 29.449219 L 39.179688 29.050781 L 39.179688 25.070312 L 38.382812 25.34375 C 38.332031 25.371094 38.257812 25.371094 38.207031 25.371094 C 37.933594 25.371094 37.710938 25.144531 37.710938 24.871094 L 37.710938 23.378906 C 37.710938 23.179688 37.835938 23.007812 38.035156 22.933594 L 39.179688 22.507812 L 39.179688 18.578125 C 39.179688 18.332031 39.378906 18.105469 39.625 18.105469 C 39.875 18.105469 40.097656 18.332031 40.097656 18.578125 L 40.097656 22.1875 L 42.164062 21.414062 L 42.164062 17.484375 C 42.164062 17.238281 42.386719 17.011719 42.636719 17.011719 C 42.882812 17.011719 43.082031 17.238281 43.082031 17.484375 L 43.082031 21.089844 L 43.878906 20.792969 C 43.929688 20.769531 44.003906 20.769531 44.054688 20.769531 C 44.328125 20.769531 44.550781 20.992188 44.550781 21.265625 L 44.550781 22.757812 C 44.550781 22.957031 44.425781 23.15625 44.226562 23.230469 L 43.082031 23.628906 L 43.082031 27.609375 L 43.878906 27.335938 C 43.929688 27.308594 44.003906 27.308594 44.054688 27.308594 C 44.328125 27.308594 44.550781 27.535156 44.550781 27.808594 L 44.550781 29.300781 C 44.550781 29.5 44.425781 29.671875 44.226562 29.746094 L 43.082031 30.171875 Z M 40.097656 24.722656 L 40.097656 28.703125 L 42.164062 27.957031 L 42.164062 23.976562 Z M 40.097656 24.722656 "/>
<path style=" stroke:none;fill-rule:nonzero;fill:rgb(0%,0%,0%);fill-opacity:1;" d="M 23.390625 23.230469 C 23.390625 22.535156 23.960938 21.960938 24.65625 21.960938 C 25.355469 21.960938 25.925781 22.535156 25.925781 23.230469 C 25.925781 23.925781 25.355469 24.5 24.65625 24.5 C 23.960938 24.5 23.390625 23.925781 23.390625 23.230469 Z M 23.390625 17.011719 C 23.390625 16.316406 23.960938 15.746094 24.65625 15.746094 C 25.355469 15.746094 25.925781 16.316406 25.925781 17.011719 C 25.925781 17.710938 25.355469 18.28125 24.65625 18.28125 C 23.960938 18.28125 23.390625 17.710938 23.390625 17.011719 Z M 15.304688 13.582031 C 19.585938 13.582031 22.59375 15.769531 22.59375 19.824219 C 22.59375 26.363281 16.050781 30.121094 9.757812 32.78125 C 9.683594 32.855469 9.609375 32.882812 9.535156 32.882812 C 9.363281 32.882812 9.210938 32.730469 9.210938 32.558594 C 9.210938 32.484375 9.238281 32.410156 9.3125 32.335938 C 14.335938 29.398438 19.558594 25.742188 19.558594 20.070312 C 19.558594 17.085938 17.992188 14.226562 15.304688 14.226562 C 13.464844 14.226562 12.097656 15.570312 11.476562 17.359375 C 11.75 17.238281 12.023438 17.160156 12.320312 17.160156 C 13.6875 17.160156 14.808594 18.28125 14.808594 19.648438 C 14.808594 21.089844 13.714844 22.285156 12.320312 22.285156 C 10.828125 22.285156 9.535156 21.117188 9.535156 19.648438 C 9.535156 16.339844 12.074219 13.582031 15.304688 13.582031 Z M 15.304688 13.582031 "/>
<path style=" stroke:none;fill-rule:nonzero;fill:rgb(0%,0%,0%);fill-opacity:1;" d="M 58.765625 10.519531 C 60.132812 10.519531 61.453125 11.21875 61.453125 12.734375 C 61.453125 14.5 60.082031 15.746094 58.914062 16.441406 C 58.042969 16.964844 57.050781 17.285156 56.027344 17.285156 C 54.660156 17.285156 53.34375 16.589844 53.34375 15.074219 C 53.34375 13.308594 54.710938 12.0625 55.878906 11.367188 C 56.75 10.84375 57.746094 10.519531 58.765625 10.519531 Z M 58.765625 10.519531 "/>
<path style=" stroke:none;fill-rule:nonzero;fill:rgb(0%,0%,0%);fill-opacity:1;" d="M 58.765625 16.738281 C 60.132812 16.738281 61.453125 17.433594 61.453125 18.953125 C 61.453125 20.71875 60.082031 21.960938 58.914062 22.660156 C 58.042969 23.179688 57.050781 23.503906 56.027344 23.503906 C 54.660156 23.503906 53.34375 22.808594 53.34375 21.289062 C 53.34375 19.523438 54.710938 18.28125 55.878906 17.585938 C 56.75 17.0625 57.746094 16.738281 58.765625 16.738281 Z M 58.765625 16.738281 "/>
<path style=" stroke:none;fill-rule:nonzero;fill:rgb(0%,0%,0%);fill-opacity:1;" d="M 58.765625 22.957031 C 60.132812 22.957031 61.453125 23.652344 61.453125 25.171875 C 61.453125 26.9375 60.082031 28.179688 58.914062 28.875 C 58.042969 29.398438 57.050781 29.722656 56.027344 29.722656 C 54.660156 29.722656 53.34375 29.027344 53.34375 27.507812 C 53.34375 25.742188 54.710938 24.5 55.878906 23.804688 C 56.75 23.28125 57.746094 22.957031 58.765625 22.957031 Z M 58.765625 22.957031 "/>
</g>
</svg>
