<?xml version="1.0" encoding="UTF-8"?>
<svg xmlns="http://www.w3.org/2000/svg" xmlns:xlink="http://www.w3.org/1999/xlink" width="72.54574pt" height="49.753008pt" viewBox="0 0 72.54574 49.753008" version="1.1">
<g id="surface1">
<path style="fill:none;stroke-width:0.1;stroke-linecap:round;stroke-linejoin:round;stroke:rgb(0%,0%,0%);stroke-opacity:1;stroke-miterlimit:4;" d="M 0.049863 -0.000217086 L 9.365462 -0.000217086 " transform="matrix(6.218149,0,0,6.218149,4.561038,37.739631)"/>
<path style="fill:none;stroke-width:0.1;stroke-linecap:round;stroke-linejoin:round;stroke:rgb(0%,0%,0%);stroke-opacity:1;stroke-miterlimit:4;" d="M 0.049863 -0.000313735 L 9.365462 -0.000313735 " transform="matrix(6.218149,0,0,6.218149,4.561038,31.521482)"/>
<path style="fill:none;stroke-width:0.1;stroke-linecap:round;stroke-linejoin:round;stroke:rgb(0%,0%,0%);stroke-opacity:1;stroke-miterlimit:4;" d="M 0.049863 0.000217818 L 9.365462 0.000217818 " transform="matrix(6.218149,0,0,6.218149,4.561038,25.303333)"/>
<path style="fill:none;stroke-width:0.1;stroke-linecap:round;stroke-linejoin:round;stroke:rgb(0%,0%,0%);stroke-opacity:1;stroke-miterlimit:4;" d="M 0.049863 0.000121169 L 9.365462 0.000121169 " transform="matrix(6.218149,0,0,6.218149,4.561038,19.085184)"/>
<path style="fill:none;stroke-width:0.1;stroke-linecap:round;stroke-linejoin:round;stroke:rgb(0%,0%,0%);stroke-opacity:1;stroke-miterlimit:4;" d="M 0.049863 0.0000245208 L 9.365462 0.0000245208 " transform="matrix(6.218149,0,0,6.218149,4.561038,12.867035)"/>
<path style=" stroke:none;fill-rule:nonzero;fill:rgb(0%,0%,0%);fill-opacity:1;" d="M 51.992188 4.578125 L 52.300781 4.578125 C 52.4375 4.578125 52.550781 4.6875 52.550781 4.824219 L 52.550781 36.332031 C 52.550781 36.472656 52.4375 36.582031 52.300781 36.582031 L 51.992188 36.582031 C 51.851562 36.582031 51.742188 36.472656 51.742188 36.332031 L 51.742188 4.824219 C 51.742188 4.6875 51.851562 4.578125 51.992188 4.578125 Z M 51.992188 4.578125 "/>
<path style=" stroke:none;fill-rule:nonzero;fill:rgb(0%,0%,0%);fill-opacity:1;" d="M 37.960938 30.5 L 37.9375 32.144531 L 37.9375 32.417969 C 37.9375 32.964844 37.960938 33.511719 38.035156 34.058594 C 39.15625 33.113281 40.347656 32.070312 40.347656 30.601562 C 40.347656 29.78125 40 28.933594 39.28125 28.933594 C 38.507812 28.933594 37.984375 29.679688 37.960938 30.5 Z M 36.917969 34.953125 L 36.617188 20.15625 C 36.816406 20.03125 37.066406 19.957031 37.289062 19.957031 C 37.511719 19.957031 37.761719 20.03125 37.960938 20.15625 L 37.785156 28.734375 C 38.410156 28.214844 39.230469 27.890625 40.050781 27.890625 C 41.34375 27.890625 42.265625 29.082031 42.265625 30.425781 C 42.265625 32.417969 40.125 33.335938 38.609375 34.628906 C 38.234375 34.953125 38.011719 35.574219 37.488281 35.574219 C 37.164062 35.574219 36.917969 35.300781 36.917969 34.953125 Z M 36.917969 34.953125 "/>
<path style=" stroke:none;fill-rule:nonzero;fill:rgb(0%,0%,0%);fill-opacity:1;" d="M 31.371094 36.71875 L 31.34375 38.363281 L 31.34375 38.636719 C 31.34375 39.183594 31.371094 39.730469 31.445312 40.277344 C 32.5625 39.332031 33.757812 38.285156 33.757812 36.820312 C 33.757812 36 33.410156 35.152344 32.6875 35.152344 C 31.917969 35.152344 31.394531 35.898438 31.371094 36.71875 Z M 30.324219 41.171875 L 30.027344 26.371094 C 30.226562 26.25 30.472656 26.175781 30.699219 26.175781 C 30.921875 26.175781 31.171875 26.25 31.371094 26.371094 L 31.195312 34.953125 C 31.816406 34.429688 32.636719 34.109375 33.460938 34.109375 C 34.753906 34.109375 35.671875 35.300781 35.671875 36.644531 C 35.671875 38.636719 33.535156 39.554688 32.015625 40.847656 C 31.644531 41.171875 31.417969 41.792969 30.898438 41.792969 C 30.574219 41.792969 30.324219 41.519531 30.324219 41.171875 Z M 30.324219 41.171875 "/>
<path style=" stroke:none;fill-rule:nonzero;fill:rgb(0%,0%,0%);fill-opacity:1;" d="M 23.390625 22.195312 C 23.390625 21.496094 23.960938 20.925781 24.65625 20.925781 C 25.355469 20.925781 25.925781 21.496094 25.925781 22.195312 C 25.925781 22.890625 25.355469 23.460938 24.65625 23.460938 C 23.960938 23.460938 23.390625 22.890625 23.390625 22.195312 Z M 23.390625 15.976562 C 23.390625 15.28125 23.960938 14.707031 24.65625 14.707031 C 25.355469 14.707031 25.925781 15.28125 25.925781 15.976562 C 25.925781 16.671875 25.355469 17.246094 24.65625 17.246094 C 23.960938 17.246094 23.390625 16.671875 23.390625 15.976562 Z M 15.304688 12.542969 C 19.585938 12.542969 22.59375 14.734375 22.59375 18.785156 C 22.59375 25.328125 16.050781 29.082031 9.757812 31.746094 C 9.683594 31.820312 9.609375 31.84375 9.535156 31.84375 C 9.363281 31.84375 9.210938 31.695312 9.210938 31.519531 C 9.210938 31.445312 9.238281 31.371094 9.3125 31.296875 C 14.335938 28.363281 19.558594 24.707031 19.558594 19.035156 C 19.558594 16.050781 17.992188 13.191406 15.304688 13.191406 C 13.464844 13.191406 12.097656 14.535156 11.476562 16.324219 C 11.75 16.199219 12.023438 16.125 12.320312 16.125 C 13.6875 16.125 14.808594 17.246094 14.808594 18.613281 C 14.808594 20.054688 13.714844 21.25 12.320312 21.25 C 10.828125 21.25 9.535156 20.082031 9.535156 18.613281 C 9.535156 15.304688 12.074219 12.542969 15.304688 12.542969 Z M 15.304688 12.542969 "/>
<path style=" stroke:none;fill-rule:nonzero;fill:rgb(0%,0%,0%);fill-opacity:1;" d="M 49.863281 21.921875 C 51.230469 21.921875 52.550781 22.617188 52.550781 24.132812 C 52.550781 25.898438 51.179688 27.144531 50.011719 27.839844 C 49.140625 28.363281 48.148438 28.6875 47.125 28.6875 C 45.757812 28.6875 44.441406 27.988281 44.441406 26.472656 C 44.441406 24.707031 45.808594 23.460938 46.976562 22.765625 C 47.847656 22.242188 48.84375 21.921875 49.863281 21.921875 Z M 49.863281 21.921875 "/>
<path style=" stroke:none;fill-rule:nonzero;fill:rgb(0%,0%,0%);fill-opacity:1;" d="M 49.863281 28.140625 C 51.230469 28.140625 52.550781 28.835938 52.550781 30.351562 C 52.550781 32.117188 51.179688 33.363281 50.011719 34.058594 C 49.140625 34.582031 48.148438 34.902344 47.125 34.902344 C 45.757812 34.902344 44.441406 34.207031 44.441406 32.691406 C 44.441406 30.925781 45.808594 29.679688 46.976562 28.984375 C 47.847656 28.460938 48.84375 28.140625 49.863281 28.140625 Z M 49.863281 28.140625 "/>
<path style=" stroke:none;fill-rule:nonzero;fill:rgb(0%,0%,0%);fill-opacity:1;" d="M 49.863281 34.355469 C 51.230469 34.355469 52.550781 35.054688 52.550781 36.570312 C 52.550781 38.335938 51.179688 39.582031 50.011719 40.277344 C 49.140625 40.800781 48.148438 41.121094 47.125 41.121094 C 45.757812 41.121094 44.441406 40.425781 44.441406 38.910156 C 44.441406 37.144531 45.808594 35.898438 46.976562 35.203125 C 47.847656 34.679688 48.84375 34.355469 49.863281 34.355469 Z M 49.863281 34.355469 "/>
</g>
</svg>
