<?xml version="1.0" encoding="UTF-8"?>
<svg xmlns="http://www.w3.org/2000/svg" xmlns:xlink="http://www.w3.org/1999/xlink" width="72.42486pt" height="63.46631pt" viewBox="0 0 72.42486 63.46631" version="1.1">
<g id="surface1">
<path style="fill:none;stroke-width:0.1;stroke-linecap:round;stroke-linejoin:round;stroke:rgb(0%,0%,0%);stroke-opacity:1;stroke-miterlimit:4;" d="M 0.049863 -0.000201864 L 9.347244 -0.000201864 " transform="matrix(6.218149,0,0,6.218149,4.561038,54.321568)"/>
<path style="fill:none;stroke-width:0.1;stroke-linecap:round;stroke-linejoin:round;stroke:rgb(0%,0%,0%);stroke-opacity:1;stroke-miterlimit:4;" d="M 0.049863 -0.000298513 L 9.347244 -0.000298513 " transform="matrix(6.218149,0,0,6.218149,4.561038,48.103419)"/>
<path style="fill:none;stroke-width:0.1;stroke-linecap:round;stroke-linejoin:round;stroke:rgb(0%,0%,0%);stroke-opacity:1;stroke-miterlimit:4;" d="M 0.049863 0.00023304 L 9.347244 0.00023304 " transform="matrix(6.218149,0,0,6.218149,4.561038,41.88527)"/>
<path style="fill:none;stroke-width:0.1;stroke-linecap:round;stroke-linejoin:round;stroke:rgb(0%,0%,0%);stroke-opacity:1;stroke-miterlimit:4;" d="M 0.049863 0.000136391 L 9.347244 0.000136391 " transform="matrix(6.218149,0,0,6.218149,4.561038,35.667121)"/>
<path style="fill:none;stroke-width:0.1;stroke-linecap:round;stroke-linejoin:round;stroke:rgb(0%,0%,0%);stroke-opacity:1;stroke-miterlimit:4;" d="M 0.049863 0.0000397429 L 9.347244 0.0000397429 " transform="matrix(6.218149,0,0,6.218149,4.561038,29.448972)"/>
<path style=" stroke:none;fill-rule:nonzero;fill:rgb(0%,0%,0%);fill-opacity:1;" d="M 43.859375 16.390625 L 53.84375 16.390625 C 54.1875 16.390625 54.464844 16.667969 54.464844 17.011719 C 54.464844 17.355469 54.1875 17.632812 53.84375 17.632812 L 43.859375 17.632812 C 43.515625 17.632812 43.238281 17.355469 43.238281 17.011719 C 43.238281 16.667969 43.515625 16.390625 43.859375 16.390625 Z M 43.859375 16.390625 "/>
<path style=" stroke:none;fill-rule:nonzero;fill:rgb(0%,0%,0%);fill-opacity:1;" d="M 42.921875 22.609375 L 53.84375 22.609375 C 54.1875 22.609375 54.464844 22.886719 54.464844 23.230469 C 54.464844 23.574219 54.1875 23.851562 53.84375 23.851562 L 42.921875 23.851562 C 42.578125 23.851562 42.300781 23.574219 42.300781 23.230469 C 42.300781 22.886719 42.578125 22.609375 42.921875 22.609375 Z M 42.921875 22.609375 "/>
<path style=" stroke:none;fill-rule:nonzero;fill:rgb(0%,0%,0%);fill-opacity:1;" d="M 44.574219 15.0625 L 44.886719 15.0625 C 45.023438 15.0625 45.136719 15.171875 45.136719 15.308594 L 45.136719 47.855469 C 45.136719 47.992188 45.023438 48.101562 44.886719 48.101562 L 44.574219 48.101562 C 44.4375 48.101562 44.328125 47.992188 44.328125 47.855469 L 44.328125 15.308594 C 44.328125 15.171875 44.4375 15.0625 44.574219 15.0625 Z M 44.574219 15.0625 "/>
<path style=" stroke:none;fill-rule:nonzero;fill:rgb(0%,0%,0%);fill-opacity:1;" d="M 40.683594 21.664062 C 40.683594 21.914062 40.484375 22.136719 40.234375 22.136719 C 39.988281 22.136719 39.761719 21.914062 39.761719 21.664062 L 39.761719 18.058594 L 37.699219 18.828125 L 37.699219 22.757812 C 37.699219 23.007812 37.472656 23.230469 37.226562 23.230469 C 36.976562 23.230469 36.777344 23.007812 36.777344 22.757812 L 36.777344 19.152344 L 35.980469 19.449219 C 35.933594 19.476562 35.859375 19.476562 35.808594 19.476562 C 35.535156 19.476562 35.308594 19.25 35.308594 18.976562 L 35.308594 17.484375 C 35.308594 17.285156 35.433594 17.085938 35.632812 17.011719 L 36.777344 16.613281 L 36.777344 12.636719 L 35.980469 12.910156 C 35.933594 12.933594 35.859375 12.933594 35.808594 12.933594 C 35.535156 12.933594 35.308594 12.710938 35.308594 12.4375 L 35.308594 10.945312 C 35.308594 10.746094 35.433594 10.570312 35.632812 10.496094 L 36.777344 10.074219 L 36.777344 6.144531 C 36.777344 5.894531 36.976562 5.671875 37.226562 5.671875 C 37.472656 5.671875 37.699219 5.894531 37.699219 6.144531 L 37.699219 9.75 L 39.761719 8.980469 L 39.761719 5.050781 C 39.761719 4.800781 39.988281 4.578125 40.234375 4.578125 C 40.484375 4.578125 40.683594 4.800781 40.683594 5.050781 L 40.683594 8.65625 L 41.480469 8.355469 C 41.527344 8.332031 41.601562 8.332031 41.652344 8.332031 C 41.925781 8.332031 42.148438 8.554688 42.148438 8.828125 L 42.148438 10.320312 C 42.148438 10.519531 42.027344 10.71875 41.828125 10.792969 L 40.683594 11.191406 L 40.683594 15.171875 L 41.480469 14.898438 C 41.527344 14.875 41.601562 14.875 41.652344 14.875 C 41.925781 14.875 42.148438 15.097656 42.148438 15.371094 L 42.148438 16.863281 C 42.148438 17.0625 42.027344 17.238281 41.828125 17.3125 L 40.683594 17.734375 Z M 37.699219 12.285156 L 37.699219 16.265625 L 39.761719 15.519531 L 39.761719 11.539062 Z M 37.699219 12.285156 "/>
<path style=" stroke:none;fill-rule:nonzero;fill:rgb(0%,0%,0%);fill-opacity:1;" d="M 31.371094 25.320312 L 31.34375 26.960938 L 31.34375 27.234375 C 31.34375 27.78125 31.371094 28.328125 31.445312 28.875 C 32.5625 27.933594 33.757812 26.886719 33.757812 25.417969 C 33.757812 24.597656 33.410156 23.753906 32.6875 23.753906 C 31.917969 23.753906 31.394531 24.5 31.371094 25.320312 Z M 30.324219 29.773438 L 30.027344 14.972656 C 30.226562 14.847656 30.472656 14.773438 30.699219 14.773438 C 30.921875 14.773438 31.171875 14.847656 31.371094 14.972656 L 31.195312 23.554688 C 31.816406 23.03125 32.636719 22.707031 33.460938 22.707031 C 34.753906 22.707031 35.671875 23.902344 35.671875 25.246094 C 35.671875 27.234375 33.535156 28.15625 32.015625 29.449219 C 31.644531 29.773438 31.417969 30.394531 30.898438 30.394531 C 30.574219 30.394531 30.324219 30.121094 30.324219 29.773438 Z M 30.324219 29.773438 "/>
<path style=" stroke:none;fill-rule:nonzero;fill:rgb(0%,0%,0%);fill-opacity:1;" d="M 23.390625 38.777344 C 23.390625 38.078125 23.960938 37.507812 24.65625 37.507812 C 25.355469 37.507812 25.925781 38.078125 25.925781 38.777344 C 25.925781 39.472656 25.355469 40.042969 24.65625 40.042969 C 23.960938 40.042969 23.390625 39.472656 23.390625 38.777344 Z M 23.390625 32.558594 C 23.390625 31.863281 23.960938 31.289062 24.65625 31.289062 C 25.355469 31.289062 25.925781 31.863281 25.925781 32.558594 C 25.925781 33.253906 25.355469 33.828125 24.65625 33.828125 C 23.960938 33.828125 23.390625 33.253906 23.390625 32.558594 Z M 15.304688 29.125 C 19.585938 29.125 22.59375 31.3125 22.59375 35.367188 C 22.59375 41.910156 16.050781 45.664062 9.757812 48.328125 C 9.683594 48.402344 9.609375 48.425781 9.535156 48.425781 C 9.363281 48.425781 9.210938 48.277344 9.210938 48.101562 C 9.210938 48.027344 9.238281 47.953125 9.3125 47.878906 C 14.335938 44.945312 19.558594 41.289062 19.558594 35.617188 C 19.558594 32.632812 17.992188 29.773438 15.304688 29.773438 C 13.464844 29.773438 12.097656 31.117188 11.476562 32.90625 C 11.75 32.78125 12.023438 32.707031 12.320312 32.707031 C 13.6875 32.707031 14.808594 33.828125 14.808594 35.195312 C 14.808594 36.636719 13.714844 37.832031 12.320312 37.832031 C 10.828125 37.832031 9.535156 36.660156 9.535156 35.195312 C 9.535156 31.886719 12.074219 29.125 15.304688 29.125 Z M 15.304688 29.125 "/>
<path style=" stroke:none;fill-rule:nonzero;fill:rgb(0%,0%,0%);fill-opacity:1;" d="M 49.75 10.519531 C 51.117188 10.519531 52.433594 11.21875 52.433594 12.734375 C 52.433594 14.5 51.066406 15.746094 49.898438 16.441406 C 49.027344 16.964844 48.03125 17.285156 47.011719 17.285156 C 45.644531 17.285156 44.328125 16.589844 44.328125 15.074219 C 44.328125 13.308594 45.695312 12.0625 46.863281 11.367188 C 47.734375 10.84375 48.730469 10.519531 49.75 10.519531 Z M 49.75 10.519531 "/>
<path style=" stroke:none;fill-rule:nonzero;fill:rgb(0%,0%,0%);fill-opacity:1;" d="M 49.75 16.738281 C 51.117188 16.738281 52.433594 17.433594 52.433594 18.953125 C 52.433594 20.71875 51.066406 21.960938 49.898438 22.660156 C 49.027344 23.179688 48.03125 23.503906 47.011719 23.503906 C 45.644531 23.503906 44.328125 22.808594 44.328125 21.289062 C 44.328125 19.523438 45.695312 18.28125 46.863281 17.585938 C 47.734375 17.0625 48.730469 16.738281 49.75 16.738281 Z M 49.75 16.738281 "/>
<path style=" stroke:none;fill-rule:nonzero;fill:rgb(0%,0%,0%);fill-opacity:1;" d="M 49.75 22.957031 C 51.117188 22.957031 52.433594 23.652344 52.433594 25.171875 C 52.433594 26.9375 51.066406 28.179688 49.898438 28.875 C 49.027344 29.398438 48.03125 29.722656 47.011719 29.722656 C 45.644531 29.722656 44.328125 29.027344 44.328125 27.507812 C 44.328125 25.742188 45.695312 24.5 46.863281 23.804688 C 47.734375 23.28125 48.730469 22.957031 49.75 22.957031 Z M 49.75 22.957031 "/>
</g>
</svg>
