<?xml version="1.0" encoding="UTF-8"?>
<svg xmlns="http://www.w3.org/2000/svg" xmlns:xlink="http://www.w3.org/1999/xlink" width="82.322431pt" height="55.385232pt" viewBox="0 0 82.322431 55.385232" version="1.1">
<g id="surface1">
<path style="fill:none;stroke-width:0.1;stroke-linecap:round;stroke-linejoin:round;stroke:rgb(0%,0%,0%);stroke-opacity:1;stroke-miterlimit:4;" d="M 0.049863 -0.000217086 L 10.837338 -0.000217086 " transform="matrix(6.218149,0,0,6.218149,4.561038,37.739631)"/>
<path style="fill:none;stroke-width:0.1;stroke-linecap:round;stroke-linejoin:round;stroke:rgb(0%,0%,0%);stroke-opacity:1;stroke-miterlimit:4;" d="M 0.049863 -0.000313735 L 10.837338 -0.000313735 " transform="matrix(6.218149,0,0,6.218149,4.561038,31.521482)"/>
<path style="fill:none;stroke-width:0.1;stroke-linecap:round;stroke-linejoin:round;stroke:rgb(0%,0%,0%);stroke-opacity:1;stroke-miterlimit:4;" d="M 0.049863 0.000217818 L 10.837338 0.000217818 " transform="matrix(6.218149,0,0,6.218149,4.561038,25.303333)"/>
<path style="fill:none;stroke-width:0.1;stroke-linecap:round;stroke-linejoin:round;stroke:rgb(0%,0%,0%);stroke-opacity:1;stroke-miterlimit:4;" d="M 0.049863 0.000121169 L 10.837338 0.000121169 " transform="matrix(6.218149,0,0,6.218149,4.561038,19.085184)"/>
<path style="fill:none;stroke-width:0.1;stroke-linecap:round;stroke-linejoin:round;stroke:rgb(0%,0%,0%);stroke-opacity:1;stroke-miterlimit:4;" d="M 0.049863 0.0000245208 L 10.837338 0.0000245208 " transform="matrix(6.218149,0,0,6.218149,4.561038,12.867035)"/>
<path style=" stroke:none;fill-rule:nonzero;fill:rgb(0%,0%,0%);fill-opacity:1;" d="M 61.144531 4.578125 L 61.453125 4.578125 C 61.59375 4.578125 61.703125 4.6875 61.703125 4.824219 L 61.703125 36.332031 C 61.703125 36.472656 61.59375 36.582031 61.453125 36.582031 L 61.144531 36.582031 C 61.007812 36.582031 60.894531 36.472656 60.894531 36.332031 L 60.894531 4.824219 C 60.894531 4.6875 61.007812 4.578125 61.144531 4.578125 Z M 61.144531 4.578125 "/>
<path style=" stroke:none;fill-rule:nonzero;fill:rgb(0%,0%,0%);fill-opacity:1;" d="M 48.683594 25.304688 C 49.253906 25.875 50.074219 26 50.894531 26 C 51.046875 26 51.144531 26.097656 51.144531 26.25 L 51.367188 28.414062 C 51.394531 28.5625 51.269531 28.6875 51.121094 28.660156 L 48.957031 28.4375 C 48.832031 28.414062 48.707031 28.3125 48.707031 28.1875 C 48.707031 27.367188 48.582031 26.546875 48.011719 25.976562 C 47.4375 26.546875 47.339844 27.367188 47.339844 28.1875 C 47.339844 28.3125 47.214844 28.414062 47.089844 28.4375 L 44.902344 28.660156 C 44.753906 28.6875 44.628906 28.5625 44.652344 28.414062 L 44.878906 26.25 C 44.878906 26.097656 44.976562 26 45.125 26 C 45.945312 26 46.765625 25.875 47.339844 25.304688 C 46.765625 24.730469 45.945312 24.605469 45.125 24.605469 C 44.976562 24.605469 44.878906 24.507812 44.878906 24.359375 L 44.652344 22.195312 C 44.628906 22.046875 44.753906 21.921875 44.902344 21.945312 L 47.089844 22.167969 C 47.214844 22.195312 47.316406 22.292969 47.316406 22.417969 C 47.316406 23.238281 47.4375 24.058594 48.011719 24.632812 C 48.582031 24.058594 48.707031 23.238281 48.707031 22.417969 C 48.707031 22.292969 48.832031 22.195312 48.957031 22.167969 L 51.121094 21.945312 C 51.269531 21.921875 51.394531 22.046875 51.367188 22.195312 L 51.144531 24.359375 C 51.144531 24.507812 51.046875 24.605469 50.894531 24.605469 C 50.074219 24.605469 49.253906 24.730469 48.683594 25.304688 Z M 48.683594 25.304688 "/>
<path style=" stroke:none;fill-rule:nonzero;fill:rgb(0%,0%,0%);fill-opacity:1;" d="M 35.324219 39.28125 C 35.324219 39.53125 35.125 39.753906 34.878906 39.753906 C 34.628906 39.753906 34.40625 39.53125 34.40625 39.28125 L 34.40625 35.675781 L 32.339844 36.445312 L 32.339844 40.375 C 32.339844 40.625 32.117188 40.847656 31.867188 40.847656 C 31.617188 40.847656 31.417969 40.625 31.417969 40.375 L 31.417969 36.769531 L 30.625 37.066406 C 30.574219 37.09375 30.5 37.09375 30.449219 37.09375 C 30.175781 37.09375 29.953125 36.867188 29.953125 36.59375 L 29.953125 35.101562 C 29.953125 34.902344 30.078125 34.707031 30.277344 34.628906 L 31.417969 34.234375 L 31.417969 30.253906 L 30.625 30.527344 C 30.574219 30.550781 30.5 30.550781 30.449219 30.550781 C 30.175781 30.550781 29.953125 30.328125 29.953125 30.054688 L 29.953125 28.5625 C 29.953125 28.363281 30.078125 28.1875 30.277344 28.113281 L 31.417969 27.691406 L 31.417969 23.761719 C 31.417969 23.511719 31.617188 23.289062 31.867188 23.289062 C 32.117188 23.289062 32.339844 23.511719 32.339844 23.761719 L 32.339844 27.367188 L 34.40625 26.597656 L 34.40625 22.667969 C 34.40625 22.417969 34.628906 22.195312 34.878906 22.195312 C 35.125 22.195312 35.324219 22.417969 35.324219 22.667969 L 35.324219 26.273438 L 36.121094 25.976562 C 36.171875 25.949219 36.246094 25.949219 36.292969 25.949219 C 36.566406 25.949219 36.792969 26.175781 36.792969 26.449219 L 36.792969 27.941406 C 36.792969 28.140625 36.667969 28.335938 36.46875 28.414062 L 35.324219 28.808594 L 35.324219 32.789062 L 36.121094 32.515625 C 36.171875 32.492188 36.246094 32.492188 36.292969 32.492188 C 36.566406 32.492188 36.792969 32.714844 36.792969 32.988281 L 36.792969 34.480469 C 36.792969 34.679688 36.667969 34.855469 36.46875 34.929688 L 35.324219 35.351562 Z M 32.339844 29.90625 L 32.339844 33.882812 L 34.40625 33.136719 L 34.40625 29.160156 Z M 32.339844 29.90625 "/>
<path style=" stroke:none;fill-rule:nonzero;fill:rgb(0%,0%,0%);fill-opacity:1;" d="M 43.410156 45.5 C 43.410156 45.75 43.210938 45.972656 42.960938 45.972656 C 42.710938 45.972656 42.488281 45.75 42.488281 45.5 L 42.488281 41.894531 L 40.421875 42.664062 L 40.421875 46.59375 C 40.421875 46.84375 40.199219 47.066406 39.949219 47.066406 C 39.703125 47.066406 39.503906 46.84375 39.503906 46.59375 L 39.503906 42.988281 L 38.707031 43.285156 C 38.65625 43.3125 38.582031 43.3125 38.535156 43.3125 C 38.257812 43.3125 38.035156 43.085938 38.035156 42.8125 L 38.035156 41.320312 C 38.035156 41.121094 38.160156 40.921875 38.359375 40.847656 L 39.503906 40.449219 L 39.503906 36.472656 L 38.707031 36.746094 C 38.65625 36.769531 38.582031 36.769531 38.535156 36.769531 C 38.257812 36.769531 38.035156 36.546875 38.035156 36.273438 L 38.035156 34.78125 C 38.035156 34.582031 38.160156 34.40625 38.359375 34.332031 L 39.503906 33.910156 L 39.503906 29.980469 C 39.503906 29.730469 39.703125 29.507812 39.949219 29.507812 C 40.199219 29.507812 40.421875 29.730469 40.421875 29.980469 L 40.421875 33.585938 L 42.488281 32.816406 L 42.488281 28.886719 C 42.488281 28.636719 42.710938 28.414062 42.960938 28.414062 C 43.210938 28.414062 43.410156 28.636719 43.410156 28.886719 L 43.410156 32.492188 L 44.203125 32.191406 C 44.253906 32.167969 44.328125 32.167969 44.378906 32.167969 C 44.652344 32.167969 44.875 32.390625 44.875 32.664062 L 44.875 34.15625 C 44.875 34.355469 44.75 34.554688 44.550781 34.628906 L 43.410156 35.027344 L 43.410156 39.007812 L 44.203125 38.734375 C 44.253906 38.710938 44.328125 38.710938 44.378906 38.710938 C 44.652344 38.710938 44.875 38.933594 44.875 39.207031 L 44.875 40.699219 C 44.875 40.898438 44.75 41.074219 44.550781 41.148438 L 43.410156 41.570312 Z M 40.421875 36.121094 L 40.421875 40.101562 L 42.488281 39.355469 L 42.488281 35.375 Z M 40.421875 36.121094 "/>
<path style=" stroke:none;fill-rule:nonzero;fill:rgb(0%,0%,0%);fill-opacity:1;" d="M 23.390625 22.195312 C 23.390625 21.496094 23.960938 20.925781 24.65625 20.925781 C 25.355469 20.925781 25.925781 21.496094 25.925781 22.195312 C 25.925781 22.890625 25.355469 23.460938 24.65625 23.460938 C 23.960938 23.460938 23.390625 22.890625 23.390625 22.195312 Z M 23.390625 15.976562 C 23.390625 15.28125 23.960938 14.707031 24.65625 14.707031 C 25.355469 14.707031 25.925781 15.28125 25.925781 15.976562 C 25.925781 16.671875 25.355469 17.246094 24.65625 17.246094 C 23.960938 17.246094 23.390625 16.671875 23.390625 15.976562 Z M 15.304688 12.542969 C 19.585938 12.542969 22.59375 14.734375 22.59375 18.785156 C 22.59375 25.328125 16.050781 29.082031 9.757812 31.746094 C 9.683594 31.820312 9.609375 31.84375 9.535156 31.84375 C 9.363281 31.84375 9.210938 31.695312 9.210938 31.519531 C 9.210938 31.445312 9.238281 31.371094 9.3125 31.296875 C 14.335938 28.363281 19.558594 24.707031 19.558594 19.035156 C 19.558594 16.050781 17.992188 13.191406 15.304688 13.191406 C 13.464844 13.191406 12.097656 14.535156 11.476562 16.324219 C 11.75 16.199219 12.023438 16.125 12.320312 16.125 C 13.6875 16.125 14.808594 17.246094 14.808594 18.613281 C 14.808594 20.054688 13.714844 21.25 12.320312 21.25 C 10.828125 21.25 9.535156 20.082031 9.535156 18.613281 C 9.535156 15.304688 12.074219 12.542969 15.304688 12.542969 Z M 15.304688 12.542969 "/>
<path style=" stroke:none;fill-rule:nonzero;fill:rgb(0%,0%,0%);fill-opacity:1;" d="M 59.015625 21.921875 C 60.382812 21.921875 61.703125 22.617188 61.703125 24.132812 C 61.703125 25.898438 60.335938 27.144531 59.164062 27.839844 C 58.292969 28.363281 57.300781 28.6875 56.28125 28.6875 C 54.910156 28.6875 53.59375 27.988281 53.59375 26.472656 C 53.59375 24.707031 54.960938 23.460938 56.128906 22.765625 C 57 22.242188 57.996094 21.921875 59.015625 21.921875 Z M 59.015625 21.921875 "/>
<path style=" stroke:none;fill-rule:nonzero;fill:rgb(0%,0%,0%);fill-opacity:1;" d="M 59.015625 28.140625 C 60.382812 28.140625 61.703125 28.835938 61.703125 30.351562 C 61.703125 32.117188 60.335938 33.363281 59.164062 34.058594 C 58.292969 34.582031 57.300781 34.902344 56.28125 34.902344 C 54.910156 34.902344 53.59375 34.207031 53.59375 32.691406 C 53.59375 30.925781 54.960938 29.679688 56.128906 28.984375 C 57 28.460938 57.996094 28.140625 59.015625 28.140625 Z M 59.015625 28.140625 "/>
<path style=" stroke:none;fill-rule:nonzero;fill:rgb(0%,0%,0%);fill-opacity:1;" d="M 59.015625 34.355469 C 60.382812 34.355469 61.703125 35.054688 61.703125 36.570312 C 61.703125 38.335938 60.335938 39.582031 59.164062 40.277344 C 58.292969 40.800781 57.300781 41.121094 56.28125 41.121094 C 54.910156 41.121094 53.59375 40.425781 53.59375 38.910156 C 53.59375 37.144531 54.960938 35.898438 56.128906 35.203125 C 57 34.679688 57.996094 34.355469 59.015625 34.355469 Z M 59.015625 34.355469 "/>
</g>
</svg>
