<?xml version="1.0" encoding="UTF-8"?>
<svg xmlns="http://www.w3.org/2000/svg" xmlns:xlink="http://www.w3.org/1999/xlink" width="76.583943pt" height="49.753008pt" viewBox="0 0 76.583943 49.753008" version="1.1">
<g id="surface1">
<path style="fill:none;stroke-width:0.1;stroke-linecap:round;stroke-linejoin:round;stroke:rgb(0%,0%,0%);stroke-opacity:1;stroke-miterlimit:4;" d="M 0.049863 -0.000217086 L 9.973561 -0.000217086 " transform="matrix(6.218149,0,0,6.218149,4.561038,37.739631)"/>
<path style="fill:none;stroke-width:0.1;stroke-linecap:round;stroke-linejoin:round;stroke:rgb(0%,0%,0%);stroke-opacity:1;stroke-miterlimit:4;" d="M 0.049863 -0.000313735 L 9.973561 -0.000313735 " transform="matrix(6.218149,0,0,6.218149,4.561038,31.521482)"/>
<path style="fill:none;stroke-width:0.1;stroke-linecap:round;stroke-linejoin:round;stroke:rgb(0%,0%,0%);stroke-opacity:1;stroke-miterlimit:4;" d="M 0.049863 0.000217818 L 9.973561 0.000217818 " transform="matrix(6.218149,0,0,6.218149,4.561038,25.303333)"/>
<path style="fill:none;stroke-width:0.1;stroke-linecap:round;stroke-linejoin:round;stroke:rgb(0%,0%,0%);stroke-opacity:1;stroke-miterlimit:4;" d="M 0.049863 0.000121169 L 9.973561 0.000121169 " transform="matrix(6.218149,0,0,6.218149,4.561038,19.085184)"/>
<path style="fill:none;stroke-width:0.1;stroke-linecap:round;stroke-linejoin:round;stroke:rgb(0%,0%,0%);stroke-opacity:1;stroke-miterlimit:4;" d="M 0.049863 0.0000245208 L 9.973561 0.0000245208 " transform="matrix(6.218149,0,0,6.218149,4.561038,12.867035)"/>
<path style=" stroke:none;fill-rule:nonzero;fill:rgb(0%,0%,0%);fill-opacity:1;" d="M 55.769531 4.578125 L 56.082031 4.578125 C 56.21875 4.578125 56.332031 4.6875 56.332031 4.824219 L 56.332031 36.332031 C 56.332031 36.472656 56.21875 36.582031 56.082031 36.582031 L 55.769531 36.582031 C 55.632812 36.582031 55.523438 36.472656 55.523438 36.332031 L 55.523438 4.824219 C 55.523438 4.6875 55.632812 4.578125 55.769531 4.578125 Z M 55.769531 4.578125 "/>
<path style=" stroke:none;fill-rule:nonzero;fill:rgb(0%,0%,0%);fill-opacity:1;" d="M 41.742188 24.285156 L 41.71875 25.925781 L 41.71875 26.199219 C 41.71875 26.746094 41.742188 27.292969 41.816406 27.839844 C 42.9375 26.894531 44.128906 25.851562 44.128906 24.382812 C 44.128906 23.5625 43.78125 22.714844 43.058594 22.714844 C 42.289062 22.714844 41.765625 23.460938 41.742188 24.285156 Z M 40.695312 28.734375 L 40.398438 13.9375 C 40.597656 13.8125 40.847656 13.738281 41.070312 13.738281 C 41.292969 13.738281 41.542969 13.8125 41.742188 13.9375 L 41.566406 22.519531 C 42.191406 21.996094 43.011719 21.671875 43.832031 21.671875 C 45.125 21.671875 46.042969 22.867188 46.042969 24.207031 C 46.042969 26.199219 43.90625 27.117188 42.386719 28.414062 C 42.015625 28.734375 41.792969 29.359375 41.269531 29.359375 C 40.945312 29.359375 40.695312 29.082031 40.695312 28.734375 Z M 40.695312 28.734375 "/>
<path style=" stroke:none;fill-rule:nonzero;fill:rgb(0%,0%,0%);fill-opacity:1;" d="M 31.371094 30.5 L 31.34375 32.144531 L 31.34375 32.417969 C 31.34375 32.964844 31.371094 33.511719 31.445312 34.058594 C 32.5625 33.113281 33.757812 32.070312 33.757812 30.601562 C 33.757812 29.78125 33.410156 28.933594 32.6875 28.933594 C 31.917969 28.933594 31.394531 29.679688 31.371094 30.5 Z M 30.324219 34.953125 L 30.027344 20.15625 C 30.226562 20.03125 30.472656 19.957031 30.699219 19.957031 C 30.921875 19.957031 31.171875 20.03125 31.371094 20.15625 L 31.195312 28.734375 C 31.816406 28.214844 32.636719 27.890625 33.460938 27.890625 C 34.753906 27.890625 35.671875 29.082031 35.671875 30.425781 C 35.671875 32.417969 33.535156 33.335938 32.015625 34.628906 C 31.644531 34.953125 31.417969 35.574219 30.898438 35.574219 C 30.574219 35.574219 30.324219 35.300781 30.324219 34.953125 Z M 30.324219 34.953125 "/>
<path style=" stroke:none;fill-rule:nonzero;fill:rgb(0%,0%,0%);fill-opacity:1;" d="M 38.257812 36.71875 L 38.234375 38.363281 L 38.234375 38.636719 C 38.234375 39.183594 38.257812 39.730469 38.335938 40.277344 C 39.453125 39.332031 40.648438 38.285156 40.648438 36.820312 C 40.648438 36 40.300781 35.152344 39.578125 35.152344 C 38.808594 35.152344 38.285156 35.898438 38.257812 36.71875 Z M 37.214844 41.171875 L 36.917969 26.371094 C 37.117188 26.25 37.363281 26.175781 37.589844 26.175781 C 37.8125 26.175781 38.0625 26.25 38.257812 26.371094 L 38.085938 34.953125 C 38.707031 34.429688 39.527344 34.109375 40.347656 34.109375 C 41.640625 34.109375 42.5625 35.300781 42.5625 36.644531 C 42.5625 38.636719 40.421875 39.554688 38.90625 40.847656 C 38.535156 41.171875 38.308594 41.792969 37.785156 41.792969 C 37.464844 41.792969 37.214844 41.519531 37.214844 41.171875 Z M 37.214844 41.171875 "/>
<path style=" stroke:none;fill-rule:nonzero;fill:rgb(0%,0%,0%);fill-opacity:1;" d="M 23.390625 22.195312 C 23.390625 21.496094 23.960938 20.925781 24.65625 20.925781 C 25.355469 20.925781 25.925781 21.496094 25.925781 22.195312 C 25.925781 22.890625 25.355469 23.460938 24.65625 23.460938 C 23.960938 23.460938 23.390625 22.890625 23.390625 22.195312 Z M 23.390625 15.976562 C 23.390625 15.28125 23.960938 14.707031 24.65625 14.707031 C 25.355469 14.707031 25.925781 15.28125 25.925781 15.976562 C 25.925781 16.671875 25.355469 17.246094 24.65625 17.246094 C 23.960938 17.246094 23.390625 16.671875 23.390625 15.976562 Z M 15.304688 12.542969 C 19.585938 12.542969 22.59375 14.734375 22.59375 18.785156 C 22.59375 25.328125 16.050781 29.082031 9.757812 31.746094 C 9.683594 31.820312 9.609375 31.84375 9.535156 31.84375 C 9.363281 31.84375 9.210938 31.695312 9.210938 31.519531 C 9.210938 31.445312 9.238281 31.371094 9.3125 31.296875 C 14.335938 28.363281 19.558594 24.707031 19.558594 19.035156 C 19.558594 16.050781 17.992188 13.191406 15.304688 13.191406 C 13.464844 13.191406 12.097656 14.535156 11.476562 16.324219 C 11.75 16.199219 12.023438 16.125 12.320312 16.125 C 13.6875 16.125 14.808594 17.246094 14.808594 18.613281 C 14.808594 20.054688 13.714844 21.25 12.320312 21.25 C 10.828125 21.25 9.535156 20.082031 9.535156 18.613281 C 9.535156 15.304688 12.074219 12.542969 15.304688 12.542969 Z M 15.304688 12.542969 "/>
<path style=" stroke:none;fill-rule:nonzero;fill:rgb(0%,0%,0%);fill-opacity:1;" d="M 53.644531 21.921875 C 55.011719 21.921875 56.328125 22.617188 56.328125 24.132812 C 56.328125 25.898438 54.960938 27.144531 53.792969 27.839844 C 52.921875 28.363281 51.925781 28.6875 50.90625 28.6875 C 49.539062 28.6875 48.222656 27.988281 48.222656 26.472656 C 48.222656 24.707031 49.589844 23.460938 50.757812 22.765625 C 51.628906 22.242188 52.625 21.921875 53.644531 21.921875 Z M 53.644531 21.921875 "/>
<path style=" stroke:none;fill-rule:nonzero;fill:rgb(0%,0%,0%);fill-opacity:1;" d="M 53.644531 28.140625 C 55.011719 28.140625 56.328125 28.835938 56.328125 30.351562 C 56.328125 32.117188 54.960938 33.363281 53.792969 34.058594 C 52.921875 34.582031 51.925781 34.902344 50.90625 34.902344 C 49.539062 34.902344 48.222656 34.207031 48.222656 32.691406 C 48.222656 30.925781 49.589844 29.679688 50.757812 28.984375 C 51.628906 28.460938 52.625 28.140625 53.644531 28.140625 Z M 53.644531 28.140625 "/>
<path style=" stroke:none;fill-rule:nonzero;fill:rgb(0%,0%,0%);fill-opacity:1;" d="M 53.644531 34.355469 C 55.011719 34.355469 56.328125 35.054688 56.328125 36.570312 C 56.328125 38.335938 54.960938 39.582031 53.792969 40.277344 C 52.921875 40.800781 51.925781 41.121094 50.90625 41.121094 C 49.539062 41.121094 48.222656 40.425781 48.222656 38.910156 C 48.222656 37.144531 49.589844 35.898438 50.757812 35.203125 C 51.628906 34.679688 52.625 34.355469 53.644531 34.355469 Z M 53.644531 34.355469 "/>
</g>
</svg>
