<?xml version="1.0" encoding="UTF-8"?>
<svg xmlns="http://www.w3.org/2000/svg" xmlns:xlink="http://www.w3.org/1999/xlink" width="75.798219pt" height="69.111784pt" viewBox="0 0 75.798219 69.111784" version="1.1">
<g id="surface1">
<path style="fill:none;stroke-width:0.1;stroke-linecap:round;stroke-linejoin:round;stroke:rgb(0%,0%,0%);stroke-opacity:1;stroke-miterlimit:4;" d="M 0.049863 0.000289441 L 9.855459 0.000289441 " transform="matrix(6.218149,0,0,6.218149,4.561038,50.34195)"/>
<path style="fill:none;stroke-width:0.1;stroke-linecap:round;stroke-linejoin:round;stroke:rgb(0%,0%,0%);stroke-opacity:1;stroke-miterlimit:4;" d="M 0.049863 0.000192316 L 9.855459 0.000192316 " transform="matrix(6.218149,0,0,6.218149,4.561038,44.123804)"/>
<path style="fill:none;stroke-width:0.1;stroke-linecap:round;stroke-linejoin:round;stroke:rgb(0%,0%,0%);stroke-opacity:1;stroke-miterlimit:4;" d="M 0.049863 0.0000956673 L 9.855459 0.0000956673 " transform="matrix(6.218149,0,0,6.218149,4.561038,37.905655)"/>
<path style="fill:none;stroke-width:0.1;stroke-linecap:round;stroke-linejoin:round;stroke:rgb(0%,0%,0%);stroke-opacity:1;stroke-miterlimit:4;" d="M 0.049863 -0.000000981293 L 9.855459 -0.000000981293 " transform="matrix(6.218149,0,0,6.218149,4.561038,31.687506)"/>
<path style="fill:none;stroke-width:0.1;stroke-linecap:round;stroke-linejoin:round;stroke:rgb(0%,0%,0%);stroke-opacity:1;stroke-miterlimit:4;" d="M 0.049863 -0.0000976299 L 9.855459 -0.0000976299 " transform="matrix(6.218149,0,0,6.218149,4.561038,25.469357)"/>
<path style=" stroke:none;fill-rule:nonzero;fill:rgb(0%,0%,0%);fill-opacity:1;" d="M 47.019531 18.628906 L 57 18.628906 C 57.34375 18.628906 57.621094 18.90625 57.621094 19.25 C 57.621094 19.59375 57.34375 19.871094 57 19.871094 L 47.019531 19.871094 C 46.675781 19.871094 46.398438 19.59375 46.398438 19.25 C 46.398438 18.90625 46.675781 18.628906 47.019531 18.628906 Z M 47.019531 18.628906 "/>
<path style=" stroke:none;fill-rule:nonzero;fill:rgb(0%,0%,0%);fill-opacity:1;" d="M 47.734375 17.300781 L 48.042969 17.300781 C 48.183594 17.300781 48.292969 17.410156 48.292969 17.546875 L 48.292969 50.09375 C 48.292969 50.230469 48.183594 50.34375 48.042969 50.34375 L 47.734375 50.34375 C 47.597656 50.34375 47.484375 50.230469 47.484375 50.09375 L 47.484375 17.546875 C 47.484375 17.410156 47.597656 17.300781 47.734375 17.300781 Z M 47.734375 17.300781 "/>
<path style=" stroke:none;fill-rule:nonzero;fill:rgb(0%,0%,0%);fill-opacity:1;" d="M 41.003906 15.121094 L 40.980469 16.765625 L 40.980469 17.039062 C 40.980469 17.585938 41.003906 18.132812 41.082031 18.679688 C 42.199219 17.734375 43.394531 16.6875 43.394531 15.222656 C 43.394531 14.402344 43.046875 13.554688 42.324219 13.554688 C 41.554688 13.554688 41.03125 14.300781 41.003906 15.121094 Z M 39.960938 19.574219 L 39.664062 4.773438 C 39.863281 4.652344 40.109375 4.578125 40.335938 4.578125 C 40.558594 4.578125 40.804688 4.652344 41.003906 4.773438 L 40.832031 13.355469 C 41.453125 12.835938 42.273438 12.511719 43.09375 12.511719 C 44.386719 12.511719 45.308594 13.703125 45.308594 15.046875 C 45.308594 17.039062 43.167969 17.957031 41.652344 19.25 C 41.277344 19.574219 41.054688 20.195312 40.53125 20.195312 C 40.210938 20.195312 39.960938 19.921875 39.960938 19.574219 Z M 39.960938 19.574219 "/>
<path style=" stroke:none;fill-rule:nonzero;fill:rgb(0%,0%,0%);fill-opacity:1;" d="M 30.632812 21.339844 L 30.609375 22.980469 L 30.609375 23.253906 C 30.609375 23.804688 30.632812 24.351562 30.707031 24.898438 C 31.828125 23.953125 33.023438 22.90625 33.023438 21.441406 C 33.023438 20.621094 32.671875 19.773438 31.953125 19.773438 C 31.179688 19.773438 30.660156 20.519531 30.632812 21.339844 Z M 29.589844 25.792969 L 29.289062 10.992188 C 29.488281 10.871094 29.738281 10.792969 29.960938 10.792969 C 30.1875 10.792969 30.433594 10.871094 30.632812 10.992188 L 30.460938 19.574219 C 31.082031 19.050781 31.902344 18.730469 32.722656 18.730469 C 34.015625 18.730469 34.9375 19.921875 34.9375 21.265625 C 34.9375 23.253906 32.796875 24.175781 31.28125 25.46875 C 30.90625 25.792969 30.683594 26.414062 30.160156 26.414062 C 29.835938 26.414062 29.589844 26.140625 29.589844 25.792969 Z M 29.589844 25.792969 "/>
<path style=" stroke:none;fill-rule:nonzero;fill:rgb(0%,0%,0%);fill-opacity:1;" d="M 37.523438 27.558594 L 37.5 29.199219 L 37.5 29.472656 C 37.5 30.019531 37.523438 30.566406 37.597656 31.117188 C 38.71875 30.171875 39.910156 29.125 39.910156 27.65625 C 39.910156 26.835938 39.5625 25.992188 38.839844 25.992188 C 38.070312 25.992188 37.546875 26.738281 37.523438 27.558594 Z M 36.480469 32.011719 L 36.179688 17.210938 C 36.378906 17.085938 36.628906 17.011719 36.851562 17.011719 C 37.074219 17.011719 37.324219 17.085938 37.523438 17.210938 L 37.347656 25.792969 C 37.972656 25.269531 38.792969 24.945312 39.613281 24.945312 C 40.90625 24.945312 41.828125 26.140625 41.828125 27.484375 C 41.828125 29.472656 39.6875 30.394531 38.171875 31.6875 C 37.796875 32.011719 37.574219 32.632812 37.050781 32.632812 C 36.726562 32.632812 36.480469 32.359375 36.480469 32.011719 Z M 36.480469 32.011719 "/>
<path style=" stroke:none;fill-rule:nonzero;fill:rgb(0%,0%,0%);fill-opacity:1;" d="M 16.152344 59.917969 L 16.003906 59.917969 C 13.316406 59.917969 11.152344 57.730469 11.152344 55.019531 C 11.152344 53.574219 12.46875 52.457031 13.9375 52.457031 C 15.28125 52.457031 16.300781 53.625 16.300781 55.019531 C 16.300781 56.3125 15.230469 57.382812 13.9375 57.382812 C 13.664062 57.382812 13.414062 57.332031 13.167969 57.230469 C 13.8125 58.203125 14.859375 58.847656 16.078125 58.847656 L 16.175781 58.847656 Z M 21 49.171875 C 22.691406 48.574219 23.8125 46.808594 23.8125 45.09375 C 23.8125 42.855469 22.171875 40.640625 19.507812 40.367188 C 20.105469 43.253906 20.652344 46.113281 21 49.171875 Z M 11.375 43.425781 C 11.375 46.785156 14.585938 49.570312 17.941406 49.570312 C 18.640625 49.570312 19.308594 49.519531 19.980469 49.421875 C 19.632812 46.261719 19.0625 43.328125 18.414062 40.367188 C 16.449219 40.566406 15.332031 41.886719 15.332031 43.328125 C 15.332031 44.421875 15.953125 45.589844 17.34375 46.386719 C 17.46875 46.511719 17.519531 46.636719 17.519531 46.761719 C 17.519531 47.035156 17.269531 47.308594 16.972656 47.308594 C 16.898438 47.308594 16.824219 47.28125 16.75 47.257812 C 14.757812 46.1875 13.839844 44.398438 13.839844 42.65625 C 13.839844 40.46875 15.28125 38.328125 17.816406 37.757812 C 17.46875 36.3125 17.097656 34.847656 16.675781 33.402344 C 14.011719 36.414062 11.375 39.449219 11.375 43.425781 Z M 17.867188 50.640625 C 13.191406 50.640625 9.585938 46.363281 9.585938 41.339844 C 9.585938 36.9375 12.84375 33.726562 15.753906 30.371094 C 15.28125 28.828125 14.832031 27.261719 14.632812 25.644531 C 14.484375 24.351562 14.460938 23.058594 14.460938 21.761719 C 14.460938 18.902344 15.828125 16.191406 18.167969 14.5 C 18.316406 14.375 18.515625 14.375 18.664062 14.5 C 20.429688 16.589844 21.972656 20.59375 21.972656 23.40625 C 21.972656 26.960938 19.832031 29.746094 17.496094 32.457031 C 18.015625 34.148438 18.464844 35.890625 18.886719 37.605469 C 18.988281 37.605469 19.113281 37.582031 19.210938 37.582031 C 23.066406 37.582031 25.578125 40.765625 25.578125 44.074219 C 25.578125 45.964844 24.757812 47.90625 22.917969 49.296875 C 22.371094 49.71875 21.746094 49.992188 21.101562 50.191406 C 21.175781 51.0625 21.226562 51.933594 21.226562 52.804688 C 21.226562 53.277344 21.199219 53.773438 21.175781 54.246094 C 21 57.207031 18.988281 59.84375 16.152344 59.917969 L 16.175781 58.847656 C 18.488281 58.796875 19.980469 56.558594 20.132812 54.097656 C 20.15625 53.648438 20.179688 53.175781 20.179688 52.730469 C 20.179688 51.957031 20.15625 51.210938 20.082031 50.441406 C 19.359375 50.566406 18.640625 50.640625 17.867188 50.640625 Z M 20.179688 21.339844 C 20.179688 19.972656 20.082031 19.375 19.683594 18.132812 C 17.222656 19.324219 15.652344 21.839844 15.652344 24.574219 C 15.652344 26.414062 16.101562 27.882812 16.550781 29.398438 C 18.539062 26.988281 20.179688 24.472656 20.179688 21.339844 Z M 20.179688 21.339844 "/>
<path style=" stroke:none;fill-rule:nonzero;fill:rgb(0%,0%,0%);fill-opacity:1;" d="M 52.90625 12.757812 C 54.273438 12.757812 55.59375 13.457031 55.59375 14.972656 C 55.59375 16.738281 54.226562 17.984375 53.054688 18.679688 C 52.1875 19.203125 51.191406 19.523438 50.171875 19.523438 C 48.804688 19.523438 47.484375 18.828125 47.484375 17.3125 C 47.484375 15.546875 48.851562 14.300781 50.023438 13.605469 C 50.890625 13.082031 51.886719 12.757812 52.90625 12.757812 Z M 52.90625 12.757812 "/>
<path style=" stroke:none;fill-rule:nonzero;fill:rgb(0%,0%,0%);fill-opacity:1;" d="M 52.90625 18.976562 C 54.273438 18.976562 55.59375 19.675781 55.59375 21.191406 C 55.59375 22.957031 54.226562 24.199219 53.054688 24.898438 C 52.1875 25.417969 51.191406 25.742188 50.171875 25.742188 C 48.804688 25.742188 47.484375 25.046875 47.484375 23.527344 C 47.484375 21.761719 48.851562 20.519531 50.023438 19.824219 C 50.890625 19.300781 51.886719 18.976562 52.90625 18.976562 Z M 52.90625 18.976562 "/>
<path style=" stroke:none;fill-rule:nonzero;fill:rgb(0%,0%,0%);fill-opacity:1;" d="M 52.90625 25.195312 C 54.273438 25.195312 55.59375 25.890625 55.59375 27.410156 C 55.59375 29.175781 54.226562 30.417969 53.054688 31.117188 C 52.1875 31.636719 51.191406 31.960938 50.171875 31.960938 C 48.804688 31.960938 47.484375 31.265625 47.484375 29.746094 C 47.484375 27.980469 48.851562 26.738281 50.023438 26.042969 C 50.890625 25.519531 51.886719 25.195312 52.90625 25.195312 Z M 52.90625 25.195312 "/>
</g>
</svg>
