<?xml version="1.0" encoding="UTF-8"?>
<svg xmlns="http://www.w3.org/2000/svg" xmlns:xlink="http://www.w3.org/1999/xlink" width="82.756804pt" height="61.666356pt" viewBox="0 0 82.756804 61.666356" version="1.1">
<g id="surface1">
<path style="fill:none;stroke-width:0.1;stroke-linecap:round;stroke-linejoin:round;stroke:rgb(0%,0%,0%);stroke-opacity:1;stroke-miterlimit:4;" d="M 0.049863 -0.000287501 L 10.903299 -0.000287501 " transform="matrix(6.218149,0,0,6.218149,4.561038,40.517413)"/>
<path style="fill:none;stroke-width:0.1;stroke-linecap:round;stroke-linejoin:round;stroke:rgb(0%,0%,0%);stroke-opacity:1;stroke-miterlimit:4;" d="M 0.049863 0.000244052 L 10.903299 0.000244052 " transform="matrix(6.218149,0,0,6.218149,4.561038,34.299264)"/>
<path style="fill:none;stroke-width:0.1;stroke-linecap:round;stroke-linejoin:round;stroke:rgb(0%,0%,0%);stroke-opacity:1;stroke-miterlimit:4;" d="M 0.049863 0.000147403 L 10.903299 0.000147403 " transform="matrix(6.218149,0,0,6.218149,4.561038,28.081115)"/>
<path style="fill:none;stroke-width:0.1;stroke-linecap:round;stroke-linejoin:round;stroke:rgb(0%,0%,0%);stroke-opacity:1;stroke-miterlimit:4;" d="M 0.049863 0.0000507548 L 10.903299 0.0000507548 " transform="matrix(6.218149,0,0,6.218149,4.561038,21.862966)"/>
<path style="fill:none;stroke-width:0.1;stroke-linecap:round;stroke-linejoin:round;stroke:rgb(0%,0%,0%);stroke-opacity:1;stroke-miterlimit:4;" d="M 0.049863 -0.0000458938 L 10.903299 -0.0000458938 " transform="matrix(6.218149,0,0,6.218149,4.561038,15.644817)"/>
<path style=" stroke:none;fill-rule:nonzero;fill:rgb(0%,0%,0%);fill-opacity:1;" d="M 61.550781 5.28125 L 61.859375 5.28125 C 61.996094 5.28125 62.109375 5.390625 62.109375 5.53125 L 62.109375 42.21875 C 62.109375 42.359375 61.996094 42.46875 61.859375 42.46875 L 61.550781 42.46875 C 61.414062 42.46875 61.300781 42.359375 61.300781 42.21875 L 61.300781 5.53125 C 61.300781 5.390625 61.414062 5.28125 61.550781 5.28125 Z M 61.550781 5.28125 "/>
<path style=" stroke:none;fill-rule:nonzero;fill:rgb(0%,0%,0%);fill-opacity:1;" d="M 49.089844 24.972656 C 49.660156 25.542969 50.480469 25.667969 51.304688 25.667969 C 51.453125 25.667969 51.550781 25.769531 51.550781 25.917969 L 51.777344 28.082031 C 51.800781 28.230469 51.675781 28.355469 51.527344 28.328125 L 49.363281 28.105469 C 49.238281 28.082031 49.113281 27.980469 49.113281 27.855469 C 49.113281 27.035156 48.988281 26.214844 48.417969 25.644531 C 47.84375 26.214844 47.746094 27.035156 47.746094 27.855469 C 47.746094 27.980469 47.621094 28.082031 47.496094 28.105469 L 45.308594 28.328125 C 45.160156 28.355469 45.035156 28.230469 45.058594 28.082031 L 45.285156 25.917969 C 45.285156 25.769531 45.382812 25.667969 45.53125 25.667969 C 46.351562 25.667969 47.175781 25.542969 47.746094 24.972656 C 47.175781 24.398438 46.351562 24.277344 45.53125 24.277344 C 45.382812 24.277344 45.285156 24.175781 45.285156 24.027344 L 45.058594 21.863281 C 45.035156 21.714844 45.160156 21.589844 45.308594 21.613281 L 47.496094 21.839844 C 47.621094 21.863281 47.722656 21.960938 47.722656 22.085938 C 47.722656 22.90625 47.84375 23.726562 48.417969 24.300781 C 48.988281 23.726562 49.113281 22.90625 49.113281 22.085938 C 49.113281 21.960938 49.238281 21.863281 49.363281 21.839844 L 51.527344 21.613281 C 51.675781 21.589844 51.800781 21.714844 51.777344 21.863281 L 51.550781 24.027344 C 51.550781 24.175781 51.453125 24.277344 51.304688 24.277344 C 50.480469 24.277344 49.660156 24.398438 49.089844 24.972656 Z M 49.089844 24.972656 "/>
<path style=" stroke:none;fill-rule:nonzero;fill:rgb(0%,0%,0%);fill-opacity:1;" d="M 42.347656 38.949219 C 42.347656 39.199219 42.148438 39.421875 41.898438 39.421875 C 41.652344 39.421875 41.425781 39.199219 41.425781 38.949219 L 41.425781 35.34375 L 39.363281 36.113281 L 39.363281 40.042969 C 39.363281 40.292969 39.136719 40.515625 38.890625 40.515625 C 38.640625 40.515625 38.441406 40.292969 38.441406 40.042969 L 38.441406 36.4375 L 37.644531 36.738281 C 37.597656 36.761719 37.523438 36.761719 37.472656 36.761719 C 37.199219 36.761719 36.972656 36.539062 36.972656 36.265625 L 36.972656 34.773438 C 36.972656 34.574219 37.097656 34.375 37.296875 34.300781 L 38.441406 33.902344 L 38.441406 29.921875 L 37.644531 30.195312 C 37.597656 30.21875 37.523438 30.21875 37.472656 30.21875 C 37.199219 30.21875 36.972656 29.996094 36.972656 29.722656 L 36.972656 28.230469 C 36.972656 28.03125 37.097656 27.855469 37.296875 27.78125 L 38.441406 27.359375 L 38.441406 23.429688 C 38.441406 23.179688 38.640625 22.957031 38.890625 22.957031 C 39.136719 22.957031 39.363281 23.179688 39.363281 23.429688 L 39.363281 27.035156 L 41.425781 26.265625 L 41.425781 22.335938 C 41.425781 22.085938 41.652344 21.863281 41.898438 21.863281 C 42.148438 21.863281 42.347656 22.085938 42.347656 22.335938 L 42.347656 25.941406 L 43.144531 25.644531 C 43.191406 25.617188 43.265625 25.617188 43.316406 25.617188 C 43.589844 25.617188 43.8125 25.84375 43.8125 26.117188 L 43.8125 27.609375 C 43.8125 27.808594 43.691406 28.007812 43.492188 28.082031 L 42.347656 28.480469 L 42.347656 32.457031 L 43.144531 32.183594 C 43.191406 32.160156 43.265625 32.160156 43.316406 32.160156 C 43.589844 32.160156 43.8125 32.382812 43.8125 32.65625 L 43.8125 34.148438 C 43.8125 34.347656 43.691406 34.523438 43.492188 34.597656 L 42.347656 35.019531 Z M 39.363281 29.574219 L 39.363281 33.554688 L 41.425781 32.808594 L 41.425781 28.828125 Z M 39.363281 29.574219 "/>
<path style=" stroke:none;fill-rule:nonzero;fill:rgb(0%,0%,0%);fill-opacity:1;" d="M 32.996094 37.410156 C 33.570312 37.980469 34.390625 38.105469 35.210938 38.105469 C 35.359375 38.105469 35.460938 38.203125 35.460938 38.351562 L 35.683594 40.515625 C 35.707031 40.667969 35.582031 40.789062 35.433594 40.765625 L 33.269531 40.542969 C 33.144531 40.515625 33.023438 40.417969 33.023438 40.292969 C 33.023438 39.472656 32.898438 38.652344 32.324219 38.078125 C 31.753906 38.652344 31.652344 39.472656 31.652344 40.292969 C 31.652344 40.417969 31.527344 40.515625 31.40625 40.542969 L 29.214844 40.765625 C 29.066406 40.789062 28.941406 40.667969 28.96875 40.515625 L 29.191406 38.351562 C 29.191406 38.203125 29.289062 38.105469 29.441406 38.105469 C 30.261719 38.105469 31.082031 37.980469 31.652344 37.410156 C 31.082031 36.835938 30.261719 36.710938 29.441406 36.710938 C 29.289062 36.710938 29.191406 36.613281 29.191406 36.464844 L 28.96875 34.300781 C 28.941406 34.148438 29.066406 34.027344 29.214844 34.050781 L 31.40625 34.273438 C 31.527344 34.300781 31.628906 34.398438 31.628906 34.523438 C 31.628906 35.34375 31.753906 36.164062 32.324219 36.738281 C 32.898438 36.164062 33.023438 35.34375 33.023438 34.523438 C 33.023438 34.398438 33.144531 34.300781 33.269531 34.273438 L 35.433594 34.050781 C 35.582031 34.027344 35.707031 34.148438 35.683594 34.300781 L 35.460938 36.464844 C 35.460938 36.613281 35.359375 36.710938 35.210938 36.710938 C 34.390625 36.710938 33.570312 36.835938 32.996094 37.410156 Z M 32.996094 37.410156 "/>
<path style=" stroke:none;fill-rule:nonzero;fill:rgb(0%,0%,0%);fill-opacity:1;" d="M 50.355469 51.386719 C 50.355469 51.636719 50.15625 51.859375 49.90625 51.859375 C 49.660156 51.859375 49.4375 51.636719 49.4375 51.386719 L 49.4375 47.78125 L 47.371094 48.550781 L 47.371094 52.480469 C 47.371094 52.730469 47.148438 52.953125 46.898438 52.953125 C 46.648438 52.953125 46.449219 52.730469 46.449219 52.480469 L 46.449219 48.875 L 45.65625 49.171875 C 45.605469 49.199219 45.53125 49.199219 45.480469 49.199219 C 45.207031 49.199219 44.984375 48.972656 44.984375 48.699219 L 44.984375 47.207031 C 44.984375 47.007812 45.109375 46.808594 45.308594 46.734375 L 46.449219 46.335938 L 46.449219 42.359375 L 45.65625 42.632812 C 45.605469 42.65625 45.53125 42.65625 45.480469 42.65625 C 45.207031 42.65625 44.984375 42.433594 44.984375 42.160156 L 44.984375 40.667969 C 44.984375 40.46875 45.109375 40.292969 45.308594 40.21875 L 46.449219 39.796875 L 46.449219 35.867188 C 46.449219 35.617188 46.648438 35.394531 46.898438 35.394531 C 47.148438 35.394531 47.371094 35.617188 47.371094 35.867188 L 47.371094 39.472656 L 49.4375 38.703125 L 49.4375 34.773438 C 49.4375 34.523438 49.660156 34.300781 49.90625 34.300781 C 50.15625 34.300781 50.355469 34.523438 50.355469 34.773438 L 50.355469 38.378906 L 51.152344 38.078125 C 51.203125 38.054688 51.277344 38.054688 51.324219 38.054688 C 51.597656 38.054688 51.824219 38.277344 51.824219 38.550781 L 51.824219 40.042969 C 51.824219 40.242188 51.699219 40.441406 51.5 40.515625 L 50.355469 40.914062 L 50.355469 44.894531 L 51.152344 44.621094 C 51.203125 44.597656 51.277344 44.597656 51.324219 44.597656 C 51.597656 44.597656 51.824219 44.820312 51.824219 45.09375 L 51.824219 46.585938 C 51.824219 46.785156 51.699219 46.960938 51.5 47.035156 L 50.355469 47.457031 Z M 47.371094 42.011719 L 47.371094 45.988281 L 49.4375 45.242188 L 49.4375 41.261719 Z M 47.371094 42.011719 "/>
<path style=" stroke:none;fill-rule:nonzero;fill:rgb(0%,0%,0%);fill-opacity:1;" d="M 16.152344 50.09375 L 16.003906 50.09375 C 13.316406 50.09375 11.152344 47.90625 11.152344 45.195312 C 11.152344 43.75 12.46875 42.632812 13.9375 42.632812 C 15.28125 42.632812 16.300781 43.800781 16.300781 45.195312 C 16.300781 46.488281 15.230469 47.554688 13.9375 47.554688 C 13.664062 47.554688 13.414062 47.507812 13.167969 47.40625 C 13.8125 48.378906 14.859375 49.023438 16.078125 49.023438 L 16.175781 49.023438 Z M 21 39.347656 C 22.691406 38.75 23.8125 36.984375 23.8125 35.269531 C 23.8125 33.03125 22.171875 30.816406 19.507812 30.542969 C 20.105469 33.429688 20.652344 36.289062 21 39.347656 Z M 11.375 33.601562 C 11.375 36.960938 14.585938 39.746094 17.941406 39.746094 C 18.640625 39.746094 19.308594 39.695312 19.980469 39.597656 C 19.632812 36.4375 19.0625 33.503906 18.414062 30.542969 C 16.449219 30.742188 15.332031 32.0625 15.332031 33.503906 C 15.332031 34.597656 15.953125 35.765625 17.34375 36.5625 C 17.46875 36.6875 17.519531 36.8125 17.519531 36.9375 C 17.519531 37.210938 17.269531 37.484375 16.972656 37.484375 C 16.898438 37.484375 16.824219 37.457031 16.75 37.433594 C 14.757812 36.363281 13.839844 34.574219 13.839844 32.832031 C 13.839844 30.644531 15.28125 28.503906 17.816406 27.933594 C 17.46875 26.488281 17.097656 25.023438 16.675781 23.578125 C 14.011719 26.589844 11.375 29.625 11.375 33.601562 Z M 17.867188 40.816406 C 13.191406 40.816406 9.585938 36.539062 9.585938 31.511719 C 9.585938 27.109375 12.84375 23.902344 15.753906 20.542969 C 15.28125 19.003906 14.832031 17.4375 14.632812 15.820312 C 14.484375 14.527344 14.460938 13.230469 14.460938 11.9375 C 14.460938 9.078125 15.828125 6.367188 18.167969 4.675781 C 18.316406 4.550781 18.515625 4.550781 18.664062 4.675781 C 20.429688 6.765625 21.972656 10.769531 21.972656 13.582031 C 21.972656 17.136719 19.832031 19.921875 17.496094 22.632812 C 18.015625 24.324219 18.464844 26.066406 18.886719 27.78125 C 18.988281 27.78125 19.113281 27.757812 19.210938 27.757812 C 23.066406 27.757812 25.578125 30.941406 25.578125 34.25 C 25.578125 36.140625 24.757812 38.078125 22.917969 39.472656 C 22.371094 39.894531 21.746094 40.167969 21.101562 40.367188 C 21.175781 41.238281 21.226562 42.109375 21.226562 42.980469 C 21.226562 43.453125 21.199219 43.949219 21.175781 44.421875 C 21 47.382812 18.988281 50.019531 16.152344 50.09375 L 16.175781 49.023438 C 18.488281 48.972656 19.980469 46.734375 20.132812 44.273438 C 20.15625 43.824219 20.179688 43.351562 20.179688 42.90625 C 20.179688 42.132812 20.15625 41.386719 20.082031 40.617188 C 19.359375 40.742188 18.640625 40.816406 17.867188 40.816406 Z M 20.179688 11.515625 C 20.179688 10.148438 20.082031 9.550781 19.683594 8.308594 C 17.222656 9.5 15.652344 12.011719 15.652344 14.75 C 15.652344 16.589844 16.101562 18.058594 16.550781 19.574219 C 18.539062 17.160156 20.179688 14.648438 20.179688 11.515625 Z M 20.179688 11.515625 "/>
<path style=" stroke:none;fill-rule:nonzero;fill:rgb(0%,0%,0%);fill-opacity:1;" d="M 59.421875 21.589844 C 60.789062 21.589844 62.109375 22.285156 62.109375 23.804688 C 62.109375 25.570312 60.738281 26.8125 59.570312 27.507812 C 58.699219 28.03125 57.707031 28.355469 56.6875 28.355469 C 55.316406 28.355469 54 27.660156 54 26.140625 C 54 24.375 55.367188 23.132812 56.535156 22.433594 C 57.40625 21.914062 58.402344 21.589844 59.421875 21.589844 Z M 59.421875 21.589844 "/>
<path style=" stroke:none;fill-rule:nonzero;fill:rgb(0%,0%,0%);fill-opacity:1;" d="M 59.421875 27.808594 C 60.789062 27.808594 62.109375 28.503906 62.109375 30.019531 C 62.109375 31.789062 60.738281 33.03125 59.570312 33.726562 C 58.699219 34.25 57.707031 34.574219 56.6875 34.574219 C 55.316406 34.574219 54 33.875 54 32.359375 C 54 30.59375 55.367188 29.351562 56.535156 28.652344 C 57.40625 28.132812 58.402344 27.808594 59.421875 27.808594 Z M 59.421875 27.808594 "/>
<path style=" stroke:none;fill-rule:nonzero;fill:rgb(0%,0%,0%);fill-opacity:1;" d="M 59.421875 34.027344 C 60.789062 34.027344 62.109375 34.722656 62.109375 36.238281 C 62.109375 38.003906 60.738281 39.25 59.570312 39.945312 C 58.699219 40.46875 57.707031 40.789062 56.6875 40.789062 C 55.316406 40.789062 54 40.09375 54 38.578125 C 54 36.8125 55.367188 35.566406 56.535156 34.871094 C 57.40625 34.347656 58.402344 34.027344 59.421875 34.027344 Z M 59.421875 34.027344 "/>
<path style=" stroke:none;fill-rule:nonzero;fill:rgb(0%,0%,0%);fill-opacity:1;" d="M 59.421875 40.242188 C 60.789062 40.242188 62.109375 40.941406 62.109375 42.457031 C 62.109375 44.222656 60.738281 45.46875 59.570312 46.164062 C 58.699219 46.6875 57.707031 47.007812 56.6875 47.007812 C 55.316406 47.007812 54 46.3125 54 44.796875 C 54 43.03125 55.367188 41.785156 56.535156 41.089844 C 57.40625 40.566406 58.402344 40.242188 59.421875 40.242188 Z M 59.421875 40.242188 "/>
</g>
</svg>
