<?xml version="1.0" encoding="UTF-8"?>
<svg xmlns="http://www.w3.org/2000/svg" xmlns:xlink="http://www.w3.org/1999/xlink" width="69.224853pt" height="48.646487pt" viewBox="0 0 69.224853 48.646487" version="1.1">
<g id="surface1">
<path style="fill:none;stroke-width:0.1;stroke-linecap:round;stroke-linejoin:round;stroke:rgb(0%,0%,0%);stroke-opacity:1;stroke-miterlimit:4;" d="M 0.049863 -0.0000416676 L 8.865413 -0.0000416676 " transform="matrix(6.218149,0,0,6.218149,4.561038,39.812759)"/>
<path style="fill:none;stroke-width:0.1;stroke-linecap:round;stroke-linejoin:round;stroke:rgb(0%,0%,0%);stroke-opacity:1;stroke-miterlimit:4;" d="M 0.049863 -0.000138316 L 8.865413 -0.000138316 " transform="matrix(6.218149,0,0,6.218149,4.561038,33.59461)"/>
<path style="fill:none;stroke-width:0.1;stroke-linecap:round;stroke-linejoin:round;stroke:rgb(0%,0%,0%);stroke-opacity:1;stroke-miterlimit:4;" d="M 0.049863 -0.000234965 L 8.865413 -0.000234965 " transform="matrix(6.218149,0,0,6.218149,4.561038,27.376461)"/>
<path style="fill:none;stroke-width:0.1;stroke-linecap:round;stroke-linejoin:round;stroke:rgb(0%,0%,0%);stroke-opacity:1;stroke-miterlimit:4;" d="M 0.049863 0.000296588 L 8.865413 0.000296588 " transform="matrix(6.218149,0,0,6.218149,4.561038,21.158312)"/>
<path style="fill:none;stroke-width:0.1;stroke-linecap:round;stroke-linejoin:round;stroke:rgb(0%,0%,0%);stroke-opacity:1;stroke-miterlimit:4;" d="M 0.049863 0.000199939 L 8.865413 0.000199939 " transform="matrix(6.218149,0,0,6.218149,4.561038,14.940163)"/>
<path style=" stroke:none;fill-rule:nonzero;fill:rgb(0%,0%,0%);fill-opacity:1;" d="M 48.882812 4.578125 L 49.191406 4.578125 C 49.328125 4.578125 49.441406 4.6875 49.441406 4.824219 L 49.441406 35.296875 C 49.441406 35.433594 49.328125 35.546875 49.191406 35.546875 L 48.882812 35.546875 C 48.746094 35.546875 48.632812 35.433594 48.632812 35.296875 L 48.632812 4.824219 C 48.632812 4.6875 48.746094 4.578125 48.882812 4.578125 Z M 48.882812 4.578125 "/>
<path style=" stroke:none;fill-rule:nonzero;fill:rgb(0%,0%,0%);fill-opacity:1;" d="M 34.851562 23.246094 L 34.828125 24.890625 L 34.828125 25.164062 C 34.828125 25.710938 34.851562 26.257812 34.925781 26.804688 C 36.046875 25.859375 37.238281 24.816406 37.238281 23.347656 C 37.238281 22.527344 36.890625 21.679688 36.171875 21.679688 C 35.398438 21.679688 34.878906 22.425781 34.851562 23.246094 Z M 33.808594 27.699219 L 33.507812 12.902344 C 33.707031 12.777344 33.957031 12.703125 34.179688 12.703125 C 34.40625 12.703125 34.652344 12.777344 34.851562 12.902344 L 34.679688 21.480469 C 35.300781 20.960938 36.121094 20.636719 36.941406 20.636719 C 38.234375 20.636719 39.15625 21.828125 39.15625 23.171875 C 39.15625 25.164062 37.015625 26.082031 35.5 27.375 C 35.125 27.699219 34.902344 28.320312 34.378906 28.320312 C 34.054688 28.320312 33.808594 28.046875 33.808594 27.699219 Z M 33.808594 27.699219 "/>
<path style=" stroke:none;fill-rule:nonzero;fill:rgb(0%,0%,0%);fill-opacity:1;" d="M 31.371094 35.683594 L 31.34375 37.324219 L 31.34375 37.597656 C 31.34375 38.144531 31.371094 38.695312 31.445312 39.242188 C 32.5625 38.296875 33.757812 37.25 33.757812 35.785156 C 33.757812 34.960938 33.410156 34.117188 32.6875 34.117188 C 31.917969 34.117188 31.394531 34.863281 31.371094 35.683594 Z M 30.324219 40.136719 L 30.027344 25.335938 C 30.226562 25.210938 30.472656 25.136719 30.699219 25.136719 C 30.921875 25.136719 31.171875 25.210938 31.371094 25.335938 L 31.195312 33.917969 C 31.816406 33.394531 32.636719 33.074219 33.460938 33.074219 C 34.753906 33.074219 35.671875 34.265625 35.671875 35.609375 C 35.671875 37.597656 33.535156 38.519531 32.015625 39.8125 C 31.644531 40.136719 31.417969 40.757812 30.898438 40.757812 C 30.574219 40.757812 30.324219 40.484375 30.324219 40.136719 Z M 30.324219 40.136719 "/>
<path style=" stroke:none;fill-rule:nonzero;fill:rgb(0%,0%,0%);fill-opacity:1;" d="M 23.390625 24.265625 C 23.390625 23.570312 23.960938 23 24.65625 23 C 25.355469 23 25.925781 23.570312 25.925781 24.265625 C 25.925781 24.964844 25.355469 25.535156 24.65625 25.535156 C 23.960938 25.535156 23.390625 24.964844 23.390625 24.265625 Z M 23.390625 18.050781 C 23.390625 17.351562 23.960938 16.78125 24.65625 16.78125 C 25.355469 16.78125 25.925781 17.351562 25.925781 18.050781 C 25.925781 18.746094 25.355469 19.316406 24.65625 19.316406 C 23.960938 19.316406 23.390625 18.746094 23.390625 18.050781 Z M 15.304688 14.617188 C 19.585938 14.617188 22.59375 16.804688 22.59375 20.859375 C 22.59375 27.402344 16.050781 31.15625 9.757812 33.820312 C 9.683594 33.894531 9.609375 33.917969 9.535156 33.917969 C 9.363281 33.917969 9.210938 33.769531 9.210938 33.59375 C 9.210938 33.519531 9.238281 33.445312 9.3125 33.371094 C 14.335938 30.4375 19.558594 26.78125 19.558594 21.109375 C 19.558594 18.125 17.992188 15.261719 15.304688 15.261719 C 13.464844 15.261719 12.097656 16.605469 11.476562 18.398438 C 11.75 18.273438 12.023438 18.199219 12.320312 18.199219 C 13.6875 18.199219 14.808594 19.316406 14.808594 20.6875 C 14.808594 22.128906 13.714844 23.320312 12.320312 23.320312 C 10.828125 23.320312 9.535156 22.152344 9.535156 20.6875 C 9.535156 17.378906 12.074219 14.617188 15.304688 14.617188 Z M 15.304688 14.617188 "/>
<path style=" stroke:none;fill-rule:nonzero;fill:rgb(0%,0%,0%);fill-opacity:1;" d="M 46.753906 20.882812 C 48.121094 20.882812 49.441406 21.582031 49.441406 23.097656 C 49.441406 24.863281 48.070312 26.109375 46.902344 26.804688 C 46.03125 27.328125 45.039062 27.648438 44.019531 27.648438 C 42.648438 27.648438 41.332031 26.953125 41.332031 25.4375 C 41.332031 23.671875 42.699219 22.425781 43.867188 21.730469 C 44.738281 21.207031 45.734375 20.882812 46.753906 20.882812 Z M 46.753906 20.882812 "/>
<path style=" stroke:none;fill-rule:nonzero;fill:rgb(0%,0%,0%);fill-opacity:1;" d="M 46.753906 27.101562 C 48.121094 27.101562 49.441406 27.800781 49.441406 29.316406 C 49.441406 31.082031 48.070312 32.324219 46.902344 33.023438 C 46.03125 33.542969 45.039062 33.867188 44.019531 33.867188 C 42.648438 33.867188 41.332031 33.171875 41.332031 31.65625 C 41.332031 29.886719 42.699219 28.644531 43.867188 27.949219 C 44.738281 27.425781 45.734375 27.101562 46.753906 27.101562 Z M 46.753906 27.101562 "/>
<path style=" stroke:none;fill-rule:nonzero;fill:rgb(0%,0%,0%);fill-opacity:1;" d="M 46.753906 33.320312 C 48.121094 33.320312 49.441406 34.015625 49.441406 35.535156 C 49.441406 37.300781 48.070312 38.542969 46.902344 39.242188 C 46.03125 39.761719 45.039062 40.085938 44.019531 40.085938 C 42.648438 40.085938 41.332031 39.390625 41.332031 37.871094 C 41.332031 36.105469 42.699219 34.863281 43.867188 34.167969 C 44.738281 33.644531 45.734375 33.320312 46.753906 33.320312 Z M 46.753906 33.320312 "/>
</g>
</svg>
