<?xml version="1.0" encoding="UTF-8"?>
<svg xmlns="http://www.w3.org/2000/svg" xmlns:xlink="http://www.w3.org/1999/xlink" width="83.565775pt" height="63.46631pt" viewBox="0 0 83.565775 63.46631" version="1.1">
<g id="surface1">
<path style="fill:none;stroke-width:0.1;stroke-linecap:round;stroke-linejoin:round;stroke:rgb(0%,0%,0%);stroke-opacity:1;stroke-miterlimit:4;" d="M 0.049863 -0.000201864 L 11.024542 -0.000201864 " transform="matrix(6.218149,0,0,6.218149,4.561038,54.321568)"/>
<path style="fill:none;stroke-width:0.1;stroke-linecap:round;stroke-linejoin:round;stroke:rgb(0%,0%,0%);stroke-opacity:1;stroke-miterlimit:4;" d="M 0.049863 -0.000298513 L 11.024542 -0.000298513 " transform="matrix(6.218149,0,0,6.218149,4.561038,48.103419)"/>
<path style="fill:none;stroke-width:0.1;stroke-linecap:round;stroke-linejoin:round;stroke:rgb(0%,0%,0%);stroke-opacity:1;stroke-miterlimit:4;" d="M 0.049863 0.00023304 L 11.024542 0.00023304 " transform="matrix(6.218149,0,0,6.218149,4.561038,41.88527)"/>
<path style="fill:none;stroke-width:0.1;stroke-linecap:round;stroke-linejoin:round;stroke:rgb(0%,0%,0%);stroke-opacity:1;stroke-miterlimit:4;" d="M 0.049863 0.000136391 L 11.024542 0.000136391 " transform="matrix(6.218149,0,0,6.218149,4.561038,35.667121)"/>
<path style="fill:none;stroke-width:0.1;stroke-linecap:round;stroke-linejoin:round;stroke:rgb(0%,0%,0%);stroke-opacity:1;stroke-miterlimit:4;" d="M 0.049863 0.0000397429 L 11.024542 0.0000397429 " transform="matrix(6.218149,0,0,6.218149,4.561038,29.448972)"/>
<path style=" stroke:none;fill-rule:nonzero;fill:rgb(0%,0%,0%);fill-opacity:1;" d="M 45.644531 16.390625 L 64.273438 16.390625 C 64.617188 16.390625 64.894531 16.667969 64.894531 17.011719 C 64.894531 17.355469 64.617188 17.632812 64.273438 17.632812 L 45.644531 17.632812 C 45.304688 17.632812 45.023438 17.355469 45.023438 17.011719 C 45.023438 16.667969 45.304688 16.390625 45.644531 16.390625 Z M 45.644531 16.390625 "/>
<path style=" stroke:none;fill-rule:nonzero;fill:rgb(0%,0%,0%);fill-opacity:1;" d="M 45.644531 22.609375 L 64.273438 22.609375 C 64.617188 22.609375 64.894531 22.886719 64.894531 23.230469 C 64.894531 23.574219 64.617188 23.851562 64.273438 23.851562 L 45.644531 23.851562 C 45.304688 23.851562 45.023438 23.574219 45.023438 23.230469 C 45.023438 22.886719 45.304688 22.609375 45.644531 22.609375 Z M 45.644531 22.609375 "/>
<path style=" stroke:none;fill-rule:nonzero;fill:rgb(0%,0%,0%);fill-opacity:1;" d="M 43.410156 21.664062 C 43.410156 21.914062 43.210938 22.136719 42.960938 22.136719 C 42.710938 22.136719 42.488281 21.914062 42.488281 21.664062 L 42.488281 18.058594 L 40.421875 18.828125 L 40.421875 22.757812 C 40.421875 23.007812 40.199219 23.230469 39.949219 23.230469 C 39.703125 23.230469 39.503906 23.007812 39.503906 22.757812 L 39.503906 19.152344 L 38.707031 19.449219 C 38.65625 19.476562 38.582031 19.476562 38.535156 19.476562 C 38.257812 19.476562 38.035156 19.25 38.035156 18.976562 L 38.035156 17.484375 C 38.035156 17.285156 38.160156 17.085938 38.359375 17.011719 L 39.503906 16.613281 L 39.503906 12.636719 L 38.707031 12.910156 C 38.65625 12.933594 38.582031 12.933594 38.535156 12.933594 C 38.257812 12.933594 38.035156 12.710938 38.035156 12.4375 L 38.035156 10.945312 C 38.035156 10.746094 38.160156 10.570312 38.359375 10.496094 L 39.503906 10.074219 L 39.503906 6.144531 C 39.503906 5.894531 39.703125 5.671875 39.949219 5.671875 C 40.199219 5.671875 40.421875 5.894531 40.421875 6.144531 L 40.421875 9.75 L 42.488281 8.980469 L 42.488281 5.050781 C 42.488281 4.800781 42.710938 4.578125 42.960938 4.578125 C 43.210938 4.578125 43.410156 4.800781 43.410156 5.050781 L 43.410156 8.65625 L 44.203125 8.355469 C 44.253906 8.332031 44.328125 8.332031 44.378906 8.332031 C 44.652344 8.332031 44.875 8.554688 44.875 8.828125 L 44.875 10.320312 C 44.875 10.519531 44.75 10.71875 44.550781 10.792969 L 43.410156 11.191406 L 43.410156 15.171875 L 44.203125 14.898438 C 44.253906 14.875 44.328125 14.875 44.378906 14.875 C 44.652344 14.875 44.875 15.097656 44.875 15.371094 L 44.875 16.863281 C 44.875 17.0625 44.75 17.238281 44.550781 17.3125 L 43.410156 17.734375 Z M 40.421875 12.285156 L 40.421875 16.265625 L 42.488281 15.519531 L 42.488281 11.539062 Z M 40.421875 12.285156 "/>
<path style=" stroke:none;fill-rule:nonzero;fill:rgb(0%,0%,0%);fill-opacity:1;" d="M 35.324219 30.992188 C 35.324219 31.238281 35.125 31.464844 34.878906 31.464844 C 34.628906 31.464844 34.40625 31.238281 34.40625 30.992188 L 34.40625 27.382812 L 32.339844 28.15625 L 32.339844 32.085938 C 32.339844 32.335938 32.117188 32.558594 31.867188 32.558594 C 31.617188 32.558594 31.417969 32.335938 31.417969 32.085938 L 31.417969 28.480469 L 30.625 28.777344 C 30.574219 28.800781 30.5 28.800781 30.449219 28.800781 C 30.175781 28.800781 29.953125 28.578125 29.953125 28.304688 L 29.953125 26.8125 C 29.953125 26.613281 30.078125 26.414062 30.277344 26.339844 L 31.417969 25.941406 L 31.417969 21.960938 L 30.625 22.234375 C 30.574219 22.261719 30.5 22.261719 30.449219 22.261719 C 30.175781 22.261719 29.953125 22.035156 29.953125 21.761719 L 29.953125 20.269531 C 29.953125 20.070312 30.078125 19.898438 30.277344 19.824219 L 31.417969 19.402344 L 31.417969 15.46875 C 31.417969 15.222656 31.617188 14.996094 31.867188 14.996094 C 32.117188 14.996094 32.339844 15.222656 32.339844 15.46875 L 32.339844 19.078125 L 34.40625 18.304688 L 34.40625 14.375 C 34.40625 14.128906 34.628906 13.902344 34.878906 13.902344 C 35.125 13.902344 35.324219 14.128906 35.324219 14.375 L 35.324219 17.984375 L 36.121094 17.683594 C 36.171875 17.660156 36.246094 17.660156 36.292969 17.660156 C 36.566406 17.660156 36.792969 17.882812 36.792969 18.15625 L 36.792969 19.648438 C 36.792969 19.847656 36.667969 20.046875 36.46875 20.121094 L 35.324219 20.519531 L 35.324219 24.5 L 36.121094 24.226562 C 36.171875 24.199219 36.246094 24.199219 36.292969 24.199219 C 36.566406 24.199219 36.792969 24.425781 36.792969 24.699219 L 36.792969 26.191406 C 36.792969 26.390625 36.667969 26.5625 36.46875 26.636719 L 35.324219 27.0625 Z M 32.339844 21.613281 L 32.339844 25.59375 L 34.40625 24.847656 L 34.40625 20.867188 Z M 32.339844 21.613281 "/>
<path style=" stroke:none;fill-rule:nonzero;fill:rgb(0%,0%,0%);fill-opacity:1;" d="M 55.007812 15.0625 L 55.316406 15.0625 C 55.453125 15.0625 55.566406 15.171875 55.566406 15.308594 L 55.566406 50.964844 C 55.566406 51.101562 55.453125 51.210938 55.316406 51.210938 L 55.007812 51.210938 C 54.867188 51.210938 54.757812 51.101562 54.757812 50.964844 L 54.757812 15.308594 C 54.757812 15.171875 54.867188 15.0625 55.007812 15.0625 Z M 55.007812 15.0625 "/>
<path style=" stroke:none;fill-rule:nonzero;fill:rgb(0%,0%,0%);fill-opacity:1;" d="M 23.390625 38.777344 C 23.390625 38.078125 23.960938 37.507812 24.65625 37.507812 C 25.355469 37.507812 25.925781 38.078125 25.925781 38.777344 C 25.925781 39.472656 25.355469 40.042969 24.65625 40.042969 C 23.960938 40.042969 23.390625 39.472656 23.390625 38.777344 Z M 23.390625 32.558594 C 23.390625 31.863281 23.960938 31.289062 24.65625 31.289062 C 25.355469 31.289062 25.925781 31.863281 25.925781 32.558594 C 25.925781 33.253906 25.355469 33.828125 24.65625 33.828125 C 23.960938 33.828125 23.390625 33.253906 23.390625 32.558594 Z M 15.304688 29.125 C 19.585938 29.125 22.59375 31.3125 22.59375 35.367188 C 22.59375 41.910156 16.050781 45.664062 9.757812 48.328125 C 9.683594 48.402344 9.609375 48.425781 9.535156 48.425781 C 9.363281 48.425781 9.210938 48.277344 9.210938 48.101562 C 9.210938 48.027344 9.238281 47.953125 9.3125 47.878906 C 14.335938 44.945312 19.558594 41.289062 19.558594 35.617188 C 19.558594 32.632812 17.992188 29.773438 15.304688 29.773438 C 13.464844 29.773438 12.097656 31.117188 11.476562 32.90625 C 11.75 32.78125 12.023438 32.707031 12.320312 32.707031 C 13.6875 32.707031 14.808594 33.828125 14.808594 35.195312 C 14.808594 36.636719 13.714844 37.832031 12.320312 37.832031 C 10.828125 37.832031 9.535156 36.660156 9.535156 35.195312 C 9.535156 31.886719 12.074219 29.125 15.304688 29.125 Z M 15.304688 29.125 "/>
<path style=" stroke:none;fill-rule:nonzero;fill:rgb(0%,0%,0%);fill-opacity:1;" d="M 60.179688 10.519531 C 61.546875 10.519531 62.867188 11.21875 62.867188 12.734375 C 62.867188 14.5 61.5 15.746094 60.328125 16.441406 C 59.457031 16.964844 58.464844 17.285156 57.445312 17.285156 C 56.074219 17.285156 54.757812 16.589844 54.757812 15.074219 C 54.757812 13.308594 56.125 12.0625 57.292969 11.367188 C 58.164062 10.84375 59.160156 10.519531 60.179688 10.519531 Z M 60.179688 10.519531 "/>
<path style=" stroke:none;fill-rule:nonzero;fill:rgb(0%,0%,0%);fill-opacity:1;" d="M 52.472656 13.628906 C 53.84375 13.628906 55.160156 14.328125 55.160156 15.84375 C 55.160156 17.609375 53.792969 18.851562 52.625 19.550781 C 51.753906 20.070312 50.757812 20.394531 49.738281 20.394531 C 48.371094 20.394531 47.050781 19.699219 47.050781 18.183594 C 47.050781 16.414062 48.421875 15.171875 49.589844 14.476562 C 50.460938 13.953125 51.453125 13.628906 52.472656 13.628906 Z M 52.472656 13.628906 "/>
<path style=" stroke:none;fill-rule:nonzero;fill:rgb(0%,0%,0%);fill-opacity:1;" d="M 60.179688 19.847656 C 61.546875 19.847656 62.867188 20.542969 62.867188 22.0625 C 62.867188 23.828125 61.5 25.070312 60.328125 25.769531 C 59.457031 26.289062 58.464844 26.613281 57.445312 26.613281 C 56.074219 26.613281 54.757812 25.917969 54.757812 24.398438 C 54.757812 22.632812 56.125 21.390625 57.292969 20.695312 C 58.164062 20.171875 59.160156 19.847656 60.179688 19.847656 Z M 60.179688 19.847656 "/>
<path style=" stroke:none;fill-rule:nonzero;fill:rgb(0%,0%,0%);fill-opacity:1;" d="M 60.179688 26.066406 C 61.546875 26.066406 62.867188 26.761719 62.867188 28.28125 C 62.867188 30.046875 61.5 31.289062 60.328125 31.984375 C 59.457031 32.507812 58.464844 32.832031 57.445312 32.832031 C 56.074219 32.832031 54.757812 32.136719 54.757812 30.617188 C 54.757812 28.851562 56.125 27.609375 57.292969 26.910156 C 58.164062 26.390625 59.160156 26.066406 60.179688 26.066406 Z M 60.179688 26.066406 "/>
</g>
</svg>
