<?xml version="1.0" encoding="UTF-8"?>
<svg xmlns="http://www.w3.org/2000/svg" xmlns:xlink="http://www.w3.org/1999/xlink" width="69.224853pt" height="50.860191pt" viewBox="0 0 69.224853 50.860191" version="1.1">
<g id="surface1">
<path style="fill:none;stroke-width:0.1;stroke-linecap:round;stroke-linejoin:round;stroke:rgb(0%,0%,0%);stroke-opacity:1;stroke-miterlimit:4;" d="M 0.049863 0.00023304 L 8.865413 0.00023304 " transform="matrix(6.218149,0,0,6.218149,4.561038,41.88527)"/>
<path style="fill:none;stroke-width:0.1;stroke-linecap:round;stroke-linejoin:round;stroke:rgb(0%,0%,0%);stroke-opacity:1;stroke-miterlimit:4;" d="M 0.049863 0.000136391 L 8.865413 0.000136391 " transform="matrix(6.218149,0,0,6.218149,4.561038,35.667121)"/>
<path style="fill:none;stroke-width:0.1;stroke-linecap:round;stroke-linejoin:round;stroke:rgb(0%,0%,0%);stroke-opacity:1;stroke-miterlimit:4;" d="M 0.049863 0.0000397429 L 8.865413 0.0000397429 " transform="matrix(6.218149,0,0,6.218149,4.561038,29.448972)"/>
<path style="fill:none;stroke-width:0.1;stroke-linecap:round;stroke-linejoin:round;stroke:rgb(0%,0%,0%);stroke-opacity:1;stroke-miterlimit:4;" d="M 0.049863 -0.0000569057 L 8.865413 -0.0000569057 " transform="matrix(6.218149,0,0,6.218149,4.561038,23.230823)"/>
<path style="fill:none;stroke-width:0.1;stroke-linecap:round;stroke-linejoin:round;stroke:rgb(0%,0%,0%);stroke-opacity:1;stroke-miterlimit:4;" d="M 0.049863 -0.000153554 L 8.865413 -0.000153554 " transform="matrix(6.218149,0,0,6.218149,4.561038,17.012674)"/>
<path style=" stroke:none;fill-rule:nonzero;fill:rgb(0%,0%,0%);fill-opacity:1;" d="M 34.851562 25.320312 L 34.828125 26.960938 L 34.828125 27.234375 C 34.828125 27.78125 34.851562 28.328125 34.925781 28.875 C 36.046875 27.933594 37.238281 26.886719 37.238281 25.417969 C 37.238281 24.597656 36.890625 23.753906 36.171875 23.753906 C 35.398438 23.753906 34.878906 24.5 34.851562 25.320312 Z M 33.808594 29.773438 L 33.507812 14.972656 C 33.707031 14.847656 33.957031 14.773438 34.179688 14.773438 C 34.40625 14.773438 34.652344 14.847656 34.851562 14.972656 L 34.679688 23.554688 C 35.300781 23.03125 36.121094 22.707031 36.941406 22.707031 C 38.234375 22.707031 39.15625 23.902344 39.15625 25.246094 C 39.15625 27.234375 37.015625 28.15625 35.5 29.449219 C 35.125 29.773438 34.902344 30.394531 34.378906 30.394531 C 34.054688 30.394531 33.808594 30.121094 33.808594 29.773438 Z M 33.808594 29.773438 "/>
<path style=" stroke:none;fill-rule:nonzero;fill:rgb(0%,0%,0%);fill-opacity:1;" d="M 31.371094 37.757812 L 31.34375 39.398438 L 31.34375 39.671875 C 31.34375 40.21875 31.371094 40.765625 31.445312 41.3125 C 32.5625 40.367188 33.757812 39.324219 33.757812 37.855469 C 33.757812 37.035156 33.410156 36.1875 32.6875 36.1875 C 31.917969 36.1875 31.394531 36.9375 31.371094 37.757812 Z M 30.324219 42.207031 L 30.027344 27.410156 C 30.226562 27.285156 30.472656 27.210938 30.699219 27.210938 C 30.921875 27.210938 31.171875 27.285156 31.371094 27.410156 L 31.195312 35.992188 C 31.816406 35.46875 32.636719 35.144531 33.460938 35.144531 C 34.753906 35.144531 35.671875 36.339844 35.671875 37.683594 C 35.671875 39.671875 33.535156 40.59375 32.015625 41.886719 C 31.644531 42.207031 31.417969 42.832031 30.898438 42.832031 C 30.574219 42.832031 30.324219 42.558594 30.324219 42.207031 Z M 30.324219 42.207031 "/>
<path style=" stroke:none;fill-rule:nonzero;fill:rgb(0%,0%,0%);fill-opacity:1;" d="M 48.882812 4.578125 L 49.191406 4.578125 C 49.328125 4.578125 49.441406 4.6875 49.441406 4.824219 L 49.441406 37.371094 C 49.441406 37.507812 49.328125 37.617188 49.191406 37.617188 L 48.882812 37.617188 C 48.746094 37.617188 48.632812 37.507812 48.632812 37.371094 L 48.632812 4.824219 C 48.632812 4.6875 48.746094 4.578125 48.882812 4.578125 Z M 48.882812 4.578125 "/>
<path style=" stroke:none;fill-rule:nonzero;fill:rgb(0%,0%,0%);fill-opacity:1;" d="M 23.390625 26.339844 C 23.390625 25.644531 23.960938 25.070312 24.65625 25.070312 C 25.355469 25.070312 25.925781 25.644531 25.925781 26.339844 C 25.925781 27.035156 25.355469 27.609375 24.65625 27.609375 C 23.960938 27.609375 23.390625 27.035156 23.390625 26.339844 Z M 23.390625 20.121094 C 23.390625 19.425781 23.960938 18.851562 24.65625 18.851562 C 25.355469 18.851562 25.925781 19.425781 25.925781 20.121094 C 25.925781 20.816406 25.355469 21.390625 24.65625 21.390625 C 23.960938 21.390625 23.390625 20.816406 23.390625 20.121094 Z M 15.304688 16.6875 C 19.585938 16.6875 22.59375 18.878906 22.59375 22.933594 C 22.59375 29.472656 16.050781 33.230469 9.757812 35.890625 C 9.683594 35.964844 9.609375 35.992188 9.535156 35.992188 C 9.363281 35.992188 9.210938 35.839844 9.210938 35.667969 C 9.210938 35.59375 9.238281 35.519531 9.3125 35.441406 C 14.335938 32.507812 19.558594 28.851562 19.558594 23.179688 C 19.558594 20.195312 17.992188 17.335938 15.304688 17.335938 C 13.464844 17.335938 12.097656 18.679688 11.476562 20.46875 C 11.75 20.34375 12.023438 20.269531 12.320312 20.269531 C 13.6875 20.269531 14.808594 21.390625 14.808594 22.757812 C 14.808594 24.199219 13.714844 25.394531 12.320312 25.394531 C 10.828125 25.394531 9.535156 24.226562 9.535156 22.757812 C 9.535156 19.449219 12.074219 16.6875 15.304688 16.6875 Z M 15.304688 16.6875 "/>
<path style=" stroke:none;fill-rule:nonzero;fill:rgb(0%,0%,0%);fill-opacity:1;" d="M 54.460938 19.847656 C 55.828125 19.847656 57.144531 20.542969 57.144531 22.0625 C 57.144531 23.828125 55.777344 25.070312 54.609375 25.769531 C 53.738281 26.289062 52.742188 26.613281 51.722656 26.613281 C 50.355469 26.613281 49.035156 25.917969 49.035156 24.398438 C 49.035156 22.632812 50.40625 21.390625 51.574219 20.695312 C 52.445312 20.171875 53.4375 19.847656 54.460938 19.847656 Z M 54.460938 19.847656 "/>
<path style=" stroke:none;fill-rule:nonzero;fill:rgb(0%,0%,0%);fill-opacity:1;" d="M 46.753906 22.957031 C 48.121094 22.957031 49.441406 23.652344 49.441406 25.171875 C 49.441406 26.9375 48.070312 28.179688 46.902344 28.875 C 46.03125 29.398438 45.039062 29.722656 44.019531 29.722656 C 42.648438 29.722656 41.332031 29.027344 41.332031 27.507812 C 41.332031 25.742188 42.699219 24.5 43.867188 23.804688 C 44.738281 23.28125 45.734375 22.957031 46.753906 22.957031 Z M 46.753906 22.957031 "/>
<path style=" stroke:none;fill-rule:nonzero;fill:rgb(0%,0%,0%);fill-opacity:1;" d="M 46.753906 29.175781 C 48.121094 29.175781 49.441406 29.871094 49.441406 31.390625 C 49.441406 33.15625 48.070312 34.398438 46.902344 35.09375 C 46.03125 35.617188 45.039062 35.941406 44.019531 35.941406 C 42.648438 35.941406 41.332031 35.246094 41.332031 33.726562 C 41.332031 31.960938 42.699219 30.71875 43.867188 30.019531 C 44.738281 29.5 45.734375 29.175781 46.753906 29.175781 Z M 46.753906 29.175781 "/>
<path style=" stroke:none;fill-rule:nonzero;fill:rgb(0%,0%,0%);fill-opacity:1;" d="M 46.753906 35.394531 C 48.121094 35.394531 49.441406 36.089844 49.441406 37.605469 C 49.441406 39.375 48.070312 40.617188 46.902344 41.3125 C 46.03125 41.835938 45.039062 42.160156 44.019531 42.160156 C 42.648438 42.160156 41.332031 41.460938 41.332031 39.945312 C 41.332031 38.179688 42.699219 36.9375 43.867188 36.238281 C 44.738281 35.71875 45.734375 35.394531 46.753906 35.394531 Z M 46.753906 35.394531 "/>
</g>
</svg>
