<?xml version="1.0" encoding="UTF-8"?>
<svg xmlns="http://www.w3.org/2000/svg" xmlns:xlink="http://www.w3.org/1999/xlink" width="83.542529pt" height="62.027005pt" viewBox="0 0 83.542529 62.027005" version="1.1">
<g id="surface1">
<path style="fill:none;stroke-width:0.1;stroke-linecap:round;stroke-linejoin:round;stroke:rgb(0%,0%,0%);stroke-opacity:1;stroke-miterlimit:4;" d="M 0.049863 -0.000217086 L 11.021401 -0.000217086 " transform="matrix(6.218149,0,0,6.218149,4.561038,37.739631)"/>
<path style="fill:none;stroke-width:0.1;stroke-linecap:round;stroke-linejoin:round;stroke:rgb(0%,0%,0%);stroke-opacity:1;stroke-miterlimit:4;" d="M 0.049863 -0.000313735 L 11.021401 -0.000313735 " transform="matrix(6.218149,0,0,6.218149,4.561038,31.521482)"/>
<path style="fill:none;stroke-width:0.1;stroke-linecap:round;stroke-linejoin:round;stroke:rgb(0%,0%,0%);stroke-opacity:1;stroke-miterlimit:4;" d="M 0.049863 0.000217818 L 11.021401 0.000217818 " transform="matrix(6.218149,0,0,6.218149,4.561038,25.303333)"/>
<path style="fill:none;stroke-width:0.1;stroke-linecap:round;stroke-linejoin:round;stroke:rgb(0%,0%,0%);stroke-opacity:1;stroke-miterlimit:4;" d="M 0.049863 0.000121169 L 11.021401 0.000121169 " transform="matrix(6.218149,0,0,6.218149,4.561038,19.085184)"/>
<path style="fill:none;stroke-width:0.1;stroke-linecap:round;stroke-linejoin:round;stroke:rgb(0%,0%,0%);stroke-opacity:1;stroke-miterlimit:4;" d="M 0.049863 0.0000245208 L 11.021401 0.0000245208 " transform="matrix(6.218149,0,0,6.218149,4.561038,12.867035)"/>
<path style=" stroke:none;fill-rule:nonzero;fill:rgb(0%,0%,0%);fill-opacity:1;" d="M 54.269531 43.335938 L 64.25 43.335938 C 64.59375 43.335938 64.871094 43.613281 64.871094 43.957031 C 64.871094 44.300781 64.59375 44.578125 64.25 44.578125 L 54.269531 44.578125 C 53.925781 44.578125 53.648438 44.300781 53.648438 43.957031 C 53.648438 43.613281 53.925781 43.335938 54.269531 43.335938 Z M 54.269531 43.335938 "/>
<path style=" stroke:none;fill-rule:nonzero;fill:rgb(0%,0%,0%);fill-opacity:1;" d="M 62.285156 4.578125 L 62.597656 4.578125 C 62.734375 4.578125 62.84375 4.6875 62.84375 4.824219 L 62.84375 42.550781 C 62.84375 42.6875 62.734375 42.800781 62.597656 42.800781 L 62.285156 42.800781 C 62.148438 42.800781 62.039062 42.6875 62.039062 42.550781 L 62.039062 4.824219 C 62.039062 4.6875 62.148438 4.578125 62.285156 4.578125 Z M 62.285156 4.578125 "/>
<path style=" stroke:none;fill-rule:nonzero;fill:rgb(0%,0%,0%);fill-opacity:1;" d="M 49.824219 25.304688 C 50.398438 25.875 51.21875 26 52.039062 26 C 52.1875 26 52.289062 26.097656 52.289062 26.25 L 52.511719 28.414062 C 52.535156 28.5625 52.414062 28.6875 52.261719 28.660156 L 50.097656 28.4375 C 49.976562 28.414062 49.851562 28.3125 49.851562 28.1875 C 49.851562 27.367188 49.726562 26.546875 49.152344 25.976562 C 48.582031 26.546875 48.480469 27.367188 48.480469 28.1875 C 48.480469 28.3125 48.359375 28.414062 48.234375 28.4375 L 46.042969 28.660156 C 45.894531 28.6875 45.769531 28.5625 45.796875 28.414062 L 46.019531 26.25 C 46.019531 26.097656 46.121094 26 46.269531 26 C 47.089844 26 47.910156 25.875 48.480469 25.304688 C 47.910156 24.730469 47.089844 24.605469 46.269531 24.605469 C 46.121094 24.605469 46.019531 24.507812 46.019531 24.359375 L 45.796875 22.195312 C 45.769531 22.046875 45.894531 21.921875 46.042969 21.945312 L 48.234375 22.167969 C 48.359375 22.195312 48.457031 22.292969 48.457031 22.417969 C 48.457031 23.238281 48.582031 24.058594 49.152344 24.632812 C 49.726562 24.058594 49.851562 23.238281 49.851562 22.417969 C 49.851562 22.292969 49.976562 22.195312 50.097656 22.167969 L 52.261719 21.945312 C 52.414062 21.921875 52.535156 22.046875 52.511719 22.195312 L 52.289062 24.359375 C 52.289062 24.507812 52.1875 24.605469 52.039062 24.605469 C 51.21875 24.605469 50.398438 24.730469 49.824219 25.304688 Z M 49.824219 25.304688 "/>
<path style=" stroke:none;fill-rule:nonzero;fill:rgb(0%,0%,0%);fill-opacity:1;" d="M 43.082031 39.28125 C 43.082031 39.53125 42.882812 39.753906 42.636719 39.753906 C 42.386719 39.753906 42.164062 39.53125 42.164062 39.28125 L 42.164062 35.675781 L 40.097656 36.445312 L 40.097656 40.375 C 40.097656 40.625 39.875 40.847656 39.625 40.847656 C 39.378906 40.847656 39.179688 40.625 39.179688 40.375 L 39.179688 36.769531 L 38.382812 37.066406 C 38.332031 37.09375 38.257812 37.09375 38.207031 37.09375 C 37.933594 37.09375 37.710938 36.867188 37.710938 36.59375 L 37.710938 35.101562 C 37.710938 34.902344 37.835938 34.707031 38.035156 34.628906 L 39.179688 34.234375 L 39.179688 30.253906 L 38.382812 30.527344 C 38.332031 30.550781 38.257812 30.550781 38.207031 30.550781 C 37.933594 30.550781 37.710938 30.328125 37.710938 30.054688 L 37.710938 28.5625 C 37.710938 28.363281 37.835938 28.1875 38.035156 28.113281 L 39.179688 27.691406 L 39.179688 23.761719 C 39.179688 23.511719 39.378906 23.289062 39.625 23.289062 C 39.875 23.289062 40.097656 23.511719 40.097656 23.761719 L 40.097656 27.367188 L 42.164062 26.597656 L 42.164062 22.667969 C 42.164062 22.417969 42.386719 22.195312 42.636719 22.195312 C 42.882812 22.195312 43.082031 22.417969 43.082031 22.667969 L 43.082031 26.273438 L 43.878906 25.976562 C 43.929688 25.949219 44.003906 25.949219 44.054688 25.949219 C 44.328125 25.949219 44.550781 26.175781 44.550781 26.449219 L 44.550781 27.941406 C 44.550781 28.140625 44.425781 28.335938 44.226562 28.414062 L 43.082031 28.808594 L 43.082031 32.789062 L 43.878906 32.515625 C 43.929688 32.492188 44.003906 32.492188 44.054688 32.492188 C 44.328125 32.492188 44.550781 32.714844 44.550781 32.988281 L 44.550781 34.480469 C 44.550781 34.679688 44.425781 34.855469 44.226562 34.929688 L 43.082031 35.351562 Z M 40.097656 29.90625 L 40.097656 33.882812 L 42.164062 33.136719 L 42.164062 29.160156 Z M 40.097656 29.90625 "/>
<path style=" stroke:none;fill-rule:nonzero;fill:rgb(0%,0%,0%);fill-opacity:1;" d="M 33.734375 37.738281 C 34.304688 38.3125 35.125 38.4375 35.945312 38.4375 C 36.097656 38.4375 36.195312 38.535156 36.195312 38.683594 L 36.417969 40.847656 C 36.445312 40.996094 36.320312 41.121094 36.171875 41.097656 L 34.007812 40.875 C 33.882812 40.847656 33.757812 40.75 33.757812 40.625 C 33.757812 39.804688 33.632812 38.984375 33.0625 38.410156 C 32.488281 38.984375 32.390625 39.804688 32.390625 40.625 C 32.390625 40.75 32.265625 40.847656 32.140625 40.875 L 29.953125 41.097656 C 29.804688 41.121094 29.679688 40.996094 29.703125 40.847656 L 29.925781 38.683594 C 29.925781 38.535156 30.027344 38.4375 30.175781 38.4375 C 30.996094 38.4375 31.816406 38.3125 32.390625 37.738281 C 31.816406 37.167969 30.996094 37.042969 30.175781 37.042969 C 30.027344 37.042969 29.925781 36.945312 29.925781 36.792969 L 29.703125 34.628906 C 29.679688 34.480469 29.804688 34.355469 29.953125 34.382812 L 32.140625 34.605469 C 32.265625 34.628906 32.363281 34.730469 32.363281 34.855469 C 32.363281 35.675781 32.488281 36.496094 33.0625 37.066406 C 33.632812 36.496094 33.757812 35.675781 33.757812 34.855469 C 33.757812 34.730469 33.882812 34.628906 34.007812 34.605469 L 36.171875 34.382812 C 36.320312 34.355469 36.445312 34.480469 36.417969 34.628906 L 36.195312 36.792969 C 36.195312 36.945312 36.097656 37.042969 35.945312 37.042969 C 35.125 37.042969 34.304688 37.167969 33.734375 37.738281 Z M 33.734375 37.738281 "/>
<path style=" stroke:none;fill-rule:nonzero;fill:rgb(0%,0%,0%);fill-opacity:1;" d="M 51.09375 51.71875 C 51.09375 51.964844 50.894531 52.191406 50.644531 52.191406 C 50.394531 52.191406 50.171875 51.964844 50.171875 51.71875 L 50.171875 48.113281 L 48.105469 48.882812 L 48.105469 52.8125 C 48.105469 53.0625 47.882812 53.285156 47.636719 53.285156 C 47.386719 53.285156 47.1875 53.0625 47.1875 52.8125 L 47.1875 49.207031 L 46.390625 49.503906 C 46.339844 49.527344 46.265625 49.527344 46.21875 49.527344 C 45.945312 49.527344 45.71875 49.304688 45.71875 49.03125 L 45.71875 47.539062 C 45.71875 47.339844 45.84375 47.140625 46.042969 47.066406 L 47.1875 46.667969 L 47.1875 42.6875 L 46.390625 42.960938 C 46.339844 42.988281 46.265625 42.988281 46.21875 42.988281 C 45.945312 42.988281 45.71875 42.765625 45.71875 42.492188 L 45.71875 40.996094 C 45.71875 40.800781 45.84375 40.625 46.042969 40.550781 L 47.1875 40.128906 L 47.1875 36.199219 C 47.1875 35.949219 47.386719 35.726562 47.636719 35.726562 C 47.882812 35.726562 48.105469 35.949219 48.105469 36.199219 L 48.105469 39.804688 L 50.171875 39.03125 L 50.171875 35.101562 C 50.171875 34.855469 50.394531 34.628906 50.644531 34.628906 C 50.894531 34.628906 51.09375 34.855469 51.09375 35.101562 L 51.09375 38.710938 L 51.886719 38.410156 C 51.9375 38.386719 52.011719 38.386719 52.0625 38.386719 C 52.335938 38.386719 52.558594 38.609375 52.558594 38.882812 L 52.558594 40.375 C 52.558594 40.574219 52.433594 40.773438 52.234375 40.847656 L 51.09375 41.246094 L 51.09375 45.226562 L 51.886719 44.953125 C 51.9375 44.929688 52.011719 44.929688 52.0625 44.929688 C 52.335938 44.929688 52.558594 45.152344 52.558594 45.425781 L 52.558594 46.917969 C 52.558594 47.117188 52.433594 47.289062 52.234375 47.367188 L 51.09375 47.789062 Z M 48.105469 42.339844 L 48.105469 46.320312 L 50.171875 45.574219 L 50.171875 41.59375 Z M 48.105469 42.339844 "/>
<path style=" stroke:none;fill-rule:nonzero;fill:rgb(0%,0%,0%);fill-opacity:1;" d="M 23.390625 22.195312 C 23.390625 21.496094 23.960938 20.925781 24.65625 20.925781 C 25.355469 20.925781 25.925781 21.496094 25.925781 22.195312 C 25.925781 22.890625 25.355469 23.460938 24.65625 23.460938 C 23.960938 23.460938 23.390625 22.890625 23.390625 22.195312 Z M 23.390625 15.976562 C 23.390625 15.28125 23.960938 14.707031 24.65625 14.707031 C 25.355469 14.707031 25.925781 15.28125 25.925781 15.976562 C 25.925781 16.671875 25.355469 17.246094 24.65625 17.246094 C 23.960938 17.246094 23.390625 16.671875 23.390625 15.976562 Z M 15.304688 12.542969 C 19.585938 12.542969 22.59375 14.734375 22.59375 18.785156 C 22.59375 25.328125 16.050781 29.082031 9.757812 31.746094 C 9.683594 31.820312 9.609375 31.84375 9.535156 31.84375 C 9.363281 31.84375 9.210938 31.695312 9.210938 31.519531 C 9.210938 31.445312 9.238281 31.371094 9.3125 31.296875 C 14.335938 28.363281 19.558594 24.707031 19.558594 19.035156 C 19.558594 16.050781 17.992188 13.191406 15.304688 13.191406 C 13.464844 13.191406 12.097656 14.535156 11.476562 16.324219 C 11.75 16.199219 12.023438 16.125 12.320312 16.125 C 13.6875 16.125 14.808594 17.246094 14.808594 18.613281 C 14.808594 20.054688 13.714844 21.25 12.320312 21.25 C 10.828125 21.25 9.535156 20.082031 9.535156 18.613281 C 9.535156 15.304688 12.074219 12.542969 15.304688 12.542969 Z M 15.304688 12.542969 "/>
<path style=" stroke:none;fill-rule:nonzero;fill:rgb(0%,0%,0%);fill-opacity:1;" d="M 60.15625 21.921875 C 61.527344 21.921875 62.84375 22.617188 62.84375 24.132812 C 62.84375 25.898438 61.476562 27.144531 60.308594 27.839844 C 59.4375 28.363281 58.441406 28.6875 57.421875 28.6875 C 56.054688 28.6875 54.734375 27.988281 54.734375 26.472656 C 54.734375 24.707031 56.105469 23.460938 57.273438 22.765625 C 58.144531 22.242188 59.136719 21.921875 60.15625 21.921875 Z M 60.15625 21.921875 "/>
<path style=" stroke:none;fill-rule:nonzero;fill:rgb(0%,0%,0%);fill-opacity:1;" d="M 60.15625 28.140625 C 61.527344 28.140625 62.84375 28.835938 62.84375 30.351562 C 62.84375 32.117188 61.476562 33.363281 60.308594 34.058594 C 59.4375 34.582031 58.441406 34.902344 57.421875 34.902344 C 56.054688 34.902344 54.734375 34.207031 54.734375 32.691406 C 54.734375 30.925781 56.105469 29.679688 57.273438 28.984375 C 58.144531 28.460938 59.136719 28.140625 60.15625 28.140625 Z M 60.15625 28.140625 "/>
<path style=" stroke:none;fill-rule:nonzero;fill:rgb(0%,0%,0%);fill-opacity:1;" d="M 60.15625 34.355469 C 61.527344 34.355469 62.84375 35.054688 62.84375 36.570312 C 62.84375 38.335938 61.476562 39.582031 60.308594 40.277344 C 59.4375 40.800781 58.441406 41.121094 57.421875 41.121094 C 56.054688 41.121094 54.734375 40.425781 54.734375 38.910156 C 54.734375 37.144531 56.105469 35.898438 57.273438 35.203125 C 58.144531 34.679688 59.136719 34.355469 60.15625 34.355469 Z M 60.15625 34.355469 "/>
<path style=" stroke:none;fill-rule:nonzero;fill:rgb(0%,0%,0%);fill-opacity:1;" d="M 60.15625 40.574219 C 61.527344 40.574219 62.84375 41.273438 62.84375 42.789062 C 62.84375 44.554688 61.476562 45.796875 60.308594 46.496094 C 59.4375 47.015625 58.441406 47.339844 57.421875 47.339844 C 56.054688 47.339844 54.734375 46.644531 54.734375 45.125 C 54.734375 43.359375 56.105469 42.117188 57.273438 41.421875 C 58.144531 40.898438 59.136719 40.574219 60.15625 40.574219 Z M 60.15625 40.574219 "/>
</g>
</svg>
