<?xml version="1.0" encoding="UTF-8"?>
<svg xmlns="http://www.w3.org/2000/svg" xmlns:xlink="http://www.w3.org/1999/xlink" width="82.322431pt" height="47.98231pt" viewBox="0 0 82.322431 47.98231" version="1.1">
<g id="surface1">
<path style="fill:none;stroke-width:0.1;stroke-linecap:round;stroke-linejoin:round;stroke:rgb(0%,0%,0%);stroke-opacity:1;stroke-miterlimit:4;" d="M 0.049863 -0.0001075 L 10.837338 -0.0001075 " transform="matrix(6.218149,0,0,6.218149,4.561038,29.434262)"/>
<path style="fill:none;stroke-width:0.1;stroke-linecap:round;stroke-linejoin:round;stroke:rgb(0%,0%,0%);stroke-opacity:1;stroke-miterlimit:4;" d="M 0.049863 -0.000204149 L 10.837338 -0.000204149 " transform="matrix(6.218149,0,0,6.218149,4.561038,23.216113)"/>
<path style="fill:none;stroke-width:0.1;stroke-linecap:round;stroke-linejoin:round;stroke:rgb(0%,0%,0%);stroke-opacity:1;stroke-miterlimit:4;" d="M 0.049863 -0.000300797 L 10.837338 -0.000300797 " transform="matrix(6.218149,0,0,6.218149,4.561038,16.997964)"/>
<path style="fill:none;stroke-width:0.1;stroke-linecap:round;stroke-linejoin:round;stroke:rgb(0%,0%,0%);stroke-opacity:1;stroke-miterlimit:4;" d="M 0.049863 0.000230756 L 10.837338 0.000230756 " transform="matrix(6.218149,0,0,6.218149,4.561038,10.779815)"/>
<path style="fill:none;stroke-width:0.1;stroke-linecap:round;stroke-linejoin:round;stroke:rgb(0%,0%,0%);stroke-opacity:1;stroke-miterlimit:4;" d="M 0.049863 0.000133988 L 10.837338 0.000133988 " transform="matrix(6.218149,0,0,6.218149,4.561038,4.561667)"/>
<path style=" stroke:none;fill-rule:nonzero;fill:rgb(0%,0%,0%);fill-opacity:1;" d="M 53.84375 8.828125 L 54.152344 8.828125 C 54.289062 8.828125 54.402344 8.9375 54.402344 9.078125 L 54.402344 39.550781 C 54.402344 39.6875 54.289062 39.796875 54.152344 39.796875 L 53.84375 39.796875 C 53.703125 39.796875 53.59375 39.6875 53.59375 39.550781 L 53.59375 9.078125 C 53.59375 8.9375 53.703125 8.828125 53.84375 8.828125 Z M 53.84375 8.828125 "/>
<path style=" stroke:none;fill-rule:nonzero;fill:rgb(0%,0%,0%);fill-opacity:1;" d="M 48.683594 7.671875 C 49.253906 8.242188 50.074219 8.367188 50.894531 8.367188 C 51.046875 8.367188 51.144531 8.464844 51.144531 8.617188 L 51.367188 10.78125 C 51.394531 10.929688 51.269531 11.054688 51.121094 11.027344 L 48.957031 10.804688 C 48.832031 10.78125 48.707031 10.679688 48.707031 10.554688 C 48.707031 9.734375 48.582031 8.914062 48.011719 8.34375 C 47.4375 8.914062 47.339844 9.734375 47.339844 10.554688 C 47.339844 10.679688 47.214844 10.78125 47.089844 10.804688 L 44.902344 11.027344 C 44.753906 11.054688 44.628906 10.929688 44.652344 10.78125 L 44.878906 8.617188 C 44.878906 8.464844 44.976562 8.367188 45.125 8.367188 C 45.945312 8.367188 46.765625 8.242188 47.339844 7.671875 C 46.765625 7.097656 45.945312 6.972656 45.125 6.972656 C 44.976562 6.972656 44.878906 6.875 44.878906 6.726562 L 44.652344 4.5625 C 44.628906 4.414062 44.753906 4.289062 44.902344 4.3125 L 47.089844 4.535156 C 47.214844 4.5625 47.316406 4.660156 47.316406 4.785156 C 47.316406 5.605469 47.4375 6.425781 48.011719 7 C 48.582031 6.425781 48.707031 5.605469 48.707031 4.785156 C 48.707031 4.660156 48.832031 4.5625 48.957031 4.535156 L 51.121094 4.3125 C 51.269531 4.289062 51.394531 4.414062 51.367188 4.5625 L 51.144531 6.726562 C 51.144531 6.875 51.046875 6.972656 50.894531 6.972656 C 50.074219 6.972656 49.253906 7.097656 48.683594 7.671875 Z M 48.683594 7.671875 "/>
<path style=" stroke:none;fill-rule:nonzero;fill:rgb(0%,0%,0%);fill-opacity:1;" d="M 35.324219 21.648438 C 35.324219 21.898438 35.125 22.121094 34.878906 22.121094 C 34.628906 22.121094 34.40625 21.898438 34.40625 21.648438 L 34.40625 18.042969 L 32.339844 18.8125 L 32.339844 22.742188 C 32.339844 22.992188 32.117188 23.214844 31.867188 23.214844 C 31.617188 23.214844 31.417969 22.992188 31.417969 22.742188 L 31.417969 19.136719 L 30.625 19.433594 C 30.574219 19.460938 30.5 19.460938 30.449219 19.460938 C 30.175781 19.460938 29.953125 19.238281 29.953125 18.964844 L 29.953125 17.46875 C 29.953125 17.273438 30.078125 17.074219 30.277344 16.996094 L 31.417969 16.601562 L 31.417969 12.621094 L 30.625 12.894531 C 30.574219 12.917969 30.5 12.917969 30.449219 12.917969 C 30.175781 12.917969 29.953125 12.695312 29.953125 12.421875 L 29.953125 10.929688 C 29.953125 10.730469 30.078125 10.554688 30.277344 10.480469 L 31.417969 10.058594 L 31.417969 6.128906 C 31.417969 5.878906 31.617188 5.65625 31.867188 5.65625 C 32.117188 5.65625 32.339844 5.878906 32.339844 6.128906 L 32.339844 9.734375 L 34.40625 8.964844 L 34.40625 5.035156 C 34.40625 4.785156 34.628906 4.5625 34.878906 4.5625 C 35.125 4.5625 35.324219 4.785156 35.324219 5.035156 L 35.324219 8.640625 L 36.121094 8.34375 C 36.171875 8.316406 36.246094 8.316406 36.292969 8.316406 C 36.566406 8.316406 36.792969 8.542969 36.792969 8.816406 L 36.792969 10.308594 C 36.792969 10.507812 36.667969 10.707031 36.46875 10.78125 L 35.324219 11.179688 L 35.324219 15.15625 L 36.121094 14.882812 C 36.171875 14.859375 36.246094 14.859375 36.292969 14.859375 C 36.566406 14.859375 36.792969 15.082031 36.792969 15.355469 L 36.792969 16.847656 C 36.792969 17.046875 36.667969 17.222656 36.46875 17.296875 L 35.324219 17.71875 Z M 32.339844 12.273438 L 32.339844 16.25 L 34.40625 15.503906 L 34.40625 11.527344 Z M 32.339844 12.273438 "/>
<path style=" stroke:none;fill-rule:nonzero;fill:rgb(0%,0%,0%);fill-opacity:1;" d="M 43.410156 27.867188 C 43.410156 28.117188 43.210938 28.339844 42.960938 28.339844 C 42.710938 28.339844 42.488281 28.117188 42.488281 27.867188 L 42.488281 24.261719 L 40.421875 25.03125 L 40.421875 28.960938 C 40.421875 29.210938 40.199219 29.433594 39.949219 29.433594 C 39.703125 29.433594 39.503906 29.210938 39.503906 28.960938 L 39.503906 25.355469 L 38.707031 25.652344 C 38.65625 25.679688 38.582031 25.679688 38.535156 25.679688 C 38.257812 25.679688 38.035156 25.453125 38.035156 25.179688 L 38.035156 23.6875 C 38.035156 23.488281 38.160156 23.289062 38.359375 23.214844 L 39.503906 22.816406 L 39.503906 18.839844 L 38.707031 19.113281 C 38.65625 19.136719 38.582031 19.136719 38.535156 19.136719 C 38.257812 19.136719 38.035156 18.914062 38.035156 18.640625 L 38.035156 17.148438 C 38.035156 16.949219 38.160156 16.773438 38.359375 16.699219 L 39.503906 16.277344 L 39.503906 12.347656 C 39.503906 12.097656 39.703125 11.875 39.949219 11.875 C 40.199219 11.875 40.421875 12.097656 40.421875 12.347656 L 40.421875 15.953125 L 42.488281 15.183594 L 42.488281 11.253906 C 42.488281 11.003906 42.710938 10.78125 42.960938 10.78125 C 43.210938 10.78125 43.410156 11.003906 43.410156 11.253906 L 43.410156 14.859375 L 44.203125 14.558594 C 44.253906 14.535156 44.328125 14.535156 44.378906 14.535156 C 44.652344 14.535156 44.875 14.757812 44.875 15.03125 L 44.875 16.523438 C 44.875 16.722656 44.75 16.921875 44.550781 16.996094 L 43.410156 17.394531 L 43.410156 21.375 L 44.203125 21.101562 C 44.253906 21.078125 44.328125 21.078125 44.378906 21.078125 C 44.652344 21.078125 44.875 21.300781 44.875 21.574219 L 44.875 23.066406 C 44.875 23.265625 44.75 23.441406 44.550781 23.515625 L 43.410156 23.9375 Z M 40.421875 18.492188 L 40.421875 22.46875 L 42.488281 21.722656 L 42.488281 17.746094 Z M 40.421875 18.492188 "/>
<path style=" stroke:none;fill-rule:nonzero;fill:rgb(0%,0%,0%);fill-opacity:1;" d="M 23.390625 13.890625 C 23.390625 13.191406 23.960938 12.621094 24.65625 12.621094 C 25.355469 12.621094 25.925781 13.191406 25.925781 13.890625 C 25.925781 14.585938 25.355469 15.15625 24.65625 15.15625 C 23.960938 15.15625 23.390625 14.585938 23.390625 13.890625 Z M 23.390625 7.671875 C 23.390625 6.972656 23.960938 6.402344 24.65625 6.402344 C 25.355469 6.402344 25.925781 6.972656 25.925781 7.671875 C 25.925781 8.367188 25.355469 8.9375 24.65625 8.9375 C 23.960938 8.9375 23.390625 8.367188 23.390625 7.671875 Z M 15.304688 4.238281 C 19.585938 4.238281 22.59375 6.425781 22.59375 10.480469 C 22.59375 17.023438 16.050781 20.777344 9.757812 23.441406 C 9.683594 23.515625 9.609375 23.539062 9.535156 23.539062 C 9.363281 23.539062 9.210938 23.390625 9.210938 23.214844 C 9.210938 23.140625 9.238281 23.066406 9.3125 22.992188 C 14.335938 20.058594 19.558594 16.402344 19.558594 10.730469 C 19.558594 7.746094 17.992188 4.886719 15.304688 4.886719 C 13.464844 4.886719 12.097656 6.226562 11.476562 8.019531 C 11.75 7.894531 12.023438 7.820312 12.320312 7.820312 C 13.6875 7.820312 14.808594 8.9375 14.808594 10.308594 C 14.808594 11.75 13.714844 12.945312 12.320312 12.945312 C 10.828125 12.945312 9.535156 11.773438 9.535156 10.308594 C 9.535156 7 12.074219 4.238281 15.304688 4.238281 Z M 15.304688 4.238281 "/>
<path style=" stroke:none;fill-rule:nonzero;fill:rgb(0%,0%,0%);fill-opacity:1;" d="M 59.015625 4.289062 C 60.382812 4.289062 61.703125 4.984375 61.703125 6.5 C 61.703125 8.269531 60.335938 9.511719 59.164062 10.207031 C 58.292969 10.730469 57.300781 11.054688 56.28125 11.054688 C 54.910156 11.054688 53.59375 10.355469 53.59375 8.839844 C 53.59375 7.074219 54.960938 5.832031 56.128906 5.132812 C 57 4.613281 57.996094 4.289062 59.015625 4.289062 Z M 59.015625 4.289062 "/>
<path style=" stroke:none;fill-rule:nonzero;fill:rgb(0%,0%,0%);fill-opacity:1;" d="M 59.015625 10.507812 C 60.382812 10.507812 61.703125 11.203125 61.703125 12.71875 C 61.703125 14.484375 60.335938 15.730469 59.164062 16.425781 C 58.292969 16.949219 57.300781 17.273438 56.28125 17.273438 C 54.910156 17.273438 53.59375 16.574219 53.59375 15.058594 C 53.59375 13.292969 54.960938 12.046875 56.128906 11.351562 C 57 10.828125 57.996094 10.507812 59.015625 10.507812 Z M 59.015625 10.507812 "/>
<path style=" stroke:none;fill-rule:nonzero;fill:rgb(0%,0%,0%);fill-opacity:1;" d="M 59.015625 16.722656 C 60.382812 16.722656 61.703125 17.421875 61.703125 18.9375 C 61.703125 20.703125 60.335938 21.949219 59.164062 22.644531 C 58.292969 23.167969 57.300781 23.488281 56.28125 23.488281 C 54.910156 23.488281 53.59375 22.792969 53.59375 21.277344 C 53.59375 19.511719 54.960938 18.265625 56.128906 17.570312 C 57 17.046875 57.996094 16.722656 59.015625 16.722656 Z M 59.015625 16.722656 "/>
</g>
</svg>
