<?xml version="1.0" encoding="UTF-8"?>
<svg xmlns="http://www.w3.org/2000/svg" xmlns:xlink="http://www.w3.org/1999/xlink" width="83.167931pt" height="69.111784pt" viewBox="0 0 83.167931 69.111784" version="1.1">
<g id="surface1">
<path style="fill:none;stroke-width:0.1;stroke-linecap:round;stroke-linejoin:round;stroke:rgb(0%,0%,0%);stroke-opacity:1;stroke-miterlimit:4;" d="M 0.049863 0.000289441 L 10.964863 0.000289441 " transform="matrix(6.218149,0,0,6.218149,4.561038,50.34195)"/>
<path style="fill:none;stroke-width:0.1;stroke-linecap:round;stroke-linejoin:round;stroke:rgb(0%,0%,0%);stroke-opacity:1;stroke-miterlimit:4;" d="M 0.049863 0.000192316 L 10.964863 0.000192316 " transform="matrix(6.218149,0,0,6.218149,4.561038,44.123804)"/>
<path style="fill:none;stroke-width:0.1;stroke-linecap:round;stroke-linejoin:round;stroke:rgb(0%,0%,0%);stroke-opacity:1;stroke-miterlimit:4;" d="M 0.049863 0.0000956673 L 10.964863 0.0000956673 " transform="matrix(6.218149,0,0,6.218149,4.561038,37.905655)"/>
<path style="fill:none;stroke-width:0.1;stroke-linecap:round;stroke-linejoin:round;stroke:rgb(0%,0%,0%);stroke-opacity:1;stroke-miterlimit:4;" d="M 0.049863 -0.000000981293 L 10.964863 -0.000000981293 " transform="matrix(6.218149,0,0,6.218149,4.561038,31.687506)"/>
<path style="fill:none;stroke-width:0.1;stroke-linecap:round;stroke-linejoin:round;stroke:rgb(0%,0%,0%);stroke-opacity:1;stroke-miterlimit:4;" d="M 0.049863 -0.0000976299 L 10.964863 -0.0000976299 " transform="matrix(6.218149,0,0,6.218149,4.561038,25.469357)"/>
<path style=" stroke:none;fill-rule:nonzero;fill:rgb(0%,0%,0%);fill-opacity:1;" d="M 53.925781 18.628906 L 63.898438 18.628906 C 64.242188 18.628906 64.523438 18.90625 64.523438 19.25 C 64.523438 19.59375 64.242188 19.871094 63.898438 19.871094 L 53.925781 19.871094 C 53.582031 19.871094 53.300781 19.59375 53.300781 19.25 C 53.300781 18.90625 53.582031 18.628906 53.925781 18.628906 Z M 53.925781 18.628906 "/>
<path style=" stroke:none;fill-rule:nonzero;fill:rgb(0%,0%,0%);fill-opacity:1;" d="M 54.632812 17.300781 L 54.945312 17.300781 C 55.082031 17.300781 55.191406 17.410156 55.191406 17.546875 L 55.191406 56.3125 C 55.191406 56.449219 55.082031 56.558594 54.945312 56.558594 L 54.632812 56.558594 C 54.496094 56.558594 54.382812 56.449219 54.382812 56.3125 L 54.382812 17.546875 C 54.382812 17.410156 54.496094 17.300781 54.632812 17.300781 Z M 54.632812 17.300781 "/>
<path style=" stroke:none;fill-rule:nonzero;fill:rgb(0%,0%,0%);fill-opacity:1;" d="M 47.929688 15.121094 L 47.90625 16.765625 C 47.90625 16.863281 47.878906 16.9375 47.878906 17.039062 C 47.878906 17.585938 47.90625 18.132812 47.980469 18.679688 C 49.074219 17.757812 50.144531 16.640625 50.144531 15.222656 C 50.144531 14.402344 49.871094 13.554688 49.148438 13.554688 C 48.402344 13.554688 47.953125 14.300781 47.929688 15.121094 Z M 47.90625 4.773438 L 47.757812 13.355469 C 48.351562 12.835938 49.125 12.511719 49.921875 12.511719 C 51.238281 12.511719 52.207031 13.679688 52.207031 15.023438 C 52.207031 17.011719 50.070312 17.957031 48.550781 19.25 C 48.179688 19.574219 47.980469 20.195312 47.457031 20.195312 C 47.132812 20.195312 46.859375 19.921875 46.859375 19.574219 L 46.8125 16.9375 C 46.140625 17.785156 45.167969 18.480469 44.375 19.25 C 44.050781 19.574219 43.902344 20.195312 43.402344 20.195312 C 43.078125 20.195312 42.832031 19.898438 42.832031 19.550781 L 42.53125 4.773438 C 42.730469 4.652344 42.980469 4.578125 43.203125 4.578125 C 43.429688 4.578125 43.675781 4.652344 43.875 4.773438 L 43.703125 13.355469 C 44.125 12.835938 44.769531 12.511719 45.441406 12.511719 C 45.941406 12.511719 46.386719 12.710938 46.734375 13.03125 L 46.5625 4.773438 C 46.761719 4.652344 47.011719 4.578125 47.234375 4.578125 C 47.457031 4.578125 47.707031 4.652344 47.90625 4.773438 Z M 43.628906 16.789062 L 43.628906 17.039062 C 43.628906 17.609375 43.652344 18.15625 43.726562 18.730469 C 44.695312 17.785156 45.492188 16.589844 45.492188 15.222656 C 45.492188 14.425781 45.34375 13.554688 44.671875 13.554688 C 44 13.554688 43.703125 14.328125 43.675781 15.097656 Z M 43.628906 16.789062 "/>
<path style=" stroke:none;fill-rule:nonzero;fill:rgb(0%,0%,0%);fill-opacity:1;" d="M 37.226562 21.339844 L 37.199219 22.980469 L 37.199219 23.253906 C 37.199219 23.804688 37.226562 24.351562 37.300781 24.898438 C 38.417969 23.953125 39.613281 22.90625 39.613281 21.441406 C 39.613281 20.621094 39.265625 19.773438 38.542969 19.773438 C 37.773438 19.773438 37.25 20.519531 37.226562 21.339844 Z M 36.179688 25.792969 L 35.882812 10.992188 C 36.082031 10.871094 36.328125 10.792969 36.554688 10.792969 C 36.777344 10.792969 37.027344 10.871094 37.226562 10.992188 L 37.050781 19.574219 C 37.671875 19.050781 38.492188 18.730469 39.3125 18.730469 C 40.609375 18.730469 41.527344 19.921875 41.527344 21.265625 C 41.527344 23.253906 39.390625 24.175781 37.871094 25.46875 C 37.5 25.792969 37.273438 26.414062 36.753906 26.414062 C 36.429688 26.414062 36.179688 26.140625 36.179688 25.792969 Z M 36.179688 25.792969 "/>
<path style=" stroke:none;fill-rule:nonzero;fill:rgb(0%,0%,0%);fill-opacity:1;" d="M 30.632812 27.558594 L 30.609375 29.199219 L 30.609375 29.472656 C 30.609375 30.019531 30.632812 30.566406 30.707031 31.117188 C 31.828125 30.171875 33.023438 29.125 33.023438 27.65625 C 33.023438 26.835938 32.671875 25.992188 31.953125 25.992188 C 31.179688 25.992188 30.660156 26.738281 30.632812 27.558594 Z M 29.589844 32.011719 L 29.289062 17.210938 C 29.488281 17.085938 29.738281 17.011719 29.960938 17.011719 C 30.1875 17.011719 30.433594 17.085938 30.632812 17.210938 L 30.460938 25.792969 C 31.082031 25.269531 31.902344 24.945312 32.722656 24.945312 C 34.015625 24.945312 34.9375 26.140625 34.9375 27.484375 C 34.9375 29.472656 32.796875 30.394531 31.28125 31.6875 C 30.90625 32.011719 30.683594 32.632812 30.160156 32.632812 C 29.835938 32.632812 29.589844 32.359375 29.589844 32.011719 Z M 29.589844 32.011719 "/>
<path style=" stroke:none;fill-rule:nonzero;fill:rgb(0%,0%,0%);fill-opacity:1;" d="M 47.90625 33.777344 L 47.878906 35.417969 L 47.878906 35.691406 C 47.878906 36.238281 47.90625 36.785156 47.980469 37.332031 C 49.097656 36.386719 50.292969 35.34375 50.292969 33.875 C 50.292969 33.054688 49.945312 32.210938 49.222656 32.210938 C 48.453125 32.210938 47.929688 32.957031 47.90625 33.777344 Z M 46.859375 38.230469 L 46.5625 23.429688 C 46.761719 23.304688 47.011719 23.230469 47.234375 23.230469 C 47.457031 23.230469 47.707031 23.304688 47.90625 23.429688 L 47.730469 32.011719 C 48.351562 31.488281 49.171875 31.164062 49.996094 31.164062 C 51.289062 31.164062 52.207031 32.359375 52.207031 33.703125 C 52.207031 35.691406 50.070312 36.613281 48.550781 37.90625 C 48.179688 38.230469 47.953125 38.851562 47.433594 38.851562 C 47.109375 38.851562 46.859375 38.578125 46.859375 38.230469 Z M 46.859375 38.230469 "/>
<path style=" stroke:none;fill-rule:nonzero;fill:rgb(0%,0%,0%);fill-opacity:1;" d="M 16.152344 59.917969 L 16.003906 59.917969 C 13.316406 59.917969 11.152344 57.730469 11.152344 55.019531 C 11.152344 53.574219 12.46875 52.457031 13.9375 52.457031 C 15.28125 52.457031 16.300781 53.625 16.300781 55.019531 C 16.300781 56.3125 15.230469 57.382812 13.9375 57.382812 C 13.664062 57.382812 13.414062 57.332031 13.167969 57.230469 C 13.8125 58.203125 14.859375 58.847656 16.078125 58.847656 L 16.175781 58.847656 Z M 21 49.171875 C 22.691406 48.574219 23.8125 46.808594 23.8125 45.09375 C 23.8125 42.855469 22.171875 40.640625 19.507812 40.367188 C 20.105469 43.253906 20.652344 46.113281 21 49.171875 Z M 11.375 43.425781 C 11.375 46.785156 14.585938 49.570312 17.941406 49.570312 C 18.640625 49.570312 19.308594 49.519531 19.980469 49.421875 C 19.632812 46.261719 19.0625 43.328125 18.414062 40.367188 C 16.449219 40.566406 15.332031 41.886719 15.332031 43.328125 C 15.332031 44.421875 15.953125 45.589844 17.34375 46.386719 C 17.46875 46.511719 17.519531 46.636719 17.519531 46.761719 C 17.519531 47.035156 17.269531 47.308594 16.972656 47.308594 C 16.898438 47.308594 16.824219 47.28125 16.75 47.257812 C 14.757812 46.1875 13.839844 44.398438 13.839844 42.65625 C 13.839844 40.46875 15.28125 38.328125 17.816406 37.757812 C 17.46875 36.3125 17.097656 34.847656 16.675781 33.402344 C 14.011719 36.414062 11.375 39.449219 11.375 43.425781 Z M 17.867188 50.640625 C 13.191406 50.640625 9.585938 46.363281 9.585938 41.339844 C 9.585938 36.9375 12.84375 33.726562 15.753906 30.371094 C 15.28125 28.828125 14.832031 27.261719 14.632812 25.644531 C 14.484375 24.351562 14.460938 23.058594 14.460938 21.761719 C 14.460938 18.902344 15.828125 16.191406 18.167969 14.5 C 18.316406 14.375 18.515625 14.375 18.664062 14.5 C 20.429688 16.589844 21.972656 20.59375 21.972656 23.40625 C 21.972656 26.960938 19.832031 29.746094 17.496094 32.457031 C 18.015625 34.148438 18.464844 35.890625 18.886719 37.605469 C 18.988281 37.605469 19.113281 37.582031 19.210938 37.582031 C 23.066406 37.582031 25.578125 40.765625 25.578125 44.074219 C 25.578125 45.964844 24.757812 47.90625 22.917969 49.296875 C 22.371094 49.71875 21.746094 49.992188 21.101562 50.191406 C 21.175781 51.0625 21.226562 51.933594 21.226562 52.804688 C 21.226562 53.277344 21.199219 53.773438 21.175781 54.246094 C 21 57.207031 18.988281 59.84375 16.152344 59.917969 L 16.175781 58.847656 C 18.488281 58.796875 19.980469 56.558594 20.132812 54.097656 C 20.15625 53.648438 20.179688 53.175781 20.179688 52.730469 C 20.179688 51.957031 20.15625 51.210938 20.082031 50.441406 C 19.359375 50.566406 18.640625 50.640625 17.867188 50.640625 Z M 20.179688 21.339844 C 20.179688 19.972656 20.082031 19.375 19.683594 18.132812 C 17.222656 19.324219 15.652344 21.839844 15.652344 24.574219 C 15.652344 26.414062 16.101562 27.882812 16.550781 29.398438 C 18.539062 26.988281 20.179688 24.472656 20.179688 21.339844 Z M 20.179688 21.339844 "/>
<path style=" stroke:none;fill-rule:nonzero;fill:rgb(0%,0%,0%);fill-opacity:1;" d="M 59.808594 12.757812 C 61.175781 12.757812 62.492188 13.457031 62.492188 14.972656 C 62.492188 16.738281 61.125 17.984375 59.957031 18.679688 C 59.085938 19.203125 58.089844 19.523438 57.070312 19.523438 C 55.703125 19.523438 54.382812 18.828125 54.382812 17.3125 C 54.382812 15.546875 55.753906 14.300781 56.921875 13.605469 C 57.792969 13.082031 58.785156 12.757812 59.808594 12.757812 Z M 59.808594 12.757812 "/>
<path style=" stroke:none;fill-rule:nonzero;fill:rgb(0%,0%,0%);fill-opacity:1;" d="M 59.808594 18.976562 C 61.175781 18.976562 62.492188 19.675781 62.492188 21.191406 C 62.492188 22.957031 61.125 24.199219 59.957031 24.898438 C 59.085938 25.417969 58.089844 25.742188 57.070312 25.742188 C 55.703125 25.742188 54.382812 25.046875 54.382812 23.527344 C 54.382812 21.761719 55.753906 20.519531 56.921875 19.824219 C 57.792969 19.300781 58.785156 18.976562 59.808594 18.976562 Z M 59.808594 18.976562 "/>
<path style=" stroke:none;fill-rule:nonzero;fill:rgb(0%,0%,0%);fill-opacity:1;" d="M 59.808594 25.195312 C 61.175781 25.195312 62.492188 25.890625 62.492188 27.410156 C 62.492188 29.175781 61.125 30.417969 59.957031 31.117188 C 59.085938 31.636719 58.089844 31.960938 57.070312 31.960938 C 55.703125 31.960938 54.382812 31.265625 54.382812 29.746094 C 54.382812 27.980469 55.753906 26.738281 56.921875 26.042969 C 57.792969 25.519531 58.785156 25.195312 59.808594 25.195312 Z M 59.808594 25.195312 "/>
<path style=" stroke:none;fill-rule:nonzero;fill:rgb(0%,0%,0%);fill-opacity:1;" d="M 59.808594 31.414062 C 61.175781 31.414062 62.492188 32.109375 62.492188 33.628906 C 62.492188 35.394531 61.125 36.636719 59.957031 37.332031 C 59.085938 37.855469 58.089844 38.179688 57.070312 38.179688 C 55.703125 38.179688 54.382812 37.484375 54.382812 35.964844 C 54.382812 34.199219 55.753906 32.957031 56.921875 32.257812 C 57.792969 31.738281 58.785156 31.414062 59.808594 31.414062 Z M 59.808594 31.414062 "/>
</g>
</svg>
