<?xml version="1.0" encoding="UTF-8"?>
<svg xmlns="http://www.w3.org/2000/svg" xmlns:xlink="http://www.w3.org/1999/xlink" width="88.470722pt" height="74.949903pt" viewBox="0 0 88.470722 74.949903" version="1.1">
<g id="surface1">
<path style="fill:none;stroke-width:0.1;stroke-linecap:round;stroke-linejoin:round;stroke:rgb(0%,0%,0%);stroke-opacity:1;stroke-miterlimit:4;" d="M 0.049863 -0.000287501 L 11.763307 -0.000287501 " transform="matrix(6.218149,0,0,6.218149,4.561038,40.517413)"/>
<path style="fill:none;stroke-width:0.1;stroke-linecap:round;stroke-linejoin:round;stroke:rgb(0%,0%,0%);stroke-opacity:1;stroke-miterlimit:4;" d="M 0.049863 0.000244052 L 11.763307 0.000244052 " transform="matrix(6.218149,0,0,6.218149,4.561038,34.299264)"/>
<path style="fill:none;stroke-width:0.1;stroke-linecap:round;stroke-linejoin:round;stroke:rgb(0%,0%,0%);stroke-opacity:1;stroke-miterlimit:4;" d="M 0.049863 0.000147403 L 11.763307 0.000147403 " transform="matrix(6.218149,0,0,6.218149,4.561038,28.081115)"/>
<path style="fill:none;stroke-width:0.1;stroke-linecap:round;stroke-linejoin:round;stroke:rgb(0%,0%,0%);stroke-opacity:1;stroke-miterlimit:4;" d="M 0.049863 0.0000507548 L 11.763307 0.0000507548 " transform="matrix(6.218149,0,0,6.218149,4.561038,21.862966)"/>
<path style="fill:none;stroke-width:0.1;stroke-linecap:round;stroke-linejoin:round;stroke:rgb(0%,0%,0%);stroke-opacity:1;stroke-miterlimit:4;" d="M 0.049863 -0.0000458938 L 11.763307 -0.0000458938 " transform="matrix(6.218149,0,0,6.218149,4.561038,15.644817)"/>
<path style=" stroke:none;fill-rule:nonzero;fill:rgb(0%,0%,0%);fill-opacity:1;" d="M 57.945312 46.113281 L 68.863281 46.113281 C 69.207031 46.113281 69.488281 46.390625 69.488281 46.734375 C 69.488281 47.078125 69.207031 47.355469 68.863281 47.355469 L 57.945312 47.355469 C 57.601562 47.355469 57.320312 47.078125 57.320312 46.734375 C 57.320312 46.390625 57.601562 46.113281 57.945312 46.113281 Z M 57.945312 46.113281 "/>
<path style=" stroke:none;fill-rule:nonzero;fill:rgb(0%,0%,0%);fill-opacity:1;" d="M 57.945312 52.332031 L 68.863281 52.332031 C 69.207031 52.332031 69.488281 52.609375 69.488281 52.953125 C 69.488281 53.296875 69.207031 53.574219 68.863281 53.574219 L 57.945312 53.574219 C 57.601562 53.574219 57.320312 53.296875 57.320312 52.953125 C 57.320312 52.609375 57.601562 52.332031 57.945312 52.332031 Z M 57.945312 52.332031 "/>
<path style=" stroke:none;fill-rule:nonzero;fill:rgb(0%,0%,0%);fill-opacity:1;" d="M 66.898438 18.753906 L 67.210938 18.753906 C 67.347656 18.753906 67.457031 18.867188 67.457031 19.003906 L 67.457031 54.65625 C 67.457031 54.792969 67.347656 54.90625 67.210938 54.90625 L 66.898438 54.90625 C 66.761719 54.90625 66.652344 54.792969 66.652344 54.65625 L 66.652344 19.003906 C 66.652344 18.867188 66.761719 18.753906 66.898438 18.753906 Z M 66.898438 18.753906 "/>
<path style=" stroke:none;fill-rule:nonzero;fill:rgb(0%,0%,0%);fill-opacity:1;" d="M 55.707031 48.277344 C 55.707031 48.527344 55.507812 48.75 55.257812 48.75 C 55.007812 48.75 54.785156 48.527344 54.785156 48.277344 L 54.785156 44.671875 L 52.71875 45.441406 L 52.71875 49.371094 C 52.71875 49.621094 52.496094 49.84375 52.246094 49.84375 C 52 49.84375 51.800781 49.621094 51.800781 49.371094 L 51.800781 45.765625 L 51.003906 46.0625 C 50.953125 46.089844 50.878906 46.089844 50.832031 46.089844 C 50.558594 46.089844 50.332031 45.863281 50.332031 45.589844 L 50.332031 44.097656 C 50.332031 43.898438 50.457031 43.699219 50.65625 43.625 L 51.800781 43.230469 L 51.800781 39.25 L 51.003906 39.523438 C 50.953125 39.546875 50.878906 39.546875 50.832031 39.546875 C 50.558594 39.546875 50.332031 39.324219 50.332031 39.050781 L 50.332031 37.558594 C 50.332031 37.359375 50.457031 37.183594 50.65625 37.109375 L 51.800781 36.6875 L 51.800781 32.757812 C 51.800781 32.507812 52 32.285156 52.246094 32.285156 C 52.496094 32.285156 52.71875 32.507812 52.71875 32.757812 L 52.71875 36.363281 L 54.785156 35.59375 L 54.785156 31.664062 C 54.785156 31.414062 55.007812 31.191406 55.257812 31.191406 C 55.507812 31.191406 55.707031 31.414062 55.707031 31.664062 L 55.707031 35.269531 L 56.5 34.972656 C 56.550781 34.945312 56.625 34.945312 56.675781 34.945312 C 56.949219 34.945312 57.171875 35.167969 57.171875 35.445312 L 57.171875 36.9375 C 57.171875 37.132812 57.046875 37.332031 56.847656 37.410156 L 55.707031 37.804688 L 55.707031 41.785156 L 56.5 41.511719 C 56.550781 41.488281 56.625 41.488281 56.675781 41.488281 C 56.949219 41.488281 57.171875 41.710938 57.171875 41.984375 L 57.171875 43.476562 C 57.171875 43.675781 57.046875 43.851562 56.847656 43.925781 L 55.707031 44.347656 Z M 52.71875 38.902344 L 52.71875 42.878906 L 54.785156 42.132812 L 54.785156 38.15625 Z M 52.71875 38.902344 "/>
<path style=" stroke:none;fill-rule:nonzero;fill:rgb(0%,0%,0%);fill-opacity:1;" d="M 42.671875 51.386719 C 42.671875 51.636719 42.472656 51.859375 42.222656 51.859375 C 41.976562 51.859375 41.75 51.636719 41.75 51.386719 L 41.75 47.78125 L 39.6875 48.550781 L 39.6875 52.480469 C 39.6875 52.730469 39.464844 52.953125 39.214844 52.953125 C 38.964844 52.953125 38.765625 52.730469 38.765625 52.480469 L 38.765625 48.875 L 37.972656 49.171875 C 37.921875 49.199219 37.847656 49.199219 37.796875 49.199219 C 37.523438 49.199219 37.300781 48.972656 37.300781 48.699219 L 37.300781 47.207031 C 37.300781 47.007812 37.425781 46.808594 37.621094 46.734375 L 38.765625 46.335938 L 38.765625 42.359375 L 37.972656 42.632812 C 37.921875 42.65625 37.847656 42.65625 37.796875 42.65625 C 37.523438 42.65625 37.300781 42.433594 37.300781 42.160156 L 37.300781 40.667969 C 37.300781 40.46875 37.425781 40.292969 37.621094 40.21875 L 38.765625 39.796875 L 38.765625 35.867188 C 38.765625 35.617188 38.964844 35.394531 39.214844 35.394531 C 39.464844 35.394531 39.6875 35.617188 39.6875 35.867188 L 39.6875 39.472656 L 41.75 38.703125 L 41.75 34.773438 C 41.75 34.523438 41.976562 34.300781 42.222656 34.300781 C 42.472656 34.300781 42.671875 34.523438 42.671875 34.773438 L 42.671875 38.378906 L 43.46875 38.078125 C 43.519531 38.054688 43.59375 38.054688 43.640625 38.054688 C 43.914062 38.054688 44.140625 38.277344 44.140625 38.550781 L 44.140625 40.042969 C 44.140625 40.242188 44.015625 40.441406 43.816406 40.515625 L 42.671875 40.914062 L 42.671875 44.894531 L 43.46875 44.621094 C 43.519531 44.597656 43.59375 44.597656 43.640625 44.597656 C 43.914062 44.597656 44.140625 44.820312 44.140625 45.09375 L 44.140625 46.585938 C 44.140625 46.785156 44.015625 46.960938 43.816406 47.035156 L 42.671875 47.457031 Z M 39.6875 42.011719 L 39.6875 45.988281 L 41.75 45.242188 L 41.75 41.261719 Z M 39.6875 42.011719 "/>
<path style=" stroke:none;fill-rule:nonzero;fill:rgb(0%,0%,0%);fill-opacity:1;" d="M 34.589844 57.605469 C 34.589844 57.855469 34.390625 58.078125 34.140625 58.078125 C 33.890625 58.078125 33.667969 57.855469 33.667969 57.605469 L 33.667969 54 L 31.605469 54.769531 L 31.605469 58.699219 C 31.605469 58.949219 31.378906 59.171875 31.132812 59.171875 C 30.882812 59.171875 30.683594 58.949219 30.683594 58.699219 L 30.683594 55.09375 L 29.886719 55.390625 C 29.835938 55.417969 29.761719 55.417969 29.714844 55.417969 C 29.441406 55.417969 29.214844 55.191406 29.214844 54.917969 L 29.214844 53.425781 C 29.214844 53.226562 29.339844 53.027344 29.539062 52.953125 L 30.683594 52.554688 L 30.683594 48.574219 L 29.886719 48.851562 C 29.835938 48.875 29.761719 48.875 29.714844 48.875 C 29.441406 48.875 29.214844 48.652344 29.214844 48.378906 L 29.214844 46.886719 C 29.214844 46.6875 29.339844 46.511719 29.539062 46.4375 L 30.683594 46.015625 L 30.683594 42.085938 C 30.683594 41.835938 30.882812 41.613281 31.132812 41.613281 C 31.378906 41.613281 31.605469 41.835938 31.605469 42.085938 L 31.605469 45.691406 L 33.667969 44.917969 L 33.667969 40.988281 C 33.667969 40.742188 33.890625 40.515625 34.140625 40.515625 C 34.390625 40.515625 34.589844 40.742188 34.589844 40.988281 L 34.589844 44.597656 L 35.382812 44.296875 C 35.433594 44.273438 35.507812 44.273438 35.558594 44.273438 C 35.832031 44.273438 36.054688 44.496094 36.054688 44.769531 L 36.054688 46.261719 C 36.054688 46.460938 35.929688 46.660156 35.734375 46.734375 L 34.589844 47.132812 L 34.589844 51.113281 L 35.382812 50.839844 C 35.433594 50.816406 35.507812 50.816406 35.558594 50.816406 C 35.832031 50.816406 36.054688 51.039062 36.054688 51.3125 L 36.054688 52.804688 C 36.054688 53.003906 35.929688 53.175781 35.734375 53.253906 L 34.589844 53.675781 Z M 31.605469 48.226562 L 31.605469 52.207031 L 33.667969 51.460938 L 33.667969 47.480469 Z M 31.605469 48.226562 "/>
<path style=" stroke:none;fill-rule:nonzero;fill:rgb(0%,0%,0%);fill-opacity:1;" d="M 49.113281 63.824219 C 49.113281 64.070312 48.914062 64.296875 48.667969 64.296875 C 48.417969 64.296875 48.195312 64.070312 48.195312 63.824219 L 48.195312 60.214844 L 46.128906 60.988281 L 46.128906 64.917969 C 46.128906 65.167969 45.90625 65.390625 45.65625 65.390625 C 45.40625 65.390625 45.210938 65.167969 45.210938 64.917969 L 45.210938 61.3125 L 44.414062 61.609375 C 44.363281 61.632812 44.289062 61.632812 44.238281 61.632812 C 43.964844 61.632812 43.742188 61.410156 43.742188 61.136719 L 43.742188 59.644531 C 43.742188 59.445312 43.867188 59.246094 44.066406 59.171875 L 45.210938 58.773438 L 45.210938 54.792969 L 44.414062 55.066406 C 44.363281 55.09375 44.289062 55.09375 44.238281 55.09375 C 43.964844 55.09375 43.742188 54.867188 43.742188 54.59375 L 43.742188 53.101562 C 43.742188 52.902344 43.867188 52.730469 44.066406 52.65625 L 45.210938 52.230469 L 45.210938 48.300781 C 45.210938 48.054688 45.40625 47.828125 45.65625 47.828125 C 45.90625 47.828125 46.128906 48.054688 46.128906 48.300781 L 46.128906 51.910156 L 48.195312 51.136719 L 48.195312 47.207031 C 48.195312 46.960938 48.417969 46.734375 48.667969 46.734375 C 48.914062 46.734375 49.113281 46.960938 49.113281 47.207031 L 49.113281 50.816406 L 49.910156 50.515625 C 49.960938 50.492188 50.035156 50.492188 50.085938 50.492188 C 50.359375 50.492188 50.582031 50.714844 50.582031 50.988281 L 50.582031 52.480469 C 50.582031 52.679688 50.457031 52.878906 50.257812 52.953125 L 49.113281 53.351562 L 49.113281 57.332031 L 49.910156 57.058594 C 49.960938 57.03125 50.035156 57.03125 50.085938 57.03125 C 50.359375 57.03125 50.582031 57.257812 50.582031 57.53125 L 50.582031 59.023438 C 50.582031 59.222656 50.457031 59.394531 50.257812 59.46875 L 49.113281 59.894531 Z M 46.128906 54.445312 L 46.128906 58.425781 L 48.195312 57.679688 L 48.195312 53.699219 Z M 46.128906 54.445312 "/>
<path style=" stroke:none;fill-rule:nonzero;fill:rgb(0%,0%,0%);fill-opacity:1;" d="M 16.152344 50.09375 L 16.003906 50.09375 C 13.316406 50.09375 11.152344 47.90625 11.152344 45.195312 C 11.152344 43.75 12.46875 42.632812 13.9375 42.632812 C 15.28125 42.632812 16.300781 43.800781 16.300781 45.195312 C 16.300781 46.488281 15.230469 47.554688 13.9375 47.554688 C 13.664062 47.554688 13.414062 47.507812 13.167969 47.40625 C 13.8125 48.378906 14.859375 49.023438 16.078125 49.023438 L 16.175781 49.023438 Z M 21 39.347656 C 22.691406 38.75 23.8125 36.984375 23.8125 35.269531 C 23.8125 33.03125 22.171875 30.816406 19.507812 30.542969 C 20.105469 33.429688 20.652344 36.289062 21 39.347656 Z M 11.375 33.601562 C 11.375 36.960938 14.585938 39.746094 17.941406 39.746094 C 18.640625 39.746094 19.308594 39.695312 19.980469 39.597656 C 19.632812 36.4375 19.0625 33.503906 18.414062 30.542969 C 16.449219 30.742188 15.332031 32.0625 15.332031 33.503906 C 15.332031 34.597656 15.953125 35.765625 17.34375 36.5625 C 17.46875 36.6875 17.519531 36.8125 17.519531 36.9375 C 17.519531 37.210938 17.269531 37.484375 16.972656 37.484375 C 16.898438 37.484375 16.824219 37.457031 16.75 37.433594 C 14.757812 36.363281 13.839844 34.574219 13.839844 32.832031 C 13.839844 30.644531 15.28125 28.503906 17.816406 27.933594 C 17.46875 26.488281 17.097656 25.023438 16.675781 23.578125 C 14.011719 26.589844 11.375 29.625 11.375 33.601562 Z M 17.867188 40.816406 C 13.191406 40.816406 9.585938 36.539062 9.585938 31.511719 C 9.585938 27.109375 12.84375 23.902344 15.753906 20.542969 C 15.28125 19.003906 14.832031 17.4375 14.632812 15.820312 C 14.484375 14.527344 14.460938 13.230469 14.460938 11.9375 C 14.460938 9.078125 15.828125 6.367188 18.167969 4.675781 C 18.316406 4.550781 18.515625 4.550781 18.664062 4.675781 C 20.429688 6.765625 21.972656 10.769531 21.972656 13.582031 C 21.972656 17.136719 19.832031 19.921875 17.496094 22.632812 C 18.015625 24.324219 18.464844 26.066406 18.886719 27.78125 C 18.988281 27.78125 19.113281 27.757812 19.210938 27.757812 C 23.066406 27.757812 25.578125 30.941406 25.578125 34.25 C 25.578125 36.140625 24.757812 38.078125 22.917969 39.472656 C 22.371094 39.894531 21.746094 40.167969 21.101562 40.367188 C 21.175781 41.238281 21.226562 42.109375 21.226562 42.980469 C 21.226562 43.453125 21.199219 43.949219 21.175781 44.421875 C 21 47.382812 18.988281 50.019531 16.152344 50.09375 L 16.175781 49.023438 C 18.488281 48.972656 19.980469 46.734375 20.132812 44.273438 C 20.15625 43.824219 20.179688 43.351562 20.179688 42.90625 C 20.179688 42.132812 20.15625 41.386719 20.082031 40.617188 C 19.359375 40.742188 18.640625 40.816406 17.867188 40.816406 Z M 20.179688 11.515625 C 20.179688 10.148438 20.082031 9.550781 19.683594 8.308594 C 17.222656 9.5 15.652344 12.011719 15.652344 14.75 C 15.652344 16.589844 16.101562 18.058594 16.550781 19.574219 C 18.539062 17.160156 20.179688 14.648438 20.179688 11.515625 Z M 20.179688 11.515625 "/>
<path style=" stroke:none;fill-rule:nonzero;fill:rgb(0%,0%,0%);fill-opacity:1;" d="M 72.476562 37.132812 C 73.84375 37.132812 75.164062 37.832031 75.164062 39.347656 C 75.164062 41.113281 73.796875 42.359375 72.625 43.054688 C 71.753906 43.578125 70.761719 43.898438 69.742188 43.898438 C 68.371094 43.898438 67.054688 43.203125 67.054688 41.6875 C 67.054688 39.921875 68.421875 38.675781 69.589844 37.980469 C 70.460938 37.457031 71.457031 37.132812 72.476562 37.132812 Z M 72.476562 37.132812 "/>
<path style=" stroke:none;fill-rule:nonzero;fill:rgb(0%,0%,0%);fill-opacity:1;" d="M 64.769531 40.242188 C 66.140625 40.242188 67.457031 40.941406 67.457031 42.457031 C 67.457031 44.222656 66.089844 45.46875 64.921875 46.164062 C 64.050781 46.6875 63.054688 47.007812 62.035156 47.007812 C 60.667969 47.007812 59.347656 46.3125 59.347656 44.796875 C 59.347656 43.03125 60.71875 41.785156 61.886719 41.089844 C 62.757812 40.566406 63.75 40.242188 64.769531 40.242188 Z M 64.769531 40.242188 "/>
<path style=" stroke:none;fill-rule:nonzero;fill:rgb(0%,0%,0%);fill-opacity:1;" d="M 64.769531 46.460938 C 66.140625 46.460938 67.457031 47.160156 67.457031 48.675781 C 67.457031 50.441406 66.089844 51.683594 64.921875 52.382812 C 64.050781 52.902344 63.054688 53.226562 62.035156 53.226562 C 60.667969 53.226562 59.347656 52.53125 59.347656 51.011719 C 59.347656 49.246094 60.71875 48.003906 61.886719 47.308594 C 62.757812 46.785156 63.75 46.460938 64.769531 46.460938 Z M 64.769531 46.460938 "/>
<path style=" stroke:none;fill-rule:nonzero;fill:rgb(0%,0%,0%);fill-opacity:1;" d="M 64.769531 52.679688 C 66.140625 52.679688 67.457031 53.375 67.457031 54.894531 C 67.457031 56.660156 66.089844 57.902344 64.921875 58.601562 C 64.050781 59.121094 63.054688 59.445312 62.035156 59.445312 C 60.667969 59.445312 59.347656 58.75 59.347656 57.230469 C 59.347656 55.464844 60.71875 54.222656 61.886719 53.527344 C 62.757812 53.003906 63.75 52.679688 64.769531 52.679688 Z M 64.769531 52.679688 "/>
</g>
</svg>
