<?xml version="1.0" encoding="UTF-8"?>
<svg xmlns="http://www.w3.org/2000/svg" xmlns:xlink="http://www.w3.org/1999/xlink" width="71.639142pt" height="80.004293pt" viewBox="0 0 71.639142 80.004293" version="1.1">
<g id="surface1">
<path style="fill:none;stroke-width:0.1;stroke-linecap:round;stroke-linejoin:round;stroke:rgb(0%,0%,0%);stroke-opacity:1;stroke-miterlimit:4;" d="M 0.049863 -0.000105215 L 9.229142 -0.000105215 " transform="matrix(6.218149,0,0,6.218149,4.561038,60.539717)"/>
<path style="fill:none;stroke-width:0.1;stroke-linecap:round;stroke-linejoin:round;stroke:rgb(0%,0%,0%);stroke-opacity:1;stroke-miterlimit:4;" d="M 0.049863 -0.000201864 L 9.229142 -0.000201864 " transform="matrix(6.218149,0,0,6.218149,4.561038,54.321568)"/>
<path style="fill:none;stroke-width:0.1;stroke-linecap:round;stroke-linejoin:round;stroke:rgb(0%,0%,0%);stroke-opacity:1;stroke-miterlimit:4;" d="M 0.049863 -0.000298513 L 9.229142 -0.000298513 " transform="matrix(6.218149,0,0,6.218149,4.561038,48.103419)"/>
<path style="fill:none;stroke-width:0.1;stroke-linecap:round;stroke-linejoin:round;stroke:rgb(0%,0%,0%);stroke-opacity:1;stroke-miterlimit:4;" d="M 0.049863 0.00023304 L 9.229142 0.00023304 " transform="matrix(6.218149,0,0,6.218149,4.561038,41.88527)"/>
<path style="fill:none;stroke-width:0.1;stroke-linecap:round;stroke-linejoin:round;stroke:rgb(0%,0%,0%);stroke-opacity:1;stroke-miterlimit:4;" d="M 0.049863 0.000136391 L 9.229142 0.000136391 " transform="matrix(6.218149,0,0,6.218149,4.561038,35.667121)"/>
<path style=" stroke:none;fill-rule:nonzero;fill:rgb(0%,0%,0%);fill-opacity:1;" d="M 43.125 16.390625 L 53.105469 16.390625 C 53.449219 16.390625 53.730469 16.667969 53.730469 17.011719 C 53.730469 17.355469 53.449219 17.632812 53.105469 17.632812 L 43.125 17.632812 C 42.78125 17.632812 42.503906 17.355469 42.503906 17.011719 C 42.503906 16.667969 42.78125 16.390625 43.125 16.390625 Z M 43.125 16.390625 "/>
<path style=" stroke:none;fill-rule:nonzero;fill:rgb(0%,0%,0%);fill-opacity:1;" d="M 42.1875 22.609375 L 53.105469 22.609375 C 53.449219 22.609375 53.730469 22.886719 53.730469 23.230469 C 53.730469 23.574219 53.449219 23.851562 53.105469 23.851562 L 42.1875 23.851562 C 41.84375 23.851562 41.5625 23.574219 41.5625 23.230469 C 41.5625 22.886719 41.84375 22.609375 42.1875 22.609375 Z M 42.1875 22.609375 "/>
<path style=" stroke:none;fill-rule:nonzero;fill:rgb(0%,0%,0%);fill-opacity:1;" d="M 42.1875 28.828125 L 53.105469 28.828125 C 53.449219 28.828125 53.730469 29.105469 53.730469 29.449219 C 53.730469 29.792969 53.449219 30.070312 53.105469 30.070312 L 42.1875 30.070312 C 41.84375 30.070312 41.5625 29.792969 41.5625 29.449219 C 41.5625 29.105469 41.84375 28.828125 42.1875 28.828125 Z M 42.1875 28.828125 "/>
<path style=" stroke:none;fill-rule:nonzero;fill:rgb(0%,0%,0%);fill-opacity:1;" d="M 43.839844 15.0625 L 44.152344 15.0625 C 44.289062 15.0625 44.398438 15.171875 44.398438 15.308594 L 44.398438 47.855469 C 44.398438 47.992188 44.289062 48.101562 44.152344 48.101562 L 43.839844 48.101562 C 43.703125 48.101562 43.589844 47.992188 43.589844 47.855469 L 43.589844 15.308594 C 43.589844 15.171875 43.703125 15.0625 43.839844 15.0625 Z M 43.839844 15.0625 "/>
<path style=" stroke:none;fill-rule:nonzero;fill:rgb(0%,0%,0%);fill-opacity:1;" d="M 39.949219 21.664062 C 39.949219 21.914062 39.75 22.136719 39.5 22.136719 C 39.25 22.136719 39.027344 21.914062 39.027344 21.664062 L 39.027344 18.058594 L 36.960938 18.828125 L 36.960938 22.757812 C 36.960938 23.007812 36.738281 23.230469 36.488281 23.230469 C 36.242188 23.230469 36.042969 23.007812 36.042969 22.757812 L 36.042969 19.152344 L 35.246094 19.449219 C 35.195312 19.476562 35.121094 19.476562 35.070312 19.476562 C 34.796875 19.476562 34.574219 19.25 34.574219 18.976562 L 34.574219 17.484375 C 34.574219 17.285156 34.699219 17.085938 34.898438 17.011719 L 36.042969 16.613281 L 36.042969 12.636719 L 35.246094 12.910156 C 35.195312 12.933594 35.121094 12.933594 35.070312 12.933594 C 34.796875 12.933594 34.574219 12.710938 34.574219 12.4375 L 34.574219 10.945312 C 34.574219 10.746094 34.699219 10.570312 34.898438 10.496094 L 36.042969 10.074219 L 36.042969 6.144531 C 36.042969 5.894531 36.242188 5.671875 36.488281 5.671875 C 36.738281 5.671875 36.960938 5.894531 36.960938 6.144531 L 36.960938 9.75 L 39.027344 8.980469 L 39.027344 5.050781 C 39.027344 4.800781 39.25 4.578125 39.5 4.578125 C 39.75 4.578125 39.949219 4.800781 39.949219 5.050781 L 39.949219 8.65625 L 40.742188 8.355469 C 40.792969 8.332031 40.867188 8.332031 40.917969 8.332031 C 41.191406 8.332031 41.414062 8.554688 41.414062 8.828125 L 41.414062 10.320312 C 41.414062 10.519531 41.289062 10.71875 41.089844 10.792969 L 39.949219 11.191406 L 39.949219 15.171875 L 40.742188 14.898438 C 40.792969 14.875 40.867188 14.875 40.917969 14.875 C 41.191406 14.875 41.414062 15.097656 41.414062 15.371094 L 41.414062 16.863281 C 41.414062 17.0625 41.289062 17.238281 41.089844 17.3125 L 39.949219 17.734375 Z M 36.960938 12.285156 L 36.960938 16.265625 L 39.027344 15.519531 L 39.027344 11.539062 Z M 36.960938 12.285156 "/>
<path style=" stroke:none;fill-rule:nonzero;fill:rgb(0%,0%,0%);fill-opacity:1;" d="M 30.632812 25.320312 L 30.609375 26.960938 L 30.609375 27.234375 C 30.609375 27.78125 30.632812 28.328125 30.707031 28.875 C 31.828125 27.933594 33.023438 26.886719 33.023438 25.417969 C 33.023438 24.597656 32.671875 23.753906 31.953125 23.753906 C 31.179688 23.753906 30.660156 24.5 30.632812 25.320312 Z M 29.589844 29.773438 L 29.289062 14.972656 C 29.488281 14.847656 29.738281 14.773438 29.960938 14.773438 C 30.1875 14.773438 30.433594 14.847656 30.632812 14.972656 L 30.460938 23.554688 C 31.082031 23.03125 31.902344 22.707031 32.722656 22.707031 C 34.015625 22.707031 34.9375 23.902344 34.9375 25.246094 C 34.9375 27.234375 32.796875 28.15625 31.28125 29.449219 C 30.90625 29.773438 30.683594 30.394531 30.160156 30.394531 C 29.835938 30.394531 29.589844 30.121094 29.589844 29.773438 Z M 29.589844 29.773438 "/>
<path style=" stroke:none;fill-rule:nonzero;fill:rgb(0%,0%,0%);fill-opacity:1;" d="M 16.152344 70.117188 L 16.003906 70.117188 C 13.316406 70.117188 11.152344 67.925781 11.152344 65.214844 C 11.152344 63.773438 12.46875 62.652344 13.9375 62.652344 C 15.28125 62.652344 16.300781 63.824219 16.300781 65.214844 C 16.300781 66.507812 15.230469 67.578125 13.9375 67.578125 C 13.664062 67.578125 13.414062 67.527344 13.167969 67.429688 C 13.8125 68.398438 14.859375 69.046875 16.078125 69.046875 L 16.175781 69.046875 Z M 21 59.371094 C 22.691406 58.773438 23.8125 57.007812 23.8125 55.292969 C 23.8125 53.054688 22.171875 50.839844 19.507812 50.566406 C 20.105469 53.449219 20.652344 56.3125 21 59.371094 Z M 11.375 53.625 C 11.375 56.984375 14.585938 59.769531 17.941406 59.769531 C 18.640625 59.769531 19.308594 59.71875 19.980469 59.621094 C 19.632812 56.460938 19.0625 53.527344 18.414062 50.566406 C 16.449219 50.765625 15.332031 52.082031 15.332031 53.527344 C 15.332031 54.621094 15.953125 55.789062 17.34375 56.585938 C 17.46875 56.710938 17.519531 56.832031 17.519531 56.957031 C 17.519531 57.230469 17.269531 57.503906 16.972656 57.503906 C 16.898438 57.503906 16.824219 57.480469 16.75 57.457031 C 14.757812 56.386719 13.839844 54.59375 13.839844 52.855469 C 13.839844 50.664062 15.28125 48.527344 17.816406 47.953125 C 17.46875 46.511719 17.097656 45.042969 16.675781 43.601562 C 14.011719 46.609375 11.375 49.644531 11.375 53.625 Z M 17.867188 60.839844 C 13.191406 60.839844 9.585938 56.558594 9.585938 51.535156 C 9.585938 47.132812 12.84375 43.925781 15.753906 40.566406 C 15.28125 39.023438 14.832031 37.457031 14.632812 35.839844 C 14.484375 34.546875 14.460938 33.253906 14.460938 31.960938 C 14.460938 29.101562 15.828125 26.390625 18.167969 24.699219 C 18.316406 24.574219 18.515625 24.574219 18.664062 24.699219 C 20.429688 26.789062 21.972656 30.792969 21.972656 33.601562 C 21.972656 37.160156 19.832031 39.945312 17.496094 42.65625 C 18.015625 44.347656 18.464844 46.089844 18.886719 47.804688 C 18.988281 47.804688 19.113281 47.78125 19.210938 47.78125 C 23.066406 47.78125 25.578125 50.964844 25.578125 54.273438 C 25.578125 56.164062 24.757812 58.101562 22.917969 59.496094 C 22.371094 59.917969 21.746094 60.191406 21.101562 60.390625 C 21.175781 61.261719 21.226562 62.132812 21.226562 63.003906 C 21.226562 63.476562 21.199219 63.972656 21.175781 64.445312 C 21 67.40625 18.988281 70.042969 16.152344 70.117188 L 16.175781 69.046875 C 18.488281 68.996094 19.980469 66.757812 20.132812 64.296875 C 20.15625 63.847656 20.179688 63.375 20.179688 62.925781 C 20.179688 62.15625 20.15625 61.410156 20.082031 60.640625 C 19.359375 60.761719 18.640625 60.839844 17.867188 60.839844 Z M 20.179688 31.539062 C 20.179688 30.171875 20.082031 29.574219 19.683594 28.328125 C 17.222656 29.523438 15.652344 32.035156 15.652344 34.773438 C 15.652344 36.613281 16.101562 38.078125 16.550781 39.597656 C 18.539062 37.183594 20.179688 34.671875 20.179688 31.539062 Z M 20.179688 31.539062 "/>
<path style=" stroke:none;fill-rule:nonzero;fill:rgb(0%,0%,0%);fill-opacity:1;" d="M 49.011719 10.519531 C 50.382812 10.519531 51.699219 11.21875 51.699219 12.734375 C 51.699219 14.5 50.332031 15.746094 49.164062 16.441406 C 48.292969 16.964844 47.296875 17.285156 46.277344 17.285156 C 44.910156 17.285156 43.589844 16.589844 43.589844 15.074219 C 43.589844 13.308594 44.960938 12.0625 46.128906 11.367188 C 47 10.84375 47.992188 10.519531 49.011719 10.519531 Z M 49.011719 10.519531 "/>
<path style=" stroke:none;fill-rule:nonzero;fill:rgb(0%,0%,0%);fill-opacity:1;" d="M 49.011719 16.738281 C 50.382812 16.738281 51.699219 17.433594 51.699219 18.953125 C 51.699219 20.71875 50.332031 21.960938 49.164062 22.660156 C 48.292969 23.179688 47.296875 23.503906 46.277344 23.503906 C 44.910156 23.503906 43.589844 22.808594 43.589844 21.289062 C 43.589844 19.523438 44.960938 18.28125 46.128906 17.585938 C 47 17.0625 47.992188 16.738281 49.011719 16.738281 Z M 49.011719 16.738281 "/>
<path style=" stroke:none;fill-rule:nonzero;fill:rgb(0%,0%,0%);fill-opacity:1;" d="M 49.011719 22.957031 C 50.382812 22.957031 51.699219 23.652344 51.699219 25.171875 C 51.699219 26.9375 50.332031 28.179688 49.164062 28.875 C 48.292969 29.398438 47.296875 29.722656 46.277344 29.722656 C 44.910156 29.722656 43.589844 29.027344 43.589844 27.507812 C 43.589844 25.742188 44.960938 24.5 46.128906 23.804688 C 47 23.28125 47.992188 22.957031 49.011719 22.957031 Z M 49.011719 22.957031 "/>
</g>
</svg>
