<?xml version="1.0" encoding="UTF-8"?>
<svg xmlns="http://www.w3.org/2000/svg" xmlns:xlink="http://www.w3.org/1999/xlink" width="68.472344pt" height="69.111784pt" viewBox="0 0 68.472344 69.111784" version="1.1">
<g id="surface1">
<path style="fill:none;stroke-width:0.1;stroke-linecap:round;stroke-linejoin:round;stroke:rgb(0%,0%,0%);stroke-opacity:1;stroke-miterlimit:4;" d="M 0.049863 0.000289441 L 8.752337 0.000289441 " transform="matrix(6.218149,0,0,6.218149,4.561038,50.34195)"/>
<path style="fill:none;stroke-width:0.1;stroke-linecap:round;stroke-linejoin:round;stroke:rgb(0%,0%,0%);stroke-opacity:1;stroke-miterlimit:4;" d="M 0.049863 0.000192316 L 8.752337 0.000192316 " transform="matrix(6.218149,0,0,6.218149,4.561038,44.123804)"/>
<path style="fill:none;stroke-width:0.1;stroke-linecap:round;stroke-linejoin:round;stroke:rgb(0%,0%,0%);stroke-opacity:1;stroke-miterlimit:4;" d="M 0.049863 0.0000956673 L 8.752337 0.0000956673 " transform="matrix(6.218149,0,0,6.218149,4.561038,37.905655)"/>
<path style="fill:none;stroke-width:0.1;stroke-linecap:round;stroke-linejoin:round;stroke:rgb(0%,0%,0%);stroke-opacity:1;stroke-miterlimit:4;" d="M 0.049863 -0.000000981293 L 8.752337 -0.000000981293 " transform="matrix(6.218149,0,0,6.218149,4.561038,31.687506)"/>
<path style="fill:none;stroke-width:0.1;stroke-linecap:round;stroke-linejoin:round;stroke:rgb(0%,0%,0%);stroke-opacity:1;stroke-miterlimit:4;" d="M 0.049863 -0.0000976299 L 8.752337 -0.0000976299 " transform="matrix(6.218149,0,0,6.218149,4.561038,25.469357)"/>
<path style=" stroke:none;fill-rule:nonzero;fill:rgb(0%,0%,0%);fill-opacity:1;" d="M 39.21875 12.410156 L 50.140625 12.410156 C 50.484375 12.410156 50.761719 12.691406 50.761719 13.03125 C 50.761719 13.375 50.484375 13.65625 50.140625 13.65625 L 39.21875 13.65625 C 38.878906 13.65625 38.597656 13.375 38.597656 13.03125 C 38.597656 12.691406 38.878906 12.410156 39.21875 12.410156 Z M 39.21875 12.410156 "/>
<path style=" stroke:none;fill-rule:nonzero;fill:rgb(0%,0%,0%);fill-opacity:1;" d="M 39.21875 18.628906 L 50.140625 18.628906 C 50.484375 18.628906 50.761719 18.90625 50.761719 19.25 C 50.761719 19.59375 50.484375 19.871094 50.140625 19.871094 L 39.21875 19.871094 C 38.878906 19.871094 38.597656 19.59375 38.597656 19.25 C 38.597656 18.90625 38.878906 18.628906 39.21875 18.628906 Z M 39.21875 18.628906 "/>
<path style=" stroke:none;fill-rule:nonzero;fill:rgb(0%,0%,0%);fill-opacity:1;" d="M 34.148438 15.121094 L 34.121094 16.765625 L 34.121094 17.039062 C 34.121094 17.585938 34.148438 18.132812 34.222656 18.679688 C 35.339844 17.734375 36.535156 16.6875 36.535156 15.222656 C 36.535156 14.402344 36.1875 13.554688 35.464844 13.554688 C 34.695312 13.554688 34.171875 14.300781 34.148438 15.121094 Z M 33.101562 19.574219 L 32.804688 4.773438 C 33.003906 4.652344 33.25 4.578125 33.476562 4.578125 C 33.699219 4.578125 33.949219 4.652344 34.148438 4.773438 L 33.972656 13.355469 C 34.59375 12.835938 35.414062 12.511719 36.234375 12.511719 C 37.53125 12.511719 38.449219 13.703125 38.449219 15.046875 C 38.449219 17.039062 36.3125 17.957031 34.792969 19.25 C 34.421875 19.574219 34.195312 20.195312 33.675781 20.195312 C 33.351562 20.195312 33.101562 19.921875 33.101562 19.574219 Z M 33.101562 19.574219 "/>
<path style=" stroke:none;fill-rule:nonzero;fill:rgb(0%,0%,0%);fill-opacity:1;" d="M 30.664062 27.558594 L 30.640625 29.199219 L 30.640625 29.472656 C 30.640625 30.019531 30.664062 30.566406 30.738281 31.117188 C 31.859375 30.171875 33.050781 29.125 33.050781 27.65625 C 33.050781 26.835938 32.703125 25.992188 31.984375 25.992188 C 31.210938 25.992188 30.691406 26.738281 30.664062 27.558594 Z M 29.621094 32.011719 L 29.320312 17.210938 C 29.519531 17.085938 29.769531 17.011719 29.992188 17.011719 C 30.21875 17.011719 30.464844 17.085938 30.664062 17.210938 L 30.492188 25.792969 C 31.113281 25.269531 31.933594 24.945312 32.753906 24.945312 C 34.046875 24.945312 34.96875 26.140625 34.96875 27.484375 C 34.96875 29.472656 32.828125 30.394531 31.3125 31.6875 C 30.9375 32.011719 30.714844 32.632812 30.191406 32.632812 C 29.867188 32.632812 29.621094 32.359375 29.621094 32.011719 Z M 29.621094 32.011719 "/>
<path style=" stroke:none;fill-rule:nonzero;fill:rgb(0%,0%,0%);fill-opacity:1;" d="M 40.875 11.082031 L 41.1875 11.082031 C 41.324219 11.082031 41.433594 11.191406 41.433594 11.328125 L 41.433594 50.09375 C 41.433594 50.230469 41.324219 50.34375 41.1875 50.34375 L 40.875 50.34375 C 40.738281 50.34375 40.625 50.230469 40.625 50.09375 L 40.625 11.328125 C 40.625 11.191406 40.738281 11.082031 40.875 11.082031 Z M 40.875 11.082031 "/>
<path style=" stroke:none;fill-rule:nonzero;fill:rgb(0%,0%,0%);fill-opacity:1;" d="M 16.152344 59.917969 L 16.003906 59.917969 C 13.316406 59.917969 11.152344 57.730469 11.152344 55.019531 C 11.152344 53.574219 12.46875 52.457031 13.9375 52.457031 C 15.28125 52.457031 16.300781 53.625 16.300781 55.019531 C 16.300781 56.3125 15.230469 57.382812 13.9375 57.382812 C 13.664062 57.382812 13.414062 57.332031 13.167969 57.230469 C 13.8125 58.203125 14.859375 58.847656 16.078125 58.847656 L 16.175781 58.847656 Z M 21 49.171875 C 22.691406 48.574219 23.8125 46.808594 23.8125 45.09375 C 23.8125 42.855469 22.171875 40.640625 19.507812 40.367188 C 20.105469 43.253906 20.652344 46.113281 21 49.171875 Z M 11.375 43.425781 C 11.375 46.785156 14.585938 49.570312 17.941406 49.570312 C 18.640625 49.570312 19.308594 49.519531 19.980469 49.421875 C 19.632812 46.261719 19.0625 43.328125 18.414062 40.367188 C 16.449219 40.566406 15.332031 41.886719 15.332031 43.328125 C 15.332031 44.421875 15.953125 45.589844 17.34375 46.386719 C 17.46875 46.511719 17.519531 46.636719 17.519531 46.761719 C 17.519531 47.035156 17.269531 47.308594 16.972656 47.308594 C 16.898438 47.308594 16.824219 47.28125 16.75 47.257812 C 14.757812 46.1875 13.839844 44.398438 13.839844 42.65625 C 13.839844 40.46875 15.28125 38.328125 17.816406 37.757812 C 17.46875 36.3125 17.097656 34.847656 16.675781 33.402344 C 14.011719 36.414062 11.375 39.449219 11.375 43.425781 Z M 17.867188 50.640625 C 13.191406 50.640625 9.585938 46.363281 9.585938 41.339844 C 9.585938 36.9375 12.84375 33.726562 15.753906 30.371094 C 15.28125 28.828125 14.832031 27.261719 14.632812 25.644531 C 14.484375 24.351562 14.460938 23.058594 14.460938 21.761719 C 14.460938 18.902344 15.828125 16.191406 18.167969 14.5 C 18.316406 14.375 18.515625 14.375 18.664062 14.5 C 20.429688 16.589844 21.972656 20.59375 21.972656 23.40625 C 21.972656 26.960938 19.832031 29.746094 17.496094 32.457031 C 18.015625 34.148438 18.464844 35.890625 18.886719 37.605469 C 18.988281 37.605469 19.113281 37.582031 19.210938 37.582031 C 23.066406 37.582031 25.578125 40.765625 25.578125 44.074219 C 25.578125 45.964844 24.757812 47.90625 22.917969 49.296875 C 22.371094 49.71875 21.746094 49.992188 21.101562 50.191406 C 21.175781 51.0625 21.226562 51.933594 21.226562 52.804688 C 21.226562 53.277344 21.199219 53.773438 21.175781 54.246094 C 21 57.207031 18.988281 59.84375 16.152344 59.917969 L 16.175781 58.847656 C 18.488281 58.796875 19.980469 56.558594 20.132812 54.097656 C 20.15625 53.648438 20.179688 53.175781 20.179688 52.730469 C 20.179688 51.957031 20.15625 51.210938 20.082031 50.441406 C 19.359375 50.566406 18.640625 50.640625 17.867188 50.640625 Z M 20.179688 21.339844 C 20.179688 19.972656 20.082031 19.375 19.683594 18.132812 C 17.222656 19.324219 15.652344 21.839844 15.652344 24.574219 C 15.652344 26.414062 16.101562 27.882812 16.550781 29.398438 C 18.539062 26.988281 20.179688 24.472656 20.179688 21.339844 Z M 20.179688 21.339844 "/>
<path style=" stroke:none;fill-rule:nonzero;fill:rgb(0%,0%,0%);fill-opacity:1;" d="M 46.046875 6.542969 C 47.417969 6.542969 48.734375 7.238281 48.734375 8.753906 C 48.734375 10.519531 47.367188 11.765625 46.199219 12.460938 C 45.328125 12.984375 44.332031 13.308594 43.3125 13.308594 C 41.945312 13.308594 40.625 12.609375 40.625 11.09375 C 40.625 9.328125 41.996094 8.082031 43.164062 7.386719 C 44.035156 6.863281 45.027344 6.542969 46.046875 6.542969 Z M 46.046875 6.542969 "/>
<path style=" stroke:none;fill-rule:nonzero;fill:rgb(0%,0%,0%);fill-opacity:1;" d="M 46.046875 12.757812 C 47.417969 12.757812 48.734375 13.457031 48.734375 14.972656 C 48.734375 16.738281 47.367188 17.984375 46.199219 18.679688 C 45.328125 19.203125 44.332031 19.523438 43.3125 19.523438 C 41.945312 19.523438 40.625 18.828125 40.625 17.3125 C 40.625 15.546875 41.996094 14.300781 43.164062 13.605469 C 44.035156 13.082031 45.027344 12.757812 46.046875 12.757812 Z M 46.046875 12.757812 "/>
<path style=" stroke:none;fill-rule:nonzero;fill:rgb(0%,0%,0%);fill-opacity:1;" d="M 46.046875 18.976562 C 47.417969 18.976562 48.734375 19.675781 48.734375 21.191406 C 48.734375 22.957031 47.367188 24.199219 46.199219 24.898438 C 45.328125 25.417969 44.332031 25.742188 43.3125 25.742188 C 41.945312 25.742188 40.625 25.046875 40.625 23.527344 C 40.625 21.761719 41.996094 20.519531 43.164062 19.824219 C 44.035156 19.300781 45.027344 18.976562 46.046875 18.976562 Z M 46.046875 18.976562 "/>
<path style=" stroke:none;fill-rule:nonzero;fill:rgb(0%,0%,0%);fill-opacity:1;" d="M 46.046875 25.195312 C 47.417969 25.195312 48.734375 25.890625 48.734375 27.410156 C 48.734375 29.175781 47.367188 30.417969 46.199219 31.117188 C 45.328125 31.636719 44.332031 31.960938 43.3125 31.960938 C 41.945312 31.960938 40.625 31.265625 40.625 29.746094 C 40.625 27.980469 41.996094 26.738281 43.164062 26.042969 C 44.035156 25.519531 45.027344 25.195312 46.046875 25.195312 Z M 46.046875 25.195312 "/>
</g>
</svg>
