<?xml version="1.0" encoding="UTF-8"?>
<svg xmlns="http://www.w3.org/2000/svg" xmlns:xlink="http://www.w3.org/1999/xlink" width="86.4762pt" height="68.30813pt" viewBox="0 0 86.4762 68.30813" version="1.1">
<g id="surface1">
<path style="fill:none;stroke-width:0.1;stroke-linecap:round;stroke-linejoin:round;stroke:rgb(0%,0%,0%);stroke-opacity:1;stroke-miterlimit:4;" d="M 0.049863 -0.000287501 L 11.463026 -0.000287501 " transform="matrix(6.218149,0,0,6.218149,4.561038,40.517413)"/>
<path style="fill:none;stroke-width:0.1;stroke-linecap:round;stroke-linejoin:round;stroke:rgb(0%,0%,0%);stroke-opacity:1;stroke-miterlimit:4;" d="M 0.049863 0.000244052 L 11.463026 0.000244052 " transform="matrix(6.218149,0,0,6.218149,4.561038,34.299264)"/>
<path style="fill:none;stroke-width:0.1;stroke-linecap:round;stroke-linejoin:round;stroke:rgb(0%,0%,0%);stroke-opacity:1;stroke-miterlimit:4;" d="M 0.049863 0.000147403 L 11.463026 0.000147403 " transform="matrix(6.218149,0,0,6.218149,4.561038,28.081115)"/>
<path style="fill:none;stroke-width:0.1;stroke-linecap:round;stroke-linejoin:round;stroke:rgb(0%,0%,0%);stroke-opacity:1;stroke-miterlimit:4;" d="M 0.049863 0.0000507548 L 11.463026 0.0000507548 " transform="matrix(6.218149,0,0,6.218149,4.561038,21.862966)"/>
<path style="fill:none;stroke-width:0.1;stroke-linecap:round;stroke-linejoin:round;stroke:rgb(0%,0%,0%);stroke-opacity:1;stroke-miterlimit:4;" d="M 0.049863 -0.0000458938 L 11.463026 -0.0000458938 " transform="matrix(6.218149,0,0,6.218149,4.561038,15.644817)"/>
<path style=" stroke:none;fill-rule:nonzero;fill:rgb(0%,0%,0%);fill-opacity:1;" d="M 56.078125 46.113281 L 66.996094 46.113281 C 67.339844 46.113281 67.621094 46.390625 67.621094 46.734375 C 67.621094 47.078125 67.339844 47.355469 66.996094 47.355469 L 56.078125 47.355469 C 55.734375 47.355469 55.453125 47.078125 55.453125 46.734375 C 55.453125 46.390625 55.734375 46.113281 56.078125 46.113281 Z M 56.078125 46.113281 "/>
<path style=" stroke:none;fill-rule:nonzero;fill:rgb(0%,0%,0%);fill-opacity:1;" d="M 65.03125 9.425781 L 65.34375 9.425781 C 65.480469 9.425781 65.589844 9.539062 65.589844 9.675781 L 65.589844 48.4375 C 65.589844 48.574219 65.480469 48.6875 65.34375 48.6875 L 65.03125 48.6875 C 64.894531 48.6875 64.78125 48.574219 64.78125 48.4375 L 64.78125 9.675781 C 64.78125 9.539062 64.894531 9.425781 65.03125 9.425781 Z M 65.03125 9.425781 "/>
<path style=" stroke:none;fill-rule:nonzero;fill:rgb(0%,0%,0%);fill-opacity:1;" d="M 53.839844 38.949219 C 53.839844 39.199219 53.640625 39.421875 53.390625 39.421875 C 53.140625 39.421875 52.917969 39.199219 52.917969 38.949219 L 52.917969 35.34375 L 50.851562 36.113281 L 50.851562 40.042969 C 50.851562 40.292969 50.628906 40.515625 50.378906 40.515625 C 50.132812 40.515625 49.933594 40.292969 49.933594 40.042969 L 49.933594 36.4375 L 49.136719 36.738281 C 49.085938 36.761719 49.011719 36.761719 48.964844 36.761719 C 48.6875 36.761719 48.464844 36.539062 48.464844 36.265625 L 48.464844 34.773438 C 48.464844 34.574219 48.589844 34.375 48.789062 34.300781 L 49.933594 33.902344 L 49.933594 29.921875 L 49.136719 30.195312 C 49.085938 30.21875 49.011719 30.21875 48.964844 30.21875 C 48.6875 30.21875 48.464844 29.996094 48.464844 29.722656 L 48.464844 28.230469 C 48.464844 28.03125 48.589844 27.855469 48.789062 27.78125 L 49.933594 27.359375 L 49.933594 23.429688 C 49.933594 23.179688 50.132812 22.957031 50.378906 22.957031 C 50.628906 22.957031 50.851562 23.179688 50.851562 23.429688 L 50.851562 27.035156 L 52.917969 26.265625 L 52.917969 22.335938 C 52.917969 22.085938 53.140625 21.863281 53.390625 21.863281 C 53.640625 21.863281 53.839844 22.085938 53.839844 22.335938 L 53.839844 25.941406 L 54.632812 25.644531 C 54.683594 25.617188 54.757812 25.617188 54.808594 25.617188 C 55.082031 25.617188 55.304688 25.84375 55.304688 26.117188 L 55.304688 27.609375 C 55.304688 27.808594 55.179688 28.007812 54.980469 28.082031 L 53.839844 28.480469 L 53.839844 32.457031 L 54.632812 32.183594 C 54.683594 32.160156 54.757812 32.160156 54.808594 32.160156 C 55.082031 32.160156 55.304688 32.382812 55.304688 32.65625 L 55.304688 34.148438 C 55.304688 34.347656 55.179688 34.523438 54.980469 34.597656 L 53.839844 35.019531 Z M 50.851562 29.574219 L 50.851562 33.554688 L 52.917969 32.808594 L 52.917969 28.828125 Z M 50.851562 29.574219 "/>
<path style=" stroke:none;fill-rule:nonzero;fill:rgb(0%,0%,0%);fill-opacity:1;" d="M 41.003906 37.410156 C 41.578125 37.980469 42.398438 38.105469 43.21875 38.105469 C 43.367188 38.105469 43.46875 38.203125 43.46875 38.351562 L 43.691406 40.515625 C 43.714844 40.667969 43.59375 40.789062 43.441406 40.765625 L 41.277344 40.542969 C 41.15625 40.515625 41.03125 40.417969 41.03125 40.292969 C 41.03125 39.472656 40.90625 38.652344 40.335938 38.078125 C 39.761719 38.652344 39.664062 39.472656 39.664062 40.292969 C 39.664062 40.417969 39.539062 40.515625 39.414062 40.542969 L 37.226562 40.765625 C 37.074219 40.789062 36.953125 40.667969 36.976562 40.515625 L 37.199219 38.351562 C 37.199219 38.203125 37.300781 38.105469 37.449219 38.105469 C 38.269531 38.105469 39.089844 37.980469 39.664062 37.410156 C 39.089844 36.835938 38.269531 36.710938 37.449219 36.710938 C 37.300781 36.710938 37.199219 36.613281 37.199219 36.464844 L 36.976562 34.300781 C 36.953125 34.148438 37.074219 34.027344 37.226562 34.050781 L 39.414062 34.273438 C 39.539062 34.300781 39.636719 34.398438 39.636719 34.523438 C 39.636719 35.34375 39.761719 36.164062 40.335938 36.738281 C 40.90625 36.164062 41.03125 35.34375 41.03125 34.523438 C 41.03125 34.398438 41.15625 34.300781 41.277344 34.273438 L 43.441406 34.050781 C 43.59375 34.027344 43.714844 34.148438 43.691406 34.300781 L 43.46875 36.464844 C 43.46875 36.613281 43.367188 36.710938 43.21875 36.710938 C 42.398438 36.710938 41.578125 36.835938 41.003906 37.410156 Z M 41.003906 37.410156 "/>
<path style=" stroke:none;fill-rule:nonzero;fill:rgb(0%,0%,0%);fill-opacity:1;" d="M 32.996094 43.625 C 33.570312 44.199219 34.390625 44.324219 35.210938 44.324219 C 35.359375 44.324219 35.460938 44.421875 35.460938 44.570312 L 35.683594 46.734375 C 35.707031 46.886719 35.582031 47.007812 35.433594 46.984375 L 33.269531 46.761719 C 33.144531 46.734375 33.023438 46.636719 33.023438 46.511719 C 33.023438 45.691406 32.898438 44.871094 32.324219 44.296875 C 31.753906 44.871094 31.652344 45.691406 31.652344 46.511719 C 31.652344 46.636719 31.527344 46.734375 31.40625 46.761719 L 29.214844 46.984375 C 29.066406 47.007812 28.941406 46.886719 28.96875 46.734375 L 29.191406 44.570312 C 29.191406 44.421875 29.289062 44.324219 29.441406 44.324219 C 30.261719 44.324219 31.082031 44.199219 31.652344 43.625 C 31.082031 43.054688 30.261719 42.929688 29.441406 42.929688 C 29.289062 42.929688 29.191406 42.832031 29.191406 42.679688 L 28.96875 40.515625 C 28.941406 40.367188 29.066406 40.242188 29.214844 40.269531 L 31.40625 40.492188 C 31.527344 40.515625 31.628906 40.617188 31.628906 40.742188 C 31.628906 41.5625 31.753906 42.382812 32.324219 42.953125 C 32.898438 42.382812 33.023438 41.5625 33.023438 40.742188 C 33.023438 40.617188 33.144531 40.515625 33.269531 40.492188 L 35.433594 40.269531 C 35.582031 40.242188 35.707031 40.367188 35.683594 40.515625 L 35.460938 42.679688 C 35.460938 42.832031 35.359375 42.929688 35.210938 42.929688 C 34.390625 42.929688 33.570312 43.054688 32.996094 43.625 Z M 32.996094 43.625 "/>
<path style=" stroke:none;fill-rule:nonzero;fill:rgb(0%,0%,0%);fill-opacity:1;" d="M 48.6875 57.605469 C 48.6875 57.855469 48.492188 58.078125 48.242188 58.078125 C 47.992188 58.078125 47.769531 57.855469 47.769531 57.605469 L 47.769531 54 L 45.703125 54.769531 L 45.703125 58.699219 C 45.703125 58.949219 45.480469 59.171875 45.230469 59.171875 C 44.984375 59.171875 44.785156 58.949219 44.785156 58.699219 L 44.785156 55.09375 L 43.988281 55.390625 C 43.9375 55.417969 43.863281 55.417969 43.8125 55.417969 C 43.539062 55.417969 43.316406 55.191406 43.316406 54.917969 L 43.316406 53.425781 C 43.316406 53.226562 43.441406 53.027344 43.640625 52.953125 L 44.785156 52.554688 L 44.785156 48.574219 L 43.988281 48.851562 C 43.9375 48.875 43.863281 48.875 43.8125 48.875 C 43.539062 48.875 43.316406 48.652344 43.316406 48.378906 L 43.316406 46.886719 C 43.316406 46.6875 43.441406 46.511719 43.640625 46.4375 L 44.785156 46.015625 L 44.785156 42.085938 C 44.785156 41.835938 44.984375 41.613281 45.230469 41.613281 C 45.480469 41.613281 45.703125 41.835938 45.703125 42.085938 L 45.703125 45.691406 L 47.769531 44.917969 L 47.769531 40.988281 C 47.769531 40.742188 47.992188 40.515625 48.242188 40.515625 C 48.492188 40.515625 48.6875 40.742188 48.6875 40.988281 L 48.6875 44.597656 L 49.484375 44.296875 C 49.535156 44.273438 49.609375 44.273438 49.660156 44.273438 C 49.933594 44.273438 50.15625 44.496094 50.15625 44.769531 L 50.15625 46.261719 C 50.15625 46.460938 50.03125 46.660156 49.832031 46.734375 L 48.6875 47.132812 L 48.6875 51.113281 L 49.484375 50.839844 C 49.535156 50.816406 49.609375 50.816406 49.660156 50.816406 C 49.933594 50.816406 50.15625 51.039062 50.15625 51.3125 L 50.15625 52.804688 C 50.15625 53.003906 50.03125 53.175781 49.832031 53.253906 L 48.6875 53.675781 Z M 45.703125 48.226562 L 45.703125 52.207031 L 47.769531 51.460938 L 47.769531 47.480469 Z M 45.703125 48.226562 "/>
<path style=" stroke:none;fill-rule:nonzero;fill:rgb(0%,0%,0%);fill-opacity:1;" d="M 16.152344 50.09375 L 16.003906 50.09375 C 13.316406 50.09375 11.152344 47.90625 11.152344 45.195312 C 11.152344 43.75 12.46875 42.632812 13.9375 42.632812 C 15.28125 42.632812 16.300781 43.800781 16.300781 45.195312 C 16.300781 46.488281 15.230469 47.554688 13.9375 47.554688 C 13.664062 47.554688 13.414062 47.507812 13.167969 47.40625 C 13.8125 48.378906 14.859375 49.023438 16.078125 49.023438 L 16.175781 49.023438 Z M 21 39.347656 C 22.691406 38.75 23.8125 36.984375 23.8125 35.269531 C 23.8125 33.03125 22.171875 30.816406 19.507812 30.542969 C 20.105469 33.429688 20.652344 36.289062 21 39.347656 Z M 11.375 33.601562 C 11.375 36.960938 14.585938 39.746094 17.941406 39.746094 C 18.640625 39.746094 19.308594 39.695312 19.980469 39.597656 C 19.632812 36.4375 19.0625 33.503906 18.414062 30.542969 C 16.449219 30.742188 15.332031 32.0625 15.332031 33.503906 C 15.332031 34.597656 15.953125 35.765625 17.34375 36.5625 C 17.46875 36.6875 17.519531 36.8125 17.519531 36.9375 C 17.519531 37.210938 17.269531 37.484375 16.972656 37.484375 C 16.898438 37.484375 16.824219 37.457031 16.75 37.433594 C 14.757812 36.363281 13.839844 34.574219 13.839844 32.832031 C 13.839844 30.644531 15.28125 28.503906 17.816406 27.933594 C 17.46875 26.488281 17.097656 25.023438 16.675781 23.578125 C 14.011719 26.589844 11.375 29.625 11.375 33.601562 Z M 17.867188 40.816406 C 13.191406 40.816406 9.585938 36.539062 9.585938 31.511719 C 9.585938 27.109375 12.84375 23.902344 15.753906 20.542969 C 15.28125 19.003906 14.832031 17.4375 14.632812 15.820312 C 14.484375 14.527344 14.460938 13.230469 14.460938 11.9375 C 14.460938 9.078125 15.828125 6.367188 18.167969 4.675781 C 18.316406 4.550781 18.515625 4.550781 18.664062 4.675781 C 20.429688 6.765625 21.972656 10.769531 21.972656 13.582031 C 21.972656 17.136719 19.832031 19.921875 17.496094 22.632812 C 18.015625 24.324219 18.464844 26.066406 18.886719 27.78125 C 18.988281 27.78125 19.113281 27.757812 19.210938 27.757812 C 23.066406 27.757812 25.578125 30.941406 25.578125 34.25 C 25.578125 36.140625 24.757812 38.078125 22.917969 39.472656 C 22.371094 39.894531 21.746094 40.167969 21.101562 40.367188 C 21.175781 41.238281 21.226562 42.109375 21.226562 42.980469 C 21.226562 43.453125 21.199219 43.949219 21.175781 44.421875 C 21 47.382812 18.988281 50.019531 16.152344 50.09375 L 16.175781 49.023438 C 18.488281 48.972656 19.980469 46.734375 20.132812 44.273438 C 20.15625 43.824219 20.179688 43.351562 20.179688 42.90625 C 20.179688 42.132812 20.15625 41.386719 20.082031 40.617188 C 19.359375 40.742188 18.640625 40.816406 17.867188 40.816406 Z M 20.179688 11.515625 C 20.179688 10.148438 20.082031 9.550781 19.683594 8.308594 C 17.222656 9.5 15.652344 12.011719 15.652344 14.75 C 15.652344 16.589844 16.101562 18.058594 16.550781 19.574219 C 18.539062 17.160156 20.179688 14.648438 20.179688 11.515625 Z M 20.179688 11.515625 "/>
<path style=" stroke:none;fill-rule:nonzero;fill:rgb(0%,0%,0%);fill-opacity:1;" d="M 62.902344 27.808594 C 64.273438 27.808594 65.589844 28.503906 65.589844 30.019531 C 65.589844 31.789062 64.222656 33.03125 63.054688 33.726562 C 62.183594 34.25 61.1875 34.574219 60.167969 34.574219 C 58.800781 34.574219 57.480469 33.875 57.480469 32.359375 C 57.480469 30.59375 58.851562 29.351562 60.019531 28.652344 C 60.890625 28.132812 61.882812 27.808594 62.902344 27.808594 Z M 62.902344 27.808594 "/>
<path style=" stroke:none;fill-rule:nonzero;fill:rgb(0%,0%,0%);fill-opacity:1;" d="M 62.902344 34.027344 C 64.273438 34.027344 65.589844 34.722656 65.589844 36.238281 C 65.589844 38.003906 64.222656 39.25 63.054688 39.945312 C 62.183594 40.46875 61.1875 40.789062 60.167969 40.789062 C 58.800781 40.789062 57.480469 40.09375 57.480469 38.578125 C 57.480469 36.8125 58.851562 35.566406 60.019531 34.871094 C 60.890625 34.347656 61.882812 34.027344 62.902344 34.027344 Z M 62.902344 34.027344 "/>
<path style=" stroke:none;fill-rule:nonzero;fill:rgb(0%,0%,0%);fill-opacity:1;" d="M 62.902344 40.242188 C 64.273438 40.242188 65.589844 40.941406 65.589844 42.457031 C 65.589844 44.222656 64.222656 45.46875 63.054688 46.164062 C 62.183594 46.6875 61.1875 47.007812 60.167969 47.007812 C 58.800781 47.007812 57.480469 46.3125 57.480469 44.796875 C 57.480469 43.03125 58.851562 41.785156 60.019531 41.089844 C 60.890625 40.566406 61.882812 40.242188 62.902344 40.242188 Z M 62.902344 40.242188 "/>
<path style=" stroke:none;fill-rule:nonzero;fill:rgb(0%,0%,0%);fill-opacity:1;" d="M 62.902344 46.460938 C 64.273438 46.460938 65.589844 47.160156 65.589844 48.675781 C 65.589844 50.441406 64.222656 51.683594 63.054688 52.382812 C 62.183594 52.902344 61.1875 53.226562 60.167969 53.226562 C 58.800781 53.226562 57.480469 52.53125 57.480469 51.011719 C 57.480469 49.246094 58.851562 48.003906 60.019531 47.308594 C 60.890625 46.785156 61.882812 46.460938 62.902344 46.460938 Z M 62.902344 46.460938 "/>
</g>
</svg>
