<?xml version="1.0" encoding="UTF-8"?>
<svg xmlns="http://www.w3.org/2000/svg" xmlns:xlink="http://www.w3.org/1999/xlink" width="68.472344pt" height="43.55424pt" viewBox="0 0 68.472344 43.55424" version="1.1">
<g id="surface1">
<path style="fill:none;stroke-width:0.1;stroke-linecap:round;stroke-linejoin:round;stroke:rgb(0%,0%,0%);stroke-opacity:1;stroke-miterlimit:4;" d="M 0.049863 -0.0001075 L 8.752337 -0.0001075 " transform="matrix(6.218149,0,0,6.218149,4.561038,29.434262)"/>
<path style="fill:none;stroke-width:0.1;stroke-linecap:round;stroke-linejoin:round;stroke:rgb(0%,0%,0%);stroke-opacity:1;stroke-miterlimit:4;" d="M 0.049863 -0.000204149 L 8.752337 -0.000204149 " transform="matrix(6.218149,0,0,6.218149,4.561038,23.216113)"/>
<path style="fill:none;stroke-width:0.1;stroke-linecap:round;stroke-linejoin:round;stroke:rgb(0%,0%,0%);stroke-opacity:1;stroke-miterlimit:4;" d="M 0.049863 -0.000300797 L 8.752337 -0.000300797 " transform="matrix(6.218149,0,0,6.218149,4.561038,16.997964)"/>
<path style="fill:none;stroke-width:0.1;stroke-linecap:round;stroke-linejoin:round;stroke:rgb(0%,0%,0%);stroke-opacity:1;stroke-miterlimit:4;" d="M 0.049863 0.000230756 L 8.752337 0.000230756 " transform="matrix(6.218149,0,0,6.218149,4.561038,10.779815)"/>
<path style="fill:none;stroke-width:0.1;stroke-linecap:round;stroke-linejoin:round;stroke:rgb(0%,0%,0%);stroke-opacity:1;stroke-miterlimit:4;" d="M 0.049863 0.000133988 L 8.752337 0.000133988 " transform="matrix(6.218149,0,0,6.218149,4.561038,4.561667)"/>
<path style=" stroke:none;fill-rule:nonzero;fill:rgb(0%,0%,0%);fill-opacity:1;" d="M 40.875 15.046875 L 41.1875 15.046875 C 41.324219 15.046875 41.433594 15.15625 41.433594 15.292969 L 41.433594 35.402344 C 41.433594 35.542969 41.324219 35.652344 41.1875 35.652344 L 40.875 35.652344 C 40.738281 35.652344 40.625 35.542969 40.625 35.402344 L 40.625 15.292969 C 40.625 15.15625 40.738281 15.046875 40.875 15.046875 Z M 40.875 15.046875 "/>
<path style=" stroke:none;fill-rule:nonzero;fill:rgb(0%,0%,0%);fill-opacity:1;" d="M 36.984375 21.648438 C 36.984375 21.898438 36.785156 22.121094 36.535156 22.121094 C 36.285156 22.121094 36.0625 21.898438 36.0625 21.648438 L 36.0625 18.042969 L 33.996094 18.8125 L 33.996094 22.742188 C 33.996094 22.992188 33.773438 23.214844 33.523438 23.214844 C 33.277344 23.214844 33.078125 22.992188 33.078125 22.742188 L 33.078125 19.136719 L 32.28125 19.433594 C 32.230469 19.460938 32.15625 19.460938 32.109375 19.460938 C 31.832031 19.460938 31.609375 19.238281 31.609375 18.964844 L 31.609375 17.46875 C 31.609375 17.273438 31.734375 17.074219 31.933594 16.996094 L 33.078125 16.601562 L 33.078125 12.621094 L 32.28125 12.894531 C 32.230469 12.917969 32.15625 12.917969 32.109375 12.917969 C 31.832031 12.917969 31.609375 12.695312 31.609375 12.421875 L 31.609375 10.929688 C 31.609375 10.730469 31.734375 10.554688 31.933594 10.480469 L 33.078125 10.058594 L 33.078125 6.128906 C 33.078125 5.878906 33.277344 5.65625 33.523438 5.65625 C 33.773438 5.65625 33.996094 5.878906 33.996094 6.128906 L 33.996094 9.734375 L 36.0625 8.964844 L 36.0625 5.035156 C 36.0625 4.785156 36.285156 4.5625 36.535156 4.5625 C 36.785156 4.5625 36.984375 4.785156 36.984375 5.035156 L 36.984375 8.640625 L 37.777344 8.34375 C 37.828125 8.316406 37.902344 8.316406 37.953125 8.316406 C 38.226562 8.316406 38.449219 8.542969 38.449219 8.816406 L 38.449219 10.308594 C 38.449219 10.507812 38.324219 10.707031 38.125 10.78125 L 36.984375 11.179688 L 36.984375 15.15625 L 37.777344 14.882812 C 37.828125 14.859375 37.902344 14.859375 37.953125 14.859375 C 38.226562 14.859375 38.449219 15.082031 38.449219 15.355469 L 38.449219 16.847656 C 38.449219 17.046875 38.324219 17.222656 38.125 17.296875 L 36.984375 17.71875 Z M 33.996094 12.273438 L 33.996094 16.25 L 36.0625 15.503906 L 36.0625 11.527344 Z M 33.996094 12.273438 "/>
<path style=" stroke:none;fill-rule:nonzero;fill:rgb(0%,0%,0%);fill-opacity:1;" d="M 23.390625 13.890625 C 23.390625 13.191406 23.960938 12.621094 24.65625 12.621094 C 25.355469 12.621094 25.925781 13.191406 25.925781 13.890625 C 25.925781 14.585938 25.355469 15.15625 24.65625 15.15625 C 23.960938 15.15625 23.390625 14.585938 23.390625 13.890625 Z M 23.390625 7.671875 C 23.390625 6.972656 23.960938 6.402344 24.65625 6.402344 C 25.355469 6.402344 25.925781 6.972656 25.925781 7.671875 C 25.925781 8.367188 25.355469 8.9375 24.65625 8.9375 C 23.960938 8.9375 23.390625 8.367188 23.390625 7.671875 Z M 15.304688 4.238281 C 19.585938 4.238281 22.59375 6.425781 22.59375 10.480469 C 22.59375 17.023438 16.050781 20.777344 9.757812 23.441406 C 9.683594 23.515625 9.609375 23.539062 9.535156 23.539062 C 9.363281 23.539062 9.210938 23.390625 9.210938 23.214844 C 9.210938 23.140625 9.238281 23.066406 9.3125 22.992188 C 14.335938 20.058594 19.558594 16.402344 19.558594 10.730469 C 19.558594 7.746094 17.992188 4.886719 15.304688 4.886719 C 13.464844 4.886719 12.097656 6.226562 11.476562 8.019531 C 11.75 7.894531 12.023438 7.820312 12.320312 7.820312 C 13.6875 7.820312 14.808594 8.9375 14.808594 10.308594 C 14.808594 11.75 13.714844 12.945312 12.320312 12.945312 C 10.828125 12.945312 9.535156 11.773438 9.535156 10.308594 C 9.535156 7 12.074219 4.238281 15.304688 4.238281 Z M 15.304688 4.238281 "/>
<path style=" stroke:none;fill-rule:nonzero;fill:rgb(0%,0%,0%);fill-opacity:1;" d="M 46.046875 10.507812 C 47.417969 10.507812 48.734375 11.203125 48.734375 12.71875 C 48.734375 14.484375 47.367188 15.730469 46.199219 16.425781 C 45.328125 16.949219 44.332031 17.273438 43.3125 17.273438 C 41.945312 17.273438 40.625 16.574219 40.625 15.058594 C 40.625 13.292969 41.996094 12.046875 43.164062 11.351562 C 44.035156 10.828125 45.027344 10.507812 46.046875 10.507812 Z M 46.046875 10.507812 "/>
</g>
</svg>
