<?xml version="1.0" encoding="UTF-8"?>
<svg xmlns="http://www.w3.org/2000/svg" xmlns:xlink="http://www.w3.org/1999/xlink" width="76.583943pt" height="51.205563pt" viewBox="0 0 76.583943 51.205563" version="1.1">
<g id="surface1">
<path style="fill:none;stroke-width:0.1;stroke-linecap:round;stroke-linejoin:round;stroke:rgb(0%,0%,0%);stroke-opacity:1;stroke-miterlimit:4;" d="M 0.049863 -0.0001075 L 9.973561 -0.0001075 " transform="matrix(6.218149,0,0,6.218149,4.561038,29.434262)"/>
<path style="fill:none;stroke-width:0.1;stroke-linecap:round;stroke-linejoin:round;stroke:rgb(0%,0%,0%);stroke-opacity:1;stroke-miterlimit:4;" d="M 0.049863 -0.000204149 L 9.973561 -0.000204149 " transform="matrix(6.218149,0,0,6.218149,4.561038,23.216113)"/>
<path style="fill:none;stroke-width:0.1;stroke-linecap:round;stroke-linejoin:round;stroke:rgb(0%,0%,0%);stroke-opacity:1;stroke-miterlimit:4;" d="M 0.049863 -0.000300797 L 9.973561 -0.000300797 " transform="matrix(6.218149,0,0,6.218149,4.561038,16.997964)"/>
<path style="fill:none;stroke-width:0.1;stroke-linecap:round;stroke-linejoin:round;stroke:rgb(0%,0%,0%);stroke-opacity:1;stroke-miterlimit:4;" d="M 0.049863 0.000230756 L 9.973561 0.000230756 " transform="matrix(6.218149,0,0,6.218149,4.561038,10.779815)"/>
<path style="fill:none;stroke-width:0.1;stroke-linecap:round;stroke-linejoin:round;stroke:rgb(0%,0%,0%);stroke-opacity:1;stroke-miterlimit:4;" d="M 0.049863 0.000133988 L 9.973561 0.000133988 " transform="matrix(6.218149,0,0,6.218149,4.561038,4.561667)"/>
<path style=" stroke:none;fill-rule:nonzero;fill:rgb(0%,0%,0%);fill-opacity:1;" d="M 46.816406 35.03125 L 57.734375 35.03125 C 58.078125 35.03125 58.359375 35.308594 58.359375 35.652344 C 58.359375 35.996094 58.078125 36.273438 57.734375 36.273438 L 46.816406 36.273438 C 46.472656 36.273438 46.195312 35.996094 46.195312 35.652344 C 46.195312 35.308594 46.472656 35.03125 46.816406 35.03125 Z M 46.816406 35.03125 "/>
<path style=" stroke:none;fill-rule:nonzero;fill:rgb(0%,0%,0%);fill-opacity:1;" d="M 55.769531 4.5625 L 56.082031 4.5625 C 56.21875 4.5625 56.332031 4.671875 56.332031 4.808594 L 56.332031 37.355469 C 56.332031 37.492188 56.21875 37.605469 56.082031 37.605469 L 55.769531 37.605469 C 55.632812 37.605469 55.523438 37.492188 55.523438 37.355469 L 55.523438 4.808594 C 55.523438 4.671875 55.632812 4.5625 55.769531 4.5625 Z M 55.769531 4.5625 "/>
<path style=" stroke:none;fill-rule:nonzero;fill:rgb(0%,0%,0%);fill-opacity:1;" d="M 41.742188 25.304688 L 41.71875 26.945312 L 41.71875 27.21875 C 41.71875 27.769531 41.742188 28.316406 41.816406 28.863281 C 42.9375 27.917969 44.128906 26.871094 44.128906 25.40625 C 44.128906 24.585938 43.78125 23.738281 43.058594 23.738281 C 42.289062 23.738281 41.765625 24.484375 41.742188 25.304688 Z M 40.695312 29.757812 L 40.398438 14.957031 C 40.597656 14.835938 40.847656 14.757812 41.070312 14.757812 C 41.292969 14.757812 41.542969 14.835938 41.742188 14.957031 L 41.566406 23.539062 C 42.191406 23.015625 43.011719 22.695312 43.832031 22.695312 C 45.125 22.695312 46.042969 23.886719 46.042969 25.230469 C 46.042969 27.21875 43.90625 28.140625 42.386719 29.433594 C 42.015625 29.757812 41.792969 30.378906 41.269531 30.378906 C 40.945312 30.378906 40.695312 30.105469 40.695312 29.757812 Z M 40.695312 29.757812 "/>
<path style=" stroke:none;fill-rule:nonzero;fill:rgb(0%,0%,0%);fill-opacity:1;" d="M 31.371094 31.523438 L 31.34375 33.164062 L 31.34375 33.4375 C 31.34375 33.984375 31.371094 34.53125 31.445312 35.082031 C 32.5625 34.136719 33.757812 33.089844 33.757812 31.625 C 33.757812 30.800781 33.410156 29.957031 32.6875 29.957031 C 31.917969 29.957031 31.394531 30.703125 31.371094 31.523438 Z M 30.324219 35.976562 L 30.027344 21.175781 C 30.226562 21.050781 30.472656 20.976562 30.699219 20.976562 C 30.921875 20.976562 31.171875 21.050781 31.371094 21.175781 L 31.195312 29.757812 C 31.816406 29.234375 32.636719 28.910156 33.460938 28.910156 C 34.753906 28.910156 35.671875 30.105469 35.671875 31.449219 C 35.671875 33.4375 33.535156 34.359375 32.015625 35.652344 C 31.644531 35.976562 31.417969 36.597656 30.898438 36.597656 C 30.574219 36.597656 30.324219 36.324219 30.324219 35.976562 Z M 30.324219 35.976562 "/>
<path style=" stroke:none;fill-rule:nonzero;fill:rgb(0%,0%,0%);fill-opacity:1;" d="M 38.257812 37.742188 L 38.234375 39.382812 L 38.234375 39.65625 C 38.234375 40.203125 38.257812 40.75 38.335938 41.296875 C 39.453125 40.351562 40.648438 39.308594 40.648438 37.839844 C 40.648438 37.019531 40.300781 36.175781 39.578125 36.175781 C 38.808594 36.175781 38.285156 36.921875 38.257812 37.742188 Z M 37.214844 42.195312 L 36.917969 27.394531 C 37.117188 27.269531 37.363281 27.195312 37.589844 27.195312 C 37.8125 27.195312 38.0625 27.269531 38.257812 27.394531 L 38.085938 35.976562 C 38.707031 35.453125 39.527344 35.128906 40.347656 35.128906 C 41.640625 35.128906 42.5625 36.324219 42.5625 37.667969 C 42.5625 39.65625 40.421875 40.578125 38.90625 41.871094 C 38.535156 42.195312 38.308594 42.816406 37.785156 42.816406 C 37.464844 42.816406 37.214844 42.542969 37.214844 42.195312 Z M 37.214844 42.195312 "/>
<path style=" stroke:none;fill-rule:nonzero;fill:rgb(0%,0%,0%);fill-opacity:1;" d="M 23.390625 13.890625 C 23.390625 13.191406 23.960938 12.621094 24.65625 12.621094 C 25.355469 12.621094 25.925781 13.191406 25.925781 13.890625 C 25.925781 14.585938 25.355469 15.15625 24.65625 15.15625 C 23.960938 15.15625 23.390625 14.585938 23.390625 13.890625 Z M 23.390625 7.671875 C 23.390625 6.972656 23.960938 6.402344 24.65625 6.402344 C 25.355469 6.402344 25.925781 6.972656 25.925781 7.671875 C 25.925781 8.367188 25.355469 8.9375 24.65625 8.9375 C 23.960938 8.9375 23.390625 8.367188 23.390625 7.671875 Z M 15.304688 4.238281 C 19.585938 4.238281 22.59375 6.425781 22.59375 10.480469 C 22.59375 17.023438 16.050781 20.777344 9.757812 23.441406 C 9.683594 23.515625 9.609375 23.539062 9.535156 23.539062 C 9.363281 23.539062 9.210938 23.390625 9.210938 23.214844 C 9.210938 23.140625 9.238281 23.066406 9.3125 22.992188 C 14.335938 20.058594 19.558594 16.402344 19.558594 10.730469 C 19.558594 7.746094 17.992188 4.886719 15.304688 4.886719 C 13.464844 4.886719 12.097656 6.226562 11.476562 8.019531 C 11.75 7.894531 12.023438 7.820312 12.320312 7.820312 C 13.6875 7.820312 14.808594 8.9375 14.808594 10.308594 C 14.808594 11.75 13.714844 12.945312 12.320312 12.945312 C 10.828125 12.945312 9.535156 11.773438 9.535156 10.308594 C 9.535156 7 12.074219 4.238281 15.304688 4.238281 Z M 15.304688 4.238281 "/>
<path style=" stroke:none;fill-rule:nonzero;fill:rgb(0%,0%,0%);fill-opacity:1;" d="M 53.644531 22.941406 C 55.011719 22.941406 56.328125 23.640625 56.328125 25.15625 C 56.328125 26.921875 54.960938 28.164062 53.792969 28.863281 C 52.921875 29.382812 51.925781 29.707031 50.90625 29.707031 C 49.539062 29.707031 48.222656 29.011719 48.222656 27.496094 C 48.222656 25.726562 49.589844 24.484375 50.757812 23.789062 C 51.628906 23.265625 52.625 22.941406 53.644531 22.941406 Z M 53.644531 22.941406 "/>
<path style=" stroke:none;fill-rule:nonzero;fill:rgb(0%,0%,0%);fill-opacity:1;" d="M 53.644531 29.160156 C 55.011719 29.160156 56.328125 29.855469 56.328125 31.375 C 56.328125 33.140625 54.960938 34.382812 53.792969 35.082031 C 52.921875 35.601562 51.925781 35.925781 50.90625 35.925781 C 49.539062 35.925781 48.222656 35.230469 48.222656 33.710938 C 48.222656 31.945312 49.589844 30.703125 50.757812 30.007812 C 51.628906 29.484375 52.625 29.160156 53.644531 29.160156 Z M 53.644531 29.160156 "/>
<path style=" stroke:none;fill-rule:nonzero;fill:rgb(0%,0%,0%);fill-opacity:1;" d="M 53.644531 35.378906 C 55.011719 35.378906 56.328125 36.074219 56.328125 37.59375 C 56.328125 39.359375 54.960938 40.601562 53.792969 41.296875 C 52.921875 41.820312 51.925781 42.144531 50.90625 42.144531 C 49.539062 42.144531 48.222656 41.449219 48.222656 39.929688 C 48.222656 38.164062 49.589844 36.921875 50.757812 36.222656 C 51.628906 35.703125 52.625 35.378906 53.644531 35.378906 Z M 53.644531 35.378906 "/>
</g>
</svg>
