<?xml version="1.0" encoding="UTF-8"?>
<svg xmlns="http://www.w3.org/2000/svg" xmlns:xlink="http://www.w3.org/1999/xlink" width="81.97507pt" height="56.837787pt" viewBox="0 0 81.97507 56.837787" version="1.1">
<g id="surface1">
<path style="fill:none;stroke-width:0.1;stroke-linecap:round;stroke-linejoin:round;stroke:rgb(0%,0%,0%);stroke-opacity:1;stroke-miterlimit:4;" d="M 0.049863 -0.0001075 L 10.785197 -0.0001075 " transform="matrix(6.218149,0,0,6.218149,4.561038,29.434262)"/>
<path style="fill:none;stroke-width:0.1;stroke-linecap:round;stroke-linejoin:round;stroke:rgb(0%,0%,0%);stroke-opacity:1;stroke-miterlimit:4;" d="M 0.049863 -0.000204149 L 10.785197 -0.000204149 " transform="matrix(6.218149,0,0,6.218149,4.561038,23.216113)"/>
<path style="fill:none;stroke-width:0.1;stroke-linecap:round;stroke-linejoin:round;stroke:rgb(0%,0%,0%);stroke-opacity:1;stroke-miterlimit:4;" d="M 0.049863 -0.000300797 L 10.785197 -0.000300797 " transform="matrix(6.218149,0,0,6.218149,4.561038,16.997964)"/>
<path style="fill:none;stroke-width:0.1;stroke-linecap:round;stroke-linejoin:round;stroke:rgb(0%,0%,0%);stroke-opacity:1;stroke-miterlimit:4;" d="M 0.049863 0.000230756 L 10.785197 0.000230756 " transform="matrix(6.218149,0,0,6.218149,4.561038,10.779815)"/>
<path style="fill:none;stroke-width:0.1;stroke-linecap:round;stroke-linejoin:round;stroke:rgb(0%,0%,0%);stroke-opacity:1;stroke-miterlimit:4;" d="M 0.049863 0.000133988 L 10.785197 0.000133988 " transform="matrix(6.218149,0,0,6.218149,4.561038,4.561667)"/>
<path style=" stroke:none;fill-rule:nonzero;fill:rgb(0%,0%,0%);fill-opacity:1;" d="M 51.863281 35.03125 L 62.785156 35.03125 C 63.125 35.03125 63.40625 35.308594 63.40625 35.652344 C 63.40625 35.996094 63.125 36.273438 62.785156 36.273438 L 51.863281 36.273438 C 51.519531 36.273438 51.242188 35.996094 51.242188 35.652344 C 51.242188 35.308594 51.519531 35.03125 51.863281 35.03125 Z M 51.863281 35.03125 "/>
<path style=" stroke:none;fill-rule:nonzero;fill:rgb(0%,0%,0%);fill-opacity:1;" d="M 60.820312 4.5625 L 61.128906 4.5625 C 61.265625 4.5625 61.378906 4.671875 61.378906 4.808594 L 61.378906 37.355469 C 61.378906 37.492188 61.265625 37.605469 61.128906 37.605469 L 60.820312 37.605469 C 60.679688 37.605469 60.570312 37.492188 60.570312 37.355469 L 60.570312 4.808594 C 60.570312 4.671875 60.679688 4.5625 60.820312 4.5625 Z M 60.820312 4.5625 "/>
<path style=" stroke:none;fill-rule:nonzero;fill:rgb(0%,0%,0%);fill-opacity:1;" d="M 48.359375 26.324219 C 48.929688 26.898438 49.75 27.023438 50.570312 27.023438 C 50.722656 27.023438 50.820312 27.121094 50.820312 27.269531 L 51.042969 29.433594 C 51.070312 29.582031 50.945312 29.707031 50.796875 29.683594 L 48.632812 29.460938 C 48.507812 29.433594 48.382812 29.335938 48.382812 29.210938 C 48.382812 28.390625 48.257812 27.570312 47.6875 26.996094 C 47.113281 27.570312 47.015625 28.390625 47.015625 29.210938 C 47.015625 29.335938 46.890625 29.433594 46.765625 29.460938 L 44.578125 29.683594 C 44.429688 29.707031 44.304688 29.582031 44.328125 29.433594 L 44.550781 27.269531 C 44.550781 27.121094 44.652344 27.023438 44.800781 27.023438 C 45.621094 27.023438 46.441406 26.898438 47.015625 26.324219 C 46.441406 25.753906 45.621094 25.628906 44.800781 25.628906 C 44.652344 25.628906 44.550781 25.527344 44.550781 25.378906 L 44.328125 23.214844 C 44.304688 23.066406 44.429688 22.941406 44.578125 22.96875 L 46.765625 23.191406 C 46.890625 23.214844 46.988281 23.316406 46.988281 23.441406 C 46.988281 24.261719 47.113281 25.082031 47.6875 25.652344 C 48.257812 25.082031 48.382812 24.261719 48.382812 23.441406 C 48.382812 23.316406 48.507812 23.214844 48.632812 23.191406 L 50.796875 22.96875 C 50.945312 22.941406 51.070312 23.066406 51.042969 23.214844 L 50.820312 25.378906 C 50.820312 25.527344 50.722656 25.628906 50.570312 25.628906 C 49.75 25.628906 48.929688 25.753906 48.359375 26.324219 Z M 48.359375 26.324219 "/>
<path style=" stroke:none;fill-rule:nonzero;fill:rgb(0%,0%,0%);fill-opacity:1;" d="M 33.734375 32.542969 C 34.304688 33.117188 35.125 33.238281 35.945312 33.238281 C 36.097656 33.238281 36.195312 33.339844 36.195312 33.488281 L 36.417969 35.652344 C 36.445312 35.800781 36.320312 35.925781 36.171875 35.902344 L 34.007812 35.675781 C 33.882812 35.652344 33.757812 35.554688 33.757812 35.429688 C 33.757812 34.609375 33.632812 33.785156 33.0625 33.214844 C 32.488281 33.785156 32.390625 34.609375 32.390625 35.429688 C 32.390625 35.554688 32.265625 35.652344 32.140625 35.675781 L 29.953125 35.902344 C 29.804688 35.925781 29.679688 35.800781 29.703125 35.652344 L 29.925781 33.488281 C 29.925781 33.339844 30.027344 33.238281 30.175781 33.238281 C 30.996094 33.238281 31.816406 33.117188 32.390625 32.542969 C 31.816406 31.972656 30.996094 31.847656 30.175781 31.847656 C 30.027344 31.847656 29.925781 31.746094 29.925781 31.597656 L 29.703125 29.433594 C 29.679688 29.285156 29.804688 29.160156 29.953125 29.183594 L 32.140625 29.410156 C 32.265625 29.433594 32.363281 29.535156 32.363281 29.65625 C 32.363281 30.480469 32.488281 31.300781 33.0625 31.871094 C 33.632812 31.300781 33.757812 30.480469 33.757812 29.65625 C 33.757812 29.535156 33.882812 29.433594 34.007812 29.410156 L 36.171875 29.183594 C 36.320312 29.160156 36.445312 29.285156 36.417969 29.433594 L 36.195312 31.597656 C 36.195312 31.746094 36.097656 31.847656 35.945312 31.847656 C 35.125 31.847656 34.304688 31.972656 33.734375 32.542969 Z M 33.734375 32.542969 "/>
<path style=" stroke:none;fill-rule:nonzero;fill:rgb(0%,0%,0%);fill-opacity:1;" d="M 43.082031 46.523438 C 43.082031 46.769531 42.882812 46.996094 42.636719 46.996094 C 42.386719 46.996094 42.164062 46.769531 42.164062 46.523438 L 42.164062 42.914062 L 40.097656 43.6875 L 40.097656 47.617188 C 40.097656 47.863281 39.875 48.089844 39.625 48.089844 C 39.378906 48.089844 39.179688 47.863281 39.179688 47.617188 L 39.179688 44.007812 L 38.382812 44.308594 C 38.332031 44.332031 38.257812 44.332031 38.207031 44.332031 C 37.933594 44.332031 37.710938 44.109375 37.710938 43.835938 L 37.710938 42.34375 C 37.710938 42.144531 37.835938 41.945312 38.035156 41.871094 L 39.179688 41.472656 L 39.179688 37.492188 L 38.382812 37.765625 C 38.332031 37.792969 38.257812 37.792969 38.207031 37.792969 C 37.933594 37.792969 37.710938 37.566406 37.710938 37.292969 L 37.710938 35.800781 C 37.710938 35.601562 37.835938 35.429688 38.035156 35.355469 L 39.179688 34.929688 L 39.179688 31 C 39.179688 30.753906 39.378906 30.527344 39.625 30.527344 C 39.875 30.527344 40.097656 30.753906 40.097656 31 L 40.097656 34.609375 L 42.164062 33.835938 L 42.164062 29.90625 C 42.164062 29.65625 42.386719 29.433594 42.636719 29.433594 C 42.882812 29.433594 43.082031 29.65625 43.082031 29.90625 L 43.082031 33.511719 L 43.878906 33.214844 C 43.929688 33.191406 44.003906 33.191406 44.054688 33.191406 C 44.328125 33.191406 44.550781 33.414062 44.550781 33.6875 L 44.550781 35.179688 C 44.550781 35.378906 44.425781 35.578125 44.226562 35.652344 L 43.082031 36.050781 L 43.082031 40.03125 L 43.878906 39.757812 C 43.929688 39.730469 44.003906 39.730469 44.054688 39.730469 C 44.328125 39.730469 44.550781 39.957031 44.550781 40.230469 L 44.550781 41.722656 C 44.550781 41.921875 44.425781 42.09375 44.226562 42.167969 L 43.082031 42.59375 Z M 40.097656 37.144531 L 40.097656 41.125 L 42.164062 40.378906 L 42.164062 36.398438 Z M 40.097656 37.144531 "/>
<path style=" stroke:none;fill-rule:nonzero;fill:rgb(0%,0%,0%);fill-opacity:1;" d="M 23.390625 13.890625 C 23.390625 13.191406 23.960938 12.621094 24.65625 12.621094 C 25.355469 12.621094 25.925781 13.191406 25.925781 13.890625 C 25.925781 14.585938 25.355469 15.15625 24.65625 15.15625 C 23.960938 15.15625 23.390625 14.585938 23.390625 13.890625 Z M 23.390625 7.671875 C 23.390625 6.972656 23.960938 6.402344 24.65625 6.402344 C 25.355469 6.402344 25.925781 6.972656 25.925781 7.671875 C 25.925781 8.367188 25.355469 8.9375 24.65625 8.9375 C 23.960938 8.9375 23.390625 8.367188 23.390625 7.671875 Z M 15.304688 4.238281 C 19.585938 4.238281 22.59375 6.425781 22.59375 10.480469 C 22.59375 17.023438 16.050781 20.777344 9.757812 23.441406 C 9.683594 23.515625 9.609375 23.539062 9.535156 23.539062 C 9.363281 23.539062 9.210938 23.390625 9.210938 23.214844 C 9.210938 23.140625 9.238281 23.066406 9.3125 22.992188 C 14.335938 20.058594 19.558594 16.402344 19.558594 10.730469 C 19.558594 7.746094 17.992188 4.886719 15.304688 4.886719 C 13.464844 4.886719 12.097656 6.226562 11.476562 8.019531 C 11.75 7.894531 12.023438 7.820312 12.320312 7.820312 C 13.6875 7.820312 14.808594 8.9375 14.808594 10.308594 C 14.808594 11.75 13.714844 12.945312 12.320312 12.945312 C 10.828125 12.945312 9.535156 11.773438 9.535156 10.308594 C 9.535156 7 12.074219 4.238281 15.304688 4.238281 Z M 15.304688 4.238281 "/>
<path style=" stroke:none;fill-rule:nonzero;fill:rgb(0%,0%,0%);fill-opacity:1;" d="M 58.691406 22.941406 C 60.058594 22.941406 61.375 23.640625 61.375 25.15625 C 61.375 26.921875 60.007812 28.164062 58.839844 28.863281 C 57.96875 29.382812 56.972656 29.707031 55.953125 29.707031 C 54.585938 29.707031 53.269531 29.011719 53.269531 27.496094 C 53.269531 25.726562 54.636719 24.484375 55.804688 23.789062 C 56.675781 23.265625 57.671875 22.941406 58.691406 22.941406 Z M 58.691406 22.941406 "/>
<path style=" stroke:none;fill-rule:nonzero;fill:rgb(0%,0%,0%);fill-opacity:1;" d="M 58.691406 29.160156 C 60.058594 29.160156 61.375 29.855469 61.375 31.375 C 61.375 33.140625 60.007812 34.382812 58.839844 35.082031 C 57.96875 35.601562 56.972656 35.925781 55.953125 35.925781 C 54.585938 35.925781 53.269531 35.230469 53.269531 33.710938 C 53.269531 31.945312 54.636719 30.703125 55.804688 30.007812 C 56.675781 29.484375 57.671875 29.160156 58.691406 29.160156 Z M 58.691406 29.160156 "/>
<path style=" stroke:none;fill-rule:nonzero;fill:rgb(0%,0%,0%);fill-opacity:1;" d="M 58.691406 35.378906 C 60.058594 35.378906 61.375 36.074219 61.375 37.59375 C 61.375 39.359375 60.007812 40.601562 58.839844 41.296875 C 57.96875 41.820312 56.972656 42.144531 55.953125 42.144531 C 54.585938 42.144531 53.269531 41.449219 53.269531 39.929688 C 53.269531 38.164062 54.636719 36.921875 55.804688 36.222656 C 56.675781 35.703125 57.671875 35.378906 58.691406 35.378906 Z M 58.691406 35.378906 "/>
</g>
</svg>
