<?xml version="1.0" encoding="UTF-8"?>
<svg xmlns="http://www.w3.org/2000/svg" xmlns:xlink="http://www.w3.org/1999/xlink" width="68.472344pt" height="60.145423pt" viewBox="0 0 68.472344 60.145423" version="1.1">
<g id="surface1">
<path style="fill:none;stroke-width:0.1;stroke-linecap:round;stroke-linejoin:round;stroke:rgb(0%,0%,0%);stroke-opacity:1;stroke-miterlimit:4;" d="M 0.049863 -0.000250188 L 8.752337 -0.000250188 " transform="matrix(6.218149,0,0,6.218149,4.561038,51.212493)"/>
<path style="fill:none;stroke-width:0.1;stroke-linecap:round;stroke-linejoin:round;stroke:rgb(0%,0%,0%);stroke-opacity:1;stroke-miterlimit:4;" d="M 0.049863 0.000281364 L 8.752337 0.000281364 " transform="matrix(6.218149,0,0,6.218149,4.561038,44.994344)"/>
<path style="fill:none;stroke-width:0.1;stroke-linecap:round;stroke-linejoin:round;stroke:rgb(0%,0%,0%);stroke-opacity:1;stroke-miterlimit:4;" d="M 0.049863 0.000184716 L 8.752337 0.000184716 " transform="matrix(6.218149,0,0,6.218149,4.561038,38.776195)"/>
<path style="fill:none;stroke-width:0.1;stroke-linecap:round;stroke-linejoin:round;stroke:rgb(0%,0%,0%);stroke-opacity:1;stroke-miterlimit:4;" d="M 0.049863 0.0000880672 L 8.752337 0.0000880672 " transform="matrix(6.218149,0,0,6.218149,4.561038,32.558046)"/>
<path style="fill:none;stroke-width:0.1;stroke-linecap:round;stroke-linejoin:round;stroke:rgb(0%,0%,0%);stroke-opacity:1;stroke-miterlimit:4;" d="M 0.049863 -0.00000858141 L 8.752337 -0.00000858141 " transform="matrix(6.218149,0,0,6.218149,4.561038,26.339897)"/>
<path style=" stroke:none;fill-rule:nonzero;fill:rgb(0%,0%,0%);fill-opacity:1;" d="M 40.160156 13.28125 L 50.140625 13.28125 C 50.484375 13.28125 50.765625 13.558594 50.765625 13.902344 C 50.765625 14.246094 50.484375 14.527344 50.140625 14.527344 L 40.160156 14.527344 C 39.816406 14.527344 39.539062 14.246094 39.539062 13.902344 C 39.539062 13.558594 39.816406 13.28125 40.160156 13.28125 Z M 40.160156 13.28125 "/>
<path style=" stroke:none;fill-rule:nonzero;fill:rgb(0%,0%,0%);fill-opacity:1;" d="M 39.21875 19.5 L 50.140625 19.5 C 50.484375 19.5 50.761719 19.777344 50.761719 20.121094 C 50.761719 20.464844 50.484375 20.742188 50.140625 20.742188 L 39.21875 20.742188 C 38.878906 20.742188 38.597656 20.464844 38.597656 20.121094 C 38.597656 19.777344 38.878906 19.5 39.21875 19.5 Z M 39.21875 19.5 "/>
<path style=" stroke:none;fill-rule:nonzero;fill:rgb(0%,0%,0%);fill-opacity:1;" d="M 40.875 15.0625 L 41.1875 15.0625 C 41.324219 15.0625 41.433594 15.171875 41.433594 15.308594 L 41.433594 38.527344 C 41.433594 38.664062 41.324219 38.777344 41.1875 38.777344 L 40.875 38.777344 C 40.738281 38.777344 40.625 38.664062 40.625 38.527344 L 40.625 15.308594 C 40.625 15.171875 40.738281 15.0625 40.875 15.0625 Z M 40.875 15.0625 "/>
<path style=" stroke:none;fill-rule:nonzero;fill:rgb(0%,0%,0%);fill-opacity:1;" d="M 36.984375 21.664062 C 36.984375 21.914062 36.785156 22.136719 36.535156 22.136719 C 36.285156 22.136719 36.0625 21.914062 36.0625 21.664062 L 36.0625 18.058594 L 33.996094 18.828125 L 33.996094 22.757812 C 33.996094 23.007812 33.773438 23.230469 33.523438 23.230469 C 33.277344 23.230469 33.078125 23.007812 33.078125 22.757812 L 33.078125 19.152344 L 32.28125 19.449219 C 32.230469 19.476562 32.15625 19.476562 32.109375 19.476562 C 31.832031 19.476562 31.609375 19.25 31.609375 18.976562 L 31.609375 17.484375 C 31.609375 17.285156 31.734375 17.085938 31.933594 17.011719 L 33.078125 16.613281 L 33.078125 12.636719 L 32.28125 12.910156 C 32.230469 12.933594 32.15625 12.933594 32.109375 12.933594 C 31.832031 12.933594 31.609375 12.710938 31.609375 12.4375 L 31.609375 10.945312 C 31.609375 10.746094 31.734375 10.570312 31.933594 10.496094 L 33.078125 10.074219 L 33.078125 6.144531 C 33.078125 5.894531 33.277344 5.671875 33.523438 5.671875 C 33.773438 5.671875 33.996094 5.894531 33.996094 6.144531 L 33.996094 9.75 L 36.0625 8.980469 L 36.0625 5.050781 C 36.0625 4.800781 36.285156 4.578125 36.535156 4.578125 C 36.785156 4.578125 36.984375 4.800781 36.984375 5.050781 L 36.984375 8.65625 L 37.777344 8.355469 C 37.828125 8.332031 37.902344 8.332031 37.953125 8.332031 C 38.226562 8.332031 38.449219 8.554688 38.449219 8.828125 L 38.449219 10.320312 C 38.449219 10.519531 38.324219 10.71875 38.125 10.792969 L 36.984375 11.191406 L 36.984375 15.171875 L 37.777344 14.898438 C 37.828125 14.875 37.902344 14.875 37.953125 14.875 C 38.226562 14.875 38.449219 15.097656 38.449219 15.371094 L 38.449219 16.863281 C 38.449219 17.0625 38.324219 17.238281 38.125 17.3125 L 36.984375 17.734375 Z M 33.996094 12.285156 L 33.996094 16.265625 L 36.0625 15.519531 L 36.0625 11.539062 Z M 33.996094 12.285156 "/>
<path style=" stroke:none;fill-rule:nonzero;fill:rgb(0%,0%,0%);fill-opacity:1;" d="M 23.390625 35.667969 C 23.390625 34.96875 23.960938 34.398438 24.65625 34.398438 C 25.355469 34.398438 25.925781 34.96875 25.925781 35.667969 C 25.925781 36.363281 25.355469 36.9375 24.65625 36.9375 C 23.960938 36.9375 23.390625 36.363281 23.390625 35.667969 Z M 23.390625 29.449219 C 23.390625 28.753906 23.960938 28.179688 24.65625 28.179688 C 25.355469 28.179688 25.925781 28.753906 25.925781 29.449219 C 25.925781 30.144531 25.355469 30.71875 24.65625 30.71875 C 23.960938 30.71875 23.390625 30.144531 23.390625 29.449219 Z M 15.304688 26.015625 C 19.585938 26.015625 22.59375 28.207031 22.59375 32.257812 C 22.59375 38.800781 16.050781 42.558594 9.757812 45.21875 C 9.683594 45.292969 9.609375 45.316406 9.535156 45.316406 C 9.363281 45.316406 9.210938 45.167969 9.210938 44.996094 C 9.210938 44.917969 9.238281 44.84375 9.3125 44.769531 C 14.335938 41.835938 19.558594 38.179688 19.558594 32.507812 C 19.558594 29.523438 17.992188 26.664062 15.304688 26.664062 C 13.464844 26.664062 12.097656 28.007812 11.476562 29.796875 C 11.75 29.671875 12.023438 29.597656 12.320312 29.597656 C 13.6875 29.597656 14.808594 30.71875 14.808594 32.085938 C 14.808594 33.527344 13.714844 34.722656 12.320312 34.722656 C 10.828125 34.722656 9.535156 33.554688 9.535156 32.085938 C 9.535156 28.777344 12.074219 26.015625 15.304688 26.015625 Z M 15.304688 26.015625 "/>
<path style=" stroke:none;fill-rule:nonzero;fill:rgb(0%,0%,0%);fill-opacity:1;" d="M 46.046875 10.519531 C 47.417969 10.519531 48.734375 11.21875 48.734375 12.734375 C 48.734375 14.5 47.367188 15.746094 46.199219 16.441406 C 45.328125 16.964844 44.332031 17.285156 43.3125 17.285156 C 41.945312 17.285156 40.625 16.589844 40.625 15.074219 C 40.625 13.308594 41.996094 12.0625 43.164062 11.367188 C 44.035156 10.84375 45.027344 10.519531 46.046875 10.519531 Z M 46.046875 10.519531 "/>
</g>
</svg>
