<?xml version="1.0" encoding="UTF-8"?>
<svg xmlns="http://www.w3.org/2000/svg" xmlns:xlink="http://www.w3.org/1999/xlink" width="81.97507pt" height="56.492415pt" viewBox="0 0 81.97507 56.492415" version="1.1">
<g id="surface1">
<path style="fill:none;stroke-width:0.1;stroke-linecap:round;stroke-linejoin:round;stroke:rgb(0%,0%,0%);stroke-opacity:1;stroke-miterlimit:4;" d="M 0.049863 0.0000610068 L 10.785197 0.0000610068 " transform="matrix(6.218149,0,0,6.218149,4.561038,32.409777)"/>
<path style="fill:none;stroke-width:0.1;stroke-linecap:round;stroke-linejoin:round;stroke:rgb(0%,0%,0%);stroke-opacity:1;stroke-miterlimit:4;" d="M 0.049863 -0.0000356418 L 10.785197 -0.0000356418 " transform="matrix(6.218149,0,0,6.218149,4.561038,26.191628)"/>
<path style="fill:none;stroke-width:0.1;stroke-linecap:round;stroke-linejoin:round;stroke:rgb(0%,0%,0%);stroke-opacity:1;stroke-miterlimit:4;" d="M 0.049863 -0.00013229 L 10.785197 -0.00013229 " transform="matrix(6.218149,0,0,6.218149,4.561038,19.973479)"/>
<path style="fill:none;stroke-width:0.1;stroke-linecap:round;stroke-linejoin:round;stroke:rgb(0%,0%,0%);stroke-opacity:1;stroke-miterlimit:4;" d="M 0.049863 -0.000228939 L 10.785197 -0.000228939 " transform="matrix(6.218149,0,0,6.218149,4.561038,13.75533)"/>
<path style="fill:none;stroke-width:0.1;stroke-linecap:round;stroke-linejoin:round;stroke:rgb(0%,0%,0%);stroke-opacity:1;stroke-miterlimit:4;" d="M 0.049863 0.000302495 L 10.785197 0.000302495 " transform="matrix(6.218149,0,0,6.218149,4.561038,7.537182)"/>
<path style=" stroke:none;fill-rule:nonzero;fill:rgb(0%,0%,0%);fill-opacity:1;" d="M 51.863281 38.007812 L 62.785156 38.007812 C 63.125 38.007812 63.40625 38.285156 63.40625 38.628906 C 63.40625 38.972656 63.125 39.25 62.785156 39.25 L 51.863281 39.25 C 51.519531 39.25 51.242188 38.972656 51.242188 38.628906 C 51.242188 38.285156 51.519531 38.007812 51.863281 38.007812 Z M 51.863281 38.007812 "/>
<path style=" stroke:none;fill-rule:nonzero;fill:rgb(0%,0%,0%);fill-opacity:1;" d="M 60.820312 4.429688 L 61.128906 4.429688 C 61.265625 4.429688 61.378906 4.539062 61.378906 4.675781 L 61.378906 37.222656 C 61.378906 37.359375 61.265625 37.472656 61.128906 37.472656 L 60.820312 37.472656 C 60.679688 37.472656 60.570312 37.359375 60.570312 37.222656 L 60.570312 4.675781 C 60.570312 4.539062 60.679688 4.429688 60.820312 4.429688 Z M 60.820312 4.429688 "/>
<path style=" stroke:none;fill-rule:nonzero;fill:rgb(0%,0%,0%);fill-opacity:1;" d="M 48.359375 26.191406 C 48.929688 26.765625 49.75 26.886719 50.570312 26.886719 C 50.722656 26.886719 50.820312 26.988281 50.820312 27.136719 L 51.042969 29.300781 C 51.070312 29.449219 50.945312 29.574219 50.796875 29.550781 L 48.632812 29.324219 C 48.507812 29.300781 48.382812 29.203125 48.382812 29.078125 C 48.382812 28.257812 48.257812 27.433594 47.6875 26.863281 C 47.113281 27.433594 47.015625 28.257812 47.015625 29.078125 C 47.015625 29.203125 46.890625 29.300781 46.765625 29.324219 L 44.578125 29.550781 C 44.429688 29.574219 44.304688 29.449219 44.328125 29.300781 L 44.550781 27.136719 C 44.550781 26.988281 44.652344 26.886719 44.800781 26.886719 C 45.621094 26.886719 46.441406 26.765625 47.015625 26.191406 C 46.441406 25.621094 45.621094 25.496094 44.800781 25.496094 C 44.652344 25.496094 44.550781 25.394531 44.550781 25.246094 L 44.328125 23.082031 C 44.304688 22.933594 44.429688 22.808594 44.578125 22.832031 L 46.765625 23.058594 C 46.890625 23.082031 46.988281 23.183594 46.988281 23.304688 C 46.988281 24.128906 47.113281 24.949219 47.6875 25.519531 C 48.257812 24.949219 48.382812 24.128906 48.382812 23.304688 C 48.382812 23.183594 48.507812 23.082031 48.632812 23.058594 L 50.796875 22.832031 C 50.945312 22.808594 51.070312 22.933594 51.042969 23.082031 L 50.820312 25.246094 C 50.820312 25.394531 50.722656 25.496094 50.570312 25.496094 C 49.75 25.496094 48.929688 25.621094 48.359375 26.191406 Z M 48.359375 26.191406 "/>
<path style=" stroke:none;fill-rule:nonzero;fill:rgb(0%,0%,0%);fill-opacity:1;" d="M 33.734375 32.410156 C 34.304688 32.980469 35.125 33.105469 35.945312 33.105469 C 36.097656 33.105469 36.195312 33.207031 36.195312 33.355469 L 36.417969 35.519531 C 36.445312 35.667969 36.320312 35.792969 36.171875 35.765625 L 34.007812 35.542969 C 33.882812 35.519531 33.757812 35.417969 33.757812 35.296875 C 33.757812 34.472656 33.632812 33.652344 33.0625 33.082031 C 32.488281 33.652344 32.390625 34.472656 32.390625 35.296875 C 32.390625 35.417969 32.265625 35.519531 32.140625 35.542969 L 29.953125 35.765625 C 29.804688 35.792969 29.679688 35.667969 29.703125 35.519531 L 29.925781 33.355469 C 29.925781 33.207031 30.027344 33.105469 30.175781 33.105469 C 30.996094 33.105469 31.816406 32.980469 32.390625 32.410156 C 31.816406 31.835938 30.996094 31.714844 30.175781 31.714844 C 30.027344 31.714844 29.925781 31.613281 29.925781 31.464844 L 29.703125 29.300781 C 29.679688 29.152344 29.804688 29.027344 29.953125 29.050781 L 32.140625 29.277344 C 32.265625 29.300781 32.363281 29.398438 32.363281 29.523438 C 32.363281 30.34375 32.488281 31.167969 33.0625 31.738281 C 33.632812 31.167969 33.757812 30.34375 33.757812 29.523438 C 33.757812 29.398438 33.882812 29.300781 34.007812 29.277344 L 36.171875 29.050781 C 36.320312 29.027344 36.445312 29.152344 36.417969 29.300781 L 36.195312 31.464844 C 36.195312 31.613281 36.097656 31.714844 35.945312 31.714844 C 35.125 31.714844 34.304688 31.835938 33.734375 32.410156 Z M 33.734375 32.410156 "/>
<path style=" stroke:none;fill-rule:nonzero;fill:rgb(0%,0%,0%);fill-opacity:1;" d="M 43.082031 46.386719 C 43.082031 46.636719 42.882812 46.859375 42.636719 46.859375 C 42.386719 46.859375 42.164062 46.636719 42.164062 46.386719 L 42.164062 42.78125 L 40.097656 43.550781 L 40.097656 47.484375 C 40.097656 47.730469 39.875 47.957031 39.625 47.957031 C 39.378906 47.957031 39.179688 47.730469 39.179688 47.484375 L 39.179688 43.875 L 38.382812 44.175781 C 38.332031 44.199219 38.257812 44.199219 38.207031 44.199219 C 37.933594 44.199219 37.710938 43.976562 37.710938 43.703125 L 37.710938 42.210938 C 37.710938 42.011719 37.835938 41.8125 38.035156 41.738281 L 39.179688 41.339844 L 39.179688 37.359375 L 38.382812 37.632812 C 38.332031 37.65625 38.257812 37.65625 38.207031 37.65625 C 37.933594 37.65625 37.710938 37.433594 37.710938 37.160156 L 37.710938 35.667969 C 37.710938 35.46875 37.835938 35.296875 38.035156 35.21875 L 39.179688 34.796875 L 39.179688 30.867188 C 39.179688 30.617188 39.378906 30.394531 39.625 30.394531 C 39.875 30.394531 40.097656 30.617188 40.097656 30.867188 L 40.097656 34.472656 L 42.164062 33.703125 L 42.164062 29.773438 C 42.164062 29.523438 42.386719 29.300781 42.636719 29.300781 C 42.882812 29.300781 43.082031 29.523438 43.082031 29.773438 L 43.082031 33.378906 L 43.878906 33.082031 C 43.929688 33.054688 44.003906 33.054688 44.054688 33.054688 C 44.328125 33.054688 44.550781 33.28125 44.550781 33.554688 L 44.550781 35.046875 C 44.550781 35.246094 44.425781 35.445312 44.226562 35.519531 L 43.082031 35.917969 L 43.082031 39.894531 L 43.878906 39.621094 C 43.929688 39.597656 44.003906 39.597656 44.054688 39.597656 C 44.328125 39.597656 44.550781 39.820312 44.550781 40.09375 L 44.550781 41.585938 C 44.550781 41.785156 44.425781 41.960938 44.226562 42.035156 L 43.082031 42.457031 Z M 40.097656 37.011719 L 40.097656 40.992188 L 42.164062 40.246094 L 42.164062 36.265625 Z M 40.097656 37.011719 "/>
<path style=" stroke:none;fill-rule:nonzero;fill:rgb(0%,0%,0%);fill-opacity:1;" d="M 23.390625 16.863281 C 23.390625 16.167969 23.960938 15.597656 24.65625 15.597656 C 25.355469 15.597656 25.925781 16.167969 25.925781 16.863281 C 25.925781 17.5625 25.355469 18.132812 24.65625 18.132812 C 23.960938 18.132812 23.390625 17.5625 23.390625 16.863281 Z M 23.390625 10.644531 C 23.390625 9.949219 23.960938 9.378906 24.65625 9.378906 C 25.355469 9.378906 25.925781 9.949219 25.925781 10.644531 C 25.925781 11.34375 25.355469 11.914062 24.65625 11.914062 C 23.960938 11.914062 23.390625 11.34375 23.390625 10.644531 Z M 15.304688 7.214844 C 19.585938 7.214844 22.59375 9.402344 22.59375 13.457031 C 22.59375 20 16.050781 23.753906 9.757812 26.414062 C 9.683594 26.488281 9.609375 26.515625 9.535156 26.515625 C 9.363281 26.515625 9.210938 26.367188 9.210938 26.191406 C 9.210938 26.117188 9.238281 26.042969 9.3125 25.96875 C 14.335938 23.03125 19.558594 19.375 19.558594 13.707031 C 19.558594 10.722656 17.992188 7.859375 15.304688 7.859375 C 13.464844 7.859375 12.097656 9.203125 11.476562 10.996094 C 11.75 10.871094 12.023438 10.796875 12.320312 10.796875 C 13.6875 10.796875 14.808594 11.914062 14.808594 13.28125 C 14.808594 14.726562 13.714844 15.917969 12.320312 15.917969 C 10.828125 15.917969 9.535156 14.75 9.535156 13.28125 C 9.535156 9.976562 12.074219 7.214844 15.304688 7.214844 Z M 15.304688 7.214844 "/>
<path style=" stroke:none;fill-rule:nonzero;fill:rgb(0%,0%,0%);fill-opacity:1;" d="M 58.691406 22.808594 C 60.058594 22.808594 61.375 23.503906 61.375 25.023438 C 61.375 26.789062 60.007812 28.03125 58.839844 28.730469 C 57.96875 29.25 56.972656 29.574219 55.953125 29.574219 C 54.585938 29.574219 53.269531 28.878906 53.269531 27.359375 C 53.269531 25.59375 54.636719 24.351562 55.804688 23.65625 C 56.675781 23.132812 57.671875 22.808594 58.691406 22.808594 Z M 58.691406 22.808594 "/>
<path style=" stroke:none;fill-rule:nonzero;fill:rgb(0%,0%,0%);fill-opacity:1;" d="M 58.691406 29.027344 C 60.058594 29.027344 61.375 29.722656 61.375 31.242188 C 61.375 33.007812 60.007812 34.25 58.839844 34.945312 C 57.96875 35.46875 56.972656 35.792969 55.953125 35.792969 C 54.585938 35.792969 53.269531 35.097656 53.269531 33.578125 C 53.269531 31.8125 54.636719 30.570312 55.804688 29.871094 C 56.675781 29.351562 57.671875 29.027344 58.691406 29.027344 Z M 58.691406 29.027344 "/>
<path style=" stroke:none;fill-rule:nonzero;fill:rgb(0%,0%,0%);fill-opacity:1;" d="M 58.691406 35.246094 C 60.058594 35.246094 61.375 35.941406 61.375 37.457031 C 61.375 39.226562 60.007812 40.46875 58.839844 41.164062 C 57.96875 41.6875 56.972656 42.011719 55.953125 42.011719 C 54.585938 42.011719 53.269531 41.3125 53.269531 39.796875 C 53.269531 38.03125 54.636719 36.789062 55.804688 36.089844 C 56.675781 35.570312 57.671875 35.246094 58.691406 35.246094 Z M 58.691406 35.246094 "/>
</g>
</svg>
