<?xml version="1.0" encoding="UTF-8"?>
<svg xmlns="http://www.w3.org/2000/svg" xmlns:xlink="http://www.w3.org/1999/xlink" width="72.982108pt" height="73.362519pt" viewBox="0 0 72.982108 73.362519" version="1.1">
<g id="surface1">
<path style="fill:none;stroke-width:0.1;stroke-linecap:round;stroke-linejoin:round;stroke:rgb(0%,0%,0%);stroke-opacity:1;stroke-miterlimit:4;" d="M 0.049863 -0.000201864 L 9.431423 -0.000201864 " transform="matrix(6.218149,0,0,6.218149,4.561038,54.321568)"/>
<path style="fill:none;stroke-width:0.1;stroke-linecap:round;stroke-linejoin:round;stroke:rgb(0%,0%,0%);stroke-opacity:1;stroke-miterlimit:4;" d="M 0.049863 -0.000298513 L 9.431423 -0.000298513 " transform="matrix(6.218149,0,0,6.218149,4.561038,48.103419)"/>
<path style="fill:none;stroke-width:0.1;stroke-linecap:round;stroke-linejoin:round;stroke:rgb(0%,0%,0%);stroke-opacity:1;stroke-miterlimit:4;" d="M 0.049863 0.00023304 L 9.431423 0.00023304 " transform="matrix(6.218149,0,0,6.218149,4.561038,41.88527)"/>
<path style="fill:none;stroke-width:0.1;stroke-linecap:round;stroke-linejoin:round;stroke:rgb(0%,0%,0%);stroke-opacity:1;stroke-miterlimit:4;" d="M 0.049863 0.000136391 L 9.431423 0.000136391 " transform="matrix(6.218149,0,0,6.218149,4.561038,35.667121)"/>
<path style="fill:none;stroke-width:0.1;stroke-linecap:round;stroke-linejoin:round;stroke:rgb(0%,0%,0%);stroke-opacity:1;stroke-miterlimit:4;" d="M 0.049863 0.0000397429 L 9.431423 0.0000397429 " transform="matrix(6.218149,0,0,6.218149,4.561038,29.448972)"/>
<path style=" stroke:none;fill-rule:nonzero;fill:rgb(0%,0%,0%);fill-opacity:1;" d="M 44.382812 16.390625 L 54.363281 16.390625 C 54.707031 16.390625 54.984375 16.667969 54.984375 17.011719 C 54.984375 17.355469 54.707031 17.632812 54.363281 17.632812 L 44.382812 17.632812 C 44.039062 17.632812 43.761719 17.355469 43.761719 17.011719 C 43.761719 16.667969 44.039062 16.390625 44.382812 16.390625 Z M 44.382812 16.390625 "/>
<path style=" stroke:none;fill-rule:nonzero;fill:rgb(0%,0%,0%);fill-opacity:1;" d="M 43.441406 22.609375 L 54.363281 22.609375 C 54.707031 22.609375 54.984375 22.886719 54.984375 23.230469 C 54.984375 23.574219 54.707031 23.851562 54.363281 23.851562 L 43.441406 23.851562 C 43.101562 23.851562 42.820312 23.574219 42.820312 23.230469 C 42.820312 22.886719 43.101562 22.609375 43.441406 22.609375 Z M 43.441406 22.609375 "/>
<path style=" stroke:none;fill-rule:nonzero;fill:rgb(0%,0%,0%);fill-opacity:1;" d="M 45.097656 15.0625 L 45.40625 15.0625 C 45.546875 15.0625 45.65625 15.171875 45.65625 15.308594 L 45.65625 47.855469 C 45.65625 47.992188 45.546875 48.101562 45.40625 48.101562 L 45.097656 48.101562 C 44.960938 48.101562 44.847656 47.992188 44.847656 47.855469 L 44.847656 15.308594 C 44.847656 15.171875 44.960938 15.0625 45.097656 15.0625 Z M 45.097656 15.0625 "/>
<path style=" stroke:none;fill-rule:nonzero;fill:rgb(0%,0%,0%);fill-opacity:1;" d="M 41.203125 21.664062 C 41.203125 21.914062 41.003906 22.136719 40.757812 22.136719 C 40.507812 22.136719 40.285156 21.914062 40.285156 21.664062 L 40.285156 18.058594 L 38.21875 18.828125 L 38.21875 22.757812 C 38.21875 23.007812 37.996094 23.230469 37.746094 23.230469 C 37.5 23.230469 37.300781 23.007812 37.300781 22.757812 L 37.300781 19.152344 L 36.503906 19.449219 C 36.453125 19.476562 36.378906 19.476562 36.328125 19.476562 C 36.054688 19.476562 35.832031 19.25 35.832031 18.976562 L 35.832031 17.484375 C 35.832031 17.285156 35.957031 17.085938 36.15625 17.011719 L 37.300781 16.613281 L 37.300781 12.636719 L 36.503906 12.910156 C 36.453125 12.933594 36.378906 12.933594 36.328125 12.933594 C 36.054688 12.933594 35.832031 12.710938 35.832031 12.4375 L 35.832031 10.945312 C 35.832031 10.746094 35.957031 10.570312 36.15625 10.496094 L 37.300781 10.074219 L 37.300781 6.144531 C 37.300781 5.894531 37.5 5.671875 37.746094 5.671875 C 37.996094 5.671875 38.21875 5.894531 38.21875 6.144531 L 38.21875 9.75 L 40.285156 8.980469 L 40.285156 5.050781 C 40.285156 4.800781 40.507812 4.578125 40.757812 4.578125 C 41.003906 4.578125 41.203125 4.800781 41.203125 5.050781 L 41.203125 8.65625 L 42 8.355469 C 42.050781 8.332031 42.125 8.332031 42.175781 8.332031 C 42.449219 8.332031 42.671875 8.554688 42.671875 8.828125 L 42.671875 10.320312 C 42.671875 10.519531 42.546875 10.71875 42.347656 10.792969 L 41.203125 11.191406 L 41.203125 15.171875 L 42 14.898438 C 42.050781 14.875 42.125 14.875 42.175781 14.875 C 42.449219 14.875 42.671875 15.097656 42.671875 15.371094 L 42.671875 16.863281 C 42.671875 17.0625 42.546875 17.238281 42.347656 17.3125 L 41.203125 17.734375 Z M 38.21875 12.285156 L 38.21875 16.265625 L 40.285156 15.519531 L 40.285156 11.539062 Z M 38.21875 12.285156 "/>
<path style=" stroke:none;fill-rule:nonzero;fill:rgb(0%,0%,0%);fill-opacity:1;" d="M 34.589844 34.101562 C 34.589844 34.347656 34.390625 34.574219 34.140625 34.574219 C 33.890625 34.574219 33.667969 34.347656 33.667969 34.101562 L 33.667969 30.492188 L 31.605469 31.265625 L 31.605469 35.195312 C 31.605469 35.441406 31.378906 35.667969 31.132812 35.667969 C 30.882812 35.667969 30.683594 35.441406 30.683594 35.195312 L 30.683594 31.589844 L 29.886719 31.886719 C 29.835938 31.910156 29.761719 31.910156 29.714844 31.910156 C 29.441406 31.910156 29.214844 31.6875 29.214844 31.414062 L 29.214844 29.921875 C 29.214844 29.722656 29.339844 29.523438 29.539062 29.449219 L 30.683594 29.050781 L 30.683594 25.070312 L 29.886719 25.34375 C 29.835938 25.371094 29.761719 25.371094 29.714844 25.371094 C 29.441406 25.371094 29.214844 25.144531 29.214844 24.871094 L 29.214844 23.378906 C 29.214844 23.179688 29.339844 23.007812 29.539062 22.933594 L 30.683594 22.507812 L 30.683594 18.578125 C 30.683594 18.332031 30.882812 18.105469 31.132812 18.105469 C 31.378906 18.105469 31.605469 18.332031 31.605469 18.578125 L 31.605469 22.1875 L 33.667969 21.414062 L 33.667969 17.484375 C 33.667969 17.238281 33.890625 17.011719 34.140625 17.011719 C 34.390625 17.011719 34.589844 17.238281 34.589844 17.484375 L 34.589844 21.089844 L 35.382812 20.792969 C 35.433594 20.769531 35.507812 20.769531 35.558594 20.769531 C 35.832031 20.769531 36.054688 20.992188 36.054688 21.265625 L 36.054688 22.757812 C 36.054688 22.957031 35.929688 23.15625 35.734375 23.230469 L 34.589844 23.628906 L 34.589844 27.609375 L 35.382812 27.335938 C 35.433594 27.308594 35.507812 27.308594 35.558594 27.308594 C 35.832031 27.308594 36.054688 27.535156 36.054688 27.808594 L 36.054688 29.300781 C 36.054688 29.5 35.929688 29.671875 35.734375 29.746094 L 34.589844 30.171875 Z M 31.605469 24.722656 L 31.605469 28.703125 L 33.667969 27.957031 L 33.667969 23.976562 Z M 31.605469 24.722656 "/>
<path style=" stroke:none;fill-rule:nonzero;fill:rgb(0%,0%,0%);fill-opacity:1;" d="M 16.152344 63.898438 L 16.003906 63.898438 C 13.316406 63.898438 11.152344 61.707031 11.152344 58.996094 C 11.152344 57.554688 12.46875 56.4375 13.9375 56.4375 C 15.28125 56.4375 16.300781 57.605469 16.300781 58.996094 C 16.300781 60.289062 15.230469 61.359375 13.9375 61.359375 C 13.664062 61.359375 13.414062 61.3125 13.167969 61.210938 C 13.8125 62.179688 14.859375 62.828125 16.078125 62.828125 L 16.175781 62.828125 Z M 21 53.152344 C 22.691406 52.554688 23.8125 50.789062 23.8125 49.074219 C 23.8125 46.835938 22.171875 44.621094 19.507812 44.347656 C 20.105469 47.234375 20.652344 50.09375 21 53.152344 Z M 11.375 47.40625 C 11.375 50.765625 14.585938 53.550781 17.941406 53.550781 C 18.640625 53.550781 19.308594 53.5 19.980469 53.402344 C 19.632812 50.242188 19.0625 47.308594 18.414062 44.347656 C 16.449219 44.546875 15.332031 45.863281 15.332031 47.308594 C 15.332031 48.402344 15.953125 49.570312 17.34375 50.367188 C 17.46875 50.492188 17.519531 50.617188 17.519531 50.738281 C 17.519531 51.011719 17.269531 51.289062 16.972656 51.289062 C 16.898438 51.289062 16.824219 51.261719 16.75 51.238281 C 14.757812 50.167969 13.839844 48.378906 13.839844 46.636719 C 13.839844 44.445312 15.28125 42.308594 17.816406 41.734375 C 17.46875 40.292969 17.097656 38.824219 16.675781 37.382812 C 14.011719 40.394531 11.375 43.425781 11.375 47.40625 Z M 17.867188 54.621094 C 13.191406 54.621094 9.585938 50.34375 9.585938 45.316406 C 9.585938 40.914062 12.84375 37.707031 15.753906 34.347656 C 15.28125 32.808594 14.832031 31.238281 14.632812 29.625 C 14.484375 28.328125 14.460938 27.035156 14.460938 25.742188 C 14.460938 22.882812 15.828125 20.171875 18.167969 18.480469 C 18.316406 18.355469 18.515625 18.355469 18.664062 18.480469 C 20.429688 20.570312 21.972656 24.574219 21.972656 27.382812 C 21.972656 30.941406 19.832031 33.726562 17.496094 36.4375 C 18.015625 38.128906 18.464844 39.871094 18.886719 41.585938 C 18.988281 41.585938 19.113281 41.5625 19.210938 41.5625 C 23.066406 41.5625 25.578125 44.746094 25.578125 48.054688 C 25.578125 49.945312 24.757812 51.882812 22.917969 53.277344 C 22.371094 53.699219 21.746094 53.972656 21.101562 54.171875 C 21.175781 55.042969 21.226562 55.914062 21.226562 56.785156 C 21.226562 57.257812 21.199219 57.753906 21.175781 58.226562 C 21 61.1875 18.988281 63.824219 16.152344 63.898438 L 16.175781 62.828125 C 18.488281 62.777344 19.980469 60.539062 20.132812 58.078125 C 20.15625 57.628906 20.179688 57.15625 20.179688 56.710938 C 20.179688 55.9375 20.15625 55.191406 20.082031 54.421875 C 19.359375 54.546875 18.640625 54.621094 17.867188 54.621094 Z M 20.179688 25.320312 C 20.179688 23.953125 20.082031 23.355469 19.683594 22.113281 C 17.222656 23.304688 15.652344 25.816406 15.652344 28.554688 C 15.652344 30.394531 16.101562 31.863281 16.550781 33.378906 C 18.539062 30.964844 20.179688 28.453125 20.179688 25.320312 Z M 20.179688 25.320312 "/>
<path style=" stroke:none;fill-rule:nonzero;fill:rgb(0%,0%,0%);fill-opacity:1;" d="M 50.269531 10.519531 C 51.636719 10.519531 52.957031 11.21875 52.957031 12.734375 C 52.957031 14.5 51.589844 15.746094 50.417969 16.441406 C 49.550781 16.964844 48.554688 17.285156 47.535156 17.285156 C 46.167969 17.285156 44.847656 16.589844 44.847656 15.074219 C 44.847656 13.308594 46.214844 12.0625 47.386719 11.367188 C 48.257812 10.84375 49.25 10.519531 50.269531 10.519531 Z M 50.269531 10.519531 "/>
<path style=" stroke:none;fill-rule:nonzero;fill:rgb(0%,0%,0%);fill-opacity:1;" d="M 50.269531 16.738281 C 51.636719 16.738281 52.957031 17.433594 52.957031 18.953125 C 52.957031 20.71875 51.589844 21.960938 50.417969 22.660156 C 49.550781 23.179688 48.554688 23.503906 47.535156 23.503906 C 46.167969 23.503906 44.847656 22.808594 44.847656 21.289062 C 44.847656 19.523438 46.214844 18.28125 47.386719 17.585938 C 48.257812 17.0625 49.25 16.738281 50.269531 16.738281 Z M 50.269531 16.738281 "/>
<path style=" stroke:none;fill-rule:nonzero;fill:rgb(0%,0%,0%);fill-opacity:1;" d="M 50.269531 22.957031 C 51.636719 22.957031 52.957031 23.652344 52.957031 25.171875 C 52.957031 26.9375 51.589844 28.179688 50.417969 28.875 C 49.550781 29.398438 48.554688 29.722656 47.535156 29.722656 C 46.167969 29.722656 44.847656 29.027344 44.847656 27.507812 C 44.847656 25.742188 46.214844 24.5 47.386719 23.804688 C 48.257812 23.28125 49.25 22.957031 50.269531 22.957031 Z M 50.269531 22.957031 "/>
</g>
</svg>
