<?xml version="1.0" encoding="UTF-8"?>
<svg xmlns="http://www.w3.org/2000/svg" xmlns:xlink="http://www.w3.org/1999/xlink" width="80.887811pt" height="56.669749pt" viewBox="0 0 80.887811 56.669749" version="1.1">
<g id="surface1">
<path style="fill:none;stroke-width:0.1;stroke-linecap:round;stroke-linejoin:round;stroke:rgb(0%,0%,0%);stroke-opacity:1;stroke-miterlimit:4;" d="M 0.049863 0.0000956673 L 10.621865 0.0000956673 " transform="matrix(6.218149,0,0,6.218149,4.561038,37.905655)"/>
<path style="fill:none;stroke-width:0.1;stroke-linecap:round;stroke-linejoin:round;stroke:rgb(0%,0%,0%);stroke-opacity:1;stroke-miterlimit:4;" d="M 0.049863 -0.000000981293 L 10.621865 -0.000000981293 " transform="matrix(6.218149,0,0,6.218149,4.561038,31.687506)"/>
<path style="fill:none;stroke-width:0.1;stroke-linecap:round;stroke-linejoin:round;stroke:rgb(0%,0%,0%);stroke-opacity:1;stroke-miterlimit:4;" d="M 0.049863 -0.0000976299 L 10.621865 -0.0000976299 " transform="matrix(6.218149,0,0,6.218149,4.561038,25.469357)"/>
<path style="fill:none;stroke-width:0.1;stroke-linecap:round;stroke-linejoin:round;stroke:rgb(0%,0%,0%);stroke-opacity:1;stroke-miterlimit:4;" d="M 0.049863 -0.00019404 L 10.621865 -0.00019404 " transform="matrix(6.218149,0,0,6.218149,4.561038,19.251207)"/>
<path style="fill:none;stroke-width:0.1;stroke-linecap:round;stroke-linejoin:round;stroke:rgb(0%,0%,0%);stroke-opacity:1;stroke-miterlimit:4;" d="M 0.049863 -0.000290689 L 10.621865 -0.000290689 " transform="matrix(6.218149,0,0,6.218149,4.561038,13.033058)"/>
<path style=" stroke:none;fill-rule:nonzero;fill:rgb(0%,0%,0%);fill-opacity:1;" d="M 52.5 17.300781 L 52.808594 17.300781 C 52.949219 17.300781 53.058594 17.410156 53.058594 17.546875 L 53.058594 48.019531 C 53.058594 48.15625 52.949219 48.269531 52.808594 48.269531 L 52.5 48.269531 C 52.363281 48.269531 52.25 48.15625 52.25 48.019531 L 52.25 17.546875 C 52.25 17.410156 52.363281 17.300781 52.5 17.300781 Z M 52.5 17.300781 "/>
<path style=" stroke:none;fill-rule:nonzero;fill:rgb(0%,0%,0%);fill-opacity:1;" d="M 45.769531 15.121094 L 45.746094 16.765625 L 45.746094 17.039062 C 45.746094 17.585938 45.769531 18.132812 45.847656 18.679688 C 46.964844 17.734375 48.160156 16.6875 48.160156 15.222656 C 48.160156 14.402344 47.8125 13.554688 47.089844 13.554688 C 46.320312 13.554688 45.796875 14.300781 45.769531 15.121094 Z M 44.726562 19.574219 L 44.429688 4.773438 C 44.628906 4.652344 44.875 4.578125 45.101562 4.578125 C 45.324219 4.578125 45.570312 4.652344 45.769531 4.773438 L 45.597656 13.355469 C 46.21875 12.835938 47.039062 12.511719 47.859375 12.511719 C 49.152344 12.511719 50.074219 13.703125 50.074219 15.046875 C 50.074219 17.039062 47.933594 17.957031 46.417969 19.25 C 46.042969 19.574219 45.820312 20.195312 45.296875 20.195312 C 44.976562 20.195312 44.726562 19.921875 44.726562 19.574219 Z M 44.726562 19.574219 "/>
<path style=" stroke:none;fill-rule:nonzero;fill:rgb(0%,0%,0%);fill-opacity:1;" d="M 35.425781 21.339844 L 35.398438 22.980469 C 35.398438 23.082031 35.375 23.15625 35.375 23.253906 C 35.375 23.804688 35.398438 24.351562 35.472656 24.898438 C 36.566406 23.976562 37.636719 22.859375 37.636719 21.441406 C 37.636719 20.621094 37.363281 19.773438 36.644531 19.773438 C 35.898438 19.773438 35.449219 20.519531 35.425781 21.339844 Z M 35.398438 10.992188 L 35.25 19.574219 C 35.847656 19.050781 36.617188 18.730469 37.414062 18.730469 C 38.730469 18.730469 39.703125 19.898438 39.703125 21.242188 C 39.703125 23.230469 37.5625 24.175781 36.046875 25.46875 C 35.671875 25.792969 35.472656 26.414062 34.953125 26.414062 C 34.628906 26.414062 34.355469 26.140625 34.355469 25.792969 L 34.304688 23.15625 C 33.632812 24 32.664062 24.699219 31.867188 25.46875 C 31.542969 25.792969 31.394531 26.414062 30.898438 26.414062 C 30.574219 26.414062 30.324219 26.117188 30.324219 25.769531 L 30.027344 10.992188 C 30.226562 10.871094 30.472656 10.792969 30.699219 10.792969 C 30.921875 10.792969 31.171875 10.871094 31.371094 10.992188 L 31.195312 19.574219 C 31.617188 19.050781 32.265625 18.730469 32.9375 18.730469 C 33.433594 18.730469 33.882812 18.929688 34.230469 19.25 L 34.054688 10.992188 C 34.253906 10.871094 34.503906 10.792969 34.726562 10.792969 C 34.953125 10.792969 35.199219 10.871094 35.398438 10.992188 Z M 31.121094 23.007812 L 31.121094 23.253906 C 31.121094 23.828125 31.144531 24.375 31.222656 24.945312 C 32.191406 24 32.988281 22.808594 32.988281 21.441406 C 32.988281 20.644531 32.835938 19.773438 32.164062 19.773438 C 31.496094 19.773438 31.195312 20.542969 31.171875 21.316406 Z M 31.121094 23.007812 "/>
<path style=" stroke:none;fill-rule:nonzero;fill:rgb(0%,0%,0%);fill-opacity:1;" d="M 42.289062 27.558594 L 42.265625 29.199219 L 42.265625 29.472656 C 42.265625 30.019531 42.289062 30.566406 42.363281 31.117188 C 43.484375 30.171875 44.675781 29.125 44.675781 27.65625 C 44.675781 26.835938 44.328125 25.992188 43.605469 25.992188 C 42.835938 25.992188 42.3125 26.738281 42.289062 27.558594 Z M 41.246094 32.011719 L 40.945312 17.210938 C 41.144531 17.085938 41.394531 17.011719 41.617188 17.011719 C 41.839844 17.011719 42.089844 17.085938 42.289062 17.210938 L 42.113281 25.792969 C 42.738281 25.269531 43.558594 24.945312 44.378906 24.945312 C 45.671875 24.945312 46.59375 26.140625 46.59375 27.484375 C 46.59375 29.472656 44.453125 30.394531 42.9375 31.6875 C 42.5625 32.011719 42.339844 32.632812 41.816406 32.632812 C 41.492188 32.632812 41.246094 32.359375 41.246094 32.011719 Z M 41.246094 32.011719 "/>
<path style=" stroke:none;fill-rule:nonzero;fill:rgb(0%,0%,0%);fill-opacity:1;" d="M 23.390625 22.359375 C 23.390625 21.664062 23.960938 21.089844 24.65625 21.089844 C 25.355469 21.089844 25.925781 21.664062 25.925781 22.359375 C 25.925781 23.058594 25.355469 23.628906 24.65625 23.628906 C 23.960938 23.628906 23.390625 23.058594 23.390625 22.359375 Z M 23.390625 16.140625 C 23.390625 15.445312 23.960938 14.875 24.65625 14.875 C 25.355469 14.875 25.925781 15.445312 25.925781 16.140625 C 25.925781 16.839844 25.355469 17.410156 24.65625 17.410156 C 23.960938 17.410156 23.390625 16.839844 23.390625 16.140625 Z M 15.304688 12.710938 C 19.585938 12.710938 22.59375 14.898438 22.59375 18.953125 C 22.59375 25.496094 16.050781 29.25 9.757812 31.910156 C 9.683594 31.984375 9.609375 32.011719 9.535156 32.011719 C 9.363281 32.011719 9.210938 31.863281 9.210938 31.6875 C 9.210938 31.613281 9.238281 31.539062 9.3125 31.464844 C 14.335938 28.527344 19.558594 24.871094 19.558594 19.203125 C 19.558594 16.214844 17.992188 13.355469 15.304688 13.355469 C 13.464844 13.355469 12.097656 14.699219 11.476562 16.492188 C 11.75 16.367188 12.023438 16.292969 12.320312 16.292969 C 13.6875 16.292969 14.808594 17.410156 14.808594 18.777344 C 14.808594 20.222656 13.714844 21.414062 12.320312 21.414062 C 10.828125 21.414062 9.535156 20.246094 9.535156 18.777344 C 9.535156 15.46875 12.074219 12.710938 15.304688 12.710938 Z M 15.304688 12.710938 "/>
<path style=" stroke:none;fill-rule:nonzero;fill:rgb(0%,0%,0%);fill-opacity:1;" d="M 57.671875 12.757812 C 59.039062 12.757812 60.359375 13.457031 60.359375 14.972656 C 60.359375 16.738281 58.992188 17.984375 57.820312 18.679688 C 56.953125 19.203125 55.957031 19.523438 54.9375 19.523438 C 53.570312 19.523438 52.25 18.828125 52.25 17.3125 C 52.25 15.546875 53.617188 14.300781 54.789062 13.605469 C 55.65625 13.082031 56.652344 12.757812 57.671875 12.757812 Z M 57.671875 12.757812 "/>
<path style=" stroke:none;fill-rule:nonzero;fill:rgb(0%,0%,0%);fill-opacity:1;" d="M 57.671875 18.976562 C 59.039062 18.976562 60.359375 19.675781 60.359375 21.191406 C 60.359375 22.957031 58.992188 24.199219 57.820312 24.898438 C 56.953125 25.417969 55.957031 25.742188 54.9375 25.742188 C 53.570312 25.742188 52.25 25.046875 52.25 23.527344 C 52.25 21.761719 53.617188 20.519531 54.789062 19.824219 C 55.65625 19.300781 56.652344 18.976562 57.671875 18.976562 Z M 57.671875 18.976562 "/>
<path style=" stroke:none;fill-rule:nonzero;fill:rgb(0%,0%,0%);fill-opacity:1;" d="M 57.671875 25.195312 C 59.039062 25.195312 60.359375 25.890625 60.359375 27.410156 C 60.359375 29.175781 58.992188 30.417969 57.820312 31.117188 C 56.953125 31.636719 55.957031 31.960938 54.9375 31.960938 C 53.570312 31.960938 52.25 31.265625 52.25 29.746094 C 52.25 27.980469 53.617188 26.738281 54.789062 26.042969 C 55.65625 25.519531 56.652344 25.195312 57.671875 25.195312 Z M 57.671875 25.195312 "/>
</g>
</svg>
