<?xml version="1.0" encoding="UTF-8"?>
<svg xmlns="http://www.w3.org/2000/svg" xmlns:xlink="http://www.w3.org/1999/xlink" width="75.335285pt" height="53.171528pt" viewBox="0 0 75.335285 53.171528" version="1.1">
<g id="surface1">
<path style="fill:none;stroke-width:0.1;stroke-linecap:round;stroke-linejoin:round;stroke:rgb(0%,0%,0%);stroke-opacity:1;stroke-miterlimit:4;" d="M 0.049863 0.0000610068 L 9.785729 0.0000610068 " transform="matrix(6.218149,0,0,6.218149,4.561038,32.409777)"/>
<path style="fill:none;stroke-width:0.1;stroke-linecap:round;stroke-linejoin:round;stroke:rgb(0%,0%,0%);stroke-opacity:1;stroke-miterlimit:4;" d="M 0.049863 -0.0000356418 L 9.785729 -0.0000356418 " transform="matrix(6.218149,0,0,6.218149,4.561038,26.191628)"/>
<path style="fill:none;stroke-width:0.1;stroke-linecap:round;stroke-linejoin:round;stroke:rgb(0%,0%,0%);stroke-opacity:1;stroke-miterlimit:4;" d="M 0.049863 -0.00013229 L 9.785729 -0.00013229 " transform="matrix(6.218149,0,0,6.218149,4.561038,19.973479)"/>
<path style="fill:none;stroke-width:0.1;stroke-linecap:round;stroke-linejoin:round;stroke:rgb(0%,0%,0%);stroke-opacity:1;stroke-miterlimit:4;" d="M 0.049863 -0.000228939 L 9.785729 -0.000228939 " transform="matrix(6.218149,0,0,6.218149,4.561038,13.75533)"/>
<path style="fill:none;stroke-width:0.1;stroke-linecap:round;stroke-linejoin:round;stroke:rgb(0%,0%,0%);stroke-opacity:1;stroke-miterlimit:4;" d="M 0.049863 0.000302495 L 9.785729 0.000302495 " transform="matrix(6.218149,0,0,6.218149,4.561038,7.537182)"/>
<path style=" stroke:none;fill-rule:nonzero;fill:rgb(0%,0%,0%);fill-opacity:1;" d="M 47.300781 14.914062 L 47.613281 14.914062 C 47.75 14.914062 47.859375 15.023438 47.859375 15.160156 L 47.859375 44.597656 C 47.859375 44.734375 47.75 44.847656 47.613281 44.847656 L 47.300781 44.847656 C 47.164062 44.847656 47.050781 44.734375 47.050781 44.597656 L 47.050781 15.160156 C 47.050781 15.023438 47.164062 14.914062 47.300781 14.914062 Z M 47.300781 14.914062 "/>
<path style=" stroke:none;fill-rule:nonzero;fill:rgb(0%,0%,0%);fill-opacity:1;" d="M 43.410156 21.515625 C 43.410156 21.765625 43.210938 21.988281 42.960938 21.988281 C 42.710938 21.988281 42.488281 21.765625 42.488281 21.515625 L 42.488281 17.910156 L 40.421875 18.679688 L 40.421875 22.609375 C 40.421875 22.859375 40.199219 23.082031 39.949219 23.082031 C 39.703125 23.082031 39.503906 22.859375 39.503906 22.609375 L 39.503906 19.003906 L 38.707031 19.300781 C 38.65625 19.328125 38.582031 19.328125 38.535156 19.328125 C 38.257812 19.328125 38.035156 19.101562 38.035156 18.828125 L 38.035156 17.335938 C 38.035156 17.136719 38.160156 16.9375 38.359375 16.863281 L 39.503906 16.464844 L 39.503906 12.488281 L 38.707031 12.761719 C 38.65625 12.785156 38.582031 12.785156 38.535156 12.785156 C 38.257812 12.785156 38.035156 12.5625 38.035156 12.289062 L 38.035156 10.796875 C 38.035156 10.597656 38.160156 10.421875 38.359375 10.347656 L 39.503906 9.925781 L 39.503906 5.996094 C 39.503906 5.746094 39.703125 5.523438 39.949219 5.523438 C 40.199219 5.523438 40.421875 5.746094 40.421875 5.996094 L 40.421875 9.601562 L 42.488281 8.832031 L 42.488281 4.902344 C 42.488281 4.652344 42.710938 4.429688 42.960938 4.429688 C 43.210938 4.429688 43.410156 4.652344 43.410156 4.902344 L 43.410156 8.507812 L 44.203125 8.207031 C 44.253906 8.183594 44.328125 8.183594 44.378906 8.183594 C 44.652344 8.183594 44.875 8.40625 44.875 8.679688 L 44.875 10.171875 C 44.875 10.371094 44.75 10.570312 44.550781 10.644531 L 43.410156 11.042969 L 43.410156 15.023438 L 44.203125 14.75 C 44.253906 14.726562 44.328125 14.726562 44.378906 14.726562 C 44.652344 14.726562 44.875 14.949219 44.875 15.222656 L 44.875 16.714844 C 44.875 16.914062 44.75 17.089844 44.550781 17.164062 L 43.410156 17.585938 Z M 40.421875 12.136719 L 40.421875 16.117188 L 42.488281 15.371094 L 42.488281 11.390625 Z M 40.421875 12.136719 "/>
<path style=" stroke:none;fill-rule:nonzero;fill:rgb(0%,0%,0%);fill-opacity:1;" d="M 35.324219 27.734375 C 35.324219 27.984375 35.125 28.207031 34.878906 28.207031 C 34.628906 28.207031 34.40625 27.984375 34.40625 27.734375 L 34.40625 24.128906 L 32.339844 24.898438 L 32.339844 28.828125 C 32.339844 29.078125 32.117188 29.300781 31.867188 29.300781 C 31.617188 29.300781 31.417969 29.078125 31.417969 28.828125 L 31.417969 25.222656 L 30.625 25.519531 C 30.574219 25.546875 30.5 25.546875 30.449219 25.546875 C 30.175781 25.546875 29.953125 25.320312 29.953125 25.046875 L 29.953125 23.554688 C 29.953125 23.355469 30.078125 23.15625 30.277344 23.082031 L 31.417969 22.683594 L 31.417969 18.703125 L 30.625 18.980469 C 30.574219 19.003906 30.5 19.003906 30.449219 19.003906 C 30.175781 19.003906 29.953125 18.78125 29.953125 18.507812 L 29.953125 17.011719 C 29.953125 16.816406 30.078125 16.640625 30.277344 16.566406 L 31.417969 16.144531 L 31.417969 12.214844 C 31.417969 11.964844 31.617188 11.742188 31.867188 11.742188 C 32.117188 11.742188 32.339844 11.964844 32.339844 12.214844 L 32.339844 15.820312 L 34.40625 15.046875 L 34.40625 11.117188 C 34.40625 10.871094 34.628906 10.644531 34.878906 10.644531 C 35.125 10.644531 35.324219 10.871094 35.324219 11.117188 L 35.324219 14.726562 L 36.121094 14.425781 C 36.171875 14.402344 36.246094 14.402344 36.292969 14.402344 C 36.566406 14.402344 36.792969 14.625 36.792969 14.898438 L 36.792969 16.390625 C 36.792969 16.589844 36.667969 16.789062 36.46875 16.863281 L 35.324219 17.261719 L 35.324219 21.242188 L 36.121094 20.96875 C 36.171875 20.945312 36.246094 20.945312 36.292969 20.945312 C 36.566406 20.945312 36.792969 21.167969 36.792969 21.441406 L 36.792969 22.933594 C 36.792969 23.132812 36.667969 23.304688 36.46875 23.382812 L 35.324219 23.804688 Z M 32.339844 18.355469 L 32.339844 22.335938 L 34.40625 21.589844 L 34.40625 17.609375 Z M 32.339844 18.355469 "/>
<path style=" stroke:none;fill-rule:nonzero;fill:rgb(0%,0%,0%);fill-opacity:1;" d="M 23.390625 16.863281 C 23.390625 16.167969 23.960938 15.597656 24.65625 15.597656 C 25.355469 15.597656 25.925781 16.167969 25.925781 16.863281 C 25.925781 17.5625 25.355469 18.132812 24.65625 18.132812 C 23.960938 18.132812 23.390625 17.5625 23.390625 16.863281 Z M 23.390625 10.644531 C 23.390625 9.949219 23.960938 9.378906 24.65625 9.378906 C 25.355469 9.378906 25.925781 9.949219 25.925781 10.644531 C 25.925781 11.34375 25.355469 11.914062 24.65625 11.914062 C 23.960938 11.914062 23.390625 11.34375 23.390625 10.644531 Z M 15.304688 7.214844 C 19.585938 7.214844 22.59375 9.402344 22.59375 13.457031 C 22.59375 20 16.050781 23.753906 9.757812 26.414062 C 9.683594 26.488281 9.609375 26.515625 9.535156 26.515625 C 9.363281 26.515625 9.210938 26.367188 9.210938 26.191406 C 9.210938 26.117188 9.238281 26.042969 9.3125 25.96875 C 14.335938 23.03125 19.558594 19.375 19.558594 13.707031 C 19.558594 10.722656 17.992188 7.859375 15.304688 7.859375 C 13.464844 7.859375 12.097656 9.203125 11.476562 10.996094 C 11.75 10.871094 12.023438 10.796875 12.320312 10.796875 C 13.6875 10.796875 14.808594 11.914062 14.808594 13.28125 C 14.808594 14.726562 13.714844 15.917969 12.320312 15.917969 C 10.828125 15.917969 9.535156 14.75 9.535156 13.28125 C 9.535156 9.976562 12.074219 7.214844 15.304688 7.214844 Z M 15.304688 7.214844 "/>
<path style=" stroke:none;fill-rule:nonzero;fill:rgb(0%,0%,0%);fill-opacity:1;" d="M 52.472656 10.371094 C 53.84375 10.371094 55.160156 11.070312 55.160156 12.585938 C 55.160156 14.351562 53.792969 15.597656 52.625 16.292969 C 51.753906 16.816406 50.757812 17.136719 49.738281 17.136719 C 48.371094 17.136719 47.050781 16.441406 47.050781 14.925781 C 47.050781 13.160156 48.421875 11.914062 49.589844 11.21875 C 50.460938 10.695312 51.453125 10.371094 52.472656 10.371094 Z M 52.472656 10.371094 "/>
<path style=" stroke:none;fill-rule:nonzero;fill:rgb(0%,0%,0%);fill-opacity:1;" d="M 52.472656 16.589844 C 53.84375 16.589844 55.160156 17.289062 55.160156 18.804688 C 55.160156 20.570312 53.792969 21.8125 52.625 22.511719 C 51.753906 23.03125 50.757812 23.355469 49.738281 23.355469 C 48.371094 23.355469 47.050781 22.660156 47.050781 21.140625 C 47.050781 19.375 48.421875 18.132812 49.589844 17.4375 C 50.460938 16.914062 51.453125 16.589844 52.472656 16.589844 Z M 52.472656 16.589844 "/>
<path style=" stroke:none;fill-rule:nonzero;fill:rgb(0%,0%,0%);fill-opacity:1;" d="M 52.472656 22.808594 C 53.84375 22.808594 55.160156 23.503906 55.160156 25.023438 C 55.160156 26.789062 53.792969 28.03125 52.625 28.730469 C 51.753906 29.25 50.757812 29.574219 49.738281 29.574219 C 48.371094 29.574219 47.050781 28.878906 47.050781 27.359375 C 47.050781 25.59375 48.421875 24.351562 49.589844 23.65625 C 50.460938 23.132812 51.453125 22.808594 52.472656 22.808594 Z M 52.472656 22.808594 "/>
</g>
</svg>
