<?xml version="1.0" encoding="UTF-8"?>
<svg xmlns="http://www.w3.org/2000/svg" xmlns:xlink="http://www.w3.org/1999/xlink" width="82.054772pt" height="56.492415pt" viewBox="0 0 82.054772 56.492415" version="1.1">
<g id="surface1">
<path style="fill:none;stroke-width:0.1;stroke-linecap:round;stroke-linejoin:round;stroke:rgb(0%,0%,0%);stroke-opacity:1;stroke-miterlimit:4;" d="M 0.049863 0.0000610068 L 10.797133 0.0000610068 " transform="matrix(6.218149,0,0,6.218149,4.561038,32.409777)"/>
<path style="fill:none;stroke-width:0.1;stroke-linecap:round;stroke-linejoin:round;stroke:rgb(0%,0%,0%);stroke-opacity:1;stroke-miterlimit:4;" d="M 0.049863 -0.0000356418 L 10.797133 -0.0000356418 " transform="matrix(6.218149,0,0,6.218149,4.561038,26.191628)"/>
<path style="fill:none;stroke-width:0.1;stroke-linecap:round;stroke-linejoin:round;stroke:rgb(0%,0%,0%);stroke-opacity:1;stroke-miterlimit:4;" d="M 0.049863 -0.00013229 L 10.797133 -0.00013229 " transform="matrix(6.218149,0,0,6.218149,4.561038,19.973479)"/>
<path style="fill:none;stroke-width:0.1;stroke-linecap:round;stroke-linejoin:round;stroke:rgb(0%,0%,0%);stroke-opacity:1;stroke-miterlimit:4;" d="M 0.049863 -0.000228939 L 10.797133 -0.000228939 " transform="matrix(6.218149,0,0,6.218149,4.561038,13.75533)"/>
<path style="fill:none;stroke-width:0.1;stroke-linecap:round;stroke-linejoin:round;stroke:rgb(0%,0%,0%);stroke-opacity:1;stroke-miterlimit:4;" d="M 0.049863 0.000302495 L 10.797133 0.000302495 " transform="matrix(6.218149,0,0,6.218149,4.561038,7.537182)"/>
<path style=" stroke:none;fill-rule:nonzero;fill:rgb(0%,0%,0%);fill-opacity:1;" d="M 51.9375 38.007812 L 62.859375 38.007812 C 63.203125 38.007812 63.480469 38.285156 63.480469 38.628906 C 63.480469 38.972656 63.203125 39.25 62.859375 39.25 L 51.9375 39.25 C 51.59375 39.25 51.316406 38.972656 51.316406 38.628906 C 51.316406 38.285156 51.59375 38.007812 51.9375 38.007812 Z M 51.9375 38.007812 "/>
<path style=" stroke:none;fill-rule:nonzero;fill:rgb(0%,0%,0%);fill-opacity:1;" d="M 60.894531 4.429688 L 61.203125 4.429688 C 61.339844 4.429688 61.453125 4.539062 61.453125 4.675781 L 61.453125 37.222656 C 61.453125 37.359375 61.339844 37.472656 61.203125 37.472656 L 60.894531 37.472656 C 60.753906 37.472656 60.644531 37.359375 60.644531 37.222656 L 60.644531 4.675781 C 60.644531 4.539062 60.753906 4.429688 60.894531 4.429688 Z M 60.894531 4.429688 "/>
<path style=" stroke:none;fill-rule:nonzero;fill:rgb(0%,0%,0%);fill-opacity:1;" d="M 49.699219 33.953125 C 49.699219 34.199219 49.5 34.425781 49.25 34.425781 C 49.003906 34.425781 48.777344 34.199219 48.777344 33.953125 L 48.777344 30.34375 L 46.714844 31.117188 L 46.714844 35.046875 C 46.714844 35.296875 46.492188 35.519531 46.242188 35.519531 C 45.992188 35.519531 45.792969 35.296875 45.792969 35.046875 L 45.792969 31.441406 L 45 31.738281 C 44.949219 31.761719 44.875 31.761719 44.824219 31.761719 C 44.550781 31.761719 44.328125 31.539062 44.328125 31.265625 L 44.328125 29.773438 C 44.328125 29.574219 44.449219 29.375 44.648438 29.300781 L 45.792969 28.902344 L 45.792969 24.921875 L 45 25.195312 C 44.949219 25.222656 44.875 25.222656 44.824219 25.222656 C 44.550781 25.222656 44.328125 24.996094 44.328125 24.722656 L 44.328125 23.230469 C 44.328125 23.03125 44.449219 22.859375 44.648438 22.785156 L 45.792969 22.359375 L 45.792969 18.429688 C 45.792969 18.183594 45.992188 17.957031 46.242188 17.957031 C 46.492188 17.957031 46.714844 18.183594 46.714844 18.429688 L 46.714844 22.039062 L 48.777344 21.265625 L 48.777344 17.335938 C 48.777344 17.089844 49.003906 16.863281 49.25 16.863281 C 49.5 16.863281 49.699219 17.089844 49.699219 17.335938 L 49.699219 20.945312 L 50.496094 20.644531 C 50.542969 20.621094 50.621094 20.621094 50.667969 20.621094 C 50.941406 20.621094 51.167969 20.84375 51.167969 21.117188 L 51.167969 22.609375 C 51.167969 22.808594 51.042969 23.007812 50.84375 23.082031 L 49.699219 23.480469 L 49.699219 27.460938 L 50.496094 27.1875 C 50.542969 27.160156 50.621094 27.160156 50.667969 27.160156 C 50.941406 27.160156 51.167969 27.386719 51.167969 27.660156 L 51.167969 29.152344 C 51.167969 29.351562 51.042969 29.523438 50.84375 29.597656 L 49.699219 30.023438 Z M 46.714844 24.574219 L 46.714844 28.554688 L 48.777344 27.808594 L 48.777344 23.828125 Z M 46.714844 24.574219 "/>
<path style=" stroke:none;fill-rule:nonzero;fill:rgb(0%,0%,0%);fill-opacity:1;" d="M 33.734375 32.410156 C 34.304688 32.980469 35.125 33.105469 35.945312 33.105469 C 36.097656 33.105469 36.195312 33.207031 36.195312 33.355469 L 36.417969 35.519531 C 36.445312 35.667969 36.320312 35.792969 36.171875 35.765625 L 34.007812 35.542969 C 33.882812 35.519531 33.757812 35.417969 33.757812 35.296875 C 33.757812 34.472656 33.632812 33.652344 33.0625 33.082031 C 32.488281 33.652344 32.390625 34.472656 32.390625 35.296875 C 32.390625 35.417969 32.265625 35.519531 32.140625 35.542969 L 29.953125 35.765625 C 29.804688 35.792969 29.679688 35.667969 29.703125 35.519531 L 29.925781 33.355469 C 29.925781 33.207031 30.027344 33.105469 30.175781 33.105469 C 30.996094 33.105469 31.816406 32.980469 32.390625 32.410156 C 31.816406 31.835938 30.996094 31.714844 30.175781 31.714844 C 30.027344 31.714844 29.925781 31.613281 29.925781 31.464844 L 29.703125 29.300781 C 29.679688 29.152344 29.804688 29.027344 29.953125 29.050781 L 32.140625 29.277344 C 32.265625 29.300781 32.363281 29.398438 32.363281 29.523438 C 32.363281 30.34375 32.488281 31.167969 33.0625 31.738281 C 33.632812 31.167969 33.757812 30.34375 33.757812 29.523438 C 33.757812 29.398438 33.882812 29.300781 34.007812 29.277344 L 36.171875 29.050781 C 36.320312 29.027344 36.445312 29.152344 36.417969 29.300781 L 36.195312 31.464844 C 36.195312 31.613281 36.097656 31.714844 35.945312 31.714844 C 35.125 31.714844 34.304688 31.835938 33.734375 32.410156 Z M 33.734375 32.410156 "/>
<path style=" stroke:none;fill-rule:nonzero;fill:rgb(0%,0%,0%);fill-opacity:1;" d="M 43.082031 46.386719 C 43.082031 46.636719 42.882812 46.859375 42.636719 46.859375 C 42.386719 46.859375 42.164062 46.636719 42.164062 46.386719 L 42.164062 42.78125 L 40.097656 43.550781 L 40.097656 47.484375 C 40.097656 47.730469 39.875 47.957031 39.625 47.957031 C 39.378906 47.957031 39.179688 47.730469 39.179688 47.484375 L 39.179688 43.875 L 38.382812 44.175781 C 38.332031 44.199219 38.257812 44.199219 38.207031 44.199219 C 37.933594 44.199219 37.710938 43.976562 37.710938 43.703125 L 37.710938 42.210938 C 37.710938 42.011719 37.835938 41.8125 38.035156 41.738281 L 39.179688 41.339844 L 39.179688 37.359375 L 38.382812 37.632812 C 38.332031 37.65625 38.257812 37.65625 38.207031 37.65625 C 37.933594 37.65625 37.710938 37.433594 37.710938 37.160156 L 37.710938 35.667969 C 37.710938 35.46875 37.835938 35.296875 38.035156 35.21875 L 39.179688 34.796875 L 39.179688 30.867188 C 39.179688 30.617188 39.378906 30.394531 39.625 30.394531 C 39.875 30.394531 40.097656 30.617188 40.097656 30.867188 L 40.097656 34.472656 L 42.164062 33.703125 L 42.164062 29.773438 C 42.164062 29.523438 42.386719 29.300781 42.636719 29.300781 C 42.882812 29.300781 43.082031 29.523438 43.082031 29.773438 L 43.082031 33.378906 L 43.878906 33.082031 C 43.929688 33.054688 44.003906 33.054688 44.054688 33.054688 C 44.328125 33.054688 44.550781 33.28125 44.550781 33.554688 L 44.550781 35.046875 C 44.550781 35.246094 44.425781 35.445312 44.226562 35.519531 L 43.082031 35.917969 L 43.082031 39.894531 L 43.878906 39.621094 C 43.929688 39.597656 44.003906 39.597656 44.054688 39.597656 C 44.328125 39.597656 44.550781 39.820312 44.550781 40.09375 L 44.550781 41.585938 C 44.550781 41.785156 44.425781 41.960938 44.226562 42.035156 L 43.082031 42.457031 Z M 40.097656 37.011719 L 40.097656 40.992188 L 42.164062 40.246094 L 42.164062 36.265625 Z M 40.097656 37.011719 "/>
<path style=" stroke:none;fill-rule:nonzero;fill:rgb(0%,0%,0%);fill-opacity:1;" d="M 23.390625 16.863281 C 23.390625 16.167969 23.960938 15.597656 24.65625 15.597656 C 25.355469 15.597656 25.925781 16.167969 25.925781 16.863281 C 25.925781 17.5625 25.355469 18.132812 24.65625 18.132812 C 23.960938 18.132812 23.390625 17.5625 23.390625 16.863281 Z M 23.390625 10.644531 C 23.390625 9.949219 23.960938 9.378906 24.65625 9.378906 C 25.355469 9.378906 25.925781 9.949219 25.925781 10.644531 C 25.925781 11.34375 25.355469 11.914062 24.65625 11.914062 C 23.960938 11.914062 23.390625 11.34375 23.390625 10.644531 Z M 15.304688 7.214844 C 19.585938 7.214844 22.59375 9.402344 22.59375 13.457031 C 22.59375 20 16.050781 23.753906 9.757812 26.414062 C 9.683594 26.488281 9.609375 26.515625 9.535156 26.515625 C 9.363281 26.515625 9.210938 26.367188 9.210938 26.191406 C 9.210938 26.117188 9.238281 26.042969 9.3125 25.96875 C 14.335938 23.03125 19.558594 19.375 19.558594 13.707031 C 19.558594 10.722656 17.992188 7.859375 15.304688 7.859375 C 13.464844 7.859375 12.097656 9.203125 11.476562 10.996094 C 11.75 10.871094 12.023438 10.796875 12.320312 10.796875 C 13.6875 10.796875 14.808594 11.914062 14.808594 13.28125 C 14.808594 14.726562 13.714844 15.917969 12.320312 15.917969 C 10.828125 15.917969 9.535156 14.75 9.535156 13.28125 C 9.535156 9.976562 12.074219 7.214844 15.304688 7.214844 Z M 15.304688 7.214844 "/>
<path style=" stroke:none;fill-rule:nonzero;fill:rgb(0%,0%,0%);fill-opacity:1;" d="M 58.765625 22.808594 C 60.132812 22.808594 61.453125 23.503906 61.453125 25.023438 C 61.453125 26.789062 60.082031 28.03125 58.914062 28.730469 C 58.042969 29.25 57.050781 29.574219 56.027344 29.574219 C 54.660156 29.574219 53.34375 28.878906 53.34375 27.359375 C 53.34375 25.59375 54.710938 24.351562 55.878906 23.65625 C 56.75 23.132812 57.746094 22.808594 58.765625 22.808594 Z M 58.765625 22.808594 "/>
<path style=" stroke:none;fill-rule:nonzero;fill:rgb(0%,0%,0%);fill-opacity:1;" d="M 58.765625 29.027344 C 60.132812 29.027344 61.453125 29.722656 61.453125 31.242188 C 61.453125 33.007812 60.082031 34.25 58.914062 34.945312 C 58.042969 35.46875 57.050781 35.792969 56.027344 35.792969 C 54.660156 35.792969 53.34375 35.097656 53.34375 33.578125 C 53.34375 31.8125 54.710938 30.570312 55.878906 29.871094 C 56.75 29.351562 57.746094 29.027344 58.765625 29.027344 Z M 58.765625 29.027344 "/>
<path style=" stroke:none;fill-rule:nonzero;fill:rgb(0%,0%,0%);fill-opacity:1;" d="M 58.765625 35.246094 C 60.132812 35.246094 61.453125 35.941406 61.453125 37.457031 C 61.453125 39.226562 60.082031 40.46875 58.914062 41.164062 C 58.042969 41.6875 57.050781 42.011719 56.027344 42.011719 C 54.660156 42.011719 53.34375 41.3125 53.34375 39.796875 C 53.34375 38.03125 54.710938 36.789062 55.878906 36.089844 C 56.75 35.570312 57.746094 35.246094 58.765625 35.246094 Z M 58.765625 35.246094 "/>
</g>
</svg>
