<?xml version="1.0" encoding="UTF-8"?>
<svg xmlns="http://www.w3.org/2000/svg" xmlns:xlink="http://www.w3.org/1999/xlink" width="81.189345pt" height="68.30813pt" viewBox="0 0 81.189345 68.30813" version="1.1">
<g id="surface1">
<path style="fill:none;stroke-width:0.1;stroke-linecap:round;stroke-linejoin:round;stroke:rgb(0%,0%,0%);stroke-opacity:1;stroke-miterlimit:4;" d="M 0.049863 -0.000287501 L 10.667095 -0.000287501 " transform="matrix(6.218149,0,0,6.218149,4.561038,40.517413)"/>
<path style="fill:none;stroke-width:0.1;stroke-linecap:round;stroke-linejoin:round;stroke:rgb(0%,0%,0%);stroke-opacity:1;stroke-miterlimit:4;" d="M 0.049863 0.000244052 L 10.667095 0.000244052 " transform="matrix(6.218149,0,0,6.218149,4.561038,34.299264)"/>
<path style="fill:none;stroke-width:0.1;stroke-linecap:round;stroke-linejoin:round;stroke:rgb(0%,0%,0%);stroke-opacity:1;stroke-miterlimit:4;" d="M 0.049863 0.000147403 L 10.667095 0.000147403 " transform="matrix(6.218149,0,0,6.218149,4.561038,28.081115)"/>
<path style="fill:none;stroke-width:0.1;stroke-linecap:round;stroke-linejoin:round;stroke:rgb(0%,0%,0%);stroke-opacity:1;stroke-miterlimit:4;" d="M 0.049863 0.0000507548 L 10.667095 0.0000507548 " transform="matrix(6.218149,0,0,6.218149,4.561038,21.862966)"/>
<path style="fill:none;stroke-width:0.1;stroke-linecap:round;stroke-linejoin:round;stroke:rgb(0%,0%,0%);stroke-opacity:1;stroke-miterlimit:4;" d="M 0.049863 -0.0000458938 L 10.667095 -0.0000458938 " transform="matrix(6.218149,0,0,6.218149,4.561038,15.644817)"/>
<path style=" stroke:none;fill-rule:nonzero;fill:rgb(0%,0%,0%);fill-opacity:1;" d="M 51.125 46.113281 L 62.046875 46.113281 C 62.390625 46.113281 62.667969 46.390625 62.667969 46.734375 C 62.667969 47.078125 62.390625 47.355469 62.046875 47.355469 L 51.125 47.355469 C 50.785156 47.355469 50.503906 47.078125 50.503906 46.734375 C 50.503906 46.390625 50.785156 46.113281 51.125 46.113281 Z M 51.125 46.113281 "/>
<path style=" stroke:none;fill-rule:nonzero;fill:rgb(0%,0%,0%);fill-opacity:1;" d="M 60.082031 15.644531 L 60.394531 15.644531 C 60.53125 15.644531 60.640625 15.757812 60.640625 15.894531 L 60.640625 48.4375 C 60.640625 48.574219 60.53125 48.6875 60.394531 48.6875 L 60.082031 48.6875 C 59.945312 48.6875 59.832031 48.574219 59.832031 48.4375 L 59.832031 15.894531 C 59.832031 15.757812 59.945312 15.644531 60.082031 15.644531 Z M 60.082031 15.644531 "/>
<path style=" stroke:none;fill-rule:nonzero;fill:rgb(0%,0%,0%);fill-opacity:1;" d="M 47.621094 37.410156 C 48.195312 37.980469 49.015625 38.105469 49.835938 38.105469 C 49.984375 38.105469 50.085938 38.203125 50.085938 38.351562 L 50.308594 40.515625 C 50.332031 40.667969 50.207031 40.789062 50.058594 40.765625 L 47.894531 40.542969 C 47.769531 40.515625 47.648438 40.417969 47.648438 40.292969 C 47.648438 39.472656 47.523438 38.652344 46.949219 38.078125 C 46.378906 38.652344 46.277344 39.472656 46.277344 40.292969 C 46.277344 40.417969 46.152344 40.515625 46.03125 40.542969 L 43.839844 40.765625 C 43.691406 40.789062 43.566406 40.667969 43.59375 40.515625 L 43.816406 38.351562 C 43.816406 38.203125 43.914062 38.105469 44.066406 38.105469 C 44.886719 38.105469 45.707031 37.980469 46.277344 37.410156 C 45.707031 36.835938 44.886719 36.710938 44.066406 36.710938 C 43.914062 36.710938 43.816406 36.613281 43.816406 36.464844 L 43.59375 34.300781 C 43.566406 34.148438 43.691406 34.027344 43.839844 34.050781 L 46.03125 34.273438 C 46.152344 34.300781 46.253906 34.398438 46.253906 34.523438 C 46.253906 35.34375 46.378906 36.164062 46.949219 36.738281 C 47.523438 36.164062 47.648438 35.34375 47.648438 34.523438 C 47.648438 34.398438 47.769531 34.300781 47.894531 34.273438 L 50.058594 34.050781 C 50.207031 34.027344 50.332031 34.148438 50.308594 34.300781 L 50.085938 36.464844 C 50.085938 36.613281 49.984375 36.710938 49.835938 36.710938 C 49.015625 36.710938 48.195312 36.835938 47.621094 37.410156 Z M 47.621094 37.410156 "/>
<path style=" stroke:none;fill-rule:nonzero;fill:rgb(0%,0%,0%);fill-opacity:1;" d="M 32.996094 43.625 C 33.570312 44.199219 34.390625 44.324219 35.210938 44.324219 C 35.359375 44.324219 35.460938 44.421875 35.460938 44.570312 L 35.683594 46.734375 C 35.707031 46.886719 35.582031 47.007812 35.433594 46.984375 L 33.269531 46.761719 C 33.144531 46.734375 33.023438 46.636719 33.023438 46.511719 C 33.023438 45.691406 32.898438 44.871094 32.324219 44.296875 C 31.753906 44.871094 31.652344 45.691406 31.652344 46.511719 C 31.652344 46.636719 31.527344 46.734375 31.40625 46.761719 L 29.214844 46.984375 C 29.066406 47.007812 28.941406 46.886719 28.96875 46.734375 L 29.191406 44.570312 C 29.191406 44.421875 29.289062 44.324219 29.441406 44.324219 C 30.261719 44.324219 31.082031 44.199219 31.652344 43.625 C 31.082031 43.054688 30.261719 42.929688 29.441406 42.929688 C 29.289062 42.929688 29.191406 42.832031 29.191406 42.679688 L 28.96875 40.515625 C 28.941406 40.367188 29.066406 40.242188 29.214844 40.269531 L 31.40625 40.492188 C 31.527344 40.515625 31.628906 40.617188 31.628906 40.742188 C 31.628906 41.5625 31.753906 42.382812 32.324219 42.953125 C 32.898438 42.382812 33.023438 41.5625 33.023438 40.742188 C 33.023438 40.617188 33.144531 40.515625 33.269531 40.492188 L 35.433594 40.269531 C 35.582031 40.242188 35.707031 40.367188 35.683594 40.515625 L 35.460938 42.679688 C 35.460938 42.832031 35.359375 42.929688 35.210938 42.929688 C 34.390625 42.929688 33.570312 43.054688 32.996094 43.625 Z M 32.996094 43.625 "/>
<path style=" stroke:none;fill-rule:nonzero;fill:rgb(0%,0%,0%);fill-opacity:1;" d="M 42.347656 57.605469 C 42.347656 57.855469 42.148438 58.078125 41.898438 58.078125 C 41.652344 58.078125 41.425781 57.855469 41.425781 57.605469 L 41.425781 54 L 39.363281 54.769531 L 39.363281 58.699219 C 39.363281 58.949219 39.136719 59.171875 38.890625 59.171875 C 38.640625 59.171875 38.441406 58.949219 38.441406 58.699219 L 38.441406 55.09375 L 37.644531 55.390625 C 37.597656 55.417969 37.523438 55.417969 37.472656 55.417969 C 37.199219 55.417969 36.972656 55.191406 36.972656 54.917969 L 36.972656 53.425781 C 36.972656 53.226562 37.097656 53.027344 37.296875 52.953125 L 38.441406 52.554688 L 38.441406 48.574219 L 37.644531 48.851562 C 37.597656 48.875 37.523438 48.875 37.472656 48.875 C 37.199219 48.875 36.972656 48.652344 36.972656 48.378906 L 36.972656 46.886719 C 36.972656 46.6875 37.097656 46.511719 37.296875 46.4375 L 38.441406 46.015625 L 38.441406 42.085938 C 38.441406 41.835938 38.640625 41.613281 38.890625 41.613281 C 39.136719 41.613281 39.363281 41.835938 39.363281 42.085938 L 39.363281 45.691406 L 41.425781 44.917969 L 41.425781 40.988281 C 41.425781 40.742188 41.652344 40.515625 41.898438 40.515625 C 42.148438 40.515625 42.347656 40.742188 42.347656 40.988281 L 42.347656 44.597656 L 43.144531 44.296875 C 43.191406 44.273438 43.265625 44.273438 43.316406 44.273438 C 43.589844 44.273438 43.8125 44.496094 43.8125 44.769531 L 43.8125 46.261719 C 43.8125 46.460938 43.691406 46.660156 43.492188 46.734375 L 42.347656 47.132812 L 42.347656 51.113281 L 43.144531 50.839844 C 43.191406 50.816406 43.265625 50.816406 43.316406 50.816406 C 43.589844 50.816406 43.8125 51.039062 43.8125 51.3125 L 43.8125 52.804688 C 43.8125 53.003906 43.691406 53.175781 43.492188 53.253906 L 42.347656 53.675781 Z M 39.363281 48.226562 L 39.363281 52.207031 L 41.425781 51.460938 L 41.425781 47.480469 Z M 39.363281 48.226562 "/>
<path style=" stroke:none;fill-rule:nonzero;fill:rgb(0%,0%,0%);fill-opacity:1;" d="M 16.152344 50.09375 L 16.003906 50.09375 C 13.316406 50.09375 11.152344 47.90625 11.152344 45.195312 C 11.152344 43.75 12.46875 42.632812 13.9375 42.632812 C 15.28125 42.632812 16.300781 43.800781 16.300781 45.195312 C 16.300781 46.488281 15.230469 47.554688 13.9375 47.554688 C 13.664062 47.554688 13.414062 47.507812 13.167969 47.40625 C 13.8125 48.378906 14.859375 49.023438 16.078125 49.023438 L 16.175781 49.023438 Z M 21 39.347656 C 22.691406 38.75 23.8125 36.984375 23.8125 35.269531 C 23.8125 33.03125 22.171875 30.816406 19.507812 30.542969 C 20.105469 33.429688 20.652344 36.289062 21 39.347656 Z M 11.375 33.601562 C 11.375 36.960938 14.585938 39.746094 17.941406 39.746094 C 18.640625 39.746094 19.308594 39.695312 19.980469 39.597656 C 19.632812 36.4375 19.0625 33.503906 18.414062 30.542969 C 16.449219 30.742188 15.332031 32.0625 15.332031 33.503906 C 15.332031 34.597656 15.953125 35.765625 17.34375 36.5625 C 17.46875 36.6875 17.519531 36.8125 17.519531 36.9375 C 17.519531 37.210938 17.269531 37.484375 16.972656 37.484375 C 16.898438 37.484375 16.824219 37.457031 16.75 37.433594 C 14.757812 36.363281 13.839844 34.574219 13.839844 32.832031 C 13.839844 30.644531 15.28125 28.503906 17.816406 27.933594 C 17.46875 26.488281 17.097656 25.023438 16.675781 23.578125 C 14.011719 26.589844 11.375 29.625 11.375 33.601562 Z M 17.867188 40.816406 C 13.191406 40.816406 9.585938 36.539062 9.585938 31.511719 C 9.585938 27.109375 12.84375 23.902344 15.753906 20.542969 C 15.28125 19.003906 14.832031 17.4375 14.632812 15.820312 C 14.484375 14.527344 14.460938 13.230469 14.460938 11.9375 C 14.460938 9.078125 15.828125 6.367188 18.167969 4.675781 C 18.316406 4.550781 18.515625 4.550781 18.664062 4.675781 C 20.429688 6.765625 21.972656 10.769531 21.972656 13.582031 C 21.972656 17.136719 19.832031 19.921875 17.496094 22.632812 C 18.015625 24.324219 18.464844 26.066406 18.886719 27.78125 C 18.988281 27.78125 19.113281 27.757812 19.210938 27.757812 C 23.066406 27.757812 25.578125 30.941406 25.578125 34.25 C 25.578125 36.140625 24.757812 38.078125 22.917969 39.472656 C 22.371094 39.894531 21.746094 40.167969 21.101562 40.367188 C 21.175781 41.238281 21.226562 42.109375 21.226562 42.980469 C 21.226562 43.453125 21.199219 43.949219 21.175781 44.421875 C 21 47.382812 18.988281 50.019531 16.152344 50.09375 L 16.175781 49.023438 C 18.488281 48.972656 19.980469 46.734375 20.132812 44.273438 C 20.15625 43.824219 20.179688 43.351562 20.179688 42.90625 C 20.179688 42.132812 20.15625 41.386719 20.082031 40.617188 C 19.359375 40.742188 18.640625 40.816406 17.867188 40.816406 Z M 20.179688 11.515625 C 20.179688 10.148438 20.082031 9.550781 19.683594 8.308594 C 17.222656 9.5 15.652344 12.011719 15.652344 14.75 C 15.652344 16.589844 16.101562 18.058594 16.550781 19.574219 C 18.539062 17.160156 20.179688 14.648438 20.179688 11.515625 Z M 20.179688 11.515625 "/>
<path style=" stroke:none;fill-rule:nonzero;fill:rgb(0%,0%,0%);fill-opacity:1;" d="M 57.953125 34.027344 C 59.324219 34.027344 60.640625 34.722656 60.640625 36.238281 C 60.640625 38.003906 59.273438 39.25 58.105469 39.945312 C 57.234375 40.46875 56.238281 40.789062 55.21875 40.789062 C 53.851562 40.789062 52.53125 40.09375 52.53125 38.578125 C 52.53125 36.8125 53.898438 35.566406 55.070312 34.871094 C 55.941406 34.347656 56.933594 34.027344 57.953125 34.027344 Z M 57.953125 34.027344 "/>
<path style=" stroke:none;fill-rule:nonzero;fill:rgb(0%,0%,0%);fill-opacity:1;" d="M 57.953125 40.242188 C 59.324219 40.242188 60.640625 40.941406 60.640625 42.457031 C 60.640625 44.222656 59.273438 45.46875 58.105469 46.164062 C 57.234375 46.6875 56.238281 47.007812 55.21875 47.007812 C 53.851562 47.007812 52.53125 46.3125 52.53125 44.796875 C 52.53125 43.03125 53.898438 41.785156 55.070312 41.089844 C 55.941406 40.566406 56.933594 40.242188 57.953125 40.242188 Z M 57.953125 40.242188 "/>
<path style=" stroke:none;fill-rule:nonzero;fill:rgb(0%,0%,0%);fill-opacity:1;" d="M 57.953125 46.460938 C 59.324219 46.460938 60.640625 47.160156 60.640625 48.675781 C 60.640625 50.441406 59.273438 51.683594 58.105469 52.382812 C 57.234375 52.902344 56.238281 53.226562 55.21875 53.226562 C 53.851562 53.226562 52.53125 52.53125 52.53125 51.011719 C 52.53125 49.246094 53.898438 48.003906 55.070312 47.308594 C 55.941406 46.785156 56.933594 46.460938 57.953125 46.460938 Z M 57.953125 46.460938 "/>
</g>
</svg>
