<?xml version="1.0" encoding="UTF-8"?>
<svg xmlns="http://www.w3.org/2000/svg" xmlns:xlink="http://www.w3.org/1999/xlink" width="68.472344pt" height="57.116775pt" viewBox="0 0 68.472344 57.116775" version="1.1">
<g id="surface1">
<path style="fill:none;stroke-width:0.1;stroke-linecap:round;stroke-linejoin:round;stroke:rgb(0%,0%,0%);stroke-opacity:1;stroke-miterlimit:4;" d="M 0.049863 -0.000256359 L 8.752337 -0.000256359 " transform="matrix(6.218149,0,0,6.218149,4.561038,48.376594)"/>
<path style="fill:none;stroke-width:0.1;stroke-linecap:round;stroke-linejoin:round;stroke:rgb(0%,0%,0%);stroke-opacity:1;stroke-miterlimit:4;" d="M 0.049863 0.000275194 L 8.752337 0.000275194 " transform="matrix(6.218149,0,0,6.218149,4.561038,42.158445)"/>
<path style="fill:none;stroke-width:0.1;stroke-linecap:round;stroke-linejoin:round;stroke:rgb(0%,0%,0%);stroke-opacity:1;stroke-miterlimit:4;" d="M 0.049863 0.000178545 L 8.752337 0.000178545 " transform="matrix(6.218149,0,0,6.218149,4.561038,35.940296)"/>
<path style="fill:none;stroke-width:0.1;stroke-linecap:round;stroke-linejoin:round;stroke:rgb(0%,0%,0%);stroke-opacity:1;stroke-miterlimit:4;" d="M 0.049863 0.0000818968 L 8.752337 0.0000818968 " transform="matrix(6.218149,0,0,6.218149,4.561038,29.722147)"/>
<path style="fill:none;stroke-width:0.1;stroke-linecap:round;stroke-linejoin:round;stroke:rgb(0%,0%,0%);stroke-opacity:1;stroke-miterlimit:4;" d="M 0.049863 -0.0000147518 L 8.752337 -0.0000147518 " transform="matrix(6.218149,0,0,6.218149,4.561038,23.503998)"/>
<path style=" stroke:none;fill-rule:nonzero;fill:rgb(0%,0%,0%);fill-opacity:1;" d="M 39.21875 10.445312 L 50.140625 10.445312 C 50.484375 10.445312 50.761719 10.722656 50.761719 11.066406 C 50.761719 11.410156 50.484375 11.691406 50.140625 11.691406 L 39.21875 11.691406 C 38.878906 11.691406 38.597656 11.410156 38.597656 11.066406 C 38.597656 10.722656 38.878906 10.445312 39.21875 10.445312 Z M 39.21875 10.445312 "/>
<path style=" stroke:none;fill-rule:nonzero;fill:rgb(0%,0%,0%);fill-opacity:1;" d="M 39.21875 16.664062 L 50.140625 16.664062 C 50.484375 16.664062 50.761719 16.941406 50.761719 17.285156 C 50.761719 17.628906 50.484375 17.90625 50.140625 17.90625 L 39.21875 17.90625 C 38.878906 17.90625 38.597656 17.628906 38.597656 17.285156 C 38.597656 16.941406 38.878906 16.664062 39.21875 16.664062 Z M 39.21875 16.664062 "/>
<path style=" stroke:none;fill-rule:nonzero;fill:rgb(0%,0%,0%);fill-opacity:1;" d="M 40.875 9.117188 L 41.1875 9.117188 C 41.324219 9.117188 41.433594 9.226562 41.433594 9.363281 L 41.433594 35.691406 C 41.433594 35.828125 41.324219 35.941406 41.1875 35.941406 L 40.875 35.941406 C 40.738281 35.941406 40.625 35.828125 40.625 35.691406 L 40.625 9.363281 C 40.625 9.226562 40.738281 9.117188 40.875 9.117188 Z M 40.875 9.117188 "/>
<path style=" stroke:none;fill-rule:nonzero;fill:rgb(0%,0%,0%);fill-opacity:1;" d="M 23.390625 32.832031 C 23.390625 32.136719 23.960938 31.5625 24.65625 31.5625 C 25.355469 31.5625 25.925781 32.136719 25.925781 32.832031 C 25.925781 33.527344 25.355469 34.101562 24.65625 34.101562 C 23.960938 34.101562 23.390625 33.527344 23.390625 32.832031 Z M 23.390625 26.613281 C 23.390625 25.917969 23.960938 25.34375 24.65625 25.34375 C 25.355469 25.34375 25.925781 25.917969 25.925781 26.613281 C 25.925781 27.308594 25.355469 27.882812 24.65625 27.882812 C 23.960938 27.882812 23.390625 27.308594 23.390625 26.613281 Z M 15.304688 23.179688 C 19.585938 23.179688 22.59375 25.371094 22.59375 29.421875 C 22.59375 35.964844 16.050781 39.722656 9.757812 42.382812 C 9.683594 42.457031 9.609375 42.480469 9.535156 42.480469 C 9.363281 42.480469 9.210938 42.332031 9.210938 42.160156 C 9.210938 42.082031 9.238281 42.007812 9.3125 41.933594 C 14.335938 39 19.558594 35.34375 19.558594 29.671875 C 19.558594 26.6875 17.992188 23.828125 15.304688 23.828125 C 13.464844 23.828125 12.097656 25.171875 11.476562 26.960938 C 11.75 26.835938 12.023438 26.761719 12.320312 26.761719 C 13.6875 26.761719 14.808594 27.882812 14.808594 29.25 C 14.808594 30.691406 13.714844 31.886719 12.320312 31.886719 C 10.828125 31.886719 9.535156 30.71875 9.535156 29.25 C 9.535156 25.941406 12.074219 23.179688 15.304688 23.179688 Z M 15.304688 23.179688 "/>
<path style=" stroke:none;fill-rule:nonzero;fill:rgb(0%,0%,0%);fill-opacity:1;" d="M 46.046875 4.574219 C 47.417969 4.574219 48.734375 5.273438 48.734375 6.789062 C 48.734375 8.554688 47.367188 9.800781 46.199219 10.496094 C 45.328125 11.019531 44.332031 11.339844 43.3125 11.339844 C 41.945312 11.339844 40.625 10.644531 40.625 9.128906 C 40.625 7.363281 41.996094 6.117188 43.164062 5.421875 C 44.035156 4.898438 45.027344 4.574219 46.046875 4.574219 Z M 46.046875 4.574219 "/>
</g>
</svg>
