<?xml version="1.0" encoding="UTF-8"?>
<svg xmlns="http://www.w3.org/2000/svg" xmlns:xlink="http://www.w3.org/1999/xlink" width="68.472344pt" height="80.004293pt" viewBox="0 0 68.472344 80.004293" version="1.1">
<g id="surface1">
<path style="fill:none;stroke-width:0.1;stroke-linecap:round;stroke-linejoin:round;stroke:rgb(0%,0%,0%);stroke-opacity:1;stroke-miterlimit:4;" d="M 0.049863 -0.000105215 L 8.752337 -0.000105215 " transform="matrix(6.218149,0,0,6.218149,4.561038,60.539717)"/>
<path style="fill:none;stroke-width:0.1;stroke-linecap:round;stroke-linejoin:round;stroke:rgb(0%,0%,0%);stroke-opacity:1;stroke-miterlimit:4;" d="M 0.049863 -0.000201864 L 8.752337 -0.000201864 " transform="matrix(6.218149,0,0,6.218149,4.561038,54.321568)"/>
<path style="fill:none;stroke-width:0.1;stroke-linecap:round;stroke-linejoin:round;stroke:rgb(0%,0%,0%);stroke-opacity:1;stroke-miterlimit:4;" d="M 0.049863 -0.000298513 L 8.752337 -0.000298513 " transform="matrix(6.218149,0,0,6.218149,4.561038,48.103419)"/>
<path style="fill:none;stroke-width:0.1;stroke-linecap:round;stroke-linejoin:round;stroke:rgb(0%,0%,0%);stroke-opacity:1;stroke-miterlimit:4;" d="M 0.049863 0.00023304 L 8.752337 0.00023304 " transform="matrix(6.218149,0,0,6.218149,4.561038,41.88527)"/>
<path style="fill:none;stroke-width:0.1;stroke-linecap:round;stroke-linejoin:round;stroke:rgb(0%,0%,0%);stroke-opacity:1;stroke-miterlimit:4;" d="M 0.049863 0.000136391 L 8.752337 0.000136391 " transform="matrix(6.218149,0,0,6.218149,4.561038,35.667121)"/>
<path style=" stroke:none;fill-rule:nonzero;fill:rgb(0%,0%,0%);fill-opacity:1;" d="M 40.160156 16.390625 L 50.140625 16.390625 C 50.484375 16.390625 50.765625 16.667969 50.765625 17.011719 C 50.765625 17.355469 50.484375 17.632812 50.140625 17.632812 L 40.160156 17.632812 C 39.816406 17.632812 39.539062 17.355469 39.539062 17.011719 C 39.539062 16.667969 39.816406 16.390625 40.160156 16.390625 Z M 40.160156 16.390625 "/>
<path style=" stroke:none;fill-rule:nonzero;fill:rgb(0%,0%,0%);fill-opacity:1;" d="M 39.21875 22.609375 L 50.140625 22.609375 C 50.484375 22.609375 50.761719 22.886719 50.761719 23.230469 C 50.761719 23.574219 50.484375 23.851562 50.140625 23.851562 L 39.21875 23.851562 C 38.878906 23.851562 38.597656 23.574219 38.597656 23.230469 C 38.597656 22.886719 38.878906 22.609375 39.21875 22.609375 Z M 39.21875 22.609375 "/>
<path style=" stroke:none;fill-rule:nonzero;fill:rgb(0%,0%,0%);fill-opacity:1;" d="M 39.21875 28.828125 L 50.140625 28.828125 C 50.484375 28.828125 50.761719 29.105469 50.761719 29.449219 C 50.761719 29.792969 50.484375 30.070312 50.140625 30.070312 L 39.21875 30.070312 C 38.878906 30.070312 38.597656 29.792969 38.597656 29.449219 C 38.597656 29.105469 38.878906 28.828125 39.21875 28.828125 Z M 39.21875 28.828125 "/>
<path style=" stroke:none;fill-rule:nonzero;fill:rgb(0%,0%,0%);fill-opacity:1;" d="M 36.984375 21.664062 C 36.984375 21.914062 36.785156 22.136719 36.535156 22.136719 C 36.285156 22.136719 36.0625 21.914062 36.0625 21.664062 L 36.0625 18.058594 L 33.996094 18.828125 L 33.996094 22.757812 C 33.996094 23.007812 33.773438 23.230469 33.523438 23.230469 C 33.277344 23.230469 33.078125 23.007812 33.078125 22.757812 L 33.078125 19.152344 L 32.28125 19.449219 C 32.230469 19.476562 32.15625 19.476562 32.109375 19.476562 C 31.832031 19.476562 31.609375 19.25 31.609375 18.976562 L 31.609375 17.484375 C 31.609375 17.285156 31.734375 17.085938 31.933594 17.011719 L 33.078125 16.613281 L 33.078125 12.636719 L 32.28125 12.910156 C 32.230469 12.933594 32.15625 12.933594 32.109375 12.933594 C 31.832031 12.933594 31.609375 12.710938 31.609375 12.4375 L 31.609375 10.945312 C 31.609375 10.746094 31.734375 10.570312 31.933594 10.496094 L 33.078125 10.074219 L 33.078125 6.144531 C 33.078125 5.894531 33.277344 5.671875 33.523438 5.671875 C 33.773438 5.671875 33.996094 5.894531 33.996094 6.144531 L 33.996094 9.75 L 36.0625 8.980469 L 36.0625 5.050781 C 36.0625 4.800781 36.285156 4.578125 36.535156 4.578125 C 36.785156 4.578125 36.984375 4.800781 36.984375 5.050781 L 36.984375 8.65625 L 37.777344 8.355469 C 37.828125 8.332031 37.902344 8.332031 37.953125 8.332031 C 38.226562 8.332031 38.449219 8.554688 38.449219 8.828125 L 38.449219 10.320312 C 38.449219 10.519531 38.324219 10.71875 38.125 10.792969 L 36.984375 11.191406 L 36.984375 15.171875 L 37.777344 14.898438 C 37.828125 14.875 37.902344 14.875 37.953125 14.875 C 38.226562 14.875 38.449219 15.097656 38.449219 15.371094 L 38.449219 16.863281 C 38.449219 17.0625 38.324219 17.238281 38.125 17.3125 L 36.984375 17.734375 Z M 33.996094 12.285156 L 33.996094 16.265625 L 36.0625 15.519531 L 36.0625 11.539062 Z M 33.996094 12.285156 "/>
<path style=" stroke:none;fill-rule:nonzero;fill:rgb(0%,0%,0%);fill-opacity:1;" d="M 40.875 15.0625 L 41.1875 15.0625 C 41.324219 15.0625 41.433594 15.171875 41.433594 15.308594 L 41.433594 54.074219 C 41.433594 54.210938 41.324219 54.320312 41.1875 54.320312 L 40.875 54.320312 C 40.738281 54.320312 40.625 54.210938 40.625 54.074219 L 40.625 15.308594 C 40.625 15.171875 40.738281 15.0625 40.875 15.0625 Z M 40.875 15.0625 "/>
<path style=" stroke:none;fill-rule:nonzero;fill:rgb(0%,0%,0%);fill-opacity:1;" d="M 16.152344 70.117188 L 16.003906 70.117188 C 13.316406 70.117188 11.152344 67.925781 11.152344 65.214844 C 11.152344 63.773438 12.46875 62.652344 13.9375 62.652344 C 15.28125 62.652344 16.300781 63.824219 16.300781 65.214844 C 16.300781 66.507812 15.230469 67.578125 13.9375 67.578125 C 13.664062 67.578125 13.414062 67.527344 13.167969 67.429688 C 13.8125 68.398438 14.859375 69.046875 16.078125 69.046875 L 16.175781 69.046875 Z M 21 59.371094 C 22.691406 58.773438 23.8125 57.007812 23.8125 55.292969 C 23.8125 53.054688 22.171875 50.839844 19.507812 50.566406 C 20.105469 53.449219 20.652344 56.3125 21 59.371094 Z M 11.375 53.625 C 11.375 56.984375 14.585938 59.769531 17.941406 59.769531 C 18.640625 59.769531 19.308594 59.71875 19.980469 59.621094 C 19.632812 56.460938 19.0625 53.527344 18.414062 50.566406 C 16.449219 50.765625 15.332031 52.082031 15.332031 53.527344 C 15.332031 54.621094 15.953125 55.789062 17.34375 56.585938 C 17.46875 56.710938 17.519531 56.832031 17.519531 56.957031 C 17.519531 57.230469 17.269531 57.503906 16.972656 57.503906 C 16.898438 57.503906 16.824219 57.480469 16.75 57.457031 C 14.757812 56.386719 13.839844 54.59375 13.839844 52.855469 C 13.839844 50.664062 15.28125 48.527344 17.816406 47.953125 C 17.46875 46.511719 17.097656 45.042969 16.675781 43.601562 C 14.011719 46.609375 11.375 49.644531 11.375 53.625 Z M 17.867188 60.839844 C 13.191406 60.839844 9.585938 56.558594 9.585938 51.535156 C 9.585938 47.132812 12.84375 43.925781 15.753906 40.566406 C 15.28125 39.023438 14.832031 37.457031 14.632812 35.839844 C 14.484375 34.546875 14.460938 33.253906 14.460938 31.960938 C 14.460938 29.101562 15.828125 26.390625 18.167969 24.699219 C 18.316406 24.574219 18.515625 24.574219 18.664062 24.699219 C 20.429688 26.789062 21.972656 30.792969 21.972656 33.601562 C 21.972656 37.160156 19.832031 39.945312 17.496094 42.65625 C 18.015625 44.347656 18.464844 46.089844 18.886719 47.804688 C 18.988281 47.804688 19.113281 47.78125 19.210938 47.78125 C 23.066406 47.78125 25.578125 50.964844 25.578125 54.273438 C 25.578125 56.164062 24.757812 58.101562 22.917969 59.496094 C 22.371094 59.917969 21.746094 60.191406 21.101562 60.390625 C 21.175781 61.261719 21.226562 62.132812 21.226562 63.003906 C 21.226562 63.476562 21.199219 63.972656 21.175781 64.445312 C 21 67.40625 18.988281 70.042969 16.152344 70.117188 L 16.175781 69.046875 C 18.488281 68.996094 19.980469 66.757812 20.132812 64.296875 C 20.15625 63.847656 20.179688 63.375 20.179688 62.925781 C 20.179688 62.15625 20.15625 61.410156 20.082031 60.640625 C 19.359375 60.761719 18.640625 60.839844 17.867188 60.839844 Z M 20.179688 31.539062 C 20.179688 30.171875 20.082031 29.574219 19.683594 28.328125 C 17.222656 29.523438 15.652344 32.035156 15.652344 34.773438 C 15.652344 36.613281 16.101562 38.078125 16.550781 39.597656 C 18.539062 37.183594 20.179688 34.671875 20.179688 31.539062 Z M 20.179688 31.539062 "/>
<path style=" stroke:none;fill-rule:nonzero;fill:rgb(0%,0%,0%);fill-opacity:1;" d="M 46.046875 10.519531 C 47.417969 10.519531 48.734375 11.21875 48.734375 12.734375 C 48.734375 14.5 47.367188 15.746094 46.199219 16.441406 C 45.328125 16.964844 44.332031 17.285156 43.3125 17.285156 C 41.945312 17.285156 40.625 16.589844 40.625 15.074219 C 40.625 13.308594 41.996094 12.0625 43.164062 11.367188 C 44.035156 10.84375 45.027344 10.519531 46.046875 10.519531 Z M 46.046875 10.519531 "/>
<path style=" stroke:none;fill-rule:nonzero;fill:rgb(0%,0%,0%);fill-opacity:1;" d="M 46.046875 16.738281 C 47.417969 16.738281 48.734375 17.433594 48.734375 18.953125 C 48.734375 20.71875 47.367188 21.960938 46.199219 22.660156 C 45.328125 23.179688 44.332031 23.503906 43.3125 23.503906 C 41.945312 23.503906 40.625 22.808594 40.625 21.289062 C 40.625 19.523438 41.996094 18.28125 43.164062 17.585938 C 44.035156 17.0625 45.027344 16.738281 46.046875 16.738281 Z M 46.046875 16.738281 "/>
<path style=" stroke:none;fill-rule:nonzero;fill:rgb(0%,0%,0%);fill-opacity:1;" d="M 46.046875 22.957031 C 47.417969 22.957031 48.734375 23.652344 48.734375 25.171875 C 48.734375 26.9375 47.367188 28.179688 46.199219 28.875 C 45.328125 29.398438 44.332031 29.722656 43.3125 29.722656 C 41.945312 29.722656 40.625 29.027344 40.625 27.507812 C 40.625 25.742188 41.996094 24.5 43.164062 23.804688 C 44.035156 23.28125 45.027344 22.957031 46.046875 22.957031 Z M 46.046875 22.957031 "/>
<path style=" stroke:none;fill-rule:nonzero;fill:rgb(0%,0%,0%);fill-opacity:1;" d="M 46.046875 29.175781 C 47.417969 29.175781 48.734375 29.871094 48.734375 31.390625 C 48.734375 33.15625 47.367188 34.398438 46.199219 35.09375 C 45.328125 35.617188 44.332031 35.941406 43.3125 35.941406 C 41.945312 35.941406 40.625 35.246094 40.625 33.726562 C 40.625 31.960938 41.996094 30.71875 43.164062 30.019531 C 44.035156 29.5 45.027344 29.175781 46.046875 29.175781 Z M 46.046875 29.175781 "/>
</g>
</svg>
