<?xml version="1.0" encoding="UTF-8"?>
<svg xmlns="http://www.w3.org/2000/svg" xmlns:xlink="http://www.w3.org/1999/xlink" width="82.402133pt" height="54.278711pt" viewBox="0 0 82.402133 54.278711" version="1.1">
<g id="surface1">
<path style="fill:none;stroke-width:0.1;stroke-linecap:round;stroke-linejoin:round;stroke:rgb(0%,0%,0%);stroke-opacity:1;stroke-miterlimit:4;" d="M 0.049863 0.000136391 L 10.849902 0.000136391 " transform="matrix(6.218149,0,0,6.218149,4.561038,35.667121)"/>
<path style="fill:none;stroke-width:0.1;stroke-linecap:round;stroke-linejoin:round;stroke:rgb(0%,0%,0%);stroke-opacity:1;stroke-miterlimit:4;" d="M 0.049863 0.0000397429 L 10.849902 0.0000397429 " transform="matrix(6.218149,0,0,6.218149,4.561038,29.448972)"/>
<path style="fill:none;stroke-width:0.1;stroke-linecap:round;stroke-linejoin:round;stroke:rgb(0%,0%,0%);stroke-opacity:1;stroke-miterlimit:4;" d="M 0.049863 -0.0000569057 L 10.849902 -0.0000569057 " transform="matrix(6.218149,0,0,6.218149,4.561038,23.230823)"/>
<path style="fill:none;stroke-width:0.1;stroke-linecap:round;stroke-linejoin:round;stroke:rgb(0%,0%,0%);stroke-opacity:1;stroke-miterlimit:4;" d="M 0.049863 -0.000153554 L 10.849902 -0.000153554 " transform="matrix(6.218149,0,0,6.218149,4.561038,17.012674)"/>
<path style="fill:none;stroke-width:0.1;stroke-linecap:round;stroke-linejoin:round;stroke:rgb(0%,0%,0%);stroke-opacity:1;stroke-miterlimit:4;" d="M 0.049863 -0.000250203 L 10.849902 -0.000250203 " transform="matrix(6.218149,0,0,6.218149,4.561038,10.794525)"/>
<path style=" stroke:none;fill-rule:nonzero;fill:rgb(0%,0%,0%);fill-opacity:1;" d="M 53.917969 15.0625 L 54.226562 15.0625 C 54.367188 15.0625 54.476562 15.171875 54.476562 15.308594 L 54.476562 45.78125 C 54.476562 45.917969 54.367188 46.03125 54.226562 46.03125 L 53.917969 46.03125 C 53.78125 46.03125 53.667969 45.917969 53.667969 45.78125 L 53.667969 15.308594 C 53.667969 15.171875 53.78125 15.0625 53.917969 15.0625 Z M 53.917969 15.0625 "/>
<path style=" stroke:none;fill-rule:nonzero;fill:rgb(0%,0%,0%);fill-opacity:1;" d="M 50.023438 21.664062 C 50.023438 21.914062 49.824219 22.136719 49.578125 22.136719 C 49.328125 22.136719 49.105469 21.914062 49.105469 21.664062 L 49.105469 18.058594 L 47.039062 18.828125 L 47.039062 22.757812 C 47.039062 23.007812 46.816406 23.230469 46.566406 23.230469 C 46.320312 23.230469 46.121094 23.007812 46.121094 22.757812 L 46.121094 19.152344 L 45.324219 19.449219 C 45.273438 19.476562 45.199219 19.476562 45.148438 19.476562 C 44.875 19.476562 44.652344 19.25 44.652344 18.976562 L 44.652344 17.484375 C 44.652344 17.285156 44.777344 17.085938 44.976562 17.011719 L 46.121094 16.613281 L 46.121094 12.636719 L 45.324219 12.910156 C 45.273438 12.933594 45.199219 12.933594 45.148438 12.933594 C 44.875 12.933594 44.652344 12.710938 44.652344 12.4375 L 44.652344 10.945312 C 44.652344 10.746094 44.777344 10.570312 44.976562 10.496094 L 46.121094 10.074219 L 46.121094 6.144531 C 46.121094 5.894531 46.320312 5.671875 46.566406 5.671875 C 46.816406 5.671875 47.039062 5.894531 47.039062 6.144531 L 47.039062 9.75 L 49.105469 8.980469 L 49.105469 5.050781 C 49.105469 4.800781 49.328125 4.578125 49.578125 4.578125 C 49.824219 4.578125 50.023438 4.800781 50.023438 5.050781 L 50.023438 8.65625 L 50.820312 8.355469 C 50.871094 8.332031 50.945312 8.332031 50.996094 8.332031 C 51.269531 8.332031 51.492188 8.554688 51.492188 8.828125 L 51.492188 10.320312 C 51.492188 10.519531 51.367188 10.71875 51.167969 10.792969 L 50.023438 11.191406 L 50.023438 15.171875 L 50.820312 14.898438 C 50.871094 14.875 50.945312 14.875 50.996094 14.875 C 51.269531 14.875 51.492188 15.097656 51.492188 15.371094 L 51.492188 16.863281 C 51.492188 17.0625 51.367188 17.238281 51.167969 17.3125 L 50.023438 17.734375 Z M 47.039062 12.285156 L 47.039062 16.265625 L 49.105469 15.519531 L 49.105469 11.539062 Z M 47.039062 12.285156 "/>
<path style=" stroke:none;fill-rule:nonzero;fill:rgb(0%,0%,0%);fill-opacity:1;" d="M 35.324219 27.882812 C 35.324219 28.128906 35.125 28.355469 34.878906 28.355469 C 34.628906 28.355469 34.40625 28.128906 34.40625 27.882812 L 34.40625 24.277344 L 32.339844 25.046875 L 32.339844 28.976562 C 32.339844 29.226562 32.117188 29.449219 31.867188 29.449219 C 31.617188 29.449219 31.417969 29.226562 31.417969 28.976562 L 31.417969 25.371094 L 30.625 25.667969 C 30.574219 25.691406 30.5 25.691406 30.449219 25.691406 C 30.175781 25.691406 29.953125 25.46875 29.953125 25.195312 L 29.953125 23.703125 C 29.953125 23.503906 30.078125 23.304688 30.277344 23.230469 L 31.417969 22.832031 L 31.417969 18.851562 L 30.625 19.125 C 30.574219 19.152344 30.5 19.152344 30.449219 19.152344 C 30.175781 19.152344 29.953125 18.929688 29.953125 18.652344 L 29.953125 17.160156 C 29.953125 16.964844 30.078125 16.789062 30.277344 16.714844 L 31.417969 16.292969 L 31.417969 12.363281 C 31.417969 12.113281 31.617188 11.890625 31.867188 11.890625 C 32.117188 11.890625 32.339844 12.113281 32.339844 12.363281 L 32.339844 15.96875 L 34.40625 15.195312 L 34.40625 11.265625 C 34.40625 11.019531 34.628906 10.792969 34.878906 10.792969 C 35.125 10.792969 35.324219 11.019531 35.324219 11.265625 L 35.324219 14.875 L 36.121094 14.574219 C 36.171875 14.550781 36.246094 14.550781 36.292969 14.550781 C 36.566406 14.550781 36.792969 14.773438 36.792969 15.046875 L 36.792969 16.539062 C 36.792969 16.738281 36.667969 16.9375 36.46875 17.011719 L 35.324219 17.410156 L 35.324219 21.390625 L 36.121094 21.117188 C 36.171875 21.089844 36.246094 21.089844 36.292969 21.089844 C 36.566406 21.089844 36.792969 21.316406 36.792969 21.589844 L 36.792969 23.082031 C 36.792969 23.28125 36.667969 23.453125 36.46875 23.527344 L 35.324219 23.953125 Z M 32.339844 18.503906 L 32.339844 22.484375 L 34.40625 21.738281 L 34.40625 17.757812 Z M 32.339844 18.503906 "/>
<path style=" stroke:none;fill-rule:nonzero;fill:rgb(0%,0%,0%);fill-opacity:1;" d="M 43.410156 34.101562 C 43.410156 34.347656 43.210938 34.574219 42.960938 34.574219 C 42.710938 34.574219 42.488281 34.347656 42.488281 34.101562 L 42.488281 30.492188 L 40.421875 31.265625 L 40.421875 35.195312 C 40.421875 35.441406 40.199219 35.667969 39.949219 35.667969 C 39.703125 35.667969 39.503906 35.441406 39.503906 35.195312 L 39.503906 31.589844 L 38.707031 31.886719 C 38.65625 31.910156 38.582031 31.910156 38.535156 31.910156 C 38.257812 31.910156 38.035156 31.6875 38.035156 31.414062 L 38.035156 29.921875 C 38.035156 29.722656 38.160156 29.523438 38.359375 29.449219 L 39.503906 29.050781 L 39.503906 25.070312 L 38.707031 25.34375 C 38.65625 25.371094 38.582031 25.371094 38.535156 25.371094 C 38.257812 25.371094 38.035156 25.144531 38.035156 24.871094 L 38.035156 23.378906 C 38.035156 23.179688 38.160156 23.007812 38.359375 22.933594 L 39.503906 22.507812 L 39.503906 18.578125 C 39.503906 18.332031 39.703125 18.105469 39.949219 18.105469 C 40.199219 18.105469 40.421875 18.332031 40.421875 18.578125 L 40.421875 22.1875 L 42.488281 21.414062 L 42.488281 17.484375 C 42.488281 17.238281 42.710938 17.011719 42.960938 17.011719 C 43.210938 17.011719 43.410156 17.238281 43.410156 17.484375 L 43.410156 21.089844 L 44.203125 20.792969 C 44.253906 20.769531 44.328125 20.769531 44.378906 20.769531 C 44.652344 20.769531 44.875 20.992188 44.875 21.265625 L 44.875 22.757812 C 44.875 22.957031 44.75 23.15625 44.550781 23.230469 L 43.410156 23.628906 L 43.410156 27.609375 L 44.203125 27.335938 C 44.253906 27.308594 44.328125 27.308594 44.378906 27.308594 C 44.652344 27.308594 44.875 27.535156 44.875 27.808594 L 44.875 29.300781 C 44.875 29.5 44.75 29.671875 44.550781 29.746094 L 43.410156 30.171875 Z M 40.421875 24.722656 L 40.421875 28.703125 L 42.488281 27.957031 L 42.488281 23.976562 Z M 40.421875 24.722656 "/>
<path style=" stroke:none;fill-rule:nonzero;fill:rgb(0%,0%,0%);fill-opacity:1;" d="M 23.390625 20.121094 C 23.390625 19.425781 23.960938 18.851562 24.65625 18.851562 C 25.355469 18.851562 25.925781 19.425781 25.925781 20.121094 C 25.925781 20.816406 25.355469 21.390625 24.65625 21.390625 C 23.960938 21.390625 23.390625 20.816406 23.390625 20.121094 Z M 23.390625 13.902344 C 23.390625 13.207031 23.960938 12.636719 24.65625 12.636719 C 25.355469 12.636719 25.925781 13.207031 25.925781 13.902344 C 25.925781 14.601562 25.355469 15.171875 24.65625 15.171875 C 23.960938 15.171875 23.390625 14.601562 23.390625 13.902344 Z M 15.304688 10.472656 C 19.585938 10.472656 22.59375 12.660156 22.59375 16.714844 C 22.59375 23.253906 16.050781 27.011719 9.757812 29.671875 C 9.683594 29.746094 9.609375 29.773438 9.535156 29.773438 C 9.363281 29.773438 9.210938 29.625 9.210938 29.449219 C 9.210938 29.375 9.238281 29.300781 9.3125 29.226562 C 14.335938 26.289062 19.558594 22.632812 19.558594 16.964844 C 19.558594 13.976562 17.992188 11.117188 15.304688 11.117188 C 13.464844 11.117188 12.097656 12.460938 11.476562 14.25 C 11.75 14.128906 12.023438 14.054688 12.320312 14.054688 C 13.6875 14.054688 14.808594 15.171875 14.808594 16.539062 C 14.808594 17.984375 13.714844 19.175781 12.320312 19.175781 C 10.828125 19.175781 9.535156 18.007812 9.535156 16.539062 C 9.535156 13.230469 12.074219 10.472656 15.304688 10.472656 Z M 15.304688 10.472656 "/>
<path style=" stroke:none;fill-rule:nonzero;fill:rgb(0%,0%,0%);fill-opacity:1;" d="M 59.089844 10.519531 C 60.457031 10.519531 61.777344 11.21875 61.777344 12.734375 C 61.777344 14.5 60.410156 15.746094 59.238281 16.441406 C 58.371094 16.964844 57.375 17.285156 56.355469 17.285156 C 54.988281 17.285156 53.667969 16.589844 53.667969 15.074219 C 53.667969 13.308594 55.035156 12.0625 56.207031 11.367188 C 57.074219 10.84375 58.070312 10.519531 59.089844 10.519531 Z M 59.089844 10.519531 "/>
<path style=" stroke:none;fill-rule:nonzero;fill:rgb(0%,0%,0%);fill-opacity:1;" d="M 59.089844 16.738281 C 60.457031 16.738281 61.777344 17.433594 61.777344 18.953125 C 61.777344 20.71875 60.410156 21.960938 59.238281 22.660156 C 58.371094 23.179688 57.375 23.503906 56.355469 23.503906 C 54.988281 23.503906 53.667969 22.808594 53.667969 21.289062 C 53.667969 19.523438 55.035156 18.28125 56.207031 17.585938 C 57.074219 17.0625 58.070312 16.738281 59.089844 16.738281 Z M 59.089844 16.738281 "/>
<path style=" stroke:none;fill-rule:nonzero;fill:rgb(0%,0%,0%);fill-opacity:1;" d="M 59.089844 22.957031 C 60.457031 22.957031 61.777344 23.652344 61.777344 25.171875 C 61.777344 26.9375 60.410156 28.179688 59.238281 28.875 C 58.371094 29.398438 57.375 29.722656 56.355469 29.722656 C 54.988281 29.722656 53.667969 29.027344 53.667969 27.507812 C 53.667969 25.742188 55.035156 24.5 56.207031 23.804688 C 57.074219 23.28125 58.070312 22.957031 59.089844 22.957031 Z M 59.089844 22.957031 "/>
</g>
</svg>
