<?xml version="1.0" encoding="UTF-8"?>
<svg xmlns="http://www.w3.org/2000/svg" xmlns:xlink="http://www.w3.org/1999/xlink" width="75.798219pt" height="59.355019pt" viewBox="0 0 75.798219 59.355019" version="1.1">
<g id="surface1">
<path style="fill:none;stroke-width:0.1;stroke-linecap:round;stroke-linejoin:round;stroke:rgb(0%,0%,0%);stroke-opacity:1;stroke-miterlimit:4;" d="M 0.049863 -0.000287501 L 9.855459 -0.000287501 " transform="matrix(6.218149,0,0,6.218149,4.561038,40.517413)"/>
<path style="fill:none;stroke-width:0.1;stroke-linecap:round;stroke-linejoin:round;stroke:rgb(0%,0%,0%);stroke-opacity:1;stroke-miterlimit:4;" d="M 0.049863 0.000244052 L 9.855459 0.000244052 " transform="matrix(6.218149,0,0,6.218149,4.561038,34.299264)"/>
<path style="fill:none;stroke-width:0.1;stroke-linecap:round;stroke-linejoin:round;stroke:rgb(0%,0%,0%);stroke-opacity:1;stroke-miterlimit:4;" d="M 0.049863 0.000147403 L 9.855459 0.000147403 " transform="matrix(6.218149,0,0,6.218149,4.561038,28.081115)"/>
<path style="fill:none;stroke-width:0.1;stroke-linecap:round;stroke-linejoin:round;stroke:rgb(0%,0%,0%);stroke-opacity:1;stroke-miterlimit:4;" d="M 0.049863 0.0000507548 L 9.855459 0.0000507548 " transform="matrix(6.218149,0,0,6.218149,4.561038,21.862966)"/>
<path style="fill:none;stroke-width:0.1;stroke-linecap:round;stroke-linejoin:round;stroke:rgb(0%,0%,0%);stroke-opacity:1;stroke-miterlimit:4;" d="M 0.049863 -0.0000458938 L 9.855459 -0.0000458938 " transform="matrix(6.218149,0,0,6.218149,4.561038,15.644817)"/>
<path style=" stroke:none;fill-rule:nonzero;fill:rgb(0%,0%,0%);fill-opacity:1;" d="M 46.078125 46.113281 L 57 46.113281 C 57.34375 46.113281 57.621094 46.390625 57.621094 46.734375 C 57.621094 47.078125 57.34375 47.355469 57 47.355469 L 46.078125 47.355469 C 45.734375 47.355469 45.457031 47.078125 45.457031 46.734375 C 45.457031 46.390625 45.734375 46.113281 46.078125 46.113281 Z M 46.078125 46.113281 "/>
<path style=" stroke:none;fill-rule:nonzero;fill:rgb(0%,0%,0%);fill-opacity:1;" d="M 55.035156 12.535156 L 55.347656 12.535156 C 55.484375 12.535156 55.59375 12.648438 55.59375 12.785156 L 55.59375 45.328125 C 55.59375 45.46875 55.484375 45.578125 55.347656 45.578125 L 55.035156 45.578125 C 54.898438 45.578125 54.785156 45.46875 54.785156 45.328125 L 54.785156 12.785156 C 54.785156 12.648438 54.898438 12.535156 55.035156 12.535156 Z M 55.035156 12.535156 "/>
<path style=" stroke:none;fill-rule:nonzero;fill:rgb(0%,0%,0%);fill-opacity:1;" d="M 41.003906 33.28125 L 40.980469 34.921875 L 40.980469 35.195312 C 40.980469 35.742188 41.003906 36.289062 41.082031 36.835938 C 42.199219 35.890625 43.394531 34.847656 43.394531 33.378906 C 43.394531 32.558594 43.046875 31.710938 42.324219 31.710938 C 41.554688 31.710938 41.03125 32.457031 41.003906 33.28125 Z M 39.960938 37.730469 L 39.664062 22.933594 C 39.863281 22.808594 40.109375 22.734375 40.335938 22.734375 C 40.558594 22.734375 40.804688 22.808594 41.003906 22.933594 L 40.832031 31.511719 C 41.453125 30.992188 42.273438 30.667969 43.09375 30.667969 C 44.386719 30.667969 45.308594 31.863281 45.308594 33.203125 C 45.308594 35.195312 43.167969 36.113281 41.652344 37.410156 C 41.277344 37.730469 41.054688 38.351562 40.53125 38.351562 C 40.210938 38.351562 39.960938 38.078125 39.960938 37.730469 Z M 39.960938 37.730469 "/>
<path style=" stroke:none;fill-rule:nonzero;fill:rgb(0%,0%,0%);fill-opacity:1;" d="M 30.632812 39.496094 L 30.609375 41.140625 L 30.609375 41.414062 C 30.609375 41.960938 30.632812 42.507812 30.707031 43.054688 C 31.828125 42.109375 33.023438 41.066406 33.023438 39.597656 C 33.023438 38.777344 32.671875 37.929688 31.953125 37.929688 C 31.179688 37.929688 30.660156 38.675781 30.632812 39.496094 Z M 29.589844 43.949219 L 29.289062 29.152344 C 29.488281 29.027344 29.738281 28.953125 29.960938 28.953125 C 30.1875 28.953125 30.433594 29.027344 30.632812 29.152344 L 30.460938 37.730469 C 31.082031 37.210938 31.902344 36.886719 32.722656 36.886719 C 34.015625 36.886719 34.9375 38.078125 34.9375 39.421875 C 34.9375 41.414062 32.796875 42.332031 31.28125 43.625 C 30.90625 43.949219 30.683594 44.570312 30.160156 44.570312 C 29.835938 44.570312 29.589844 44.296875 29.589844 43.949219 Z M 29.589844 43.949219 "/>
<path style=" stroke:none;fill-rule:nonzero;fill:rgb(0%,0%,0%);fill-opacity:1;" d="M 37.523438 45.714844 L 37.5 47.355469 L 37.5 47.632812 C 37.5 48.179688 37.523438 48.726562 37.597656 49.273438 C 38.71875 48.328125 39.910156 47.28125 39.910156 45.816406 C 39.910156 44.996094 39.5625 44.148438 38.839844 44.148438 C 38.070312 44.148438 37.546875 44.894531 37.523438 45.714844 Z M 36.480469 50.167969 L 36.179688 35.367188 C 36.378906 35.246094 36.628906 35.167969 36.851562 35.167969 C 37.074219 35.167969 37.324219 35.246094 37.523438 35.367188 L 37.347656 43.949219 C 37.972656 43.425781 38.792969 43.105469 39.613281 43.105469 C 40.90625 43.105469 41.828125 44.296875 41.828125 45.640625 C 41.828125 47.632812 39.6875 48.550781 38.171875 49.84375 C 37.796875 50.167969 37.574219 50.789062 37.050781 50.789062 C 36.726562 50.789062 36.480469 50.515625 36.480469 50.167969 Z M 36.480469 50.167969 "/>
<path style=" stroke:none;fill-rule:nonzero;fill:rgb(0%,0%,0%);fill-opacity:1;" d="M 16.152344 50.09375 L 16.003906 50.09375 C 13.316406 50.09375 11.152344 47.90625 11.152344 45.195312 C 11.152344 43.75 12.46875 42.632812 13.9375 42.632812 C 15.28125 42.632812 16.300781 43.800781 16.300781 45.195312 C 16.300781 46.488281 15.230469 47.554688 13.9375 47.554688 C 13.664062 47.554688 13.414062 47.507812 13.167969 47.40625 C 13.8125 48.378906 14.859375 49.023438 16.078125 49.023438 L 16.175781 49.023438 Z M 21 39.347656 C 22.691406 38.75 23.8125 36.984375 23.8125 35.269531 C 23.8125 33.03125 22.171875 30.816406 19.507812 30.542969 C 20.105469 33.429688 20.652344 36.289062 21 39.347656 Z M 11.375 33.601562 C 11.375 36.960938 14.585938 39.746094 17.941406 39.746094 C 18.640625 39.746094 19.308594 39.695312 19.980469 39.597656 C 19.632812 36.4375 19.0625 33.503906 18.414062 30.542969 C 16.449219 30.742188 15.332031 32.0625 15.332031 33.503906 C 15.332031 34.597656 15.953125 35.765625 17.34375 36.5625 C 17.46875 36.6875 17.519531 36.8125 17.519531 36.9375 C 17.519531 37.210938 17.269531 37.484375 16.972656 37.484375 C 16.898438 37.484375 16.824219 37.457031 16.75 37.433594 C 14.757812 36.363281 13.839844 34.574219 13.839844 32.832031 C 13.839844 30.644531 15.28125 28.503906 17.816406 27.933594 C 17.46875 26.488281 17.097656 25.023438 16.675781 23.578125 C 14.011719 26.589844 11.375 29.625 11.375 33.601562 Z M 17.867188 40.816406 C 13.191406 40.816406 9.585938 36.539062 9.585938 31.511719 C 9.585938 27.109375 12.84375 23.902344 15.753906 20.542969 C 15.28125 19.003906 14.832031 17.4375 14.632812 15.820312 C 14.484375 14.527344 14.460938 13.230469 14.460938 11.9375 C 14.460938 9.078125 15.828125 6.367188 18.167969 4.675781 C 18.316406 4.550781 18.515625 4.550781 18.664062 4.675781 C 20.429688 6.765625 21.972656 10.769531 21.972656 13.582031 C 21.972656 17.136719 19.832031 19.921875 17.496094 22.632812 C 18.015625 24.324219 18.464844 26.066406 18.886719 27.78125 C 18.988281 27.78125 19.113281 27.757812 19.210938 27.757812 C 23.066406 27.757812 25.578125 30.941406 25.578125 34.25 C 25.578125 36.140625 24.757812 38.078125 22.917969 39.472656 C 22.371094 39.894531 21.746094 40.167969 21.101562 40.367188 C 21.175781 41.238281 21.226562 42.109375 21.226562 42.980469 C 21.226562 43.453125 21.199219 43.949219 21.175781 44.421875 C 21 47.382812 18.988281 50.019531 16.152344 50.09375 L 16.175781 49.023438 C 18.488281 48.972656 19.980469 46.734375 20.132812 44.273438 C 20.15625 43.824219 20.179688 43.351562 20.179688 42.90625 C 20.179688 42.132812 20.15625 41.386719 20.082031 40.617188 C 19.359375 40.742188 18.640625 40.816406 17.867188 40.816406 Z M 20.179688 11.515625 C 20.179688 10.148438 20.082031 9.550781 19.683594 8.308594 C 17.222656 9.5 15.652344 12.011719 15.652344 14.75 C 15.652344 16.589844 16.101562 18.058594 16.550781 19.574219 C 18.539062 17.160156 20.179688 14.648438 20.179688 11.515625 Z M 20.179688 11.515625 "/>
<path style=" stroke:none;fill-rule:nonzero;fill:rgb(0%,0%,0%);fill-opacity:1;" d="M 52.90625 30.917969 C 54.273438 30.917969 55.59375 31.613281 55.59375 33.128906 C 55.59375 34.894531 54.226562 36.140625 53.054688 36.835938 C 52.1875 37.359375 51.191406 37.683594 50.171875 37.683594 C 48.804688 37.683594 47.484375 36.984375 47.484375 35.46875 C 47.484375 33.703125 48.851562 32.457031 50.023438 31.761719 C 50.890625 31.238281 51.886719 30.917969 52.90625 30.917969 Z M 52.90625 30.917969 "/>
<path style=" stroke:none;fill-rule:nonzero;fill:rgb(0%,0%,0%);fill-opacity:1;" d="M 52.90625 37.132812 C 54.273438 37.132812 55.59375 37.832031 55.59375 39.347656 C 55.59375 41.113281 54.226562 42.359375 53.054688 43.054688 C 52.1875 43.578125 51.191406 43.898438 50.171875 43.898438 C 48.804688 43.898438 47.484375 43.203125 47.484375 41.6875 C 47.484375 39.921875 48.851562 38.675781 50.023438 37.980469 C 50.890625 37.457031 51.886719 37.132812 52.90625 37.132812 Z M 52.90625 37.132812 "/>
<path style=" stroke:none;fill-rule:nonzero;fill:rgb(0%,0%,0%);fill-opacity:1;" d="M 52.90625 43.351562 C 54.273438 43.351562 55.59375 44.050781 55.59375 45.566406 C 55.59375 47.332031 54.226562 48.574219 53.054688 49.273438 C 52.1875 49.792969 51.191406 50.117188 50.171875 50.117188 C 48.804688 50.117188 47.484375 49.421875 47.484375 47.90625 C 47.484375 46.136719 48.851562 44.894531 50.023438 44.199219 C 50.890625 43.675781 51.886719 43.351562 52.90625 43.351562 Z M 52.90625 43.351562 "/>
</g>
</svg>
