<?xml version="1.0" encoding="UTF-8"?>
<svg xmlns="http://www.w3.org/2000/svg" xmlns:xlink="http://www.w3.org/1999/xlink" width="68.472344pt" height="50.182763pt" viewBox="0 0 68.472344 50.182763" version="1.1">
<g id="surface1">
<path style="fill:none;stroke-width:0.1;stroke-linecap:round;stroke-linejoin:round;stroke:rgb(0%,0%,0%);stroke-opacity:1;stroke-miterlimit:4;" d="M 0.049863 0.00023304 L 8.752337 0.00023304 " transform="matrix(6.218149,0,0,6.218149,4.561038,41.88527)"/>
<path style="fill:none;stroke-width:0.1;stroke-linecap:round;stroke-linejoin:round;stroke:rgb(0%,0%,0%);stroke-opacity:1;stroke-miterlimit:4;" d="M 0.049863 0.000136391 L 8.752337 0.000136391 " transform="matrix(6.218149,0,0,6.218149,4.561038,35.667121)"/>
<path style="fill:none;stroke-width:0.1;stroke-linecap:round;stroke-linejoin:round;stroke:rgb(0%,0%,0%);stroke-opacity:1;stroke-miterlimit:4;" d="M 0.049863 0.0000397429 L 8.752337 0.0000397429 " transform="matrix(6.218149,0,0,6.218149,4.561038,29.448972)"/>
<path style="fill:none;stroke-width:0.1;stroke-linecap:round;stroke-linejoin:round;stroke:rgb(0%,0%,0%);stroke-opacity:1;stroke-miterlimit:4;" d="M 0.049863 -0.0000569057 L 8.752337 -0.0000569057 " transform="matrix(6.218149,0,0,6.218149,4.561038,23.230823)"/>
<path style="fill:none;stroke-width:0.1;stroke-linecap:round;stroke-linejoin:round;stroke:rgb(0%,0%,0%);stroke-opacity:1;stroke-miterlimit:4;" d="M 0.049863 -0.000153554 L 8.752337 -0.000153554 " transform="matrix(6.218149,0,0,6.218149,4.561038,17.012674)"/>
<path style=" stroke:none;fill-rule:nonzero;fill:rgb(0%,0%,0%);fill-opacity:1;" d="M 40.875 15.0625 L 41.1875 15.0625 C 41.324219 15.0625 41.433594 15.171875 41.433594 15.308594 L 41.433594 35.417969 C 41.433594 35.554688 41.324219 35.667969 41.1875 35.667969 L 40.875 35.667969 C 40.738281 35.667969 40.625 35.554688 40.625 35.417969 L 40.625 15.308594 C 40.625 15.171875 40.738281 15.0625 40.875 15.0625 Z M 40.875 15.0625 "/>
<path style=" stroke:none;fill-rule:nonzero;fill:rgb(0%,0%,0%);fill-opacity:1;" d="M 36.984375 21.664062 C 36.984375 21.914062 36.785156 22.136719 36.535156 22.136719 C 36.285156 22.136719 36.0625 21.914062 36.0625 21.664062 L 36.0625 18.058594 L 33.996094 18.828125 L 33.996094 22.757812 C 33.996094 23.007812 33.773438 23.230469 33.523438 23.230469 C 33.277344 23.230469 33.078125 23.007812 33.078125 22.757812 L 33.078125 19.152344 L 32.28125 19.449219 C 32.230469 19.476562 32.15625 19.476562 32.109375 19.476562 C 31.832031 19.476562 31.609375 19.25 31.609375 18.976562 L 31.609375 17.484375 C 31.609375 17.285156 31.734375 17.085938 31.933594 17.011719 L 33.078125 16.613281 L 33.078125 12.636719 L 32.28125 12.910156 C 32.230469 12.933594 32.15625 12.933594 32.109375 12.933594 C 31.832031 12.933594 31.609375 12.710938 31.609375 12.4375 L 31.609375 10.945312 C 31.609375 10.746094 31.734375 10.570312 31.933594 10.496094 L 33.078125 10.074219 L 33.078125 6.144531 C 33.078125 5.894531 33.277344 5.671875 33.523438 5.671875 C 33.773438 5.671875 33.996094 5.894531 33.996094 6.144531 L 33.996094 9.75 L 36.0625 8.980469 L 36.0625 5.050781 C 36.0625 4.800781 36.285156 4.578125 36.535156 4.578125 C 36.785156 4.578125 36.984375 4.800781 36.984375 5.050781 L 36.984375 8.65625 L 37.777344 8.355469 C 37.828125 8.332031 37.902344 8.332031 37.953125 8.332031 C 38.226562 8.332031 38.449219 8.554688 38.449219 8.828125 L 38.449219 10.320312 C 38.449219 10.519531 38.324219 10.71875 38.125 10.792969 L 36.984375 11.191406 L 36.984375 15.171875 L 37.777344 14.898438 C 37.828125 14.875 37.902344 14.875 37.953125 14.875 C 38.226562 14.875 38.449219 15.097656 38.449219 15.371094 L 38.449219 16.863281 C 38.449219 17.0625 38.324219 17.238281 38.125 17.3125 L 36.984375 17.734375 Z M 33.996094 12.285156 L 33.996094 16.265625 L 36.0625 15.519531 L 36.0625 11.539062 Z M 33.996094 12.285156 "/>
<path style=" stroke:none;fill-rule:nonzero;fill:rgb(0%,0%,0%);fill-opacity:1;" d="M 23.390625 26.339844 C 23.390625 25.644531 23.960938 25.070312 24.65625 25.070312 C 25.355469 25.070312 25.925781 25.644531 25.925781 26.339844 C 25.925781 27.035156 25.355469 27.609375 24.65625 27.609375 C 23.960938 27.609375 23.390625 27.035156 23.390625 26.339844 Z M 23.390625 20.121094 C 23.390625 19.425781 23.960938 18.851562 24.65625 18.851562 C 25.355469 18.851562 25.925781 19.425781 25.925781 20.121094 C 25.925781 20.816406 25.355469 21.390625 24.65625 21.390625 C 23.960938 21.390625 23.390625 20.816406 23.390625 20.121094 Z M 15.304688 16.6875 C 19.585938 16.6875 22.59375 18.878906 22.59375 22.933594 C 22.59375 29.472656 16.050781 33.230469 9.757812 35.890625 C 9.683594 35.964844 9.609375 35.992188 9.535156 35.992188 C 9.363281 35.992188 9.210938 35.839844 9.210938 35.667969 C 9.210938 35.59375 9.238281 35.519531 9.3125 35.441406 C 14.335938 32.507812 19.558594 28.851562 19.558594 23.179688 C 19.558594 20.195312 17.992188 17.335938 15.304688 17.335938 C 13.464844 17.335938 12.097656 18.679688 11.476562 20.46875 C 11.75 20.34375 12.023438 20.269531 12.320312 20.269531 C 13.6875 20.269531 14.808594 21.390625 14.808594 22.757812 C 14.808594 24.199219 13.714844 25.394531 12.320312 25.394531 C 10.828125 25.394531 9.535156 24.226562 9.535156 22.757812 C 9.535156 19.449219 12.074219 16.6875 15.304688 16.6875 Z M 15.304688 16.6875 "/>
<path style=" stroke:none;fill-rule:nonzero;fill:rgb(0%,0%,0%);fill-opacity:1;" d="M 46.046875 10.519531 C 47.417969 10.519531 48.734375 11.21875 48.734375 12.734375 C 48.734375 14.5 47.367188 15.746094 46.199219 16.441406 C 45.328125 16.964844 44.332031 17.285156 43.3125 17.285156 C 41.945312 17.285156 40.625 16.589844 40.625 15.074219 C 40.625 13.308594 41.996094 12.0625 43.164062 11.367188 C 44.035156 10.84375 45.027344 10.519531 46.046875 10.519531 Z M 46.046875 10.519531 "/>
</g>
</svg>
