<?xml version="1.0" encoding="UTF-8"?>
<svg xmlns="http://www.w3.org/2000/svg" xmlns:xlink="http://www.w3.org/1999/xlink" width="75.335285pt" height="53.463766pt" viewBox="0 0 75.335285 53.463766" version="1.1">
<g id="surface1">
<path style="fill:none;stroke-width:0.1;stroke-linecap:round;stroke-linejoin:round;stroke:rgb(0%,0%,0%);stroke-opacity:1;stroke-miterlimit:4;" d="M 0.049863 0.000136391 L 9.785729 0.000136391 " transform="matrix(6.218149,0,0,6.218149,4.561038,35.667121)"/>
<path style="fill:none;stroke-width:0.1;stroke-linecap:round;stroke-linejoin:round;stroke:rgb(0%,0%,0%);stroke-opacity:1;stroke-miterlimit:4;" d="M 0.049863 0.0000397429 L 9.785729 0.0000397429 " transform="matrix(6.218149,0,0,6.218149,4.561038,29.448972)"/>
<path style="fill:none;stroke-width:0.1;stroke-linecap:round;stroke-linejoin:round;stroke:rgb(0%,0%,0%);stroke-opacity:1;stroke-miterlimit:4;" d="M 0.049863 -0.0000569057 L 9.785729 -0.0000569057 " transform="matrix(6.218149,0,0,6.218149,4.561038,23.230823)"/>
<path style="fill:none;stroke-width:0.1;stroke-linecap:round;stroke-linejoin:round;stroke:rgb(0%,0%,0%);stroke-opacity:1;stroke-miterlimit:4;" d="M 0.049863 -0.000153554 L 9.785729 -0.000153554 " transform="matrix(6.218149,0,0,6.218149,4.561038,17.012674)"/>
<path style="fill:none;stroke-width:0.1;stroke-linecap:round;stroke-linejoin:round;stroke:rgb(0%,0%,0%);stroke-opacity:1;stroke-miterlimit:4;" d="M 0.049863 -0.000250203 L 9.785729 -0.000250203 " transform="matrix(6.218149,0,0,6.218149,4.561038,10.794525)"/>
<path style=" stroke:none;fill-rule:nonzero;fill:rgb(0%,0%,0%);fill-opacity:1;" d="M 45.644531 41.261719 L 56.566406 41.261719 C 56.910156 41.261719 57.1875 41.542969 57.1875 41.886719 C 57.1875 42.230469 56.910156 42.507812 56.566406 42.507812 L 45.644531 42.507812 C 45.304688 42.507812 45.023438 42.230469 45.023438 41.886719 C 45.023438 41.542969 45.304688 41.261719 45.644531 41.261719 Z M 45.644531 41.261719 "/>
<path style=" stroke:none;fill-rule:nonzero;fill:rgb(0%,0%,0%);fill-opacity:1;" d="M 43.410156 34.101562 C 43.410156 34.347656 43.210938 34.574219 42.960938 34.574219 C 42.710938 34.574219 42.488281 34.347656 42.488281 34.101562 L 42.488281 30.492188 L 40.421875 31.265625 L 40.421875 35.195312 C 40.421875 35.441406 40.199219 35.667969 39.949219 35.667969 C 39.703125 35.667969 39.503906 35.441406 39.503906 35.195312 L 39.503906 31.589844 L 38.707031 31.886719 C 38.65625 31.910156 38.582031 31.910156 38.535156 31.910156 C 38.257812 31.910156 38.035156 31.6875 38.035156 31.414062 L 38.035156 29.921875 C 38.035156 29.722656 38.160156 29.523438 38.359375 29.449219 L 39.503906 29.050781 L 39.503906 25.070312 L 38.707031 25.34375 C 38.65625 25.371094 38.582031 25.371094 38.535156 25.371094 C 38.257812 25.371094 38.035156 25.144531 38.035156 24.871094 L 38.035156 23.378906 C 38.035156 23.179688 38.160156 23.007812 38.359375 22.933594 L 39.503906 22.507812 L 39.503906 18.578125 C 39.503906 18.332031 39.703125 18.105469 39.949219 18.105469 C 40.199219 18.105469 40.421875 18.332031 40.421875 18.578125 L 40.421875 22.1875 L 42.488281 21.414062 L 42.488281 17.484375 C 42.488281 17.238281 42.710938 17.011719 42.960938 17.011719 C 43.210938 17.011719 43.410156 17.238281 43.410156 17.484375 L 43.410156 21.089844 L 44.203125 20.792969 C 44.253906 20.769531 44.328125 20.769531 44.378906 20.769531 C 44.652344 20.769531 44.875 20.992188 44.875 21.265625 L 44.875 22.757812 C 44.875 22.957031 44.75 23.15625 44.550781 23.230469 L 43.410156 23.628906 L 43.410156 27.609375 L 44.203125 27.335938 C 44.253906 27.308594 44.328125 27.308594 44.378906 27.308594 C 44.652344 27.308594 44.875 27.535156 44.875 27.808594 L 44.875 29.300781 C 44.875 29.5 44.75 29.671875 44.550781 29.746094 L 43.410156 30.171875 Z M 40.421875 24.722656 L 40.421875 28.703125 L 42.488281 27.957031 L 42.488281 23.976562 Z M 40.421875 24.722656 "/>
<path style=" stroke:none;fill-rule:nonzero;fill:rgb(0%,0%,0%);fill-opacity:1;" d="M 35.324219 43.425781 C 35.324219 43.675781 35.125 43.898438 34.878906 43.898438 C 34.628906 43.898438 34.40625 43.675781 34.40625 43.425781 L 34.40625 39.820312 L 32.339844 40.59375 L 32.339844 44.523438 C 32.339844 44.769531 32.117188 44.996094 31.867188 44.996094 C 31.617188 44.996094 31.417969 44.769531 31.417969 44.523438 L 31.417969 40.914062 L 30.625 41.214844 C 30.574219 41.238281 30.5 41.238281 30.449219 41.238281 C 30.175781 41.238281 29.953125 41.015625 29.953125 40.742188 L 29.953125 39.25 C 29.953125 39.050781 30.078125 38.851562 30.277344 38.777344 L 31.417969 38.378906 L 31.417969 34.398438 L 30.625 34.671875 C 30.574219 34.695312 30.5 34.695312 30.449219 34.695312 C 30.175781 34.695312 29.953125 34.472656 29.953125 34.199219 L 29.953125 32.707031 C 29.953125 32.507812 30.078125 32.335938 30.277344 32.257812 L 31.417969 31.835938 L 31.417969 27.90625 C 31.417969 27.65625 31.617188 27.433594 31.867188 27.433594 C 32.117188 27.433594 32.339844 27.65625 32.339844 27.90625 L 32.339844 31.511719 L 34.40625 30.742188 L 34.40625 26.8125 C 34.40625 26.5625 34.628906 26.339844 34.878906 26.339844 C 35.125 26.339844 35.324219 26.5625 35.324219 26.8125 L 35.324219 30.417969 L 36.121094 30.121094 C 36.171875 30.09375 36.246094 30.09375 36.292969 30.09375 C 36.566406 30.09375 36.792969 30.320312 36.792969 30.59375 L 36.792969 32.085938 C 36.792969 32.285156 36.667969 32.484375 36.46875 32.558594 L 35.324219 32.957031 L 35.324219 36.9375 L 36.121094 36.660156 C 36.171875 36.636719 36.246094 36.636719 36.292969 36.636719 C 36.566406 36.636719 36.792969 36.859375 36.792969 37.132812 L 36.792969 38.628906 C 36.792969 38.824219 36.667969 39 36.46875 39.074219 L 35.324219 39.496094 Z M 32.339844 34.050781 L 32.339844 38.03125 L 34.40625 37.285156 L 34.40625 33.304688 Z M 32.339844 34.050781 "/>
<path style=" stroke:none;fill-rule:nonzero;fill:rgb(0%,0%,0%);fill-opacity:1;" d="M 54.601562 4.578125 L 54.914062 4.578125 C 55.050781 4.578125 55.160156 4.6875 55.160156 4.824219 L 55.160156 40.480469 C 55.160156 40.617188 55.050781 40.726562 54.914062 40.726562 L 54.601562 40.726562 C 54.464844 40.726562 54.351562 40.617188 54.351562 40.480469 L 54.351562 4.824219 C 54.351562 4.6875 54.464844 4.578125 54.601562 4.578125 Z M 54.601562 4.578125 "/>
<path style=" stroke:none;fill-rule:nonzero;fill:rgb(0%,0%,0%);fill-opacity:1;" d="M 23.390625 20.121094 C 23.390625 19.425781 23.960938 18.851562 24.65625 18.851562 C 25.355469 18.851562 25.925781 19.425781 25.925781 20.121094 C 25.925781 20.816406 25.355469 21.390625 24.65625 21.390625 C 23.960938 21.390625 23.390625 20.816406 23.390625 20.121094 Z M 23.390625 13.902344 C 23.390625 13.207031 23.960938 12.636719 24.65625 12.636719 C 25.355469 12.636719 25.925781 13.207031 25.925781 13.902344 C 25.925781 14.601562 25.355469 15.171875 24.65625 15.171875 C 23.960938 15.171875 23.390625 14.601562 23.390625 13.902344 Z M 15.304688 10.472656 C 19.585938 10.472656 22.59375 12.660156 22.59375 16.714844 C 22.59375 23.253906 16.050781 27.011719 9.757812 29.671875 C 9.683594 29.746094 9.609375 29.773438 9.535156 29.773438 C 9.363281 29.773438 9.210938 29.625 9.210938 29.449219 C 9.210938 29.375 9.238281 29.300781 9.3125 29.226562 C 14.335938 26.289062 19.558594 22.632812 19.558594 16.964844 C 19.558594 13.976562 17.992188 11.117188 15.304688 11.117188 C 13.464844 11.117188 12.097656 12.460938 11.476562 14.25 C 11.75 14.128906 12.023438 14.054688 12.320312 14.054688 C 13.6875 14.054688 14.808594 15.171875 14.808594 16.539062 C 14.808594 17.984375 13.714844 19.175781 12.320312 19.175781 C 10.828125 19.175781 9.535156 18.007812 9.535156 16.539062 C 9.535156 13.230469 12.074219 10.472656 15.304688 10.472656 Z M 15.304688 10.472656 "/>
<path style=" stroke:none;fill-rule:nonzero;fill:rgb(0%,0%,0%);fill-opacity:1;" d="M 60.179688 22.957031 C 61.546875 22.957031 62.867188 23.652344 62.867188 25.171875 C 62.867188 26.9375 61.5 28.179688 60.328125 28.875 C 59.457031 29.398438 58.464844 29.722656 57.445312 29.722656 C 56.074219 29.722656 54.757812 29.027344 54.757812 27.507812 C 54.757812 25.742188 56.125 24.5 57.292969 23.804688 C 58.164062 23.28125 59.160156 22.957031 60.179688 22.957031 Z M 60.179688 22.957031 "/>
<path style=" stroke:none;fill-rule:nonzero;fill:rgb(0%,0%,0%);fill-opacity:1;" d="M 52.472656 26.066406 C 53.84375 26.066406 55.160156 26.761719 55.160156 28.28125 C 55.160156 30.046875 53.792969 31.289062 52.625 31.984375 C 51.753906 32.507812 50.757812 32.832031 49.738281 32.832031 C 48.371094 32.832031 47.050781 32.136719 47.050781 30.617188 C 47.050781 28.851562 48.421875 27.609375 49.589844 26.910156 C 50.460938 26.390625 51.453125 26.066406 52.472656 26.066406 Z M 52.472656 26.066406 "/>
<path style=" stroke:none;fill-rule:nonzero;fill:rgb(0%,0%,0%);fill-opacity:1;" d="M 52.472656 32.285156 C 53.84375 32.285156 55.160156 32.980469 55.160156 34.5 C 55.160156 36.265625 53.792969 37.507812 52.625 38.203125 C 51.753906 38.726562 50.757812 39.050781 49.738281 39.050781 C 48.371094 39.050781 47.050781 38.351562 47.050781 36.835938 C 47.050781 35.070312 48.421875 33.828125 49.589844 33.128906 C 50.460938 32.609375 51.453125 32.285156 52.472656 32.285156 Z M 52.472656 32.285156 "/>
<path style=" stroke:none;fill-rule:nonzero;fill:rgb(0%,0%,0%);fill-opacity:1;" d="M 52.472656 38.503906 C 53.84375 38.503906 55.160156 39.199219 55.160156 40.714844 C 55.160156 42.480469 53.792969 43.726562 52.625 44.421875 C 51.753906 44.945312 50.757812 45.269531 49.738281 45.269531 C 48.371094 45.269531 47.050781 44.570312 47.050781 43.054688 C 47.050781 41.289062 48.421875 40.042969 49.589844 39.347656 C 50.460938 38.824219 51.453125 38.503906 52.472656 38.503906 Z M 52.472656 38.503906 "/>
</g>
</svg>
