<?xml version="1.0" encoding="UTF-8"?>
<svg xmlns="http://www.w3.org/2000/svg" xmlns:xlink="http://www.w3.org/1999/xlink" width="83.778309pt" height="69.111784pt" viewBox="0 0 83.778309 69.111784" version="1.1">
<g id="surface1">
<path style="fill:none;stroke-width:0.1;stroke-linecap:round;stroke-linejoin:round;stroke:rgb(0%,0%,0%);stroke-opacity:1;stroke-miterlimit:4;" d="M 0.049863 0.000289441 L 11.05658 0.000289441 " transform="matrix(6.218149,0,0,6.218149,4.561038,50.34195)"/>
<path style="fill:none;stroke-width:0.1;stroke-linecap:round;stroke-linejoin:round;stroke:rgb(0%,0%,0%);stroke-opacity:1;stroke-miterlimit:4;" d="M 0.049863 0.000192316 L 11.05658 0.000192316 " transform="matrix(6.218149,0,0,6.218149,4.561038,44.123804)"/>
<path style="fill:none;stroke-width:0.1;stroke-linecap:round;stroke-linejoin:round;stroke:rgb(0%,0%,0%);stroke-opacity:1;stroke-miterlimit:4;" d="M 0.049863 0.0000956673 L 11.05658 0.0000956673 " transform="matrix(6.218149,0,0,6.218149,4.561038,37.905655)"/>
<path style="fill:none;stroke-width:0.1;stroke-linecap:round;stroke-linejoin:round;stroke:rgb(0%,0%,0%);stroke-opacity:1;stroke-miterlimit:4;" d="M 0.049863 -0.000000981293 L 11.05658 -0.000000981293 " transform="matrix(6.218149,0,0,6.218149,4.561038,31.687506)"/>
<path style="fill:none;stroke-width:0.1;stroke-linecap:round;stroke-linejoin:round;stroke:rgb(0%,0%,0%);stroke-opacity:1;stroke-miterlimit:4;" d="M 0.049863 -0.0000976299 L 11.05658 -0.0000976299 " transform="matrix(6.218149,0,0,6.218149,4.561038,25.469357)"/>
<path style=" stroke:none;fill-rule:nonzero;fill:rgb(0%,0%,0%);fill-opacity:1;" d="M 45.84375 18.628906 L 64.472656 18.628906 C 64.816406 18.628906 65.09375 18.90625 65.09375 19.25 C 65.09375 19.59375 64.816406 19.871094 64.472656 19.871094 L 45.84375 19.871094 C 45.5 19.871094 45.222656 19.59375 45.222656 19.25 C 45.222656 18.90625 45.5 18.628906 45.84375 18.628906 Z M 45.84375 18.628906 "/>
<path style=" stroke:none;fill-rule:nonzero;fill:rgb(0%,0%,0%);fill-opacity:1;" d="M 55.203125 17.300781 L 55.515625 17.300781 C 55.652344 17.300781 55.765625 17.410156 55.765625 17.546875 L 55.765625 53.203125 C 55.765625 53.339844 55.652344 53.449219 55.515625 53.449219 L 55.203125 53.449219 C 55.066406 53.449219 54.957031 53.339844 54.957031 53.203125 L 54.957031 17.546875 C 54.957031 17.410156 55.066406 17.300781 55.203125 17.300781 Z M 55.203125 17.300781 "/>
<path style=" stroke:none;fill-rule:nonzero;fill:rgb(0%,0%,0%);fill-opacity:1;" d="M 40.769531 15.121094 L 40.746094 16.765625 L 40.746094 17.039062 C 40.746094 17.585938 40.769531 18.132812 40.847656 18.679688 C 41.964844 17.734375 43.160156 16.6875 43.160156 15.222656 C 43.160156 14.402344 42.8125 13.554688 42.089844 13.554688 C 41.320312 13.554688 40.796875 14.300781 40.769531 15.121094 Z M 39.726562 19.574219 L 39.429688 4.773438 C 39.628906 4.652344 39.875 4.578125 40.101562 4.578125 C 40.324219 4.578125 40.570312 4.652344 40.769531 4.773438 L 40.597656 13.355469 C 41.21875 12.835938 42.039062 12.511719 42.859375 12.511719 C 44.152344 12.511719 45.074219 13.703125 45.074219 15.046875 C 45.074219 17.039062 42.933594 17.957031 41.417969 19.25 C 41.042969 19.574219 40.820312 20.195312 40.296875 20.195312 C 39.976562 20.195312 39.726562 19.921875 39.726562 19.574219 Z M 39.726562 19.574219 "/>
<path style=" stroke:none;fill-rule:nonzero;fill:rgb(0%,0%,0%);fill-opacity:1;" d="M 30.632812 18.230469 L 30.609375 19.871094 L 30.609375 20.148438 C 30.609375 20.695312 30.632812 21.242188 30.707031 21.789062 C 31.828125 20.84375 33.023438 19.796875 33.023438 18.332031 C 33.023438 17.511719 32.671875 16.664062 31.953125 16.664062 C 31.179688 16.664062 30.660156 17.410156 30.632812 18.230469 Z M 29.589844 22.683594 L 29.289062 7.882812 C 29.488281 7.761719 29.738281 7.683594 29.960938 7.683594 C 30.1875 7.683594 30.433594 7.761719 30.632812 7.882812 L 30.460938 16.464844 C 31.082031 15.941406 31.902344 15.621094 32.722656 15.621094 C 34.015625 15.621094 34.9375 16.8125 34.9375 18.15625 C 34.9375 20.148438 32.796875 21.066406 31.28125 22.359375 C 30.90625 22.683594 30.683594 23.304688 30.160156 23.304688 C 29.835938 23.304688 29.589844 23.03125 29.589844 22.683594 Z M 29.589844 22.683594 "/>
<path style=" stroke:none;fill-rule:nonzero;fill:rgb(0%,0%,0%);fill-opacity:1;" d="M 37.289062 30.667969 L 37.265625 32.308594 L 37.265625 32.582031 C 37.265625 33.128906 37.289062 33.675781 37.363281 34.222656 C 38.484375 33.28125 39.675781 32.234375 39.675781 30.765625 C 39.675781 29.945312 39.328125 29.101562 38.605469 29.101562 C 37.835938 29.101562 37.3125 29.847656 37.289062 30.667969 Z M 36.246094 35.121094 L 35.945312 20.320312 C 36.144531 20.195312 36.394531 20.121094 36.617188 20.121094 C 36.839844 20.121094 37.089844 20.195312 37.289062 20.320312 L 37.113281 28.902344 C 37.738281 28.378906 38.558594 28.054688 39.378906 28.054688 C 40.671875 28.054688 41.59375 29.25 41.59375 30.59375 C 41.59375 32.582031 39.453125 33.503906 37.9375 34.796875 C 37.5625 35.121094 37.339844 35.742188 36.816406 35.742188 C 36.492188 35.742188 36.246094 35.46875 36.246094 35.121094 Z M 36.246094 35.121094 "/>
<path style=" stroke:none;fill-rule:nonzero;fill:rgb(0%,0%,0%);fill-opacity:1;" d="M 16.152344 59.917969 L 16.003906 59.917969 C 13.316406 59.917969 11.152344 57.730469 11.152344 55.019531 C 11.152344 53.574219 12.46875 52.457031 13.9375 52.457031 C 15.28125 52.457031 16.300781 53.625 16.300781 55.019531 C 16.300781 56.3125 15.230469 57.382812 13.9375 57.382812 C 13.664062 57.382812 13.414062 57.332031 13.167969 57.230469 C 13.8125 58.203125 14.859375 58.847656 16.078125 58.847656 L 16.175781 58.847656 Z M 21 49.171875 C 22.691406 48.574219 23.8125 46.808594 23.8125 45.09375 C 23.8125 42.855469 22.171875 40.640625 19.507812 40.367188 C 20.105469 43.253906 20.652344 46.113281 21 49.171875 Z M 11.375 43.425781 C 11.375 46.785156 14.585938 49.570312 17.941406 49.570312 C 18.640625 49.570312 19.308594 49.519531 19.980469 49.421875 C 19.632812 46.261719 19.0625 43.328125 18.414062 40.367188 C 16.449219 40.566406 15.332031 41.886719 15.332031 43.328125 C 15.332031 44.421875 15.953125 45.589844 17.34375 46.386719 C 17.46875 46.511719 17.519531 46.636719 17.519531 46.761719 C 17.519531 47.035156 17.269531 47.308594 16.972656 47.308594 C 16.898438 47.308594 16.824219 47.28125 16.75 47.257812 C 14.757812 46.1875 13.839844 44.398438 13.839844 42.65625 C 13.839844 40.46875 15.28125 38.328125 17.816406 37.757812 C 17.46875 36.3125 17.097656 34.847656 16.675781 33.402344 C 14.011719 36.414062 11.375 39.449219 11.375 43.425781 Z M 17.867188 50.640625 C 13.191406 50.640625 9.585938 46.363281 9.585938 41.339844 C 9.585938 36.9375 12.84375 33.726562 15.753906 30.371094 C 15.28125 28.828125 14.832031 27.261719 14.632812 25.644531 C 14.484375 24.351562 14.460938 23.058594 14.460938 21.761719 C 14.460938 18.902344 15.828125 16.191406 18.167969 14.5 C 18.316406 14.375 18.515625 14.375 18.664062 14.5 C 20.429688 16.589844 21.972656 20.59375 21.972656 23.40625 C 21.972656 26.960938 19.832031 29.746094 17.496094 32.457031 C 18.015625 34.148438 18.464844 35.890625 18.886719 37.605469 C 18.988281 37.605469 19.113281 37.582031 19.210938 37.582031 C 23.066406 37.582031 25.578125 40.765625 25.578125 44.074219 C 25.578125 45.964844 24.757812 47.90625 22.917969 49.296875 C 22.371094 49.71875 21.746094 49.992188 21.101562 50.191406 C 21.175781 51.0625 21.226562 51.933594 21.226562 52.804688 C 21.226562 53.277344 21.199219 53.773438 21.175781 54.246094 C 21 57.207031 18.988281 59.84375 16.152344 59.917969 L 16.175781 58.847656 C 18.488281 58.796875 19.980469 56.558594 20.132812 54.097656 C 20.15625 53.648438 20.179688 53.175781 20.179688 52.730469 C 20.179688 51.957031 20.15625 51.210938 20.082031 50.441406 C 19.359375 50.566406 18.640625 50.640625 17.867188 50.640625 Z M 20.179688 21.339844 C 20.179688 19.972656 20.082031 19.375 19.683594 18.132812 C 17.222656 19.324219 15.652344 21.839844 15.652344 24.574219 C 15.652344 26.414062 16.101562 27.882812 16.550781 29.398438 C 18.539062 26.988281 20.179688 24.472656 20.179688 21.339844 Z M 20.179688 21.339844 "/>
<path style=" stroke:none;fill-rule:nonzero;fill:rgb(0%,0%,0%);fill-opacity:1;" d="M 60.378906 12.757812 C 61.746094 12.757812 63.066406 13.457031 63.066406 14.972656 C 63.066406 16.738281 61.695312 17.984375 60.527344 18.679688 C 59.65625 19.203125 58.660156 19.523438 57.640625 19.523438 C 56.273438 19.523438 54.957031 18.828125 54.957031 17.3125 C 54.957031 15.546875 56.324219 14.300781 57.492188 13.605469 C 58.363281 13.082031 59.359375 12.757812 60.378906 12.757812 Z M 60.378906 12.757812 "/>
<path style=" stroke:none;fill-rule:nonzero;fill:rgb(0%,0%,0%);fill-opacity:1;" d="M 52.671875 15.867188 C 54.039062 15.867188 55.359375 16.566406 55.359375 18.082031 C 55.359375 19.847656 53.992188 21.089844 52.820312 21.789062 C 51.953125 22.308594 50.957031 22.632812 49.9375 22.632812 C 48.570312 22.632812 47.25 21.9375 47.25 20.421875 C 47.25 18.652344 48.617188 17.410156 49.789062 16.714844 C 50.65625 16.191406 51.652344 15.867188 52.671875 15.867188 Z M 52.671875 15.867188 "/>
<path style=" stroke:none;fill-rule:nonzero;fill:rgb(0%,0%,0%);fill-opacity:1;" d="M 60.378906 22.085938 C 61.746094 22.085938 63.066406 22.78125 63.066406 24.300781 C 63.066406 26.066406 61.695312 27.308594 60.527344 28.007812 C 59.65625 28.527344 58.660156 28.851562 57.640625 28.851562 C 56.273438 28.851562 54.957031 28.15625 54.957031 26.636719 C 54.957031 24.871094 56.324219 23.628906 57.492188 22.933594 C 58.363281 22.410156 59.359375 22.085938 60.378906 22.085938 Z M 60.378906 22.085938 "/>
<path style=" stroke:none;fill-rule:nonzero;fill:rgb(0%,0%,0%);fill-opacity:1;" d="M 60.378906 28.304688 C 61.746094 28.304688 63.066406 29 63.066406 30.519531 C 63.066406 32.285156 61.695312 33.527344 60.527344 34.222656 C 59.65625 34.746094 58.660156 35.070312 57.640625 35.070312 C 56.273438 35.070312 54.957031 34.375 54.957031 32.855469 C 54.957031 31.089844 56.324219 29.847656 57.492188 29.152344 C 58.363281 28.628906 59.359375 28.304688 60.378906 28.304688 Z M 60.378906 28.304688 "/>
</g>
</svg>
