<?xml version="1.0" encoding="UTF-8"?>
<svg xmlns="http://www.w3.org/2000/svg" xmlns:xlink="http://www.w3.org/1999/xlink" width="82.402133pt" height="56.492415pt" viewBox="0 0 82.402133 56.492415" version="1.1">
<g id="surface1">
<path style="fill:none;stroke-width:0.1;stroke-linecap:round;stroke-linejoin:round;stroke:rgb(0%,0%,0%);stroke-opacity:1;stroke-miterlimit:4;" d="M 0.049863 0.000136391 L 10.849902 0.000136391 " transform="matrix(6.218149,0,0,6.218149,4.561038,35.667121)"/>
<path style="fill:none;stroke-width:0.1;stroke-linecap:round;stroke-linejoin:round;stroke:rgb(0%,0%,0%);stroke-opacity:1;stroke-miterlimit:4;" d="M 0.049863 0.0000397429 L 10.849902 0.0000397429 " transform="matrix(6.218149,0,0,6.218149,4.561038,29.448972)"/>
<path style="fill:none;stroke-width:0.1;stroke-linecap:round;stroke-linejoin:round;stroke:rgb(0%,0%,0%);stroke-opacity:1;stroke-miterlimit:4;" d="M 0.049863 -0.0000569057 L 10.849902 -0.0000569057 " transform="matrix(6.218149,0,0,6.218149,4.561038,23.230823)"/>
<path style="fill:none;stroke-width:0.1;stroke-linecap:round;stroke-linejoin:round;stroke:rgb(0%,0%,0%);stroke-opacity:1;stroke-miterlimit:4;" d="M 0.049863 -0.000153554 L 10.849902 -0.000153554 " transform="matrix(6.218149,0,0,6.218149,4.561038,17.012674)"/>
<path style="fill:none;stroke-width:0.1;stroke-linecap:round;stroke-linejoin:round;stroke:rgb(0%,0%,0%);stroke-opacity:1;stroke-miterlimit:4;" d="M 0.049863 -0.000250203 L 10.849902 -0.000250203 " transform="matrix(6.218149,0,0,6.218149,4.561038,10.794525)"/>
<path style=" stroke:none;fill-rule:nonzero;fill:rgb(0%,0%,0%);fill-opacity:1;" d="M 61.21875 4.578125 L 61.527344 4.578125 C 61.667969 4.578125 61.777344 4.6875 61.777344 4.824219 L 61.777344 37.371094 C 61.777344 37.507812 61.667969 37.617188 61.527344 37.617188 L 61.21875 37.617188 C 61.082031 37.617188 60.96875 37.507812 60.96875 37.371094 L 60.96875 4.824219 C 60.96875 4.6875 61.082031 4.578125 61.21875 4.578125 Z M 61.21875 4.578125 "/>
<path style=" stroke:none;fill-rule:nonzero;fill:rgb(0%,0%,0%);fill-opacity:1;" d="M 50.023438 34.101562 C 50.023438 34.347656 49.824219 34.574219 49.578125 34.574219 C 49.328125 34.574219 49.105469 34.347656 49.105469 34.101562 L 49.105469 30.492188 L 47.039062 31.265625 L 47.039062 35.195312 C 47.039062 35.441406 46.816406 35.667969 46.566406 35.667969 C 46.320312 35.667969 46.121094 35.441406 46.121094 35.195312 L 46.121094 31.589844 L 45.324219 31.886719 C 45.273438 31.910156 45.199219 31.910156 45.148438 31.910156 C 44.875 31.910156 44.652344 31.6875 44.652344 31.414062 L 44.652344 29.921875 C 44.652344 29.722656 44.777344 29.523438 44.976562 29.449219 L 46.121094 29.050781 L 46.121094 25.070312 L 45.324219 25.34375 C 45.273438 25.371094 45.199219 25.371094 45.148438 25.371094 C 44.875 25.371094 44.652344 25.144531 44.652344 24.871094 L 44.652344 23.378906 C 44.652344 23.179688 44.777344 23.007812 44.976562 22.933594 L 46.121094 22.507812 L 46.121094 18.578125 C 46.121094 18.332031 46.320312 18.105469 46.566406 18.105469 C 46.816406 18.105469 47.039062 18.332031 47.039062 18.578125 L 47.039062 22.1875 L 49.105469 21.414062 L 49.105469 17.484375 C 49.105469 17.238281 49.328125 17.011719 49.578125 17.011719 C 49.824219 17.011719 50.023438 17.238281 50.023438 17.484375 L 50.023438 21.089844 L 50.820312 20.792969 C 50.871094 20.769531 50.945312 20.769531 50.996094 20.769531 C 51.269531 20.769531 51.492188 20.992188 51.492188 21.265625 L 51.492188 22.757812 C 51.492188 22.957031 51.367188 23.15625 51.167969 23.230469 L 50.023438 23.628906 L 50.023438 27.609375 L 50.820312 27.335938 C 50.871094 27.308594 50.945312 27.308594 50.996094 27.308594 C 51.269531 27.308594 51.492188 27.535156 51.492188 27.808594 L 51.492188 29.300781 C 51.492188 29.5 51.367188 29.671875 51.167969 29.746094 L 50.023438 30.171875 Z M 47.039062 24.722656 L 47.039062 28.703125 L 49.105469 27.957031 L 49.105469 23.976562 Z M 47.039062 24.722656 "/>
<path style=" stroke:none;fill-rule:nonzero;fill:rgb(0%,0%,0%);fill-opacity:1;" d="M 35.324219 40.316406 C 35.324219 40.566406 35.125 40.789062 34.878906 40.789062 C 34.628906 40.789062 34.40625 40.566406 34.40625 40.316406 L 34.40625 36.710938 L 32.339844 37.484375 L 32.339844 41.414062 C 32.339844 41.660156 32.117188 41.886719 31.867188 41.886719 C 31.617188 41.886719 31.417969 41.660156 31.417969 41.414062 L 31.417969 37.804688 L 30.625 38.105469 C 30.574219 38.128906 30.5 38.128906 30.449219 38.128906 C 30.175781 38.128906 29.953125 37.90625 29.953125 37.632812 L 29.953125 36.140625 C 29.953125 35.941406 30.078125 35.742188 30.277344 35.667969 L 31.417969 35.269531 L 31.417969 31.289062 L 30.625 31.5625 C 30.574219 31.589844 30.5 31.589844 30.449219 31.589844 C 30.175781 31.589844 29.953125 31.363281 29.953125 31.089844 L 29.953125 29.597656 C 29.953125 29.398438 30.078125 29.226562 30.277344 29.152344 L 31.417969 28.726562 L 31.417969 24.796875 C 31.417969 24.550781 31.617188 24.324219 31.867188 24.324219 C 32.117188 24.324219 32.339844 24.550781 32.339844 24.796875 L 32.339844 28.40625 L 34.40625 27.632812 L 34.40625 23.703125 C 34.40625 23.453125 34.628906 23.230469 34.878906 23.230469 C 35.125 23.230469 35.324219 23.453125 35.324219 23.703125 L 35.324219 27.308594 L 36.121094 27.011719 C 36.171875 26.988281 36.246094 26.988281 36.292969 26.988281 C 36.566406 26.988281 36.792969 27.210938 36.792969 27.484375 L 36.792969 28.976562 C 36.792969 29.175781 36.667969 29.375 36.46875 29.449219 L 35.324219 29.847656 L 35.324219 33.828125 L 36.121094 33.554688 C 36.171875 33.527344 36.246094 33.527344 36.292969 33.527344 C 36.566406 33.527344 36.792969 33.75 36.792969 34.027344 L 36.792969 35.519531 C 36.792969 35.71875 36.667969 35.890625 36.46875 35.964844 L 35.324219 36.386719 Z M 32.339844 30.941406 L 32.339844 34.921875 L 34.40625 34.175781 L 34.40625 30.195312 Z M 32.339844 30.941406 "/>
<path style=" stroke:none;fill-rule:nonzero;fill:rgb(0%,0%,0%);fill-opacity:1;" d="M 43.410156 46.535156 C 43.410156 46.785156 43.210938 47.007812 42.960938 47.007812 C 42.710938 47.007812 42.488281 46.785156 42.488281 46.535156 L 42.488281 42.929688 L 40.421875 43.699219 L 40.421875 47.628906 C 40.421875 47.878906 40.199219 48.101562 39.949219 48.101562 C 39.703125 48.101562 39.503906 47.878906 39.503906 47.628906 L 39.503906 44.023438 L 38.707031 44.324219 C 38.65625 44.347656 38.582031 44.347656 38.535156 44.347656 C 38.257812 44.347656 38.035156 44.125 38.035156 43.851562 L 38.035156 42.359375 C 38.035156 42.160156 38.160156 41.960938 38.359375 41.886719 L 39.503906 41.488281 L 39.503906 37.507812 L 38.707031 37.78125 C 38.65625 37.804688 38.582031 37.804688 38.535156 37.804688 C 38.257812 37.804688 38.035156 37.582031 38.035156 37.308594 L 38.035156 35.816406 C 38.035156 35.617188 38.160156 35.441406 38.359375 35.367188 L 39.503906 34.945312 L 39.503906 31.015625 C 39.503906 30.765625 39.703125 30.542969 39.949219 30.542969 C 40.199219 30.542969 40.421875 30.765625 40.421875 31.015625 L 40.421875 34.621094 L 42.488281 33.851562 L 42.488281 29.921875 C 42.488281 29.671875 42.710938 29.449219 42.960938 29.449219 C 43.210938 29.449219 43.410156 29.671875 43.410156 29.921875 L 43.410156 33.527344 L 44.203125 33.230469 C 44.253906 33.203125 44.328125 33.203125 44.378906 33.203125 C 44.652344 33.203125 44.875 33.429688 44.875 33.703125 L 44.875 35.195312 C 44.875 35.394531 44.75 35.59375 44.550781 35.667969 L 43.410156 36.066406 L 43.410156 40.042969 L 44.203125 39.769531 C 44.253906 39.746094 44.328125 39.746094 44.378906 39.746094 C 44.652344 39.746094 44.875 39.96875 44.875 40.242188 L 44.875 41.734375 C 44.875 41.933594 44.75 42.109375 44.550781 42.183594 L 43.410156 42.605469 Z M 40.421875 37.160156 L 40.421875 41.140625 L 42.488281 40.394531 L 42.488281 36.414062 Z M 40.421875 37.160156 "/>
<path style=" stroke:none;fill-rule:nonzero;fill:rgb(0%,0%,0%);fill-opacity:1;" d="M 23.390625 20.121094 C 23.390625 19.425781 23.960938 18.851562 24.65625 18.851562 C 25.355469 18.851562 25.925781 19.425781 25.925781 20.121094 C 25.925781 20.816406 25.355469 21.390625 24.65625 21.390625 C 23.960938 21.390625 23.390625 20.816406 23.390625 20.121094 Z M 23.390625 13.902344 C 23.390625 13.207031 23.960938 12.636719 24.65625 12.636719 C 25.355469 12.636719 25.925781 13.207031 25.925781 13.902344 C 25.925781 14.601562 25.355469 15.171875 24.65625 15.171875 C 23.960938 15.171875 23.390625 14.601562 23.390625 13.902344 Z M 15.304688 10.472656 C 19.585938 10.472656 22.59375 12.660156 22.59375 16.714844 C 22.59375 23.253906 16.050781 27.011719 9.757812 29.671875 C 9.683594 29.746094 9.609375 29.773438 9.535156 29.773438 C 9.363281 29.773438 9.210938 29.625 9.210938 29.449219 C 9.210938 29.375 9.238281 29.300781 9.3125 29.226562 C 14.335938 26.289062 19.558594 22.632812 19.558594 16.964844 C 19.558594 13.976562 17.992188 11.117188 15.304688 11.117188 C 13.464844 11.117188 12.097656 12.460938 11.476562 14.25 C 11.75 14.128906 12.023438 14.054688 12.320312 14.054688 C 13.6875 14.054688 14.808594 15.171875 14.808594 16.539062 C 14.808594 17.984375 13.714844 19.175781 12.320312 19.175781 C 10.828125 19.175781 9.535156 18.007812 9.535156 16.539062 C 9.535156 13.230469 12.074219 10.472656 15.304688 10.472656 Z M 15.304688 10.472656 "/>
<path style=" stroke:none;fill-rule:nonzero;fill:rgb(0%,0%,0%);fill-opacity:1;" d="M 59.089844 22.957031 C 60.457031 22.957031 61.777344 23.652344 61.777344 25.171875 C 61.777344 26.9375 60.410156 28.179688 59.238281 28.875 C 58.371094 29.398438 57.375 29.722656 56.355469 29.722656 C 54.988281 29.722656 53.667969 29.027344 53.667969 27.507812 C 53.667969 25.742188 55.035156 24.5 56.207031 23.804688 C 57.074219 23.28125 58.070312 22.957031 59.089844 22.957031 Z M 59.089844 22.957031 "/>
<path style=" stroke:none;fill-rule:nonzero;fill:rgb(0%,0%,0%);fill-opacity:1;" d="M 59.089844 29.175781 C 60.457031 29.175781 61.777344 29.871094 61.777344 31.390625 C 61.777344 33.15625 60.410156 34.398438 59.238281 35.09375 C 58.371094 35.617188 57.375 35.941406 56.355469 35.941406 C 54.988281 35.941406 53.667969 35.246094 53.667969 33.726562 C 53.667969 31.960938 55.035156 30.71875 56.207031 30.019531 C 57.074219 29.5 58.070312 29.175781 59.089844 29.175781 Z M 59.089844 29.175781 "/>
<path style=" stroke:none;fill-rule:nonzero;fill:rgb(0%,0%,0%);fill-opacity:1;" d="M 59.089844 35.394531 C 60.457031 35.394531 61.777344 36.089844 61.777344 37.605469 C 61.777344 39.375 60.410156 40.617188 59.238281 41.3125 C 58.371094 41.835938 57.375 42.160156 56.355469 42.160156 C 54.988281 42.160156 53.667969 41.460938 53.667969 39.945312 C 53.667969 38.179688 55.035156 36.9375 56.207031 36.238281 C 57.074219 35.71875 58.070312 35.394531 59.089844 35.394531 Z M 59.089844 35.394531 "/>
</g>
</svg>
