<?xml version="1.0" encoding="UTF-8"?>
<svg xmlns="http://www.w3.org/2000/svg" xmlns:xlink="http://www.w3.org/1999/xlink" width="75.798219pt" height="58.61114pt" viewBox="0 0 75.798219 58.61114" version="1.1">
<g id="surface1">
<path style="fill:none;stroke-width:0.1;stroke-linecap:round;stroke-linejoin:round;stroke:rgb(0%,0%,0%);stroke-opacity:1;stroke-miterlimit:4;" d="M 0.049863 -0.000287501 L 9.855459 -0.000287501 " transform="matrix(6.218149,0,0,6.218149,4.561038,40.517413)"/>
<path style="fill:none;stroke-width:0.1;stroke-linecap:round;stroke-linejoin:round;stroke:rgb(0%,0%,0%);stroke-opacity:1;stroke-miterlimit:4;" d="M 0.049863 0.000244052 L 9.855459 0.000244052 " transform="matrix(6.218149,0,0,6.218149,4.561038,34.299264)"/>
<path style="fill:none;stroke-width:0.1;stroke-linecap:round;stroke-linejoin:round;stroke:rgb(0%,0%,0%);stroke-opacity:1;stroke-miterlimit:4;" d="M 0.049863 0.000147403 L 9.855459 0.000147403 " transform="matrix(6.218149,0,0,6.218149,4.561038,28.081115)"/>
<path style="fill:none;stroke-width:0.1;stroke-linecap:round;stroke-linejoin:round;stroke:rgb(0%,0%,0%);stroke-opacity:1;stroke-miterlimit:4;" d="M 0.049863 0.0000507548 L 9.855459 0.0000507548 " transform="matrix(6.218149,0,0,6.218149,4.561038,21.862966)"/>
<path style="fill:none;stroke-width:0.1;stroke-linecap:round;stroke-linejoin:round;stroke:rgb(0%,0%,0%);stroke-opacity:1;stroke-miterlimit:4;" d="M 0.049863 -0.0000458938 L 9.855459 -0.0000458938 " transform="matrix(6.218149,0,0,6.218149,4.561038,15.644817)"/>
<path style=" stroke:none;fill-rule:nonzero;fill:rgb(0%,0%,0%);fill-opacity:1;" d="M 55.035156 9.425781 L 55.347656 9.425781 C 55.484375 9.425781 55.59375 9.539062 55.59375 9.675781 L 55.59375 42.21875 C 55.59375 42.359375 55.484375 42.46875 55.347656 42.46875 L 55.035156 42.46875 C 54.898438 42.46875 54.785156 42.359375 54.785156 42.21875 L 54.785156 9.675781 C 54.785156 9.539062 54.898438 9.425781 55.035156 9.425781 Z M 55.035156 9.425781 "/>
<path style=" stroke:none;fill-rule:nonzero;fill:rgb(0%,0%,0%);fill-opacity:1;" d="M 41.003906 30.171875 L 40.980469 31.8125 L 40.980469 32.085938 C 40.980469 32.632812 41.003906 33.179688 41.082031 33.726562 C 42.199219 32.78125 43.394531 31.738281 43.394531 30.269531 C 43.394531 29.449219 43.046875 28.601562 42.324219 28.601562 C 41.554688 28.601562 41.03125 29.351562 41.003906 30.171875 Z M 39.960938 34.621094 L 39.664062 19.824219 C 39.863281 19.699219 40.109375 19.625 40.335938 19.625 C 40.558594 19.625 40.804688 19.699219 41.003906 19.824219 L 40.832031 28.40625 C 41.453125 27.882812 42.273438 27.558594 43.09375 27.558594 C 44.386719 27.558594 45.308594 28.753906 45.308594 30.097656 C 45.308594 32.085938 43.167969 33.007812 41.652344 34.300781 C 41.277344 34.621094 41.054688 35.246094 40.53125 35.246094 C 40.210938 35.246094 39.960938 34.972656 39.960938 34.621094 Z M 39.960938 34.621094 "/>
<path style=" stroke:none;fill-rule:nonzero;fill:rgb(0%,0%,0%);fill-opacity:1;" d="M 30.632812 36.386719 L 30.609375 38.03125 L 30.609375 38.304688 C 30.609375 38.851562 30.632812 39.398438 30.707031 39.945312 C 31.828125 39 33.023438 37.957031 33.023438 36.488281 C 33.023438 35.667969 32.671875 34.820312 31.953125 34.820312 C 31.179688 34.820312 30.660156 35.566406 30.632812 36.386719 Z M 29.589844 40.839844 L 29.289062 26.042969 C 29.488281 25.917969 29.738281 25.84375 29.960938 25.84375 C 30.1875 25.84375 30.433594 25.917969 30.632812 26.042969 L 30.460938 34.621094 C 31.082031 34.101562 31.902344 33.777344 32.722656 33.777344 C 34.015625 33.777344 34.9375 34.972656 34.9375 36.3125 C 34.9375 38.304688 32.796875 39.222656 31.28125 40.515625 C 30.90625 40.839844 30.683594 41.460938 30.160156 41.460938 C 29.835938 41.460938 29.589844 41.1875 29.589844 40.839844 Z M 29.589844 40.839844 "/>
<path style=" stroke:none;fill-rule:nonzero;fill:rgb(0%,0%,0%);fill-opacity:1;" d="M 37.523438 42.605469 L 37.5 44.25 L 37.5 44.523438 C 37.5 45.070312 37.523438 45.617188 37.597656 46.164062 C 38.71875 45.21875 39.910156 44.171875 39.910156 42.707031 C 39.910156 41.886719 39.5625 41.039062 38.839844 41.039062 C 38.070312 41.039062 37.546875 41.785156 37.523438 42.605469 Z M 36.480469 47.058594 L 36.179688 32.257812 C 36.378906 32.136719 36.628906 32.0625 36.851562 32.0625 C 37.074219 32.0625 37.324219 32.136719 37.523438 32.257812 L 37.347656 40.839844 C 37.972656 40.320312 38.792969 39.996094 39.613281 39.996094 C 40.90625 39.996094 41.828125 41.1875 41.828125 42.53125 C 41.828125 44.523438 39.6875 45.441406 38.171875 46.734375 C 37.796875 47.058594 37.574219 47.679688 37.050781 47.679688 C 36.726562 47.679688 36.480469 47.40625 36.480469 47.058594 Z M 36.480469 47.058594 "/>
<path style=" stroke:none;fill-rule:nonzero;fill:rgb(0%,0%,0%);fill-opacity:1;" d="M 16.152344 50.09375 L 16.003906 50.09375 C 13.316406 50.09375 11.152344 47.90625 11.152344 45.195312 C 11.152344 43.75 12.46875 42.632812 13.9375 42.632812 C 15.28125 42.632812 16.300781 43.800781 16.300781 45.195312 C 16.300781 46.488281 15.230469 47.554688 13.9375 47.554688 C 13.664062 47.554688 13.414062 47.507812 13.167969 47.40625 C 13.8125 48.378906 14.859375 49.023438 16.078125 49.023438 L 16.175781 49.023438 Z M 21 39.347656 C 22.691406 38.75 23.8125 36.984375 23.8125 35.269531 C 23.8125 33.03125 22.171875 30.816406 19.507812 30.542969 C 20.105469 33.429688 20.652344 36.289062 21 39.347656 Z M 11.375 33.601562 C 11.375 36.960938 14.585938 39.746094 17.941406 39.746094 C 18.640625 39.746094 19.308594 39.695312 19.980469 39.597656 C 19.632812 36.4375 19.0625 33.503906 18.414062 30.542969 C 16.449219 30.742188 15.332031 32.0625 15.332031 33.503906 C 15.332031 34.597656 15.953125 35.765625 17.34375 36.5625 C 17.46875 36.6875 17.519531 36.8125 17.519531 36.9375 C 17.519531 37.210938 17.269531 37.484375 16.972656 37.484375 C 16.898438 37.484375 16.824219 37.457031 16.75 37.433594 C 14.757812 36.363281 13.839844 34.574219 13.839844 32.832031 C 13.839844 30.644531 15.28125 28.503906 17.816406 27.933594 C 17.46875 26.488281 17.097656 25.023438 16.675781 23.578125 C 14.011719 26.589844 11.375 29.625 11.375 33.601562 Z M 17.867188 40.816406 C 13.191406 40.816406 9.585938 36.539062 9.585938 31.511719 C 9.585938 27.109375 12.84375 23.902344 15.753906 20.542969 C 15.28125 19.003906 14.832031 17.4375 14.632812 15.820312 C 14.484375 14.527344 14.460938 13.230469 14.460938 11.9375 C 14.460938 9.078125 15.828125 6.367188 18.167969 4.675781 C 18.316406 4.550781 18.515625 4.550781 18.664062 4.675781 C 20.429688 6.765625 21.972656 10.769531 21.972656 13.582031 C 21.972656 17.136719 19.832031 19.921875 17.496094 22.632812 C 18.015625 24.324219 18.464844 26.066406 18.886719 27.78125 C 18.988281 27.78125 19.113281 27.757812 19.210938 27.757812 C 23.066406 27.757812 25.578125 30.941406 25.578125 34.25 C 25.578125 36.140625 24.757812 38.078125 22.917969 39.472656 C 22.371094 39.894531 21.746094 40.167969 21.101562 40.367188 C 21.175781 41.238281 21.226562 42.109375 21.226562 42.980469 C 21.226562 43.453125 21.199219 43.949219 21.175781 44.421875 C 21 47.382812 18.988281 50.019531 16.152344 50.09375 L 16.175781 49.023438 C 18.488281 48.972656 19.980469 46.734375 20.132812 44.273438 C 20.15625 43.824219 20.179688 43.351562 20.179688 42.90625 C 20.179688 42.132812 20.15625 41.386719 20.082031 40.617188 C 19.359375 40.742188 18.640625 40.816406 17.867188 40.816406 Z M 20.179688 11.515625 C 20.179688 10.148438 20.082031 9.550781 19.683594 8.308594 C 17.222656 9.5 15.652344 12.011719 15.652344 14.75 C 15.652344 16.589844 16.101562 18.058594 16.550781 19.574219 C 18.539062 17.160156 20.179688 14.648438 20.179688 11.515625 Z M 20.179688 11.515625 "/>
<path style=" stroke:none;fill-rule:nonzero;fill:rgb(0%,0%,0%);fill-opacity:1;" d="M 52.90625 27.808594 C 54.273438 27.808594 55.59375 28.503906 55.59375 30.019531 C 55.59375 31.789062 54.226562 33.03125 53.054688 33.726562 C 52.1875 34.25 51.191406 34.574219 50.171875 34.574219 C 48.804688 34.574219 47.484375 33.875 47.484375 32.359375 C 47.484375 30.59375 48.851562 29.351562 50.023438 28.652344 C 50.890625 28.132812 51.886719 27.808594 52.90625 27.808594 Z M 52.90625 27.808594 "/>
<path style=" stroke:none;fill-rule:nonzero;fill:rgb(0%,0%,0%);fill-opacity:1;" d="M 52.90625 34.027344 C 54.273438 34.027344 55.59375 34.722656 55.59375 36.238281 C 55.59375 38.003906 54.226562 39.25 53.054688 39.945312 C 52.1875 40.46875 51.191406 40.789062 50.171875 40.789062 C 48.804688 40.789062 47.484375 40.09375 47.484375 38.578125 C 47.484375 36.8125 48.851562 35.566406 50.023438 34.871094 C 50.890625 34.347656 51.886719 34.027344 52.90625 34.027344 Z M 52.90625 34.027344 "/>
<path style=" stroke:none;fill-rule:nonzero;fill:rgb(0%,0%,0%);fill-opacity:1;" d="M 52.90625 40.242188 C 54.273438 40.242188 55.59375 40.941406 55.59375 42.457031 C 55.59375 44.222656 54.226562 45.46875 53.054688 46.164062 C 52.1875 46.6875 51.191406 47.007812 50.171875 47.007812 C 48.804688 47.007812 47.484375 46.3125 47.484375 44.796875 C 47.484375 43.03125 48.851562 41.785156 50.023438 41.089844 C 50.890625 40.566406 51.886719 40.242188 52.90625 40.242188 Z M 52.90625 40.242188 "/>
</g>
</svg>
