<?xml version="1.0" encoding="UTF-8"?>
<svg xmlns="http://www.w3.org/2000/svg" xmlns:xlink="http://www.w3.org/1999/xlink" width="68.472344pt" height="50.142879pt" viewBox="0 0 68.472344 50.142879" version="1.1">
<g id="surface1">
<path style="fill:none;stroke-width:0.1;stroke-linecap:round;stroke-linejoin:round;stroke:rgb(0%,0%,0%);stroke-opacity:1;stroke-miterlimit:4;" d="M 0.049863 0.000178545 L 8.752337 0.000178545 " transform="matrix(6.218149,0,0,6.218149,4.561038,35.940296)"/>
<path style="fill:none;stroke-width:0.1;stroke-linecap:round;stroke-linejoin:round;stroke:rgb(0%,0%,0%);stroke-opacity:1;stroke-miterlimit:4;" d="M 0.049863 0.0000818968 L 8.752337 0.0000818968 " transform="matrix(6.218149,0,0,6.218149,4.561038,29.722147)"/>
<path style="fill:none;stroke-width:0.1;stroke-linecap:round;stroke-linejoin:round;stroke:rgb(0%,0%,0%);stroke-opacity:1;stroke-miterlimit:4;" d="M 0.049863 -0.0000147518 L 8.752337 -0.0000147518 " transform="matrix(6.218149,0,0,6.218149,4.561038,23.503998)"/>
<path style="fill:none;stroke-width:0.1;stroke-linecap:round;stroke-linejoin:round;stroke:rgb(0%,0%,0%);stroke-opacity:1;stroke-miterlimit:4;" d="M 0.049863 -0.0001114 L 8.752337 -0.0001114 " transform="matrix(6.218149,0,0,6.218149,4.561038,17.285849)"/>
<path style="fill:none;stroke-width:0.1;stroke-linecap:round;stroke-linejoin:round;stroke:rgb(0%,0%,0%);stroke-opacity:1;stroke-miterlimit:4;" d="M 0.049863 -0.000208049 L 8.752337 -0.000208049 " transform="matrix(6.218149,0,0,6.218149,4.561038,11.0677)"/>
<path style=" stroke:none;fill-rule:nonzero;fill:rgb(0%,0%,0%);fill-opacity:1;" d="M 36.984375 21.9375 C 36.984375 22.1875 36.785156 22.410156 36.535156 22.410156 C 36.285156 22.410156 36.0625 22.1875 36.0625 21.9375 L 36.0625 18.332031 L 33.996094 19.101562 L 33.996094 23.03125 C 33.996094 23.28125 33.773438 23.503906 33.523438 23.503906 C 33.277344 23.503906 33.078125 23.28125 33.078125 23.03125 L 33.078125 19.425781 L 32.28125 19.722656 C 32.230469 19.75 32.15625 19.75 32.109375 19.75 C 31.832031 19.75 31.609375 19.523438 31.609375 19.25 L 31.609375 17.757812 C 31.609375 17.558594 31.734375 17.359375 31.933594 17.285156 L 33.078125 16.886719 L 33.078125 12.910156 L 32.28125 13.183594 C 32.230469 13.207031 32.15625 13.207031 32.109375 13.207031 C 31.832031 13.207031 31.609375 12.984375 31.609375 12.710938 L 31.609375 11.21875 C 31.609375 11.019531 31.734375 10.84375 31.933594 10.769531 L 33.078125 10.347656 L 33.078125 6.417969 C 33.078125 6.167969 33.277344 5.945312 33.523438 5.945312 C 33.773438 5.945312 33.996094 6.167969 33.996094 6.417969 L 33.996094 10.023438 L 36.0625 9.253906 L 36.0625 5.320312 C 36.0625 5.074219 36.285156 4.847656 36.535156 4.847656 C 36.785156 4.847656 36.984375 5.074219 36.984375 5.320312 L 36.984375 8.929688 L 37.777344 8.628906 C 37.828125 8.605469 37.902344 8.605469 37.953125 8.605469 C 38.226562 8.605469 38.449219 8.828125 38.449219 9.101562 L 38.449219 10.59375 C 38.449219 10.792969 38.324219 10.992188 38.125 11.066406 L 36.984375 11.464844 L 36.984375 15.445312 L 37.777344 15.171875 C 37.828125 15.148438 37.902344 15.148438 37.953125 15.148438 C 38.226562 15.148438 38.449219 15.371094 38.449219 15.644531 L 38.449219 17.136719 C 38.449219 17.335938 38.324219 17.507812 38.125 17.585938 L 36.984375 18.007812 Z M 33.996094 12.558594 L 33.996094 16.539062 L 36.0625 15.792969 L 36.0625 11.8125 Z M 33.996094 12.558594 "/>
<path style=" stroke:none;fill-rule:nonzero;fill:rgb(0%,0%,0%);fill-opacity:1;" d="M 40.875 9.117188 L 41.1875 9.117188 C 41.324219 9.117188 41.433594 9.226562 41.433594 9.363281 L 41.433594 41.910156 C 41.433594 42.046875 41.324219 42.160156 41.1875 42.160156 L 40.875 42.160156 C 40.738281 42.160156 40.625 42.046875 40.625 41.910156 L 40.625 9.363281 C 40.625 9.226562 40.738281 9.117188 40.875 9.117188 Z M 40.875 9.117188 "/>
<path style=" stroke:none;fill-rule:nonzero;fill:rgb(0%,0%,0%);fill-opacity:1;" d="M 23.390625 20.394531 C 23.390625 19.699219 23.960938 19.125 24.65625 19.125 C 25.355469 19.125 25.925781 19.699219 25.925781 20.394531 C 25.925781 21.089844 25.355469 21.664062 24.65625 21.664062 C 23.960938 21.664062 23.390625 21.089844 23.390625 20.394531 Z M 23.390625 14.175781 C 23.390625 13.480469 23.960938 12.910156 24.65625 12.910156 C 25.355469 12.910156 25.925781 13.480469 25.925781 14.175781 C 25.925781 14.875 25.355469 15.445312 24.65625 15.445312 C 23.960938 15.445312 23.390625 14.875 23.390625 14.175781 Z M 15.304688 10.746094 C 19.585938 10.746094 22.59375 12.933594 22.59375 16.988281 C 22.59375 23.527344 16.050781 27.285156 9.757812 29.945312 C 9.683594 30.019531 9.609375 30.046875 9.535156 30.046875 C 9.363281 30.046875 9.210938 29.894531 9.210938 29.722656 C 9.210938 29.648438 9.238281 29.574219 9.3125 29.5 C 14.335938 26.5625 19.558594 22.90625 19.558594 17.234375 C 19.558594 14.25 17.992188 11.390625 15.304688 11.390625 C 13.464844 11.390625 12.097656 12.734375 11.476562 14.523438 C 11.75 14.402344 12.023438 14.324219 12.320312 14.324219 C 13.6875 14.324219 14.808594 15.445312 14.808594 16.8125 C 14.808594 18.257812 13.714844 19.449219 12.320312 19.449219 C 10.828125 19.449219 9.535156 18.28125 9.535156 16.8125 C 9.535156 13.503906 12.074219 10.746094 15.304688 10.746094 Z M 15.304688 10.746094 "/>
<path style=" stroke:none;fill-rule:nonzero;fill:rgb(0%,0%,0%);fill-opacity:1;" d="M 46.046875 4.574219 C 47.417969 4.574219 48.734375 5.273438 48.734375 6.789062 C 48.734375 8.554688 47.367188 9.800781 46.199219 10.496094 C 45.328125 11.019531 44.332031 11.339844 43.3125 11.339844 C 41.945312 11.339844 40.625 10.644531 40.625 9.128906 C 40.625 7.363281 41.996094 6.117188 43.164062 5.421875 C 44.035156 4.898438 45.027344 4.574219 46.046875 4.574219 Z M 46.046875 4.574219 "/>
<path style=" stroke:none;fill-rule:nonzero;fill:rgb(0%,0%,0%);fill-opacity:1;" d="M 46.046875 10.792969 C 47.417969 10.792969 48.734375 11.492188 48.734375 13.007812 C 48.734375 14.773438 47.367188 16.015625 46.199219 16.714844 C 45.328125 17.234375 44.332031 17.558594 43.3125 17.558594 C 41.945312 17.558594 40.625 16.863281 40.625 15.347656 C 40.625 13.578125 41.996094 12.335938 43.164062 11.640625 C 44.035156 11.117188 45.027344 10.792969 46.046875 10.792969 Z M 46.046875 10.792969 "/>
<path style=" stroke:none;fill-rule:nonzero;fill:rgb(0%,0%,0%);fill-opacity:1;" d="M 46.046875 17.011719 C 47.417969 17.011719 48.734375 17.707031 48.734375 19.226562 C 48.734375 20.992188 47.367188 22.234375 46.199219 22.933594 C 45.328125 23.453125 44.332031 23.777344 43.3125 23.777344 C 41.945312 23.777344 40.625 23.082031 40.625 21.5625 C 40.625 19.796875 41.996094 18.554688 43.164062 17.859375 C 44.035156 17.335938 45.027344 17.011719 46.046875 17.011719 Z M 46.046875 17.011719 "/>
</g>
</svg>
