<?xml version="1.0" encoding="UTF-8"?>
<svg xmlns="http://www.w3.org/2000/svg" xmlns:xlink="http://www.w3.org/1999/xlink" width="87.715553pt" height="63.134188pt" viewBox="0 0 87.715553 63.134188" version="1.1">
<g id="surface1">
<path style="fill:none;stroke-width:0.1;stroke-linecap:round;stroke-linejoin:round;stroke:rgb(0%,0%,0%);stroke-opacity:1;stroke-miterlimit:4;" d="M 0.049863 0.0000610068 L 11.649602 0.0000610068 " transform="matrix(6.218149,0,0,6.218149,4.561038,32.409777)"/>
<path style="fill:none;stroke-width:0.1;stroke-linecap:round;stroke-linejoin:round;stroke:rgb(0%,0%,0%);stroke-opacity:1;stroke-miterlimit:4;" d="M 0.049863 -0.0000356418 L 11.649602 -0.0000356418 " transform="matrix(6.218149,0,0,6.218149,4.561038,26.191628)"/>
<path style="fill:none;stroke-width:0.1;stroke-linecap:round;stroke-linejoin:round;stroke:rgb(0%,0%,0%);stroke-opacity:1;stroke-miterlimit:4;" d="M 0.049863 -0.00013229 L 11.649602 -0.00013229 " transform="matrix(6.218149,0,0,6.218149,4.561038,19.973479)"/>
<path style="fill:none;stroke-width:0.1;stroke-linecap:round;stroke-linejoin:round;stroke:rgb(0%,0%,0%);stroke-opacity:1;stroke-miterlimit:4;" d="M 0.049863 -0.000228939 L 11.649602 -0.000228939 " transform="matrix(6.218149,0,0,6.218149,4.561038,13.75533)"/>
<path style="fill:none;stroke-width:0.1;stroke-linecap:round;stroke-linejoin:round;stroke:rgb(0%,0%,0%);stroke-opacity:1;stroke-miterlimit:4;" d="M 0.049863 0.000302495 L 11.649602 0.000302495 " transform="matrix(6.218149,0,0,6.218149,4.561038,7.537182)"/>
<path style=" stroke:none;fill-rule:nonzero;fill:rgb(0%,0%,0%);fill-opacity:1;" d="M 57.238281 38.007812 L 68.15625 38.007812 C 68.5 38.007812 68.78125 38.285156 68.78125 38.628906 C 68.78125 38.972656 68.5 39.25 68.15625 39.25 L 57.238281 39.25 C 56.894531 39.25 56.613281 38.972656 56.613281 38.628906 C 56.613281 38.285156 56.894531 38.007812 57.238281 38.007812 Z M 57.238281 38.007812 "/>
<path style=" stroke:none;fill-rule:nonzero;fill:rgb(0%,0%,0%);fill-opacity:1;" d="M 57.238281 44.222656 L 68.15625 44.222656 C 68.5 44.222656 68.78125 44.503906 68.78125 44.847656 C 68.78125 45.191406 68.5 45.46875 68.15625 45.46875 L 57.238281 45.46875 C 56.894531 45.46875 56.613281 45.191406 56.613281 44.847656 C 56.613281 44.503906 56.894531 44.222656 57.238281 44.222656 Z M 57.238281 44.222656 "/>
<path style=" stroke:none;fill-rule:nonzero;fill:rgb(0%,0%,0%);fill-opacity:1;" d="M 66.191406 4.429688 L 66.503906 4.429688 C 66.640625 4.429688 66.753906 4.539062 66.753906 4.675781 L 66.753906 43.441406 C 66.753906 43.578125 66.640625 43.6875 66.503906 43.6875 L 66.191406 43.6875 C 66.054688 43.6875 65.945312 43.578125 65.945312 43.441406 L 65.945312 4.675781 C 65.945312 4.539062 66.054688 4.429688 66.191406 4.429688 Z M 66.191406 4.429688 "/>
<path style=" stroke:none;fill-rule:nonzero;fill:rgb(0%,0%,0%);fill-opacity:1;" d="M 55 33.953125 C 55 34.199219 54.800781 34.425781 54.550781 34.425781 C 54.300781 34.425781 54.078125 34.199219 54.078125 33.953125 L 54.078125 30.34375 L 52.015625 31.117188 L 52.015625 35.046875 C 52.015625 35.296875 51.789062 35.519531 51.542969 35.519531 C 51.292969 35.519531 51.09375 35.296875 51.09375 35.046875 L 51.09375 31.441406 L 50.296875 31.738281 C 50.25 31.761719 50.171875 31.761719 50.125 31.761719 C 49.851562 31.761719 49.625 31.539062 49.625 31.265625 L 49.625 29.773438 C 49.625 29.574219 49.75 29.375 49.949219 29.300781 L 51.09375 28.902344 L 51.09375 24.921875 L 50.296875 25.195312 C 50.25 25.222656 50.171875 25.222656 50.125 25.222656 C 49.851562 25.222656 49.625 24.996094 49.625 24.722656 L 49.625 23.230469 C 49.625 23.03125 49.75 22.859375 49.949219 22.785156 L 51.09375 22.359375 L 51.09375 18.429688 C 51.09375 18.183594 51.292969 17.957031 51.542969 17.957031 C 51.789062 17.957031 52.015625 18.183594 52.015625 18.429688 L 52.015625 22.039062 L 54.078125 21.265625 L 54.078125 17.335938 C 54.078125 17.089844 54.300781 16.863281 54.550781 16.863281 C 54.800781 16.863281 55 17.089844 55 17.335938 L 55 20.945312 L 55.792969 20.644531 C 55.84375 20.621094 55.917969 20.621094 55.96875 20.621094 C 56.242188 20.621094 56.464844 20.84375 56.464844 21.117188 L 56.464844 22.609375 C 56.464844 22.808594 56.34375 23.007812 56.144531 23.082031 L 55 23.480469 L 55 27.460938 L 55.792969 27.1875 C 55.84375 27.160156 55.917969 27.160156 55.96875 27.160156 C 56.242188 27.160156 56.464844 27.386719 56.464844 27.660156 L 56.464844 29.152344 C 56.464844 29.351562 56.34375 29.523438 56.144531 29.597656 L 55 30.023438 Z M 52.015625 24.574219 L 52.015625 28.554688 L 54.078125 27.808594 L 54.078125 23.828125 Z M 52.015625 24.574219 "/>
<path style=" stroke:none;fill-rule:nonzero;fill:rgb(0%,0%,0%);fill-opacity:1;" d="M 43.410156 40.171875 C 43.410156 40.417969 43.210938 40.644531 42.960938 40.644531 C 42.710938 40.644531 42.488281 40.417969 42.488281 40.171875 L 42.488281 36.5625 L 40.421875 37.335938 L 40.421875 41.265625 C 40.421875 41.511719 40.199219 41.738281 39.949219 41.738281 C 39.703125 41.738281 39.503906 41.511719 39.503906 41.265625 L 39.503906 37.65625 L 38.707031 37.957031 C 38.65625 37.980469 38.582031 37.980469 38.535156 37.980469 C 38.257812 37.980469 38.035156 37.757812 38.035156 37.484375 L 38.035156 35.992188 C 38.035156 35.792969 38.160156 35.59375 38.359375 35.519531 L 39.503906 35.121094 L 39.503906 31.140625 L 38.707031 31.414062 C 38.65625 31.441406 38.582031 31.441406 38.535156 31.441406 C 38.257812 31.441406 38.035156 31.214844 38.035156 30.941406 L 38.035156 29.449219 C 38.035156 29.25 38.160156 29.078125 38.359375 29.003906 L 39.503906 28.578125 L 39.503906 24.648438 C 39.503906 24.402344 39.703125 24.175781 39.949219 24.175781 C 40.199219 24.175781 40.421875 24.402344 40.421875 24.648438 L 40.421875 28.257812 L 42.488281 27.484375 L 42.488281 23.554688 C 42.488281 23.304688 42.710938 23.082031 42.960938 23.082031 C 43.210938 23.082031 43.410156 23.304688 43.410156 23.554688 L 43.410156 27.160156 L 44.203125 26.863281 C 44.253906 26.839844 44.328125 26.839844 44.378906 26.839844 C 44.652344 26.839844 44.875 27.0625 44.875 27.335938 L 44.875 28.828125 C 44.875 29.027344 44.75 29.226562 44.550781 29.300781 L 43.410156 29.699219 L 43.410156 33.679688 L 44.203125 33.40625 C 44.253906 33.378906 44.328125 33.378906 44.378906 33.378906 C 44.652344 33.378906 44.875 33.605469 44.875 33.878906 L 44.875 35.371094 C 44.875 35.570312 44.75 35.742188 44.550781 35.816406 L 43.410156 36.238281 Z M 40.421875 30.792969 L 40.421875 34.773438 L 42.488281 34.027344 L 42.488281 30.046875 Z M 40.421875 30.792969 "/>
<path style=" stroke:none;fill-rule:nonzero;fill:rgb(0%,0%,0%);fill-opacity:1;" d="M 35.324219 46.386719 C 35.324219 46.636719 35.125 46.859375 34.878906 46.859375 C 34.628906 46.859375 34.40625 46.636719 34.40625 46.386719 L 34.40625 42.78125 L 32.339844 43.550781 L 32.339844 47.484375 C 32.339844 47.730469 32.117188 47.957031 31.867188 47.957031 C 31.617188 47.957031 31.417969 47.730469 31.417969 47.484375 L 31.417969 43.875 L 30.625 44.175781 C 30.574219 44.199219 30.5 44.199219 30.449219 44.199219 C 30.175781 44.199219 29.953125 43.976562 29.953125 43.703125 L 29.953125 42.210938 C 29.953125 42.011719 30.078125 41.8125 30.277344 41.738281 L 31.417969 41.339844 L 31.417969 37.359375 L 30.625 37.632812 C 30.574219 37.65625 30.5 37.65625 30.449219 37.65625 C 30.175781 37.65625 29.953125 37.433594 29.953125 37.160156 L 29.953125 35.667969 C 29.953125 35.46875 30.078125 35.296875 30.277344 35.21875 L 31.417969 34.796875 L 31.417969 30.867188 C 31.417969 30.617188 31.617188 30.394531 31.867188 30.394531 C 32.117188 30.394531 32.339844 30.617188 32.339844 30.867188 L 32.339844 34.472656 L 34.40625 33.703125 L 34.40625 29.773438 C 34.40625 29.523438 34.628906 29.300781 34.878906 29.300781 C 35.125 29.300781 35.324219 29.523438 35.324219 29.773438 L 35.324219 33.378906 L 36.121094 33.082031 C 36.171875 33.054688 36.246094 33.054688 36.292969 33.054688 C 36.566406 33.054688 36.792969 33.28125 36.792969 33.554688 L 36.792969 35.046875 C 36.792969 35.246094 36.667969 35.445312 36.46875 35.519531 L 35.324219 35.917969 L 35.324219 39.894531 L 36.121094 39.621094 C 36.171875 39.597656 36.246094 39.597656 36.292969 39.597656 C 36.566406 39.597656 36.792969 39.820312 36.792969 40.09375 L 36.792969 41.585938 C 36.792969 41.785156 36.667969 41.960938 36.46875 42.035156 L 35.324219 42.457031 Z M 32.339844 37.011719 L 32.339844 40.992188 L 34.40625 40.246094 L 34.40625 36.265625 Z M 32.339844 37.011719 "/>
<path style=" stroke:none;fill-rule:nonzero;fill:rgb(0%,0%,0%);fill-opacity:1;" d="M 49.851562 52.605469 C 49.851562 52.855469 49.652344 53.078125 49.402344 53.078125 C 49.152344 53.078125 48.929688 52.855469 48.929688 52.605469 L 48.929688 49 L 46.867188 49.769531 L 46.867188 53.699219 C 46.867188 53.949219 46.640625 54.171875 46.394531 54.171875 C 46.144531 54.171875 45.945312 53.949219 45.945312 53.699219 L 45.945312 50.09375 L 45.148438 50.394531 C 45.101562 50.417969 45.023438 50.417969 44.976562 50.417969 C 44.703125 50.417969 44.476562 50.195312 44.476562 49.921875 L 44.476562 48.425781 C 44.476562 48.230469 44.601562 48.03125 44.800781 47.957031 L 45.945312 47.558594 L 45.945312 43.578125 L 45.148438 43.851562 C 45.101562 43.875 45.023438 43.875 44.976562 43.875 C 44.703125 43.875 44.476562 43.652344 44.476562 43.378906 L 44.476562 41.886719 C 44.476562 41.6875 44.601562 41.511719 44.800781 41.4375 L 45.945312 41.015625 L 45.945312 37.085938 C 45.945312 36.835938 46.144531 36.613281 46.394531 36.613281 C 46.640625 36.613281 46.867188 36.835938 46.867188 37.085938 L 46.867188 40.691406 L 48.929688 39.921875 L 48.929688 35.992188 C 48.929688 35.742188 49.152344 35.519531 49.402344 35.519531 C 49.652344 35.519531 49.851562 35.742188 49.851562 35.992188 L 49.851562 39.597656 L 50.644531 39.300781 C 50.695312 39.273438 50.769531 39.273438 50.820312 39.273438 C 51.09375 39.273438 51.316406 39.5 51.316406 39.773438 L 51.316406 41.265625 C 51.316406 41.464844 51.195312 41.664062 50.996094 41.738281 L 49.851562 42.136719 L 49.851562 46.113281 L 50.644531 45.839844 C 50.695312 45.816406 50.769531 45.816406 50.820312 45.816406 C 51.09375 45.816406 51.316406 46.039062 51.316406 46.3125 L 51.316406 47.804688 C 51.316406 48.003906 51.195312 48.179688 50.996094 48.253906 L 49.851562 48.675781 Z M 46.867188 43.230469 L 46.867188 47.207031 L 48.929688 46.460938 L 48.929688 42.484375 Z M 46.867188 43.230469 "/>
<path style=" stroke:none;fill-rule:nonzero;fill:rgb(0%,0%,0%);fill-opacity:1;" d="M 23.390625 16.863281 C 23.390625 16.167969 23.960938 15.597656 24.65625 15.597656 C 25.355469 15.597656 25.925781 16.167969 25.925781 16.863281 C 25.925781 17.5625 25.355469 18.132812 24.65625 18.132812 C 23.960938 18.132812 23.390625 17.5625 23.390625 16.863281 Z M 23.390625 10.644531 C 23.390625 9.949219 23.960938 9.378906 24.65625 9.378906 C 25.355469 9.378906 25.925781 9.949219 25.925781 10.644531 C 25.925781 11.34375 25.355469 11.914062 24.65625 11.914062 C 23.960938 11.914062 23.390625 11.34375 23.390625 10.644531 Z M 15.304688 7.214844 C 19.585938 7.214844 22.59375 9.402344 22.59375 13.457031 C 22.59375 20 16.050781 23.753906 9.757812 26.414062 C 9.683594 26.488281 9.609375 26.515625 9.535156 26.515625 C 9.363281 26.515625 9.210938 26.367188 9.210938 26.191406 C 9.210938 26.117188 9.238281 26.042969 9.3125 25.96875 C 14.335938 23.03125 19.558594 19.375 19.558594 13.707031 C 19.558594 10.722656 17.992188 7.859375 15.304688 7.859375 C 13.464844 7.859375 12.097656 9.203125 11.476562 10.996094 C 11.75 10.871094 12.023438 10.796875 12.320312 10.796875 C 13.6875 10.796875 14.808594 11.914062 14.808594 13.28125 C 14.808594 14.726562 13.714844 15.917969 12.320312 15.917969 C 10.828125 15.917969 9.535156 14.75 9.535156 13.28125 C 9.535156 9.976562 12.074219 7.214844 15.304688 7.214844 Z M 15.304688 7.214844 "/>
<path style=" stroke:none;fill-rule:nonzero;fill:rgb(0%,0%,0%);fill-opacity:1;" d="M 64.066406 22.808594 C 65.433594 22.808594 66.75 23.503906 66.75 25.023438 C 66.75 26.789062 65.382812 28.03125 64.214844 28.730469 C 63.34375 29.25 62.347656 29.574219 61.328125 29.574219 C 59.960938 29.574219 58.644531 28.878906 58.644531 27.359375 C 58.644531 25.59375 60.011719 24.351562 61.179688 23.65625 C 62.050781 23.132812 63.046875 22.808594 64.066406 22.808594 Z M 64.066406 22.808594 "/>
<path style=" stroke:none;fill-rule:nonzero;fill:rgb(0%,0%,0%);fill-opacity:1;" d="M 64.066406 29.027344 C 65.433594 29.027344 66.75 29.722656 66.75 31.242188 C 66.75 33.007812 65.382812 34.25 64.214844 34.945312 C 63.34375 35.46875 62.347656 35.792969 61.328125 35.792969 C 59.960938 35.792969 58.644531 35.097656 58.644531 33.578125 C 58.644531 31.8125 60.011719 30.570312 61.179688 29.871094 C 62.050781 29.351562 63.046875 29.027344 64.066406 29.027344 Z M 64.066406 29.027344 "/>
<path style=" stroke:none;fill-rule:nonzero;fill:rgb(0%,0%,0%);fill-opacity:1;" d="M 64.066406 35.246094 C 65.433594 35.246094 66.75 35.941406 66.75 37.457031 C 66.75 39.226562 65.382812 40.46875 64.214844 41.164062 C 63.34375 41.6875 62.347656 42.011719 61.328125 42.011719 C 59.960938 42.011719 58.644531 41.3125 58.644531 39.796875 C 58.644531 38.03125 60.011719 36.789062 61.179688 36.089844 C 62.050781 35.570312 63.046875 35.246094 64.066406 35.246094 Z M 64.066406 35.246094 "/>
<path style=" stroke:none;fill-rule:nonzero;fill:rgb(0%,0%,0%);fill-opacity:1;" d="M 64.066406 41.464844 C 65.433594 41.464844 66.75 42.160156 66.75 43.675781 C 66.75 45.441406 65.382812 46.6875 64.214844 47.382812 C 63.34375 47.90625 62.347656 48.230469 61.328125 48.230469 C 59.960938 48.230469 58.644531 47.53125 58.644531 46.015625 C 58.644531 44.25 60.011719 43.003906 61.179688 42.308594 C 62.050781 41.785156 63.046875 41.464844 64.066406 41.464844 Z M 64.066406 41.464844 "/>
</g>
</svg>
