<?xml version="1.0" encoding="UTF-8"?>
<svg xmlns="http://www.w3.org/2000/svg" xmlns:xlink="http://www.w3.org/1999/xlink" width="73.767826pt" height="55.385232pt" viewBox="0 0 73.767826 55.385232" version="1.1">
<g id="surface1">
<path style="fill:none;stroke-width:0.1;stroke-linecap:round;stroke-linejoin:round;stroke:rgb(0%,0%,0%);stroke-opacity:1;stroke-miterlimit:4;" d="M 0.049863 -0.000217086 L 9.549525 -0.000217086 " transform="matrix(6.218149,0,0,6.218149,4.561038,37.739631)"/>
<path style="fill:none;stroke-width:0.1;stroke-linecap:round;stroke-linejoin:round;stroke:rgb(0%,0%,0%);stroke-opacity:1;stroke-miterlimit:4;" d="M 0.049863 -0.000313735 L 9.549525 -0.000313735 " transform="matrix(6.218149,0,0,6.218149,4.561038,31.521482)"/>
<path style="fill:none;stroke-width:0.1;stroke-linecap:round;stroke-linejoin:round;stroke:rgb(0%,0%,0%);stroke-opacity:1;stroke-miterlimit:4;" d="M 0.049863 0.000217818 L 9.549525 0.000217818 " transform="matrix(6.218149,0,0,6.218149,4.561038,25.303333)"/>
<path style="fill:none;stroke-width:0.1;stroke-linecap:round;stroke-linejoin:round;stroke:rgb(0%,0%,0%);stroke-opacity:1;stroke-miterlimit:4;" d="M 0.049863 0.000121169 L 9.549525 0.000121169 " transform="matrix(6.218149,0,0,6.218149,4.561038,19.085184)"/>
<path style="fill:none;stroke-width:0.1;stroke-linecap:round;stroke-linejoin:round;stroke:rgb(0%,0%,0%);stroke-opacity:1;stroke-miterlimit:4;" d="M 0.049863 0.0000245208 L 9.549525 0.0000245208 " transform="matrix(6.218149,0,0,6.218149,4.561038,12.867035)"/>
<path style=" stroke:none;fill-rule:nonzero;fill:rgb(0%,0%,0%);fill-opacity:1;" d="M 53.132812 4.578125 L 53.445312 4.578125 C 53.582031 4.578125 53.695312 4.6875 53.695312 4.824219 L 53.695312 36.332031 C 53.695312 36.472656 53.582031 36.582031 53.445312 36.582031 L 53.132812 36.582031 C 52.996094 36.582031 52.886719 36.472656 52.886719 36.332031 L 52.886719 4.824219 C 52.886719 4.6875 52.996094 4.578125 53.132812 4.578125 Z M 53.132812 4.578125 "/>
<path style=" stroke:none;fill-rule:nonzero;fill:rgb(0%,0%,0%);fill-opacity:1;" d="M 41.941406 33.0625 C 41.941406 33.3125 41.742188 33.535156 41.492188 33.535156 C 41.246094 33.535156 41.019531 33.3125 41.019531 33.0625 L 41.019531 29.457031 L 38.957031 30.226562 L 38.957031 34.15625 C 38.957031 34.40625 38.730469 34.628906 38.484375 34.628906 C 38.234375 34.628906 38.035156 34.40625 38.035156 34.15625 L 38.035156 30.550781 L 37.238281 30.851562 C 37.191406 30.875 37.117188 30.875 37.066406 30.875 C 36.792969 30.875 36.566406 30.652344 36.566406 30.378906 L 36.566406 28.886719 C 36.566406 28.6875 36.691406 28.488281 36.890625 28.414062 L 38.035156 28.015625 L 38.035156 24.035156 L 37.238281 24.308594 C 37.191406 24.332031 37.117188 24.332031 37.066406 24.332031 C 36.792969 24.332031 36.566406 24.109375 36.566406 23.835938 L 36.566406 22.34375 C 36.566406 22.144531 36.691406 21.96875 36.890625 21.894531 L 38.035156 21.472656 L 38.035156 17.542969 C 38.035156 17.292969 38.234375 17.070312 38.484375 17.070312 C 38.730469 17.070312 38.957031 17.292969 38.957031 17.542969 L 38.957031 21.148438 L 41.019531 20.378906 L 41.019531 16.449219 C 41.019531 16.199219 41.246094 15.976562 41.492188 15.976562 C 41.742188 15.976562 41.941406 16.199219 41.941406 16.449219 L 41.941406 20.054688 L 42.738281 19.757812 C 42.785156 19.730469 42.859375 19.730469 42.910156 19.730469 C 43.183594 19.730469 43.410156 19.957031 43.410156 20.230469 L 43.410156 21.722656 C 43.410156 21.921875 43.285156 22.121094 43.085938 22.195312 L 41.941406 22.59375 L 41.941406 26.570312 L 42.738281 26.296875 C 42.785156 26.273438 42.859375 26.273438 42.910156 26.273438 C 43.183594 26.273438 43.410156 26.496094 43.410156 26.769531 L 43.410156 28.261719 C 43.410156 28.460938 43.285156 28.636719 43.085938 28.710938 L 41.941406 29.132812 Z M 38.957031 23.6875 L 38.957031 27.667969 L 41.019531 26.921875 L 41.019531 22.941406 Z M 38.957031 23.6875 "/>
<path style=" stroke:none;fill-rule:nonzero;fill:rgb(0%,0%,0%);fill-opacity:1;" d="M 35.324219 45.5 C 35.324219 45.75 35.125 45.972656 34.878906 45.972656 C 34.628906 45.972656 34.40625 45.75 34.40625 45.5 L 34.40625 41.894531 L 32.339844 42.664062 L 32.339844 46.59375 C 32.339844 46.84375 32.117188 47.066406 31.867188 47.066406 C 31.617188 47.066406 31.417969 46.84375 31.417969 46.59375 L 31.417969 42.988281 L 30.625 43.285156 C 30.574219 43.3125 30.5 43.3125 30.449219 43.3125 C 30.175781 43.3125 29.953125 43.085938 29.953125 42.8125 L 29.953125 41.320312 C 29.953125 41.121094 30.078125 40.921875 30.277344 40.847656 L 31.417969 40.449219 L 31.417969 36.472656 L 30.625 36.746094 C 30.574219 36.769531 30.5 36.769531 30.449219 36.769531 C 30.175781 36.769531 29.953125 36.546875 29.953125 36.273438 L 29.953125 34.78125 C 29.953125 34.582031 30.078125 34.40625 30.277344 34.332031 L 31.417969 33.910156 L 31.417969 29.980469 C 31.417969 29.730469 31.617188 29.507812 31.867188 29.507812 C 32.117188 29.507812 32.339844 29.730469 32.339844 29.980469 L 32.339844 33.585938 L 34.40625 32.816406 L 34.40625 28.886719 C 34.40625 28.636719 34.628906 28.414062 34.878906 28.414062 C 35.125 28.414062 35.324219 28.636719 35.324219 28.886719 L 35.324219 32.492188 L 36.121094 32.191406 C 36.171875 32.167969 36.246094 32.167969 36.292969 32.167969 C 36.566406 32.167969 36.792969 32.390625 36.792969 32.664062 L 36.792969 34.15625 C 36.792969 34.355469 36.667969 34.554688 36.46875 34.628906 L 35.324219 35.027344 L 35.324219 39.007812 L 36.121094 38.734375 C 36.171875 38.710938 36.246094 38.710938 36.292969 38.710938 C 36.566406 38.710938 36.792969 38.933594 36.792969 39.207031 L 36.792969 40.699219 C 36.792969 40.898438 36.667969 41.074219 36.46875 41.148438 L 35.324219 41.570312 Z M 32.339844 36.121094 L 32.339844 40.101562 L 34.40625 39.355469 L 34.40625 35.375 Z M 32.339844 36.121094 "/>
<path style=" stroke:none;fill-rule:nonzero;fill:rgb(0%,0%,0%);fill-opacity:1;" d="M 23.390625 22.195312 C 23.390625 21.496094 23.960938 20.925781 24.65625 20.925781 C 25.355469 20.925781 25.925781 21.496094 25.925781 22.195312 C 25.925781 22.890625 25.355469 23.460938 24.65625 23.460938 C 23.960938 23.460938 23.390625 22.890625 23.390625 22.195312 Z M 23.390625 15.976562 C 23.390625 15.28125 23.960938 14.707031 24.65625 14.707031 C 25.355469 14.707031 25.925781 15.28125 25.925781 15.976562 C 25.925781 16.671875 25.355469 17.246094 24.65625 17.246094 C 23.960938 17.246094 23.390625 16.671875 23.390625 15.976562 Z M 15.304688 12.542969 C 19.585938 12.542969 22.59375 14.734375 22.59375 18.785156 C 22.59375 25.328125 16.050781 29.082031 9.757812 31.746094 C 9.683594 31.820312 9.609375 31.84375 9.535156 31.84375 C 9.363281 31.84375 9.210938 31.695312 9.210938 31.519531 C 9.210938 31.445312 9.238281 31.371094 9.3125 31.296875 C 14.335938 28.363281 19.558594 24.707031 19.558594 19.035156 C 19.558594 16.050781 17.992188 13.191406 15.304688 13.191406 C 13.464844 13.191406 12.097656 14.535156 11.476562 16.324219 C 11.75 16.199219 12.023438 16.125 12.320312 16.125 C 13.6875 16.125 14.808594 17.246094 14.808594 18.613281 C 14.808594 20.054688 13.714844 21.25 12.320312 21.25 C 10.828125 21.25 9.535156 20.082031 9.535156 18.613281 C 9.535156 15.304688 12.074219 12.542969 15.304688 12.542969 Z M 15.304688 12.542969 "/>
<path style=" stroke:none;fill-rule:nonzero;fill:rgb(0%,0%,0%);fill-opacity:1;" d="M 51.007812 21.921875 C 52.375 21.921875 53.691406 22.617188 53.691406 24.132812 C 53.691406 25.898438 52.324219 27.144531 51.15625 27.839844 C 50.285156 28.363281 49.289062 28.6875 48.269531 28.6875 C 46.902344 28.6875 45.585938 27.988281 45.585938 26.472656 C 45.585938 24.707031 46.953125 23.460938 48.121094 22.765625 C 48.992188 22.242188 49.988281 21.921875 51.007812 21.921875 Z M 51.007812 21.921875 "/>
<path style=" stroke:none;fill-rule:nonzero;fill:rgb(0%,0%,0%);fill-opacity:1;" d="M 51.007812 28.140625 C 52.375 28.140625 53.691406 28.835938 53.691406 30.351562 C 53.691406 32.117188 52.324219 33.363281 51.15625 34.058594 C 50.285156 34.582031 49.289062 34.902344 48.269531 34.902344 C 46.902344 34.902344 45.585938 34.207031 45.585938 32.691406 C 45.585938 30.925781 46.953125 29.679688 48.121094 28.984375 C 48.992188 28.460938 49.988281 28.140625 51.007812 28.140625 Z M 51.007812 28.140625 "/>
<path style=" stroke:none;fill-rule:nonzero;fill:rgb(0%,0%,0%);fill-opacity:1;" d="M 51.007812 34.355469 C 52.375 34.355469 53.691406 35.054688 53.691406 36.570312 C 53.691406 38.335938 52.324219 39.582031 51.15625 40.277344 C 50.285156 40.800781 49.289062 41.121094 48.269531 41.121094 C 46.902344 41.121094 45.585938 40.425781 45.585938 38.910156 C 45.585938 37.144531 46.953125 35.898438 48.121094 35.203125 C 48.992188 34.679688 49.988281 34.355469 51.007812 34.355469 Z M 51.007812 34.355469 "/>
</g>
</svg>
