<?xml version="1.0" encoding="UTF-8"?>
<svg xmlns="http://www.w3.org/2000/svg" xmlns:xlink="http://www.w3.org/1999/xlink" width="68.472344pt" height="53.171528pt" viewBox="0 0 68.472344 53.171528" version="1.1">
<g id="surface1">
<path style="fill:none;stroke-width:0.1;stroke-linecap:round;stroke-linejoin:round;stroke:rgb(0%,0%,0%);stroke-opacity:1;stroke-miterlimit:4;" d="M 0.049863 0.0000610068 L 8.752337 0.0000610068 " transform="matrix(6.218149,0,0,6.218149,4.561038,32.409777)"/>
<path style="fill:none;stroke-width:0.1;stroke-linecap:round;stroke-linejoin:round;stroke:rgb(0%,0%,0%);stroke-opacity:1;stroke-miterlimit:4;" d="M 0.049863 -0.0000356418 L 8.752337 -0.0000356418 " transform="matrix(6.218149,0,0,6.218149,4.561038,26.191628)"/>
<path style="fill:none;stroke-width:0.1;stroke-linecap:round;stroke-linejoin:round;stroke:rgb(0%,0%,0%);stroke-opacity:1;stroke-miterlimit:4;" d="M 0.049863 -0.00013229 L 8.752337 -0.00013229 " transform="matrix(6.218149,0,0,6.218149,4.561038,19.973479)"/>
<path style="fill:none;stroke-width:0.1;stroke-linecap:round;stroke-linejoin:round;stroke:rgb(0%,0%,0%);stroke-opacity:1;stroke-miterlimit:4;" d="M 0.049863 -0.000228939 L 8.752337 -0.000228939 " transform="matrix(6.218149,0,0,6.218149,4.561038,13.75533)"/>
<path style="fill:none;stroke-width:0.1;stroke-linecap:round;stroke-linejoin:round;stroke:rgb(0%,0%,0%);stroke-opacity:1;stroke-miterlimit:4;" d="M 0.049863 0.000302495 L 8.752337 0.000302495 " transform="matrix(6.218149,0,0,6.218149,4.561038,7.537182)"/>
<path style=" stroke:none;fill-rule:nonzero;fill:rgb(0%,0%,0%);fill-opacity:1;" d="M 36.984375 21.515625 C 36.984375 21.765625 36.785156 21.988281 36.535156 21.988281 C 36.285156 21.988281 36.0625 21.765625 36.0625 21.515625 L 36.0625 17.910156 L 33.996094 18.679688 L 33.996094 22.609375 C 33.996094 22.859375 33.773438 23.082031 33.523438 23.082031 C 33.277344 23.082031 33.078125 22.859375 33.078125 22.609375 L 33.078125 19.003906 L 32.28125 19.300781 C 32.230469 19.328125 32.15625 19.328125 32.109375 19.328125 C 31.832031 19.328125 31.609375 19.101562 31.609375 18.828125 L 31.609375 17.335938 C 31.609375 17.136719 31.734375 16.9375 31.933594 16.863281 L 33.078125 16.464844 L 33.078125 12.488281 L 32.28125 12.761719 C 32.230469 12.785156 32.15625 12.785156 32.109375 12.785156 C 31.832031 12.785156 31.609375 12.5625 31.609375 12.289062 L 31.609375 10.796875 C 31.609375 10.597656 31.734375 10.421875 31.933594 10.347656 L 33.078125 9.925781 L 33.078125 5.996094 C 33.078125 5.746094 33.277344 5.523438 33.523438 5.523438 C 33.773438 5.523438 33.996094 5.746094 33.996094 5.996094 L 33.996094 9.601562 L 36.0625 8.832031 L 36.0625 4.902344 C 36.0625 4.652344 36.285156 4.429688 36.535156 4.429688 C 36.785156 4.429688 36.984375 4.652344 36.984375 4.902344 L 36.984375 8.507812 L 37.777344 8.207031 C 37.828125 8.183594 37.902344 8.183594 37.953125 8.183594 C 38.226562 8.183594 38.449219 8.40625 38.449219 8.679688 L 38.449219 10.171875 C 38.449219 10.371094 38.324219 10.570312 38.125 10.644531 L 36.984375 11.042969 L 36.984375 15.023438 L 37.777344 14.75 C 37.828125 14.726562 37.902344 14.726562 37.953125 14.726562 C 38.226562 14.726562 38.449219 14.949219 38.449219 15.222656 L 38.449219 16.714844 C 38.449219 16.914062 38.324219 17.089844 38.125 17.164062 L 36.984375 17.585938 Z M 33.996094 12.136719 L 33.996094 16.117188 L 36.0625 15.371094 L 36.0625 11.390625 Z M 33.996094 12.136719 "/>
<path style=" stroke:none;fill-rule:nonzero;fill:rgb(0%,0%,0%);fill-opacity:1;" d="M 40.875 14.914062 L 41.1875 14.914062 C 41.324219 14.914062 41.433594 15.023438 41.433594 15.160156 L 41.433594 44.597656 C 41.433594 44.734375 41.324219 44.847656 41.1875 44.847656 L 40.875 44.847656 C 40.738281 44.847656 40.625 44.734375 40.625 44.597656 L 40.625 15.160156 C 40.625 15.023438 40.738281 14.914062 40.875 14.914062 Z M 40.875 14.914062 "/>
<path style=" stroke:none;fill-rule:nonzero;fill:rgb(0%,0%,0%);fill-opacity:1;" d="M 23.390625 16.863281 C 23.390625 16.167969 23.960938 15.597656 24.65625 15.597656 C 25.355469 15.597656 25.925781 16.167969 25.925781 16.863281 C 25.925781 17.5625 25.355469 18.132812 24.65625 18.132812 C 23.960938 18.132812 23.390625 17.5625 23.390625 16.863281 Z M 23.390625 10.644531 C 23.390625 9.949219 23.960938 9.378906 24.65625 9.378906 C 25.355469 9.378906 25.925781 9.949219 25.925781 10.644531 C 25.925781 11.34375 25.355469 11.914062 24.65625 11.914062 C 23.960938 11.914062 23.390625 11.34375 23.390625 10.644531 Z M 15.304688 7.214844 C 19.585938 7.214844 22.59375 9.402344 22.59375 13.457031 C 22.59375 20 16.050781 23.753906 9.757812 26.414062 C 9.683594 26.488281 9.609375 26.515625 9.535156 26.515625 C 9.363281 26.515625 9.210938 26.367188 9.210938 26.191406 C 9.210938 26.117188 9.238281 26.042969 9.3125 25.96875 C 14.335938 23.03125 19.558594 19.375 19.558594 13.707031 C 19.558594 10.722656 17.992188 7.859375 15.304688 7.859375 C 13.464844 7.859375 12.097656 9.203125 11.476562 10.996094 C 11.75 10.871094 12.023438 10.796875 12.320312 10.796875 C 13.6875 10.796875 14.808594 11.914062 14.808594 13.28125 C 14.808594 14.726562 13.714844 15.917969 12.320312 15.917969 C 10.828125 15.917969 9.535156 14.75 9.535156 13.28125 C 9.535156 9.976562 12.074219 7.214844 15.304688 7.214844 Z M 15.304688 7.214844 "/>
<path style=" stroke:none;fill-rule:nonzero;fill:rgb(0%,0%,0%);fill-opacity:1;" d="M 46.046875 10.371094 C 47.417969 10.371094 48.734375 11.070312 48.734375 12.585938 C 48.734375 14.351562 47.367188 15.597656 46.199219 16.292969 C 45.328125 16.816406 44.332031 17.136719 43.3125 17.136719 C 41.945312 17.136719 40.625 16.441406 40.625 14.925781 C 40.625 13.160156 41.996094 11.914062 43.164062 11.21875 C 44.035156 10.695312 45.027344 10.371094 46.046875 10.371094 Z M 46.046875 10.371094 "/>
<path style=" stroke:none;fill-rule:nonzero;fill:rgb(0%,0%,0%);fill-opacity:1;" d="M 46.046875 16.589844 C 47.417969 16.589844 48.734375 17.289062 48.734375 18.804688 C 48.734375 20.570312 47.367188 21.8125 46.199219 22.511719 C 45.328125 23.03125 44.332031 23.355469 43.3125 23.355469 C 41.945312 23.355469 40.625 22.660156 40.625 21.140625 C 40.625 19.375 41.996094 18.132812 43.164062 17.4375 C 44.035156 16.914062 45.027344 16.589844 46.046875 16.589844 Z M 46.046875 16.589844 "/>
<path style=" stroke:none;fill-rule:nonzero;fill:rgb(0%,0%,0%);fill-opacity:1;" d="M 46.046875 22.808594 C 47.417969 22.808594 48.734375 23.503906 48.734375 25.023438 C 48.734375 26.789062 47.367188 28.03125 46.199219 28.730469 C 45.328125 29.25 44.332031 29.574219 43.3125 29.574219 C 41.945312 29.574219 40.625 28.878906 40.625 27.359375 C 40.625 25.59375 41.996094 24.351562 43.164062 23.65625 C 44.035156 23.132812 45.027344 22.808594 46.046875 22.808594 Z M 46.046875 22.808594 "/>
</g>
</svg>
