<?xml version="1.0" encoding="UTF-8"?>
<svg xmlns="http://www.w3.org/2000/svg" xmlns:xlink="http://www.w3.org/1999/xlink" width="82.322431pt" height="57.116775pt" viewBox="0 0 82.322431 57.116775" version="1.1">
<g id="surface1">
<path style="fill:none;stroke-width:0.1;stroke-linecap:round;stroke-linejoin:round;stroke:rgb(0%,0%,0%);stroke-opacity:1;stroke-miterlimit:4;" d="M 0.049863 -0.000149165 L 10.837338 -0.000149165 " transform="matrix(6.218149,0,0,6.218149,4.561038,48.332959)"/>
<path style="fill:none;stroke-width:0.1;stroke-linecap:round;stroke-linejoin:round;stroke:rgb(0%,0%,0%);stroke-opacity:1;stroke-miterlimit:4;" d="M 0.049863 -0.000245814 L 10.837338 -0.000245814 " transform="matrix(6.218149,0,0,6.218149,4.561038,42.11481)"/>
<path style="fill:none;stroke-width:0.1;stroke-linecap:round;stroke-linejoin:round;stroke:rgb(0%,0%,0%);stroke-opacity:1;stroke-miterlimit:4;" d="M 0.049863 0.000285739 L 10.837338 0.000285739 " transform="matrix(6.218149,0,0,6.218149,4.561038,35.896661)"/>
<path style="fill:none;stroke-width:0.1;stroke-linecap:round;stroke-linejoin:round;stroke:rgb(0%,0%,0%);stroke-opacity:1;stroke-miterlimit:4;" d="M 0.049863 0.00018909 L 10.837338 0.00018909 " transform="matrix(6.218149,0,0,6.218149,4.561038,29.678512)"/>
<path style="fill:none;stroke-width:0.1;stroke-linecap:round;stroke-linejoin:round;stroke:rgb(0%,0%,0%);stroke-opacity:1;stroke-miterlimit:4;" d="M 0.049863 0.0000924418 L 10.837338 0.0000924418 " transform="matrix(6.218149,0,0,6.218149,4.561038,23.460363)"/>
<path style=" stroke:none;fill-rule:nonzero;fill:rgb(0%,0%,0%);fill-opacity:1;" d="M 52.980469 10.402344 L 63.109375 10.402344 C 63.453125 10.402344 63.730469 10.679688 63.730469 11.023438 C 63.730469 11.367188 63.453125 11.644531 63.109375 11.644531 L 52.980469 11.644531 C 52.636719 11.644531 52.355469 11.367188 52.355469 11.023438 C 52.355469 10.679688 52.636719 10.402344 52.980469 10.402344 Z M 52.980469 10.402344 "/>
<path style=" stroke:none;fill-rule:nonzero;fill:rgb(0%,0%,0%);fill-opacity:1;" d="M 52.1875 16.621094 L 63.109375 16.621094 C 63.453125 16.621094 63.730469 16.898438 63.730469 17.242188 C 63.730469 17.585938 63.453125 17.863281 63.109375 17.863281 L 52.1875 17.863281 C 51.84375 17.863281 51.566406 17.585938 51.566406 17.242188 C 51.566406 16.898438 51.84375 16.621094 52.1875 16.621094 Z M 52.1875 16.621094 "/>
<path style=" stroke:none;fill-rule:nonzero;fill:rgb(0%,0%,0%);fill-opacity:1;" d="M 53.84375 9.070312 L 54.152344 9.070312 C 54.289062 9.070312 54.402344 9.183594 54.402344 9.320312 L 54.402344 41.867188 C 54.402344 42.003906 54.289062 42.113281 54.152344 42.113281 L 53.84375 42.113281 C 53.703125 42.113281 53.59375 42.003906 53.59375 41.867188 L 53.59375 9.320312 C 53.59375 9.183594 53.703125 9.070312 53.84375 9.070312 Z M 53.84375 9.070312 "/>
<path style=" stroke:none;fill-rule:nonzero;fill:rgb(0%,0%,0%);fill-opacity:1;" d="M 48.683594 7.914062 C 49.253906 8.488281 50.074219 8.613281 50.894531 8.613281 C 51.046875 8.613281 51.144531 8.710938 51.144531 8.859375 L 51.367188 11.023438 C 51.394531 11.171875 51.269531 11.296875 51.121094 11.273438 L 48.957031 11.050781 C 48.832031 11.023438 48.707031 10.925781 48.707031 10.800781 C 48.707031 9.980469 48.582031 9.160156 48.011719 8.585938 C 47.4375 9.160156 47.339844 9.980469 47.339844 10.800781 C 47.339844 10.925781 47.214844 11.023438 47.089844 11.050781 L 44.902344 11.273438 C 44.753906 11.296875 44.628906 11.171875 44.652344 11.023438 L 44.878906 8.859375 C 44.878906 8.710938 44.976562 8.613281 45.125 8.613281 C 45.945312 8.613281 46.765625 8.488281 47.339844 7.914062 C 46.765625 7.34375 45.945312 7.21875 45.125 7.21875 C 44.976562 7.21875 44.878906 7.117188 44.878906 6.96875 L 44.652344 4.804688 C 44.628906 4.65625 44.753906 4.53125 44.902344 4.558594 L 47.089844 4.78125 C 47.214844 4.804688 47.316406 4.90625 47.316406 5.03125 C 47.316406 5.851562 47.4375 6.671875 48.011719 7.242188 C 48.582031 6.671875 48.707031 5.851562 48.707031 5.03125 C 48.707031 4.90625 48.832031 4.804688 48.957031 4.78125 L 51.121094 4.558594 C 51.269531 4.53125 51.394531 4.65625 51.367188 4.804688 L 51.144531 6.96875 C 51.144531 7.117188 51.046875 7.21875 50.894531 7.21875 C 50.074219 7.21875 49.253906 7.34375 48.683594 7.914062 Z M 48.683594 7.914062 "/>
<path style=" stroke:none;fill-rule:nonzero;fill:rgb(0%,0%,0%);fill-opacity:1;" d="M 35.324219 21.894531 C 35.324219 22.140625 35.125 22.367188 34.878906 22.367188 C 34.628906 22.367188 34.40625 22.140625 34.40625 21.894531 L 34.40625 18.285156 L 32.339844 19.058594 L 32.339844 22.988281 C 32.339844 23.238281 32.117188 23.460938 31.867188 23.460938 C 31.617188 23.460938 31.417969 23.238281 31.417969 22.988281 L 31.417969 19.382812 L 30.625 19.679688 C 30.574219 19.703125 30.5 19.703125 30.449219 19.703125 C 30.175781 19.703125 29.953125 19.480469 29.953125 19.207031 L 29.953125 17.714844 C 29.953125 17.515625 30.078125 17.316406 30.277344 17.242188 L 31.417969 16.84375 L 31.417969 12.863281 L 30.625 13.136719 C 30.574219 13.164062 30.5 13.164062 30.449219 13.164062 C 30.175781 13.164062 29.953125 12.9375 29.953125 12.664062 L 29.953125 11.171875 C 29.953125 10.972656 30.078125 10.800781 30.277344 10.726562 L 31.417969 10.304688 L 31.417969 6.371094 C 31.417969 6.125 31.617188 5.898438 31.867188 5.898438 C 32.117188 5.898438 32.339844 6.125 32.339844 6.371094 L 32.339844 9.980469 L 34.40625 9.207031 L 34.40625 5.277344 C 34.40625 5.03125 34.628906 4.804688 34.878906 4.804688 C 35.125 4.804688 35.324219 5.03125 35.324219 5.277344 L 35.324219 8.886719 L 36.121094 8.585938 C 36.171875 8.5625 36.246094 8.5625 36.292969 8.5625 C 36.566406 8.5625 36.792969 8.785156 36.792969 9.058594 L 36.792969 10.550781 C 36.792969 10.75 36.667969 10.949219 36.46875 11.023438 L 35.324219 11.421875 L 35.324219 15.402344 L 36.121094 15.128906 C 36.171875 15.101562 36.246094 15.101562 36.292969 15.101562 C 36.566406 15.101562 36.792969 15.328125 36.792969 15.601562 L 36.792969 17.09375 C 36.792969 17.292969 36.667969 17.464844 36.46875 17.539062 L 35.324219 17.964844 Z M 32.339844 12.515625 L 32.339844 16.496094 L 34.40625 15.75 L 34.40625 11.769531 Z M 32.339844 12.515625 "/>
<path style=" stroke:none;fill-rule:nonzero;fill:rgb(0%,0%,0%);fill-opacity:1;" d="M 43.410156 28.113281 C 43.410156 28.359375 43.210938 28.585938 42.960938 28.585938 C 42.710938 28.585938 42.488281 28.359375 42.488281 28.113281 L 42.488281 24.503906 L 40.421875 25.277344 L 40.421875 29.207031 C 40.421875 29.453125 40.199219 29.679688 39.949219 29.679688 C 39.703125 29.679688 39.503906 29.453125 39.503906 29.207031 L 39.503906 25.597656 L 38.707031 25.898438 C 38.65625 25.921875 38.582031 25.921875 38.535156 25.921875 C 38.257812 25.921875 38.035156 25.699219 38.035156 25.425781 L 38.035156 23.933594 C 38.035156 23.734375 38.160156 23.535156 38.359375 23.460938 L 39.503906 23.0625 L 39.503906 19.082031 L 38.707031 19.355469 C 38.65625 19.382812 38.582031 19.382812 38.535156 19.382812 C 38.257812 19.382812 38.035156 19.15625 38.035156 18.882812 L 38.035156 17.390625 C 38.035156 17.191406 38.160156 17.019531 38.359375 16.945312 L 39.503906 16.519531 L 39.503906 12.589844 C 39.503906 12.34375 39.703125 12.117188 39.949219 12.117188 C 40.199219 12.117188 40.421875 12.34375 40.421875 12.589844 L 40.421875 16.199219 L 42.488281 15.425781 L 42.488281 11.496094 C 42.488281 11.246094 42.710938 11.023438 42.960938 11.023438 C 43.210938 11.023438 43.410156 11.246094 43.410156 11.496094 L 43.410156 15.101562 L 44.203125 14.804688 C 44.253906 14.78125 44.328125 14.78125 44.378906 14.78125 C 44.652344 14.78125 44.875 15.003906 44.875 15.277344 L 44.875 16.769531 C 44.875 16.96875 44.75 17.167969 44.550781 17.242188 L 43.410156 17.640625 L 43.410156 21.621094 L 44.203125 21.347656 C 44.253906 21.320312 44.328125 21.320312 44.378906 21.320312 C 44.652344 21.320312 44.875 21.546875 44.875 21.820312 L 44.875 23.3125 C 44.875 23.511719 44.75 23.683594 44.550781 23.757812 L 43.410156 24.183594 Z M 40.421875 18.734375 L 40.421875 22.714844 L 42.488281 21.96875 L 42.488281 17.988281 Z M 40.421875 18.734375 "/>
<path style=" stroke:none;fill-rule:nonzero;fill:rgb(0%,0%,0%);fill-opacity:1;" d="M 23.390625 32.789062 C 23.390625 32.089844 23.960938 31.519531 24.65625 31.519531 C 25.355469 31.519531 25.925781 32.089844 25.925781 32.789062 C 25.925781 33.484375 25.355469 34.054688 24.65625 34.054688 C 23.960938 34.054688 23.390625 33.484375 23.390625 32.789062 Z M 23.390625 26.570312 C 23.390625 25.871094 23.960938 25.300781 24.65625 25.300781 C 25.355469 25.300781 25.925781 25.871094 25.925781 26.570312 C 25.925781 27.265625 25.355469 27.839844 24.65625 27.839844 C 23.960938 27.839844 23.390625 27.265625 23.390625 26.570312 Z M 15.304688 23.136719 C 19.585938 23.136719 22.59375 25.324219 22.59375 29.378906 C 22.59375 35.921875 16.050781 39.675781 9.757812 42.339844 C 9.683594 42.414062 9.609375 42.4375 9.535156 42.4375 C 9.363281 42.4375 9.210938 42.289062 9.210938 42.113281 C 9.210938 42.039062 9.238281 41.964844 9.3125 41.890625 C 14.335938 38.957031 19.558594 35.300781 19.558594 29.628906 C 19.558594 26.644531 17.992188 23.785156 15.304688 23.785156 C 13.464844 23.785156 12.097656 25.125 11.476562 26.917969 C 11.75 26.792969 12.023438 26.71875 12.320312 26.71875 C 13.6875 26.71875 14.808594 27.839844 14.808594 29.207031 C 14.808594 30.648438 13.714844 31.84375 12.320312 31.84375 C 10.828125 31.84375 9.535156 30.671875 9.535156 29.207031 C 9.535156 25.898438 12.074219 23.136719 15.304688 23.136719 Z M 15.304688 23.136719 "/>
<path style=" stroke:none;fill-rule:nonzero;fill:rgb(0%,0%,0%);fill-opacity:1;" d="M 59.015625 4.53125 C 60.382812 4.53125 61.703125 5.230469 61.703125 6.746094 C 61.703125 8.511719 60.335938 9.753906 59.164062 10.453125 C 58.292969 10.972656 57.300781 11.296875 56.28125 11.296875 C 54.910156 11.296875 53.59375 10.601562 53.59375 9.085938 C 53.59375 7.316406 54.960938 6.074219 56.128906 5.378906 C 57 4.855469 57.996094 4.53125 59.015625 4.53125 Z M 59.015625 4.53125 "/>
<path style=" stroke:none;fill-rule:nonzero;fill:rgb(0%,0%,0%);fill-opacity:1;" d="M 59.015625 10.75 C 60.382812 10.75 61.703125 11.445312 61.703125 12.964844 C 61.703125 14.730469 60.335938 15.972656 59.164062 16.671875 C 58.292969 17.191406 57.300781 17.515625 56.28125 17.515625 C 54.910156 17.515625 53.59375 16.820312 53.59375 15.300781 C 53.59375 13.535156 54.960938 12.292969 56.128906 11.597656 C 57 11.074219 57.996094 10.75 59.015625 10.75 Z M 59.015625 10.75 "/>
<path style=" stroke:none;fill-rule:nonzero;fill:rgb(0%,0%,0%);fill-opacity:1;" d="M 59.015625 16.96875 C 60.382812 16.96875 61.703125 17.664062 61.703125 19.183594 C 61.703125 20.949219 60.335938 22.191406 59.164062 22.886719 C 58.292969 23.410156 57.300781 23.734375 56.28125 23.734375 C 54.910156 23.734375 53.59375 23.039062 53.59375 21.519531 C 53.59375 19.753906 54.960938 18.511719 56.128906 17.8125 C 57 17.292969 57.996094 16.96875 59.015625 16.96875 Z M 59.015625 16.96875 "/>
</g>
</svg>
