<?xml version="1.0" encoding="UTF-8"?>
<svg xmlns="http://www.w3.org/2000/svg" xmlns:xlink="http://www.w3.org/1999/xlink" width="82.756804pt" height="71.629017pt" viewBox="0 0 82.756804 71.629017" version="1.1">
<g id="surface1">
<path style="fill:none;stroke-width:0.1;stroke-linecap:round;stroke-linejoin:round;stroke:rgb(0%,0%,0%);stroke-opacity:1;stroke-miterlimit:4;" d="M 0.049863 -0.000287501 L 10.903299 -0.000287501 " transform="matrix(6.218149,0,0,6.218149,4.561038,40.517413)"/>
<path style="fill:none;stroke-width:0.1;stroke-linecap:round;stroke-linejoin:round;stroke:rgb(0%,0%,0%);stroke-opacity:1;stroke-miterlimit:4;" d="M 0.049863 0.000244052 L 10.903299 0.000244052 " transform="matrix(6.218149,0,0,6.218149,4.561038,34.299264)"/>
<path style="fill:none;stroke-width:0.1;stroke-linecap:round;stroke-linejoin:round;stroke:rgb(0%,0%,0%);stroke-opacity:1;stroke-miterlimit:4;" d="M 0.049863 0.000147403 L 10.903299 0.000147403 " transform="matrix(6.218149,0,0,6.218149,4.561038,28.081115)"/>
<path style="fill:none;stroke-width:0.1;stroke-linecap:round;stroke-linejoin:round;stroke:rgb(0%,0%,0%);stroke-opacity:1;stroke-miterlimit:4;" d="M 0.049863 0.0000507548 L 10.903299 0.0000507548 " transform="matrix(6.218149,0,0,6.218149,4.561038,21.862966)"/>
<path style="fill:none;stroke-width:0.1;stroke-linecap:round;stroke-linejoin:round;stroke:rgb(0%,0%,0%);stroke-opacity:1;stroke-miterlimit:4;" d="M 0.049863 -0.0000458938 L 10.903299 -0.0000458938 " transform="matrix(6.218149,0,0,6.218149,4.561038,15.644817)"/>
<path style=" stroke:none;fill-rule:nonzero;fill:rgb(0%,0%,0%);fill-opacity:1;" d="M 52.59375 46.113281 L 63.515625 46.113281 C 63.859375 46.113281 64.136719 46.390625 64.136719 46.734375 C 64.136719 47.078125 63.859375 47.355469 63.515625 47.355469 L 52.59375 47.355469 C 52.25 47.355469 51.972656 47.078125 51.972656 46.734375 C 51.972656 46.390625 52.25 46.113281 52.59375 46.113281 Z M 52.59375 46.113281 "/>
<path style=" stroke:none;fill-rule:nonzero;fill:rgb(0%,0%,0%);fill-opacity:1;" d="M 53.535156 52.332031 L 63.515625 52.332031 C 63.859375 52.332031 64.136719 52.609375 64.136719 52.953125 C 64.136719 53.296875 63.859375 53.574219 63.515625 53.574219 L 53.535156 53.574219 C 53.191406 53.574219 52.910156 53.296875 52.910156 52.953125 C 52.910156 52.609375 53.191406 52.332031 53.535156 52.332031 Z M 53.535156 52.332031 "/>
<path style=" stroke:none;fill-rule:nonzero;fill:rgb(0%,0%,0%);fill-opacity:1;" d="M 61.550781 12.535156 L 61.859375 12.535156 C 61.996094 12.535156 62.109375 12.648438 62.109375 12.785156 L 62.109375 51.546875 C 62.109375 51.683594 61.996094 51.796875 61.859375 51.796875 L 61.550781 51.796875 C 61.414062 51.796875 61.300781 51.683594 61.300781 51.546875 L 61.300781 12.785156 C 61.300781 12.648438 61.414062 12.535156 61.550781 12.535156 Z M 61.550781 12.535156 "/>
<path style=" stroke:none;fill-rule:nonzero;fill:rgb(0%,0%,0%);fill-opacity:1;" d="M 49.089844 34.300781 C 49.660156 34.871094 50.480469 34.996094 51.304688 34.996094 C 51.453125 34.996094 51.550781 35.09375 51.550781 35.246094 L 51.777344 37.410156 C 51.800781 37.558594 51.675781 37.683594 51.527344 37.65625 L 49.363281 37.433594 C 49.238281 37.410156 49.113281 37.308594 49.113281 37.183594 C 49.113281 36.363281 48.988281 35.542969 48.417969 34.972656 C 47.84375 35.542969 47.746094 36.363281 47.746094 37.183594 C 47.746094 37.308594 47.621094 37.410156 47.496094 37.433594 L 45.308594 37.65625 C 45.160156 37.683594 45.035156 37.558594 45.058594 37.410156 L 45.285156 35.246094 C 45.285156 35.09375 45.382812 34.996094 45.53125 34.996094 C 46.351562 34.996094 47.175781 34.871094 47.746094 34.300781 C 47.175781 33.726562 46.351562 33.601562 45.53125 33.601562 C 45.382812 33.601562 45.285156 33.503906 45.285156 33.355469 L 45.058594 31.191406 C 45.035156 31.039062 45.160156 30.917969 45.308594 30.941406 L 47.496094 31.164062 C 47.621094 31.191406 47.722656 31.289062 47.722656 31.414062 C 47.722656 32.234375 47.84375 33.054688 48.417969 33.628906 C 48.988281 33.054688 49.113281 32.234375 49.113281 31.414062 C 49.113281 31.289062 49.238281 31.191406 49.363281 31.164062 L 51.527344 30.941406 C 51.675781 30.917969 51.800781 31.039062 51.777344 31.191406 L 51.550781 33.355469 C 51.550781 33.503906 51.453125 33.601562 51.304688 33.601562 C 50.480469 33.601562 49.660156 33.726562 49.089844 34.300781 Z M 49.089844 34.300781 "/>
<path style=" stroke:none;fill-rule:nonzero;fill:rgb(0%,0%,0%);fill-opacity:1;" d="M 42.347656 48.277344 C 42.347656 48.527344 42.148438 48.75 41.898438 48.75 C 41.652344 48.75 41.425781 48.527344 41.425781 48.277344 L 41.425781 44.671875 L 39.363281 45.441406 L 39.363281 49.371094 C 39.363281 49.621094 39.136719 49.84375 38.890625 49.84375 C 38.640625 49.84375 38.441406 49.621094 38.441406 49.371094 L 38.441406 45.765625 L 37.644531 46.0625 C 37.597656 46.089844 37.523438 46.089844 37.472656 46.089844 C 37.199219 46.089844 36.972656 45.863281 36.972656 45.589844 L 36.972656 44.097656 C 36.972656 43.898438 37.097656 43.699219 37.296875 43.625 L 38.441406 43.230469 L 38.441406 39.25 L 37.644531 39.523438 C 37.597656 39.546875 37.523438 39.546875 37.472656 39.546875 C 37.199219 39.546875 36.972656 39.324219 36.972656 39.050781 L 36.972656 37.558594 C 36.972656 37.359375 37.097656 37.183594 37.296875 37.109375 L 38.441406 36.6875 L 38.441406 32.757812 C 38.441406 32.507812 38.640625 32.285156 38.890625 32.285156 C 39.136719 32.285156 39.363281 32.507812 39.363281 32.757812 L 39.363281 36.363281 L 41.425781 35.59375 L 41.425781 31.664062 C 41.425781 31.414062 41.652344 31.191406 41.898438 31.191406 C 42.148438 31.191406 42.347656 31.414062 42.347656 31.664062 L 42.347656 35.269531 L 43.144531 34.972656 C 43.191406 34.945312 43.265625 34.945312 43.316406 34.945312 C 43.589844 34.945312 43.8125 35.167969 43.8125 35.445312 L 43.8125 36.9375 C 43.8125 37.132812 43.691406 37.332031 43.492188 37.410156 L 42.347656 37.804688 L 42.347656 41.785156 L 43.144531 41.511719 C 43.191406 41.488281 43.265625 41.488281 43.316406 41.488281 C 43.589844 41.488281 43.8125 41.710938 43.8125 41.984375 L 43.8125 43.476562 C 43.8125 43.675781 43.691406 43.851562 43.492188 43.925781 L 42.347656 44.347656 Z M 39.363281 38.902344 L 39.363281 42.878906 L 41.425781 42.132812 L 41.425781 38.15625 Z M 39.363281 38.902344 "/>
<path style=" stroke:none;fill-rule:nonzero;fill:rgb(0%,0%,0%);fill-opacity:1;" d="M 32.996094 46.734375 C 33.570312 47.308594 34.390625 47.433594 35.210938 47.433594 C 35.359375 47.433594 35.460938 47.53125 35.460938 47.679688 L 35.683594 49.84375 C 35.707031 49.992188 35.582031 50.117188 35.433594 50.09375 L 33.269531 49.871094 C 33.144531 49.84375 33.023438 49.746094 33.023438 49.621094 C 33.023438 48.800781 32.898438 47.980469 32.324219 47.40625 C 31.753906 47.980469 31.652344 48.800781 31.652344 49.621094 C 31.652344 49.746094 31.527344 49.84375 31.40625 49.871094 L 29.214844 50.09375 C 29.066406 50.117188 28.941406 49.992188 28.96875 49.84375 L 29.191406 47.679688 C 29.191406 47.53125 29.289062 47.433594 29.441406 47.433594 C 30.261719 47.433594 31.082031 47.308594 31.652344 46.734375 C 31.082031 46.164062 30.261719 46.039062 29.441406 46.039062 C 29.289062 46.039062 29.191406 45.941406 29.191406 45.789062 L 28.96875 43.625 C 28.941406 43.476562 29.066406 43.351562 29.214844 43.378906 L 31.40625 43.601562 C 31.527344 43.625 31.628906 43.726562 31.628906 43.851562 C 31.628906 44.671875 31.753906 45.492188 32.324219 46.0625 C 32.898438 45.492188 33.023438 44.671875 33.023438 43.851562 C 33.023438 43.726562 33.144531 43.625 33.269531 43.601562 L 35.433594 43.378906 C 35.582031 43.351562 35.707031 43.476562 35.683594 43.625 L 35.460938 45.789062 C 35.460938 45.941406 35.359375 46.039062 35.210938 46.039062 C 34.390625 46.039062 33.570312 46.164062 32.996094 46.734375 Z M 32.996094 46.734375 "/>
<path style=" stroke:none;fill-rule:nonzero;fill:rgb(0%,0%,0%);fill-opacity:1;" d="M 50.355469 60.714844 C 50.355469 60.960938 50.15625 61.1875 49.90625 61.1875 C 49.660156 61.1875 49.4375 60.960938 49.4375 60.714844 L 49.4375 57.109375 L 47.371094 57.878906 L 47.371094 61.808594 C 47.371094 62.058594 47.148438 62.28125 46.898438 62.28125 C 46.648438 62.28125 46.449219 62.058594 46.449219 61.808594 L 46.449219 58.203125 L 45.65625 58.5 C 45.605469 58.523438 45.53125 58.523438 45.480469 58.523438 C 45.207031 58.523438 44.984375 58.300781 44.984375 58.027344 L 44.984375 56.535156 C 44.984375 56.335938 45.109375 56.136719 45.308594 56.0625 L 46.449219 55.664062 L 46.449219 51.683594 L 45.65625 51.957031 C 45.605469 51.984375 45.53125 51.984375 45.480469 51.984375 C 45.207031 51.984375 44.984375 51.761719 44.984375 51.484375 L 44.984375 49.992188 C 44.984375 49.792969 45.109375 49.621094 45.308594 49.546875 L 46.449219 49.125 L 46.449219 45.195312 C 46.449219 44.945312 46.648438 44.722656 46.898438 44.722656 C 47.148438 44.722656 47.371094 44.945312 47.371094 45.195312 L 47.371094 48.800781 L 49.4375 48.027344 L 49.4375 44.097656 C 49.4375 43.851562 49.660156 43.625 49.90625 43.625 C 50.15625 43.625 50.355469 43.851562 50.355469 44.097656 L 50.355469 47.707031 L 51.152344 47.40625 C 51.203125 47.382812 51.277344 47.382812 51.324219 47.382812 C 51.597656 47.382812 51.824219 47.605469 51.824219 47.878906 L 51.824219 49.371094 C 51.824219 49.570312 51.699219 49.769531 51.5 49.84375 L 50.355469 50.242188 L 50.355469 54.222656 L 51.152344 53.949219 C 51.203125 53.921875 51.277344 53.921875 51.324219 53.921875 C 51.597656 53.921875 51.824219 54.148438 51.824219 54.421875 L 51.824219 55.914062 C 51.824219 56.113281 51.699219 56.285156 51.5 56.359375 L 50.355469 56.785156 Z M 47.371094 51.335938 L 47.371094 55.316406 L 49.4375 54.570312 L 49.4375 50.589844 Z M 47.371094 51.335938 "/>
<path style=" stroke:none;fill-rule:nonzero;fill:rgb(0%,0%,0%);fill-opacity:1;" d="M 16.152344 50.09375 L 16.003906 50.09375 C 13.316406 50.09375 11.152344 47.90625 11.152344 45.195312 C 11.152344 43.75 12.46875 42.632812 13.9375 42.632812 C 15.28125 42.632812 16.300781 43.800781 16.300781 45.195312 C 16.300781 46.488281 15.230469 47.554688 13.9375 47.554688 C 13.664062 47.554688 13.414062 47.507812 13.167969 47.40625 C 13.8125 48.378906 14.859375 49.023438 16.078125 49.023438 L 16.175781 49.023438 Z M 21 39.347656 C 22.691406 38.75 23.8125 36.984375 23.8125 35.269531 C 23.8125 33.03125 22.171875 30.816406 19.507812 30.542969 C 20.105469 33.429688 20.652344 36.289062 21 39.347656 Z M 11.375 33.601562 C 11.375 36.960938 14.585938 39.746094 17.941406 39.746094 C 18.640625 39.746094 19.308594 39.695312 19.980469 39.597656 C 19.632812 36.4375 19.0625 33.503906 18.414062 30.542969 C 16.449219 30.742188 15.332031 32.0625 15.332031 33.503906 C 15.332031 34.597656 15.953125 35.765625 17.34375 36.5625 C 17.46875 36.6875 17.519531 36.8125 17.519531 36.9375 C 17.519531 37.210938 17.269531 37.484375 16.972656 37.484375 C 16.898438 37.484375 16.824219 37.457031 16.75 37.433594 C 14.757812 36.363281 13.839844 34.574219 13.839844 32.832031 C 13.839844 30.644531 15.28125 28.503906 17.816406 27.933594 C 17.46875 26.488281 17.097656 25.023438 16.675781 23.578125 C 14.011719 26.589844 11.375 29.625 11.375 33.601562 Z M 17.867188 40.816406 C 13.191406 40.816406 9.585938 36.539062 9.585938 31.511719 C 9.585938 27.109375 12.84375 23.902344 15.753906 20.542969 C 15.28125 19.003906 14.832031 17.4375 14.632812 15.820312 C 14.484375 14.527344 14.460938 13.230469 14.460938 11.9375 C 14.460938 9.078125 15.828125 6.367188 18.167969 4.675781 C 18.316406 4.550781 18.515625 4.550781 18.664062 4.675781 C 20.429688 6.765625 21.972656 10.769531 21.972656 13.582031 C 21.972656 17.136719 19.832031 19.921875 17.496094 22.632812 C 18.015625 24.324219 18.464844 26.066406 18.886719 27.78125 C 18.988281 27.78125 19.113281 27.757812 19.210938 27.757812 C 23.066406 27.757812 25.578125 30.941406 25.578125 34.25 C 25.578125 36.140625 24.757812 38.078125 22.917969 39.472656 C 22.371094 39.894531 21.746094 40.167969 21.101562 40.367188 C 21.175781 41.238281 21.226562 42.109375 21.226562 42.980469 C 21.226562 43.453125 21.199219 43.949219 21.175781 44.421875 C 21 47.382812 18.988281 50.019531 16.152344 50.09375 L 16.175781 49.023438 C 18.488281 48.972656 19.980469 46.734375 20.132812 44.273438 C 20.15625 43.824219 20.179688 43.351562 20.179688 42.90625 C 20.179688 42.132812 20.15625 41.386719 20.082031 40.617188 C 19.359375 40.742188 18.640625 40.816406 17.867188 40.816406 Z M 20.179688 11.515625 C 20.179688 10.148438 20.082031 9.550781 19.683594 8.308594 C 17.222656 9.5 15.652344 12.011719 15.652344 14.75 C 15.652344 16.589844 16.101562 18.058594 16.550781 19.574219 C 18.539062 17.160156 20.179688 14.648438 20.179688 11.515625 Z M 20.179688 11.515625 "/>
<path style=" stroke:none;fill-rule:nonzero;fill:rgb(0%,0%,0%);fill-opacity:1;" d="M 59.421875 30.917969 C 60.789062 30.917969 62.109375 31.613281 62.109375 33.128906 C 62.109375 34.894531 60.738281 36.140625 59.570312 36.835938 C 58.699219 37.359375 57.707031 37.683594 56.6875 37.683594 C 55.316406 37.683594 54 36.984375 54 35.46875 C 54 33.703125 55.367188 32.457031 56.535156 31.761719 C 57.40625 31.238281 58.402344 30.917969 59.421875 30.917969 Z M 59.421875 30.917969 "/>
<path style=" stroke:none;fill-rule:nonzero;fill:rgb(0%,0%,0%);fill-opacity:1;" d="M 59.421875 37.132812 C 60.789062 37.132812 62.109375 37.832031 62.109375 39.347656 C 62.109375 41.113281 60.738281 42.359375 59.570312 43.054688 C 58.699219 43.578125 57.707031 43.898438 56.6875 43.898438 C 55.316406 43.898438 54 43.203125 54 41.6875 C 54 39.921875 55.367188 38.675781 56.535156 37.980469 C 57.40625 37.457031 58.402344 37.132812 59.421875 37.132812 Z M 59.421875 37.132812 "/>
<path style=" stroke:none;fill-rule:nonzero;fill:rgb(0%,0%,0%);fill-opacity:1;" d="M 59.421875 43.351562 C 60.789062 43.351562 62.109375 44.050781 62.109375 45.566406 C 62.109375 47.332031 60.738281 48.574219 59.570312 49.273438 C 58.699219 49.792969 57.707031 50.117188 56.6875 50.117188 C 55.316406 50.117188 54 49.421875 54 47.90625 C 54 46.136719 55.367188 44.894531 56.535156 44.199219 C 57.40625 43.675781 58.402344 43.351562 59.421875 43.351562 Z M 59.421875 43.351562 "/>
<path style=" stroke:none;fill-rule:nonzero;fill:rgb(0%,0%,0%);fill-opacity:1;" d="M 59.421875 49.570312 C 60.789062 49.570312 62.109375 50.265625 62.109375 51.785156 C 62.109375 53.550781 60.738281 54.792969 59.570312 55.492188 C 58.699219 56.011719 57.707031 56.335938 56.6875 56.335938 C 55.316406 56.335938 54 55.640625 54 54.121094 C 54 52.355469 55.367188 51.113281 56.535156 50.417969 C 57.40625 49.894531 58.402344 49.570312 59.421875 49.570312 Z M 59.421875 49.570312 "/>
</g>
</svg>
