<?xml version="1.0" encoding="UTF-8"?>
<svg xmlns="http://www.w3.org/2000/svg" xmlns:xlink="http://www.w3.org/1999/xlink" width="79.654431pt" height="54.181078pt" viewBox="0 0 79.654431 54.181078" version="1.1">
<g id="surface1">
<path style="fill:none;stroke-width:0.1;stroke-linecap:round;stroke-linejoin:round;stroke:rgb(0%,0%,0%);stroke-opacity:1;stroke-miterlimit:4;" d="M 0.049863 0.00023304 L 10.435917 0.00023304 " transform="matrix(6.218149,0,0,6.218149,4.561038,41.88527)"/>
<path style="fill:none;stroke-width:0.1;stroke-linecap:round;stroke-linejoin:round;stroke:rgb(0%,0%,0%);stroke-opacity:1;stroke-miterlimit:4;" d="M 0.049863 0.000136391 L 10.435917 0.000136391 " transform="matrix(6.218149,0,0,6.218149,4.561038,35.667121)"/>
<path style="fill:none;stroke-width:0.1;stroke-linecap:round;stroke-linejoin:round;stroke:rgb(0%,0%,0%);stroke-opacity:1;stroke-miterlimit:4;" d="M 0.049863 0.0000397429 L 10.435917 0.0000397429 " transform="matrix(6.218149,0,0,6.218149,4.561038,29.448972)"/>
<path style="fill:none;stroke-width:0.1;stroke-linecap:round;stroke-linejoin:round;stroke:rgb(0%,0%,0%);stroke-opacity:1;stroke-miterlimit:4;" d="M 0.049863 -0.0000569057 L 10.435917 -0.0000569057 " transform="matrix(6.218149,0,0,6.218149,4.561038,23.230823)"/>
<path style="fill:none;stroke-width:0.1;stroke-linecap:round;stroke-linejoin:round;stroke:rgb(0%,0%,0%);stroke-opacity:1;stroke-miterlimit:4;" d="M 0.049863 -0.000153554 L 10.435917 -0.000153554 " transform="matrix(6.218149,0,0,6.218149,4.561038,17.012674)"/>
<path style=" stroke:none;fill-rule:nonzero;fill:rgb(0%,0%,0%);fill-opacity:1;" d="M 58.644531 4.578125 L 58.957031 4.578125 C 59.09375 4.578125 59.203125 4.6875 59.203125 4.824219 L 59.203125 40.480469 C 59.203125 40.617188 59.09375 40.726562 58.957031 40.726562 L 58.644531 40.726562 C 58.507812 40.726562 58.398438 40.617188 58.398438 40.480469 L 58.398438 4.824219 C 58.398438 4.6875 58.507812 4.578125 58.644531 4.578125 Z M 58.644531 4.578125 "/>
<path style=" stroke:none;fill-rule:nonzero;fill:rgb(0%,0%,0%);fill-opacity:1;" d="M 44.617188 22.210938 L 44.589844 23.851562 L 44.589844 24.125 C 44.589844 24.671875 44.617188 25.21875 44.691406 25.769531 C 45.808594 24.824219 47.003906 23.777344 47.003906 22.308594 C 47.003906 21.488281 46.65625 20.644531 45.933594 20.644531 C 45.164062 20.644531 44.640625 21.390625 44.617188 22.210938 Z M 43.570312 26.664062 L 43.273438 11.863281 C 43.472656 11.738281 43.71875 11.664062 43.945312 11.664062 C 44.167969 11.664062 44.417969 11.738281 44.617188 11.863281 L 44.441406 20.445312 C 45.0625 19.921875 45.882812 19.597656 46.707031 19.597656 C 48 19.597656 48.917969 20.792969 48.917969 22.136719 C 48.917969 24.125 46.78125 25.046875 45.261719 26.339844 C 44.890625 26.664062 44.664062 27.285156 44.144531 27.285156 C 43.820312 27.285156 43.570312 27.011719 43.570312 26.664062 Z M 43.570312 26.664062 "/>
<path style=" stroke:none;fill-rule:nonzero;fill:rgb(0%,0%,0%);fill-opacity:1;" d="M 37.960938 28.429688 L 37.9375 30.070312 L 37.9375 30.34375 C 37.9375 30.890625 37.960938 31.4375 38.035156 31.984375 C 39.15625 31.039062 40.347656 29.996094 40.347656 28.527344 C 40.347656 27.707031 40 26.863281 39.28125 26.863281 C 38.507812 26.863281 37.984375 27.609375 37.960938 28.429688 Z M 36.917969 32.882812 L 36.617188 18.082031 C 36.816406 17.957031 37.066406 17.882812 37.289062 17.882812 C 37.511719 17.882812 37.761719 17.957031 37.960938 18.082031 L 37.785156 26.664062 C 38.410156 26.140625 39.230469 25.816406 40.050781 25.816406 C 41.34375 25.816406 42.265625 27.011719 42.265625 28.355469 C 42.265625 30.34375 40.125 31.265625 38.609375 32.558594 C 38.234375 32.882812 38.011719 33.503906 37.488281 33.503906 C 37.164062 33.503906 36.917969 33.230469 36.917969 32.882812 Z M 36.917969 32.882812 "/>
<path style=" stroke:none;fill-rule:nonzero;fill:rgb(0%,0%,0%);fill-opacity:1;" d="M 31.371094 34.648438 L 31.34375 36.289062 L 31.34375 36.5625 C 31.34375 37.109375 31.371094 37.65625 31.445312 38.203125 C 32.5625 37.257812 33.757812 36.214844 33.757812 34.746094 C 33.757812 33.925781 33.410156 33.082031 32.6875 33.082031 C 31.917969 33.082031 31.394531 33.828125 31.371094 34.648438 Z M 30.324219 39.097656 L 30.027344 24.300781 C 30.226562 24.175781 30.472656 24.101562 30.699219 24.101562 C 30.921875 24.101562 31.171875 24.175781 31.371094 24.300781 L 31.195312 32.882812 C 31.816406 32.359375 32.636719 32.035156 33.460938 32.035156 C 34.753906 32.035156 35.671875 33.230469 35.671875 34.574219 C 35.671875 36.5625 33.535156 37.484375 32.015625 38.777344 C 31.644531 39.097656 31.417969 39.722656 30.898438 39.722656 C 30.574219 39.722656 30.324219 39.449219 30.324219 39.097656 Z M 30.324219 39.097656 "/>
<path style=" stroke:none;fill-rule:nonzero;fill:rgb(0%,0%,0%);fill-opacity:1;" d="M 44.617188 40.867188 L 44.589844 42.507812 L 44.589844 42.78125 C 44.589844 43.328125 44.617188 43.875 44.691406 44.421875 C 45.808594 43.476562 47.003906 42.433594 47.003906 40.964844 C 47.003906 40.144531 46.65625 39.296875 45.933594 39.296875 C 45.164062 39.296875 44.640625 40.042969 44.617188 40.867188 Z M 43.570312 45.316406 L 43.273438 30.519531 C 43.472656 30.394531 43.71875 30.320312 43.945312 30.320312 C 44.167969 30.320312 44.417969 30.394531 44.617188 30.519531 L 44.441406 39.097656 C 45.0625 38.578125 45.882812 38.253906 46.707031 38.253906 C 48 38.253906 48.917969 39.449219 48.917969 40.789062 C 48.917969 42.78125 46.78125 43.699219 45.261719 44.996094 C 44.890625 45.316406 44.664062 45.941406 44.144531 45.941406 C 43.820312 45.941406 43.570312 45.664062 43.570312 45.316406 Z M 43.570312 45.316406 "/>
<path style=" stroke:none;fill-rule:nonzero;fill:rgb(0%,0%,0%);fill-opacity:1;" d="M 23.390625 26.339844 C 23.390625 25.644531 23.960938 25.070312 24.65625 25.070312 C 25.355469 25.070312 25.925781 25.644531 25.925781 26.339844 C 25.925781 27.035156 25.355469 27.609375 24.65625 27.609375 C 23.960938 27.609375 23.390625 27.035156 23.390625 26.339844 Z M 23.390625 20.121094 C 23.390625 19.425781 23.960938 18.851562 24.65625 18.851562 C 25.355469 18.851562 25.925781 19.425781 25.925781 20.121094 C 25.925781 20.816406 25.355469 21.390625 24.65625 21.390625 C 23.960938 21.390625 23.390625 20.816406 23.390625 20.121094 Z M 15.304688 16.6875 C 19.585938 16.6875 22.59375 18.878906 22.59375 22.933594 C 22.59375 29.472656 16.050781 33.230469 9.757812 35.890625 C 9.683594 35.964844 9.609375 35.992188 9.535156 35.992188 C 9.363281 35.992188 9.210938 35.839844 9.210938 35.667969 C 9.210938 35.59375 9.238281 35.519531 9.3125 35.441406 C 14.335938 32.507812 19.558594 28.851562 19.558594 23.179688 C 19.558594 20.195312 17.992188 17.335938 15.304688 17.335938 C 13.464844 17.335938 12.097656 18.679688 11.476562 20.46875 C 11.75 20.34375 12.023438 20.269531 12.320312 20.269531 C 13.6875 20.269531 14.808594 21.390625 14.808594 22.757812 C 14.808594 24.199219 13.714844 25.394531 12.320312 25.394531 C 10.828125 25.394531 9.535156 24.226562 9.535156 22.757812 C 9.535156 19.449219 12.074219 16.6875 15.304688 16.6875 Z M 15.304688 16.6875 "/>
<path style=" stroke:none;fill-rule:nonzero;fill:rgb(0%,0%,0%);fill-opacity:1;" d="M 56.515625 19.847656 C 57.886719 19.847656 59.203125 20.542969 59.203125 22.0625 C 59.203125 23.828125 57.835938 25.070312 56.667969 25.769531 C 55.796875 26.289062 54.800781 26.613281 53.78125 26.613281 C 52.414062 26.613281 51.09375 25.917969 51.09375 24.398438 C 51.09375 22.632812 52.464844 21.390625 53.632812 20.695312 C 54.503906 20.171875 55.496094 19.847656 56.515625 19.847656 Z M 56.515625 19.847656 "/>
<path style=" stroke:none;fill-rule:nonzero;fill:rgb(0%,0%,0%);fill-opacity:1;" d="M 56.515625 26.066406 C 57.886719 26.066406 59.203125 26.761719 59.203125 28.28125 C 59.203125 30.046875 57.835938 31.289062 56.667969 31.984375 C 55.796875 32.507812 54.800781 32.832031 53.78125 32.832031 C 52.414062 32.832031 51.09375 32.136719 51.09375 30.617188 C 51.09375 28.851562 52.464844 27.609375 53.632812 26.910156 C 54.503906 26.390625 55.496094 26.066406 56.515625 26.066406 Z M 56.515625 26.066406 "/>
<path style=" stroke:none;fill-rule:nonzero;fill:rgb(0%,0%,0%);fill-opacity:1;" d="M 56.515625 32.285156 C 57.886719 32.285156 59.203125 32.980469 59.203125 34.5 C 59.203125 36.265625 57.835938 37.507812 56.667969 38.203125 C 55.796875 38.726562 54.800781 39.050781 53.78125 39.050781 C 52.414062 39.050781 51.09375 38.351562 51.09375 36.835938 C 51.09375 35.070312 52.464844 33.828125 53.632812 33.128906 C 54.503906 32.609375 55.496094 32.285156 56.515625 32.285156 Z M 56.515625 32.285156 "/>
<path style=" stroke:none;fill-rule:nonzero;fill:rgb(0%,0%,0%);fill-opacity:1;" d="M 56.515625 38.503906 C 57.886719 38.503906 59.203125 39.199219 59.203125 40.714844 C 59.203125 42.480469 57.835938 43.726562 56.667969 44.421875 C 55.796875 44.945312 54.800781 45.269531 53.78125 45.269531 C 52.414062 45.269531 51.09375 44.570312 51.09375 43.054688 C 51.09375 41.289062 52.464844 40.042969 53.632812 39.347656 C 54.503906 38.824219 55.496094 38.503906 56.515625 38.503906 Z M 56.515625 38.503906 "/>
</g>
</svg>
