<?xml version="1.0" encoding="UTF-8"?>
<svg xmlns="http://www.w3.org/2000/svg" xmlns:xlink="http://www.w3.org/1999/xlink" width="71.82843pt" height="85.716218pt" viewBox="0 0 71.82843 85.716218" version="1.1">
<g id="surface1">
<path style="fill:none;stroke-width:0.1;stroke-linecap:round;stroke-linejoin:round;stroke:rgb(0%,0%,0%);stroke-opacity:1;stroke-miterlimit:4;" d="M 0.049863 -0.0000971385 L 9.257411 -0.0000971385 " transform="matrix(6.218149,0,0,6.218149,4.561038,65.887323)"/>
<path style="fill:none;stroke-width:0.1;stroke-linecap:round;stroke-linejoin:round;stroke:rgb(0%,0%,0%);stroke-opacity:1;stroke-miterlimit:4;" d="M 0.049863 -0.000193787 L 9.257411 -0.000193787 " transform="matrix(6.218149,0,0,6.218149,4.561038,59.669174)"/>
<path style="fill:none;stroke-width:0.1;stroke-linecap:round;stroke-linejoin:round;stroke:rgb(0%,0%,0%);stroke-opacity:1;stroke-miterlimit:4;" d="M 0.049863 -0.000290436 L 9.257411 -0.000290436 " transform="matrix(6.218149,0,0,6.218149,4.561038,53.451025)"/>
<path style="fill:none;stroke-width:0.1;stroke-linecap:round;stroke-linejoin:round;stroke:rgb(0%,0%,0%);stroke-opacity:1;stroke-miterlimit:4;" d="M 0.049863 0.00024064 L 9.257411 0.00024064 " transform="matrix(6.218149,0,0,6.218149,4.561038,47.232879)"/>
<path style="fill:none;stroke-width:0.1;stroke-linecap:round;stroke-linejoin:round;stroke:rgb(0%,0%,0%);stroke-opacity:1;stroke-miterlimit:4;" d="M 0.049863 0.000143992 L 9.257411 0.000143992 " transform="matrix(6.218149,0,0,6.218149,4.561038,41.01473)"/>
<path style=" stroke:none;fill-rule:nonzero;fill:rgb(0%,0%,0%);fill-opacity:1;" d="M 43.300781 15.519531 L 53.285156 15.519531 C 53.628906 15.519531 53.90625 15.796875 53.90625 16.140625 C 53.90625 16.484375 53.628906 16.765625 53.285156 16.765625 L 43.300781 16.765625 C 42.957031 16.765625 42.679688 16.484375 42.679688 16.140625 C 42.679688 15.796875 42.957031 15.519531 43.300781 15.519531 Z M 43.300781 15.519531 "/>
<path style=" stroke:none;fill-rule:nonzero;fill:rgb(0%,0%,0%);fill-opacity:1;" d="M 42.363281 21.738281 L 53.285156 21.738281 C 53.625 21.738281 53.90625 22.015625 53.90625 22.359375 C 53.90625 22.703125 53.625 22.980469 53.285156 22.980469 L 42.363281 22.980469 C 42.019531 22.980469 41.742188 22.703125 41.742188 22.359375 C 41.742188 22.015625 42.019531 21.738281 42.363281 21.738281 Z M 42.363281 21.738281 "/>
<path style=" stroke:none;fill-rule:nonzero;fill:rgb(0%,0%,0%);fill-opacity:1;" d="M 42.363281 27.957031 L 53.285156 27.957031 C 53.625 27.957031 53.90625 28.234375 53.90625 28.578125 C 53.90625 28.921875 53.625 29.199219 53.285156 29.199219 L 42.363281 29.199219 C 42.019531 29.199219 41.742188 28.921875 41.742188 28.578125 C 41.742188 28.234375 42.019531 27.957031 42.363281 27.957031 Z M 42.363281 27.957031 "/>
<path style=" stroke:none;fill-rule:nonzero;fill:rgb(0%,0%,0%);fill-opacity:1;" d="M 42.363281 34.175781 L 53.285156 34.175781 C 53.625 34.175781 53.90625 34.453125 53.90625 34.796875 C 53.90625 35.140625 53.625 35.417969 53.285156 35.417969 L 42.363281 35.417969 C 42.019531 35.417969 41.742188 35.140625 41.742188 34.796875 C 41.742188 34.453125 42.019531 34.175781 42.363281 34.175781 Z M 42.363281 34.175781 "/>
<path style=" stroke:none;fill-rule:nonzero;fill:rgb(0%,0%,0%);fill-opacity:1;" d="M 44.015625 17.300781 L 44.328125 17.300781 C 44.464844 17.300781 44.578125 17.410156 44.578125 17.546875 L 44.578125 56.3125 C 44.578125 56.449219 44.464844 56.558594 44.328125 56.558594 L 44.015625 56.558594 C 43.878906 56.558594 43.769531 56.449219 43.769531 56.3125 L 43.769531 17.546875 C 43.769531 17.410156 43.878906 17.300781 44.015625 17.300781 Z M 44.015625 17.300781 "/>
<path style=" stroke:none;fill-rule:nonzero;fill:rgb(0%,0%,0%);fill-opacity:1;" d="M 37.289062 15.121094 L 37.265625 16.765625 L 37.265625 17.039062 C 37.265625 17.585938 37.289062 18.132812 37.363281 18.679688 C 38.484375 17.734375 39.675781 16.6875 39.675781 15.222656 C 39.675781 14.402344 39.328125 13.554688 38.605469 13.554688 C 37.835938 13.554688 37.3125 14.300781 37.289062 15.121094 Z M 36.246094 19.574219 L 35.945312 4.773438 C 36.144531 4.652344 36.394531 4.578125 36.617188 4.578125 C 36.839844 4.578125 37.089844 4.652344 37.289062 4.773438 L 37.113281 13.355469 C 37.738281 12.835938 38.558594 12.511719 39.378906 12.511719 C 40.671875 12.511719 41.59375 13.703125 41.59375 15.046875 C 41.59375 17.039062 39.453125 17.957031 37.9375 19.25 C 37.5625 19.574219 37.339844 20.195312 36.816406 20.195312 C 36.492188 20.195312 36.246094 19.921875 36.246094 19.574219 Z M 36.246094 19.574219 "/>
<path style=" stroke:none;fill-rule:nonzero;fill:rgb(0%,0%,0%);fill-opacity:1;" d="M 30.632812 21.339844 L 30.609375 22.980469 L 30.609375 23.253906 C 30.609375 23.804688 30.632812 24.351562 30.707031 24.898438 C 31.828125 23.953125 33.023438 22.90625 33.023438 21.441406 C 33.023438 20.621094 32.671875 19.773438 31.953125 19.773438 C 31.179688 19.773438 30.660156 20.519531 30.632812 21.339844 Z M 29.589844 25.792969 L 29.289062 10.992188 C 29.488281 10.871094 29.738281 10.792969 29.960938 10.792969 C 30.1875 10.792969 30.433594 10.871094 30.632812 10.992188 L 30.460938 19.574219 C 31.082031 19.050781 31.902344 18.730469 32.722656 18.730469 C 34.015625 18.730469 34.9375 19.921875 34.9375 21.265625 C 34.9375 23.253906 32.796875 24.175781 31.28125 25.46875 C 30.90625 25.792969 30.683594 26.414062 30.160156 26.414062 C 29.835938 26.414062 29.589844 26.140625 29.589844 25.792969 Z M 29.589844 25.792969 "/>
<path style=" stroke:none;fill-rule:nonzero;fill:rgb(0%,0%,0%);fill-opacity:1;" d="M 37.289062 33.777344 L 37.265625 35.417969 L 37.265625 35.691406 C 37.265625 36.238281 37.289062 36.785156 37.363281 37.332031 C 38.484375 36.386719 39.675781 35.34375 39.675781 33.875 C 39.675781 33.054688 39.328125 32.210938 38.605469 32.210938 C 37.835938 32.210938 37.3125 32.957031 37.289062 33.777344 Z M 36.246094 38.230469 L 35.945312 23.429688 C 36.144531 23.304688 36.394531 23.230469 36.617188 23.230469 C 36.839844 23.230469 37.089844 23.304688 37.289062 23.429688 L 37.113281 32.011719 C 37.738281 31.488281 38.558594 31.164062 39.378906 31.164062 C 40.671875 31.164062 41.59375 32.359375 41.59375 33.703125 C 41.59375 35.691406 39.453125 36.613281 37.9375 37.90625 C 37.5625 38.230469 37.339844 38.851562 36.816406 38.851562 C 36.492188 38.851562 36.246094 38.578125 36.246094 38.230469 Z M 36.246094 38.230469 "/>
<path style=" stroke:none;fill-rule:nonzero;fill:rgb(0%,0%,0%);fill-opacity:1;" d="M 16.152344 75.464844 L 16.003906 75.464844 C 13.316406 75.464844 11.152344 73.273438 11.152344 70.5625 C 11.152344 69.121094 12.46875 68 13.9375 68 C 15.28125 68 16.300781 69.171875 16.300781 70.5625 C 16.300781 71.855469 15.230469 72.925781 13.9375 72.925781 C 13.664062 72.925781 13.414062 72.875 13.167969 72.777344 C 13.8125 73.746094 14.859375 74.394531 16.078125 74.394531 L 16.175781 74.394531 Z M 21 64.71875 C 22.691406 64.121094 23.8125 62.355469 23.8125 60.640625 C 23.8125 58.402344 22.171875 56.1875 19.507812 55.914062 C 20.105469 58.796875 20.652344 61.660156 21 64.71875 Z M 11.375 58.972656 C 11.375 62.332031 14.585938 65.117188 17.941406 65.117188 C 18.640625 65.117188 19.308594 65.066406 19.980469 64.96875 C 19.632812 61.808594 19.0625 58.875 18.414062 55.914062 C 16.449219 56.113281 15.332031 57.429688 15.332031 58.875 C 15.332031 59.96875 15.953125 61.136719 17.34375 61.933594 C 17.46875 62.058594 17.519531 62.179688 17.519531 62.304688 C 17.519531 62.578125 17.269531 62.851562 16.972656 62.851562 C 16.898438 62.851562 16.824219 62.828125 16.75 62.804688 C 14.757812 61.734375 13.839844 59.941406 13.839844 58.203125 C 13.839844 56.011719 15.28125 53.875 17.816406 53.300781 C 17.46875 51.859375 17.097656 50.390625 16.675781 48.949219 C 14.011719 51.957031 11.375 54.992188 11.375 58.972656 Z M 17.867188 66.1875 C 13.191406 66.1875 9.585938 61.90625 9.585938 56.882812 C 9.585938 52.480469 12.84375 49.273438 15.753906 45.914062 C 15.28125 44.371094 14.832031 42.804688 14.632812 41.1875 C 14.484375 39.894531 14.460938 38.601562 14.460938 37.308594 C 14.460938 34.449219 15.828125 31.738281 18.167969 30.046875 C 18.316406 29.921875 18.515625 29.921875 18.664062 30.046875 C 20.429688 32.136719 21.972656 36.140625 21.972656 38.949219 C 21.972656 42.507812 19.832031 45.292969 17.496094 48.003906 C 18.015625 49.695312 18.464844 51.4375 18.886719 53.152344 C 18.988281 53.152344 19.113281 53.128906 19.210938 53.128906 C 23.066406 53.128906 25.578125 56.3125 25.578125 59.621094 C 25.578125 61.507812 24.757812 63.449219 22.917969 64.84375 C 22.371094 65.265625 21.746094 65.539062 21.101562 65.738281 C 21.175781 66.609375 21.226562 67.480469 21.226562 68.351562 C 21.226562 68.824219 21.199219 69.320312 21.175781 69.792969 C 21 72.753906 18.988281 75.386719 16.152344 75.464844 L 16.175781 74.394531 C 18.488281 74.34375 19.980469 72.105469 20.132812 69.644531 C 20.15625 69.195312 20.179688 68.722656 20.179688 68.273438 C 20.179688 67.503906 20.15625 66.757812 20.082031 65.988281 C 19.359375 66.109375 18.640625 66.1875 17.867188 66.1875 Z M 20.179688 36.886719 C 20.179688 35.519531 20.082031 34.921875 19.683594 33.675781 C 17.222656 34.871094 15.652344 37.382812 15.652344 40.121094 C 15.652344 41.960938 16.101562 43.425781 16.550781 44.945312 C 18.539062 42.53125 20.179688 40.019531 20.179688 36.886719 Z M 20.179688 36.886719 "/>
<path style=" stroke:none;fill-rule:nonzero;fill:rgb(0%,0%,0%);fill-opacity:1;" d="M 49.191406 12.757812 C 50.558594 12.757812 51.875 13.457031 51.875 14.972656 C 51.875 16.738281 50.507812 17.984375 49.339844 18.679688 C 48.46875 19.203125 47.472656 19.523438 46.453125 19.523438 C 45.085938 19.523438 43.769531 18.828125 43.769531 17.3125 C 43.769531 15.546875 45.136719 14.300781 46.304688 13.605469 C 47.175781 13.082031 48.171875 12.757812 49.191406 12.757812 Z M 49.191406 12.757812 "/>
<path style=" stroke:none;fill-rule:nonzero;fill:rgb(0%,0%,0%);fill-opacity:1;" d="M 49.191406 18.976562 C 50.558594 18.976562 51.875 19.675781 51.875 21.191406 C 51.875 22.957031 50.507812 24.199219 49.339844 24.898438 C 48.46875 25.417969 47.472656 25.742188 46.453125 25.742188 C 45.085938 25.742188 43.769531 25.046875 43.769531 23.527344 C 43.769531 21.761719 45.136719 20.519531 46.304688 19.824219 C 47.175781 19.300781 48.171875 18.976562 49.191406 18.976562 Z M 49.191406 18.976562 "/>
<path style=" stroke:none;fill-rule:nonzero;fill:rgb(0%,0%,0%);fill-opacity:1;" d="M 49.191406 25.195312 C 50.558594 25.195312 51.875 25.890625 51.875 27.410156 C 51.875 29.175781 50.507812 30.417969 49.339844 31.117188 C 48.46875 31.636719 47.472656 31.960938 46.453125 31.960938 C 45.085938 31.960938 43.769531 31.265625 43.769531 29.746094 C 43.769531 27.980469 45.136719 26.738281 46.304688 26.042969 C 47.175781 25.519531 48.171875 25.195312 49.191406 25.195312 Z M 49.191406 25.195312 "/>
<path style=" stroke:none;fill-rule:nonzero;fill:rgb(0%,0%,0%);fill-opacity:1;" d="M 49.191406 31.414062 C 50.558594 31.414062 51.875 32.109375 51.875 33.628906 C 51.875 35.394531 50.507812 36.636719 49.339844 37.332031 C 48.46875 37.855469 47.472656 38.179688 46.453125 38.179688 C 45.085938 38.179688 43.769531 37.484375 43.769531 35.964844 C 43.769531 34.199219 45.136719 32.957031 46.304688 32.257812 C 47.175781 31.738281 48.171875 31.414062 49.191406 31.414062 Z M 49.191406 31.414062 "/>
</g>
</svg>
