<?xml version="1.0" encoding="UTF-8"?>
<svg xmlns="http://www.w3.org/2000/svg" xmlns:xlink="http://www.w3.org/1999/xlink" width="75.335285pt" height="50.142879pt" viewBox="0 0 75.335285 50.142879" version="1.1">
<g id="surface1">
<path style="fill:none;stroke-width:0.1;stroke-linecap:round;stroke-linejoin:round;stroke:rgb(0%,0%,0%);stroke-opacity:1;stroke-miterlimit:4;" d="M 0.049863 0.0000610068 L 9.785729 0.0000610068 " transform="matrix(6.218149,0,0,6.218149,4.561038,32.409777)"/>
<path style="fill:none;stroke-width:0.1;stroke-linecap:round;stroke-linejoin:round;stroke:rgb(0%,0%,0%);stroke-opacity:1;stroke-miterlimit:4;" d="M 0.049863 -0.0000356418 L 9.785729 -0.0000356418 " transform="matrix(6.218149,0,0,6.218149,4.561038,26.191628)"/>
<path style="fill:none;stroke-width:0.1;stroke-linecap:round;stroke-linejoin:round;stroke:rgb(0%,0%,0%);stroke-opacity:1;stroke-miterlimit:4;" d="M 0.049863 -0.00013229 L 9.785729 -0.00013229 " transform="matrix(6.218149,0,0,6.218149,4.561038,19.973479)"/>
<path style="fill:none;stroke-width:0.1;stroke-linecap:round;stroke-linejoin:round;stroke:rgb(0%,0%,0%);stroke-opacity:1;stroke-miterlimit:4;" d="M 0.049863 -0.000228939 L 9.785729 -0.000228939 " transform="matrix(6.218149,0,0,6.218149,4.561038,13.75533)"/>
<path style="fill:none;stroke-width:0.1;stroke-linecap:round;stroke-linejoin:round;stroke:rgb(0%,0%,0%);stroke-opacity:1;stroke-miterlimit:4;" d="M 0.049863 0.000302495 L 9.785729 0.000302495 " transform="matrix(6.218149,0,0,6.218149,4.561038,7.537182)"/>
<path style=" stroke:none;fill-rule:nonzero;fill:rgb(0%,0%,0%);fill-opacity:1;" d="M 45.644531 38.007812 L 56.566406 38.007812 C 56.910156 38.007812 57.1875 38.285156 57.1875 38.628906 C 57.1875 38.972656 56.910156 39.25 56.566406 39.25 L 45.644531 39.25 C 45.304688 39.25 45.023438 38.972656 45.023438 38.628906 C 45.023438 38.285156 45.304688 38.007812 45.644531 38.007812 Z M 45.644531 38.007812 "/>
<path style=" stroke:none;fill-rule:nonzero;fill:rgb(0%,0%,0%);fill-opacity:1;" d="M 54.601562 4.429688 L 54.914062 4.429688 C 55.050781 4.429688 55.160156 4.539062 55.160156 4.675781 L 55.160156 37.222656 C 55.160156 37.359375 55.050781 37.472656 54.914062 37.472656 L 54.601562 37.472656 C 54.464844 37.472656 54.351562 37.359375 54.351562 37.222656 L 54.351562 4.675781 C 54.351562 4.539062 54.464844 4.429688 54.601562 4.429688 Z M 54.601562 4.429688 "/>
<path style=" stroke:none;fill-rule:nonzero;fill:rgb(0%,0%,0%);fill-opacity:1;" d="M 43.410156 33.953125 C 43.410156 34.199219 43.210938 34.425781 42.960938 34.425781 C 42.710938 34.425781 42.488281 34.199219 42.488281 33.953125 L 42.488281 30.34375 L 40.421875 31.117188 L 40.421875 35.046875 C 40.421875 35.296875 40.199219 35.519531 39.949219 35.519531 C 39.703125 35.519531 39.503906 35.296875 39.503906 35.046875 L 39.503906 31.441406 L 38.707031 31.738281 C 38.65625 31.761719 38.582031 31.761719 38.535156 31.761719 C 38.257812 31.761719 38.035156 31.539062 38.035156 31.265625 L 38.035156 29.773438 C 38.035156 29.574219 38.160156 29.375 38.359375 29.300781 L 39.503906 28.902344 L 39.503906 24.921875 L 38.707031 25.195312 C 38.65625 25.222656 38.582031 25.222656 38.535156 25.222656 C 38.257812 25.222656 38.035156 24.996094 38.035156 24.722656 L 38.035156 23.230469 C 38.035156 23.03125 38.160156 22.859375 38.359375 22.785156 L 39.503906 22.359375 L 39.503906 18.429688 C 39.503906 18.183594 39.703125 17.957031 39.949219 17.957031 C 40.199219 17.957031 40.421875 18.183594 40.421875 18.429688 L 40.421875 22.039062 L 42.488281 21.265625 L 42.488281 17.335938 C 42.488281 17.089844 42.710938 16.863281 42.960938 16.863281 C 43.210938 16.863281 43.410156 17.089844 43.410156 17.335938 L 43.410156 20.945312 L 44.203125 20.644531 C 44.253906 20.621094 44.328125 20.621094 44.378906 20.621094 C 44.652344 20.621094 44.875 20.84375 44.875 21.117188 L 44.875 22.609375 C 44.875 22.808594 44.75 23.007812 44.550781 23.082031 L 43.410156 23.480469 L 43.410156 27.460938 L 44.203125 27.1875 C 44.253906 27.160156 44.328125 27.160156 44.378906 27.160156 C 44.652344 27.160156 44.875 27.386719 44.875 27.660156 L 44.875 29.152344 C 44.875 29.351562 44.75 29.523438 44.550781 29.597656 L 43.410156 30.023438 Z M 40.421875 24.574219 L 40.421875 28.554688 L 42.488281 27.808594 L 42.488281 23.828125 Z M 40.421875 24.574219 "/>
<path style=" stroke:none;fill-rule:nonzero;fill:rgb(0%,0%,0%);fill-opacity:1;" d="M 35.324219 40.171875 C 35.324219 40.417969 35.125 40.644531 34.878906 40.644531 C 34.628906 40.644531 34.40625 40.417969 34.40625 40.171875 L 34.40625 36.5625 L 32.339844 37.335938 L 32.339844 41.265625 C 32.339844 41.511719 32.117188 41.738281 31.867188 41.738281 C 31.617188 41.738281 31.417969 41.511719 31.417969 41.265625 L 31.417969 37.65625 L 30.625 37.957031 C 30.574219 37.980469 30.5 37.980469 30.449219 37.980469 C 30.175781 37.980469 29.953125 37.757812 29.953125 37.484375 L 29.953125 35.992188 C 29.953125 35.792969 30.078125 35.59375 30.277344 35.519531 L 31.417969 35.121094 L 31.417969 31.140625 L 30.625 31.414062 C 30.574219 31.441406 30.5 31.441406 30.449219 31.441406 C 30.175781 31.441406 29.953125 31.214844 29.953125 30.941406 L 29.953125 29.449219 C 29.953125 29.25 30.078125 29.078125 30.277344 29.003906 L 31.417969 28.578125 L 31.417969 24.648438 C 31.417969 24.402344 31.617188 24.175781 31.867188 24.175781 C 32.117188 24.175781 32.339844 24.402344 32.339844 24.648438 L 32.339844 28.257812 L 34.40625 27.484375 L 34.40625 23.554688 C 34.40625 23.304688 34.628906 23.082031 34.878906 23.082031 C 35.125 23.082031 35.324219 23.304688 35.324219 23.554688 L 35.324219 27.160156 L 36.121094 26.863281 C 36.171875 26.839844 36.246094 26.839844 36.292969 26.839844 C 36.566406 26.839844 36.792969 27.0625 36.792969 27.335938 L 36.792969 28.828125 C 36.792969 29.027344 36.667969 29.226562 36.46875 29.300781 L 35.324219 29.699219 L 35.324219 33.679688 L 36.121094 33.40625 C 36.171875 33.378906 36.246094 33.378906 36.292969 33.378906 C 36.566406 33.378906 36.792969 33.605469 36.792969 33.878906 L 36.792969 35.371094 C 36.792969 35.570312 36.667969 35.742188 36.46875 35.816406 L 35.324219 36.238281 Z M 32.339844 30.792969 L 32.339844 34.773438 L 34.40625 34.027344 L 34.40625 30.046875 Z M 32.339844 30.792969 "/>
<path style=" stroke:none;fill-rule:nonzero;fill:rgb(0%,0%,0%);fill-opacity:1;" d="M 23.390625 16.863281 C 23.390625 16.167969 23.960938 15.597656 24.65625 15.597656 C 25.355469 15.597656 25.925781 16.167969 25.925781 16.863281 C 25.925781 17.5625 25.355469 18.132812 24.65625 18.132812 C 23.960938 18.132812 23.390625 17.5625 23.390625 16.863281 Z M 23.390625 10.644531 C 23.390625 9.949219 23.960938 9.378906 24.65625 9.378906 C 25.355469 9.378906 25.925781 9.949219 25.925781 10.644531 C 25.925781 11.34375 25.355469 11.914062 24.65625 11.914062 C 23.960938 11.914062 23.390625 11.34375 23.390625 10.644531 Z M 15.304688 7.214844 C 19.585938 7.214844 22.59375 9.402344 22.59375 13.457031 C 22.59375 20 16.050781 23.753906 9.757812 26.414062 C 9.683594 26.488281 9.609375 26.515625 9.535156 26.515625 C 9.363281 26.515625 9.210938 26.367188 9.210938 26.191406 C 9.210938 26.117188 9.238281 26.042969 9.3125 25.96875 C 14.335938 23.03125 19.558594 19.375 19.558594 13.707031 C 19.558594 10.722656 17.992188 7.859375 15.304688 7.859375 C 13.464844 7.859375 12.097656 9.203125 11.476562 10.996094 C 11.75 10.871094 12.023438 10.796875 12.320312 10.796875 C 13.6875 10.796875 14.808594 11.914062 14.808594 13.28125 C 14.808594 14.726562 13.714844 15.917969 12.320312 15.917969 C 10.828125 15.917969 9.535156 14.75 9.535156 13.28125 C 9.535156 9.976562 12.074219 7.214844 15.304688 7.214844 Z M 15.304688 7.214844 "/>
<path style=" stroke:none;fill-rule:nonzero;fill:rgb(0%,0%,0%);fill-opacity:1;" d="M 52.472656 22.808594 C 53.84375 22.808594 55.160156 23.503906 55.160156 25.023438 C 55.160156 26.789062 53.792969 28.03125 52.625 28.730469 C 51.753906 29.25 50.757812 29.574219 49.738281 29.574219 C 48.371094 29.574219 47.050781 28.878906 47.050781 27.359375 C 47.050781 25.59375 48.421875 24.351562 49.589844 23.65625 C 50.460938 23.132812 51.453125 22.808594 52.472656 22.808594 Z M 52.472656 22.808594 "/>
<path style=" stroke:none;fill-rule:nonzero;fill:rgb(0%,0%,0%);fill-opacity:1;" d="M 52.472656 29.027344 C 53.84375 29.027344 55.160156 29.722656 55.160156 31.242188 C 55.160156 33.007812 53.792969 34.25 52.625 34.945312 C 51.753906 35.46875 50.757812 35.792969 49.738281 35.792969 C 48.371094 35.792969 47.050781 35.097656 47.050781 33.578125 C 47.050781 31.8125 48.421875 30.570312 49.589844 29.871094 C 50.460938 29.351562 51.453125 29.027344 52.472656 29.027344 Z M 52.472656 29.027344 "/>
<path style=" stroke:none;fill-rule:nonzero;fill:rgb(0%,0%,0%);fill-opacity:1;" d="M 52.472656 35.246094 C 53.84375 35.246094 55.160156 35.941406 55.160156 37.457031 C 55.160156 39.226562 53.792969 40.46875 52.625 41.164062 C 51.753906 41.6875 50.757812 42.011719 49.738281 42.011719 C 48.371094 42.011719 47.050781 41.3125 47.050781 39.796875 C 47.050781 38.03125 48.421875 36.789062 49.589844 36.089844 C 50.460938 35.570312 51.453125 35.246094 52.472656 35.246094 Z M 52.472656 35.246094 "/>
</g>
</svg>
