<?xml version="1.0" encoding="UTF-8"?>
<svg xmlns="http://www.w3.org/2000/svg" xmlns:xlink="http://www.w3.org/1999/xlink" width="80.887811pt" height="54.52645pt" viewBox="0 0 80.887811 54.52645" version="1.1">
<g id="surface1">
<path style="fill:none;stroke-width:0.1;stroke-linecap:round;stroke-linejoin:round;stroke:rgb(0%,0%,0%);stroke-opacity:1;stroke-miterlimit:4;" d="M 0.049863 -0.0001075 L 10.621865 -0.0001075 " transform="matrix(6.218149,0,0,6.218149,4.561038,29.434262)"/>
<path style="fill:none;stroke-width:0.1;stroke-linecap:round;stroke-linejoin:round;stroke:rgb(0%,0%,0%);stroke-opacity:1;stroke-miterlimit:4;" d="M 0.049863 -0.000204149 L 10.621865 -0.000204149 " transform="matrix(6.218149,0,0,6.218149,4.561038,23.216113)"/>
<path style="fill:none;stroke-width:0.1;stroke-linecap:round;stroke-linejoin:round;stroke:rgb(0%,0%,0%);stroke-opacity:1;stroke-miterlimit:4;" d="M 0.049863 -0.000300797 L 10.621865 -0.000300797 " transform="matrix(6.218149,0,0,6.218149,4.561038,16.997964)"/>
<path style="fill:none;stroke-width:0.1;stroke-linecap:round;stroke-linejoin:round;stroke:rgb(0%,0%,0%);stroke-opacity:1;stroke-miterlimit:4;" d="M 0.049863 0.000230756 L 10.621865 0.000230756 " transform="matrix(6.218149,0,0,6.218149,4.561038,10.779815)"/>
<path style="fill:none;stroke-width:0.1;stroke-linecap:round;stroke-linejoin:round;stroke:rgb(0%,0%,0%);stroke-opacity:1;stroke-miterlimit:4;" d="M 0.049863 0.000133988 L 10.621865 0.000133988 " transform="matrix(6.218149,0,0,6.218149,4.561038,4.561667)"/>
<path style=" stroke:none;fill-rule:nonzero;fill:rgb(0%,0%,0%);fill-opacity:1;" d="M 50.84375 35.03125 L 61.765625 35.03125 C 62.109375 35.03125 62.386719 35.308594 62.386719 35.652344 C 62.386719 35.996094 62.109375 36.273438 61.765625 36.273438 L 50.84375 36.273438 C 50.5 36.273438 50.222656 35.996094 50.222656 35.652344 C 50.222656 35.308594 50.5 35.03125 50.84375 35.03125 Z M 50.84375 35.03125 "/>
<path style=" stroke:none;fill-rule:nonzero;fill:rgb(0%,0%,0%);fill-opacity:1;" d="M 50.84375 41.25 L 61.765625 41.25 C 62.109375 41.25 62.386719 41.527344 62.386719 41.871094 C 62.386719 42.214844 62.109375 42.492188 61.765625 42.492188 L 50.84375 42.492188 C 50.5 42.492188 50.222656 42.214844 50.222656 41.871094 C 50.222656 41.527344 50.5 41.25 50.84375 41.25 Z M 50.84375 41.25 "/>
<path style=" stroke:none;fill-rule:nonzero;fill:rgb(0%,0%,0%);fill-opacity:1;" d="M 59.800781 7.671875 L 60.113281 7.671875 C 60.25 7.671875 60.359375 7.78125 60.359375 7.917969 L 60.359375 40.464844 C 60.359375 40.601562 60.25 40.714844 60.113281 40.714844 L 59.800781 40.714844 C 59.664062 40.714844 59.550781 40.601562 59.550781 40.464844 L 59.550781 7.917969 C 59.550781 7.78125 59.664062 7.671875 59.800781 7.671875 Z M 59.800781 7.671875 "/>
<path style=" stroke:none;fill-rule:nonzero;fill:rgb(0%,0%,0%);fill-opacity:1;" d="M 45.769531 28.414062 L 45.746094 30.054688 L 45.746094 30.328125 C 45.746094 30.875 45.769531 31.425781 45.847656 31.972656 C 46.964844 31.027344 48.160156 29.980469 48.160156 28.515625 C 48.160156 27.691406 47.8125 26.847656 47.089844 26.847656 C 46.320312 26.847656 45.796875 27.59375 45.769531 28.414062 Z M 44.726562 32.867188 L 44.429688 18.066406 C 44.628906 17.941406 44.875 17.867188 45.101562 17.867188 C 45.324219 17.867188 45.570312 17.941406 45.769531 18.066406 L 45.597656 26.648438 C 46.21875 26.125 47.039062 25.804688 47.859375 25.804688 C 49.152344 25.804688 50.074219 26.996094 50.074219 28.339844 C 50.074219 30.328125 47.933594 31.25 46.417969 32.542969 C 46.042969 32.867188 45.820312 33.488281 45.296875 33.488281 C 44.976562 33.488281 44.726562 33.214844 44.726562 32.867188 Z M 44.726562 32.867188 "/>
<path style=" stroke:none;fill-rule:nonzero;fill:rgb(0%,0%,0%);fill-opacity:1;" d="M 35.425781 34.632812 L 35.398438 36.273438 C 35.398438 36.375 35.375 36.449219 35.375 36.546875 C 35.375 37.09375 35.398438 37.640625 35.472656 38.1875 C 36.566406 37.269531 37.636719 36.148438 37.636719 34.730469 C 37.636719 33.910156 37.363281 33.066406 36.644531 33.066406 C 35.898438 33.066406 35.449219 33.8125 35.425781 34.632812 Z M 35.398438 24.285156 L 35.25 32.867188 C 35.847656 32.34375 36.617188 32.019531 37.414062 32.019531 C 38.730469 32.019531 39.703125 33.191406 39.703125 34.53125 C 39.703125 36.523438 37.5625 37.46875 36.046875 38.761719 C 35.671875 39.085938 35.472656 39.707031 34.953125 39.707031 C 34.628906 39.707031 34.355469 39.433594 34.355469 39.085938 L 34.304688 36.449219 C 33.632812 37.292969 32.664062 37.992188 31.867188 38.761719 C 31.542969 39.085938 31.394531 39.707031 30.898438 39.707031 C 30.574219 39.707031 30.324219 39.40625 30.324219 39.058594 L 30.027344 24.285156 C 30.226562 24.160156 30.472656 24.085938 30.699219 24.085938 C 30.921875 24.085938 31.171875 24.160156 31.371094 24.285156 L 31.195312 32.867188 C 31.617188 32.34375 32.265625 32.019531 32.9375 32.019531 C 33.433594 32.019531 33.882812 32.21875 34.230469 32.542969 L 34.054688 24.285156 C 34.253906 24.160156 34.503906 24.085938 34.726562 24.085938 C 34.953125 24.085938 35.199219 24.160156 35.398438 24.285156 Z M 31.121094 36.300781 L 31.121094 36.546875 C 31.121094 37.121094 31.144531 37.667969 31.222656 38.238281 C 32.191406 37.292969 32.988281 36.101562 32.988281 34.730469 C 32.988281 33.9375 32.835938 33.066406 32.164062 33.066406 C 31.496094 33.066406 31.195312 33.835938 31.171875 34.609375 Z M 31.121094 36.300781 "/>
<path style=" stroke:none;fill-rule:nonzero;fill:rgb(0%,0%,0%);fill-opacity:1;" d="M 42.289062 40.851562 L 42.265625 42.492188 L 42.265625 42.765625 C 42.265625 43.3125 42.289062 43.859375 42.363281 44.40625 C 43.484375 43.460938 44.675781 42.417969 44.675781 40.949219 C 44.675781 40.128906 44.328125 39.285156 43.605469 39.285156 C 42.835938 39.285156 42.3125 40.03125 42.289062 40.851562 Z M 41.246094 45.304688 L 40.945312 30.503906 C 41.144531 30.378906 41.394531 30.304688 41.617188 30.304688 C 41.839844 30.304688 42.089844 30.378906 42.289062 30.503906 L 42.113281 39.085938 C 42.738281 38.5625 43.558594 38.238281 44.378906 38.238281 C 45.671875 38.238281 46.59375 39.433594 46.59375 40.777344 C 46.59375 42.765625 44.453125 43.6875 42.9375 44.980469 C 42.5625 45.304688 42.339844 45.925781 41.816406 45.925781 C 41.492188 45.925781 41.246094 45.652344 41.246094 45.304688 Z M 41.246094 45.304688 "/>
<path style=" stroke:none;fill-rule:nonzero;fill:rgb(0%,0%,0%);fill-opacity:1;" d="M 23.390625 13.890625 C 23.390625 13.191406 23.960938 12.621094 24.65625 12.621094 C 25.355469 12.621094 25.925781 13.191406 25.925781 13.890625 C 25.925781 14.585938 25.355469 15.15625 24.65625 15.15625 C 23.960938 15.15625 23.390625 14.585938 23.390625 13.890625 Z M 23.390625 7.671875 C 23.390625 6.972656 23.960938 6.402344 24.65625 6.402344 C 25.355469 6.402344 25.925781 6.972656 25.925781 7.671875 C 25.925781 8.367188 25.355469 8.9375 24.65625 8.9375 C 23.960938 8.9375 23.390625 8.367188 23.390625 7.671875 Z M 15.304688 4.238281 C 19.585938 4.238281 22.59375 6.425781 22.59375 10.480469 C 22.59375 17.023438 16.050781 20.777344 9.757812 23.441406 C 9.683594 23.515625 9.609375 23.539062 9.535156 23.539062 C 9.363281 23.539062 9.210938 23.390625 9.210938 23.214844 C 9.210938 23.140625 9.238281 23.066406 9.3125 22.992188 C 14.335938 20.058594 19.558594 16.402344 19.558594 10.730469 C 19.558594 7.746094 17.992188 4.886719 15.304688 4.886719 C 13.464844 4.886719 12.097656 6.226562 11.476562 8.019531 C 11.75 7.894531 12.023438 7.820312 12.320312 7.820312 C 13.6875 7.820312 14.808594 8.9375 14.808594 10.308594 C 14.808594 11.75 13.714844 12.945312 12.320312 12.945312 C 10.828125 12.945312 9.535156 11.773438 9.535156 10.308594 C 9.535156 7 12.074219 4.238281 15.304688 4.238281 Z M 15.304688 4.238281 "/>
<path style=" stroke:none;fill-rule:nonzero;fill:rgb(0%,0%,0%);fill-opacity:1;" d="M 57.671875 26.050781 C 59.039062 26.050781 60.359375 26.746094 60.359375 28.265625 C 60.359375 30.03125 58.992188 31.273438 57.820312 31.972656 C 56.953125 32.492188 55.957031 32.816406 54.9375 32.816406 C 53.570312 32.816406 52.25 32.121094 52.25 30.601562 C 52.25 28.835938 53.617188 27.59375 54.789062 26.898438 C 55.65625 26.375 56.652344 26.050781 57.671875 26.050781 Z M 57.671875 26.050781 "/>
<path style=" stroke:none;fill-rule:nonzero;fill:rgb(0%,0%,0%);fill-opacity:1;" d="M 57.671875 32.269531 C 59.039062 32.269531 60.359375 32.964844 60.359375 34.484375 C 60.359375 36.25 58.992188 37.492188 57.820312 38.1875 C 56.953125 38.710938 55.957031 39.035156 54.9375 39.035156 C 53.570312 39.035156 52.25 38.339844 52.25 36.820312 C 52.25 35.054688 53.617188 33.8125 54.789062 33.117188 C 55.65625 32.59375 56.652344 32.269531 57.671875 32.269531 Z M 57.671875 32.269531 "/>
<path style=" stroke:none;fill-rule:nonzero;fill:rgb(0%,0%,0%);fill-opacity:1;" d="M 57.671875 38.488281 C 59.039062 38.488281 60.359375 39.183594 60.359375 40.703125 C 60.359375 42.46875 58.992188 43.710938 57.820312 44.40625 C 56.953125 44.929688 55.957031 45.253906 54.9375 45.253906 C 53.570312 45.253906 52.25 44.558594 52.25 43.039062 C 52.25 41.273438 53.617188 40.03125 54.789062 39.332031 C 55.65625 38.8125 56.652344 38.488281 57.671875 38.488281 Z M 57.671875 38.488281 "/>
</g>
</svg>
