<?xml version="1.0" encoding="UTF-8"?>
<svg xmlns="http://www.w3.org/2000/svg" xmlns:xlink="http://www.w3.org/1999/xlink" width="90.818592pt" height="79.074445pt" viewBox="0 0 90.818592 79.074445" version="1.1">
<g id="surface1">
<path style="fill:none;stroke-width:0.1;stroke-linecap:round;stroke-linejoin:round;stroke:rgb(0%,0%,0%);stroke-opacity:1;stroke-miterlimit:4;" d="M 0.049863 -0.000193787 L 12.116984 -0.000193787 " transform="matrix(6.218149,0,0,6.218149,4.561038,59.669174)"/>
<path style="fill:none;stroke-width:0.1;stroke-linecap:round;stroke-linejoin:round;stroke:rgb(0%,0%,0%);stroke-opacity:1;stroke-miterlimit:4;" d="M 0.049863 -0.000290436 L 12.116984 -0.000290436 " transform="matrix(6.218149,0,0,6.218149,4.561038,53.451025)"/>
<path style="fill:none;stroke-width:0.1;stroke-linecap:round;stroke-linejoin:round;stroke:rgb(0%,0%,0%);stroke-opacity:1;stroke-miterlimit:4;" d="M 0.049863 0.00024064 L 12.116984 0.00024064 " transform="matrix(6.218149,0,0,6.218149,4.561038,47.232879)"/>
<path style="fill:none;stroke-width:0.1;stroke-linecap:round;stroke-linejoin:round;stroke:rgb(0%,0%,0%);stroke-opacity:1;stroke-miterlimit:4;" d="M 0.049863 0.000143992 L 12.116984 0.000143992 " transform="matrix(6.218149,0,0,6.218149,4.561038,41.01473)"/>
<path style="fill:none;stroke-width:0.1;stroke-linecap:round;stroke-linejoin:round;stroke:rgb(0%,0%,0%);stroke-opacity:1;stroke-miterlimit:4;" d="M 0.049863 0.000047343 L 12.116984 0.000047343 " transform="matrix(6.218149,0,0,6.218149,4.561038,34.796581)"/>
<path style=" stroke:none;fill-rule:nonzero;fill:rgb(0%,0%,0%);fill-opacity:1;" d="M 60.140625 15.519531 L 71.0625 15.519531 C 71.40625 15.519531 71.683594 15.796875 71.683594 16.140625 C 71.683594 16.484375 71.40625 16.765625 71.0625 16.765625 L 60.140625 16.765625 C 59.796875 16.765625 59.519531 16.484375 59.519531 16.140625 C 59.519531 15.796875 59.796875 15.519531 60.140625 15.519531 Z M 60.140625 15.519531 "/>
<path style=" stroke:none;fill-rule:nonzero;fill:rgb(0%,0%,0%);fill-opacity:1;" d="M 52.4375 21.738281 L 71.0625 21.738281 C 71.40625 21.738281 71.683594 22.015625 71.683594 22.359375 C 71.683594 22.703125 71.40625 22.980469 71.0625 22.980469 L 52.4375 22.980469 C 52.09375 22.980469 51.8125 22.703125 51.8125 22.359375 C 51.8125 22.015625 52.09375 21.738281 52.4375 21.738281 Z M 52.4375 21.738281 "/>
<path style=" stroke:none;fill-rule:nonzero;fill:rgb(0%,0%,0%);fill-opacity:1;" d="M 52.4375 27.957031 L 71.0625 27.957031 C 71.40625 27.957031 71.683594 28.234375 71.683594 28.578125 C 71.683594 28.921875 71.40625 29.199219 71.0625 29.199219 L 52.4375 29.199219 C 52.09375 29.199219 51.8125 28.921875 51.8125 28.578125 C 51.8125 28.234375 52.09375 27.957031 52.4375 27.957031 Z M 52.4375 27.957031 "/>
<path style=" stroke:none;fill-rule:nonzero;fill:rgb(0%,0%,0%);fill-opacity:1;" d="M 61.796875 17.300781 L 62.105469 17.300781 C 62.246094 17.300781 62.355469 17.410156 62.355469 17.546875 L 62.355469 53.203125 C 62.355469 53.339844 62.246094 53.449219 62.105469 53.449219 L 61.796875 53.449219 C 61.660156 53.449219 61.546875 53.339844 61.546875 53.203125 L 61.546875 17.546875 C 61.546875 17.410156 61.660156 17.300781 61.796875 17.300781 Z M 61.796875 17.300781 "/>
<path style=" stroke:none;fill-rule:nonzero;fill:rgb(0%,0%,0%);fill-opacity:1;" d="M 47.363281 15.121094 L 47.335938 16.765625 L 47.335938 17.039062 C 47.335938 17.585938 47.363281 18.132812 47.4375 18.679688 C 48.554688 17.734375 49.75 16.6875 49.75 15.222656 C 49.75 14.402344 49.402344 13.554688 48.679688 13.554688 C 47.910156 13.554688 47.386719 14.300781 47.363281 15.121094 Z M 46.316406 19.574219 L 46.019531 4.773438 C 46.21875 4.652344 46.46875 4.578125 46.691406 4.578125 C 46.914062 4.578125 47.164062 4.652344 47.363281 4.773438 L 47.1875 13.355469 C 47.808594 12.835938 48.632812 12.511719 49.453125 12.511719 C 50.746094 12.511719 51.664062 13.703125 51.664062 15.046875 C 51.664062 17.039062 49.527344 17.957031 48.007812 19.25 C 47.636719 19.574219 47.414062 20.195312 46.890625 20.195312 C 46.566406 20.195312 46.316406 19.921875 46.316406 19.574219 Z M 46.316406 19.574219 "/>
<path style=" stroke:none;fill-rule:nonzero;fill:rgb(0%,0%,0%);fill-opacity:1;" d="M 37.226562 18.230469 L 37.199219 19.871094 L 37.199219 20.148438 C 37.199219 20.695312 37.226562 21.242188 37.300781 21.789062 C 38.417969 20.84375 39.613281 19.796875 39.613281 18.332031 C 39.613281 17.511719 39.265625 16.664062 38.542969 16.664062 C 37.773438 16.664062 37.25 17.410156 37.226562 18.230469 Z M 36.179688 22.683594 L 35.882812 7.882812 C 36.082031 7.761719 36.328125 7.683594 36.554688 7.683594 C 36.777344 7.683594 37.027344 7.761719 37.226562 7.882812 L 37.050781 16.464844 C 37.671875 15.941406 38.492188 15.621094 39.3125 15.621094 C 40.609375 15.621094 41.527344 16.8125 41.527344 18.15625 C 41.527344 20.148438 39.390625 21.066406 37.871094 22.359375 C 37.5 22.683594 37.273438 23.304688 36.753906 23.304688 C 36.429688 23.304688 36.179688 23.03125 36.179688 22.683594 Z M 36.179688 22.683594 "/>
<path style=" stroke:none;fill-rule:nonzero;fill:rgb(0%,0%,0%);fill-opacity:1;" d="M 30.632812 24.449219 L 30.609375 26.089844 L 30.609375 26.363281 C 30.609375 26.910156 30.632812 27.460938 30.707031 28.007812 C 31.828125 27.0625 33.023438 26.015625 33.023438 24.550781 C 33.023438 23.726562 32.671875 22.882812 31.953125 22.882812 C 31.179688 22.882812 30.660156 23.628906 30.632812 24.449219 Z M 29.589844 28.902344 L 29.289062 14.101562 C 29.488281 13.976562 29.738281 13.902344 29.960938 13.902344 C 30.1875 13.902344 30.433594 13.976562 30.632812 14.101562 L 30.460938 22.683594 C 31.082031 22.160156 31.902344 21.839844 32.722656 21.839844 C 34.015625 21.839844 34.9375 23.03125 34.9375 24.375 C 34.9375 26.363281 32.796875 27.285156 31.28125 28.578125 C 30.90625 28.902344 30.683594 29.523438 30.160156 29.523438 C 29.835938 29.523438 29.589844 29.25 29.589844 28.902344 Z M 29.589844 28.902344 "/>
<path style=" stroke:none;fill-rule:nonzero;fill:rgb(0%,0%,0%);fill-opacity:1;" d="M 43.878906 30.667969 L 43.855469 32.308594 L 43.855469 32.582031 C 43.855469 33.128906 43.878906 33.675781 43.953125 34.222656 C 45.074219 33.28125 46.269531 32.234375 46.269531 30.765625 C 46.269531 29.945312 45.917969 29.101562 45.199219 29.101562 C 44.425781 29.101562 43.90625 29.847656 43.878906 30.667969 Z M 42.835938 35.121094 L 42.539062 20.320312 C 42.734375 20.195312 42.984375 20.121094 43.207031 20.121094 C 43.433594 20.121094 43.679688 20.195312 43.878906 20.320312 L 43.707031 28.902344 C 44.328125 28.378906 45.148438 28.054688 45.96875 28.054688 C 47.261719 28.054688 48.183594 29.25 48.183594 30.59375 C 48.183594 32.582031 46.042969 33.503906 44.527344 34.796875 C 44.152344 35.121094 43.929688 35.742188 43.40625 35.742188 C 43.085938 35.742188 42.835938 35.46875 42.835938 35.121094 Z M 42.835938 35.121094 "/>
<path style=" stroke:none;fill-rule:nonzero;fill:rgb(0%,0%,0%);fill-opacity:1;" d="M 16.152344 69.246094 L 16.003906 69.246094 C 13.316406 69.246094 11.152344 67.054688 11.152344 64.34375 C 11.152344 62.902344 12.46875 61.785156 13.9375 61.785156 C 15.28125 61.785156 16.300781 62.953125 16.300781 64.34375 C 16.300781 65.636719 15.230469 66.707031 13.9375 66.707031 C 13.664062 66.707031 13.414062 66.660156 13.167969 66.558594 C 13.8125 67.527344 14.859375 68.175781 16.078125 68.175781 L 16.175781 68.175781 Z M 21 58.5 C 22.691406 57.902344 23.8125 56.136719 23.8125 54.421875 C 23.8125 52.183594 22.171875 49.96875 19.507812 49.695312 C 20.105469 52.582031 20.652344 55.441406 21 58.5 Z M 11.375 52.753906 C 11.375 56.113281 14.585938 58.898438 17.941406 58.898438 C 18.640625 58.898438 19.308594 58.847656 19.980469 58.75 C 19.632812 55.589844 19.0625 52.65625 18.414062 49.695312 C 16.449219 49.894531 15.332031 51.210938 15.332031 52.65625 C 15.332031 53.75 15.953125 54.917969 17.34375 55.714844 C 17.46875 55.839844 17.519531 55.964844 17.519531 56.085938 C 17.519531 56.359375 17.269531 56.632812 16.972656 56.632812 C 16.898438 56.632812 16.824219 56.609375 16.75 56.585938 C 14.757812 55.515625 13.839844 53.726562 13.839844 51.984375 C 13.839844 49.792969 15.28125 47.65625 17.816406 47.082031 C 17.46875 45.640625 17.097656 44.171875 16.675781 42.730469 C 14.011719 45.742188 11.375 48.773438 11.375 52.753906 Z M 17.867188 59.96875 C 13.191406 59.96875 9.585938 55.691406 9.585938 50.664062 C 9.585938 46.261719 12.84375 43.054688 15.753906 39.695312 C 15.28125 38.15625 14.832031 36.585938 14.632812 34.96875 C 14.484375 33.675781 14.460938 32.382812 14.460938 31.089844 C 14.460938 28.230469 15.828125 25.519531 18.167969 23.828125 C 18.316406 23.703125 18.515625 23.703125 18.664062 23.828125 C 20.429688 25.917969 21.972656 29.921875 21.972656 32.730469 C 21.972656 36.289062 19.832031 39.074219 17.496094 41.785156 C 18.015625 43.476562 18.464844 45.21875 18.886719 46.933594 C 18.988281 46.933594 19.113281 46.910156 19.210938 46.910156 C 23.066406 46.910156 25.578125 50.09375 25.578125 53.402344 C 25.578125 55.292969 24.757812 57.230469 22.917969 58.625 C 22.371094 59.046875 21.746094 59.320312 21.101562 59.519531 C 21.175781 60.390625 21.226562 61.261719 21.226562 62.132812 C 21.226562 62.605469 21.199219 63.101562 21.175781 63.574219 C 21 66.535156 18.988281 69.171875 16.152344 69.246094 L 16.175781 68.175781 C 18.488281 68.125 19.980469 65.886719 20.132812 63.425781 C 20.15625 62.976562 20.179688 62.503906 20.179688 62.058594 C 20.179688 61.285156 20.15625 60.539062 20.082031 59.769531 C 19.359375 59.894531 18.640625 59.96875 17.867188 59.96875 Z M 20.179688 30.667969 C 20.179688 29.300781 20.082031 28.703125 19.683594 27.460938 C 17.222656 28.652344 15.652344 31.164062 15.652344 33.902344 C 15.652344 35.742188 16.101562 37.210938 16.550781 38.726562 C 18.539062 36.3125 20.179688 33.800781 20.179688 30.667969 Z M 20.179688 30.667969 "/>
<path style=" stroke:none;fill-rule:nonzero;fill:rgb(0%,0%,0%);fill-opacity:1;" d="M 66.96875 12.757812 C 68.335938 12.757812 69.65625 13.457031 69.65625 14.972656 C 69.65625 16.738281 68.289062 17.984375 67.117188 18.679688 C 66.25 19.203125 65.253906 19.523438 64.234375 19.523438 C 62.867188 19.523438 61.546875 18.828125 61.546875 17.3125 C 61.546875 15.546875 62.914062 14.300781 64.085938 13.605469 C 64.953125 13.082031 65.949219 12.757812 66.96875 12.757812 Z M 66.96875 12.757812 "/>
<path style=" stroke:none;fill-rule:nonzero;fill:rgb(0%,0%,0%);fill-opacity:1;" d="M 59.265625 15.867188 C 60.632812 15.867188 61.949219 16.566406 61.949219 18.082031 C 61.949219 19.847656 60.582031 21.089844 59.414062 21.789062 C 58.542969 22.308594 57.546875 22.632812 56.527344 22.632812 C 55.160156 22.632812 53.839844 21.9375 53.839844 20.421875 C 53.839844 18.652344 55.210938 17.410156 56.378906 16.714844 C 57.25 16.191406 58.246094 15.867188 59.265625 15.867188 Z M 59.265625 15.867188 "/>
<path style=" stroke:none;fill-rule:nonzero;fill:rgb(0%,0%,0%);fill-opacity:1;" d="M 66.96875 22.085938 C 68.335938 22.085938 69.65625 22.78125 69.65625 24.300781 C 69.65625 26.066406 68.289062 27.308594 67.117188 28.007812 C 66.25 28.527344 65.253906 28.851562 64.234375 28.851562 C 62.867188 28.851562 61.546875 28.15625 61.546875 26.636719 C 61.546875 24.871094 62.914062 23.628906 64.085938 22.933594 C 64.953125 22.410156 65.949219 22.085938 66.96875 22.085938 Z M 66.96875 22.085938 "/>
<path style=" stroke:none;fill-rule:nonzero;fill:rgb(0%,0%,0%);fill-opacity:1;" d="M 66.96875 28.304688 C 68.335938 28.304688 69.65625 29 69.65625 30.519531 C 69.65625 32.285156 68.289062 33.527344 67.117188 34.222656 C 66.25 34.746094 65.253906 35.070312 64.234375 35.070312 C 62.867188 35.070312 61.546875 34.375 61.546875 32.855469 C 61.546875 31.089844 62.914062 29.847656 64.085938 29.152344 C 64.953125 28.628906 65.949219 28.304688 66.96875 28.304688 Z M 66.96875 28.304688 "/>
</g>
</svg>
