<?xml version="1.0" encoding="UTF-8"?>
<svg xmlns="http://www.w3.org/2000/svg" xmlns:xlink="http://www.w3.org/1999/xlink" width="68.472344pt" height="66.720746pt" viewBox="0 0 68.472344 66.720746" version="1.1">
<g id="surface1">
<path style="fill:none;stroke-width:0.1;stroke-linecap:round;stroke-linejoin:round;stroke:rgb(0%,0%,0%);stroke-opacity:1;stroke-miterlimit:4;" d="M 0.049863 -0.000298513 L 8.752337 -0.000298513 " transform="matrix(6.218149,0,0,6.218149,4.561038,48.103419)"/>
<path style="fill:none;stroke-width:0.1;stroke-linecap:round;stroke-linejoin:round;stroke:rgb(0%,0%,0%);stroke-opacity:1;stroke-miterlimit:4;" d="M 0.049863 0.00023304 L 8.752337 0.00023304 " transform="matrix(6.218149,0,0,6.218149,4.561038,41.88527)"/>
<path style="fill:none;stroke-width:0.1;stroke-linecap:round;stroke-linejoin:round;stroke:rgb(0%,0%,0%);stroke-opacity:1;stroke-miterlimit:4;" d="M 0.049863 0.000136391 L 8.752337 0.000136391 " transform="matrix(6.218149,0,0,6.218149,4.561038,35.667121)"/>
<path style="fill:none;stroke-width:0.1;stroke-linecap:round;stroke-linejoin:round;stroke:rgb(0%,0%,0%);stroke-opacity:1;stroke-miterlimit:4;" d="M 0.049863 0.0000397429 L 8.752337 0.0000397429 " transform="matrix(6.218149,0,0,6.218149,4.561038,29.448972)"/>
<path style="fill:none;stroke-width:0.1;stroke-linecap:round;stroke-linejoin:round;stroke:rgb(0%,0%,0%);stroke-opacity:1;stroke-miterlimit:4;" d="M 0.049863 -0.0000569057 L 8.752337 -0.0000569057 " transform="matrix(6.218149,0,0,6.218149,4.561038,23.230823)"/>
<path style=" stroke:none;fill-rule:nonzero;fill:rgb(0%,0%,0%);fill-opacity:1;" d="M 40.160156 16.390625 L 50.140625 16.390625 C 50.484375 16.390625 50.765625 16.667969 50.765625 17.011719 C 50.765625 17.355469 50.484375 17.632812 50.140625 17.632812 L 40.160156 17.632812 C 39.816406 17.632812 39.539062 17.355469 39.539062 17.011719 C 39.539062 16.667969 39.816406 16.390625 40.160156 16.390625 Z M 40.160156 16.390625 "/>
<path style=" stroke:none;fill-rule:nonzero;fill:rgb(0%,0%,0%);fill-opacity:1;" d="M 40.875 15.0625 L 41.1875 15.0625 C 41.324219 15.0625 41.433594 15.171875 41.433594 15.308594 L 41.433594 35.417969 C 41.433594 35.554688 41.324219 35.667969 41.1875 35.667969 L 40.875 35.667969 C 40.738281 35.667969 40.625 35.554688 40.625 35.417969 L 40.625 15.308594 C 40.625 15.171875 40.738281 15.0625 40.875 15.0625 Z M 40.875 15.0625 "/>
<path style=" stroke:none;fill-rule:nonzero;fill:rgb(0%,0%,0%);fill-opacity:1;" d="M 36.984375 21.664062 C 36.984375 21.914062 36.785156 22.136719 36.535156 22.136719 C 36.285156 22.136719 36.0625 21.914062 36.0625 21.664062 L 36.0625 18.058594 L 33.996094 18.828125 L 33.996094 22.757812 C 33.996094 23.007812 33.773438 23.230469 33.523438 23.230469 C 33.277344 23.230469 33.078125 23.007812 33.078125 22.757812 L 33.078125 19.152344 L 32.28125 19.449219 C 32.230469 19.476562 32.15625 19.476562 32.109375 19.476562 C 31.832031 19.476562 31.609375 19.25 31.609375 18.976562 L 31.609375 17.484375 C 31.609375 17.285156 31.734375 17.085938 31.933594 17.011719 L 33.078125 16.613281 L 33.078125 12.636719 L 32.28125 12.910156 C 32.230469 12.933594 32.15625 12.933594 32.109375 12.933594 C 31.832031 12.933594 31.609375 12.710938 31.609375 12.4375 L 31.609375 10.945312 C 31.609375 10.746094 31.734375 10.570312 31.933594 10.496094 L 33.078125 10.074219 L 33.078125 6.144531 C 33.078125 5.894531 33.277344 5.671875 33.523438 5.671875 C 33.773438 5.671875 33.996094 5.894531 33.996094 6.144531 L 33.996094 9.75 L 36.0625 8.980469 L 36.0625 5.050781 C 36.0625 4.800781 36.285156 4.578125 36.535156 4.578125 C 36.785156 4.578125 36.984375 4.800781 36.984375 5.050781 L 36.984375 8.65625 L 37.777344 8.355469 C 37.828125 8.332031 37.902344 8.332031 37.953125 8.332031 C 38.226562 8.332031 38.449219 8.554688 38.449219 8.828125 L 38.449219 10.320312 C 38.449219 10.519531 38.324219 10.71875 38.125 10.792969 L 36.984375 11.191406 L 36.984375 15.171875 L 37.777344 14.898438 C 37.828125 14.875 37.902344 14.875 37.953125 14.875 C 38.226562 14.875 38.449219 15.097656 38.449219 15.371094 L 38.449219 16.863281 C 38.449219 17.0625 38.324219 17.238281 38.125 17.3125 L 36.984375 17.734375 Z M 33.996094 12.285156 L 33.996094 16.265625 L 36.0625 15.519531 L 36.0625 11.539062 Z M 33.996094 12.285156 "/>
<path style=" stroke:none;fill-rule:nonzero;fill:rgb(0%,0%,0%);fill-opacity:1;" d="M 16.152344 57.679688 L 16.003906 57.679688 C 13.316406 57.679688 11.152344 55.492188 11.152344 52.78125 C 11.152344 51.335938 12.46875 50.21875 13.9375 50.21875 C 15.28125 50.21875 16.300781 51.386719 16.300781 52.78125 C 16.300781 54.074219 15.230469 55.140625 13.9375 55.140625 C 13.664062 55.140625 13.414062 55.09375 13.167969 54.992188 C 13.8125 55.964844 14.859375 56.609375 16.078125 56.609375 L 16.175781 56.609375 Z M 21 46.933594 C 22.691406 46.335938 23.8125 44.570312 23.8125 42.855469 C 23.8125 40.617188 22.171875 38.402344 19.507812 38.128906 C 20.105469 41.015625 20.652344 43.875 21 46.933594 Z M 11.375 41.1875 C 11.375 44.546875 14.585938 47.332031 17.941406 47.332031 C 18.640625 47.332031 19.308594 47.28125 19.980469 47.183594 C 19.632812 44.023438 19.0625 41.089844 18.414062 38.128906 C 16.449219 38.328125 15.332031 39.648438 15.332031 41.089844 C 15.332031 42.183594 15.953125 43.351562 17.34375 44.148438 C 17.46875 44.273438 17.519531 44.398438 17.519531 44.523438 C 17.519531 44.796875 17.269531 45.070312 16.972656 45.070312 C 16.898438 45.070312 16.824219 45.042969 16.75 45.019531 C 14.757812 43.949219 13.839844 42.160156 13.839844 40.417969 C 13.839844 38.230469 15.28125 36.089844 17.816406 35.519531 C 17.46875 34.074219 17.097656 32.609375 16.675781 31.164062 C 14.011719 34.175781 11.375 37.210938 11.375 41.1875 Z M 17.867188 48.402344 C 13.191406 48.402344 9.585938 44.125 9.585938 39.097656 C 9.585938 34.695312 12.84375 31.488281 15.753906 28.128906 C 15.28125 26.589844 14.832031 25.023438 14.632812 23.40625 C 14.484375 22.113281 14.460938 20.816406 14.460938 19.523438 C 14.460938 16.664062 15.828125 13.953125 18.167969 12.261719 C 18.316406 12.136719 18.515625 12.136719 18.664062 12.261719 C 20.429688 14.351562 21.972656 18.355469 21.972656 21.167969 C 21.972656 24.722656 19.832031 27.507812 17.496094 30.21875 C 18.015625 31.910156 18.464844 33.652344 18.886719 35.367188 C 18.988281 35.367188 19.113281 35.34375 19.210938 35.34375 C 23.066406 35.34375 25.578125 38.527344 25.578125 41.835938 C 25.578125 43.726562 24.757812 45.664062 22.917969 47.058594 C 22.371094 47.480469 21.746094 47.753906 21.101562 47.953125 C 21.175781 48.824219 21.226562 49.695312 21.226562 50.566406 C 21.226562 51.039062 21.199219 51.535156 21.175781 52.007812 C 21 54.96875 18.988281 57.605469 16.152344 57.679688 L 16.175781 56.609375 C 18.488281 56.558594 19.980469 54.320312 20.132812 51.859375 C 20.15625 51.410156 20.179688 50.9375 20.179688 50.492188 C 20.179688 49.71875 20.15625 48.972656 20.082031 48.203125 C 19.359375 48.328125 18.640625 48.402344 17.867188 48.402344 Z M 20.179688 19.101562 C 20.179688 17.734375 20.082031 17.136719 19.683594 15.894531 C 17.222656 17.085938 15.652344 19.597656 15.652344 22.335938 C 15.652344 24.175781 16.101562 25.644531 16.550781 27.160156 C 18.539062 24.75 20.179688 22.234375 20.179688 19.101562 Z M 20.179688 19.101562 "/>
<path style=" stroke:none;fill-rule:nonzero;fill:rgb(0%,0%,0%);fill-opacity:1;" d="M 46.046875 10.519531 C 47.417969 10.519531 48.734375 11.21875 48.734375 12.734375 C 48.734375 14.5 47.367188 15.746094 46.199219 16.441406 C 45.328125 16.964844 44.332031 17.285156 43.3125 17.285156 C 41.945312 17.285156 40.625 16.589844 40.625 15.074219 C 40.625 13.308594 41.996094 12.0625 43.164062 11.367188 C 44.035156 10.84375 45.027344 10.519531 46.046875 10.519531 Z M 46.046875 10.519531 "/>
</g>
</svg>
