<?xml version="1.0" encoding="UTF-8"?>
<svg xmlns="http://www.w3.org/2000/svg" xmlns:xlink="http://www.w3.org/1999/xlink" width="68.472344pt" height="89.037105pt" viewBox="0 0 68.472344 89.037105" version="1.1">
<g id="surface1">
<path style="fill:none;stroke-width:0.1;stroke-linecap:round;stroke-linejoin:round;stroke:rgb(0%,0%,0%);stroke-opacity:1;stroke-miterlimit:4;" d="M 0.049863 -0.0000488142 L 8.752337 -0.0000488142 " transform="matrix(6.218149,0,0,6.218149,4.561038,68.996397)"/>
<path style="fill:none;stroke-width:0.1;stroke-linecap:round;stroke-linejoin:round;stroke:rgb(0%,0%,0%);stroke-opacity:1;stroke-miterlimit:4;" d="M 0.049863 -0.000145463 L 8.752337 -0.000145463 " transform="matrix(6.218149,0,0,6.218149,4.561038,62.778248)"/>
<path style="fill:none;stroke-width:0.1;stroke-linecap:round;stroke-linejoin:round;stroke:rgb(0%,0%,0%);stroke-opacity:1;stroke-miterlimit:4;" d="M 0.049863 -0.000242111 L 8.752337 -0.000242111 " transform="matrix(6.218149,0,0,6.218149,4.561038,56.560099)"/>
<path style="fill:none;stroke-width:0.1;stroke-linecap:round;stroke-linejoin:round;stroke:rgb(0%,0%,0%);stroke-opacity:1;stroke-miterlimit:4;" d="M 0.049863 0.000289441 L 8.752337 0.000289441 " transform="matrix(6.218149,0,0,6.218149,4.561038,50.34195)"/>
<path style="fill:none;stroke-width:0.1;stroke-linecap:round;stroke-linejoin:round;stroke:rgb(0%,0%,0%);stroke-opacity:1;stroke-miterlimit:4;" d="M 0.049863 0.000192316 L 8.752337 0.000192316 " transform="matrix(6.218149,0,0,6.218149,4.561038,44.123804)"/>
<path style=" stroke:none;fill-rule:nonzero;fill:rgb(0%,0%,0%);fill-opacity:1;" d="M 40.160156 18.628906 L 50.140625 18.628906 C 50.484375 18.628906 50.765625 18.90625 50.765625 19.25 C 50.765625 19.59375 50.484375 19.871094 50.140625 19.871094 L 40.160156 19.871094 C 39.816406 19.871094 39.539062 19.59375 39.539062 19.25 C 39.539062 18.90625 39.816406 18.628906 40.160156 18.628906 Z M 40.160156 18.628906 "/>
<path style=" stroke:none;fill-rule:nonzero;fill:rgb(0%,0%,0%);fill-opacity:1;" d="M 39.21875 24.847656 L 50.140625 24.847656 C 50.484375 24.847656 50.761719 25.125 50.761719 25.46875 C 50.761719 25.8125 50.484375 26.089844 50.140625 26.089844 L 39.21875 26.089844 C 38.878906 26.089844 38.597656 25.8125 38.597656 25.46875 C 38.597656 25.125 38.878906 24.847656 39.21875 24.847656 Z M 39.21875 24.847656 "/>
<path style=" stroke:none;fill-rule:nonzero;fill:rgb(0%,0%,0%);fill-opacity:1;" d="M 39.21875 31.066406 L 50.140625 31.066406 C 50.484375 31.066406 50.761719 31.34375 50.761719 31.6875 C 50.761719 32.03125 50.484375 32.308594 50.140625 32.308594 L 39.21875 32.308594 C 38.878906 32.308594 38.597656 32.03125 38.597656 31.6875 C 38.597656 31.34375 38.878906 31.066406 39.21875 31.066406 Z M 39.21875 31.066406 "/>
<path style=" stroke:none;fill-rule:nonzero;fill:rgb(0%,0%,0%);fill-opacity:1;" d="M 39.21875 37.285156 L 50.140625 37.285156 C 50.484375 37.285156 50.761719 37.5625 50.761719 37.90625 C 50.761719 38.25 50.484375 38.527344 50.140625 38.527344 L 39.21875 38.527344 C 38.878906 38.527344 38.597656 38.25 38.597656 37.90625 C 38.597656 37.5625 38.878906 37.285156 39.21875 37.285156 Z M 39.21875 37.285156 "/>
<path style=" stroke:none;fill-rule:nonzero;fill:rgb(0%,0%,0%);fill-opacity:1;" d="M 34.148438 15.121094 L 34.121094 16.765625 L 34.121094 17.039062 C 34.121094 17.585938 34.148438 18.132812 34.222656 18.679688 C 35.339844 17.734375 36.535156 16.6875 36.535156 15.222656 C 36.535156 14.402344 36.1875 13.554688 35.464844 13.554688 C 34.695312 13.554688 34.171875 14.300781 34.148438 15.121094 Z M 33.101562 19.574219 L 32.804688 4.773438 C 33.003906 4.652344 33.25 4.578125 33.476562 4.578125 C 33.699219 4.578125 33.949219 4.652344 34.148438 4.773438 L 33.972656 13.355469 C 34.59375 12.835938 35.414062 12.511719 36.234375 12.511719 C 37.53125 12.511719 38.449219 13.703125 38.449219 15.046875 C 38.449219 17.039062 36.3125 17.957031 34.792969 19.25 C 34.421875 19.574219 34.195312 20.195312 33.675781 20.195312 C 33.351562 20.195312 33.101562 19.921875 33.101562 19.574219 Z M 33.101562 19.574219 "/>
<path style=" stroke:none;fill-rule:nonzero;fill:rgb(0%,0%,0%);fill-opacity:1;" d="M 34.148438 33.777344 L 34.121094 35.417969 L 34.121094 35.691406 C 34.121094 36.238281 34.148438 36.785156 34.222656 37.332031 C 35.339844 36.386719 36.535156 35.34375 36.535156 33.875 C 36.535156 33.054688 36.1875 32.210938 35.464844 32.210938 C 34.695312 32.210938 34.171875 32.957031 34.148438 33.777344 Z M 33.101562 38.230469 L 32.804688 23.429688 C 33.003906 23.304688 33.25 23.230469 33.476562 23.230469 C 33.699219 23.230469 33.949219 23.304688 34.148438 23.429688 L 33.972656 32.011719 C 34.59375 31.488281 35.414062 31.164062 36.234375 31.164062 C 37.53125 31.164062 38.449219 32.359375 38.449219 33.703125 C 38.449219 35.691406 36.3125 36.613281 34.792969 37.90625 C 34.421875 38.230469 34.195312 38.851562 33.675781 38.851562 C 33.351562 38.851562 33.101562 38.578125 33.101562 38.230469 Z M 33.101562 38.230469 "/>
<path style=" stroke:none;fill-rule:nonzero;fill:rgb(0%,0%,0%);fill-opacity:1;" d="M 40.875 17.300781 L 41.1875 17.300781 C 41.324219 17.300781 41.433594 17.410156 41.433594 17.546875 L 41.433594 56.3125 C 41.433594 56.449219 41.324219 56.558594 41.1875 56.558594 L 40.875 56.558594 C 40.738281 56.558594 40.625 56.449219 40.625 56.3125 L 40.625 17.546875 C 40.625 17.410156 40.738281 17.300781 40.875 17.300781 Z M 40.875 17.300781 "/>
<path style=" stroke:none;fill-rule:nonzero;fill:rgb(0%,0%,0%);fill-opacity:1;" d="M 16.152344 78.574219 L 16.003906 78.574219 C 13.316406 78.574219 11.152344 76.382812 11.152344 73.671875 C 11.152344 72.230469 12.46875 71.109375 13.9375 71.109375 C 15.28125 71.109375 16.300781 72.28125 16.300781 73.671875 C 16.300781 74.964844 15.230469 76.035156 13.9375 76.035156 C 13.664062 76.035156 13.414062 75.984375 13.167969 75.886719 C 13.8125 76.855469 14.859375 77.503906 16.078125 77.503906 L 16.175781 77.503906 Z M 21 67.828125 C 22.691406 67.230469 23.8125 65.464844 23.8125 63.75 C 23.8125 61.507812 22.171875 59.296875 19.507812 59.023438 C 20.105469 61.90625 20.652344 64.769531 21 67.828125 Z M 11.375 62.082031 C 11.375 65.441406 14.585938 68.226562 17.941406 68.226562 C 18.640625 68.226562 19.308594 68.175781 19.980469 68.074219 C 19.632812 64.917969 19.0625 61.980469 18.414062 59.023438 C 16.449219 59.222656 15.332031 60.539062 15.332031 61.980469 C 15.332031 63.078125 15.953125 64.246094 17.34375 65.042969 C 17.46875 65.167969 17.519531 65.289062 17.519531 65.414062 C 17.519531 65.6875 17.269531 65.960938 16.972656 65.960938 C 16.898438 65.960938 16.824219 65.9375 16.75 65.914062 C 14.757812 64.84375 13.839844 63.050781 13.839844 61.3125 C 13.839844 59.121094 15.28125 56.984375 17.816406 56.410156 C 17.46875 54.96875 17.097656 53.5 16.675781 52.058594 C 14.011719 55.066406 11.375 58.101562 11.375 62.082031 Z M 17.867188 69.292969 C 13.191406 69.292969 9.585938 65.015625 9.585938 59.992188 C 9.585938 55.589844 12.84375 52.382812 15.753906 49.023438 C 15.28125 47.480469 14.832031 45.914062 14.632812 44.296875 C 14.484375 43.003906 14.460938 41.710938 14.460938 40.417969 C 14.460938 37.558594 15.828125 34.847656 18.167969 33.15625 C 18.316406 33.03125 18.515625 33.03125 18.664062 33.15625 C 20.429688 35.246094 21.972656 39.25 21.972656 42.058594 C 21.972656 45.617188 19.832031 48.402344 17.496094 51.113281 C 18.015625 52.804688 18.464844 54.546875 18.886719 56.261719 C 18.988281 56.261719 19.113281 56.238281 19.210938 56.238281 C 23.066406 56.238281 25.578125 59.421875 25.578125 62.726562 C 25.578125 64.617188 24.757812 66.558594 22.917969 67.953125 C 22.371094 68.375 21.746094 68.648438 21.101562 68.847656 C 21.175781 69.71875 21.226562 70.589844 21.226562 71.457031 C 21.226562 71.929688 21.199219 72.429688 21.175781 72.902344 C 21 75.859375 18.988281 78.496094 16.152344 78.574219 L 16.175781 77.503906 C 18.488281 77.453125 19.980469 75.214844 20.132812 72.753906 C 20.15625 72.304688 20.179688 71.832031 20.179688 71.382812 C 20.179688 70.613281 20.15625 69.867188 20.082031 69.097656 C 19.359375 69.21875 18.640625 69.292969 17.867188 69.292969 Z M 20.179688 39.996094 C 20.179688 38.628906 20.082031 38.03125 19.683594 36.785156 C 17.222656 37.980469 15.652344 40.492188 15.652344 43.226562 C 15.652344 45.070312 16.101562 46.535156 16.550781 48.054688 C 18.539062 45.640625 20.179688 43.128906 20.179688 39.996094 Z M 20.179688 39.996094 "/>
<path style=" stroke:none;fill-rule:nonzero;fill:rgb(0%,0%,0%);fill-opacity:1;" d="M 46.046875 12.757812 C 47.417969 12.757812 48.734375 13.457031 48.734375 14.972656 C 48.734375 16.738281 47.367188 17.984375 46.199219 18.679688 C 45.328125 19.203125 44.332031 19.523438 43.3125 19.523438 C 41.945312 19.523438 40.625 18.828125 40.625 17.3125 C 40.625 15.546875 41.996094 14.300781 43.164062 13.605469 C 44.035156 13.082031 45.027344 12.757812 46.046875 12.757812 Z M 46.046875 12.757812 "/>
<path style=" stroke:none;fill-rule:nonzero;fill:rgb(0%,0%,0%);fill-opacity:1;" d="M 46.046875 18.976562 C 47.417969 18.976562 48.734375 19.675781 48.734375 21.191406 C 48.734375 22.957031 47.367188 24.199219 46.199219 24.898438 C 45.328125 25.417969 44.332031 25.742188 43.3125 25.742188 C 41.945312 25.742188 40.625 25.046875 40.625 23.527344 C 40.625 21.761719 41.996094 20.519531 43.164062 19.824219 C 44.035156 19.300781 45.027344 18.976562 46.046875 18.976562 Z M 46.046875 18.976562 "/>
<path style=" stroke:none;fill-rule:nonzero;fill:rgb(0%,0%,0%);fill-opacity:1;" d="M 46.046875 25.195312 C 47.417969 25.195312 48.734375 25.890625 48.734375 27.410156 C 48.734375 29.175781 47.367188 30.417969 46.199219 31.117188 C 45.328125 31.636719 44.332031 31.960938 43.3125 31.960938 C 41.945312 31.960938 40.625 31.265625 40.625 29.746094 C 40.625 27.980469 41.996094 26.738281 43.164062 26.042969 C 44.035156 25.519531 45.027344 25.195312 46.046875 25.195312 Z M 46.046875 25.195312 "/>
<path style=" stroke:none;fill-rule:nonzero;fill:rgb(0%,0%,0%);fill-opacity:1;" d="M 46.046875 31.414062 C 47.417969 31.414062 48.734375 32.109375 48.734375 33.628906 C 48.734375 35.394531 47.367188 36.636719 46.199219 37.332031 C 45.328125 37.855469 44.332031 38.179688 43.3125 38.179688 C 41.945312 38.179688 40.625 37.484375 40.625 35.964844 C 40.625 34.199219 41.996094 32.957031 43.164062 32.257812 C 44.035156 31.738281 45.027344 31.414062 46.046875 31.414062 Z M 46.046875 31.414062 "/>
</g>
</svg>
