<?xml version="1.0" encoding="UTF-8"?>
<svg xmlns="http://www.w3.org/2000/svg" xmlns:xlink="http://www.w3.org/1999/xlink" width="71.82843pt" height="72.432671pt" viewBox="0 0 71.82843 72.432671" version="1.1">
<g id="surface1">
<path style="fill:none;stroke-width:0.1;stroke-linecap:round;stroke-linejoin:round;stroke:rgb(0%,0%,0%);stroke-opacity:1;stroke-miterlimit:4;" d="M 0.049863 -0.000290436 L 9.257411 -0.000290436 " transform="matrix(6.218149,0,0,6.218149,4.561038,53.451025)"/>
<path style="fill:none;stroke-width:0.1;stroke-linecap:round;stroke-linejoin:round;stroke:rgb(0%,0%,0%);stroke-opacity:1;stroke-miterlimit:4;" d="M 0.049863 0.00024064 L 9.257411 0.00024064 " transform="matrix(6.218149,0,0,6.218149,4.561038,47.232879)"/>
<path style="fill:none;stroke-width:0.1;stroke-linecap:round;stroke-linejoin:round;stroke:rgb(0%,0%,0%);stroke-opacity:1;stroke-miterlimit:4;" d="M 0.049863 0.000143992 L 9.257411 0.000143992 " transform="matrix(6.218149,0,0,6.218149,4.561038,41.01473)"/>
<path style="fill:none;stroke-width:0.1;stroke-linecap:round;stroke-linejoin:round;stroke:rgb(0%,0%,0%);stroke-opacity:1;stroke-miterlimit:4;" d="M 0.049863 0.000047343 L 9.257411 0.000047343 " transform="matrix(6.218149,0,0,6.218149,4.561038,34.796581)"/>
<path style="fill:none;stroke-width:0.1;stroke-linecap:round;stroke-linejoin:round;stroke:rgb(0%,0%,0%);stroke-opacity:1;stroke-miterlimit:4;" d="M 0.049863 -0.0000493056 L 9.257411 -0.0000493056 " transform="matrix(6.218149,0,0,6.218149,4.561038,28.578432)"/>
<path style=" stroke:none;fill-rule:nonzero;fill:rgb(0%,0%,0%);fill-opacity:1;" d="M 43.300781 15.519531 L 53.285156 15.519531 C 53.628906 15.519531 53.90625 15.796875 53.90625 16.140625 C 53.90625 16.484375 53.628906 16.765625 53.285156 16.765625 L 43.300781 16.765625 C 42.957031 16.765625 42.679688 16.484375 42.679688 16.140625 C 42.679688 15.796875 42.957031 15.519531 43.300781 15.519531 Z M 43.300781 15.519531 "/>
<path style=" stroke:none;fill-rule:nonzero;fill:rgb(0%,0%,0%);fill-opacity:1;" d="M 42.363281 21.738281 L 53.285156 21.738281 C 53.625 21.738281 53.90625 22.015625 53.90625 22.359375 C 53.90625 22.703125 53.625 22.980469 53.285156 22.980469 L 42.363281 22.980469 C 42.019531 22.980469 41.742188 22.703125 41.742188 22.359375 C 41.742188 22.015625 42.019531 21.738281 42.363281 21.738281 Z M 42.363281 21.738281 "/>
<path style=" stroke:none;fill-rule:nonzero;fill:rgb(0%,0%,0%);fill-opacity:1;" d="M 44.015625 17.300781 L 44.328125 17.300781 C 44.464844 17.300781 44.578125 17.410156 44.578125 17.546875 L 44.578125 56.3125 C 44.578125 56.449219 44.464844 56.558594 44.328125 56.558594 L 44.015625 56.558594 C 43.878906 56.558594 43.769531 56.449219 43.769531 56.3125 L 43.769531 17.546875 C 43.769531 17.410156 43.878906 17.300781 44.015625 17.300781 Z M 44.015625 17.300781 "/>
<path style=" stroke:none;fill-rule:nonzero;fill:rgb(0%,0%,0%);fill-opacity:1;" d="M 37.289062 15.121094 L 37.265625 16.765625 L 37.265625 17.039062 C 37.265625 17.585938 37.289062 18.132812 37.363281 18.679688 C 38.484375 17.734375 39.675781 16.6875 39.675781 15.222656 C 39.675781 14.402344 39.328125 13.554688 38.605469 13.554688 C 37.835938 13.554688 37.3125 14.300781 37.289062 15.121094 Z M 36.246094 19.574219 L 35.945312 4.773438 C 36.144531 4.652344 36.394531 4.578125 36.617188 4.578125 C 36.839844 4.578125 37.089844 4.652344 37.289062 4.773438 L 37.113281 13.355469 C 37.738281 12.835938 38.558594 12.511719 39.378906 12.511719 C 40.671875 12.511719 41.59375 13.703125 41.59375 15.046875 C 41.59375 17.039062 39.453125 17.957031 37.9375 19.25 C 37.5625 19.574219 37.339844 20.195312 36.816406 20.195312 C 36.492188 20.195312 36.246094 19.921875 36.246094 19.574219 Z M 36.246094 19.574219 "/>
<path style=" stroke:none;fill-rule:nonzero;fill:rgb(0%,0%,0%);fill-opacity:1;" d="M 30.632812 21.339844 L 30.609375 22.980469 L 30.609375 23.253906 C 30.609375 23.804688 30.632812 24.351562 30.707031 24.898438 C 31.828125 23.953125 33.023438 22.90625 33.023438 21.441406 C 33.023438 20.621094 32.671875 19.773438 31.953125 19.773438 C 31.179688 19.773438 30.660156 20.519531 30.632812 21.339844 Z M 29.589844 25.792969 L 29.289062 10.992188 C 29.488281 10.871094 29.738281 10.792969 29.960938 10.792969 C 30.1875 10.792969 30.433594 10.871094 30.632812 10.992188 L 30.460938 19.574219 C 31.082031 19.050781 31.902344 18.730469 32.722656 18.730469 C 34.015625 18.730469 34.9375 19.921875 34.9375 21.265625 C 34.9375 23.253906 32.796875 24.175781 31.28125 25.46875 C 30.90625 25.792969 30.683594 26.414062 30.160156 26.414062 C 29.835938 26.414062 29.589844 26.140625 29.589844 25.792969 Z M 29.589844 25.792969 "/>
<path style=" stroke:none;fill-rule:nonzero;fill:rgb(0%,0%,0%);fill-opacity:1;" d="M 37.289062 33.777344 L 37.265625 35.417969 L 37.265625 35.691406 C 37.265625 36.238281 37.289062 36.785156 37.363281 37.332031 C 38.484375 36.386719 39.675781 35.34375 39.675781 33.875 C 39.675781 33.054688 39.328125 32.210938 38.605469 32.210938 C 37.835938 32.210938 37.3125 32.957031 37.289062 33.777344 Z M 36.246094 38.230469 L 35.945312 23.429688 C 36.144531 23.304688 36.394531 23.230469 36.617188 23.230469 C 36.839844 23.230469 37.089844 23.304688 37.289062 23.429688 L 37.113281 32.011719 C 37.738281 31.488281 38.558594 31.164062 39.378906 31.164062 C 40.671875 31.164062 41.59375 32.359375 41.59375 33.703125 C 41.59375 35.691406 39.453125 36.613281 37.9375 37.90625 C 37.5625 38.230469 37.339844 38.851562 36.816406 38.851562 C 36.492188 38.851562 36.246094 38.578125 36.246094 38.230469 Z M 36.246094 38.230469 "/>
<path style=" stroke:none;fill-rule:nonzero;fill:rgb(0%,0%,0%);fill-opacity:1;" d="M 16.152344 63.027344 L 16.003906 63.027344 C 13.316406 63.027344 11.152344 60.839844 11.152344 58.128906 C 11.152344 56.683594 12.46875 55.566406 13.9375 55.566406 C 15.28125 55.566406 16.300781 56.734375 16.300781 58.128906 C 16.300781 59.421875 15.230469 60.488281 13.9375 60.488281 C 13.664062 60.488281 13.414062 60.441406 13.167969 60.339844 C 13.8125 61.3125 14.859375 61.957031 16.078125 61.957031 L 16.175781 61.957031 Z M 21 52.28125 C 22.691406 51.683594 23.8125 49.917969 23.8125 48.203125 C 23.8125 45.964844 22.171875 43.75 19.507812 43.476562 C 20.105469 46.363281 20.652344 49.222656 21 52.28125 Z M 11.375 46.535156 C 11.375 49.894531 14.585938 52.679688 17.941406 52.679688 C 18.640625 52.679688 19.308594 52.628906 19.980469 52.53125 C 19.632812 49.371094 19.0625 46.4375 18.414062 43.476562 C 16.449219 43.675781 15.332031 44.996094 15.332031 46.4375 C 15.332031 47.53125 15.953125 48.699219 17.34375 49.496094 C 17.46875 49.621094 17.519531 49.746094 17.519531 49.871094 C 17.519531 50.144531 17.269531 50.417969 16.972656 50.417969 C 16.898438 50.417969 16.824219 50.390625 16.75 50.367188 C 14.757812 49.296875 13.839844 47.507812 13.839844 45.765625 C 13.839844 43.578125 15.28125 41.4375 17.816406 40.867188 C 17.46875 39.421875 17.097656 37.957031 16.675781 36.511719 C 14.011719 39.523438 11.375 42.558594 11.375 46.535156 Z M 17.867188 53.75 C 13.191406 53.75 9.585938 49.472656 9.585938 44.445312 C 9.585938 40.042969 12.84375 36.835938 15.753906 33.476562 C 15.28125 31.9375 14.832031 30.371094 14.632812 28.753906 C 14.484375 27.460938 14.460938 26.164062 14.460938 24.871094 C 14.460938 22.011719 15.828125 19.300781 18.167969 17.609375 C 18.316406 17.484375 18.515625 17.484375 18.664062 17.609375 C 20.429688 19.699219 21.972656 23.703125 21.972656 26.515625 C 21.972656 30.070312 19.832031 32.855469 17.496094 35.566406 C 18.015625 37.257812 18.464844 39 18.886719 40.714844 C 18.988281 40.714844 19.113281 40.691406 19.210938 40.691406 C 23.066406 40.691406 25.578125 43.875 25.578125 47.183594 C 25.578125 49.074219 24.757812 51.011719 22.917969 52.40625 C 22.371094 52.828125 21.746094 53.101562 21.101562 53.300781 C 21.175781 54.171875 21.226562 55.042969 21.226562 55.914062 C 21.226562 56.386719 21.199219 56.882812 21.175781 57.355469 C 21 60.316406 18.988281 62.953125 16.152344 63.027344 L 16.175781 61.957031 C 18.488281 61.90625 19.980469 59.667969 20.132812 57.207031 C 20.15625 56.757812 20.179688 56.285156 20.179688 55.839844 C 20.179688 55.066406 20.15625 54.320312 20.082031 53.550781 C 19.359375 53.675781 18.640625 53.75 17.867188 53.75 Z M 20.179688 24.449219 C 20.179688 23.082031 20.082031 22.484375 19.683594 21.242188 C 17.222656 22.433594 15.652344 24.945312 15.652344 27.683594 C 15.652344 29.523438 16.101562 30.992188 16.550781 32.507812 C 18.539062 30.09375 20.179688 27.582031 20.179688 24.449219 Z M 20.179688 24.449219 "/>
<path style=" stroke:none;fill-rule:nonzero;fill:rgb(0%,0%,0%);fill-opacity:1;" d="M 49.191406 12.757812 C 50.558594 12.757812 51.875 13.457031 51.875 14.972656 C 51.875 16.738281 50.507812 17.984375 49.339844 18.679688 C 48.46875 19.203125 47.472656 19.523438 46.453125 19.523438 C 45.085938 19.523438 43.769531 18.828125 43.769531 17.3125 C 43.769531 15.546875 45.136719 14.300781 46.304688 13.605469 C 47.175781 13.082031 48.171875 12.757812 49.191406 12.757812 Z M 49.191406 12.757812 "/>
<path style=" stroke:none;fill-rule:nonzero;fill:rgb(0%,0%,0%);fill-opacity:1;" d="M 49.191406 18.976562 C 50.558594 18.976562 51.875 19.675781 51.875 21.191406 C 51.875 22.957031 50.507812 24.199219 49.339844 24.898438 C 48.46875 25.417969 47.472656 25.742188 46.453125 25.742188 C 45.085938 25.742188 43.769531 25.046875 43.769531 23.527344 C 43.769531 21.761719 45.136719 20.519531 46.304688 19.824219 C 47.175781 19.300781 48.171875 18.976562 49.191406 18.976562 Z M 49.191406 18.976562 "/>
<path style=" stroke:none;fill-rule:nonzero;fill:rgb(0%,0%,0%);fill-opacity:1;" d="M 49.191406 25.195312 C 50.558594 25.195312 51.875 25.890625 51.875 27.410156 C 51.875 29.175781 50.507812 30.417969 49.339844 31.117188 C 48.46875 31.636719 47.472656 31.960938 46.453125 31.960938 C 45.085938 31.960938 43.769531 31.265625 43.769531 29.746094 C 43.769531 27.980469 45.136719 26.738281 46.304688 26.042969 C 47.175781 25.519531 48.171875 25.195312 49.191406 25.195312 Z M 49.191406 25.195312 "/>
<path style=" stroke:none;fill-rule:nonzero;fill:rgb(0%,0%,0%);fill-opacity:1;" d="M 49.191406 31.414062 C 50.558594 31.414062 51.875 32.109375 51.875 33.628906 C 51.875 35.394531 50.507812 36.636719 49.339844 37.332031 C 48.46875 37.855469 47.472656 38.179688 46.453125 38.179688 C 45.085938 38.179688 43.769531 37.484375 43.769531 35.964844 C 43.769531 34.199219 45.136719 32.957031 46.304688 32.257812 C 47.175781 31.738281 48.171875 31.414062 49.191406 31.414062 Z M 49.191406 31.414062 "/>
</g>
</svg>
