<?xml version="1.0" encoding="UTF-8"?>
<svg xmlns="http://www.w3.org/2000/svg" xmlns:xlink="http://www.w3.org/1999/xlink" width="71.82843pt" height="58.61114pt" viewBox="0 0 71.82843 58.61114" version="1.1">
<g id="surface1">
<path style="fill:none;stroke-width:0.1;stroke-linecap:round;stroke-linejoin:round;stroke:rgb(0%,0%,0%);stroke-opacity:1;stroke-miterlimit:4;" d="M 0.049863 -0.000287501 L 9.257411 -0.000287501 " transform="matrix(6.218149,0,0,6.218149,4.561038,40.517413)"/>
<path style="fill:none;stroke-width:0.1;stroke-linecap:round;stroke-linejoin:round;stroke:rgb(0%,0%,0%);stroke-opacity:1;stroke-miterlimit:4;" d="M 0.049863 0.000244052 L 9.257411 0.000244052 " transform="matrix(6.218149,0,0,6.218149,4.561038,34.299264)"/>
<path style="fill:none;stroke-width:0.1;stroke-linecap:round;stroke-linejoin:round;stroke:rgb(0%,0%,0%);stroke-opacity:1;stroke-miterlimit:4;" d="M 0.049863 0.000147403 L 9.257411 0.000147403 " transform="matrix(6.218149,0,0,6.218149,4.561038,28.081115)"/>
<path style="fill:none;stroke-width:0.1;stroke-linecap:round;stroke-linejoin:round;stroke:rgb(0%,0%,0%);stroke-opacity:1;stroke-miterlimit:4;" d="M 0.049863 0.0000507548 L 9.257411 0.0000507548 " transform="matrix(6.218149,0,0,6.218149,4.561038,21.862966)"/>
<path style="fill:none;stroke-width:0.1;stroke-linecap:round;stroke-linejoin:round;stroke:rgb(0%,0%,0%);stroke-opacity:1;stroke-miterlimit:4;" d="M 0.049863 -0.0000458938 L 9.257411 -0.0000458938 " transform="matrix(6.218149,0,0,6.218149,4.561038,15.644817)"/>
<path style=" stroke:none;fill-rule:nonzero;fill:rgb(0%,0%,0%);fill-opacity:1;" d="M 51.320312 5.28125 L 51.628906 5.28125 C 51.765625 5.28125 51.878906 5.390625 51.878906 5.53125 L 51.878906 42.21875 C 51.878906 42.359375 51.765625 42.46875 51.628906 42.46875 L 51.320312 42.46875 C 51.179688 42.46875 51.070312 42.359375 51.070312 42.21875 L 51.070312 5.53125 C 51.070312 5.390625 51.179688 5.28125 51.320312 5.28125 Z M 51.320312 5.28125 "/>
<path style=" stroke:none;fill-rule:nonzero;fill:rgb(0%,0%,0%);fill-opacity:1;" d="M 37.289062 23.953125 L 37.265625 25.59375 L 37.265625 25.867188 C 37.265625 26.414062 37.289062 26.960938 37.363281 27.507812 C 38.484375 26.5625 39.675781 25.519531 39.675781 24.050781 C 39.675781 23.230469 39.328125 22.386719 38.605469 22.386719 C 37.835938 22.386719 37.3125 23.132812 37.289062 23.953125 Z M 36.246094 28.40625 L 35.945312 13.605469 C 36.144531 13.480469 36.394531 13.40625 36.617188 13.40625 C 36.839844 13.40625 37.089844 13.480469 37.289062 13.605469 L 37.113281 22.1875 C 37.738281 21.664062 38.558594 21.339844 39.378906 21.339844 C 40.671875 21.339844 41.59375 22.535156 41.59375 23.878906 C 41.59375 25.867188 39.453125 26.789062 37.9375 28.082031 C 37.5625 28.40625 37.339844 29.027344 36.816406 29.027344 C 36.492188 29.027344 36.246094 28.753906 36.246094 28.40625 Z M 36.246094 28.40625 "/>
<path style=" stroke:none;fill-rule:nonzero;fill:rgb(0%,0%,0%);fill-opacity:1;" d="M 30.632812 30.171875 L 30.609375 31.8125 L 30.609375 32.085938 C 30.609375 32.632812 30.632812 33.179688 30.707031 33.726562 C 31.828125 32.78125 33.023438 31.738281 33.023438 30.269531 C 33.023438 29.449219 32.671875 28.601562 31.953125 28.601562 C 31.179688 28.601562 30.660156 29.351562 30.632812 30.171875 Z M 29.589844 34.621094 L 29.289062 19.824219 C 29.488281 19.699219 29.738281 19.625 29.960938 19.625 C 30.1875 19.625 30.433594 19.699219 30.632812 19.824219 L 30.460938 28.40625 C 31.082031 27.882812 31.902344 27.558594 32.722656 27.558594 C 34.015625 27.558594 34.9375 28.753906 34.9375 30.097656 C 34.9375 32.085938 32.796875 33.007812 31.28125 34.300781 C 30.90625 34.621094 30.683594 35.246094 30.160156 35.246094 C 29.835938 35.246094 29.589844 34.972656 29.589844 34.621094 Z M 29.589844 34.621094 "/>
<path style=" stroke:none;fill-rule:nonzero;fill:rgb(0%,0%,0%);fill-opacity:1;" d="M 37.289062 42.605469 L 37.265625 44.25 L 37.265625 44.523438 C 37.265625 45.070312 37.289062 45.617188 37.363281 46.164062 C 38.484375 45.21875 39.675781 44.171875 39.675781 42.707031 C 39.675781 41.886719 39.328125 41.039062 38.605469 41.039062 C 37.835938 41.039062 37.3125 41.785156 37.289062 42.605469 Z M 36.246094 47.058594 L 35.945312 32.257812 C 36.144531 32.136719 36.394531 32.0625 36.617188 32.0625 C 36.839844 32.0625 37.089844 32.136719 37.289062 32.257812 L 37.113281 40.839844 C 37.738281 40.320312 38.558594 39.996094 39.378906 39.996094 C 40.671875 39.996094 41.59375 41.1875 41.59375 42.53125 C 41.59375 44.523438 39.453125 45.441406 37.9375 46.734375 C 37.5625 47.058594 37.339844 47.679688 36.816406 47.679688 C 36.492188 47.679688 36.246094 47.40625 36.246094 47.058594 Z M 36.246094 47.058594 "/>
<path style=" stroke:none;fill-rule:nonzero;fill:rgb(0%,0%,0%);fill-opacity:1;" d="M 16.152344 50.09375 L 16.003906 50.09375 C 13.316406 50.09375 11.152344 47.90625 11.152344 45.195312 C 11.152344 43.75 12.46875 42.632812 13.9375 42.632812 C 15.28125 42.632812 16.300781 43.800781 16.300781 45.195312 C 16.300781 46.488281 15.230469 47.554688 13.9375 47.554688 C 13.664062 47.554688 13.414062 47.507812 13.167969 47.40625 C 13.8125 48.378906 14.859375 49.023438 16.078125 49.023438 L 16.175781 49.023438 Z M 21 39.347656 C 22.691406 38.75 23.8125 36.984375 23.8125 35.269531 C 23.8125 33.03125 22.171875 30.816406 19.507812 30.542969 C 20.105469 33.429688 20.652344 36.289062 21 39.347656 Z M 11.375 33.601562 C 11.375 36.960938 14.585938 39.746094 17.941406 39.746094 C 18.640625 39.746094 19.308594 39.695312 19.980469 39.597656 C 19.632812 36.4375 19.0625 33.503906 18.414062 30.542969 C 16.449219 30.742188 15.332031 32.0625 15.332031 33.503906 C 15.332031 34.597656 15.953125 35.765625 17.34375 36.5625 C 17.46875 36.6875 17.519531 36.8125 17.519531 36.9375 C 17.519531 37.210938 17.269531 37.484375 16.972656 37.484375 C 16.898438 37.484375 16.824219 37.457031 16.75 37.433594 C 14.757812 36.363281 13.839844 34.574219 13.839844 32.832031 C 13.839844 30.644531 15.28125 28.503906 17.816406 27.933594 C 17.46875 26.488281 17.097656 25.023438 16.675781 23.578125 C 14.011719 26.589844 11.375 29.625 11.375 33.601562 Z M 17.867188 40.816406 C 13.191406 40.816406 9.585938 36.539062 9.585938 31.511719 C 9.585938 27.109375 12.84375 23.902344 15.753906 20.542969 C 15.28125 19.003906 14.832031 17.4375 14.632812 15.820312 C 14.484375 14.527344 14.460938 13.230469 14.460938 11.9375 C 14.460938 9.078125 15.828125 6.367188 18.167969 4.675781 C 18.316406 4.550781 18.515625 4.550781 18.664062 4.675781 C 20.429688 6.765625 21.972656 10.769531 21.972656 13.582031 C 21.972656 17.136719 19.832031 19.921875 17.496094 22.632812 C 18.015625 24.324219 18.464844 26.066406 18.886719 27.78125 C 18.988281 27.78125 19.113281 27.757812 19.210938 27.757812 C 23.066406 27.757812 25.578125 30.941406 25.578125 34.25 C 25.578125 36.140625 24.757812 38.078125 22.917969 39.472656 C 22.371094 39.894531 21.746094 40.167969 21.101562 40.367188 C 21.175781 41.238281 21.226562 42.109375 21.226562 42.980469 C 21.226562 43.453125 21.199219 43.949219 21.175781 44.421875 C 21 47.382812 18.988281 50.019531 16.152344 50.09375 L 16.175781 49.023438 C 18.488281 48.972656 19.980469 46.734375 20.132812 44.273438 C 20.15625 43.824219 20.179688 43.351562 20.179688 42.90625 C 20.179688 42.132812 20.15625 41.386719 20.082031 40.617188 C 19.359375 40.742188 18.640625 40.816406 17.867188 40.816406 Z M 20.179688 11.515625 C 20.179688 10.148438 20.082031 9.550781 19.683594 8.308594 C 17.222656 9.5 15.652344 12.011719 15.652344 14.75 C 15.652344 16.589844 16.101562 18.058594 16.550781 19.574219 C 18.539062 17.160156 20.179688 14.648438 20.179688 11.515625 Z M 20.179688 11.515625 "/>
<path style=" stroke:none;fill-rule:nonzero;fill:rgb(0%,0%,0%);fill-opacity:1;" d="M 49.191406 21.589844 C 50.558594 21.589844 51.875 22.285156 51.875 23.804688 C 51.875 25.570312 50.507812 26.8125 49.339844 27.507812 C 48.46875 28.03125 47.472656 28.355469 46.453125 28.355469 C 45.085938 28.355469 43.769531 27.660156 43.769531 26.140625 C 43.769531 24.375 45.136719 23.132812 46.304688 22.433594 C 47.175781 21.914062 48.171875 21.589844 49.191406 21.589844 Z M 49.191406 21.589844 "/>
<path style=" stroke:none;fill-rule:nonzero;fill:rgb(0%,0%,0%);fill-opacity:1;" d="M 49.191406 27.808594 C 50.558594 27.808594 51.875 28.503906 51.875 30.019531 C 51.875 31.789062 50.507812 33.03125 49.339844 33.726562 C 48.46875 34.25 47.472656 34.574219 46.453125 34.574219 C 45.085938 34.574219 43.769531 33.875 43.769531 32.359375 C 43.769531 30.59375 45.136719 29.351562 46.304688 28.652344 C 47.175781 28.132812 48.171875 27.808594 49.191406 27.808594 Z M 49.191406 27.808594 "/>
<path style=" stroke:none;fill-rule:nonzero;fill:rgb(0%,0%,0%);fill-opacity:1;" d="M 49.191406 34.027344 C 50.558594 34.027344 51.875 34.722656 51.875 36.238281 C 51.875 38.003906 50.507812 39.25 49.339844 39.945312 C 48.46875 40.46875 47.472656 40.789062 46.453125 40.789062 C 45.085938 40.789062 43.769531 40.09375 43.769531 38.578125 C 43.769531 36.8125 45.136719 35.566406 46.304688 34.871094 C 47.175781 34.347656 48.171875 34.027344 49.191406 34.027344 Z M 49.191406 34.027344 "/>
<path style=" stroke:none;fill-rule:nonzero;fill:rgb(0%,0%,0%);fill-opacity:1;" d="M 49.191406 40.242188 C 50.558594 40.242188 51.875 40.941406 51.875 42.457031 C 51.875 44.222656 50.507812 45.46875 49.339844 46.164062 C 48.46875 46.6875 47.472656 47.007812 46.453125 47.007812 C 45.085938 47.007812 43.769531 46.3125 43.769531 44.796875 C 43.769531 43.03125 45.136719 41.785156 46.304688 41.089844 C 47.175781 40.566406 48.171875 40.242188 49.191406 40.242188 Z M 49.191406 40.242188 "/>
</g>
</svg>
