<?xml version="1.0" encoding="UTF-8"?>
<svg xmlns="http://www.w3.org/2000/svg" xmlns:xlink="http://www.w3.org/1999/xlink" width="87.715553pt" height="60.920484pt" viewBox="0 0 87.715553 60.920484" version="1.1">
<g id="surface1">
<path style="fill:none;stroke-width:0.1;stroke-linecap:round;stroke-linejoin:round;stroke:rgb(0%,0%,0%);stroke-opacity:1;stroke-miterlimit:4;" d="M 0.049863 -0.0000416676 L 11.649602 -0.0000416676 " transform="matrix(6.218149,0,0,6.218149,4.561038,39.812759)"/>
<path style="fill:none;stroke-width:0.1;stroke-linecap:round;stroke-linejoin:round;stroke:rgb(0%,0%,0%);stroke-opacity:1;stroke-miterlimit:4;" d="M 0.049863 -0.000138316 L 11.649602 -0.000138316 " transform="matrix(6.218149,0,0,6.218149,4.561038,33.59461)"/>
<path style="fill:none;stroke-width:0.1;stroke-linecap:round;stroke-linejoin:round;stroke:rgb(0%,0%,0%);stroke-opacity:1;stroke-miterlimit:4;" d="M 0.049863 -0.000234965 L 11.649602 -0.000234965 " transform="matrix(6.218149,0,0,6.218149,4.561038,27.376461)"/>
<path style="fill:none;stroke-width:0.1;stroke-linecap:round;stroke-linejoin:round;stroke:rgb(0%,0%,0%);stroke-opacity:1;stroke-miterlimit:4;" d="M 0.049863 0.000296588 L 11.649602 0.000296588 " transform="matrix(6.218149,0,0,6.218149,4.561038,21.158312)"/>
<path style="fill:none;stroke-width:0.1;stroke-linecap:round;stroke-linejoin:round;stroke:rgb(0%,0%,0%);stroke-opacity:1;stroke-miterlimit:4;" d="M 0.049863 0.000199939 L 11.649602 0.000199939 " transform="matrix(6.218149,0,0,6.218149,4.561038,14.940163)"/>
<path style=" stroke:none;fill-rule:nonzero;fill:rgb(0%,0%,0%);fill-opacity:1;" d="M 66.191406 4.578125 L 66.503906 4.578125 C 66.640625 4.578125 66.753906 4.6875 66.753906 4.824219 L 66.753906 41.515625 C 66.753906 41.652344 66.640625 41.765625 66.503906 41.765625 L 66.191406 41.765625 C 66.054688 41.765625 65.945312 41.652344 65.945312 41.515625 L 65.945312 4.824219 C 65.945312 4.6875 66.054688 4.578125 66.191406 4.578125 Z M 66.191406 4.578125 "/>
<path style=" stroke:none;fill-rule:nonzero;fill:rgb(0%,0%,0%);fill-opacity:1;" d="M 55 32.027344 C 55 32.277344 54.800781 32.5 54.550781 32.5 C 54.300781 32.5 54.078125 32.277344 54.078125 32.027344 L 54.078125 28.421875 L 52.015625 29.191406 L 52.015625 33.121094 C 52.015625 33.371094 51.789062 33.59375 51.542969 33.59375 C 51.292969 33.59375 51.09375 33.371094 51.09375 33.121094 L 51.09375 29.515625 L 50.296875 29.8125 C 50.25 29.839844 50.171875 29.839844 50.125 29.839844 C 49.851562 29.839844 49.625 29.613281 49.625 29.339844 L 49.625 27.847656 C 49.625 27.648438 49.75 27.449219 49.949219 27.375 L 51.09375 26.976562 L 51.09375 23 L 50.296875 23.273438 C 50.25 23.296875 50.171875 23.296875 50.125 23.296875 C 49.851562 23.296875 49.625 23.074219 49.625 22.800781 L 49.625 21.308594 C 49.625 21.109375 49.75 20.933594 49.949219 20.859375 L 51.09375 20.4375 L 51.09375 16.507812 C 51.09375 16.257812 51.292969 16.035156 51.542969 16.035156 C 51.789062 16.035156 52.015625 16.257812 52.015625 16.507812 L 52.015625 20.113281 L 54.078125 19.34375 L 54.078125 15.414062 C 54.078125 15.164062 54.300781 14.941406 54.550781 14.941406 C 54.800781 14.941406 55 15.164062 55 15.414062 L 55 19.019531 L 55.792969 18.722656 C 55.84375 18.695312 55.917969 18.695312 55.96875 18.695312 C 56.242188 18.695312 56.464844 18.917969 56.464844 19.195312 L 56.464844 20.6875 C 56.464844 20.882812 56.34375 21.082031 56.144531 21.160156 L 55 21.554688 L 55 25.535156 L 55.792969 25.261719 C 55.84375 25.238281 55.917969 25.238281 55.96875 25.238281 C 56.242188 25.238281 56.464844 25.460938 56.464844 25.734375 L 56.464844 27.226562 C 56.464844 27.425781 56.34375 27.601562 56.144531 27.675781 L 55 28.097656 Z M 52.015625 22.652344 L 52.015625 26.628906 L 54.078125 25.882812 L 54.078125 21.90625 Z M 52.015625 22.652344 "/>
<path style=" stroke:none;fill-rule:nonzero;fill:rgb(0%,0%,0%);fill-opacity:1;" d="M 43.410156 38.246094 C 43.410156 38.496094 43.210938 38.71875 42.960938 38.71875 C 42.710938 38.71875 42.488281 38.496094 42.488281 38.246094 L 42.488281 34.640625 L 40.421875 35.410156 L 40.421875 39.339844 C 40.421875 39.589844 40.199219 39.8125 39.949219 39.8125 C 39.703125 39.8125 39.503906 39.589844 39.503906 39.339844 L 39.503906 35.734375 L 38.707031 36.03125 C 38.65625 36.058594 38.582031 36.058594 38.535156 36.058594 C 38.257812 36.058594 38.035156 35.832031 38.035156 35.558594 L 38.035156 34.066406 C 38.035156 33.867188 38.160156 33.667969 38.359375 33.59375 L 39.503906 33.195312 L 39.503906 29.21875 L 38.707031 29.492188 C 38.65625 29.515625 38.582031 29.515625 38.535156 29.515625 C 38.257812 29.515625 38.035156 29.292969 38.035156 29.019531 L 38.035156 27.527344 C 38.035156 27.328125 38.160156 27.152344 38.359375 27.078125 L 39.503906 26.65625 L 39.503906 22.726562 C 39.503906 22.476562 39.703125 22.253906 39.949219 22.253906 C 40.199219 22.253906 40.421875 22.476562 40.421875 22.726562 L 40.421875 26.332031 L 42.488281 25.5625 L 42.488281 21.632812 C 42.488281 21.382812 42.710938 21.160156 42.960938 21.160156 C 43.210938 21.160156 43.410156 21.382812 43.410156 21.632812 L 43.410156 25.238281 L 44.203125 24.9375 C 44.253906 24.914062 44.328125 24.914062 44.378906 24.914062 C 44.652344 24.914062 44.875 25.136719 44.875 25.410156 L 44.875 26.902344 C 44.875 27.101562 44.75 27.300781 44.550781 27.375 L 43.410156 27.773438 L 43.410156 31.753906 L 44.203125 31.480469 C 44.253906 31.457031 44.328125 31.457031 44.378906 31.457031 C 44.652344 31.457031 44.875 31.679688 44.875 31.953125 L 44.875 33.445312 C 44.875 33.644531 44.75 33.820312 44.550781 33.894531 L 43.410156 34.316406 Z M 40.421875 28.867188 L 40.421875 32.847656 L 42.488281 32.101562 L 42.488281 28.121094 Z M 40.421875 28.867188 "/>
<path style=" stroke:none;fill-rule:nonzero;fill:rgb(0%,0%,0%);fill-opacity:1;" d="M 35.324219 44.464844 C 35.324219 44.710938 35.125 44.9375 34.878906 44.9375 C 34.628906 44.9375 34.40625 44.710938 34.40625 44.464844 L 34.40625 40.855469 L 32.339844 41.628906 L 32.339844 45.558594 C 32.339844 45.808594 32.117188 46.03125 31.867188 46.03125 C 31.617188 46.03125 31.417969 45.808594 31.417969 45.558594 L 31.417969 41.953125 L 30.625 42.25 C 30.574219 42.273438 30.5 42.273438 30.449219 42.273438 C 30.175781 42.273438 29.953125 42.050781 29.953125 41.777344 L 29.953125 40.285156 C 29.953125 40.085938 30.078125 39.886719 30.277344 39.8125 L 31.417969 39.414062 L 31.417969 35.433594 L 30.625 35.707031 C 30.574219 35.734375 30.5 35.734375 30.449219 35.734375 C 30.175781 35.734375 29.953125 35.511719 29.953125 35.234375 L 29.953125 33.742188 C 29.953125 33.542969 30.078125 33.371094 30.277344 33.296875 L 31.417969 32.875 L 31.417969 28.945312 C 31.417969 28.695312 31.617188 28.472656 31.867188 28.472656 C 32.117188 28.472656 32.339844 28.695312 32.339844 28.945312 L 32.339844 32.550781 L 34.40625 31.777344 L 34.40625 27.847656 C 34.40625 27.601562 34.628906 27.375 34.878906 27.375 C 35.125 27.375 35.324219 27.601562 35.324219 27.847656 L 35.324219 31.457031 L 36.121094 31.15625 C 36.171875 31.132812 36.246094 31.132812 36.292969 31.132812 C 36.566406 31.132812 36.792969 31.355469 36.792969 31.628906 L 36.792969 33.121094 C 36.792969 33.320312 36.667969 33.519531 36.46875 33.59375 L 35.324219 33.992188 L 35.324219 37.972656 L 36.121094 37.699219 C 36.171875 37.671875 36.246094 37.671875 36.292969 37.671875 C 36.566406 37.671875 36.792969 37.898438 36.792969 38.171875 L 36.792969 39.664062 C 36.792969 39.863281 36.667969 40.035156 36.46875 40.109375 L 35.324219 40.535156 Z M 32.339844 35.085938 L 32.339844 39.066406 L 34.40625 38.320312 L 34.40625 34.339844 Z M 32.339844 35.085938 "/>
<path style=" stroke:none;fill-rule:nonzero;fill:rgb(0%,0%,0%);fill-opacity:1;" d="M 49.851562 50.683594 C 49.851562 50.929688 49.652344 51.15625 49.402344 51.15625 C 49.152344 51.15625 48.929688 50.929688 48.929688 50.683594 L 48.929688 47.074219 L 46.867188 47.847656 L 46.867188 51.777344 C 46.867188 52.023438 46.640625 52.25 46.394531 52.25 C 46.144531 52.25 45.945312 52.023438 45.945312 51.777344 L 45.945312 48.171875 L 45.148438 48.46875 C 45.101562 48.492188 45.023438 48.492188 44.976562 48.492188 C 44.703125 48.492188 44.476562 48.269531 44.476562 47.996094 L 44.476562 46.503906 C 44.476562 46.304688 44.601562 46.105469 44.800781 46.03125 L 45.945312 45.632812 L 45.945312 41.652344 L 45.148438 41.925781 C 45.101562 41.953125 45.023438 41.953125 44.976562 41.953125 C 44.703125 41.953125 44.476562 41.726562 44.476562 41.453125 L 44.476562 39.960938 C 44.476562 39.761719 44.601562 39.589844 44.800781 39.515625 L 45.945312 39.089844 L 45.945312 35.160156 C 45.945312 34.914062 46.144531 34.6875 46.394531 34.6875 C 46.640625 34.6875 46.867188 34.914062 46.867188 35.160156 L 46.867188 38.769531 L 48.929688 37.996094 L 48.929688 34.066406 C 48.929688 33.820312 49.152344 33.59375 49.402344 33.59375 C 49.652344 33.59375 49.851562 33.820312 49.851562 34.066406 L 49.851562 37.671875 L 50.644531 37.375 C 50.695312 37.351562 50.769531 37.351562 50.820312 37.351562 C 51.09375 37.351562 51.316406 37.574219 51.316406 37.847656 L 51.316406 39.339844 C 51.316406 39.539062 51.195312 39.738281 50.996094 39.8125 L 49.851562 40.210938 L 49.851562 44.191406 L 50.644531 43.917969 C 50.695312 43.890625 50.769531 43.890625 50.820312 43.890625 C 51.09375 43.890625 51.316406 44.117188 51.316406 44.390625 L 51.316406 45.882812 C 51.316406 46.082031 51.195312 46.253906 50.996094 46.328125 L 49.851562 46.753906 Z M 46.867188 41.304688 L 46.867188 45.285156 L 48.929688 44.539062 L 48.929688 40.558594 Z M 46.867188 41.304688 "/>
<path style=" stroke:none;fill-rule:nonzero;fill:rgb(0%,0%,0%);fill-opacity:1;" d="M 23.390625 24.265625 C 23.390625 23.570312 23.960938 23 24.65625 23 C 25.355469 23 25.925781 23.570312 25.925781 24.265625 C 25.925781 24.964844 25.355469 25.535156 24.65625 25.535156 C 23.960938 25.535156 23.390625 24.964844 23.390625 24.265625 Z M 23.390625 18.050781 C 23.390625 17.351562 23.960938 16.78125 24.65625 16.78125 C 25.355469 16.78125 25.925781 17.351562 25.925781 18.050781 C 25.925781 18.746094 25.355469 19.316406 24.65625 19.316406 C 23.960938 19.316406 23.390625 18.746094 23.390625 18.050781 Z M 15.304688 14.617188 C 19.585938 14.617188 22.59375 16.804688 22.59375 20.859375 C 22.59375 27.402344 16.050781 31.15625 9.757812 33.820312 C 9.683594 33.894531 9.609375 33.917969 9.535156 33.917969 C 9.363281 33.917969 9.210938 33.769531 9.210938 33.59375 C 9.210938 33.519531 9.238281 33.445312 9.3125 33.371094 C 14.335938 30.4375 19.558594 26.78125 19.558594 21.109375 C 19.558594 18.125 17.992188 15.261719 15.304688 15.261719 C 13.464844 15.261719 12.097656 16.605469 11.476562 18.398438 C 11.75 18.273438 12.023438 18.199219 12.320312 18.199219 C 13.6875 18.199219 14.808594 19.316406 14.808594 20.6875 C 14.808594 22.128906 13.714844 23.320312 12.320312 23.320312 C 10.828125 23.320312 9.535156 22.152344 9.535156 20.6875 C 9.535156 17.378906 12.074219 14.617188 15.304688 14.617188 Z M 15.304688 14.617188 "/>
<path style=" stroke:none;fill-rule:nonzero;fill:rgb(0%,0%,0%);fill-opacity:1;" d="M 64.066406 20.882812 C 65.433594 20.882812 66.75 21.582031 66.75 23.097656 C 66.75 24.863281 65.382812 26.109375 64.214844 26.804688 C 63.34375 27.328125 62.347656 27.648438 61.328125 27.648438 C 59.960938 27.648438 58.644531 26.953125 58.644531 25.4375 C 58.644531 23.671875 60.011719 22.425781 61.179688 21.730469 C 62.050781 21.207031 63.046875 20.882812 64.066406 20.882812 Z M 64.066406 20.882812 "/>
<path style=" stroke:none;fill-rule:nonzero;fill:rgb(0%,0%,0%);fill-opacity:1;" d="M 64.066406 27.101562 C 65.433594 27.101562 66.75 27.800781 66.75 29.316406 C 66.75 31.082031 65.382812 32.324219 64.214844 33.023438 C 63.34375 33.542969 62.347656 33.867188 61.328125 33.867188 C 59.960938 33.867188 58.644531 33.171875 58.644531 31.65625 C 58.644531 29.886719 60.011719 28.644531 61.179688 27.949219 C 62.050781 27.425781 63.046875 27.101562 64.066406 27.101562 Z M 64.066406 27.101562 "/>
<path style=" stroke:none;fill-rule:nonzero;fill:rgb(0%,0%,0%);fill-opacity:1;" d="M 64.066406 33.320312 C 65.433594 33.320312 66.75 34.015625 66.75 35.535156 C 66.75 37.300781 65.382812 38.542969 64.214844 39.242188 C 63.34375 39.761719 62.347656 40.085938 61.328125 40.085938 C 59.960938 40.085938 58.644531 39.390625 58.644531 37.871094 C 58.644531 36.105469 60.011719 34.863281 61.179688 34.167969 C 62.050781 33.644531 63.046875 33.320312 64.066406 33.320312 Z M 64.066406 33.320312 "/>
<path style=" stroke:none;fill-rule:nonzero;fill:rgb(0%,0%,0%);fill-opacity:1;" d="M 64.066406 39.539062 C 65.433594 39.539062 66.75 40.234375 66.75 41.753906 C 66.75 43.519531 65.382812 44.761719 64.214844 45.457031 C 63.34375 45.980469 62.347656 46.304688 61.328125 46.304688 C 59.960938 46.304688 58.644531 45.609375 58.644531 44.089844 C 58.644531 42.324219 60.011719 41.082031 61.179688 40.386719 C 62.050781 39.863281 63.046875 39.539062 64.066406 39.539062 Z M 64.066406 39.539062 "/>
</g>
</svg>
