<?xml version="1.0" encoding="UTF-8"?>
<svg xmlns="http://www.w3.org/2000/svg" xmlns:xlink="http://www.w3.org/1999/xlink" width="76.333544pt" height="54.181078pt" viewBox="0 0 76.333544 54.181078" version="1.1">
<g id="surface1">
<path style="fill:none;stroke-width:0.1;stroke-linecap:round;stroke-linejoin:round;stroke:rgb(0%,0%,0%);stroke-opacity:1;stroke-miterlimit:4;" d="M 0.049863 0.0000610068 L 9.935869 0.0000610068 " transform="matrix(6.218149,0,0,6.218149,4.561038,32.409777)"/>
<path style="fill:none;stroke-width:0.1;stroke-linecap:round;stroke-linejoin:round;stroke:rgb(0%,0%,0%);stroke-opacity:1;stroke-miterlimit:4;" d="M 0.049863 -0.0000356418 L 9.935869 -0.0000356418 " transform="matrix(6.218149,0,0,6.218149,4.561038,26.191628)"/>
<path style="fill:none;stroke-width:0.1;stroke-linecap:round;stroke-linejoin:round;stroke:rgb(0%,0%,0%);stroke-opacity:1;stroke-miterlimit:4;" d="M 0.049863 -0.00013229 L 9.935869 -0.00013229 " transform="matrix(6.218149,0,0,6.218149,4.561038,19.973479)"/>
<path style="fill:none;stroke-width:0.1;stroke-linecap:round;stroke-linejoin:round;stroke:rgb(0%,0%,0%);stroke-opacity:1;stroke-miterlimit:4;" d="M 0.049863 -0.000228939 L 9.935869 -0.000228939 " transform="matrix(6.218149,0,0,6.218149,4.561038,13.75533)"/>
<path style="fill:none;stroke-width:0.1;stroke-linecap:round;stroke-linejoin:round;stroke:rgb(0%,0%,0%);stroke-opacity:1;stroke-miterlimit:4;" d="M 0.049863 0.000302495 L 9.935869 0.000302495 " transform="matrix(6.218149,0,0,6.218149,4.561038,7.537182)"/>
<path style=" stroke:none;fill-rule:nonzero;fill:rgb(0%,0%,0%);fill-opacity:1;" d="M 46.582031 38.007812 L 57.5 38.007812 C 57.84375 38.007812 58.125 38.285156 58.125 38.628906 C 58.125 38.972656 57.84375 39.25 57.5 39.25 L 46.582031 39.25 C 46.238281 39.25 45.960938 38.972656 45.960938 38.628906 C 45.960938 38.285156 46.238281 38.007812 46.582031 38.007812 Z M 46.582031 38.007812 "/>
<path style=" stroke:none;fill-rule:nonzero;fill:rgb(0%,0%,0%);fill-opacity:1;" d="M 55.535156 4.429688 L 55.847656 4.429688 C 55.984375 4.429688 56.097656 4.539062 56.097656 4.675781 L 56.097656 40.332031 C 56.097656 40.46875 55.984375 40.578125 55.847656 40.578125 L 55.535156 40.578125 C 55.398438 40.578125 55.289062 40.46875 55.289062 40.332031 L 55.289062 4.675781 C 55.289062 4.539062 55.398438 4.429688 55.535156 4.429688 Z M 55.535156 4.429688 "/>
<path style=" stroke:none;fill-rule:nonzero;fill:rgb(0%,0%,0%);fill-opacity:1;" d="M 41.507812 25.171875 L 41.480469 26.8125 L 41.480469 27.085938 C 41.480469 27.632812 41.507812 28.179688 41.582031 28.730469 C 42.699219 27.785156 43.894531 26.738281 43.894531 25.269531 C 43.894531 24.449219 43.546875 23.605469 42.824219 23.605469 C 42.054688 23.605469 41.53125 24.351562 41.507812 25.171875 Z M 40.460938 29.625 L 40.164062 14.824219 C 40.363281 14.699219 40.613281 14.625 40.835938 14.625 C 41.058594 14.625 41.308594 14.699219 41.507812 14.824219 L 41.332031 23.40625 C 41.953125 22.882812 42.773438 22.558594 43.597656 22.558594 C 44.890625 22.558594 45.808594 23.753906 45.808594 25.097656 C 45.808594 27.085938 43.671875 28.007812 42.152344 29.300781 C 41.78125 29.625 41.554688 30.246094 41.035156 30.246094 C 40.710938 30.246094 40.460938 29.972656 40.460938 29.625 Z M 40.460938 29.625 "/>
<path style=" stroke:none;fill-rule:nonzero;fill:rgb(0%,0%,0%);fill-opacity:1;" d="M 31.371094 28.28125 L 31.34375 29.921875 L 31.34375 30.195312 C 31.34375 30.742188 31.371094 31.289062 31.445312 31.835938 C 32.5625 30.890625 33.757812 29.847656 33.757812 28.378906 C 33.757812 27.558594 33.410156 26.714844 32.6875 26.714844 C 31.917969 26.714844 31.394531 27.460938 31.371094 28.28125 Z M 30.324219 32.734375 L 30.027344 17.933594 C 30.226562 17.808594 30.472656 17.734375 30.699219 17.734375 C 30.921875 17.734375 31.171875 17.808594 31.371094 17.933594 L 31.195312 26.515625 C 31.816406 25.992188 32.636719 25.667969 33.460938 25.667969 C 34.753906 25.667969 35.671875 26.863281 35.671875 28.207031 C 35.671875 30.195312 33.535156 31.117188 32.015625 32.410156 C 31.644531 32.734375 31.417969 33.355469 30.898438 33.355469 C 30.574219 33.355469 30.324219 33.082031 30.324219 32.734375 Z M 30.324219 32.734375 "/>
<path style=" stroke:none;fill-rule:nonzero;fill:rgb(0%,0%,0%);fill-opacity:1;" d="M 38.023438 40.71875 L 38 42.359375 L 38 42.632812 C 38 43.179688 38.023438 43.726562 38.097656 44.273438 C 39.21875 43.328125 40.414062 42.285156 40.414062 40.816406 C 40.414062 39.996094 40.0625 39.148438 39.34375 39.148438 C 38.570312 39.148438 38.050781 39.894531 38.023438 40.71875 Z M 36.980469 45.167969 L 36.679688 30.371094 C 36.878906 30.246094 37.128906 30.171875 37.351562 30.171875 C 37.578125 30.171875 37.824219 30.246094 38.023438 30.371094 L 37.851562 38.953125 C 38.472656 38.429688 39.292969 38.105469 40.113281 38.105469 C 41.40625 38.105469 42.328125 39.300781 42.328125 40.644531 C 42.328125 42.632812 40.1875 43.550781 38.671875 44.847656 C 38.296875 45.167969 38.074219 45.792969 37.550781 45.792969 C 37.230469 45.792969 36.980469 45.519531 36.980469 45.167969 Z M 36.980469 45.167969 "/>
<path style=" stroke:none;fill-rule:nonzero;fill:rgb(0%,0%,0%);fill-opacity:1;" d="M 23.390625 16.863281 C 23.390625 16.167969 23.960938 15.597656 24.65625 15.597656 C 25.355469 15.597656 25.925781 16.167969 25.925781 16.863281 C 25.925781 17.5625 25.355469 18.132812 24.65625 18.132812 C 23.960938 18.132812 23.390625 17.5625 23.390625 16.863281 Z M 23.390625 10.644531 C 23.390625 9.949219 23.960938 9.378906 24.65625 9.378906 C 25.355469 9.378906 25.925781 9.949219 25.925781 10.644531 C 25.925781 11.34375 25.355469 11.914062 24.65625 11.914062 C 23.960938 11.914062 23.390625 11.34375 23.390625 10.644531 Z M 15.304688 7.214844 C 19.585938 7.214844 22.59375 9.402344 22.59375 13.457031 C 22.59375 20 16.050781 23.753906 9.757812 26.414062 C 9.683594 26.488281 9.609375 26.515625 9.535156 26.515625 C 9.363281 26.515625 9.210938 26.367188 9.210938 26.191406 C 9.210938 26.117188 9.238281 26.042969 9.3125 25.96875 C 14.335938 23.03125 19.558594 19.375 19.558594 13.707031 C 19.558594 10.722656 17.992188 7.859375 15.304688 7.859375 C 13.464844 7.859375 12.097656 9.203125 11.476562 10.996094 C 11.75 10.871094 12.023438 10.796875 12.320312 10.796875 C 13.6875 10.796875 14.808594 11.914062 14.808594 13.28125 C 14.808594 14.726562 13.714844 15.917969 12.320312 15.917969 C 10.828125 15.917969 9.535156 14.75 9.535156 13.28125 C 9.535156 9.976562 12.074219 7.214844 15.304688 7.214844 Z M 15.304688 7.214844 "/>
<path style=" stroke:none;fill-rule:nonzero;fill:rgb(0%,0%,0%);fill-opacity:1;" d="M 61.113281 22.808594 C 62.480469 22.808594 63.800781 23.503906 63.800781 25.023438 C 63.800781 26.789062 62.433594 28.03125 61.261719 28.730469 C 60.390625 29.25 59.398438 29.574219 58.378906 29.574219 C 57.011719 29.574219 55.691406 28.878906 55.691406 27.359375 C 55.691406 25.59375 57.058594 24.351562 58.230469 23.65625 C 59.097656 23.132812 60.09375 22.808594 61.113281 22.808594 Z M 61.113281 22.808594 "/>
<path style=" stroke:none;fill-rule:nonzero;fill:rgb(0%,0%,0%);fill-opacity:1;" d="M 53.410156 25.917969 C 54.777344 25.917969 56.09375 26.613281 56.09375 28.132812 C 56.09375 29.898438 54.726562 31.140625 53.558594 31.835938 C 52.6875 32.359375 51.691406 32.683594 50.671875 32.683594 C 49.304688 32.683594 47.984375 31.988281 47.984375 30.46875 C 47.984375 28.703125 49.355469 27.460938 50.523438 26.765625 C 51.394531 26.242188 52.386719 25.917969 53.410156 25.917969 Z M 53.410156 25.917969 "/>
<path style=" stroke:none;fill-rule:nonzero;fill:rgb(0%,0%,0%);fill-opacity:1;" d="M 53.410156 32.136719 C 54.777344 32.136719 56.09375 32.832031 56.09375 34.351562 C 56.09375 36.117188 54.726562 37.359375 53.558594 38.054688 C 52.6875 38.578125 51.691406 38.902344 50.671875 38.902344 C 49.304688 38.902344 47.984375 38.207031 47.984375 36.6875 C 47.984375 34.921875 49.355469 33.679688 50.523438 32.980469 C 51.394531 32.460938 52.386719 32.136719 53.410156 32.136719 Z M 53.410156 32.136719 "/>
<path style=" stroke:none;fill-rule:nonzero;fill:rgb(0%,0%,0%);fill-opacity:1;" d="M 53.410156 38.355469 C 54.777344 38.355469 56.09375 39.050781 56.09375 40.566406 C 56.09375 42.332031 54.726562 43.578125 53.558594 44.273438 C 52.6875 44.796875 51.691406 45.121094 50.671875 45.121094 C 49.304688 45.121094 47.984375 44.421875 47.984375 42.90625 C 47.984375 41.140625 49.355469 39.894531 50.523438 39.199219 C 51.394531 38.675781 52.386719 38.355469 53.410156 38.355469 Z M 53.410156 38.355469 "/>
</g>
</svg>
