<?xml version="1.0" encoding="UTF-8"?>
<svg xmlns="http://www.w3.org/2000/svg" xmlns:xlink="http://www.w3.org/1999/xlink" width="81.616415pt" height="60.37121pt" viewBox="0 0 81.616415 60.37121" version="1.1">
<g id="surface1">
<path style="fill:none;stroke-width:0.1;stroke-linecap:round;stroke-linejoin:round;stroke:rgb(0%,0%,0%);stroke-opacity:1;stroke-miterlimit:4;" d="M 0.049863 0.000275194 L 10.731172 0.000275194 " transform="matrix(6.218149,0,0,6.218149,4.561038,42.158445)"/>
<path style="fill:none;stroke-width:0.1;stroke-linecap:round;stroke-linejoin:round;stroke:rgb(0%,0%,0%);stroke-opacity:1;stroke-miterlimit:4;" d="M 0.049863 0.000178545 L 10.731172 0.000178545 " transform="matrix(6.218149,0,0,6.218149,4.561038,35.940296)"/>
<path style="fill:none;stroke-width:0.1;stroke-linecap:round;stroke-linejoin:round;stroke:rgb(0%,0%,0%);stroke-opacity:1;stroke-miterlimit:4;" d="M 0.049863 0.0000818968 L 10.731172 0.0000818968 " transform="matrix(6.218149,0,0,6.218149,4.561038,29.722147)"/>
<path style="fill:none;stroke-width:0.1;stroke-linecap:round;stroke-linejoin:round;stroke:rgb(0%,0%,0%);stroke-opacity:1;stroke-miterlimit:4;" d="M 0.049863 -0.0000147518 L 10.731172 -0.0000147518 " transform="matrix(6.218149,0,0,6.218149,4.561038,23.503998)"/>
<path style="fill:none;stroke-width:0.1;stroke-linecap:round;stroke-linejoin:round;stroke:rgb(0%,0%,0%);stroke-opacity:1;stroke-miterlimit:4;" d="M 0.049863 -0.0001114 L 10.731172 -0.0001114 " transform="matrix(6.218149,0,0,6.218149,4.561038,17.285849)"/>
<path style=" stroke:none;fill-rule:nonzero;fill:rgb(0%,0%,0%);fill-opacity:1;" d="M 51.527344 10.445312 L 62.449219 10.445312 C 62.792969 10.445312 63.070312 10.722656 63.070312 11.066406 C 63.070312 11.410156 62.792969 11.691406 62.449219 11.691406 L 51.527344 11.691406 C 51.183594 11.691406 50.90625 11.410156 50.90625 11.066406 C 50.90625 10.722656 51.183594 10.445312 51.527344 10.445312 Z M 51.527344 10.445312 "/>
<path style=" stroke:none;fill-rule:nonzero;fill:rgb(0%,0%,0%);fill-opacity:1;" d="M 53.179688 9.117188 L 53.492188 9.117188 C 53.628906 9.117188 53.742188 9.226562 53.742188 9.363281 L 53.742188 48.128906 C 53.742188 48.265625 53.628906 48.375 53.492188 48.375 L 53.179688 48.375 C 53.042969 48.375 52.933594 48.265625 52.933594 48.128906 L 52.933594 9.363281 C 52.933594 9.226562 53.042969 9.117188 53.179688 9.117188 Z M 53.179688 9.117188 "/>
<path style=" stroke:none;fill-rule:nonzero;fill:rgb(0%,0%,0%);fill-opacity:1;" d="M 49.289062 21.9375 C 49.289062 22.1875 49.089844 22.410156 48.839844 22.410156 C 48.589844 22.410156 48.367188 22.1875 48.367188 21.9375 L 48.367188 18.332031 L 46.304688 19.101562 L 46.304688 23.03125 C 46.304688 23.28125 46.078125 23.503906 45.832031 23.503906 C 45.582031 23.503906 45.382812 23.28125 45.382812 23.03125 L 45.382812 19.425781 L 44.585938 19.722656 C 44.539062 19.75 44.464844 19.75 44.414062 19.75 C 44.140625 19.75 43.914062 19.523438 43.914062 19.25 L 43.914062 17.757812 C 43.914062 17.558594 44.039062 17.359375 44.238281 17.285156 L 45.382812 16.886719 L 45.382812 12.910156 L 44.585938 13.183594 C 44.539062 13.207031 44.464844 13.207031 44.414062 13.207031 C 44.140625 13.207031 43.914062 12.984375 43.914062 12.710938 L 43.914062 11.21875 C 43.914062 11.019531 44.039062 10.84375 44.238281 10.769531 L 45.382812 10.347656 L 45.382812 6.417969 C 45.382812 6.167969 45.582031 5.945312 45.832031 5.945312 C 46.078125 5.945312 46.304688 6.167969 46.304688 6.417969 L 46.304688 10.023438 L 48.367188 9.253906 L 48.367188 5.320312 C 48.367188 5.074219 48.589844 4.847656 48.839844 4.847656 C 49.089844 4.847656 49.289062 5.074219 49.289062 5.320312 L 49.289062 8.929688 L 50.085938 8.628906 C 50.132812 8.605469 50.207031 8.605469 50.257812 8.605469 C 50.53125 8.605469 50.753906 8.828125 50.753906 9.101562 L 50.753906 10.59375 C 50.753906 10.792969 50.632812 10.992188 50.433594 11.066406 L 49.289062 11.464844 L 49.289062 15.445312 L 50.085938 15.171875 C 50.132812 15.148438 50.207031 15.148438 50.257812 15.148438 C 50.53125 15.148438 50.753906 15.371094 50.753906 15.644531 L 50.753906 17.136719 C 50.753906 17.335938 50.632812 17.507812 50.433594 17.585938 L 49.289062 18.007812 Z M 46.304688 12.558594 L 46.304688 16.539062 L 48.367188 15.792969 L 48.367188 11.8125 Z M 46.304688 12.558594 "/>
<path style=" stroke:none;fill-rule:nonzero;fill:rgb(0%,0%,0%);fill-opacity:1;" d="M 34.589844 28.15625 C 34.589844 28.402344 34.390625 28.628906 34.140625 28.628906 C 33.890625 28.628906 33.667969 28.402344 33.667969 28.15625 L 33.667969 24.546875 L 31.605469 25.320312 L 31.605469 29.25 C 31.605469 29.5 31.378906 29.722656 31.132812 29.722656 C 30.882812 29.722656 30.683594 29.5 30.683594 29.25 L 30.683594 25.644531 L 29.886719 25.941406 C 29.835938 25.964844 29.761719 25.964844 29.714844 25.964844 C 29.441406 25.964844 29.214844 25.742188 29.214844 25.46875 L 29.214844 23.976562 C 29.214844 23.777344 29.339844 23.578125 29.539062 23.503906 L 30.683594 23.105469 L 30.683594 19.125 L 29.886719 19.398438 C 29.835938 19.425781 29.761719 19.425781 29.714844 19.425781 C 29.441406 19.425781 29.214844 19.199219 29.214844 18.925781 L 29.214844 17.433594 C 29.214844 17.234375 29.339844 17.0625 29.539062 16.988281 L 30.683594 16.566406 L 30.683594 12.632812 C 30.683594 12.386719 30.882812 12.160156 31.132812 12.160156 C 31.378906 12.160156 31.605469 12.386719 31.605469 12.632812 L 31.605469 16.242188 L 33.667969 15.46875 L 33.667969 11.539062 C 33.667969 11.292969 33.890625 11.066406 34.140625 11.066406 C 34.390625 11.066406 34.589844 11.292969 34.589844 11.539062 L 34.589844 15.148438 L 35.382812 14.847656 C 35.433594 14.824219 35.507812 14.824219 35.558594 14.824219 C 35.832031 14.824219 36.054688 15.046875 36.054688 15.320312 L 36.054688 16.8125 C 36.054688 17.011719 35.929688 17.210938 35.734375 17.285156 L 34.589844 17.683594 L 34.589844 21.664062 L 35.382812 21.390625 C 35.433594 21.363281 35.507812 21.363281 35.558594 21.363281 C 35.832031 21.363281 36.054688 21.589844 36.054688 21.863281 L 36.054688 23.355469 C 36.054688 23.554688 35.929688 23.726562 35.734375 23.800781 L 34.589844 24.226562 Z M 31.605469 18.777344 L 31.605469 22.757812 L 33.667969 22.011719 L 33.667969 18.03125 Z M 31.605469 18.777344 "/>
<path style=" stroke:none;fill-rule:nonzero;fill:rgb(0%,0%,0%);fill-opacity:1;" d="M 42.671875 34.375 C 42.671875 34.621094 42.472656 34.847656 42.222656 34.847656 C 41.976562 34.847656 41.75 34.621094 41.75 34.375 L 41.75 30.765625 L 39.6875 31.539062 L 39.6875 35.46875 C 39.6875 35.714844 39.464844 35.941406 39.214844 35.941406 C 38.964844 35.941406 38.765625 35.714844 38.765625 35.46875 L 38.765625 31.859375 L 37.972656 32.160156 C 37.921875 32.183594 37.847656 32.183594 37.796875 32.183594 C 37.523438 32.183594 37.300781 31.960938 37.300781 31.6875 L 37.300781 30.195312 C 37.300781 29.996094 37.425781 29.796875 37.621094 29.722656 L 38.765625 29.324219 L 38.765625 25.34375 L 37.972656 25.617188 C 37.921875 25.644531 37.847656 25.644531 37.796875 25.644531 C 37.523438 25.644531 37.300781 25.417969 37.300781 25.144531 L 37.300781 23.652344 C 37.300781 23.453125 37.425781 23.28125 37.621094 23.207031 L 38.765625 22.78125 L 38.765625 18.851562 C 38.765625 18.605469 38.964844 18.378906 39.214844 18.378906 C 39.464844 18.378906 39.6875 18.605469 39.6875 18.851562 L 39.6875 22.460938 L 41.75 21.6875 L 41.75 17.757812 C 41.75 17.507812 41.976562 17.285156 42.222656 17.285156 C 42.472656 17.285156 42.671875 17.507812 42.671875 17.757812 L 42.671875 21.363281 L 43.46875 21.066406 C 43.519531 21.042969 43.59375 21.042969 43.640625 21.042969 C 43.914062 21.042969 44.140625 21.265625 44.140625 21.539062 L 44.140625 23.03125 C 44.140625 23.230469 44.015625 23.429688 43.816406 23.503906 L 42.671875 23.902344 L 42.671875 27.882812 L 43.46875 27.609375 C 43.519531 27.582031 43.59375 27.582031 43.640625 27.582031 C 43.914062 27.582031 44.140625 27.808594 44.140625 28.082031 L 44.140625 29.574219 C 44.140625 29.773438 44.015625 29.945312 43.816406 30.019531 L 42.671875 30.445312 Z M 39.6875 24.996094 L 39.6875 28.976562 L 41.75 28.230469 L 41.75 24.25 Z M 39.6875 24.996094 "/>
<path style=" stroke:none;fill-rule:nonzero;fill:rgb(0%,0%,0%);fill-opacity:1;" d="M 16.152344 51.734375 L 16.003906 51.734375 C 13.316406 51.734375 11.152344 49.546875 11.152344 46.835938 C 11.152344 45.390625 12.46875 44.273438 13.9375 44.273438 C 15.28125 44.273438 16.300781 45.441406 16.300781 46.835938 C 16.300781 48.128906 15.230469 49.199219 13.9375 49.199219 C 13.664062 49.199219 13.414062 49.148438 13.167969 49.046875 C 13.8125 50.019531 14.859375 50.664062 16.078125 50.664062 L 16.175781 50.664062 Z M 21 40.988281 C 22.691406 40.390625 23.8125 38.625 23.8125 36.910156 C 23.8125 34.671875 22.171875 32.457031 19.507812 32.183594 C 20.105469 35.070312 20.652344 37.929688 21 40.988281 Z M 11.375 35.242188 C 11.375 38.601562 14.585938 41.386719 17.941406 41.386719 C 18.640625 41.386719 19.308594 41.335938 19.980469 41.238281 C 19.632812 38.078125 19.0625 35.144531 18.414062 32.183594 C 16.449219 32.382812 15.332031 33.703125 15.332031 35.144531 C 15.332031 36.238281 15.953125 37.40625 17.34375 38.203125 C 17.46875 38.328125 17.519531 38.453125 17.519531 38.578125 C 17.519531 38.851562 17.269531 39.125 16.972656 39.125 C 16.898438 39.125 16.824219 39.097656 16.75 39.074219 C 14.757812 38.003906 13.839844 36.214844 13.839844 34.472656 C 13.839844 32.285156 15.28125 30.144531 17.816406 29.574219 C 17.46875 28.128906 17.097656 26.664062 16.675781 25.21875 C 14.011719 28.230469 11.375 31.265625 11.375 35.242188 Z M 17.867188 42.457031 C 13.191406 42.457031 9.585938 38.179688 9.585938 33.15625 C 9.585938 28.753906 12.84375 25.542969 15.753906 22.1875 C 15.28125 20.644531 14.832031 19.078125 14.632812 17.460938 C 14.484375 16.167969 14.460938 14.875 14.460938 13.578125 C 14.460938 10.71875 15.828125 8.007812 18.167969 6.316406 C 18.316406 6.191406 18.515625 6.191406 18.664062 6.316406 C 20.429688 8.40625 21.972656 12.410156 21.972656 15.222656 C 21.972656 18.777344 19.832031 21.5625 17.496094 24.273438 C 18.015625 25.964844 18.464844 27.707031 18.886719 29.421875 C 18.988281 29.421875 19.113281 29.398438 19.210938 29.398438 C 23.066406 29.398438 25.578125 32.582031 25.578125 35.890625 C 25.578125 37.78125 24.757812 39.722656 22.917969 41.113281 C 22.371094 41.535156 21.746094 41.808594 21.101562 42.007812 C 21.175781 42.878906 21.226562 43.75 21.226562 44.621094 C 21.226562 45.09375 21.199219 45.589844 21.175781 46.0625 C 21 49.023438 18.988281 51.660156 16.152344 51.734375 L 16.175781 50.664062 C 18.488281 50.613281 19.980469 48.375 20.132812 45.914062 C 20.15625 45.464844 20.179688 44.992188 20.179688 44.546875 C 20.179688 43.773438 20.15625 43.027344 20.082031 42.257812 C 19.359375 42.382812 18.640625 42.457031 17.867188 42.457031 Z M 20.179688 13.15625 C 20.179688 11.789062 20.082031 11.191406 19.683594 9.949219 C 17.222656 11.140625 15.652344 13.65625 15.652344 16.390625 C 15.652344 18.230469 16.101562 19.699219 16.550781 21.214844 C 18.539062 18.804688 20.179688 16.289062 20.179688 13.15625 Z M 20.179688 13.15625 "/>
<path style=" stroke:none;fill-rule:nonzero;fill:rgb(0%,0%,0%);fill-opacity:1;" d="M 58.355469 4.574219 C 59.722656 4.574219 61.039062 5.273438 61.039062 6.789062 C 61.039062 8.554688 59.671875 9.800781 58.503906 10.496094 C 57.632812 11.019531 56.636719 11.339844 55.617188 11.339844 C 54.25 11.339844 52.933594 10.644531 52.933594 9.128906 C 52.933594 7.363281 54.300781 6.117188 55.46875 5.421875 C 56.339844 4.898438 57.335938 4.574219 58.355469 4.574219 Z M 58.355469 4.574219 "/>
<path style=" stroke:none;fill-rule:nonzero;fill:rgb(0%,0%,0%);fill-opacity:1;" d="M 58.355469 10.792969 C 59.722656 10.792969 61.039062 11.492188 61.039062 13.007812 C 61.039062 14.773438 59.671875 16.015625 58.503906 16.714844 C 57.632812 17.234375 56.636719 17.558594 55.617188 17.558594 C 54.25 17.558594 52.933594 16.863281 52.933594 15.347656 C 52.933594 13.578125 54.300781 12.335938 55.46875 11.640625 C 56.339844 11.117188 57.335938 10.792969 58.355469 10.792969 Z M 58.355469 10.792969 "/>
<path style=" stroke:none;fill-rule:nonzero;fill:rgb(0%,0%,0%);fill-opacity:1;" d="M 58.355469 17.011719 C 59.722656 17.011719 61.039062 17.707031 61.039062 19.226562 C 61.039062 20.992188 59.671875 22.234375 58.503906 22.933594 C 57.632812 23.453125 56.636719 23.777344 55.617188 23.777344 C 54.25 23.777344 52.933594 23.082031 52.933594 21.5625 C 52.933594 19.796875 54.300781 18.554688 55.46875 17.859375 C 56.339844 17.335938 57.335938 17.011719 58.355469 17.011719 Z M 58.355469 17.011719 "/>
<path style=" stroke:none;fill-rule:nonzero;fill:rgb(0%,0%,0%);fill-opacity:1;" d="M 58.355469 23.230469 C 59.722656 23.230469 61.039062 23.925781 61.039062 25.445312 C 61.039062 27.210938 59.671875 28.453125 58.503906 29.148438 C 57.632812 29.671875 56.636719 29.996094 55.617188 29.996094 C 54.25 29.996094 52.933594 29.300781 52.933594 27.78125 C 52.933594 26.015625 54.300781 24.773438 55.46875 24.074219 C 56.339844 23.554688 57.335938 23.230469 58.355469 23.230469 Z M 58.355469 23.230469 "/>
</g>
</svg>
