<?xml version="1.0" encoding="UTF-8"?>
<svg xmlns="http://www.w3.org/2000/svg" xmlns:xlink="http://www.w3.org/1999/xlink" width="68.472344pt" height="73.654757pt" viewBox="0 0 68.472344 73.654757" version="1.1">
<g id="surface1">
<path style="fill:none;stroke-width:0.1;stroke-linecap:round;stroke-linejoin:round;stroke:rgb(0%,0%,0%);stroke-opacity:1;stroke-miterlimit:4;" d="M 0.049863 -0.00015971 L 8.752337 -0.00015971 " transform="matrix(6.218149,0,0,6.218149,4.561038,54.594743)"/>
<path style="fill:none;stroke-width:0.1;stroke-linecap:round;stroke-linejoin:round;stroke:rgb(0%,0%,0%);stroke-opacity:1;stroke-miterlimit:4;" d="M 0.049863 -0.000256359 L 8.752337 -0.000256359 " transform="matrix(6.218149,0,0,6.218149,4.561038,48.376594)"/>
<path style="fill:none;stroke-width:0.1;stroke-linecap:round;stroke-linejoin:round;stroke:rgb(0%,0%,0%);stroke-opacity:1;stroke-miterlimit:4;" d="M 0.049863 0.000275194 L 8.752337 0.000275194 " transform="matrix(6.218149,0,0,6.218149,4.561038,42.158445)"/>
<path style="fill:none;stroke-width:0.1;stroke-linecap:round;stroke-linejoin:round;stroke:rgb(0%,0%,0%);stroke-opacity:1;stroke-miterlimit:4;" d="M 0.049863 0.000178545 L 8.752337 0.000178545 " transform="matrix(6.218149,0,0,6.218149,4.561038,35.940296)"/>
<path style="fill:none;stroke-width:0.1;stroke-linecap:round;stroke-linejoin:round;stroke:rgb(0%,0%,0%);stroke-opacity:1;stroke-miterlimit:4;" d="M 0.049863 0.0000818968 L 8.752337 0.0000818968 " transform="matrix(6.218149,0,0,6.218149,4.561038,29.722147)"/>
<path style=" stroke:none;fill-rule:nonzero;fill:rgb(0%,0%,0%);fill-opacity:1;" d="M 39.21875 10.445312 L 50.140625 10.445312 C 50.484375 10.445312 50.761719 10.722656 50.761719 11.066406 C 50.761719 11.410156 50.484375 11.691406 50.140625 11.691406 L 39.21875 11.691406 C 38.878906 11.691406 38.597656 11.410156 38.597656 11.066406 C 38.597656 10.722656 38.878906 10.445312 39.21875 10.445312 Z M 39.21875 10.445312 "/>
<path style=" stroke:none;fill-rule:nonzero;fill:rgb(0%,0%,0%);fill-opacity:1;" d="M 39.21875 16.664062 L 50.140625 16.664062 C 50.484375 16.664062 50.761719 16.941406 50.761719 17.285156 C 50.761719 17.628906 50.484375 17.90625 50.140625 17.90625 L 39.21875 17.90625 C 38.878906 17.90625 38.597656 17.628906 38.597656 17.285156 C 38.597656 16.941406 38.878906 16.664062 39.21875 16.664062 Z M 39.21875 16.664062 "/>
<path style=" stroke:none;fill-rule:nonzero;fill:rgb(0%,0%,0%);fill-opacity:1;" d="M 39.21875 22.882812 L 50.140625 22.882812 C 50.484375 22.882812 50.761719 23.160156 50.761719 23.503906 C 50.761719 23.847656 50.484375 24.125 50.140625 24.125 L 39.21875 24.125 C 38.878906 24.125 38.597656 23.847656 38.597656 23.503906 C 38.597656 23.160156 38.878906 22.882812 39.21875 22.882812 Z M 39.21875 22.882812 "/>
<path style=" stroke:none;fill-rule:nonzero;fill:rgb(0%,0%,0%);fill-opacity:1;" d="M 34.148438 19.375 L 34.121094 21.015625 L 34.121094 21.289062 C 34.121094 21.835938 34.148438 22.382812 34.222656 22.933594 C 35.339844 21.988281 36.535156 20.941406 36.535156 19.476562 C 36.535156 18.652344 36.1875 17.808594 35.464844 17.808594 C 34.695312 17.808594 34.171875 18.554688 34.148438 19.375 Z M 33.101562 23.828125 L 32.804688 9.027344 C 33.003906 8.902344 33.25 8.828125 33.476562 8.828125 C 33.699219 8.828125 33.949219 8.902344 34.148438 9.027344 L 33.972656 17.609375 C 34.59375 17.085938 35.414062 16.761719 36.234375 16.761719 C 37.53125 16.761719 38.449219 17.957031 38.449219 19.300781 C 38.449219 21.289062 36.3125 22.210938 34.792969 23.503906 C 34.421875 23.828125 34.195312 24.449219 33.675781 24.449219 C 33.351562 24.449219 33.101562 24.175781 33.101562 23.828125 Z M 33.101562 23.828125 "/>
<path style=" stroke:none;fill-rule:nonzero;fill:rgb(0%,0%,0%);fill-opacity:1;" d="M 40.875 9.117188 L 41.1875 9.117188 C 41.324219 9.117188 41.433594 9.226562 41.433594 9.363281 L 41.433594 41.910156 C 41.433594 42.046875 41.324219 42.160156 41.1875 42.160156 L 40.875 42.160156 C 40.738281 42.160156 40.625 42.046875 40.625 41.910156 L 40.625 9.363281 C 40.625 9.226562 40.738281 9.117188 40.875 9.117188 Z M 40.875 9.117188 "/>
<path style=" stroke:none;fill-rule:nonzero;fill:rgb(0%,0%,0%);fill-opacity:1;" d="M 16.152344 64.171875 L 16.003906 64.171875 C 13.316406 64.171875 11.152344 61.980469 11.152344 59.269531 C 11.152344 57.828125 12.46875 56.707031 13.9375 56.707031 C 15.28125 56.707031 16.300781 57.878906 16.300781 59.269531 C 16.300781 60.5625 15.230469 61.632812 13.9375 61.632812 C 13.664062 61.632812 13.414062 61.582031 13.167969 61.484375 C 13.8125 62.453125 14.859375 63.101562 16.078125 63.101562 L 16.175781 63.101562 Z M 21 53.425781 C 22.691406 52.828125 23.8125 51.0625 23.8125 49.347656 C 23.8125 47.109375 22.171875 44.894531 19.507812 44.621094 C 20.105469 47.507812 20.652344 50.367188 21 53.425781 Z M 11.375 47.679688 C 11.375 51.039062 14.585938 53.824219 17.941406 53.824219 C 18.640625 53.824219 19.308594 53.773438 19.980469 53.675781 C 19.632812 50.515625 19.0625 47.582031 18.414062 44.621094 C 16.449219 44.820312 15.332031 46.136719 15.332031 47.582031 C 15.332031 48.675781 15.953125 49.84375 17.34375 50.640625 C 17.46875 50.765625 17.519531 50.890625 17.519531 51.011719 C 17.519531 51.285156 17.269531 51.558594 16.972656 51.558594 C 16.898438 51.558594 16.824219 51.535156 16.75 51.511719 C 14.757812 50.441406 13.839844 48.648438 13.839844 46.910156 C 13.839844 44.71875 15.28125 42.582031 17.816406 42.007812 C 17.46875 40.566406 17.097656 39.097656 16.675781 37.65625 C 14.011719 40.667969 11.375 43.699219 11.375 47.679688 Z M 17.867188 54.894531 C 13.191406 54.894531 9.585938 50.613281 9.585938 45.589844 C 9.585938 41.1875 12.84375 37.980469 15.753906 34.621094 C 15.28125 33.078125 14.832031 31.511719 14.632812 29.894531 C 14.484375 28.601562 14.460938 27.308594 14.460938 26.015625 C 14.460938 23.15625 15.828125 20.445312 18.167969 18.753906 C 18.316406 18.628906 18.515625 18.628906 18.664062 18.753906 C 20.429688 20.84375 21.972656 24.847656 21.972656 27.65625 C 21.972656 31.214844 19.832031 34 17.496094 36.710938 C 18.015625 38.402344 18.464844 40.144531 18.886719 41.859375 C 18.988281 41.859375 19.113281 41.835938 19.210938 41.835938 C 23.066406 41.835938 25.578125 45.019531 25.578125 48.328125 C 25.578125 50.21875 24.757812 52.15625 22.917969 53.550781 C 22.371094 53.972656 21.746094 54.246094 21.101562 54.445312 C 21.175781 55.316406 21.226562 56.1875 21.226562 57.058594 C 21.226562 57.53125 21.199219 58.027344 21.175781 58.5 C 21 61.460938 18.988281 64.097656 16.152344 64.171875 L 16.175781 63.101562 C 18.488281 63.050781 19.980469 60.8125 20.132812 58.351562 C 20.15625 57.902344 20.179688 57.429688 20.179688 56.984375 C 20.179688 56.210938 20.15625 55.464844 20.082031 54.695312 C 19.359375 54.820312 18.640625 54.894531 17.867188 54.894531 Z M 20.179688 25.59375 C 20.179688 24.226562 20.082031 23.628906 19.683594 22.382812 C 17.222656 23.578125 15.652344 26.089844 15.652344 28.828125 C 15.652344 30.667969 16.101562 32.136719 16.550781 33.652344 C 18.539062 31.238281 20.179688 28.726562 20.179688 25.59375 Z M 20.179688 25.59375 "/>
<path style=" stroke:none;fill-rule:nonzero;fill:rgb(0%,0%,0%);fill-opacity:1;" d="M 46.046875 4.574219 C 47.417969 4.574219 48.734375 5.273438 48.734375 6.789062 C 48.734375 8.554688 47.367188 9.800781 46.199219 10.496094 C 45.328125 11.019531 44.332031 11.339844 43.3125 11.339844 C 41.945312 11.339844 40.625 10.644531 40.625 9.128906 C 40.625 7.363281 41.996094 6.117188 43.164062 5.421875 C 44.035156 4.898438 45.027344 4.574219 46.046875 4.574219 Z M 46.046875 4.574219 "/>
<path style=" stroke:none;fill-rule:nonzero;fill:rgb(0%,0%,0%);fill-opacity:1;" d="M 46.046875 10.792969 C 47.417969 10.792969 48.734375 11.492188 48.734375 13.007812 C 48.734375 14.773438 47.367188 16.015625 46.199219 16.714844 C 45.328125 17.234375 44.332031 17.558594 43.3125 17.558594 C 41.945312 17.558594 40.625 16.863281 40.625 15.347656 C 40.625 13.578125 41.996094 12.335938 43.164062 11.640625 C 44.035156 11.117188 45.027344 10.792969 46.046875 10.792969 Z M 46.046875 10.792969 "/>
<path style=" stroke:none;fill-rule:nonzero;fill:rgb(0%,0%,0%);fill-opacity:1;" d="M 46.046875 17.011719 C 47.417969 17.011719 48.734375 17.707031 48.734375 19.226562 C 48.734375 20.992188 47.367188 22.234375 46.199219 22.933594 C 45.328125 23.453125 44.332031 23.777344 43.3125 23.777344 C 41.945312 23.777344 40.625 23.082031 40.625 21.5625 C 40.625 19.796875 41.996094 18.554688 43.164062 17.859375 C 44.035156 17.335938 45.027344 17.011719 46.046875 17.011719 Z M 46.046875 17.011719 "/>
</g>
</svg>
