<?xml version="1.0" encoding="UTF-8"?>
<svg xmlns="http://www.w3.org/2000/svg" xmlns:xlink="http://www.w3.org/1999/xlink" width="68.472344pt" height="37.922016pt" viewBox="0 0 68.472344 37.922016" version="1.1">
<g id="surface1">
<path style="fill:none;stroke-width:0.1;stroke-linecap:round;stroke-linejoin:round;stroke:rgb(0%,0%,0%);stroke-opacity:1;stroke-miterlimit:4;" d="M 0.049863 -0.0001075 L 8.752337 -0.0001075 " transform="matrix(6.218149,0,0,6.218149,4.561038,29.434262)"/>
<path style="fill:none;stroke-width:0.1;stroke-linecap:round;stroke-linejoin:round;stroke:rgb(0%,0%,0%);stroke-opacity:1;stroke-miterlimit:4;" d="M 0.049863 -0.000204149 L 8.752337 -0.000204149 " transform="matrix(6.218149,0,0,6.218149,4.561038,23.216113)"/>
<path style="fill:none;stroke-width:0.1;stroke-linecap:round;stroke-linejoin:round;stroke:rgb(0%,0%,0%);stroke-opacity:1;stroke-miterlimit:4;" d="M 0.049863 -0.000300797 L 8.752337 -0.000300797 " transform="matrix(6.218149,0,0,6.218149,4.561038,16.997964)"/>
<path style="fill:none;stroke-width:0.1;stroke-linecap:round;stroke-linejoin:round;stroke:rgb(0%,0%,0%);stroke-opacity:1;stroke-miterlimit:4;" d="M 0.049863 0.000230756 L 8.752337 0.000230756 " transform="matrix(6.218149,0,0,6.218149,4.561038,10.779815)"/>
<path style="fill:none;stroke-width:0.1;stroke-linecap:round;stroke-linejoin:round;stroke:rgb(0%,0%,0%);stroke-opacity:1;stroke-miterlimit:4;" d="M 0.049863 0.000133988 L 8.752337 0.000133988 " transform="matrix(6.218149,0,0,6.218149,4.561038,4.561667)"/>
<path style=" stroke:none;fill-rule:nonzero;fill:rgb(0%,0%,0%);fill-opacity:1;" d="M 48.175781 4.5625 L 48.488281 4.5625 C 48.625 4.5625 48.734375 4.671875 48.734375 4.808594 L 48.734375 24.917969 C 48.734375 25.054688 48.625 25.167969 48.488281 25.167969 L 48.175781 25.167969 C 48.039062 25.167969 47.925781 25.054688 47.925781 24.917969 L 47.925781 4.808594 C 47.925781 4.671875 48.039062 4.5625 48.175781 4.5625 Z M 48.175781 4.5625 "/>
<path style=" stroke:none;fill-rule:nonzero;fill:rgb(0%,0%,0%);fill-opacity:1;" d="M 34.148438 25.304688 L 34.121094 26.945312 L 34.121094 27.21875 C 34.121094 27.769531 34.148438 28.316406 34.222656 28.863281 C 35.339844 27.917969 36.535156 26.871094 36.535156 25.40625 C 36.535156 24.585938 36.1875 23.738281 35.464844 23.738281 C 34.695312 23.738281 34.171875 24.484375 34.148438 25.304688 Z M 33.101562 29.757812 L 32.804688 14.957031 C 33.003906 14.835938 33.25 14.757812 33.476562 14.757812 C 33.699219 14.757812 33.949219 14.835938 34.148438 14.957031 L 33.972656 23.539062 C 34.59375 23.015625 35.414062 22.695312 36.234375 22.695312 C 37.53125 22.695312 38.449219 23.886719 38.449219 25.230469 C 38.449219 27.21875 36.3125 28.140625 34.792969 29.433594 C 34.421875 29.757812 34.195312 30.378906 33.675781 30.378906 C 33.351562 30.378906 33.101562 30.105469 33.101562 29.757812 Z M 33.101562 29.757812 "/>
<path style=" stroke:none;fill-rule:nonzero;fill:rgb(0%,0%,0%);fill-opacity:1;" d="M 23.390625 13.890625 C 23.390625 13.191406 23.960938 12.621094 24.65625 12.621094 C 25.355469 12.621094 25.925781 13.191406 25.925781 13.890625 C 25.925781 14.585938 25.355469 15.15625 24.65625 15.15625 C 23.960938 15.15625 23.390625 14.585938 23.390625 13.890625 Z M 23.390625 7.671875 C 23.390625 6.972656 23.960938 6.402344 24.65625 6.402344 C 25.355469 6.402344 25.925781 6.972656 25.925781 7.671875 C 25.925781 8.367188 25.355469 8.9375 24.65625 8.9375 C 23.960938 8.9375 23.390625 8.367188 23.390625 7.671875 Z M 15.304688 4.238281 C 19.585938 4.238281 22.59375 6.425781 22.59375 10.480469 C 22.59375 17.023438 16.050781 20.777344 9.757812 23.441406 C 9.683594 23.515625 9.609375 23.539062 9.535156 23.539062 C 9.363281 23.539062 9.210938 23.390625 9.210938 23.214844 C 9.210938 23.140625 9.238281 23.066406 9.3125 22.992188 C 14.335938 20.058594 19.558594 16.402344 19.558594 10.730469 C 19.558594 7.746094 17.992188 4.886719 15.304688 4.886719 C 13.464844 4.886719 12.097656 6.226562 11.476562 8.019531 C 11.75 7.894531 12.023438 7.820312 12.320312 7.820312 C 13.6875 7.820312 14.808594 8.9375 14.808594 10.308594 C 14.808594 11.75 13.714844 12.945312 12.320312 12.945312 C 10.828125 12.945312 9.535156 11.773438 9.535156 10.308594 C 9.535156 7 12.074219 4.238281 15.304688 4.238281 Z M 15.304688 4.238281 "/>
<path style=" stroke:none;fill-rule:nonzero;fill:rgb(0%,0%,0%);fill-opacity:1;" d="M 46.046875 22.941406 C 47.417969 22.941406 48.734375 23.640625 48.734375 25.15625 C 48.734375 26.921875 47.367188 28.164062 46.199219 28.863281 C 45.328125 29.382812 44.332031 29.707031 43.3125 29.707031 C 41.945312 29.707031 40.625 29.011719 40.625 27.496094 C 40.625 25.726562 41.996094 24.484375 43.164062 23.789062 C 44.035156 23.265625 45.027344 22.941406 46.046875 22.941406 Z M 46.046875 22.941406 "/>
</g>
</svg>
