<?xml version="1.0" encoding="UTF-8"?>
<svg xmlns="http://www.w3.org/2000/svg" xmlns:xlink="http://www.w3.org/1999/xlink" width="92.200076pt" height="56.492415pt" viewBox="0 0 92.200076 56.492415" version="1.1">
<g id="surface1">
<path style="fill:none;stroke-width:0.1;stroke-linecap:round;stroke-linejoin:round;stroke:rgb(0%,0%,0%);stroke-opacity:1;stroke-miterlimit:4;" d="M 0.049863 0.000136391 L 12.324919 0.000136391 " transform="matrix(6.218149,0,0,6.218149,4.561038,35.667121)"/>
<path style="fill:none;stroke-width:0.1;stroke-linecap:round;stroke-linejoin:round;stroke:rgb(0%,0%,0%);stroke-opacity:1;stroke-miterlimit:4;" d="M 0.049863 0.0000397429 L 12.324919 0.0000397429 " transform="matrix(6.218149,0,0,6.218149,4.561038,29.448972)"/>
<path style="fill:none;stroke-width:0.1;stroke-linecap:round;stroke-linejoin:round;stroke:rgb(0%,0%,0%);stroke-opacity:1;stroke-miterlimit:4;" d="M 0.049863 -0.0000569057 L 12.324919 -0.0000569057 " transform="matrix(6.218149,0,0,6.218149,4.561038,23.230823)"/>
<path style="fill:none;stroke-width:0.1;stroke-linecap:round;stroke-linejoin:round;stroke:rgb(0%,0%,0%);stroke-opacity:1;stroke-miterlimit:4;" d="M 0.049863 -0.000153554 L 12.324919 -0.000153554 " transform="matrix(6.218149,0,0,6.218149,4.561038,17.012674)"/>
<path style="fill:none;stroke-width:0.1;stroke-linecap:round;stroke-linejoin:round;stroke:rgb(0%,0%,0%);stroke-opacity:1;stroke-miterlimit:4;" d="M 0.049863 -0.000250203 L 12.324919 -0.000250203 " transform="matrix(6.218149,0,0,6.218149,4.561038,10.794525)"/>
<path style=" stroke:none;fill-rule:nonzero;fill:rgb(0%,0%,0%);fill-opacity:1;" d="M 63.089844 15.0625 L 63.402344 15.0625 C 63.539062 15.0625 63.648438 15.171875 63.648438 15.308594 L 63.648438 47.855469 C 63.648438 47.992188 63.539062 48.101562 63.402344 48.101562 L 63.089844 48.101562 C 62.953125 48.101562 62.839844 47.992188 62.839844 47.855469 L 62.839844 15.308594 C 62.839844 15.171875 62.953125 15.0625 63.089844 15.0625 Z M 63.089844 15.0625 "/>
<path style=" stroke:none;fill-rule:nonzero;fill:rgb(0%,0%,0%);fill-opacity:1;" d="M 51.492188 21.664062 C 51.492188 21.914062 51.292969 22.136719 51.042969 22.136719 C 50.796875 22.136719 50.570312 21.914062 50.570312 21.664062 L 50.570312 18.058594 L 48.507812 18.828125 L 48.507812 22.757812 C 48.507812 23.007812 48.285156 23.230469 48.035156 23.230469 C 47.785156 23.230469 47.585938 23.007812 47.585938 22.757812 L 47.585938 19.152344 L 46.789062 19.449219 C 46.742188 19.476562 46.667969 19.476562 46.617188 19.476562 C 46.34375 19.476562 46.121094 19.25 46.121094 18.976562 L 46.121094 17.484375 C 46.121094 17.285156 46.242188 17.085938 46.441406 17.011719 L 47.585938 16.613281 L 47.585938 12.636719 L 46.789062 12.910156 C 46.742188 12.933594 46.667969 12.933594 46.617188 12.933594 C 46.34375 12.933594 46.121094 12.710938 46.121094 12.4375 L 46.121094 10.945312 C 46.121094 10.746094 46.242188 10.570312 46.441406 10.496094 L 47.585938 10.074219 L 47.585938 6.144531 C 47.585938 5.894531 47.785156 5.671875 48.035156 5.671875 C 48.285156 5.671875 48.507812 5.894531 48.507812 6.144531 L 48.507812 9.75 L 50.570312 8.980469 L 50.570312 5.050781 C 50.570312 4.800781 50.796875 4.578125 51.042969 4.578125 C 51.292969 4.578125 51.492188 4.800781 51.492188 5.050781 L 51.492188 8.65625 L 52.289062 8.355469 C 52.335938 8.332031 52.414062 8.332031 52.460938 8.332031 C 52.734375 8.332031 52.960938 8.554688 52.960938 8.828125 L 52.960938 10.320312 C 52.960938 10.519531 52.835938 10.71875 52.636719 10.792969 L 51.492188 11.191406 L 51.492188 15.171875 L 52.289062 14.898438 C 52.335938 14.875 52.414062 14.875 52.460938 14.875 C 52.734375 14.875 52.960938 15.097656 52.960938 15.371094 L 52.960938 16.863281 C 52.960938 17.0625 52.835938 17.238281 52.636719 17.3125 L 51.492188 17.734375 Z M 48.507812 12.285156 L 48.507812 16.265625 L 50.570312 15.519531 L 50.570312 11.539062 Z M 48.507812 12.285156 "/>
<path style=" stroke:none;fill-rule:nonzero;fill:rgb(0%,0%,0%);fill-opacity:1;" d="M 35.324219 24.773438 C 35.324219 25.023438 35.125 25.246094 34.878906 25.246094 C 34.628906 25.246094 34.40625 25.023438 34.40625 24.773438 L 34.40625 21.167969 L 32.339844 21.9375 L 32.339844 25.867188 C 32.339844 26.117188 32.117188 26.339844 31.867188 26.339844 C 31.617188 26.339844 31.417969 26.117188 31.417969 25.867188 L 31.417969 22.261719 L 30.625 22.558594 C 30.574219 22.585938 30.5 22.585938 30.449219 22.585938 C 30.175781 22.585938 29.953125 22.359375 29.953125 22.085938 L 29.953125 20.59375 C 29.953125 20.394531 30.078125 20.195312 30.277344 20.121094 L 31.417969 19.722656 L 31.417969 15.746094 L 30.625 16.019531 C 30.574219 16.042969 30.5 16.042969 30.449219 16.042969 C 30.175781 16.042969 29.953125 15.820312 29.953125 15.546875 L 29.953125 14.054688 C 29.953125 13.855469 30.078125 13.679688 30.277344 13.605469 L 31.417969 13.183594 L 31.417969 9.253906 C 31.417969 9.003906 31.617188 8.78125 31.867188 8.78125 C 32.117188 8.78125 32.339844 9.003906 32.339844 9.253906 L 32.339844 12.859375 L 34.40625 12.089844 L 34.40625 8.15625 C 34.40625 7.910156 34.628906 7.683594 34.878906 7.683594 C 35.125 7.683594 35.324219 7.910156 35.324219 8.15625 L 35.324219 11.765625 L 36.121094 11.464844 C 36.171875 11.441406 36.246094 11.441406 36.292969 11.441406 C 36.566406 11.441406 36.792969 11.664062 36.792969 11.9375 L 36.792969 13.429688 C 36.792969 13.628906 36.667969 13.828125 36.46875 13.902344 L 35.324219 14.300781 L 35.324219 18.28125 L 36.121094 18.007812 C 36.171875 17.984375 36.246094 17.984375 36.292969 17.984375 C 36.566406 17.984375 36.792969 18.207031 36.792969 18.480469 L 36.792969 19.972656 C 36.792969 20.171875 36.667969 20.34375 36.46875 20.421875 L 35.324219 20.84375 Z M 32.339844 15.394531 L 32.339844 19.375 L 34.40625 18.628906 L 34.40625 14.648438 Z M 32.339844 15.394531 "/>
<path style=" stroke:none;fill-rule:nonzero;fill:rgb(0%,0%,0%);fill-opacity:1;" d="M 43.410156 30.992188 C 43.410156 31.238281 43.210938 31.464844 42.960938 31.464844 C 42.710938 31.464844 42.488281 31.238281 42.488281 30.992188 L 42.488281 27.382812 L 40.421875 28.15625 L 40.421875 32.085938 C 40.421875 32.335938 40.199219 32.558594 39.949219 32.558594 C 39.703125 32.558594 39.503906 32.335938 39.503906 32.085938 L 39.503906 28.480469 L 38.707031 28.777344 C 38.65625 28.800781 38.582031 28.800781 38.535156 28.800781 C 38.257812 28.800781 38.035156 28.578125 38.035156 28.304688 L 38.035156 26.8125 C 38.035156 26.613281 38.160156 26.414062 38.359375 26.339844 L 39.503906 25.941406 L 39.503906 21.960938 L 38.707031 22.234375 C 38.65625 22.261719 38.582031 22.261719 38.535156 22.261719 C 38.257812 22.261719 38.035156 22.035156 38.035156 21.761719 L 38.035156 20.269531 C 38.035156 20.070312 38.160156 19.898438 38.359375 19.824219 L 39.503906 19.402344 L 39.503906 15.46875 C 39.503906 15.222656 39.703125 14.996094 39.949219 14.996094 C 40.199219 14.996094 40.421875 15.222656 40.421875 15.46875 L 40.421875 19.078125 L 42.488281 18.304688 L 42.488281 14.375 C 42.488281 14.128906 42.710938 13.902344 42.960938 13.902344 C 43.210938 13.902344 43.410156 14.128906 43.410156 14.375 L 43.410156 17.984375 L 44.203125 17.683594 C 44.253906 17.660156 44.328125 17.660156 44.378906 17.660156 C 44.652344 17.660156 44.875 17.882812 44.875 18.15625 L 44.875 19.648438 C 44.875 19.847656 44.75 20.046875 44.550781 20.121094 L 43.410156 20.519531 L 43.410156 24.5 L 44.203125 24.226562 C 44.253906 24.199219 44.328125 24.199219 44.378906 24.199219 C 44.652344 24.199219 44.875 24.425781 44.875 24.699219 L 44.875 26.191406 C 44.875 26.390625 44.75 26.5625 44.550781 26.636719 L 43.410156 27.0625 Z M 40.421875 21.613281 L 40.421875 25.59375 L 42.488281 24.847656 L 42.488281 20.867188 Z M 40.421875 21.613281 "/>
<path style=" stroke:none;fill-rule:nonzero;fill:rgb(0%,0%,0%);fill-opacity:1;" d="M 23.390625 20.121094 C 23.390625 19.425781 23.960938 18.851562 24.65625 18.851562 C 25.355469 18.851562 25.925781 19.425781 25.925781 20.121094 C 25.925781 20.816406 25.355469 21.390625 24.65625 21.390625 C 23.960938 21.390625 23.390625 20.816406 23.390625 20.121094 Z M 23.390625 13.902344 C 23.390625 13.207031 23.960938 12.636719 24.65625 12.636719 C 25.355469 12.636719 25.925781 13.207031 25.925781 13.902344 C 25.925781 14.601562 25.355469 15.171875 24.65625 15.171875 C 23.960938 15.171875 23.390625 14.601562 23.390625 13.902344 Z M 15.304688 10.472656 C 19.585938 10.472656 22.59375 12.660156 22.59375 16.714844 C 22.59375 23.253906 16.050781 27.011719 9.757812 29.671875 C 9.683594 29.746094 9.609375 29.773438 9.535156 29.773438 C 9.363281 29.773438 9.210938 29.625 9.210938 29.449219 C 9.210938 29.375 9.238281 29.300781 9.3125 29.226562 C 14.335938 26.289062 19.558594 22.632812 19.558594 16.964844 C 19.558594 13.976562 17.992188 11.117188 15.304688 11.117188 C 13.464844 11.117188 12.097656 12.460938 11.476562 14.25 C 11.75 14.128906 12.023438 14.054688 12.320312 14.054688 C 13.6875 14.054688 14.808594 15.171875 14.808594 16.539062 C 14.808594 17.984375 13.714844 19.175781 12.320312 19.175781 C 10.828125 19.175781 9.535156 18.007812 9.535156 16.539062 C 9.535156 13.230469 12.074219 10.472656 15.304688 10.472656 Z M 15.304688 10.472656 "/>
<path style=" stroke:none;fill-rule:nonzero;fill:rgb(0%,0%,0%);fill-opacity:1;" d="M 68.261719 10.519531 C 69.632812 10.519531 70.949219 11.21875 70.949219 12.734375 C 70.949219 14.5 69.582031 15.746094 68.414062 16.441406 C 67.542969 16.964844 66.546875 17.285156 65.527344 17.285156 C 64.160156 17.285156 62.839844 16.589844 62.839844 15.074219 C 62.839844 13.308594 64.210938 12.0625 65.378906 11.367188 C 66.25 10.84375 67.242188 10.519531 68.261719 10.519531 Z M 68.261719 10.519531 "/>
<path style=" stroke:none;fill-rule:nonzero;fill:rgb(0%,0%,0%);fill-opacity:1;" d="M 60.558594 13.628906 C 61.925781 13.628906 63.246094 14.328125 63.246094 15.84375 C 63.246094 17.609375 61.875 18.851562 60.707031 19.550781 C 59.835938 20.070312 58.839844 20.394531 57.820312 20.394531 C 56.453125 20.394531 55.136719 19.699219 55.136719 18.183594 C 55.136719 16.414062 56.503906 15.171875 57.671875 14.476562 C 58.542969 13.953125 59.539062 13.628906 60.558594 13.628906 Z M 60.558594 13.628906 "/>
<path style=" stroke:none;fill-rule:nonzero;fill:rgb(0%,0%,0%);fill-opacity:1;" d="M 68.261719 19.847656 C 69.632812 19.847656 70.949219 20.542969 70.949219 22.0625 C 70.949219 23.828125 69.582031 25.070312 68.414062 25.769531 C 67.542969 26.289062 66.546875 26.613281 65.527344 26.613281 C 64.160156 26.613281 62.839844 25.917969 62.839844 24.398438 C 62.839844 22.632812 64.210938 21.390625 65.378906 20.695312 C 66.25 20.171875 67.242188 19.847656 68.261719 19.847656 Z M 68.261719 19.847656 "/>
<path style=" stroke:none;fill-rule:nonzero;fill:rgb(0%,0%,0%);fill-opacity:1;" d="M 68.261719 26.066406 C 69.632812 26.066406 70.949219 26.761719 70.949219 28.28125 C 70.949219 30.046875 69.582031 31.289062 68.414062 31.984375 C 67.542969 32.507812 66.546875 32.832031 65.527344 32.832031 C 64.160156 32.832031 62.839844 32.136719 62.839844 30.617188 C 62.839844 28.851562 64.210938 27.609375 65.378906 26.910156 C 66.25 26.390625 67.242188 26.066406 68.261719 26.066406 Z M 68.261719 26.066406 "/>
</g>
</svg>
