<?xml version="1.0" encoding="UTF-8"?>
<svg xmlns="http://www.w3.org/2000/svg" xmlns:xlink="http://www.w3.org/1999/xlink" width="82.677102pt" height="80.296531pt" viewBox="0 0 82.677102 80.296531" version="1.1">
<g id="surface1">
<path style="fill:none;stroke-width:0.1;stroke-linecap:round;stroke-linejoin:round;stroke:rgb(0%,0%,0%);stroke-opacity:1;stroke-miterlimit:4;" d="M 0.049863 -0.0000630615 L 10.890735 -0.0000630615 " transform="matrix(6.218149,0,0,6.218149,4.561038,60.812892)"/>
<path style="fill:none;stroke-width:0.1;stroke-linecap:round;stroke-linejoin:round;stroke:rgb(0%,0%,0%);stroke-opacity:1;stroke-miterlimit:4;" d="M 0.049863 -0.00015971 L 10.890735 -0.00015971 " transform="matrix(6.218149,0,0,6.218149,4.561038,54.594743)"/>
<path style="fill:none;stroke-width:0.1;stroke-linecap:round;stroke-linejoin:round;stroke:rgb(0%,0%,0%);stroke-opacity:1;stroke-miterlimit:4;" d="M 0.049863 -0.000256359 L 10.890735 -0.000256359 " transform="matrix(6.218149,0,0,6.218149,4.561038,48.376594)"/>
<path style="fill:none;stroke-width:0.1;stroke-linecap:round;stroke-linejoin:round;stroke:rgb(0%,0%,0%);stroke-opacity:1;stroke-miterlimit:4;" d="M 0.049863 0.000275194 L 10.890735 0.000275194 " transform="matrix(6.218149,0,0,6.218149,4.561038,42.158445)"/>
<path style="fill:none;stroke-width:0.1;stroke-linecap:round;stroke-linejoin:round;stroke:rgb(0%,0%,0%);stroke-opacity:1;stroke-miterlimit:4;" d="M 0.049863 0.000178545 L 10.890735 0.000178545 " transform="matrix(6.218149,0,0,6.218149,4.561038,35.940296)"/>
<path style=" stroke:none;fill-rule:nonzero;fill:rgb(0%,0%,0%);fill-opacity:1;" d="M 53.3125 10.445312 L 63.441406 10.445312 C 63.785156 10.445312 64.0625 10.722656 64.0625 11.066406 C 64.0625 11.410156 63.785156 11.691406 63.441406 11.691406 L 53.3125 11.691406 C 52.96875 11.691406 52.6875 11.410156 52.6875 11.066406 C 52.6875 10.722656 52.96875 10.445312 53.3125 10.445312 Z M 53.3125 10.445312 "/>
<path style=" stroke:none;fill-rule:nonzero;fill:rgb(0%,0%,0%);fill-opacity:1;" d="M 52.519531 16.664062 L 63.441406 16.664062 C 63.785156 16.664062 64.0625 16.941406 64.0625 17.285156 C 64.0625 17.628906 63.785156 17.90625 63.441406 17.90625 L 52.519531 17.90625 C 52.175781 17.90625 51.898438 17.628906 51.898438 17.285156 C 51.898438 16.941406 52.175781 16.664062 52.519531 16.664062 Z M 52.519531 16.664062 "/>
<path style=" stroke:none;fill-rule:nonzero;fill:rgb(0%,0%,0%);fill-opacity:1;" d="M 52.519531 22.882812 L 63.441406 22.882812 C 63.785156 22.882812 64.0625 23.160156 64.0625 23.503906 C 64.0625 23.847656 63.785156 24.125 63.441406 24.125 L 52.519531 24.125 C 52.175781 24.125 51.898438 23.847656 51.898438 23.503906 C 51.898438 23.160156 52.175781 22.882812 52.519531 22.882812 Z M 52.519531 22.882812 "/>
<path style=" stroke:none;fill-rule:nonzero;fill:rgb(0%,0%,0%);fill-opacity:1;" d="M 52.519531 29.101562 L 63.441406 29.101562 C 63.785156 29.101562 64.0625 29.378906 64.0625 29.722656 C 64.0625 30.066406 63.785156 30.34375 63.441406 30.34375 L 52.519531 30.34375 C 52.175781 30.34375 51.898438 30.066406 51.898438 29.722656 C 51.898438 29.378906 52.175781 29.101562 52.519531 29.101562 Z M 52.519531 29.101562 "/>
<path style=" stroke:none;fill-rule:nonzero;fill:rgb(0%,0%,0%);fill-opacity:1;" d="M 54.171875 9.117188 L 54.484375 9.117188 C 54.621094 9.117188 54.734375 9.226562 54.734375 9.363281 L 54.734375 48.128906 C 54.734375 48.265625 54.621094 48.375 54.484375 48.375 L 54.171875 48.375 C 54.035156 48.375 53.925781 48.265625 53.925781 48.128906 L 53.925781 9.363281 C 53.925781 9.226562 54.035156 9.117188 54.171875 9.117188 Z M 54.171875 9.117188 "/>
<path style=" stroke:none;fill-rule:nonzero;fill:rgb(0%,0%,0%);fill-opacity:1;" d="M 49.015625 7.957031 C 49.585938 8.53125 50.40625 8.65625 51.226562 8.65625 C 51.378906 8.65625 51.476562 8.753906 51.476562 8.902344 L 51.699219 11.066406 C 51.726562 11.21875 51.601562 11.339844 51.453125 11.316406 L 49.289062 11.09375 C 49.164062 11.066406 49.039062 10.96875 49.039062 10.84375 C 49.039062 10.023438 48.914062 9.203125 48.34375 8.628906 C 47.769531 9.203125 47.671875 10.023438 47.671875 10.84375 C 47.671875 10.96875 47.546875 11.066406 47.421875 11.09375 L 45.234375 11.316406 C 45.085938 11.339844 44.960938 11.21875 44.984375 11.066406 L 45.210938 8.902344 C 45.210938 8.753906 45.308594 8.65625 45.457031 8.65625 C 46.277344 8.65625 47.097656 8.53125 47.671875 7.957031 C 47.097656 7.386719 46.277344 7.261719 45.457031 7.261719 C 45.308594 7.261719 45.210938 7.164062 45.210938 7.011719 L 44.984375 4.847656 C 44.960938 4.699219 45.085938 4.574219 45.234375 4.601562 L 47.421875 4.824219 C 47.546875 4.847656 47.648438 4.949219 47.648438 5.074219 C 47.648438 5.894531 47.769531 6.714844 48.34375 7.285156 C 48.914062 6.714844 49.039062 5.894531 49.039062 5.074219 C 49.039062 4.949219 49.164062 4.847656 49.289062 4.824219 L 51.453125 4.601562 C 51.601562 4.574219 51.726562 4.699219 51.699219 4.847656 L 51.476562 7.011719 C 51.476562 7.164062 51.378906 7.261719 51.226562 7.261719 C 50.40625 7.261719 49.585938 7.386719 49.015625 7.957031 Z M 49.015625 7.957031 "/>
<path style=" stroke:none;fill-rule:nonzero;fill:rgb(0%,0%,0%);fill-opacity:1;" d="M 41.003906 14.175781 C 41.578125 14.75 42.398438 14.875 43.21875 14.875 C 43.367188 14.875 43.46875 14.972656 43.46875 15.121094 L 43.691406 17.285156 C 43.714844 17.433594 43.59375 17.558594 43.441406 17.535156 L 41.277344 17.3125 C 41.15625 17.285156 41.03125 17.1875 41.03125 17.0625 C 41.03125 16.242188 40.90625 15.421875 40.335938 14.847656 C 39.761719 15.421875 39.664062 16.242188 39.664062 17.0625 C 39.664062 17.1875 39.539062 17.285156 39.414062 17.3125 L 37.226562 17.535156 C 37.074219 17.558594 36.953125 17.433594 36.976562 17.285156 L 37.199219 15.121094 C 37.199219 14.972656 37.300781 14.875 37.449219 14.875 C 38.269531 14.875 39.089844 14.75 39.664062 14.175781 C 39.089844 13.605469 38.269531 13.480469 37.449219 13.480469 C 37.300781 13.480469 37.199219 13.378906 37.199219 13.230469 L 36.976562 11.066406 C 36.953125 10.917969 37.074219 10.792969 37.226562 10.820312 L 39.414062 11.042969 C 39.539062 11.066406 39.636719 11.167969 39.636719 11.292969 C 39.636719 12.113281 39.761719 12.933594 40.335938 13.503906 C 40.90625 12.933594 41.03125 12.113281 41.03125 11.292969 C 41.03125 11.167969 41.15625 11.066406 41.277344 11.042969 L 43.441406 10.820312 C 43.59375 10.792969 43.714844 10.917969 43.691406 11.066406 L 43.46875 13.230469 C 43.46875 13.378906 43.367188 13.480469 43.21875 13.480469 C 42.398438 13.480469 41.578125 13.605469 41.003906 14.175781 Z M 41.003906 14.175781 "/>
<path style=" stroke:none;fill-rule:nonzero;fill:rgb(0%,0%,0%);fill-opacity:1;" d="M 32.996094 20.394531 C 33.570312 20.96875 34.390625 21.089844 35.210938 21.089844 C 35.359375 21.089844 35.460938 21.191406 35.460938 21.339844 L 35.683594 23.503906 C 35.707031 23.652344 35.582031 23.777344 35.433594 23.753906 L 33.269531 23.527344 C 33.144531 23.503906 33.023438 23.40625 33.023438 23.28125 C 33.023438 22.460938 32.898438 21.636719 32.324219 21.066406 C 31.753906 21.636719 31.652344 22.460938 31.652344 23.28125 C 31.652344 23.40625 31.527344 23.503906 31.40625 23.527344 L 29.214844 23.753906 C 29.066406 23.777344 28.941406 23.652344 28.96875 23.503906 L 29.191406 21.339844 C 29.191406 21.191406 29.289062 21.089844 29.441406 21.089844 C 30.261719 21.089844 31.082031 20.96875 31.652344 20.394531 C 31.082031 19.824219 30.261719 19.699219 29.441406 19.699219 C 29.289062 19.699219 29.191406 19.597656 29.191406 19.449219 L 28.96875 17.285156 C 28.941406 17.136719 29.066406 17.011719 29.214844 17.039062 L 31.40625 17.261719 C 31.527344 17.285156 31.628906 17.386719 31.628906 17.507812 C 31.628906 18.332031 31.753906 19.152344 32.324219 19.722656 C 32.898438 19.152344 33.023438 18.332031 33.023438 17.507812 C 33.023438 17.386719 33.144531 17.285156 33.269531 17.261719 L 35.433594 17.039062 C 35.582031 17.011719 35.707031 17.136719 35.683594 17.285156 L 35.460938 19.449219 C 35.460938 19.597656 35.359375 19.699219 35.210938 19.699219 C 34.390625 19.699219 33.570312 19.824219 32.996094 20.394531 Z M 32.996094 20.394531 "/>
<path style=" stroke:none;fill-rule:nonzero;fill:rgb(0%,0%,0%);fill-opacity:1;" d="M 50.28125 34.375 C 50.28125 34.621094 50.082031 34.847656 49.832031 34.847656 C 49.585938 34.847656 49.359375 34.621094 49.359375 34.375 L 49.359375 30.765625 L 47.296875 31.539062 L 47.296875 35.46875 C 47.296875 35.714844 47.074219 35.941406 46.824219 35.941406 C 46.574219 35.941406 46.375 35.714844 46.375 35.46875 L 46.375 31.859375 L 45.582031 32.160156 C 45.53125 32.183594 45.457031 32.183594 45.40625 32.183594 C 45.132812 32.183594 44.910156 31.960938 44.910156 31.6875 L 44.910156 30.195312 C 44.910156 29.996094 45.03125 29.796875 45.230469 29.722656 L 46.375 29.324219 L 46.375 25.34375 L 45.582031 25.617188 C 45.53125 25.644531 45.457031 25.644531 45.40625 25.644531 C 45.132812 25.644531 44.910156 25.417969 44.910156 25.144531 L 44.910156 23.652344 C 44.910156 23.453125 45.03125 23.28125 45.230469 23.207031 L 46.375 22.78125 L 46.375 18.851562 C 46.375 18.605469 46.574219 18.378906 46.824219 18.378906 C 47.074219 18.378906 47.296875 18.605469 47.296875 18.851562 L 47.296875 22.460938 L 49.359375 21.6875 L 49.359375 17.757812 C 49.359375 17.507812 49.585938 17.285156 49.832031 17.285156 C 50.082031 17.285156 50.28125 17.507812 50.28125 17.757812 L 50.28125 21.363281 L 51.078125 21.066406 C 51.125 21.042969 51.203125 21.042969 51.25 21.042969 C 51.523438 21.042969 51.75 21.265625 51.75 21.539062 L 51.75 23.03125 C 51.75 23.230469 51.625 23.429688 51.425781 23.503906 L 50.28125 23.902344 L 50.28125 27.882812 L 51.078125 27.609375 C 51.125 27.582031 51.203125 27.582031 51.25 27.582031 C 51.523438 27.582031 51.75 27.808594 51.75 28.082031 L 51.75 29.574219 C 51.75 29.773438 51.625 29.945312 51.425781 30.019531 L 50.28125 30.445312 Z M 47.296875 24.996094 L 47.296875 28.976562 L 49.359375 28.230469 L 49.359375 24.25 Z M 47.296875 24.996094 "/>
<path style=" stroke:none;fill-rule:nonzero;fill:rgb(0%,0%,0%);fill-opacity:1;" d="M 16.152344 70.390625 L 16.003906 70.390625 C 13.316406 70.390625 11.152344 68.199219 11.152344 65.488281 C 11.152344 64.046875 12.46875 62.925781 13.9375 62.925781 C 15.28125 62.925781 16.300781 64.097656 16.300781 65.488281 C 16.300781 66.78125 15.230469 67.851562 13.9375 67.851562 C 13.664062 67.851562 13.414062 67.800781 13.167969 67.703125 C 13.8125 68.671875 14.859375 69.320312 16.078125 69.320312 L 16.175781 69.320312 Z M 21 59.644531 C 22.691406 59.046875 23.8125 57.28125 23.8125 55.566406 C 23.8125 53.328125 22.171875 51.113281 19.507812 50.839844 C 20.105469 53.722656 20.652344 56.585938 21 59.644531 Z M 11.375 53.898438 C 11.375 57.257812 14.585938 60.042969 17.941406 60.042969 C 18.640625 60.042969 19.308594 59.992188 19.980469 59.894531 C 19.632812 56.734375 19.0625 53.796875 18.414062 50.839844 C 16.449219 51.039062 15.332031 52.355469 15.332031 53.796875 C 15.332031 54.894531 15.953125 56.0625 17.34375 56.859375 C 17.46875 56.984375 17.519531 57.105469 17.519531 57.230469 C 17.519531 57.503906 17.269531 57.777344 16.972656 57.777344 C 16.898438 57.777344 16.824219 57.753906 16.75 57.730469 C 14.757812 56.660156 13.839844 54.867188 13.839844 53.128906 C 13.839844 50.9375 15.28125 48.800781 17.816406 48.226562 C 17.46875 46.785156 17.097656 45.316406 16.675781 43.875 C 14.011719 46.882812 11.375 49.917969 11.375 53.898438 Z M 17.867188 61.113281 C 13.191406 61.113281 9.585938 56.832031 9.585938 51.808594 C 9.585938 47.40625 12.84375 44.199219 15.753906 40.839844 C 15.28125 39.296875 14.832031 37.730469 14.632812 36.113281 C 14.484375 34.820312 14.460938 33.527344 14.460938 32.234375 C 14.460938 29.375 15.828125 26.664062 18.167969 24.972656 C 18.316406 24.847656 18.515625 24.847656 18.664062 24.972656 C 20.429688 27.0625 21.972656 31.066406 21.972656 33.875 C 21.972656 37.433594 19.832031 40.21875 17.496094 42.929688 C 18.015625 44.621094 18.464844 46.363281 18.886719 48.078125 C 18.988281 48.078125 19.113281 48.054688 19.210938 48.054688 C 23.066406 48.054688 25.578125 51.238281 25.578125 54.546875 C 25.578125 56.433594 24.757812 58.375 22.917969 59.769531 C 22.371094 60.191406 21.746094 60.464844 21.101562 60.664062 C 21.175781 61.535156 21.226562 62.40625 21.226562 63.273438 C 21.226562 63.746094 21.199219 64.246094 21.175781 64.71875 C 21 67.675781 18.988281 70.3125 16.152344 70.390625 L 16.175781 69.320312 C 18.488281 69.269531 19.980469 67.03125 20.132812 64.570312 C 20.15625 64.121094 20.179688 63.648438 20.179688 63.199219 C 20.179688 62.429688 20.15625 61.683594 20.082031 60.914062 C 19.359375 61.035156 18.640625 61.113281 17.867188 61.113281 Z M 20.179688 31.8125 C 20.179688 30.445312 20.082031 29.847656 19.683594 28.601562 C 17.222656 29.796875 15.652344 32.308594 15.652344 35.042969 C 15.652344 36.886719 16.101562 38.351562 16.550781 39.871094 C 18.539062 37.457031 20.179688 34.945312 20.179688 31.8125 Z M 20.179688 31.8125 "/>
<path style=" stroke:none;fill-rule:nonzero;fill:rgb(0%,0%,0%);fill-opacity:1;" d="M 59.347656 4.574219 C 60.714844 4.574219 62.035156 5.273438 62.035156 6.789062 C 62.035156 8.554688 60.664062 9.800781 59.496094 10.496094 C 58.625 11.019531 57.632812 11.339844 56.609375 11.339844 C 55.242188 11.339844 53.925781 10.644531 53.925781 9.128906 C 53.925781 7.363281 55.292969 6.117188 56.460938 5.421875 C 57.332031 4.898438 58.328125 4.574219 59.347656 4.574219 Z M 59.347656 4.574219 "/>
<path style=" stroke:none;fill-rule:nonzero;fill:rgb(0%,0%,0%);fill-opacity:1;" d="M 59.347656 10.792969 C 60.714844 10.792969 62.035156 11.492188 62.035156 13.007812 C 62.035156 14.773438 60.664062 16.015625 59.496094 16.714844 C 58.625 17.234375 57.632812 17.558594 56.609375 17.558594 C 55.242188 17.558594 53.925781 16.863281 53.925781 15.347656 C 53.925781 13.578125 55.292969 12.335938 56.460938 11.640625 C 57.332031 11.117188 58.328125 10.792969 59.347656 10.792969 Z M 59.347656 10.792969 "/>
<path style=" stroke:none;fill-rule:nonzero;fill:rgb(0%,0%,0%);fill-opacity:1;" d="M 59.347656 17.011719 C 60.714844 17.011719 62.035156 17.707031 62.035156 19.226562 C 62.035156 20.992188 60.664062 22.234375 59.496094 22.933594 C 58.625 23.453125 57.632812 23.777344 56.609375 23.777344 C 55.242188 23.777344 53.925781 23.082031 53.925781 21.5625 C 53.925781 19.796875 55.292969 18.554688 56.460938 17.859375 C 57.332031 17.335938 58.328125 17.011719 59.347656 17.011719 Z M 59.347656 17.011719 "/>
<path style=" stroke:none;fill-rule:nonzero;fill:rgb(0%,0%,0%);fill-opacity:1;" d="M 59.347656 23.230469 C 60.714844 23.230469 62.035156 23.925781 62.035156 25.445312 C 62.035156 27.210938 60.664062 28.453125 59.496094 29.148438 C 58.625 29.671875 57.632812 29.996094 56.609375 29.996094 C 55.242188 29.996094 53.925781 29.300781 53.925781 27.78125 C 53.925781 26.015625 55.292969 24.773438 56.460938 24.074219 C 57.332031 23.554688 58.328125 23.230469 59.347656 23.230469 Z M 59.347656 23.230469 "/>
</g>
</svg>
