<?xml version="1.0" encoding="UTF-8"?>
<svg xmlns="http://www.w3.org/2000/svg" xmlns:xlink="http://www.w3.org/1999/xlink" width="72.982108pt" height="60.078972pt" viewBox="0 0 72.982108 60.078972" version="1.1">
<g id="surface1">
<path style="fill:none;stroke-width:0.1;stroke-linecap:round;stroke-linejoin:round;stroke:rgb(0%,0%,0%);stroke-opacity:1;stroke-miterlimit:4;" d="M 0.049863 0.00023304 L 9.431423 0.00023304 " transform="matrix(6.218149,0,0,6.218149,4.561038,41.88527)"/>
<path style="fill:none;stroke-width:0.1;stroke-linecap:round;stroke-linejoin:round;stroke:rgb(0%,0%,0%);stroke-opacity:1;stroke-miterlimit:4;" d="M 0.049863 0.000136391 L 9.431423 0.000136391 " transform="matrix(6.218149,0,0,6.218149,4.561038,35.667121)"/>
<path style="fill:none;stroke-width:0.1;stroke-linecap:round;stroke-linejoin:round;stroke:rgb(0%,0%,0%);stroke-opacity:1;stroke-miterlimit:4;" d="M 0.049863 0.0000397429 L 9.431423 0.0000397429 " transform="matrix(6.218149,0,0,6.218149,4.561038,29.448972)"/>
<path style="fill:none;stroke-width:0.1;stroke-linecap:round;stroke-linejoin:round;stroke:rgb(0%,0%,0%);stroke-opacity:1;stroke-miterlimit:4;" d="M 0.049863 -0.0000569057 L 9.431423 -0.0000569057 " transform="matrix(6.218149,0,0,6.218149,4.561038,23.230823)"/>
<path style="fill:none;stroke-width:0.1;stroke-linecap:round;stroke-linejoin:round;stroke:rgb(0%,0%,0%);stroke-opacity:1;stroke-miterlimit:4;" d="M 0.049863 -0.000153554 L 9.431423 -0.000153554 " transform="matrix(6.218149,0,0,6.218149,4.561038,17.012674)"/>
<path style=" stroke:none;fill-rule:nonzero;fill:rgb(0%,0%,0%);fill-opacity:1;" d="M 41.203125 30.992188 C 41.203125 31.238281 41.003906 31.464844 40.757812 31.464844 C 40.507812 31.464844 40.285156 31.238281 40.285156 30.992188 L 40.285156 27.382812 L 38.21875 28.15625 L 38.21875 32.085938 C 38.21875 32.335938 37.996094 32.558594 37.746094 32.558594 C 37.5 32.558594 37.300781 32.335938 37.300781 32.085938 L 37.300781 28.480469 L 36.503906 28.777344 C 36.453125 28.800781 36.378906 28.800781 36.328125 28.800781 C 36.054688 28.800781 35.832031 28.578125 35.832031 28.304688 L 35.832031 26.8125 C 35.832031 26.613281 35.957031 26.414062 36.15625 26.339844 L 37.300781 25.941406 L 37.300781 21.960938 L 36.503906 22.234375 C 36.453125 22.261719 36.378906 22.261719 36.328125 22.261719 C 36.054688 22.261719 35.832031 22.035156 35.832031 21.761719 L 35.832031 20.269531 C 35.832031 20.070312 35.957031 19.898438 36.15625 19.824219 L 37.300781 19.402344 L 37.300781 15.46875 C 37.300781 15.222656 37.5 14.996094 37.746094 14.996094 C 37.996094 14.996094 38.21875 15.222656 38.21875 15.46875 L 38.21875 19.078125 L 40.285156 18.304688 L 40.285156 14.375 C 40.285156 14.128906 40.507812 13.902344 40.757812 13.902344 C 41.003906 13.902344 41.203125 14.128906 41.203125 14.375 L 41.203125 17.984375 L 42 17.683594 C 42.050781 17.660156 42.125 17.660156 42.175781 17.660156 C 42.449219 17.660156 42.671875 17.882812 42.671875 18.15625 L 42.671875 19.648438 C 42.671875 19.847656 42.546875 20.046875 42.347656 20.121094 L 41.203125 20.519531 L 41.203125 24.5 L 42 24.226562 C 42.050781 24.199219 42.125 24.199219 42.175781 24.199219 C 42.449219 24.199219 42.671875 24.425781 42.671875 24.699219 L 42.671875 26.191406 C 42.671875 26.390625 42.546875 26.5625 42.347656 26.636719 L 41.203125 27.0625 Z M 38.21875 21.613281 L 38.21875 25.59375 L 40.285156 24.847656 L 40.285156 20.867188 Z M 38.21875 21.613281 "/>
<path style=" stroke:none;fill-rule:nonzero;fill:rgb(0%,0%,0%);fill-opacity:1;" d="M 34.589844 43.425781 C 34.589844 43.675781 34.390625 43.898438 34.140625 43.898438 C 33.890625 43.898438 33.667969 43.675781 33.667969 43.425781 L 33.667969 39.820312 L 31.605469 40.59375 L 31.605469 44.523438 C 31.605469 44.769531 31.378906 44.996094 31.132812 44.996094 C 30.882812 44.996094 30.683594 44.769531 30.683594 44.523438 L 30.683594 40.914062 L 29.886719 41.214844 C 29.835938 41.238281 29.761719 41.238281 29.714844 41.238281 C 29.441406 41.238281 29.214844 41.015625 29.214844 40.742188 L 29.214844 39.25 C 29.214844 39.050781 29.339844 38.851562 29.539062 38.777344 L 30.683594 38.378906 L 30.683594 34.398438 L 29.886719 34.671875 C 29.835938 34.695312 29.761719 34.695312 29.714844 34.695312 C 29.441406 34.695312 29.214844 34.472656 29.214844 34.199219 L 29.214844 32.707031 C 29.214844 32.507812 29.339844 32.335938 29.539062 32.257812 L 30.683594 31.835938 L 30.683594 27.90625 C 30.683594 27.65625 30.882812 27.433594 31.132812 27.433594 C 31.378906 27.433594 31.605469 27.65625 31.605469 27.90625 L 31.605469 31.511719 L 33.667969 30.742188 L 33.667969 26.8125 C 33.667969 26.5625 33.890625 26.339844 34.140625 26.339844 C 34.390625 26.339844 34.589844 26.5625 34.589844 26.8125 L 34.589844 30.417969 L 35.382812 30.121094 C 35.433594 30.09375 35.507812 30.09375 35.558594 30.09375 C 35.832031 30.09375 36.054688 30.320312 36.054688 30.59375 L 36.054688 32.085938 C 36.054688 32.285156 35.929688 32.484375 35.734375 32.558594 L 34.589844 32.957031 L 34.589844 36.9375 L 35.382812 36.660156 C 35.433594 36.636719 35.507812 36.636719 35.558594 36.636719 C 35.832031 36.636719 36.054688 36.859375 36.054688 37.132812 L 36.054688 38.628906 C 36.054688 38.824219 35.929688 39 35.734375 39.074219 L 34.589844 39.496094 Z M 31.605469 34.050781 L 31.605469 38.03125 L 33.667969 37.285156 L 33.667969 33.304688 Z M 31.605469 34.050781 "/>
<path style=" stroke:none;fill-rule:nonzero;fill:rgb(0%,0%,0%);fill-opacity:1;" d="M 52.398438 4.578125 L 52.710938 4.578125 C 52.847656 4.578125 52.957031 4.6875 52.957031 4.824219 L 52.957031 40.480469 C 52.957031 40.617188 52.847656 40.726562 52.710938 40.726562 L 52.398438 40.726562 C 52.261719 40.726562 52.148438 40.617188 52.148438 40.480469 L 52.148438 4.824219 C 52.148438 4.6875 52.261719 4.578125 52.398438 4.578125 Z M 52.398438 4.578125 "/>
<path style=" stroke:none;fill-rule:nonzero;fill:rgb(0%,0%,0%);fill-opacity:1;" d="M 16.152344 51.460938 L 16.003906 51.460938 C 13.316406 51.460938 11.152344 49.273438 11.152344 46.5625 C 11.152344 45.117188 12.46875 44 13.9375 44 C 15.28125 44 16.300781 45.167969 16.300781 46.5625 C 16.300781 47.855469 15.230469 48.925781 13.9375 48.925781 C 13.664062 48.925781 13.414062 48.875 13.167969 48.773438 C 13.8125 49.746094 14.859375 50.390625 16.078125 50.390625 L 16.175781 50.390625 Z M 21 40.714844 C 22.691406 40.121094 23.8125 38.351562 23.8125 36.636719 C 23.8125 34.398438 22.171875 32.183594 19.507812 31.910156 C 20.105469 34.796875 20.652344 37.65625 21 40.714844 Z M 11.375 34.96875 C 11.375 38.328125 14.585938 41.113281 17.941406 41.113281 C 18.640625 41.113281 19.308594 41.066406 19.980469 40.964844 C 19.632812 37.804688 19.0625 34.871094 18.414062 31.910156 C 16.449219 32.109375 15.332031 33.429688 15.332031 34.871094 C 15.332031 35.964844 15.953125 37.132812 17.34375 37.929688 C 17.46875 38.054688 17.519531 38.179688 17.519531 38.304688 C 17.519531 38.578125 17.269531 38.851562 16.972656 38.851562 C 16.898438 38.851562 16.824219 38.824219 16.75 38.800781 C 14.757812 37.730469 13.839844 35.941406 13.839844 34.199219 C 13.839844 32.011719 15.28125 29.871094 17.816406 29.300781 C 17.46875 27.855469 17.097656 26.390625 16.675781 24.945312 C 14.011719 27.957031 11.375 30.992188 11.375 34.96875 Z M 17.867188 42.183594 C 13.191406 42.183594 9.585938 37.90625 9.585938 32.882812 C 9.585938 28.480469 12.84375 25.269531 15.753906 21.914062 C 15.28125 20.371094 14.832031 18.804688 14.632812 17.1875 C 14.484375 15.894531 14.460938 14.601562 14.460938 13.308594 C 14.460938 10.445312 15.828125 7.734375 18.167969 6.042969 C 18.316406 5.917969 18.515625 5.917969 18.664062 6.042969 C 20.429688 8.132812 21.972656 12.136719 21.972656 14.949219 C 21.972656 18.503906 19.832031 21.289062 17.496094 24 C 18.015625 25.691406 18.464844 27.433594 18.886719 29.152344 C 18.988281 29.152344 19.113281 29.125 19.210938 29.125 C 23.066406 29.125 25.578125 32.308594 25.578125 35.617188 C 25.578125 37.507812 24.757812 39.449219 22.917969 40.839844 C 22.371094 41.261719 21.746094 41.535156 21.101562 41.734375 C 21.175781 42.605469 21.226562 43.476562 21.226562 44.347656 C 21.226562 44.820312 21.199219 45.316406 21.175781 45.789062 C 21 48.75 18.988281 51.386719 16.152344 51.460938 L 16.175781 50.390625 C 18.488281 50.34375 19.980469 48.101562 20.132812 45.640625 C 20.15625 45.191406 20.179688 44.722656 20.179688 44.273438 C 20.179688 43.503906 20.15625 42.753906 20.082031 41.984375 C 19.359375 42.109375 18.640625 42.183594 17.867188 42.183594 Z M 20.179688 12.882812 C 20.179688 11.515625 20.082031 10.917969 19.683594 9.675781 C 17.222656 10.871094 15.652344 13.382812 15.652344 16.117188 C 15.652344 17.957031 16.101562 19.425781 16.550781 20.941406 C 18.539062 18.53125 20.179688 16.019531 20.179688 12.882812 Z M 20.179688 12.882812 "/>
<path style=" stroke:none;fill-rule:nonzero;fill:rgb(0%,0%,0%);fill-opacity:1;" d="M 50.269531 19.847656 C 51.636719 19.847656 52.957031 20.542969 52.957031 22.0625 C 52.957031 23.828125 51.589844 25.070312 50.417969 25.769531 C 49.550781 26.289062 48.554688 26.613281 47.535156 26.613281 C 46.167969 26.613281 44.847656 25.917969 44.847656 24.398438 C 44.847656 22.632812 46.214844 21.390625 47.386719 20.695312 C 48.257812 20.171875 49.25 19.847656 50.269531 19.847656 Z M 50.269531 19.847656 "/>
<path style=" stroke:none;fill-rule:nonzero;fill:rgb(0%,0%,0%);fill-opacity:1;" d="M 50.269531 26.066406 C 51.636719 26.066406 52.957031 26.761719 52.957031 28.28125 C 52.957031 30.046875 51.589844 31.289062 50.417969 31.984375 C 49.550781 32.507812 48.554688 32.832031 47.535156 32.832031 C 46.167969 32.832031 44.847656 32.136719 44.847656 30.617188 C 44.847656 28.851562 46.214844 27.609375 47.386719 26.910156 C 48.257812 26.390625 49.25 26.066406 50.269531 26.066406 Z M 50.269531 26.066406 "/>
<path style=" stroke:none;fill-rule:nonzero;fill:rgb(0%,0%,0%);fill-opacity:1;" d="M 50.269531 32.285156 C 51.636719 32.285156 52.957031 32.980469 52.957031 34.5 C 52.957031 36.265625 51.589844 37.507812 50.417969 38.203125 C 49.550781 38.726562 48.554688 39.050781 47.535156 39.050781 C 46.167969 39.050781 44.847656 38.351562 44.847656 36.835938 C 44.847656 35.070312 46.214844 33.828125 47.386719 33.128906 C 48.257812 32.609375 49.25 32.285156 50.269531 32.285156 Z M 50.269531 32.285156 "/>
<path style=" stroke:none;fill-rule:nonzero;fill:rgb(0%,0%,0%);fill-opacity:1;" d="M 50.269531 38.503906 C 51.636719 38.503906 52.957031 39.199219 52.957031 40.714844 C 52.957031 42.480469 51.589844 43.726562 50.417969 44.421875 C 49.550781 44.945312 48.554688 45.269531 47.535156 45.269531 C 46.167969 45.269531 44.847656 44.570312 44.847656 43.054688 C 44.847656 41.289062 46.214844 40.042969 47.386719 39.347656 C 48.257812 38.824219 49.25 38.503906 50.269531 38.503906 Z M 50.269531 38.503906 "/>
</g>
</svg>
