<?xml version="1.0" encoding="UTF-8"?>
<svg xmlns="http://www.w3.org/2000/svg" xmlns:xlink="http://www.w3.org/1999/xlink" width="68.472344pt" height="46.875127pt" viewBox="0 0 68.472344 46.875127" version="1.1">
<g id="surface1">
<path style="fill:none;stroke-width:0.1;stroke-linecap:round;stroke-linejoin:round;stroke:rgb(0%,0%,0%);stroke-opacity:1;stroke-miterlimit:4;" d="M 0.049863 -0.0001075 L 8.752337 -0.0001075 " transform="matrix(6.218149,0,0,6.218149,4.561038,29.434262)"/>
<path style="fill:none;stroke-width:0.1;stroke-linecap:round;stroke-linejoin:round;stroke:rgb(0%,0%,0%);stroke-opacity:1;stroke-miterlimit:4;" d="M 0.049863 -0.000204149 L 8.752337 -0.000204149 " transform="matrix(6.218149,0,0,6.218149,4.561038,23.216113)"/>
<path style="fill:none;stroke-width:0.1;stroke-linecap:round;stroke-linejoin:round;stroke:rgb(0%,0%,0%);stroke-opacity:1;stroke-miterlimit:4;" d="M 0.049863 -0.000300797 L 8.752337 -0.000300797 " transform="matrix(6.218149,0,0,6.218149,4.561038,16.997964)"/>
<path style="fill:none;stroke-width:0.1;stroke-linecap:round;stroke-linejoin:round;stroke:rgb(0%,0%,0%);stroke-opacity:1;stroke-miterlimit:4;" d="M 0.049863 0.000230756 L 8.752337 0.000230756 " transform="matrix(6.218149,0,0,6.218149,4.561038,10.779815)"/>
<path style="fill:none;stroke-width:0.1;stroke-linecap:round;stroke-linejoin:round;stroke:rgb(0%,0%,0%);stroke-opacity:1;stroke-miterlimit:4;" d="M 0.049863 0.000133988 L 8.752337 0.000133988 " transform="matrix(6.218149,0,0,6.218149,4.561038,4.561667)"/>
<path style=" stroke:none;fill-rule:nonzero;fill:rgb(0%,0%,0%);fill-opacity:1;" d="M 48.175781 7.671875 L 48.488281 7.671875 C 48.625 7.671875 48.734375 7.78125 48.734375 7.917969 L 48.734375 28.027344 C 48.734375 28.164062 48.625 28.277344 48.488281 28.277344 L 48.175781 28.277344 C 48.039062 28.277344 47.925781 28.164062 47.925781 28.027344 L 47.925781 7.917969 C 47.925781 7.78125 48.039062 7.671875 48.175781 7.671875 Z M 48.175781 7.671875 "/>
<path style=" stroke:none;fill-rule:nonzero;fill:rgb(0%,0%,0%);fill-opacity:1;" d="M 36.984375 37.195312 C 36.984375 37.441406 36.785156 37.667969 36.535156 37.667969 C 36.285156 37.667969 36.0625 37.441406 36.0625 37.195312 L 36.0625 33.589844 L 33.996094 34.359375 L 33.996094 38.289062 C 33.996094 38.539062 33.773438 38.761719 33.523438 38.761719 C 33.277344 38.761719 33.078125 38.539062 33.078125 38.289062 L 33.078125 34.683594 L 32.28125 34.980469 C 32.230469 35.003906 32.15625 35.003906 32.109375 35.003906 C 31.832031 35.003906 31.609375 34.78125 31.609375 34.507812 L 31.609375 33.015625 C 31.609375 32.816406 31.734375 32.617188 31.933594 32.542969 L 33.078125 32.144531 L 33.078125 28.164062 L 32.28125 28.4375 C 32.230469 28.464844 32.15625 28.464844 32.109375 28.464844 C 31.832031 28.464844 31.609375 28.242188 31.609375 27.964844 L 31.609375 26.472656 C 31.609375 26.277344 31.734375 26.101562 31.933594 26.027344 L 33.078125 25.605469 L 33.078125 21.675781 C 33.078125 21.425781 33.277344 21.203125 33.523438 21.203125 C 33.773438 21.203125 33.996094 21.425781 33.996094 21.675781 L 33.996094 25.28125 L 36.0625 24.507812 L 36.0625 20.578125 C 36.0625 20.332031 36.285156 20.105469 36.535156 20.105469 C 36.785156 20.105469 36.984375 20.332031 36.984375 20.578125 L 36.984375 24.1875 L 37.777344 23.886719 C 37.828125 23.863281 37.902344 23.863281 37.953125 23.863281 C 38.226562 23.863281 38.449219 24.085938 38.449219 24.359375 L 38.449219 25.851562 C 38.449219 26.050781 38.324219 26.25 38.125 26.324219 L 36.984375 26.722656 L 36.984375 30.703125 L 37.777344 30.429688 C 37.828125 30.402344 37.902344 30.402344 37.953125 30.402344 C 38.226562 30.402344 38.449219 30.628906 38.449219 30.902344 L 38.449219 32.394531 C 38.449219 32.59375 38.324219 32.765625 38.125 32.84375 L 36.984375 33.265625 Z M 33.996094 27.816406 L 33.996094 31.796875 L 36.0625 31.050781 L 36.0625 27.070312 Z M 33.996094 27.816406 "/>
<path style=" stroke:none;fill-rule:nonzero;fill:rgb(0%,0%,0%);fill-opacity:1;" d="M 23.390625 13.890625 C 23.390625 13.191406 23.960938 12.621094 24.65625 12.621094 C 25.355469 12.621094 25.925781 13.191406 25.925781 13.890625 C 25.925781 14.585938 25.355469 15.15625 24.65625 15.15625 C 23.960938 15.15625 23.390625 14.585938 23.390625 13.890625 Z M 23.390625 7.671875 C 23.390625 6.972656 23.960938 6.402344 24.65625 6.402344 C 25.355469 6.402344 25.925781 6.972656 25.925781 7.671875 C 25.925781 8.367188 25.355469 8.9375 24.65625 8.9375 C 23.960938 8.9375 23.390625 8.367188 23.390625 7.671875 Z M 15.304688 4.238281 C 19.585938 4.238281 22.59375 6.425781 22.59375 10.480469 C 22.59375 17.023438 16.050781 20.777344 9.757812 23.441406 C 9.683594 23.515625 9.609375 23.539062 9.535156 23.539062 C 9.363281 23.539062 9.210938 23.390625 9.210938 23.214844 C 9.210938 23.140625 9.238281 23.066406 9.3125 22.992188 C 14.335938 20.058594 19.558594 16.402344 19.558594 10.730469 C 19.558594 7.746094 17.992188 4.886719 15.304688 4.886719 C 13.464844 4.886719 12.097656 6.226562 11.476562 8.019531 C 11.75 7.894531 12.023438 7.820312 12.320312 7.820312 C 13.6875 7.820312 14.808594 8.9375 14.808594 10.308594 C 14.808594 11.75 13.714844 12.945312 12.320312 12.945312 C 10.828125 12.945312 9.535156 11.773438 9.535156 10.308594 C 9.535156 7 12.074219 4.238281 15.304688 4.238281 Z M 15.304688 4.238281 "/>
<path style=" stroke:none;fill-rule:nonzero;fill:rgb(0%,0%,0%);fill-opacity:1;" d="M 46.046875 26.050781 C 47.417969 26.050781 48.734375 26.746094 48.734375 28.265625 C 48.734375 30.03125 47.367188 31.273438 46.199219 31.972656 C 45.328125 32.492188 44.332031 32.816406 43.3125 32.816406 C 41.945312 32.816406 40.625 32.121094 40.625 30.601562 C 40.625 28.835938 41.996094 27.59375 43.164062 26.898438 C 44.035156 26.375 45.027344 26.050781 46.046875 26.050781 Z M 46.046875 26.050781 "/>
</g>
</svg>
