<?xml version="1.0" encoding="UTF-8"?>
<svg xmlns="http://www.w3.org/2000/svg" xmlns:xlink="http://www.w3.org/1999/xlink" width="81.536713pt" height="63.692097pt" viewBox="0 0 81.536713 63.692097" version="1.1">
<g id="surface1">
<path style="fill:none;stroke-width:0.1;stroke-linecap:round;stroke-linejoin:round;stroke:rgb(0%,0%,0%);stroke-opacity:1;stroke-miterlimit:4;" d="M 0.049863 -0.000197489 L 10.719236 -0.000197489 " transform="matrix(6.218149,0,0,6.218149,4.561038,45.223884)"/>
<path style="fill:none;stroke-width:0.1;stroke-linecap:round;stroke-linejoin:round;stroke:rgb(0%,0%,0%);stroke-opacity:1;stroke-miterlimit:4;" d="M 0.049863 -0.000294138 L 10.719236 -0.000294138 " transform="matrix(6.218149,0,0,6.218149,4.561038,39.005735)"/>
<path style="fill:none;stroke-width:0.1;stroke-linecap:round;stroke-linejoin:round;stroke:rgb(0%,0%,0%);stroke-opacity:1;stroke-miterlimit:4;" d="M 0.049863 0.000237415 L 10.719236 0.000237415 " transform="matrix(6.218149,0,0,6.218149,4.561038,32.787586)"/>
<path style="fill:none;stroke-width:0.1;stroke-linecap:round;stroke-linejoin:round;stroke:rgb(0%,0%,0%);stroke-opacity:1;stroke-miterlimit:4;" d="M 0.049863 0.000140766 L 10.719236 0.000140766 " transform="matrix(6.218149,0,0,6.218149,4.561038,26.569437)"/>
<path style="fill:none;stroke-width:0.1;stroke-linecap:round;stroke-linejoin:round;stroke:rgb(0%,0%,0%);stroke-opacity:1;stroke-miterlimit:4;" d="M 0.049863 0.0000438791 L 10.719236 0.0000438791 " transform="matrix(6.218149,0,0,6.218149,4.561038,20.35129)"/>
<path style=" stroke:none;fill-rule:nonzero;fill:rgb(0%,0%,0%);fill-opacity:1;" d="M 52.242188 7.292969 L 62.371094 7.292969 C 62.714844 7.292969 62.996094 7.570312 62.996094 7.914062 C 62.996094 8.257812 62.714844 8.535156 62.371094 8.535156 L 52.242188 8.535156 C 51.898438 8.535156 51.621094 8.257812 51.621094 7.914062 C 51.621094 7.570312 51.898438 7.292969 52.242188 7.292969 Z M 52.242188 7.292969 "/>
<path style=" stroke:none;fill-rule:nonzero;fill:rgb(0%,0%,0%);fill-opacity:1;" d="M 51.453125 13.511719 L 62.371094 13.511719 C 62.714844 13.511719 62.996094 13.789062 62.996094 14.132812 C 62.996094 14.476562 62.714844 14.753906 62.371094 14.753906 L 51.453125 14.753906 C 51.109375 14.753906 50.832031 14.476562 50.832031 14.132812 C 50.832031 13.789062 51.109375 13.511719 51.453125 13.511719 Z M 51.453125 13.511719 "/>
<path style=" stroke:none;fill-rule:nonzero;fill:rgb(0%,0%,0%);fill-opacity:1;" d="M 53.105469 9.070312 L 53.417969 9.070312 C 53.554688 9.070312 53.664062 9.183594 53.664062 9.320312 L 53.664062 41.867188 C 53.664062 42.003906 53.554688 42.113281 53.417969 42.113281 L 53.105469 42.113281 C 52.96875 42.113281 52.855469 42.003906 52.855469 41.867188 L 52.855469 9.320312 C 52.855469 9.183594 52.96875 9.070312 53.105469 9.070312 Z M 53.105469 9.070312 "/>
<path style=" stroke:none;fill-rule:nonzero;fill:rgb(0%,0%,0%);fill-opacity:1;" d="M 47.945312 7.914062 C 48.519531 8.488281 49.339844 8.613281 50.160156 8.613281 C 50.308594 8.613281 50.410156 8.710938 50.410156 8.859375 L 50.632812 11.023438 C 50.65625 11.171875 50.535156 11.296875 50.382812 11.273438 L 48.21875 11.050781 C 48.097656 11.023438 47.972656 10.925781 47.972656 10.800781 C 47.972656 9.980469 47.847656 9.160156 47.273438 8.585938 C 46.703125 9.160156 46.605469 9.980469 46.605469 10.800781 C 46.605469 10.925781 46.480469 11.023438 46.355469 11.050781 L 44.167969 11.273438 C 44.015625 11.296875 43.894531 11.171875 43.917969 11.023438 L 44.140625 8.859375 C 44.140625 8.710938 44.242188 8.613281 44.390625 8.613281 C 45.210938 8.613281 46.03125 8.488281 46.605469 7.914062 C 46.03125 7.34375 45.210938 7.21875 44.390625 7.21875 C 44.242188 7.21875 44.140625 7.117188 44.140625 6.96875 L 43.917969 4.804688 C 43.894531 4.65625 44.015625 4.53125 44.167969 4.558594 L 46.355469 4.78125 C 46.480469 4.804688 46.578125 4.90625 46.578125 5.03125 C 46.578125 5.851562 46.703125 6.671875 47.273438 7.242188 C 47.847656 6.671875 47.972656 5.851562 47.972656 5.03125 C 47.972656 4.90625 48.097656 4.804688 48.21875 4.78125 L 50.382812 4.558594 C 50.535156 4.53125 50.65625 4.65625 50.632812 4.804688 L 50.410156 6.96875 C 50.410156 7.117188 50.308594 7.21875 50.160156 7.21875 C 49.339844 7.21875 48.519531 7.34375 47.945312 7.914062 Z M 47.945312 7.914062 "/>
<path style=" stroke:none;fill-rule:nonzero;fill:rgb(0%,0%,0%);fill-opacity:1;" d="M 34.589844 21.894531 C 34.589844 22.140625 34.390625 22.367188 34.140625 22.367188 C 33.890625 22.367188 33.667969 22.140625 33.667969 21.894531 L 33.667969 18.285156 L 31.605469 19.058594 L 31.605469 22.988281 C 31.605469 23.238281 31.378906 23.460938 31.132812 23.460938 C 30.882812 23.460938 30.683594 23.238281 30.683594 22.988281 L 30.683594 19.382812 L 29.886719 19.679688 C 29.835938 19.703125 29.761719 19.703125 29.714844 19.703125 C 29.441406 19.703125 29.214844 19.480469 29.214844 19.207031 L 29.214844 17.714844 C 29.214844 17.515625 29.339844 17.316406 29.539062 17.242188 L 30.683594 16.84375 L 30.683594 12.863281 L 29.886719 13.136719 C 29.835938 13.164062 29.761719 13.164062 29.714844 13.164062 C 29.441406 13.164062 29.214844 12.9375 29.214844 12.664062 L 29.214844 11.171875 C 29.214844 10.972656 29.339844 10.800781 29.539062 10.726562 L 30.683594 10.304688 L 30.683594 6.371094 C 30.683594 6.125 30.882812 5.898438 31.132812 5.898438 C 31.378906 5.898438 31.605469 6.125 31.605469 6.371094 L 31.605469 9.980469 L 33.667969 9.207031 L 33.667969 5.277344 C 33.667969 5.03125 33.890625 4.804688 34.140625 4.804688 C 34.390625 4.804688 34.589844 5.03125 34.589844 5.277344 L 34.589844 8.886719 L 35.382812 8.585938 C 35.433594 8.5625 35.507812 8.5625 35.558594 8.5625 C 35.832031 8.5625 36.054688 8.785156 36.054688 9.058594 L 36.054688 10.550781 C 36.054688 10.75 35.929688 10.949219 35.734375 11.023438 L 34.589844 11.421875 L 34.589844 15.402344 L 35.382812 15.128906 C 35.433594 15.101562 35.507812 15.101562 35.558594 15.101562 C 35.832031 15.101562 36.054688 15.328125 36.054688 15.601562 L 36.054688 17.09375 C 36.054688 17.292969 35.929688 17.464844 35.734375 17.539062 L 34.589844 17.964844 Z M 31.605469 12.515625 L 31.605469 16.496094 L 33.667969 15.75 L 33.667969 11.769531 Z M 31.605469 12.515625 "/>
<path style=" stroke:none;fill-rule:nonzero;fill:rgb(0%,0%,0%);fill-opacity:1;" d="M 42.671875 28.113281 C 42.671875 28.359375 42.472656 28.585938 42.222656 28.585938 C 41.976562 28.585938 41.75 28.359375 41.75 28.113281 L 41.75 24.503906 L 39.6875 25.277344 L 39.6875 29.207031 C 39.6875 29.453125 39.464844 29.679688 39.214844 29.679688 C 38.964844 29.679688 38.765625 29.453125 38.765625 29.207031 L 38.765625 25.597656 L 37.972656 25.898438 C 37.921875 25.921875 37.847656 25.921875 37.796875 25.921875 C 37.523438 25.921875 37.300781 25.699219 37.300781 25.425781 L 37.300781 23.933594 C 37.300781 23.734375 37.425781 23.535156 37.621094 23.460938 L 38.765625 23.0625 L 38.765625 19.082031 L 37.972656 19.355469 C 37.921875 19.382812 37.847656 19.382812 37.796875 19.382812 C 37.523438 19.382812 37.300781 19.15625 37.300781 18.882812 L 37.300781 17.390625 C 37.300781 17.191406 37.425781 17.019531 37.621094 16.945312 L 38.765625 16.519531 L 38.765625 12.589844 C 38.765625 12.34375 38.964844 12.117188 39.214844 12.117188 C 39.464844 12.117188 39.6875 12.34375 39.6875 12.589844 L 39.6875 16.199219 L 41.75 15.425781 L 41.75 11.496094 C 41.75 11.246094 41.976562 11.023438 42.222656 11.023438 C 42.472656 11.023438 42.671875 11.246094 42.671875 11.496094 L 42.671875 15.101562 L 43.46875 14.804688 C 43.519531 14.78125 43.59375 14.78125 43.640625 14.78125 C 43.914062 14.78125 44.140625 15.003906 44.140625 15.277344 L 44.140625 16.769531 C 44.140625 16.96875 44.015625 17.167969 43.816406 17.242188 L 42.671875 17.640625 L 42.671875 21.621094 L 43.46875 21.347656 C 43.519531 21.320312 43.59375 21.320312 43.640625 21.320312 C 43.914062 21.320312 44.140625 21.546875 44.140625 21.820312 L 44.140625 23.3125 C 44.140625 23.511719 44.015625 23.683594 43.816406 23.757812 L 42.671875 24.183594 Z M 39.6875 18.734375 L 39.6875 22.714844 L 41.75 21.96875 L 41.75 17.988281 Z M 39.6875 18.734375 "/>
<path style=" stroke:none;fill-rule:nonzero;fill:rgb(0%,0%,0%);fill-opacity:1;" d="M 16.152344 54.800781 L 16.003906 54.800781 C 13.316406 54.800781 11.152344 52.609375 11.152344 49.898438 C 11.152344 48.457031 12.46875 47.339844 13.9375 47.339844 C 15.28125 47.339844 16.300781 48.507812 16.300781 49.898438 C 16.300781 51.191406 15.230469 52.261719 13.9375 52.261719 C 13.664062 52.261719 13.414062 52.214844 13.167969 52.113281 C 13.8125 53.082031 14.859375 53.730469 16.078125 53.730469 L 16.175781 53.730469 Z M 21 44.054688 C 22.691406 43.457031 23.8125 41.691406 23.8125 39.976562 C 23.8125 37.738281 22.171875 35.523438 19.507812 35.25 C 20.105469 38.136719 20.652344 40.996094 21 44.054688 Z M 11.375 38.308594 C 11.375 41.667969 14.585938 44.453125 17.941406 44.453125 C 18.640625 44.453125 19.308594 44.402344 19.980469 44.304688 C 19.632812 41.144531 19.0625 38.210938 18.414062 35.25 C 16.449219 35.449219 15.332031 36.765625 15.332031 38.210938 C 15.332031 39.304688 15.953125 40.472656 17.34375 41.269531 C 17.46875 41.394531 17.519531 41.519531 17.519531 41.640625 C 17.519531 41.914062 17.269531 42.1875 16.972656 42.1875 C 16.898438 42.1875 16.824219 42.164062 16.75 42.140625 C 14.757812 41.070312 13.839844 39.28125 13.839844 37.539062 C 13.839844 35.347656 15.28125 33.210938 17.816406 32.636719 C 17.46875 31.195312 17.097656 29.726562 16.675781 28.285156 C 14.011719 31.296875 11.375 34.328125 11.375 38.308594 Z M 17.867188 45.523438 C 13.191406 45.523438 9.585938 41.246094 9.585938 36.21875 C 9.585938 31.816406 12.84375 28.609375 15.753906 25.25 C 15.28125 23.710938 14.832031 22.140625 14.632812 20.527344 C 14.484375 19.230469 14.460938 17.9375 14.460938 16.644531 C 14.460938 13.785156 15.828125 11.074219 18.167969 9.382812 C 18.316406 9.257812 18.515625 9.257812 18.664062 9.382812 C 20.429688 11.472656 21.972656 15.476562 21.972656 18.285156 C 21.972656 21.84375 19.832031 24.628906 17.496094 27.339844 C 18.015625 29.03125 18.464844 30.773438 18.886719 32.488281 C 18.988281 32.488281 19.113281 32.464844 19.210938 32.464844 C 23.066406 32.464844 25.578125 35.648438 25.578125 38.957031 C 25.578125 40.847656 24.757812 42.785156 22.917969 44.179688 C 22.371094 44.601562 21.746094 44.875 21.101562 45.074219 C 21.175781 45.945312 21.226562 46.816406 21.226562 47.6875 C 21.226562 48.160156 21.199219 48.65625 21.175781 49.128906 C 21 52.089844 18.988281 54.726562 16.152344 54.800781 L 16.175781 53.730469 C 18.488281 53.679688 19.980469 51.441406 20.132812 48.980469 C 20.15625 48.53125 20.179688 48.058594 20.179688 47.613281 C 20.179688 46.839844 20.15625 46.09375 20.082031 45.324219 C 19.359375 45.449219 18.640625 45.523438 17.867188 45.523438 Z M 20.179688 16.222656 C 20.179688 14.855469 20.082031 14.257812 19.683594 13.015625 C 17.222656 14.207031 15.652344 16.71875 15.652344 19.457031 C 15.652344 21.296875 16.101562 22.765625 16.550781 24.28125 C 18.539062 21.867188 20.179688 19.355469 20.179688 16.222656 Z M 20.179688 16.222656 "/>
<path style=" stroke:none;fill-rule:nonzero;fill:rgb(0%,0%,0%);fill-opacity:1;" d="M 58.28125 4.53125 C 59.648438 4.53125 60.964844 5.230469 60.964844 6.746094 C 60.964844 8.511719 59.597656 9.753906 58.429688 10.453125 C 57.558594 10.972656 56.5625 11.296875 55.542969 11.296875 C 54.175781 11.296875 52.855469 10.601562 52.855469 9.085938 C 52.855469 7.316406 54.226562 6.074219 55.394531 5.378906 C 56.265625 4.855469 57.261719 4.53125 58.28125 4.53125 Z M 58.28125 4.53125 "/>
<path style=" stroke:none;fill-rule:nonzero;fill:rgb(0%,0%,0%);fill-opacity:1;" d="M 58.28125 10.75 C 59.648438 10.75 60.964844 11.445312 60.964844 12.964844 C 60.964844 14.730469 59.597656 15.972656 58.429688 16.671875 C 57.558594 17.191406 56.5625 17.515625 55.542969 17.515625 C 54.175781 17.515625 52.855469 16.820312 52.855469 15.300781 C 52.855469 13.535156 54.226562 12.292969 55.394531 11.597656 C 56.265625 11.074219 57.261719 10.75 58.28125 10.75 Z M 58.28125 10.75 "/>
<path style=" stroke:none;fill-rule:nonzero;fill:rgb(0%,0%,0%);fill-opacity:1;" d="M 58.28125 16.96875 C 59.648438 16.96875 60.964844 17.664062 60.964844 19.183594 C 60.964844 20.949219 59.597656 22.191406 58.429688 22.886719 C 57.558594 23.410156 56.5625 23.734375 55.542969 23.734375 C 54.175781 23.734375 52.855469 23.039062 52.855469 21.519531 C 52.855469 19.753906 54.226562 18.511719 55.394531 17.8125 C 56.265625 17.292969 57.261719 16.96875 58.28125 16.96875 Z M 58.28125 16.96875 "/>
</g>
</svg>
