<?xml version="1.0" encoding="UTF-8"?>
<svg xmlns="http://www.w3.org/2000/svg" xmlns:xlink="http://www.w3.org/1999/xlink" width="81.97507pt" height="49.035696pt" viewBox="0 0 81.97507 49.035696" version="1.1">
<g id="surface1">
<path style="fill:none;stroke-width:0.1;stroke-linecap:round;stroke-linejoin:round;stroke:rgb(0%,0%,0%);stroke-opacity:1;stroke-miterlimit:4;" d="M 0.049863 0.00017851 L 10.785197 0.00017851 " transform="matrix(6.218149,0,0,6.218149,4.561038,32.702015)"/>
<path style="fill:none;stroke-width:0.1;stroke-linecap:round;stroke-linejoin:round;stroke:rgb(0%,0%,0%);stroke-opacity:1;stroke-miterlimit:4;" d="M 0.049863 0.000081861 L 10.785197 0.000081861 " transform="matrix(6.218149,0,0,6.218149,4.561038,26.483866)"/>
<path style="fill:none;stroke-width:0.1;stroke-linecap:round;stroke-linejoin:round;stroke:rgb(0%,0%,0%);stroke-opacity:1;stroke-miterlimit:4;" d="M 0.049863 -0.0000147876 L 10.785197 -0.0000147876 " transform="matrix(6.218149,0,0,6.218149,4.561038,20.265717)"/>
<path style="fill:none;stroke-width:0.1;stroke-linecap:round;stroke-linejoin:round;stroke:rgb(0%,0%,0%);stroke-opacity:1;stroke-miterlimit:4;" d="M 0.049863 -0.000111436 L 10.785197 -0.000111436 " transform="matrix(6.218149,0,0,6.218149,4.561038,14.047568)"/>
<path style="fill:none;stroke-width:0.1;stroke-linecap:round;stroke-linejoin:round;stroke:rgb(0%,0%,0%);stroke-opacity:1;stroke-miterlimit:4;" d="M 0.049863 -0.000208204 L 10.785197 -0.000208204 " transform="matrix(6.218149,0,0,6.218149,4.561038,7.82942)"/>
<path style=" stroke:none;fill-rule:nonzero;fill:rgb(0%,0%,0%);fill-opacity:1;" d="M 53.515625 8.988281 L 53.828125 8.988281 C 53.964844 8.988281 54.078125 9.097656 54.078125 9.234375 L 54.078125 40.742188 C 54.078125 40.882812 53.964844 40.992188 53.828125 40.992188 L 53.515625 40.992188 C 53.378906 40.992188 53.269531 40.882812 53.269531 40.742188 L 53.269531 9.234375 C 53.269531 9.097656 53.378906 8.988281 53.515625 8.988281 Z M 53.515625 8.988281 "/>
<path style=" stroke:none;fill-rule:nonzero;fill:rgb(0%,0%,0%);fill-opacity:1;" d="M 48.359375 7.828125 C 48.929688 8.402344 49.75 8.527344 50.570312 8.527344 C 50.722656 8.527344 50.820312 8.625 50.820312 8.773438 L 51.042969 10.9375 C 51.070312 11.085938 50.945312 11.210938 50.796875 11.1875 L 48.632812 10.964844 C 48.507812 10.9375 48.382812 10.839844 48.382812 10.714844 C 48.382812 9.894531 48.257812 9.074219 47.6875 8.5 C 47.113281 9.074219 47.015625 9.894531 47.015625 10.714844 C 47.015625 10.839844 46.890625 10.9375 46.765625 10.964844 L 44.578125 11.1875 C 44.429688 11.210938 44.304688 11.085938 44.328125 10.9375 L 44.550781 8.773438 C 44.550781 8.625 44.652344 8.527344 44.800781 8.527344 C 45.621094 8.527344 46.441406 8.402344 47.015625 7.828125 C 46.441406 7.257812 45.621094 7.132812 44.800781 7.132812 C 44.652344 7.132812 44.550781 7.035156 44.550781 6.882812 L 44.328125 4.71875 C 44.304688 4.570312 44.429688 4.445312 44.578125 4.472656 L 46.765625 4.695312 C 46.890625 4.71875 46.988281 4.820312 46.988281 4.945312 C 46.988281 5.765625 47.113281 6.585938 47.6875 7.15625 C 48.257812 6.585938 48.382812 5.765625 48.382812 4.945312 C 48.382812 4.820312 48.507812 4.71875 48.632812 4.695312 L 50.796875 4.472656 C 50.945312 4.445312 51.070312 4.570312 51.042969 4.71875 L 50.820312 6.882812 C 50.820312 7.035156 50.722656 7.132812 50.570312 7.132812 C 49.75 7.132812 48.929688 7.257812 48.359375 7.828125 Z M 48.359375 7.828125 "/>
<path style=" stroke:none;fill-rule:nonzero;fill:rgb(0%,0%,0%);fill-opacity:1;" d="M 33.734375 14.046875 C 34.304688 14.621094 35.125 14.742188 35.945312 14.742188 C 36.097656 14.742188 36.195312 14.84375 36.195312 14.992188 L 36.417969 17.15625 C 36.445312 17.304688 36.320312 17.429688 36.171875 17.40625 L 34.007812 17.179688 C 33.882812 17.15625 33.757812 17.058594 33.757812 16.933594 C 33.757812 16.113281 33.632812 15.292969 33.0625 14.71875 C 32.488281 15.292969 32.390625 16.113281 32.390625 16.933594 C 32.390625 17.058594 32.265625 17.15625 32.140625 17.179688 L 29.953125 17.40625 C 29.804688 17.429688 29.679688 17.304688 29.703125 17.15625 L 29.925781 14.992188 C 29.925781 14.84375 30.027344 14.742188 30.175781 14.742188 C 30.996094 14.742188 31.816406 14.621094 32.390625 14.046875 C 31.816406 13.476562 30.996094 13.351562 30.175781 13.351562 C 30.027344 13.351562 29.925781 13.25 29.925781 13.101562 L 29.703125 10.9375 C 29.679688 10.789062 29.804688 10.664062 29.953125 10.691406 L 32.140625 10.914062 C 32.265625 10.9375 32.363281 11.039062 32.363281 11.164062 C 32.363281 11.984375 32.488281 12.804688 33.0625 13.375 C 33.632812 12.804688 33.757812 11.984375 33.757812 11.164062 C 33.757812 11.039062 33.882812 10.9375 34.007812 10.914062 L 36.171875 10.691406 C 36.320312 10.664062 36.445312 10.789062 36.417969 10.9375 L 36.195312 13.101562 C 36.195312 13.25 36.097656 13.351562 35.945312 13.351562 C 35.125 13.351562 34.304688 13.476562 33.734375 14.046875 Z M 33.734375 14.046875 "/>
<path style=" stroke:none;fill-rule:nonzero;fill:rgb(0%,0%,0%);fill-opacity:1;" d="M 43.082031 28.027344 C 43.082031 28.273438 42.882812 28.5 42.636719 28.5 C 42.386719 28.5 42.164062 28.273438 42.164062 28.027344 L 42.164062 24.417969 L 40.097656 25.191406 L 40.097656 29.121094 C 40.097656 29.367188 39.875 29.59375 39.625 29.59375 C 39.378906 29.59375 39.179688 29.367188 39.179688 29.121094 L 39.179688 25.515625 L 38.382812 25.8125 C 38.332031 25.835938 38.257812 25.835938 38.207031 25.835938 C 37.933594 25.835938 37.710938 25.613281 37.710938 25.339844 L 37.710938 23.847656 C 37.710938 23.648438 37.835938 23.449219 38.035156 23.375 L 39.179688 22.976562 L 39.179688 18.996094 L 38.382812 19.269531 C 38.332031 19.296875 38.257812 19.296875 38.207031 19.296875 C 37.933594 19.296875 37.710938 19.070312 37.710938 18.796875 L 37.710938 17.304688 C 37.710938 17.105469 37.835938 16.933594 38.035156 16.859375 L 39.179688 16.433594 L 39.179688 12.503906 C 39.179688 12.257812 39.378906 12.03125 39.625 12.03125 C 39.875 12.03125 40.097656 12.257812 40.097656 12.503906 L 40.097656 16.113281 L 42.164062 15.339844 L 42.164062 11.410156 C 42.164062 11.164062 42.386719 10.9375 42.636719 10.9375 C 42.882812 10.9375 43.082031 11.164062 43.082031 11.410156 L 43.082031 15.019531 L 43.878906 14.71875 C 43.929688 14.695312 44.003906 14.695312 44.054688 14.695312 C 44.328125 14.695312 44.550781 14.917969 44.550781 15.191406 L 44.550781 16.683594 C 44.550781 16.882812 44.425781 17.082031 44.226562 17.15625 L 43.082031 17.554688 L 43.082031 21.535156 L 43.878906 21.261719 C 43.929688 21.234375 44.003906 21.234375 44.054688 21.234375 C 44.328125 21.234375 44.550781 21.460938 44.550781 21.734375 L 44.550781 23.226562 C 44.550781 23.425781 44.425781 23.597656 44.226562 23.671875 L 43.082031 24.097656 Z M 40.097656 18.648438 L 40.097656 22.628906 L 42.164062 21.882812 L 42.164062 17.902344 Z M 40.097656 18.648438 "/>
<path style=" stroke:none;fill-rule:nonzero;fill:rgb(0%,0%,0%);fill-opacity:1;" d="M 23.390625 17.15625 C 23.390625 16.460938 23.960938 15.886719 24.65625 15.886719 C 25.355469 15.886719 25.925781 16.460938 25.925781 17.15625 C 25.925781 17.851562 25.355469 18.425781 24.65625 18.425781 C 23.960938 18.425781 23.390625 17.851562 23.390625 17.15625 Z M 23.390625 10.9375 C 23.390625 10.242188 23.960938 9.671875 24.65625 9.671875 C 25.355469 9.671875 25.925781 10.242188 25.925781 10.9375 C 25.925781 11.636719 25.355469 12.207031 24.65625 12.207031 C 23.960938 12.207031 23.390625 11.636719 23.390625 10.9375 Z M 15.304688 7.507812 C 19.585938 7.507812 22.59375 9.695312 22.59375 13.75 C 22.59375 20.289062 16.050781 24.046875 9.757812 26.707031 C 9.683594 26.78125 9.609375 26.808594 9.535156 26.808594 C 9.363281 26.808594 9.210938 26.65625 9.210938 26.484375 C 9.210938 26.410156 9.238281 26.335938 9.3125 26.261719 C 14.335938 23.324219 19.558594 19.667969 19.558594 13.996094 C 19.558594 11.011719 17.992188 8.152344 15.304688 8.152344 C 13.464844 8.152344 12.097656 9.496094 11.476562 11.285156 C 11.75 11.164062 12.023438 11.085938 12.320312 11.085938 C 13.6875 11.085938 14.808594 12.207031 14.808594 13.574219 C 14.808594 15.019531 13.714844 16.210938 12.320312 16.210938 C 10.828125 16.210938 9.535156 15.042969 9.535156 13.574219 C 9.535156 10.265625 12.074219 7.507812 15.304688 7.507812 Z M 15.304688 7.507812 "/>
<path style=" stroke:none;fill-rule:nonzero;fill:rgb(0%,0%,0%);fill-opacity:1;" d="M 58.691406 4.445312 C 60.058594 4.445312 61.375 5.144531 61.375 6.660156 C 61.375 8.425781 60.007812 9.671875 58.839844 10.367188 C 57.96875 10.890625 56.972656 11.210938 55.953125 11.210938 C 54.585938 11.210938 53.269531 10.515625 53.269531 9 C 53.269531 7.234375 54.636719 5.988281 55.804688 5.292969 C 56.675781 4.769531 57.671875 4.445312 58.691406 4.445312 Z M 58.691406 4.445312 "/>
<path style=" stroke:none;fill-rule:nonzero;fill:rgb(0%,0%,0%);fill-opacity:1;" d="M 58.691406 10.664062 C 60.058594 10.664062 61.375 11.359375 61.375 12.878906 C 61.375 14.644531 60.007812 15.886719 58.839844 16.585938 C 57.96875 17.105469 56.972656 17.429688 55.953125 17.429688 C 54.585938 17.429688 53.269531 16.734375 53.269531 15.214844 C 53.269531 13.449219 54.636719 12.207031 55.804688 11.511719 C 56.675781 10.988281 57.671875 10.664062 58.691406 10.664062 Z M 58.691406 10.664062 "/>
<path style=" stroke:none;fill-rule:nonzero;fill:rgb(0%,0%,0%);fill-opacity:1;" d="M 58.691406 16.882812 C 60.058594 16.882812 61.375 17.578125 61.375 19.097656 C 61.375 20.863281 60.007812 22.105469 58.839844 22.800781 C 57.96875 23.324219 56.972656 23.648438 55.953125 23.648438 C 54.585938 23.648438 53.269531 22.953125 53.269531 21.433594 C 53.269531 19.667969 54.636719 18.425781 55.804688 17.730469 C 56.675781 17.207031 57.671875 16.882812 58.691406 16.882812 Z M 58.691406 16.882812 "/>
</g>
</svg>
