<?xml version="1.0" encoding="UTF-8"?>
<svg xmlns="http://www.w3.org/2000/svg" xmlns:xlink="http://www.w3.org/1999/xlink" width="74.549567pt" height="80.004293pt" viewBox="0 0 74.549567 80.004293" version="1.1">
<g id="surface1">
<path style="fill:none;stroke-width:0.1;stroke-linecap:round;stroke-linejoin:round;stroke:rgb(0%,0%,0%);stroke-opacity:1;stroke-miterlimit:4;" d="M 0.049863 -0.000105215 L 9.666998 -0.000105215 " transform="matrix(6.218149,0,0,6.218149,4.561038,60.539717)"/>
<path style="fill:none;stroke-width:0.1;stroke-linecap:round;stroke-linejoin:round;stroke:rgb(0%,0%,0%);stroke-opacity:1;stroke-miterlimit:4;" d="M 0.049863 -0.000201864 L 9.666998 -0.000201864 " transform="matrix(6.218149,0,0,6.218149,4.561038,54.321568)"/>
<path style="fill:none;stroke-width:0.1;stroke-linecap:round;stroke-linejoin:round;stroke:rgb(0%,0%,0%);stroke-opacity:1;stroke-miterlimit:4;" d="M 0.049863 -0.000298513 L 9.666998 -0.000298513 " transform="matrix(6.218149,0,0,6.218149,4.561038,48.103419)"/>
<path style="fill:none;stroke-width:0.1;stroke-linecap:round;stroke-linejoin:round;stroke:rgb(0%,0%,0%);stroke-opacity:1;stroke-miterlimit:4;" d="M 0.049863 0.00023304 L 9.666998 0.00023304 " transform="matrix(6.218149,0,0,6.218149,4.561038,41.88527)"/>
<path style="fill:none;stroke-width:0.1;stroke-linecap:round;stroke-linejoin:round;stroke:rgb(0%,0%,0%);stroke-opacity:1;stroke-miterlimit:4;" d="M 0.049863 0.000136391 L 9.666998 0.000136391 " transform="matrix(6.218149,0,0,6.218149,4.561038,35.667121)"/>
<path style=" stroke:none;fill-rule:nonzero;fill:rgb(0%,0%,0%);fill-opacity:1;" d="M 45.847656 16.390625 L 55.832031 16.390625 C 56.175781 16.390625 56.453125 16.667969 56.453125 17.011719 C 56.453125 17.355469 56.175781 17.632812 55.832031 17.632812 L 45.847656 17.632812 C 45.507812 17.632812 45.226562 17.355469 45.226562 17.011719 C 45.226562 16.667969 45.507812 16.390625 45.847656 16.390625 Z M 45.847656 16.390625 "/>
<path style=" stroke:none;fill-rule:nonzero;fill:rgb(0%,0%,0%);fill-opacity:1;" d="M 44.910156 22.609375 L 55.832031 22.609375 C 56.175781 22.609375 56.453125 22.886719 56.453125 23.230469 C 56.453125 23.574219 56.175781 23.851562 55.832031 23.851562 L 44.910156 23.851562 C 44.566406 23.851562 44.289062 23.574219 44.289062 23.230469 C 44.289062 22.886719 44.566406 22.609375 44.910156 22.609375 Z M 44.910156 22.609375 "/>
<path style=" stroke:none;fill-rule:nonzero;fill:rgb(0%,0%,0%);fill-opacity:1;" d="M 44.910156 28.828125 L 55.832031 28.828125 C 56.175781 28.828125 56.453125 29.105469 56.453125 29.449219 C 56.453125 29.792969 56.175781 30.070312 55.832031 30.070312 L 44.910156 30.070312 C 44.566406 30.070312 44.289062 29.792969 44.289062 29.449219 C 44.289062 29.105469 44.566406 28.828125 44.910156 28.828125 Z M 44.910156 28.828125 "/>
<path style=" stroke:none;fill-rule:nonzero;fill:rgb(0%,0%,0%);fill-opacity:1;" d="M 46.566406 15.0625 L 46.875 15.0625 C 47.011719 15.0625 47.125 15.171875 47.125 15.308594 L 47.125 47.855469 C 47.125 47.992188 47.011719 48.101562 46.875 48.101562 L 46.566406 48.101562 C 46.425781 48.101562 46.316406 47.992188 46.316406 47.855469 L 46.316406 15.308594 C 46.316406 15.171875 46.425781 15.0625 46.566406 15.0625 Z M 46.566406 15.0625 "/>
<path style=" stroke:none;fill-rule:nonzero;fill:rgb(0%,0%,0%);fill-opacity:1;" d="M 42.671875 21.664062 C 42.671875 21.914062 42.472656 22.136719 42.222656 22.136719 C 41.976562 22.136719 41.75 21.914062 41.75 21.664062 L 41.75 18.058594 L 39.6875 18.828125 L 39.6875 22.757812 C 39.6875 23.007812 39.464844 23.230469 39.214844 23.230469 C 38.964844 23.230469 38.765625 23.007812 38.765625 22.757812 L 38.765625 19.152344 L 37.972656 19.449219 C 37.921875 19.476562 37.847656 19.476562 37.796875 19.476562 C 37.523438 19.476562 37.300781 19.25 37.300781 18.976562 L 37.300781 17.484375 C 37.300781 17.285156 37.425781 17.085938 37.621094 17.011719 L 38.765625 16.613281 L 38.765625 12.636719 L 37.972656 12.910156 C 37.921875 12.933594 37.847656 12.933594 37.796875 12.933594 C 37.523438 12.933594 37.300781 12.710938 37.300781 12.4375 L 37.300781 10.945312 C 37.300781 10.746094 37.425781 10.570312 37.621094 10.496094 L 38.765625 10.074219 L 38.765625 6.144531 C 38.765625 5.894531 38.964844 5.671875 39.214844 5.671875 C 39.464844 5.671875 39.6875 5.894531 39.6875 6.144531 L 39.6875 9.75 L 41.75 8.980469 L 41.75 5.050781 C 41.75 4.800781 41.976562 4.578125 42.222656 4.578125 C 42.472656 4.578125 42.671875 4.800781 42.671875 5.050781 L 42.671875 8.65625 L 43.46875 8.355469 C 43.519531 8.332031 43.59375 8.332031 43.640625 8.332031 C 43.914062 8.332031 44.140625 8.554688 44.140625 8.828125 L 44.140625 10.320312 C 44.140625 10.519531 44.015625 10.71875 43.816406 10.792969 L 42.671875 11.191406 L 42.671875 15.171875 L 43.46875 14.898438 C 43.519531 14.875 43.59375 14.875 43.640625 14.875 C 43.914062 14.875 44.140625 15.097656 44.140625 15.371094 L 44.140625 16.863281 C 44.140625 17.0625 44.015625 17.238281 43.816406 17.3125 L 42.671875 17.734375 Z M 39.6875 12.285156 L 39.6875 16.265625 L 41.75 15.519531 L 41.75 11.539062 Z M 39.6875 12.285156 "/>
<path style=" stroke:none;fill-rule:nonzero;fill:rgb(0%,0%,0%);fill-opacity:1;" d="M 34.589844 27.882812 C 34.589844 28.128906 34.390625 28.355469 34.140625 28.355469 C 33.890625 28.355469 33.667969 28.128906 33.667969 27.882812 L 33.667969 24.277344 L 31.605469 25.046875 L 31.605469 28.976562 C 31.605469 29.226562 31.378906 29.449219 31.132812 29.449219 C 30.882812 29.449219 30.683594 29.226562 30.683594 28.976562 L 30.683594 25.371094 L 29.886719 25.667969 C 29.835938 25.691406 29.761719 25.691406 29.714844 25.691406 C 29.441406 25.691406 29.214844 25.46875 29.214844 25.195312 L 29.214844 23.703125 C 29.214844 23.503906 29.339844 23.304688 29.539062 23.230469 L 30.683594 22.832031 L 30.683594 18.851562 L 29.886719 19.125 C 29.835938 19.152344 29.761719 19.152344 29.714844 19.152344 C 29.441406 19.152344 29.214844 18.929688 29.214844 18.652344 L 29.214844 17.160156 C 29.214844 16.964844 29.339844 16.789062 29.539062 16.714844 L 30.683594 16.292969 L 30.683594 12.363281 C 30.683594 12.113281 30.882812 11.890625 31.132812 11.890625 C 31.378906 11.890625 31.605469 12.113281 31.605469 12.363281 L 31.605469 15.96875 L 33.667969 15.195312 L 33.667969 11.265625 C 33.667969 11.019531 33.890625 10.792969 34.140625 10.792969 C 34.390625 10.792969 34.589844 11.019531 34.589844 11.265625 L 34.589844 14.875 L 35.382812 14.574219 C 35.433594 14.550781 35.507812 14.550781 35.558594 14.550781 C 35.832031 14.550781 36.054688 14.773438 36.054688 15.046875 L 36.054688 16.539062 C 36.054688 16.738281 35.929688 16.9375 35.734375 17.011719 L 34.589844 17.410156 L 34.589844 21.390625 L 35.382812 21.117188 C 35.433594 21.089844 35.507812 21.089844 35.558594 21.089844 C 35.832031 21.089844 36.054688 21.316406 36.054688 21.589844 L 36.054688 23.082031 C 36.054688 23.28125 35.929688 23.453125 35.734375 23.527344 L 34.589844 23.953125 Z M 31.605469 18.503906 L 31.605469 22.484375 L 33.667969 21.738281 L 33.667969 17.757812 Z M 31.605469 18.503906 "/>
<path style=" stroke:none;fill-rule:nonzero;fill:rgb(0%,0%,0%);fill-opacity:1;" d="M 16.152344 70.117188 L 16.003906 70.117188 C 13.316406 70.117188 11.152344 67.925781 11.152344 65.214844 C 11.152344 63.773438 12.46875 62.652344 13.9375 62.652344 C 15.28125 62.652344 16.300781 63.824219 16.300781 65.214844 C 16.300781 66.507812 15.230469 67.578125 13.9375 67.578125 C 13.664062 67.578125 13.414062 67.527344 13.167969 67.429688 C 13.8125 68.398438 14.859375 69.046875 16.078125 69.046875 L 16.175781 69.046875 Z M 21 59.371094 C 22.691406 58.773438 23.8125 57.007812 23.8125 55.292969 C 23.8125 53.054688 22.171875 50.839844 19.507812 50.566406 C 20.105469 53.449219 20.652344 56.3125 21 59.371094 Z M 11.375 53.625 C 11.375 56.984375 14.585938 59.769531 17.941406 59.769531 C 18.640625 59.769531 19.308594 59.71875 19.980469 59.621094 C 19.632812 56.460938 19.0625 53.527344 18.414062 50.566406 C 16.449219 50.765625 15.332031 52.082031 15.332031 53.527344 C 15.332031 54.621094 15.953125 55.789062 17.34375 56.585938 C 17.46875 56.710938 17.519531 56.832031 17.519531 56.957031 C 17.519531 57.230469 17.269531 57.503906 16.972656 57.503906 C 16.898438 57.503906 16.824219 57.480469 16.75 57.457031 C 14.757812 56.386719 13.839844 54.59375 13.839844 52.855469 C 13.839844 50.664062 15.28125 48.527344 17.816406 47.953125 C 17.46875 46.511719 17.097656 45.042969 16.675781 43.601562 C 14.011719 46.609375 11.375 49.644531 11.375 53.625 Z M 17.867188 60.839844 C 13.191406 60.839844 9.585938 56.558594 9.585938 51.535156 C 9.585938 47.132812 12.84375 43.925781 15.753906 40.566406 C 15.28125 39.023438 14.832031 37.457031 14.632812 35.839844 C 14.484375 34.546875 14.460938 33.253906 14.460938 31.960938 C 14.460938 29.101562 15.828125 26.390625 18.167969 24.699219 C 18.316406 24.574219 18.515625 24.574219 18.664062 24.699219 C 20.429688 26.789062 21.972656 30.792969 21.972656 33.601562 C 21.972656 37.160156 19.832031 39.945312 17.496094 42.65625 C 18.015625 44.347656 18.464844 46.089844 18.886719 47.804688 C 18.988281 47.804688 19.113281 47.78125 19.210938 47.78125 C 23.066406 47.78125 25.578125 50.964844 25.578125 54.273438 C 25.578125 56.164062 24.757812 58.101562 22.917969 59.496094 C 22.371094 59.917969 21.746094 60.191406 21.101562 60.390625 C 21.175781 61.261719 21.226562 62.132812 21.226562 63.003906 C 21.226562 63.476562 21.199219 63.972656 21.175781 64.445312 C 21 67.40625 18.988281 70.042969 16.152344 70.117188 L 16.175781 69.046875 C 18.488281 68.996094 19.980469 66.757812 20.132812 64.296875 C 20.15625 63.847656 20.179688 63.375 20.179688 62.925781 C 20.179688 62.15625 20.15625 61.410156 20.082031 60.640625 C 19.359375 60.761719 18.640625 60.839844 17.867188 60.839844 Z M 20.179688 31.539062 C 20.179688 30.171875 20.082031 29.574219 19.683594 28.328125 C 17.222656 29.523438 15.652344 32.035156 15.652344 34.773438 C 15.652344 36.613281 16.101562 38.078125 16.550781 39.597656 C 18.539062 37.183594 20.179688 34.671875 20.179688 31.539062 Z M 20.179688 31.539062 "/>
<path style=" stroke:none;fill-rule:nonzero;fill:rgb(0%,0%,0%);fill-opacity:1;" d="M 51.738281 10.519531 C 53.105469 10.519531 54.425781 11.21875 54.425781 12.734375 C 54.425781 14.5 53.054688 15.746094 51.886719 16.441406 C 51.015625 16.964844 50.023438 17.285156 49.003906 17.285156 C 47.632812 17.285156 46.316406 16.589844 46.316406 15.074219 C 46.316406 13.308594 47.683594 12.0625 48.851562 11.367188 C 49.722656 10.84375 50.71875 10.519531 51.738281 10.519531 Z M 51.738281 10.519531 "/>
<path style=" stroke:none;fill-rule:nonzero;fill:rgb(0%,0%,0%);fill-opacity:1;" d="M 51.738281 16.738281 C 53.105469 16.738281 54.425781 17.433594 54.425781 18.953125 C 54.425781 20.71875 53.054688 21.960938 51.886719 22.660156 C 51.015625 23.179688 50.023438 23.503906 49.003906 23.503906 C 47.632812 23.503906 46.316406 22.808594 46.316406 21.289062 C 46.316406 19.523438 47.683594 18.28125 48.851562 17.585938 C 49.722656 17.0625 50.71875 16.738281 51.738281 16.738281 Z M 51.738281 16.738281 "/>
<path style=" stroke:none;fill-rule:nonzero;fill:rgb(0%,0%,0%);fill-opacity:1;" d="M 51.738281 22.957031 C 53.105469 22.957031 54.425781 23.652344 54.425781 25.171875 C 54.425781 26.9375 53.054688 28.179688 51.886719 28.875 C 51.015625 29.398438 50.023438 29.722656 49.003906 29.722656 C 47.632812 29.722656 46.316406 29.027344 46.316406 27.507812 C 46.316406 25.742188 47.683594 24.5 48.851562 23.804688 C 49.722656 23.28125 50.71875 22.957031 51.738281 22.957031 Z M 51.738281 22.957031 "/>
</g>
</svg>
