<?xml version="1.0" encoding="UTF-8"?>
<svg xmlns="http://www.w3.org/2000/svg" xmlns:xlink="http://www.w3.org/1999/xlink" width="72.982108pt" height="61.666356pt" viewBox="0 0 72.982108 61.666356" version="1.1">
<g id="surface1">
<path style="fill:none;stroke-width:0.1;stroke-linecap:round;stroke-linejoin:round;stroke:rgb(0%,0%,0%);stroke-opacity:1;stroke-miterlimit:4;" d="M 0.049863 -0.000287501 L 9.431423 -0.000287501 " transform="matrix(6.218149,0,0,6.218149,4.561038,40.517413)"/>
<path style="fill:none;stroke-width:0.1;stroke-linecap:round;stroke-linejoin:round;stroke:rgb(0%,0%,0%);stroke-opacity:1;stroke-miterlimit:4;" d="M 0.049863 0.000244052 L 9.431423 0.000244052 " transform="matrix(6.218149,0,0,6.218149,4.561038,34.299264)"/>
<path style="fill:none;stroke-width:0.1;stroke-linecap:round;stroke-linejoin:round;stroke:rgb(0%,0%,0%);stroke-opacity:1;stroke-miterlimit:4;" d="M 0.049863 0.000147403 L 9.431423 0.000147403 " transform="matrix(6.218149,0,0,6.218149,4.561038,28.081115)"/>
<path style="fill:none;stroke-width:0.1;stroke-linecap:round;stroke-linejoin:round;stroke:rgb(0%,0%,0%);stroke-opacity:1;stroke-miterlimit:4;" d="M 0.049863 0.0000507548 L 9.431423 0.0000507548 " transform="matrix(6.218149,0,0,6.218149,4.561038,21.862966)"/>
<path style="fill:none;stroke-width:0.1;stroke-linecap:round;stroke-linejoin:round;stroke:rgb(0%,0%,0%);stroke-opacity:1;stroke-miterlimit:4;" d="M 0.049863 -0.0000458938 L 9.431423 -0.0000458938 " transform="matrix(6.218149,0,0,6.218149,4.561038,15.644817)"/>
<path style=" stroke:none;fill-rule:nonzero;fill:rgb(0%,0%,0%);fill-opacity:1;" d="M 45.097656 23.019531 L 45.40625 23.019531 C 45.546875 23.019531 45.65625 23.132812 45.65625 23.269531 L 45.65625 52.703125 C 45.65625 52.84375 45.546875 52.953125 45.40625 52.953125 L 45.097656 52.953125 C 44.960938 52.953125 44.847656 52.84375 44.847656 52.703125 L 44.847656 23.269531 C 44.847656 23.132812 44.960938 23.019531 45.097656 23.019531 Z M 45.097656 23.019531 "/>
<path style=" stroke:none;fill-rule:nonzero;fill:rgb(0%,0%,0%);fill-opacity:1;" d="M 41.203125 29.625 C 41.203125 29.871094 41.003906 30.097656 40.757812 30.097656 C 40.507812 30.097656 40.285156 29.871094 40.285156 29.625 L 40.285156 26.015625 L 38.21875 26.789062 L 38.21875 30.71875 C 38.21875 30.964844 37.996094 31.191406 37.746094 31.191406 C 37.5 31.191406 37.300781 30.964844 37.300781 30.71875 L 37.300781 27.109375 L 36.503906 27.410156 C 36.453125 27.433594 36.378906 27.433594 36.328125 27.433594 C 36.054688 27.433594 35.832031 27.210938 35.832031 26.9375 L 35.832031 25.445312 C 35.832031 25.246094 35.957031 25.046875 36.15625 24.972656 L 37.300781 24.574219 L 37.300781 20.59375 L 36.503906 20.867188 C 36.453125 20.894531 36.378906 20.894531 36.328125 20.894531 C 36.054688 20.894531 35.832031 20.667969 35.832031 20.394531 L 35.832031 18.902344 C 35.832031 18.703125 35.957031 18.53125 36.15625 18.457031 L 37.300781 18.03125 L 37.300781 14.101562 C 37.300781 13.855469 37.5 13.628906 37.746094 13.628906 C 37.996094 13.628906 38.21875 13.855469 38.21875 14.101562 L 38.21875 17.710938 L 40.285156 16.9375 L 40.285156 13.007812 C 40.285156 12.757812 40.507812 12.535156 40.757812 12.535156 C 41.003906 12.535156 41.203125 12.757812 41.203125 13.007812 L 41.203125 16.613281 L 42 16.316406 C 42.050781 16.292969 42.125 16.292969 42.175781 16.292969 C 42.449219 16.292969 42.671875 16.515625 42.671875 16.789062 L 42.671875 18.28125 C 42.671875 18.480469 42.546875 18.679688 42.347656 18.753906 L 41.203125 19.152344 L 41.203125 23.132812 L 42 22.859375 C 42.050781 22.832031 42.125 22.832031 42.175781 22.832031 C 42.449219 22.832031 42.671875 23.058594 42.671875 23.332031 L 42.671875 24.824219 C 42.671875 25.023438 42.546875 25.195312 42.347656 25.269531 L 41.203125 25.691406 Z M 38.21875 20.246094 L 38.21875 24.226562 L 40.285156 23.480469 L 40.285156 19.5 Z M 38.21875 20.246094 "/>
<path style=" stroke:none;fill-rule:nonzero;fill:rgb(0%,0%,0%);fill-opacity:1;" d="M 34.589844 42.058594 C 34.589844 42.308594 34.390625 42.53125 34.140625 42.53125 C 33.890625 42.53125 33.667969 42.308594 33.667969 42.058594 L 33.667969 38.453125 L 31.605469 39.222656 L 31.605469 43.152344 C 31.605469 43.402344 31.378906 43.625 31.132812 43.625 C 30.882812 43.625 30.683594 43.402344 30.683594 43.152344 L 30.683594 39.546875 L 29.886719 39.847656 C 29.835938 39.871094 29.761719 39.871094 29.714844 39.871094 C 29.441406 39.871094 29.214844 39.648438 29.214844 39.375 L 29.214844 37.882812 C 29.214844 37.683594 29.339844 37.484375 29.539062 37.410156 L 30.683594 37.011719 L 30.683594 33.03125 L 29.886719 33.304688 C 29.835938 33.328125 29.761719 33.328125 29.714844 33.328125 C 29.441406 33.328125 29.214844 33.105469 29.214844 32.832031 L 29.214844 31.339844 C 29.214844 31.140625 29.339844 30.964844 29.539062 30.890625 L 30.683594 30.46875 L 30.683594 26.539062 C 30.683594 26.289062 30.882812 26.066406 31.132812 26.066406 C 31.378906 26.066406 31.605469 26.289062 31.605469 26.539062 L 31.605469 30.144531 L 33.667969 29.375 L 33.667969 25.445312 C 33.667969 25.195312 33.890625 24.972656 34.140625 24.972656 C 34.390625 24.972656 34.589844 25.195312 34.589844 25.445312 L 34.589844 29.050781 L 35.382812 28.753906 C 35.433594 28.726562 35.507812 28.726562 35.558594 28.726562 C 35.832031 28.726562 36.054688 28.953125 36.054688 29.226562 L 36.054688 30.71875 C 36.054688 30.917969 35.929688 31.117188 35.734375 31.191406 L 34.589844 31.589844 L 34.589844 35.566406 L 35.382812 35.292969 C 35.433594 35.269531 35.507812 35.269531 35.558594 35.269531 C 35.832031 35.269531 36.054688 35.492188 36.054688 35.765625 L 36.054688 37.257812 C 36.054688 37.457031 35.929688 37.632812 35.734375 37.707031 L 34.589844 38.128906 Z M 31.605469 32.683594 L 31.605469 36.664062 L 33.667969 35.914062 L 33.667969 31.9375 Z M 31.605469 32.683594 "/>
<path style=" stroke:none;fill-rule:nonzero;fill:rgb(0%,0%,0%);fill-opacity:1;" d="M 16.152344 50.09375 L 16.003906 50.09375 C 13.316406 50.09375 11.152344 47.90625 11.152344 45.195312 C 11.152344 43.75 12.46875 42.632812 13.9375 42.632812 C 15.28125 42.632812 16.300781 43.800781 16.300781 45.195312 C 16.300781 46.488281 15.230469 47.554688 13.9375 47.554688 C 13.664062 47.554688 13.414062 47.507812 13.167969 47.40625 C 13.8125 48.378906 14.859375 49.023438 16.078125 49.023438 L 16.175781 49.023438 Z M 21 39.347656 C 22.691406 38.75 23.8125 36.984375 23.8125 35.269531 C 23.8125 33.03125 22.171875 30.816406 19.507812 30.542969 C 20.105469 33.429688 20.652344 36.289062 21 39.347656 Z M 11.375 33.601562 C 11.375 36.960938 14.585938 39.746094 17.941406 39.746094 C 18.640625 39.746094 19.308594 39.695312 19.980469 39.597656 C 19.632812 36.4375 19.0625 33.503906 18.414062 30.542969 C 16.449219 30.742188 15.332031 32.0625 15.332031 33.503906 C 15.332031 34.597656 15.953125 35.765625 17.34375 36.5625 C 17.46875 36.6875 17.519531 36.8125 17.519531 36.9375 C 17.519531 37.210938 17.269531 37.484375 16.972656 37.484375 C 16.898438 37.484375 16.824219 37.457031 16.75 37.433594 C 14.757812 36.363281 13.839844 34.574219 13.839844 32.832031 C 13.839844 30.644531 15.28125 28.503906 17.816406 27.933594 C 17.46875 26.488281 17.097656 25.023438 16.675781 23.578125 C 14.011719 26.589844 11.375 29.625 11.375 33.601562 Z M 17.867188 40.816406 C 13.191406 40.816406 9.585938 36.539062 9.585938 31.511719 C 9.585938 27.109375 12.84375 23.902344 15.753906 20.542969 C 15.28125 19.003906 14.832031 17.4375 14.632812 15.820312 C 14.484375 14.527344 14.460938 13.230469 14.460938 11.9375 C 14.460938 9.078125 15.828125 6.367188 18.167969 4.675781 C 18.316406 4.550781 18.515625 4.550781 18.664062 4.675781 C 20.429688 6.765625 21.972656 10.769531 21.972656 13.582031 C 21.972656 17.136719 19.832031 19.921875 17.496094 22.632812 C 18.015625 24.324219 18.464844 26.066406 18.886719 27.78125 C 18.988281 27.78125 19.113281 27.757812 19.210938 27.757812 C 23.066406 27.757812 25.578125 30.941406 25.578125 34.25 C 25.578125 36.140625 24.757812 38.078125 22.917969 39.472656 C 22.371094 39.894531 21.746094 40.167969 21.101562 40.367188 C 21.175781 41.238281 21.226562 42.109375 21.226562 42.980469 C 21.226562 43.453125 21.199219 43.949219 21.175781 44.421875 C 21 47.382812 18.988281 50.019531 16.152344 50.09375 L 16.175781 49.023438 C 18.488281 48.972656 19.980469 46.734375 20.132812 44.273438 C 20.15625 43.824219 20.179688 43.351562 20.179688 42.90625 C 20.179688 42.132812 20.15625 41.386719 20.082031 40.617188 C 19.359375 40.742188 18.640625 40.816406 17.867188 40.816406 Z M 20.179688 11.515625 C 20.179688 10.148438 20.082031 9.550781 19.683594 8.308594 C 17.222656 9.5 15.652344 12.011719 15.652344 14.75 C 15.652344 16.589844 16.101562 18.058594 16.550781 19.574219 C 18.539062 17.160156 20.179688 14.648438 20.179688 11.515625 Z M 20.179688 11.515625 "/>
<path style=" stroke:none;fill-rule:nonzero;fill:rgb(0%,0%,0%);fill-opacity:1;" d="M 50.269531 18.480469 C 51.636719 18.480469 52.957031 19.175781 52.957031 20.695312 C 52.957031 22.460938 51.589844 23.703125 50.417969 24.398438 C 49.550781 24.921875 48.554688 25.246094 47.535156 25.246094 C 46.167969 25.246094 44.847656 24.550781 44.847656 23.03125 C 44.847656 21.265625 46.214844 20.023438 47.386719 19.324219 C 48.257812 18.804688 49.25 18.480469 50.269531 18.480469 Z M 50.269531 18.480469 "/>
<path style=" stroke:none;fill-rule:nonzero;fill:rgb(0%,0%,0%);fill-opacity:1;" d="M 50.269531 24.699219 C 51.636719 24.699219 52.957031 25.394531 52.957031 26.910156 C 52.957031 28.679688 51.589844 29.921875 50.417969 30.617188 C 49.550781 31.140625 48.554688 31.464844 47.535156 31.464844 C 46.167969 31.464844 44.847656 30.765625 44.847656 29.25 C 44.847656 27.484375 46.214844 26.242188 47.386719 25.542969 C 48.257812 25.023438 49.25 24.699219 50.269531 24.699219 Z M 50.269531 24.699219 "/>
<path style=" stroke:none;fill-rule:nonzero;fill:rgb(0%,0%,0%);fill-opacity:1;" d="M 50.269531 30.917969 C 51.636719 30.917969 52.957031 31.613281 52.957031 33.128906 C 52.957031 34.894531 51.589844 36.140625 50.417969 36.835938 C 49.550781 37.359375 48.554688 37.683594 47.535156 37.683594 C 46.167969 37.683594 44.847656 36.984375 44.847656 35.46875 C 44.847656 33.703125 46.214844 32.457031 47.386719 31.761719 C 48.257812 31.238281 49.25 30.917969 50.269531 30.917969 Z M 50.269531 30.917969 "/>
</g>
</svg>
