<?xml version="1.0" encoding="UTF-8"?>
<svg xmlns="http://www.w3.org/2000/svg" xmlns:xlink="http://www.w3.org/1999/xlink" width="69.629342pt" height="76.975644pt" viewBox="0 0 69.629342 76.975644" version="1.1">
<g id="surface1">
<path style="fill:none;stroke-width:0.1;stroke-linecap:round;stroke-linejoin:round;stroke:rgb(0%,0%,0%);stroke-opacity:1;stroke-miterlimit:4;" d="M 0.049863 -0.000111386 L 8.926349 -0.000111386 " transform="matrix(6.218149,0,0,6.218149,4.561038,57.703818)"/>
<path style="fill:none;stroke-width:0.1;stroke-linecap:round;stroke-linejoin:round;stroke:rgb(0%,0%,0%);stroke-opacity:1;stroke-miterlimit:4;" d="M 0.049863 -0.000208034 L 8.926349 -0.000208034 " transform="matrix(6.218149,0,0,6.218149,4.561038,51.485669)"/>
<path style="fill:none;stroke-width:0.1;stroke-linecap:round;stroke-linejoin:round;stroke:rgb(0%,0%,0%);stroke-opacity:1;stroke-miterlimit:4;" d="M 0.049863 -0.000304683 L 8.926349 -0.000304683 " transform="matrix(6.218149,0,0,6.218149,4.561038,45.26752)"/>
<path style="fill:none;stroke-width:0.1;stroke-linecap:round;stroke-linejoin:round;stroke:rgb(0%,0%,0%);stroke-opacity:1;stroke-miterlimit:4;" d="M 0.049863 0.00022687 L 8.926349 0.00022687 " transform="matrix(6.218149,0,0,6.218149,4.561038,39.049371)"/>
<path style="fill:none;stroke-width:0.1;stroke-linecap:round;stroke-linejoin:round;stroke:rgb(0%,0%,0%);stroke-opacity:1;stroke-miterlimit:4;" d="M 0.049863 0.000130221 L 8.926349 0.000130221 " transform="matrix(6.218149,0,0,6.218149,4.561038,32.831222)"/>
<path style=" stroke:none;fill-rule:nonzero;fill:rgb(0%,0%,0%);fill-opacity:1;" d="M 40.304688 7.335938 L 51.226562 7.335938 C 51.570312 7.335938 51.847656 7.613281 51.847656 7.957031 C 51.847656 8.300781 51.570312 8.582031 51.226562 8.582031 L 40.304688 8.582031 C 39.960938 8.582031 39.683594 8.300781 39.683594 7.957031 C 39.683594 7.613281 39.960938 7.335938 40.304688 7.335938 Z M 40.304688 7.335938 "/>
<path style=" stroke:none;fill-rule:nonzero;fill:rgb(0%,0%,0%);fill-opacity:1;" d="M 32.597656 13.554688 L 51.226562 13.554688 C 51.570312 13.554688 51.847656 13.832031 51.847656 14.175781 C 51.847656 14.519531 51.570312 14.796875 51.226562 14.796875 L 32.597656 14.796875 C 32.253906 14.796875 31.976562 14.519531 31.976562 14.175781 C 31.976562 13.832031 32.253906 13.554688 32.597656 13.554688 Z M 32.597656 13.554688 "/>
<path style=" stroke:none;fill-rule:nonzero;fill:rgb(0%,0%,0%);fill-opacity:1;" d="M 32.597656 19.773438 L 51.226562 19.773438 C 51.570312 19.773438 51.847656 20.050781 51.847656 20.394531 C 51.847656 20.738281 51.570312 21.015625 51.226562 21.015625 L 32.597656 21.015625 C 32.253906 21.015625 31.976562 20.738281 31.976562 20.394531 C 31.976562 20.050781 32.253906 19.773438 32.597656 19.773438 Z M 32.597656 19.773438 "/>
<path style=" stroke:none;fill-rule:nonzero;fill:rgb(0%,0%,0%);fill-opacity:1;" d="M 32.597656 25.992188 L 51.226562 25.992188 C 51.570312 25.992188 51.847656 26.269531 51.847656 26.613281 C 51.847656 26.957031 51.570312 27.234375 51.226562 27.234375 L 32.597656 27.234375 C 32.253906 27.234375 31.976562 26.957031 31.976562 26.613281 C 31.976562 26.269531 32.253906 25.992188 32.597656 25.992188 Z M 32.597656 25.992188 "/>
<path style=" stroke:none;fill-rule:nonzero;fill:rgb(0%,0%,0%);fill-opacity:1;" d="M 30.632812 22.484375 L 30.609375 24.125 L 30.609375 24.398438 C 30.609375 24.945312 30.632812 25.492188 30.707031 26.039062 C 31.828125 25.097656 33.023438 24.050781 33.023438 22.582031 C 33.023438 21.761719 32.671875 20.917969 31.953125 20.917969 C 31.179688 20.917969 30.660156 21.664062 30.632812 22.484375 Z M 29.589844 26.9375 L 29.289062 12.136719 C 29.488281 12.011719 29.738281 11.9375 29.960938 11.9375 C 30.1875 11.9375 30.433594 12.011719 30.632812 12.136719 L 30.460938 20.71875 C 31.082031 20.195312 31.902344 19.871094 32.722656 19.871094 C 34.015625 19.871094 34.9375 21.066406 34.9375 22.410156 C 34.9375 24.398438 32.796875 25.320312 31.28125 26.613281 C 30.90625 26.9375 30.683594 27.558594 30.160156 27.558594 C 29.835938 27.558594 29.589844 27.285156 29.589844 26.9375 Z M 29.589844 26.9375 "/>
<path style=" stroke:none;fill-rule:nonzero;fill:rgb(0%,0%,0%);fill-opacity:1;" d="M 41.957031 9.117188 L 42.269531 9.117188 C 42.40625 9.117188 42.519531 9.226562 42.519531 9.363281 L 42.519531 45.019531 C 42.519531 45.15625 42.40625 45.265625 42.269531 45.265625 L 41.957031 45.265625 C 41.820312 45.265625 41.710938 45.15625 41.710938 45.019531 L 41.710938 9.363281 C 41.710938 9.226562 41.820312 9.117188 41.957031 9.117188 Z M 41.957031 9.117188 "/>
<path style=" stroke:none;fill-rule:nonzero;fill:rgb(0%,0%,0%);fill-opacity:1;" d="M 16.152344 67.28125 L 16.003906 67.28125 C 13.316406 67.28125 11.152344 65.089844 11.152344 62.378906 C 11.152344 60.9375 12.46875 59.816406 13.9375 59.816406 C 15.28125 59.816406 16.300781 60.988281 16.300781 62.378906 C 16.300781 63.671875 15.230469 64.742188 13.9375 64.742188 C 13.664062 64.742188 13.414062 64.691406 13.167969 64.59375 C 13.8125 65.5625 14.859375 66.210938 16.078125 66.210938 L 16.175781 66.210938 Z M 21 56.535156 C 22.691406 55.9375 23.8125 54.171875 23.8125 52.457031 C 23.8125 50.21875 22.171875 48.003906 19.507812 47.730469 C 20.105469 50.613281 20.652344 53.476562 21 56.535156 Z M 11.375 50.789062 C 11.375 54.148438 14.585938 56.933594 17.941406 56.933594 C 18.640625 56.933594 19.308594 56.882812 19.980469 56.785156 C 19.632812 53.625 19.0625 50.691406 18.414062 47.730469 C 16.449219 47.929688 15.332031 49.246094 15.332031 50.691406 C 15.332031 51.785156 15.953125 52.953125 17.34375 53.75 C 17.46875 53.875 17.519531 53.996094 17.519531 54.121094 C 17.519531 54.394531 17.269531 54.667969 16.972656 54.667969 C 16.898438 54.667969 16.824219 54.644531 16.75 54.621094 C 14.757812 53.550781 13.839844 51.757812 13.839844 50.019531 C 13.839844 47.828125 15.28125 45.691406 17.816406 45.117188 C 17.46875 43.675781 17.097656 42.207031 16.675781 40.765625 C 14.011719 43.773438 11.375 46.808594 11.375 50.789062 Z M 17.867188 58.003906 C 13.191406 58.003906 9.585938 53.722656 9.585938 48.699219 C 9.585938 44.296875 12.84375 41.089844 15.753906 37.730469 C 15.28125 36.1875 14.832031 34.621094 14.632812 33.003906 C 14.484375 31.710938 14.460938 30.417969 14.460938 29.125 C 14.460938 26.265625 15.828125 23.554688 18.167969 21.863281 C 18.316406 21.738281 18.515625 21.738281 18.664062 21.863281 C 20.429688 23.953125 21.972656 27.957031 21.972656 30.765625 C 21.972656 34.324219 19.832031 37.109375 17.496094 39.820312 C 18.015625 41.511719 18.464844 43.253906 18.886719 44.96875 C 18.988281 44.96875 19.113281 44.945312 19.210938 44.945312 C 23.066406 44.945312 25.578125 48.128906 25.578125 51.4375 C 25.578125 53.328125 24.757812 55.265625 22.917969 56.660156 C 22.371094 57.082031 21.746094 57.355469 21.101562 57.554688 C 21.175781 58.425781 21.226562 59.296875 21.226562 60.167969 C 21.226562 60.640625 21.199219 61.136719 21.175781 61.609375 C 21 64.570312 18.988281 67.207031 16.152344 67.28125 L 16.175781 66.210938 C 18.488281 66.160156 19.980469 63.921875 20.132812 61.460938 C 20.15625 61.011719 20.179688 60.539062 20.179688 60.089844 C 20.179688 59.320312 20.15625 58.574219 20.082031 57.804688 C 19.359375 57.925781 18.640625 58.003906 17.867188 58.003906 Z M 20.179688 28.703125 C 20.179688 27.335938 20.082031 26.738281 19.683594 25.492188 C 17.222656 26.6875 15.652344 29.199219 15.652344 31.9375 C 15.652344 33.777344 16.101562 35.242188 16.550781 36.761719 C 18.539062 34.347656 20.179688 31.835938 20.179688 28.703125 Z M 20.179688 28.703125 "/>
<path style=" stroke:none;fill-rule:nonzero;fill:rgb(0%,0%,0%);fill-opacity:1;" d="M 47.132812 4.574219 C 48.5 4.574219 49.820312 5.273438 49.820312 6.789062 C 49.820312 8.554688 48.449219 9.800781 47.28125 10.496094 C 46.410156 11.019531 45.417969 11.339844 44.394531 11.339844 C 43.027344 11.339844 41.710938 10.644531 41.710938 9.128906 C 41.710938 7.363281 43.078125 6.117188 44.246094 5.421875 C 45.117188 4.898438 46.113281 4.574219 47.132812 4.574219 Z M 47.132812 4.574219 "/>
<path style=" stroke:none;fill-rule:nonzero;fill:rgb(0%,0%,0%);fill-opacity:1;" d="M 39.425781 7.683594 C 40.792969 7.683594 42.113281 8.382812 42.113281 9.898438 C 42.113281 11.664062 40.746094 12.910156 39.574219 13.605469 C 38.703125 14.128906 37.710938 14.449219 36.691406 14.449219 C 35.320312 14.449219 34.003906 13.753906 34.003906 12.238281 C 34.003906 10.472656 35.371094 9.226562 36.539062 8.53125 C 37.410156 8.007812 38.40625 7.683594 39.425781 7.683594 Z M 39.425781 7.683594 "/>
<path style=" stroke:none;fill-rule:nonzero;fill:rgb(0%,0%,0%);fill-opacity:1;" d="M 47.132812 13.902344 C 48.5 13.902344 49.820312 14.597656 49.820312 16.117188 C 49.820312 17.882812 48.449219 19.125 47.28125 19.824219 C 46.410156 20.34375 45.417969 20.667969 44.394531 20.667969 C 43.027344 20.667969 41.710938 19.972656 41.710938 18.453125 C 41.710938 16.6875 43.078125 15.445312 44.246094 14.75 C 45.117188 14.226562 46.113281 13.902344 47.132812 13.902344 Z M 47.132812 13.902344 "/>
<path style=" stroke:none;fill-rule:nonzero;fill:rgb(0%,0%,0%);fill-opacity:1;" d="M 47.132812 20.121094 C 48.5 20.121094 49.820312 20.816406 49.820312 22.335938 C 49.820312 24.101562 48.449219 25.34375 47.28125 26.039062 C 46.410156 26.5625 45.417969 26.886719 44.394531 26.886719 C 43.027344 26.886719 41.710938 26.191406 41.710938 24.671875 C 41.710938 22.90625 43.078125 21.664062 44.246094 20.96875 C 45.117188 20.445312 46.113281 20.121094 47.132812 20.121094 Z M 47.132812 20.121094 "/>
</g>
</svg>
