<?xml version="1.0" encoding="UTF-8"?>
<svg xmlns="http://www.w3.org/2000/svg" xmlns:xlink="http://www.w3.org/1999/xlink" width="75.798219pt" height="65.790898pt" viewBox="0 0 75.798219 65.790898" version="1.1">
<g id="surface1">
<path style="fill:none;stroke-width:0.1;stroke-linecap:round;stroke-linejoin:round;stroke:rgb(0%,0%,0%);stroke-opacity:1;stroke-miterlimit:4;" d="M 0.049863 0.00024064 L 9.855459 0.00024064 " transform="matrix(6.218149,0,0,6.218149,4.561038,47.232879)"/>
<path style="fill:none;stroke-width:0.1;stroke-linecap:round;stroke-linejoin:round;stroke:rgb(0%,0%,0%);stroke-opacity:1;stroke-miterlimit:4;" d="M 0.049863 0.000143992 L 9.855459 0.000143992 " transform="matrix(6.218149,0,0,6.218149,4.561038,41.01473)"/>
<path style="fill:none;stroke-width:0.1;stroke-linecap:round;stroke-linejoin:round;stroke:rgb(0%,0%,0%);stroke-opacity:1;stroke-miterlimit:4;" d="M 0.049863 0.000047343 L 9.855459 0.000047343 " transform="matrix(6.218149,0,0,6.218149,4.561038,34.796581)"/>
<path style="fill:none;stroke-width:0.1;stroke-linecap:round;stroke-linejoin:round;stroke:rgb(0%,0%,0%);stroke-opacity:1;stroke-miterlimit:4;" d="M 0.049863 -0.0000493056 L 9.855459 -0.0000493056 " transform="matrix(6.218149,0,0,6.218149,4.561038,28.578432)"/>
<path style="fill:none;stroke-width:0.1;stroke-linecap:round;stroke-linejoin:round;stroke:rgb(0%,0%,0%);stroke-opacity:1;stroke-miterlimit:4;" d="M 0.049863 -0.000145716 L 9.855459 -0.000145716 " transform="matrix(6.218149,0,0,6.218149,4.561038,22.360281)"/>
<path style=" stroke:none;fill-rule:nonzero;fill:rgb(0%,0%,0%);fill-opacity:1;" d="M 47.019531 15.519531 L 57 15.519531 C 57.34375 15.519531 57.621094 15.796875 57.621094 16.140625 C 57.621094 16.484375 57.34375 16.765625 57 16.765625 L 47.019531 16.765625 C 46.675781 16.765625 46.398438 16.484375 46.398438 16.140625 C 46.398438 15.796875 46.675781 15.519531 47.019531 15.519531 Z M 47.019531 15.519531 "/>
<path style=" stroke:none;fill-rule:nonzero;fill:rgb(0%,0%,0%);fill-opacity:1;" d="M 47.734375 17.300781 L 48.042969 17.300781 C 48.183594 17.300781 48.292969 17.410156 48.292969 17.546875 L 48.292969 50.09375 C 48.292969 50.230469 48.183594 50.34375 48.042969 50.34375 L 47.734375 50.34375 C 47.597656 50.34375 47.484375 50.230469 47.484375 50.09375 L 47.484375 17.546875 C 47.484375 17.410156 47.597656 17.300781 47.734375 17.300781 Z M 47.734375 17.300781 "/>
<path style=" stroke:none;fill-rule:nonzero;fill:rgb(0%,0%,0%);fill-opacity:1;" d="M 41.003906 15.121094 L 40.980469 16.765625 L 40.980469 17.039062 C 40.980469 17.585938 41.003906 18.132812 41.082031 18.679688 C 42.199219 17.734375 43.394531 16.6875 43.394531 15.222656 C 43.394531 14.402344 43.046875 13.554688 42.324219 13.554688 C 41.554688 13.554688 41.03125 14.300781 41.003906 15.121094 Z M 39.960938 19.574219 L 39.664062 4.773438 C 39.863281 4.652344 40.109375 4.578125 40.335938 4.578125 C 40.558594 4.578125 40.804688 4.652344 41.003906 4.773438 L 40.832031 13.355469 C 41.453125 12.835938 42.273438 12.511719 43.09375 12.511719 C 44.386719 12.511719 45.308594 13.703125 45.308594 15.046875 C 45.308594 17.039062 43.167969 17.957031 41.652344 19.25 C 41.277344 19.574219 41.054688 20.195312 40.53125 20.195312 C 40.210938 20.195312 39.960938 19.921875 39.960938 19.574219 Z M 39.960938 19.574219 "/>
<path style=" stroke:none;fill-rule:nonzero;fill:rgb(0%,0%,0%);fill-opacity:1;" d="M 30.632812 21.339844 L 30.609375 22.980469 L 30.609375 23.253906 C 30.609375 23.804688 30.632812 24.351562 30.707031 24.898438 C 31.828125 23.953125 33.023438 22.90625 33.023438 21.441406 C 33.023438 20.621094 32.671875 19.773438 31.953125 19.773438 C 31.179688 19.773438 30.660156 20.519531 30.632812 21.339844 Z M 29.589844 25.792969 L 29.289062 10.992188 C 29.488281 10.871094 29.738281 10.792969 29.960938 10.792969 C 30.1875 10.792969 30.433594 10.871094 30.632812 10.992188 L 30.460938 19.574219 C 31.082031 19.050781 31.902344 18.730469 32.722656 18.730469 C 34.015625 18.730469 34.9375 19.921875 34.9375 21.265625 C 34.9375 23.253906 32.796875 24.175781 31.28125 25.46875 C 30.90625 25.792969 30.683594 26.414062 30.160156 26.414062 C 29.835938 26.414062 29.589844 26.140625 29.589844 25.792969 Z M 29.589844 25.792969 "/>
<path style=" stroke:none;fill-rule:nonzero;fill:rgb(0%,0%,0%);fill-opacity:1;" d="M 37.523438 27.558594 L 37.5 29.199219 L 37.5 29.472656 C 37.5 30.019531 37.523438 30.566406 37.597656 31.117188 C 38.71875 30.171875 39.910156 29.125 39.910156 27.65625 C 39.910156 26.835938 39.5625 25.992188 38.839844 25.992188 C 38.070312 25.992188 37.546875 26.738281 37.523438 27.558594 Z M 36.480469 32.011719 L 36.179688 17.210938 C 36.378906 17.085938 36.628906 17.011719 36.851562 17.011719 C 37.074219 17.011719 37.324219 17.085938 37.523438 17.210938 L 37.347656 25.792969 C 37.972656 25.269531 38.792969 24.945312 39.613281 24.945312 C 40.90625 24.945312 41.828125 26.140625 41.828125 27.484375 C 41.828125 29.472656 39.6875 30.394531 38.171875 31.6875 C 37.796875 32.011719 37.574219 32.632812 37.050781 32.632812 C 36.726562 32.632812 36.480469 32.359375 36.480469 32.011719 Z M 36.480469 32.011719 "/>
<path style=" stroke:none;fill-rule:nonzero;fill:rgb(0%,0%,0%);fill-opacity:1;" d="M 16.152344 56.808594 L 16.003906 56.808594 C 13.316406 56.808594 11.152344 54.621094 11.152344 51.910156 C 11.152344 50.464844 12.46875 49.347656 13.9375 49.347656 C 15.28125 49.347656 16.300781 50.515625 16.300781 51.910156 C 16.300781 53.203125 15.230469 54.273438 13.9375 54.273438 C 13.664062 54.273438 13.414062 54.222656 13.167969 54.121094 C 13.8125 55.09375 14.859375 55.738281 16.078125 55.738281 L 16.175781 55.738281 Z M 21 46.0625 C 22.691406 45.46875 23.8125 43.699219 23.8125 41.984375 C 23.8125 39.746094 22.171875 37.53125 19.507812 37.257812 C 20.105469 40.144531 20.652344 43.003906 21 46.0625 Z M 11.375 40.316406 C 11.375 43.675781 14.585938 46.460938 17.941406 46.460938 C 18.640625 46.460938 19.308594 46.410156 19.980469 46.3125 C 19.632812 43.152344 19.0625 40.21875 18.414062 37.257812 C 16.449219 37.457031 15.332031 38.777344 15.332031 40.21875 C 15.332031 41.3125 15.953125 42.480469 17.34375 43.277344 C 17.46875 43.402344 17.519531 43.527344 17.519531 43.652344 C 17.519531 43.925781 17.269531 44.199219 16.972656 44.199219 C 16.898438 44.199219 16.824219 44.171875 16.75 44.148438 C 14.757812 43.078125 13.839844 41.289062 13.839844 39.546875 C 13.839844 37.359375 15.28125 35.21875 17.816406 34.648438 C 17.46875 33.203125 17.097656 31.738281 16.675781 30.292969 C 14.011719 33.304688 11.375 36.339844 11.375 40.316406 Z M 17.867188 47.53125 C 13.191406 47.53125 9.585938 43.253906 9.585938 38.230469 C 9.585938 33.828125 12.84375 30.617188 15.753906 27.261719 C 15.28125 25.71875 14.832031 24.152344 14.632812 22.535156 C 14.484375 21.242188 14.460938 19.949219 14.460938 18.652344 C 14.460938 15.792969 15.828125 13.082031 18.167969 11.390625 C 18.316406 11.265625 18.515625 11.265625 18.664062 11.390625 C 20.429688 13.480469 21.972656 17.484375 21.972656 20.296875 C 21.972656 23.851562 19.832031 26.636719 17.496094 29.347656 C 18.015625 31.039062 18.464844 32.78125 18.886719 34.5 C 18.988281 34.5 19.113281 34.472656 19.210938 34.472656 C 23.066406 34.472656 25.578125 37.65625 25.578125 40.964844 C 25.578125 42.855469 24.757812 44.796875 22.917969 46.1875 C 22.371094 46.609375 21.746094 46.882812 21.101562 47.082031 C 21.175781 47.953125 21.226562 48.824219 21.226562 49.695312 C 21.226562 50.167969 21.199219 50.664062 21.175781 51.136719 C 21 54.097656 18.988281 56.734375 16.152344 56.808594 L 16.175781 55.738281 C 18.488281 55.691406 19.980469 53.449219 20.132812 50.988281 C 20.15625 50.539062 20.179688 50.066406 20.179688 49.621094 C 20.179688 48.847656 20.15625 48.101562 20.082031 47.332031 C 19.359375 47.457031 18.640625 47.53125 17.867188 47.53125 Z M 20.179688 18.230469 C 20.179688 16.863281 20.082031 16.265625 19.683594 15.023438 C 17.222656 16.214844 15.652344 18.730469 15.652344 21.464844 C 15.652344 23.304688 16.101562 24.773438 16.550781 26.289062 C 18.539062 23.878906 20.179688 21.367188 20.179688 18.230469 Z M 20.179688 18.230469 "/>
<path style=" stroke:none;fill-rule:nonzero;fill:rgb(0%,0%,0%);fill-opacity:1;" d="M 52.90625 12.757812 C 54.273438 12.757812 55.59375 13.457031 55.59375 14.972656 C 55.59375 16.738281 54.226562 17.984375 53.054688 18.679688 C 52.1875 19.203125 51.191406 19.523438 50.171875 19.523438 C 48.804688 19.523438 47.484375 18.828125 47.484375 17.3125 C 47.484375 15.546875 48.851562 14.300781 50.023438 13.605469 C 50.890625 13.082031 51.886719 12.757812 52.90625 12.757812 Z M 52.90625 12.757812 "/>
<path style=" stroke:none;fill-rule:nonzero;fill:rgb(0%,0%,0%);fill-opacity:1;" d="M 52.90625 18.976562 C 54.273438 18.976562 55.59375 19.675781 55.59375 21.191406 C 55.59375 22.957031 54.226562 24.199219 53.054688 24.898438 C 52.1875 25.417969 51.191406 25.742188 50.171875 25.742188 C 48.804688 25.742188 47.484375 25.046875 47.484375 23.527344 C 47.484375 21.761719 48.851562 20.519531 50.023438 19.824219 C 50.890625 19.300781 51.886719 18.976562 52.90625 18.976562 Z M 52.90625 18.976562 "/>
<path style=" stroke:none;fill-rule:nonzero;fill:rgb(0%,0%,0%);fill-opacity:1;" d="M 52.90625 25.195312 C 54.273438 25.195312 55.59375 25.890625 55.59375 27.410156 C 55.59375 29.175781 54.226562 30.417969 53.054688 31.117188 C 52.1875 31.636719 51.191406 31.960938 50.171875 31.960938 C 48.804688 31.960938 47.484375 31.265625 47.484375 29.746094 C 47.484375 27.980469 48.851562 26.738281 50.023438 26.042969 C 50.890625 25.519531 51.886719 25.195312 52.90625 25.195312 Z M 52.90625 25.195312 "/>
</g>
</svg>
