<?xml version="1.0" encoding="UTF-8"?>
<svg xmlns="http://www.w3.org/2000/svg" xmlns:xlink="http://www.w3.org/1999/xlink" width="83.953656pt" height="63.311523pt" viewBox="0 0 83.953656 63.311523" version="1.1">
<g id="surface1">
<path style="fill:none;stroke-width:0.1;stroke-linecap:round;stroke-linejoin:round;stroke:rgb(0%,0%,0%);stroke-opacity:1;stroke-miterlimit:4;" d="M 0.049863 0.000192316 L 11.082964 0.000192316 " transform="matrix(6.218149,0,0,6.218149,4.561038,44.123804)"/>
<path style="fill:none;stroke-width:0.1;stroke-linecap:round;stroke-linejoin:round;stroke:rgb(0%,0%,0%);stroke-opacity:1;stroke-miterlimit:4;" d="M 0.049863 0.0000956673 L 11.082964 0.0000956673 " transform="matrix(6.218149,0,0,6.218149,4.561038,37.905655)"/>
<path style="fill:none;stroke-width:0.1;stroke-linecap:round;stroke-linejoin:round;stroke:rgb(0%,0%,0%);stroke-opacity:1;stroke-miterlimit:4;" d="M 0.049863 -0.000000981293 L 11.082964 -0.000000981293 " transform="matrix(6.218149,0,0,6.218149,4.561038,31.687506)"/>
<path style="fill:none;stroke-width:0.1;stroke-linecap:round;stroke-linejoin:round;stroke:rgb(0%,0%,0%);stroke-opacity:1;stroke-miterlimit:4;" d="M 0.049863 -0.0000976299 L 11.082964 -0.0000976299 " transform="matrix(6.218149,0,0,6.218149,4.561038,25.469357)"/>
<path style="fill:none;stroke-width:0.1;stroke-linecap:round;stroke-linejoin:round;stroke:rgb(0%,0%,0%);stroke-opacity:1;stroke-miterlimit:4;" d="M 0.049863 -0.00019404 L 11.082964 -0.00019404 " transform="matrix(6.218149,0,0,6.218149,4.561038,19.251207)"/>
<path style=" stroke:none;fill-rule:nonzero;fill:rgb(0%,0%,0%);fill-opacity:1;" d="M 55.371094 17.300781 L 55.679688 17.300781 C 55.816406 17.300781 55.929688 17.410156 55.929688 17.546875 L 55.929688 54.238281 C 55.929688 54.375 55.816406 54.488281 55.679688 54.488281 L 55.371094 54.488281 C 55.230469 54.488281 55.121094 54.375 55.121094 54.238281 L 55.121094 17.546875 C 55.121094 17.410156 55.230469 17.300781 55.371094 17.300781 Z M 55.371094 17.300781 "/>
<path style=" stroke:none;fill-rule:nonzero;fill:rgb(0%,0%,0%);fill-opacity:1;" d="M 48.667969 15.121094 L 48.640625 16.765625 C 48.640625 16.863281 48.617188 16.9375 48.617188 17.039062 C 48.617188 17.585938 48.640625 18.132812 48.714844 18.679688 C 49.808594 17.757812 50.878906 16.640625 50.878906 15.222656 C 50.878906 14.402344 50.605469 13.554688 49.886719 13.554688 C 49.140625 13.554688 48.691406 14.300781 48.667969 15.121094 Z M 48.640625 4.773438 L 48.492188 13.355469 C 49.089844 12.835938 49.859375 12.511719 50.65625 12.511719 C 51.972656 12.511719 52.945312 13.679688 52.945312 15.023438 C 52.945312 17.011719 50.804688 17.957031 49.289062 19.25 C 48.914062 19.574219 48.714844 20.195312 48.195312 20.195312 C 47.871094 20.195312 47.597656 19.921875 47.597656 19.574219 L 47.546875 16.9375 C 46.875 17.785156 45.90625 18.480469 45.109375 19.25 C 44.785156 19.574219 44.636719 20.195312 44.140625 20.195312 C 43.816406 20.195312 43.566406 19.898438 43.566406 19.550781 L 43.269531 4.773438 C 43.46875 4.652344 43.714844 4.578125 43.941406 4.578125 C 44.164062 4.578125 44.414062 4.652344 44.613281 4.773438 L 44.4375 13.355469 C 44.859375 12.835938 45.507812 12.511719 46.179688 12.511719 C 46.675781 12.511719 47.125 12.710938 47.472656 13.03125 L 47.296875 4.773438 C 47.496094 4.652344 47.746094 4.578125 47.96875 4.578125 C 48.195312 4.578125 48.441406 4.652344 48.640625 4.773438 Z M 44.363281 16.789062 L 44.363281 17.039062 C 44.363281 17.609375 44.386719 18.15625 44.464844 18.730469 C 45.433594 17.785156 46.230469 16.589844 46.230469 15.222656 C 46.230469 14.425781 46.078125 13.554688 45.40625 13.554688 C 44.738281 13.554688 44.4375 14.328125 44.414062 15.097656 Z M 44.363281 16.789062 "/>
<path style=" stroke:none;fill-rule:nonzero;fill:rgb(0%,0%,0%);fill-opacity:1;" d="M 37.960938 21.339844 L 37.9375 22.980469 L 37.9375 23.253906 C 37.9375 23.804688 37.960938 24.351562 38.035156 24.898438 C 39.15625 23.953125 40.347656 22.90625 40.347656 21.441406 C 40.347656 20.621094 40 19.773438 39.28125 19.773438 C 38.507812 19.773438 37.984375 20.519531 37.960938 21.339844 Z M 36.917969 25.792969 L 36.617188 10.992188 C 36.816406 10.871094 37.066406 10.792969 37.289062 10.792969 C 37.511719 10.792969 37.761719 10.871094 37.960938 10.992188 L 37.785156 19.574219 C 38.410156 19.050781 39.230469 18.730469 40.050781 18.730469 C 41.34375 18.730469 42.265625 19.921875 42.265625 21.265625 C 42.265625 23.253906 40.125 24.175781 38.609375 25.46875 C 38.234375 25.792969 38.011719 26.414062 37.488281 26.414062 C 37.164062 26.414062 36.917969 26.140625 36.917969 25.792969 Z M 36.917969 25.792969 "/>
<path style=" stroke:none;fill-rule:nonzero;fill:rgb(0%,0%,0%);fill-opacity:1;" d="M 31.371094 27.558594 L 31.34375 29.199219 L 31.34375 29.472656 C 31.34375 30.019531 31.371094 30.566406 31.445312 31.117188 C 32.5625 30.171875 33.757812 29.125 33.757812 27.65625 C 33.757812 26.835938 33.410156 25.992188 32.6875 25.992188 C 31.917969 25.992188 31.394531 26.738281 31.371094 27.558594 Z M 30.324219 32.011719 L 30.027344 17.210938 C 30.226562 17.085938 30.472656 17.011719 30.699219 17.011719 C 30.921875 17.011719 31.171875 17.085938 31.371094 17.210938 L 31.195312 25.792969 C 31.816406 25.269531 32.636719 24.945312 33.460938 24.945312 C 34.753906 24.945312 35.671875 26.140625 35.671875 27.484375 C 35.671875 29.472656 33.535156 30.394531 32.015625 31.6875 C 31.644531 32.011719 31.417969 32.632812 30.898438 32.632812 C 30.574219 32.632812 30.324219 32.359375 30.324219 32.011719 Z M 30.324219 32.011719 "/>
<path style=" stroke:none;fill-rule:nonzero;fill:rgb(0%,0%,0%);fill-opacity:1;" d="M 48.640625 33.777344 L 48.617188 35.417969 L 48.617188 35.691406 C 48.617188 36.238281 48.640625 36.785156 48.714844 37.332031 C 49.835938 36.386719 51.027344 35.34375 51.027344 33.875 C 51.027344 33.054688 50.679688 32.210938 49.960938 32.210938 C 49.1875 32.210938 48.667969 32.957031 48.640625 33.777344 Z M 47.597656 38.230469 L 47.296875 23.429688 C 47.496094 23.304688 47.746094 23.230469 47.96875 23.230469 C 48.195312 23.230469 48.441406 23.304688 48.640625 23.429688 L 48.46875 32.011719 C 49.089844 31.488281 49.910156 31.164062 50.730469 31.164062 C 52.023438 31.164062 52.945312 32.359375 52.945312 33.703125 C 52.945312 35.691406 50.804688 36.613281 49.289062 37.90625 C 48.914062 38.230469 48.691406 38.851562 48.167969 38.851562 C 47.84375 38.851562 47.597656 38.578125 47.597656 38.230469 Z M 47.597656 38.230469 "/>
<path style=" stroke:none;fill-rule:nonzero;fill:rgb(0%,0%,0%);fill-opacity:1;" d="M 23.390625 28.578125 C 23.390625 27.882812 23.960938 27.308594 24.65625 27.308594 C 25.355469 27.308594 25.925781 27.882812 25.925781 28.578125 C 25.925781 29.273438 25.355469 29.847656 24.65625 29.847656 C 23.960938 29.847656 23.390625 29.273438 23.390625 28.578125 Z M 23.390625 22.359375 C 23.390625 21.664062 23.960938 21.089844 24.65625 21.089844 C 25.355469 21.089844 25.925781 21.664062 25.925781 22.359375 C 25.925781 23.058594 25.355469 23.628906 24.65625 23.628906 C 23.960938 23.628906 23.390625 23.058594 23.390625 22.359375 Z M 15.304688 18.929688 C 19.585938 18.929688 22.59375 21.117188 22.59375 25.171875 C 22.59375 31.710938 16.050781 35.46875 9.757812 38.128906 C 9.683594 38.203125 9.609375 38.230469 9.535156 38.230469 C 9.363281 38.230469 9.210938 38.078125 9.210938 37.90625 C 9.210938 37.832031 9.238281 37.757812 9.3125 37.683594 C 14.335938 34.746094 19.558594 31.089844 19.558594 25.417969 C 19.558594 22.433594 17.992188 19.574219 15.304688 19.574219 C 13.464844 19.574219 12.097656 20.917969 11.476562 22.707031 C 11.75 22.585938 12.023438 22.507812 12.320312 22.507812 C 13.6875 22.507812 14.808594 23.628906 14.808594 24.996094 C 14.808594 26.4375 13.714844 27.632812 12.320312 27.632812 C 10.828125 27.632812 9.535156 26.464844 9.535156 24.996094 C 9.535156 21.6875 12.074219 18.929688 15.304688 18.929688 Z M 15.304688 18.929688 "/>
<path style=" stroke:none;fill-rule:nonzero;fill:rgb(0%,0%,0%);fill-opacity:1;" d="M 60.542969 12.757812 C 61.910156 12.757812 63.230469 13.457031 63.230469 14.972656 C 63.230469 16.738281 61.859375 17.984375 60.691406 18.679688 C 59.820312 19.203125 58.828125 19.523438 57.808594 19.523438 C 56.4375 19.523438 55.121094 18.828125 55.121094 17.3125 C 55.121094 15.546875 56.488281 14.300781 57.65625 13.605469 C 58.527344 13.082031 59.523438 12.757812 60.542969 12.757812 Z M 60.542969 12.757812 "/>
<path style=" stroke:none;fill-rule:nonzero;fill:rgb(0%,0%,0%);fill-opacity:1;" d="M 60.542969 18.976562 C 61.910156 18.976562 63.230469 19.675781 63.230469 21.191406 C 63.230469 22.957031 61.859375 24.199219 60.691406 24.898438 C 59.820312 25.417969 58.828125 25.742188 57.808594 25.742188 C 56.4375 25.742188 55.121094 25.046875 55.121094 23.527344 C 55.121094 21.761719 56.488281 20.519531 57.65625 19.824219 C 58.527344 19.300781 59.523438 18.976562 60.542969 18.976562 Z M 60.542969 18.976562 "/>
<path style=" stroke:none;fill-rule:nonzero;fill:rgb(0%,0%,0%);fill-opacity:1;" d="M 60.542969 25.195312 C 61.910156 25.195312 63.230469 25.890625 63.230469 27.410156 C 63.230469 29.175781 61.859375 30.417969 60.691406 31.117188 C 59.820312 31.636719 58.828125 31.960938 57.808594 31.960938 C 56.4375 31.960938 55.121094 31.265625 55.121094 29.746094 C 55.121094 27.980469 56.488281 26.738281 57.65625 26.042969 C 58.527344 25.519531 59.523438 25.195312 60.542969 25.195312 Z M 60.542969 25.195312 "/>
<path style=" stroke:none;fill-rule:nonzero;fill:rgb(0%,0%,0%);fill-opacity:1;" d="M 60.542969 31.414062 C 61.910156 31.414062 63.230469 32.109375 63.230469 33.628906 C 63.230469 35.394531 61.859375 36.636719 60.691406 37.332031 C 59.820312 37.855469 58.828125 38.179688 57.808594 38.179688 C 56.4375 38.179688 55.121094 37.484375 55.121094 35.964844 C 55.121094 34.199219 56.488281 32.957031 57.65625 32.257812 C 58.527344 31.738281 59.523438 31.414062 60.542969 31.414062 Z M 60.542969 31.414062 "/>
</g>
</svg>
