<?xml version="1.0" encoding="UTF-8"?>
<svg xmlns="http://www.w3.org/2000/svg" xmlns:xlink="http://www.w3.org/1999/xlink" width="68.472344pt" height="56.784653pt" viewBox="0 0 68.472344 56.784653" version="1.1">
<g id="surface1">
<path style="fill:none;stroke-width:0.1;stroke-linecap:round;stroke-linejoin:round;stroke:rgb(0%,0%,0%);stroke-opacity:1;stroke-miterlimit:4;" d="M 0.049863 0.0000610068 L 8.752337 0.0000610068 " transform="matrix(6.218149,0,0,6.218149,4.561038,32.409777)"/>
<path style="fill:none;stroke-width:0.1;stroke-linecap:round;stroke-linejoin:round;stroke:rgb(0%,0%,0%);stroke-opacity:1;stroke-miterlimit:4;" d="M 0.049863 -0.0000356418 L 8.752337 -0.0000356418 " transform="matrix(6.218149,0,0,6.218149,4.561038,26.191628)"/>
<path style="fill:none;stroke-width:0.1;stroke-linecap:round;stroke-linejoin:round;stroke:rgb(0%,0%,0%);stroke-opacity:1;stroke-miterlimit:4;" d="M 0.049863 -0.00013229 L 8.752337 -0.00013229 " transform="matrix(6.218149,0,0,6.218149,4.561038,19.973479)"/>
<path style="fill:none;stroke-width:0.1;stroke-linecap:round;stroke-linejoin:round;stroke:rgb(0%,0%,0%);stroke-opacity:1;stroke-miterlimit:4;" d="M 0.049863 -0.000228939 L 8.752337 -0.000228939 " transform="matrix(6.218149,0,0,6.218149,4.561038,13.75533)"/>
<path style="fill:none;stroke-width:0.1;stroke-linecap:round;stroke-linejoin:round;stroke:rgb(0%,0%,0%);stroke-opacity:1;stroke-miterlimit:4;" d="M 0.049863 0.000302495 L 8.752337 0.000302495 " transform="matrix(6.218149,0,0,6.218149,4.561038,7.537182)"/>
<path style=" stroke:none;fill-rule:nonzero;fill:rgb(0%,0%,0%);fill-opacity:1;" d="M 39.21875 38.007812 L 50.140625 38.007812 C 50.484375 38.007812 50.761719 38.285156 50.761719 38.628906 C 50.761719 38.972656 50.484375 39.25 50.140625 39.25 L 39.21875 39.25 C 38.878906 39.25 38.597656 38.972656 38.597656 38.628906 C 38.597656 38.285156 38.878906 38.007812 39.21875 38.007812 Z M 39.21875 38.007812 "/>
<path style=" stroke:none;fill-rule:nonzero;fill:rgb(0%,0%,0%);fill-opacity:1;" d="M 39.21875 44.222656 L 50.140625 44.222656 C 50.484375 44.222656 50.761719 44.503906 50.761719 44.847656 C 50.761719 45.191406 50.484375 45.46875 50.140625 45.46875 L 39.21875 45.46875 C 38.878906 45.46875 38.597656 45.191406 38.597656 44.847656 C 38.597656 44.503906 38.878906 44.222656 39.21875 44.222656 Z M 39.21875 44.222656 "/>
<path style=" stroke:none;fill-rule:nonzero;fill:rgb(0%,0%,0%);fill-opacity:1;" d="M 48.175781 4.429688 L 48.488281 4.429688 C 48.625 4.429688 48.734375 4.539062 48.734375 4.675781 L 48.734375 43.441406 C 48.734375 43.578125 48.625 43.6875 48.488281 43.6875 L 48.175781 43.6875 C 48.039062 43.6875 47.925781 43.578125 47.925781 43.441406 L 47.925781 4.675781 C 47.925781 4.539062 48.039062 4.429688 48.175781 4.429688 Z M 48.175781 4.429688 "/>
<path style=" stroke:none;fill-rule:nonzero;fill:rgb(0%,0%,0%);fill-opacity:1;" d="M 23.390625 16.863281 C 23.390625 16.167969 23.960938 15.597656 24.65625 15.597656 C 25.355469 15.597656 25.925781 16.167969 25.925781 16.863281 C 25.925781 17.5625 25.355469 18.132812 24.65625 18.132812 C 23.960938 18.132812 23.390625 17.5625 23.390625 16.863281 Z M 23.390625 10.644531 C 23.390625 9.949219 23.960938 9.378906 24.65625 9.378906 C 25.355469 9.378906 25.925781 9.949219 25.925781 10.644531 C 25.925781 11.34375 25.355469 11.914062 24.65625 11.914062 C 23.960938 11.914062 23.390625 11.34375 23.390625 10.644531 Z M 15.304688 7.214844 C 19.585938 7.214844 22.59375 9.402344 22.59375 13.457031 C 22.59375 20 16.050781 23.753906 9.757812 26.414062 C 9.683594 26.488281 9.609375 26.515625 9.535156 26.515625 C 9.363281 26.515625 9.210938 26.367188 9.210938 26.191406 C 9.210938 26.117188 9.238281 26.042969 9.3125 25.96875 C 14.335938 23.03125 19.558594 19.375 19.558594 13.707031 C 19.558594 10.722656 17.992188 7.859375 15.304688 7.859375 C 13.464844 7.859375 12.097656 9.203125 11.476562 10.996094 C 11.75 10.871094 12.023438 10.796875 12.320312 10.796875 C 13.6875 10.796875 14.808594 11.914062 14.808594 13.28125 C 14.808594 14.726562 13.714844 15.917969 12.320312 15.917969 C 10.828125 15.917969 9.535156 14.75 9.535156 13.28125 C 9.535156 9.976562 12.074219 7.214844 15.304688 7.214844 Z M 15.304688 7.214844 "/>
<path style=" stroke:none;fill-rule:nonzero;fill:rgb(0%,0%,0%);fill-opacity:1;" d="M 46.046875 22.808594 C 47.417969 22.808594 48.734375 23.503906 48.734375 25.023438 C 48.734375 26.789062 47.367188 28.03125 46.199219 28.730469 C 45.328125 29.25 44.332031 29.574219 43.3125 29.574219 C 41.945312 29.574219 40.625 28.878906 40.625 27.359375 C 40.625 25.59375 41.996094 24.351562 43.164062 23.65625 C 44.035156 23.132812 45.027344 22.808594 46.046875 22.808594 Z M 46.046875 22.808594 "/>
<path style=" stroke:none;fill-rule:nonzero;fill:rgb(0%,0%,0%);fill-opacity:1;" d="M 46.046875 29.027344 C 47.417969 29.027344 48.734375 29.722656 48.734375 31.242188 C 48.734375 33.007812 47.367188 34.25 46.199219 34.945312 C 45.328125 35.46875 44.332031 35.792969 43.3125 35.792969 C 41.945312 35.792969 40.625 35.097656 40.625 33.578125 C 40.625 31.8125 41.996094 30.570312 43.164062 29.871094 C 44.035156 29.351562 45.027344 29.027344 46.046875 29.027344 Z M 46.046875 29.027344 "/>
<path style=" stroke:none;fill-rule:nonzero;fill:rgb(0%,0%,0%);fill-opacity:1;" d="M 46.046875 35.246094 C 47.417969 35.246094 48.734375 35.941406 48.734375 37.457031 C 48.734375 39.226562 47.367188 40.46875 46.199219 41.164062 C 45.328125 41.6875 44.332031 42.011719 43.3125 42.011719 C 41.945312 42.011719 40.625 41.3125 40.625 39.796875 C 40.625 38.03125 41.996094 36.789062 43.164062 36.089844 C 44.035156 35.570312 45.027344 35.246094 46.046875 35.246094 Z M 46.046875 35.246094 "/>
<path style=" stroke:none;fill-rule:nonzero;fill:rgb(0%,0%,0%);fill-opacity:1;" d="M 46.046875 41.464844 C 47.417969 41.464844 48.734375 42.160156 48.734375 43.675781 C 48.734375 45.441406 47.367188 46.6875 46.199219 47.382812 C 45.328125 47.90625 44.332031 48.230469 43.3125 48.230469 C 41.945312 48.230469 40.625 47.53125 40.625 46.015625 C 40.625 44.25 41.996094 43.003906 43.164062 42.308594 C 44.035156 41.785156 45.027344 41.464844 46.046875 41.464844 Z M 46.046875 41.464844 "/>
</g>
</svg>
