<?xml version="1.0" encoding="UTF-8"?>
<svg xmlns="http://www.w3.org/2000/svg" xmlns:xlink="http://www.w3.org/1999/xlink" width="72.982108pt" height="74.949903pt" viewBox="0 0 72.982108 74.949903" version="1.1">
<g id="surface1">
<path style="fill:none;stroke-width:0.1;stroke-linecap:round;stroke-linejoin:round;stroke:rgb(0%,0%,0%);stroke-opacity:1;stroke-miterlimit:4;" d="M 0.049863 -0.000287501 L 9.431423 -0.000287501 " transform="matrix(6.218149,0,0,6.218149,4.561038,40.517413)"/>
<path style="fill:none;stroke-width:0.1;stroke-linecap:round;stroke-linejoin:round;stroke:rgb(0%,0%,0%);stroke-opacity:1;stroke-miterlimit:4;" d="M 0.049863 0.000244052 L 9.431423 0.000244052 " transform="matrix(6.218149,0,0,6.218149,4.561038,34.299264)"/>
<path style="fill:none;stroke-width:0.1;stroke-linecap:round;stroke-linejoin:round;stroke:rgb(0%,0%,0%);stroke-opacity:1;stroke-miterlimit:4;" d="M 0.049863 0.000147403 L 9.431423 0.000147403 " transform="matrix(6.218149,0,0,6.218149,4.561038,28.081115)"/>
<path style="fill:none;stroke-width:0.1;stroke-linecap:round;stroke-linejoin:round;stroke:rgb(0%,0%,0%);stroke-opacity:1;stroke-miterlimit:4;" d="M 0.049863 0.0000507548 L 9.431423 0.0000507548 " transform="matrix(6.218149,0,0,6.218149,4.561038,21.862966)"/>
<path style="fill:none;stroke-width:0.1;stroke-linecap:round;stroke-linejoin:round;stroke:rgb(0%,0%,0%);stroke-opacity:1;stroke-miterlimit:4;" d="M 0.049863 -0.0000458938 L 9.431423 -0.0000458938 " transform="matrix(6.218149,0,0,6.218149,4.561038,15.644817)"/>
<path style=" stroke:none;fill-rule:nonzero;fill:rgb(0%,0%,0%);fill-opacity:1;" d="M 43.441406 46.113281 L 54.363281 46.113281 C 54.707031 46.113281 54.984375 46.390625 54.984375 46.734375 C 54.984375 47.078125 54.707031 47.355469 54.363281 47.355469 L 43.441406 47.355469 C 43.101562 47.355469 42.820312 47.078125 42.820312 46.734375 C 42.820312 46.390625 43.101562 46.113281 43.441406 46.113281 Z M 43.441406 46.113281 "/>
<path style=" stroke:none;fill-rule:nonzero;fill:rgb(0%,0%,0%);fill-opacity:1;" d="M 43.441406 52.332031 L 54.363281 52.332031 C 54.707031 52.332031 54.984375 52.609375 54.984375 52.953125 C 54.984375 53.296875 54.707031 53.574219 54.363281 53.574219 L 43.441406 53.574219 C 43.101562 53.574219 42.820312 53.296875 42.820312 52.953125 C 42.820312 52.609375 43.101562 52.332031 43.441406 52.332031 Z M 43.441406 52.332031 "/>
<path style=" stroke:none;fill-rule:nonzero;fill:rgb(0%,0%,0%);fill-opacity:1;" d="M 52.398438 21.863281 L 52.710938 21.863281 C 52.847656 21.863281 52.957031 21.972656 52.957031 22.113281 L 52.957031 54.65625 C 52.957031 54.792969 52.847656 54.90625 52.710938 54.90625 L 52.398438 54.90625 C 52.261719 54.90625 52.148438 54.792969 52.148438 54.65625 L 52.148438 22.113281 C 52.148438 21.972656 52.261719 21.863281 52.398438 21.863281 Z M 52.398438 21.863281 "/>
<path style=" stroke:none;fill-rule:nonzero;fill:rgb(0%,0%,0%);fill-opacity:1;" d="M 41.203125 51.386719 C 41.203125 51.636719 41.003906 51.859375 40.757812 51.859375 C 40.507812 51.859375 40.285156 51.636719 40.285156 51.386719 L 40.285156 47.78125 L 38.21875 48.550781 L 38.21875 52.480469 C 38.21875 52.730469 37.996094 52.953125 37.746094 52.953125 C 37.5 52.953125 37.300781 52.730469 37.300781 52.480469 L 37.300781 48.875 L 36.503906 49.171875 C 36.453125 49.199219 36.378906 49.199219 36.328125 49.199219 C 36.054688 49.199219 35.832031 48.972656 35.832031 48.699219 L 35.832031 47.207031 C 35.832031 47.007812 35.957031 46.808594 36.15625 46.734375 L 37.300781 46.335938 L 37.300781 42.359375 L 36.503906 42.632812 C 36.453125 42.65625 36.378906 42.65625 36.328125 42.65625 C 36.054688 42.65625 35.832031 42.433594 35.832031 42.160156 L 35.832031 40.667969 C 35.832031 40.46875 35.957031 40.292969 36.15625 40.21875 L 37.300781 39.796875 L 37.300781 35.867188 C 37.300781 35.617188 37.5 35.394531 37.746094 35.394531 C 37.996094 35.394531 38.21875 35.617188 38.21875 35.867188 L 38.21875 39.472656 L 40.285156 38.703125 L 40.285156 34.773438 C 40.285156 34.523438 40.507812 34.300781 40.757812 34.300781 C 41.003906 34.300781 41.203125 34.523438 41.203125 34.773438 L 41.203125 38.378906 L 42 38.078125 C 42.050781 38.054688 42.125 38.054688 42.175781 38.054688 C 42.449219 38.054688 42.671875 38.277344 42.671875 38.550781 L 42.671875 40.042969 C 42.671875 40.242188 42.546875 40.441406 42.347656 40.515625 L 41.203125 40.914062 L 41.203125 44.894531 L 42 44.621094 C 42.050781 44.597656 42.125 44.597656 42.175781 44.597656 C 42.449219 44.597656 42.671875 44.820312 42.671875 45.09375 L 42.671875 46.585938 C 42.671875 46.785156 42.546875 46.960938 42.347656 47.035156 L 41.203125 47.457031 Z M 38.21875 42.011719 L 38.21875 45.988281 L 40.285156 45.242188 L 40.285156 41.261719 Z M 38.21875 42.011719 "/>
<path style=" stroke:none;fill-rule:nonzero;fill:rgb(0%,0%,0%);fill-opacity:1;" d="M 34.589844 63.824219 C 34.589844 64.070312 34.390625 64.296875 34.140625 64.296875 C 33.890625 64.296875 33.667969 64.070312 33.667969 63.824219 L 33.667969 60.214844 L 31.605469 60.988281 L 31.605469 64.917969 C 31.605469 65.167969 31.378906 65.390625 31.132812 65.390625 C 30.882812 65.390625 30.683594 65.167969 30.683594 64.917969 L 30.683594 61.3125 L 29.886719 61.609375 C 29.835938 61.632812 29.761719 61.632812 29.714844 61.632812 C 29.441406 61.632812 29.214844 61.410156 29.214844 61.136719 L 29.214844 59.644531 C 29.214844 59.445312 29.339844 59.246094 29.539062 59.171875 L 30.683594 58.773438 L 30.683594 54.792969 L 29.886719 55.066406 C 29.835938 55.09375 29.761719 55.09375 29.714844 55.09375 C 29.441406 55.09375 29.214844 54.867188 29.214844 54.59375 L 29.214844 53.101562 C 29.214844 52.902344 29.339844 52.730469 29.539062 52.65625 L 30.683594 52.230469 L 30.683594 48.300781 C 30.683594 48.054688 30.882812 47.828125 31.132812 47.828125 C 31.378906 47.828125 31.605469 48.054688 31.605469 48.300781 L 31.605469 51.910156 L 33.667969 51.136719 L 33.667969 47.207031 C 33.667969 46.960938 33.890625 46.734375 34.140625 46.734375 C 34.390625 46.734375 34.589844 46.960938 34.589844 47.207031 L 34.589844 50.816406 L 35.382812 50.515625 C 35.433594 50.492188 35.507812 50.492188 35.558594 50.492188 C 35.832031 50.492188 36.054688 50.714844 36.054688 50.988281 L 36.054688 52.480469 C 36.054688 52.679688 35.929688 52.878906 35.734375 52.953125 L 34.589844 53.351562 L 34.589844 57.332031 L 35.382812 57.058594 C 35.433594 57.03125 35.507812 57.03125 35.558594 57.03125 C 35.832031 57.03125 36.054688 57.257812 36.054688 57.53125 L 36.054688 59.023438 C 36.054688 59.222656 35.929688 59.394531 35.734375 59.46875 L 34.589844 59.894531 Z M 31.605469 54.445312 L 31.605469 58.425781 L 33.667969 57.679688 L 33.667969 53.699219 Z M 31.605469 54.445312 "/>
<path style=" stroke:none;fill-rule:nonzero;fill:rgb(0%,0%,0%);fill-opacity:1;" d="M 16.152344 50.09375 L 16.003906 50.09375 C 13.316406 50.09375 11.152344 47.90625 11.152344 45.195312 C 11.152344 43.75 12.46875 42.632812 13.9375 42.632812 C 15.28125 42.632812 16.300781 43.800781 16.300781 45.195312 C 16.300781 46.488281 15.230469 47.554688 13.9375 47.554688 C 13.664062 47.554688 13.414062 47.507812 13.167969 47.40625 C 13.8125 48.378906 14.859375 49.023438 16.078125 49.023438 L 16.175781 49.023438 Z M 21 39.347656 C 22.691406 38.75 23.8125 36.984375 23.8125 35.269531 C 23.8125 33.03125 22.171875 30.816406 19.507812 30.542969 C 20.105469 33.429688 20.652344 36.289062 21 39.347656 Z M 11.375 33.601562 C 11.375 36.960938 14.585938 39.746094 17.941406 39.746094 C 18.640625 39.746094 19.308594 39.695312 19.980469 39.597656 C 19.632812 36.4375 19.0625 33.503906 18.414062 30.542969 C 16.449219 30.742188 15.332031 32.0625 15.332031 33.503906 C 15.332031 34.597656 15.953125 35.765625 17.34375 36.5625 C 17.46875 36.6875 17.519531 36.8125 17.519531 36.9375 C 17.519531 37.210938 17.269531 37.484375 16.972656 37.484375 C 16.898438 37.484375 16.824219 37.457031 16.75 37.433594 C 14.757812 36.363281 13.839844 34.574219 13.839844 32.832031 C 13.839844 30.644531 15.28125 28.503906 17.816406 27.933594 C 17.46875 26.488281 17.097656 25.023438 16.675781 23.578125 C 14.011719 26.589844 11.375 29.625 11.375 33.601562 Z M 17.867188 40.816406 C 13.191406 40.816406 9.585938 36.539062 9.585938 31.511719 C 9.585938 27.109375 12.84375 23.902344 15.753906 20.542969 C 15.28125 19.003906 14.832031 17.4375 14.632812 15.820312 C 14.484375 14.527344 14.460938 13.230469 14.460938 11.9375 C 14.460938 9.078125 15.828125 6.367188 18.167969 4.675781 C 18.316406 4.550781 18.515625 4.550781 18.664062 4.675781 C 20.429688 6.765625 21.972656 10.769531 21.972656 13.582031 C 21.972656 17.136719 19.832031 19.921875 17.496094 22.632812 C 18.015625 24.324219 18.464844 26.066406 18.886719 27.78125 C 18.988281 27.78125 19.113281 27.757812 19.210938 27.757812 C 23.066406 27.757812 25.578125 30.941406 25.578125 34.25 C 25.578125 36.140625 24.757812 38.078125 22.917969 39.472656 C 22.371094 39.894531 21.746094 40.167969 21.101562 40.367188 C 21.175781 41.238281 21.226562 42.109375 21.226562 42.980469 C 21.226562 43.453125 21.199219 43.949219 21.175781 44.421875 C 21 47.382812 18.988281 50.019531 16.152344 50.09375 L 16.175781 49.023438 C 18.488281 48.972656 19.980469 46.734375 20.132812 44.273438 C 20.15625 43.824219 20.179688 43.351562 20.179688 42.90625 C 20.179688 42.132812 20.15625 41.386719 20.082031 40.617188 C 19.359375 40.742188 18.640625 40.816406 17.867188 40.816406 Z M 20.179688 11.515625 C 20.179688 10.148438 20.082031 9.550781 19.683594 8.308594 C 17.222656 9.5 15.652344 12.011719 15.652344 14.75 C 15.652344 16.589844 16.101562 18.058594 16.550781 19.574219 C 18.539062 17.160156 20.179688 14.648438 20.179688 11.515625 Z M 20.179688 11.515625 "/>
<path style=" stroke:none;fill-rule:nonzero;fill:rgb(0%,0%,0%);fill-opacity:1;" d="M 50.269531 40.242188 C 51.636719 40.242188 52.957031 40.941406 52.957031 42.457031 C 52.957031 44.222656 51.589844 45.46875 50.417969 46.164062 C 49.550781 46.6875 48.554688 47.007812 47.535156 47.007812 C 46.167969 47.007812 44.847656 46.3125 44.847656 44.796875 C 44.847656 43.03125 46.214844 41.785156 47.386719 41.089844 C 48.257812 40.566406 49.25 40.242188 50.269531 40.242188 Z M 50.269531 40.242188 "/>
<path style=" stroke:none;fill-rule:nonzero;fill:rgb(0%,0%,0%);fill-opacity:1;" d="M 50.269531 46.460938 C 51.636719 46.460938 52.957031 47.160156 52.957031 48.675781 C 52.957031 50.441406 51.589844 51.683594 50.417969 52.382812 C 49.550781 52.902344 48.554688 53.226562 47.535156 53.226562 C 46.167969 53.226562 44.847656 52.53125 44.847656 51.011719 C 44.847656 49.246094 46.214844 48.003906 47.386719 47.308594 C 48.257812 46.785156 49.25 46.460938 50.269531 46.460938 Z M 50.269531 46.460938 "/>
<path style=" stroke:none;fill-rule:nonzero;fill:rgb(0%,0%,0%);fill-opacity:1;" d="M 50.269531 52.679688 C 51.636719 52.679688 52.957031 53.375 52.957031 54.894531 C 52.957031 56.660156 51.589844 57.902344 50.417969 58.601562 C 49.550781 59.121094 48.554688 59.445312 47.535156 59.445312 C 46.167969 59.445312 44.847656 58.75 44.847656 57.230469 C 44.847656 55.464844 46.214844 54.222656 47.386719 53.527344 C 48.257812 53.003906 49.25 52.679688 50.269531 52.679688 Z M 50.269531 52.679688 "/>
</g>
</svg>
