<?xml version="1.0" encoding="UTF-8"?>
<svg xmlns="http://www.w3.org/2000/svg" xmlns:xlink="http://www.w3.org/1999/xlink" width="75.335285pt" height="50.182763pt" viewBox="0 0 75.335285 50.182763" version="1.1">
<g id="surface1">
<path style="fill:none;stroke-width:0.1;stroke-linecap:round;stroke-linejoin:round;stroke:rgb(0%,0%,0%);stroke-opacity:1;stroke-miterlimit:4;" d="M 0.049863 0.00023304 L 9.785729 0.00023304 " transform="matrix(6.218149,0,0,6.218149,4.561038,41.88527)"/>
<path style="fill:none;stroke-width:0.1;stroke-linecap:round;stroke-linejoin:round;stroke:rgb(0%,0%,0%);stroke-opacity:1;stroke-miterlimit:4;" d="M 0.049863 0.000136391 L 9.785729 0.000136391 " transform="matrix(6.218149,0,0,6.218149,4.561038,35.667121)"/>
<path style="fill:none;stroke-width:0.1;stroke-linecap:round;stroke-linejoin:round;stroke:rgb(0%,0%,0%);stroke-opacity:1;stroke-miterlimit:4;" d="M 0.049863 0.0000397429 L 9.785729 0.0000397429 " transform="matrix(6.218149,0,0,6.218149,4.561038,29.448972)"/>
<path style="fill:none;stroke-width:0.1;stroke-linecap:round;stroke-linejoin:round;stroke:rgb(0%,0%,0%);stroke-opacity:1;stroke-miterlimit:4;" d="M 0.049863 -0.0000569057 L 9.785729 -0.0000569057 " transform="matrix(6.218149,0,0,6.218149,4.561038,23.230823)"/>
<path style="fill:none;stroke-width:0.1;stroke-linecap:round;stroke-linejoin:round;stroke:rgb(0%,0%,0%);stroke-opacity:1;stroke-miterlimit:4;" d="M 0.049863 -0.000153554 L 9.785729 -0.000153554 " transform="matrix(6.218149,0,0,6.218149,4.561038,17.012674)"/>
<path style=" stroke:none;fill-rule:nonzero;fill:rgb(0%,0%,0%);fill-opacity:1;" d="M 43.410156 30.992188 C 43.410156 31.238281 43.210938 31.464844 42.960938 31.464844 C 42.710938 31.464844 42.488281 31.238281 42.488281 30.992188 L 42.488281 27.382812 L 40.421875 28.15625 L 40.421875 32.085938 C 40.421875 32.335938 40.199219 32.558594 39.949219 32.558594 C 39.703125 32.558594 39.503906 32.335938 39.503906 32.085938 L 39.503906 28.480469 L 38.707031 28.777344 C 38.65625 28.800781 38.582031 28.800781 38.535156 28.800781 C 38.257812 28.800781 38.035156 28.578125 38.035156 28.304688 L 38.035156 26.8125 C 38.035156 26.613281 38.160156 26.414062 38.359375 26.339844 L 39.503906 25.941406 L 39.503906 21.960938 L 38.707031 22.234375 C 38.65625 22.261719 38.582031 22.261719 38.535156 22.261719 C 38.257812 22.261719 38.035156 22.035156 38.035156 21.761719 L 38.035156 20.269531 C 38.035156 20.070312 38.160156 19.898438 38.359375 19.824219 L 39.503906 19.402344 L 39.503906 15.46875 C 39.503906 15.222656 39.703125 14.996094 39.949219 14.996094 C 40.199219 14.996094 40.421875 15.222656 40.421875 15.46875 L 40.421875 19.078125 L 42.488281 18.304688 L 42.488281 14.375 C 42.488281 14.128906 42.710938 13.902344 42.960938 13.902344 C 43.210938 13.902344 43.410156 14.128906 43.410156 14.375 L 43.410156 17.984375 L 44.203125 17.683594 C 44.253906 17.660156 44.328125 17.660156 44.378906 17.660156 C 44.652344 17.660156 44.875 17.882812 44.875 18.15625 L 44.875 19.648438 C 44.875 19.847656 44.75 20.046875 44.550781 20.121094 L 43.410156 20.519531 L 43.410156 24.5 L 44.203125 24.226562 C 44.253906 24.199219 44.328125 24.199219 44.378906 24.199219 C 44.652344 24.199219 44.875 24.425781 44.875 24.699219 L 44.875 26.191406 C 44.875 26.390625 44.75 26.5625 44.550781 26.636719 L 43.410156 27.0625 Z M 40.421875 21.613281 L 40.421875 25.59375 L 42.488281 24.847656 L 42.488281 20.867188 Z M 40.421875 21.613281 "/>
<path style=" stroke:none;fill-rule:nonzero;fill:rgb(0%,0%,0%);fill-opacity:1;" d="M 35.324219 40.316406 C 35.324219 40.566406 35.125 40.789062 34.878906 40.789062 C 34.628906 40.789062 34.40625 40.566406 34.40625 40.316406 L 34.40625 36.710938 L 32.339844 37.484375 L 32.339844 41.414062 C 32.339844 41.660156 32.117188 41.886719 31.867188 41.886719 C 31.617188 41.886719 31.417969 41.660156 31.417969 41.414062 L 31.417969 37.804688 L 30.625 38.105469 C 30.574219 38.128906 30.5 38.128906 30.449219 38.128906 C 30.175781 38.128906 29.953125 37.90625 29.953125 37.632812 L 29.953125 36.140625 C 29.953125 35.941406 30.078125 35.742188 30.277344 35.667969 L 31.417969 35.269531 L 31.417969 31.289062 L 30.625 31.5625 C 30.574219 31.589844 30.5 31.589844 30.449219 31.589844 C 30.175781 31.589844 29.953125 31.363281 29.953125 31.089844 L 29.953125 29.597656 C 29.953125 29.398438 30.078125 29.226562 30.277344 29.152344 L 31.417969 28.726562 L 31.417969 24.796875 C 31.417969 24.550781 31.617188 24.324219 31.867188 24.324219 C 32.117188 24.324219 32.339844 24.550781 32.339844 24.796875 L 32.339844 28.40625 L 34.40625 27.632812 L 34.40625 23.703125 C 34.40625 23.453125 34.628906 23.230469 34.878906 23.230469 C 35.125 23.230469 35.324219 23.453125 35.324219 23.703125 L 35.324219 27.308594 L 36.121094 27.011719 C 36.171875 26.988281 36.246094 26.988281 36.292969 26.988281 C 36.566406 26.988281 36.792969 27.210938 36.792969 27.484375 L 36.792969 28.976562 C 36.792969 29.175781 36.667969 29.375 36.46875 29.449219 L 35.324219 29.847656 L 35.324219 33.828125 L 36.121094 33.554688 C 36.171875 33.527344 36.246094 33.527344 36.292969 33.527344 C 36.566406 33.527344 36.792969 33.75 36.792969 34.027344 L 36.792969 35.519531 C 36.792969 35.71875 36.667969 35.890625 36.46875 35.964844 L 35.324219 36.386719 Z M 32.339844 30.941406 L 32.339844 34.921875 L 34.40625 34.175781 L 34.40625 30.195312 Z M 32.339844 30.941406 "/>
<path style=" stroke:none;fill-rule:nonzero;fill:rgb(0%,0%,0%);fill-opacity:1;" d="M 54.601562 4.578125 L 54.914062 4.578125 C 55.050781 4.578125 55.160156 4.6875 55.160156 4.824219 L 55.160156 37.371094 C 55.160156 37.507812 55.050781 37.617188 54.914062 37.617188 L 54.601562 37.617188 C 54.464844 37.617188 54.351562 37.507812 54.351562 37.371094 L 54.351562 4.824219 C 54.351562 4.6875 54.464844 4.578125 54.601562 4.578125 Z M 54.601562 4.578125 "/>
<path style=" stroke:none;fill-rule:nonzero;fill:rgb(0%,0%,0%);fill-opacity:1;" d="M 23.390625 26.339844 C 23.390625 25.644531 23.960938 25.070312 24.65625 25.070312 C 25.355469 25.070312 25.925781 25.644531 25.925781 26.339844 C 25.925781 27.035156 25.355469 27.609375 24.65625 27.609375 C 23.960938 27.609375 23.390625 27.035156 23.390625 26.339844 Z M 23.390625 20.121094 C 23.390625 19.425781 23.960938 18.851562 24.65625 18.851562 C 25.355469 18.851562 25.925781 19.425781 25.925781 20.121094 C 25.925781 20.816406 25.355469 21.390625 24.65625 21.390625 C 23.960938 21.390625 23.390625 20.816406 23.390625 20.121094 Z M 15.304688 16.6875 C 19.585938 16.6875 22.59375 18.878906 22.59375 22.933594 C 22.59375 29.472656 16.050781 33.230469 9.757812 35.890625 C 9.683594 35.964844 9.609375 35.992188 9.535156 35.992188 C 9.363281 35.992188 9.210938 35.839844 9.210938 35.667969 C 9.210938 35.59375 9.238281 35.519531 9.3125 35.441406 C 14.335938 32.507812 19.558594 28.851562 19.558594 23.179688 C 19.558594 20.195312 17.992188 17.335938 15.304688 17.335938 C 13.464844 17.335938 12.097656 18.679688 11.476562 20.46875 C 11.75 20.34375 12.023438 20.269531 12.320312 20.269531 C 13.6875 20.269531 14.808594 21.390625 14.808594 22.757812 C 14.808594 24.199219 13.714844 25.394531 12.320312 25.394531 C 10.828125 25.394531 9.535156 24.226562 9.535156 22.757812 C 9.535156 19.449219 12.074219 16.6875 15.304688 16.6875 Z M 15.304688 16.6875 "/>
<path style=" stroke:none;fill-rule:nonzero;fill:rgb(0%,0%,0%);fill-opacity:1;" d="M 60.179688 19.847656 C 61.546875 19.847656 62.867188 20.542969 62.867188 22.0625 C 62.867188 23.828125 61.5 25.070312 60.328125 25.769531 C 59.457031 26.289062 58.464844 26.613281 57.445312 26.613281 C 56.074219 26.613281 54.757812 25.917969 54.757812 24.398438 C 54.757812 22.632812 56.125 21.390625 57.292969 20.695312 C 58.164062 20.171875 59.160156 19.847656 60.179688 19.847656 Z M 60.179688 19.847656 "/>
<path style=" stroke:none;fill-rule:nonzero;fill:rgb(0%,0%,0%);fill-opacity:1;" d="M 52.472656 22.957031 C 53.84375 22.957031 55.160156 23.652344 55.160156 25.171875 C 55.160156 26.9375 53.792969 28.179688 52.625 28.875 C 51.753906 29.398438 50.757812 29.722656 49.738281 29.722656 C 48.371094 29.722656 47.050781 29.027344 47.050781 27.507812 C 47.050781 25.742188 48.421875 24.5 49.589844 23.804688 C 50.460938 23.28125 51.453125 22.957031 52.472656 22.957031 Z M 52.472656 22.957031 "/>
<path style=" stroke:none;fill-rule:nonzero;fill:rgb(0%,0%,0%);fill-opacity:1;" d="M 52.472656 29.175781 C 53.84375 29.175781 55.160156 29.871094 55.160156 31.390625 C 55.160156 33.15625 53.792969 34.398438 52.625 35.09375 C 51.753906 35.617188 50.757812 35.941406 49.738281 35.941406 C 48.371094 35.941406 47.050781 35.246094 47.050781 33.726562 C 47.050781 31.960938 48.421875 30.71875 49.589844 30.019531 C 50.460938 29.5 51.453125 29.175781 52.472656 29.175781 Z M 52.472656 29.175781 "/>
<path style=" stroke:none;fill-rule:nonzero;fill:rgb(0%,0%,0%);fill-opacity:1;" d="M 52.472656 35.394531 C 53.84375 35.394531 55.160156 36.089844 55.160156 37.605469 C 55.160156 39.375 53.792969 40.617188 52.625 41.3125 C 51.753906 41.835938 50.757812 42.160156 49.738281 42.160156 C 48.371094 42.160156 47.050781 41.460938 47.050781 39.945312 C 47.050781 38.179688 48.421875 36.9375 49.589844 36.238281 C 50.460938 35.71875 51.453125 35.394531 52.472656 35.394531 Z M 52.472656 35.394531 "/>
</g>
</svg>
