<?xml version="1.0" encoding="UTF-8"?>
<svg xmlns="http://www.w3.org/2000/svg" xmlns:xlink="http://www.w3.org/1999/xlink" width="84.564034pt" height="61.097157pt" viewBox="0 0 84.564034 61.097157" version="1.1">
<g id="surface1">
<path style="fill:none;stroke-width:0.1;stroke-linecap:round;stroke-linejoin:round;stroke:rgb(0%,0%,0%);stroke-opacity:1;stroke-miterlimit:4;" d="M 0.049863 0.000192316 L 11.17531 0.000192316 " transform="matrix(6.218149,0,0,6.218149,4.561038,44.123804)"/>
<path style="fill:none;stroke-width:0.1;stroke-linecap:round;stroke-linejoin:round;stroke:rgb(0%,0%,0%);stroke-opacity:1;stroke-miterlimit:4;" d="M 0.049863 0.0000956673 L 11.17531 0.0000956673 " transform="matrix(6.218149,0,0,6.218149,4.561038,37.905655)"/>
<path style="fill:none;stroke-width:0.1;stroke-linecap:round;stroke-linejoin:round;stroke:rgb(0%,0%,0%);stroke-opacity:1;stroke-miterlimit:4;" d="M 0.049863 -0.000000981293 L 11.17531 -0.000000981293 " transform="matrix(6.218149,0,0,6.218149,4.561038,31.687506)"/>
<path style="fill:none;stroke-width:0.1;stroke-linecap:round;stroke-linejoin:round;stroke:rgb(0%,0%,0%);stroke-opacity:1;stroke-miterlimit:4;" d="M 0.049863 -0.0000976299 L 11.17531 -0.0000976299 " transform="matrix(6.218149,0,0,6.218149,4.561038,25.469357)"/>
<path style="fill:none;stroke-width:0.1;stroke-linecap:round;stroke-linejoin:round;stroke:rgb(0%,0%,0%);stroke-opacity:1;stroke-miterlimit:4;" d="M 0.049863 -0.00019404 L 11.17531 -0.00019404 " transform="matrix(6.218149,0,0,6.218149,4.561038,19.251207)"/>
<path style=" stroke:none;fill-rule:nonzero;fill:rgb(0%,0%,0%);fill-opacity:1;" d="M 55.941406 17.300781 L 56.25 17.300781 C 56.386719 17.300781 56.5 17.410156 56.5 17.546875 L 56.5 52.164062 C 56.5 52.304688 56.386719 52.414062 56.25 52.414062 L 55.941406 52.414062 C 55.804688 52.414062 55.691406 52.304688 55.691406 52.164062 L 55.691406 17.546875 C 55.691406 17.410156 55.804688 17.300781 55.941406 17.300781 Z M 55.941406 17.300781 "/>
<path style=" stroke:none;fill-rule:nonzero;fill:rgb(0%,0%,0%);fill-opacity:1;" d="M 41.507812 15.121094 L 41.480469 16.765625 L 41.480469 17.039062 C 41.480469 17.585938 41.507812 18.132812 41.582031 18.679688 C 42.699219 17.734375 43.894531 16.6875 43.894531 15.222656 C 43.894531 14.402344 43.546875 13.554688 42.824219 13.554688 C 42.054688 13.554688 41.53125 14.300781 41.507812 15.121094 Z M 40.460938 19.574219 L 40.164062 4.773438 C 40.363281 4.652344 40.613281 4.578125 40.835938 4.578125 C 41.058594 4.578125 41.308594 4.652344 41.507812 4.773438 L 41.332031 13.355469 C 41.953125 12.835938 42.773438 12.511719 43.597656 12.511719 C 44.890625 12.511719 45.808594 13.703125 45.808594 15.046875 C 45.808594 17.039062 43.671875 17.957031 42.152344 19.25 C 41.78125 19.574219 41.554688 20.195312 41.035156 20.195312 C 40.710938 20.195312 40.460938 19.921875 40.460938 19.574219 Z M 40.460938 19.574219 "/>
<path style=" stroke:none;fill-rule:nonzero;fill:rgb(0%,0%,0%);fill-opacity:1;" d="M 31.371094 18.230469 L 31.34375 19.871094 L 31.34375 20.148438 C 31.34375 20.695312 31.371094 21.242188 31.445312 21.789062 C 32.5625 20.84375 33.757812 19.796875 33.757812 18.332031 C 33.757812 17.511719 33.410156 16.664062 32.6875 16.664062 C 31.917969 16.664062 31.394531 17.410156 31.371094 18.230469 Z M 30.324219 22.683594 L 30.027344 7.882812 C 30.226562 7.761719 30.472656 7.683594 30.699219 7.683594 C 30.921875 7.683594 31.171875 7.761719 31.371094 7.882812 L 31.195312 16.464844 C 31.816406 15.941406 32.636719 15.621094 33.460938 15.621094 C 34.753906 15.621094 35.671875 16.8125 35.671875 18.15625 C 35.671875 20.148438 33.535156 21.066406 32.015625 22.359375 C 31.644531 22.683594 31.417969 23.304688 30.898438 23.304688 C 30.574219 23.304688 30.324219 23.03125 30.324219 22.683594 Z M 30.324219 22.683594 "/>
<path style=" stroke:none;fill-rule:nonzero;fill:rgb(0%,0%,0%);fill-opacity:1;" d="M 38.023438 30.667969 L 38 32.308594 L 38 32.582031 C 38 33.128906 38.023438 33.675781 38.097656 34.222656 C 39.21875 33.28125 40.414062 32.234375 40.414062 30.765625 C 40.414062 29.945312 40.0625 29.101562 39.34375 29.101562 C 38.570312 29.101562 38.050781 29.847656 38.023438 30.667969 Z M 36.980469 35.121094 L 36.679688 20.320312 C 36.878906 20.195312 37.128906 20.121094 37.351562 20.121094 C 37.578125 20.121094 37.824219 20.195312 38.023438 20.320312 L 37.851562 28.902344 C 38.472656 28.378906 39.292969 28.054688 40.113281 28.054688 C 41.40625 28.054688 42.328125 29.25 42.328125 30.59375 C 42.328125 32.582031 40.1875 33.503906 38.671875 34.796875 C 38.296875 35.121094 38.074219 35.742188 37.550781 35.742188 C 37.230469 35.742188 36.980469 35.46875 36.980469 35.121094 Z M 36.980469 35.121094 "/>
<path style=" stroke:none;fill-rule:nonzero;fill:rgb(0%,0%,0%);fill-opacity:1;" d="M 23.390625 28.578125 C 23.390625 27.882812 23.960938 27.308594 24.65625 27.308594 C 25.355469 27.308594 25.925781 27.882812 25.925781 28.578125 C 25.925781 29.273438 25.355469 29.847656 24.65625 29.847656 C 23.960938 29.847656 23.390625 29.273438 23.390625 28.578125 Z M 23.390625 22.359375 C 23.390625 21.664062 23.960938 21.089844 24.65625 21.089844 C 25.355469 21.089844 25.925781 21.664062 25.925781 22.359375 C 25.925781 23.058594 25.355469 23.628906 24.65625 23.628906 C 23.960938 23.628906 23.390625 23.058594 23.390625 22.359375 Z M 15.304688 18.929688 C 19.585938 18.929688 22.59375 21.117188 22.59375 25.171875 C 22.59375 31.710938 16.050781 35.46875 9.757812 38.128906 C 9.683594 38.203125 9.609375 38.230469 9.535156 38.230469 C 9.363281 38.230469 9.210938 38.078125 9.210938 37.90625 C 9.210938 37.832031 9.238281 37.757812 9.3125 37.683594 C 14.335938 34.746094 19.558594 31.089844 19.558594 25.417969 C 19.558594 22.433594 17.992188 19.574219 15.304688 19.574219 C 13.464844 19.574219 12.097656 20.917969 11.476562 22.707031 C 11.75 22.585938 12.023438 22.507812 12.320312 22.507812 C 13.6875 22.507812 14.808594 23.628906 14.808594 24.996094 C 14.808594 26.4375 13.714844 27.632812 12.320312 27.632812 C 10.828125 27.632812 9.535156 26.464844 9.535156 24.996094 C 9.535156 21.6875 12.074219 18.929688 15.304688 18.929688 Z M 15.304688 18.929688 "/>
<path style=" stroke:none;fill-rule:nonzero;fill:rgb(0%,0%,0%);fill-opacity:1;" d="M 61.113281 12.757812 C 62.480469 12.757812 63.800781 13.457031 63.800781 14.972656 C 63.800781 16.738281 62.433594 17.984375 61.261719 18.679688 C 60.390625 19.203125 59.398438 19.523438 58.378906 19.523438 C 57.011719 19.523438 55.691406 18.828125 55.691406 17.3125 C 55.691406 15.546875 57.058594 14.300781 58.230469 13.605469 C 59.097656 13.082031 60.09375 12.757812 61.113281 12.757812 Z M 61.113281 12.757812 "/>
<path style=" stroke:none;fill-rule:nonzero;fill:rgb(0%,0%,0%);fill-opacity:1;" d="M 53.410156 15.867188 C 54.777344 15.867188 56.09375 16.566406 56.09375 18.082031 C 56.09375 19.847656 54.726562 21.089844 53.558594 21.789062 C 52.6875 22.308594 51.691406 22.632812 50.671875 22.632812 C 49.304688 22.632812 47.984375 21.9375 47.984375 20.421875 C 47.984375 18.652344 49.355469 17.410156 50.523438 16.714844 C 51.394531 16.191406 52.386719 15.867188 53.410156 15.867188 Z M 53.410156 15.867188 "/>
<path style=" stroke:none;fill-rule:nonzero;fill:rgb(0%,0%,0%);fill-opacity:1;" d="M 61.113281 22.085938 C 62.480469 22.085938 63.800781 22.78125 63.800781 24.300781 C 63.800781 26.066406 62.433594 27.308594 61.261719 28.007812 C 60.390625 28.527344 59.398438 28.851562 58.378906 28.851562 C 57.011719 28.851562 55.691406 28.15625 55.691406 26.636719 C 55.691406 24.871094 57.058594 23.628906 58.230469 22.933594 C 59.097656 22.410156 60.09375 22.085938 61.113281 22.085938 Z M 61.113281 22.085938 "/>
<path style=" stroke:none;fill-rule:nonzero;fill:rgb(0%,0%,0%);fill-opacity:1;" d="M 61.113281 28.304688 C 62.480469 28.304688 63.800781 29 63.800781 30.519531 C 63.800781 32.285156 62.433594 33.527344 61.261719 34.222656 C 60.390625 34.746094 59.398438 35.070312 58.378906 35.070312 C 57.011719 35.070312 55.691406 34.375 55.691406 32.855469 C 55.691406 31.089844 57.058594 29.847656 58.230469 29.152344 C 59.097656 28.628906 60.09375 28.304688 61.113281 28.304688 Z M 61.113281 28.304688 "/>
</g>
</svg>
