<?xml version="1.0" encoding="UTF-8"?>
<svg xmlns="http://www.w3.org/2000/svg" xmlns:xlink="http://www.w3.org/1999/xlink" width="81.269047pt" height="63.399859pt" viewBox="0 0 81.269047 63.399859" version="1.1">
<g id="surface1">
<path style="fill:none;stroke-width:0.1;stroke-linecap:round;stroke-linejoin:round;stroke:rgb(0%,0%,0%);stroke-opacity:1;stroke-miterlimit:4;" d="M 0.049863 0.000281364 L 10.679031 0.000281364 " transform="matrix(6.218149,0,0,6.218149,4.561038,44.994344)"/>
<path style="fill:none;stroke-width:0.1;stroke-linecap:round;stroke-linejoin:round;stroke:rgb(0%,0%,0%);stroke-opacity:1;stroke-miterlimit:4;" d="M 0.049863 0.000184716 L 10.679031 0.000184716 " transform="matrix(6.218149,0,0,6.218149,4.561038,38.776195)"/>
<path style="fill:none;stroke-width:0.1;stroke-linecap:round;stroke-linejoin:round;stroke:rgb(0%,0%,0%);stroke-opacity:1;stroke-miterlimit:4;" d="M 0.049863 0.0000880672 L 10.679031 0.0000880672 " transform="matrix(6.218149,0,0,6.218149,4.561038,32.558046)"/>
<path style="fill:none;stroke-width:0.1;stroke-linecap:round;stroke-linejoin:round;stroke:rgb(0%,0%,0%);stroke-opacity:1;stroke-miterlimit:4;" d="M 0.049863 -0.00000858141 L 10.679031 -0.00000858141 " transform="matrix(6.218149,0,0,6.218149,4.561038,26.339897)"/>
<path style="fill:none;stroke-width:0.1;stroke-linecap:round;stroke-linejoin:round;stroke:rgb(0%,0%,0%);stroke-opacity:1;stroke-miterlimit:4;" d="M 0.049863 -0.00010523 L 10.679031 -0.00010523 " transform="matrix(6.218149,0,0,6.218149,4.561038,20.121748)"/>
<path style=" stroke:none;fill-rule:nonzero;fill:rgb(0%,0%,0%);fill-opacity:1;" d="M 52.140625 13.28125 L 62.121094 13.28125 C 62.464844 13.28125 62.746094 13.558594 62.746094 13.902344 C 62.746094 14.246094 62.464844 14.527344 62.121094 14.527344 L 52.140625 14.527344 C 51.796875 14.527344 51.519531 14.246094 51.519531 13.902344 C 51.519531 13.558594 51.796875 13.28125 52.140625 13.28125 Z M 52.140625 13.28125 "/>
<path style=" stroke:none;fill-rule:nonzero;fill:rgb(0%,0%,0%);fill-opacity:1;" d="M 52.855469 15.0625 L 53.167969 15.0625 C 53.304688 15.0625 53.414062 15.171875 53.414062 15.308594 L 53.414062 47.855469 C 53.414062 47.992188 53.304688 48.101562 53.167969 48.101562 L 52.855469 48.101562 C 52.71875 48.101562 52.605469 47.992188 52.605469 47.855469 L 52.605469 15.308594 C 52.605469 15.171875 52.71875 15.0625 52.855469 15.0625 Z M 52.855469 15.0625 "/>
<path style=" stroke:none;fill-rule:nonzero;fill:rgb(0%,0%,0%);fill-opacity:1;" d="M 48.964844 21.664062 C 48.964844 21.914062 48.765625 22.136719 48.515625 22.136719 C 48.265625 22.136719 48.042969 21.914062 48.042969 21.664062 L 48.042969 18.058594 L 45.976562 18.828125 L 45.976562 22.757812 C 45.976562 23.007812 45.753906 23.230469 45.503906 23.230469 C 45.257812 23.230469 45.058594 23.007812 45.058594 22.757812 L 45.058594 19.152344 L 44.261719 19.449219 C 44.210938 19.476562 44.136719 19.476562 44.089844 19.476562 C 43.8125 19.476562 43.589844 19.25 43.589844 18.976562 L 43.589844 17.484375 C 43.589844 17.285156 43.714844 17.085938 43.914062 17.011719 L 45.058594 16.613281 L 45.058594 12.636719 L 44.261719 12.910156 C 44.210938 12.933594 44.136719 12.933594 44.089844 12.933594 C 43.8125 12.933594 43.589844 12.710938 43.589844 12.4375 L 43.589844 10.945312 C 43.589844 10.746094 43.714844 10.570312 43.914062 10.496094 L 45.058594 10.074219 L 45.058594 6.144531 C 45.058594 5.894531 45.257812 5.671875 45.503906 5.671875 C 45.753906 5.671875 45.976562 5.894531 45.976562 6.144531 L 45.976562 9.75 L 48.042969 8.980469 L 48.042969 5.050781 C 48.042969 4.800781 48.265625 4.578125 48.515625 4.578125 C 48.765625 4.578125 48.964844 4.800781 48.964844 5.050781 L 48.964844 8.65625 L 49.757812 8.355469 C 49.808594 8.332031 49.882812 8.332031 49.933594 8.332031 C 50.207031 8.332031 50.429688 8.554688 50.429688 8.828125 L 50.429688 10.320312 C 50.429688 10.519531 50.304688 10.71875 50.105469 10.792969 L 48.964844 11.191406 L 48.964844 15.171875 L 49.757812 14.898438 C 49.808594 14.875 49.882812 14.875 49.933594 14.875 C 50.207031 14.875 50.429688 15.097656 50.429688 15.371094 L 50.429688 16.863281 C 50.429688 17.0625 50.304688 17.238281 50.105469 17.3125 L 48.964844 17.734375 Z M 45.976562 12.285156 L 45.976562 16.265625 L 48.042969 15.519531 L 48.042969 11.539062 Z M 45.976562 12.285156 "/>
<path style=" stroke:none;fill-rule:nonzero;fill:rgb(0%,0%,0%);fill-opacity:1;" d="M 32.996094 20.121094 C 33.570312 20.695312 34.390625 20.816406 35.210938 20.816406 C 35.359375 20.816406 35.460938 20.917969 35.460938 21.066406 L 35.683594 23.230469 C 35.707031 23.378906 35.582031 23.503906 35.433594 23.480469 L 33.269531 23.253906 C 33.144531 23.230469 33.023438 23.132812 33.023438 23.007812 C 33.023438 22.1875 32.898438 21.367188 32.324219 20.792969 C 31.753906 21.367188 31.652344 22.1875 31.652344 23.007812 C 31.652344 23.132812 31.527344 23.230469 31.40625 23.253906 L 29.214844 23.480469 C 29.066406 23.503906 28.941406 23.378906 28.96875 23.230469 L 29.191406 21.066406 C 29.191406 20.917969 29.289062 20.816406 29.441406 20.816406 C 30.261719 20.816406 31.082031 20.695312 31.652344 20.121094 C 31.082031 19.550781 30.261719 19.425781 29.441406 19.425781 C 29.289062 19.425781 29.191406 19.324219 29.191406 19.175781 L 28.96875 17.011719 C 28.941406 16.863281 29.066406 16.738281 29.214844 16.765625 L 31.40625 16.988281 C 31.527344 17.011719 31.628906 17.113281 31.628906 17.238281 C 31.628906 18.058594 31.753906 18.878906 32.324219 19.449219 C 32.898438 18.878906 33.023438 18.058594 33.023438 17.238281 C 33.023438 17.113281 33.144531 17.011719 33.269531 16.988281 L 35.433594 16.765625 C 35.582031 16.738281 35.707031 16.863281 35.683594 17.011719 L 35.460938 19.175781 C 35.460938 19.324219 35.359375 19.425781 35.210938 19.425781 C 34.390625 19.425781 33.570312 19.550781 32.996094 20.121094 Z M 32.996094 20.121094 "/>
<path style=" stroke:none;fill-rule:nonzero;fill:rgb(0%,0%,0%);fill-opacity:1;" d="M 42.347656 34.101562 C 42.347656 34.347656 42.148438 34.574219 41.898438 34.574219 C 41.652344 34.574219 41.425781 34.347656 41.425781 34.101562 L 41.425781 30.492188 L 39.363281 31.265625 L 39.363281 35.195312 C 39.363281 35.441406 39.136719 35.667969 38.890625 35.667969 C 38.640625 35.667969 38.441406 35.441406 38.441406 35.195312 L 38.441406 31.589844 L 37.644531 31.886719 C 37.597656 31.910156 37.523438 31.910156 37.472656 31.910156 C 37.199219 31.910156 36.972656 31.6875 36.972656 31.414062 L 36.972656 29.921875 C 36.972656 29.722656 37.097656 29.523438 37.296875 29.449219 L 38.441406 29.050781 L 38.441406 25.070312 L 37.644531 25.34375 C 37.597656 25.371094 37.523438 25.371094 37.472656 25.371094 C 37.199219 25.371094 36.972656 25.144531 36.972656 24.871094 L 36.972656 23.378906 C 36.972656 23.179688 37.097656 23.007812 37.296875 22.933594 L 38.441406 22.507812 L 38.441406 18.578125 C 38.441406 18.332031 38.640625 18.105469 38.890625 18.105469 C 39.136719 18.105469 39.363281 18.332031 39.363281 18.578125 L 39.363281 22.1875 L 41.425781 21.414062 L 41.425781 17.484375 C 41.425781 17.238281 41.652344 17.011719 41.898438 17.011719 C 42.148438 17.011719 42.347656 17.238281 42.347656 17.484375 L 42.347656 21.089844 L 43.144531 20.792969 C 43.191406 20.769531 43.265625 20.769531 43.316406 20.769531 C 43.589844 20.769531 43.8125 20.992188 43.8125 21.265625 L 43.8125 22.757812 C 43.8125 22.957031 43.691406 23.15625 43.492188 23.230469 L 42.347656 23.628906 L 42.347656 27.609375 L 43.144531 27.335938 C 43.191406 27.308594 43.265625 27.308594 43.316406 27.308594 C 43.589844 27.308594 43.8125 27.535156 43.8125 27.808594 L 43.8125 29.300781 C 43.8125 29.5 43.691406 29.671875 43.492188 29.746094 L 42.347656 30.171875 Z M 39.363281 24.722656 L 39.363281 28.703125 L 41.425781 27.957031 L 41.425781 23.976562 Z M 39.363281 24.722656 "/>
<path style=" stroke:none;fill-rule:nonzero;fill:rgb(0%,0%,0%);fill-opacity:1;" d="M 16.152344 54.570312 L 16.003906 54.570312 C 13.316406 54.570312 11.152344 52.382812 11.152344 49.671875 C 11.152344 48.226562 12.46875 47.109375 13.9375 47.109375 C 15.28125 47.109375 16.300781 48.277344 16.300781 49.671875 C 16.300781 50.964844 15.230469 52.035156 13.9375 52.035156 C 13.664062 52.035156 13.414062 51.984375 13.167969 51.882812 C 13.8125 52.855469 14.859375 53.5 16.078125 53.5 L 16.175781 53.5 Z M 21 43.824219 C 22.691406 43.226562 23.8125 41.460938 23.8125 39.746094 C 23.8125 37.507812 22.171875 35.292969 19.507812 35.019531 C 20.105469 37.90625 20.652344 40.765625 21 43.824219 Z M 11.375 38.078125 C 11.375 41.4375 14.585938 44.222656 17.941406 44.222656 C 18.640625 44.222656 19.308594 44.171875 19.980469 44.074219 C 19.632812 40.914062 19.0625 37.980469 18.414062 35.019531 C 16.449219 35.21875 15.332031 36.539062 15.332031 37.980469 C 15.332031 39.074219 15.953125 40.242188 17.34375 41.039062 C 17.46875 41.164062 17.519531 41.289062 17.519531 41.414062 C 17.519531 41.6875 17.269531 41.960938 16.972656 41.960938 C 16.898438 41.960938 16.824219 41.933594 16.75 41.910156 C 14.757812 40.839844 13.839844 39.050781 13.839844 37.308594 C 13.839844 35.121094 15.28125 32.980469 17.816406 32.410156 C 17.46875 30.964844 17.097656 29.5 16.675781 28.054688 C 14.011719 31.066406 11.375 34.101562 11.375 38.078125 Z M 17.867188 45.292969 C 13.191406 45.292969 9.585938 41.015625 9.585938 35.992188 C 9.585938 31.589844 12.84375 28.378906 15.753906 25.023438 C 15.28125 23.480469 14.832031 21.914062 14.632812 20.296875 C 14.484375 19.003906 14.460938 17.710938 14.460938 16.414062 C 14.460938 13.554688 15.828125 10.84375 18.167969 9.152344 C 18.316406 9.027344 18.515625 9.027344 18.664062 9.152344 C 20.429688 11.242188 21.972656 15.246094 21.972656 18.058594 C 21.972656 21.613281 19.832031 24.398438 17.496094 27.109375 C 18.015625 28.800781 18.464844 30.542969 18.886719 32.257812 C 18.988281 32.257812 19.113281 32.234375 19.210938 32.234375 C 23.066406 32.234375 25.578125 35.417969 25.578125 38.726562 C 25.578125 40.617188 24.757812 42.558594 22.917969 43.949219 C 22.371094 44.371094 21.746094 44.644531 21.101562 44.84375 C 21.175781 45.714844 21.226562 46.585938 21.226562 47.457031 C 21.226562 47.929688 21.199219 48.425781 21.175781 48.898438 C 21 51.859375 18.988281 54.496094 16.152344 54.570312 L 16.175781 53.5 C 18.488281 53.449219 19.980469 51.210938 20.132812 48.75 C 20.15625 48.300781 20.179688 47.828125 20.179688 47.382812 C 20.179688 46.609375 20.15625 45.863281 20.082031 45.09375 C 19.359375 45.21875 18.640625 45.292969 17.867188 45.292969 Z M 20.179688 15.992188 C 20.179688 14.625 20.082031 14.027344 19.683594 12.785156 C 17.222656 13.976562 15.652344 16.492188 15.652344 19.226562 C 15.652344 21.066406 16.101562 22.535156 16.550781 24.050781 C 18.539062 21.640625 20.179688 19.125 20.179688 15.992188 Z M 20.179688 15.992188 "/>
<path style=" stroke:none;fill-rule:nonzero;fill:rgb(0%,0%,0%);fill-opacity:1;" d="M 58.027344 10.519531 C 59.398438 10.519531 60.714844 11.21875 60.714844 12.734375 C 60.714844 14.5 59.347656 15.746094 58.179688 16.441406 C 57.308594 16.964844 56.3125 17.285156 55.292969 17.285156 C 53.925781 17.285156 52.605469 16.589844 52.605469 15.074219 C 52.605469 13.308594 53.976562 12.0625 55.144531 11.367188 C 56.015625 10.84375 57.007812 10.519531 58.027344 10.519531 Z M 58.027344 10.519531 "/>
<path style=" stroke:none;fill-rule:nonzero;fill:rgb(0%,0%,0%);fill-opacity:1;" d="M 58.027344 16.738281 C 59.398438 16.738281 60.714844 17.433594 60.714844 18.953125 C 60.714844 20.71875 59.347656 21.960938 58.179688 22.660156 C 57.308594 23.179688 56.3125 23.503906 55.292969 23.503906 C 53.925781 23.503906 52.605469 22.808594 52.605469 21.289062 C 52.605469 19.523438 53.976562 18.28125 55.144531 17.585938 C 56.015625 17.0625 57.007812 16.738281 58.027344 16.738281 Z M 58.027344 16.738281 "/>
<path style=" stroke:none;fill-rule:nonzero;fill:rgb(0%,0%,0%);fill-opacity:1;" d="M 58.027344 22.957031 C 59.398438 22.957031 60.714844 23.652344 60.714844 25.171875 C 60.714844 26.9375 59.347656 28.179688 58.179688 28.875 C 57.308594 29.398438 56.3125 29.722656 55.292969 29.722656 C 53.925781 29.722656 52.605469 29.027344 52.605469 27.507812 C 52.605469 25.742188 53.976562 24.5 55.144531 23.804688 C 56.015625 23.28125 57.007812 22.957031 58.027344 22.957031 Z M 58.027344 22.957031 "/>
</g>
</svg>
