<?xml version="1.0" encoding="UTF-8"?>
<svg xmlns="http://www.w3.org/2000/svg" xmlns:xlink="http://www.w3.org/1999/xlink" width="80.887811pt" height="49.753008pt" viewBox="0 0 80.887811 49.753008" version="1.1">
<g id="surface1">
<path style="fill:none;stroke-width:0.1;stroke-linecap:round;stroke-linejoin:round;stroke:rgb(0%,0%,0%);stroke-opacity:1;stroke-miterlimit:4;" d="M 0.049863 -0.000217086 L 10.621865 -0.000217086 " transform="matrix(6.218149,0,0,6.218149,4.561038,37.739631)"/>
<path style="fill:none;stroke-width:0.1;stroke-linecap:round;stroke-linejoin:round;stroke:rgb(0%,0%,0%);stroke-opacity:1;stroke-miterlimit:4;" d="M 0.049863 -0.000313735 L 10.621865 -0.000313735 " transform="matrix(6.218149,0,0,6.218149,4.561038,31.521482)"/>
<path style="fill:none;stroke-width:0.1;stroke-linecap:round;stroke-linejoin:round;stroke:rgb(0%,0%,0%);stroke-opacity:1;stroke-miterlimit:4;" d="M 0.049863 0.000217818 L 10.621865 0.000217818 " transform="matrix(6.218149,0,0,6.218149,4.561038,25.303333)"/>
<path style="fill:none;stroke-width:0.1;stroke-linecap:round;stroke-linejoin:round;stroke:rgb(0%,0%,0%);stroke-opacity:1;stroke-miterlimit:4;" d="M 0.049863 0.000121169 L 10.621865 0.000121169 " transform="matrix(6.218149,0,0,6.218149,4.561038,19.085184)"/>
<path style="fill:none;stroke-width:0.1;stroke-linecap:round;stroke-linejoin:round;stroke:rgb(0%,0%,0%);stroke-opacity:1;stroke-miterlimit:4;" d="M 0.049863 0.0000245208 L 10.621865 0.0000245208 " transform="matrix(6.218149,0,0,6.218149,4.561038,12.867035)"/>
<path style=" stroke:none;fill-rule:nonzero;fill:rgb(0%,0%,0%);fill-opacity:1;" d="M 59.800781 4.578125 L 60.113281 4.578125 C 60.25 4.578125 60.359375 4.6875 60.359375 4.824219 L 60.359375 36.332031 C 60.359375 36.472656 60.25 36.582031 60.113281 36.582031 L 59.800781 36.582031 C 59.664062 36.582031 59.550781 36.472656 59.550781 36.332031 L 59.550781 4.824219 C 59.550781 4.6875 59.664062 4.578125 59.800781 4.578125 Z M 59.800781 4.578125 "/>
<path style=" stroke:none;fill-rule:nonzero;fill:rgb(0%,0%,0%);fill-opacity:1;" d="M 45.769531 24.285156 L 45.746094 25.925781 L 45.746094 26.199219 C 45.746094 26.746094 45.769531 27.292969 45.847656 27.839844 C 46.964844 26.894531 48.160156 25.851562 48.160156 24.382812 C 48.160156 23.5625 47.8125 22.714844 47.089844 22.714844 C 46.320312 22.714844 45.796875 23.460938 45.769531 24.285156 Z M 44.726562 28.734375 L 44.429688 13.9375 C 44.628906 13.8125 44.875 13.738281 45.101562 13.738281 C 45.324219 13.738281 45.570312 13.8125 45.769531 13.9375 L 45.597656 22.519531 C 46.21875 21.996094 47.039062 21.671875 47.859375 21.671875 C 49.152344 21.671875 50.074219 22.867188 50.074219 24.207031 C 50.074219 26.199219 47.933594 27.117188 46.417969 28.414062 C 46.042969 28.734375 45.820312 29.359375 45.296875 29.359375 C 44.976562 29.359375 44.726562 29.082031 44.726562 28.734375 Z M 44.726562 28.734375 "/>
<path style=" stroke:none;fill-rule:nonzero;fill:rgb(0%,0%,0%);fill-opacity:1;" d="M 35.425781 30.5 L 35.398438 32.144531 C 35.398438 32.242188 35.375 32.316406 35.375 32.417969 C 35.375 32.964844 35.398438 33.511719 35.472656 34.058594 C 36.566406 33.136719 37.636719 32.019531 37.636719 30.601562 C 37.636719 29.78125 37.363281 28.933594 36.644531 28.933594 C 35.898438 28.933594 35.449219 29.679688 35.425781 30.5 Z M 35.398438 20.15625 L 35.25 28.734375 C 35.847656 28.214844 36.617188 27.890625 37.414062 27.890625 C 38.730469 27.890625 39.703125 29.058594 39.703125 30.402344 C 39.703125 32.390625 37.5625 33.335938 36.046875 34.628906 C 35.671875 34.953125 35.472656 35.574219 34.953125 35.574219 C 34.628906 35.574219 34.355469 35.300781 34.355469 34.953125 L 34.304688 32.316406 C 33.632812 33.164062 32.664062 33.859375 31.867188 34.628906 C 31.542969 34.953125 31.394531 35.574219 30.898438 35.574219 C 30.574219 35.574219 30.324219 35.277344 30.324219 34.929688 L 30.027344 20.15625 C 30.226562 20.03125 30.472656 19.957031 30.699219 19.957031 C 30.921875 19.957031 31.171875 20.03125 31.371094 20.15625 L 31.195312 28.734375 C 31.617188 28.214844 32.265625 27.890625 32.9375 27.890625 C 33.433594 27.890625 33.882812 28.089844 34.230469 28.414062 L 34.054688 20.15625 C 34.253906 20.03125 34.503906 19.957031 34.726562 19.957031 C 34.953125 19.957031 35.199219 20.03125 35.398438 20.15625 Z M 31.121094 32.167969 L 31.121094 32.417969 C 31.121094 32.988281 31.144531 33.535156 31.222656 34.109375 C 32.191406 33.164062 32.988281 31.96875 32.988281 30.601562 C 32.988281 29.804688 32.835938 28.933594 32.164062 28.933594 C 31.496094 28.933594 31.195312 29.707031 31.171875 30.476562 Z M 31.121094 32.167969 "/>
<path style=" stroke:none;fill-rule:nonzero;fill:rgb(0%,0%,0%);fill-opacity:1;" d="M 42.289062 36.71875 L 42.265625 38.363281 L 42.265625 38.636719 C 42.265625 39.183594 42.289062 39.730469 42.363281 40.277344 C 43.484375 39.332031 44.675781 38.285156 44.675781 36.820312 C 44.675781 36 44.328125 35.152344 43.605469 35.152344 C 42.835938 35.152344 42.3125 35.898438 42.289062 36.71875 Z M 41.246094 41.171875 L 40.945312 26.371094 C 41.144531 26.25 41.394531 26.175781 41.617188 26.175781 C 41.839844 26.175781 42.089844 26.25 42.289062 26.371094 L 42.113281 34.953125 C 42.738281 34.429688 43.558594 34.109375 44.378906 34.109375 C 45.671875 34.109375 46.59375 35.300781 46.59375 36.644531 C 46.59375 38.636719 44.453125 39.554688 42.9375 40.847656 C 42.5625 41.171875 42.339844 41.792969 41.816406 41.792969 C 41.492188 41.792969 41.246094 41.519531 41.246094 41.171875 Z M 41.246094 41.171875 "/>
<path style=" stroke:none;fill-rule:nonzero;fill:rgb(0%,0%,0%);fill-opacity:1;" d="M 23.390625 22.195312 C 23.390625 21.496094 23.960938 20.925781 24.65625 20.925781 C 25.355469 20.925781 25.925781 21.496094 25.925781 22.195312 C 25.925781 22.890625 25.355469 23.460938 24.65625 23.460938 C 23.960938 23.460938 23.390625 22.890625 23.390625 22.195312 Z M 23.390625 15.976562 C 23.390625 15.28125 23.960938 14.707031 24.65625 14.707031 C 25.355469 14.707031 25.925781 15.28125 25.925781 15.976562 C 25.925781 16.671875 25.355469 17.246094 24.65625 17.246094 C 23.960938 17.246094 23.390625 16.671875 23.390625 15.976562 Z M 15.304688 12.542969 C 19.585938 12.542969 22.59375 14.734375 22.59375 18.785156 C 22.59375 25.328125 16.050781 29.082031 9.757812 31.746094 C 9.683594 31.820312 9.609375 31.84375 9.535156 31.84375 C 9.363281 31.84375 9.210938 31.695312 9.210938 31.519531 C 9.210938 31.445312 9.238281 31.371094 9.3125 31.296875 C 14.335938 28.363281 19.558594 24.707031 19.558594 19.035156 C 19.558594 16.050781 17.992188 13.191406 15.304688 13.191406 C 13.464844 13.191406 12.097656 14.535156 11.476562 16.324219 C 11.75 16.199219 12.023438 16.125 12.320312 16.125 C 13.6875 16.125 14.808594 17.246094 14.808594 18.613281 C 14.808594 20.054688 13.714844 21.25 12.320312 21.25 C 10.828125 21.25 9.535156 20.082031 9.535156 18.613281 C 9.535156 15.304688 12.074219 12.542969 15.304688 12.542969 Z M 15.304688 12.542969 "/>
<path style=" stroke:none;fill-rule:nonzero;fill:rgb(0%,0%,0%);fill-opacity:1;" d="M 57.671875 21.921875 C 59.039062 21.921875 60.359375 22.617188 60.359375 24.132812 C 60.359375 25.898438 58.992188 27.144531 57.820312 27.839844 C 56.953125 28.363281 55.957031 28.6875 54.9375 28.6875 C 53.570312 28.6875 52.25 27.988281 52.25 26.472656 C 52.25 24.707031 53.617188 23.460938 54.789062 22.765625 C 55.65625 22.242188 56.652344 21.921875 57.671875 21.921875 Z M 57.671875 21.921875 "/>
<path style=" stroke:none;fill-rule:nonzero;fill:rgb(0%,0%,0%);fill-opacity:1;" d="M 57.671875 28.140625 C 59.039062 28.140625 60.359375 28.835938 60.359375 30.351562 C 60.359375 32.117188 58.992188 33.363281 57.820312 34.058594 C 56.953125 34.582031 55.957031 34.902344 54.9375 34.902344 C 53.570312 34.902344 52.25 34.207031 52.25 32.691406 C 52.25 30.925781 53.617188 29.679688 54.789062 28.984375 C 55.65625 28.460938 56.652344 28.140625 57.671875 28.140625 Z M 57.671875 28.140625 "/>
<path style=" stroke:none;fill-rule:nonzero;fill:rgb(0%,0%,0%);fill-opacity:1;" d="M 57.671875 34.355469 C 59.039062 34.355469 60.359375 35.054688 60.359375 36.570312 C 60.359375 38.335938 58.992188 39.582031 57.820312 40.277344 C 56.953125 40.800781 55.957031 41.121094 54.9375 41.121094 C 53.570312 41.121094 52.25 40.425781 52.25 38.910156 C 52.25 37.144531 53.617188 35.898438 54.789062 35.203125 C 55.65625 34.679688 56.652344 34.355469 57.671875 34.355469 Z M 57.671875 34.355469 "/>
</g>
</svg>
