<?xml version="1.0" encoding="UTF-8"?>
<svg xmlns="http://www.w3.org/2000/svg" xmlns:xlink="http://www.w3.org/1999/xlink" width="87.715553pt" height="59.813301pt" viewBox="0 0 87.715553 59.813301" version="1.1">
<g id="surface1">
<path style="fill:none;stroke-width:0.1;stroke-linecap:round;stroke-linejoin:round;stroke:rgb(0%,0%,0%);stroke-opacity:1;stroke-miterlimit:4;" d="M 0.049863 0.00023304 L 11.649602 0.00023304 " transform="matrix(6.218149,0,0,6.218149,4.561038,41.88527)"/>
<path style="fill:none;stroke-width:0.1;stroke-linecap:round;stroke-linejoin:round;stroke:rgb(0%,0%,0%);stroke-opacity:1;stroke-miterlimit:4;" d="M 0.049863 0.000136391 L 11.649602 0.000136391 " transform="matrix(6.218149,0,0,6.218149,4.561038,35.667121)"/>
<path style="fill:none;stroke-width:0.1;stroke-linecap:round;stroke-linejoin:round;stroke:rgb(0%,0%,0%);stroke-opacity:1;stroke-miterlimit:4;" d="M 0.049863 0.0000397429 L 11.649602 0.0000397429 " transform="matrix(6.218149,0,0,6.218149,4.561038,29.448972)"/>
<path style="fill:none;stroke-width:0.1;stroke-linecap:round;stroke-linejoin:round;stroke:rgb(0%,0%,0%);stroke-opacity:1;stroke-miterlimit:4;" d="M 0.049863 -0.0000569057 L 11.649602 -0.0000569057 " transform="matrix(6.218149,0,0,6.218149,4.561038,23.230823)"/>
<path style="fill:none;stroke-width:0.1;stroke-linecap:round;stroke-linejoin:round;stroke:rgb(0%,0%,0%);stroke-opacity:1;stroke-miterlimit:4;" d="M 0.049863 -0.000153554 L 11.649602 -0.000153554 " transform="matrix(6.218149,0,0,6.218149,4.561038,17.012674)"/>
<path style=" stroke:none;fill-rule:nonzero;fill:rgb(0%,0%,0%);fill-opacity:1;" d="M 66.191406 4.578125 L 66.503906 4.578125 C 66.640625 4.578125 66.753906 4.6875 66.753906 4.824219 L 66.753906 40.480469 C 66.753906 40.617188 66.640625 40.726562 66.503906 40.726562 L 66.191406 40.726562 C 66.054688 40.726562 65.945312 40.617188 65.945312 40.480469 L 65.945312 4.824219 C 65.945312 4.6875 66.054688 4.578125 66.191406 4.578125 Z M 66.191406 4.578125 "/>
<path style=" stroke:none;fill-rule:nonzero;fill:rgb(0%,0%,0%);fill-opacity:1;" d="M 55 30.992188 C 55 31.238281 54.800781 31.464844 54.550781 31.464844 C 54.300781 31.464844 54.078125 31.238281 54.078125 30.992188 L 54.078125 27.382812 L 52.015625 28.15625 L 52.015625 32.085938 C 52.015625 32.335938 51.789062 32.558594 51.542969 32.558594 C 51.292969 32.558594 51.09375 32.335938 51.09375 32.085938 L 51.09375 28.480469 L 50.296875 28.777344 C 50.25 28.800781 50.171875 28.800781 50.125 28.800781 C 49.851562 28.800781 49.625 28.578125 49.625 28.304688 L 49.625 26.8125 C 49.625 26.613281 49.75 26.414062 49.949219 26.339844 L 51.09375 25.941406 L 51.09375 21.960938 L 50.296875 22.234375 C 50.25 22.261719 50.171875 22.261719 50.125 22.261719 C 49.851562 22.261719 49.625 22.035156 49.625 21.761719 L 49.625 20.269531 C 49.625 20.070312 49.75 19.898438 49.949219 19.824219 L 51.09375 19.402344 L 51.09375 15.46875 C 51.09375 15.222656 51.292969 14.996094 51.542969 14.996094 C 51.789062 14.996094 52.015625 15.222656 52.015625 15.46875 L 52.015625 19.078125 L 54.078125 18.304688 L 54.078125 14.375 C 54.078125 14.128906 54.300781 13.902344 54.550781 13.902344 C 54.800781 13.902344 55 14.128906 55 14.375 L 55 17.984375 L 55.792969 17.683594 C 55.84375 17.660156 55.917969 17.660156 55.96875 17.660156 C 56.242188 17.660156 56.464844 17.882812 56.464844 18.15625 L 56.464844 19.648438 C 56.464844 19.847656 56.34375 20.046875 56.144531 20.121094 L 55 20.519531 L 55 24.5 L 55.792969 24.226562 C 55.84375 24.199219 55.917969 24.199219 55.96875 24.199219 C 56.242188 24.199219 56.464844 24.425781 56.464844 24.699219 L 56.464844 26.191406 C 56.464844 26.390625 56.34375 26.5625 56.144531 26.636719 L 55 27.0625 Z M 52.015625 21.613281 L 52.015625 25.59375 L 54.078125 24.847656 L 54.078125 20.867188 Z M 52.015625 21.613281 "/>
<path style=" stroke:none;fill-rule:nonzero;fill:rgb(0%,0%,0%);fill-opacity:1;" d="M 43.410156 37.210938 C 43.410156 37.457031 43.210938 37.683594 42.960938 37.683594 C 42.710938 37.683594 42.488281 37.457031 42.488281 37.210938 L 42.488281 33.601562 L 40.421875 34.375 L 40.421875 38.304688 C 40.421875 38.550781 40.199219 38.777344 39.949219 38.777344 C 39.703125 38.777344 39.503906 38.550781 39.503906 38.304688 L 39.503906 34.695312 L 38.707031 34.996094 C 38.65625 35.019531 38.582031 35.019531 38.535156 35.019531 C 38.257812 35.019531 38.035156 34.796875 38.035156 34.523438 L 38.035156 33.03125 C 38.035156 32.832031 38.160156 32.632812 38.359375 32.558594 L 39.503906 32.160156 L 39.503906 28.179688 L 38.707031 28.453125 C 38.65625 28.480469 38.582031 28.480469 38.535156 28.480469 C 38.257812 28.480469 38.035156 28.253906 38.035156 27.980469 L 38.035156 26.488281 C 38.035156 26.289062 38.160156 26.117188 38.359375 26.042969 L 39.503906 25.617188 L 39.503906 21.6875 C 39.503906 21.441406 39.703125 21.214844 39.949219 21.214844 C 40.199219 21.214844 40.421875 21.441406 40.421875 21.6875 L 40.421875 25.296875 L 42.488281 24.523438 L 42.488281 20.59375 C 42.488281 20.34375 42.710938 20.121094 42.960938 20.121094 C 43.210938 20.121094 43.410156 20.34375 43.410156 20.59375 L 43.410156 24.199219 L 44.203125 23.902344 C 44.253906 23.878906 44.328125 23.878906 44.378906 23.878906 C 44.652344 23.878906 44.875 24.101562 44.875 24.375 L 44.875 25.867188 C 44.875 26.066406 44.75 26.265625 44.550781 26.339844 L 43.410156 26.738281 L 43.410156 30.71875 L 44.203125 30.445312 C 44.253906 30.417969 44.328125 30.417969 44.378906 30.417969 C 44.652344 30.417969 44.875 30.644531 44.875 30.917969 L 44.875 32.410156 C 44.875 32.609375 44.75 32.78125 44.550781 32.855469 L 43.410156 33.28125 Z M 40.421875 27.832031 L 40.421875 31.8125 L 42.488281 31.066406 L 42.488281 27.085938 Z M 40.421875 27.832031 "/>
<path style=" stroke:none;fill-rule:nonzero;fill:rgb(0%,0%,0%);fill-opacity:1;" d="M 35.324219 43.425781 C 35.324219 43.675781 35.125 43.898438 34.878906 43.898438 C 34.628906 43.898438 34.40625 43.675781 34.40625 43.425781 L 34.40625 39.820312 L 32.339844 40.59375 L 32.339844 44.523438 C 32.339844 44.769531 32.117188 44.996094 31.867188 44.996094 C 31.617188 44.996094 31.417969 44.769531 31.417969 44.523438 L 31.417969 40.914062 L 30.625 41.214844 C 30.574219 41.238281 30.5 41.238281 30.449219 41.238281 C 30.175781 41.238281 29.953125 41.015625 29.953125 40.742188 L 29.953125 39.25 C 29.953125 39.050781 30.078125 38.851562 30.277344 38.777344 L 31.417969 38.378906 L 31.417969 34.398438 L 30.625 34.671875 C 30.574219 34.695312 30.5 34.695312 30.449219 34.695312 C 30.175781 34.695312 29.953125 34.472656 29.953125 34.199219 L 29.953125 32.707031 C 29.953125 32.507812 30.078125 32.335938 30.277344 32.257812 L 31.417969 31.835938 L 31.417969 27.90625 C 31.417969 27.65625 31.617188 27.433594 31.867188 27.433594 C 32.117188 27.433594 32.339844 27.65625 32.339844 27.90625 L 32.339844 31.511719 L 34.40625 30.742188 L 34.40625 26.8125 C 34.40625 26.5625 34.628906 26.339844 34.878906 26.339844 C 35.125 26.339844 35.324219 26.5625 35.324219 26.8125 L 35.324219 30.417969 L 36.121094 30.121094 C 36.171875 30.09375 36.246094 30.09375 36.292969 30.09375 C 36.566406 30.09375 36.792969 30.320312 36.792969 30.59375 L 36.792969 32.085938 C 36.792969 32.285156 36.667969 32.484375 36.46875 32.558594 L 35.324219 32.957031 L 35.324219 36.9375 L 36.121094 36.660156 C 36.171875 36.636719 36.246094 36.636719 36.292969 36.636719 C 36.566406 36.636719 36.792969 36.859375 36.792969 37.132812 L 36.792969 38.628906 C 36.792969 38.824219 36.667969 39 36.46875 39.074219 L 35.324219 39.496094 Z M 32.339844 34.050781 L 32.339844 38.03125 L 34.40625 37.285156 L 34.40625 33.304688 Z M 32.339844 34.050781 "/>
<path style=" stroke:none;fill-rule:nonzero;fill:rgb(0%,0%,0%);fill-opacity:1;" d="M 49.851562 49.644531 C 49.851562 49.894531 49.652344 50.117188 49.402344 50.117188 C 49.152344 50.117188 48.929688 49.894531 48.929688 49.644531 L 48.929688 46.039062 L 46.867188 46.808594 L 46.867188 50.738281 C 46.867188 50.988281 46.640625 51.210938 46.394531 51.210938 C 46.144531 51.210938 45.945312 50.988281 45.945312 50.738281 L 45.945312 47.132812 L 45.148438 47.433594 C 45.101562 47.457031 45.023438 47.457031 44.976562 47.457031 C 44.703125 47.457031 44.476562 47.234375 44.476562 46.960938 L 44.476562 45.46875 C 44.476562 45.269531 44.601562 45.070312 44.800781 44.996094 L 45.945312 44.597656 L 45.945312 40.617188 L 45.148438 40.890625 C 45.101562 40.914062 45.023438 40.914062 44.976562 40.914062 C 44.703125 40.914062 44.476562 40.691406 44.476562 40.417969 L 44.476562 38.925781 C 44.476562 38.726562 44.601562 38.550781 44.800781 38.476562 L 45.945312 38.054688 L 45.945312 34.125 C 45.945312 33.875 46.144531 33.652344 46.394531 33.652344 C 46.640625 33.652344 46.867188 33.875 46.867188 34.125 L 46.867188 37.730469 L 48.929688 36.960938 L 48.929688 33.03125 C 48.929688 32.78125 49.152344 32.558594 49.402344 32.558594 C 49.652344 32.558594 49.851562 32.78125 49.851562 33.03125 L 49.851562 36.636719 L 50.644531 36.339844 C 50.695312 36.3125 50.769531 36.3125 50.820312 36.3125 C 51.09375 36.3125 51.316406 36.539062 51.316406 36.8125 L 51.316406 38.304688 C 51.316406 38.503906 51.195312 38.703125 50.996094 38.777344 L 49.851562 39.175781 L 49.851562 43.152344 L 50.644531 42.878906 C 50.695312 42.855469 50.769531 42.855469 50.820312 42.855469 C 51.09375 42.855469 51.316406 43.078125 51.316406 43.351562 L 51.316406 44.84375 C 51.316406 45.042969 51.195312 45.21875 50.996094 45.292969 L 49.851562 45.714844 Z M 46.867188 40.269531 L 46.867188 44.25 L 48.929688 43.503906 L 48.929688 39.523438 Z M 46.867188 40.269531 "/>
<path style=" stroke:none;fill-rule:nonzero;fill:rgb(0%,0%,0%);fill-opacity:1;" d="M 23.390625 26.339844 C 23.390625 25.644531 23.960938 25.070312 24.65625 25.070312 C 25.355469 25.070312 25.925781 25.644531 25.925781 26.339844 C 25.925781 27.035156 25.355469 27.609375 24.65625 27.609375 C 23.960938 27.609375 23.390625 27.035156 23.390625 26.339844 Z M 23.390625 20.121094 C 23.390625 19.425781 23.960938 18.851562 24.65625 18.851562 C 25.355469 18.851562 25.925781 19.425781 25.925781 20.121094 C 25.925781 20.816406 25.355469 21.390625 24.65625 21.390625 C 23.960938 21.390625 23.390625 20.816406 23.390625 20.121094 Z M 15.304688 16.6875 C 19.585938 16.6875 22.59375 18.878906 22.59375 22.933594 C 22.59375 29.472656 16.050781 33.230469 9.757812 35.890625 C 9.683594 35.964844 9.609375 35.992188 9.535156 35.992188 C 9.363281 35.992188 9.210938 35.839844 9.210938 35.667969 C 9.210938 35.59375 9.238281 35.519531 9.3125 35.441406 C 14.335938 32.507812 19.558594 28.851562 19.558594 23.179688 C 19.558594 20.195312 17.992188 17.335938 15.304688 17.335938 C 13.464844 17.335938 12.097656 18.679688 11.476562 20.46875 C 11.75 20.34375 12.023438 20.269531 12.320312 20.269531 C 13.6875 20.269531 14.808594 21.390625 14.808594 22.757812 C 14.808594 24.199219 13.714844 25.394531 12.320312 25.394531 C 10.828125 25.394531 9.535156 24.226562 9.535156 22.757812 C 9.535156 19.449219 12.074219 16.6875 15.304688 16.6875 Z M 15.304688 16.6875 "/>
<path style=" stroke:none;fill-rule:nonzero;fill:rgb(0%,0%,0%);fill-opacity:1;" d="M 64.066406 19.847656 C 65.433594 19.847656 66.75 20.542969 66.75 22.0625 C 66.75 23.828125 65.382812 25.070312 64.214844 25.769531 C 63.34375 26.289062 62.347656 26.613281 61.328125 26.613281 C 59.960938 26.613281 58.644531 25.917969 58.644531 24.398438 C 58.644531 22.632812 60.011719 21.390625 61.179688 20.695312 C 62.050781 20.171875 63.046875 19.847656 64.066406 19.847656 Z M 64.066406 19.847656 "/>
<path style=" stroke:none;fill-rule:nonzero;fill:rgb(0%,0%,0%);fill-opacity:1;" d="M 64.066406 26.066406 C 65.433594 26.066406 66.75 26.761719 66.75 28.28125 C 66.75 30.046875 65.382812 31.289062 64.214844 31.984375 C 63.34375 32.507812 62.347656 32.832031 61.328125 32.832031 C 59.960938 32.832031 58.644531 32.136719 58.644531 30.617188 C 58.644531 28.851562 60.011719 27.609375 61.179688 26.910156 C 62.050781 26.390625 63.046875 26.066406 64.066406 26.066406 Z M 64.066406 26.066406 "/>
<path style=" stroke:none;fill-rule:nonzero;fill:rgb(0%,0%,0%);fill-opacity:1;" d="M 64.066406 32.285156 C 65.433594 32.285156 66.75 32.980469 66.75 34.5 C 66.75 36.265625 65.382812 37.507812 64.214844 38.203125 C 63.34375 38.726562 62.347656 39.050781 61.328125 39.050781 C 59.960938 39.050781 58.644531 38.351562 58.644531 36.835938 C 58.644531 35.070312 60.011719 33.828125 61.179688 33.128906 C 62.050781 32.609375 63.046875 32.285156 64.066406 32.285156 Z M 64.066406 32.285156 "/>
<path style=" stroke:none;fill-rule:nonzero;fill:rgb(0%,0%,0%);fill-opacity:1;" d="M 64.066406 38.503906 C 65.433594 38.503906 66.75 39.199219 66.75 40.714844 C 66.75 42.480469 65.382812 43.726562 64.214844 44.421875 C 63.34375 44.945312 62.347656 45.269531 61.328125 45.269531 C 59.960938 45.269531 58.644531 44.570312 58.644531 43.054688 C 58.644531 41.289062 60.011719 40.042969 61.179688 39.347656 C 62.050781 38.824219 63.046875 38.503906 64.066406 38.503906 Z M 64.066406 38.503906 "/>
</g>
</svg>
