<?xml version="1.0" encoding="UTF-8"?>
<svg xmlns="http://www.w3.org/2000/svg" xmlns:xlink="http://www.w3.org/1999/xlink" width="68.472344pt" height="50.488251pt" viewBox="0 0 68.472344 50.488251" version="1.1">
<g id="surface1">
<path style="fill:none;stroke-width:0.1;stroke-linecap:round;stroke-linejoin:round;stroke:rgb(0%,0%,0%);stroke-opacity:1;stroke-miterlimit:4;" d="M 0.049863 -0.0001075 L 8.752337 -0.0001075 " transform="matrix(6.218149,0,0,6.218149,4.561038,29.434262)"/>
<path style="fill:none;stroke-width:0.1;stroke-linecap:round;stroke-linejoin:round;stroke:rgb(0%,0%,0%);stroke-opacity:1;stroke-miterlimit:4;" d="M 0.049863 -0.000204149 L 8.752337 -0.000204149 " transform="matrix(6.218149,0,0,6.218149,4.561038,23.216113)"/>
<path style="fill:none;stroke-width:0.1;stroke-linecap:round;stroke-linejoin:round;stroke:rgb(0%,0%,0%);stroke-opacity:1;stroke-miterlimit:4;" d="M 0.049863 -0.000300797 L 8.752337 -0.000300797 " transform="matrix(6.218149,0,0,6.218149,4.561038,16.997964)"/>
<path style="fill:none;stroke-width:0.1;stroke-linecap:round;stroke-linejoin:round;stroke:rgb(0%,0%,0%);stroke-opacity:1;stroke-miterlimit:4;" d="M 0.049863 0.000230756 L 8.752337 0.000230756 " transform="matrix(6.218149,0,0,6.218149,4.561038,10.779815)"/>
<path style="fill:none;stroke-width:0.1;stroke-linecap:round;stroke-linejoin:round;stroke:rgb(0%,0%,0%);stroke-opacity:1;stroke-miterlimit:4;" d="M 0.049863 0.000133988 L 8.752337 0.000133988 " transform="matrix(6.218149,0,0,6.218149,4.561038,4.561667)"/>
<path style=" stroke:none;fill-rule:nonzero;fill:rgb(0%,0%,0%);fill-opacity:1;" d="M 39.21875 35.03125 L 50.140625 35.03125 C 50.484375 35.03125 50.761719 35.308594 50.761719 35.652344 C 50.761719 35.996094 50.484375 36.273438 50.140625 36.273438 L 39.21875 36.273438 C 38.878906 36.273438 38.597656 35.996094 38.597656 35.652344 C 38.597656 35.308594 38.878906 35.03125 39.21875 35.03125 Z M 39.21875 35.03125 "/>
<path style=" stroke:none;fill-rule:nonzero;fill:rgb(0%,0%,0%);fill-opacity:1;" d="M 36.984375 40.304688 C 36.984375 40.550781 36.785156 40.777344 36.535156 40.777344 C 36.285156 40.777344 36.0625 40.550781 36.0625 40.304688 L 36.0625 36.695312 L 33.996094 37.46875 L 33.996094 41.398438 C 33.996094 41.648438 33.773438 41.871094 33.523438 41.871094 C 33.277344 41.871094 33.078125 41.648438 33.078125 41.398438 L 33.078125 37.792969 L 32.28125 38.089844 C 32.230469 38.113281 32.15625 38.113281 32.109375 38.113281 C 31.832031 38.113281 31.609375 37.890625 31.609375 37.617188 L 31.609375 36.125 C 31.609375 35.925781 31.734375 35.726562 31.933594 35.652344 L 33.078125 35.253906 L 33.078125 31.273438 L 32.28125 31.546875 C 32.230469 31.574219 32.15625 31.574219 32.109375 31.574219 C 31.832031 31.574219 31.609375 31.347656 31.609375 31.074219 L 31.609375 29.582031 C 31.609375 29.382812 31.734375 29.210938 31.933594 29.136719 L 33.078125 28.714844 L 33.078125 24.78125 C 33.078125 24.535156 33.277344 24.308594 33.523438 24.308594 C 33.773438 24.308594 33.996094 24.535156 33.996094 24.78125 L 33.996094 28.390625 L 36.0625 27.617188 L 36.0625 23.6875 C 36.0625 23.441406 36.285156 23.214844 36.535156 23.214844 C 36.785156 23.214844 36.984375 23.441406 36.984375 23.6875 L 36.984375 27.296875 L 37.777344 26.996094 C 37.828125 26.972656 37.902344 26.972656 37.953125 26.972656 C 38.226562 26.972656 38.449219 27.195312 38.449219 27.46875 L 38.449219 28.960938 C 38.449219 29.160156 38.324219 29.359375 38.125 29.433594 L 36.984375 29.832031 L 36.984375 33.8125 L 37.777344 33.539062 C 37.828125 33.511719 37.902344 33.511719 37.953125 33.511719 C 38.226562 33.511719 38.449219 33.738281 38.449219 34.011719 L 38.449219 35.503906 C 38.449219 35.703125 38.324219 35.875 38.125 35.949219 L 36.984375 36.375 Z M 33.996094 30.925781 L 33.996094 34.90625 L 36.0625 34.160156 L 36.0625 30.179688 Z M 33.996094 30.925781 "/>
<path style=" stroke:none;fill-rule:nonzero;fill:rgb(0%,0%,0%);fill-opacity:1;" d="M 48.175781 4.5625 L 48.488281 4.5625 C 48.625 4.5625 48.734375 4.671875 48.734375 4.808594 L 48.734375 37.355469 C 48.734375 37.492188 48.625 37.605469 48.488281 37.605469 L 48.175781 37.605469 C 48.039062 37.605469 47.925781 37.492188 47.925781 37.355469 L 47.925781 4.808594 C 47.925781 4.671875 48.039062 4.5625 48.175781 4.5625 Z M 48.175781 4.5625 "/>
<path style=" stroke:none;fill-rule:nonzero;fill:rgb(0%,0%,0%);fill-opacity:1;" d="M 23.390625 13.890625 C 23.390625 13.191406 23.960938 12.621094 24.65625 12.621094 C 25.355469 12.621094 25.925781 13.191406 25.925781 13.890625 C 25.925781 14.585938 25.355469 15.15625 24.65625 15.15625 C 23.960938 15.15625 23.390625 14.585938 23.390625 13.890625 Z M 23.390625 7.671875 C 23.390625 6.972656 23.960938 6.402344 24.65625 6.402344 C 25.355469 6.402344 25.925781 6.972656 25.925781 7.671875 C 25.925781 8.367188 25.355469 8.9375 24.65625 8.9375 C 23.960938 8.9375 23.390625 8.367188 23.390625 7.671875 Z M 15.304688 4.238281 C 19.585938 4.238281 22.59375 6.425781 22.59375 10.480469 C 22.59375 17.023438 16.050781 20.777344 9.757812 23.441406 C 9.683594 23.515625 9.609375 23.539062 9.535156 23.539062 C 9.363281 23.539062 9.210938 23.390625 9.210938 23.214844 C 9.210938 23.140625 9.238281 23.066406 9.3125 22.992188 C 14.335938 20.058594 19.558594 16.402344 19.558594 10.730469 C 19.558594 7.746094 17.992188 4.886719 15.304688 4.886719 C 13.464844 4.886719 12.097656 6.226562 11.476562 8.019531 C 11.75 7.894531 12.023438 7.820312 12.320312 7.820312 C 13.6875 7.820312 14.808594 8.9375 14.808594 10.308594 C 14.808594 11.75 13.714844 12.945312 12.320312 12.945312 C 10.828125 12.945312 9.535156 11.773438 9.535156 10.308594 C 9.535156 7 12.074219 4.238281 15.304688 4.238281 Z M 15.304688 4.238281 "/>
<path style=" stroke:none;fill-rule:nonzero;fill:rgb(0%,0%,0%);fill-opacity:1;" d="M 46.046875 22.941406 C 47.417969 22.941406 48.734375 23.640625 48.734375 25.15625 C 48.734375 26.921875 47.367188 28.164062 46.199219 28.863281 C 45.328125 29.382812 44.332031 29.707031 43.3125 29.707031 C 41.945312 29.707031 40.625 29.011719 40.625 27.496094 C 40.625 25.726562 41.996094 24.484375 43.164062 23.789062 C 44.035156 23.265625 45.027344 22.941406 46.046875 22.941406 Z M 46.046875 22.941406 "/>
<path style=" stroke:none;fill-rule:nonzero;fill:rgb(0%,0%,0%);fill-opacity:1;" d="M 46.046875 29.160156 C 47.417969 29.160156 48.734375 29.855469 48.734375 31.375 C 48.734375 33.140625 47.367188 34.382812 46.199219 35.082031 C 45.328125 35.601562 44.332031 35.925781 43.3125 35.925781 C 41.945312 35.925781 40.625 35.230469 40.625 33.710938 C 40.625 31.945312 41.996094 30.703125 43.164062 30.007812 C 44.035156 29.484375 45.027344 29.160156 46.046875 29.160156 Z M 46.046875 29.160156 "/>
<path style=" stroke:none;fill-rule:nonzero;fill:rgb(0%,0%,0%);fill-opacity:1;" d="M 46.046875 35.378906 C 47.417969 35.378906 48.734375 36.074219 48.734375 37.59375 C 48.734375 39.359375 47.367188 40.601562 46.199219 41.296875 C 45.328125 41.820312 44.332031 42.144531 43.3125 42.144531 C 41.945312 42.144531 40.625 41.449219 40.625 39.929688 C 40.625 38.164062 41.996094 36.921875 43.164062 36.222656 C 44.035156 35.703125 45.027344 35.378906 46.046875 35.378906 Z M 46.046875 35.378906 "/>
</g>
</svg>
