<?xml version="1.0" encoding="UTF-8"?>
<svg xmlns="http://www.w3.org/2000/svg" xmlns:xlink="http://www.w3.org/1999/xlink" width="86.929829pt" height="66.720746pt" viewBox="0 0 86.929829 66.720746" version="1.1">
<g id="surface1">
<path style="fill:none;stroke-width:0.1;stroke-linecap:round;stroke-linejoin:round;stroke:rgb(0%,0%,0%);stroke-opacity:1;stroke-miterlimit:4;" d="M 0.049863 -0.000298513 L 11.5315 -0.000298513 " transform="matrix(6.218149,0,0,6.218149,4.561038,48.103419)"/>
<path style="fill:none;stroke-width:0.1;stroke-linecap:round;stroke-linejoin:round;stroke:rgb(0%,0%,0%);stroke-opacity:1;stroke-miterlimit:4;" d="M 0.049863 0.00023304 L 11.5315 0.00023304 " transform="matrix(6.218149,0,0,6.218149,4.561038,41.88527)"/>
<path style="fill:none;stroke-width:0.1;stroke-linecap:round;stroke-linejoin:round;stroke:rgb(0%,0%,0%);stroke-opacity:1;stroke-miterlimit:4;" d="M 0.049863 0.000136391 L 11.5315 0.000136391 " transform="matrix(6.218149,0,0,6.218149,4.561038,35.667121)"/>
<path style="fill:none;stroke-width:0.1;stroke-linecap:round;stroke-linejoin:round;stroke:rgb(0%,0%,0%);stroke-opacity:1;stroke-miterlimit:4;" d="M 0.049863 0.0000397429 L 11.5315 0.0000397429 " transform="matrix(6.218149,0,0,6.218149,4.561038,29.448972)"/>
<path style="fill:none;stroke-width:0.1;stroke-linecap:round;stroke-linejoin:round;stroke:rgb(0%,0%,0%);stroke-opacity:1;stroke-miterlimit:4;" d="M 0.049863 -0.0000569057 L 11.5315 -0.0000569057 " transform="matrix(6.218149,0,0,6.218149,4.561038,23.230823)"/>
<path style=" stroke:none;fill-rule:nonzero;fill:rgb(0%,0%,0%);fill-opacity:1;" d="M 57.441406 16.390625 L 67.421875 16.390625 C 67.765625 16.390625 68.042969 16.667969 68.042969 17.011719 C 68.042969 17.355469 67.765625 17.632812 67.421875 17.632812 L 57.441406 17.632812 C 57.097656 17.632812 56.820312 17.355469 56.820312 17.011719 C 56.820312 16.667969 57.097656 16.390625 57.441406 16.390625 Z M 57.441406 16.390625 "/>
<path style=" stroke:none;fill-rule:nonzero;fill:rgb(0%,0%,0%);fill-opacity:1;" d="M 58.15625 15.0625 L 58.464844 15.0625 C 58.605469 15.0625 58.714844 15.171875 58.714844 15.308594 L 58.714844 54.074219 C 58.714844 54.210938 58.605469 54.320312 58.464844 54.320312 L 58.15625 54.320312 C 58.019531 54.320312 57.90625 54.210938 57.90625 54.074219 L 57.90625 15.308594 C 57.90625 15.171875 58.019531 15.0625 58.15625 15.0625 Z M 58.15625 15.0625 "/>
<path style=" stroke:none;fill-rule:nonzero;fill:rgb(0%,0%,0%);fill-opacity:1;" d="M 54.261719 21.664062 C 54.261719 21.914062 54.0625 22.136719 53.816406 22.136719 C 53.566406 22.136719 53.34375 21.914062 53.34375 21.664062 L 53.34375 18.058594 L 51.277344 18.828125 L 51.277344 22.757812 C 51.277344 23.007812 51.054688 23.230469 50.804688 23.230469 C 50.558594 23.230469 50.359375 23.007812 50.359375 22.757812 L 50.359375 19.152344 L 49.5625 19.449219 C 49.511719 19.476562 49.4375 19.476562 49.386719 19.476562 C 49.113281 19.476562 48.890625 19.25 48.890625 18.976562 L 48.890625 17.484375 C 48.890625 17.285156 49.015625 17.085938 49.214844 17.011719 L 50.359375 16.613281 L 50.359375 12.636719 L 49.5625 12.910156 C 49.511719 12.933594 49.4375 12.933594 49.386719 12.933594 C 49.113281 12.933594 48.890625 12.710938 48.890625 12.4375 L 48.890625 10.945312 C 48.890625 10.746094 49.015625 10.570312 49.214844 10.496094 L 50.359375 10.074219 L 50.359375 6.144531 C 50.359375 5.894531 50.558594 5.671875 50.804688 5.671875 C 51.054688 5.671875 51.277344 5.894531 51.277344 6.144531 L 51.277344 9.75 L 53.34375 8.980469 L 53.34375 5.050781 C 53.34375 4.800781 53.566406 4.578125 53.816406 4.578125 C 54.0625 4.578125 54.261719 4.800781 54.261719 5.050781 L 54.261719 8.65625 L 55.058594 8.355469 C 55.109375 8.332031 55.183594 8.332031 55.234375 8.332031 C 55.507812 8.332031 55.730469 8.554688 55.730469 8.828125 L 55.730469 10.320312 C 55.730469 10.519531 55.605469 10.71875 55.40625 10.792969 L 54.261719 11.191406 L 54.261719 15.171875 L 55.058594 14.898438 C 55.109375 14.875 55.183594 14.875 55.234375 14.875 C 55.507812 14.875 55.730469 15.097656 55.730469 15.371094 L 55.730469 16.863281 C 55.730469 17.0625 55.605469 17.238281 55.40625 17.3125 L 54.261719 17.734375 Z M 51.277344 12.285156 L 51.277344 16.265625 L 53.34375 15.519531 L 53.34375 11.539062 Z M 51.277344 12.285156 "/>
<path style=" stroke:none;fill-rule:nonzero;fill:rgb(0%,0%,0%);fill-opacity:1;" d="M 42.671875 27.882812 C 42.671875 28.128906 42.472656 28.355469 42.222656 28.355469 C 41.976562 28.355469 41.75 28.128906 41.75 27.882812 L 41.75 24.277344 L 39.6875 25.046875 L 39.6875 28.976562 C 39.6875 29.226562 39.464844 29.449219 39.214844 29.449219 C 38.964844 29.449219 38.765625 29.226562 38.765625 28.976562 L 38.765625 25.371094 L 37.972656 25.667969 C 37.921875 25.691406 37.847656 25.691406 37.796875 25.691406 C 37.523438 25.691406 37.300781 25.46875 37.300781 25.195312 L 37.300781 23.703125 C 37.300781 23.503906 37.425781 23.304688 37.621094 23.230469 L 38.765625 22.832031 L 38.765625 18.851562 L 37.972656 19.125 C 37.921875 19.152344 37.847656 19.152344 37.796875 19.152344 C 37.523438 19.152344 37.300781 18.929688 37.300781 18.652344 L 37.300781 17.160156 C 37.300781 16.964844 37.425781 16.789062 37.621094 16.714844 L 38.765625 16.292969 L 38.765625 12.363281 C 38.765625 12.113281 38.964844 11.890625 39.214844 11.890625 C 39.464844 11.890625 39.6875 12.113281 39.6875 12.363281 L 39.6875 15.96875 L 41.75 15.195312 L 41.75 11.265625 C 41.75 11.019531 41.976562 10.792969 42.222656 10.792969 C 42.472656 10.792969 42.671875 11.019531 42.671875 11.265625 L 42.671875 14.875 L 43.46875 14.574219 C 43.519531 14.550781 43.59375 14.550781 43.640625 14.550781 C 43.914062 14.550781 44.140625 14.773438 44.140625 15.046875 L 44.140625 16.539062 C 44.140625 16.738281 44.015625 16.9375 43.816406 17.011719 L 42.671875 17.410156 L 42.671875 21.390625 L 43.46875 21.117188 C 43.519531 21.089844 43.59375 21.089844 43.640625 21.089844 C 43.914062 21.089844 44.140625 21.316406 44.140625 21.589844 L 44.140625 23.082031 C 44.140625 23.28125 44.015625 23.453125 43.816406 23.527344 L 42.671875 23.953125 Z M 39.6875 18.503906 L 39.6875 22.484375 L 41.75 21.738281 L 41.75 17.757812 Z M 39.6875 18.503906 "/>
<path style=" stroke:none;fill-rule:nonzero;fill:rgb(0%,0%,0%);fill-opacity:1;" d="M 34.589844 34.101562 C 34.589844 34.347656 34.390625 34.574219 34.140625 34.574219 C 33.890625 34.574219 33.667969 34.347656 33.667969 34.101562 L 33.667969 30.492188 L 31.605469 31.265625 L 31.605469 35.195312 C 31.605469 35.441406 31.378906 35.667969 31.132812 35.667969 C 30.882812 35.667969 30.683594 35.441406 30.683594 35.195312 L 30.683594 31.589844 L 29.886719 31.886719 C 29.835938 31.910156 29.761719 31.910156 29.714844 31.910156 C 29.441406 31.910156 29.214844 31.6875 29.214844 31.414062 L 29.214844 29.921875 C 29.214844 29.722656 29.339844 29.523438 29.539062 29.449219 L 30.683594 29.050781 L 30.683594 25.070312 L 29.886719 25.34375 C 29.835938 25.371094 29.761719 25.371094 29.714844 25.371094 C 29.441406 25.371094 29.214844 25.144531 29.214844 24.871094 L 29.214844 23.378906 C 29.214844 23.179688 29.339844 23.007812 29.539062 22.933594 L 30.683594 22.507812 L 30.683594 18.578125 C 30.683594 18.332031 30.882812 18.105469 31.132812 18.105469 C 31.378906 18.105469 31.605469 18.332031 31.605469 18.578125 L 31.605469 22.1875 L 33.667969 21.414062 L 33.667969 17.484375 C 33.667969 17.238281 33.890625 17.011719 34.140625 17.011719 C 34.390625 17.011719 34.589844 17.238281 34.589844 17.484375 L 34.589844 21.089844 L 35.382812 20.792969 C 35.433594 20.769531 35.507812 20.769531 35.558594 20.769531 C 35.832031 20.769531 36.054688 20.992188 36.054688 21.265625 L 36.054688 22.757812 C 36.054688 22.957031 35.929688 23.15625 35.734375 23.230469 L 34.589844 23.628906 L 34.589844 27.609375 L 35.382812 27.335938 C 35.433594 27.308594 35.507812 27.308594 35.558594 27.308594 C 35.832031 27.308594 36.054688 27.535156 36.054688 27.808594 L 36.054688 29.300781 C 36.054688 29.5 35.929688 29.671875 35.734375 29.746094 L 34.589844 30.171875 Z M 31.605469 24.722656 L 31.605469 28.703125 L 33.667969 27.957031 L 33.667969 23.976562 Z M 31.605469 24.722656 "/>
<path style=" stroke:none;fill-rule:nonzero;fill:rgb(0%,0%,0%);fill-opacity:1;" d="M 49.113281 40.316406 C 49.113281 40.566406 48.914062 40.789062 48.667969 40.789062 C 48.417969 40.789062 48.195312 40.566406 48.195312 40.316406 L 48.195312 36.710938 L 46.128906 37.484375 L 46.128906 41.414062 C 46.128906 41.660156 45.90625 41.886719 45.65625 41.886719 C 45.40625 41.886719 45.210938 41.660156 45.210938 41.414062 L 45.210938 37.804688 L 44.414062 38.105469 C 44.363281 38.128906 44.289062 38.128906 44.238281 38.128906 C 43.964844 38.128906 43.742188 37.90625 43.742188 37.632812 L 43.742188 36.140625 C 43.742188 35.941406 43.867188 35.742188 44.066406 35.667969 L 45.210938 35.269531 L 45.210938 31.289062 L 44.414062 31.5625 C 44.363281 31.589844 44.289062 31.589844 44.238281 31.589844 C 43.964844 31.589844 43.742188 31.363281 43.742188 31.089844 L 43.742188 29.597656 C 43.742188 29.398438 43.867188 29.226562 44.066406 29.152344 L 45.210938 28.726562 L 45.210938 24.796875 C 45.210938 24.550781 45.40625 24.324219 45.65625 24.324219 C 45.90625 24.324219 46.128906 24.550781 46.128906 24.796875 L 46.128906 28.40625 L 48.195312 27.632812 L 48.195312 23.703125 C 48.195312 23.453125 48.417969 23.230469 48.667969 23.230469 C 48.914062 23.230469 49.113281 23.453125 49.113281 23.703125 L 49.113281 27.308594 L 49.910156 27.011719 C 49.960938 26.988281 50.035156 26.988281 50.085938 26.988281 C 50.359375 26.988281 50.582031 27.210938 50.582031 27.484375 L 50.582031 28.976562 C 50.582031 29.175781 50.457031 29.375 50.257812 29.449219 L 49.113281 29.847656 L 49.113281 33.828125 L 49.910156 33.554688 C 49.960938 33.527344 50.035156 33.527344 50.085938 33.527344 C 50.359375 33.527344 50.582031 33.75 50.582031 34.027344 L 50.582031 35.519531 C 50.582031 35.71875 50.457031 35.890625 50.257812 35.964844 L 49.113281 36.386719 Z M 46.128906 30.941406 L 46.128906 34.921875 L 48.195312 34.175781 L 48.195312 30.195312 Z M 46.128906 30.941406 "/>
<path style=" stroke:none;fill-rule:nonzero;fill:rgb(0%,0%,0%);fill-opacity:1;" d="M 16.152344 57.679688 L 16.003906 57.679688 C 13.316406 57.679688 11.152344 55.492188 11.152344 52.78125 C 11.152344 51.335938 12.46875 50.21875 13.9375 50.21875 C 15.28125 50.21875 16.300781 51.386719 16.300781 52.78125 C 16.300781 54.074219 15.230469 55.140625 13.9375 55.140625 C 13.664062 55.140625 13.414062 55.09375 13.167969 54.992188 C 13.8125 55.964844 14.859375 56.609375 16.078125 56.609375 L 16.175781 56.609375 Z M 21 46.933594 C 22.691406 46.335938 23.8125 44.570312 23.8125 42.855469 C 23.8125 40.617188 22.171875 38.402344 19.507812 38.128906 C 20.105469 41.015625 20.652344 43.875 21 46.933594 Z M 11.375 41.1875 C 11.375 44.546875 14.585938 47.332031 17.941406 47.332031 C 18.640625 47.332031 19.308594 47.28125 19.980469 47.183594 C 19.632812 44.023438 19.0625 41.089844 18.414062 38.128906 C 16.449219 38.328125 15.332031 39.648438 15.332031 41.089844 C 15.332031 42.183594 15.953125 43.351562 17.34375 44.148438 C 17.46875 44.273438 17.519531 44.398438 17.519531 44.523438 C 17.519531 44.796875 17.269531 45.070312 16.972656 45.070312 C 16.898438 45.070312 16.824219 45.042969 16.75 45.019531 C 14.757812 43.949219 13.839844 42.160156 13.839844 40.417969 C 13.839844 38.230469 15.28125 36.089844 17.816406 35.519531 C 17.46875 34.074219 17.097656 32.609375 16.675781 31.164062 C 14.011719 34.175781 11.375 37.210938 11.375 41.1875 Z M 17.867188 48.402344 C 13.191406 48.402344 9.585938 44.125 9.585938 39.097656 C 9.585938 34.695312 12.84375 31.488281 15.753906 28.128906 C 15.28125 26.589844 14.832031 25.023438 14.632812 23.40625 C 14.484375 22.113281 14.460938 20.816406 14.460938 19.523438 C 14.460938 16.664062 15.828125 13.953125 18.167969 12.261719 C 18.316406 12.136719 18.515625 12.136719 18.664062 12.261719 C 20.429688 14.351562 21.972656 18.355469 21.972656 21.167969 C 21.972656 24.722656 19.832031 27.507812 17.496094 30.21875 C 18.015625 31.910156 18.464844 33.652344 18.886719 35.367188 C 18.988281 35.367188 19.113281 35.34375 19.210938 35.34375 C 23.066406 35.34375 25.578125 38.527344 25.578125 41.835938 C 25.578125 43.726562 24.757812 45.664062 22.917969 47.058594 C 22.371094 47.480469 21.746094 47.753906 21.101562 47.953125 C 21.175781 48.824219 21.226562 49.695312 21.226562 50.566406 C 21.226562 51.039062 21.199219 51.535156 21.175781 52.007812 C 21 54.96875 18.988281 57.605469 16.152344 57.679688 L 16.175781 56.609375 C 18.488281 56.558594 19.980469 54.320312 20.132812 51.859375 C 20.15625 51.410156 20.179688 50.9375 20.179688 50.492188 C 20.179688 49.71875 20.15625 48.972656 20.082031 48.203125 C 19.359375 48.328125 18.640625 48.402344 17.867188 48.402344 Z M 20.179688 19.101562 C 20.179688 17.734375 20.082031 17.136719 19.683594 15.894531 C 17.222656 17.085938 15.652344 19.597656 15.652344 22.335938 C 15.652344 24.175781 16.101562 25.644531 16.550781 27.160156 C 18.539062 24.75 20.179688 22.234375 20.179688 19.101562 Z M 20.179688 19.101562 "/>
<path style=" stroke:none;fill-rule:nonzero;fill:rgb(0%,0%,0%);fill-opacity:1;" d="M 63.328125 10.519531 C 64.695312 10.519531 66.015625 11.21875 66.015625 12.734375 C 66.015625 14.5 64.648438 15.746094 63.476562 16.441406 C 62.609375 16.964844 61.613281 17.285156 60.59375 17.285156 C 59.226562 17.285156 57.90625 16.589844 57.90625 15.074219 C 57.90625 13.308594 59.273438 12.0625 60.445312 11.367188 C 61.3125 10.84375 62.308594 10.519531 63.328125 10.519531 Z M 63.328125 10.519531 "/>
<path style=" stroke:none;fill-rule:nonzero;fill:rgb(0%,0%,0%);fill-opacity:1;" d="M 63.328125 16.738281 C 64.695312 16.738281 66.015625 17.433594 66.015625 18.953125 C 66.015625 20.71875 64.648438 21.960938 63.476562 22.660156 C 62.609375 23.179688 61.613281 23.503906 60.59375 23.503906 C 59.226562 23.503906 57.90625 22.808594 57.90625 21.289062 C 57.90625 19.523438 59.273438 18.28125 60.445312 17.585938 C 61.3125 17.0625 62.308594 16.738281 63.328125 16.738281 Z M 63.328125 16.738281 "/>
<path style=" stroke:none;fill-rule:nonzero;fill:rgb(0%,0%,0%);fill-opacity:1;" d="M 63.328125 22.957031 C 64.695312 22.957031 66.015625 23.652344 66.015625 25.171875 C 66.015625 26.9375 64.648438 28.179688 63.476562 28.875 C 62.609375 29.398438 61.613281 29.722656 60.59375 29.722656 C 59.226562 29.722656 57.90625 29.027344 57.90625 27.507812 C 57.90625 25.742188 59.273438 24.5 60.445312 23.804688 C 61.3125 23.28125 62.308594 22.957031 63.328125 22.957031 Z M 63.328125 22.957031 "/>
<path style=" stroke:none;fill-rule:nonzero;fill:rgb(0%,0%,0%);fill-opacity:1;" d="M 63.328125 29.175781 C 64.695312 29.175781 66.015625 29.871094 66.015625 31.390625 C 66.015625 33.15625 64.648438 34.398438 63.476562 35.09375 C 62.609375 35.617188 61.613281 35.941406 60.59375 35.941406 C 59.226562 35.941406 57.90625 35.246094 57.90625 33.726562 C 57.90625 31.960938 59.273438 30.71875 60.445312 30.019531 C 61.3125 29.5 62.308594 29.175781 63.328125 29.175781 Z M 63.328125 29.175781 "/>
</g>
</svg>
