<?xml version="1.0" encoding="UTF-8"?>
<svg xmlns="http://www.w3.org/2000/svg" xmlns:xlink="http://www.w3.org/1999/xlink" width="68.472344pt" height="43.55424pt" viewBox="0 0 68.472344 43.55424" version="1.1">
<g id="surface1">
<path style="fill:none;stroke-width:0.1;stroke-linecap:round;stroke-linejoin:round;stroke:rgb(0%,0%,0%);stroke-opacity:1;stroke-miterlimit:4;" d="M 0.049863 -0.0001075 L 8.752337 -0.0001075 " transform="matrix(6.218149,0,0,6.218149,4.561038,29.434262)"/>
<path style="fill:none;stroke-width:0.1;stroke-linecap:round;stroke-linejoin:round;stroke:rgb(0%,0%,0%);stroke-opacity:1;stroke-miterlimit:4;" d="M 0.049863 -0.000204149 L 8.752337 -0.000204149 " transform="matrix(6.218149,0,0,6.218149,4.561038,23.216113)"/>
<path style="fill:none;stroke-width:0.1;stroke-linecap:round;stroke-linejoin:round;stroke:rgb(0%,0%,0%);stroke-opacity:1;stroke-miterlimit:4;" d="M 0.049863 -0.000300797 L 8.752337 -0.000300797 " transform="matrix(6.218149,0,0,6.218149,4.561038,16.997964)"/>
<path style="fill:none;stroke-width:0.1;stroke-linecap:round;stroke-linejoin:round;stroke:rgb(0%,0%,0%);stroke-opacity:1;stroke-miterlimit:4;" d="M 0.049863 0.000230756 L 8.752337 0.000230756 " transform="matrix(6.218149,0,0,6.218149,4.561038,10.779815)"/>
<path style="fill:none;stroke-width:0.1;stroke-linecap:round;stroke-linejoin:round;stroke:rgb(0%,0%,0%);stroke-opacity:1;stroke-miterlimit:4;" d="M 0.049863 0.000133988 L 8.752337 0.000133988 " transform="matrix(6.218149,0,0,6.218149,4.561038,4.561667)"/>
<path style=" stroke:none;fill-rule:nonzero;fill:rgb(0%,0%,0%);fill-opacity:1;" d="M 48.175781 4.5625 L 48.488281 4.5625 C 48.625 4.5625 48.734375 4.671875 48.734375 4.808594 L 48.734375 24.917969 C 48.734375 25.054688 48.625 25.167969 48.488281 25.167969 L 48.175781 25.167969 C 48.039062 25.167969 47.925781 25.054688 47.925781 24.917969 L 47.925781 4.808594 C 47.925781 4.671875 48.039062 4.5625 48.175781 4.5625 Z M 48.175781 4.5625 "/>
<path style=" stroke:none;fill-rule:nonzero;fill:rgb(0%,0%,0%);fill-opacity:1;" d="M 36.984375 34.085938 C 36.984375 34.335938 36.785156 34.558594 36.535156 34.558594 C 36.285156 34.558594 36.0625 34.335938 36.0625 34.085938 L 36.0625 30.480469 L 33.996094 31.25 L 33.996094 35.179688 C 33.996094 35.429688 33.773438 35.652344 33.523438 35.652344 C 33.277344 35.652344 33.078125 35.429688 33.078125 35.179688 L 33.078125 31.574219 L 32.28125 31.871094 C 32.230469 31.898438 32.15625 31.898438 32.109375 31.898438 C 31.832031 31.898438 31.609375 31.671875 31.609375 31.398438 L 31.609375 29.90625 C 31.609375 29.707031 31.734375 29.507812 31.933594 29.433594 L 33.078125 29.035156 L 33.078125 25.058594 L 32.28125 25.332031 C 32.230469 25.355469 32.15625 25.355469 32.109375 25.355469 C 31.832031 25.355469 31.609375 25.132812 31.609375 24.859375 L 31.609375 23.367188 C 31.609375 23.167969 31.734375 22.992188 31.933594 22.917969 L 33.078125 22.496094 L 33.078125 18.566406 C 33.078125 18.316406 33.277344 18.09375 33.523438 18.09375 C 33.773438 18.09375 33.996094 18.316406 33.996094 18.566406 L 33.996094 22.171875 L 36.0625 21.402344 L 36.0625 17.46875 C 36.0625 17.222656 36.285156 16.996094 36.535156 16.996094 C 36.785156 16.996094 36.984375 17.222656 36.984375 17.46875 L 36.984375 21.078125 L 37.777344 20.777344 C 37.828125 20.753906 37.902344 20.753906 37.953125 20.753906 C 38.226562 20.753906 38.449219 20.976562 38.449219 21.25 L 38.449219 22.742188 C 38.449219 22.941406 38.324219 23.140625 38.125 23.214844 L 36.984375 23.613281 L 36.984375 27.59375 L 37.777344 27.320312 C 37.828125 27.296875 37.902344 27.296875 37.953125 27.296875 C 38.226562 27.296875 38.449219 27.519531 38.449219 27.792969 L 38.449219 29.285156 C 38.449219 29.484375 38.324219 29.65625 38.125 29.734375 L 36.984375 30.15625 Z M 33.996094 24.707031 L 33.996094 28.6875 L 36.0625 27.941406 L 36.0625 23.960938 Z M 33.996094 24.707031 "/>
<path style=" stroke:none;fill-rule:nonzero;fill:rgb(0%,0%,0%);fill-opacity:1;" d="M 23.390625 13.890625 C 23.390625 13.191406 23.960938 12.621094 24.65625 12.621094 C 25.355469 12.621094 25.925781 13.191406 25.925781 13.890625 C 25.925781 14.585938 25.355469 15.15625 24.65625 15.15625 C 23.960938 15.15625 23.390625 14.585938 23.390625 13.890625 Z M 23.390625 7.671875 C 23.390625 6.972656 23.960938 6.402344 24.65625 6.402344 C 25.355469 6.402344 25.925781 6.972656 25.925781 7.671875 C 25.925781 8.367188 25.355469 8.9375 24.65625 8.9375 C 23.960938 8.9375 23.390625 8.367188 23.390625 7.671875 Z M 15.304688 4.238281 C 19.585938 4.238281 22.59375 6.425781 22.59375 10.480469 C 22.59375 17.023438 16.050781 20.777344 9.757812 23.441406 C 9.683594 23.515625 9.609375 23.539062 9.535156 23.539062 C 9.363281 23.539062 9.210938 23.390625 9.210938 23.214844 C 9.210938 23.140625 9.238281 23.066406 9.3125 22.992188 C 14.335938 20.058594 19.558594 16.402344 19.558594 10.730469 C 19.558594 7.746094 17.992188 4.886719 15.304688 4.886719 C 13.464844 4.886719 12.097656 6.226562 11.476562 8.019531 C 11.75 7.894531 12.023438 7.820312 12.320312 7.820312 C 13.6875 7.820312 14.808594 8.9375 14.808594 10.308594 C 14.808594 11.75 13.714844 12.945312 12.320312 12.945312 C 10.828125 12.945312 9.535156 11.773438 9.535156 10.308594 C 9.535156 7 12.074219 4.238281 15.304688 4.238281 Z M 15.304688 4.238281 "/>
<path style=" stroke:none;fill-rule:nonzero;fill:rgb(0%,0%,0%);fill-opacity:1;" d="M 46.046875 22.941406 C 47.417969 22.941406 48.734375 23.640625 48.734375 25.15625 C 48.734375 26.921875 47.367188 28.164062 46.199219 28.863281 C 45.328125 29.382812 44.332031 29.707031 43.3125 29.707031 C 41.945312 29.707031 40.625 29.011719 40.625 27.496094 C 40.625 25.726562 41.996094 24.484375 43.164062 23.789062 C 44.035156 23.265625 45.027344 22.941406 46.046875 22.941406 Z M 46.046875 22.941406 "/>
</g>
</svg>
