<?xml version="1.0" encoding="UTF-8"?>
<svg xmlns="http://www.w3.org/2000/svg" xmlns:xlink="http://www.w3.org/1999/xlink" width="68.472344pt" height="58.61114pt" viewBox="0 0 68.472344 58.61114" version="1.1">
<g id="surface1">
<path style="fill:none;stroke-width:0.1;stroke-linecap:round;stroke-linejoin:round;stroke:rgb(0%,0%,0%);stroke-opacity:1;stroke-miterlimit:4;" d="M 0.049863 -0.000287501 L 8.752337 -0.000287501 " transform="matrix(6.218149,0,0,6.218149,4.561038,40.517413)"/>
<path style="fill:none;stroke-width:0.1;stroke-linecap:round;stroke-linejoin:round;stroke:rgb(0%,0%,0%);stroke-opacity:1;stroke-miterlimit:4;" d="M 0.049863 0.000244052 L 8.752337 0.000244052 " transform="matrix(6.218149,0,0,6.218149,4.561038,34.299264)"/>
<path style="fill:none;stroke-width:0.1;stroke-linecap:round;stroke-linejoin:round;stroke:rgb(0%,0%,0%);stroke-opacity:1;stroke-miterlimit:4;" d="M 0.049863 0.000147403 L 8.752337 0.000147403 " transform="matrix(6.218149,0,0,6.218149,4.561038,28.081115)"/>
<path style="fill:none;stroke-width:0.1;stroke-linecap:round;stroke-linejoin:round;stroke:rgb(0%,0%,0%);stroke-opacity:1;stroke-miterlimit:4;" d="M 0.049863 0.0000507548 L 8.752337 0.0000507548 " transform="matrix(6.218149,0,0,6.218149,4.561038,21.862966)"/>
<path style="fill:none;stroke-width:0.1;stroke-linecap:round;stroke-linejoin:round;stroke:rgb(0%,0%,0%);stroke-opacity:1;stroke-miterlimit:4;" d="M 0.049863 -0.0000458938 L 8.752337 -0.0000458938 " transform="matrix(6.218149,0,0,6.218149,4.561038,15.644817)"/>
<path style=" stroke:none;fill-rule:nonzero;fill:rgb(0%,0%,0%);fill-opacity:1;" d="M 40.875 26.128906 L 41.1875 26.128906 C 41.324219 26.128906 41.433594 26.242188 41.433594 26.378906 L 41.433594 46.488281 C 41.433594 46.625 41.324219 46.734375 41.1875 46.734375 L 40.875 46.734375 C 40.738281 46.734375 40.625 46.625 40.625 46.488281 L 40.625 26.378906 C 40.625 26.242188 40.738281 26.128906 40.875 26.128906 Z M 40.875 26.128906 "/>
<path style=" stroke:none;fill-rule:nonzero;fill:rgb(0%,0%,0%);fill-opacity:1;" d="M 36.984375 32.730469 C 36.984375 32.980469 36.785156 33.203125 36.535156 33.203125 C 36.285156 33.203125 36.0625 32.980469 36.0625 32.730469 L 36.0625 29.125 L 33.996094 29.898438 L 33.996094 33.828125 C 33.996094 34.074219 33.773438 34.300781 33.523438 34.300781 C 33.277344 34.300781 33.078125 34.074219 33.078125 33.828125 L 33.078125 30.21875 L 32.28125 30.519531 C 32.230469 30.542969 32.15625 30.542969 32.109375 30.542969 C 31.832031 30.542969 31.609375 30.320312 31.609375 30.046875 L 31.609375 28.554688 C 31.609375 28.355469 31.734375 28.15625 31.933594 28.082031 L 33.078125 27.683594 L 33.078125 23.703125 L 32.28125 23.976562 C 32.230469 24.003906 32.15625 24.003906 32.109375 24.003906 C 31.832031 24.003906 31.609375 23.777344 31.609375 23.503906 L 31.609375 22.011719 C 31.609375 21.8125 31.734375 21.640625 31.933594 21.566406 L 33.078125 21.140625 L 33.078125 17.210938 C 33.078125 16.964844 33.277344 16.738281 33.523438 16.738281 C 33.773438 16.738281 33.996094 16.964844 33.996094 17.210938 L 33.996094 20.816406 L 36.0625 20.046875 L 36.0625 16.117188 C 36.0625 15.867188 36.285156 15.644531 36.535156 15.644531 C 36.785156 15.644531 36.984375 15.867188 36.984375 16.117188 L 36.984375 19.722656 L 37.777344 19.425781 C 37.828125 19.402344 37.902344 19.402344 37.953125 19.402344 C 38.226562 19.402344 38.449219 19.625 38.449219 19.898438 L 38.449219 21.390625 C 38.449219 21.589844 38.324219 21.789062 38.125 21.863281 L 36.984375 22.261719 L 36.984375 26.242188 L 37.777344 25.96875 C 37.828125 25.941406 37.902344 25.941406 37.953125 25.941406 C 38.226562 25.941406 38.449219 26.164062 38.449219 26.441406 L 38.449219 27.933594 C 38.449219 28.132812 38.324219 28.304688 38.125 28.378906 L 36.984375 28.800781 Z M 33.996094 23.355469 L 33.996094 27.335938 L 36.0625 26.589844 L 36.0625 22.609375 Z M 33.996094 23.355469 "/>
<path style=" stroke:none;fill-rule:nonzero;fill:rgb(0%,0%,0%);fill-opacity:1;" d="M 16.152344 50.09375 L 16.003906 50.09375 C 13.316406 50.09375 11.152344 47.90625 11.152344 45.195312 C 11.152344 43.75 12.46875 42.632812 13.9375 42.632812 C 15.28125 42.632812 16.300781 43.800781 16.300781 45.195312 C 16.300781 46.488281 15.230469 47.554688 13.9375 47.554688 C 13.664062 47.554688 13.414062 47.507812 13.167969 47.40625 C 13.8125 48.378906 14.859375 49.023438 16.078125 49.023438 L 16.175781 49.023438 Z M 21 39.347656 C 22.691406 38.75 23.8125 36.984375 23.8125 35.269531 C 23.8125 33.03125 22.171875 30.816406 19.507812 30.542969 C 20.105469 33.429688 20.652344 36.289062 21 39.347656 Z M 11.375 33.601562 C 11.375 36.960938 14.585938 39.746094 17.941406 39.746094 C 18.640625 39.746094 19.308594 39.695312 19.980469 39.597656 C 19.632812 36.4375 19.0625 33.503906 18.414062 30.542969 C 16.449219 30.742188 15.332031 32.0625 15.332031 33.503906 C 15.332031 34.597656 15.953125 35.765625 17.34375 36.5625 C 17.46875 36.6875 17.519531 36.8125 17.519531 36.9375 C 17.519531 37.210938 17.269531 37.484375 16.972656 37.484375 C 16.898438 37.484375 16.824219 37.457031 16.75 37.433594 C 14.757812 36.363281 13.839844 34.574219 13.839844 32.832031 C 13.839844 30.644531 15.28125 28.503906 17.816406 27.933594 C 17.46875 26.488281 17.097656 25.023438 16.675781 23.578125 C 14.011719 26.589844 11.375 29.625 11.375 33.601562 Z M 17.867188 40.816406 C 13.191406 40.816406 9.585938 36.539062 9.585938 31.511719 C 9.585938 27.109375 12.84375 23.902344 15.753906 20.542969 C 15.28125 19.003906 14.832031 17.4375 14.632812 15.820312 C 14.484375 14.527344 14.460938 13.230469 14.460938 11.9375 C 14.460938 9.078125 15.828125 6.367188 18.167969 4.675781 C 18.316406 4.550781 18.515625 4.550781 18.664062 4.675781 C 20.429688 6.765625 21.972656 10.769531 21.972656 13.582031 C 21.972656 17.136719 19.832031 19.921875 17.496094 22.632812 C 18.015625 24.324219 18.464844 26.066406 18.886719 27.78125 C 18.988281 27.78125 19.113281 27.757812 19.210938 27.757812 C 23.066406 27.757812 25.578125 30.941406 25.578125 34.25 C 25.578125 36.140625 24.757812 38.078125 22.917969 39.472656 C 22.371094 39.894531 21.746094 40.167969 21.101562 40.367188 C 21.175781 41.238281 21.226562 42.109375 21.226562 42.980469 C 21.226562 43.453125 21.199219 43.949219 21.175781 44.421875 C 21 47.382812 18.988281 50.019531 16.152344 50.09375 L 16.175781 49.023438 C 18.488281 48.972656 19.980469 46.734375 20.132812 44.273438 C 20.15625 43.824219 20.179688 43.351562 20.179688 42.90625 C 20.179688 42.132812 20.15625 41.386719 20.082031 40.617188 C 19.359375 40.742188 18.640625 40.816406 17.867188 40.816406 Z M 20.179688 11.515625 C 20.179688 10.148438 20.082031 9.550781 19.683594 8.308594 C 17.222656 9.5 15.652344 12.011719 15.652344 14.75 C 15.652344 16.589844 16.101562 18.058594 16.550781 19.574219 C 18.539062 17.160156 20.179688 14.648438 20.179688 11.515625 Z M 20.179688 11.515625 "/>
<path style=" stroke:none;fill-rule:nonzero;fill:rgb(0%,0%,0%);fill-opacity:1;" d="M 46.046875 21.589844 C 47.417969 21.589844 48.734375 22.285156 48.734375 23.804688 C 48.734375 25.570312 47.367188 26.8125 46.199219 27.507812 C 45.328125 28.03125 44.332031 28.355469 43.3125 28.355469 C 41.945312 28.355469 40.625 27.660156 40.625 26.140625 C 40.625 24.375 41.996094 23.132812 43.164062 22.433594 C 44.035156 21.914062 45.027344 21.589844 46.046875 21.589844 Z M 46.046875 21.589844 "/>
</g>
</svg>
