<?xml version="1.0" encoding="UTF-8"?>
<svg xmlns="http://www.w3.org/2000/svg" xmlns:xlink="http://www.w3.org/1999/xlink" width="68.472344pt" height="60.37121pt" viewBox="0 0 68.472344 60.37121" version="1.1">
<g id="surface1">
<path style="fill:none;stroke-width:0.1;stroke-linecap:round;stroke-linejoin:round;stroke:rgb(0%,0%,0%);stroke-opacity:1;stroke-miterlimit:4;" d="M 0.049863 0.000275194 L 8.752337 0.000275194 " transform="matrix(6.218149,0,0,6.218149,4.561038,42.158445)"/>
<path style="fill:none;stroke-width:0.1;stroke-linecap:round;stroke-linejoin:round;stroke:rgb(0%,0%,0%);stroke-opacity:1;stroke-miterlimit:4;" d="M 0.049863 0.000178545 L 8.752337 0.000178545 " transform="matrix(6.218149,0,0,6.218149,4.561038,35.940296)"/>
<path style="fill:none;stroke-width:0.1;stroke-linecap:round;stroke-linejoin:round;stroke:rgb(0%,0%,0%);stroke-opacity:1;stroke-miterlimit:4;" d="M 0.049863 0.0000818968 L 8.752337 0.0000818968 " transform="matrix(6.218149,0,0,6.218149,4.561038,29.722147)"/>
<path style="fill:none;stroke-width:0.1;stroke-linecap:round;stroke-linejoin:round;stroke:rgb(0%,0%,0%);stroke-opacity:1;stroke-miterlimit:4;" d="M 0.049863 -0.0000147518 L 8.752337 -0.0000147518 " transform="matrix(6.218149,0,0,6.218149,4.561038,23.503998)"/>
<path style="fill:none;stroke-width:0.1;stroke-linecap:round;stroke-linejoin:round;stroke:rgb(0%,0%,0%);stroke-opacity:1;stroke-miterlimit:4;" d="M 0.049863 -0.0001114 L 8.752337 -0.0001114 " transform="matrix(6.218149,0,0,6.218149,4.561038,17.285849)"/>
<path style=" stroke:none;fill-rule:nonzero;fill:rgb(0%,0%,0%);fill-opacity:1;" d="M 39.21875 10.445312 L 50.140625 10.445312 C 50.484375 10.445312 50.761719 10.722656 50.761719 11.066406 C 50.761719 11.410156 50.484375 11.691406 50.140625 11.691406 L 39.21875 11.691406 C 38.878906 11.691406 38.597656 11.410156 38.597656 11.066406 C 38.597656 10.722656 38.878906 10.445312 39.21875 10.445312 Z M 39.21875 10.445312 "/>
<path style=" stroke:none;fill-rule:nonzero;fill:rgb(0%,0%,0%);fill-opacity:1;" d="M 40.875 9.117188 L 41.1875 9.117188 C 41.324219 9.117188 41.433594 9.226562 41.433594 9.363281 L 41.433594 48.128906 C 41.433594 48.265625 41.324219 48.375 41.1875 48.375 L 40.875 48.375 C 40.738281 48.375 40.625 48.265625 40.625 48.128906 L 40.625 9.363281 C 40.625 9.226562 40.738281 9.117188 40.875 9.117188 Z M 40.875 9.117188 "/>
<path style=" stroke:none;fill-rule:nonzero;fill:rgb(0%,0%,0%);fill-opacity:1;" d="M 16.152344 51.734375 L 16.003906 51.734375 C 13.316406 51.734375 11.152344 49.546875 11.152344 46.835938 C 11.152344 45.390625 12.46875 44.273438 13.9375 44.273438 C 15.28125 44.273438 16.300781 45.441406 16.300781 46.835938 C 16.300781 48.128906 15.230469 49.199219 13.9375 49.199219 C 13.664062 49.199219 13.414062 49.148438 13.167969 49.046875 C 13.8125 50.019531 14.859375 50.664062 16.078125 50.664062 L 16.175781 50.664062 Z M 21 40.988281 C 22.691406 40.390625 23.8125 38.625 23.8125 36.910156 C 23.8125 34.671875 22.171875 32.457031 19.507812 32.183594 C 20.105469 35.070312 20.652344 37.929688 21 40.988281 Z M 11.375 35.242188 C 11.375 38.601562 14.585938 41.386719 17.941406 41.386719 C 18.640625 41.386719 19.308594 41.335938 19.980469 41.238281 C 19.632812 38.078125 19.0625 35.144531 18.414062 32.183594 C 16.449219 32.382812 15.332031 33.703125 15.332031 35.144531 C 15.332031 36.238281 15.953125 37.40625 17.34375 38.203125 C 17.46875 38.328125 17.519531 38.453125 17.519531 38.578125 C 17.519531 38.851562 17.269531 39.125 16.972656 39.125 C 16.898438 39.125 16.824219 39.097656 16.75 39.074219 C 14.757812 38.003906 13.839844 36.214844 13.839844 34.472656 C 13.839844 32.285156 15.28125 30.144531 17.816406 29.574219 C 17.46875 28.128906 17.097656 26.664062 16.675781 25.21875 C 14.011719 28.230469 11.375 31.265625 11.375 35.242188 Z M 17.867188 42.457031 C 13.191406 42.457031 9.585938 38.179688 9.585938 33.15625 C 9.585938 28.753906 12.84375 25.542969 15.753906 22.1875 C 15.28125 20.644531 14.832031 19.078125 14.632812 17.460938 C 14.484375 16.167969 14.460938 14.875 14.460938 13.578125 C 14.460938 10.71875 15.828125 8.007812 18.167969 6.316406 C 18.316406 6.191406 18.515625 6.191406 18.664062 6.316406 C 20.429688 8.40625 21.972656 12.410156 21.972656 15.222656 C 21.972656 18.777344 19.832031 21.5625 17.496094 24.273438 C 18.015625 25.964844 18.464844 27.707031 18.886719 29.421875 C 18.988281 29.421875 19.113281 29.398438 19.210938 29.398438 C 23.066406 29.398438 25.578125 32.582031 25.578125 35.890625 C 25.578125 37.78125 24.757812 39.722656 22.917969 41.113281 C 22.371094 41.535156 21.746094 41.808594 21.101562 42.007812 C 21.175781 42.878906 21.226562 43.75 21.226562 44.621094 C 21.226562 45.09375 21.199219 45.589844 21.175781 46.0625 C 21 49.023438 18.988281 51.660156 16.152344 51.734375 L 16.175781 50.664062 C 18.488281 50.613281 19.980469 48.375 20.132812 45.914062 C 20.15625 45.464844 20.179688 44.992188 20.179688 44.546875 C 20.179688 43.773438 20.15625 43.027344 20.082031 42.257812 C 19.359375 42.382812 18.640625 42.457031 17.867188 42.457031 Z M 20.179688 13.15625 C 20.179688 11.789062 20.082031 11.191406 19.683594 9.949219 C 17.222656 11.140625 15.652344 13.65625 15.652344 16.390625 C 15.652344 18.230469 16.101562 19.699219 16.550781 21.214844 C 18.539062 18.804688 20.179688 16.289062 20.179688 13.15625 Z M 20.179688 13.15625 "/>
<path style=" stroke:none;fill-rule:nonzero;fill:rgb(0%,0%,0%);fill-opacity:1;" d="M 46.046875 4.574219 C 47.417969 4.574219 48.734375 5.273438 48.734375 6.789062 C 48.734375 8.554688 47.367188 9.800781 46.199219 10.496094 C 45.328125 11.019531 44.332031 11.339844 43.3125 11.339844 C 41.945312 11.339844 40.625 10.644531 40.625 9.128906 C 40.625 7.363281 41.996094 6.117188 43.164062 5.421875 C 44.035156 4.898438 45.027344 4.574219 46.046875 4.574219 Z M 46.046875 4.574219 "/>
<path style=" stroke:none;fill-rule:nonzero;fill:rgb(0%,0%,0%);fill-opacity:1;" d="M 46.046875 10.792969 C 47.417969 10.792969 48.734375 11.492188 48.734375 13.007812 C 48.734375 14.773438 47.367188 16.015625 46.199219 16.714844 C 45.328125 17.234375 44.332031 17.558594 43.3125 17.558594 C 41.945312 17.558594 40.625 16.863281 40.625 15.347656 C 40.625 13.578125 41.996094 12.335938 43.164062 11.640625 C 44.035156 11.117188 45.027344 10.792969 46.046875 10.792969 Z M 46.046875 10.792969 "/>
<path style=" stroke:none;fill-rule:nonzero;fill:rgb(0%,0%,0%);fill-opacity:1;" d="M 46.046875 17.011719 C 47.417969 17.011719 48.734375 17.707031 48.734375 19.226562 C 48.734375 20.992188 47.367188 22.234375 46.199219 22.933594 C 45.328125 23.453125 44.332031 23.777344 43.3125 23.777344 C 41.945312 23.777344 40.625 23.082031 40.625 21.5625 C 40.625 19.796875 41.996094 18.554688 43.164062 17.859375 C 44.035156 17.335938 45.027344 17.011719 46.046875 17.011719 Z M 46.046875 17.011719 "/>
<path style=" stroke:none;fill-rule:nonzero;fill:rgb(0%,0%,0%);fill-opacity:1;" d="M 46.046875 23.230469 C 47.417969 23.230469 48.734375 23.925781 48.734375 25.445312 C 48.734375 27.210938 47.367188 28.453125 46.199219 29.148438 C 45.328125 29.671875 44.332031 29.996094 43.3125 29.996094 C 41.945312 29.996094 40.625 29.300781 40.625 27.78125 C 40.625 26.015625 41.996094 24.773438 43.164062 24.074219 C 44.035156 23.554688 45.027344 23.230469 46.046875 23.230469 Z M 46.046875 23.230469 "/>
</g>
</svg>
