<?xml version="1.0" encoding="UTF-8"?>
<svg xmlns="http://www.w3.org/2000/svg" xmlns:xlink="http://www.w3.org/1999/xlink" width="97.139563pt" height="58.706119pt" viewBox="0 0 97.139563 58.706119" version="1.1">
<g id="surface1">
<path style="fill:none;stroke-width:0.1;stroke-linecap:round;stroke-linejoin:round;stroke:rgb(0%,0%,0%);stroke-opacity:1;stroke-miterlimit:4;" d="M 0.049863 0.00023304 L 13.068709 0.00023304 " transform="matrix(6.218149,0,0,6.218149,4.561038,41.88527)"/>
<path style="fill:none;stroke-width:0.1;stroke-linecap:round;stroke-linejoin:round;stroke:rgb(0%,0%,0%);stroke-opacity:1;stroke-miterlimit:4;" d="M 0.049863 0.000136391 L 13.068709 0.000136391 " transform="matrix(6.218149,0,0,6.218149,4.561038,35.667121)"/>
<path style="fill:none;stroke-width:0.1;stroke-linecap:round;stroke-linejoin:round;stroke:rgb(0%,0%,0%);stroke-opacity:1;stroke-miterlimit:4;" d="M 0.049863 0.0000397429 L 13.068709 0.0000397429 " transform="matrix(6.218149,0,0,6.218149,4.561038,29.448972)"/>
<path style="fill:none;stroke-width:0.1;stroke-linecap:round;stroke-linejoin:round;stroke:rgb(0%,0%,0%);stroke-opacity:1;stroke-miterlimit:4;" d="M 0.049863 -0.0000569057 L 13.068709 -0.0000569057 " transform="matrix(6.218149,0,0,6.218149,4.561038,23.230823)"/>
<path style="fill:none;stroke-width:0.1;stroke-linecap:round;stroke-linejoin:round;stroke:rgb(0%,0%,0%);stroke-opacity:1;stroke-miterlimit:4;" d="M 0.049863 -0.000153554 L 13.068709 -0.000153554 " transform="matrix(6.218149,0,0,6.218149,4.561038,17.012674)"/>
<path style=" stroke:none;fill-rule:nonzero;fill:rgb(0%,0%,0%);fill-opacity:1;" d="M 67.714844 15.0625 L 68.023438 15.0625 C 68.164062 15.0625 68.273438 15.171875 68.273438 15.308594 L 68.273438 49.925781 C 68.273438 50.066406 68.164062 50.175781 68.023438 50.175781 L 67.714844 50.175781 C 67.578125 50.175781 67.464844 50.066406 67.464844 49.925781 L 67.464844 15.308594 C 67.464844 15.171875 67.578125 15.0625 67.714844 15.0625 Z M 67.714844 15.0625 "/>
<path style=" stroke:none;fill-rule:nonzero;fill:rgb(0%,0%,0%);fill-opacity:1;" d="M 56.117188 21.664062 C 56.117188 21.914062 55.917969 22.136719 55.667969 22.136719 C 55.417969 22.136719 55.195312 21.914062 55.195312 21.664062 L 55.195312 18.058594 L 53.132812 18.828125 L 53.132812 22.757812 C 53.132812 23.007812 52.90625 23.230469 52.660156 23.230469 C 52.410156 23.230469 52.210938 23.007812 52.210938 22.757812 L 52.210938 19.152344 L 51.414062 19.449219 C 51.367188 19.476562 51.292969 19.476562 51.242188 19.476562 C 50.96875 19.476562 50.742188 19.25 50.742188 18.976562 L 50.742188 17.484375 C 50.742188 17.285156 50.867188 17.085938 51.066406 17.011719 L 52.210938 16.613281 L 52.210938 12.636719 L 51.414062 12.910156 C 51.367188 12.933594 51.292969 12.933594 51.242188 12.933594 C 50.96875 12.933594 50.742188 12.710938 50.742188 12.4375 L 50.742188 10.945312 C 50.742188 10.746094 50.867188 10.570312 51.066406 10.496094 L 52.210938 10.074219 L 52.210938 6.144531 C 52.210938 5.894531 52.410156 5.671875 52.660156 5.671875 C 52.90625 5.671875 53.132812 5.894531 53.132812 6.144531 L 53.132812 9.75 L 55.195312 8.980469 L 55.195312 5.050781 C 55.195312 4.800781 55.417969 4.578125 55.667969 4.578125 C 55.917969 4.578125 56.117188 4.800781 56.117188 5.050781 L 56.117188 8.65625 L 56.914062 8.355469 C 56.960938 8.332031 57.035156 8.332031 57.085938 8.332031 C 57.359375 8.332031 57.582031 8.554688 57.582031 8.828125 L 57.582031 10.320312 C 57.582031 10.519531 57.460938 10.71875 57.261719 10.792969 L 56.117188 11.191406 L 56.117188 15.171875 L 56.914062 14.898438 C 56.960938 14.875 57.035156 14.875 57.085938 14.875 C 57.359375 14.875 57.582031 15.097656 57.582031 15.371094 L 57.582031 16.863281 C 57.582031 17.0625 57.460938 17.238281 57.261719 17.3125 L 56.117188 17.734375 Z M 53.132812 12.285156 L 53.132812 16.265625 L 55.195312 15.519531 L 55.195312 11.539062 Z M 53.132812 12.285156 "/>
<path style=" stroke:none;fill-rule:nonzero;fill:rgb(0%,0%,0%);fill-opacity:1;" d="M 43.082031 24.773438 C 43.082031 25.023438 42.882812 25.246094 42.636719 25.246094 C 42.386719 25.246094 42.164062 25.023438 42.164062 24.773438 L 42.164062 21.167969 L 40.097656 21.9375 L 40.097656 25.867188 C 40.097656 26.117188 39.875 26.339844 39.625 26.339844 C 39.378906 26.339844 39.179688 26.117188 39.179688 25.867188 L 39.179688 22.261719 L 38.382812 22.558594 C 38.332031 22.585938 38.257812 22.585938 38.207031 22.585938 C 37.933594 22.585938 37.710938 22.359375 37.710938 22.085938 L 37.710938 20.59375 C 37.710938 20.394531 37.835938 20.195312 38.035156 20.121094 L 39.179688 19.722656 L 39.179688 15.746094 L 38.382812 16.019531 C 38.332031 16.042969 38.257812 16.042969 38.207031 16.042969 C 37.933594 16.042969 37.710938 15.820312 37.710938 15.546875 L 37.710938 14.054688 C 37.710938 13.855469 37.835938 13.679688 38.035156 13.605469 L 39.179688 13.183594 L 39.179688 9.253906 C 39.179688 9.003906 39.378906 8.78125 39.625 8.78125 C 39.875 8.78125 40.097656 9.003906 40.097656 9.253906 L 40.097656 12.859375 L 42.164062 12.089844 L 42.164062 8.15625 C 42.164062 7.910156 42.386719 7.683594 42.636719 7.683594 C 42.882812 7.683594 43.082031 7.910156 43.082031 8.15625 L 43.082031 11.765625 L 43.878906 11.464844 C 43.929688 11.441406 44.003906 11.441406 44.054688 11.441406 C 44.328125 11.441406 44.550781 11.664062 44.550781 11.9375 L 44.550781 13.429688 C 44.550781 13.628906 44.425781 13.828125 44.226562 13.902344 L 43.082031 14.300781 L 43.082031 18.28125 L 43.878906 18.007812 C 43.929688 17.984375 44.003906 17.984375 44.054688 17.984375 C 44.328125 17.984375 44.550781 18.207031 44.550781 18.480469 L 44.550781 19.972656 C 44.550781 20.171875 44.425781 20.34375 44.226562 20.421875 L 43.082031 20.84375 Z M 40.097656 15.394531 L 40.097656 19.375 L 42.164062 18.628906 L 42.164062 14.648438 Z M 40.097656 15.394531 "/>
<path style=" stroke:none;fill-rule:nonzero;fill:rgb(0%,0%,0%);fill-opacity:1;" d="M 33.734375 23.230469 C 34.304688 23.804688 35.125 23.925781 35.945312 23.925781 C 36.097656 23.925781 36.195312 24.027344 36.195312 24.175781 L 36.417969 26.339844 C 36.445312 26.488281 36.320312 26.613281 36.171875 26.589844 L 34.007812 26.363281 C 33.882812 26.339844 33.757812 26.242188 33.757812 26.117188 C 33.757812 25.296875 33.632812 24.472656 33.0625 23.902344 C 32.488281 24.472656 32.390625 25.296875 32.390625 26.117188 C 32.390625 26.242188 32.265625 26.339844 32.140625 26.363281 L 29.953125 26.589844 C 29.804688 26.613281 29.679688 26.488281 29.703125 26.339844 L 29.925781 24.175781 C 29.925781 24.027344 30.027344 23.925781 30.175781 23.925781 C 30.996094 23.925781 31.816406 23.804688 32.390625 23.230469 C 31.816406 22.660156 30.996094 22.535156 30.175781 22.535156 C 30.027344 22.535156 29.925781 22.433594 29.925781 22.285156 L 29.703125 20.121094 C 29.679688 19.972656 29.804688 19.847656 29.953125 19.871094 L 32.140625 20.097656 C 32.265625 20.121094 32.363281 20.222656 32.363281 20.34375 C 32.363281 21.167969 32.488281 21.988281 33.0625 22.558594 C 33.632812 21.988281 33.757812 21.167969 33.757812 20.34375 C 33.757812 20.222656 33.882812 20.121094 34.007812 20.097656 L 36.171875 19.871094 C 36.320312 19.847656 36.445312 19.972656 36.417969 20.121094 L 36.195312 22.285156 C 36.195312 22.433594 36.097656 22.535156 35.945312 22.535156 C 35.125 22.535156 34.304688 22.660156 33.734375 23.230469 Z M 33.734375 23.230469 "/>
<path style=" stroke:none;fill-rule:nonzero;fill:rgb(0%,0%,0%);fill-opacity:1;" d="M 49.523438 37.210938 C 49.523438 37.457031 49.324219 37.683594 49.078125 37.683594 C 48.828125 37.683594 48.605469 37.457031 48.605469 37.210938 L 48.605469 33.601562 L 46.539062 34.375 L 46.539062 38.304688 C 46.539062 38.550781 46.316406 38.777344 46.066406 38.777344 C 45.820312 38.777344 45.621094 38.550781 45.621094 38.304688 L 45.621094 34.695312 L 44.824219 34.996094 C 44.773438 35.019531 44.699219 35.019531 44.648438 35.019531 C 44.375 35.019531 44.152344 34.796875 44.152344 34.523438 L 44.152344 33.03125 C 44.152344 32.832031 44.277344 32.632812 44.476562 32.558594 L 45.621094 32.160156 L 45.621094 28.179688 L 44.824219 28.453125 C 44.773438 28.480469 44.699219 28.480469 44.648438 28.480469 C 44.375 28.480469 44.152344 28.253906 44.152344 27.980469 L 44.152344 26.488281 C 44.152344 26.289062 44.277344 26.117188 44.476562 26.042969 L 45.621094 25.617188 L 45.621094 21.6875 C 45.621094 21.441406 45.820312 21.214844 46.066406 21.214844 C 46.316406 21.214844 46.539062 21.441406 46.539062 21.6875 L 46.539062 25.296875 L 48.605469 24.523438 L 48.605469 20.59375 C 48.605469 20.34375 48.828125 20.121094 49.078125 20.121094 C 49.324219 20.121094 49.523438 20.34375 49.523438 20.59375 L 49.523438 24.199219 L 50.320312 23.902344 C 50.371094 23.878906 50.445312 23.878906 50.496094 23.878906 C 50.769531 23.878906 50.992188 24.101562 50.992188 24.375 L 50.992188 25.867188 C 50.992188 26.066406 50.867188 26.265625 50.667969 26.339844 L 49.523438 26.738281 L 49.523438 30.71875 L 50.320312 30.445312 C 50.371094 30.417969 50.445312 30.417969 50.496094 30.417969 C 50.769531 30.417969 50.992188 30.644531 50.992188 30.917969 L 50.992188 32.410156 C 50.992188 32.609375 50.867188 32.78125 50.667969 32.855469 L 49.523438 33.28125 Z M 46.539062 27.832031 L 46.539062 31.8125 L 48.605469 31.066406 L 48.605469 27.085938 Z M 46.539062 27.832031 "/>
<path style=" stroke:none;fill-rule:nonzero;fill:rgb(0%,0%,0%);fill-opacity:1;" d="M 23.390625 26.339844 C 23.390625 25.644531 23.960938 25.070312 24.65625 25.070312 C 25.355469 25.070312 25.925781 25.644531 25.925781 26.339844 C 25.925781 27.035156 25.355469 27.609375 24.65625 27.609375 C 23.960938 27.609375 23.390625 27.035156 23.390625 26.339844 Z M 23.390625 20.121094 C 23.390625 19.425781 23.960938 18.851562 24.65625 18.851562 C 25.355469 18.851562 25.925781 19.425781 25.925781 20.121094 C 25.925781 20.816406 25.355469 21.390625 24.65625 21.390625 C 23.960938 21.390625 23.390625 20.816406 23.390625 20.121094 Z M 15.304688 16.6875 C 19.585938 16.6875 22.59375 18.878906 22.59375 22.933594 C 22.59375 29.472656 16.050781 33.230469 9.757812 35.890625 C 9.683594 35.964844 9.609375 35.992188 9.535156 35.992188 C 9.363281 35.992188 9.210938 35.839844 9.210938 35.667969 C 9.210938 35.59375 9.238281 35.519531 9.3125 35.441406 C 14.335938 32.507812 19.558594 28.851562 19.558594 23.179688 C 19.558594 20.195312 17.992188 17.335938 15.304688 17.335938 C 13.464844 17.335938 12.097656 18.679688 11.476562 20.46875 C 11.75 20.34375 12.023438 20.269531 12.320312 20.269531 C 13.6875 20.269531 14.808594 21.390625 14.808594 22.757812 C 14.808594 24.199219 13.714844 25.394531 12.320312 25.394531 C 10.828125 25.394531 9.535156 24.226562 9.535156 22.757812 C 9.535156 19.449219 12.074219 16.6875 15.304688 16.6875 Z M 15.304688 16.6875 "/>
<path style=" stroke:none;fill-rule:nonzero;fill:rgb(0%,0%,0%);fill-opacity:1;" d="M 72.886719 10.519531 C 74.257812 10.519531 75.574219 11.21875 75.574219 12.734375 C 75.574219 14.5 74.207031 15.746094 73.039062 16.441406 C 72.167969 16.964844 71.171875 17.285156 70.152344 17.285156 C 68.785156 17.285156 67.464844 16.589844 67.464844 15.074219 C 67.464844 13.308594 68.832031 12.0625 70.003906 11.367188 C 70.875 10.84375 71.867188 10.519531 72.886719 10.519531 Z M 72.886719 10.519531 "/>
<path style=" stroke:none;fill-rule:nonzero;fill:rgb(0%,0%,0%);fill-opacity:1;" d="M 65.183594 13.628906 C 66.550781 13.628906 67.867188 14.328125 67.867188 15.84375 C 67.867188 17.609375 66.5 18.851562 65.332031 19.550781 C 64.460938 20.070312 63.464844 20.394531 62.445312 20.394531 C 61.078125 20.394531 59.761719 19.699219 59.761719 18.183594 C 59.761719 16.414062 61.128906 15.171875 62.296875 14.476562 C 63.167969 13.953125 64.164062 13.628906 65.183594 13.628906 Z M 65.183594 13.628906 "/>
<path style=" stroke:none;fill-rule:nonzero;fill:rgb(0%,0%,0%);fill-opacity:1;" d="M 72.886719 19.847656 C 74.257812 19.847656 75.574219 20.542969 75.574219 22.0625 C 75.574219 23.828125 74.207031 25.070312 73.039062 25.769531 C 72.167969 26.289062 71.171875 26.613281 70.152344 26.613281 C 68.785156 26.613281 67.464844 25.917969 67.464844 24.398438 C 67.464844 22.632812 68.832031 21.390625 70.003906 20.695312 C 70.875 20.171875 71.867188 19.847656 72.886719 19.847656 Z M 72.886719 19.847656 "/>
<path style=" stroke:none;fill-rule:nonzero;fill:rgb(0%,0%,0%);fill-opacity:1;" d="M 72.886719 26.066406 C 74.257812 26.066406 75.574219 26.761719 75.574219 28.28125 C 75.574219 30.046875 74.207031 31.289062 73.039062 31.984375 C 72.167969 32.507812 71.171875 32.832031 70.152344 32.832031 C 68.785156 32.832031 67.464844 32.136719 67.464844 30.617188 C 67.464844 28.851562 68.832031 27.609375 70.003906 26.910156 C 70.875 26.390625 71.867188 26.066406 72.886719 26.066406 Z M 72.886719 26.066406 "/>
</g>
</svg>
