<?xml version="1.0" encoding="UTF-8"?>
<svg xmlns="http://www.w3.org/2000/svg" xmlns:xlink="http://www.w3.org/1999/xlink" width="83.104172pt" height="73.654757pt" viewBox="0 0 83.104172 73.654757" version="1.1">
<g id="surface1">
<path style="fill:none;stroke-width:0.1;stroke-linecap:round;stroke-linejoin:round;stroke:rgb(0%,0%,0%);stroke-opacity:1;stroke-miterlimit:4;" d="M 0.049863 -0.00015971 L 10.95544 -0.00015971 " transform="matrix(6.218149,0,0,6.218149,4.561038,54.594743)"/>
<path style="fill:none;stroke-width:0.1;stroke-linecap:round;stroke-linejoin:round;stroke:rgb(0%,0%,0%);stroke-opacity:1;stroke-miterlimit:4;" d="M 0.049863 -0.000256359 L 10.95544 -0.000256359 " transform="matrix(6.218149,0,0,6.218149,4.561038,48.376594)"/>
<path style="fill:none;stroke-width:0.1;stroke-linecap:round;stroke-linejoin:round;stroke:rgb(0%,0%,0%);stroke-opacity:1;stroke-miterlimit:4;" d="M 0.049863 0.000275194 L 10.95544 0.000275194 " transform="matrix(6.218149,0,0,6.218149,4.561038,42.158445)"/>
<path style="fill:none;stroke-width:0.1;stroke-linecap:round;stroke-linejoin:round;stroke:rgb(0%,0%,0%);stroke-opacity:1;stroke-miterlimit:4;" d="M 0.049863 0.000178545 L 10.95544 0.000178545 " transform="matrix(6.218149,0,0,6.218149,4.561038,35.940296)"/>
<path style="fill:none;stroke-width:0.1;stroke-linecap:round;stroke-linejoin:round;stroke:rgb(0%,0%,0%);stroke-opacity:1;stroke-miterlimit:4;" d="M 0.049863 0.0000818968 L 10.95544 0.0000818968 " transform="matrix(6.218149,0,0,6.218149,4.561038,29.722147)"/>
<path style=" stroke:none;fill-rule:nonzero;fill:rgb(0%,0%,0%);fill-opacity:1;" d="M 53.710938 10.445312 L 63.839844 10.445312 C 64.183594 10.445312 64.460938 10.722656 64.460938 11.066406 C 64.460938 11.410156 64.183594 11.691406 63.839844 11.691406 L 53.710938 11.691406 C 53.367188 11.691406 53.089844 11.410156 53.089844 11.066406 C 53.089844 10.722656 53.367188 10.445312 53.710938 10.445312 Z M 53.710938 10.445312 "/>
<path style=" stroke:none;fill-rule:nonzero;fill:rgb(0%,0%,0%);fill-opacity:1;" d="M 52.917969 16.664062 L 63.839844 16.664062 C 64.183594 16.664062 64.460938 16.941406 64.460938 17.285156 C 64.460938 17.628906 64.183594 17.90625 63.839844 17.90625 L 52.917969 17.90625 C 52.574219 17.90625 52.296875 17.628906 52.296875 17.285156 C 52.296875 16.941406 52.574219 16.664062 52.917969 16.664062 Z M 52.917969 16.664062 "/>
<path style=" stroke:none;fill-rule:nonzero;fill:rgb(0%,0%,0%);fill-opacity:1;" d="M 52.917969 22.882812 L 63.839844 22.882812 C 64.183594 22.882812 64.460938 23.160156 64.460938 23.503906 C 64.460938 23.847656 64.183594 24.125 63.839844 24.125 L 52.917969 24.125 C 52.574219 24.125 52.296875 23.847656 52.296875 23.503906 C 52.296875 23.160156 52.574219 22.882812 52.917969 22.882812 Z M 52.917969 22.882812 "/>
<path style=" stroke:none;fill-rule:nonzero;fill:rgb(0%,0%,0%);fill-opacity:1;" d="M 54.574219 9.117188 L 54.882812 9.117188 C 55.023438 9.117188 55.132812 9.226562 55.132812 9.363281 L 55.132812 48.128906 C 55.132812 48.265625 55.023438 48.375 54.882812 48.375 L 54.574219 48.375 C 54.4375 48.375 54.324219 48.265625 54.324219 48.128906 L 54.324219 9.363281 C 54.324219 9.226562 54.4375 9.117188 54.574219 9.117188 Z M 54.574219 9.117188 "/>
<path style=" stroke:none;fill-rule:nonzero;fill:rgb(0%,0%,0%);fill-opacity:1;" d="M 49.414062 7.957031 C 49.988281 8.53125 50.808594 8.65625 51.628906 8.65625 C 51.777344 8.65625 51.875 8.753906 51.875 8.902344 L 52.101562 11.066406 C 52.125 11.21875 52 11.339844 51.851562 11.316406 L 49.6875 11.09375 C 49.5625 11.066406 49.4375 10.96875 49.4375 10.84375 C 49.4375 10.023438 49.316406 9.203125 48.742188 8.628906 C 48.171875 9.203125 48.070312 10.023438 48.070312 10.84375 C 48.070312 10.96875 47.945312 11.066406 47.824219 11.09375 L 45.632812 11.316406 C 45.484375 11.339844 45.359375 11.21875 45.386719 11.066406 L 45.609375 8.902344 C 45.609375 8.753906 45.707031 8.65625 45.859375 8.65625 C 46.679688 8.65625 47.5 8.53125 48.070312 7.957031 C 47.5 7.386719 46.679688 7.261719 45.859375 7.261719 C 45.707031 7.261719 45.609375 7.164062 45.609375 7.011719 L 45.386719 4.847656 C 45.359375 4.699219 45.484375 4.574219 45.632812 4.601562 L 47.824219 4.824219 C 47.945312 4.847656 48.046875 4.949219 48.046875 5.074219 C 48.046875 5.894531 48.171875 6.714844 48.742188 7.285156 C 49.316406 6.714844 49.4375 5.894531 49.4375 5.074219 C 49.4375 4.949219 49.5625 4.847656 49.6875 4.824219 L 51.851562 4.601562 C 52 4.574219 52.125 4.699219 52.101562 4.847656 L 51.875 7.011719 C 51.875 7.164062 51.777344 7.261719 51.628906 7.261719 C 50.808594 7.261719 49.988281 7.386719 49.414062 7.957031 Z M 49.414062 7.957031 "/>
<path style=" stroke:none;fill-rule:nonzero;fill:rgb(0%,0%,0%);fill-opacity:1;" d="M 42.671875 21.9375 C 42.671875 22.1875 42.472656 22.410156 42.222656 22.410156 C 41.976562 22.410156 41.75 22.1875 41.75 21.9375 L 41.75 18.332031 L 39.6875 19.101562 L 39.6875 23.03125 C 39.6875 23.28125 39.464844 23.503906 39.214844 23.503906 C 38.964844 23.503906 38.765625 23.28125 38.765625 23.03125 L 38.765625 19.425781 L 37.972656 19.722656 C 37.921875 19.75 37.847656 19.75 37.796875 19.75 C 37.523438 19.75 37.300781 19.523438 37.300781 19.25 L 37.300781 17.757812 C 37.300781 17.558594 37.425781 17.359375 37.621094 17.285156 L 38.765625 16.886719 L 38.765625 12.910156 L 37.972656 13.183594 C 37.921875 13.207031 37.847656 13.207031 37.796875 13.207031 C 37.523438 13.207031 37.300781 12.984375 37.300781 12.710938 L 37.300781 11.21875 C 37.300781 11.019531 37.425781 10.84375 37.621094 10.769531 L 38.765625 10.347656 L 38.765625 6.417969 C 38.765625 6.167969 38.964844 5.945312 39.214844 5.945312 C 39.464844 5.945312 39.6875 6.167969 39.6875 6.417969 L 39.6875 10.023438 L 41.75 9.253906 L 41.75 5.320312 C 41.75 5.074219 41.976562 4.847656 42.222656 4.847656 C 42.472656 4.847656 42.671875 5.074219 42.671875 5.320312 L 42.671875 8.929688 L 43.46875 8.628906 C 43.519531 8.605469 43.59375 8.605469 43.640625 8.605469 C 43.914062 8.605469 44.140625 8.828125 44.140625 9.101562 L 44.140625 10.59375 C 44.140625 10.792969 44.015625 10.992188 43.816406 11.066406 L 42.671875 11.464844 L 42.671875 15.445312 L 43.46875 15.171875 C 43.519531 15.148438 43.59375 15.148438 43.640625 15.148438 C 43.914062 15.148438 44.140625 15.371094 44.140625 15.644531 L 44.140625 17.136719 C 44.140625 17.335938 44.015625 17.507812 43.816406 17.585938 L 42.671875 18.007812 Z M 39.6875 12.558594 L 39.6875 16.539062 L 41.75 15.792969 L 41.75 11.8125 Z M 39.6875 12.558594 "/>
<path style=" stroke:none;fill-rule:nonzero;fill:rgb(0%,0%,0%);fill-opacity:1;" d="M 34.589844 28.15625 C 34.589844 28.402344 34.390625 28.628906 34.140625 28.628906 C 33.890625 28.628906 33.667969 28.402344 33.667969 28.15625 L 33.667969 24.546875 L 31.605469 25.320312 L 31.605469 29.25 C 31.605469 29.5 31.378906 29.722656 31.132812 29.722656 C 30.882812 29.722656 30.683594 29.5 30.683594 29.25 L 30.683594 25.644531 L 29.886719 25.941406 C 29.835938 25.964844 29.761719 25.964844 29.714844 25.964844 C 29.441406 25.964844 29.214844 25.742188 29.214844 25.46875 L 29.214844 23.976562 C 29.214844 23.777344 29.339844 23.578125 29.539062 23.503906 L 30.683594 23.105469 L 30.683594 19.125 L 29.886719 19.398438 C 29.835938 19.425781 29.761719 19.425781 29.714844 19.425781 C 29.441406 19.425781 29.214844 19.199219 29.214844 18.925781 L 29.214844 17.433594 C 29.214844 17.234375 29.339844 17.0625 29.539062 16.988281 L 30.683594 16.566406 L 30.683594 12.632812 C 30.683594 12.386719 30.882812 12.160156 31.132812 12.160156 C 31.378906 12.160156 31.605469 12.386719 31.605469 12.632812 L 31.605469 16.242188 L 33.667969 15.46875 L 33.667969 11.539062 C 33.667969 11.292969 33.890625 11.066406 34.140625 11.066406 C 34.390625 11.066406 34.589844 11.292969 34.589844 11.539062 L 34.589844 15.148438 L 35.382812 14.847656 C 35.433594 14.824219 35.507812 14.824219 35.558594 14.824219 C 35.832031 14.824219 36.054688 15.046875 36.054688 15.320312 L 36.054688 16.8125 C 36.054688 17.011719 35.929688 17.210938 35.734375 17.285156 L 34.589844 17.683594 L 34.589844 21.664062 L 35.382812 21.390625 C 35.433594 21.363281 35.507812 21.363281 35.558594 21.363281 C 35.832031 21.363281 36.054688 21.589844 36.054688 21.863281 L 36.054688 23.355469 C 36.054688 23.554688 35.929688 23.726562 35.734375 23.800781 L 34.589844 24.226562 Z M 31.605469 18.777344 L 31.605469 22.757812 L 33.667969 22.011719 L 33.667969 18.03125 Z M 31.605469 18.777344 "/>
<path style=" stroke:none;fill-rule:nonzero;fill:rgb(0%,0%,0%);fill-opacity:1;" d="M 50.679688 34.375 C 50.679688 34.621094 50.480469 34.847656 50.234375 34.847656 C 49.984375 34.847656 49.761719 34.621094 49.761719 34.375 L 49.761719 30.765625 L 47.695312 31.539062 L 47.695312 35.46875 C 47.695312 35.714844 47.472656 35.941406 47.222656 35.941406 C 46.976562 35.941406 46.777344 35.714844 46.777344 35.46875 L 46.777344 31.859375 L 45.980469 32.160156 C 45.929688 32.183594 45.855469 32.183594 45.804688 32.183594 C 45.53125 32.183594 45.308594 31.960938 45.308594 31.6875 L 45.308594 30.195312 C 45.308594 29.996094 45.433594 29.796875 45.632812 29.722656 L 46.777344 29.324219 L 46.777344 25.34375 L 45.980469 25.617188 C 45.929688 25.644531 45.855469 25.644531 45.804688 25.644531 C 45.53125 25.644531 45.308594 25.417969 45.308594 25.144531 L 45.308594 23.652344 C 45.308594 23.453125 45.433594 23.28125 45.632812 23.207031 L 46.777344 22.78125 L 46.777344 18.851562 C 46.777344 18.605469 46.976562 18.378906 47.222656 18.378906 C 47.472656 18.378906 47.695312 18.605469 47.695312 18.851562 L 47.695312 22.460938 L 49.761719 21.6875 L 49.761719 17.757812 C 49.761719 17.507812 49.984375 17.285156 50.234375 17.285156 C 50.480469 17.285156 50.679688 17.507812 50.679688 17.757812 L 50.679688 21.363281 L 51.476562 21.066406 C 51.527344 21.042969 51.601562 21.042969 51.652344 21.042969 C 51.925781 21.042969 52.148438 21.265625 52.148438 21.539062 L 52.148438 23.03125 C 52.148438 23.230469 52.023438 23.429688 51.824219 23.503906 L 50.679688 23.902344 L 50.679688 27.882812 L 51.476562 27.609375 C 51.527344 27.582031 51.601562 27.582031 51.652344 27.582031 C 51.925781 27.582031 52.148438 27.808594 52.148438 28.082031 L 52.148438 29.574219 C 52.148438 29.773438 52.023438 29.945312 51.824219 30.019531 L 50.679688 30.445312 Z M 47.695312 24.996094 L 47.695312 28.976562 L 49.761719 28.230469 L 49.761719 24.25 Z M 47.695312 24.996094 "/>
<path style=" stroke:none;fill-rule:nonzero;fill:rgb(0%,0%,0%);fill-opacity:1;" d="M 16.152344 64.171875 L 16.003906 64.171875 C 13.316406 64.171875 11.152344 61.980469 11.152344 59.269531 C 11.152344 57.828125 12.46875 56.707031 13.9375 56.707031 C 15.28125 56.707031 16.300781 57.878906 16.300781 59.269531 C 16.300781 60.5625 15.230469 61.632812 13.9375 61.632812 C 13.664062 61.632812 13.414062 61.582031 13.167969 61.484375 C 13.8125 62.453125 14.859375 63.101562 16.078125 63.101562 L 16.175781 63.101562 Z M 21 53.425781 C 22.691406 52.828125 23.8125 51.0625 23.8125 49.347656 C 23.8125 47.109375 22.171875 44.894531 19.507812 44.621094 C 20.105469 47.507812 20.652344 50.367188 21 53.425781 Z M 11.375 47.679688 C 11.375 51.039062 14.585938 53.824219 17.941406 53.824219 C 18.640625 53.824219 19.308594 53.773438 19.980469 53.675781 C 19.632812 50.515625 19.0625 47.582031 18.414062 44.621094 C 16.449219 44.820312 15.332031 46.136719 15.332031 47.582031 C 15.332031 48.675781 15.953125 49.84375 17.34375 50.640625 C 17.46875 50.765625 17.519531 50.890625 17.519531 51.011719 C 17.519531 51.285156 17.269531 51.558594 16.972656 51.558594 C 16.898438 51.558594 16.824219 51.535156 16.75 51.511719 C 14.757812 50.441406 13.839844 48.648438 13.839844 46.910156 C 13.839844 44.71875 15.28125 42.582031 17.816406 42.007812 C 17.46875 40.566406 17.097656 39.097656 16.675781 37.65625 C 14.011719 40.667969 11.375 43.699219 11.375 47.679688 Z M 17.867188 54.894531 C 13.191406 54.894531 9.585938 50.613281 9.585938 45.589844 C 9.585938 41.1875 12.84375 37.980469 15.753906 34.621094 C 15.28125 33.078125 14.832031 31.511719 14.632812 29.894531 C 14.484375 28.601562 14.460938 27.308594 14.460938 26.015625 C 14.460938 23.15625 15.828125 20.445312 18.167969 18.753906 C 18.316406 18.628906 18.515625 18.628906 18.664062 18.753906 C 20.429688 20.84375 21.972656 24.847656 21.972656 27.65625 C 21.972656 31.214844 19.832031 34 17.496094 36.710938 C 18.015625 38.402344 18.464844 40.144531 18.886719 41.859375 C 18.988281 41.859375 19.113281 41.835938 19.210938 41.835938 C 23.066406 41.835938 25.578125 45.019531 25.578125 48.328125 C 25.578125 50.21875 24.757812 52.15625 22.917969 53.550781 C 22.371094 53.972656 21.746094 54.246094 21.101562 54.445312 C 21.175781 55.316406 21.226562 56.1875 21.226562 57.058594 C 21.226562 57.53125 21.199219 58.027344 21.175781 58.5 C 21 61.460938 18.988281 64.097656 16.152344 64.171875 L 16.175781 63.101562 C 18.488281 63.050781 19.980469 60.8125 20.132812 58.351562 C 20.15625 57.902344 20.179688 57.429688 20.179688 56.984375 C 20.179688 56.210938 20.15625 55.464844 20.082031 54.695312 C 19.359375 54.820312 18.640625 54.894531 17.867188 54.894531 Z M 20.179688 25.59375 C 20.179688 24.226562 20.082031 23.628906 19.683594 22.382812 C 17.222656 23.578125 15.652344 26.089844 15.652344 28.828125 C 15.652344 30.667969 16.101562 32.136719 16.550781 33.652344 C 18.539062 31.238281 20.179688 28.726562 20.179688 25.59375 Z M 20.179688 25.59375 "/>
<path style=" stroke:none;fill-rule:nonzero;fill:rgb(0%,0%,0%);fill-opacity:1;" d="M 59.746094 4.574219 C 61.113281 4.574219 62.433594 5.273438 62.433594 6.789062 C 62.433594 8.554688 61.066406 9.800781 59.894531 10.496094 C 59.027344 11.019531 58.03125 11.339844 57.011719 11.339844 C 55.644531 11.339844 54.324219 10.644531 54.324219 9.128906 C 54.324219 7.363281 55.691406 6.117188 56.863281 5.421875 C 57.734375 4.898438 58.726562 4.574219 59.746094 4.574219 Z M 59.746094 4.574219 "/>
<path style=" stroke:none;fill-rule:nonzero;fill:rgb(0%,0%,0%);fill-opacity:1;" d="M 59.746094 10.792969 C 61.113281 10.792969 62.433594 11.492188 62.433594 13.007812 C 62.433594 14.773438 61.066406 16.015625 59.894531 16.714844 C 59.027344 17.234375 58.03125 17.558594 57.011719 17.558594 C 55.644531 17.558594 54.324219 16.863281 54.324219 15.347656 C 54.324219 13.578125 55.691406 12.335938 56.863281 11.640625 C 57.734375 11.117188 58.726562 10.792969 59.746094 10.792969 Z M 59.746094 10.792969 "/>
<path style=" stroke:none;fill-rule:nonzero;fill:rgb(0%,0%,0%);fill-opacity:1;" d="M 59.746094 17.011719 C 61.113281 17.011719 62.433594 17.707031 62.433594 19.226562 C 62.433594 20.992188 61.066406 22.234375 59.894531 22.933594 C 59.027344 23.453125 58.03125 23.777344 57.011719 23.777344 C 55.644531 23.777344 54.324219 23.082031 54.324219 21.5625 C 54.324219 19.796875 55.691406 18.554688 56.863281 17.859375 C 57.734375 17.335938 58.726562 17.011719 59.746094 17.011719 Z M 59.746094 17.011719 "/>
<path style=" stroke:none;fill-rule:nonzero;fill:rgb(0%,0%,0%);fill-opacity:1;" d="M 59.746094 23.230469 C 61.113281 23.230469 62.433594 23.925781 62.433594 25.445312 C 62.433594 27.210938 61.066406 28.453125 59.894531 29.148438 C 59.027344 29.671875 58.03125 29.996094 57.011719 29.996094 C 55.644531 29.996094 54.324219 29.300781 54.324219 27.78125 C 54.324219 26.015625 55.691406 24.773438 56.863281 24.074219 C 57.734375 23.554688 58.726562 23.230469 59.746094 23.230469 Z M 59.746094 23.230469 "/>
</g>
</svg>
