<?xml version="1.0" encoding="UTF-8"?>
<svg xmlns="http://www.w3.org/2000/svg" xmlns:xlink="http://www.w3.org/1999/xlink" width="83.373827pt" height="51.967374pt" viewBox="0 0 83.373827 51.967374" version="1.1">
<g id="surface1">
<path style="fill:none;stroke-width:0.1;stroke-linecap:round;stroke-linejoin:round;stroke:rgb(0%,0%,0%);stroke-opacity:1;stroke-miterlimit:4;" d="M 0.049863 -0.0000416676 L 10.995644 -0.0000416676 " transform="matrix(6.218149,0,0,6.218149,4.561038,39.812759)"/>
<path style="fill:none;stroke-width:0.1;stroke-linecap:round;stroke-linejoin:round;stroke:rgb(0%,0%,0%);stroke-opacity:1;stroke-miterlimit:4;" d="M 0.049863 -0.000138316 L 10.995644 -0.000138316 " transform="matrix(6.218149,0,0,6.218149,4.561038,33.59461)"/>
<path style="fill:none;stroke-width:0.1;stroke-linecap:round;stroke-linejoin:round;stroke:rgb(0%,0%,0%);stroke-opacity:1;stroke-miterlimit:4;" d="M 0.049863 -0.000234965 L 10.995644 -0.000234965 " transform="matrix(6.218149,0,0,6.218149,4.561038,27.376461)"/>
<path style="fill:none;stroke-width:0.1;stroke-linecap:round;stroke-linejoin:round;stroke:rgb(0%,0%,0%);stroke-opacity:1;stroke-miterlimit:4;" d="M 0.049863 0.000296588 L 10.995644 0.000296588 " transform="matrix(6.218149,0,0,6.218149,4.561038,21.158312)"/>
<path style="fill:none;stroke-width:0.1;stroke-linecap:round;stroke-linejoin:round;stroke:rgb(0%,0%,0%);stroke-opacity:1;stroke-miterlimit:4;" d="M 0.049863 0.000199939 L 10.995644 0.000199939 " transform="matrix(6.218149,0,0,6.218149,4.561038,14.940163)"/>
<path style=" stroke:none;fill-rule:nonzero;fill:rgb(0%,0%,0%);fill-opacity:1;" d="M 62.128906 4.578125 L 62.4375 4.578125 C 62.574219 4.578125 62.6875 4.6875 62.6875 4.824219 L 62.6875 38.40625 C 62.6875 38.542969 62.574219 38.65625 62.4375 38.65625 L 62.128906 38.65625 C 61.988281 38.65625 61.878906 38.542969 61.878906 38.40625 L 61.878906 4.824219 C 61.878906 4.6875 61.988281 4.578125 62.128906 4.578125 Z M 62.128906 4.578125 "/>
<path style=" stroke:none;fill-rule:nonzero;fill:rgb(0%,0%,0%);fill-opacity:1;" d="M 48.097656 23.246094 L 48.074219 24.890625 L 48.074219 25.164062 C 48.074219 25.710938 48.097656 26.257812 48.171875 26.804688 C 49.292969 25.859375 50.484375 24.816406 50.484375 23.347656 C 50.484375 22.527344 50.136719 21.679688 49.417969 21.679688 C 48.644531 21.679688 48.121094 22.425781 48.097656 23.246094 Z M 47.054688 27.699219 L 46.753906 12.902344 C 46.953125 12.777344 47.203125 12.703125 47.425781 12.703125 C 47.648438 12.703125 47.898438 12.777344 48.097656 12.902344 L 47.925781 21.480469 C 48.546875 20.960938 49.367188 20.636719 50.1875 20.636719 C 51.480469 20.636719 52.402344 21.828125 52.402344 23.171875 C 52.402344 25.164062 50.261719 26.082031 48.746094 27.375 C 48.371094 27.699219 48.148438 28.320312 47.625 28.320312 C 47.300781 28.320312 47.054688 28.046875 47.054688 27.699219 Z M 47.054688 27.699219 "/>
<path style=" stroke:none;fill-rule:nonzero;fill:rgb(0%,0%,0%);fill-opacity:1;" d="M 37.960938 26.355469 L 37.9375 28 L 37.9375 28.273438 C 37.9375 28.820312 37.960938 29.367188 38.035156 29.914062 C 39.15625 28.96875 40.347656 27.921875 40.347656 26.457031 C 40.347656 25.636719 40 24.789062 39.28125 24.789062 C 38.507812 24.789062 37.984375 25.535156 37.960938 26.355469 Z M 36.917969 30.808594 L 36.617188 16.007812 C 36.816406 15.886719 37.066406 15.8125 37.289062 15.8125 C 37.511719 15.8125 37.761719 15.886719 37.960938 16.007812 L 37.785156 24.589844 C 38.410156 24.070312 39.230469 23.746094 40.050781 23.746094 C 41.34375 23.746094 42.265625 24.9375 42.265625 26.28125 C 42.265625 28.273438 40.125 29.191406 38.609375 30.484375 C 38.234375 30.808594 38.011719 31.429688 37.488281 31.429688 C 37.164062 31.429688 36.917969 31.15625 36.917969 30.808594 Z M 36.917969 30.808594 "/>
<path style=" stroke:none;fill-rule:nonzero;fill:rgb(0%,0%,0%);fill-opacity:1;" d="M 31.371094 32.574219 L 31.34375 34.214844 L 31.34375 34.488281 C 31.34375 35.039062 31.371094 35.585938 31.445312 36.132812 C 32.5625 35.1875 33.757812 34.140625 33.757812 32.675781 C 33.757812 31.855469 33.410156 31.007812 32.6875 31.007812 C 31.917969 31.007812 31.394531 31.753906 31.371094 32.574219 Z M 30.324219 37.027344 L 30.027344 22.226562 C 30.226562 22.101562 30.472656 22.027344 30.699219 22.027344 C 30.921875 22.027344 31.171875 22.101562 31.371094 22.226562 L 31.195312 30.808594 C 31.816406 30.285156 32.636719 29.964844 33.460938 29.964844 C 34.753906 29.964844 35.671875 31.15625 35.671875 32.5 C 35.671875 34.488281 33.535156 35.410156 32.015625 36.703125 C 31.644531 37.027344 31.417969 37.648438 30.898438 37.648438 C 30.574219 37.648438 30.324219 37.375 30.324219 37.027344 Z M 30.324219 37.027344 "/>
<path style=" stroke:none;fill-rule:nonzero;fill:rgb(0%,0%,0%);fill-opacity:1;" d="M 44.617188 38.792969 L 44.589844 40.433594 L 44.589844 40.707031 C 44.589844 41.253906 44.617188 41.800781 44.691406 42.351562 C 45.808594 41.40625 47.003906 40.359375 47.003906 38.890625 C 47.003906 38.070312 46.65625 37.226562 45.933594 37.226562 C 45.164062 37.226562 44.640625 37.972656 44.617188 38.792969 Z M 43.570312 43.246094 L 43.273438 28.445312 C 43.472656 28.320312 43.71875 28.246094 43.945312 28.246094 C 44.167969 28.246094 44.417969 28.320312 44.617188 28.445312 L 44.441406 37.027344 C 45.0625 36.503906 45.882812 36.179688 46.707031 36.179688 C 48 36.179688 48.917969 37.375 48.917969 38.71875 C 48.917969 40.707031 46.78125 41.628906 45.261719 42.921875 C 44.890625 43.246094 44.664062 43.867188 44.144531 43.867188 C 43.820312 43.867188 43.570312 43.59375 43.570312 43.246094 Z M 43.570312 43.246094 "/>
<path style=" stroke:none;fill-rule:nonzero;fill:rgb(0%,0%,0%);fill-opacity:1;" d="M 23.390625 24.265625 C 23.390625 23.570312 23.960938 23 24.65625 23 C 25.355469 23 25.925781 23.570312 25.925781 24.265625 C 25.925781 24.964844 25.355469 25.535156 24.65625 25.535156 C 23.960938 25.535156 23.390625 24.964844 23.390625 24.265625 Z M 23.390625 18.050781 C 23.390625 17.351562 23.960938 16.78125 24.65625 16.78125 C 25.355469 16.78125 25.925781 17.351562 25.925781 18.050781 C 25.925781 18.746094 25.355469 19.316406 24.65625 19.316406 C 23.960938 19.316406 23.390625 18.746094 23.390625 18.050781 Z M 15.304688 14.617188 C 19.585938 14.617188 22.59375 16.804688 22.59375 20.859375 C 22.59375 27.402344 16.050781 31.15625 9.757812 33.820312 C 9.683594 33.894531 9.609375 33.917969 9.535156 33.917969 C 9.363281 33.917969 9.210938 33.769531 9.210938 33.59375 C 9.210938 33.519531 9.238281 33.445312 9.3125 33.371094 C 14.335938 30.4375 19.558594 26.78125 19.558594 21.109375 C 19.558594 18.125 17.992188 15.261719 15.304688 15.261719 C 13.464844 15.261719 12.097656 16.605469 11.476562 18.398438 C 11.75 18.273438 12.023438 18.199219 12.320312 18.199219 C 13.6875 18.199219 14.808594 19.316406 14.808594 20.6875 C 14.808594 22.128906 13.714844 23.320312 12.320312 23.320312 C 10.828125 23.320312 9.535156 22.152344 9.535156 20.6875 C 9.535156 17.378906 12.074219 14.617188 15.304688 14.617188 Z M 15.304688 14.617188 "/>
<path style=" stroke:none;fill-rule:nonzero;fill:rgb(0%,0%,0%);fill-opacity:1;" d="M 67.707031 20.882812 C 69.074219 20.882812 70.390625 21.582031 70.390625 23.097656 C 70.390625 24.863281 69.023438 26.109375 67.855469 26.804688 C 66.984375 27.328125 65.988281 27.648438 64.96875 27.648438 C 63.601562 27.648438 62.28125 26.953125 62.28125 25.4375 C 62.28125 23.671875 63.652344 22.425781 64.820312 21.730469 C 65.691406 21.207031 66.683594 20.882812 67.707031 20.882812 Z M 67.707031 20.882812 "/>
<path style=" stroke:none;fill-rule:nonzero;fill:rgb(0%,0%,0%);fill-opacity:1;" d="M 60 23.992188 C 61.367188 23.992188 62.6875 24.691406 62.6875 26.207031 C 62.6875 27.972656 61.316406 29.21875 60.148438 29.914062 C 59.277344 30.4375 58.285156 30.757812 57.261719 30.757812 C 55.894531 30.757812 54.578125 30.0625 54.578125 28.546875 C 54.578125 26.78125 55.945312 25.535156 57.113281 24.839844 C 57.984375 24.316406 58.980469 23.992188 60 23.992188 Z M 60 23.992188 "/>
<path style=" stroke:none;fill-rule:nonzero;fill:rgb(0%,0%,0%);fill-opacity:1;" d="M 60 30.210938 C 61.367188 30.210938 62.6875 30.910156 62.6875 32.425781 C 62.6875 34.191406 61.316406 35.433594 60.148438 36.132812 C 59.277344 36.652344 58.285156 36.976562 57.261719 36.976562 C 55.894531 36.976562 54.578125 36.28125 54.578125 34.761719 C 54.578125 32.996094 55.945312 31.753906 57.113281 31.058594 C 57.984375 30.535156 58.980469 30.210938 60 30.210938 Z M 60 30.210938 "/>
<path style=" stroke:none;fill-rule:nonzero;fill:rgb(0%,0%,0%);fill-opacity:1;" d="M 60 36.429688 C 61.367188 36.429688 62.6875 37.125 62.6875 38.644531 C 62.6875 40.410156 61.316406 41.652344 60.148438 42.351562 C 59.277344 42.871094 58.285156 43.195312 57.261719 43.195312 C 55.894531 43.195312 54.578125 42.5 54.578125 40.980469 C 54.578125 39.214844 55.945312 37.972656 57.113281 37.277344 C 57.984375 36.753906 58.980469 36.429688 60 36.429688 Z M 60 36.429688 "/>
</g>
</svg>
