<?xml version="1.0" encoding="UTF-8"?>
<svg xmlns="http://www.w3.org/2000/svg" xmlns:xlink="http://www.w3.org/1999/xlink" width="68.472344pt" height="49.035696pt" viewBox="0 0 68.472344 49.035696" version="1.1">
<g id="surface1">
<path style="fill:none;stroke-width:0.1;stroke-linecap:round;stroke-linejoin:round;stroke:rgb(0%,0%,0%);stroke-opacity:1;stroke-miterlimit:4;" d="M 0.049863 0.00017851 L 8.752337 0.00017851 " transform="matrix(6.218149,0,0,6.218149,4.561038,32.702015)"/>
<path style="fill:none;stroke-width:0.1;stroke-linecap:round;stroke-linejoin:round;stroke:rgb(0%,0%,0%);stroke-opacity:1;stroke-miterlimit:4;" d="M 0.049863 0.000081861 L 8.752337 0.000081861 " transform="matrix(6.218149,0,0,6.218149,4.561038,26.483866)"/>
<path style="fill:none;stroke-width:0.1;stroke-linecap:round;stroke-linejoin:round;stroke:rgb(0%,0%,0%);stroke-opacity:1;stroke-miterlimit:4;" d="M 0.049863 -0.0000147876 L 8.752337 -0.0000147876 " transform="matrix(6.218149,0,0,6.218149,4.561038,20.265717)"/>
<path style="fill:none;stroke-width:0.1;stroke-linecap:round;stroke-linejoin:round;stroke:rgb(0%,0%,0%);stroke-opacity:1;stroke-miterlimit:4;" d="M 0.049863 -0.000111436 L 8.752337 -0.000111436 " transform="matrix(6.218149,0,0,6.218149,4.561038,14.047568)"/>
<path style="fill:none;stroke-width:0.1;stroke-linecap:round;stroke-linejoin:round;stroke:rgb(0%,0%,0%);stroke-opacity:1;stroke-miterlimit:4;" d="M 0.049863 -0.000208204 L 8.752337 -0.000208204 " transform="matrix(6.218149,0,0,6.218149,4.561038,7.82942)"/>
<path style=" stroke:none;fill-rule:nonzero;fill:rgb(0%,0%,0%);fill-opacity:1;" d="M 36.984375 21.808594 C 36.984375 22.054688 36.785156 22.28125 36.535156 22.28125 C 36.285156 22.28125 36.0625 22.054688 36.0625 21.808594 L 36.0625 18.203125 L 33.996094 18.972656 L 33.996094 22.902344 C 33.996094 23.152344 33.773438 23.375 33.523438 23.375 C 33.277344 23.375 33.078125 23.152344 33.078125 22.902344 L 33.078125 19.296875 L 32.28125 19.59375 C 32.230469 19.617188 32.15625 19.617188 32.109375 19.617188 C 31.832031 19.617188 31.609375 19.394531 31.609375 19.121094 L 31.609375 17.628906 C 31.609375 17.429688 31.734375 17.230469 31.933594 17.15625 L 33.078125 16.757812 L 33.078125 12.777344 L 32.28125 13.050781 C 32.230469 13.078125 32.15625 13.078125 32.109375 13.078125 C 31.832031 13.078125 31.609375 12.855469 31.609375 12.582031 L 31.609375 11.085938 C 31.609375 10.890625 31.734375 10.714844 31.933594 10.640625 L 33.078125 10.21875 L 33.078125 6.289062 C 33.078125 6.039062 33.277344 5.816406 33.523438 5.816406 C 33.773438 5.816406 33.996094 6.039062 33.996094 6.289062 L 33.996094 9.894531 L 36.0625 9.121094 L 36.0625 5.191406 C 36.0625 4.945312 36.285156 4.71875 36.535156 4.71875 C 36.785156 4.71875 36.984375 4.945312 36.984375 5.191406 L 36.984375 8.800781 L 37.777344 8.5 C 37.828125 8.476562 37.902344 8.476562 37.953125 8.476562 C 38.226562 8.476562 38.449219 8.699219 38.449219 8.972656 L 38.449219 10.464844 C 38.449219 10.664062 38.324219 10.863281 38.125 10.9375 L 36.984375 11.335938 L 36.984375 15.316406 L 37.777344 15.042969 C 37.828125 15.019531 37.902344 15.019531 37.953125 15.019531 C 38.226562 15.019531 38.449219 15.242188 38.449219 15.515625 L 38.449219 17.007812 C 38.449219 17.207031 38.324219 17.378906 38.125 17.457031 L 36.984375 17.878906 Z M 33.996094 12.429688 L 33.996094 16.410156 L 36.0625 15.664062 L 36.0625 11.683594 Z M 33.996094 12.429688 "/>
<path style=" stroke:none;fill-rule:nonzero;fill:rgb(0%,0%,0%);fill-opacity:1;" d="M 40.875 8.988281 L 41.1875 8.988281 C 41.324219 8.988281 41.433594 9.097656 41.433594 9.234375 L 41.433594 40.742188 C 41.433594 40.882812 41.324219 40.992188 41.1875 40.992188 L 40.875 40.992188 C 40.738281 40.992188 40.625 40.882812 40.625 40.742188 L 40.625 9.234375 C 40.625 9.097656 40.738281 8.988281 40.875 8.988281 Z M 40.875 8.988281 "/>
<path style=" stroke:none;fill-rule:nonzero;fill:rgb(0%,0%,0%);fill-opacity:1;" d="M 23.390625 17.15625 C 23.390625 16.460938 23.960938 15.886719 24.65625 15.886719 C 25.355469 15.886719 25.925781 16.460938 25.925781 17.15625 C 25.925781 17.851562 25.355469 18.425781 24.65625 18.425781 C 23.960938 18.425781 23.390625 17.851562 23.390625 17.15625 Z M 23.390625 10.9375 C 23.390625 10.242188 23.960938 9.671875 24.65625 9.671875 C 25.355469 9.671875 25.925781 10.242188 25.925781 10.9375 C 25.925781 11.636719 25.355469 12.207031 24.65625 12.207031 C 23.960938 12.207031 23.390625 11.636719 23.390625 10.9375 Z M 15.304688 7.507812 C 19.585938 7.507812 22.59375 9.695312 22.59375 13.75 C 22.59375 20.289062 16.050781 24.046875 9.757812 26.707031 C 9.683594 26.78125 9.609375 26.808594 9.535156 26.808594 C 9.363281 26.808594 9.210938 26.65625 9.210938 26.484375 C 9.210938 26.410156 9.238281 26.335938 9.3125 26.261719 C 14.335938 23.324219 19.558594 19.667969 19.558594 13.996094 C 19.558594 11.011719 17.992188 8.152344 15.304688 8.152344 C 13.464844 8.152344 12.097656 9.496094 11.476562 11.285156 C 11.75 11.164062 12.023438 11.085938 12.320312 11.085938 C 13.6875 11.085938 14.808594 12.207031 14.808594 13.574219 C 14.808594 15.019531 13.714844 16.210938 12.320312 16.210938 C 10.828125 16.210938 9.535156 15.042969 9.535156 13.574219 C 9.535156 10.265625 12.074219 7.507812 15.304688 7.507812 Z M 15.304688 7.507812 "/>
<path style=" stroke:none;fill-rule:nonzero;fill:rgb(0%,0%,0%);fill-opacity:1;" d="M 46.046875 4.445312 C 47.417969 4.445312 48.734375 5.144531 48.734375 6.660156 C 48.734375 8.425781 47.367188 9.671875 46.199219 10.367188 C 45.328125 10.890625 44.332031 11.210938 43.3125 11.210938 C 41.945312 11.210938 40.625 10.515625 40.625 9 C 40.625 7.234375 41.996094 5.988281 43.164062 5.292969 C 44.035156 4.769531 45.027344 4.445312 46.046875 4.445312 Z M 46.046875 4.445312 "/>
<path style=" stroke:none;fill-rule:nonzero;fill:rgb(0%,0%,0%);fill-opacity:1;" d="M 46.046875 10.664062 C 47.417969 10.664062 48.734375 11.359375 48.734375 12.878906 C 48.734375 14.644531 47.367188 15.886719 46.199219 16.585938 C 45.328125 17.105469 44.332031 17.429688 43.3125 17.429688 C 41.945312 17.429688 40.625 16.734375 40.625 15.214844 C 40.625 13.449219 41.996094 12.207031 43.164062 11.511719 C 44.035156 10.988281 45.027344 10.664062 46.046875 10.664062 Z M 46.046875 10.664062 "/>
<path style=" stroke:none;fill-rule:nonzero;fill:rgb(0%,0%,0%);fill-opacity:1;" d="M 46.046875 16.882812 C 47.417969 16.882812 48.734375 17.578125 48.734375 19.097656 C 48.734375 20.863281 47.367188 22.105469 46.199219 22.800781 C 45.328125 23.324219 44.332031 23.648438 43.3125 23.648438 C 41.945312 23.648438 40.625 22.953125 40.625 21.433594 C 40.625 19.667969 41.996094 18.425781 43.164062 17.730469 C 44.035156 17.207031 45.027344 16.882812 46.046875 16.882812 Z M 46.046875 16.882812 "/>
</g>
</svg>
