<?xml version="1.0" encoding="UTF-8"?>
<svg xmlns="http://www.w3.org/2000/svg" xmlns:xlink="http://www.w3.org/1999/xlink" width="68.472344pt" height="56.837787pt" viewBox="0 0 68.472344 56.837787" version="1.1">
<g id="surface1">
<path style="fill:none;stroke-width:0.1;stroke-linecap:round;stroke-linejoin:round;stroke:rgb(0%,0%,0%);stroke-opacity:1;stroke-miterlimit:4;" d="M 0.049863 -0.0001075 L 8.752337 -0.0001075 " transform="matrix(6.218149,0,0,6.218149,4.561038,29.434262)"/>
<path style="fill:none;stroke-width:0.1;stroke-linecap:round;stroke-linejoin:round;stroke:rgb(0%,0%,0%);stroke-opacity:1;stroke-miterlimit:4;" d="M 0.049863 -0.000204149 L 8.752337 -0.000204149 " transform="matrix(6.218149,0,0,6.218149,4.561038,23.216113)"/>
<path style="fill:none;stroke-width:0.1;stroke-linecap:round;stroke-linejoin:round;stroke:rgb(0%,0%,0%);stroke-opacity:1;stroke-miterlimit:4;" d="M 0.049863 -0.000300797 L 8.752337 -0.000300797 " transform="matrix(6.218149,0,0,6.218149,4.561038,16.997964)"/>
<path style="fill:none;stroke-width:0.1;stroke-linecap:round;stroke-linejoin:round;stroke:rgb(0%,0%,0%);stroke-opacity:1;stroke-miterlimit:4;" d="M 0.049863 0.000230756 L 8.752337 0.000230756 " transform="matrix(6.218149,0,0,6.218149,4.561038,10.779815)"/>
<path style="fill:none;stroke-width:0.1;stroke-linecap:round;stroke-linejoin:round;stroke:rgb(0%,0%,0%);stroke-opacity:1;stroke-miterlimit:4;" d="M 0.049863 0.000133988 L 8.752337 0.000133988 " transform="matrix(6.218149,0,0,6.218149,4.561038,4.561667)"/>
<path style=" stroke:none;fill-rule:nonzero;fill:rgb(0%,0%,0%);fill-opacity:1;" d="M 40.160156 35.03125 L 50.140625 35.03125 C 50.484375 35.03125 50.765625 35.308594 50.765625 35.652344 C 50.765625 35.996094 50.484375 36.273438 50.140625 36.273438 L 40.160156 36.273438 C 39.816406 36.273438 39.539062 35.996094 39.539062 35.652344 C 39.539062 35.308594 39.816406 35.03125 40.160156 35.03125 Z M 40.160156 35.03125 "/>
<path style=" stroke:none;fill-rule:nonzero;fill:rgb(0%,0%,0%);fill-opacity:1;" d="M 48.175781 16.996094 L 48.488281 16.996094 C 48.625 16.996094 48.734375 17.109375 48.734375 17.246094 L 48.734375 37.355469 C 48.734375 37.492188 48.625 37.605469 48.488281 37.605469 L 48.175781 37.605469 C 48.039062 37.605469 47.925781 37.492188 47.925781 37.355469 L 47.925781 17.246094 C 47.925781 17.109375 48.039062 16.996094 48.175781 16.996094 Z M 48.175781 16.996094 "/>
<path style=" stroke:none;fill-rule:nonzero;fill:rgb(0%,0%,0%);fill-opacity:1;" d="M 36.984375 46.523438 C 36.984375 46.769531 36.785156 46.996094 36.535156 46.996094 C 36.285156 46.996094 36.0625 46.769531 36.0625 46.523438 L 36.0625 42.914062 L 33.996094 43.6875 L 33.996094 47.617188 C 33.996094 47.863281 33.773438 48.089844 33.523438 48.089844 C 33.277344 48.089844 33.078125 47.863281 33.078125 47.617188 L 33.078125 44.007812 L 32.28125 44.308594 C 32.230469 44.332031 32.15625 44.332031 32.109375 44.332031 C 31.832031 44.332031 31.609375 44.109375 31.609375 43.835938 L 31.609375 42.34375 C 31.609375 42.144531 31.734375 41.945312 31.933594 41.871094 L 33.078125 41.472656 L 33.078125 37.492188 L 32.28125 37.765625 C 32.230469 37.792969 32.15625 37.792969 32.109375 37.792969 C 31.832031 37.792969 31.609375 37.566406 31.609375 37.292969 L 31.609375 35.800781 C 31.609375 35.601562 31.734375 35.429688 31.933594 35.355469 L 33.078125 34.929688 L 33.078125 31 C 33.078125 30.753906 33.277344 30.527344 33.523438 30.527344 C 33.773438 30.527344 33.996094 30.753906 33.996094 31 L 33.996094 34.609375 L 36.0625 33.835938 L 36.0625 29.90625 C 36.0625 29.65625 36.285156 29.433594 36.535156 29.433594 C 36.785156 29.433594 36.984375 29.65625 36.984375 29.90625 L 36.984375 33.511719 L 37.777344 33.214844 C 37.828125 33.191406 37.902344 33.191406 37.953125 33.191406 C 38.226562 33.191406 38.449219 33.414062 38.449219 33.6875 L 38.449219 35.179688 C 38.449219 35.378906 38.324219 35.578125 38.125 35.652344 L 36.984375 36.050781 L 36.984375 40.03125 L 37.777344 39.757812 C 37.828125 39.730469 37.902344 39.730469 37.953125 39.730469 C 38.226562 39.730469 38.449219 39.957031 38.449219 40.230469 L 38.449219 41.722656 C 38.449219 41.921875 38.324219 42.09375 38.125 42.167969 L 36.984375 42.59375 Z M 33.996094 37.144531 L 33.996094 41.125 L 36.0625 40.378906 L 36.0625 36.398438 Z M 33.996094 37.144531 "/>
<path style=" stroke:none;fill-rule:nonzero;fill:rgb(0%,0%,0%);fill-opacity:1;" d="M 23.390625 13.890625 C 23.390625 13.191406 23.960938 12.621094 24.65625 12.621094 C 25.355469 12.621094 25.925781 13.191406 25.925781 13.890625 C 25.925781 14.585938 25.355469 15.15625 24.65625 15.15625 C 23.960938 15.15625 23.390625 14.585938 23.390625 13.890625 Z M 23.390625 7.671875 C 23.390625 6.972656 23.960938 6.402344 24.65625 6.402344 C 25.355469 6.402344 25.925781 6.972656 25.925781 7.671875 C 25.925781 8.367188 25.355469 8.9375 24.65625 8.9375 C 23.960938 8.9375 23.390625 8.367188 23.390625 7.671875 Z M 15.304688 4.238281 C 19.585938 4.238281 22.59375 6.425781 22.59375 10.480469 C 22.59375 17.023438 16.050781 20.777344 9.757812 23.441406 C 9.683594 23.515625 9.609375 23.539062 9.535156 23.539062 C 9.363281 23.539062 9.210938 23.390625 9.210938 23.214844 C 9.210938 23.140625 9.238281 23.066406 9.3125 22.992188 C 14.335938 20.058594 19.558594 16.402344 19.558594 10.730469 C 19.558594 7.746094 17.992188 4.886719 15.304688 4.886719 C 13.464844 4.886719 12.097656 6.226562 11.476562 8.019531 C 11.75 7.894531 12.023438 7.820312 12.320312 7.820312 C 13.6875 7.820312 14.808594 8.9375 14.808594 10.308594 C 14.808594 11.75 13.714844 12.945312 12.320312 12.945312 C 10.828125 12.945312 9.535156 11.773438 9.535156 10.308594 C 9.535156 7 12.074219 4.238281 15.304688 4.238281 Z M 15.304688 4.238281 "/>
<path style=" stroke:none;fill-rule:nonzero;fill:rgb(0%,0%,0%);fill-opacity:1;" d="M 46.046875 35.378906 C 47.417969 35.378906 48.734375 36.074219 48.734375 37.59375 C 48.734375 39.359375 47.367188 40.601562 46.199219 41.296875 C 45.328125 41.820312 44.332031 42.144531 43.3125 42.144531 C 41.945312 42.144531 40.625 41.449219 40.625 39.929688 C 40.625 38.164062 41.996094 36.921875 43.164062 36.222656 C 44.035156 35.703125 45.027344 35.378906 46.046875 35.378906 Z M 46.046875 35.378906 "/>
</g>
</svg>
