<?xml version="1.0" encoding="UTF-8"?>
<svg xmlns="http://www.w3.org/2000/svg" xmlns:xlink="http://www.w3.org/1999/xlink" width="88.470722pt" height="64.987243pt" viewBox="0 0 88.470722 64.987243" version="1.1">
<g id="surface1">
<path style="fill:none;stroke-width:0.1;stroke-linecap:round;stroke-linejoin:round;stroke:rgb(0%,0%,0%);stroke-opacity:1;stroke-miterlimit:4;" d="M 0.049863 -0.000287501 L 11.763307 -0.000287501 " transform="matrix(6.218149,0,0,6.218149,4.561038,40.517413)"/>
<path style="fill:none;stroke-width:0.1;stroke-linecap:round;stroke-linejoin:round;stroke:rgb(0%,0%,0%);stroke-opacity:1;stroke-miterlimit:4;" d="M 0.049863 0.000244052 L 11.763307 0.000244052 " transform="matrix(6.218149,0,0,6.218149,4.561038,34.299264)"/>
<path style="fill:none;stroke-width:0.1;stroke-linecap:round;stroke-linejoin:round;stroke:rgb(0%,0%,0%);stroke-opacity:1;stroke-miterlimit:4;" d="M 0.049863 0.000147403 L 11.763307 0.000147403 " transform="matrix(6.218149,0,0,6.218149,4.561038,28.081115)"/>
<path style="fill:none;stroke-width:0.1;stroke-linecap:round;stroke-linejoin:round;stroke:rgb(0%,0%,0%);stroke-opacity:1;stroke-miterlimit:4;" d="M 0.049863 0.0000507548 L 11.763307 0.0000507548 " transform="matrix(6.218149,0,0,6.218149,4.561038,21.862966)"/>
<path style="fill:none;stroke-width:0.1;stroke-linecap:round;stroke-linejoin:round;stroke:rgb(0%,0%,0%);stroke-opacity:1;stroke-miterlimit:4;" d="M 0.049863 -0.0000458938 L 11.763307 -0.0000458938 " transform="matrix(6.218149,0,0,6.218149,4.561038,15.644817)"/>
<path style=" stroke:none;fill-rule:nonzero;fill:rgb(0%,0%,0%);fill-opacity:1;" d="M 57.945312 46.113281 L 68.863281 46.113281 C 69.207031 46.113281 69.488281 46.390625 69.488281 46.734375 C 69.488281 47.078125 69.207031 47.355469 68.863281 47.355469 L 57.945312 47.355469 C 57.601562 47.355469 57.320312 47.078125 57.320312 46.734375 C 57.320312 46.390625 57.601562 46.113281 57.945312 46.113281 Z M 57.945312 46.113281 "/>
<path style=" stroke:none;fill-rule:nonzero;fill:rgb(0%,0%,0%);fill-opacity:1;" d="M 66.898438 9.425781 L 67.210938 9.425781 C 67.347656 9.425781 67.457031 9.539062 67.457031 9.675781 L 67.457031 45.328125 C 67.457031 45.46875 67.347656 45.578125 67.210938 45.578125 L 66.898438 45.578125 C 66.761719 45.578125 66.652344 45.46875 66.652344 45.328125 L 66.652344 9.675781 C 66.652344 9.539062 66.761719 9.425781 66.898438 9.425781 Z M 66.898438 9.425781 "/>
<path style=" stroke:none;fill-rule:nonzero;fill:rgb(0%,0%,0%);fill-opacity:1;" d="M 55.707031 38.949219 C 55.707031 39.199219 55.507812 39.421875 55.257812 39.421875 C 55.007812 39.421875 54.785156 39.199219 54.785156 38.949219 L 54.785156 35.34375 L 52.71875 36.113281 L 52.71875 40.042969 C 52.71875 40.292969 52.496094 40.515625 52.246094 40.515625 C 52 40.515625 51.800781 40.292969 51.800781 40.042969 L 51.800781 36.4375 L 51.003906 36.738281 C 50.953125 36.761719 50.878906 36.761719 50.832031 36.761719 C 50.558594 36.761719 50.332031 36.539062 50.332031 36.265625 L 50.332031 34.773438 C 50.332031 34.574219 50.457031 34.375 50.65625 34.300781 L 51.800781 33.902344 L 51.800781 29.921875 L 51.003906 30.195312 C 50.953125 30.21875 50.878906 30.21875 50.832031 30.21875 C 50.558594 30.21875 50.332031 29.996094 50.332031 29.722656 L 50.332031 28.230469 C 50.332031 28.03125 50.457031 27.855469 50.65625 27.78125 L 51.800781 27.359375 L 51.800781 23.429688 C 51.800781 23.179688 52 22.957031 52.246094 22.957031 C 52.496094 22.957031 52.71875 23.179688 52.71875 23.429688 L 52.71875 27.035156 L 54.785156 26.265625 L 54.785156 22.335938 C 54.785156 22.085938 55.007812 21.863281 55.257812 21.863281 C 55.507812 21.863281 55.707031 22.085938 55.707031 22.335938 L 55.707031 25.941406 L 56.5 25.644531 C 56.550781 25.617188 56.625 25.617188 56.675781 25.617188 C 56.949219 25.617188 57.171875 25.84375 57.171875 26.117188 L 57.171875 27.609375 C 57.171875 27.808594 57.046875 28.007812 56.847656 28.082031 L 55.707031 28.480469 L 55.707031 32.457031 L 56.5 32.183594 C 56.550781 32.160156 56.625 32.160156 56.675781 32.160156 C 56.949219 32.160156 57.171875 32.382812 57.171875 32.65625 L 57.171875 34.148438 C 57.171875 34.347656 57.046875 34.523438 56.847656 34.597656 L 55.707031 35.019531 Z M 52.71875 29.574219 L 52.71875 33.554688 L 54.785156 32.808594 L 54.785156 28.828125 Z M 52.71875 29.574219 "/>
<path style=" stroke:none;fill-rule:nonzero;fill:rgb(0%,0%,0%);fill-opacity:1;" d="M 42.671875 42.058594 C 42.671875 42.308594 42.472656 42.53125 42.222656 42.53125 C 41.976562 42.53125 41.75 42.308594 41.75 42.058594 L 41.75 38.453125 L 39.6875 39.222656 L 39.6875 43.152344 C 39.6875 43.402344 39.464844 43.625 39.214844 43.625 C 38.964844 43.625 38.765625 43.402344 38.765625 43.152344 L 38.765625 39.546875 L 37.972656 39.847656 C 37.921875 39.871094 37.847656 39.871094 37.796875 39.871094 C 37.523438 39.871094 37.300781 39.648438 37.300781 39.375 L 37.300781 37.882812 C 37.300781 37.683594 37.425781 37.484375 37.621094 37.410156 L 38.765625 37.011719 L 38.765625 33.03125 L 37.972656 33.304688 C 37.921875 33.328125 37.847656 33.328125 37.796875 33.328125 C 37.523438 33.328125 37.300781 33.105469 37.300781 32.832031 L 37.300781 31.339844 C 37.300781 31.140625 37.425781 30.964844 37.621094 30.890625 L 38.765625 30.46875 L 38.765625 26.539062 C 38.765625 26.289062 38.964844 26.066406 39.214844 26.066406 C 39.464844 26.066406 39.6875 26.289062 39.6875 26.539062 L 39.6875 30.144531 L 41.75 29.375 L 41.75 25.445312 C 41.75 25.195312 41.976562 24.972656 42.222656 24.972656 C 42.472656 24.972656 42.671875 25.195312 42.671875 25.445312 L 42.671875 29.050781 L 43.46875 28.753906 C 43.519531 28.726562 43.59375 28.726562 43.640625 28.726562 C 43.914062 28.726562 44.140625 28.953125 44.140625 29.226562 L 44.140625 30.71875 C 44.140625 30.917969 44.015625 31.117188 43.816406 31.191406 L 42.671875 31.589844 L 42.671875 35.566406 L 43.46875 35.292969 C 43.519531 35.269531 43.59375 35.269531 43.640625 35.269531 C 43.914062 35.269531 44.140625 35.492188 44.140625 35.765625 L 44.140625 37.257812 C 44.140625 37.457031 44.015625 37.632812 43.816406 37.707031 L 42.671875 38.128906 Z M 39.6875 32.683594 L 39.6875 36.664062 L 41.75 35.914062 L 41.75 31.9375 Z M 39.6875 32.683594 "/>
<path style=" stroke:none;fill-rule:nonzero;fill:rgb(0%,0%,0%);fill-opacity:1;" d="M 34.589844 48.277344 C 34.589844 48.527344 34.390625 48.75 34.140625 48.75 C 33.890625 48.75 33.667969 48.527344 33.667969 48.277344 L 33.667969 44.671875 L 31.605469 45.441406 L 31.605469 49.371094 C 31.605469 49.621094 31.378906 49.84375 31.132812 49.84375 C 30.882812 49.84375 30.683594 49.621094 30.683594 49.371094 L 30.683594 45.765625 L 29.886719 46.0625 C 29.835938 46.089844 29.761719 46.089844 29.714844 46.089844 C 29.441406 46.089844 29.214844 45.863281 29.214844 45.589844 L 29.214844 44.097656 C 29.214844 43.898438 29.339844 43.699219 29.539062 43.625 L 30.683594 43.230469 L 30.683594 39.25 L 29.886719 39.523438 C 29.835938 39.546875 29.761719 39.546875 29.714844 39.546875 C 29.441406 39.546875 29.214844 39.324219 29.214844 39.050781 L 29.214844 37.558594 C 29.214844 37.359375 29.339844 37.183594 29.539062 37.109375 L 30.683594 36.6875 L 30.683594 32.757812 C 30.683594 32.507812 30.882812 32.285156 31.132812 32.285156 C 31.378906 32.285156 31.605469 32.507812 31.605469 32.757812 L 31.605469 36.363281 L 33.667969 35.59375 L 33.667969 31.664062 C 33.667969 31.414062 33.890625 31.191406 34.140625 31.191406 C 34.390625 31.191406 34.589844 31.414062 34.589844 31.664062 L 34.589844 35.269531 L 35.382812 34.972656 C 35.433594 34.945312 35.507812 34.945312 35.558594 34.945312 C 35.832031 34.945312 36.054688 35.167969 36.054688 35.445312 L 36.054688 36.9375 C 36.054688 37.132812 35.929688 37.332031 35.734375 37.410156 L 34.589844 37.804688 L 34.589844 41.785156 L 35.382812 41.511719 C 35.433594 41.488281 35.507812 41.488281 35.558594 41.488281 C 35.832031 41.488281 36.054688 41.710938 36.054688 41.984375 L 36.054688 43.476562 C 36.054688 43.675781 35.929688 43.851562 35.734375 43.925781 L 34.589844 44.347656 Z M 31.605469 38.902344 L 31.605469 42.878906 L 33.667969 42.132812 L 33.667969 38.15625 Z M 31.605469 38.902344 "/>
<path style=" stroke:none;fill-rule:nonzero;fill:rgb(0%,0%,0%);fill-opacity:1;" d="M 49.113281 54.496094 C 49.113281 54.746094 48.914062 54.96875 48.667969 54.96875 C 48.417969 54.96875 48.195312 54.746094 48.195312 54.496094 L 48.195312 50.890625 L 46.128906 51.660156 L 46.128906 55.589844 C 46.128906 55.839844 45.90625 56.0625 45.65625 56.0625 C 45.40625 56.0625 45.210938 55.839844 45.210938 55.589844 L 45.210938 51.984375 L 44.414062 52.28125 C 44.363281 52.308594 44.289062 52.308594 44.238281 52.308594 C 43.964844 52.308594 43.742188 52.082031 43.742188 51.808594 L 43.742188 50.316406 C 43.742188 50.117188 43.867188 49.917969 44.066406 49.84375 L 45.210938 49.445312 L 45.210938 45.46875 L 44.414062 45.742188 C 44.363281 45.765625 44.289062 45.765625 44.238281 45.765625 C 43.964844 45.765625 43.742188 45.542969 43.742188 45.269531 L 43.742188 43.777344 C 43.742188 43.578125 43.867188 43.402344 44.066406 43.328125 L 45.210938 42.90625 L 45.210938 38.976562 C 45.210938 38.726562 45.40625 38.503906 45.65625 38.503906 C 45.90625 38.503906 46.128906 38.726562 46.128906 38.976562 L 46.128906 42.582031 L 48.195312 41.8125 L 48.195312 37.882812 C 48.195312 37.632812 48.417969 37.410156 48.667969 37.410156 C 48.914062 37.410156 49.113281 37.632812 49.113281 37.882812 L 49.113281 41.488281 L 49.910156 41.1875 C 49.960938 41.164062 50.035156 41.164062 50.085938 41.164062 C 50.359375 41.164062 50.582031 41.386719 50.582031 41.660156 L 50.582031 43.152344 C 50.582031 43.351562 50.457031 43.550781 50.257812 43.625 L 49.113281 44.023438 L 49.113281 48.003906 L 49.910156 47.730469 C 49.960938 47.707031 50.035156 47.707031 50.085938 47.707031 C 50.359375 47.707031 50.582031 47.929688 50.582031 48.203125 L 50.582031 49.695312 C 50.582031 49.894531 50.457031 50.070312 50.257812 50.144531 L 49.113281 50.566406 Z M 46.128906 45.117188 L 46.128906 49.097656 L 48.195312 48.351562 L 48.195312 44.371094 Z M 46.128906 45.117188 "/>
<path style=" stroke:none;fill-rule:nonzero;fill:rgb(0%,0%,0%);fill-opacity:1;" d="M 16.152344 50.09375 L 16.003906 50.09375 C 13.316406 50.09375 11.152344 47.90625 11.152344 45.195312 C 11.152344 43.75 12.46875 42.632812 13.9375 42.632812 C 15.28125 42.632812 16.300781 43.800781 16.300781 45.195312 C 16.300781 46.488281 15.230469 47.554688 13.9375 47.554688 C 13.664062 47.554688 13.414062 47.507812 13.167969 47.40625 C 13.8125 48.378906 14.859375 49.023438 16.078125 49.023438 L 16.175781 49.023438 Z M 21 39.347656 C 22.691406 38.75 23.8125 36.984375 23.8125 35.269531 C 23.8125 33.03125 22.171875 30.816406 19.507812 30.542969 C 20.105469 33.429688 20.652344 36.289062 21 39.347656 Z M 11.375 33.601562 C 11.375 36.960938 14.585938 39.746094 17.941406 39.746094 C 18.640625 39.746094 19.308594 39.695312 19.980469 39.597656 C 19.632812 36.4375 19.0625 33.503906 18.414062 30.542969 C 16.449219 30.742188 15.332031 32.0625 15.332031 33.503906 C 15.332031 34.597656 15.953125 35.765625 17.34375 36.5625 C 17.46875 36.6875 17.519531 36.8125 17.519531 36.9375 C 17.519531 37.210938 17.269531 37.484375 16.972656 37.484375 C 16.898438 37.484375 16.824219 37.457031 16.75 37.433594 C 14.757812 36.363281 13.839844 34.574219 13.839844 32.832031 C 13.839844 30.644531 15.28125 28.503906 17.816406 27.933594 C 17.46875 26.488281 17.097656 25.023438 16.675781 23.578125 C 14.011719 26.589844 11.375 29.625 11.375 33.601562 Z M 17.867188 40.816406 C 13.191406 40.816406 9.585938 36.539062 9.585938 31.511719 C 9.585938 27.109375 12.84375 23.902344 15.753906 20.542969 C 15.28125 19.003906 14.832031 17.4375 14.632812 15.820312 C 14.484375 14.527344 14.460938 13.230469 14.460938 11.9375 C 14.460938 9.078125 15.828125 6.367188 18.167969 4.675781 C 18.316406 4.550781 18.515625 4.550781 18.664062 4.675781 C 20.429688 6.765625 21.972656 10.769531 21.972656 13.582031 C 21.972656 17.136719 19.832031 19.921875 17.496094 22.632812 C 18.015625 24.324219 18.464844 26.066406 18.886719 27.78125 C 18.988281 27.78125 19.113281 27.757812 19.210938 27.757812 C 23.066406 27.757812 25.578125 30.941406 25.578125 34.25 C 25.578125 36.140625 24.757812 38.078125 22.917969 39.472656 C 22.371094 39.894531 21.746094 40.167969 21.101562 40.367188 C 21.175781 41.238281 21.226562 42.109375 21.226562 42.980469 C 21.226562 43.453125 21.199219 43.949219 21.175781 44.421875 C 21 47.382812 18.988281 50.019531 16.152344 50.09375 L 16.175781 49.023438 C 18.488281 48.972656 19.980469 46.734375 20.132812 44.273438 C 20.15625 43.824219 20.179688 43.351562 20.179688 42.90625 C 20.179688 42.132812 20.15625 41.386719 20.082031 40.617188 C 19.359375 40.742188 18.640625 40.816406 17.867188 40.816406 Z M 20.179688 11.515625 C 20.179688 10.148438 20.082031 9.550781 19.683594 8.308594 C 17.222656 9.5 15.652344 12.011719 15.652344 14.75 C 15.652344 16.589844 16.101562 18.058594 16.550781 19.574219 C 18.539062 17.160156 20.179688 14.648438 20.179688 11.515625 Z M 20.179688 11.515625 "/>
<path style=" stroke:none;fill-rule:nonzero;fill:rgb(0%,0%,0%);fill-opacity:1;" d="M 72.476562 27.808594 C 73.84375 27.808594 75.164062 28.503906 75.164062 30.019531 C 75.164062 31.789062 73.796875 33.03125 72.625 33.726562 C 71.753906 34.25 70.761719 34.574219 69.742188 34.574219 C 68.371094 34.574219 67.054688 33.875 67.054688 32.359375 C 67.054688 30.59375 68.421875 29.351562 69.589844 28.652344 C 70.460938 28.132812 71.457031 27.808594 72.476562 27.808594 Z M 72.476562 27.808594 "/>
<path style=" stroke:none;fill-rule:nonzero;fill:rgb(0%,0%,0%);fill-opacity:1;" d="M 64.769531 30.917969 C 66.140625 30.917969 67.457031 31.613281 67.457031 33.128906 C 67.457031 34.894531 66.089844 36.140625 64.921875 36.835938 C 64.050781 37.359375 63.054688 37.683594 62.035156 37.683594 C 60.667969 37.683594 59.347656 36.984375 59.347656 35.46875 C 59.347656 33.703125 60.71875 32.457031 61.886719 31.761719 C 62.757812 31.238281 63.75 30.917969 64.769531 30.917969 Z M 64.769531 30.917969 "/>
<path style=" stroke:none;fill-rule:nonzero;fill:rgb(0%,0%,0%);fill-opacity:1;" d="M 64.769531 37.132812 C 66.140625 37.132812 67.457031 37.832031 67.457031 39.347656 C 67.457031 41.113281 66.089844 42.359375 64.921875 43.054688 C 64.050781 43.578125 63.054688 43.898438 62.035156 43.898438 C 60.667969 43.898438 59.347656 43.203125 59.347656 41.6875 C 59.347656 39.921875 60.71875 38.675781 61.886719 37.980469 C 62.757812 37.457031 63.75 37.132812 64.769531 37.132812 Z M 64.769531 37.132812 "/>
<path style=" stroke:none;fill-rule:nonzero;fill:rgb(0%,0%,0%);fill-opacity:1;" d="M 64.769531 43.351562 C 66.140625 43.351562 67.457031 44.050781 67.457031 45.566406 C 67.457031 47.332031 66.089844 48.574219 64.921875 49.273438 C 64.050781 49.792969 63.054688 50.117188 62.035156 50.117188 C 60.667969 50.117188 59.347656 49.421875 59.347656 47.90625 C 59.347656 46.136719 60.71875 44.894531 61.886719 44.199219 C 62.757812 43.675781 63.75 43.351562 64.769531 43.351562 Z M 64.769531 43.351562 "/>
</g>
</svg>
