<?xml version="1.0" encoding="UTF-8"?>
<svg xmlns="http://www.w3.org/2000/svg" xmlns:xlink="http://www.w3.org/1999/xlink" width="81.536713pt" height="68.30813pt" viewBox="0 0 81.536713 68.30813" version="1.1">
<g id="surface1">
<path style="fill:none;stroke-width:0.1;stroke-linecap:round;stroke-linejoin:round;stroke:rgb(0%,0%,0%);stroke-opacity:1;stroke-miterlimit:4;" d="M 0.049863 -0.000287501 L 10.719236 -0.000287501 " transform="matrix(6.218149,0,0,6.218149,4.561038,40.517413)"/>
<path style="fill:none;stroke-width:0.1;stroke-linecap:round;stroke-linejoin:round;stroke:rgb(0%,0%,0%);stroke-opacity:1;stroke-miterlimit:4;" d="M 0.049863 0.000244052 L 10.719236 0.000244052 " transform="matrix(6.218149,0,0,6.218149,4.561038,34.299264)"/>
<path style="fill:none;stroke-width:0.1;stroke-linecap:round;stroke-linejoin:round;stroke:rgb(0%,0%,0%);stroke-opacity:1;stroke-miterlimit:4;" d="M 0.049863 0.000147403 L 10.719236 0.000147403 " transform="matrix(6.218149,0,0,6.218149,4.561038,28.081115)"/>
<path style="fill:none;stroke-width:0.1;stroke-linecap:round;stroke-linejoin:round;stroke:rgb(0%,0%,0%);stroke-opacity:1;stroke-miterlimit:4;" d="M 0.049863 0.0000507548 L 10.719236 0.0000507548 " transform="matrix(6.218149,0,0,6.218149,4.561038,21.862966)"/>
<path style="fill:none;stroke-width:0.1;stroke-linecap:round;stroke-linejoin:round;stroke:rgb(0%,0%,0%);stroke-opacity:1;stroke-miterlimit:4;" d="M 0.049863 -0.0000458938 L 10.719236 -0.0000458938 " transform="matrix(6.218149,0,0,6.218149,4.561038,15.644817)"/>
<path style=" stroke:none;fill-rule:nonzero;fill:rgb(0%,0%,0%);fill-opacity:1;" d="M 51.453125 46.113281 L 62.371094 46.113281 C 62.714844 46.113281 62.996094 46.390625 62.996094 46.734375 C 62.996094 47.078125 62.714844 47.355469 62.371094 47.355469 L 51.453125 47.355469 C 51.109375 47.355469 50.832031 47.078125 50.832031 46.734375 C 50.832031 46.390625 51.109375 46.113281 51.453125 46.113281 Z M 51.453125 46.113281 "/>
<path style=" stroke:none;fill-rule:nonzero;fill:rgb(0%,0%,0%);fill-opacity:1;" d="M 60.40625 15.644531 L 60.71875 15.644531 C 60.855469 15.644531 60.96875 15.757812 60.96875 15.894531 L 60.96875 48.4375 C 60.96875 48.574219 60.855469 48.6875 60.71875 48.6875 L 60.40625 48.6875 C 60.269531 48.6875 60.160156 48.574219 60.160156 48.4375 L 60.160156 15.894531 C 60.160156 15.757812 60.269531 15.644531 60.40625 15.644531 Z M 60.40625 15.644531 "/>
<path style=" stroke:none;fill-rule:nonzero;fill:rgb(0%,0%,0%);fill-opacity:1;" d="M 47.945312 37.410156 C 48.519531 37.980469 49.339844 38.105469 50.160156 38.105469 C 50.308594 38.105469 50.410156 38.203125 50.410156 38.351562 L 50.632812 40.515625 C 50.65625 40.667969 50.535156 40.789062 50.382812 40.765625 L 48.21875 40.542969 C 48.097656 40.515625 47.972656 40.417969 47.972656 40.292969 C 47.972656 39.472656 47.847656 38.652344 47.273438 38.078125 C 46.703125 38.652344 46.605469 39.472656 46.605469 40.292969 C 46.605469 40.417969 46.480469 40.515625 46.355469 40.542969 L 44.167969 40.765625 C 44.015625 40.789062 43.894531 40.667969 43.917969 40.515625 L 44.140625 38.351562 C 44.140625 38.203125 44.242188 38.105469 44.390625 38.105469 C 45.210938 38.105469 46.03125 37.980469 46.605469 37.410156 C 46.03125 36.835938 45.210938 36.710938 44.390625 36.710938 C 44.242188 36.710938 44.140625 36.613281 44.140625 36.464844 L 43.917969 34.300781 C 43.894531 34.148438 44.015625 34.027344 44.167969 34.050781 L 46.355469 34.273438 C 46.480469 34.300781 46.578125 34.398438 46.578125 34.523438 C 46.578125 35.34375 46.703125 36.164062 47.273438 36.738281 C 47.847656 36.164062 47.972656 35.34375 47.972656 34.523438 C 47.972656 34.398438 48.097656 34.300781 48.21875 34.273438 L 50.382812 34.050781 C 50.535156 34.027344 50.65625 34.148438 50.632812 34.300781 L 50.410156 36.464844 C 50.410156 36.613281 50.308594 36.710938 50.160156 36.710938 C 49.339844 36.710938 48.519531 36.835938 47.945312 37.410156 Z M 47.945312 37.410156 "/>
<path style=" stroke:none;fill-rule:nonzero;fill:rgb(0%,0%,0%);fill-opacity:1;" d="M 34.589844 51.386719 C 34.589844 51.636719 34.390625 51.859375 34.140625 51.859375 C 33.890625 51.859375 33.667969 51.636719 33.667969 51.386719 L 33.667969 47.78125 L 31.605469 48.550781 L 31.605469 52.480469 C 31.605469 52.730469 31.378906 52.953125 31.132812 52.953125 C 30.882812 52.953125 30.683594 52.730469 30.683594 52.480469 L 30.683594 48.875 L 29.886719 49.171875 C 29.835938 49.199219 29.761719 49.199219 29.714844 49.199219 C 29.441406 49.199219 29.214844 48.972656 29.214844 48.699219 L 29.214844 47.207031 C 29.214844 47.007812 29.339844 46.808594 29.539062 46.734375 L 30.683594 46.335938 L 30.683594 42.359375 L 29.886719 42.632812 C 29.835938 42.65625 29.761719 42.65625 29.714844 42.65625 C 29.441406 42.65625 29.214844 42.433594 29.214844 42.160156 L 29.214844 40.667969 C 29.214844 40.46875 29.339844 40.292969 29.539062 40.21875 L 30.683594 39.796875 L 30.683594 35.867188 C 30.683594 35.617188 30.882812 35.394531 31.132812 35.394531 C 31.378906 35.394531 31.605469 35.617188 31.605469 35.867188 L 31.605469 39.472656 L 33.667969 38.703125 L 33.667969 34.773438 C 33.667969 34.523438 33.890625 34.300781 34.140625 34.300781 C 34.390625 34.300781 34.589844 34.523438 34.589844 34.773438 L 34.589844 38.378906 L 35.382812 38.078125 C 35.433594 38.054688 35.507812 38.054688 35.558594 38.054688 C 35.832031 38.054688 36.054688 38.277344 36.054688 38.550781 L 36.054688 40.042969 C 36.054688 40.242188 35.929688 40.441406 35.734375 40.515625 L 34.589844 40.914062 L 34.589844 44.894531 L 35.382812 44.621094 C 35.433594 44.597656 35.507812 44.597656 35.558594 44.597656 C 35.832031 44.597656 36.054688 44.820312 36.054688 45.09375 L 36.054688 46.585938 C 36.054688 46.785156 35.929688 46.960938 35.734375 47.035156 L 34.589844 47.457031 Z M 31.605469 42.011719 L 31.605469 45.988281 L 33.667969 45.242188 L 33.667969 41.261719 Z M 31.605469 42.011719 "/>
<path style=" stroke:none;fill-rule:nonzero;fill:rgb(0%,0%,0%);fill-opacity:1;" d="M 42.671875 57.605469 C 42.671875 57.855469 42.472656 58.078125 42.222656 58.078125 C 41.976562 58.078125 41.75 57.855469 41.75 57.605469 L 41.75 54 L 39.6875 54.769531 L 39.6875 58.699219 C 39.6875 58.949219 39.464844 59.171875 39.214844 59.171875 C 38.964844 59.171875 38.765625 58.949219 38.765625 58.699219 L 38.765625 55.09375 L 37.972656 55.390625 C 37.921875 55.417969 37.847656 55.417969 37.796875 55.417969 C 37.523438 55.417969 37.300781 55.191406 37.300781 54.917969 L 37.300781 53.425781 C 37.300781 53.226562 37.425781 53.027344 37.621094 52.953125 L 38.765625 52.554688 L 38.765625 48.574219 L 37.972656 48.851562 C 37.921875 48.875 37.847656 48.875 37.796875 48.875 C 37.523438 48.875 37.300781 48.652344 37.300781 48.378906 L 37.300781 46.886719 C 37.300781 46.6875 37.425781 46.511719 37.621094 46.4375 L 38.765625 46.015625 L 38.765625 42.085938 C 38.765625 41.835938 38.964844 41.613281 39.214844 41.613281 C 39.464844 41.613281 39.6875 41.835938 39.6875 42.085938 L 39.6875 45.691406 L 41.75 44.917969 L 41.75 40.988281 C 41.75 40.742188 41.976562 40.515625 42.222656 40.515625 C 42.472656 40.515625 42.671875 40.742188 42.671875 40.988281 L 42.671875 44.597656 L 43.46875 44.296875 C 43.519531 44.273438 43.59375 44.273438 43.640625 44.273438 C 43.914062 44.273438 44.140625 44.496094 44.140625 44.769531 L 44.140625 46.261719 C 44.140625 46.460938 44.015625 46.660156 43.816406 46.734375 L 42.671875 47.132812 L 42.671875 51.113281 L 43.46875 50.839844 C 43.519531 50.816406 43.59375 50.816406 43.640625 50.816406 C 43.914062 50.816406 44.140625 51.039062 44.140625 51.3125 L 44.140625 52.804688 C 44.140625 53.003906 44.015625 53.175781 43.816406 53.253906 L 42.671875 53.675781 Z M 39.6875 48.226562 L 39.6875 52.207031 L 41.75 51.460938 L 41.75 47.480469 Z M 39.6875 48.226562 "/>
<path style=" stroke:none;fill-rule:nonzero;fill:rgb(0%,0%,0%);fill-opacity:1;" d="M 16.152344 50.09375 L 16.003906 50.09375 C 13.316406 50.09375 11.152344 47.90625 11.152344 45.195312 C 11.152344 43.75 12.46875 42.632812 13.9375 42.632812 C 15.28125 42.632812 16.300781 43.800781 16.300781 45.195312 C 16.300781 46.488281 15.230469 47.554688 13.9375 47.554688 C 13.664062 47.554688 13.414062 47.507812 13.167969 47.40625 C 13.8125 48.378906 14.859375 49.023438 16.078125 49.023438 L 16.175781 49.023438 Z M 21 39.347656 C 22.691406 38.75 23.8125 36.984375 23.8125 35.269531 C 23.8125 33.03125 22.171875 30.816406 19.507812 30.542969 C 20.105469 33.429688 20.652344 36.289062 21 39.347656 Z M 11.375 33.601562 C 11.375 36.960938 14.585938 39.746094 17.941406 39.746094 C 18.640625 39.746094 19.308594 39.695312 19.980469 39.597656 C 19.632812 36.4375 19.0625 33.503906 18.414062 30.542969 C 16.449219 30.742188 15.332031 32.0625 15.332031 33.503906 C 15.332031 34.597656 15.953125 35.765625 17.34375 36.5625 C 17.46875 36.6875 17.519531 36.8125 17.519531 36.9375 C 17.519531 37.210938 17.269531 37.484375 16.972656 37.484375 C 16.898438 37.484375 16.824219 37.457031 16.75 37.433594 C 14.757812 36.363281 13.839844 34.574219 13.839844 32.832031 C 13.839844 30.644531 15.28125 28.503906 17.816406 27.933594 C 17.46875 26.488281 17.097656 25.023438 16.675781 23.578125 C 14.011719 26.589844 11.375 29.625 11.375 33.601562 Z M 17.867188 40.816406 C 13.191406 40.816406 9.585938 36.539062 9.585938 31.511719 C 9.585938 27.109375 12.84375 23.902344 15.753906 20.542969 C 15.28125 19.003906 14.832031 17.4375 14.632812 15.820312 C 14.484375 14.527344 14.460938 13.230469 14.460938 11.9375 C 14.460938 9.078125 15.828125 6.367188 18.167969 4.675781 C 18.316406 4.550781 18.515625 4.550781 18.664062 4.675781 C 20.429688 6.765625 21.972656 10.769531 21.972656 13.582031 C 21.972656 17.136719 19.832031 19.921875 17.496094 22.632812 C 18.015625 24.324219 18.464844 26.066406 18.886719 27.78125 C 18.988281 27.78125 19.113281 27.757812 19.210938 27.757812 C 23.066406 27.757812 25.578125 30.941406 25.578125 34.25 C 25.578125 36.140625 24.757812 38.078125 22.917969 39.472656 C 22.371094 39.894531 21.746094 40.167969 21.101562 40.367188 C 21.175781 41.238281 21.226562 42.109375 21.226562 42.980469 C 21.226562 43.453125 21.199219 43.949219 21.175781 44.421875 C 21 47.382812 18.988281 50.019531 16.152344 50.09375 L 16.175781 49.023438 C 18.488281 48.972656 19.980469 46.734375 20.132812 44.273438 C 20.15625 43.824219 20.179688 43.351562 20.179688 42.90625 C 20.179688 42.132812 20.15625 41.386719 20.082031 40.617188 C 19.359375 40.742188 18.640625 40.816406 17.867188 40.816406 Z M 20.179688 11.515625 C 20.179688 10.148438 20.082031 9.550781 19.683594 8.308594 C 17.222656 9.5 15.652344 12.011719 15.652344 14.75 C 15.652344 16.589844 16.101562 18.058594 16.550781 19.574219 C 18.539062 17.160156 20.179688 14.648438 20.179688 11.515625 Z M 20.179688 11.515625 "/>
<path style=" stroke:none;fill-rule:nonzero;fill:rgb(0%,0%,0%);fill-opacity:1;" d="M 58.28125 34.027344 C 59.648438 34.027344 60.964844 34.722656 60.964844 36.238281 C 60.964844 38.003906 59.597656 39.25 58.429688 39.945312 C 57.558594 40.46875 56.5625 40.789062 55.542969 40.789062 C 54.175781 40.789062 52.855469 40.09375 52.855469 38.578125 C 52.855469 36.8125 54.226562 35.566406 55.394531 34.871094 C 56.265625 34.347656 57.261719 34.027344 58.28125 34.027344 Z M 58.28125 34.027344 "/>
<path style=" stroke:none;fill-rule:nonzero;fill:rgb(0%,0%,0%);fill-opacity:1;" d="M 58.28125 40.242188 C 59.648438 40.242188 60.964844 40.941406 60.964844 42.457031 C 60.964844 44.222656 59.597656 45.46875 58.429688 46.164062 C 57.558594 46.6875 56.5625 47.007812 55.542969 47.007812 C 54.175781 47.007812 52.855469 46.3125 52.855469 44.796875 C 52.855469 43.03125 54.226562 41.785156 55.394531 41.089844 C 56.265625 40.566406 57.261719 40.242188 58.28125 40.242188 Z M 58.28125 40.242188 "/>
<path style=" stroke:none;fill-rule:nonzero;fill:rgb(0%,0%,0%);fill-opacity:1;" d="M 58.28125 46.460938 C 59.648438 46.460938 60.964844 47.160156 60.964844 48.675781 C 60.964844 50.441406 59.597656 51.683594 58.429688 52.382812 C 57.558594 52.902344 56.5625 53.226562 55.542969 53.226562 C 54.175781 53.226562 52.855469 52.53125 52.855469 51.011719 C 52.855469 49.246094 54.226562 48.003906 55.394531 47.308594 C 56.265625 46.785156 57.261719 46.460938 58.28125 46.460938 Z M 58.28125 46.460938 "/>
</g>
</svg>
