<?xml version="1.0" encoding="UTF-8"?>
<svg xmlns="http://www.w3.org/2000/svg" xmlns:xlink="http://www.w3.org/1999/xlink" width="82.322431pt" height="50.196013pt" viewBox="0 0 82.322431 50.196013" version="1.1">
<g id="surface1">
<path style="fill:none;stroke-width:0.1;stroke-linecap:round;stroke-linejoin:round;stroke:rgb(0%,0%,0%);stroke-opacity:1;stroke-miterlimit:4;" d="M 0.049863 -0.0001075 L 10.837338 -0.0001075 " transform="matrix(6.218149,0,0,6.218149,4.561038,29.434262)"/>
<path style="fill:none;stroke-width:0.1;stroke-linecap:round;stroke-linejoin:round;stroke:rgb(0%,0%,0%);stroke-opacity:1;stroke-miterlimit:4;" d="M 0.049863 -0.000204149 L 10.837338 -0.000204149 " transform="matrix(6.218149,0,0,6.218149,4.561038,23.216113)"/>
<path style="fill:none;stroke-width:0.1;stroke-linecap:round;stroke-linejoin:round;stroke:rgb(0%,0%,0%);stroke-opacity:1;stroke-miterlimit:4;" d="M 0.049863 -0.000300797 L 10.837338 -0.000300797 " transform="matrix(6.218149,0,0,6.218149,4.561038,16.997964)"/>
<path style="fill:none;stroke-width:0.1;stroke-linecap:round;stroke-linejoin:round;stroke:rgb(0%,0%,0%);stroke-opacity:1;stroke-miterlimit:4;" d="M 0.049863 0.000230756 L 10.837338 0.000230756 " transform="matrix(6.218149,0,0,6.218149,4.561038,10.779815)"/>
<path style="fill:none;stroke-width:0.1;stroke-linecap:round;stroke-linejoin:round;stroke:rgb(0%,0%,0%);stroke-opacity:1;stroke-miterlimit:4;" d="M 0.049863 0.000133988 L 10.837338 0.000133988 " transform="matrix(6.218149,0,0,6.218149,4.561038,4.561667)"/>
<path style=" stroke:none;fill-rule:nonzero;fill:rgb(0%,0%,0%);fill-opacity:1;" d="M 53.84375 11.9375 L 54.152344 11.9375 C 54.289062 11.9375 54.402344 12.046875 54.402344 12.1875 L 54.402344 41.621094 C 54.402344 41.757812 54.289062 41.871094 54.152344 41.871094 L 53.84375 41.871094 C 53.703125 41.871094 53.59375 41.757812 53.59375 41.621094 L 53.59375 12.1875 C 53.59375 12.046875 53.703125 11.9375 53.84375 11.9375 Z M 53.84375 11.9375 "/>
<path style=" stroke:none;fill-rule:nonzero;fill:rgb(0%,0%,0%);fill-opacity:1;" d="M 48.683594 10.78125 C 49.253906 11.351562 50.074219 11.476562 50.894531 11.476562 C 51.046875 11.476562 51.144531 11.574219 51.144531 11.726562 L 51.367188 13.890625 C 51.394531 14.039062 51.269531 14.164062 51.121094 14.136719 L 48.957031 13.914062 C 48.832031 13.890625 48.707031 13.789062 48.707031 13.664062 C 48.707031 12.84375 48.582031 12.023438 48.011719 11.453125 C 47.4375 12.023438 47.339844 12.84375 47.339844 13.664062 C 47.339844 13.789062 47.214844 13.890625 47.089844 13.914062 L 44.902344 14.136719 C 44.753906 14.164062 44.628906 14.039062 44.652344 13.890625 L 44.878906 11.726562 C 44.878906 11.574219 44.976562 11.476562 45.125 11.476562 C 45.945312 11.476562 46.765625 11.351562 47.339844 10.78125 C 46.765625 10.207031 45.945312 10.082031 45.125 10.082031 C 44.976562 10.082031 44.878906 9.984375 44.878906 9.835938 L 44.652344 7.671875 C 44.628906 7.523438 44.753906 7.398438 44.902344 7.421875 L 47.089844 7.644531 C 47.214844 7.671875 47.316406 7.769531 47.316406 7.894531 C 47.316406 8.714844 47.4375 9.535156 48.011719 10.109375 C 48.582031 9.535156 48.707031 8.714844 48.707031 7.894531 C 48.707031 7.769531 48.832031 7.671875 48.957031 7.644531 L 51.121094 7.421875 C 51.269531 7.398438 51.394531 7.523438 51.367188 7.671875 L 51.144531 9.835938 C 51.144531 9.984375 51.046875 10.082031 50.894531 10.082031 C 50.074219 10.082031 49.253906 10.207031 48.683594 10.78125 Z M 48.683594 10.78125 "/>
<path style=" stroke:none;fill-rule:nonzero;fill:rgb(0%,0%,0%);fill-opacity:1;" d="M 35.324219 24.757812 C 35.324219 25.007812 35.125 25.230469 34.878906 25.230469 C 34.628906 25.230469 34.40625 25.007812 34.40625 24.757812 L 34.40625 21.152344 L 32.339844 21.921875 L 32.339844 25.851562 C 32.339844 26.101562 32.117188 26.324219 31.867188 26.324219 C 31.617188 26.324219 31.417969 26.101562 31.417969 25.851562 L 31.417969 22.246094 L 30.625 22.542969 C 30.574219 22.570312 30.5 22.570312 30.449219 22.570312 C 30.175781 22.570312 29.953125 22.34375 29.953125 22.070312 L 29.953125 20.578125 C 29.953125 20.378906 30.078125 20.183594 30.277344 20.105469 L 31.417969 19.710938 L 31.417969 15.730469 L 30.625 16.003906 C 30.574219 16.027344 30.5 16.027344 30.449219 16.027344 C 30.175781 16.027344 29.953125 15.804688 29.953125 15.53125 L 29.953125 14.039062 C 29.953125 13.839844 30.078125 13.664062 30.277344 13.589844 L 31.417969 13.167969 L 31.417969 9.238281 C 31.417969 8.988281 31.617188 8.765625 31.867188 8.765625 C 32.117188 8.765625 32.339844 8.988281 32.339844 9.238281 L 32.339844 12.84375 L 34.40625 12.074219 L 34.40625 8.144531 C 34.40625 7.894531 34.628906 7.671875 34.878906 7.671875 C 35.125 7.671875 35.324219 7.894531 35.324219 8.144531 L 35.324219 11.75 L 36.121094 11.453125 C 36.171875 11.425781 36.246094 11.425781 36.292969 11.425781 C 36.566406 11.425781 36.792969 11.648438 36.792969 11.925781 L 36.792969 13.417969 C 36.792969 13.617188 36.667969 13.8125 36.46875 13.890625 L 35.324219 14.285156 L 35.324219 18.265625 L 36.121094 17.992188 C 36.171875 17.96875 36.246094 17.96875 36.292969 17.96875 C 36.566406 17.96875 36.792969 18.191406 36.792969 18.464844 L 36.792969 19.957031 C 36.792969 20.15625 36.667969 20.332031 36.46875 20.40625 L 35.324219 20.828125 Z M 32.339844 15.382812 L 32.339844 19.359375 L 34.40625 18.613281 L 34.40625 14.636719 Z M 32.339844 15.382812 "/>
<path style=" stroke:none;fill-rule:nonzero;fill:rgb(0%,0%,0%);fill-opacity:1;" d="M 43.410156 30.976562 C 43.410156 31.226562 43.210938 31.449219 42.960938 31.449219 C 42.710938 31.449219 42.488281 31.226562 42.488281 30.976562 L 42.488281 27.371094 L 40.421875 28.140625 L 40.421875 32.070312 C 40.421875 32.320312 40.199219 32.542969 39.949219 32.542969 C 39.703125 32.542969 39.503906 32.320312 39.503906 32.070312 L 39.503906 28.464844 L 38.707031 28.761719 C 38.65625 28.789062 38.582031 28.789062 38.535156 28.789062 C 38.257812 28.789062 38.035156 28.5625 38.035156 28.289062 L 38.035156 26.796875 C 38.035156 26.597656 38.160156 26.398438 38.359375 26.324219 L 39.503906 25.925781 L 39.503906 21.949219 L 38.707031 22.222656 C 38.65625 22.246094 38.582031 22.246094 38.535156 22.246094 C 38.257812 22.246094 38.035156 22.023438 38.035156 21.75 L 38.035156 20.257812 C 38.035156 20.058594 38.160156 19.882812 38.359375 19.808594 L 39.503906 19.386719 L 39.503906 15.457031 C 39.503906 15.207031 39.703125 14.984375 39.949219 14.984375 C 40.199219 14.984375 40.421875 15.207031 40.421875 15.457031 L 40.421875 19.0625 L 42.488281 18.292969 L 42.488281 14.363281 C 42.488281 14.113281 42.710938 13.890625 42.960938 13.890625 C 43.210938 13.890625 43.410156 14.113281 43.410156 14.363281 L 43.410156 17.96875 L 44.203125 17.667969 C 44.253906 17.644531 44.328125 17.644531 44.378906 17.644531 C 44.652344 17.644531 44.875 17.867188 44.875 18.140625 L 44.875 19.632812 C 44.875 19.832031 44.75 20.03125 44.550781 20.105469 L 43.410156 20.503906 L 43.410156 24.484375 L 44.203125 24.210938 C 44.253906 24.1875 44.328125 24.1875 44.378906 24.1875 C 44.652344 24.1875 44.875 24.410156 44.875 24.683594 L 44.875 26.175781 C 44.875 26.375 44.75 26.550781 44.550781 26.625 L 43.410156 27.046875 Z M 40.421875 21.597656 L 40.421875 25.578125 L 42.488281 24.832031 L 42.488281 20.851562 Z M 40.421875 21.597656 "/>
<path style=" stroke:none;fill-rule:nonzero;fill:rgb(0%,0%,0%);fill-opacity:1;" d="M 23.390625 13.890625 C 23.390625 13.191406 23.960938 12.621094 24.65625 12.621094 C 25.355469 12.621094 25.925781 13.191406 25.925781 13.890625 C 25.925781 14.585938 25.355469 15.15625 24.65625 15.15625 C 23.960938 15.15625 23.390625 14.585938 23.390625 13.890625 Z M 23.390625 7.671875 C 23.390625 6.972656 23.960938 6.402344 24.65625 6.402344 C 25.355469 6.402344 25.925781 6.972656 25.925781 7.671875 C 25.925781 8.367188 25.355469 8.9375 24.65625 8.9375 C 23.960938 8.9375 23.390625 8.367188 23.390625 7.671875 Z M 15.304688 4.238281 C 19.585938 4.238281 22.59375 6.425781 22.59375 10.480469 C 22.59375 17.023438 16.050781 20.777344 9.757812 23.441406 C 9.683594 23.515625 9.609375 23.539062 9.535156 23.539062 C 9.363281 23.539062 9.210938 23.390625 9.210938 23.214844 C 9.210938 23.140625 9.238281 23.066406 9.3125 22.992188 C 14.335938 20.058594 19.558594 16.402344 19.558594 10.730469 C 19.558594 7.746094 17.992188 4.886719 15.304688 4.886719 C 13.464844 4.886719 12.097656 6.226562 11.476562 8.019531 C 11.75 7.894531 12.023438 7.820312 12.320312 7.820312 C 13.6875 7.820312 14.808594 8.9375 14.808594 10.308594 C 14.808594 11.75 13.714844 12.945312 12.320312 12.945312 C 10.828125 12.945312 9.535156 11.773438 9.535156 10.308594 C 9.535156 7 12.074219 4.238281 15.304688 4.238281 Z M 15.304688 4.238281 "/>
<path style=" stroke:none;fill-rule:nonzero;fill:rgb(0%,0%,0%);fill-opacity:1;" d="M 59.015625 7.398438 C 60.382812 7.398438 61.703125 8.09375 61.703125 9.609375 C 61.703125 11.375 60.335938 12.621094 59.164062 13.316406 C 58.292969 13.839844 57.300781 14.164062 56.28125 14.164062 C 54.910156 14.164062 53.59375 13.464844 53.59375 11.949219 C 53.59375 10.183594 54.960938 8.9375 56.128906 8.242188 C 57 7.71875 57.996094 7.398438 59.015625 7.398438 Z M 59.015625 7.398438 "/>
<path style=" stroke:none;fill-rule:nonzero;fill:rgb(0%,0%,0%);fill-opacity:1;" d="M 59.015625 13.617188 C 60.382812 13.617188 61.703125 14.3125 61.703125 15.828125 C 61.703125 17.59375 60.335938 18.839844 59.164062 19.535156 C 58.292969 20.058594 57.300781 20.378906 56.28125 20.378906 C 54.910156 20.378906 53.59375 19.683594 53.59375 18.167969 C 53.59375 16.402344 54.960938 15.15625 56.128906 14.460938 C 57 13.9375 57.996094 13.617188 59.015625 13.617188 Z M 59.015625 13.617188 "/>
<path style=" stroke:none;fill-rule:nonzero;fill:rgb(0%,0%,0%);fill-opacity:1;" d="M 59.015625 19.832031 C 60.382812 19.832031 61.703125 20.53125 61.703125 22.046875 C 61.703125 23.8125 60.335938 25.058594 59.164062 25.753906 C 58.292969 26.277344 57.300781 26.597656 56.28125 26.597656 C 54.910156 26.597656 53.59375 25.902344 53.59375 24.386719 C 53.59375 22.621094 54.960938 21.375 56.128906 20.679688 C 57 20.15625 57.996094 19.832031 59.015625 19.832031 Z M 59.015625 19.832031 "/>
</g>
</svg>
