<?xml version="1.0" encoding="UTF-8"?>
<svg xmlns="http://www.w3.org/2000/svg" xmlns:xlink="http://www.w3.org/1999/xlink" width="83.542529pt" height="63.134188pt" viewBox="0 0 83.542529 63.134188" version="1.1">
<g id="surface1">
<path style="fill:none;stroke-width:0.1;stroke-linecap:round;stroke-linejoin:round;stroke:rgb(0%,0%,0%);stroke-opacity:1;stroke-miterlimit:4;" d="M 0.049863 0.000136391 L 11.021401 0.000136391 " transform="matrix(6.218149,0,0,6.218149,4.561038,35.667121)"/>
<path style="fill:none;stroke-width:0.1;stroke-linecap:round;stroke-linejoin:round;stroke:rgb(0%,0%,0%);stroke-opacity:1;stroke-miterlimit:4;" d="M 0.049863 0.0000397429 L 11.021401 0.0000397429 " transform="matrix(6.218149,0,0,6.218149,4.561038,29.448972)"/>
<path style="fill:none;stroke-width:0.1;stroke-linecap:round;stroke-linejoin:round;stroke:rgb(0%,0%,0%);stroke-opacity:1;stroke-miterlimit:4;" d="M 0.049863 -0.0000569057 L 11.021401 -0.0000569057 " transform="matrix(6.218149,0,0,6.218149,4.561038,23.230823)"/>
<path style="fill:none;stroke-width:0.1;stroke-linecap:round;stroke-linejoin:round;stroke:rgb(0%,0%,0%);stroke-opacity:1;stroke-miterlimit:4;" d="M 0.049863 -0.000153554 L 11.021401 -0.000153554 " transform="matrix(6.218149,0,0,6.218149,4.561038,17.012674)"/>
<path style="fill:none;stroke-width:0.1;stroke-linecap:round;stroke-linejoin:round;stroke:rgb(0%,0%,0%);stroke-opacity:1;stroke-miterlimit:4;" d="M 0.049863 -0.000250203 L 11.021401 -0.000250203 " transform="matrix(6.218149,0,0,6.218149,4.561038,10.794525)"/>
<path style=" stroke:none;fill-rule:nonzero;fill:rgb(0%,0%,0%);fill-opacity:1;" d="M 54.269531 41.261719 L 64.25 41.261719 C 64.59375 41.261719 64.871094 41.542969 64.871094 41.886719 C 64.871094 42.230469 64.59375 42.507812 64.25 42.507812 L 54.269531 42.507812 C 53.925781 42.507812 53.648438 42.230469 53.648438 41.886719 C 53.648438 41.542969 53.925781 41.261719 54.269531 41.261719 Z M 54.269531 41.261719 "/>
<path style=" stroke:none;fill-rule:nonzero;fill:rgb(0%,0%,0%);fill-opacity:1;" d="M 62.285156 4.578125 L 62.597656 4.578125 C 62.734375 4.578125 62.84375 4.6875 62.84375 4.824219 L 62.84375 43.589844 C 62.84375 43.726562 62.734375 43.835938 62.597656 43.835938 L 62.285156 43.835938 C 62.148438 43.835938 62.039062 43.726562 62.039062 43.589844 L 62.039062 4.824219 C 62.039062 4.6875 62.148438 4.578125 62.285156 4.578125 Z M 62.285156 4.578125 "/>
<path style=" stroke:none;fill-rule:nonzero;fill:rgb(0%,0%,0%);fill-opacity:1;" d="M 49.824219 26.339844 C 50.398438 26.910156 51.21875 27.035156 52.039062 27.035156 C 52.1875 27.035156 52.289062 27.136719 52.289062 27.285156 L 52.511719 29.449219 C 52.535156 29.597656 52.414062 29.722656 52.261719 29.699219 L 50.097656 29.472656 C 49.976562 29.449219 49.851562 29.347656 49.851562 29.226562 C 49.851562 28.40625 49.726562 27.582031 49.152344 27.011719 C 48.582031 27.582031 48.480469 28.40625 48.480469 29.226562 C 48.480469 29.347656 48.359375 29.449219 48.234375 29.472656 L 46.042969 29.699219 C 45.894531 29.722656 45.769531 29.597656 45.796875 29.449219 L 46.019531 27.285156 C 46.019531 27.136719 46.121094 27.035156 46.269531 27.035156 C 47.089844 27.035156 47.910156 26.910156 48.480469 26.339844 C 47.910156 25.769531 47.089844 25.644531 46.269531 25.644531 C 46.121094 25.644531 46.019531 25.542969 46.019531 25.394531 L 45.796875 23.230469 C 45.769531 23.082031 45.894531 22.957031 46.042969 22.980469 L 48.234375 23.207031 C 48.359375 23.230469 48.457031 23.332031 48.457031 23.453125 C 48.457031 24.277344 48.582031 25.097656 49.152344 25.667969 C 49.726562 25.097656 49.851562 24.277344 49.851562 23.453125 C 49.851562 23.332031 49.976562 23.230469 50.097656 23.207031 L 52.261719 22.980469 C 52.414062 22.957031 52.535156 23.082031 52.511719 23.230469 L 52.289062 25.394531 C 52.289062 25.542969 52.1875 25.644531 52.039062 25.644531 C 51.21875 25.644531 50.398438 25.769531 49.824219 26.339844 Z M 49.824219 26.339844 "/>
<path style=" stroke:none;fill-rule:nonzero;fill:rgb(0%,0%,0%);fill-opacity:1;" d="M 43.082031 40.316406 C 43.082031 40.566406 42.882812 40.789062 42.636719 40.789062 C 42.386719 40.789062 42.164062 40.566406 42.164062 40.316406 L 42.164062 36.710938 L 40.097656 37.484375 L 40.097656 41.414062 C 40.097656 41.660156 39.875 41.886719 39.625 41.886719 C 39.378906 41.886719 39.179688 41.660156 39.179688 41.414062 L 39.179688 37.804688 L 38.382812 38.105469 C 38.332031 38.128906 38.257812 38.128906 38.207031 38.128906 C 37.933594 38.128906 37.710938 37.90625 37.710938 37.632812 L 37.710938 36.140625 C 37.710938 35.941406 37.835938 35.742188 38.035156 35.667969 L 39.179688 35.269531 L 39.179688 31.289062 L 38.382812 31.5625 C 38.332031 31.589844 38.257812 31.589844 38.207031 31.589844 C 37.933594 31.589844 37.710938 31.363281 37.710938 31.089844 L 37.710938 29.597656 C 37.710938 29.398438 37.835938 29.226562 38.035156 29.152344 L 39.179688 28.726562 L 39.179688 24.796875 C 39.179688 24.550781 39.378906 24.324219 39.625 24.324219 C 39.875 24.324219 40.097656 24.550781 40.097656 24.796875 L 40.097656 28.40625 L 42.164062 27.632812 L 42.164062 23.703125 C 42.164062 23.453125 42.386719 23.230469 42.636719 23.230469 C 42.882812 23.230469 43.082031 23.453125 43.082031 23.703125 L 43.082031 27.308594 L 43.878906 27.011719 C 43.929688 26.988281 44.003906 26.988281 44.054688 26.988281 C 44.328125 26.988281 44.550781 27.210938 44.550781 27.484375 L 44.550781 28.976562 C 44.550781 29.175781 44.425781 29.375 44.226562 29.449219 L 43.082031 29.847656 L 43.082031 33.828125 L 43.878906 33.554688 C 43.929688 33.527344 44.003906 33.527344 44.054688 33.527344 C 44.328125 33.527344 44.550781 33.75 44.550781 34.027344 L 44.550781 35.519531 C 44.550781 35.71875 44.425781 35.890625 44.226562 35.964844 L 43.082031 36.386719 Z M 40.097656 30.941406 L 40.097656 34.921875 L 42.164062 34.175781 L 42.164062 30.195312 Z M 40.097656 30.941406 "/>
<path style=" stroke:none;fill-rule:nonzero;fill:rgb(0%,0%,0%);fill-opacity:1;" d="M 33.734375 38.777344 C 34.304688 39.347656 35.125 39.472656 35.945312 39.472656 C 36.097656 39.472656 36.195312 39.570312 36.195312 39.722656 L 36.417969 41.886719 C 36.445312 42.035156 36.320312 42.160156 36.171875 42.132812 L 34.007812 41.910156 C 33.882812 41.886719 33.757812 41.785156 33.757812 41.660156 C 33.757812 40.839844 33.632812 40.019531 33.0625 39.449219 C 32.488281 40.019531 32.390625 40.839844 32.390625 41.660156 C 32.390625 41.785156 32.265625 41.886719 32.140625 41.910156 L 29.953125 42.132812 C 29.804688 42.160156 29.679688 42.035156 29.703125 41.886719 L 29.925781 39.722656 C 29.925781 39.570312 30.027344 39.472656 30.175781 39.472656 C 30.996094 39.472656 31.816406 39.347656 32.390625 38.777344 C 31.816406 38.203125 30.996094 38.078125 30.175781 38.078125 C 30.027344 38.078125 29.925781 37.980469 29.925781 37.832031 L 29.703125 35.667969 C 29.679688 35.519531 29.804688 35.394531 29.953125 35.417969 L 32.140625 35.640625 C 32.265625 35.667969 32.363281 35.765625 32.363281 35.890625 C 32.363281 36.710938 32.488281 37.53125 33.0625 38.105469 C 33.632812 37.53125 33.757812 36.710938 33.757812 35.890625 C 33.757812 35.765625 33.882812 35.667969 34.007812 35.640625 L 36.171875 35.417969 C 36.320312 35.394531 36.445312 35.519531 36.417969 35.667969 L 36.195312 37.832031 C 36.195312 37.980469 36.097656 38.078125 35.945312 38.078125 C 35.125 38.078125 34.304688 38.203125 33.734375 38.777344 Z M 33.734375 38.777344 "/>
<path style=" stroke:none;fill-rule:nonzero;fill:rgb(0%,0%,0%);fill-opacity:1;" d="M 51.09375 52.753906 C 51.09375 53.003906 50.894531 53.226562 50.644531 53.226562 C 50.394531 53.226562 50.171875 53.003906 50.171875 52.753906 L 50.171875 49.148438 L 48.105469 49.917969 L 48.105469 53.847656 C 48.105469 54.097656 47.882812 54.320312 47.636719 54.320312 C 47.386719 54.320312 47.1875 54.097656 47.1875 53.847656 L 47.1875 50.242188 L 46.390625 50.539062 C 46.339844 50.566406 46.265625 50.566406 46.21875 50.566406 C 45.945312 50.566406 45.71875 50.34375 45.71875 50.066406 L 45.71875 48.574219 C 45.71875 48.378906 45.84375 48.179688 46.042969 48.101562 L 47.1875 47.707031 L 47.1875 43.726562 L 46.390625 44 C 46.339844 44.023438 46.265625 44.023438 46.21875 44.023438 C 45.945312 44.023438 45.71875 43.800781 45.71875 43.527344 L 45.71875 42.035156 C 45.71875 41.835938 45.84375 41.660156 46.042969 41.585938 L 47.1875 41.164062 L 47.1875 37.234375 C 47.1875 36.984375 47.386719 36.761719 47.636719 36.761719 C 47.882812 36.761719 48.105469 36.984375 48.105469 37.234375 L 48.105469 40.839844 L 50.171875 40.070312 L 50.171875 36.140625 C 50.171875 35.890625 50.394531 35.667969 50.644531 35.667969 C 50.894531 35.667969 51.09375 35.890625 51.09375 36.140625 L 51.09375 39.746094 L 51.886719 39.449219 C 51.9375 39.421875 52.011719 39.421875 52.0625 39.421875 C 52.335938 39.421875 52.558594 39.648438 52.558594 39.921875 L 52.558594 41.414062 C 52.558594 41.613281 52.433594 41.8125 52.234375 41.886719 L 51.09375 42.285156 L 51.09375 46.261719 L 51.886719 45.988281 C 51.9375 45.964844 52.011719 45.964844 52.0625 45.964844 C 52.335938 45.964844 52.558594 46.1875 52.558594 46.460938 L 52.558594 47.953125 C 52.558594 48.152344 52.433594 48.328125 52.234375 48.402344 L 51.09375 48.824219 Z M 48.105469 43.378906 L 48.105469 47.355469 L 50.171875 46.609375 L 50.171875 42.632812 Z M 48.105469 43.378906 "/>
<path style=" stroke:none;fill-rule:nonzero;fill:rgb(0%,0%,0%);fill-opacity:1;" d="M 23.390625 20.121094 C 23.390625 19.425781 23.960938 18.851562 24.65625 18.851562 C 25.355469 18.851562 25.925781 19.425781 25.925781 20.121094 C 25.925781 20.816406 25.355469 21.390625 24.65625 21.390625 C 23.960938 21.390625 23.390625 20.816406 23.390625 20.121094 Z M 23.390625 13.902344 C 23.390625 13.207031 23.960938 12.636719 24.65625 12.636719 C 25.355469 12.636719 25.925781 13.207031 25.925781 13.902344 C 25.925781 14.601562 25.355469 15.171875 24.65625 15.171875 C 23.960938 15.171875 23.390625 14.601562 23.390625 13.902344 Z M 15.304688 10.472656 C 19.585938 10.472656 22.59375 12.660156 22.59375 16.714844 C 22.59375 23.253906 16.050781 27.011719 9.757812 29.671875 C 9.683594 29.746094 9.609375 29.773438 9.535156 29.773438 C 9.363281 29.773438 9.210938 29.625 9.210938 29.449219 C 9.210938 29.375 9.238281 29.300781 9.3125 29.226562 C 14.335938 26.289062 19.558594 22.632812 19.558594 16.964844 C 19.558594 13.976562 17.992188 11.117188 15.304688 11.117188 C 13.464844 11.117188 12.097656 12.460938 11.476562 14.25 C 11.75 14.128906 12.023438 14.054688 12.320312 14.054688 C 13.6875 14.054688 14.808594 15.171875 14.808594 16.539062 C 14.808594 17.984375 13.714844 19.175781 12.320312 19.175781 C 10.828125 19.175781 9.535156 18.007812 9.535156 16.539062 C 9.535156 13.230469 12.074219 10.472656 15.304688 10.472656 Z M 15.304688 10.472656 "/>
<path style=" stroke:none;fill-rule:nonzero;fill:rgb(0%,0%,0%);fill-opacity:1;" d="M 60.15625 22.957031 C 61.527344 22.957031 62.84375 23.652344 62.84375 25.171875 C 62.84375 26.9375 61.476562 28.179688 60.308594 28.875 C 59.4375 29.398438 58.441406 29.722656 57.421875 29.722656 C 56.054688 29.722656 54.734375 29.027344 54.734375 27.507812 C 54.734375 25.742188 56.105469 24.5 57.273438 23.804688 C 58.144531 23.28125 59.136719 22.957031 60.15625 22.957031 Z M 60.15625 22.957031 "/>
<path style=" stroke:none;fill-rule:nonzero;fill:rgb(0%,0%,0%);fill-opacity:1;" d="M 60.15625 29.175781 C 61.527344 29.175781 62.84375 29.871094 62.84375 31.390625 C 62.84375 33.15625 61.476562 34.398438 60.308594 35.09375 C 59.4375 35.617188 58.441406 35.941406 57.421875 35.941406 C 56.054688 35.941406 54.734375 35.246094 54.734375 33.726562 C 54.734375 31.960938 56.105469 30.71875 57.273438 30.019531 C 58.144531 29.5 59.136719 29.175781 60.15625 29.175781 Z M 60.15625 29.175781 "/>
<path style=" stroke:none;fill-rule:nonzero;fill:rgb(0%,0%,0%);fill-opacity:1;" d="M 60.15625 35.394531 C 61.527344 35.394531 62.84375 36.089844 62.84375 37.605469 C 62.84375 39.375 61.476562 40.617188 60.308594 41.3125 C 59.4375 41.835938 58.441406 42.160156 57.421875 42.160156 C 56.054688 42.160156 54.734375 41.460938 54.734375 39.945312 C 54.734375 38.179688 56.105469 36.9375 57.273438 36.238281 C 58.144531 35.71875 59.136719 35.394531 60.15625 35.394531 Z M 60.15625 35.394531 "/>
<path style=" stroke:none;fill-rule:nonzero;fill:rgb(0%,0%,0%);fill-opacity:1;" d="M 60.15625 41.613281 C 61.527344 41.613281 62.84375 42.308594 62.84375 43.824219 C 62.84375 45.589844 61.476562 46.835938 60.308594 47.53125 C 59.4375 48.054688 58.441406 48.378906 57.421875 48.378906 C 56.054688 48.378906 54.734375 47.679688 54.734375 46.164062 C 54.734375 44.398438 56.105469 43.152344 57.273438 42.457031 C 58.144531 41.933594 59.136719 41.613281 60.15625 41.613281 Z M 60.15625 41.613281 "/>
</g>
</svg>
