<?xml version="1.0" encoding="UTF-8"?>
<svg xmlns="http://www.w3.org/2000/svg" xmlns:xlink="http://www.w3.org/1999/xlink" width="68.472344pt" height="53.463766pt" viewBox="0 0 68.472344 53.463766" version="1.1">
<g id="surface1">
<path style="fill:none;stroke-width:0.1;stroke-linecap:round;stroke-linejoin:round;stroke:rgb(0%,0%,0%);stroke-opacity:1;stroke-miterlimit:4;" d="M 0.049863 0.00017851 L 8.752337 0.00017851 " transform="matrix(6.218149,0,0,6.218149,4.561038,32.702015)"/>
<path style="fill:none;stroke-width:0.1;stroke-linecap:round;stroke-linejoin:round;stroke:rgb(0%,0%,0%);stroke-opacity:1;stroke-miterlimit:4;" d="M 0.049863 0.000081861 L 8.752337 0.000081861 " transform="matrix(6.218149,0,0,6.218149,4.561038,26.483866)"/>
<path style="fill:none;stroke-width:0.1;stroke-linecap:round;stroke-linejoin:round;stroke:rgb(0%,0%,0%);stroke-opacity:1;stroke-miterlimit:4;" d="M 0.049863 -0.0000147876 L 8.752337 -0.0000147876 " transform="matrix(6.218149,0,0,6.218149,4.561038,20.265717)"/>
<path style="fill:none;stroke-width:0.1;stroke-linecap:round;stroke-linejoin:round;stroke:rgb(0%,0%,0%);stroke-opacity:1;stroke-miterlimit:4;" d="M 0.049863 -0.000111436 L 8.752337 -0.000111436 " transform="matrix(6.218149,0,0,6.218149,4.561038,14.047568)"/>
<path style="fill:none;stroke-width:0.1;stroke-linecap:round;stroke-linejoin:round;stroke:rgb(0%,0%,0%);stroke-opacity:1;stroke-miterlimit:4;" d="M 0.049863 -0.000208204 L 8.752337 -0.000208204 " transform="matrix(6.218149,0,0,6.218149,4.561038,7.82942)"/>
<path style=" stroke:none;fill-rule:nonzero;fill:rgb(0%,0%,0%);fill-opacity:1;" d="M 34.148438 25.464844 L 34.121094 27.105469 L 34.121094 27.378906 C 34.121094 27.925781 34.148438 28.472656 34.222656 29.019531 C 35.339844 28.074219 36.535156 27.03125 36.535156 25.5625 C 36.535156 24.742188 36.1875 23.898438 35.464844 23.898438 C 34.695312 23.898438 34.171875 24.644531 34.148438 25.464844 Z M 33.101562 29.917969 L 32.804688 15.117188 C 33.003906 14.992188 33.25 14.917969 33.476562 14.917969 C 33.699219 14.917969 33.949219 14.992188 34.148438 15.117188 L 33.972656 23.699219 C 34.59375 23.175781 35.414062 22.851562 36.234375 22.851562 C 37.53125 22.851562 38.449219 24.046875 38.449219 25.390625 C 38.449219 27.378906 36.3125 28.300781 34.792969 29.59375 C 34.421875 29.917969 34.195312 30.539062 33.675781 30.539062 C 33.351562 30.539062 33.101562 30.265625 33.101562 29.917969 Z M 33.101562 29.917969 "/>
<path style=" stroke:none;fill-rule:nonzero;fill:rgb(0%,0%,0%);fill-opacity:1;" d="M 40.875 8.988281 L 41.1875 8.988281 C 41.324219 8.988281 41.433594 9.097656 41.433594 9.234375 L 41.433594 44.890625 C 41.433594 45.027344 41.324219 45.136719 41.1875 45.136719 L 40.875 45.136719 C 40.738281 45.136719 40.625 45.027344 40.625 44.890625 L 40.625 9.234375 C 40.625 9.097656 40.738281 8.988281 40.875 8.988281 Z M 40.875 8.988281 "/>
<path style=" stroke:none;fill-rule:nonzero;fill:rgb(0%,0%,0%);fill-opacity:1;" d="M 23.390625 17.15625 C 23.390625 16.460938 23.960938 15.886719 24.65625 15.886719 C 25.355469 15.886719 25.925781 16.460938 25.925781 17.15625 C 25.925781 17.851562 25.355469 18.425781 24.65625 18.425781 C 23.960938 18.425781 23.390625 17.851562 23.390625 17.15625 Z M 23.390625 10.9375 C 23.390625 10.242188 23.960938 9.671875 24.65625 9.671875 C 25.355469 9.671875 25.925781 10.242188 25.925781 10.9375 C 25.925781 11.636719 25.355469 12.207031 24.65625 12.207031 C 23.960938 12.207031 23.390625 11.636719 23.390625 10.9375 Z M 15.304688 7.507812 C 19.585938 7.507812 22.59375 9.695312 22.59375 13.75 C 22.59375 20.289062 16.050781 24.046875 9.757812 26.707031 C 9.683594 26.78125 9.609375 26.808594 9.535156 26.808594 C 9.363281 26.808594 9.210938 26.65625 9.210938 26.484375 C 9.210938 26.410156 9.238281 26.335938 9.3125 26.261719 C 14.335938 23.324219 19.558594 19.667969 19.558594 13.996094 C 19.558594 11.011719 17.992188 8.152344 15.304688 8.152344 C 13.464844 8.152344 12.097656 9.496094 11.476562 11.285156 C 11.75 11.164062 12.023438 11.085938 12.320312 11.085938 C 13.6875 11.085938 14.808594 12.207031 14.808594 13.574219 C 14.808594 15.019531 13.714844 16.210938 12.320312 16.210938 C 10.828125 16.210938 9.535156 15.042969 9.535156 13.574219 C 9.535156 10.265625 12.074219 7.507812 15.304688 7.507812 Z M 15.304688 7.507812 "/>
<path style=" stroke:none;fill-rule:nonzero;fill:rgb(0%,0%,0%);fill-opacity:1;" d="M 46.046875 4.445312 C 47.417969 4.445312 48.734375 5.144531 48.734375 6.660156 C 48.734375 8.425781 47.367188 9.671875 46.199219 10.367188 C 45.328125 10.890625 44.332031 11.210938 43.3125 11.210938 C 41.945312 11.210938 40.625 10.515625 40.625 9 C 40.625 7.234375 41.996094 5.988281 43.164062 5.292969 C 44.035156 4.769531 45.027344 4.445312 46.046875 4.445312 Z M 46.046875 4.445312 "/>
<path style=" stroke:none;fill-rule:nonzero;fill:rgb(0%,0%,0%);fill-opacity:1;" d="M 46.046875 10.664062 C 47.417969 10.664062 48.734375 11.359375 48.734375 12.878906 C 48.734375 14.644531 47.367188 15.886719 46.199219 16.585938 C 45.328125 17.105469 44.332031 17.429688 43.3125 17.429688 C 41.945312 17.429688 40.625 16.734375 40.625 15.214844 C 40.625 13.449219 41.996094 12.207031 43.164062 11.511719 C 44.035156 10.988281 45.027344 10.664062 46.046875 10.664062 Z M 46.046875 10.664062 "/>
<path style=" stroke:none;fill-rule:nonzero;fill:rgb(0%,0%,0%);fill-opacity:1;" d="M 46.046875 16.882812 C 47.417969 16.882812 48.734375 17.578125 48.734375 19.097656 C 48.734375 20.863281 47.367188 22.105469 46.199219 22.800781 C 45.328125 23.324219 44.332031 23.648438 43.3125 23.648438 C 41.945312 23.648438 40.625 22.953125 40.625 21.433594 C 40.625 19.667969 41.996094 18.425781 43.164062 17.730469 C 44.035156 17.207031 45.027344 16.882812 46.046875 16.882812 Z M 46.046875 16.882812 "/>
<path style=" stroke:none;fill-rule:nonzero;fill:rgb(0%,0%,0%);fill-opacity:1;" d="M 46.046875 23.101562 C 47.417969 23.101562 48.734375 23.796875 48.734375 25.316406 C 48.734375 27.082031 47.367188 28.324219 46.199219 29.019531 C 45.328125 29.542969 44.332031 29.867188 43.3125 29.867188 C 41.945312 29.867188 40.625 29.171875 40.625 27.652344 C 40.625 25.886719 41.996094 24.644531 43.164062 23.945312 C 44.035156 23.425781 45.027344 23.101562 46.046875 23.101562 Z M 46.046875 23.101562 "/>
</g>
</svg>
