<?xml version="1.0" encoding="UTF-8"?>
<svg xmlns="http://www.w3.org/2000/svg" xmlns:xlink="http://www.w3.org/1999/xlink" width="68.472344pt" height="65.996793pt" viewBox="0 0 68.472344 65.996793" version="1.1">
<g id="surface1">
<path style="fill:none;stroke-width:0.1;stroke-linecap:round;stroke-linejoin:round;stroke:rgb(0%,0%,0%);stroke-opacity:1;stroke-miterlimit:4;" d="M 0.049863 -0.000287501 L 8.752337 -0.000287501 " transform="matrix(6.218149,0,0,6.218149,4.561038,40.517413)"/>
<path style="fill:none;stroke-width:0.1;stroke-linecap:round;stroke-linejoin:round;stroke:rgb(0%,0%,0%);stroke-opacity:1;stroke-miterlimit:4;" d="M 0.049863 0.000244052 L 8.752337 0.000244052 " transform="matrix(6.218149,0,0,6.218149,4.561038,34.299264)"/>
<path style="fill:none;stroke-width:0.1;stroke-linecap:round;stroke-linejoin:round;stroke:rgb(0%,0%,0%);stroke-opacity:1;stroke-miterlimit:4;" d="M 0.049863 0.000147403 L 8.752337 0.000147403 " transform="matrix(6.218149,0,0,6.218149,4.561038,28.081115)"/>
<path style="fill:none;stroke-width:0.1;stroke-linecap:round;stroke-linejoin:round;stroke:rgb(0%,0%,0%);stroke-opacity:1;stroke-miterlimit:4;" d="M 0.049863 0.0000507548 L 8.752337 0.0000507548 " transform="matrix(6.218149,0,0,6.218149,4.561038,21.862966)"/>
<path style="fill:none;stroke-width:0.1;stroke-linecap:round;stroke-linejoin:round;stroke:rgb(0%,0%,0%);stroke-opacity:1;stroke-miterlimit:4;" d="M 0.049863 -0.0000458938 L 8.752337 -0.0000458938 " transform="matrix(6.218149,0,0,6.218149,4.561038,15.644817)"/>
<path style=" stroke:none;fill-rule:nonzero;fill:rgb(0%,0%,0%);fill-opacity:1;" d="M 39.21875 46.113281 L 50.140625 46.113281 C 50.484375 46.113281 50.761719 46.390625 50.761719 46.734375 C 50.761719 47.078125 50.484375 47.355469 50.140625 47.355469 L 39.21875 47.355469 C 38.878906 47.355469 38.597656 47.078125 38.597656 46.734375 C 38.597656 46.390625 38.878906 46.113281 39.21875 46.113281 Z M 39.21875 46.113281 "/>
<path style=" stroke:none;fill-rule:nonzero;fill:rgb(0%,0%,0%);fill-opacity:1;" d="M 39.21875 52.332031 L 50.140625 52.332031 C 50.484375 52.332031 50.761719 52.609375 50.761719 52.953125 C 50.761719 53.296875 50.484375 53.574219 50.140625 53.574219 L 39.21875 53.574219 C 38.878906 53.574219 38.597656 53.296875 38.597656 52.953125 C 38.597656 52.609375 38.878906 52.332031 39.21875 52.332031 Z M 39.21875 52.332031 "/>
<path style=" stroke:none;fill-rule:nonzero;fill:rgb(0%,0%,0%);fill-opacity:1;" d="M 34.148438 39.496094 L 34.121094 41.140625 L 34.121094 41.414062 C 34.121094 41.960938 34.148438 42.507812 34.222656 43.054688 C 35.339844 42.109375 36.535156 41.066406 36.535156 39.597656 C 36.535156 38.777344 36.1875 37.929688 35.464844 37.929688 C 34.695312 37.929688 34.171875 38.675781 34.148438 39.496094 Z M 33.101562 43.949219 L 32.804688 29.152344 C 33.003906 29.027344 33.25 28.953125 33.476562 28.953125 C 33.699219 28.953125 33.949219 29.027344 34.148438 29.152344 L 33.972656 37.730469 C 34.59375 37.210938 35.414062 36.886719 36.234375 36.886719 C 37.53125 36.886719 38.449219 38.078125 38.449219 39.421875 C 38.449219 41.414062 36.3125 42.332031 34.792969 43.625 C 34.421875 43.949219 34.195312 44.570312 33.675781 44.570312 C 33.351562 44.570312 33.101562 44.296875 33.101562 43.949219 Z M 33.101562 43.949219 "/>
<path style=" stroke:none;fill-rule:nonzero;fill:rgb(0%,0%,0%);fill-opacity:1;" d="M 30.664062 51.933594 L 30.640625 53.574219 L 30.640625 53.847656 C 30.640625 54.394531 30.664062 54.945312 30.738281 55.492188 C 31.859375 54.546875 33.050781 53.5 33.050781 52.035156 C 33.050781 51.210938 32.703125 50.367188 31.984375 50.367188 C 31.210938 50.367188 30.691406 51.113281 30.664062 51.933594 Z M 29.621094 56.386719 L 29.320312 41.585938 C 29.519531 41.460938 29.769531 41.386719 29.992188 41.386719 C 30.21875 41.386719 30.464844 41.460938 30.664062 41.585938 L 30.492188 50.167969 C 31.113281 49.644531 31.933594 49.324219 32.753906 49.324219 C 34.046875 49.324219 34.96875 50.515625 34.96875 51.859375 C 34.96875 53.847656 32.828125 54.769531 31.3125 56.0625 C 30.9375 56.386719 30.714844 57.007812 30.191406 57.007812 C 29.867188 57.007812 29.621094 56.734375 29.621094 56.386719 Z M 29.621094 56.386719 "/>
<path style=" stroke:none;fill-rule:nonzero;fill:rgb(0%,0%,0%);fill-opacity:1;" d="M 48.175781 12.535156 L 48.488281 12.535156 C 48.625 12.535156 48.734375 12.648438 48.734375 12.785156 L 48.734375 51.546875 C 48.734375 51.683594 48.625 51.796875 48.488281 51.796875 L 48.175781 51.796875 C 48.039062 51.796875 47.925781 51.683594 47.925781 51.546875 L 47.925781 12.785156 C 47.925781 12.648438 48.039062 12.535156 48.175781 12.535156 Z M 48.175781 12.535156 "/>
<path style=" stroke:none;fill-rule:nonzero;fill:rgb(0%,0%,0%);fill-opacity:1;" d="M 16.152344 50.09375 L 16.003906 50.09375 C 13.316406 50.09375 11.152344 47.90625 11.152344 45.195312 C 11.152344 43.75 12.46875 42.632812 13.9375 42.632812 C 15.28125 42.632812 16.300781 43.800781 16.300781 45.195312 C 16.300781 46.488281 15.230469 47.554688 13.9375 47.554688 C 13.664062 47.554688 13.414062 47.507812 13.167969 47.40625 C 13.8125 48.378906 14.859375 49.023438 16.078125 49.023438 L 16.175781 49.023438 Z M 21 39.347656 C 22.691406 38.75 23.8125 36.984375 23.8125 35.269531 C 23.8125 33.03125 22.171875 30.816406 19.507812 30.542969 C 20.105469 33.429688 20.652344 36.289062 21 39.347656 Z M 11.375 33.601562 C 11.375 36.960938 14.585938 39.746094 17.941406 39.746094 C 18.640625 39.746094 19.308594 39.695312 19.980469 39.597656 C 19.632812 36.4375 19.0625 33.503906 18.414062 30.542969 C 16.449219 30.742188 15.332031 32.0625 15.332031 33.503906 C 15.332031 34.597656 15.953125 35.765625 17.34375 36.5625 C 17.46875 36.6875 17.519531 36.8125 17.519531 36.9375 C 17.519531 37.210938 17.269531 37.484375 16.972656 37.484375 C 16.898438 37.484375 16.824219 37.457031 16.75 37.433594 C 14.757812 36.363281 13.839844 34.574219 13.839844 32.832031 C 13.839844 30.644531 15.28125 28.503906 17.816406 27.933594 C 17.46875 26.488281 17.097656 25.023438 16.675781 23.578125 C 14.011719 26.589844 11.375 29.625 11.375 33.601562 Z M 17.867188 40.816406 C 13.191406 40.816406 9.585938 36.539062 9.585938 31.511719 C 9.585938 27.109375 12.84375 23.902344 15.753906 20.542969 C 15.28125 19.003906 14.832031 17.4375 14.632812 15.820312 C 14.484375 14.527344 14.460938 13.230469 14.460938 11.9375 C 14.460938 9.078125 15.828125 6.367188 18.167969 4.675781 C 18.316406 4.550781 18.515625 4.550781 18.664062 4.675781 C 20.429688 6.765625 21.972656 10.769531 21.972656 13.582031 C 21.972656 17.136719 19.832031 19.921875 17.496094 22.632812 C 18.015625 24.324219 18.464844 26.066406 18.886719 27.78125 C 18.988281 27.78125 19.113281 27.757812 19.210938 27.757812 C 23.066406 27.757812 25.578125 30.941406 25.578125 34.25 C 25.578125 36.140625 24.757812 38.078125 22.917969 39.472656 C 22.371094 39.894531 21.746094 40.167969 21.101562 40.367188 C 21.175781 41.238281 21.226562 42.109375 21.226562 42.980469 C 21.226562 43.453125 21.199219 43.949219 21.175781 44.421875 C 21 47.382812 18.988281 50.019531 16.152344 50.09375 L 16.175781 49.023438 C 18.488281 48.972656 19.980469 46.734375 20.132812 44.273438 C 20.15625 43.824219 20.179688 43.351562 20.179688 42.90625 C 20.179688 42.132812 20.15625 41.386719 20.082031 40.617188 C 19.359375 40.742188 18.640625 40.816406 17.867188 40.816406 Z M 20.179688 11.515625 C 20.179688 10.148438 20.082031 9.550781 19.683594 8.308594 C 17.222656 9.5 15.652344 12.011719 15.652344 14.75 C 15.652344 16.589844 16.101562 18.058594 16.550781 19.574219 C 18.539062 17.160156 20.179688 14.648438 20.179688 11.515625 Z M 20.179688 11.515625 "/>
<path style=" stroke:none;fill-rule:nonzero;fill:rgb(0%,0%,0%);fill-opacity:1;" d="M 46.046875 30.917969 C 47.417969 30.917969 48.734375 31.613281 48.734375 33.128906 C 48.734375 34.894531 47.367188 36.140625 46.199219 36.835938 C 45.328125 37.359375 44.332031 37.683594 43.3125 37.683594 C 41.945312 37.683594 40.625 36.984375 40.625 35.46875 C 40.625 33.703125 41.996094 32.457031 43.164062 31.761719 C 44.035156 31.238281 45.027344 30.917969 46.046875 30.917969 Z M 46.046875 30.917969 "/>
<path style=" stroke:none;fill-rule:nonzero;fill:rgb(0%,0%,0%);fill-opacity:1;" d="M 46.046875 37.132812 C 47.417969 37.132812 48.734375 37.832031 48.734375 39.347656 C 48.734375 41.113281 47.367188 42.359375 46.199219 43.054688 C 45.328125 43.578125 44.332031 43.898438 43.3125 43.898438 C 41.945312 43.898438 40.625 43.203125 40.625 41.6875 C 40.625 39.921875 41.996094 38.675781 43.164062 37.980469 C 44.035156 37.457031 45.027344 37.132812 46.046875 37.132812 Z M 46.046875 37.132812 "/>
<path style=" stroke:none;fill-rule:nonzero;fill:rgb(0%,0%,0%);fill-opacity:1;" d="M 46.046875 43.351562 C 47.417969 43.351562 48.734375 44.050781 48.734375 45.566406 C 48.734375 47.332031 47.367188 48.574219 46.199219 49.273438 C 45.328125 49.792969 44.332031 50.117188 43.3125 50.117188 C 41.945312 50.117188 40.625 49.421875 40.625 47.90625 C 40.625 46.136719 41.996094 44.894531 43.164062 44.199219 C 44.035156 43.675781 45.027344 43.351562 46.046875 43.351562 Z M 46.046875 43.351562 "/>
<path style=" stroke:none;fill-rule:nonzero;fill:rgb(0%,0%,0%);fill-opacity:1;" d="M 46.046875 49.570312 C 47.417969 49.570312 48.734375 50.265625 48.734375 51.785156 C 48.734375 53.550781 47.367188 54.792969 46.199219 55.492188 C 45.328125 56.011719 44.332031 56.335938 43.3125 56.335938 C 41.945312 56.335938 40.625 55.640625 40.625 54.121094 C 40.625 52.355469 41.996094 51.113281 43.164062 50.417969 C 44.035156 49.894531 45.027344 49.570312 46.046875 49.570312 Z M 46.046875 49.570312 "/>
</g>
</svg>
