<?xml version="1.0" encoding="UTF-8"?>
<svg xmlns="http://www.w3.org/2000/svg" xmlns:xlink="http://www.w3.org/1999/xlink" width="81.616415pt" height="86.646067pt" viewBox="0 0 81.616415 86.646067" version="1.1">
<g id="surface1">
<path style="fill:none;stroke-width:0.1;stroke-linecap:round;stroke-linejoin:round;stroke:rgb(0%,0%,0%);stroke-opacity:1;stroke-miterlimit:4;" d="M 0.049863 -0.00000856688 L 10.731172 -0.00000856688 " transform="matrix(6.218149,0,0,6.218149,4.561038,66.757866)"/>
<path style="fill:none;stroke-width:0.1;stroke-linecap:round;stroke-linejoin:round;stroke:rgb(0%,0%,0%);stroke-opacity:1;stroke-miterlimit:4;" d="M 0.049863 -0.000105215 L 10.731172 -0.000105215 " transform="matrix(6.218149,0,0,6.218149,4.561038,60.539717)"/>
<path style="fill:none;stroke-width:0.1;stroke-linecap:round;stroke-linejoin:round;stroke:rgb(0%,0%,0%);stroke-opacity:1;stroke-miterlimit:4;" d="M 0.049863 -0.000201864 L 10.731172 -0.000201864 " transform="matrix(6.218149,0,0,6.218149,4.561038,54.321568)"/>
<path style="fill:none;stroke-width:0.1;stroke-linecap:round;stroke-linejoin:round;stroke:rgb(0%,0%,0%);stroke-opacity:1;stroke-miterlimit:4;" d="M 0.049863 -0.000298513 L 10.731172 -0.000298513 " transform="matrix(6.218149,0,0,6.218149,4.561038,48.103419)"/>
<path style="fill:none;stroke-width:0.1;stroke-linecap:round;stroke-linejoin:round;stroke:rgb(0%,0%,0%);stroke-opacity:1;stroke-miterlimit:4;" d="M 0.049863 0.00023304 L 10.731172 0.00023304 " transform="matrix(6.218149,0,0,6.218149,4.561038,41.88527)"/>
<path style=" stroke:none;fill-rule:nonzero;fill:rgb(0%,0%,0%);fill-opacity:1;" d="M 52.464844 16.390625 L 62.449219 16.390625 C 62.792969 16.390625 63.070312 16.667969 63.070312 17.011719 C 63.070312 17.355469 62.792969 17.632812 62.449219 17.632812 L 52.464844 17.632812 C 52.121094 17.632812 51.84375 17.355469 51.84375 17.011719 C 51.84375 16.667969 52.121094 16.390625 52.464844 16.390625 Z M 52.464844 16.390625 "/>
<path style=" stroke:none;fill-rule:nonzero;fill:rgb(0%,0%,0%);fill-opacity:1;" d="M 51.527344 22.609375 L 62.449219 22.609375 C 62.792969 22.609375 63.070312 22.886719 63.070312 23.230469 C 63.070312 23.574219 62.792969 23.851562 62.449219 23.851562 L 51.527344 23.851562 C 51.183594 23.851562 50.90625 23.574219 50.90625 23.230469 C 50.90625 22.886719 51.183594 22.609375 51.527344 22.609375 Z M 51.527344 22.609375 "/>
<path style=" stroke:none;fill-rule:nonzero;fill:rgb(0%,0%,0%);fill-opacity:1;" d="M 51.527344 28.828125 L 62.449219 28.828125 C 62.792969 28.828125 63.070312 29.105469 63.070312 29.449219 C 63.070312 29.792969 62.792969 30.070312 62.449219 30.070312 L 51.527344 30.070312 C 51.183594 30.070312 50.90625 29.792969 50.90625 29.449219 C 50.90625 29.105469 51.183594 28.828125 51.527344 28.828125 Z M 51.527344 28.828125 "/>
<path style=" stroke:none;fill-rule:nonzero;fill:rgb(0%,0%,0%);fill-opacity:1;" d="M 51.527344 35.046875 L 62.449219 35.046875 C 62.792969 35.046875 63.070312 35.324219 63.070312 35.667969 C 63.070312 36.011719 62.792969 36.289062 62.449219 36.289062 L 51.527344 36.289062 C 51.183594 36.289062 50.90625 36.011719 50.90625 35.667969 C 50.90625 35.324219 51.183594 35.046875 51.527344 35.046875 Z M 51.527344 35.046875 "/>
<path style=" stroke:none;fill-rule:nonzero;fill:rgb(0%,0%,0%);fill-opacity:1;" d="M 53.179688 15.0625 L 53.492188 15.0625 C 53.628906 15.0625 53.742188 15.171875 53.742188 15.308594 L 53.742188 54.074219 C 53.742188 54.210938 53.628906 54.320312 53.492188 54.320312 L 53.179688 54.320312 C 53.042969 54.320312 52.933594 54.210938 52.933594 54.074219 L 52.933594 15.308594 C 52.933594 15.171875 53.042969 15.0625 53.179688 15.0625 Z M 53.179688 15.0625 "/>
<path style=" stroke:none;fill-rule:nonzero;fill:rgb(0%,0%,0%);fill-opacity:1;" d="M 49.289062 21.664062 C 49.289062 21.914062 49.089844 22.136719 48.839844 22.136719 C 48.589844 22.136719 48.367188 21.914062 48.367188 21.664062 L 48.367188 18.058594 L 46.304688 18.828125 L 46.304688 22.757812 C 46.304688 23.007812 46.078125 23.230469 45.832031 23.230469 C 45.582031 23.230469 45.382812 23.007812 45.382812 22.757812 L 45.382812 19.152344 L 44.585938 19.449219 C 44.539062 19.476562 44.464844 19.476562 44.414062 19.476562 C 44.140625 19.476562 43.914062 19.25 43.914062 18.976562 L 43.914062 17.484375 C 43.914062 17.285156 44.039062 17.085938 44.238281 17.011719 L 45.382812 16.613281 L 45.382812 12.636719 L 44.585938 12.910156 C 44.539062 12.933594 44.464844 12.933594 44.414062 12.933594 C 44.140625 12.933594 43.914062 12.710938 43.914062 12.4375 L 43.914062 10.945312 C 43.914062 10.746094 44.039062 10.570312 44.238281 10.496094 L 45.382812 10.074219 L 45.382812 6.144531 C 45.382812 5.894531 45.582031 5.671875 45.832031 5.671875 C 46.078125 5.671875 46.304688 5.894531 46.304688 6.144531 L 46.304688 9.75 L 48.367188 8.980469 L 48.367188 5.050781 C 48.367188 4.800781 48.589844 4.578125 48.839844 4.578125 C 49.089844 4.578125 49.289062 4.800781 49.289062 5.050781 L 49.289062 8.65625 L 50.085938 8.355469 C 50.132812 8.332031 50.207031 8.332031 50.257812 8.332031 C 50.53125 8.332031 50.753906 8.554688 50.753906 8.828125 L 50.753906 10.320312 C 50.753906 10.519531 50.632812 10.71875 50.433594 10.792969 L 49.289062 11.191406 L 49.289062 15.171875 L 50.085938 14.898438 C 50.132812 14.875 50.207031 14.875 50.257812 14.875 C 50.53125 14.875 50.753906 15.097656 50.753906 15.371094 L 50.753906 16.863281 C 50.753906 17.0625 50.632812 17.238281 50.433594 17.3125 L 49.289062 17.734375 Z M 46.304688 12.285156 L 46.304688 16.265625 L 48.367188 15.519531 L 48.367188 11.539062 Z M 46.304688 12.285156 "/>
<path style=" stroke:none;fill-rule:nonzero;fill:rgb(0%,0%,0%);fill-opacity:1;" d="M 34.589844 27.882812 C 34.589844 28.128906 34.390625 28.355469 34.140625 28.355469 C 33.890625 28.355469 33.667969 28.128906 33.667969 27.882812 L 33.667969 24.277344 L 31.605469 25.046875 L 31.605469 28.976562 C 31.605469 29.226562 31.378906 29.449219 31.132812 29.449219 C 30.882812 29.449219 30.683594 29.226562 30.683594 28.976562 L 30.683594 25.371094 L 29.886719 25.667969 C 29.835938 25.691406 29.761719 25.691406 29.714844 25.691406 C 29.441406 25.691406 29.214844 25.46875 29.214844 25.195312 L 29.214844 23.703125 C 29.214844 23.503906 29.339844 23.304688 29.539062 23.230469 L 30.683594 22.832031 L 30.683594 18.851562 L 29.886719 19.125 C 29.835938 19.152344 29.761719 19.152344 29.714844 19.152344 C 29.441406 19.152344 29.214844 18.929688 29.214844 18.652344 L 29.214844 17.160156 C 29.214844 16.964844 29.339844 16.789062 29.539062 16.714844 L 30.683594 16.292969 L 30.683594 12.363281 C 30.683594 12.113281 30.882812 11.890625 31.132812 11.890625 C 31.378906 11.890625 31.605469 12.113281 31.605469 12.363281 L 31.605469 15.96875 L 33.667969 15.195312 L 33.667969 11.265625 C 33.667969 11.019531 33.890625 10.792969 34.140625 10.792969 C 34.390625 10.792969 34.589844 11.019531 34.589844 11.265625 L 34.589844 14.875 L 35.382812 14.574219 C 35.433594 14.550781 35.507812 14.550781 35.558594 14.550781 C 35.832031 14.550781 36.054688 14.773438 36.054688 15.046875 L 36.054688 16.539062 C 36.054688 16.738281 35.929688 16.9375 35.734375 17.011719 L 34.589844 17.410156 L 34.589844 21.390625 L 35.382812 21.117188 C 35.433594 21.089844 35.507812 21.089844 35.558594 21.089844 C 35.832031 21.089844 36.054688 21.316406 36.054688 21.589844 L 36.054688 23.082031 C 36.054688 23.28125 35.929688 23.453125 35.734375 23.527344 L 34.589844 23.953125 Z M 31.605469 18.503906 L 31.605469 22.484375 L 33.667969 21.738281 L 33.667969 17.757812 Z M 31.605469 18.503906 "/>
<path style=" stroke:none;fill-rule:nonzero;fill:rgb(0%,0%,0%);fill-opacity:1;" d="M 42.671875 34.101562 C 42.671875 34.347656 42.472656 34.574219 42.222656 34.574219 C 41.976562 34.574219 41.75 34.347656 41.75 34.101562 L 41.75 30.492188 L 39.6875 31.265625 L 39.6875 35.195312 C 39.6875 35.441406 39.464844 35.667969 39.214844 35.667969 C 38.964844 35.667969 38.765625 35.441406 38.765625 35.195312 L 38.765625 31.589844 L 37.972656 31.886719 C 37.921875 31.910156 37.847656 31.910156 37.796875 31.910156 C 37.523438 31.910156 37.300781 31.6875 37.300781 31.414062 L 37.300781 29.921875 C 37.300781 29.722656 37.425781 29.523438 37.621094 29.449219 L 38.765625 29.050781 L 38.765625 25.070312 L 37.972656 25.34375 C 37.921875 25.371094 37.847656 25.371094 37.796875 25.371094 C 37.523438 25.371094 37.300781 25.144531 37.300781 24.871094 L 37.300781 23.378906 C 37.300781 23.179688 37.425781 23.007812 37.621094 22.933594 L 38.765625 22.507812 L 38.765625 18.578125 C 38.765625 18.332031 38.964844 18.105469 39.214844 18.105469 C 39.464844 18.105469 39.6875 18.332031 39.6875 18.578125 L 39.6875 22.1875 L 41.75 21.414062 L 41.75 17.484375 C 41.75 17.238281 41.976562 17.011719 42.222656 17.011719 C 42.472656 17.011719 42.671875 17.238281 42.671875 17.484375 L 42.671875 21.089844 L 43.46875 20.792969 C 43.519531 20.769531 43.59375 20.769531 43.640625 20.769531 C 43.914062 20.769531 44.140625 20.992188 44.140625 21.265625 L 44.140625 22.757812 C 44.140625 22.957031 44.015625 23.15625 43.816406 23.230469 L 42.671875 23.628906 L 42.671875 27.609375 L 43.46875 27.335938 C 43.519531 27.308594 43.59375 27.308594 43.640625 27.308594 C 43.914062 27.308594 44.140625 27.535156 44.140625 27.808594 L 44.140625 29.300781 C 44.140625 29.5 44.015625 29.671875 43.816406 29.746094 L 42.671875 30.171875 Z M 39.6875 24.722656 L 39.6875 28.703125 L 41.75 27.957031 L 41.75 23.976562 Z M 39.6875 24.722656 "/>
<path style=" stroke:none;fill-rule:nonzero;fill:rgb(0%,0%,0%);fill-opacity:1;" d="M 16.152344 76.332031 L 16.003906 76.332031 C 13.316406 76.332031 11.152344 74.144531 11.152344 71.433594 C 11.152344 69.992188 12.46875 68.871094 13.9375 68.871094 C 15.28125 68.871094 16.300781 70.042969 16.300781 71.433594 C 16.300781 72.726562 15.230469 73.796875 13.9375 73.796875 C 13.664062 73.796875 13.414062 73.746094 13.167969 73.648438 C 13.8125 74.617188 14.859375 75.265625 16.078125 75.265625 L 16.175781 75.265625 Z M 21 65.589844 C 22.691406 64.992188 23.8125 63.226562 23.8125 61.507812 C 23.8125 59.269531 22.171875 57.058594 19.507812 56.785156 C 20.105469 59.667969 20.652344 62.53125 21 65.589844 Z M 11.375 59.84375 C 11.375 63.199219 14.585938 65.988281 17.941406 65.988281 C 18.640625 65.988281 19.308594 65.9375 19.980469 65.835938 C 19.632812 62.679688 19.0625 59.742188 18.414062 56.785156 C 16.449219 56.984375 15.332031 58.300781 15.332031 59.742188 C 15.332031 60.839844 15.953125 62.007812 17.34375 62.804688 C 17.46875 62.925781 17.519531 63.050781 17.519531 63.175781 C 17.519531 63.449219 17.269531 63.722656 16.972656 63.722656 C 16.898438 63.722656 16.824219 63.699219 16.75 63.671875 C 14.757812 62.605469 13.839844 60.8125 13.839844 59.070312 C 13.839844 56.882812 15.28125 54.746094 17.816406 54.171875 C 17.46875 52.730469 17.097656 51.261719 16.675781 49.820312 C 14.011719 52.828125 11.375 55.863281 11.375 59.84375 Z M 17.867188 67.054688 C 13.191406 67.054688 9.585938 62.777344 9.585938 57.753906 C 9.585938 53.351562 12.84375 50.144531 15.753906 46.785156 C 15.28125 45.242188 14.832031 43.675781 14.632812 42.058594 C 14.484375 40.765625 14.460938 39.472656 14.460938 38.179688 C 14.460938 35.320312 15.828125 32.609375 18.167969 30.917969 C 18.316406 30.792969 18.515625 30.792969 18.664062 30.917969 C 20.429688 33.003906 21.972656 37.011719 21.972656 39.820312 C 21.972656 43.378906 19.832031 46.164062 17.496094 48.875 C 18.015625 50.566406 18.464844 52.308594 18.886719 54.023438 C 18.988281 54.023438 19.113281 54 19.210938 54 C 23.066406 54 25.578125 57.183594 25.578125 60.488281 C 25.578125 62.378906 24.757812 64.320312 22.917969 65.714844 C 22.371094 66.136719 21.746094 66.410156 21.101562 66.609375 C 21.175781 67.480469 21.226562 68.351562 21.226562 69.21875 C 21.226562 69.691406 21.199219 70.191406 21.175781 70.664062 C 21 73.621094 18.988281 76.257812 16.152344 76.332031 L 16.175781 75.265625 C 18.488281 75.214844 19.980469 72.976562 20.132812 70.511719 C 20.15625 70.066406 20.179688 69.59375 20.179688 69.144531 C 20.179688 68.375 20.15625 67.628906 20.082031 66.855469 C 19.359375 66.980469 18.640625 67.054688 17.867188 67.054688 Z M 20.179688 37.757812 C 20.179688 36.386719 20.082031 35.792969 19.683594 34.546875 C 17.222656 35.742188 15.652344 38.253906 15.652344 40.988281 C 15.652344 42.832031 16.101562 44.296875 16.550781 45.816406 C 18.539062 43.402344 20.179688 40.890625 20.179688 37.757812 Z M 20.179688 37.757812 "/>
<path style=" stroke:none;fill-rule:nonzero;fill:rgb(0%,0%,0%);fill-opacity:1;" d="M 58.355469 10.519531 C 59.722656 10.519531 61.039062 11.21875 61.039062 12.734375 C 61.039062 14.5 59.671875 15.746094 58.503906 16.441406 C 57.632812 16.964844 56.636719 17.285156 55.617188 17.285156 C 54.25 17.285156 52.933594 16.589844 52.933594 15.074219 C 52.933594 13.308594 54.300781 12.0625 55.46875 11.367188 C 56.339844 10.84375 57.335938 10.519531 58.355469 10.519531 Z M 58.355469 10.519531 "/>
<path style=" stroke:none;fill-rule:nonzero;fill:rgb(0%,0%,0%);fill-opacity:1;" d="M 58.355469 16.738281 C 59.722656 16.738281 61.039062 17.433594 61.039062 18.953125 C 61.039062 20.71875 59.671875 21.960938 58.503906 22.660156 C 57.632812 23.179688 56.636719 23.503906 55.617188 23.503906 C 54.25 23.503906 52.933594 22.808594 52.933594 21.289062 C 52.933594 19.523438 54.300781 18.28125 55.46875 17.585938 C 56.339844 17.0625 57.335938 16.738281 58.355469 16.738281 Z M 58.355469 16.738281 "/>
<path style=" stroke:none;fill-rule:nonzero;fill:rgb(0%,0%,0%);fill-opacity:1;" d="M 58.355469 22.957031 C 59.722656 22.957031 61.039062 23.652344 61.039062 25.171875 C 61.039062 26.9375 59.671875 28.179688 58.503906 28.875 C 57.632812 29.398438 56.636719 29.722656 55.617188 29.722656 C 54.25 29.722656 52.933594 29.027344 52.933594 27.507812 C 52.933594 25.742188 54.300781 24.5 55.46875 23.804688 C 56.339844 23.28125 57.335938 22.957031 58.355469 22.957031 Z M 58.355469 22.957031 "/>
<path style=" stroke:none;fill-rule:nonzero;fill:rgb(0%,0%,0%);fill-opacity:1;" d="M 58.355469 29.175781 C 59.722656 29.175781 61.039062 29.871094 61.039062 31.390625 C 61.039062 33.15625 59.671875 34.398438 58.503906 35.09375 C 57.632812 35.617188 56.636719 35.941406 55.617188 35.941406 C 54.25 35.941406 52.933594 35.246094 52.933594 33.726562 C 52.933594 31.960938 54.300781 30.71875 55.46875 30.019531 C 56.339844 29.5 57.335938 29.175781 58.355469 29.175781 Z M 58.355469 29.175781 "/>
</g>
</svg>
