<?xml version="1.0" encoding="UTF-8"?>
<svg xmlns="http://www.w3.org/2000/svg" xmlns:xlink="http://www.w3.org/1999/xlink" width="82.756804pt" height="59.452652pt" viewBox="0 0 82.756804 59.452652" version="1.1">
<g id="surface1">
<path style="fill:none;stroke-width:0.1;stroke-linecap:round;stroke-linejoin:round;stroke:rgb(0%,0%,0%);stroke-opacity:1;stroke-miterlimit:4;" d="M 0.049863 -0.000287501 L 10.903299 -0.000287501 " transform="matrix(6.218149,0,0,6.218149,4.561038,40.517413)"/>
<path style="fill:none;stroke-width:0.1;stroke-linecap:round;stroke-linejoin:round;stroke:rgb(0%,0%,0%);stroke-opacity:1;stroke-miterlimit:4;" d="M 0.049863 0.000244052 L 10.903299 0.000244052 " transform="matrix(6.218149,0,0,6.218149,4.561038,34.299264)"/>
<path style="fill:none;stroke-width:0.1;stroke-linecap:round;stroke-linejoin:round;stroke:rgb(0%,0%,0%);stroke-opacity:1;stroke-miterlimit:4;" d="M 0.049863 0.000147403 L 10.903299 0.000147403 " transform="matrix(6.218149,0,0,6.218149,4.561038,28.081115)"/>
<path style="fill:none;stroke-width:0.1;stroke-linecap:round;stroke-linejoin:round;stroke:rgb(0%,0%,0%);stroke-opacity:1;stroke-miterlimit:4;" d="M 0.049863 0.0000507548 L 10.903299 0.0000507548 " transform="matrix(6.218149,0,0,6.218149,4.561038,21.862966)"/>
<path style="fill:none;stroke-width:0.1;stroke-linecap:round;stroke-linejoin:round;stroke:rgb(0%,0%,0%);stroke-opacity:1;stroke-miterlimit:4;" d="M 0.049863 -0.0000458938 L 10.903299 -0.0000458938 " transform="matrix(6.218149,0,0,6.218149,4.561038,15.644817)"/>
<path style=" stroke:none;fill-rule:nonzero;fill:rgb(0%,0%,0%);fill-opacity:1;" d="M 54.25 13.691406 L 54.558594 13.691406 C 54.695312 13.691406 54.808594 13.804688 54.808594 13.941406 L 54.808594 50.632812 C 54.808594 50.769531 54.695312 50.882812 54.558594 50.882812 L 54.25 50.882812 C 54.109375 50.882812 54 50.769531 54 50.632812 L 54 13.941406 C 54 13.804688 54.109375 13.691406 54.25 13.691406 Z M 54.25 13.691406 "/>
<path style=" stroke:none;fill-rule:nonzero;fill:rgb(0%,0%,0%);fill-opacity:1;" d="M 49.089844 12.535156 C 49.660156 13.109375 50.480469 13.230469 51.304688 13.230469 C 51.453125 13.230469 51.550781 13.332031 51.550781 13.480469 L 51.777344 15.644531 C 51.800781 15.792969 51.675781 15.917969 51.527344 15.894531 L 49.363281 15.667969 C 49.238281 15.644531 49.113281 15.546875 49.113281 15.421875 C 49.113281 14.601562 48.988281 13.78125 48.417969 13.207031 C 47.84375 13.78125 47.746094 14.601562 47.746094 15.421875 C 47.746094 15.546875 47.621094 15.644531 47.496094 15.667969 L 45.308594 15.894531 C 45.160156 15.917969 45.035156 15.792969 45.058594 15.644531 L 45.285156 13.480469 C 45.285156 13.332031 45.382812 13.230469 45.53125 13.230469 C 46.351562 13.230469 47.175781 13.109375 47.746094 12.535156 C 47.175781 11.964844 46.351562 11.839844 45.53125 11.839844 C 45.382812 11.839844 45.285156 11.738281 45.285156 11.589844 L 45.058594 9.425781 C 45.035156 9.277344 45.160156 9.152344 45.308594 9.179688 L 47.496094 9.402344 C 47.621094 9.425781 47.722656 9.527344 47.722656 9.652344 C 47.722656 10.472656 47.84375 11.292969 48.417969 11.863281 C 48.988281 11.292969 49.113281 10.472656 49.113281 9.652344 C 49.113281 9.527344 49.238281 9.425781 49.363281 9.402344 L 51.527344 9.179688 C 51.675781 9.152344 51.800781 9.277344 51.777344 9.425781 L 51.550781 11.589844 C 51.550781 11.738281 51.453125 11.839844 51.304688 11.839844 C 50.480469 11.839844 49.660156 11.964844 49.089844 12.535156 Z M 49.089844 12.535156 "/>
<path style=" stroke:none;fill-rule:nonzero;fill:rgb(0%,0%,0%);fill-opacity:1;" d="M 42.347656 26.515625 C 42.347656 26.761719 42.148438 26.988281 41.898438 26.988281 C 41.652344 26.988281 41.425781 26.761719 41.425781 26.515625 L 41.425781 22.90625 L 39.363281 23.679688 L 39.363281 27.609375 C 39.363281 27.855469 39.136719 28.082031 38.890625 28.082031 C 38.640625 28.082031 38.441406 27.855469 38.441406 27.609375 L 38.441406 24.003906 L 37.644531 24.300781 C 37.597656 24.324219 37.523438 24.324219 37.472656 24.324219 C 37.199219 24.324219 36.972656 24.101562 36.972656 23.828125 L 36.972656 22.335938 C 36.972656 22.136719 37.097656 21.9375 37.296875 21.863281 L 38.441406 21.464844 L 38.441406 17.484375 L 37.644531 17.757812 C 37.597656 17.785156 37.523438 17.785156 37.472656 17.785156 C 37.199219 17.785156 36.972656 17.558594 36.972656 17.285156 L 36.972656 15.792969 C 36.972656 15.59375 37.097656 15.421875 37.296875 15.347656 L 38.441406 14.921875 L 38.441406 10.992188 C 38.441406 10.746094 38.640625 10.519531 38.890625 10.519531 C 39.136719 10.519531 39.363281 10.746094 39.363281 10.992188 L 39.363281 14.601562 L 41.425781 13.828125 L 41.425781 9.898438 C 41.425781 9.652344 41.652344 9.425781 41.898438 9.425781 C 42.148438 9.425781 42.347656 9.652344 42.347656 9.898438 L 42.347656 13.503906 L 43.144531 13.207031 C 43.191406 13.183594 43.265625 13.183594 43.316406 13.183594 C 43.589844 13.183594 43.8125 13.40625 43.8125 13.679688 L 43.8125 15.171875 C 43.8125 15.371094 43.691406 15.570312 43.492188 15.644531 L 42.347656 16.042969 L 42.347656 20.023438 L 43.144531 19.75 C 43.191406 19.722656 43.265625 19.722656 43.316406 19.722656 C 43.589844 19.722656 43.8125 19.949219 43.8125 20.222656 L 43.8125 21.714844 C 43.8125 21.914062 43.691406 22.085938 43.492188 22.160156 L 42.347656 22.585938 Z M 39.363281 17.136719 L 39.363281 21.117188 L 41.425781 20.371094 L 41.425781 16.390625 Z M 39.363281 17.136719 "/>
<path style=" stroke:none;fill-rule:nonzero;fill:rgb(0%,0%,0%);fill-opacity:1;" d="M 32.996094 24.972656 C 33.570312 25.542969 34.390625 25.667969 35.210938 25.667969 C 35.359375 25.667969 35.460938 25.769531 35.460938 25.917969 L 35.683594 28.082031 C 35.707031 28.230469 35.582031 28.355469 35.433594 28.328125 L 33.269531 28.105469 C 33.144531 28.082031 33.023438 27.980469 33.023438 27.855469 C 33.023438 27.035156 32.898438 26.214844 32.324219 25.644531 C 31.753906 26.214844 31.652344 27.035156 31.652344 27.855469 C 31.652344 27.980469 31.527344 28.082031 31.40625 28.105469 L 29.214844 28.328125 C 29.066406 28.355469 28.941406 28.230469 28.96875 28.082031 L 29.191406 25.917969 C 29.191406 25.769531 29.289062 25.667969 29.441406 25.667969 C 30.261719 25.667969 31.082031 25.542969 31.652344 24.972656 C 31.082031 24.398438 30.261719 24.277344 29.441406 24.277344 C 29.289062 24.277344 29.191406 24.175781 29.191406 24.027344 L 28.96875 21.863281 C 28.941406 21.714844 29.066406 21.589844 29.214844 21.613281 L 31.40625 21.839844 C 31.527344 21.863281 31.628906 21.960938 31.628906 22.085938 C 31.628906 22.90625 31.753906 23.726562 32.324219 24.300781 C 32.898438 23.726562 33.023438 22.90625 33.023438 22.085938 C 33.023438 21.960938 33.144531 21.863281 33.269531 21.839844 L 35.433594 21.613281 C 35.582031 21.589844 35.707031 21.714844 35.683594 21.863281 L 35.460938 24.027344 C 35.460938 24.175781 35.359375 24.277344 35.210938 24.277344 C 34.390625 24.277344 33.570312 24.398438 32.996094 24.972656 Z M 32.996094 24.972656 "/>
<path style=" stroke:none;fill-rule:nonzero;fill:rgb(0%,0%,0%);fill-opacity:1;" d="M 50.355469 38.949219 C 50.355469 39.199219 50.15625 39.421875 49.90625 39.421875 C 49.660156 39.421875 49.4375 39.199219 49.4375 38.949219 L 49.4375 35.34375 L 47.371094 36.113281 L 47.371094 40.042969 C 47.371094 40.292969 47.148438 40.515625 46.898438 40.515625 C 46.648438 40.515625 46.449219 40.292969 46.449219 40.042969 L 46.449219 36.4375 L 45.65625 36.738281 C 45.605469 36.761719 45.53125 36.761719 45.480469 36.761719 C 45.207031 36.761719 44.984375 36.539062 44.984375 36.265625 L 44.984375 34.773438 C 44.984375 34.574219 45.109375 34.375 45.308594 34.300781 L 46.449219 33.902344 L 46.449219 29.921875 L 45.65625 30.195312 C 45.605469 30.21875 45.53125 30.21875 45.480469 30.21875 C 45.207031 30.21875 44.984375 29.996094 44.984375 29.722656 L 44.984375 28.230469 C 44.984375 28.03125 45.109375 27.855469 45.308594 27.78125 L 46.449219 27.359375 L 46.449219 23.429688 C 46.449219 23.179688 46.648438 22.957031 46.898438 22.957031 C 47.148438 22.957031 47.371094 23.179688 47.371094 23.429688 L 47.371094 27.035156 L 49.4375 26.265625 L 49.4375 22.335938 C 49.4375 22.085938 49.660156 21.863281 49.90625 21.863281 C 50.15625 21.863281 50.355469 22.085938 50.355469 22.335938 L 50.355469 25.941406 L 51.152344 25.644531 C 51.203125 25.617188 51.277344 25.617188 51.324219 25.617188 C 51.597656 25.617188 51.824219 25.84375 51.824219 26.117188 L 51.824219 27.609375 C 51.824219 27.808594 51.699219 28.007812 51.5 28.082031 L 50.355469 28.480469 L 50.355469 32.457031 L 51.152344 32.183594 C 51.203125 32.160156 51.277344 32.160156 51.324219 32.160156 C 51.597656 32.160156 51.824219 32.382812 51.824219 32.65625 L 51.824219 34.148438 C 51.824219 34.347656 51.699219 34.523438 51.5 34.597656 L 50.355469 35.019531 Z M 47.371094 29.574219 L 47.371094 33.554688 L 49.4375 32.808594 L 49.4375 28.828125 Z M 47.371094 29.574219 "/>
<path style=" stroke:none;fill-rule:nonzero;fill:rgb(0%,0%,0%);fill-opacity:1;" d="M 16.152344 50.09375 L 16.003906 50.09375 C 13.316406 50.09375 11.152344 47.90625 11.152344 45.195312 C 11.152344 43.75 12.46875 42.632812 13.9375 42.632812 C 15.28125 42.632812 16.300781 43.800781 16.300781 45.195312 C 16.300781 46.488281 15.230469 47.554688 13.9375 47.554688 C 13.664062 47.554688 13.414062 47.507812 13.167969 47.40625 C 13.8125 48.378906 14.859375 49.023438 16.078125 49.023438 L 16.175781 49.023438 Z M 21 39.347656 C 22.691406 38.75 23.8125 36.984375 23.8125 35.269531 C 23.8125 33.03125 22.171875 30.816406 19.507812 30.542969 C 20.105469 33.429688 20.652344 36.289062 21 39.347656 Z M 11.375 33.601562 C 11.375 36.960938 14.585938 39.746094 17.941406 39.746094 C 18.640625 39.746094 19.308594 39.695312 19.980469 39.597656 C 19.632812 36.4375 19.0625 33.503906 18.414062 30.542969 C 16.449219 30.742188 15.332031 32.0625 15.332031 33.503906 C 15.332031 34.597656 15.953125 35.765625 17.34375 36.5625 C 17.46875 36.6875 17.519531 36.8125 17.519531 36.9375 C 17.519531 37.210938 17.269531 37.484375 16.972656 37.484375 C 16.898438 37.484375 16.824219 37.457031 16.75 37.433594 C 14.757812 36.363281 13.839844 34.574219 13.839844 32.832031 C 13.839844 30.644531 15.28125 28.503906 17.816406 27.933594 C 17.46875 26.488281 17.097656 25.023438 16.675781 23.578125 C 14.011719 26.589844 11.375 29.625 11.375 33.601562 Z M 17.867188 40.816406 C 13.191406 40.816406 9.585938 36.539062 9.585938 31.511719 C 9.585938 27.109375 12.84375 23.902344 15.753906 20.542969 C 15.28125 19.003906 14.832031 17.4375 14.632812 15.820312 C 14.484375 14.527344 14.460938 13.230469 14.460938 11.9375 C 14.460938 9.078125 15.828125 6.367188 18.167969 4.675781 C 18.316406 4.550781 18.515625 4.550781 18.664062 4.675781 C 20.429688 6.765625 21.972656 10.769531 21.972656 13.582031 C 21.972656 17.136719 19.832031 19.921875 17.496094 22.632812 C 18.015625 24.324219 18.464844 26.066406 18.886719 27.78125 C 18.988281 27.78125 19.113281 27.757812 19.210938 27.757812 C 23.066406 27.757812 25.578125 30.941406 25.578125 34.25 C 25.578125 36.140625 24.757812 38.078125 22.917969 39.472656 C 22.371094 39.894531 21.746094 40.167969 21.101562 40.367188 C 21.175781 41.238281 21.226562 42.109375 21.226562 42.980469 C 21.226562 43.453125 21.199219 43.949219 21.175781 44.421875 C 21 47.382812 18.988281 50.019531 16.152344 50.09375 L 16.175781 49.023438 C 18.488281 48.972656 19.980469 46.734375 20.132812 44.273438 C 20.15625 43.824219 20.179688 43.351562 20.179688 42.90625 C 20.179688 42.132812 20.15625 41.386719 20.082031 40.617188 C 19.359375 40.742188 18.640625 40.816406 17.867188 40.816406 Z M 20.179688 11.515625 C 20.179688 10.148438 20.082031 9.550781 19.683594 8.308594 C 17.222656 9.5 15.652344 12.011719 15.652344 14.75 C 15.652344 16.589844 16.101562 18.058594 16.550781 19.574219 C 18.539062 17.160156 20.179688 14.648438 20.179688 11.515625 Z M 20.179688 11.515625 "/>
<path style=" stroke:none;fill-rule:nonzero;fill:rgb(0%,0%,0%);fill-opacity:1;" d="M 59.421875 9.152344 C 60.789062 9.152344 62.109375 9.847656 62.109375 11.367188 C 62.109375 13.132812 60.738281 14.375 59.570312 15.074219 C 58.699219 15.59375 57.707031 15.917969 56.6875 15.917969 C 55.316406 15.917969 54 15.222656 54 13.703125 C 54 11.9375 55.367188 10.695312 56.535156 10 C 57.40625 9.476562 58.402344 9.152344 59.421875 9.152344 Z M 59.421875 9.152344 "/>
<path style=" stroke:none;fill-rule:nonzero;fill:rgb(0%,0%,0%);fill-opacity:1;" d="M 59.421875 15.371094 C 60.789062 15.371094 62.109375 16.066406 62.109375 17.585938 C 62.109375 19.351562 60.738281 20.59375 59.570312 21.289062 C 58.699219 21.8125 57.707031 22.136719 56.6875 22.136719 C 55.316406 22.136719 54 21.441406 54 19.921875 C 54 18.15625 55.367188 16.914062 56.535156 16.21875 C 57.40625 15.695312 58.402344 15.371094 59.421875 15.371094 Z M 59.421875 15.371094 "/>
<path style=" stroke:none;fill-rule:nonzero;fill:rgb(0%,0%,0%);fill-opacity:1;" d="M 59.421875 21.589844 C 60.789062 21.589844 62.109375 22.285156 62.109375 23.804688 C 62.109375 25.570312 60.738281 26.8125 59.570312 27.507812 C 58.699219 28.03125 57.707031 28.355469 56.6875 28.355469 C 55.316406 28.355469 54 27.660156 54 26.140625 C 54 24.375 55.367188 23.132812 56.535156 22.433594 C 57.40625 21.914062 58.402344 21.589844 59.421875 21.589844 Z M 59.421875 21.589844 "/>
<path style=" stroke:none;fill-rule:nonzero;fill:rgb(0%,0%,0%);fill-opacity:1;" d="M 59.421875 27.808594 C 60.789062 27.808594 62.109375 28.503906 62.109375 30.019531 C 62.109375 31.789062 60.738281 33.03125 59.570312 33.726562 C 58.699219 34.25 57.707031 34.574219 56.6875 34.574219 C 55.316406 34.574219 54 33.875 54 32.359375 C 54 30.59375 55.367188 29.351562 56.535156 28.652344 C 57.40625 28.132812 58.402344 27.808594 59.421875 27.808594 Z M 59.421875 27.808594 "/>
</g>
</svg>
