<?xml version="1.0" encoding="UTF-8"?>
<svg xmlns="http://www.w3.org/2000/svg" xmlns:xlink="http://www.w3.org/1999/xlink" width="81.536713pt" height="58.61114pt" viewBox="0 0 81.536713 58.61114" version="1.1">
<g id="surface1">
<path style="fill:none;stroke-width:0.1;stroke-linecap:round;stroke-linejoin:round;stroke:rgb(0%,0%,0%);stroke-opacity:1;stroke-miterlimit:4;" d="M 0.049863 -0.000287501 L 10.719236 -0.000287501 " transform="matrix(6.218149,0,0,6.218149,4.561038,40.517413)"/>
<path style="fill:none;stroke-width:0.1;stroke-linecap:round;stroke-linejoin:round;stroke:rgb(0%,0%,0%);stroke-opacity:1;stroke-miterlimit:4;" d="M 0.049863 0.000244052 L 10.719236 0.000244052 " transform="matrix(6.218149,0,0,6.218149,4.561038,34.299264)"/>
<path style="fill:none;stroke-width:0.1;stroke-linecap:round;stroke-linejoin:round;stroke:rgb(0%,0%,0%);stroke-opacity:1;stroke-miterlimit:4;" d="M 0.049863 0.000147403 L 10.719236 0.000147403 " transform="matrix(6.218149,0,0,6.218149,4.561038,28.081115)"/>
<path style="fill:none;stroke-width:0.1;stroke-linecap:round;stroke-linejoin:round;stroke:rgb(0%,0%,0%);stroke-opacity:1;stroke-miterlimit:4;" d="M 0.049863 0.0000507548 L 10.719236 0.0000507548 " transform="matrix(6.218149,0,0,6.218149,4.561038,21.862966)"/>
<path style="fill:none;stroke-width:0.1;stroke-linecap:round;stroke-linejoin:round;stroke:rgb(0%,0%,0%);stroke-opacity:1;stroke-miterlimit:4;" d="M 0.049863 -0.0000458938 L 10.719236 -0.0000458938 " transform="matrix(6.218149,0,0,6.218149,4.561038,15.644817)"/>
<path style=" stroke:none;fill-rule:nonzero;fill:rgb(0%,0%,0%);fill-opacity:1;" d="M 53.105469 13.691406 L 53.417969 13.691406 C 53.554688 13.691406 53.664062 13.804688 53.664062 13.941406 L 53.664062 46.488281 C 53.664062 46.625 53.554688 46.734375 53.417969 46.734375 L 53.105469 46.734375 C 52.96875 46.734375 52.855469 46.625 52.855469 46.488281 L 52.855469 13.941406 C 52.855469 13.804688 52.96875 13.691406 53.105469 13.691406 Z M 53.105469 13.691406 "/>
<path style=" stroke:none;fill-rule:nonzero;fill:rgb(0%,0%,0%);fill-opacity:1;" d="M 47.945312 12.535156 C 48.519531 13.109375 49.339844 13.230469 50.160156 13.230469 C 50.308594 13.230469 50.410156 13.332031 50.410156 13.480469 L 50.632812 15.644531 C 50.65625 15.792969 50.535156 15.917969 50.382812 15.894531 L 48.21875 15.667969 C 48.097656 15.644531 47.972656 15.546875 47.972656 15.421875 C 47.972656 14.601562 47.847656 13.78125 47.273438 13.207031 C 46.703125 13.78125 46.605469 14.601562 46.605469 15.421875 C 46.605469 15.546875 46.480469 15.644531 46.355469 15.667969 L 44.167969 15.894531 C 44.015625 15.917969 43.894531 15.792969 43.917969 15.644531 L 44.140625 13.480469 C 44.140625 13.332031 44.242188 13.230469 44.390625 13.230469 C 45.210938 13.230469 46.03125 13.109375 46.605469 12.535156 C 46.03125 11.964844 45.210938 11.839844 44.390625 11.839844 C 44.242188 11.839844 44.140625 11.738281 44.140625 11.589844 L 43.917969 9.425781 C 43.894531 9.277344 44.015625 9.152344 44.167969 9.179688 L 46.355469 9.402344 C 46.480469 9.425781 46.578125 9.527344 46.578125 9.652344 C 46.578125 10.472656 46.703125 11.292969 47.273438 11.863281 C 47.847656 11.292969 47.972656 10.472656 47.972656 9.652344 C 47.972656 9.527344 48.097656 9.425781 48.21875 9.402344 L 50.382812 9.179688 C 50.535156 9.152344 50.65625 9.277344 50.632812 9.425781 L 50.410156 11.589844 C 50.410156 11.738281 50.308594 11.839844 50.160156 11.839844 C 49.339844 11.839844 48.519531 11.964844 47.945312 12.535156 Z M 47.945312 12.535156 "/>
<path style=" stroke:none;fill-rule:nonzero;fill:rgb(0%,0%,0%);fill-opacity:1;" d="M 34.589844 26.515625 C 34.589844 26.761719 34.390625 26.988281 34.140625 26.988281 C 33.890625 26.988281 33.667969 26.761719 33.667969 26.515625 L 33.667969 22.90625 L 31.605469 23.679688 L 31.605469 27.609375 C 31.605469 27.855469 31.378906 28.082031 31.132812 28.082031 C 30.882812 28.082031 30.683594 27.855469 30.683594 27.609375 L 30.683594 24.003906 L 29.886719 24.300781 C 29.835938 24.324219 29.761719 24.324219 29.714844 24.324219 C 29.441406 24.324219 29.214844 24.101562 29.214844 23.828125 L 29.214844 22.335938 C 29.214844 22.136719 29.339844 21.9375 29.539062 21.863281 L 30.683594 21.464844 L 30.683594 17.484375 L 29.886719 17.757812 C 29.835938 17.785156 29.761719 17.785156 29.714844 17.785156 C 29.441406 17.785156 29.214844 17.558594 29.214844 17.285156 L 29.214844 15.792969 C 29.214844 15.59375 29.339844 15.421875 29.539062 15.347656 L 30.683594 14.921875 L 30.683594 10.992188 C 30.683594 10.746094 30.882812 10.519531 31.132812 10.519531 C 31.378906 10.519531 31.605469 10.746094 31.605469 10.992188 L 31.605469 14.601562 L 33.667969 13.828125 L 33.667969 9.898438 C 33.667969 9.652344 33.890625 9.425781 34.140625 9.425781 C 34.390625 9.425781 34.589844 9.652344 34.589844 9.898438 L 34.589844 13.503906 L 35.382812 13.207031 C 35.433594 13.183594 35.507812 13.183594 35.558594 13.183594 C 35.832031 13.183594 36.054688 13.40625 36.054688 13.679688 L 36.054688 15.171875 C 36.054688 15.371094 35.929688 15.570312 35.734375 15.644531 L 34.589844 16.042969 L 34.589844 20.023438 L 35.382812 19.75 C 35.433594 19.722656 35.507812 19.722656 35.558594 19.722656 C 35.832031 19.722656 36.054688 19.949219 36.054688 20.222656 L 36.054688 21.714844 C 36.054688 21.914062 35.929688 22.085938 35.734375 22.160156 L 34.589844 22.585938 Z M 31.605469 17.136719 L 31.605469 21.117188 L 33.667969 20.371094 L 33.667969 16.390625 Z M 31.605469 17.136719 "/>
<path style=" stroke:none;fill-rule:nonzero;fill:rgb(0%,0%,0%);fill-opacity:1;" d="M 42.671875 32.730469 C 42.671875 32.980469 42.472656 33.203125 42.222656 33.203125 C 41.976562 33.203125 41.75 32.980469 41.75 32.730469 L 41.75 29.125 L 39.6875 29.898438 L 39.6875 33.828125 C 39.6875 34.074219 39.464844 34.300781 39.214844 34.300781 C 38.964844 34.300781 38.765625 34.074219 38.765625 33.828125 L 38.765625 30.21875 L 37.972656 30.519531 C 37.921875 30.542969 37.847656 30.542969 37.796875 30.542969 C 37.523438 30.542969 37.300781 30.320312 37.300781 30.046875 L 37.300781 28.554688 C 37.300781 28.355469 37.425781 28.15625 37.621094 28.082031 L 38.765625 27.683594 L 38.765625 23.703125 L 37.972656 23.976562 C 37.921875 24.003906 37.847656 24.003906 37.796875 24.003906 C 37.523438 24.003906 37.300781 23.777344 37.300781 23.503906 L 37.300781 22.011719 C 37.300781 21.8125 37.425781 21.640625 37.621094 21.566406 L 38.765625 21.140625 L 38.765625 17.210938 C 38.765625 16.964844 38.964844 16.738281 39.214844 16.738281 C 39.464844 16.738281 39.6875 16.964844 39.6875 17.210938 L 39.6875 20.816406 L 41.75 20.046875 L 41.75 16.117188 C 41.75 15.867188 41.976562 15.644531 42.222656 15.644531 C 42.472656 15.644531 42.671875 15.867188 42.671875 16.117188 L 42.671875 19.722656 L 43.46875 19.425781 C 43.519531 19.402344 43.59375 19.402344 43.640625 19.402344 C 43.914062 19.402344 44.140625 19.625 44.140625 19.898438 L 44.140625 21.390625 C 44.140625 21.589844 44.015625 21.789062 43.816406 21.863281 L 42.671875 22.261719 L 42.671875 26.242188 L 43.46875 25.96875 C 43.519531 25.941406 43.59375 25.941406 43.640625 25.941406 C 43.914062 25.941406 44.140625 26.164062 44.140625 26.441406 L 44.140625 27.933594 C 44.140625 28.132812 44.015625 28.304688 43.816406 28.378906 L 42.671875 28.800781 Z M 39.6875 23.355469 L 39.6875 27.335938 L 41.75 26.589844 L 41.75 22.609375 Z M 39.6875 23.355469 "/>
<path style=" stroke:none;fill-rule:nonzero;fill:rgb(0%,0%,0%);fill-opacity:1;" d="M 16.152344 50.09375 L 16.003906 50.09375 C 13.316406 50.09375 11.152344 47.90625 11.152344 45.195312 C 11.152344 43.75 12.46875 42.632812 13.9375 42.632812 C 15.28125 42.632812 16.300781 43.800781 16.300781 45.195312 C 16.300781 46.488281 15.230469 47.554688 13.9375 47.554688 C 13.664062 47.554688 13.414062 47.507812 13.167969 47.40625 C 13.8125 48.378906 14.859375 49.023438 16.078125 49.023438 L 16.175781 49.023438 Z M 21 39.347656 C 22.691406 38.75 23.8125 36.984375 23.8125 35.269531 C 23.8125 33.03125 22.171875 30.816406 19.507812 30.542969 C 20.105469 33.429688 20.652344 36.289062 21 39.347656 Z M 11.375 33.601562 C 11.375 36.960938 14.585938 39.746094 17.941406 39.746094 C 18.640625 39.746094 19.308594 39.695312 19.980469 39.597656 C 19.632812 36.4375 19.0625 33.503906 18.414062 30.542969 C 16.449219 30.742188 15.332031 32.0625 15.332031 33.503906 C 15.332031 34.597656 15.953125 35.765625 17.34375 36.5625 C 17.46875 36.6875 17.519531 36.8125 17.519531 36.9375 C 17.519531 37.210938 17.269531 37.484375 16.972656 37.484375 C 16.898438 37.484375 16.824219 37.457031 16.75 37.433594 C 14.757812 36.363281 13.839844 34.574219 13.839844 32.832031 C 13.839844 30.644531 15.28125 28.503906 17.816406 27.933594 C 17.46875 26.488281 17.097656 25.023438 16.675781 23.578125 C 14.011719 26.589844 11.375 29.625 11.375 33.601562 Z M 17.867188 40.816406 C 13.191406 40.816406 9.585938 36.539062 9.585938 31.511719 C 9.585938 27.109375 12.84375 23.902344 15.753906 20.542969 C 15.28125 19.003906 14.832031 17.4375 14.632812 15.820312 C 14.484375 14.527344 14.460938 13.230469 14.460938 11.9375 C 14.460938 9.078125 15.828125 6.367188 18.167969 4.675781 C 18.316406 4.550781 18.515625 4.550781 18.664062 4.675781 C 20.429688 6.765625 21.972656 10.769531 21.972656 13.582031 C 21.972656 17.136719 19.832031 19.921875 17.496094 22.632812 C 18.015625 24.324219 18.464844 26.066406 18.886719 27.78125 C 18.988281 27.78125 19.113281 27.757812 19.210938 27.757812 C 23.066406 27.757812 25.578125 30.941406 25.578125 34.25 C 25.578125 36.140625 24.757812 38.078125 22.917969 39.472656 C 22.371094 39.894531 21.746094 40.167969 21.101562 40.367188 C 21.175781 41.238281 21.226562 42.109375 21.226562 42.980469 C 21.226562 43.453125 21.199219 43.949219 21.175781 44.421875 C 21 47.382812 18.988281 50.019531 16.152344 50.09375 L 16.175781 49.023438 C 18.488281 48.972656 19.980469 46.734375 20.132812 44.273438 C 20.15625 43.824219 20.179688 43.351562 20.179688 42.90625 C 20.179688 42.132812 20.15625 41.386719 20.082031 40.617188 C 19.359375 40.742188 18.640625 40.816406 17.867188 40.816406 Z M 20.179688 11.515625 C 20.179688 10.148438 20.082031 9.550781 19.683594 8.308594 C 17.222656 9.5 15.652344 12.011719 15.652344 14.75 C 15.652344 16.589844 16.101562 18.058594 16.550781 19.574219 C 18.539062 17.160156 20.179688 14.648438 20.179688 11.515625 Z M 20.179688 11.515625 "/>
<path style=" stroke:none;fill-rule:nonzero;fill:rgb(0%,0%,0%);fill-opacity:1;" d="M 58.28125 9.152344 C 59.648438 9.152344 60.964844 9.847656 60.964844 11.367188 C 60.964844 13.132812 59.597656 14.375 58.429688 15.074219 C 57.558594 15.59375 56.5625 15.917969 55.542969 15.917969 C 54.175781 15.917969 52.855469 15.222656 52.855469 13.703125 C 52.855469 11.9375 54.226562 10.695312 55.394531 10 C 56.265625 9.476562 57.261719 9.152344 58.28125 9.152344 Z M 58.28125 9.152344 "/>
<path style=" stroke:none;fill-rule:nonzero;fill:rgb(0%,0%,0%);fill-opacity:1;" d="M 58.28125 15.371094 C 59.648438 15.371094 60.964844 16.066406 60.964844 17.585938 C 60.964844 19.351562 59.597656 20.59375 58.429688 21.289062 C 57.558594 21.8125 56.5625 22.136719 55.542969 22.136719 C 54.175781 22.136719 52.855469 21.441406 52.855469 19.921875 C 52.855469 18.15625 54.226562 16.914062 55.394531 16.21875 C 56.265625 15.695312 57.261719 15.371094 58.28125 15.371094 Z M 58.28125 15.371094 "/>
<path style=" stroke:none;fill-rule:nonzero;fill:rgb(0%,0%,0%);fill-opacity:1;" d="M 58.28125 21.589844 C 59.648438 21.589844 60.964844 22.285156 60.964844 23.804688 C 60.964844 25.570312 59.597656 26.8125 58.429688 27.507812 C 57.558594 28.03125 56.5625 28.355469 55.542969 28.355469 C 54.175781 28.355469 52.855469 27.660156 52.855469 26.140625 C 52.855469 24.375 54.226562 23.132812 55.394531 22.433594 C 56.265625 21.914062 57.261719 21.589844 58.28125 21.589844 Z M 58.28125 21.589844 "/>
</g>
</svg>
