<?xml version="1.0" encoding="UTF-8"?>
<svg xmlns="http://www.w3.org/2000/svg" xmlns:xlink="http://www.w3.org/1999/xlink" width="68.472344pt" height="50.142879pt" viewBox="0 0 68.472344 50.142879" version="1.1">
<g id="surface1">
<path style="fill:none;stroke-width:0.1;stroke-linecap:round;stroke-linejoin:round;stroke:rgb(0%,0%,0%);stroke-opacity:1;stroke-miterlimit:4;" d="M 0.049863 0.00022687 L 8.752337 0.00022687 " transform="matrix(6.218149,0,0,6.218149,4.561038,39.049371)"/>
<path style="fill:none;stroke-width:0.1;stroke-linecap:round;stroke-linejoin:round;stroke:rgb(0%,0%,0%);stroke-opacity:1;stroke-miterlimit:4;" d="M 0.049863 0.000130221 L 8.752337 0.000130221 " transform="matrix(6.218149,0,0,6.218149,4.561038,32.831222)"/>
<path style="fill:none;stroke-width:0.1;stroke-linecap:round;stroke-linejoin:round;stroke:rgb(0%,0%,0%);stroke-opacity:1;stroke-miterlimit:4;" d="M 0.049863 0.0000335725 L 8.752337 0.0000335725 " transform="matrix(6.218149,0,0,6.218149,4.561038,26.613072)"/>
<path style="fill:none;stroke-width:0.1;stroke-linecap:round;stroke-linejoin:round;stroke:rgb(0%,0%,0%);stroke-opacity:1;stroke-miterlimit:4;" d="M 0.049863 -0.0000630761 L 8.752337 -0.0000630761 " transform="matrix(6.218149,0,0,6.218149,4.561038,20.394923)"/>
<path style="fill:none;stroke-width:0.1;stroke-linecap:round;stroke-linejoin:round;stroke:rgb(0%,0%,0%);stroke-opacity:1;stroke-miterlimit:4;" d="M 0.049863 -0.000159725 L 8.752337 -0.000159725 " transform="matrix(6.218149,0,0,6.218149,4.561038,14.176774)"/>
<path style=" stroke:none;fill-rule:nonzero;fill:rgb(0%,0%,0%);fill-opacity:1;" d="M 39.21875 7.335938 L 50.140625 7.335938 C 50.484375 7.335938 50.761719 7.613281 50.761719 7.957031 C 50.761719 8.300781 50.484375 8.582031 50.140625 8.582031 L 39.21875 8.582031 C 38.878906 8.582031 38.597656 8.300781 38.597656 7.957031 C 38.597656 7.613281 38.878906 7.335938 39.21875 7.335938 Z M 39.21875 7.335938 "/>
<path style=" stroke:none;fill-rule:nonzero;fill:rgb(0%,0%,0%);fill-opacity:1;" d="M 40.875 9.117188 L 41.1875 9.117188 C 41.324219 9.117188 41.433594 9.226562 41.433594 9.363281 L 41.433594 41.910156 C 41.433594 42.046875 41.324219 42.160156 41.1875 42.160156 L 40.875 42.160156 C 40.738281 42.160156 40.625 42.046875 40.625 41.910156 L 40.625 9.363281 C 40.625 9.226562 40.738281 9.117188 40.875 9.117188 Z M 40.875 9.117188 "/>
<path style=" stroke:none;fill-rule:nonzero;fill:rgb(0%,0%,0%);fill-opacity:1;" d="M 23.390625 23.503906 C 23.390625 22.808594 23.960938 22.234375 24.65625 22.234375 C 25.355469 22.234375 25.925781 22.808594 25.925781 23.503906 C 25.925781 24.199219 25.355469 24.773438 24.65625 24.773438 C 23.960938 24.773438 23.390625 24.199219 23.390625 23.503906 Z M 23.390625 17.285156 C 23.390625 16.589844 23.960938 16.015625 24.65625 16.015625 C 25.355469 16.015625 25.925781 16.589844 25.925781 17.285156 C 25.925781 17.980469 25.355469 18.554688 24.65625 18.554688 C 23.960938 18.554688 23.390625 17.980469 23.390625 17.285156 Z M 15.304688 13.851562 C 19.585938 13.851562 22.59375 16.042969 22.59375 20.097656 C 22.59375 26.636719 16.050781 30.394531 9.757812 33.054688 C 9.683594 33.128906 9.609375 33.15625 9.535156 33.15625 C 9.363281 33.15625 9.210938 33.003906 9.210938 32.832031 C 9.210938 32.757812 9.238281 32.683594 9.3125 32.605469 C 14.335938 29.671875 19.558594 26.015625 19.558594 20.34375 C 19.558594 17.359375 17.992188 14.5 15.304688 14.5 C 13.464844 14.5 12.097656 15.84375 11.476562 17.632812 C 11.75 17.507812 12.023438 17.433594 12.320312 17.433594 C 13.6875 17.433594 14.808594 18.554688 14.808594 19.921875 C 14.808594 21.363281 13.714844 22.558594 12.320312 22.558594 C 10.828125 22.558594 9.535156 21.390625 9.535156 19.921875 C 9.535156 16.613281 12.074219 13.851562 15.304688 13.851562 Z M 15.304688 13.851562 "/>
<path style=" stroke:none;fill-rule:nonzero;fill:rgb(0%,0%,0%);fill-opacity:1;" d="M 46.046875 4.574219 C 47.417969 4.574219 48.734375 5.273438 48.734375 6.789062 C 48.734375 8.554688 47.367188 9.800781 46.199219 10.496094 C 45.328125 11.019531 44.332031 11.339844 43.3125 11.339844 C 41.945312 11.339844 40.625 10.644531 40.625 9.128906 C 40.625 7.363281 41.996094 6.117188 43.164062 5.421875 C 44.035156 4.898438 45.027344 4.574219 46.046875 4.574219 Z M 46.046875 4.574219 "/>
<path style=" stroke:none;fill-rule:nonzero;fill:rgb(0%,0%,0%);fill-opacity:1;" d="M 46.046875 10.792969 C 47.417969 10.792969 48.734375 11.492188 48.734375 13.007812 C 48.734375 14.773438 47.367188 16.015625 46.199219 16.714844 C 45.328125 17.234375 44.332031 17.558594 43.3125 17.558594 C 41.945312 17.558594 40.625 16.863281 40.625 15.347656 C 40.625 13.578125 41.996094 12.335938 43.164062 11.640625 C 44.035156 11.117188 45.027344 10.792969 46.046875 10.792969 Z M 46.046875 10.792969 "/>
<path style=" stroke:none;fill-rule:nonzero;fill:rgb(0%,0%,0%);fill-opacity:1;" d="M 46.046875 17.011719 C 47.417969 17.011719 48.734375 17.707031 48.734375 19.226562 C 48.734375 20.992188 47.367188 22.234375 46.199219 22.933594 C 45.328125 23.453125 44.332031 23.777344 43.3125 23.777344 C 41.945312 23.777344 40.625 23.082031 40.625 21.5625 C 40.625 19.796875 41.996094 18.554688 43.164062 17.859375 C 44.035156 17.335938 45.027344 17.011719 46.046875 17.011719 Z M 46.046875 17.011719 "/>
</g>
</svg>
