<?xml version="1.0" encoding="UTF-8"?>
<svg xmlns="http://www.w3.org/2000/svg" xmlns:xlink="http://www.w3.org/1999/xlink" width="75.335285pt" height="47.969059pt" viewBox="0 0 75.335285 47.969059" version="1.1">
<g id="surface1">
<path style="fill:none;stroke-width:0.1;stroke-linecap:round;stroke-linejoin:round;stroke:rgb(0%,0%,0%);stroke-opacity:1;stroke-miterlimit:4;" d="M 0.049863 -0.0000416676 L 9.785729 -0.0000416676 " transform="matrix(6.218149,0,0,6.218149,4.561038,39.812759)"/>
<path style="fill:none;stroke-width:0.1;stroke-linecap:round;stroke-linejoin:round;stroke:rgb(0%,0%,0%);stroke-opacity:1;stroke-miterlimit:4;" d="M 0.049863 -0.000138316 L 9.785729 -0.000138316 " transform="matrix(6.218149,0,0,6.218149,4.561038,33.59461)"/>
<path style="fill:none;stroke-width:0.1;stroke-linecap:round;stroke-linejoin:round;stroke:rgb(0%,0%,0%);stroke-opacity:1;stroke-miterlimit:4;" d="M 0.049863 -0.000234965 L 9.785729 -0.000234965 " transform="matrix(6.218149,0,0,6.218149,4.561038,27.376461)"/>
<path style="fill:none;stroke-width:0.1;stroke-linecap:round;stroke-linejoin:round;stroke:rgb(0%,0%,0%);stroke-opacity:1;stroke-miterlimit:4;" d="M 0.049863 0.000296588 L 9.785729 0.000296588 " transform="matrix(6.218149,0,0,6.218149,4.561038,21.158312)"/>
<path style="fill:none;stroke-width:0.1;stroke-linecap:round;stroke-linejoin:round;stroke:rgb(0%,0%,0%);stroke-opacity:1;stroke-miterlimit:4;" d="M 0.049863 0.000199939 L 9.785729 0.000199939 " transform="matrix(6.218149,0,0,6.218149,4.561038,14.940163)"/>
<path style=" stroke:none;fill-rule:nonzero;fill:rgb(0%,0%,0%);fill-opacity:1;" d="M 54.601562 4.578125 L 54.914062 4.578125 C 55.050781 4.578125 55.160156 4.6875 55.160156 4.824219 L 55.160156 35.296875 C 55.160156 35.433594 55.050781 35.546875 54.914062 35.546875 L 54.601562 35.546875 C 54.464844 35.546875 54.351562 35.433594 54.351562 35.296875 L 54.351562 4.824219 C 54.351562 4.6875 54.464844 4.578125 54.601562 4.578125 Z M 54.601562 4.578125 "/>
<path style=" stroke:none;fill-rule:nonzero;fill:rgb(0%,0%,0%);fill-opacity:1;" d="M 43.410156 32.027344 C 43.410156 32.277344 43.210938 32.5 42.960938 32.5 C 42.710938 32.5 42.488281 32.277344 42.488281 32.027344 L 42.488281 28.421875 L 40.421875 29.191406 L 40.421875 33.121094 C 40.421875 33.371094 40.199219 33.59375 39.949219 33.59375 C 39.703125 33.59375 39.503906 33.371094 39.503906 33.121094 L 39.503906 29.515625 L 38.707031 29.8125 C 38.65625 29.839844 38.582031 29.839844 38.535156 29.839844 C 38.257812 29.839844 38.035156 29.613281 38.035156 29.339844 L 38.035156 27.847656 C 38.035156 27.648438 38.160156 27.449219 38.359375 27.375 L 39.503906 26.976562 L 39.503906 23 L 38.707031 23.273438 C 38.65625 23.296875 38.582031 23.296875 38.535156 23.296875 C 38.257812 23.296875 38.035156 23.074219 38.035156 22.800781 L 38.035156 21.308594 C 38.035156 21.109375 38.160156 20.933594 38.359375 20.859375 L 39.503906 20.4375 L 39.503906 16.507812 C 39.503906 16.257812 39.703125 16.035156 39.949219 16.035156 C 40.199219 16.035156 40.421875 16.257812 40.421875 16.507812 L 40.421875 20.113281 L 42.488281 19.34375 L 42.488281 15.414062 C 42.488281 15.164062 42.710938 14.941406 42.960938 14.941406 C 43.210938 14.941406 43.410156 15.164062 43.410156 15.414062 L 43.410156 19.019531 L 44.203125 18.722656 C 44.253906 18.695312 44.328125 18.695312 44.378906 18.695312 C 44.652344 18.695312 44.875 18.917969 44.875 19.195312 L 44.875 20.6875 C 44.875 20.882812 44.75 21.082031 44.550781 21.160156 L 43.410156 21.554688 L 43.410156 25.535156 L 44.203125 25.261719 C 44.253906 25.238281 44.328125 25.238281 44.378906 25.238281 C 44.652344 25.238281 44.875 25.460938 44.875 25.734375 L 44.875 27.226562 C 44.875 27.425781 44.75 27.601562 44.550781 27.675781 L 43.410156 28.097656 Z M 40.421875 22.652344 L 40.421875 26.628906 L 42.488281 25.882812 L 42.488281 21.90625 Z M 40.421875 22.652344 "/>
<path style=" stroke:none;fill-rule:nonzero;fill:rgb(0%,0%,0%);fill-opacity:1;" d="M 35.324219 38.246094 C 35.324219 38.496094 35.125 38.71875 34.878906 38.71875 C 34.628906 38.71875 34.40625 38.496094 34.40625 38.246094 L 34.40625 34.640625 L 32.339844 35.410156 L 32.339844 39.339844 C 32.339844 39.589844 32.117188 39.8125 31.867188 39.8125 C 31.617188 39.8125 31.417969 39.589844 31.417969 39.339844 L 31.417969 35.734375 L 30.625 36.03125 C 30.574219 36.058594 30.5 36.058594 30.449219 36.058594 C 30.175781 36.058594 29.953125 35.832031 29.953125 35.558594 L 29.953125 34.066406 C 29.953125 33.867188 30.078125 33.667969 30.277344 33.59375 L 31.417969 33.195312 L 31.417969 29.21875 L 30.625 29.492188 C 30.574219 29.515625 30.5 29.515625 30.449219 29.515625 C 30.175781 29.515625 29.953125 29.292969 29.953125 29.019531 L 29.953125 27.527344 C 29.953125 27.328125 30.078125 27.152344 30.277344 27.078125 L 31.417969 26.65625 L 31.417969 22.726562 C 31.417969 22.476562 31.617188 22.253906 31.867188 22.253906 C 32.117188 22.253906 32.339844 22.476562 32.339844 22.726562 L 32.339844 26.332031 L 34.40625 25.5625 L 34.40625 21.632812 C 34.40625 21.382812 34.628906 21.160156 34.878906 21.160156 C 35.125 21.160156 35.324219 21.382812 35.324219 21.632812 L 35.324219 25.238281 L 36.121094 24.9375 C 36.171875 24.914062 36.246094 24.914062 36.292969 24.914062 C 36.566406 24.914062 36.792969 25.136719 36.792969 25.410156 L 36.792969 26.902344 C 36.792969 27.101562 36.667969 27.300781 36.46875 27.375 L 35.324219 27.773438 L 35.324219 31.753906 L 36.121094 31.480469 C 36.171875 31.457031 36.246094 31.457031 36.292969 31.457031 C 36.566406 31.457031 36.792969 31.679688 36.792969 31.953125 L 36.792969 33.445312 C 36.792969 33.644531 36.667969 33.820312 36.46875 33.894531 L 35.324219 34.316406 Z M 32.339844 28.867188 L 32.339844 32.847656 L 34.40625 32.101562 L 34.40625 28.121094 Z M 32.339844 28.867188 "/>
<path style=" stroke:none;fill-rule:nonzero;fill:rgb(0%,0%,0%);fill-opacity:1;" d="M 23.390625 24.265625 C 23.390625 23.570312 23.960938 23 24.65625 23 C 25.355469 23 25.925781 23.570312 25.925781 24.265625 C 25.925781 24.964844 25.355469 25.535156 24.65625 25.535156 C 23.960938 25.535156 23.390625 24.964844 23.390625 24.265625 Z M 23.390625 18.050781 C 23.390625 17.351562 23.960938 16.78125 24.65625 16.78125 C 25.355469 16.78125 25.925781 17.351562 25.925781 18.050781 C 25.925781 18.746094 25.355469 19.316406 24.65625 19.316406 C 23.960938 19.316406 23.390625 18.746094 23.390625 18.050781 Z M 15.304688 14.617188 C 19.585938 14.617188 22.59375 16.804688 22.59375 20.859375 C 22.59375 27.402344 16.050781 31.15625 9.757812 33.820312 C 9.683594 33.894531 9.609375 33.917969 9.535156 33.917969 C 9.363281 33.917969 9.210938 33.769531 9.210938 33.59375 C 9.210938 33.519531 9.238281 33.445312 9.3125 33.371094 C 14.335938 30.4375 19.558594 26.78125 19.558594 21.109375 C 19.558594 18.125 17.992188 15.261719 15.304688 15.261719 C 13.464844 15.261719 12.097656 16.605469 11.476562 18.398438 C 11.75 18.273438 12.023438 18.199219 12.320312 18.199219 C 13.6875 18.199219 14.808594 19.316406 14.808594 20.6875 C 14.808594 22.128906 13.714844 23.320312 12.320312 23.320312 C 10.828125 23.320312 9.535156 22.152344 9.535156 20.6875 C 9.535156 17.378906 12.074219 14.617188 15.304688 14.617188 Z M 15.304688 14.617188 "/>
<path style=" stroke:none;fill-rule:nonzero;fill:rgb(0%,0%,0%);fill-opacity:1;" d="M 52.472656 20.882812 C 53.84375 20.882812 55.160156 21.582031 55.160156 23.097656 C 55.160156 24.863281 53.792969 26.109375 52.625 26.804688 C 51.753906 27.328125 50.757812 27.648438 49.738281 27.648438 C 48.371094 27.648438 47.050781 26.953125 47.050781 25.4375 C 47.050781 23.671875 48.421875 22.425781 49.589844 21.730469 C 50.460938 21.207031 51.453125 20.882812 52.472656 20.882812 Z M 52.472656 20.882812 "/>
<path style=" stroke:none;fill-rule:nonzero;fill:rgb(0%,0%,0%);fill-opacity:1;" d="M 52.472656 27.101562 C 53.84375 27.101562 55.160156 27.800781 55.160156 29.316406 C 55.160156 31.082031 53.792969 32.324219 52.625 33.023438 C 51.753906 33.542969 50.757812 33.867188 49.738281 33.867188 C 48.371094 33.867188 47.050781 33.171875 47.050781 31.65625 C 47.050781 29.886719 48.421875 28.644531 49.589844 27.949219 C 50.460938 27.425781 51.453125 27.101562 52.472656 27.101562 Z M 52.472656 27.101562 "/>
<path style=" stroke:none;fill-rule:nonzero;fill:rgb(0%,0%,0%);fill-opacity:1;" d="M 52.472656 33.320312 C 53.84375 33.320312 55.160156 34.015625 55.160156 35.535156 C 55.160156 37.300781 53.792969 38.542969 52.625 39.242188 C 51.753906 39.761719 50.757812 40.085938 49.738281 40.085938 C 48.371094 40.085938 47.050781 39.390625 47.050781 37.871094 C 47.050781 36.105469 48.421875 34.863281 49.589844 34.167969 C 50.460938 33.644531 51.453125 33.320312 52.472656 33.320312 Z M 52.472656 33.320312 "/>
</g>
</svg>
