<?xml version="1.0" encoding="UTF-8"?>
<svg xmlns="http://www.w3.org/2000/svg" xmlns:xlink="http://www.w3.org/1999/xlink" width="72.614154pt" height="56.394781pt" viewBox="0 0 72.614154 56.394781" version="1.1">
<g id="surface1">
<path style="fill:none;stroke-width:0.1;stroke-linecap:round;stroke-linejoin:round;stroke:rgb(0%,0%,0%);stroke-opacity:1;stroke-miterlimit:4;" d="M 0.049863 -0.000217086 L 9.376141 -0.000217086 " transform="matrix(6.218149,0,0,6.218149,4.561038,37.739631)"/>
<path style="fill:none;stroke-width:0.1;stroke-linecap:round;stroke-linejoin:round;stroke:rgb(0%,0%,0%);stroke-opacity:1;stroke-miterlimit:4;" d="M 0.049863 -0.000313735 L 9.376141 -0.000313735 " transform="matrix(6.218149,0,0,6.218149,4.561038,31.521482)"/>
<path style="fill:none;stroke-width:0.1;stroke-linecap:round;stroke-linejoin:round;stroke:rgb(0%,0%,0%);stroke-opacity:1;stroke-miterlimit:4;" d="M 0.049863 0.000217818 L 9.376141 0.000217818 " transform="matrix(6.218149,0,0,6.218149,4.561038,25.303333)"/>
<path style="fill:none;stroke-width:0.1;stroke-linecap:round;stroke-linejoin:round;stroke:rgb(0%,0%,0%);stroke-opacity:1;stroke-miterlimit:4;" d="M 0.049863 0.000121169 L 9.376141 0.000121169 " transform="matrix(6.218149,0,0,6.218149,4.561038,19.085184)"/>
<path style="fill:none;stroke-width:0.1;stroke-linecap:round;stroke-linejoin:round;stroke:rgb(0%,0%,0%);stroke-opacity:1;stroke-miterlimit:4;" d="M 0.049863 0.0000245208 L 9.376141 0.0000245208 " transform="matrix(6.218149,0,0,6.218149,4.561038,12.867035)"/>
<path style=" stroke:none;fill-rule:nonzero;fill:rgb(0%,0%,0%);fill-opacity:1;" d="M 44.039062 43.335938 L 54.019531 43.335938 C 54.363281 43.335938 54.640625 43.613281 54.640625 43.957031 C 54.640625 44.300781 54.363281 44.578125 54.019531 44.578125 L 44.039062 44.578125 C 43.695312 44.578125 43.414062 44.300781 43.414062 43.957031 C 43.414062 43.613281 43.695312 43.335938 44.039062 43.335938 Z M 44.039062 43.335938 "/>
<path style=" stroke:none;fill-rule:nonzero;fill:rgb(0%,0%,0%);fill-opacity:1;" d="M 52.054688 4.578125 L 52.363281 4.578125 C 52.503906 4.578125 52.613281 4.6875 52.613281 4.824219 L 52.613281 42.550781 C 52.613281 42.6875 52.503906 42.800781 52.363281 42.800781 L 52.054688 42.800781 C 51.917969 42.800781 51.804688 42.6875 51.804688 42.550781 L 51.804688 4.824219 C 51.804688 4.6875 51.917969 4.578125 52.054688 4.578125 Z M 52.054688 4.578125 "/>
<path style=" stroke:none;fill-rule:nonzero;fill:rgb(0%,0%,0%);fill-opacity:1;" d="M 38.023438 24.285156 L 38 25.925781 L 38 26.199219 C 38 26.746094 38.023438 27.292969 38.097656 27.839844 C 39.21875 26.894531 40.414062 25.851562 40.414062 24.382812 C 40.414062 23.5625 40.0625 22.714844 39.34375 22.714844 C 38.570312 22.714844 38.050781 23.460938 38.023438 24.285156 Z M 36.980469 28.734375 L 36.679688 13.9375 C 36.878906 13.8125 37.128906 13.738281 37.351562 13.738281 C 37.578125 13.738281 37.824219 13.8125 38.023438 13.9375 L 37.851562 22.519531 C 38.472656 21.996094 39.292969 21.671875 40.113281 21.671875 C 41.40625 21.671875 42.328125 22.867188 42.328125 24.207031 C 42.328125 26.199219 40.1875 27.117188 38.671875 28.414062 C 38.296875 28.734375 38.074219 29.359375 37.550781 29.359375 C 37.230469 29.359375 36.980469 29.082031 36.980469 28.734375 Z M 36.980469 28.734375 "/>
<path style=" stroke:none;fill-rule:nonzero;fill:rgb(0%,0%,0%);fill-opacity:1;" d="M 31.371094 30.5 L 31.34375 32.144531 L 31.34375 32.417969 C 31.34375 32.964844 31.371094 33.511719 31.445312 34.058594 C 32.5625 33.113281 33.757812 32.070312 33.757812 30.601562 C 33.757812 29.78125 33.410156 28.933594 32.6875 28.933594 C 31.917969 28.933594 31.394531 29.679688 31.371094 30.5 Z M 30.324219 34.953125 L 30.027344 20.15625 C 30.226562 20.03125 30.472656 19.957031 30.699219 19.957031 C 30.921875 19.957031 31.171875 20.03125 31.371094 20.15625 L 31.195312 28.734375 C 31.816406 28.214844 32.636719 27.890625 33.460938 27.890625 C 34.753906 27.890625 35.671875 29.082031 35.671875 30.425781 C 35.671875 32.417969 33.535156 33.335938 32.015625 34.628906 C 31.644531 34.953125 31.417969 35.574219 30.898438 35.574219 C 30.574219 35.574219 30.324219 35.300781 30.324219 34.953125 Z M 30.324219 34.953125 "/>
<path style=" stroke:none;fill-rule:nonzero;fill:rgb(0%,0%,0%);fill-opacity:1;" d="M 38.023438 42.9375 L 38 44.578125 L 38 44.851562 C 38 45.402344 38.023438 45.949219 38.097656 46.496094 C 39.21875 45.550781 40.414062 44.503906 40.414062 43.039062 C 40.414062 42.214844 40.0625 41.371094 39.34375 41.371094 C 38.570312 41.371094 38.050781 42.117188 38.023438 42.9375 Z M 36.980469 47.390625 L 36.679688 32.589844 C 36.878906 32.464844 37.128906 32.390625 37.351562 32.390625 C 37.578125 32.390625 37.824219 32.464844 38.023438 32.589844 L 37.851562 41.171875 C 38.472656 40.648438 39.292969 40.328125 40.113281 40.328125 C 41.40625 40.328125 42.328125 41.519531 42.328125 42.863281 C 42.328125 44.851562 40.1875 45.773438 38.671875 47.066406 C 38.296875 47.390625 38.074219 48.011719 37.550781 48.011719 C 37.230469 48.011719 36.980469 47.738281 36.980469 47.390625 Z M 36.980469 47.390625 "/>
<path style=" stroke:none;fill-rule:nonzero;fill:rgb(0%,0%,0%);fill-opacity:1;" d="M 23.390625 22.195312 C 23.390625 21.496094 23.960938 20.925781 24.65625 20.925781 C 25.355469 20.925781 25.925781 21.496094 25.925781 22.195312 C 25.925781 22.890625 25.355469 23.460938 24.65625 23.460938 C 23.960938 23.460938 23.390625 22.890625 23.390625 22.195312 Z M 23.390625 15.976562 C 23.390625 15.28125 23.960938 14.707031 24.65625 14.707031 C 25.355469 14.707031 25.925781 15.28125 25.925781 15.976562 C 25.925781 16.671875 25.355469 17.246094 24.65625 17.246094 C 23.960938 17.246094 23.390625 16.671875 23.390625 15.976562 Z M 15.304688 12.542969 C 19.585938 12.542969 22.59375 14.734375 22.59375 18.785156 C 22.59375 25.328125 16.050781 29.082031 9.757812 31.746094 C 9.683594 31.820312 9.609375 31.84375 9.535156 31.84375 C 9.363281 31.84375 9.210938 31.695312 9.210938 31.519531 C 9.210938 31.445312 9.238281 31.371094 9.3125 31.296875 C 14.335938 28.363281 19.558594 24.707031 19.558594 19.035156 C 19.558594 16.050781 17.992188 13.191406 15.304688 13.191406 C 13.464844 13.191406 12.097656 14.535156 11.476562 16.324219 C 11.75 16.199219 12.023438 16.125 12.320312 16.125 C 13.6875 16.125 14.808594 17.246094 14.808594 18.613281 C 14.808594 20.054688 13.714844 21.25 12.320312 21.25 C 10.828125 21.25 9.535156 20.082031 9.535156 18.613281 C 9.535156 15.304688 12.074219 12.542969 15.304688 12.542969 Z M 15.304688 12.542969 "/>
<path style=" stroke:none;fill-rule:nonzero;fill:rgb(0%,0%,0%);fill-opacity:1;" d="M 49.925781 21.921875 C 51.292969 21.921875 52.613281 22.617188 52.613281 24.132812 C 52.613281 25.898438 51.246094 27.144531 50.074219 27.839844 C 49.203125 28.363281 48.210938 28.6875 47.191406 28.6875 C 45.820312 28.6875 44.503906 27.988281 44.503906 26.472656 C 44.503906 24.707031 45.871094 23.460938 47.039062 22.765625 C 47.910156 22.242188 48.90625 21.921875 49.925781 21.921875 Z M 49.925781 21.921875 "/>
<path style=" stroke:none;fill-rule:nonzero;fill:rgb(0%,0%,0%);fill-opacity:1;" d="M 49.925781 28.140625 C 51.292969 28.140625 52.613281 28.835938 52.613281 30.351562 C 52.613281 32.117188 51.246094 33.363281 50.074219 34.058594 C 49.203125 34.582031 48.210938 34.902344 47.191406 34.902344 C 45.820312 34.902344 44.503906 34.207031 44.503906 32.691406 C 44.503906 30.925781 45.871094 29.679688 47.039062 28.984375 C 47.910156 28.460938 48.90625 28.140625 49.925781 28.140625 Z M 49.925781 28.140625 "/>
<path style=" stroke:none;fill-rule:nonzero;fill:rgb(0%,0%,0%);fill-opacity:1;" d="M 49.925781 34.355469 C 51.292969 34.355469 52.613281 35.054688 52.613281 36.570312 C 52.613281 38.335938 51.246094 39.582031 50.074219 40.277344 C 49.203125 40.800781 48.210938 41.121094 47.191406 41.121094 C 45.820312 41.121094 44.503906 40.425781 44.503906 38.910156 C 44.503906 37.144531 45.871094 35.898438 47.039062 35.203125 C 47.910156 34.679688 48.90625 34.355469 49.925781 34.355469 Z M 49.925781 34.355469 "/>
<path style=" stroke:none;fill-rule:nonzero;fill:rgb(0%,0%,0%);fill-opacity:1;" d="M 49.925781 40.574219 C 51.292969 40.574219 52.613281 41.273438 52.613281 42.789062 C 52.613281 44.554688 51.246094 45.796875 50.074219 46.496094 C 49.203125 47.015625 48.210938 47.339844 47.191406 47.339844 C 45.820312 47.339844 44.503906 46.644531 44.503906 45.125 C 44.503906 43.359375 45.871094 42.117188 47.039062 41.421875 C 47.910156 40.898438 48.90625 40.574219 49.925781 40.574219 Z M 49.925781 40.574219 "/>
</g>
</svg>
