<?xml version="1.0" encoding="UTF-8"?>
<svg xmlns="http://www.w3.org/2000/svg" xmlns:xlink="http://www.w3.org/1999/xlink" width="68.472344pt" height="58.61114pt" viewBox="0 0 68.472344 58.61114" version="1.1">
<g id="surface1">
<path style="fill:none;stroke-width:0.1;stroke-linecap:round;stroke-linejoin:round;stroke:rgb(0%,0%,0%);stroke-opacity:1;stroke-miterlimit:4;" d="M 0.049863 -0.000287501 L 8.752337 -0.000287501 " transform="matrix(6.218149,0,0,6.218149,4.561038,40.517413)"/>
<path style="fill:none;stroke-width:0.1;stroke-linecap:round;stroke-linejoin:round;stroke:rgb(0%,0%,0%);stroke-opacity:1;stroke-miterlimit:4;" d="M 0.049863 0.000244052 L 8.752337 0.000244052 " transform="matrix(6.218149,0,0,6.218149,4.561038,34.299264)"/>
<path style="fill:none;stroke-width:0.1;stroke-linecap:round;stroke-linejoin:round;stroke:rgb(0%,0%,0%);stroke-opacity:1;stroke-miterlimit:4;" d="M 0.049863 0.000147403 L 8.752337 0.000147403 " transform="matrix(6.218149,0,0,6.218149,4.561038,28.081115)"/>
<path style="fill:none;stroke-width:0.1;stroke-linecap:round;stroke-linejoin:round;stroke:rgb(0%,0%,0%);stroke-opacity:1;stroke-miterlimit:4;" d="M 0.049863 0.0000507548 L 8.752337 0.0000507548 " transform="matrix(6.218149,0,0,6.218149,4.561038,21.862966)"/>
<path style="fill:none;stroke-width:0.1;stroke-linecap:round;stroke-linejoin:round;stroke:rgb(0%,0%,0%);stroke-opacity:1;stroke-miterlimit:4;" d="M 0.049863 -0.0000458938 L 8.752337 -0.0000458938 " transform="matrix(6.218149,0,0,6.218149,4.561038,15.644817)"/>
<path style=" stroke:none;fill-rule:nonzero;fill:rgb(0%,0%,0%);fill-opacity:1;" d="M 34.148438 42.605469 L 34.121094 44.25 L 34.121094 44.523438 C 34.121094 45.070312 34.148438 45.617188 34.222656 46.164062 C 35.339844 45.21875 36.535156 44.171875 36.535156 42.707031 C 36.535156 41.886719 36.1875 41.039062 35.464844 41.039062 C 34.695312 41.039062 34.171875 41.785156 34.148438 42.605469 Z M 33.101562 47.058594 L 32.804688 32.257812 C 33.003906 32.136719 33.25 32.0625 33.476562 32.0625 C 33.699219 32.0625 33.949219 32.136719 34.148438 32.257812 L 33.972656 40.839844 C 34.59375 40.320312 35.414062 39.996094 36.234375 39.996094 C 37.53125 39.996094 38.449219 41.1875 38.449219 42.53125 C 38.449219 44.523438 36.3125 45.441406 34.792969 46.734375 C 34.421875 47.058594 34.195312 47.679688 33.675781 47.679688 C 33.351562 47.679688 33.101562 47.40625 33.101562 47.058594 Z M 33.101562 47.058594 "/>
<path style=" stroke:none;fill-rule:nonzero;fill:rgb(0%,0%,0%);fill-opacity:1;" d="M 48.175781 9.425781 L 48.488281 9.425781 C 48.625 9.425781 48.734375 9.539062 48.734375 9.675781 L 48.734375 42.21875 C 48.734375 42.359375 48.625 42.46875 48.488281 42.46875 L 48.175781 42.46875 C 48.039062 42.46875 47.925781 42.359375 47.925781 42.21875 L 47.925781 9.675781 C 47.925781 9.539062 48.039062 9.425781 48.175781 9.425781 Z M 48.175781 9.425781 "/>
<path style=" stroke:none;fill-rule:nonzero;fill:rgb(0%,0%,0%);fill-opacity:1;" d="M 16.152344 50.09375 L 16.003906 50.09375 C 13.316406 50.09375 11.152344 47.90625 11.152344 45.195312 C 11.152344 43.75 12.46875 42.632812 13.9375 42.632812 C 15.28125 42.632812 16.300781 43.800781 16.300781 45.195312 C 16.300781 46.488281 15.230469 47.554688 13.9375 47.554688 C 13.664062 47.554688 13.414062 47.507812 13.167969 47.40625 C 13.8125 48.378906 14.859375 49.023438 16.078125 49.023438 L 16.175781 49.023438 Z M 21 39.347656 C 22.691406 38.75 23.8125 36.984375 23.8125 35.269531 C 23.8125 33.03125 22.171875 30.816406 19.507812 30.542969 C 20.105469 33.429688 20.652344 36.289062 21 39.347656 Z M 11.375 33.601562 C 11.375 36.960938 14.585938 39.746094 17.941406 39.746094 C 18.640625 39.746094 19.308594 39.695312 19.980469 39.597656 C 19.632812 36.4375 19.0625 33.503906 18.414062 30.542969 C 16.449219 30.742188 15.332031 32.0625 15.332031 33.503906 C 15.332031 34.597656 15.953125 35.765625 17.34375 36.5625 C 17.46875 36.6875 17.519531 36.8125 17.519531 36.9375 C 17.519531 37.210938 17.269531 37.484375 16.972656 37.484375 C 16.898438 37.484375 16.824219 37.457031 16.75 37.433594 C 14.757812 36.363281 13.839844 34.574219 13.839844 32.832031 C 13.839844 30.644531 15.28125 28.503906 17.816406 27.933594 C 17.46875 26.488281 17.097656 25.023438 16.675781 23.578125 C 14.011719 26.589844 11.375 29.625 11.375 33.601562 Z M 17.867188 40.816406 C 13.191406 40.816406 9.585938 36.539062 9.585938 31.511719 C 9.585938 27.109375 12.84375 23.902344 15.753906 20.542969 C 15.28125 19.003906 14.832031 17.4375 14.632812 15.820312 C 14.484375 14.527344 14.460938 13.230469 14.460938 11.9375 C 14.460938 9.078125 15.828125 6.367188 18.167969 4.675781 C 18.316406 4.550781 18.515625 4.550781 18.664062 4.675781 C 20.429688 6.765625 21.972656 10.769531 21.972656 13.582031 C 21.972656 17.136719 19.832031 19.921875 17.496094 22.632812 C 18.015625 24.324219 18.464844 26.066406 18.886719 27.78125 C 18.988281 27.78125 19.113281 27.757812 19.210938 27.757812 C 23.066406 27.757812 25.578125 30.941406 25.578125 34.25 C 25.578125 36.140625 24.757812 38.078125 22.917969 39.472656 C 22.371094 39.894531 21.746094 40.167969 21.101562 40.367188 C 21.175781 41.238281 21.226562 42.109375 21.226562 42.980469 C 21.226562 43.453125 21.199219 43.949219 21.175781 44.421875 C 21 47.382812 18.988281 50.019531 16.152344 50.09375 L 16.175781 49.023438 C 18.488281 48.972656 19.980469 46.734375 20.132812 44.273438 C 20.15625 43.824219 20.179688 43.351562 20.179688 42.90625 C 20.179688 42.132812 20.15625 41.386719 20.082031 40.617188 C 19.359375 40.742188 18.640625 40.816406 17.867188 40.816406 Z M 20.179688 11.515625 C 20.179688 10.148438 20.082031 9.550781 19.683594 8.308594 C 17.222656 9.5 15.652344 12.011719 15.652344 14.75 C 15.652344 16.589844 16.101562 18.058594 16.550781 19.574219 C 18.539062 17.160156 20.179688 14.648438 20.179688 11.515625 Z M 20.179688 11.515625 "/>
<path style=" stroke:none;fill-rule:nonzero;fill:rgb(0%,0%,0%);fill-opacity:1;" d="M 46.046875 27.808594 C 47.417969 27.808594 48.734375 28.503906 48.734375 30.019531 C 48.734375 31.789062 47.367188 33.03125 46.199219 33.726562 C 45.328125 34.25 44.332031 34.574219 43.3125 34.574219 C 41.945312 34.574219 40.625 33.875 40.625 32.359375 C 40.625 30.59375 41.996094 29.351562 43.164062 28.652344 C 44.035156 28.132812 45.027344 27.808594 46.046875 27.808594 Z M 46.046875 27.808594 "/>
<path style=" stroke:none;fill-rule:nonzero;fill:rgb(0%,0%,0%);fill-opacity:1;" d="M 46.046875 34.027344 C 47.417969 34.027344 48.734375 34.722656 48.734375 36.238281 C 48.734375 38.003906 47.367188 39.25 46.199219 39.945312 C 45.328125 40.46875 44.332031 40.789062 43.3125 40.789062 C 41.945312 40.789062 40.625 40.09375 40.625 38.578125 C 40.625 36.8125 41.996094 35.566406 43.164062 34.871094 C 44.035156 34.347656 45.027344 34.027344 46.046875 34.027344 Z M 46.046875 34.027344 "/>
<path style=" stroke:none;fill-rule:nonzero;fill:rgb(0%,0%,0%);fill-opacity:1;" d="M 46.046875 40.242188 C 47.417969 40.242188 48.734375 40.941406 48.734375 42.457031 C 48.734375 44.222656 47.367188 45.46875 46.199219 46.164062 C 45.328125 46.6875 44.332031 47.007812 43.3125 47.007812 C 41.945312 47.007812 40.625 46.3125 40.625 44.796875 C 40.625 43.03125 41.996094 41.785156 43.164062 41.089844 C 44.035156 40.566406 45.027344 40.242188 46.046875 40.242188 Z M 46.046875 40.242188 "/>
</g>
</svg>
