<?xml version="1.0" encoding="UTF-8"?>
<svg xmlns="http://www.w3.org/2000/svg" xmlns:xlink="http://www.w3.org/1999/xlink" width="68.472344pt" height="63.399859pt" viewBox="0 0 68.472344 63.399859" version="1.1">
<g id="surface1">
<path style="fill:none;stroke-width:0.1;stroke-linecap:round;stroke-linejoin:round;stroke:rgb(0%,0%,0%);stroke-opacity:1;stroke-miterlimit:4;" d="M 0.049863 0.000281364 L 8.752337 0.000281364 " transform="matrix(6.218149,0,0,6.218149,4.561038,44.994344)"/>
<path style="fill:none;stroke-width:0.1;stroke-linecap:round;stroke-linejoin:round;stroke:rgb(0%,0%,0%);stroke-opacity:1;stroke-miterlimit:4;" d="M 0.049863 0.000184716 L 8.752337 0.000184716 " transform="matrix(6.218149,0,0,6.218149,4.561038,38.776195)"/>
<path style="fill:none;stroke-width:0.1;stroke-linecap:round;stroke-linejoin:round;stroke:rgb(0%,0%,0%);stroke-opacity:1;stroke-miterlimit:4;" d="M 0.049863 0.0000880672 L 8.752337 0.0000880672 " transform="matrix(6.218149,0,0,6.218149,4.561038,32.558046)"/>
<path style="fill:none;stroke-width:0.1;stroke-linecap:round;stroke-linejoin:round;stroke:rgb(0%,0%,0%);stroke-opacity:1;stroke-miterlimit:4;" d="M 0.049863 -0.00000858141 L 8.752337 -0.00000858141 " transform="matrix(6.218149,0,0,6.218149,4.561038,26.339897)"/>
<path style="fill:none;stroke-width:0.1;stroke-linecap:round;stroke-linejoin:round;stroke:rgb(0%,0%,0%);stroke-opacity:1;stroke-miterlimit:4;" d="M 0.049863 -0.00010523 L 8.752337 -0.00010523 " transform="matrix(6.218149,0,0,6.218149,4.561038,20.121748)"/>
<path style=" stroke:none;fill-rule:nonzero;fill:rgb(0%,0%,0%);fill-opacity:1;" d="M 40.160156 13.28125 L 50.140625 13.28125 C 50.484375 13.28125 50.765625 13.558594 50.765625 13.902344 C 50.765625 14.246094 50.484375 14.527344 50.140625 14.527344 L 40.160156 14.527344 C 39.816406 14.527344 39.539062 14.246094 39.539062 13.902344 C 39.539062 13.558594 39.816406 13.28125 40.160156 13.28125 Z M 40.160156 13.28125 "/>
<path style=" stroke:none;fill-rule:nonzero;fill:rgb(0%,0%,0%);fill-opacity:1;" d="M 40.875 15.0625 L 41.1875 15.0625 C 41.324219 15.0625 41.433594 15.171875 41.433594 15.308594 L 41.433594 35.417969 C 41.433594 35.554688 41.324219 35.667969 41.1875 35.667969 L 40.875 35.667969 C 40.738281 35.667969 40.625 35.554688 40.625 35.417969 L 40.625 15.308594 C 40.625 15.171875 40.738281 15.0625 40.875 15.0625 Z M 40.875 15.0625 "/>
<path style=" stroke:none;fill-rule:nonzero;fill:rgb(0%,0%,0%);fill-opacity:1;" d="M 36.984375 21.664062 C 36.984375 21.914062 36.785156 22.136719 36.535156 22.136719 C 36.285156 22.136719 36.0625 21.914062 36.0625 21.664062 L 36.0625 18.058594 L 33.996094 18.828125 L 33.996094 22.757812 C 33.996094 23.007812 33.773438 23.230469 33.523438 23.230469 C 33.277344 23.230469 33.078125 23.007812 33.078125 22.757812 L 33.078125 19.152344 L 32.28125 19.449219 C 32.230469 19.476562 32.15625 19.476562 32.109375 19.476562 C 31.832031 19.476562 31.609375 19.25 31.609375 18.976562 L 31.609375 17.484375 C 31.609375 17.285156 31.734375 17.085938 31.933594 17.011719 L 33.078125 16.613281 L 33.078125 12.636719 L 32.28125 12.910156 C 32.230469 12.933594 32.15625 12.933594 32.109375 12.933594 C 31.832031 12.933594 31.609375 12.710938 31.609375 12.4375 L 31.609375 10.945312 C 31.609375 10.746094 31.734375 10.570312 31.933594 10.496094 L 33.078125 10.074219 L 33.078125 6.144531 C 33.078125 5.894531 33.277344 5.671875 33.523438 5.671875 C 33.773438 5.671875 33.996094 5.894531 33.996094 6.144531 L 33.996094 9.75 L 36.0625 8.980469 L 36.0625 5.050781 C 36.0625 4.800781 36.285156 4.578125 36.535156 4.578125 C 36.785156 4.578125 36.984375 4.800781 36.984375 5.050781 L 36.984375 8.65625 L 37.777344 8.355469 C 37.828125 8.332031 37.902344 8.332031 37.953125 8.332031 C 38.226562 8.332031 38.449219 8.554688 38.449219 8.828125 L 38.449219 10.320312 C 38.449219 10.519531 38.324219 10.71875 38.125 10.792969 L 36.984375 11.191406 L 36.984375 15.171875 L 37.777344 14.898438 C 37.828125 14.875 37.902344 14.875 37.953125 14.875 C 38.226562 14.875 38.449219 15.097656 38.449219 15.371094 L 38.449219 16.863281 C 38.449219 17.0625 38.324219 17.238281 38.125 17.3125 L 36.984375 17.734375 Z M 33.996094 12.285156 L 33.996094 16.265625 L 36.0625 15.519531 L 36.0625 11.539062 Z M 33.996094 12.285156 "/>
<path style=" stroke:none;fill-rule:nonzero;fill:rgb(0%,0%,0%);fill-opacity:1;" d="M 16.152344 54.570312 L 16.003906 54.570312 C 13.316406 54.570312 11.152344 52.382812 11.152344 49.671875 C 11.152344 48.226562 12.46875 47.109375 13.9375 47.109375 C 15.28125 47.109375 16.300781 48.277344 16.300781 49.671875 C 16.300781 50.964844 15.230469 52.035156 13.9375 52.035156 C 13.664062 52.035156 13.414062 51.984375 13.167969 51.882812 C 13.8125 52.855469 14.859375 53.5 16.078125 53.5 L 16.175781 53.5 Z M 21 43.824219 C 22.691406 43.226562 23.8125 41.460938 23.8125 39.746094 C 23.8125 37.507812 22.171875 35.292969 19.507812 35.019531 C 20.105469 37.90625 20.652344 40.765625 21 43.824219 Z M 11.375 38.078125 C 11.375 41.4375 14.585938 44.222656 17.941406 44.222656 C 18.640625 44.222656 19.308594 44.171875 19.980469 44.074219 C 19.632812 40.914062 19.0625 37.980469 18.414062 35.019531 C 16.449219 35.21875 15.332031 36.539062 15.332031 37.980469 C 15.332031 39.074219 15.953125 40.242188 17.34375 41.039062 C 17.46875 41.164062 17.519531 41.289062 17.519531 41.414062 C 17.519531 41.6875 17.269531 41.960938 16.972656 41.960938 C 16.898438 41.960938 16.824219 41.933594 16.75 41.910156 C 14.757812 40.839844 13.839844 39.050781 13.839844 37.308594 C 13.839844 35.121094 15.28125 32.980469 17.816406 32.410156 C 17.46875 30.964844 17.097656 29.5 16.675781 28.054688 C 14.011719 31.066406 11.375 34.101562 11.375 38.078125 Z M 17.867188 45.292969 C 13.191406 45.292969 9.585938 41.015625 9.585938 35.992188 C 9.585938 31.589844 12.84375 28.378906 15.753906 25.023438 C 15.28125 23.480469 14.832031 21.914062 14.632812 20.296875 C 14.484375 19.003906 14.460938 17.710938 14.460938 16.414062 C 14.460938 13.554688 15.828125 10.84375 18.167969 9.152344 C 18.316406 9.027344 18.515625 9.027344 18.664062 9.152344 C 20.429688 11.242188 21.972656 15.246094 21.972656 18.058594 C 21.972656 21.613281 19.832031 24.398438 17.496094 27.109375 C 18.015625 28.800781 18.464844 30.542969 18.886719 32.257812 C 18.988281 32.257812 19.113281 32.234375 19.210938 32.234375 C 23.066406 32.234375 25.578125 35.417969 25.578125 38.726562 C 25.578125 40.617188 24.757812 42.558594 22.917969 43.949219 C 22.371094 44.371094 21.746094 44.644531 21.101562 44.84375 C 21.175781 45.714844 21.226562 46.585938 21.226562 47.457031 C 21.226562 47.929688 21.199219 48.425781 21.175781 48.898438 C 21 51.859375 18.988281 54.496094 16.152344 54.570312 L 16.175781 53.5 C 18.488281 53.449219 19.980469 51.210938 20.132812 48.75 C 20.15625 48.300781 20.179688 47.828125 20.179688 47.382812 C 20.179688 46.609375 20.15625 45.863281 20.082031 45.09375 C 19.359375 45.21875 18.640625 45.292969 17.867188 45.292969 Z M 20.179688 15.992188 C 20.179688 14.625 20.082031 14.027344 19.683594 12.785156 C 17.222656 13.976562 15.652344 16.492188 15.652344 19.226562 C 15.652344 21.066406 16.101562 22.535156 16.550781 24.050781 C 18.539062 21.640625 20.179688 19.125 20.179688 15.992188 Z M 20.179688 15.992188 "/>
<path style=" stroke:none;fill-rule:nonzero;fill:rgb(0%,0%,0%);fill-opacity:1;" d="M 46.046875 10.519531 C 47.417969 10.519531 48.734375 11.21875 48.734375 12.734375 C 48.734375 14.5 47.367188 15.746094 46.199219 16.441406 C 45.328125 16.964844 44.332031 17.285156 43.3125 17.285156 C 41.945312 17.285156 40.625 16.589844 40.625 15.074219 C 40.625 13.308594 41.996094 12.0625 43.164062 11.367188 C 44.035156 10.84375 45.027344 10.519531 46.046875 10.519531 Z M 46.046875 10.519531 "/>
</g>
</svg>
