<?xml version="1.0" encoding="UTF-8"?>
<svg xmlns="http://www.w3.org/2000/svg" xmlns:xlink="http://www.w3.org/1999/xlink" width="86.582467pt" height="60.078972pt" viewBox="0 0 86.582467 60.078972" version="1.1">
<g id="surface1">
<path style="fill:none;stroke-width:0.1;stroke-linecap:round;stroke-linejoin:round;stroke:rgb(0%,0%,0%);stroke-opacity:1;stroke-miterlimit:4;" d="M 0.049863 0.00023304 L 11.478731 0.00023304 " transform="matrix(6.218149,0,0,6.218149,4.561038,41.88527)"/>
<path style="fill:none;stroke-width:0.1;stroke-linecap:round;stroke-linejoin:round;stroke:rgb(0%,0%,0%);stroke-opacity:1;stroke-miterlimit:4;" d="M 0.049863 0.000136391 L 11.478731 0.000136391 " transform="matrix(6.218149,0,0,6.218149,4.561038,35.667121)"/>
<path style="fill:none;stroke-width:0.1;stroke-linecap:round;stroke-linejoin:round;stroke:rgb(0%,0%,0%);stroke-opacity:1;stroke-miterlimit:4;" d="M 0.049863 0.0000397429 L 11.478731 0.0000397429 " transform="matrix(6.218149,0,0,6.218149,4.561038,29.448972)"/>
<path style="fill:none;stroke-width:0.1;stroke-linecap:round;stroke-linejoin:round;stroke:rgb(0%,0%,0%);stroke-opacity:1;stroke-miterlimit:4;" d="M 0.049863 -0.0000569057 L 11.478731 -0.0000569057 " transform="matrix(6.218149,0,0,6.218149,4.561038,23.230823)"/>
<path style="fill:none;stroke-width:0.1;stroke-linecap:round;stroke-linejoin:round;stroke:rgb(0%,0%,0%);stroke-opacity:1;stroke-miterlimit:4;" d="M 0.049863 -0.000153554 L 11.478731 -0.000153554 " transform="matrix(6.218149,0,0,6.218149,4.561038,17.012674)"/>
<path style=" stroke:none;fill-rule:nonzero;fill:rgb(0%,0%,0%);fill-opacity:1;" d="M 65.132812 4.578125 L 65.441406 4.578125 C 65.578125 4.578125 65.691406 4.6875 65.691406 4.824219 L 65.691406 40.480469 C 65.691406 40.617188 65.578125 40.726562 65.441406 40.726562 L 65.132812 40.726562 C 64.992188 40.726562 64.882812 40.617188 64.882812 40.480469 L 64.882812 4.824219 C 64.882812 4.6875 64.992188 4.578125 65.132812 4.578125 Z M 65.132812 4.578125 "/>
<path style=" stroke:none;fill-rule:nonzero;fill:rgb(0%,0%,0%);fill-opacity:1;" d="M 53.9375 30.992188 C 53.9375 31.238281 53.738281 31.464844 53.488281 31.464844 C 53.242188 31.464844 53.015625 31.238281 53.015625 30.992188 L 53.015625 27.382812 L 50.953125 28.15625 L 50.953125 32.085938 C 50.953125 32.335938 50.730469 32.558594 50.480469 32.558594 C 50.230469 32.558594 50.03125 32.335938 50.03125 32.085938 L 50.03125 28.480469 L 49.238281 28.777344 C 49.1875 28.800781 49.113281 28.800781 49.0625 28.800781 C 48.789062 28.800781 48.566406 28.578125 48.566406 28.304688 L 48.566406 26.8125 C 48.566406 26.613281 48.6875 26.414062 48.886719 26.339844 L 50.03125 25.941406 L 50.03125 21.960938 L 49.238281 22.234375 C 49.1875 22.261719 49.113281 22.261719 49.0625 22.261719 C 48.789062 22.261719 48.566406 22.035156 48.566406 21.761719 L 48.566406 20.269531 C 48.566406 20.070312 48.6875 19.898438 48.886719 19.824219 L 50.03125 19.402344 L 50.03125 15.46875 C 50.03125 15.222656 50.230469 14.996094 50.480469 14.996094 C 50.730469 14.996094 50.953125 15.222656 50.953125 15.46875 L 50.953125 19.078125 L 53.015625 18.304688 L 53.015625 14.375 C 53.015625 14.128906 53.242188 13.902344 53.488281 13.902344 C 53.738281 13.902344 53.9375 14.128906 53.9375 14.375 L 53.9375 17.984375 L 54.734375 17.683594 C 54.78125 17.660156 54.859375 17.660156 54.90625 17.660156 C 55.179688 17.660156 55.40625 17.882812 55.40625 18.15625 L 55.40625 19.648438 C 55.40625 19.847656 55.28125 20.046875 55.082031 20.121094 L 53.9375 20.519531 L 53.9375 24.5 L 54.734375 24.226562 C 54.78125 24.199219 54.859375 24.199219 54.90625 24.199219 C 55.179688 24.199219 55.40625 24.425781 55.40625 24.699219 L 55.40625 26.191406 C 55.40625 26.390625 55.28125 26.5625 55.082031 26.636719 L 53.9375 27.0625 Z M 50.953125 21.613281 L 50.953125 25.59375 L 53.015625 24.847656 L 53.015625 20.867188 Z M 50.953125 21.613281 "/>
<path style=" stroke:none;fill-rule:nonzero;fill:rgb(0%,0%,0%);fill-opacity:1;" d="M 42.347656 37.210938 C 42.347656 37.457031 42.148438 37.683594 41.898438 37.683594 C 41.652344 37.683594 41.425781 37.457031 41.425781 37.210938 L 41.425781 33.601562 L 39.363281 34.375 L 39.363281 38.304688 C 39.363281 38.550781 39.136719 38.777344 38.890625 38.777344 C 38.640625 38.777344 38.441406 38.550781 38.441406 38.304688 L 38.441406 34.695312 L 37.644531 34.996094 C 37.597656 35.019531 37.523438 35.019531 37.472656 35.019531 C 37.199219 35.019531 36.972656 34.796875 36.972656 34.523438 L 36.972656 33.03125 C 36.972656 32.832031 37.097656 32.632812 37.296875 32.558594 L 38.441406 32.160156 L 38.441406 28.179688 L 37.644531 28.453125 C 37.597656 28.480469 37.523438 28.480469 37.472656 28.480469 C 37.199219 28.480469 36.972656 28.253906 36.972656 27.980469 L 36.972656 26.488281 C 36.972656 26.289062 37.097656 26.117188 37.296875 26.042969 L 38.441406 25.617188 L 38.441406 21.6875 C 38.441406 21.441406 38.640625 21.214844 38.890625 21.214844 C 39.136719 21.214844 39.363281 21.441406 39.363281 21.6875 L 39.363281 25.296875 L 41.425781 24.523438 L 41.425781 20.59375 C 41.425781 20.34375 41.652344 20.121094 41.898438 20.121094 C 42.148438 20.121094 42.347656 20.34375 42.347656 20.59375 L 42.347656 24.199219 L 43.144531 23.902344 C 43.191406 23.878906 43.265625 23.878906 43.316406 23.878906 C 43.589844 23.878906 43.8125 24.101562 43.8125 24.375 L 43.8125 25.867188 C 43.8125 26.066406 43.691406 26.265625 43.492188 26.339844 L 42.347656 26.738281 L 42.347656 30.71875 L 43.144531 30.445312 C 43.191406 30.417969 43.265625 30.417969 43.316406 30.417969 C 43.589844 30.417969 43.8125 30.644531 43.8125 30.917969 L 43.8125 32.410156 C 43.8125 32.609375 43.691406 32.78125 43.492188 32.855469 L 42.347656 33.28125 Z M 39.363281 27.832031 L 39.363281 31.8125 L 41.425781 31.066406 L 41.425781 27.085938 Z M 39.363281 27.832031 "/>
<path style=" stroke:none;fill-rule:nonzero;fill:rgb(0%,0%,0%);fill-opacity:1;" d="M 32.996094 35.667969 C 33.570312 36.238281 34.390625 36.363281 35.210938 36.363281 C 35.359375 36.363281 35.460938 36.464844 35.460938 36.613281 L 35.683594 38.777344 C 35.707031 38.925781 35.582031 39.050781 35.433594 39.023438 L 33.269531 38.800781 C 33.144531 38.777344 33.023438 38.675781 33.023438 38.550781 C 33.023438 37.730469 32.898438 36.910156 32.324219 36.339844 C 31.753906 36.910156 31.652344 37.730469 31.652344 38.550781 C 31.652344 38.675781 31.527344 38.777344 31.40625 38.800781 L 29.214844 39.023438 C 29.066406 39.050781 28.941406 38.925781 28.96875 38.777344 L 29.191406 36.613281 C 29.191406 36.464844 29.289062 36.363281 29.441406 36.363281 C 30.261719 36.363281 31.082031 36.238281 31.652344 35.667969 C 31.082031 35.09375 30.261719 34.96875 29.441406 34.96875 C 29.289062 34.96875 29.191406 34.871094 29.191406 34.722656 L 28.96875 32.558594 C 28.941406 32.410156 29.066406 32.285156 29.214844 32.308594 L 31.40625 32.53125 C 31.527344 32.558594 31.628906 32.65625 31.628906 32.78125 C 31.628906 33.601562 31.753906 34.421875 32.324219 34.996094 C 32.898438 34.421875 33.023438 33.601562 33.023438 32.78125 C 33.023438 32.65625 33.144531 32.558594 33.269531 32.53125 L 35.433594 32.308594 C 35.582031 32.285156 35.707031 32.410156 35.683594 32.558594 L 35.460938 34.722656 C 35.460938 34.871094 35.359375 34.96875 35.210938 34.96875 C 34.390625 34.96875 33.570312 35.09375 32.996094 35.667969 Z M 32.996094 35.667969 "/>
<path style=" stroke:none;fill-rule:nonzero;fill:rgb(0%,0%,0%);fill-opacity:1;" d="M 48.789062 49.644531 C 48.789062 49.894531 48.589844 50.117188 48.339844 50.117188 C 48.09375 50.117188 47.867188 49.894531 47.867188 49.644531 L 47.867188 46.039062 L 45.804688 46.808594 L 45.804688 50.738281 C 45.804688 50.988281 45.582031 51.210938 45.332031 51.210938 C 45.082031 51.210938 44.882812 50.988281 44.882812 50.738281 L 44.882812 47.132812 L 44.089844 47.433594 C 44.039062 47.457031 43.964844 47.457031 43.914062 47.457031 C 43.640625 47.457031 43.417969 47.234375 43.417969 46.960938 L 43.417969 45.46875 C 43.417969 45.269531 43.539062 45.070312 43.738281 44.996094 L 44.882812 44.597656 L 44.882812 40.617188 L 44.089844 40.890625 C 44.039062 40.914062 43.964844 40.914062 43.914062 40.914062 C 43.640625 40.914062 43.417969 40.691406 43.417969 40.417969 L 43.417969 38.925781 C 43.417969 38.726562 43.539062 38.550781 43.738281 38.476562 L 44.882812 38.054688 L 44.882812 34.125 C 44.882812 33.875 45.082031 33.652344 45.332031 33.652344 C 45.582031 33.652344 45.804688 33.875 45.804688 34.125 L 45.804688 37.730469 L 47.867188 36.960938 L 47.867188 33.03125 C 47.867188 32.78125 48.09375 32.558594 48.339844 32.558594 C 48.589844 32.558594 48.789062 32.78125 48.789062 33.03125 L 48.789062 36.636719 L 49.585938 36.339844 C 49.632812 36.3125 49.710938 36.3125 49.757812 36.3125 C 50.03125 36.3125 50.257812 36.539062 50.257812 36.8125 L 50.257812 38.304688 C 50.257812 38.503906 50.132812 38.703125 49.933594 38.777344 L 48.789062 39.175781 L 48.789062 43.152344 L 49.585938 42.878906 C 49.632812 42.855469 49.710938 42.855469 49.757812 42.855469 C 50.03125 42.855469 50.257812 43.078125 50.257812 43.351562 L 50.257812 44.84375 C 50.257812 45.042969 50.132812 45.21875 49.933594 45.292969 L 48.789062 45.714844 Z M 45.804688 40.269531 L 45.804688 44.25 L 47.867188 43.503906 L 47.867188 39.523438 Z M 45.804688 40.269531 "/>
<path style=" stroke:none;fill-rule:nonzero;fill:rgb(0%,0%,0%);fill-opacity:1;" d="M 16.152344 51.460938 L 16.003906 51.460938 C 13.316406 51.460938 11.152344 49.273438 11.152344 46.5625 C 11.152344 45.117188 12.46875 44 13.9375 44 C 15.28125 44 16.300781 45.167969 16.300781 46.5625 C 16.300781 47.855469 15.230469 48.925781 13.9375 48.925781 C 13.664062 48.925781 13.414062 48.875 13.167969 48.773438 C 13.8125 49.746094 14.859375 50.390625 16.078125 50.390625 L 16.175781 50.390625 Z M 21 40.714844 C 22.691406 40.121094 23.8125 38.351562 23.8125 36.636719 C 23.8125 34.398438 22.171875 32.183594 19.507812 31.910156 C 20.105469 34.796875 20.652344 37.65625 21 40.714844 Z M 11.375 34.96875 C 11.375 38.328125 14.585938 41.113281 17.941406 41.113281 C 18.640625 41.113281 19.308594 41.066406 19.980469 40.964844 C 19.632812 37.804688 19.0625 34.871094 18.414062 31.910156 C 16.449219 32.109375 15.332031 33.429688 15.332031 34.871094 C 15.332031 35.964844 15.953125 37.132812 17.34375 37.929688 C 17.46875 38.054688 17.519531 38.179688 17.519531 38.304688 C 17.519531 38.578125 17.269531 38.851562 16.972656 38.851562 C 16.898438 38.851562 16.824219 38.824219 16.75 38.800781 C 14.757812 37.730469 13.839844 35.941406 13.839844 34.199219 C 13.839844 32.011719 15.28125 29.871094 17.816406 29.300781 C 17.46875 27.855469 17.097656 26.390625 16.675781 24.945312 C 14.011719 27.957031 11.375 30.992188 11.375 34.96875 Z M 17.867188 42.183594 C 13.191406 42.183594 9.585938 37.90625 9.585938 32.882812 C 9.585938 28.480469 12.84375 25.269531 15.753906 21.914062 C 15.28125 20.371094 14.832031 18.804688 14.632812 17.1875 C 14.484375 15.894531 14.460938 14.601562 14.460938 13.308594 C 14.460938 10.445312 15.828125 7.734375 18.167969 6.042969 C 18.316406 5.917969 18.515625 5.917969 18.664062 6.042969 C 20.429688 8.132812 21.972656 12.136719 21.972656 14.949219 C 21.972656 18.503906 19.832031 21.289062 17.496094 24 C 18.015625 25.691406 18.464844 27.433594 18.886719 29.152344 C 18.988281 29.152344 19.113281 29.125 19.210938 29.125 C 23.066406 29.125 25.578125 32.308594 25.578125 35.617188 C 25.578125 37.507812 24.757812 39.449219 22.917969 40.839844 C 22.371094 41.261719 21.746094 41.535156 21.101562 41.734375 C 21.175781 42.605469 21.226562 43.476562 21.226562 44.347656 C 21.226562 44.820312 21.199219 45.316406 21.175781 45.789062 C 21 48.75 18.988281 51.386719 16.152344 51.460938 L 16.175781 50.390625 C 18.488281 50.34375 19.980469 48.101562 20.132812 45.640625 C 20.15625 45.191406 20.179688 44.722656 20.179688 44.273438 C 20.179688 43.503906 20.15625 42.753906 20.082031 41.984375 C 19.359375 42.109375 18.640625 42.183594 17.867188 42.183594 Z M 20.179688 12.882812 C 20.179688 11.515625 20.082031 10.917969 19.683594 9.675781 C 17.222656 10.871094 15.652344 13.382812 15.652344 16.117188 C 15.652344 17.957031 16.101562 19.425781 16.550781 20.941406 C 18.539062 18.53125 20.179688 16.019531 20.179688 12.882812 Z M 20.179688 12.882812 "/>
<path style=" stroke:none;fill-rule:nonzero;fill:rgb(0%,0%,0%);fill-opacity:1;" d="M 63.003906 19.847656 C 64.371094 19.847656 65.691406 20.542969 65.691406 22.0625 C 65.691406 23.828125 64.320312 25.070312 63.152344 25.769531 C 62.28125 26.289062 61.289062 26.613281 60.265625 26.613281 C 58.898438 26.613281 57.582031 25.917969 57.582031 24.398438 C 57.582031 22.632812 58.949219 21.390625 60.117188 20.695312 C 60.988281 20.171875 61.984375 19.847656 63.003906 19.847656 Z M 63.003906 19.847656 "/>
<path style=" stroke:none;fill-rule:nonzero;fill:rgb(0%,0%,0%);fill-opacity:1;" d="M 63.003906 26.066406 C 64.371094 26.066406 65.691406 26.761719 65.691406 28.28125 C 65.691406 30.046875 64.320312 31.289062 63.152344 31.984375 C 62.28125 32.507812 61.289062 32.832031 60.265625 32.832031 C 58.898438 32.832031 57.582031 32.136719 57.582031 30.617188 C 57.582031 28.851562 58.949219 27.609375 60.117188 26.910156 C 60.988281 26.390625 61.984375 26.066406 63.003906 26.066406 Z M 63.003906 26.066406 "/>
<path style=" stroke:none;fill-rule:nonzero;fill:rgb(0%,0%,0%);fill-opacity:1;" d="M 63.003906 32.285156 C 64.371094 32.285156 65.691406 32.980469 65.691406 34.5 C 65.691406 36.265625 64.320312 37.507812 63.152344 38.203125 C 62.28125 38.726562 61.289062 39.050781 60.265625 39.050781 C 58.898438 39.050781 57.582031 38.351562 57.582031 36.835938 C 57.582031 35.070312 58.949219 33.828125 60.117188 33.128906 C 60.988281 32.609375 61.984375 32.285156 63.003906 32.285156 Z M 63.003906 32.285156 "/>
<path style=" stroke:none;fill-rule:nonzero;fill:rgb(0%,0%,0%);fill-opacity:1;" d="M 63.003906 38.503906 C 64.371094 38.503906 65.691406 39.199219 65.691406 40.714844 C 65.691406 42.480469 64.320312 43.726562 63.152344 44.421875 C 62.28125 44.945312 61.289062 45.269531 60.265625 45.269531 C 58.898438 45.269531 57.582031 44.570312 57.582031 43.054688 C 57.582031 41.289062 58.949219 40.042969 60.117188 39.347656 C 60.988281 38.824219 61.984375 38.503906 63.003906 38.503906 Z M 63.003906 38.503906 "/>
</g>
</svg>
