<?xml version="1.0" encoding="UTF-8"?>
<svg xmlns="http://www.w3.org/2000/svg" xmlns:xlink="http://www.w3.org/1999/xlink" width="68.472344pt" height="54.570949pt" viewBox="0 0 68.472344 54.570949" version="1.1">
<g id="surface1">
<path style="fill:none;stroke-width:0.1;stroke-linecap:round;stroke-linejoin:round;stroke:rgb(0%,0%,0%);stroke-opacity:1;stroke-miterlimit:4;" d="M 0.049863 -0.0000416676 L 8.752337 -0.0000416676 " transform="matrix(6.218149,0,0,6.218149,4.561038,39.812759)"/>
<path style="fill:none;stroke-width:0.1;stroke-linecap:round;stroke-linejoin:round;stroke:rgb(0%,0%,0%);stroke-opacity:1;stroke-miterlimit:4;" d="M 0.049863 -0.000138316 L 8.752337 -0.000138316 " transform="matrix(6.218149,0,0,6.218149,4.561038,33.59461)"/>
<path style="fill:none;stroke-width:0.1;stroke-linecap:round;stroke-linejoin:round;stroke:rgb(0%,0%,0%);stroke-opacity:1;stroke-miterlimit:4;" d="M 0.049863 -0.000234965 L 8.752337 -0.000234965 " transform="matrix(6.218149,0,0,6.218149,4.561038,27.376461)"/>
<path style="fill:none;stroke-width:0.1;stroke-linecap:round;stroke-linejoin:round;stroke:rgb(0%,0%,0%);stroke-opacity:1;stroke-miterlimit:4;" d="M 0.049863 0.000296588 L 8.752337 0.000296588 " transform="matrix(6.218149,0,0,6.218149,4.561038,21.158312)"/>
<path style="fill:none;stroke-width:0.1;stroke-linecap:round;stroke-linejoin:round;stroke:rgb(0%,0%,0%);stroke-opacity:1;stroke-miterlimit:4;" d="M 0.049863 0.000199939 L 8.752337 0.000199939 " transform="matrix(6.218149,0,0,6.218149,4.561038,14.940163)"/>
<path style=" stroke:none;fill-rule:nonzero;fill:rgb(0%,0%,0%);fill-opacity:1;" d="M 48.175781 4.578125 L 48.488281 4.578125 C 48.625 4.578125 48.734375 4.6875 48.734375 4.824219 L 48.734375 41.515625 C 48.734375 41.652344 48.625 41.765625 48.488281 41.765625 L 48.175781 41.765625 C 48.039062 41.765625 47.925781 41.652344 47.925781 41.515625 L 47.925781 4.824219 C 47.925781 4.6875 48.039062 4.578125 48.175781 4.578125 Z M 48.175781 4.578125 "/>
<path style=" stroke:none;fill-rule:nonzero;fill:rgb(0%,0%,0%);fill-opacity:1;" d="M 23.390625 24.265625 C 23.390625 23.570312 23.960938 23 24.65625 23 C 25.355469 23 25.925781 23.570312 25.925781 24.265625 C 25.925781 24.964844 25.355469 25.535156 24.65625 25.535156 C 23.960938 25.535156 23.390625 24.964844 23.390625 24.265625 Z M 23.390625 18.050781 C 23.390625 17.351562 23.960938 16.78125 24.65625 16.78125 C 25.355469 16.78125 25.925781 17.351562 25.925781 18.050781 C 25.925781 18.746094 25.355469 19.316406 24.65625 19.316406 C 23.960938 19.316406 23.390625 18.746094 23.390625 18.050781 Z M 15.304688 14.617188 C 19.585938 14.617188 22.59375 16.804688 22.59375 20.859375 C 22.59375 27.402344 16.050781 31.15625 9.757812 33.820312 C 9.683594 33.894531 9.609375 33.917969 9.535156 33.917969 C 9.363281 33.917969 9.210938 33.769531 9.210938 33.59375 C 9.210938 33.519531 9.238281 33.445312 9.3125 33.371094 C 14.335938 30.4375 19.558594 26.78125 19.558594 21.109375 C 19.558594 18.125 17.992188 15.261719 15.304688 15.261719 C 13.464844 15.261719 12.097656 16.605469 11.476562 18.398438 C 11.75 18.273438 12.023438 18.199219 12.320312 18.199219 C 13.6875 18.199219 14.808594 19.316406 14.808594 20.6875 C 14.808594 22.128906 13.714844 23.320312 12.320312 23.320312 C 10.828125 23.320312 9.535156 22.152344 9.535156 20.6875 C 9.535156 17.378906 12.074219 14.617188 15.304688 14.617188 Z M 15.304688 14.617188 "/>
<path style=" stroke:none;fill-rule:nonzero;fill:rgb(0%,0%,0%);fill-opacity:1;" d="M 46.046875 20.882812 C 47.417969 20.882812 48.734375 21.582031 48.734375 23.097656 C 48.734375 24.863281 47.367188 26.109375 46.199219 26.804688 C 45.328125 27.328125 44.332031 27.648438 43.3125 27.648438 C 41.945312 27.648438 40.625 26.953125 40.625 25.4375 C 40.625 23.671875 41.996094 22.425781 43.164062 21.730469 C 44.035156 21.207031 45.027344 20.882812 46.046875 20.882812 Z M 46.046875 20.882812 "/>
<path style=" stroke:none;fill-rule:nonzero;fill:rgb(0%,0%,0%);fill-opacity:1;" d="M 46.046875 27.101562 C 47.417969 27.101562 48.734375 27.800781 48.734375 29.316406 C 48.734375 31.082031 47.367188 32.324219 46.199219 33.023438 C 45.328125 33.542969 44.332031 33.867188 43.3125 33.867188 C 41.945312 33.867188 40.625 33.171875 40.625 31.65625 C 40.625 29.886719 41.996094 28.644531 43.164062 27.949219 C 44.035156 27.425781 45.027344 27.101562 46.046875 27.101562 Z M 46.046875 27.101562 "/>
<path style=" stroke:none;fill-rule:nonzero;fill:rgb(0%,0%,0%);fill-opacity:1;" d="M 46.046875 33.320312 C 47.417969 33.320312 48.734375 34.015625 48.734375 35.535156 C 48.734375 37.300781 47.367188 38.542969 46.199219 39.242188 C 45.328125 39.761719 44.332031 40.085938 43.3125 40.085938 C 41.945312 40.085938 40.625 39.390625 40.625 37.871094 C 40.625 36.105469 41.996094 34.863281 43.164062 34.167969 C 44.035156 33.644531 45.027344 33.320312 46.046875 33.320312 Z M 46.046875 33.320312 "/>
<path style=" stroke:none;fill-rule:nonzero;fill:rgb(0%,0%,0%);fill-opacity:1;" d="M 46.046875 39.539062 C 47.417969 39.539062 48.734375 40.234375 48.734375 41.753906 C 48.734375 43.519531 47.367188 44.761719 46.199219 45.457031 C 45.328125 45.980469 44.332031 46.304688 43.3125 46.304688 C 41.945312 46.304688 40.625 45.609375 40.625 44.089844 C 40.625 42.324219 41.996094 41.082031 43.164062 40.386719 C 44.035156 39.863281 45.027344 39.539062 46.046875 39.539062 Z M 46.046875 39.539062 "/>
</g>
</svg>
