<?xml version="1.0" encoding="UTF-8"?>
<svg xmlns="http://www.w3.org/2000/svg" xmlns:xlink="http://www.w3.org/1999/xlink" width="68.472344pt" height="52.356583pt" viewBox="0 0 68.472344 52.356583" version="1.1">
<g id="surface1">
<path style="fill:none;stroke-width:0.1;stroke-linecap:round;stroke-linejoin:round;stroke:rgb(0%,0%,0%);stroke-opacity:1;stroke-miterlimit:4;" d="M 0.049863 -0.000217086 L 8.752337 -0.000217086 " transform="matrix(6.218149,0,0,6.218149,4.561038,37.739631)"/>
<path style="fill:none;stroke-width:0.1;stroke-linecap:round;stroke-linejoin:round;stroke:rgb(0%,0%,0%);stroke-opacity:1;stroke-miterlimit:4;" d="M 0.049863 -0.000313735 L 8.752337 -0.000313735 " transform="matrix(6.218149,0,0,6.218149,4.561038,31.521482)"/>
<path style="fill:none;stroke-width:0.1;stroke-linecap:round;stroke-linejoin:round;stroke:rgb(0%,0%,0%);stroke-opacity:1;stroke-miterlimit:4;" d="M 0.049863 0.000217818 L 8.752337 0.000217818 " transform="matrix(6.218149,0,0,6.218149,4.561038,25.303333)"/>
<path style="fill:none;stroke-width:0.1;stroke-linecap:round;stroke-linejoin:round;stroke:rgb(0%,0%,0%);stroke-opacity:1;stroke-miterlimit:4;" d="M 0.049863 0.000121169 L 8.752337 0.000121169 " transform="matrix(6.218149,0,0,6.218149,4.561038,19.085184)"/>
<path style="fill:none;stroke-width:0.1;stroke-linecap:round;stroke-linejoin:round;stroke:rgb(0%,0%,0%);stroke-opacity:1;stroke-miterlimit:4;" d="M 0.049863 0.0000245208 L 8.752337 0.0000245208 " transform="matrix(6.218149,0,0,6.218149,4.561038,12.867035)"/>
<path style=" stroke:none;fill-rule:nonzero;fill:rgb(0%,0%,0%);fill-opacity:1;" d="M 48.175781 4.578125 L 48.488281 4.578125 C 48.625 4.578125 48.734375 4.6875 48.734375 4.824219 L 48.734375 39.441406 C 48.734375 39.582031 48.625 39.691406 48.488281 39.691406 L 48.175781 39.691406 C 48.039062 39.691406 47.925781 39.582031 47.925781 39.441406 L 47.925781 4.824219 C 47.925781 4.6875 48.039062 4.578125 48.175781 4.578125 Z M 48.175781 4.578125 "/>
<path style=" stroke:none;fill-rule:nonzero;fill:rgb(0%,0%,0%);fill-opacity:1;" d="M 23.390625 22.195312 C 23.390625 21.496094 23.960938 20.925781 24.65625 20.925781 C 25.355469 20.925781 25.925781 21.496094 25.925781 22.195312 C 25.925781 22.890625 25.355469 23.460938 24.65625 23.460938 C 23.960938 23.460938 23.390625 22.890625 23.390625 22.195312 Z M 23.390625 15.976562 C 23.390625 15.28125 23.960938 14.707031 24.65625 14.707031 C 25.355469 14.707031 25.925781 15.28125 25.925781 15.976562 C 25.925781 16.671875 25.355469 17.246094 24.65625 17.246094 C 23.960938 17.246094 23.390625 16.671875 23.390625 15.976562 Z M 15.304688 12.542969 C 19.585938 12.542969 22.59375 14.734375 22.59375 18.785156 C 22.59375 25.328125 16.050781 29.082031 9.757812 31.746094 C 9.683594 31.820312 9.609375 31.84375 9.535156 31.84375 C 9.363281 31.84375 9.210938 31.695312 9.210938 31.519531 C 9.210938 31.445312 9.238281 31.371094 9.3125 31.296875 C 14.335938 28.363281 19.558594 24.707031 19.558594 19.035156 C 19.558594 16.050781 17.992188 13.191406 15.304688 13.191406 C 13.464844 13.191406 12.097656 14.535156 11.476562 16.324219 C 11.75 16.199219 12.023438 16.125 12.320312 16.125 C 13.6875 16.125 14.808594 17.246094 14.808594 18.613281 C 14.808594 20.054688 13.714844 21.25 12.320312 21.25 C 10.828125 21.25 9.535156 20.082031 9.535156 18.613281 C 9.535156 15.304688 12.074219 12.542969 15.304688 12.542969 Z M 15.304688 12.542969 "/>
<path style=" stroke:none;fill-rule:nonzero;fill:rgb(0%,0%,0%);fill-opacity:1;" d="M 53.753906 21.921875 C 55.121094 21.921875 56.441406 22.617188 56.441406 24.132812 C 56.441406 25.898438 55.074219 27.144531 53.902344 27.839844 C 53.03125 28.363281 52.039062 28.6875 51.019531 28.6875 C 49.648438 28.6875 48.332031 27.988281 48.332031 26.472656 C 48.332031 24.707031 49.699219 23.460938 50.867188 22.765625 C 51.738281 22.242188 52.734375 21.921875 53.753906 21.921875 Z M 53.753906 21.921875 "/>
<path style=" stroke:none;fill-rule:nonzero;fill:rgb(0%,0%,0%);fill-opacity:1;" d="M 46.046875 25.03125 C 47.417969 25.03125 48.734375 25.726562 48.734375 27.242188 C 48.734375 29.007812 47.367188 30.253906 46.199219 30.949219 C 45.328125 31.472656 44.332031 31.796875 43.3125 31.796875 C 41.945312 31.796875 40.625 31.097656 40.625 29.582031 C 40.625 27.816406 41.996094 26.570312 43.164062 25.875 C 44.035156 25.351562 45.027344 25.03125 46.046875 25.03125 Z M 46.046875 25.03125 "/>
<path style=" stroke:none;fill-rule:nonzero;fill:rgb(0%,0%,0%);fill-opacity:1;" d="M 46.046875 31.246094 C 47.417969 31.246094 48.734375 31.945312 48.734375 33.460938 C 48.734375 35.226562 47.367188 36.472656 46.199219 37.167969 C 45.328125 37.691406 44.332031 38.011719 43.3125 38.011719 C 41.945312 38.011719 40.625 37.316406 40.625 35.800781 C 40.625 34.035156 41.996094 32.789062 43.164062 32.09375 C 44.035156 31.570312 45.027344 31.246094 46.046875 31.246094 Z M 46.046875 31.246094 "/>
<path style=" stroke:none;fill-rule:nonzero;fill:rgb(0%,0%,0%);fill-opacity:1;" d="M 46.046875 37.464844 C 47.417969 37.464844 48.734375 38.164062 48.734375 39.679688 C 48.734375 41.445312 47.367188 42.6875 46.199219 43.386719 C 45.328125 43.90625 44.332031 44.230469 43.3125 44.230469 C 41.945312 44.230469 40.625 43.535156 40.625 42.019531 C 40.625 40.25 41.996094 39.007812 43.164062 38.3125 C 44.035156 37.789062 45.027344 37.464844 46.046875 37.464844 Z M 46.046875 37.464844 "/>
</g>
</svg>
