<?xml version="1.0" encoding="UTF-8"?>
<svg xmlns="http://www.w3.org/2000/svg" xmlns:xlink="http://www.w3.org/1999/xlink" width="81.616415pt" height="61.666356pt" viewBox="0 0 81.616415 61.666356" version="1.1">
<g id="surface1">
<path style="fill:none;stroke-width:0.1;stroke-linecap:round;stroke-linejoin:round;stroke:rgb(0%,0%,0%);stroke-opacity:1;stroke-miterlimit:4;" d="M 0.049863 -0.000287501 L 10.731172 -0.000287501 " transform="matrix(6.218149,0,0,6.218149,4.561038,40.517413)"/>
<path style="fill:none;stroke-width:0.1;stroke-linecap:round;stroke-linejoin:round;stroke:rgb(0%,0%,0%);stroke-opacity:1;stroke-miterlimit:4;" d="M 0.049863 0.000244052 L 10.731172 0.000244052 " transform="matrix(6.218149,0,0,6.218149,4.561038,34.299264)"/>
<path style="fill:none;stroke-width:0.1;stroke-linecap:round;stroke-linejoin:round;stroke:rgb(0%,0%,0%);stroke-opacity:1;stroke-miterlimit:4;" d="M 0.049863 0.000147403 L 10.731172 0.000147403 " transform="matrix(6.218149,0,0,6.218149,4.561038,28.081115)"/>
<path style="fill:none;stroke-width:0.1;stroke-linecap:round;stroke-linejoin:round;stroke:rgb(0%,0%,0%);stroke-opacity:1;stroke-miterlimit:4;" d="M 0.049863 0.0000507548 L 10.731172 0.0000507548 " transform="matrix(6.218149,0,0,6.218149,4.561038,21.862966)"/>
<path style="fill:none;stroke-width:0.1;stroke-linecap:round;stroke-linejoin:round;stroke:rgb(0%,0%,0%);stroke-opacity:1;stroke-miterlimit:4;" d="M 0.049863 -0.0000458938 L 10.731172 -0.0000458938 " transform="matrix(6.218149,0,0,6.218149,4.561038,15.644817)"/>
<path style=" stroke:none;fill-rule:nonzero;fill:rgb(0%,0%,0%);fill-opacity:1;" d="M 53.179688 23.019531 L 53.492188 23.019531 C 53.628906 23.019531 53.742188 23.132812 53.742188 23.269531 L 53.742188 52.703125 C 53.742188 52.84375 53.628906 52.953125 53.492188 52.953125 L 53.179688 52.953125 C 53.042969 52.953125 52.933594 52.84375 52.933594 52.703125 L 52.933594 23.269531 C 52.933594 23.132812 53.042969 23.019531 53.179688 23.019531 Z M 53.179688 23.019531 "/>
<path style=" stroke:none;fill-rule:nonzero;fill:rgb(0%,0%,0%);fill-opacity:1;" d="M 49.289062 29.625 C 49.289062 29.871094 49.089844 30.097656 48.839844 30.097656 C 48.589844 30.097656 48.367188 29.871094 48.367188 29.625 L 48.367188 26.015625 L 46.304688 26.789062 L 46.304688 30.71875 C 46.304688 30.964844 46.078125 31.191406 45.832031 31.191406 C 45.582031 31.191406 45.382812 30.964844 45.382812 30.71875 L 45.382812 27.109375 L 44.585938 27.410156 C 44.539062 27.433594 44.464844 27.433594 44.414062 27.433594 C 44.140625 27.433594 43.914062 27.210938 43.914062 26.9375 L 43.914062 25.445312 C 43.914062 25.246094 44.039062 25.046875 44.238281 24.972656 L 45.382812 24.574219 L 45.382812 20.59375 L 44.585938 20.867188 C 44.539062 20.894531 44.464844 20.894531 44.414062 20.894531 C 44.140625 20.894531 43.914062 20.667969 43.914062 20.394531 L 43.914062 18.902344 C 43.914062 18.703125 44.039062 18.53125 44.238281 18.457031 L 45.382812 18.03125 L 45.382812 14.101562 C 45.382812 13.855469 45.582031 13.628906 45.832031 13.628906 C 46.078125 13.628906 46.304688 13.855469 46.304688 14.101562 L 46.304688 17.710938 L 48.367188 16.9375 L 48.367188 13.007812 C 48.367188 12.757812 48.589844 12.535156 48.839844 12.535156 C 49.089844 12.535156 49.289062 12.757812 49.289062 13.007812 L 49.289062 16.613281 L 50.085938 16.316406 C 50.132812 16.292969 50.207031 16.292969 50.257812 16.292969 C 50.53125 16.292969 50.753906 16.515625 50.753906 16.789062 L 50.753906 18.28125 C 50.753906 18.480469 50.632812 18.679688 50.433594 18.753906 L 49.289062 19.152344 L 49.289062 23.132812 L 50.085938 22.859375 C 50.132812 22.832031 50.207031 22.832031 50.257812 22.832031 C 50.53125 22.832031 50.753906 23.058594 50.753906 23.332031 L 50.753906 24.824219 C 50.753906 25.023438 50.632812 25.195312 50.433594 25.269531 L 49.289062 25.691406 Z M 46.304688 20.246094 L 46.304688 24.226562 L 48.367188 23.480469 L 48.367188 19.5 Z M 46.304688 20.246094 "/>
<path style=" stroke:none;fill-rule:nonzero;fill:rgb(0%,0%,0%);fill-opacity:1;" d="M 34.589844 35.839844 C 34.589844 36.089844 34.390625 36.3125 34.140625 36.3125 C 33.890625 36.3125 33.667969 36.089844 33.667969 35.839844 L 33.667969 32.234375 L 31.605469 33.007812 L 31.605469 36.9375 C 31.605469 37.183594 31.378906 37.410156 31.132812 37.410156 C 30.882812 37.410156 30.683594 37.183594 30.683594 36.9375 L 30.683594 33.328125 L 29.886719 33.628906 C 29.835938 33.652344 29.761719 33.652344 29.714844 33.652344 C 29.441406 33.652344 29.214844 33.429688 29.214844 33.15625 L 29.214844 31.664062 C 29.214844 31.464844 29.339844 31.265625 29.539062 31.191406 L 30.683594 30.792969 L 30.683594 26.8125 L 29.886719 27.085938 C 29.835938 27.109375 29.761719 27.109375 29.714844 27.109375 C 29.441406 27.109375 29.214844 26.886719 29.214844 26.613281 L 29.214844 25.121094 C 29.214844 24.921875 29.339844 24.75 29.539062 24.671875 L 30.683594 24.25 L 30.683594 20.320312 C 30.683594 20.070312 30.882812 19.847656 31.132812 19.847656 C 31.378906 19.847656 31.605469 20.070312 31.605469 20.320312 L 31.605469 23.925781 L 33.667969 23.15625 L 33.667969 19.226562 C 33.667969 18.976562 33.890625 18.753906 34.140625 18.753906 C 34.390625 18.753906 34.589844 18.976562 34.589844 19.226562 L 34.589844 22.832031 L 35.382812 22.535156 C 35.433594 22.507812 35.507812 22.507812 35.558594 22.507812 C 35.832031 22.507812 36.054688 22.734375 36.054688 23.007812 L 36.054688 24.5 C 36.054688 24.699219 35.929688 24.898438 35.734375 24.972656 L 34.589844 25.371094 L 34.589844 29.351562 L 35.382812 29.074219 C 35.433594 29.050781 35.507812 29.050781 35.558594 29.050781 C 35.832031 29.050781 36.054688 29.273438 36.054688 29.546875 L 36.054688 31.039062 C 36.054688 31.238281 35.929688 31.414062 35.734375 31.488281 L 34.589844 31.910156 Z M 31.605469 26.464844 L 31.605469 30.445312 L 33.667969 29.699219 L 33.667969 25.71875 Z M 31.605469 26.464844 "/>
<path style=" stroke:none;fill-rule:nonzero;fill:rgb(0%,0%,0%);fill-opacity:1;" d="M 42.671875 42.058594 C 42.671875 42.308594 42.472656 42.53125 42.222656 42.53125 C 41.976562 42.53125 41.75 42.308594 41.75 42.058594 L 41.75 38.453125 L 39.6875 39.222656 L 39.6875 43.152344 C 39.6875 43.402344 39.464844 43.625 39.214844 43.625 C 38.964844 43.625 38.765625 43.402344 38.765625 43.152344 L 38.765625 39.546875 L 37.972656 39.847656 C 37.921875 39.871094 37.847656 39.871094 37.796875 39.871094 C 37.523438 39.871094 37.300781 39.648438 37.300781 39.375 L 37.300781 37.882812 C 37.300781 37.683594 37.425781 37.484375 37.621094 37.410156 L 38.765625 37.011719 L 38.765625 33.03125 L 37.972656 33.304688 C 37.921875 33.328125 37.847656 33.328125 37.796875 33.328125 C 37.523438 33.328125 37.300781 33.105469 37.300781 32.832031 L 37.300781 31.339844 C 37.300781 31.140625 37.425781 30.964844 37.621094 30.890625 L 38.765625 30.46875 L 38.765625 26.539062 C 38.765625 26.289062 38.964844 26.066406 39.214844 26.066406 C 39.464844 26.066406 39.6875 26.289062 39.6875 26.539062 L 39.6875 30.144531 L 41.75 29.375 L 41.75 25.445312 C 41.75 25.195312 41.976562 24.972656 42.222656 24.972656 C 42.472656 24.972656 42.671875 25.195312 42.671875 25.445312 L 42.671875 29.050781 L 43.46875 28.753906 C 43.519531 28.726562 43.59375 28.726562 43.640625 28.726562 C 43.914062 28.726562 44.140625 28.953125 44.140625 29.226562 L 44.140625 30.71875 C 44.140625 30.917969 44.015625 31.117188 43.816406 31.191406 L 42.671875 31.589844 L 42.671875 35.566406 L 43.46875 35.292969 C 43.519531 35.269531 43.59375 35.269531 43.640625 35.269531 C 43.914062 35.269531 44.140625 35.492188 44.140625 35.765625 L 44.140625 37.257812 C 44.140625 37.457031 44.015625 37.632812 43.816406 37.707031 L 42.671875 38.128906 Z M 39.6875 32.683594 L 39.6875 36.664062 L 41.75 35.914062 L 41.75 31.9375 Z M 39.6875 32.683594 "/>
<path style=" stroke:none;fill-rule:nonzero;fill:rgb(0%,0%,0%);fill-opacity:1;" d="M 16.152344 50.09375 L 16.003906 50.09375 C 13.316406 50.09375 11.152344 47.90625 11.152344 45.195312 C 11.152344 43.75 12.46875 42.632812 13.9375 42.632812 C 15.28125 42.632812 16.300781 43.800781 16.300781 45.195312 C 16.300781 46.488281 15.230469 47.554688 13.9375 47.554688 C 13.664062 47.554688 13.414062 47.507812 13.167969 47.40625 C 13.8125 48.378906 14.859375 49.023438 16.078125 49.023438 L 16.175781 49.023438 Z M 21 39.347656 C 22.691406 38.75 23.8125 36.984375 23.8125 35.269531 C 23.8125 33.03125 22.171875 30.816406 19.507812 30.542969 C 20.105469 33.429688 20.652344 36.289062 21 39.347656 Z M 11.375 33.601562 C 11.375 36.960938 14.585938 39.746094 17.941406 39.746094 C 18.640625 39.746094 19.308594 39.695312 19.980469 39.597656 C 19.632812 36.4375 19.0625 33.503906 18.414062 30.542969 C 16.449219 30.742188 15.332031 32.0625 15.332031 33.503906 C 15.332031 34.597656 15.953125 35.765625 17.34375 36.5625 C 17.46875 36.6875 17.519531 36.8125 17.519531 36.9375 C 17.519531 37.210938 17.269531 37.484375 16.972656 37.484375 C 16.898438 37.484375 16.824219 37.457031 16.75 37.433594 C 14.757812 36.363281 13.839844 34.574219 13.839844 32.832031 C 13.839844 30.644531 15.28125 28.503906 17.816406 27.933594 C 17.46875 26.488281 17.097656 25.023438 16.675781 23.578125 C 14.011719 26.589844 11.375 29.625 11.375 33.601562 Z M 17.867188 40.816406 C 13.191406 40.816406 9.585938 36.539062 9.585938 31.511719 C 9.585938 27.109375 12.84375 23.902344 15.753906 20.542969 C 15.28125 19.003906 14.832031 17.4375 14.632812 15.820312 C 14.484375 14.527344 14.460938 13.230469 14.460938 11.9375 C 14.460938 9.078125 15.828125 6.367188 18.167969 4.675781 C 18.316406 4.550781 18.515625 4.550781 18.664062 4.675781 C 20.429688 6.765625 21.972656 10.769531 21.972656 13.582031 C 21.972656 17.136719 19.832031 19.921875 17.496094 22.632812 C 18.015625 24.324219 18.464844 26.066406 18.886719 27.78125 C 18.988281 27.78125 19.113281 27.757812 19.210938 27.757812 C 23.066406 27.757812 25.578125 30.941406 25.578125 34.25 C 25.578125 36.140625 24.757812 38.078125 22.917969 39.472656 C 22.371094 39.894531 21.746094 40.167969 21.101562 40.367188 C 21.175781 41.238281 21.226562 42.109375 21.226562 42.980469 C 21.226562 43.453125 21.199219 43.949219 21.175781 44.421875 C 21 47.382812 18.988281 50.019531 16.152344 50.09375 L 16.175781 49.023438 C 18.488281 48.972656 19.980469 46.734375 20.132812 44.273438 C 20.15625 43.824219 20.179688 43.351562 20.179688 42.90625 C 20.179688 42.132812 20.15625 41.386719 20.082031 40.617188 C 19.359375 40.742188 18.640625 40.816406 17.867188 40.816406 Z M 20.179688 11.515625 C 20.179688 10.148438 20.082031 9.550781 19.683594 8.308594 C 17.222656 9.5 15.652344 12.011719 15.652344 14.75 C 15.652344 16.589844 16.101562 18.058594 16.550781 19.574219 C 18.539062 17.160156 20.179688 14.648438 20.179688 11.515625 Z M 20.179688 11.515625 "/>
<path style=" stroke:none;fill-rule:nonzero;fill:rgb(0%,0%,0%);fill-opacity:1;" d="M 58.355469 18.480469 C 59.722656 18.480469 61.039062 19.175781 61.039062 20.695312 C 61.039062 22.460938 59.671875 23.703125 58.503906 24.398438 C 57.632812 24.921875 56.636719 25.246094 55.617188 25.246094 C 54.25 25.246094 52.933594 24.550781 52.933594 23.03125 C 52.933594 21.265625 54.300781 20.023438 55.46875 19.324219 C 56.339844 18.804688 57.335938 18.480469 58.355469 18.480469 Z M 58.355469 18.480469 "/>
<path style=" stroke:none;fill-rule:nonzero;fill:rgb(0%,0%,0%);fill-opacity:1;" d="M 58.355469 24.699219 C 59.722656 24.699219 61.039062 25.394531 61.039062 26.910156 C 61.039062 28.679688 59.671875 29.921875 58.503906 30.617188 C 57.632812 31.140625 56.636719 31.464844 55.617188 31.464844 C 54.25 31.464844 52.933594 30.765625 52.933594 29.25 C 52.933594 27.484375 54.300781 26.242188 55.46875 25.542969 C 56.339844 25.023438 57.335938 24.699219 58.355469 24.699219 Z M 58.355469 24.699219 "/>
<path style=" stroke:none;fill-rule:nonzero;fill:rgb(0%,0%,0%);fill-opacity:1;" d="M 58.355469 30.917969 C 59.722656 30.917969 61.039062 31.613281 61.039062 33.128906 C 61.039062 34.894531 59.671875 36.140625 58.503906 36.835938 C 57.632812 37.359375 56.636719 37.683594 55.617188 37.683594 C 54.25 37.683594 52.933594 36.984375 52.933594 35.46875 C 52.933594 33.703125 54.300781 32.457031 55.46875 31.761719 C 56.339844 31.238281 57.335938 30.917969 58.355469 30.917969 Z M 58.355469 30.917969 "/>
</g>
</svg>
