<?xml version="1.0" encoding="UTF-8"?>
<svg xmlns="http://www.w3.org/2000/svg" xmlns:xlink="http://www.w3.org/1999/xlink" width="81.269047pt" height="71.629017pt" viewBox="0 0 81.269047 71.629017" version="1.1">
<g id="surface1">
<path style="fill:none;stroke-width:0.1;stroke-linecap:round;stroke-linejoin:round;stroke:rgb(0%,0%,0%);stroke-opacity:1;stroke-miterlimit:4;" d="M 0.049863 -0.000287501 L 10.679031 -0.000287501 " transform="matrix(6.218149,0,0,6.218149,4.561038,40.517413)"/>
<path style="fill:none;stroke-width:0.1;stroke-linecap:round;stroke-linejoin:round;stroke:rgb(0%,0%,0%);stroke-opacity:1;stroke-miterlimit:4;" d="M 0.049863 0.000244052 L 10.679031 0.000244052 " transform="matrix(6.218149,0,0,6.218149,4.561038,34.299264)"/>
<path style="fill:none;stroke-width:0.1;stroke-linecap:round;stroke-linejoin:round;stroke:rgb(0%,0%,0%);stroke-opacity:1;stroke-miterlimit:4;" d="M 0.049863 0.000147403 L 10.679031 0.000147403 " transform="matrix(6.218149,0,0,6.218149,4.561038,28.081115)"/>
<path style="fill:none;stroke-width:0.1;stroke-linecap:round;stroke-linejoin:round;stroke:rgb(0%,0%,0%);stroke-opacity:1;stroke-miterlimit:4;" d="M 0.049863 0.0000507548 L 10.679031 0.0000507548 " transform="matrix(6.218149,0,0,6.218149,4.561038,21.862966)"/>
<path style="fill:none;stroke-width:0.1;stroke-linecap:round;stroke-linejoin:round;stroke:rgb(0%,0%,0%);stroke-opacity:1;stroke-miterlimit:4;" d="M 0.049863 -0.0000458938 L 10.679031 -0.0000458938 " transform="matrix(6.218149,0,0,6.218149,4.561038,15.644817)"/>
<path style=" stroke:none;fill-rule:nonzero;fill:rgb(0%,0%,0%);fill-opacity:1;" d="M 51.203125 46.113281 L 62.121094 46.113281 C 62.464844 46.113281 62.746094 46.390625 62.746094 46.734375 C 62.746094 47.078125 62.464844 47.355469 62.121094 47.355469 L 51.203125 47.355469 C 50.859375 47.355469 50.578125 47.078125 50.578125 46.734375 C 50.578125 46.390625 50.859375 46.113281 51.203125 46.113281 Z M 51.203125 46.113281 "/>
<path style=" stroke:none;fill-rule:nonzero;fill:rgb(0%,0%,0%);fill-opacity:1;" d="M 51.203125 52.332031 L 62.121094 52.332031 C 62.464844 52.332031 62.746094 52.609375 62.746094 52.953125 C 62.746094 53.296875 62.464844 53.574219 62.121094 53.574219 L 51.203125 53.574219 C 50.859375 53.574219 50.578125 53.296875 50.578125 52.953125 C 50.578125 52.609375 50.859375 52.332031 51.203125 52.332031 Z M 51.203125 52.332031 "/>
<path style=" stroke:none;fill-rule:nonzero;fill:rgb(0%,0%,0%);fill-opacity:1;" d="M 60.15625 18.753906 L 60.46875 18.753906 C 60.605469 18.753906 60.714844 18.867188 60.714844 19.003906 L 60.714844 51.546875 C 60.714844 51.683594 60.605469 51.796875 60.46875 51.796875 L 60.15625 51.796875 C 60.019531 51.796875 59.90625 51.683594 59.90625 51.546875 L 59.90625 19.003906 C 59.90625 18.867188 60.019531 18.753906 60.15625 18.753906 Z M 60.15625 18.753906 "/>
<path style=" stroke:none;fill-rule:nonzero;fill:rgb(0%,0%,0%);fill-opacity:1;" d="M 48.964844 48.277344 C 48.964844 48.527344 48.765625 48.75 48.515625 48.75 C 48.265625 48.75 48.042969 48.527344 48.042969 48.277344 L 48.042969 44.671875 L 45.976562 45.441406 L 45.976562 49.371094 C 45.976562 49.621094 45.753906 49.84375 45.503906 49.84375 C 45.257812 49.84375 45.058594 49.621094 45.058594 49.371094 L 45.058594 45.765625 L 44.261719 46.0625 C 44.210938 46.089844 44.136719 46.089844 44.089844 46.089844 C 43.8125 46.089844 43.589844 45.863281 43.589844 45.589844 L 43.589844 44.097656 C 43.589844 43.898438 43.714844 43.699219 43.914062 43.625 L 45.058594 43.230469 L 45.058594 39.25 L 44.261719 39.523438 C 44.210938 39.546875 44.136719 39.546875 44.089844 39.546875 C 43.8125 39.546875 43.589844 39.324219 43.589844 39.050781 L 43.589844 37.558594 C 43.589844 37.359375 43.714844 37.183594 43.914062 37.109375 L 45.058594 36.6875 L 45.058594 32.757812 C 45.058594 32.507812 45.257812 32.285156 45.503906 32.285156 C 45.753906 32.285156 45.976562 32.507812 45.976562 32.757812 L 45.976562 36.363281 L 48.042969 35.59375 L 48.042969 31.664062 C 48.042969 31.414062 48.265625 31.191406 48.515625 31.191406 C 48.765625 31.191406 48.964844 31.414062 48.964844 31.664062 L 48.964844 35.269531 L 49.757812 34.972656 C 49.808594 34.945312 49.882812 34.945312 49.933594 34.945312 C 50.207031 34.945312 50.429688 35.167969 50.429688 35.445312 L 50.429688 36.9375 C 50.429688 37.132812 50.304688 37.332031 50.105469 37.410156 L 48.964844 37.804688 L 48.964844 41.785156 L 49.757812 41.511719 C 49.808594 41.488281 49.882812 41.488281 49.933594 41.488281 C 50.207031 41.488281 50.429688 41.710938 50.429688 41.984375 L 50.429688 43.476562 C 50.429688 43.675781 50.304688 43.851562 50.105469 43.925781 L 48.964844 44.347656 Z M 45.976562 38.902344 L 45.976562 42.878906 L 48.042969 42.132812 L 48.042969 38.15625 Z M 45.976562 38.902344 "/>
<path style=" stroke:none;fill-rule:nonzero;fill:rgb(0%,0%,0%);fill-opacity:1;" d="M 32.996094 46.734375 C 33.570312 47.308594 34.390625 47.433594 35.210938 47.433594 C 35.359375 47.433594 35.460938 47.53125 35.460938 47.679688 L 35.683594 49.84375 C 35.707031 49.992188 35.582031 50.117188 35.433594 50.09375 L 33.269531 49.871094 C 33.144531 49.84375 33.023438 49.746094 33.023438 49.621094 C 33.023438 48.800781 32.898438 47.980469 32.324219 47.40625 C 31.753906 47.980469 31.652344 48.800781 31.652344 49.621094 C 31.652344 49.746094 31.527344 49.84375 31.40625 49.871094 L 29.214844 50.09375 C 29.066406 50.117188 28.941406 49.992188 28.96875 49.84375 L 29.191406 47.679688 C 29.191406 47.53125 29.289062 47.433594 29.441406 47.433594 C 30.261719 47.433594 31.082031 47.308594 31.652344 46.734375 C 31.082031 46.164062 30.261719 46.039062 29.441406 46.039062 C 29.289062 46.039062 29.191406 45.941406 29.191406 45.789062 L 28.96875 43.625 C 28.941406 43.476562 29.066406 43.351562 29.214844 43.378906 L 31.40625 43.601562 C 31.527344 43.625 31.628906 43.726562 31.628906 43.851562 C 31.628906 44.671875 31.753906 45.492188 32.324219 46.0625 C 32.898438 45.492188 33.023438 44.671875 33.023438 43.851562 C 33.023438 43.726562 33.144531 43.625 33.269531 43.601562 L 35.433594 43.378906 C 35.582031 43.351562 35.707031 43.476562 35.683594 43.625 L 35.460938 45.789062 C 35.460938 45.941406 35.359375 46.039062 35.210938 46.039062 C 34.390625 46.039062 33.570312 46.164062 32.996094 46.734375 Z M 32.996094 46.734375 "/>
<path style=" stroke:none;fill-rule:nonzero;fill:rgb(0%,0%,0%);fill-opacity:1;" d="M 42.347656 60.714844 C 42.347656 60.960938 42.148438 61.1875 41.898438 61.1875 C 41.652344 61.1875 41.425781 60.960938 41.425781 60.714844 L 41.425781 57.109375 L 39.363281 57.878906 L 39.363281 61.808594 C 39.363281 62.058594 39.136719 62.28125 38.890625 62.28125 C 38.640625 62.28125 38.441406 62.058594 38.441406 61.808594 L 38.441406 58.203125 L 37.644531 58.5 C 37.597656 58.523438 37.523438 58.523438 37.472656 58.523438 C 37.199219 58.523438 36.972656 58.300781 36.972656 58.027344 L 36.972656 56.535156 C 36.972656 56.335938 37.097656 56.136719 37.296875 56.0625 L 38.441406 55.664062 L 38.441406 51.683594 L 37.644531 51.957031 C 37.597656 51.984375 37.523438 51.984375 37.472656 51.984375 C 37.199219 51.984375 36.972656 51.761719 36.972656 51.484375 L 36.972656 49.992188 C 36.972656 49.792969 37.097656 49.621094 37.296875 49.546875 L 38.441406 49.125 L 38.441406 45.195312 C 38.441406 44.945312 38.640625 44.722656 38.890625 44.722656 C 39.136719 44.722656 39.363281 44.945312 39.363281 45.195312 L 39.363281 48.800781 L 41.425781 48.027344 L 41.425781 44.097656 C 41.425781 43.851562 41.652344 43.625 41.898438 43.625 C 42.148438 43.625 42.347656 43.851562 42.347656 44.097656 L 42.347656 47.707031 L 43.144531 47.40625 C 43.191406 47.382812 43.265625 47.382812 43.316406 47.382812 C 43.589844 47.382812 43.8125 47.605469 43.8125 47.878906 L 43.8125 49.371094 C 43.8125 49.570312 43.691406 49.769531 43.492188 49.84375 L 42.347656 50.242188 L 42.347656 54.222656 L 43.144531 53.949219 C 43.191406 53.921875 43.265625 53.921875 43.316406 53.921875 C 43.589844 53.921875 43.8125 54.148438 43.8125 54.421875 L 43.8125 55.914062 C 43.8125 56.113281 43.691406 56.285156 43.492188 56.359375 L 42.347656 56.785156 Z M 39.363281 51.335938 L 39.363281 55.316406 L 41.425781 54.570312 L 41.425781 50.589844 Z M 39.363281 51.335938 "/>
<path style=" stroke:none;fill-rule:nonzero;fill:rgb(0%,0%,0%);fill-opacity:1;" d="M 16.152344 50.09375 L 16.003906 50.09375 C 13.316406 50.09375 11.152344 47.90625 11.152344 45.195312 C 11.152344 43.75 12.46875 42.632812 13.9375 42.632812 C 15.28125 42.632812 16.300781 43.800781 16.300781 45.195312 C 16.300781 46.488281 15.230469 47.554688 13.9375 47.554688 C 13.664062 47.554688 13.414062 47.507812 13.167969 47.40625 C 13.8125 48.378906 14.859375 49.023438 16.078125 49.023438 L 16.175781 49.023438 Z M 21 39.347656 C 22.691406 38.75 23.8125 36.984375 23.8125 35.269531 C 23.8125 33.03125 22.171875 30.816406 19.507812 30.542969 C 20.105469 33.429688 20.652344 36.289062 21 39.347656 Z M 11.375 33.601562 C 11.375 36.960938 14.585938 39.746094 17.941406 39.746094 C 18.640625 39.746094 19.308594 39.695312 19.980469 39.597656 C 19.632812 36.4375 19.0625 33.503906 18.414062 30.542969 C 16.449219 30.742188 15.332031 32.0625 15.332031 33.503906 C 15.332031 34.597656 15.953125 35.765625 17.34375 36.5625 C 17.46875 36.6875 17.519531 36.8125 17.519531 36.9375 C 17.519531 37.210938 17.269531 37.484375 16.972656 37.484375 C 16.898438 37.484375 16.824219 37.457031 16.75 37.433594 C 14.757812 36.363281 13.839844 34.574219 13.839844 32.832031 C 13.839844 30.644531 15.28125 28.503906 17.816406 27.933594 C 17.46875 26.488281 17.097656 25.023438 16.675781 23.578125 C 14.011719 26.589844 11.375 29.625 11.375 33.601562 Z M 17.867188 40.816406 C 13.191406 40.816406 9.585938 36.539062 9.585938 31.511719 C 9.585938 27.109375 12.84375 23.902344 15.753906 20.542969 C 15.28125 19.003906 14.832031 17.4375 14.632812 15.820312 C 14.484375 14.527344 14.460938 13.230469 14.460938 11.9375 C 14.460938 9.078125 15.828125 6.367188 18.167969 4.675781 C 18.316406 4.550781 18.515625 4.550781 18.664062 4.675781 C 20.429688 6.765625 21.972656 10.769531 21.972656 13.582031 C 21.972656 17.136719 19.832031 19.921875 17.496094 22.632812 C 18.015625 24.324219 18.464844 26.066406 18.886719 27.78125 C 18.988281 27.78125 19.113281 27.757812 19.210938 27.757812 C 23.066406 27.757812 25.578125 30.941406 25.578125 34.25 C 25.578125 36.140625 24.757812 38.078125 22.917969 39.472656 C 22.371094 39.894531 21.746094 40.167969 21.101562 40.367188 C 21.175781 41.238281 21.226562 42.109375 21.226562 42.980469 C 21.226562 43.453125 21.199219 43.949219 21.175781 44.421875 C 21 47.382812 18.988281 50.019531 16.152344 50.09375 L 16.175781 49.023438 C 18.488281 48.972656 19.980469 46.734375 20.132812 44.273438 C 20.15625 43.824219 20.179688 43.351562 20.179688 42.90625 C 20.179688 42.132812 20.15625 41.386719 20.082031 40.617188 C 19.359375 40.742188 18.640625 40.816406 17.867188 40.816406 Z M 20.179688 11.515625 C 20.179688 10.148438 20.082031 9.550781 19.683594 8.308594 C 17.222656 9.5 15.652344 12.011719 15.652344 14.75 C 15.652344 16.589844 16.101562 18.058594 16.550781 19.574219 C 18.539062 17.160156 20.179688 14.648438 20.179688 11.515625 Z M 20.179688 11.515625 "/>
<path style=" stroke:none;fill-rule:nonzero;fill:rgb(0%,0%,0%);fill-opacity:1;" d="M 58.027344 37.132812 C 59.398438 37.132812 60.714844 37.832031 60.714844 39.347656 C 60.714844 41.113281 59.347656 42.359375 58.179688 43.054688 C 57.308594 43.578125 56.3125 43.898438 55.292969 43.898438 C 53.925781 43.898438 52.605469 43.203125 52.605469 41.6875 C 52.605469 39.921875 53.976562 38.675781 55.144531 37.980469 C 56.015625 37.457031 57.007812 37.132812 58.027344 37.132812 Z M 58.027344 37.132812 "/>
<path style=" stroke:none;fill-rule:nonzero;fill:rgb(0%,0%,0%);fill-opacity:1;" d="M 58.027344 43.351562 C 59.398438 43.351562 60.714844 44.050781 60.714844 45.566406 C 60.714844 47.332031 59.347656 48.574219 58.179688 49.273438 C 57.308594 49.792969 56.3125 50.117188 55.292969 50.117188 C 53.925781 50.117188 52.605469 49.421875 52.605469 47.90625 C 52.605469 46.136719 53.976562 44.894531 55.144531 44.199219 C 56.015625 43.675781 57.007812 43.351562 58.027344 43.351562 Z M 58.027344 43.351562 "/>
<path style=" stroke:none;fill-rule:nonzero;fill:rgb(0%,0%,0%);fill-opacity:1;" d="M 58.027344 49.570312 C 59.398438 49.570312 60.714844 50.265625 60.714844 51.785156 C 60.714844 53.550781 59.347656 54.792969 58.179688 55.492188 C 57.308594 56.011719 56.3125 56.335938 55.292969 56.335938 C 53.925781 56.335938 52.605469 55.640625 52.605469 54.121094 C 52.605469 52.355469 53.976562 51.113281 55.144531 50.417969 C 56.015625 49.894531 57.007812 49.570312 58.027344 49.570312 Z M 58.027344 49.570312 "/>
</g>
</svg>
