<?xml version="1.0" encoding="UTF-8"?>
<svg xmlns="http://www.w3.org/2000/svg" xmlns:xlink="http://www.w3.org/1999/xlink" width="88.412278pt" height="43.833228pt" viewBox="0 0 88.412278 43.833228" version="1.1">
<g id="surface1">
<path style="fill:none;stroke-width:0.1;stroke-linecap:round;stroke-linejoin:round;stroke:rgb(0%,0%,0%);stroke-opacity:1;stroke-miterlimit:4;" d="M 0.049863 0.000178545 L 11.754512 0.000178545 " transform="matrix(6.218149,0,0,6.218149,4.561038,35.940296)"/>
<path style="fill:none;stroke-width:0.1;stroke-linecap:round;stroke-linejoin:round;stroke:rgb(0%,0%,0%);stroke-opacity:1;stroke-miterlimit:4;" d="M 0.049863 0.0000818968 L 11.754512 0.0000818968 " transform="matrix(6.218149,0,0,6.218149,4.561038,29.722147)"/>
<path style="fill:none;stroke-width:0.1;stroke-linecap:round;stroke-linejoin:round;stroke:rgb(0%,0%,0%);stroke-opacity:1;stroke-miterlimit:4;" d="M 0.049863 -0.0000147518 L 11.754512 -0.0000147518 " transform="matrix(6.218149,0,0,6.218149,4.561038,23.503998)"/>
<path style="fill:none;stroke-width:0.1;stroke-linecap:round;stroke-linejoin:round;stroke:rgb(0%,0%,0%);stroke-opacity:1;stroke-miterlimit:4;" d="M 0.049863 -0.0001114 L 11.754512 -0.0001114 " transform="matrix(6.218149,0,0,6.218149,4.561038,17.285849)"/>
<path style="fill:none;stroke-width:0.1;stroke-linecap:round;stroke-linejoin:round;stroke:rgb(0%,0%,0%);stroke-opacity:1;stroke-miterlimit:4;" d="M 0.049863 -0.000208049 L 11.754512 -0.000208049 " transform="matrix(6.218149,0,0,6.218149,4.561038,11.0677)"/>
<path style=" stroke:none;fill-rule:nonzero;fill:rgb(0%,0%,0%);fill-opacity:1;" d="M 59.542969 9.117188 L 59.855469 9.117188 C 59.992188 9.117188 60.101562 9.226562 60.101562 9.363281 L 60.101562 29.472656 C 60.101562 29.609375 59.992188 29.722656 59.855469 29.722656 L 59.542969 29.722656 C 59.40625 29.722656 59.296875 29.609375 59.296875 29.472656 L 59.296875 9.363281 C 59.296875 9.226562 59.40625 9.117188 59.542969 9.117188 Z M 59.542969 9.117188 "/>
<path style=" stroke:none;fill-rule:nonzero;fill:rgb(0%,0%,0%);fill-opacity:1;" d="M 64.71875 4.574219 C 66.085938 4.574219 67.402344 5.273438 67.402344 6.789062 C 67.402344 8.554688 66.035156 9.800781 64.867188 10.496094 C 63.996094 11.019531 63 11.339844 61.980469 11.339844 C 60.613281 11.339844 59.296875 10.644531 59.296875 9.128906 C 59.296875 7.363281 60.664062 6.117188 61.832031 5.421875 C 62.703125 4.898438 63.699219 4.574219 64.71875 4.574219 Z M 64.71875 4.574219 "/>
<path style=" stroke:none;fill-rule:nonzero;fill:rgb(0%,0%,0%);fill-opacity:1;" d="M 40.875 9.117188 L 41.1875 9.117188 C 41.324219 9.117188 41.433594 9.226562 41.433594 9.363281 L 41.433594 29.472656 C 41.433594 29.609375 41.324219 29.722656 41.1875 29.722656 L 40.875 29.722656 C 40.738281 29.722656 40.625 29.609375 40.625 29.472656 L 40.625 9.363281 C 40.625 9.226562 40.738281 9.117188 40.875 9.117188 Z M 40.875 9.117188 "/>
<path style=" stroke:none;fill-rule:nonzero;fill:rgb(0%,0%,0%);fill-opacity:1;" d="M 23.390625 20.394531 C 23.390625 19.699219 23.960938 19.125 24.65625 19.125 C 25.355469 19.125 25.925781 19.699219 25.925781 20.394531 C 25.925781 21.089844 25.355469 21.664062 24.65625 21.664062 C 23.960938 21.664062 23.390625 21.089844 23.390625 20.394531 Z M 23.390625 14.175781 C 23.390625 13.480469 23.960938 12.910156 24.65625 12.910156 C 25.355469 12.910156 25.925781 13.480469 25.925781 14.175781 C 25.925781 14.875 25.355469 15.445312 24.65625 15.445312 C 23.960938 15.445312 23.390625 14.875 23.390625 14.175781 Z M 15.304688 10.746094 C 19.585938 10.746094 22.59375 12.933594 22.59375 16.988281 C 22.59375 23.527344 16.050781 27.285156 9.757812 29.945312 C 9.683594 30.019531 9.609375 30.046875 9.535156 30.046875 C 9.363281 30.046875 9.210938 29.894531 9.210938 29.722656 C 9.210938 29.648438 9.238281 29.574219 9.3125 29.5 C 14.335938 26.5625 19.558594 22.90625 19.558594 17.234375 C 19.558594 14.25 17.992188 11.390625 15.304688 11.390625 C 13.464844 11.390625 12.097656 12.734375 11.476562 14.523438 C 11.75 14.402344 12.023438 14.324219 12.320312 14.324219 C 13.6875 14.324219 14.808594 15.445312 14.808594 16.8125 C 14.808594 18.257812 13.714844 19.449219 12.320312 19.449219 C 10.828125 19.449219 9.535156 18.28125 9.535156 16.8125 C 9.535156 13.503906 12.074219 10.746094 15.304688 10.746094 Z M 15.304688 10.746094 "/>
<path style=" stroke:none;fill-rule:nonzero;fill:rgb(0%,0%,0%);fill-opacity:1;" d="M 46.046875 4.574219 C 47.417969 4.574219 48.734375 5.273438 48.734375 6.789062 C 48.734375 8.554688 47.367188 9.800781 46.199219 10.496094 C 45.328125 11.019531 44.332031 11.339844 43.3125 11.339844 C 41.945312 11.339844 40.625 10.644531 40.625 9.128906 C 40.625 7.363281 41.996094 6.117188 43.164062 5.421875 C 44.035156 4.898438 45.027344 4.574219 46.046875 4.574219 Z M 46.046875 4.574219 "/>
</g>
</svg>
