<?xml version="1.0" encoding="UTF-8"?>
<svg xmlns="http://www.w3.org/2000/svg" xmlns:xlink="http://www.w3.org/1999/xlink" width="76.669618pt" height="69.111784pt" viewBox="0 0 76.669618 69.111784" version="1.1">
<g id="surface1">
<path style="fill:none;stroke-width:0.1;stroke-linecap:round;stroke-linejoin:round;stroke:rgb(0%,0%,0%);stroke-opacity:1;stroke-miterlimit:4;" d="M 0.049863 0.000289441 L 9.986753 0.000289441 " transform="matrix(6.218149,0,0,6.218149,4.561038,50.34195)"/>
<path style="fill:none;stroke-width:0.1;stroke-linecap:round;stroke-linejoin:round;stroke:rgb(0%,0%,0%);stroke-opacity:1;stroke-miterlimit:4;" d="M 0.049863 0.000192316 L 9.986753 0.000192316 " transform="matrix(6.218149,0,0,6.218149,4.561038,44.123804)"/>
<path style="fill:none;stroke-width:0.1;stroke-linecap:round;stroke-linejoin:round;stroke:rgb(0%,0%,0%);stroke-opacity:1;stroke-miterlimit:4;" d="M 0.049863 0.0000956673 L 9.986753 0.0000956673 " transform="matrix(6.218149,0,0,6.218149,4.561038,37.905655)"/>
<path style="fill:none;stroke-width:0.1;stroke-linecap:round;stroke-linejoin:round;stroke:rgb(0%,0%,0%);stroke-opacity:1;stroke-miterlimit:4;" d="M 0.049863 -0.000000981293 L 9.986753 -0.000000981293 " transform="matrix(6.218149,0,0,6.218149,4.561038,31.687506)"/>
<path style="fill:none;stroke-width:0.1;stroke-linecap:round;stroke-linejoin:round;stroke:rgb(0%,0%,0%);stroke-opacity:1;stroke-miterlimit:4;" d="M 0.049863 -0.0000976299 L 9.986753 -0.0000976299 " transform="matrix(6.218149,0,0,6.218149,4.561038,25.469357)"/>
<path style=" stroke:none;fill-rule:nonzero;fill:rgb(0%,0%,0%);fill-opacity:1;" d="M 46.894531 12.410156 L 57.816406 12.410156 C 58.160156 12.410156 58.4375 12.691406 58.4375 13.03125 C 58.4375 13.375 58.160156 13.65625 57.816406 13.65625 L 46.894531 13.65625 C 46.550781 13.65625 46.273438 13.375 46.273438 13.03125 C 46.273438 12.691406 46.550781 12.410156 46.894531 12.410156 Z M 46.894531 12.410156 "/>
<path style=" stroke:none;fill-rule:nonzero;fill:rgb(0%,0%,0%);fill-opacity:1;" d="M 40.128906 18.628906 L 57.816406 18.628906 C 58.160156 18.628906 58.4375 18.90625 58.4375 19.25 C 58.4375 19.59375 58.160156 19.871094 57.816406 19.871094 L 40.128906 19.871094 C 39.785156 19.871094 39.507812 19.59375 39.507812 19.25 C 39.507812 18.90625 39.785156 18.628906 40.128906 18.628906 Z M 40.128906 18.628906 "/>
<path style=" stroke:none;fill-rule:nonzero;fill:rgb(0%,0%,0%);fill-opacity:1;" d="M 34.117188 15.121094 L 34.089844 16.765625 L 34.089844 17.039062 C 34.089844 17.585938 34.117188 18.132812 34.191406 18.679688 C 35.308594 17.734375 36.503906 16.6875 36.503906 15.222656 C 36.503906 14.402344 36.15625 13.554688 35.433594 13.554688 C 34.664062 13.554688 34.140625 14.300781 34.117188 15.121094 Z M 33.070312 19.574219 L 32.773438 4.773438 C 32.972656 4.652344 33.21875 4.578125 33.445312 4.578125 C 33.667969 4.578125 33.917969 4.652344 34.117188 4.773438 L 33.941406 13.355469 C 34.5625 12.835938 35.382812 12.511719 36.207031 12.511719 C 37.5 12.511719 38.417969 13.703125 38.417969 15.046875 C 38.417969 17.039062 36.28125 17.957031 34.761719 19.25 C 34.390625 19.574219 34.164062 20.195312 33.644531 20.195312 C 33.320312 20.195312 33.070312 19.921875 33.070312 19.574219 Z M 33.070312 19.574219 "/>
<path style=" stroke:none;fill-rule:nonzero;fill:rgb(0%,0%,0%);fill-opacity:1;" d="M 30.632812 27.558594 L 30.609375 29.199219 L 30.609375 29.472656 C 30.609375 30.019531 30.632812 30.566406 30.707031 31.117188 C 31.828125 30.171875 33.023438 29.125 33.023438 27.65625 C 33.023438 26.835938 32.671875 25.992188 31.953125 25.992188 C 31.179688 25.992188 30.660156 26.738281 30.632812 27.558594 Z M 29.589844 32.011719 L 29.289062 17.210938 C 29.488281 17.085938 29.738281 17.011719 29.960938 17.011719 C 30.1875 17.011719 30.433594 17.085938 30.632812 17.210938 L 30.460938 25.792969 C 31.082031 25.269531 31.902344 24.945312 32.722656 24.945312 C 34.015625 24.945312 34.9375 26.140625 34.9375 27.484375 C 34.9375 29.472656 32.796875 30.394531 31.28125 31.6875 C 30.90625 32.011719 30.683594 32.632812 30.160156 32.632812 C 29.835938 32.632812 29.589844 32.359375 29.589844 32.011719 Z M 29.589844 32.011719 "/>
<path style=" stroke:none;fill-rule:nonzero;fill:rgb(0%,0%,0%);fill-opacity:1;" d="M 48.550781 14.191406 L 48.859375 14.191406 C 49 14.191406 49.109375 14.300781 49.109375 14.4375 L 49.109375 50.09375 C 49.109375 50.230469 49 50.34375 48.859375 50.34375 L 48.550781 50.34375 C 48.414062 50.34375 48.300781 50.230469 48.300781 50.09375 L 48.300781 14.4375 C 48.300781 14.300781 48.414062 14.191406 48.550781 14.191406 Z M 48.550781 14.191406 "/>
<path style=" stroke:none;fill-rule:nonzero;fill:rgb(0%,0%,0%);fill-opacity:1;" d="M 16.152344 59.917969 L 16.003906 59.917969 C 13.316406 59.917969 11.152344 57.730469 11.152344 55.019531 C 11.152344 53.574219 12.46875 52.457031 13.9375 52.457031 C 15.28125 52.457031 16.300781 53.625 16.300781 55.019531 C 16.300781 56.3125 15.230469 57.382812 13.9375 57.382812 C 13.664062 57.382812 13.414062 57.332031 13.167969 57.230469 C 13.8125 58.203125 14.859375 58.847656 16.078125 58.847656 L 16.175781 58.847656 Z M 21 49.171875 C 22.691406 48.574219 23.8125 46.808594 23.8125 45.09375 C 23.8125 42.855469 22.171875 40.640625 19.507812 40.367188 C 20.105469 43.253906 20.652344 46.113281 21 49.171875 Z M 11.375 43.425781 C 11.375 46.785156 14.585938 49.570312 17.941406 49.570312 C 18.640625 49.570312 19.308594 49.519531 19.980469 49.421875 C 19.632812 46.261719 19.0625 43.328125 18.414062 40.367188 C 16.449219 40.566406 15.332031 41.886719 15.332031 43.328125 C 15.332031 44.421875 15.953125 45.589844 17.34375 46.386719 C 17.46875 46.511719 17.519531 46.636719 17.519531 46.761719 C 17.519531 47.035156 17.269531 47.308594 16.972656 47.308594 C 16.898438 47.308594 16.824219 47.28125 16.75 47.257812 C 14.757812 46.1875 13.839844 44.398438 13.839844 42.65625 C 13.839844 40.46875 15.28125 38.328125 17.816406 37.757812 C 17.46875 36.3125 17.097656 34.847656 16.675781 33.402344 C 14.011719 36.414062 11.375 39.449219 11.375 43.425781 Z M 17.867188 50.640625 C 13.191406 50.640625 9.585938 46.363281 9.585938 41.339844 C 9.585938 36.9375 12.84375 33.726562 15.753906 30.371094 C 15.28125 28.828125 14.832031 27.261719 14.632812 25.644531 C 14.484375 24.351562 14.460938 23.058594 14.460938 21.761719 C 14.460938 18.902344 15.828125 16.191406 18.167969 14.5 C 18.316406 14.375 18.515625 14.375 18.664062 14.5 C 20.429688 16.589844 21.972656 20.59375 21.972656 23.40625 C 21.972656 26.960938 19.832031 29.746094 17.496094 32.457031 C 18.015625 34.148438 18.464844 35.890625 18.886719 37.605469 C 18.988281 37.605469 19.113281 37.582031 19.210938 37.582031 C 23.066406 37.582031 25.578125 40.765625 25.578125 44.074219 C 25.578125 45.964844 24.757812 47.90625 22.917969 49.296875 C 22.371094 49.71875 21.746094 49.992188 21.101562 50.191406 C 21.175781 51.0625 21.226562 51.933594 21.226562 52.804688 C 21.226562 53.277344 21.199219 53.773438 21.175781 54.246094 C 21 57.207031 18.988281 59.84375 16.152344 59.917969 L 16.175781 58.847656 C 18.488281 58.796875 19.980469 56.558594 20.132812 54.097656 C 20.15625 53.648438 20.179688 53.175781 20.179688 52.730469 C 20.179688 51.957031 20.15625 51.210938 20.082031 50.441406 C 19.359375 50.566406 18.640625 50.640625 17.867188 50.640625 Z M 20.179688 21.339844 C 20.179688 19.972656 20.082031 19.375 19.683594 18.132812 C 17.222656 19.324219 15.652344 21.839844 15.652344 24.574219 C 15.652344 26.414062 16.101562 27.882812 16.550781 29.398438 C 18.539062 26.988281 20.179688 24.472656 20.179688 21.339844 Z M 20.179688 21.339844 "/>
<path style=" stroke:none;fill-rule:nonzero;fill:rgb(0%,0%,0%);fill-opacity:1;" d="M 53.722656 9.648438 C 55.089844 9.648438 56.410156 10.347656 56.410156 11.863281 C 56.410156 13.628906 55.042969 14.875 53.871094 15.570312 C 53.003906 16.09375 52.007812 16.414062 50.988281 16.414062 C 49.621094 16.414062 48.300781 15.71875 48.300781 14.203125 C 48.300781 12.4375 49.667969 11.191406 50.839844 10.496094 C 51.707031 9.972656 52.703125 9.648438 53.722656 9.648438 Z M 53.722656 9.648438 "/>
<path style=" stroke:none;fill-rule:nonzero;fill:rgb(0%,0%,0%);fill-opacity:1;" d="M 46.015625 12.757812 C 47.386719 12.757812 48.703125 13.457031 48.703125 14.972656 C 48.703125 16.738281 47.335938 17.984375 46.167969 18.679688 C 45.296875 19.203125 44.300781 19.523438 43.28125 19.523438 C 41.914062 19.523438 40.59375 18.828125 40.59375 17.3125 C 40.59375 15.546875 41.964844 14.300781 43.132812 13.605469 C 44.003906 13.082031 44.996094 12.757812 46.015625 12.757812 Z M 46.015625 12.757812 "/>
<path style=" stroke:none;fill-rule:nonzero;fill:rgb(0%,0%,0%);fill-opacity:1;" d="M 53.722656 18.976562 C 55.089844 18.976562 56.410156 19.675781 56.410156 21.191406 C 56.410156 22.957031 55.042969 24.199219 53.871094 24.898438 C 53.003906 25.417969 52.007812 25.742188 50.988281 25.742188 C 49.621094 25.742188 48.300781 25.046875 48.300781 23.527344 C 48.300781 21.761719 49.667969 20.519531 50.839844 19.824219 C 51.707031 19.300781 52.703125 18.976562 53.722656 18.976562 Z M 53.722656 18.976562 "/>
<path style=" stroke:none;fill-rule:nonzero;fill:rgb(0%,0%,0%);fill-opacity:1;" d="M 53.722656 25.195312 C 55.089844 25.195312 56.410156 25.890625 56.410156 27.410156 C 56.410156 29.175781 55.042969 30.417969 53.871094 31.117188 C 53.003906 31.636719 52.007812 31.960938 50.988281 31.960938 C 49.621094 31.960938 48.300781 31.265625 48.300781 29.746094 C 48.300781 27.980469 49.667969 26.738281 50.839844 26.042969 C 51.707031 25.519531 52.703125 25.195312 53.722656 25.195312 Z M 53.722656 25.195312 "/>
</g>
</svg>
