<?xml version="1.0" encoding="UTF-8"?>
<svg xmlns="http://www.w3.org/2000/svg" xmlns:xlink="http://www.w3.org/1999/xlink" width="81.616415pt" height="70.333871pt" viewBox="0 0 81.616415 70.333871" version="1.1">
<g id="surface1">
<path style="fill:none;stroke-width:0.1;stroke-linecap:round;stroke-linejoin:round;stroke:rgb(0%,0%,0%);stroke-opacity:1;stroke-miterlimit:4;" d="M 0.049863 -0.000208034 L 10.731172 -0.000208034 " transform="matrix(6.218149,0,0,6.218149,4.561038,51.485669)"/>
<path style="fill:none;stroke-width:0.1;stroke-linecap:round;stroke-linejoin:round;stroke:rgb(0%,0%,0%);stroke-opacity:1;stroke-miterlimit:4;" d="M 0.049863 -0.000304683 L 10.731172 -0.000304683 " transform="matrix(6.218149,0,0,6.218149,4.561038,45.26752)"/>
<path style="fill:none;stroke-width:0.1;stroke-linecap:round;stroke-linejoin:round;stroke:rgb(0%,0%,0%);stroke-opacity:1;stroke-miterlimit:4;" d="M 0.049863 0.00022687 L 10.731172 0.00022687 " transform="matrix(6.218149,0,0,6.218149,4.561038,39.049371)"/>
<path style="fill:none;stroke-width:0.1;stroke-linecap:round;stroke-linejoin:round;stroke:rgb(0%,0%,0%);stroke-opacity:1;stroke-miterlimit:4;" d="M 0.049863 0.000130221 L 10.731172 0.000130221 " transform="matrix(6.218149,0,0,6.218149,4.561038,32.831222)"/>
<path style="fill:none;stroke-width:0.1;stroke-linecap:round;stroke-linejoin:round;stroke:rgb(0%,0%,0%);stroke-opacity:1;stroke-miterlimit:4;" d="M 0.049863 0.0000335725 L 10.731172 0.0000335725 " transform="matrix(6.218149,0,0,6.218149,4.561038,26.613072)"/>
<path style=" stroke:none;fill-rule:nonzero;fill:rgb(0%,0%,0%);fill-opacity:1;" d="M 51.527344 7.335938 L 62.449219 7.335938 C 62.792969 7.335938 63.070312 7.613281 63.070312 7.957031 C 63.070312 8.300781 62.792969 8.582031 62.449219 8.582031 L 51.527344 8.582031 C 51.183594 8.582031 50.90625 8.300781 50.90625 7.957031 C 50.90625 7.613281 51.183594 7.335938 51.527344 7.335938 Z M 51.527344 7.335938 "/>
<path style=" stroke:none;fill-rule:nonzero;fill:rgb(0%,0%,0%);fill-opacity:1;" d="M 51.527344 13.554688 L 62.449219 13.554688 C 62.792969 13.554688 63.070312 13.832031 63.070312 14.175781 C 63.070312 14.519531 62.792969 14.796875 62.449219 14.796875 L 51.527344 14.796875 C 51.183594 14.796875 50.90625 14.519531 50.90625 14.175781 C 50.90625 13.832031 51.183594 13.554688 51.527344 13.554688 Z M 51.527344 13.554688 "/>
<path style=" stroke:none;fill-rule:nonzero;fill:rgb(0%,0%,0%);fill-opacity:1;" d="M 51.527344 19.773438 L 62.449219 19.773438 C 62.792969 19.773438 63.070312 20.050781 63.070312 20.394531 C 63.070312 20.738281 62.792969 21.015625 62.449219 21.015625 L 51.527344 21.015625 C 51.183594 21.015625 50.90625 20.738281 50.90625 20.394531 C 50.90625 20.050781 51.183594 19.773438 51.527344 19.773438 Z M 51.527344 19.773438 "/>
<path style=" stroke:none;fill-rule:nonzero;fill:rgb(0%,0%,0%);fill-opacity:1;" d="M 53.179688 9.117188 L 53.492188 9.117188 C 53.628906 9.117188 53.742188 9.226562 53.742188 9.363281 L 53.742188 48.128906 C 53.742188 48.265625 53.628906 48.375 53.492188 48.375 L 53.179688 48.375 C 53.042969 48.375 52.933594 48.265625 52.933594 48.128906 L 52.933594 9.363281 C 52.933594 9.226562 53.042969 9.117188 53.179688 9.117188 Z M 53.179688 9.117188 "/>
<path style=" stroke:none;fill-rule:nonzero;fill:rgb(0%,0%,0%);fill-opacity:1;" d="M 49.289062 21.9375 C 49.289062 22.1875 49.089844 22.410156 48.839844 22.410156 C 48.589844 22.410156 48.367188 22.1875 48.367188 21.9375 L 48.367188 18.332031 L 46.304688 19.101562 L 46.304688 23.03125 C 46.304688 23.28125 46.078125 23.503906 45.832031 23.503906 C 45.582031 23.503906 45.382812 23.28125 45.382812 23.03125 L 45.382812 19.425781 L 44.585938 19.722656 C 44.539062 19.75 44.464844 19.75 44.414062 19.75 C 44.140625 19.75 43.914062 19.523438 43.914062 19.25 L 43.914062 17.757812 C 43.914062 17.558594 44.039062 17.359375 44.238281 17.285156 L 45.382812 16.886719 L 45.382812 12.910156 L 44.585938 13.183594 C 44.539062 13.207031 44.464844 13.207031 44.414062 13.207031 C 44.140625 13.207031 43.914062 12.984375 43.914062 12.710938 L 43.914062 11.21875 C 43.914062 11.019531 44.039062 10.84375 44.238281 10.769531 L 45.382812 10.347656 L 45.382812 6.417969 C 45.382812 6.167969 45.582031 5.945312 45.832031 5.945312 C 46.078125 5.945312 46.304688 6.167969 46.304688 6.417969 L 46.304688 10.023438 L 48.367188 9.253906 L 48.367188 5.320312 C 48.367188 5.074219 48.589844 4.847656 48.839844 4.847656 C 49.089844 4.847656 49.289062 5.074219 49.289062 5.320312 L 49.289062 8.929688 L 50.085938 8.628906 C 50.132812 8.605469 50.207031 8.605469 50.257812 8.605469 C 50.53125 8.605469 50.753906 8.828125 50.753906 9.101562 L 50.753906 10.59375 C 50.753906 10.792969 50.632812 10.992188 50.433594 11.066406 L 49.289062 11.464844 L 49.289062 15.445312 L 50.085938 15.171875 C 50.132812 15.148438 50.207031 15.148438 50.257812 15.148438 C 50.53125 15.148438 50.753906 15.371094 50.753906 15.644531 L 50.753906 17.136719 C 50.753906 17.335938 50.632812 17.507812 50.433594 17.585938 L 49.289062 18.007812 Z M 46.304688 12.558594 L 46.304688 16.539062 L 48.367188 15.792969 L 48.367188 11.8125 Z M 46.304688 12.558594 "/>
<path style=" stroke:none;fill-rule:nonzero;fill:rgb(0%,0%,0%);fill-opacity:1;" d="M 34.589844 28.15625 C 34.589844 28.402344 34.390625 28.628906 34.140625 28.628906 C 33.890625 28.628906 33.667969 28.402344 33.667969 28.15625 L 33.667969 24.546875 L 31.605469 25.320312 L 31.605469 29.25 C 31.605469 29.5 31.378906 29.722656 31.132812 29.722656 C 30.882812 29.722656 30.683594 29.5 30.683594 29.25 L 30.683594 25.644531 L 29.886719 25.941406 C 29.835938 25.964844 29.761719 25.964844 29.714844 25.964844 C 29.441406 25.964844 29.214844 25.742188 29.214844 25.46875 L 29.214844 23.976562 C 29.214844 23.777344 29.339844 23.578125 29.539062 23.503906 L 30.683594 23.105469 L 30.683594 19.125 L 29.886719 19.398438 C 29.835938 19.425781 29.761719 19.425781 29.714844 19.425781 C 29.441406 19.425781 29.214844 19.199219 29.214844 18.925781 L 29.214844 17.433594 C 29.214844 17.234375 29.339844 17.0625 29.539062 16.988281 L 30.683594 16.566406 L 30.683594 12.632812 C 30.683594 12.386719 30.882812 12.160156 31.132812 12.160156 C 31.378906 12.160156 31.605469 12.386719 31.605469 12.632812 L 31.605469 16.242188 L 33.667969 15.46875 L 33.667969 11.539062 C 33.667969 11.292969 33.890625 11.066406 34.140625 11.066406 C 34.390625 11.066406 34.589844 11.292969 34.589844 11.539062 L 34.589844 15.148438 L 35.382812 14.847656 C 35.433594 14.824219 35.507812 14.824219 35.558594 14.824219 C 35.832031 14.824219 36.054688 15.046875 36.054688 15.320312 L 36.054688 16.8125 C 36.054688 17.011719 35.929688 17.210938 35.734375 17.285156 L 34.589844 17.683594 L 34.589844 21.664062 L 35.382812 21.390625 C 35.433594 21.363281 35.507812 21.363281 35.558594 21.363281 C 35.832031 21.363281 36.054688 21.589844 36.054688 21.863281 L 36.054688 23.355469 C 36.054688 23.554688 35.929688 23.726562 35.734375 23.800781 L 34.589844 24.226562 Z M 31.605469 18.777344 L 31.605469 22.757812 L 33.667969 22.011719 L 33.667969 18.03125 Z M 31.605469 18.777344 "/>
<path style=" stroke:none;fill-rule:nonzero;fill:rgb(0%,0%,0%);fill-opacity:1;" d="M 42.671875 34.375 C 42.671875 34.621094 42.472656 34.847656 42.222656 34.847656 C 41.976562 34.847656 41.75 34.621094 41.75 34.375 L 41.75 30.765625 L 39.6875 31.539062 L 39.6875 35.46875 C 39.6875 35.714844 39.464844 35.941406 39.214844 35.941406 C 38.964844 35.941406 38.765625 35.714844 38.765625 35.46875 L 38.765625 31.859375 L 37.972656 32.160156 C 37.921875 32.183594 37.847656 32.183594 37.796875 32.183594 C 37.523438 32.183594 37.300781 31.960938 37.300781 31.6875 L 37.300781 30.195312 C 37.300781 29.996094 37.425781 29.796875 37.621094 29.722656 L 38.765625 29.324219 L 38.765625 25.34375 L 37.972656 25.617188 C 37.921875 25.644531 37.847656 25.644531 37.796875 25.644531 C 37.523438 25.644531 37.300781 25.417969 37.300781 25.144531 L 37.300781 23.652344 C 37.300781 23.453125 37.425781 23.28125 37.621094 23.207031 L 38.765625 22.78125 L 38.765625 18.851562 C 38.765625 18.605469 38.964844 18.378906 39.214844 18.378906 C 39.464844 18.378906 39.6875 18.605469 39.6875 18.851562 L 39.6875 22.460938 L 41.75 21.6875 L 41.75 17.757812 C 41.75 17.507812 41.976562 17.285156 42.222656 17.285156 C 42.472656 17.285156 42.671875 17.507812 42.671875 17.757812 L 42.671875 21.363281 L 43.46875 21.066406 C 43.519531 21.042969 43.59375 21.042969 43.640625 21.042969 C 43.914062 21.042969 44.140625 21.265625 44.140625 21.539062 L 44.140625 23.03125 C 44.140625 23.230469 44.015625 23.429688 43.816406 23.503906 L 42.671875 23.902344 L 42.671875 27.882812 L 43.46875 27.609375 C 43.519531 27.582031 43.59375 27.582031 43.640625 27.582031 C 43.914062 27.582031 44.140625 27.808594 44.140625 28.082031 L 44.140625 29.574219 C 44.140625 29.773438 44.015625 29.945312 43.816406 30.019531 L 42.671875 30.445312 Z M 39.6875 24.996094 L 39.6875 28.976562 L 41.75 28.230469 L 41.75 24.25 Z M 39.6875 24.996094 "/>
<path style=" stroke:none;fill-rule:nonzero;fill:rgb(0%,0%,0%);fill-opacity:1;" d="M 16.152344 61.0625 L 16.003906 61.0625 C 13.316406 61.0625 11.152344 58.871094 11.152344 56.160156 C 11.152344 54.71875 12.46875 53.601562 13.9375 53.601562 C 15.28125 53.601562 16.300781 54.769531 16.300781 56.160156 C 16.300781 57.457031 15.230469 58.523438 13.9375 58.523438 C 13.664062 58.523438 13.414062 58.476562 13.167969 58.375 C 13.8125 59.34375 14.859375 59.992188 16.078125 59.992188 L 16.175781 59.992188 Z M 21 50.316406 C 22.691406 49.71875 23.8125 47.953125 23.8125 46.238281 C 23.8125 44 22.171875 41.785156 19.507812 41.511719 C 20.105469 44.398438 20.652344 47.257812 21 50.316406 Z M 11.375 44.570312 C 11.375 47.929688 14.585938 50.714844 17.941406 50.714844 C 18.640625 50.714844 19.308594 50.664062 19.980469 50.566406 C 19.632812 47.40625 19.0625 44.472656 18.414062 41.511719 C 16.449219 41.710938 15.332031 43.027344 15.332031 44.472656 C 15.332031 45.566406 15.953125 46.734375 17.34375 47.53125 C 17.46875 47.65625 17.519531 47.78125 17.519531 47.902344 C 17.519531 48.175781 17.269531 48.453125 16.972656 48.453125 C 16.898438 48.453125 16.824219 48.425781 16.75 48.402344 C 14.757812 47.332031 13.839844 45.542969 13.839844 43.800781 C 13.839844 41.609375 15.28125 39.472656 17.816406 38.898438 C 17.46875 37.457031 17.097656 35.988281 16.675781 34.546875 C 14.011719 37.558594 11.375 40.589844 11.375 44.570312 Z M 17.867188 51.785156 C 13.191406 51.785156 9.585938 47.507812 9.585938 42.480469 C 9.585938 38.078125 12.84375 34.871094 15.753906 31.511719 C 15.28125 29.972656 14.832031 28.402344 14.632812 26.789062 C 14.484375 25.492188 14.460938 24.199219 14.460938 22.90625 C 14.460938 20.046875 15.828125 17.335938 18.167969 15.644531 C 18.316406 15.519531 18.515625 15.519531 18.664062 15.644531 C 20.429688 17.734375 21.972656 21.738281 21.972656 24.546875 C 21.972656 28.105469 19.832031 30.890625 17.496094 33.601562 C 18.015625 35.292969 18.464844 37.035156 18.886719 38.75 C 18.988281 38.75 19.113281 38.726562 19.210938 38.726562 C 23.066406 38.726562 25.578125 41.910156 25.578125 45.21875 C 25.578125 47.109375 24.757812 49.046875 22.917969 50.441406 C 22.371094 50.863281 21.746094 51.136719 21.101562 51.335938 C 21.175781 52.207031 21.226562 53.078125 21.226562 53.949219 C 21.226562 54.421875 21.199219 54.917969 21.175781 55.390625 C 21 58.351562 18.988281 60.988281 16.152344 61.0625 L 16.175781 59.992188 C 18.488281 59.941406 19.980469 57.703125 20.132812 55.242188 C 20.15625 54.792969 20.179688 54.320312 20.179688 53.875 C 20.179688 53.101562 20.15625 52.355469 20.082031 51.585938 C 19.359375 51.710938 18.640625 51.785156 17.867188 51.785156 Z M 20.179688 22.484375 C 20.179688 21.117188 20.082031 20.519531 19.683594 19.277344 C 17.222656 20.46875 15.652344 22.980469 15.652344 25.71875 C 15.652344 27.558594 16.101562 29.027344 16.550781 30.542969 C 18.539062 28.128906 20.179688 25.617188 20.179688 22.484375 Z M 20.179688 22.484375 "/>
<path style=" stroke:none;fill-rule:nonzero;fill:rgb(0%,0%,0%);fill-opacity:1;" d="M 58.355469 4.574219 C 59.722656 4.574219 61.039062 5.273438 61.039062 6.789062 C 61.039062 8.554688 59.671875 9.800781 58.503906 10.496094 C 57.632812 11.019531 56.636719 11.339844 55.617188 11.339844 C 54.25 11.339844 52.933594 10.644531 52.933594 9.128906 C 52.933594 7.363281 54.300781 6.117188 55.46875 5.421875 C 56.339844 4.898438 57.335938 4.574219 58.355469 4.574219 Z M 58.355469 4.574219 "/>
<path style=" stroke:none;fill-rule:nonzero;fill:rgb(0%,0%,0%);fill-opacity:1;" d="M 58.355469 10.792969 C 59.722656 10.792969 61.039062 11.492188 61.039062 13.007812 C 61.039062 14.773438 59.671875 16.015625 58.503906 16.714844 C 57.632812 17.234375 56.636719 17.558594 55.617188 17.558594 C 54.25 17.558594 52.933594 16.863281 52.933594 15.347656 C 52.933594 13.578125 54.300781 12.335938 55.46875 11.640625 C 56.339844 11.117188 57.335938 10.792969 58.355469 10.792969 Z M 58.355469 10.792969 "/>
<path style=" stroke:none;fill-rule:nonzero;fill:rgb(0%,0%,0%);fill-opacity:1;" d="M 58.355469 17.011719 C 59.722656 17.011719 61.039062 17.707031 61.039062 19.226562 C 61.039062 20.992188 59.671875 22.234375 58.503906 22.933594 C 57.632812 23.453125 56.636719 23.777344 55.617188 23.777344 C 54.25 23.777344 52.933594 23.082031 52.933594 21.5625 C 52.933594 19.796875 54.300781 18.554688 55.46875 17.859375 C 56.339844 17.335938 57.335938 17.011719 58.355469 17.011719 Z M 58.355469 17.011719 "/>
<path style=" stroke:none;fill-rule:nonzero;fill:rgb(0%,0%,0%);fill-opacity:1;" d="M 58.355469 23.230469 C 59.722656 23.230469 61.039062 23.925781 61.039062 25.445312 C 61.039062 27.210938 59.671875 28.453125 58.503906 29.148438 C 57.632812 29.671875 56.636719 29.996094 55.617188 29.996094 C 54.25 29.996094 52.933594 29.300781 52.933594 27.78125 C 52.933594 26.015625 54.300781 24.773438 55.46875 24.074219 C 56.339844 23.554688 57.335938 23.230469 58.355469 23.230469 Z M 58.355469 23.230469 "/>
</g>
</svg>
