<?xml version="1.0" encoding="UTF-8"?>
<svg xmlns="http://www.w3.org/2000/svg" xmlns:xlink="http://www.w3.org/1999/xlink" width="74.549567pt" height="58.61114pt" viewBox="0 0 74.549567 58.61114" version="1.1">
<g id="surface1">
<path style="fill:none;stroke-width:0.1;stroke-linecap:round;stroke-linejoin:round;stroke:rgb(0%,0%,0%);stroke-opacity:1;stroke-miterlimit:4;" d="M 0.049863 -0.000287501 L 9.666998 -0.000287501 " transform="matrix(6.218149,0,0,6.218149,4.561038,40.517413)"/>
<path style="fill:none;stroke-width:0.1;stroke-linecap:round;stroke-linejoin:round;stroke:rgb(0%,0%,0%);stroke-opacity:1;stroke-miterlimit:4;" d="M 0.049863 0.000244052 L 9.666998 0.000244052 " transform="matrix(6.218149,0,0,6.218149,4.561038,34.299264)"/>
<path style="fill:none;stroke-width:0.1;stroke-linecap:round;stroke-linejoin:round;stroke:rgb(0%,0%,0%);stroke-opacity:1;stroke-miterlimit:4;" d="M 0.049863 0.000147403 L 9.666998 0.000147403 " transform="matrix(6.218149,0,0,6.218149,4.561038,28.081115)"/>
<path style="fill:none;stroke-width:0.1;stroke-linecap:round;stroke-linejoin:round;stroke:rgb(0%,0%,0%);stroke-opacity:1;stroke-miterlimit:4;" d="M 0.049863 0.0000507548 L 9.666998 0.0000507548 " transform="matrix(6.218149,0,0,6.218149,4.561038,21.862966)"/>
<path style="fill:none;stroke-width:0.1;stroke-linecap:round;stroke-linejoin:round;stroke:rgb(0%,0%,0%);stroke-opacity:1;stroke-miterlimit:4;" d="M 0.049863 -0.0000458938 L 9.666998 -0.0000458938 " transform="matrix(6.218149,0,0,6.218149,4.561038,15.644817)"/>
<path style=" stroke:none;fill-rule:nonzero;fill:rgb(0%,0%,0%);fill-opacity:1;" d="M 46.566406 16.800781 L 46.875 16.800781 C 47.011719 16.800781 47.125 16.914062 47.125 17.050781 L 47.125 48.558594 C 47.125 48.695312 47.011719 48.808594 46.875 48.808594 L 46.566406 48.808594 C 46.425781 48.808594 46.316406 48.695312 46.316406 48.558594 L 46.316406 17.050781 C 46.316406 16.914062 46.425781 16.800781 46.566406 16.800781 Z M 46.566406 16.800781 "/>
<path style=" stroke:none;fill-rule:nonzero;fill:rgb(0%,0%,0%);fill-opacity:1;" d="M 42.671875 23.40625 C 42.671875 23.652344 42.472656 23.878906 42.222656 23.878906 C 41.976562 23.878906 41.75 23.652344 41.75 23.40625 L 41.75 19.796875 L 39.6875 20.570312 L 39.6875 24.5 C 39.6875 24.75 39.464844 24.972656 39.214844 24.972656 C 38.964844 24.972656 38.765625 24.75 38.765625 24.5 L 38.765625 20.894531 L 37.972656 21.191406 C 37.921875 21.214844 37.847656 21.214844 37.796875 21.214844 C 37.523438 21.214844 37.300781 20.992188 37.300781 20.71875 L 37.300781 19.226562 C 37.300781 19.027344 37.425781 18.828125 37.621094 18.753906 L 38.765625 18.355469 L 38.765625 14.375 L 37.972656 14.648438 C 37.921875 14.675781 37.847656 14.675781 37.796875 14.675781 C 37.523438 14.675781 37.300781 14.449219 37.300781 14.175781 L 37.300781 12.683594 C 37.300781 12.484375 37.425781 12.3125 37.621094 12.238281 L 38.765625 11.8125 L 38.765625 7.882812 C 38.765625 7.636719 38.964844 7.410156 39.214844 7.410156 C 39.464844 7.410156 39.6875 7.636719 39.6875 7.882812 L 39.6875 11.492188 L 41.75 10.71875 L 41.75 6.789062 C 41.75 6.542969 41.976562 6.316406 42.222656 6.316406 C 42.472656 6.316406 42.671875 6.542969 42.671875 6.789062 L 42.671875 10.398438 L 43.46875 10.097656 C 43.519531 10.074219 43.59375 10.074219 43.640625 10.074219 C 43.914062 10.074219 44.140625 10.296875 44.140625 10.570312 L 44.140625 12.0625 C 44.140625 12.261719 44.015625 12.460938 43.816406 12.535156 L 42.671875 12.933594 L 42.671875 16.914062 L 43.46875 16.640625 C 43.519531 16.613281 43.59375 16.613281 43.640625 16.613281 C 43.914062 16.613281 44.140625 16.839844 44.140625 17.113281 L 44.140625 18.605469 C 44.140625 18.804688 44.015625 18.976562 43.816406 19.050781 L 42.671875 19.476562 Z M 39.6875 14.027344 L 39.6875 18.007812 L 41.75 17.261719 L 41.75 13.28125 Z M 39.6875 14.027344 "/>
<path style=" stroke:none;fill-rule:nonzero;fill:rgb(0%,0%,0%);fill-opacity:1;" d="M 34.589844 29.625 C 34.589844 29.871094 34.390625 30.097656 34.140625 30.097656 C 33.890625 30.097656 33.667969 29.871094 33.667969 29.625 L 33.667969 26.015625 L 31.605469 26.789062 L 31.605469 30.71875 C 31.605469 30.964844 31.378906 31.191406 31.132812 31.191406 C 30.882812 31.191406 30.683594 30.964844 30.683594 30.71875 L 30.683594 27.109375 L 29.886719 27.410156 C 29.835938 27.433594 29.761719 27.433594 29.714844 27.433594 C 29.441406 27.433594 29.214844 27.210938 29.214844 26.9375 L 29.214844 25.445312 C 29.214844 25.246094 29.339844 25.046875 29.539062 24.972656 L 30.683594 24.574219 L 30.683594 20.59375 L 29.886719 20.867188 C 29.835938 20.894531 29.761719 20.894531 29.714844 20.894531 C 29.441406 20.894531 29.214844 20.667969 29.214844 20.394531 L 29.214844 18.902344 C 29.214844 18.703125 29.339844 18.53125 29.539062 18.457031 L 30.683594 18.03125 L 30.683594 14.101562 C 30.683594 13.855469 30.882812 13.628906 31.132812 13.628906 C 31.378906 13.628906 31.605469 13.855469 31.605469 14.101562 L 31.605469 17.710938 L 33.667969 16.9375 L 33.667969 13.007812 C 33.667969 12.757812 33.890625 12.535156 34.140625 12.535156 C 34.390625 12.535156 34.589844 12.757812 34.589844 13.007812 L 34.589844 16.613281 L 35.382812 16.316406 C 35.433594 16.292969 35.507812 16.292969 35.558594 16.292969 C 35.832031 16.292969 36.054688 16.515625 36.054688 16.789062 L 36.054688 18.28125 C 36.054688 18.480469 35.929688 18.679688 35.734375 18.753906 L 34.589844 19.152344 L 34.589844 23.132812 L 35.382812 22.859375 C 35.433594 22.832031 35.507812 22.832031 35.558594 22.832031 C 35.832031 22.832031 36.054688 23.058594 36.054688 23.332031 L 36.054688 24.824219 C 36.054688 25.023438 35.929688 25.195312 35.734375 25.269531 L 34.589844 25.691406 Z M 31.605469 20.246094 L 31.605469 24.226562 L 33.667969 23.480469 L 33.667969 19.5 Z M 31.605469 20.246094 "/>
<path style=" stroke:none;fill-rule:nonzero;fill:rgb(0%,0%,0%);fill-opacity:1;" d="M 16.152344 50.09375 L 16.003906 50.09375 C 13.316406 50.09375 11.152344 47.90625 11.152344 45.195312 C 11.152344 43.75 12.46875 42.632812 13.9375 42.632812 C 15.28125 42.632812 16.300781 43.800781 16.300781 45.195312 C 16.300781 46.488281 15.230469 47.554688 13.9375 47.554688 C 13.664062 47.554688 13.414062 47.507812 13.167969 47.40625 C 13.8125 48.378906 14.859375 49.023438 16.078125 49.023438 L 16.175781 49.023438 Z M 21 39.347656 C 22.691406 38.75 23.8125 36.984375 23.8125 35.269531 C 23.8125 33.03125 22.171875 30.816406 19.507812 30.542969 C 20.105469 33.429688 20.652344 36.289062 21 39.347656 Z M 11.375 33.601562 C 11.375 36.960938 14.585938 39.746094 17.941406 39.746094 C 18.640625 39.746094 19.308594 39.695312 19.980469 39.597656 C 19.632812 36.4375 19.0625 33.503906 18.414062 30.542969 C 16.449219 30.742188 15.332031 32.0625 15.332031 33.503906 C 15.332031 34.597656 15.953125 35.765625 17.34375 36.5625 C 17.46875 36.6875 17.519531 36.8125 17.519531 36.9375 C 17.519531 37.210938 17.269531 37.484375 16.972656 37.484375 C 16.898438 37.484375 16.824219 37.457031 16.75 37.433594 C 14.757812 36.363281 13.839844 34.574219 13.839844 32.832031 C 13.839844 30.644531 15.28125 28.503906 17.816406 27.933594 C 17.46875 26.488281 17.097656 25.023438 16.675781 23.578125 C 14.011719 26.589844 11.375 29.625 11.375 33.601562 Z M 17.867188 40.816406 C 13.191406 40.816406 9.585938 36.539062 9.585938 31.511719 C 9.585938 27.109375 12.84375 23.902344 15.753906 20.542969 C 15.28125 19.003906 14.832031 17.4375 14.632812 15.820312 C 14.484375 14.527344 14.460938 13.230469 14.460938 11.9375 C 14.460938 9.078125 15.828125 6.367188 18.167969 4.675781 C 18.316406 4.550781 18.515625 4.550781 18.664062 4.675781 C 20.429688 6.765625 21.972656 10.769531 21.972656 13.582031 C 21.972656 17.136719 19.832031 19.921875 17.496094 22.632812 C 18.015625 24.324219 18.464844 26.066406 18.886719 27.78125 C 18.988281 27.78125 19.113281 27.757812 19.210938 27.757812 C 23.066406 27.757812 25.578125 30.941406 25.578125 34.25 C 25.578125 36.140625 24.757812 38.078125 22.917969 39.472656 C 22.371094 39.894531 21.746094 40.167969 21.101562 40.367188 C 21.175781 41.238281 21.226562 42.109375 21.226562 42.980469 C 21.226562 43.453125 21.199219 43.949219 21.175781 44.421875 C 21 47.382812 18.988281 50.019531 16.152344 50.09375 L 16.175781 49.023438 C 18.488281 48.972656 19.980469 46.734375 20.132812 44.273438 C 20.15625 43.824219 20.179688 43.351562 20.179688 42.90625 C 20.179688 42.132812 20.15625 41.386719 20.082031 40.617188 C 19.359375 40.742188 18.640625 40.816406 17.867188 40.816406 Z M 20.179688 11.515625 C 20.179688 10.148438 20.082031 9.550781 19.683594 8.308594 C 17.222656 9.5 15.652344 12.011719 15.652344 14.75 C 15.652344 16.589844 16.101562 18.058594 16.550781 19.574219 C 18.539062 17.160156 20.179688 14.648438 20.179688 11.515625 Z M 20.179688 11.515625 "/>
<path style=" stroke:none;fill-rule:nonzero;fill:rgb(0%,0%,0%);fill-opacity:1;" d="M 51.738281 12.261719 C 53.105469 12.261719 54.425781 12.957031 54.425781 14.476562 C 54.425781 16.242188 53.054688 17.484375 51.886719 18.183594 C 51.015625 18.703125 50.023438 19.027344 49.003906 19.027344 C 47.632812 19.027344 46.316406 18.332031 46.316406 16.8125 C 46.316406 15.046875 47.683594 13.804688 48.851562 13.109375 C 49.722656 12.585938 50.71875 12.261719 51.738281 12.261719 Z M 51.738281 12.261719 "/>
<path style=" stroke:none;fill-rule:nonzero;fill:rgb(0%,0%,0%);fill-opacity:1;" d="M 51.738281 18.480469 C 53.105469 18.480469 54.425781 19.175781 54.425781 20.695312 C 54.425781 22.460938 53.054688 23.703125 51.886719 24.398438 C 51.015625 24.921875 50.023438 25.246094 49.003906 25.246094 C 47.632812 25.246094 46.316406 24.550781 46.316406 23.03125 C 46.316406 21.265625 47.683594 20.023438 48.851562 19.324219 C 49.722656 18.804688 50.71875 18.480469 51.738281 18.480469 Z M 51.738281 18.480469 "/>
<path style=" stroke:none;fill-rule:nonzero;fill:rgb(0%,0%,0%);fill-opacity:1;" d="M 51.738281 24.699219 C 53.105469 24.699219 54.425781 25.394531 54.425781 26.910156 C 54.425781 28.679688 53.054688 29.921875 51.886719 30.617188 C 51.015625 31.140625 50.023438 31.464844 49.003906 31.464844 C 47.632812 31.464844 46.316406 30.765625 46.316406 29.25 C 46.316406 27.484375 47.683594 26.242188 48.851562 25.542969 C 49.722656 25.023438 50.71875 24.699219 51.738281 24.699219 Z M 51.738281 24.699219 "/>
</g>
</svg>
