<?xml version="1.0" encoding="UTF-8"?>
<svg xmlns="http://www.w3.org/2000/svg" xmlns:xlink="http://www.w3.org/1999/xlink" width="75.798219pt" height="79.074445pt" viewBox="0 0 75.798219 79.074445" version="1.1">
<g id="surface1">
<path style="fill:none;stroke-width:0.1;stroke-linecap:round;stroke-linejoin:round;stroke:rgb(0%,0%,0%);stroke-opacity:1;stroke-miterlimit:4;" d="M 0.049863 -0.000193787 L 9.855459 -0.000193787 " transform="matrix(6.218149,0,0,6.218149,4.561038,59.669174)"/>
<path style="fill:none;stroke-width:0.1;stroke-linecap:round;stroke-linejoin:round;stroke:rgb(0%,0%,0%);stroke-opacity:1;stroke-miterlimit:4;" d="M 0.049863 -0.000290436 L 9.855459 -0.000290436 " transform="matrix(6.218149,0,0,6.218149,4.561038,53.451025)"/>
<path style="fill:none;stroke-width:0.1;stroke-linecap:round;stroke-linejoin:round;stroke:rgb(0%,0%,0%);stroke-opacity:1;stroke-miterlimit:4;" d="M 0.049863 0.00024064 L 9.855459 0.00024064 " transform="matrix(6.218149,0,0,6.218149,4.561038,47.232879)"/>
<path style="fill:none;stroke-width:0.1;stroke-linecap:round;stroke-linejoin:round;stroke:rgb(0%,0%,0%);stroke-opacity:1;stroke-miterlimit:4;" d="M 0.049863 0.000143992 L 9.855459 0.000143992 " transform="matrix(6.218149,0,0,6.218149,4.561038,41.01473)"/>
<path style="fill:none;stroke-width:0.1;stroke-linecap:round;stroke-linejoin:round;stroke:rgb(0%,0%,0%);stroke-opacity:1;stroke-miterlimit:4;" d="M 0.049863 0.000047343 L 9.855459 0.000047343 " transform="matrix(6.218149,0,0,6.218149,4.561038,34.796581)"/>
<path style=" stroke:none;fill-rule:nonzero;fill:rgb(0%,0%,0%);fill-opacity:1;" d="M 47.019531 15.519531 L 57 15.519531 C 57.34375 15.519531 57.621094 15.796875 57.621094 16.140625 C 57.621094 16.484375 57.34375 16.765625 57 16.765625 L 47.019531 16.765625 C 46.675781 16.765625 46.398438 16.484375 46.398438 16.140625 C 46.398438 15.796875 46.675781 15.519531 47.019531 15.519531 Z M 47.019531 15.519531 "/>
<path style=" stroke:none;fill-rule:nonzero;fill:rgb(0%,0%,0%);fill-opacity:1;" d="M 46.078125 21.738281 L 57 21.738281 C 57.34375 21.738281 57.621094 22.015625 57.621094 22.359375 C 57.621094 22.703125 57.34375 22.980469 57 22.980469 L 46.078125 22.980469 C 45.734375 22.980469 45.457031 22.703125 45.457031 22.359375 C 45.457031 22.015625 45.734375 21.738281 46.078125 21.738281 Z M 46.078125 21.738281 "/>
<path style=" stroke:none;fill-rule:nonzero;fill:rgb(0%,0%,0%);fill-opacity:1;" d="M 46.078125 27.957031 L 57 27.957031 C 57.34375 27.957031 57.621094 28.234375 57.621094 28.578125 C 57.621094 28.921875 57.34375 29.199219 57 29.199219 L 46.078125 29.199219 C 45.734375 29.199219 45.457031 28.921875 45.457031 28.578125 C 45.457031 28.234375 45.734375 27.957031 46.078125 27.957031 Z M 46.078125 27.957031 "/>
<path style=" stroke:none;fill-rule:nonzero;fill:rgb(0%,0%,0%);fill-opacity:1;" d="M 47.734375 17.300781 L 48.042969 17.300781 C 48.183594 17.300781 48.292969 17.410156 48.292969 17.546875 L 48.292969 50.09375 C 48.292969 50.230469 48.183594 50.34375 48.042969 50.34375 L 47.734375 50.34375 C 47.597656 50.34375 47.484375 50.230469 47.484375 50.09375 L 47.484375 17.546875 C 47.484375 17.410156 47.597656 17.300781 47.734375 17.300781 Z M 47.734375 17.300781 "/>
<path style=" stroke:none;fill-rule:nonzero;fill:rgb(0%,0%,0%);fill-opacity:1;" d="M 41.003906 15.121094 L 40.980469 16.765625 L 40.980469 17.039062 C 40.980469 17.585938 41.003906 18.132812 41.082031 18.679688 C 42.199219 17.734375 43.394531 16.6875 43.394531 15.222656 C 43.394531 14.402344 43.046875 13.554688 42.324219 13.554688 C 41.554688 13.554688 41.03125 14.300781 41.003906 15.121094 Z M 39.960938 19.574219 L 39.664062 4.773438 C 39.863281 4.652344 40.109375 4.578125 40.335938 4.578125 C 40.558594 4.578125 40.804688 4.652344 41.003906 4.773438 L 40.832031 13.355469 C 41.453125 12.835938 42.273438 12.511719 43.09375 12.511719 C 44.386719 12.511719 45.308594 13.703125 45.308594 15.046875 C 45.308594 17.039062 43.167969 17.957031 41.652344 19.25 C 41.277344 19.574219 41.054688 20.195312 40.53125 20.195312 C 40.210938 20.195312 39.960938 19.921875 39.960938 19.574219 Z M 39.960938 19.574219 "/>
<path style=" stroke:none;fill-rule:nonzero;fill:rgb(0%,0%,0%);fill-opacity:1;" d="M 30.632812 21.339844 L 30.609375 22.980469 L 30.609375 23.253906 C 30.609375 23.804688 30.632812 24.351562 30.707031 24.898438 C 31.828125 23.953125 33.023438 22.90625 33.023438 21.441406 C 33.023438 20.621094 32.671875 19.773438 31.953125 19.773438 C 31.179688 19.773438 30.660156 20.519531 30.632812 21.339844 Z M 29.589844 25.792969 L 29.289062 10.992188 C 29.488281 10.871094 29.738281 10.792969 29.960938 10.792969 C 30.1875 10.792969 30.433594 10.871094 30.632812 10.992188 L 30.460938 19.574219 C 31.082031 19.050781 31.902344 18.730469 32.722656 18.730469 C 34.015625 18.730469 34.9375 19.921875 34.9375 21.265625 C 34.9375 23.253906 32.796875 24.175781 31.28125 25.46875 C 30.90625 25.792969 30.683594 26.414062 30.160156 26.414062 C 29.835938 26.414062 29.589844 26.140625 29.589844 25.792969 Z M 29.589844 25.792969 "/>
<path style=" stroke:none;fill-rule:nonzero;fill:rgb(0%,0%,0%);fill-opacity:1;" d="M 37.523438 27.558594 L 37.5 29.199219 L 37.5 29.472656 C 37.5 30.019531 37.523438 30.566406 37.597656 31.117188 C 38.71875 30.171875 39.910156 29.125 39.910156 27.65625 C 39.910156 26.835938 39.5625 25.992188 38.839844 25.992188 C 38.070312 25.992188 37.546875 26.738281 37.523438 27.558594 Z M 36.480469 32.011719 L 36.179688 17.210938 C 36.378906 17.085938 36.628906 17.011719 36.851562 17.011719 C 37.074219 17.011719 37.324219 17.085938 37.523438 17.210938 L 37.347656 25.792969 C 37.972656 25.269531 38.792969 24.945312 39.613281 24.945312 C 40.90625 24.945312 41.828125 26.140625 41.828125 27.484375 C 41.828125 29.472656 39.6875 30.394531 38.171875 31.6875 C 37.796875 32.011719 37.574219 32.632812 37.050781 32.632812 C 36.726562 32.632812 36.480469 32.359375 36.480469 32.011719 Z M 36.480469 32.011719 "/>
<path style=" stroke:none;fill-rule:nonzero;fill:rgb(0%,0%,0%);fill-opacity:1;" d="M 16.152344 69.246094 L 16.003906 69.246094 C 13.316406 69.246094 11.152344 67.054688 11.152344 64.34375 C 11.152344 62.902344 12.46875 61.785156 13.9375 61.785156 C 15.28125 61.785156 16.300781 62.953125 16.300781 64.34375 C 16.300781 65.636719 15.230469 66.707031 13.9375 66.707031 C 13.664062 66.707031 13.414062 66.660156 13.167969 66.558594 C 13.8125 67.527344 14.859375 68.175781 16.078125 68.175781 L 16.175781 68.175781 Z M 21 58.5 C 22.691406 57.902344 23.8125 56.136719 23.8125 54.421875 C 23.8125 52.183594 22.171875 49.96875 19.507812 49.695312 C 20.105469 52.582031 20.652344 55.441406 21 58.5 Z M 11.375 52.753906 C 11.375 56.113281 14.585938 58.898438 17.941406 58.898438 C 18.640625 58.898438 19.308594 58.847656 19.980469 58.75 C 19.632812 55.589844 19.0625 52.65625 18.414062 49.695312 C 16.449219 49.894531 15.332031 51.210938 15.332031 52.65625 C 15.332031 53.75 15.953125 54.917969 17.34375 55.714844 C 17.46875 55.839844 17.519531 55.964844 17.519531 56.085938 C 17.519531 56.359375 17.269531 56.632812 16.972656 56.632812 C 16.898438 56.632812 16.824219 56.609375 16.75 56.585938 C 14.757812 55.515625 13.839844 53.726562 13.839844 51.984375 C 13.839844 49.792969 15.28125 47.65625 17.816406 47.082031 C 17.46875 45.640625 17.097656 44.171875 16.675781 42.730469 C 14.011719 45.742188 11.375 48.773438 11.375 52.753906 Z M 17.867188 59.96875 C 13.191406 59.96875 9.585938 55.691406 9.585938 50.664062 C 9.585938 46.261719 12.84375 43.054688 15.753906 39.695312 C 15.28125 38.15625 14.832031 36.585938 14.632812 34.96875 C 14.484375 33.675781 14.460938 32.382812 14.460938 31.089844 C 14.460938 28.230469 15.828125 25.519531 18.167969 23.828125 C 18.316406 23.703125 18.515625 23.703125 18.664062 23.828125 C 20.429688 25.917969 21.972656 29.921875 21.972656 32.730469 C 21.972656 36.289062 19.832031 39.074219 17.496094 41.785156 C 18.015625 43.476562 18.464844 45.21875 18.886719 46.933594 C 18.988281 46.933594 19.113281 46.910156 19.210938 46.910156 C 23.066406 46.910156 25.578125 50.09375 25.578125 53.402344 C 25.578125 55.292969 24.757812 57.230469 22.917969 58.625 C 22.371094 59.046875 21.746094 59.320312 21.101562 59.519531 C 21.175781 60.390625 21.226562 61.261719 21.226562 62.132812 C 21.226562 62.605469 21.199219 63.101562 21.175781 63.574219 C 21 66.535156 18.988281 69.171875 16.152344 69.246094 L 16.175781 68.175781 C 18.488281 68.125 19.980469 65.886719 20.132812 63.425781 C 20.15625 62.976562 20.179688 62.503906 20.179688 62.058594 C 20.179688 61.285156 20.15625 60.539062 20.082031 59.769531 C 19.359375 59.894531 18.640625 59.96875 17.867188 59.96875 Z M 20.179688 30.667969 C 20.179688 29.300781 20.082031 28.703125 19.683594 27.460938 C 17.222656 28.652344 15.652344 31.164062 15.652344 33.902344 C 15.652344 35.742188 16.101562 37.210938 16.550781 38.726562 C 18.539062 36.3125 20.179688 33.800781 20.179688 30.667969 Z M 20.179688 30.667969 "/>
<path style=" stroke:none;fill-rule:nonzero;fill:rgb(0%,0%,0%);fill-opacity:1;" d="M 52.90625 12.757812 C 54.273438 12.757812 55.59375 13.457031 55.59375 14.972656 C 55.59375 16.738281 54.226562 17.984375 53.054688 18.679688 C 52.1875 19.203125 51.191406 19.523438 50.171875 19.523438 C 48.804688 19.523438 47.484375 18.828125 47.484375 17.3125 C 47.484375 15.546875 48.851562 14.300781 50.023438 13.605469 C 50.890625 13.082031 51.886719 12.757812 52.90625 12.757812 Z M 52.90625 12.757812 "/>
<path style=" stroke:none;fill-rule:nonzero;fill:rgb(0%,0%,0%);fill-opacity:1;" d="M 52.90625 18.976562 C 54.273438 18.976562 55.59375 19.675781 55.59375 21.191406 C 55.59375 22.957031 54.226562 24.199219 53.054688 24.898438 C 52.1875 25.417969 51.191406 25.742188 50.171875 25.742188 C 48.804688 25.742188 47.484375 25.046875 47.484375 23.527344 C 47.484375 21.761719 48.851562 20.519531 50.023438 19.824219 C 50.890625 19.300781 51.886719 18.976562 52.90625 18.976562 Z M 52.90625 18.976562 "/>
<path style=" stroke:none;fill-rule:nonzero;fill:rgb(0%,0%,0%);fill-opacity:1;" d="M 52.90625 25.195312 C 54.273438 25.195312 55.59375 25.890625 55.59375 27.410156 C 55.59375 29.175781 54.226562 30.417969 53.054688 31.117188 C 52.1875 31.636719 51.191406 31.960938 50.171875 31.960938 C 48.804688 31.960938 47.484375 31.265625 47.484375 29.746094 C 47.484375 27.980469 48.851562 26.738281 50.023438 26.042969 C 50.890625 25.519531 51.886719 25.195312 52.90625 25.195312 Z M 52.90625 25.195312 "/>
</g>
</svg>
