<?xml version="1.0" encoding="UTF-8"?>
<svg xmlns="http://www.w3.org/2000/svg" xmlns:xlink="http://www.w3.org/1999/xlink" width="86.582467pt" height="71.629017pt" viewBox="0 0 86.582467 71.629017" version="1.1">
<g id="surface1">
<path style="fill:none;stroke-width:0.1;stroke-linecap:round;stroke-linejoin:round;stroke:rgb(0%,0%,0%);stroke-opacity:1;stroke-miterlimit:4;" d="M 0.049863 -0.000287501 L 11.478731 -0.000287501 " transform="matrix(6.218149,0,0,6.218149,4.561038,40.517413)"/>
<path style="fill:none;stroke-width:0.1;stroke-linecap:round;stroke-linejoin:round;stroke:rgb(0%,0%,0%);stroke-opacity:1;stroke-miterlimit:4;" d="M 0.049863 0.000244052 L 11.478731 0.000244052 " transform="matrix(6.218149,0,0,6.218149,4.561038,34.299264)"/>
<path style="fill:none;stroke-width:0.1;stroke-linecap:round;stroke-linejoin:round;stroke:rgb(0%,0%,0%);stroke-opacity:1;stroke-miterlimit:4;" d="M 0.049863 0.000147403 L 11.478731 0.000147403 " transform="matrix(6.218149,0,0,6.218149,4.561038,28.081115)"/>
<path style="fill:none;stroke-width:0.1;stroke-linecap:round;stroke-linejoin:round;stroke:rgb(0%,0%,0%);stroke-opacity:1;stroke-miterlimit:4;" d="M 0.049863 0.0000507548 L 11.478731 0.0000507548 " transform="matrix(6.218149,0,0,6.218149,4.561038,21.862966)"/>
<path style="fill:none;stroke-width:0.1;stroke-linecap:round;stroke-linejoin:round;stroke:rgb(0%,0%,0%);stroke-opacity:1;stroke-miterlimit:4;" d="M 0.049863 -0.0000458938 L 11.478731 -0.0000458938 " transform="matrix(6.218149,0,0,6.218149,4.561038,15.644817)"/>
<path style=" stroke:none;fill-rule:nonzero;fill:rgb(0%,0%,0%);fill-opacity:1;" d="M 56.175781 46.113281 L 67.097656 46.113281 C 67.441406 46.113281 67.71875 46.390625 67.71875 46.734375 C 67.71875 47.078125 67.441406 47.355469 67.097656 47.355469 L 56.175781 47.355469 C 55.832031 47.355469 55.554688 47.078125 55.554688 46.734375 C 55.554688 46.390625 55.832031 46.113281 56.175781 46.113281 Z M 56.175781 46.113281 "/>
<path style=" stroke:none;fill-rule:nonzero;fill:rgb(0%,0%,0%);fill-opacity:1;" d="M 56.175781 52.332031 L 67.097656 52.332031 C 67.441406 52.332031 67.71875 52.609375 67.71875 52.953125 C 67.71875 53.296875 67.441406 53.574219 67.097656 53.574219 L 56.175781 53.574219 C 55.832031 53.574219 55.554688 53.296875 55.554688 52.953125 C 55.554688 52.609375 55.832031 52.332031 56.175781 52.332031 Z M 56.175781 52.332031 "/>
<path style=" stroke:none;fill-rule:nonzero;fill:rgb(0%,0%,0%);fill-opacity:1;" d="M 65.132812 12.535156 L 65.441406 12.535156 C 65.578125 12.535156 65.691406 12.648438 65.691406 12.785156 L 65.691406 51.546875 C 65.691406 51.683594 65.578125 51.796875 65.441406 51.796875 L 65.132812 51.796875 C 64.992188 51.796875 64.882812 51.683594 64.882812 51.546875 L 64.882812 12.785156 C 64.882812 12.648438 64.992188 12.535156 65.132812 12.535156 Z M 65.132812 12.535156 "/>
<path style=" stroke:none;fill-rule:nonzero;fill:rgb(0%,0%,0%);fill-opacity:1;" d="M 53.9375 42.058594 C 53.9375 42.308594 53.738281 42.53125 53.488281 42.53125 C 53.242188 42.53125 53.015625 42.308594 53.015625 42.058594 L 53.015625 38.453125 L 50.953125 39.222656 L 50.953125 43.152344 C 50.953125 43.402344 50.730469 43.625 50.480469 43.625 C 50.230469 43.625 50.03125 43.402344 50.03125 43.152344 L 50.03125 39.546875 L 49.238281 39.847656 C 49.1875 39.871094 49.113281 39.871094 49.0625 39.871094 C 48.789062 39.871094 48.566406 39.648438 48.566406 39.375 L 48.566406 37.882812 C 48.566406 37.683594 48.6875 37.484375 48.886719 37.410156 L 50.03125 37.011719 L 50.03125 33.03125 L 49.238281 33.304688 C 49.1875 33.328125 49.113281 33.328125 49.0625 33.328125 C 48.789062 33.328125 48.566406 33.105469 48.566406 32.832031 L 48.566406 31.339844 C 48.566406 31.140625 48.6875 30.964844 48.886719 30.890625 L 50.03125 30.46875 L 50.03125 26.539062 C 50.03125 26.289062 50.230469 26.066406 50.480469 26.066406 C 50.730469 26.066406 50.953125 26.289062 50.953125 26.539062 L 50.953125 30.144531 L 53.015625 29.375 L 53.015625 25.445312 C 53.015625 25.195312 53.242188 24.972656 53.488281 24.972656 C 53.738281 24.972656 53.9375 25.195312 53.9375 25.445312 L 53.9375 29.050781 L 54.734375 28.753906 C 54.78125 28.726562 54.859375 28.726562 54.90625 28.726562 C 55.179688 28.726562 55.40625 28.953125 55.40625 29.226562 L 55.40625 30.71875 C 55.40625 30.917969 55.28125 31.117188 55.082031 31.191406 L 53.9375 31.589844 L 53.9375 35.566406 L 54.734375 35.292969 C 54.78125 35.269531 54.859375 35.269531 54.90625 35.269531 C 55.179688 35.269531 55.40625 35.492188 55.40625 35.765625 L 55.40625 37.257812 C 55.40625 37.457031 55.28125 37.632812 55.082031 37.707031 L 53.9375 38.128906 Z M 50.953125 32.683594 L 50.953125 36.664062 L 53.015625 35.914062 L 53.015625 31.9375 Z M 50.953125 32.683594 "/>
<path style=" stroke:none;fill-rule:nonzero;fill:rgb(0%,0%,0%);fill-opacity:1;" d="M 42.347656 48.277344 C 42.347656 48.527344 42.148438 48.75 41.898438 48.75 C 41.652344 48.75 41.425781 48.527344 41.425781 48.277344 L 41.425781 44.671875 L 39.363281 45.441406 L 39.363281 49.371094 C 39.363281 49.621094 39.136719 49.84375 38.890625 49.84375 C 38.640625 49.84375 38.441406 49.621094 38.441406 49.371094 L 38.441406 45.765625 L 37.644531 46.0625 C 37.597656 46.089844 37.523438 46.089844 37.472656 46.089844 C 37.199219 46.089844 36.972656 45.863281 36.972656 45.589844 L 36.972656 44.097656 C 36.972656 43.898438 37.097656 43.699219 37.296875 43.625 L 38.441406 43.230469 L 38.441406 39.25 L 37.644531 39.523438 C 37.597656 39.546875 37.523438 39.546875 37.472656 39.546875 C 37.199219 39.546875 36.972656 39.324219 36.972656 39.050781 L 36.972656 37.558594 C 36.972656 37.359375 37.097656 37.183594 37.296875 37.109375 L 38.441406 36.6875 L 38.441406 32.757812 C 38.441406 32.507812 38.640625 32.285156 38.890625 32.285156 C 39.136719 32.285156 39.363281 32.507812 39.363281 32.757812 L 39.363281 36.363281 L 41.425781 35.59375 L 41.425781 31.664062 C 41.425781 31.414062 41.652344 31.191406 41.898438 31.191406 C 42.148438 31.191406 42.347656 31.414062 42.347656 31.664062 L 42.347656 35.269531 L 43.144531 34.972656 C 43.191406 34.945312 43.265625 34.945312 43.316406 34.945312 C 43.589844 34.945312 43.8125 35.167969 43.8125 35.445312 L 43.8125 36.9375 C 43.8125 37.132812 43.691406 37.332031 43.492188 37.410156 L 42.347656 37.804688 L 42.347656 41.785156 L 43.144531 41.511719 C 43.191406 41.488281 43.265625 41.488281 43.316406 41.488281 C 43.589844 41.488281 43.8125 41.710938 43.8125 41.984375 L 43.8125 43.476562 C 43.8125 43.675781 43.691406 43.851562 43.492188 43.925781 L 42.347656 44.347656 Z M 39.363281 38.902344 L 39.363281 42.878906 L 41.425781 42.132812 L 41.425781 38.15625 Z M 39.363281 38.902344 "/>
<path style=" stroke:none;fill-rule:nonzero;fill:rgb(0%,0%,0%);fill-opacity:1;" d="M 32.996094 46.734375 C 33.570312 47.308594 34.390625 47.433594 35.210938 47.433594 C 35.359375 47.433594 35.460938 47.53125 35.460938 47.679688 L 35.683594 49.84375 C 35.707031 49.992188 35.582031 50.117188 35.433594 50.09375 L 33.269531 49.871094 C 33.144531 49.84375 33.023438 49.746094 33.023438 49.621094 C 33.023438 48.800781 32.898438 47.980469 32.324219 47.40625 C 31.753906 47.980469 31.652344 48.800781 31.652344 49.621094 C 31.652344 49.746094 31.527344 49.84375 31.40625 49.871094 L 29.214844 50.09375 C 29.066406 50.117188 28.941406 49.992188 28.96875 49.84375 L 29.191406 47.679688 C 29.191406 47.53125 29.289062 47.433594 29.441406 47.433594 C 30.261719 47.433594 31.082031 47.308594 31.652344 46.734375 C 31.082031 46.164062 30.261719 46.039062 29.441406 46.039062 C 29.289062 46.039062 29.191406 45.941406 29.191406 45.789062 L 28.96875 43.625 C 28.941406 43.476562 29.066406 43.351562 29.214844 43.378906 L 31.40625 43.601562 C 31.527344 43.625 31.628906 43.726562 31.628906 43.851562 C 31.628906 44.671875 31.753906 45.492188 32.324219 46.0625 C 32.898438 45.492188 33.023438 44.671875 33.023438 43.851562 C 33.023438 43.726562 33.144531 43.625 33.269531 43.601562 L 35.433594 43.378906 C 35.582031 43.351562 35.707031 43.476562 35.683594 43.625 L 35.460938 45.789062 C 35.460938 45.941406 35.359375 46.039062 35.210938 46.039062 C 34.390625 46.039062 33.570312 46.164062 32.996094 46.734375 Z M 32.996094 46.734375 "/>
<path style=" stroke:none;fill-rule:nonzero;fill:rgb(0%,0%,0%);fill-opacity:1;" d="M 48.789062 60.714844 C 48.789062 60.960938 48.589844 61.1875 48.339844 61.1875 C 48.09375 61.1875 47.867188 60.960938 47.867188 60.714844 L 47.867188 57.109375 L 45.804688 57.878906 L 45.804688 61.808594 C 45.804688 62.058594 45.582031 62.28125 45.332031 62.28125 C 45.082031 62.28125 44.882812 62.058594 44.882812 61.808594 L 44.882812 58.203125 L 44.089844 58.5 C 44.039062 58.523438 43.964844 58.523438 43.914062 58.523438 C 43.640625 58.523438 43.417969 58.300781 43.417969 58.027344 L 43.417969 56.535156 C 43.417969 56.335938 43.539062 56.136719 43.738281 56.0625 L 44.882812 55.664062 L 44.882812 51.683594 L 44.089844 51.957031 C 44.039062 51.984375 43.964844 51.984375 43.914062 51.984375 C 43.640625 51.984375 43.417969 51.761719 43.417969 51.484375 L 43.417969 49.992188 C 43.417969 49.792969 43.539062 49.621094 43.738281 49.546875 L 44.882812 49.125 L 44.882812 45.195312 C 44.882812 44.945312 45.082031 44.722656 45.332031 44.722656 C 45.582031 44.722656 45.804688 44.945312 45.804688 45.195312 L 45.804688 48.800781 L 47.867188 48.027344 L 47.867188 44.097656 C 47.867188 43.851562 48.09375 43.625 48.339844 43.625 C 48.589844 43.625 48.789062 43.851562 48.789062 44.097656 L 48.789062 47.707031 L 49.585938 47.40625 C 49.632812 47.382812 49.710938 47.382812 49.757812 47.382812 C 50.03125 47.382812 50.257812 47.605469 50.257812 47.878906 L 50.257812 49.371094 C 50.257812 49.570312 50.132812 49.769531 49.933594 49.84375 L 48.789062 50.242188 L 48.789062 54.222656 L 49.585938 53.949219 C 49.632812 53.921875 49.710938 53.921875 49.757812 53.921875 C 50.03125 53.921875 50.257812 54.148438 50.257812 54.421875 L 50.257812 55.914062 C 50.257812 56.113281 50.132812 56.285156 49.933594 56.359375 L 48.789062 56.785156 Z M 45.804688 51.335938 L 45.804688 55.316406 L 47.867188 54.570312 L 47.867188 50.589844 Z M 45.804688 51.335938 "/>
<path style=" stroke:none;fill-rule:nonzero;fill:rgb(0%,0%,0%);fill-opacity:1;" d="M 16.152344 50.09375 L 16.003906 50.09375 C 13.316406 50.09375 11.152344 47.90625 11.152344 45.195312 C 11.152344 43.75 12.46875 42.632812 13.9375 42.632812 C 15.28125 42.632812 16.300781 43.800781 16.300781 45.195312 C 16.300781 46.488281 15.230469 47.554688 13.9375 47.554688 C 13.664062 47.554688 13.414062 47.507812 13.167969 47.40625 C 13.8125 48.378906 14.859375 49.023438 16.078125 49.023438 L 16.175781 49.023438 Z M 21 39.347656 C 22.691406 38.75 23.8125 36.984375 23.8125 35.269531 C 23.8125 33.03125 22.171875 30.816406 19.507812 30.542969 C 20.105469 33.429688 20.652344 36.289062 21 39.347656 Z M 11.375 33.601562 C 11.375 36.960938 14.585938 39.746094 17.941406 39.746094 C 18.640625 39.746094 19.308594 39.695312 19.980469 39.597656 C 19.632812 36.4375 19.0625 33.503906 18.414062 30.542969 C 16.449219 30.742188 15.332031 32.0625 15.332031 33.503906 C 15.332031 34.597656 15.953125 35.765625 17.34375 36.5625 C 17.46875 36.6875 17.519531 36.8125 17.519531 36.9375 C 17.519531 37.210938 17.269531 37.484375 16.972656 37.484375 C 16.898438 37.484375 16.824219 37.457031 16.75 37.433594 C 14.757812 36.363281 13.839844 34.574219 13.839844 32.832031 C 13.839844 30.644531 15.28125 28.503906 17.816406 27.933594 C 17.46875 26.488281 17.097656 25.023438 16.675781 23.578125 C 14.011719 26.589844 11.375 29.625 11.375 33.601562 Z M 17.867188 40.816406 C 13.191406 40.816406 9.585938 36.539062 9.585938 31.511719 C 9.585938 27.109375 12.84375 23.902344 15.753906 20.542969 C 15.28125 19.003906 14.832031 17.4375 14.632812 15.820312 C 14.484375 14.527344 14.460938 13.230469 14.460938 11.9375 C 14.460938 9.078125 15.828125 6.367188 18.167969 4.675781 C 18.316406 4.550781 18.515625 4.550781 18.664062 4.675781 C 20.429688 6.765625 21.972656 10.769531 21.972656 13.582031 C 21.972656 17.136719 19.832031 19.921875 17.496094 22.632812 C 18.015625 24.324219 18.464844 26.066406 18.886719 27.78125 C 18.988281 27.78125 19.113281 27.757812 19.210938 27.757812 C 23.066406 27.757812 25.578125 30.941406 25.578125 34.25 C 25.578125 36.140625 24.757812 38.078125 22.917969 39.472656 C 22.371094 39.894531 21.746094 40.167969 21.101562 40.367188 C 21.175781 41.238281 21.226562 42.109375 21.226562 42.980469 C 21.226562 43.453125 21.199219 43.949219 21.175781 44.421875 C 21 47.382812 18.988281 50.019531 16.152344 50.09375 L 16.175781 49.023438 C 18.488281 48.972656 19.980469 46.734375 20.132812 44.273438 C 20.15625 43.824219 20.179688 43.351562 20.179688 42.90625 C 20.179688 42.132812 20.15625 41.386719 20.082031 40.617188 C 19.359375 40.742188 18.640625 40.816406 17.867188 40.816406 Z M 20.179688 11.515625 C 20.179688 10.148438 20.082031 9.550781 19.683594 8.308594 C 17.222656 9.5 15.652344 12.011719 15.652344 14.75 C 15.652344 16.589844 16.101562 18.058594 16.550781 19.574219 C 18.539062 17.160156 20.179688 14.648438 20.179688 11.515625 Z M 20.179688 11.515625 "/>
<path style=" stroke:none;fill-rule:nonzero;fill:rgb(0%,0%,0%);fill-opacity:1;" d="M 63.003906 30.917969 C 64.371094 30.917969 65.691406 31.613281 65.691406 33.128906 C 65.691406 34.894531 64.320312 36.140625 63.152344 36.835938 C 62.28125 37.359375 61.289062 37.683594 60.265625 37.683594 C 58.898438 37.683594 57.582031 36.984375 57.582031 35.46875 C 57.582031 33.703125 58.949219 32.457031 60.117188 31.761719 C 60.988281 31.238281 61.984375 30.917969 63.003906 30.917969 Z M 63.003906 30.917969 "/>
<path style=" stroke:none;fill-rule:nonzero;fill:rgb(0%,0%,0%);fill-opacity:1;" d="M 63.003906 37.132812 C 64.371094 37.132812 65.691406 37.832031 65.691406 39.347656 C 65.691406 41.113281 64.320312 42.359375 63.152344 43.054688 C 62.28125 43.578125 61.289062 43.898438 60.265625 43.898438 C 58.898438 43.898438 57.582031 43.203125 57.582031 41.6875 C 57.582031 39.921875 58.949219 38.675781 60.117188 37.980469 C 60.988281 37.457031 61.984375 37.132812 63.003906 37.132812 Z M 63.003906 37.132812 "/>
<path style=" stroke:none;fill-rule:nonzero;fill:rgb(0%,0%,0%);fill-opacity:1;" d="M 63.003906 43.351562 C 64.371094 43.351562 65.691406 44.050781 65.691406 45.566406 C 65.691406 47.332031 64.320312 48.574219 63.152344 49.273438 C 62.28125 49.792969 61.289062 50.117188 60.265625 50.117188 C 58.898438 50.117188 57.582031 49.421875 57.582031 47.90625 C 57.582031 46.136719 58.949219 44.894531 60.117188 44.199219 C 60.988281 43.675781 61.984375 43.351562 63.003906 43.351562 Z M 63.003906 43.351562 "/>
<path style=" stroke:none;fill-rule:nonzero;fill:rgb(0%,0%,0%);fill-opacity:1;" d="M 63.003906 49.570312 C 64.371094 49.570312 65.691406 50.265625 65.691406 51.785156 C 65.691406 53.550781 64.320312 54.792969 63.152344 55.492188 C 62.28125 56.011719 61.289062 56.335938 60.265625 56.335938 C 58.898438 56.335938 57.582031 55.640625 57.582031 54.121094 C 57.582031 52.355469 58.949219 51.113281 60.117188 50.417969 C 60.988281 49.894531 61.984375 49.570312 63.003906 49.570312 Z M 63.003906 49.570312 "/>
</g>
</svg>
