<?xml version="1.0" encoding="UTF-8"?>
<svg xmlns="http://www.w3.org/2000/svg" xmlns:xlink="http://www.w3.org/1999/xlink" width="74.549567pt" height="76.683406pt" viewBox="0 0 74.549567 76.683406" version="1.1">
<g id="surface1">
<path style="fill:none;stroke-width:0.1;stroke-linecap:round;stroke-linejoin:round;stroke:rgb(0%,0%,0%);stroke-opacity:1;stroke-miterlimit:4;" d="M 0.049863 -0.00015354 L 9.666998 -0.00015354 " transform="matrix(6.218149,0,0,6.218149,4.561038,57.430642)"/>
<path style="fill:none;stroke-width:0.1;stroke-linecap:round;stroke-linejoin:round;stroke:rgb(0%,0%,0%);stroke-opacity:1;stroke-miterlimit:4;" d="M 0.049863 -0.000250188 L 9.666998 -0.000250188 " transform="matrix(6.218149,0,0,6.218149,4.561038,51.212493)"/>
<path style="fill:none;stroke-width:0.1;stroke-linecap:round;stroke-linejoin:round;stroke:rgb(0%,0%,0%);stroke-opacity:1;stroke-miterlimit:4;" d="M 0.049863 0.000281364 L 9.666998 0.000281364 " transform="matrix(6.218149,0,0,6.218149,4.561038,44.994344)"/>
<path style="fill:none;stroke-width:0.1;stroke-linecap:round;stroke-linejoin:round;stroke:rgb(0%,0%,0%);stroke-opacity:1;stroke-miterlimit:4;" d="M 0.049863 0.000184716 L 9.666998 0.000184716 " transform="matrix(6.218149,0,0,6.218149,4.561038,38.776195)"/>
<path style="fill:none;stroke-width:0.1;stroke-linecap:round;stroke-linejoin:round;stroke:rgb(0%,0%,0%);stroke-opacity:1;stroke-miterlimit:4;" d="M 0.049863 0.0000880672 L 9.666998 0.0000880672 " transform="matrix(6.218149,0,0,6.218149,4.561038,32.558046)"/>
<path style=" stroke:none;fill-rule:nonzero;fill:rgb(0%,0%,0%);fill-opacity:1;" d="M 45.847656 13.28125 L 55.832031 13.28125 C 56.175781 13.28125 56.453125 13.558594 56.453125 13.902344 C 56.453125 14.246094 56.175781 14.527344 55.832031 14.527344 L 45.847656 14.527344 C 45.507812 14.527344 45.226562 14.246094 45.226562 13.902344 C 45.226562 13.558594 45.507812 13.28125 45.847656 13.28125 Z M 45.847656 13.28125 "/>
<path style=" stroke:none;fill-rule:nonzero;fill:rgb(0%,0%,0%);fill-opacity:1;" d="M 44.910156 19.5 L 55.832031 19.5 C 56.175781 19.5 56.453125 19.777344 56.453125 20.121094 C 56.453125 20.464844 56.175781 20.742188 55.832031 20.742188 L 44.910156 20.742188 C 44.566406 20.742188 44.289062 20.464844 44.289062 20.121094 C 44.289062 19.777344 44.566406 19.5 44.910156 19.5 Z M 44.910156 19.5 "/>
<path style=" stroke:none;fill-rule:nonzero;fill:rgb(0%,0%,0%);fill-opacity:1;" d="M 44.910156 25.71875 L 55.832031 25.71875 C 56.175781 25.71875 56.453125 25.996094 56.453125 26.339844 C 56.453125 26.683594 56.175781 26.960938 55.832031 26.960938 L 44.910156 26.960938 C 44.566406 26.960938 44.289062 26.683594 44.289062 26.339844 C 44.289062 25.996094 44.566406 25.71875 44.910156 25.71875 Z M 44.910156 25.71875 "/>
<path style=" stroke:none;fill-rule:nonzero;fill:rgb(0%,0%,0%);fill-opacity:1;" d="M 46.566406 15.0625 L 46.875 15.0625 C 47.011719 15.0625 47.125 15.171875 47.125 15.308594 L 47.125 47.855469 C 47.125 47.992188 47.011719 48.101562 46.875 48.101562 L 46.566406 48.101562 C 46.425781 48.101562 46.316406 47.992188 46.316406 47.855469 L 46.316406 15.308594 C 46.316406 15.171875 46.425781 15.0625 46.566406 15.0625 Z M 46.566406 15.0625 "/>
<path style=" stroke:none;fill-rule:nonzero;fill:rgb(0%,0%,0%);fill-opacity:1;" d="M 42.671875 21.664062 C 42.671875 21.914062 42.472656 22.136719 42.222656 22.136719 C 41.976562 22.136719 41.75 21.914062 41.75 21.664062 L 41.75 18.058594 L 39.6875 18.828125 L 39.6875 22.757812 C 39.6875 23.007812 39.464844 23.230469 39.214844 23.230469 C 38.964844 23.230469 38.765625 23.007812 38.765625 22.757812 L 38.765625 19.152344 L 37.972656 19.449219 C 37.921875 19.476562 37.847656 19.476562 37.796875 19.476562 C 37.523438 19.476562 37.300781 19.25 37.300781 18.976562 L 37.300781 17.484375 C 37.300781 17.285156 37.425781 17.085938 37.621094 17.011719 L 38.765625 16.613281 L 38.765625 12.636719 L 37.972656 12.910156 C 37.921875 12.933594 37.847656 12.933594 37.796875 12.933594 C 37.523438 12.933594 37.300781 12.710938 37.300781 12.4375 L 37.300781 10.945312 C 37.300781 10.746094 37.425781 10.570312 37.621094 10.496094 L 38.765625 10.074219 L 38.765625 6.144531 C 38.765625 5.894531 38.964844 5.671875 39.214844 5.671875 C 39.464844 5.671875 39.6875 5.894531 39.6875 6.144531 L 39.6875 9.75 L 41.75 8.980469 L 41.75 5.050781 C 41.75 4.800781 41.976562 4.578125 42.222656 4.578125 C 42.472656 4.578125 42.671875 4.800781 42.671875 5.050781 L 42.671875 8.65625 L 43.46875 8.355469 C 43.519531 8.332031 43.59375 8.332031 43.640625 8.332031 C 43.914062 8.332031 44.140625 8.554688 44.140625 8.828125 L 44.140625 10.320312 C 44.140625 10.519531 44.015625 10.71875 43.816406 10.792969 L 42.671875 11.191406 L 42.671875 15.171875 L 43.46875 14.898438 C 43.519531 14.875 43.59375 14.875 43.640625 14.875 C 43.914062 14.875 44.140625 15.097656 44.140625 15.371094 L 44.140625 16.863281 C 44.140625 17.0625 44.015625 17.238281 43.816406 17.3125 L 42.671875 17.734375 Z M 39.6875 12.285156 L 39.6875 16.265625 L 41.75 15.519531 L 41.75 11.539062 Z M 39.6875 12.285156 "/>
<path style=" stroke:none;fill-rule:nonzero;fill:rgb(0%,0%,0%);fill-opacity:1;" d="M 34.589844 27.882812 C 34.589844 28.128906 34.390625 28.355469 34.140625 28.355469 C 33.890625 28.355469 33.667969 28.128906 33.667969 27.882812 L 33.667969 24.277344 L 31.605469 25.046875 L 31.605469 28.976562 C 31.605469 29.226562 31.378906 29.449219 31.132812 29.449219 C 30.882812 29.449219 30.683594 29.226562 30.683594 28.976562 L 30.683594 25.371094 L 29.886719 25.667969 C 29.835938 25.691406 29.761719 25.691406 29.714844 25.691406 C 29.441406 25.691406 29.214844 25.46875 29.214844 25.195312 L 29.214844 23.703125 C 29.214844 23.503906 29.339844 23.304688 29.539062 23.230469 L 30.683594 22.832031 L 30.683594 18.851562 L 29.886719 19.125 C 29.835938 19.152344 29.761719 19.152344 29.714844 19.152344 C 29.441406 19.152344 29.214844 18.929688 29.214844 18.652344 L 29.214844 17.160156 C 29.214844 16.964844 29.339844 16.789062 29.539062 16.714844 L 30.683594 16.292969 L 30.683594 12.363281 C 30.683594 12.113281 30.882812 11.890625 31.132812 11.890625 C 31.378906 11.890625 31.605469 12.113281 31.605469 12.363281 L 31.605469 15.96875 L 33.667969 15.195312 L 33.667969 11.265625 C 33.667969 11.019531 33.890625 10.792969 34.140625 10.792969 C 34.390625 10.792969 34.589844 11.019531 34.589844 11.265625 L 34.589844 14.875 L 35.382812 14.574219 C 35.433594 14.550781 35.507812 14.550781 35.558594 14.550781 C 35.832031 14.550781 36.054688 14.773438 36.054688 15.046875 L 36.054688 16.539062 C 36.054688 16.738281 35.929688 16.9375 35.734375 17.011719 L 34.589844 17.410156 L 34.589844 21.390625 L 35.382812 21.117188 C 35.433594 21.089844 35.507812 21.089844 35.558594 21.089844 C 35.832031 21.089844 36.054688 21.316406 36.054688 21.589844 L 36.054688 23.082031 C 36.054688 23.28125 35.929688 23.453125 35.734375 23.527344 L 34.589844 23.953125 Z M 31.605469 18.503906 L 31.605469 22.484375 L 33.667969 21.738281 L 33.667969 17.757812 Z M 31.605469 18.503906 "/>
<path style=" stroke:none;fill-rule:nonzero;fill:rgb(0%,0%,0%);fill-opacity:1;" d="M 16.152344 67.007812 L 16.003906 67.007812 C 13.316406 67.007812 11.152344 64.816406 11.152344 62.105469 C 11.152344 60.664062 12.46875 59.542969 13.9375 59.542969 C 15.28125 59.542969 16.300781 60.714844 16.300781 62.105469 C 16.300781 63.398438 15.230469 64.46875 13.9375 64.46875 C 13.664062 64.46875 13.414062 64.417969 13.167969 64.320312 C 13.8125 65.289062 14.859375 65.9375 16.078125 65.9375 L 16.175781 65.9375 Z M 21 56.261719 C 22.691406 55.664062 23.8125 53.898438 23.8125 52.183594 C 23.8125 49.945312 22.171875 47.730469 19.507812 47.457031 C 20.105469 50.34375 20.652344 53.203125 21 56.261719 Z M 11.375 50.515625 C 11.375 53.875 14.585938 56.660156 17.941406 56.660156 C 18.640625 56.660156 19.308594 56.609375 19.980469 56.511719 C 19.632812 53.351562 19.0625 50.417969 18.414062 47.457031 C 16.449219 47.65625 15.332031 48.972656 15.332031 50.417969 C 15.332031 51.511719 15.953125 52.679688 17.34375 53.476562 C 17.46875 53.601562 17.519531 53.726562 17.519531 53.847656 C 17.519531 54.121094 17.269531 54.394531 16.972656 54.394531 C 16.898438 54.394531 16.824219 54.371094 16.75 54.347656 C 14.757812 53.277344 13.839844 51.484375 13.839844 49.746094 C 13.839844 47.554688 15.28125 45.417969 17.816406 44.84375 C 17.46875 43.402344 17.097656 41.933594 16.675781 40.492188 C 14.011719 43.503906 11.375 46.535156 11.375 50.515625 Z M 17.867188 57.730469 C 13.191406 57.730469 9.585938 53.449219 9.585938 48.425781 C 9.585938 44.023438 12.84375 40.816406 15.753906 37.457031 C 15.28125 35.914062 14.832031 34.347656 14.632812 32.730469 C 14.484375 31.4375 14.460938 30.144531 14.460938 28.851562 C 14.460938 25.992188 15.828125 23.28125 18.167969 21.589844 C 18.316406 21.464844 18.515625 21.464844 18.664062 21.589844 C 20.429688 23.679688 21.972656 27.683594 21.972656 30.492188 C 21.972656 34.050781 19.832031 36.835938 17.496094 39.546875 C 18.015625 41.238281 18.464844 42.980469 18.886719 44.695312 C 18.988281 44.695312 19.113281 44.671875 19.210938 44.671875 C 23.066406 44.671875 25.578125 47.855469 25.578125 51.164062 C 25.578125 53.054688 24.757812 54.992188 22.917969 56.386719 C 22.371094 56.808594 21.746094 57.082031 21.101562 57.28125 C 21.175781 58.152344 21.226562 59.023438 21.226562 59.894531 C 21.226562 60.367188 21.199219 60.863281 21.175781 61.335938 C 21 64.296875 18.988281 66.933594 16.152344 67.007812 L 16.175781 65.9375 C 18.488281 65.886719 19.980469 63.648438 20.132812 61.1875 C 20.15625 60.738281 20.179688 60.265625 20.179688 59.820312 C 20.179688 59.046875 20.15625 58.300781 20.082031 57.53125 C 19.359375 57.65625 18.640625 57.730469 17.867188 57.730469 Z M 20.179688 28.429688 C 20.179688 27.0625 20.082031 26.464844 19.683594 25.21875 C 17.222656 26.414062 15.652344 28.925781 15.652344 31.664062 C 15.652344 33.503906 16.101562 34.96875 16.550781 36.488281 C 18.539062 34.074219 20.179688 31.5625 20.179688 28.429688 Z M 20.179688 28.429688 "/>
<path style=" stroke:none;fill-rule:nonzero;fill:rgb(0%,0%,0%);fill-opacity:1;" d="M 51.738281 10.519531 C 53.105469 10.519531 54.425781 11.21875 54.425781 12.734375 C 54.425781 14.5 53.054688 15.746094 51.886719 16.441406 C 51.015625 16.964844 50.023438 17.285156 49.003906 17.285156 C 47.632812 17.285156 46.316406 16.589844 46.316406 15.074219 C 46.316406 13.308594 47.683594 12.0625 48.851562 11.367188 C 49.722656 10.84375 50.71875 10.519531 51.738281 10.519531 Z M 51.738281 10.519531 "/>
<path style=" stroke:none;fill-rule:nonzero;fill:rgb(0%,0%,0%);fill-opacity:1;" d="M 51.738281 16.738281 C 53.105469 16.738281 54.425781 17.433594 54.425781 18.953125 C 54.425781 20.71875 53.054688 21.960938 51.886719 22.660156 C 51.015625 23.179688 50.023438 23.503906 49.003906 23.503906 C 47.632812 23.503906 46.316406 22.808594 46.316406 21.289062 C 46.316406 19.523438 47.683594 18.28125 48.851562 17.585938 C 49.722656 17.0625 50.71875 16.738281 51.738281 16.738281 Z M 51.738281 16.738281 "/>
<path style=" stroke:none;fill-rule:nonzero;fill:rgb(0%,0%,0%);fill-opacity:1;" d="M 51.738281 22.957031 C 53.105469 22.957031 54.425781 23.652344 54.425781 25.171875 C 54.425781 26.9375 53.054688 28.179688 51.886719 28.875 C 51.015625 29.398438 50.023438 29.722656 49.003906 29.722656 C 47.632812 29.722656 46.316406 29.027344 46.316406 27.507812 C 46.316406 25.742188 47.683594 24.5 48.851562 23.804688 C 49.722656 23.28125 50.71875 22.957031 51.738281 22.957031 Z M 51.738281 22.957031 "/>
</g>
</svg>
