<?xml version="1.0" encoding="UTF-8"?>
<svg xmlns="http://www.w3.org/2000/svg" xmlns:xlink="http://www.w3.org/1999/xlink" width="90.818592pt" height="61.666356pt" viewBox="0 0 90.818592 61.666356" version="1.1">
<g id="surface1">
<path style="fill:none;stroke-width:0.1;stroke-linecap:round;stroke-linejoin:round;stroke:rgb(0%,0%,0%);stroke-opacity:1;stroke-miterlimit:4;" d="M 0.049863 -0.000287501 L 12.116984 -0.000287501 " transform="matrix(6.218149,0,0,6.218149,4.561038,40.517413)"/>
<path style="fill:none;stroke-width:0.1;stroke-linecap:round;stroke-linejoin:round;stroke:rgb(0%,0%,0%);stroke-opacity:1;stroke-miterlimit:4;" d="M 0.049863 0.000244052 L 12.116984 0.000244052 " transform="matrix(6.218149,0,0,6.218149,4.561038,34.299264)"/>
<path style="fill:none;stroke-width:0.1;stroke-linecap:round;stroke-linejoin:round;stroke:rgb(0%,0%,0%);stroke-opacity:1;stroke-miterlimit:4;" d="M 0.049863 0.000147403 L 12.116984 0.000147403 " transform="matrix(6.218149,0,0,6.218149,4.561038,28.081115)"/>
<path style="fill:none;stroke-width:0.1;stroke-linecap:round;stroke-linejoin:round;stroke:rgb(0%,0%,0%);stroke-opacity:1;stroke-miterlimit:4;" d="M 0.049863 0.0000507548 L 12.116984 0.0000507548 " transform="matrix(6.218149,0,0,6.218149,4.561038,21.862966)"/>
<path style="fill:none;stroke-width:0.1;stroke-linecap:round;stroke-linejoin:round;stroke:rgb(0%,0%,0%);stroke-opacity:1;stroke-miterlimit:4;" d="M 0.049863 -0.0000458938 L 12.116984 -0.0000458938 " transform="matrix(6.218149,0,0,6.218149,4.561038,15.644817)"/>
<path style=" stroke:none;fill-rule:nonzero;fill:rgb(0%,0%,0%);fill-opacity:1;" d="M 61.796875 19.910156 L 62.105469 19.910156 C 62.246094 19.910156 62.355469 20.023438 62.355469 20.160156 L 62.355469 52.703125 C 62.355469 52.84375 62.246094 52.953125 62.105469 52.953125 L 61.796875 52.953125 C 61.660156 52.953125 61.546875 52.84375 61.546875 52.703125 L 61.546875 20.160156 C 61.546875 20.023438 61.660156 19.910156 61.796875 19.910156 Z M 61.796875 19.910156 "/>
<path style=" stroke:none;fill-rule:nonzero;fill:rgb(0%,0%,0%);fill-opacity:1;" d="M 47.363281 17.734375 L 47.335938 19.375 L 47.335938 19.648438 C 47.335938 20.195312 47.363281 20.742188 47.4375 21.289062 C 48.554688 20.347656 49.75 19.300781 49.75 17.832031 C 49.75 17.011719 49.402344 16.167969 48.679688 16.167969 C 47.910156 16.167969 47.386719 16.914062 47.363281 17.734375 Z M 46.316406 22.1875 L 46.019531 7.386719 C 46.21875 7.261719 46.46875 7.1875 46.691406 7.1875 C 46.914062 7.1875 47.164062 7.261719 47.363281 7.386719 L 47.1875 15.96875 C 47.808594 15.445312 48.632812 15.121094 49.453125 15.121094 C 50.746094 15.121094 51.664062 16.316406 51.664062 17.660156 C 51.664062 19.648438 49.527344 20.570312 48.007812 21.863281 C 47.636719 22.1875 47.414062 22.808594 46.890625 22.808594 C 46.566406 22.808594 46.316406 22.535156 46.316406 22.1875 Z M 46.316406 22.1875 "/>
<path style=" stroke:none;fill-rule:nonzero;fill:rgb(0%,0%,0%);fill-opacity:1;" d="M 37.226562 20.84375 L 37.199219 22.484375 L 37.199219 22.757812 C 37.199219 23.304688 37.226562 23.851562 37.300781 24.398438 C 38.417969 23.453125 39.613281 22.410156 39.613281 20.941406 C 39.613281 20.121094 39.265625 19.277344 38.542969 19.277344 C 37.773438 19.277344 37.25 20.023438 37.226562 20.84375 Z M 36.179688 25.296875 L 35.882812 10.496094 C 36.082031 10.371094 36.328125 10.296875 36.554688 10.296875 C 36.777344 10.296875 37.027344 10.371094 37.226562 10.496094 L 37.050781 19.078125 C 37.671875 18.554688 38.492188 18.230469 39.3125 18.230469 C 40.609375 18.230469 41.527344 19.425781 41.527344 20.769531 C 41.527344 22.757812 39.390625 23.679688 37.871094 24.972656 C 37.5 25.296875 37.273438 25.917969 36.753906 25.917969 C 36.429688 25.917969 36.179688 25.644531 36.179688 25.296875 Z M 36.179688 25.296875 "/>
<path style=" stroke:none;fill-rule:nonzero;fill:rgb(0%,0%,0%);fill-opacity:1;" d="M 30.632812 27.0625 L 30.609375 28.703125 L 30.609375 28.976562 C 30.609375 29.523438 30.632812 30.070312 30.707031 30.617188 C 31.828125 29.671875 33.023438 28.628906 33.023438 27.160156 C 33.023438 26.339844 32.671875 25.496094 31.953125 25.496094 C 31.179688 25.496094 30.660156 26.242188 30.632812 27.0625 Z M 29.589844 31.511719 L 29.289062 16.714844 C 29.488281 16.589844 29.738281 16.515625 29.960938 16.515625 C 30.1875 16.515625 30.433594 16.589844 30.632812 16.714844 L 30.460938 25.296875 C 31.082031 24.773438 31.902344 24.449219 32.722656 24.449219 C 34.015625 24.449219 34.9375 25.644531 34.9375 26.988281 C 34.9375 28.976562 32.796875 29.898438 31.28125 31.191406 C 30.90625 31.511719 30.683594 32.136719 30.160156 32.136719 C 29.835938 32.136719 29.589844 31.863281 29.589844 31.511719 Z M 29.589844 31.511719 "/>
<path style=" stroke:none;fill-rule:nonzero;fill:rgb(0%,0%,0%);fill-opacity:1;" d="M 43.878906 33.28125 L 43.855469 34.921875 L 43.855469 35.195312 C 43.855469 35.742188 43.878906 36.289062 43.953125 36.835938 C 45.074219 35.890625 46.269531 34.847656 46.269531 33.378906 C 46.269531 32.558594 45.917969 31.710938 45.199219 31.710938 C 44.425781 31.710938 43.90625 32.457031 43.878906 33.28125 Z M 42.835938 37.730469 L 42.539062 22.933594 C 42.734375 22.808594 42.984375 22.734375 43.207031 22.734375 C 43.433594 22.734375 43.679688 22.808594 43.878906 22.933594 L 43.707031 31.511719 C 44.328125 30.992188 45.148438 30.667969 45.96875 30.667969 C 47.261719 30.667969 48.183594 31.863281 48.183594 33.203125 C 48.183594 35.195312 46.042969 36.113281 44.527344 37.410156 C 44.152344 37.730469 43.929688 38.351562 43.40625 38.351562 C 43.085938 38.351562 42.835938 38.078125 42.835938 37.730469 Z M 42.835938 37.730469 "/>
<path style=" stroke:none;fill-rule:nonzero;fill:rgb(0%,0%,0%);fill-opacity:1;" d="M 16.152344 50.09375 L 16.003906 50.09375 C 13.316406 50.09375 11.152344 47.90625 11.152344 45.195312 C 11.152344 43.75 12.46875 42.632812 13.9375 42.632812 C 15.28125 42.632812 16.300781 43.800781 16.300781 45.195312 C 16.300781 46.488281 15.230469 47.554688 13.9375 47.554688 C 13.664062 47.554688 13.414062 47.507812 13.167969 47.40625 C 13.8125 48.378906 14.859375 49.023438 16.078125 49.023438 L 16.175781 49.023438 Z M 21 39.347656 C 22.691406 38.75 23.8125 36.984375 23.8125 35.269531 C 23.8125 33.03125 22.171875 30.816406 19.507812 30.542969 C 20.105469 33.429688 20.652344 36.289062 21 39.347656 Z M 11.375 33.601562 C 11.375 36.960938 14.585938 39.746094 17.941406 39.746094 C 18.640625 39.746094 19.308594 39.695312 19.980469 39.597656 C 19.632812 36.4375 19.0625 33.503906 18.414062 30.542969 C 16.449219 30.742188 15.332031 32.0625 15.332031 33.503906 C 15.332031 34.597656 15.953125 35.765625 17.34375 36.5625 C 17.46875 36.6875 17.519531 36.8125 17.519531 36.9375 C 17.519531 37.210938 17.269531 37.484375 16.972656 37.484375 C 16.898438 37.484375 16.824219 37.457031 16.75 37.433594 C 14.757812 36.363281 13.839844 34.574219 13.839844 32.832031 C 13.839844 30.644531 15.28125 28.503906 17.816406 27.933594 C 17.46875 26.488281 17.097656 25.023438 16.675781 23.578125 C 14.011719 26.589844 11.375 29.625 11.375 33.601562 Z M 17.867188 40.816406 C 13.191406 40.816406 9.585938 36.539062 9.585938 31.511719 C 9.585938 27.109375 12.84375 23.902344 15.753906 20.542969 C 15.28125 19.003906 14.832031 17.4375 14.632812 15.820312 C 14.484375 14.527344 14.460938 13.230469 14.460938 11.9375 C 14.460938 9.078125 15.828125 6.367188 18.167969 4.675781 C 18.316406 4.550781 18.515625 4.550781 18.664062 4.675781 C 20.429688 6.765625 21.972656 10.769531 21.972656 13.582031 C 21.972656 17.136719 19.832031 19.921875 17.496094 22.632812 C 18.015625 24.324219 18.464844 26.066406 18.886719 27.78125 C 18.988281 27.78125 19.113281 27.757812 19.210938 27.757812 C 23.066406 27.757812 25.578125 30.941406 25.578125 34.25 C 25.578125 36.140625 24.757812 38.078125 22.917969 39.472656 C 22.371094 39.894531 21.746094 40.167969 21.101562 40.367188 C 21.175781 41.238281 21.226562 42.109375 21.226562 42.980469 C 21.226562 43.453125 21.199219 43.949219 21.175781 44.421875 C 21 47.382812 18.988281 50.019531 16.152344 50.09375 L 16.175781 49.023438 C 18.488281 48.972656 19.980469 46.734375 20.132812 44.273438 C 20.15625 43.824219 20.179688 43.351562 20.179688 42.90625 C 20.179688 42.132812 20.15625 41.386719 20.082031 40.617188 C 19.359375 40.742188 18.640625 40.816406 17.867188 40.816406 Z M 20.179688 11.515625 C 20.179688 10.148438 20.082031 9.550781 19.683594 8.308594 C 17.222656 9.5 15.652344 12.011719 15.652344 14.75 C 15.652344 16.589844 16.101562 18.058594 16.550781 19.574219 C 18.539062 17.160156 20.179688 14.648438 20.179688 11.515625 Z M 20.179688 11.515625 "/>
<path style=" stroke:none;fill-rule:nonzero;fill:rgb(0%,0%,0%);fill-opacity:1;" d="M 66.96875 15.371094 C 68.335938 15.371094 69.65625 16.066406 69.65625 17.585938 C 69.65625 19.351562 68.289062 20.59375 67.117188 21.289062 C 66.25 21.8125 65.253906 22.136719 64.234375 22.136719 C 62.867188 22.136719 61.546875 21.441406 61.546875 19.921875 C 61.546875 18.15625 62.914062 16.914062 64.085938 16.21875 C 64.953125 15.695312 65.949219 15.371094 66.96875 15.371094 Z M 66.96875 15.371094 "/>
<path style=" stroke:none;fill-rule:nonzero;fill:rgb(0%,0%,0%);fill-opacity:1;" d="M 59.265625 18.480469 C 60.632812 18.480469 61.949219 19.175781 61.949219 20.695312 C 61.949219 22.460938 60.582031 23.703125 59.414062 24.398438 C 58.542969 24.921875 57.546875 25.246094 56.527344 25.246094 C 55.160156 25.246094 53.839844 24.550781 53.839844 23.03125 C 53.839844 21.265625 55.210938 20.023438 56.378906 19.324219 C 57.25 18.804688 58.246094 18.480469 59.265625 18.480469 Z M 59.265625 18.480469 "/>
<path style=" stroke:none;fill-rule:nonzero;fill:rgb(0%,0%,0%);fill-opacity:1;" d="M 66.96875 24.699219 C 68.335938 24.699219 69.65625 25.394531 69.65625 26.910156 C 69.65625 28.679688 68.289062 29.921875 67.117188 30.617188 C 66.25 31.140625 65.253906 31.464844 64.234375 31.464844 C 62.867188 31.464844 61.546875 30.765625 61.546875 29.25 C 61.546875 27.484375 62.914062 26.242188 64.085938 25.542969 C 64.953125 25.023438 65.949219 24.699219 66.96875 24.699219 Z M 66.96875 24.699219 "/>
<path style=" stroke:none;fill-rule:nonzero;fill:rgb(0%,0%,0%);fill-opacity:1;" d="M 66.96875 30.917969 C 68.335938 30.917969 69.65625 31.613281 69.65625 33.128906 C 69.65625 34.894531 68.289062 36.140625 67.117188 36.835938 C 66.25 37.359375 65.253906 37.683594 64.234375 37.683594 C 62.867188 37.683594 61.546875 36.984375 61.546875 35.46875 C 61.546875 33.703125 62.914062 32.457031 64.085938 31.761719 C 64.953125 31.238281 65.949219 30.917969 66.96875 30.917969 Z M 66.96875 30.917969 "/>
</g>
</svg>
