<?xml version="1.0" encoding="UTF-8"?>
<svg xmlns="http://www.w3.org/2000/svg" xmlns:xlink="http://www.w3.org/1999/xlink" width="81.616415pt" height="59.452652pt" viewBox="0 0 81.616415 59.452652" version="1.1">
<g id="surface1">
<path style="fill:none;stroke-width:0.1;stroke-linecap:round;stroke-linejoin:round;stroke:rgb(0%,0%,0%);stroke-opacity:1;stroke-miterlimit:4;" d="M 0.049863 -0.000287501 L 10.731172 -0.000287501 " transform="matrix(6.218149,0,0,6.218149,4.561038,40.517413)"/>
<path style="fill:none;stroke-width:0.1;stroke-linecap:round;stroke-linejoin:round;stroke:rgb(0%,0%,0%);stroke-opacity:1;stroke-miterlimit:4;" d="M 0.049863 0.000244052 L 10.731172 0.000244052 " transform="matrix(6.218149,0,0,6.218149,4.561038,34.299264)"/>
<path style="fill:none;stroke-width:0.1;stroke-linecap:round;stroke-linejoin:round;stroke:rgb(0%,0%,0%);stroke-opacity:1;stroke-miterlimit:4;" d="M 0.049863 0.000147403 L 10.731172 0.000147403 " transform="matrix(6.218149,0,0,6.218149,4.561038,28.081115)"/>
<path style="fill:none;stroke-width:0.1;stroke-linecap:round;stroke-linejoin:round;stroke:rgb(0%,0%,0%);stroke-opacity:1;stroke-miterlimit:4;" d="M 0.049863 0.0000507548 L 10.731172 0.0000507548 " transform="matrix(6.218149,0,0,6.218149,4.561038,21.862966)"/>
<path style="fill:none;stroke-width:0.1;stroke-linecap:round;stroke-linejoin:round;stroke:rgb(0%,0%,0%);stroke-opacity:1;stroke-miterlimit:4;" d="M 0.049863 -0.0000458938 L 10.731172 -0.0000458938 " transform="matrix(6.218149,0,0,6.218149,4.561038,15.644817)"/>
<path style=" stroke:none;fill-rule:nonzero;fill:rgb(0%,0%,0%);fill-opacity:1;" d="M 53.179688 19.910156 L 53.492188 19.910156 C 53.628906 19.910156 53.742188 20.023438 53.742188 20.160156 L 53.742188 50.632812 C 53.742188 50.769531 53.628906 50.882812 53.492188 50.882812 L 53.179688 50.882812 C 53.042969 50.882812 52.933594 50.769531 52.933594 50.632812 L 52.933594 20.160156 C 52.933594 20.023438 53.042969 19.910156 53.179688 19.910156 Z M 53.179688 19.910156 "/>
<path style=" stroke:none;fill-rule:nonzero;fill:rgb(0%,0%,0%);fill-opacity:1;" d="M 49.289062 26.515625 C 49.289062 26.761719 49.089844 26.988281 48.839844 26.988281 C 48.589844 26.988281 48.367188 26.761719 48.367188 26.515625 L 48.367188 22.90625 L 46.304688 23.679688 L 46.304688 27.609375 C 46.304688 27.855469 46.078125 28.082031 45.832031 28.082031 C 45.582031 28.082031 45.382812 27.855469 45.382812 27.609375 L 45.382812 24.003906 L 44.585938 24.300781 C 44.539062 24.324219 44.464844 24.324219 44.414062 24.324219 C 44.140625 24.324219 43.914062 24.101562 43.914062 23.828125 L 43.914062 22.335938 C 43.914062 22.136719 44.039062 21.9375 44.238281 21.863281 L 45.382812 21.464844 L 45.382812 17.484375 L 44.585938 17.757812 C 44.539062 17.785156 44.464844 17.785156 44.414062 17.785156 C 44.140625 17.785156 43.914062 17.558594 43.914062 17.285156 L 43.914062 15.792969 C 43.914062 15.59375 44.039062 15.421875 44.238281 15.347656 L 45.382812 14.921875 L 45.382812 10.992188 C 45.382812 10.746094 45.582031 10.519531 45.832031 10.519531 C 46.078125 10.519531 46.304688 10.746094 46.304688 10.992188 L 46.304688 14.601562 L 48.367188 13.828125 L 48.367188 9.898438 C 48.367188 9.652344 48.589844 9.425781 48.839844 9.425781 C 49.089844 9.425781 49.289062 9.652344 49.289062 9.898438 L 49.289062 13.503906 L 50.085938 13.207031 C 50.132812 13.183594 50.207031 13.183594 50.257812 13.183594 C 50.53125 13.183594 50.753906 13.40625 50.753906 13.679688 L 50.753906 15.171875 C 50.753906 15.371094 50.632812 15.570312 50.433594 15.644531 L 49.289062 16.042969 L 49.289062 20.023438 L 50.085938 19.75 C 50.132812 19.722656 50.207031 19.722656 50.257812 19.722656 C 50.53125 19.722656 50.753906 19.949219 50.753906 20.222656 L 50.753906 21.714844 C 50.753906 21.914062 50.632812 22.085938 50.433594 22.160156 L 49.289062 22.585938 Z M 46.304688 17.136719 L 46.304688 21.117188 L 48.367188 20.371094 L 48.367188 16.390625 Z M 46.304688 17.136719 "/>
<path style=" stroke:none;fill-rule:nonzero;fill:rgb(0%,0%,0%);fill-opacity:1;" d="M 34.589844 32.730469 C 34.589844 32.980469 34.390625 33.203125 34.140625 33.203125 C 33.890625 33.203125 33.667969 32.980469 33.667969 32.730469 L 33.667969 29.125 L 31.605469 29.898438 L 31.605469 33.828125 C 31.605469 34.074219 31.378906 34.300781 31.132812 34.300781 C 30.882812 34.300781 30.683594 34.074219 30.683594 33.828125 L 30.683594 30.21875 L 29.886719 30.519531 C 29.835938 30.542969 29.761719 30.542969 29.714844 30.542969 C 29.441406 30.542969 29.214844 30.320312 29.214844 30.046875 L 29.214844 28.554688 C 29.214844 28.355469 29.339844 28.15625 29.539062 28.082031 L 30.683594 27.683594 L 30.683594 23.703125 L 29.886719 23.976562 C 29.835938 24.003906 29.761719 24.003906 29.714844 24.003906 C 29.441406 24.003906 29.214844 23.777344 29.214844 23.503906 L 29.214844 22.011719 C 29.214844 21.8125 29.339844 21.640625 29.539062 21.566406 L 30.683594 21.140625 L 30.683594 17.210938 C 30.683594 16.964844 30.882812 16.738281 31.132812 16.738281 C 31.378906 16.738281 31.605469 16.964844 31.605469 17.210938 L 31.605469 20.816406 L 33.667969 20.046875 L 33.667969 16.117188 C 33.667969 15.867188 33.890625 15.644531 34.140625 15.644531 C 34.390625 15.644531 34.589844 15.867188 34.589844 16.117188 L 34.589844 19.722656 L 35.382812 19.425781 C 35.433594 19.402344 35.507812 19.402344 35.558594 19.402344 C 35.832031 19.402344 36.054688 19.625 36.054688 19.898438 L 36.054688 21.390625 C 36.054688 21.589844 35.929688 21.789062 35.734375 21.863281 L 34.589844 22.261719 L 34.589844 26.242188 L 35.382812 25.96875 C 35.433594 25.941406 35.507812 25.941406 35.558594 25.941406 C 35.832031 25.941406 36.054688 26.164062 36.054688 26.441406 L 36.054688 27.933594 C 36.054688 28.132812 35.929688 28.304688 35.734375 28.378906 L 34.589844 28.800781 Z M 31.605469 23.355469 L 31.605469 27.335938 L 33.667969 26.589844 L 33.667969 22.609375 Z M 31.605469 23.355469 "/>
<path style=" stroke:none;fill-rule:nonzero;fill:rgb(0%,0%,0%);fill-opacity:1;" d="M 42.671875 38.949219 C 42.671875 39.199219 42.472656 39.421875 42.222656 39.421875 C 41.976562 39.421875 41.75 39.199219 41.75 38.949219 L 41.75 35.34375 L 39.6875 36.113281 L 39.6875 40.042969 C 39.6875 40.292969 39.464844 40.515625 39.214844 40.515625 C 38.964844 40.515625 38.765625 40.292969 38.765625 40.042969 L 38.765625 36.4375 L 37.972656 36.738281 C 37.921875 36.761719 37.847656 36.761719 37.796875 36.761719 C 37.523438 36.761719 37.300781 36.539062 37.300781 36.265625 L 37.300781 34.773438 C 37.300781 34.574219 37.425781 34.375 37.621094 34.300781 L 38.765625 33.902344 L 38.765625 29.921875 L 37.972656 30.195312 C 37.921875 30.21875 37.847656 30.21875 37.796875 30.21875 C 37.523438 30.21875 37.300781 29.996094 37.300781 29.722656 L 37.300781 28.230469 C 37.300781 28.03125 37.425781 27.855469 37.621094 27.78125 L 38.765625 27.359375 L 38.765625 23.429688 C 38.765625 23.179688 38.964844 22.957031 39.214844 22.957031 C 39.464844 22.957031 39.6875 23.179688 39.6875 23.429688 L 39.6875 27.035156 L 41.75 26.265625 L 41.75 22.335938 C 41.75 22.085938 41.976562 21.863281 42.222656 21.863281 C 42.472656 21.863281 42.671875 22.085938 42.671875 22.335938 L 42.671875 25.941406 L 43.46875 25.644531 C 43.519531 25.617188 43.59375 25.617188 43.640625 25.617188 C 43.914062 25.617188 44.140625 25.84375 44.140625 26.117188 L 44.140625 27.609375 C 44.140625 27.808594 44.015625 28.007812 43.816406 28.082031 L 42.671875 28.480469 L 42.671875 32.457031 L 43.46875 32.183594 C 43.519531 32.160156 43.59375 32.160156 43.640625 32.160156 C 43.914062 32.160156 44.140625 32.382812 44.140625 32.65625 L 44.140625 34.148438 C 44.140625 34.347656 44.015625 34.523438 43.816406 34.597656 L 42.671875 35.019531 Z M 39.6875 29.574219 L 39.6875 33.554688 L 41.75 32.808594 L 41.75 28.828125 Z M 39.6875 29.574219 "/>
<path style=" stroke:none;fill-rule:nonzero;fill:rgb(0%,0%,0%);fill-opacity:1;" d="M 16.152344 50.09375 L 16.003906 50.09375 C 13.316406 50.09375 11.152344 47.90625 11.152344 45.195312 C 11.152344 43.75 12.46875 42.632812 13.9375 42.632812 C 15.28125 42.632812 16.300781 43.800781 16.300781 45.195312 C 16.300781 46.488281 15.230469 47.554688 13.9375 47.554688 C 13.664062 47.554688 13.414062 47.507812 13.167969 47.40625 C 13.8125 48.378906 14.859375 49.023438 16.078125 49.023438 L 16.175781 49.023438 Z M 21 39.347656 C 22.691406 38.75 23.8125 36.984375 23.8125 35.269531 C 23.8125 33.03125 22.171875 30.816406 19.507812 30.542969 C 20.105469 33.429688 20.652344 36.289062 21 39.347656 Z M 11.375 33.601562 C 11.375 36.960938 14.585938 39.746094 17.941406 39.746094 C 18.640625 39.746094 19.308594 39.695312 19.980469 39.597656 C 19.632812 36.4375 19.0625 33.503906 18.414062 30.542969 C 16.449219 30.742188 15.332031 32.0625 15.332031 33.503906 C 15.332031 34.597656 15.953125 35.765625 17.34375 36.5625 C 17.46875 36.6875 17.519531 36.8125 17.519531 36.9375 C 17.519531 37.210938 17.269531 37.484375 16.972656 37.484375 C 16.898438 37.484375 16.824219 37.457031 16.75 37.433594 C 14.757812 36.363281 13.839844 34.574219 13.839844 32.832031 C 13.839844 30.644531 15.28125 28.503906 17.816406 27.933594 C 17.46875 26.488281 17.097656 25.023438 16.675781 23.578125 C 14.011719 26.589844 11.375 29.625 11.375 33.601562 Z M 17.867188 40.816406 C 13.191406 40.816406 9.585938 36.539062 9.585938 31.511719 C 9.585938 27.109375 12.84375 23.902344 15.753906 20.542969 C 15.28125 19.003906 14.832031 17.4375 14.632812 15.820312 C 14.484375 14.527344 14.460938 13.230469 14.460938 11.9375 C 14.460938 9.078125 15.828125 6.367188 18.167969 4.675781 C 18.316406 4.550781 18.515625 4.550781 18.664062 4.675781 C 20.429688 6.765625 21.972656 10.769531 21.972656 13.582031 C 21.972656 17.136719 19.832031 19.921875 17.496094 22.632812 C 18.015625 24.324219 18.464844 26.066406 18.886719 27.78125 C 18.988281 27.78125 19.113281 27.757812 19.210938 27.757812 C 23.066406 27.757812 25.578125 30.941406 25.578125 34.25 C 25.578125 36.140625 24.757812 38.078125 22.917969 39.472656 C 22.371094 39.894531 21.746094 40.167969 21.101562 40.367188 C 21.175781 41.238281 21.226562 42.109375 21.226562 42.980469 C 21.226562 43.453125 21.199219 43.949219 21.175781 44.421875 C 21 47.382812 18.988281 50.019531 16.152344 50.09375 L 16.175781 49.023438 C 18.488281 48.972656 19.980469 46.734375 20.132812 44.273438 C 20.15625 43.824219 20.179688 43.351562 20.179688 42.90625 C 20.179688 42.132812 20.15625 41.386719 20.082031 40.617188 C 19.359375 40.742188 18.640625 40.816406 17.867188 40.816406 Z M 20.179688 11.515625 C 20.179688 10.148438 20.082031 9.550781 19.683594 8.308594 C 17.222656 9.5 15.652344 12.011719 15.652344 14.75 C 15.652344 16.589844 16.101562 18.058594 16.550781 19.574219 C 18.539062 17.160156 20.179688 14.648438 20.179688 11.515625 Z M 20.179688 11.515625 "/>
<path style=" stroke:none;fill-rule:nonzero;fill:rgb(0%,0%,0%);fill-opacity:1;" d="M 58.355469 15.371094 C 59.722656 15.371094 61.039062 16.066406 61.039062 17.585938 C 61.039062 19.351562 59.671875 20.59375 58.503906 21.289062 C 57.632812 21.8125 56.636719 22.136719 55.617188 22.136719 C 54.25 22.136719 52.933594 21.441406 52.933594 19.921875 C 52.933594 18.15625 54.300781 16.914062 55.46875 16.21875 C 56.339844 15.695312 57.335938 15.371094 58.355469 15.371094 Z M 58.355469 15.371094 "/>
<path style=" stroke:none;fill-rule:nonzero;fill:rgb(0%,0%,0%);fill-opacity:1;" d="M 58.355469 21.589844 C 59.722656 21.589844 61.039062 22.285156 61.039062 23.804688 C 61.039062 25.570312 59.671875 26.8125 58.503906 27.507812 C 57.632812 28.03125 56.636719 28.355469 55.617188 28.355469 C 54.25 28.355469 52.933594 27.660156 52.933594 26.140625 C 52.933594 24.375 54.300781 23.132812 55.46875 22.433594 C 56.339844 21.914062 57.335938 21.589844 58.355469 21.589844 Z M 58.355469 21.589844 "/>
<path style=" stroke:none;fill-rule:nonzero;fill:rgb(0%,0%,0%);fill-opacity:1;" d="M 58.355469 27.808594 C 59.722656 27.808594 61.039062 28.503906 61.039062 30.019531 C 61.039062 31.789062 59.671875 33.03125 58.503906 33.726562 C 57.632812 34.25 56.636719 34.574219 55.617188 34.574219 C 54.25 34.574219 52.933594 33.875 52.933594 32.359375 C 52.933594 30.59375 54.300781 29.351562 55.46875 28.652344 C 56.339844 28.132812 57.335938 27.808594 58.355469 27.808594 Z M 58.355469 27.808594 "/>
</g>
</svg>
