<?xml version="1.0" encoding="UTF-8"?>
<svg xmlns="http://www.w3.org/2000/svg" xmlns:xlink="http://www.w3.org/1999/xlink" width="68.472344pt" height="62.536462pt" viewBox="0 0 68.472344 62.536462" version="1.1">
<g id="surface1">
<path style="fill:none;stroke-width:0.1;stroke-linecap:round;stroke-linejoin:round;stroke:rgb(0%,0%,0%);stroke-opacity:1;stroke-miterlimit:4;" d="M 0.049863 -0.000290436 L 8.752337 -0.000290436 " transform="matrix(6.218149,0,0,6.218149,4.561038,53.451025)"/>
<path style="fill:none;stroke-width:0.1;stroke-linecap:round;stroke-linejoin:round;stroke:rgb(0%,0%,0%);stroke-opacity:1;stroke-miterlimit:4;" d="M 0.049863 0.00024064 L 8.752337 0.00024064 " transform="matrix(6.218149,0,0,6.218149,4.561038,47.232879)"/>
<path style="fill:none;stroke-width:0.1;stroke-linecap:round;stroke-linejoin:round;stroke:rgb(0%,0%,0%);stroke-opacity:1;stroke-miterlimit:4;" d="M 0.049863 0.000143992 L 8.752337 0.000143992 " transform="matrix(6.218149,0,0,6.218149,4.561038,41.01473)"/>
<path style="fill:none;stroke-width:0.1;stroke-linecap:round;stroke-linejoin:round;stroke:rgb(0%,0%,0%);stroke-opacity:1;stroke-miterlimit:4;" d="M 0.049863 0.000047343 L 8.752337 0.000047343 " transform="matrix(6.218149,0,0,6.218149,4.561038,34.796581)"/>
<path style="fill:none;stroke-width:0.1;stroke-linecap:round;stroke-linejoin:round;stroke:rgb(0%,0%,0%);stroke-opacity:1;stroke-miterlimit:4;" d="M 0.049863 -0.0000493056 L 8.752337 -0.0000493056 " transform="matrix(6.218149,0,0,6.218149,4.561038,28.578432)"/>
<path style=" stroke:none;fill-rule:nonzero;fill:rgb(0%,0%,0%);fill-opacity:1;" d="M 40.160156 15.519531 L 50.140625 15.519531 C 50.484375 15.519531 50.765625 15.796875 50.765625 16.140625 C 50.765625 16.484375 50.484375 16.765625 50.140625 16.765625 L 40.160156 16.765625 C 39.816406 16.765625 39.539062 16.484375 39.539062 16.140625 C 39.539062 15.796875 39.816406 15.519531 40.160156 15.519531 Z M 40.160156 15.519531 "/>
<path style=" stroke:none;fill-rule:nonzero;fill:rgb(0%,0%,0%);fill-opacity:1;" d="M 39.21875 21.738281 L 50.140625 21.738281 C 50.484375 21.738281 50.761719 22.015625 50.761719 22.359375 C 50.761719 22.703125 50.484375 22.980469 50.140625 22.980469 L 39.21875 22.980469 C 38.878906 22.980469 38.597656 22.703125 38.597656 22.359375 C 38.597656 22.015625 38.878906 21.738281 39.21875 21.738281 Z M 39.21875 21.738281 "/>
<path style=" stroke:none;fill-rule:nonzero;fill:rgb(0%,0%,0%);fill-opacity:1;" d="M 40.875 17.300781 L 41.1875 17.300781 C 41.324219 17.300781 41.433594 17.410156 41.433594 17.546875 L 41.433594 40.765625 C 41.433594 40.902344 41.324219 41.015625 41.1875 41.015625 L 40.875 41.015625 C 40.738281 41.015625 40.625 40.902344 40.625 40.765625 L 40.625 17.546875 C 40.625 17.410156 40.738281 17.300781 40.875 17.300781 Z M 40.875 17.300781 "/>
<path style=" stroke:none;fill-rule:nonzero;fill:rgb(0%,0%,0%);fill-opacity:1;" d="M 34.148438 15.121094 L 34.121094 16.765625 L 34.121094 17.039062 C 34.121094 17.585938 34.148438 18.132812 34.222656 18.679688 C 35.339844 17.734375 36.535156 16.6875 36.535156 15.222656 C 36.535156 14.402344 36.1875 13.554688 35.464844 13.554688 C 34.695312 13.554688 34.171875 14.300781 34.148438 15.121094 Z M 33.101562 19.574219 L 32.804688 4.773438 C 33.003906 4.652344 33.25 4.578125 33.476562 4.578125 C 33.699219 4.578125 33.949219 4.652344 34.148438 4.773438 L 33.972656 13.355469 C 34.59375 12.835938 35.414062 12.511719 36.234375 12.511719 C 37.53125 12.511719 38.449219 13.703125 38.449219 15.046875 C 38.449219 17.039062 36.3125 17.957031 34.792969 19.25 C 34.421875 19.574219 34.195312 20.195312 33.675781 20.195312 C 33.351562 20.195312 33.101562 19.921875 33.101562 19.574219 Z M 33.101562 19.574219 "/>
<path style=" stroke:none;fill-rule:nonzero;fill:rgb(0%,0%,0%);fill-opacity:1;" d="M 23.390625 37.90625 C 23.390625 37.210938 23.960938 36.636719 24.65625 36.636719 C 25.355469 36.636719 25.925781 37.210938 25.925781 37.90625 C 25.925781 38.601562 25.355469 39.175781 24.65625 39.175781 C 23.960938 39.175781 23.390625 38.601562 23.390625 37.90625 Z M 23.390625 31.6875 C 23.390625 30.992188 23.960938 30.417969 24.65625 30.417969 C 25.355469 30.417969 25.925781 30.992188 25.925781 31.6875 C 25.925781 32.382812 25.355469 32.957031 24.65625 32.957031 C 23.960938 32.957031 23.390625 32.382812 23.390625 31.6875 Z M 15.304688 28.253906 C 19.585938 28.253906 22.59375 30.445312 22.59375 34.5 C 22.59375 41.039062 16.050781 44.796875 9.757812 47.457031 C 9.683594 47.53125 9.609375 47.554688 9.535156 47.554688 C 9.363281 47.554688 9.210938 47.40625 9.210938 47.234375 C 9.210938 47.160156 9.238281 47.082031 9.3125 47.007812 C 14.335938 44.074219 19.558594 40.417969 19.558594 34.746094 C 19.558594 31.761719 17.992188 28.902344 15.304688 28.902344 C 13.464844 28.902344 12.097656 30.246094 11.476562 32.035156 C 11.75 31.910156 12.023438 31.835938 12.320312 31.835938 C 13.6875 31.835938 14.808594 32.957031 14.808594 34.324219 C 14.808594 35.765625 13.714844 36.960938 12.320312 36.960938 C 10.828125 36.960938 9.535156 35.792969 9.535156 34.324219 C 9.535156 31.015625 12.074219 28.253906 15.304688 28.253906 Z M 15.304688 28.253906 "/>
<path style=" stroke:none;fill-rule:nonzero;fill:rgb(0%,0%,0%);fill-opacity:1;" d="M 46.046875 12.757812 C 47.417969 12.757812 48.734375 13.457031 48.734375 14.972656 C 48.734375 16.738281 47.367188 17.984375 46.199219 18.679688 C 45.328125 19.203125 44.332031 19.523438 43.3125 19.523438 C 41.945312 19.523438 40.625 18.828125 40.625 17.3125 C 40.625 15.546875 41.996094 14.300781 43.164062 13.605469 C 44.035156 13.082031 45.027344 12.757812 46.046875 12.757812 Z M 46.046875 12.757812 "/>
</g>
</svg>
