<?xml version="1.0" encoding="UTF-8"?>
<svg xmlns="http://www.w3.org/2000/svg" xmlns:xlink="http://www.w3.org/1999/xlink" width="72.54574pt" height="52.573802pt" viewBox="0 0 72.54574 52.573802" version="1.1">
<g id="surface1">
<path style="fill:none;stroke-width:0.1;stroke-linecap:round;stroke-linejoin:round;stroke:rgb(0%,0%,0%);stroke-opacity:1;stroke-miterlimit:4;" d="M 0.049863 0.000192316 L 9.365462 0.000192316 " transform="matrix(6.218149,0,0,6.218149,4.561038,44.123804)"/>
<path style="fill:none;stroke-width:0.1;stroke-linecap:round;stroke-linejoin:round;stroke:rgb(0%,0%,0%);stroke-opacity:1;stroke-miterlimit:4;" d="M 0.049863 0.0000956673 L 9.365462 0.0000956673 " transform="matrix(6.218149,0,0,6.218149,4.561038,37.905655)"/>
<path style="fill:none;stroke-width:0.1;stroke-linecap:round;stroke-linejoin:round;stroke:rgb(0%,0%,0%);stroke-opacity:1;stroke-miterlimit:4;" d="M 0.049863 -0.000000981293 L 9.365462 -0.000000981293 " transform="matrix(6.218149,0,0,6.218149,4.561038,31.687506)"/>
<path style="fill:none;stroke-width:0.1;stroke-linecap:round;stroke-linejoin:round;stroke:rgb(0%,0%,0%);stroke-opacity:1;stroke-miterlimit:4;" d="M 0.049863 -0.0000976299 L 9.365462 -0.0000976299 " transform="matrix(6.218149,0,0,6.218149,4.561038,25.469357)"/>
<path style="fill:none;stroke-width:0.1;stroke-linecap:round;stroke-linejoin:round;stroke:rgb(0%,0%,0%);stroke-opacity:1;stroke-miterlimit:4;" d="M 0.049863 -0.00019404 L 9.365462 -0.00019404 " transform="matrix(6.218149,0,0,6.218149,4.561038,19.251207)"/>
<path style=" stroke:none;fill-rule:nonzero;fill:rgb(0%,0%,0%);fill-opacity:1;" d="M 43.035156 12.410156 L 53.957031 12.410156 C 54.300781 12.410156 54.578125 12.691406 54.578125 13.03125 C 54.578125 13.375 54.300781 13.65625 53.957031 13.65625 L 43.035156 13.65625 C 42.691406 13.65625 42.414062 13.375 42.414062 13.03125 C 42.414062 12.691406 42.691406 12.410156 43.035156 12.410156 Z M 43.035156 12.410156 "/>
<path style=" stroke:none;fill-rule:nonzero;fill:rgb(0%,0%,0%);fill-opacity:1;" d="M 44.6875 11.082031 L 45 11.082031 C 45.136719 11.082031 45.25 11.191406 45.25 11.328125 L 45.25 43.875 C 45.25 44.011719 45.136719 44.125 45 44.125 L 44.6875 44.125 C 44.550781 44.125 44.441406 44.011719 44.441406 43.875 L 44.441406 11.328125 C 44.441406 11.191406 44.550781 11.082031 44.6875 11.082031 Z M 44.6875 11.082031 "/>
<path style=" stroke:none;fill-rule:nonzero;fill:rgb(0%,0%,0%);fill-opacity:1;" d="M 37.960938 15.121094 L 37.9375 16.765625 L 37.9375 17.039062 C 37.9375 17.585938 37.960938 18.132812 38.035156 18.679688 C 39.15625 17.734375 40.347656 16.6875 40.347656 15.222656 C 40.347656 14.402344 40 13.554688 39.28125 13.554688 C 38.507812 13.554688 37.984375 14.300781 37.960938 15.121094 Z M 36.917969 19.574219 L 36.617188 4.773438 C 36.816406 4.652344 37.066406 4.578125 37.289062 4.578125 C 37.511719 4.578125 37.761719 4.652344 37.960938 4.773438 L 37.785156 13.355469 C 38.410156 12.835938 39.230469 12.511719 40.050781 12.511719 C 41.34375 12.511719 42.265625 13.703125 42.265625 15.046875 C 42.265625 17.039062 40.125 17.957031 38.609375 19.25 C 38.234375 19.574219 38.011719 20.195312 37.488281 20.195312 C 37.164062 20.195312 36.917969 19.921875 36.917969 19.574219 Z M 36.917969 19.574219 "/>
<path style=" stroke:none;fill-rule:nonzero;fill:rgb(0%,0%,0%);fill-opacity:1;" d="M 31.371094 21.339844 L 31.34375 22.980469 L 31.34375 23.253906 C 31.34375 23.804688 31.371094 24.351562 31.445312 24.898438 C 32.5625 23.953125 33.757812 22.90625 33.757812 21.441406 C 33.757812 20.621094 33.410156 19.773438 32.6875 19.773438 C 31.917969 19.773438 31.394531 20.519531 31.371094 21.339844 Z M 30.324219 25.792969 L 30.027344 10.992188 C 30.226562 10.871094 30.472656 10.792969 30.699219 10.792969 C 30.921875 10.792969 31.171875 10.871094 31.371094 10.992188 L 31.195312 19.574219 C 31.816406 19.050781 32.636719 18.730469 33.460938 18.730469 C 34.753906 18.730469 35.671875 19.921875 35.671875 21.265625 C 35.671875 23.253906 33.535156 24.175781 32.015625 25.46875 C 31.644531 25.792969 31.417969 26.414062 30.898438 26.414062 C 30.574219 26.414062 30.324219 26.140625 30.324219 25.792969 Z M 30.324219 25.792969 "/>
<path style=" stroke:none;fill-rule:nonzero;fill:rgb(0%,0%,0%);fill-opacity:1;" d="M 23.390625 28.578125 C 23.390625 27.882812 23.960938 27.308594 24.65625 27.308594 C 25.355469 27.308594 25.925781 27.882812 25.925781 28.578125 C 25.925781 29.273438 25.355469 29.847656 24.65625 29.847656 C 23.960938 29.847656 23.390625 29.273438 23.390625 28.578125 Z M 23.390625 22.359375 C 23.390625 21.664062 23.960938 21.089844 24.65625 21.089844 C 25.355469 21.089844 25.925781 21.664062 25.925781 22.359375 C 25.925781 23.058594 25.355469 23.628906 24.65625 23.628906 C 23.960938 23.628906 23.390625 23.058594 23.390625 22.359375 Z M 15.304688 18.929688 C 19.585938 18.929688 22.59375 21.117188 22.59375 25.171875 C 22.59375 31.710938 16.050781 35.46875 9.757812 38.128906 C 9.683594 38.203125 9.609375 38.230469 9.535156 38.230469 C 9.363281 38.230469 9.210938 38.078125 9.210938 37.90625 C 9.210938 37.832031 9.238281 37.757812 9.3125 37.683594 C 14.335938 34.746094 19.558594 31.089844 19.558594 25.417969 C 19.558594 22.433594 17.992188 19.574219 15.304688 19.574219 C 13.464844 19.574219 12.097656 20.917969 11.476562 22.707031 C 11.75 22.585938 12.023438 22.507812 12.320312 22.507812 C 13.6875 22.507812 14.808594 23.628906 14.808594 24.996094 C 14.808594 26.4375 13.714844 27.632812 12.320312 27.632812 C 10.828125 27.632812 9.535156 26.464844 9.535156 24.996094 C 9.535156 21.6875 12.074219 18.929688 15.304688 18.929688 Z M 15.304688 18.929688 "/>
<path style=" stroke:none;fill-rule:nonzero;fill:rgb(0%,0%,0%);fill-opacity:1;" d="M 49.863281 6.542969 C 51.230469 6.542969 52.550781 7.238281 52.550781 8.753906 C 52.550781 10.519531 51.179688 11.765625 50.011719 12.460938 C 49.140625 12.984375 48.148438 13.308594 47.125 13.308594 C 45.757812 13.308594 44.441406 12.609375 44.441406 11.09375 C 44.441406 9.328125 45.808594 8.082031 46.976562 7.386719 C 47.847656 6.863281 48.84375 6.542969 49.863281 6.542969 Z M 49.863281 6.542969 "/>
<path style=" stroke:none;fill-rule:nonzero;fill:rgb(0%,0%,0%);fill-opacity:1;" d="M 49.863281 12.757812 C 51.230469 12.757812 52.550781 13.457031 52.550781 14.972656 C 52.550781 16.738281 51.179688 17.984375 50.011719 18.679688 C 49.140625 19.203125 48.148438 19.523438 47.125 19.523438 C 45.757812 19.523438 44.441406 18.828125 44.441406 17.3125 C 44.441406 15.546875 45.808594 14.300781 46.976562 13.605469 C 47.847656 13.082031 48.84375 12.757812 49.863281 12.757812 Z M 49.863281 12.757812 "/>
<path style=" stroke:none;fill-rule:nonzero;fill:rgb(0%,0%,0%);fill-opacity:1;" d="M 49.863281 18.976562 C 51.230469 18.976562 52.550781 19.675781 52.550781 21.191406 C 52.550781 22.957031 51.179688 24.199219 50.011719 24.898438 C 49.140625 25.417969 48.148438 25.742188 47.125 25.742188 C 45.757812 25.742188 44.441406 25.046875 44.441406 23.527344 C 44.441406 21.761719 45.808594 20.519531 46.976562 19.824219 C 47.847656 19.300781 48.84375 18.976562 49.863281 18.976562 Z M 49.863281 18.976562 "/>
</g>
</svg>
