<?xml version="1.0" encoding="UTF-8"?>
<svg xmlns="http://www.w3.org/2000/svg" xmlns:xlink="http://www.w3.org/1999/xlink" width="75.335285pt" height="53.463766pt" viewBox="0 0 75.335285 53.463766" version="1.1">
<g id="surface1">
<path style="fill:none;stroke-width:0.1;stroke-linecap:round;stroke-linejoin:round;stroke:rgb(0%,0%,0%);stroke-opacity:1;stroke-miterlimit:4;" d="M 0.049863 0.00017851 L 9.785729 0.00017851 " transform="matrix(6.218149,0,0,6.218149,4.561038,32.702015)"/>
<path style="fill:none;stroke-width:0.1;stroke-linecap:round;stroke-linejoin:round;stroke:rgb(0%,0%,0%);stroke-opacity:1;stroke-miterlimit:4;" d="M 0.049863 0.000081861 L 9.785729 0.000081861 " transform="matrix(6.218149,0,0,6.218149,4.561038,26.483866)"/>
<path style="fill:none;stroke-width:0.1;stroke-linecap:round;stroke-linejoin:round;stroke:rgb(0%,0%,0%);stroke-opacity:1;stroke-miterlimit:4;" d="M 0.049863 -0.0000147876 L 9.785729 -0.0000147876 " transform="matrix(6.218149,0,0,6.218149,4.561038,20.265717)"/>
<path style="fill:none;stroke-width:0.1;stroke-linecap:round;stroke-linejoin:round;stroke:rgb(0%,0%,0%);stroke-opacity:1;stroke-miterlimit:4;" d="M 0.049863 -0.000111436 L 9.785729 -0.000111436 " transform="matrix(6.218149,0,0,6.218149,4.561038,14.047568)"/>
<path style="fill:none;stroke-width:0.1;stroke-linecap:round;stroke-linejoin:round;stroke:rgb(0%,0%,0%);stroke-opacity:1;stroke-miterlimit:4;" d="M 0.049863 -0.000208204 L 9.785729 -0.000208204 " transform="matrix(6.218149,0,0,6.218149,4.561038,7.82942)"/>
<path style=" stroke:none;fill-rule:nonzero;fill:rgb(0%,0%,0%);fill-opacity:1;" d="M 43.410156 21.808594 C 43.410156 22.054688 43.210938 22.28125 42.960938 22.28125 C 42.710938 22.28125 42.488281 22.054688 42.488281 21.808594 L 42.488281 18.203125 L 40.421875 18.972656 L 40.421875 22.902344 C 40.421875 23.152344 40.199219 23.375 39.949219 23.375 C 39.703125 23.375 39.503906 23.152344 39.503906 22.902344 L 39.503906 19.296875 L 38.707031 19.59375 C 38.65625 19.617188 38.582031 19.617188 38.535156 19.617188 C 38.257812 19.617188 38.035156 19.394531 38.035156 19.121094 L 38.035156 17.628906 C 38.035156 17.429688 38.160156 17.230469 38.359375 17.15625 L 39.503906 16.757812 L 39.503906 12.777344 L 38.707031 13.050781 C 38.65625 13.078125 38.582031 13.078125 38.535156 13.078125 C 38.257812 13.078125 38.035156 12.855469 38.035156 12.582031 L 38.035156 11.085938 C 38.035156 10.890625 38.160156 10.714844 38.359375 10.640625 L 39.503906 10.21875 L 39.503906 6.289062 C 39.503906 6.039062 39.703125 5.816406 39.949219 5.816406 C 40.199219 5.816406 40.421875 6.039062 40.421875 6.289062 L 40.421875 9.894531 L 42.488281 9.121094 L 42.488281 5.191406 C 42.488281 4.945312 42.710938 4.71875 42.960938 4.71875 C 43.210938 4.71875 43.410156 4.945312 43.410156 5.191406 L 43.410156 8.800781 L 44.203125 8.5 C 44.253906 8.476562 44.328125 8.476562 44.378906 8.476562 C 44.652344 8.476562 44.875 8.699219 44.875 8.972656 L 44.875 10.464844 C 44.875 10.664062 44.75 10.863281 44.550781 10.9375 L 43.410156 11.335938 L 43.410156 15.316406 L 44.203125 15.042969 C 44.253906 15.019531 44.328125 15.019531 44.378906 15.019531 C 44.652344 15.019531 44.875 15.242188 44.875 15.515625 L 44.875 17.007812 C 44.875 17.207031 44.75 17.378906 44.550781 17.457031 L 43.410156 17.878906 Z M 40.421875 12.429688 L 40.421875 16.410156 L 42.488281 15.664062 L 42.488281 11.683594 Z M 40.421875 12.429688 "/>
<path style=" stroke:none;fill-rule:nonzero;fill:rgb(0%,0%,0%);fill-opacity:1;" d="M 35.324219 28.027344 C 35.324219 28.273438 35.125 28.5 34.878906 28.5 C 34.628906 28.5 34.40625 28.273438 34.40625 28.027344 L 34.40625 24.417969 L 32.339844 25.191406 L 32.339844 29.121094 C 32.339844 29.367188 32.117188 29.59375 31.867188 29.59375 C 31.617188 29.59375 31.417969 29.367188 31.417969 29.121094 L 31.417969 25.515625 L 30.625 25.8125 C 30.574219 25.835938 30.5 25.835938 30.449219 25.835938 C 30.175781 25.835938 29.953125 25.613281 29.953125 25.339844 L 29.953125 23.847656 C 29.953125 23.648438 30.078125 23.449219 30.277344 23.375 L 31.417969 22.976562 L 31.417969 18.996094 L 30.625 19.269531 C 30.574219 19.296875 30.5 19.296875 30.449219 19.296875 C 30.175781 19.296875 29.953125 19.070312 29.953125 18.796875 L 29.953125 17.304688 C 29.953125 17.105469 30.078125 16.933594 30.277344 16.859375 L 31.417969 16.433594 L 31.417969 12.503906 C 31.417969 12.257812 31.617188 12.03125 31.867188 12.03125 C 32.117188 12.03125 32.339844 12.257812 32.339844 12.503906 L 32.339844 16.113281 L 34.40625 15.339844 L 34.40625 11.410156 C 34.40625 11.164062 34.628906 10.9375 34.878906 10.9375 C 35.125 10.9375 35.324219 11.164062 35.324219 11.410156 L 35.324219 15.019531 L 36.121094 14.71875 C 36.171875 14.695312 36.246094 14.695312 36.292969 14.695312 C 36.566406 14.695312 36.792969 14.917969 36.792969 15.191406 L 36.792969 16.683594 C 36.792969 16.882812 36.667969 17.082031 36.46875 17.15625 L 35.324219 17.554688 L 35.324219 21.535156 L 36.121094 21.261719 C 36.171875 21.234375 36.246094 21.234375 36.292969 21.234375 C 36.566406 21.234375 36.792969 21.460938 36.792969 21.734375 L 36.792969 23.226562 C 36.792969 23.425781 36.667969 23.597656 36.46875 23.671875 L 35.324219 24.097656 Z M 32.339844 18.648438 L 32.339844 22.628906 L 34.40625 21.882812 L 34.40625 17.902344 Z M 32.339844 18.648438 "/>
<path style=" stroke:none;fill-rule:nonzero;fill:rgb(0%,0%,0%);fill-opacity:1;" d="M 47.300781 8.988281 L 47.613281 8.988281 C 47.75 8.988281 47.859375 9.097656 47.859375 9.234375 L 47.859375 44.890625 C 47.859375 45.027344 47.75 45.136719 47.613281 45.136719 L 47.300781 45.136719 C 47.164062 45.136719 47.050781 45.027344 47.050781 44.890625 L 47.050781 9.234375 C 47.050781 9.097656 47.164062 8.988281 47.300781 8.988281 Z M 47.300781 8.988281 "/>
<path style=" stroke:none;fill-rule:nonzero;fill:rgb(0%,0%,0%);fill-opacity:1;" d="M 23.390625 17.15625 C 23.390625 16.460938 23.960938 15.886719 24.65625 15.886719 C 25.355469 15.886719 25.925781 16.460938 25.925781 17.15625 C 25.925781 17.851562 25.355469 18.425781 24.65625 18.425781 C 23.960938 18.425781 23.390625 17.851562 23.390625 17.15625 Z M 23.390625 10.9375 C 23.390625 10.242188 23.960938 9.671875 24.65625 9.671875 C 25.355469 9.671875 25.925781 10.242188 25.925781 10.9375 C 25.925781 11.636719 25.355469 12.207031 24.65625 12.207031 C 23.960938 12.207031 23.390625 11.636719 23.390625 10.9375 Z M 15.304688 7.507812 C 19.585938 7.507812 22.59375 9.695312 22.59375 13.75 C 22.59375 20.289062 16.050781 24.046875 9.757812 26.707031 C 9.683594 26.78125 9.609375 26.808594 9.535156 26.808594 C 9.363281 26.808594 9.210938 26.65625 9.210938 26.484375 C 9.210938 26.410156 9.238281 26.335938 9.3125 26.261719 C 14.335938 23.324219 19.558594 19.667969 19.558594 13.996094 C 19.558594 11.011719 17.992188 8.152344 15.304688 8.152344 C 13.464844 8.152344 12.097656 9.496094 11.476562 11.285156 C 11.75 11.164062 12.023438 11.085938 12.320312 11.085938 C 13.6875 11.085938 14.808594 12.207031 14.808594 13.574219 C 14.808594 15.019531 13.714844 16.210938 12.320312 16.210938 C 10.828125 16.210938 9.535156 15.042969 9.535156 13.574219 C 9.535156 10.265625 12.074219 7.507812 15.304688 7.507812 Z M 15.304688 7.507812 "/>
<path style=" stroke:none;fill-rule:nonzero;fill:rgb(0%,0%,0%);fill-opacity:1;" d="M 52.472656 4.445312 C 53.84375 4.445312 55.160156 5.144531 55.160156 6.660156 C 55.160156 8.425781 53.792969 9.671875 52.625 10.367188 C 51.753906 10.890625 50.757812 11.210938 49.738281 11.210938 C 48.371094 11.210938 47.050781 10.515625 47.050781 9 C 47.050781 7.234375 48.421875 5.988281 49.589844 5.292969 C 50.460938 4.769531 51.453125 4.445312 52.472656 4.445312 Z M 52.472656 4.445312 "/>
<path style=" stroke:none;fill-rule:nonzero;fill:rgb(0%,0%,0%);fill-opacity:1;" d="M 52.472656 10.664062 C 53.84375 10.664062 55.160156 11.359375 55.160156 12.878906 C 55.160156 14.644531 53.792969 15.886719 52.625 16.585938 C 51.753906 17.105469 50.757812 17.429688 49.738281 17.429688 C 48.371094 17.429688 47.050781 16.734375 47.050781 15.214844 C 47.050781 13.449219 48.421875 12.207031 49.589844 11.511719 C 50.460938 10.988281 51.453125 10.664062 52.472656 10.664062 Z M 52.472656 10.664062 "/>
<path style=" stroke:none;fill-rule:nonzero;fill:rgb(0%,0%,0%);fill-opacity:1;" d="M 52.472656 16.882812 C 53.84375 16.882812 55.160156 17.578125 55.160156 19.097656 C 55.160156 20.863281 53.792969 22.105469 52.625 22.800781 C 51.753906 23.324219 50.757812 23.648438 49.738281 23.648438 C 48.371094 23.648438 47.050781 22.953125 47.050781 21.433594 C 47.050781 19.667969 48.421875 18.425781 49.589844 17.730469 C 50.460938 17.207031 51.453125 16.882812 52.472656 16.882812 Z M 52.472656 16.882812 "/>
<path style=" stroke:none;fill-rule:nonzero;fill:rgb(0%,0%,0%);fill-opacity:1;" d="M 52.472656 23.101562 C 53.84375 23.101562 55.160156 23.796875 55.160156 25.316406 C 55.160156 27.082031 53.792969 28.324219 52.625 29.019531 C 51.753906 29.542969 50.757812 29.867188 49.738281 29.867188 C 48.371094 29.867188 47.050781 29.171875 47.050781 27.652344 C 47.050781 25.886719 48.421875 24.644531 49.589844 23.945312 C 50.460938 23.425781 51.453125 23.101562 52.472656 23.101562 Z M 52.472656 23.101562 "/>
</g>
</svg>
