<?xml version="1.0" encoding="UTF-8"?>
<svg xmlns="http://www.w3.org/2000/svg" xmlns:xlink="http://www.w3.org/1999/xlink" width="75.798219pt" height="69.317679pt" viewBox="0 0 75.798219 69.317679" version="1.1">
<g id="surface1">
<path style="fill:none;stroke-width:0.1;stroke-linecap:round;stroke-linejoin:round;stroke:rgb(0%,0%,0%);stroke-opacity:1;stroke-miterlimit:4;" d="M 0.049863 -0.000287501 L 9.855459 -0.000287501 " transform="matrix(6.218149,0,0,6.218149,4.561038,40.517413)"/>
<path style="fill:none;stroke-width:0.1;stroke-linecap:round;stroke-linejoin:round;stroke:rgb(0%,0%,0%);stroke-opacity:1;stroke-miterlimit:4;" d="M 0.049863 0.000244052 L 9.855459 0.000244052 " transform="matrix(6.218149,0,0,6.218149,4.561038,34.299264)"/>
<path style="fill:none;stroke-width:0.1;stroke-linecap:round;stroke-linejoin:round;stroke:rgb(0%,0%,0%);stroke-opacity:1;stroke-miterlimit:4;" d="M 0.049863 0.000147403 L 9.855459 0.000147403 " transform="matrix(6.218149,0,0,6.218149,4.561038,28.081115)"/>
<path style="fill:none;stroke-width:0.1;stroke-linecap:round;stroke-linejoin:round;stroke:rgb(0%,0%,0%);stroke-opacity:1;stroke-miterlimit:4;" d="M 0.049863 0.0000507548 L 9.855459 0.0000507548 " transform="matrix(6.218149,0,0,6.218149,4.561038,21.862966)"/>
<path style="fill:none;stroke-width:0.1;stroke-linecap:round;stroke-linejoin:round;stroke:rgb(0%,0%,0%);stroke-opacity:1;stroke-miterlimit:4;" d="M 0.049863 -0.0000458938 L 9.855459 -0.0000458938 " transform="matrix(6.218149,0,0,6.218149,4.561038,15.644817)"/>
<path style=" stroke:none;fill-rule:nonzero;fill:rgb(0%,0%,0%);fill-opacity:1;" d="M 46.078125 46.113281 L 57 46.113281 C 57.34375 46.113281 57.621094 46.390625 57.621094 46.734375 C 57.621094 47.078125 57.34375 47.355469 57 47.355469 L 46.078125 47.355469 C 45.734375 47.355469 45.457031 47.078125 45.457031 46.734375 C 45.457031 46.390625 45.734375 46.113281 46.078125 46.113281 Z M 46.078125 46.113281 "/>
<path style=" stroke:none;fill-rule:nonzero;fill:rgb(0%,0%,0%);fill-opacity:1;" d="M 46.078125 52.332031 L 57 52.332031 C 57.34375 52.332031 57.621094 52.609375 57.621094 52.953125 C 57.621094 53.296875 57.34375 53.574219 57 53.574219 L 46.078125 53.574219 C 45.734375 53.574219 45.457031 53.296875 45.457031 52.953125 C 45.457031 52.609375 45.734375 52.332031 46.078125 52.332031 Z M 46.078125 52.332031 "/>
<path style=" stroke:none;fill-rule:nonzero;fill:rgb(0%,0%,0%);fill-opacity:1;" d="M 55.035156 21.863281 L 55.347656 21.863281 C 55.484375 21.863281 55.59375 21.972656 55.59375 22.113281 L 55.59375 54.65625 C 55.59375 54.792969 55.484375 54.90625 55.347656 54.90625 L 55.035156 54.90625 C 54.898438 54.90625 54.785156 54.792969 54.785156 54.65625 L 54.785156 22.113281 C 54.785156 21.972656 54.898438 21.863281 55.035156 21.863281 Z M 55.035156 21.863281 "/>
<path style=" stroke:none;fill-rule:nonzero;fill:rgb(0%,0%,0%);fill-opacity:1;" d="M 41.003906 42.605469 L 40.980469 44.25 L 40.980469 44.523438 C 40.980469 45.070312 41.003906 45.617188 41.082031 46.164062 C 42.199219 45.21875 43.394531 44.171875 43.394531 42.707031 C 43.394531 41.886719 43.046875 41.039062 42.324219 41.039062 C 41.554688 41.039062 41.03125 41.785156 41.003906 42.605469 Z M 39.960938 47.058594 L 39.664062 32.257812 C 39.863281 32.136719 40.109375 32.0625 40.335938 32.0625 C 40.558594 32.0625 40.804688 32.136719 41.003906 32.257812 L 40.832031 40.839844 C 41.453125 40.320312 42.273438 39.996094 43.09375 39.996094 C 44.386719 39.996094 45.308594 41.1875 45.308594 42.53125 C 45.308594 44.523438 43.167969 45.441406 41.652344 46.734375 C 41.277344 47.058594 41.054688 47.679688 40.53125 47.679688 C 40.210938 47.679688 39.960938 47.40625 39.960938 47.058594 Z M 39.960938 47.058594 "/>
<path style=" stroke:none;fill-rule:nonzero;fill:rgb(0%,0%,0%);fill-opacity:1;" d="M 30.632812 48.824219 L 30.609375 50.464844 L 30.609375 50.738281 C 30.609375 51.289062 30.632812 51.835938 30.707031 52.382812 C 31.828125 51.4375 33.023438 50.390625 33.023438 48.925781 C 33.023438 48.105469 32.671875 47.257812 31.953125 47.257812 C 31.179688 47.257812 30.660156 48.003906 30.632812 48.824219 Z M 29.589844 53.277344 L 29.289062 38.476562 C 29.488281 38.351562 29.738281 38.277344 29.960938 38.277344 C 30.1875 38.277344 30.433594 38.351562 30.632812 38.476562 L 30.460938 47.058594 C 31.082031 46.535156 31.902344 46.214844 32.722656 46.214844 C 34.015625 46.214844 34.9375 47.40625 34.9375 48.75 C 34.9375 50.738281 32.796875 51.660156 31.28125 52.953125 C 30.90625 53.277344 30.683594 53.898438 30.160156 53.898438 C 29.835938 53.898438 29.589844 53.625 29.589844 53.277344 Z M 29.589844 53.277344 "/>
<path style=" stroke:none;fill-rule:nonzero;fill:rgb(0%,0%,0%);fill-opacity:1;" d="M 37.523438 55.042969 L 37.5 56.683594 L 37.5 56.957031 C 37.5 57.503906 37.523438 58.050781 37.597656 58.601562 C 38.71875 57.65625 39.910156 56.609375 39.910156 55.140625 C 39.910156 54.320312 39.5625 53.476562 38.839844 53.476562 C 38.070312 53.476562 37.546875 54.222656 37.523438 55.042969 Z M 36.480469 59.496094 L 36.179688 44.695312 C 36.378906 44.570312 36.628906 44.496094 36.851562 44.496094 C 37.074219 44.496094 37.324219 44.570312 37.523438 44.695312 L 37.347656 53.277344 C 37.972656 52.753906 38.792969 52.429688 39.613281 52.429688 C 40.90625 52.429688 41.828125 53.625 41.828125 54.96875 C 41.828125 56.957031 39.6875 57.878906 38.171875 59.171875 C 37.796875 59.496094 37.574219 60.117188 37.050781 60.117188 C 36.726562 60.117188 36.480469 59.84375 36.480469 59.496094 Z M 36.480469 59.496094 "/>
<path style=" stroke:none;fill-rule:nonzero;fill:rgb(0%,0%,0%);fill-opacity:1;" d="M 16.152344 50.09375 L 16.003906 50.09375 C 13.316406 50.09375 11.152344 47.90625 11.152344 45.195312 C 11.152344 43.75 12.46875 42.632812 13.9375 42.632812 C 15.28125 42.632812 16.300781 43.800781 16.300781 45.195312 C 16.300781 46.488281 15.230469 47.554688 13.9375 47.554688 C 13.664062 47.554688 13.414062 47.507812 13.167969 47.40625 C 13.8125 48.378906 14.859375 49.023438 16.078125 49.023438 L 16.175781 49.023438 Z M 21 39.347656 C 22.691406 38.75 23.8125 36.984375 23.8125 35.269531 C 23.8125 33.03125 22.171875 30.816406 19.507812 30.542969 C 20.105469 33.429688 20.652344 36.289062 21 39.347656 Z M 11.375 33.601562 C 11.375 36.960938 14.585938 39.746094 17.941406 39.746094 C 18.640625 39.746094 19.308594 39.695312 19.980469 39.597656 C 19.632812 36.4375 19.0625 33.503906 18.414062 30.542969 C 16.449219 30.742188 15.332031 32.0625 15.332031 33.503906 C 15.332031 34.597656 15.953125 35.765625 17.34375 36.5625 C 17.46875 36.6875 17.519531 36.8125 17.519531 36.9375 C 17.519531 37.210938 17.269531 37.484375 16.972656 37.484375 C 16.898438 37.484375 16.824219 37.457031 16.75 37.433594 C 14.757812 36.363281 13.839844 34.574219 13.839844 32.832031 C 13.839844 30.644531 15.28125 28.503906 17.816406 27.933594 C 17.46875 26.488281 17.097656 25.023438 16.675781 23.578125 C 14.011719 26.589844 11.375 29.625 11.375 33.601562 Z M 17.867188 40.816406 C 13.191406 40.816406 9.585938 36.539062 9.585938 31.511719 C 9.585938 27.109375 12.84375 23.902344 15.753906 20.542969 C 15.28125 19.003906 14.832031 17.4375 14.632812 15.820312 C 14.484375 14.527344 14.460938 13.230469 14.460938 11.9375 C 14.460938 9.078125 15.828125 6.367188 18.167969 4.675781 C 18.316406 4.550781 18.515625 4.550781 18.664062 4.675781 C 20.429688 6.765625 21.972656 10.769531 21.972656 13.582031 C 21.972656 17.136719 19.832031 19.921875 17.496094 22.632812 C 18.015625 24.324219 18.464844 26.066406 18.886719 27.78125 C 18.988281 27.78125 19.113281 27.757812 19.210938 27.757812 C 23.066406 27.757812 25.578125 30.941406 25.578125 34.25 C 25.578125 36.140625 24.757812 38.078125 22.917969 39.472656 C 22.371094 39.894531 21.746094 40.167969 21.101562 40.367188 C 21.175781 41.238281 21.226562 42.109375 21.226562 42.980469 C 21.226562 43.453125 21.199219 43.949219 21.175781 44.421875 C 21 47.382812 18.988281 50.019531 16.152344 50.09375 L 16.175781 49.023438 C 18.488281 48.972656 19.980469 46.734375 20.132812 44.273438 C 20.15625 43.824219 20.179688 43.351562 20.179688 42.90625 C 20.179688 42.132812 20.15625 41.386719 20.082031 40.617188 C 19.359375 40.742188 18.640625 40.816406 17.867188 40.816406 Z M 20.179688 11.515625 C 20.179688 10.148438 20.082031 9.550781 19.683594 8.308594 C 17.222656 9.5 15.652344 12.011719 15.652344 14.75 C 15.652344 16.589844 16.101562 18.058594 16.550781 19.574219 C 18.539062 17.160156 20.179688 14.648438 20.179688 11.515625 Z M 20.179688 11.515625 "/>
<path style=" stroke:none;fill-rule:nonzero;fill:rgb(0%,0%,0%);fill-opacity:1;" d="M 52.90625 40.242188 C 54.273438 40.242188 55.59375 40.941406 55.59375 42.457031 C 55.59375 44.222656 54.226562 45.46875 53.054688 46.164062 C 52.1875 46.6875 51.191406 47.007812 50.171875 47.007812 C 48.804688 47.007812 47.484375 46.3125 47.484375 44.796875 C 47.484375 43.03125 48.851562 41.785156 50.023438 41.089844 C 50.890625 40.566406 51.886719 40.242188 52.90625 40.242188 Z M 52.90625 40.242188 "/>
<path style=" stroke:none;fill-rule:nonzero;fill:rgb(0%,0%,0%);fill-opacity:1;" d="M 52.90625 46.460938 C 54.273438 46.460938 55.59375 47.160156 55.59375 48.675781 C 55.59375 50.441406 54.226562 51.683594 53.054688 52.382812 C 52.1875 52.902344 51.191406 53.226562 50.171875 53.226562 C 48.804688 53.226562 47.484375 52.53125 47.484375 51.011719 C 47.484375 49.246094 48.851562 48.003906 50.023438 47.308594 C 50.890625 46.785156 51.886719 46.460938 52.90625 46.460938 Z M 52.90625 46.460938 "/>
<path style=" stroke:none;fill-rule:nonzero;fill:rgb(0%,0%,0%);fill-opacity:1;" d="M 52.90625 52.679688 C 54.273438 52.679688 55.59375 53.375 55.59375 54.894531 C 55.59375 56.660156 54.226562 57.902344 53.054688 58.601562 C 52.1875 59.121094 51.191406 59.445312 50.171875 59.445312 C 48.804688 59.445312 47.484375 58.75 47.484375 57.230469 C 47.484375 55.464844 48.851562 54.222656 50.023438 53.527344 C 50.890625 53.003906 51.886719 52.679688 52.90625 52.679688 Z M 52.90625 52.679688 "/>
</g>
</svg>
