<?xml version="1.0" encoding="UTF-8"?>
<svg xmlns="http://www.w3.org/2000/svg" xmlns:xlink="http://www.w3.org/1999/xlink" width="75.335285pt" height="56.492415pt" viewBox="0 0 75.335285 56.492415" version="1.1">
<g id="surface1">
<path style="fill:none;stroke-width:0.1;stroke-linecap:round;stroke-linejoin:round;stroke:rgb(0%,0%,0%);stroke-opacity:1;stroke-miterlimit:4;" d="M 0.049863 0.00023304 L 9.785729 0.00023304 " transform="matrix(6.218149,0,0,6.218149,4.561038,41.88527)"/>
<path style="fill:none;stroke-width:0.1;stroke-linecap:round;stroke-linejoin:round;stroke:rgb(0%,0%,0%);stroke-opacity:1;stroke-miterlimit:4;" d="M 0.049863 0.000136391 L 9.785729 0.000136391 " transform="matrix(6.218149,0,0,6.218149,4.561038,35.667121)"/>
<path style="fill:none;stroke-width:0.1;stroke-linecap:round;stroke-linejoin:round;stroke:rgb(0%,0%,0%);stroke-opacity:1;stroke-miterlimit:4;" d="M 0.049863 0.0000397429 L 9.785729 0.0000397429 " transform="matrix(6.218149,0,0,6.218149,4.561038,29.448972)"/>
<path style="fill:none;stroke-width:0.1;stroke-linecap:round;stroke-linejoin:round;stroke:rgb(0%,0%,0%);stroke-opacity:1;stroke-miterlimit:4;" d="M 0.049863 -0.0000569057 L 9.785729 -0.0000569057 " transform="matrix(6.218149,0,0,6.218149,4.561038,23.230823)"/>
<path style="fill:none;stroke-width:0.1;stroke-linecap:round;stroke-linejoin:round;stroke:rgb(0%,0%,0%);stroke-opacity:1;stroke-miterlimit:4;" d="M 0.049863 -0.000153554 L 9.785729 -0.000153554 " transform="matrix(6.218149,0,0,6.218149,4.561038,17.012674)"/>
<path style=" stroke:none;fill-rule:nonzero;fill:rgb(0%,0%,0%);fill-opacity:1;" d="M 47.300781 15.0625 L 47.613281 15.0625 C 47.75 15.0625 47.859375 15.171875 47.859375 15.308594 L 47.859375 47.855469 C 47.859375 47.992188 47.75 48.101562 47.613281 48.101562 L 47.300781 48.101562 C 47.164062 48.101562 47.050781 47.992188 47.050781 47.855469 L 47.050781 15.308594 C 47.050781 15.171875 47.164062 15.0625 47.300781 15.0625 Z M 47.300781 15.0625 "/>
<path style=" stroke:none;fill-rule:nonzero;fill:rgb(0%,0%,0%);fill-opacity:1;" d="M 43.410156 21.664062 C 43.410156 21.914062 43.210938 22.136719 42.960938 22.136719 C 42.710938 22.136719 42.488281 21.914062 42.488281 21.664062 L 42.488281 18.058594 L 40.421875 18.828125 L 40.421875 22.757812 C 40.421875 23.007812 40.199219 23.230469 39.949219 23.230469 C 39.703125 23.230469 39.503906 23.007812 39.503906 22.757812 L 39.503906 19.152344 L 38.707031 19.449219 C 38.65625 19.476562 38.582031 19.476562 38.535156 19.476562 C 38.257812 19.476562 38.035156 19.25 38.035156 18.976562 L 38.035156 17.484375 C 38.035156 17.285156 38.160156 17.085938 38.359375 17.011719 L 39.503906 16.613281 L 39.503906 12.636719 L 38.707031 12.910156 C 38.65625 12.933594 38.582031 12.933594 38.535156 12.933594 C 38.257812 12.933594 38.035156 12.710938 38.035156 12.4375 L 38.035156 10.945312 C 38.035156 10.746094 38.160156 10.570312 38.359375 10.496094 L 39.503906 10.074219 L 39.503906 6.144531 C 39.503906 5.894531 39.703125 5.671875 39.949219 5.671875 C 40.199219 5.671875 40.421875 5.894531 40.421875 6.144531 L 40.421875 9.75 L 42.488281 8.980469 L 42.488281 5.050781 C 42.488281 4.800781 42.710938 4.578125 42.960938 4.578125 C 43.210938 4.578125 43.410156 4.800781 43.410156 5.050781 L 43.410156 8.65625 L 44.203125 8.355469 C 44.253906 8.332031 44.328125 8.332031 44.378906 8.332031 C 44.652344 8.332031 44.875 8.554688 44.875 8.828125 L 44.875 10.320312 C 44.875 10.519531 44.75 10.71875 44.550781 10.792969 L 43.410156 11.191406 L 43.410156 15.171875 L 44.203125 14.898438 C 44.253906 14.875 44.328125 14.875 44.378906 14.875 C 44.652344 14.875 44.875 15.097656 44.875 15.371094 L 44.875 16.863281 C 44.875 17.0625 44.75 17.238281 44.550781 17.3125 L 43.410156 17.734375 Z M 40.421875 12.285156 L 40.421875 16.265625 L 42.488281 15.519531 L 42.488281 11.539062 Z M 40.421875 12.285156 "/>
<path style=" stroke:none;fill-rule:nonzero;fill:rgb(0%,0%,0%);fill-opacity:1;" d="M 35.324219 27.882812 C 35.324219 28.128906 35.125 28.355469 34.878906 28.355469 C 34.628906 28.355469 34.40625 28.128906 34.40625 27.882812 L 34.40625 24.277344 L 32.339844 25.046875 L 32.339844 28.976562 C 32.339844 29.226562 32.117188 29.449219 31.867188 29.449219 C 31.617188 29.449219 31.417969 29.226562 31.417969 28.976562 L 31.417969 25.371094 L 30.625 25.667969 C 30.574219 25.691406 30.5 25.691406 30.449219 25.691406 C 30.175781 25.691406 29.953125 25.46875 29.953125 25.195312 L 29.953125 23.703125 C 29.953125 23.503906 30.078125 23.304688 30.277344 23.230469 L 31.417969 22.832031 L 31.417969 18.851562 L 30.625 19.125 C 30.574219 19.152344 30.5 19.152344 30.449219 19.152344 C 30.175781 19.152344 29.953125 18.929688 29.953125 18.652344 L 29.953125 17.160156 C 29.953125 16.964844 30.078125 16.789062 30.277344 16.714844 L 31.417969 16.292969 L 31.417969 12.363281 C 31.417969 12.113281 31.617188 11.890625 31.867188 11.890625 C 32.117188 11.890625 32.339844 12.113281 32.339844 12.363281 L 32.339844 15.96875 L 34.40625 15.195312 L 34.40625 11.265625 C 34.40625 11.019531 34.628906 10.792969 34.878906 10.792969 C 35.125 10.792969 35.324219 11.019531 35.324219 11.265625 L 35.324219 14.875 L 36.121094 14.574219 C 36.171875 14.550781 36.246094 14.550781 36.292969 14.550781 C 36.566406 14.550781 36.792969 14.773438 36.792969 15.046875 L 36.792969 16.539062 C 36.792969 16.738281 36.667969 16.9375 36.46875 17.011719 L 35.324219 17.410156 L 35.324219 21.390625 L 36.121094 21.117188 C 36.171875 21.089844 36.246094 21.089844 36.292969 21.089844 C 36.566406 21.089844 36.792969 21.316406 36.792969 21.589844 L 36.792969 23.082031 C 36.792969 23.28125 36.667969 23.453125 36.46875 23.527344 L 35.324219 23.953125 Z M 32.339844 18.503906 L 32.339844 22.484375 L 34.40625 21.738281 L 34.40625 17.757812 Z M 32.339844 18.503906 "/>
<path style=" stroke:none;fill-rule:nonzero;fill:rgb(0%,0%,0%);fill-opacity:1;" d="M 23.390625 26.339844 C 23.390625 25.644531 23.960938 25.070312 24.65625 25.070312 C 25.355469 25.070312 25.925781 25.644531 25.925781 26.339844 C 25.925781 27.035156 25.355469 27.609375 24.65625 27.609375 C 23.960938 27.609375 23.390625 27.035156 23.390625 26.339844 Z M 23.390625 20.121094 C 23.390625 19.425781 23.960938 18.851562 24.65625 18.851562 C 25.355469 18.851562 25.925781 19.425781 25.925781 20.121094 C 25.925781 20.816406 25.355469 21.390625 24.65625 21.390625 C 23.960938 21.390625 23.390625 20.816406 23.390625 20.121094 Z M 15.304688 16.6875 C 19.585938 16.6875 22.59375 18.878906 22.59375 22.933594 C 22.59375 29.472656 16.050781 33.230469 9.757812 35.890625 C 9.683594 35.964844 9.609375 35.992188 9.535156 35.992188 C 9.363281 35.992188 9.210938 35.839844 9.210938 35.667969 C 9.210938 35.59375 9.238281 35.519531 9.3125 35.441406 C 14.335938 32.507812 19.558594 28.851562 19.558594 23.179688 C 19.558594 20.195312 17.992188 17.335938 15.304688 17.335938 C 13.464844 17.335938 12.097656 18.679688 11.476562 20.46875 C 11.75 20.34375 12.023438 20.269531 12.320312 20.269531 C 13.6875 20.269531 14.808594 21.390625 14.808594 22.757812 C 14.808594 24.199219 13.714844 25.394531 12.320312 25.394531 C 10.828125 25.394531 9.535156 24.226562 9.535156 22.757812 C 9.535156 19.449219 12.074219 16.6875 15.304688 16.6875 Z M 15.304688 16.6875 "/>
<path style=" stroke:none;fill-rule:nonzero;fill:rgb(0%,0%,0%);fill-opacity:1;" d="M 52.472656 10.519531 C 53.84375 10.519531 55.160156 11.21875 55.160156 12.734375 C 55.160156 14.5 53.792969 15.746094 52.625 16.441406 C 51.753906 16.964844 50.757812 17.285156 49.738281 17.285156 C 48.371094 17.285156 47.050781 16.589844 47.050781 15.074219 C 47.050781 13.308594 48.421875 12.0625 49.589844 11.367188 C 50.460938 10.84375 51.453125 10.519531 52.472656 10.519531 Z M 52.472656 10.519531 "/>
<path style=" stroke:none;fill-rule:nonzero;fill:rgb(0%,0%,0%);fill-opacity:1;" d="M 52.472656 16.738281 C 53.84375 16.738281 55.160156 17.433594 55.160156 18.953125 C 55.160156 20.71875 53.792969 21.960938 52.625 22.660156 C 51.753906 23.179688 50.757812 23.503906 49.738281 23.503906 C 48.371094 23.503906 47.050781 22.808594 47.050781 21.289062 C 47.050781 19.523438 48.421875 18.28125 49.589844 17.585938 C 50.460938 17.0625 51.453125 16.738281 52.472656 16.738281 Z M 52.472656 16.738281 "/>
<path style=" stroke:none;fill-rule:nonzero;fill:rgb(0%,0%,0%);fill-opacity:1;" d="M 52.472656 22.957031 C 53.84375 22.957031 55.160156 23.652344 55.160156 25.171875 C 55.160156 26.9375 53.792969 28.179688 52.625 28.875 C 51.753906 29.398438 50.757812 29.722656 49.738281 29.722656 C 48.371094 29.722656 47.050781 29.027344 47.050781 27.507812 C 47.050781 25.742188 48.421875 24.5 49.589844 23.804688 C 50.460938 23.28125 51.453125 22.957031 52.472656 22.957031 Z M 52.472656 22.957031 "/>
</g>
</svg>
