<?xml version="1.0" encoding="UTF-8"?>
<svg xmlns="http://www.w3.org/2000/svg" xmlns:xlink="http://www.w3.org/1999/xlink" width="68.472344pt" height="79.074445pt" viewBox="0 0 68.472344 79.074445" version="1.1">
<g id="surface1">
<path style="fill:none;stroke-width:0.1;stroke-linecap:round;stroke-linejoin:round;stroke:rgb(0%,0%,0%);stroke-opacity:1;stroke-miterlimit:4;" d="M 0.049863 -0.000193787 L 8.752337 -0.000193787 " transform="matrix(6.218149,0,0,6.218149,4.561038,59.669174)"/>
<path style="fill:none;stroke-width:0.1;stroke-linecap:round;stroke-linejoin:round;stroke:rgb(0%,0%,0%);stroke-opacity:1;stroke-miterlimit:4;" d="M 0.049863 -0.000290436 L 8.752337 -0.000290436 " transform="matrix(6.218149,0,0,6.218149,4.561038,53.451025)"/>
<path style="fill:none;stroke-width:0.1;stroke-linecap:round;stroke-linejoin:round;stroke:rgb(0%,0%,0%);stroke-opacity:1;stroke-miterlimit:4;" d="M 0.049863 0.00024064 L 8.752337 0.00024064 " transform="matrix(6.218149,0,0,6.218149,4.561038,47.232879)"/>
<path style="fill:none;stroke-width:0.1;stroke-linecap:round;stroke-linejoin:round;stroke:rgb(0%,0%,0%);stroke-opacity:1;stroke-miterlimit:4;" d="M 0.049863 0.000143992 L 8.752337 0.000143992 " transform="matrix(6.218149,0,0,6.218149,4.561038,41.01473)"/>
<path style="fill:none;stroke-width:0.1;stroke-linecap:round;stroke-linejoin:round;stroke:rgb(0%,0%,0%);stroke-opacity:1;stroke-miterlimit:4;" d="M 0.049863 0.000047343 L 8.752337 0.000047343 " transform="matrix(6.218149,0,0,6.218149,4.561038,34.796581)"/>
<path style=" stroke:none;fill-rule:nonzero;fill:rgb(0%,0%,0%);fill-opacity:1;" d="M 40.160156 15.519531 L 50.140625 15.519531 C 50.484375 15.519531 50.765625 15.796875 50.765625 16.140625 C 50.765625 16.484375 50.484375 16.765625 50.140625 16.765625 L 40.160156 16.765625 C 39.816406 16.765625 39.539062 16.484375 39.539062 16.140625 C 39.539062 15.796875 39.816406 15.519531 40.160156 15.519531 Z M 40.160156 15.519531 "/>
<path style=" stroke:none;fill-rule:nonzero;fill:rgb(0%,0%,0%);fill-opacity:1;" d="M 39.21875 21.738281 L 50.140625 21.738281 C 50.484375 21.738281 50.761719 22.015625 50.761719 22.359375 C 50.761719 22.703125 50.484375 22.980469 50.140625 22.980469 L 39.21875 22.980469 C 38.878906 22.980469 38.597656 22.703125 38.597656 22.359375 C 38.597656 22.015625 38.878906 21.738281 39.21875 21.738281 Z M 39.21875 21.738281 "/>
<path style=" stroke:none;fill-rule:nonzero;fill:rgb(0%,0%,0%);fill-opacity:1;" d="M 39.21875 27.957031 L 50.140625 27.957031 C 50.484375 27.957031 50.761719 28.234375 50.761719 28.578125 C 50.761719 28.921875 50.484375 29.199219 50.140625 29.199219 L 39.21875 29.199219 C 38.878906 29.199219 38.597656 28.921875 38.597656 28.578125 C 38.597656 28.234375 38.878906 27.957031 39.21875 27.957031 Z M 39.21875 27.957031 "/>
<path style=" stroke:none;fill-rule:nonzero;fill:rgb(0%,0%,0%);fill-opacity:1;" d="M 34.148438 15.121094 L 34.121094 16.765625 L 34.121094 17.039062 C 34.121094 17.585938 34.148438 18.132812 34.222656 18.679688 C 35.339844 17.734375 36.535156 16.6875 36.535156 15.222656 C 36.535156 14.402344 36.1875 13.554688 35.464844 13.554688 C 34.695312 13.554688 34.171875 14.300781 34.148438 15.121094 Z M 33.101562 19.574219 L 32.804688 4.773438 C 33.003906 4.652344 33.25 4.578125 33.476562 4.578125 C 33.699219 4.578125 33.949219 4.652344 34.148438 4.773438 L 33.972656 13.355469 C 34.59375 12.835938 35.414062 12.511719 36.234375 12.511719 C 37.53125 12.511719 38.449219 13.703125 38.449219 15.046875 C 38.449219 17.039062 36.3125 17.957031 34.792969 19.25 C 34.421875 19.574219 34.195312 20.195312 33.675781 20.195312 C 33.351562 20.195312 33.101562 19.921875 33.101562 19.574219 Z M 33.101562 19.574219 "/>
<path style=" stroke:none;fill-rule:nonzero;fill:rgb(0%,0%,0%);fill-opacity:1;" d="M 40.875 17.300781 L 41.1875 17.300781 C 41.324219 17.300781 41.433594 17.410156 41.433594 17.546875 L 41.433594 56.3125 C 41.433594 56.449219 41.324219 56.558594 41.1875 56.558594 L 40.875 56.558594 C 40.738281 56.558594 40.625 56.449219 40.625 56.3125 L 40.625 17.546875 C 40.625 17.410156 40.738281 17.300781 40.875 17.300781 Z M 40.875 17.300781 "/>
<path style=" stroke:none;fill-rule:nonzero;fill:rgb(0%,0%,0%);fill-opacity:1;" d="M 16.152344 69.246094 L 16.003906 69.246094 C 13.316406 69.246094 11.152344 67.054688 11.152344 64.34375 C 11.152344 62.902344 12.46875 61.785156 13.9375 61.785156 C 15.28125 61.785156 16.300781 62.953125 16.300781 64.34375 C 16.300781 65.636719 15.230469 66.707031 13.9375 66.707031 C 13.664062 66.707031 13.414062 66.660156 13.167969 66.558594 C 13.8125 67.527344 14.859375 68.175781 16.078125 68.175781 L 16.175781 68.175781 Z M 21 58.5 C 22.691406 57.902344 23.8125 56.136719 23.8125 54.421875 C 23.8125 52.183594 22.171875 49.96875 19.507812 49.695312 C 20.105469 52.582031 20.652344 55.441406 21 58.5 Z M 11.375 52.753906 C 11.375 56.113281 14.585938 58.898438 17.941406 58.898438 C 18.640625 58.898438 19.308594 58.847656 19.980469 58.75 C 19.632812 55.589844 19.0625 52.65625 18.414062 49.695312 C 16.449219 49.894531 15.332031 51.210938 15.332031 52.65625 C 15.332031 53.75 15.953125 54.917969 17.34375 55.714844 C 17.46875 55.839844 17.519531 55.964844 17.519531 56.085938 C 17.519531 56.359375 17.269531 56.632812 16.972656 56.632812 C 16.898438 56.632812 16.824219 56.609375 16.75 56.585938 C 14.757812 55.515625 13.839844 53.726562 13.839844 51.984375 C 13.839844 49.792969 15.28125 47.65625 17.816406 47.082031 C 17.46875 45.640625 17.097656 44.171875 16.675781 42.730469 C 14.011719 45.742188 11.375 48.773438 11.375 52.753906 Z M 17.867188 59.96875 C 13.191406 59.96875 9.585938 55.691406 9.585938 50.664062 C 9.585938 46.261719 12.84375 43.054688 15.753906 39.695312 C 15.28125 38.15625 14.832031 36.585938 14.632812 34.96875 C 14.484375 33.675781 14.460938 32.382812 14.460938 31.089844 C 14.460938 28.230469 15.828125 25.519531 18.167969 23.828125 C 18.316406 23.703125 18.515625 23.703125 18.664062 23.828125 C 20.429688 25.917969 21.972656 29.921875 21.972656 32.730469 C 21.972656 36.289062 19.832031 39.074219 17.496094 41.785156 C 18.015625 43.476562 18.464844 45.21875 18.886719 46.933594 C 18.988281 46.933594 19.113281 46.910156 19.210938 46.910156 C 23.066406 46.910156 25.578125 50.09375 25.578125 53.402344 C 25.578125 55.292969 24.757812 57.230469 22.917969 58.625 C 22.371094 59.046875 21.746094 59.320312 21.101562 59.519531 C 21.175781 60.390625 21.226562 61.261719 21.226562 62.132812 C 21.226562 62.605469 21.199219 63.101562 21.175781 63.574219 C 21 66.535156 18.988281 69.171875 16.152344 69.246094 L 16.175781 68.175781 C 18.488281 68.125 19.980469 65.886719 20.132812 63.425781 C 20.15625 62.976562 20.179688 62.503906 20.179688 62.058594 C 20.179688 61.285156 20.15625 60.539062 20.082031 59.769531 C 19.359375 59.894531 18.640625 59.96875 17.867188 59.96875 Z M 20.179688 30.667969 C 20.179688 29.300781 20.082031 28.703125 19.683594 27.460938 C 17.222656 28.652344 15.652344 31.164062 15.652344 33.902344 C 15.652344 35.742188 16.101562 37.210938 16.550781 38.726562 C 18.539062 36.3125 20.179688 33.800781 20.179688 30.667969 Z M 20.179688 30.667969 "/>
<path style=" stroke:none;fill-rule:nonzero;fill:rgb(0%,0%,0%);fill-opacity:1;" d="M 46.046875 12.757812 C 47.417969 12.757812 48.734375 13.457031 48.734375 14.972656 C 48.734375 16.738281 47.367188 17.984375 46.199219 18.679688 C 45.328125 19.203125 44.332031 19.523438 43.3125 19.523438 C 41.945312 19.523438 40.625 18.828125 40.625 17.3125 C 40.625 15.546875 41.996094 14.300781 43.164062 13.605469 C 44.035156 13.082031 45.027344 12.757812 46.046875 12.757812 Z M 46.046875 12.757812 "/>
<path style=" stroke:none;fill-rule:nonzero;fill:rgb(0%,0%,0%);fill-opacity:1;" d="M 46.046875 18.976562 C 47.417969 18.976562 48.734375 19.675781 48.734375 21.191406 C 48.734375 22.957031 47.367188 24.199219 46.199219 24.898438 C 45.328125 25.417969 44.332031 25.742188 43.3125 25.742188 C 41.945312 25.742188 40.625 25.046875 40.625 23.527344 C 40.625 21.761719 41.996094 20.519531 43.164062 19.824219 C 44.035156 19.300781 45.027344 18.976562 46.046875 18.976562 Z M 46.046875 18.976562 "/>
<path style=" stroke:none;fill-rule:nonzero;fill:rgb(0%,0%,0%);fill-opacity:1;" d="M 46.046875 25.195312 C 47.417969 25.195312 48.734375 25.890625 48.734375 27.410156 C 48.734375 29.175781 47.367188 30.417969 46.199219 31.117188 C 45.328125 31.636719 44.332031 31.960938 43.3125 31.960938 C 41.945312 31.960938 40.625 31.265625 40.625 29.746094 C 40.625 27.980469 41.996094 26.738281 43.164062 26.042969 C 44.035156 25.519531 45.027344 25.195312 46.046875 25.195312 Z M 46.046875 25.195312 "/>
<path style=" stroke:none;fill-rule:nonzero;fill:rgb(0%,0%,0%);fill-opacity:1;" d="M 46.046875 31.414062 C 47.417969 31.414062 48.734375 32.109375 48.734375 33.628906 C 48.734375 35.394531 47.367188 36.636719 46.199219 37.332031 C 45.328125 37.855469 44.332031 38.179688 43.3125 38.179688 C 41.945312 38.179688 40.625 37.484375 40.625 35.964844 C 40.625 34.199219 41.996094 32.957031 43.164062 32.257812 C 44.035156 31.738281 45.027344 31.414062 46.046875 31.414062 Z M 46.046875 31.414062 "/>
</g>
</svg>
