<?xml version="1.0" encoding="UTF-8"?>
<svg xmlns="http://www.w3.org/2000/svg" xmlns:xlink="http://www.w3.org/1999/xlink" width="68.472344pt" height="51.250062pt" viewBox="0 0 68.472344 51.250062" version="1.1">
<g id="surface1">
<path style="fill:none;stroke-width:0.1;stroke-linecap:round;stroke-linejoin:round;stroke:rgb(0%,0%,0%);stroke-opacity:1;stroke-miterlimit:4;" d="M 0.049863 -0.0000416676 L 8.752337 -0.0000416676 " transform="matrix(6.218149,0,0,6.218149,4.561038,39.812759)"/>
<path style="fill:none;stroke-width:0.1;stroke-linecap:round;stroke-linejoin:round;stroke:rgb(0%,0%,0%);stroke-opacity:1;stroke-miterlimit:4;" d="M 0.049863 -0.000138316 L 8.752337 -0.000138316 " transform="matrix(6.218149,0,0,6.218149,4.561038,33.59461)"/>
<path style="fill:none;stroke-width:0.1;stroke-linecap:round;stroke-linejoin:round;stroke:rgb(0%,0%,0%);stroke-opacity:1;stroke-miterlimit:4;" d="M 0.049863 -0.000234965 L 8.752337 -0.000234965 " transform="matrix(6.218149,0,0,6.218149,4.561038,27.376461)"/>
<path style="fill:none;stroke-width:0.1;stroke-linecap:round;stroke-linejoin:round;stroke:rgb(0%,0%,0%);stroke-opacity:1;stroke-miterlimit:4;" d="M 0.049863 0.000296588 L 8.752337 0.000296588 " transform="matrix(6.218149,0,0,6.218149,4.561038,21.158312)"/>
<path style="fill:none;stroke-width:0.1;stroke-linecap:round;stroke-linejoin:round;stroke:rgb(0%,0%,0%);stroke-opacity:1;stroke-miterlimit:4;" d="M 0.049863 0.000199939 L 8.752337 0.000199939 " transform="matrix(6.218149,0,0,6.218149,4.561038,14.940163)"/>
<path style=" stroke:none;fill-rule:nonzero;fill:rgb(0%,0%,0%);fill-opacity:1;" d="M 48.175781 4.578125 L 48.488281 4.578125 C 48.625 4.578125 48.734375 4.6875 48.734375 4.824219 L 48.734375 38.40625 C 48.734375 38.542969 48.625 38.65625 48.488281 38.65625 L 48.175781 38.65625 C 48.039062 38.65625 47.925781 38.542969 47.925781 38.40625 L 47.925781 4.824219 C 47.925781 4.6875 48.039062 4.578125 48.175781 4.578125 Z M 48.175781 4.578125 "/>
<path style=" stroke:none;fill-rule:nonzero;fill:rgb(0%,0%,0%);fill-opacity:1;" d="M 23.390625 24.265625 C 23.390625 23.570312 23.960938 23 24.65625 23 C 25.355469 23 25.925781 23.570312 25.925781 24.265625 C 25.925781 24.964844 25.355469 25.535156 24.65625 25.535156 C 23.960938 25.535156 23.390625 24.964844 23.390625 24.265625 Z M 23.390625 18.050781 C 23.390625 17.351562 23.960938 16.78125 24.65625 16.78125 C 25.355469 16.78125 25.925781 17.351562 25.925781 18.050781 C 25.925781 18.746094 25.355469 19.316406 24.65625 19.316406 C 23.960938 19.316406 23.390625 18.746094 23.390625 18.050781 Z M 15.304688 14.617188 C 19.585938 14.617188 22.59375 16.804688 22.59375 20.859375 C 22.59375 27.402344 16.050781 31.15625 9.757812 33.820312 C 9.683594 33.894531 9.609375 33.917969 9.535156 33.917969 C 9.363281 33.917969 9.210938 33.769531 9.210938 33.59375 C 9.210938 33.519531 9.238281 33.445312 9.3125 33.371094 C 14.335938 30.4375 19.558594 26.78125 19.558594 21.109375 C 19.558594 18.125 17.992188 15.261719 15.304688 15.261719 C 13.464844 15.261719 12.097656 16.605469 11.476562 18.398438 C 11.75 18.273438 12.023438 18.199219 12.320312 18.199219 C 13.6875 18.199219 14.808594 19.316406 14.808594 20.6875 C 14.808594 22.128906 13.714844 23.320312 12.320312 23.320312 C 10.828125 23.320312 9.535156 22.152344 9.535156 20.6875 C 9.535156 17.378906 12.074219 14.617188 15.304688 14.617188 Z M 15.304688 14.617188 "/>
<path style=" stroke:none;fill-rule:nonzero;fill:rgb(0%,0%,0%);fill-opacity:1;" d="M 53.753906 20.882812 C 55.121094 20.882812 56.441406 21.582031 56.441406 23.097656 C 56.441406 24.863281 55.074219 26.109375 53.902344 26.804688 C 53.03125 27.328125 52.039062 27.648438 51.019531 27.648438 C 49.648438 27.648438 48.332031 26.953125 48.332031 25.4375 C 48.332031 23.671875 49.699219 22.425781 50.867188 21.730469 C 51.738281 21.207031 52.734375 20.882812 53.753906 20.882812 Z M 53.753906 20.882812 "/>
<path style=" stroke:none;fill-rule:nonzero;fill:rgb(0%,0%,0%);fill-opacity:1;" d="M 46.046875 23.992188 C 47.417969 23.992188 48.734375 24.691406 48.734375 26.207031 C 48.734375 27.972656 47.367188 29.21875 46.199219 29.914062 C 45.328125 30.4375 44.332031 30.757812 43.3125 30.757812 C 41.945312 30.757812 40.625 30.0625 40.625 28.546875 C 40.625 26.78125 41.996094 25.535156 43.164062 24.839844 C 44.035156 24.316406 45.027344 23.992188 46.046875 23.992188 Z M 46.046875 23.992188 "/>
<path style=" stroke:none;fill-rule:nonzero;fill:rgb(0%,0%,0%);fill-opacity:1;" d="M 46.046875 30.210938 C 47.417969 30.210938 48.734375 30.910156 48.734375 32.425781 C 48.734375 34.191406 47.367188 35.433594 46.199219 36.132812 C 45.328125 36.652344 44.332031 36.976562 43.3125 36.976562 C 41.945312 36.976562 40.625 36.28125 40.625 34.761719 C 40.625 32.996094 41.996094 31.753906 43.164062 31.058594 C 44.035156 30.535156 45.027344 30.210938 46.046875 30.210938 Z M 46.046875 30.210938 "/>
<path style=" stroke:none;fill-rule:nonzero;fill:rgb(0%,0%,0%);fill-opacity:1;" d="M 46.046875 36.429688 C 47.417969 36.429688 48.734375 37.125 48.734375 38.644531 C 48.734375 40.410156 47.367188 41.652344 46.199219 42.351562 C 45.328125 42.871094 44.332031 43.195312 43.3125 43.195312 C 41.945312 43.195312 40.625 42.5 40.625 40.980469 C 40.625 39.214844 41.996094 37.972656 43.164062 37.277344 C 44.035156 36.753906 45.027344 36.429688 46.046875 36.429688 Z M 46.046875 36.429688 "/>
</g>
</svg>
