<?xml version="1.0" encoding="UTF-8"?>
<svg xmlns="http://www.w3.org/2000/svg" xmlns:xlink="http://www.w3.org/1999/xlink" width="76.583943pt" height="54.181078pt" viewBox="0 0 76.583943 54.181078" version="1.1">
<g id="surface1">
<path style="fill:none;stroke-width:0.1;stroke-linecap:round;stroke-linejoin:round;stroke:rgb(0%,0%,0%);stroke-opacity:1;stroke-miterlimit:4;" d="M 0.049863 0.00023304 L 9.973561 0.00023304 " transform="matrix(6.218149,0,0,6.218149,4.561038,41.88527)"/>
<path style="fill:none;stroke-width:0.1;stroke-linecap:round;stroke-linejoin:round;stroke:rgb(0%,0%,0%);stroke-opacity:1;stroke-miterlimit:4;" d="M 0.049863 0.000136391 L 9.973561 0.000136391 " transform="matrix(6.218149,0,0,6.218149,4.561038,35.667121)"/>
<path style="fill:none;stroke-width:0.1;stroke-linecap:round;stroke-linejoin:round;stroke:rgb(0%,0%,0%);stroke-opacity:1;stroke-miterlimit:4;" d="M 0.049863 0.0000397429 L 9.973561 0.0000397429 " transform="matrix(6.218149,0,0,6.218149,4.561038,29.448972)"/>
<path style="fill:none;stroke-width:0.1;stroke-linecap:round;stroke-linejoin:round;stroke:rgb(0%,0%,0%);stroke-opacity:1;stroke-miterlimit:4;" d="M 0.049863 -0.0000569057 L 9.973561 -0.0000569057 " transform="matrix(6.218149,0,0,6.218149,4.561038,23.230823)"/>
<path style="fill:none;stroke-width:0.1;stroke-linecap:round;stroke-linejoin:round;stroke:rgb(0%,0%,0%);stroke-opacity:1;stroke-miterlimit:4;" d="M 0.049863 -0.000153554 L 9.973561 -0.000153554 " transform="matrix(6.218149,0,0,6.218149,4.561038,17.012674)"/>
<path style=" stroke:none;fill-rule:nonzero;fill:rgb(0%,0%,0%);fill-opacity:1;" d="M 55.769531 4.578125 L 56.082031 4.578125 C 56.21875 4.578125 56.332031 4.6875 56.332031 4.824219 L 56.332031 40.480469 C 56.332031 40.617188 56.21875 40.726562 56.082031 40.726562 L 55.769531 40.726562 C 55.632812 40.726562 55.523438 40.617188 55.523438 40.480469 L 55.523438 4.824219 C 55.523438 4.6875 55.632812 4.578125 55.769531 4.578125 Z M 55.769531 4.578125 "/>
<path style=" stroke:none;fill-rule:nonzero;fill:rgb(0%,0%,0%);fill-opacity:1;" d="M 41.742188 28.429688 L 41.71875 30.070312 L 41.71875 30.34375 C 41.71875 30.890625 41.742188 31.4375 41.816406 31.984375 C 42.9375 31.039062 44.128906 29.996094 44.128906 28.527344 C 44.128906 27.707031 43.78125 26.863281 43.058594 26.863281 C 42.289062 26.863281 41.765625 27.609375 41.742188 28.429688 Z M 40.695312 32.882812 L 40.398438 18.082031 C 40.597656 17.957031 40.847656 17.882812 41.070312 17.882812 C 41.292969 17.882812 41.542969 17.957031 41.742188 18.082031 L 41.566406 26.664062 C 42.191406 26.140625 43.011719 25.816406 43.832031 25.816406 C 45.125 25.816406 46.042969 27.011719 46.042969 28.355469 C 46.042969 30.34375 43.90625 31.265625 42.386719 32.558594 C 42.015625 32.882812 41.792969 33.503906 41.269531 33.503906 C 40.945312 33.503906 40.695312 33.230469 40.695312 32.882812 Z M 40.695312 32.882812 "/>
<path style=" stroke:none;fill-rule:nonzero;fill:rgb(0%,0%,0%);fill-opacity:1;" d="M 31.371094 34.648438 L 31.34375 36.289062 L 31.34375 36.5625 C 31.34375 37.109375 31.371094 37.65625 31.445312 38.203125 C 32.5625 37.257812 33.757812 36.214844 33.757812 34.746094 C 33.757812 33.925781 33.410156 33.082031 32.6875 33.082031 C 31.917969 33.082031 31.394531 33.828125 31.371094 34.648438 Z M 30.324219 39.097656 L 30.027344 24.300781 C 30.226562 24.175781 30.472656 24.101562 30.699219 24.101562 C 30.921875 24.101562 31.171875 24.175781 31.371094 24.300781 L 31.195312 32.882812 C 31.816406 32.359375 32.636719 32.035156 33.460938 32.035156 C 34.753906 32.035156 35.671875 33.230469 35.671875 34.574219 C 35.671875 36.5625 33.535156 37.484375 32.015625 38.777344 C 31.644531 39.097656 31.417969 39.722656 30.898438 39.722656 C 30.574219 39.722656 30.324219 39.449219 30.324219 39.097656 Z M 30.324219 39.097656 "/>
<path style=" stroke:none;fill-rule:nonzero;fill:rgb(0%,0%,0%);fill-opacity:1;" d="M 38.257812 40.867188 L 38.234375 42.507812 L 38.234375 42.78125 C 38.234375 43.328125 38.257812 43.875 38.335938 44.421875 C 39.453125 43.476562 40.648438 42.433594 40.648438 40.964844 C 40.648438 40.144531 40.300781 39.296875 39.578125 39.296875 C 38.808594 39.296875 38.285156 40.042969 38.257812 40.867188 Z M 37.214844 45.316406 L 36.917969 30.519531 C 37.117188 30.394531 37.363281 30.320312 37.589844 30.320312 C 37.8125 30.320312 38.0625 30.394531 38.257812 30.519531 L 38.085938 39.097656 C 38.707031 38.578125 39.527344 38.253906 40.347656 38.253906 C 41.640625 38.253906 42.5625 39.449219 42.5625 40.789062 C 42.5625 42.78125 40.421875 43.699219 38.90625 44.996094 C 38.535156 45.316406 38.308594 45.941406 37.785156 45.941406 C 37.464844 45.941406 37.214844 45.664062 37.214844 45.316406 Z M 37.214844 45.316406 "/>
<path style=" stroke:none;fill-rule:nonzero;fill:rgb(0%,0%,0%);fill-opacity:1;" d="M 23.390625 26.339844 C 23.390625 25.644531 23.960938 25.070312 24.65625 25.070312 C 25.355469 25.070312 25.925781 25.644531 25.925781 26.339844 C 25.925781 27.035156 25.355469 27.609375 24.65625 27.609375 C 23.960938 27.609375 23.390625 27.035156 23.390625 26.339844 Z M 23.390625 20.121094 C 23.390625 19.425781 23.960938 18.851562 24.65625 18.851562 C 25.355469 18.851562 25.925781 19.425781 25.925781 20.121094 C 25.925781 20.816406 25.355469 21.390625 24.65625 21.390625 C 23.960938 21.390625 23.390625 20.816406 23.390625 20.121094 Z M 15.304688 16.6875 C 19.585938 16.6875 22.59375 18.878906 22.59375 22.933594 C 22.59375 29.472656 16.050781 33.230469 9.757812 35.890625 C 9.683594 35.964844 9.609375 35.992188 9.535156 35.992188 C 9.363281 35.992188 9.210938 35.839844 9.210938 35.667969 C 9.210938 35.59375 9.238281 35.519531 9.3125 35.441406 C 14.335938 32.507812 19.558594 28.851562 19.558594 23.179688 C 19.558594 20.195312 17.992188 17.335938 15.304688 17.335938 C 13.464844 17.335938 12.097656 18.679688 11.476562 20.46875 C 11.75 20.34375 12.023438 20.269531 12.320312 20.269531 C 13.6875 20.269531 14.808594 21.390625 14.808594 22.757812 C 14.808594 24.199219 13.714844 25.394531 12.320312 25.394531 C 10.828125 25.394531 9.535156 24.226562 9.535156 22.757812 C 9.535156 19.449219 12.074219 16.6875 15.304688 16.6875 Z M 15.304688 16.6875 "/>
<path style=" stroke:none;fill-rule:nonzero;fill:rgb(0%,0%,0%);fill-opacity:1;" d="M 53.644531 19.847656 C 55.011719 19.847656 56.328125 20.542969 56.328125 22.0625 C 56.328125 23.828125 54.960938 25.070312 53.792969 25.769531 C 52.921875 26.289062 51.925781 26.613281 50.90625 26.613281 C 49.539062 26.613281 48.222656 25.917969 48.222656 24.398438 C 48.222656 22.632812 49.589844 21.390625 50.757812 20.695312 C 51.628906 20.171875 52.625 19.847656 53.644531 19.847656 Z M 53.644531 19.847656 "/>
<path style=" stroke:none;fill-rule:nonzero;fill:rgb(0%,0%,0%);fill-opacity:1;" d="M 53.644531 26.066406 C 55.011719 26.066406 56.328125 26.761719 56.328125 28.28125 C 56.328125 30.046875 54.960938 31.289062 53.792969 31.984375 C 52.921875 32.507812 51.925781 32.832031 50.90625 32.832031 C 49.539062 32.832031 48.222656 32.136719 48.222656 30.617188 C 48.222656 28.851562 49.589844 27.609375 50.757812 26.910156 C 51.628906 26.390625 52.625 26.066406 53.644531 26.066406 Z M 53.644531 26.066406 "/>
<path style=" stroke:none;fill-rule:nonzero;fill:rgb(0%,0%,0%);fill-opacity:1;" d="M 53.644531 32.285156 C 55.011719 32.285156 56.328125 32.980469 56.328125 34.5 C 56.328125 36.265625 54.960938 37.507812 53.792969 38.203125 C 52.921875 38.726562 51.925781 39.050781 50.90625 39.050781 C 49.539062 39.050781 48.222656 38.351562 48.222656 36.835938 C 48.222656 35.070312 49.589844 33.828125 50.757812 33.128906 C 51.628906 32.609375 52.625 32.285156 53.644531 32.285156 Z M 53.644531 32.285156 "/>
<path style=" stroke:none;fill-rule:nonzero;fill:rgb(0%,0%,0%);fill-opacity:1;" d="M 53.644531 38.503906 C 55.011719 38.503906 56.328125 39.199219 56.328125 40.714844 C 56.328125 42.480469 54.960938 43.726562 53.792969 44.421875 C 52.921875 44.945312 51.925781 45.269531 50.90625 45.269531 C 49.539062 45.269531 48.222656 44.570312 48.222656 43.054688 C 48.222656 41.289062 49.589844 40.042969 50.757812 39.347656 C 51.628906 38.824219 52.625 38.503906 53.644531 38.503906 Z M 53.644531 38.503906 "/>
</g>
</svg>
