<?xml version="1.0" encoding="UTF-8"?>
<svg xmlns="http://www.w3.org/2000/svg" xmlns:xlink="http://www.w3.org/1999/xlink" width="69.224853pt" height="57.501964pt" viewBox="0 0 69.224853 57.501964" version="1.1">
<g id="surface1">
<path style="fill:none;stroke-width:0.1;stroke-linecap:round;stroke-linejoin:round;stroke:rgb(0%,0%,0%);stroke-opacity:1;stroke-miterlimit:4;" d="M 0.049863 0.000136391 L 8.865413 0.000136391 " transform="matrix(6.218149,0,0,6.218149,4.561038,35.667121)"/>
<path style="fill:none;stroke-width:0.1;stroke-linecap:round;stroke-linejoin:round;stroke:rgb(0%,0%,0%);stroke-opacity:1;stroke-miterlimit:4;" d="M 0.049863 0.0000397429 L 8.865413 0.0000397429 " transform="matrix(6.218149,0,0,6.218149,4.561038,29.448972)"/>
<path style="fill:none;stroke-width:0.1;stroke-linecap:round;stroke-linejoin:round;stroke:rgb(0%,0%,0%);stroke-opacity:1;stroke-miterlimit:4;" d="M 0.049863 -0.0000569057 L 8.865413 -0.0000569057 " transform="matrix(6.218149,0,0,6.218149,4.561038,23.230823)"/>
<path style="fill:none;stroke-width:0.1;stroke-linecap:round;stroke-linejoin:round;stroke:rgb(0%,0%,0%);stroke-opacity:1;stroke-miterlimit:4;" d="M 0.049863 -0.000153554 L 8.865413 -0.000153554 " transform="matrix(6.218149,0,0,6.218149,4.561038,17.012674)"/>
<path style="fill:none;stroke-width:0.1;stroke-linecap:round;stroke-linejoin:round;stroke:rgb(0%,0%,0%);stroke-opacity:1;stroke-miterlimit:4;" d="M 0.049863 -0.000250203 L 8.865413 -0.000250203 " transform="matrix(6.218149,0,0,6.218149,4.561038,10.794525)"/>
<path style=" stroke:none;fill-rule:nonzero;fill:rgb(0%,0%,0%);fill-opacity:1;" d="M 39.925781 41.261719 L 50.847656 41.261719 C 51.191406 41.261719 51.46875 41.542969 51.46875 41.886719 C 51.46875 42.230469 51.191406 42.507812 50.847656 42.507812 L 39.925781 42.507812 C 39.582031 42.507812 39.304688 42.230469 39.304688 41.886719 C 39.304688 41.542969 39.582031 41.261719 39.925781 41.261719 Z M 39.925781 41.261719 "/>
<path style=" stroke:none;fill-rule:nonzero;fill:rgb(0%,0%,0%);fill-opacity:1;" d="M 34.851562 31.539062 L 34.828125 33.179688 L 34.828125 33.453125 C 34.828125 34 34.851562 34.546875 34.925781 35.09375 C 36.046875 34.148438 37.238281 33.105469 37.238281 31.636719 C 37.238281 30.816406 36.890625 29.972656 36.171875 29.972656 C 35.398438 29.972656 34.878906 30.71875 34.851562 31.539062 Z M 33.808594 35.992188 L 33.507812 21.191406 C 33.707031 21.066406 33.957031 20.992188 34.179688 20.992188 C 34.40625 20.992188 34.652344 21.066406 34.851562 21.191406 L 34.679688 29.773438 C 35.300781 29.25 36.121094 28.925781 36.941406 28.925781 C 38.234375 28.925781 39.15625 30.121094 39.15625 31.464844 C 39.15625 33.453125 37.015625 34.375 35.5 35.667969 C 35.125 35.992188 34.902344 36.613281 34.378906 36.613281 C 34.054688 36.613281 33.808594 36.339844 33.808594 35.992188 Z M 33.808594 35.992188 "/>
<path style=" stroke:none;fill-rule:nonzero;fill:rgb(0%,0%,0%);fill-opacity:1;" d="M 31.371094 43.972656 L 31.34375 45.617188 L 31.34375 45.890625 C 31.34375 46.4375 31.371094 46.984375 31.445312 47.53125 C 32.5625 46.585938 33.757812 45.542969 33.757812 44.074219 C 33.757812 43.253906 33.410156 42.40625 32.6875 42.40625 C 31.917969 42.40625 31.394531 43.152344 31.371094 43.972656 Z M 30.324219 48.425781 L 30.027344 33.628906 C 30.226562 33.503906 30.472656 33.429688 30.699219 33.429688 C 30.921875 33.429688 31.171875 33.503906 31.371094 33.628906 L 31.195312 42.207031 C 31.816406 41.6875 32.636719 41.363281 33.460938 41.363281 C 34.753906 41.363281 35.671875 42.558594 35.671875 43.898438 C 35.671875 45.890625 33.535156 46.808594 32.015625 48.101562 C 31.644531 48.425781 31.417969 49.046875 30.898438 49.046875 C 30.574219 49.046875 30.324219 48.773438 30.324219 48.425781 Z M 30.324219 48.425781 "/>
<path style=" stroke:none;fill-rule:nonzero;fill:rgb(0%,0%,0%);fill-opacity:1;" d="M 48.882812 4.578125 L 49.191406 4.578125 C 49.328125 4.578125 49.441406 4.6875 49.441406 4.824219 L 49.441406 43.589844 C 49.441406 43.726562 49.328125 43.835938 49.191406 43.835938 L 48.882812 43.835938 C 48.746094 43.835938 48.632812 43.726562 48.632812 43.589844 L 48.632812 4.824219 C 48.632812 4.6875 48.746094 4.578125 48.882812 4.578125 Z M 48.882812 4.578125 "/>
<path style=" stroke:none;fill-rule:nonzero;fill:rgb(0%,0%,0%);fill-opacity:1;" d="M 23.390625 20.121094 C 23.390625 19.425781 23.960938 18.851562 24.65625 18.851562 C 25.355469 18.851562 25.925781 19.425781 25.925781 20.121094 C 25.925781 20.816406 25.355469 21.390625 24.65625 21.390625 C 23.960938 21.390625 23.390625 20.816406 23.390625 20.121094 Z M 23.390625 13.902344 C 23.390625 13.207031 23.960938 12.636719 24.65625 12.636719 C 25.355469 12.636719 25.925781 13.207031 25.925781 13.902344 C 25.925781 14.601562 25.355469 15.171875 24.65625 15.171875 C 23.960938 15.171875 23.390625 14.601562 23.390625 13.902344 Z M 15.304688 10.472656 C 19.585938 10.472656 22.59375 12.660156 22.59375 16.714844 C 22.59375 23.253906 16.050781 27.011719 9.757812 29.671875 C 9.683594 29.746094 9.609375 29.773438 9.535156 29.773438 C 9.363281 29.773438 9.210938 29.625 9.210938 29.449219 C 9.210938 29.375 9.238281 29.300781 9.3125 29.226562 C 14.335938 26.289062 19.558594 22.632812 19.558594 16.964844 C 19.558594 13.976562 17.992188 11.117188 15.304688 11.117188 C 13.464844 11.117188 12.097656 12.460938 11.476562 14.25 C 11.75 14.128906 12.023438 14.054688 12.320312 14.054688 C 13.6875 14.054688 14.808594 15.171875 14.808594 16.539062 C 14.808594 17.984375 13.714844 19.175781 12.320312 19.175781 C 10.828125 19.175781 9.535156 18.007812 9.535156 16.539062 C 9.535156 13.230469 12.074219 10.472656 15.304688 10.472656 Z M 15.304688 10.472656 "/>
<path style=" stroke:none;fill-rule:nonzero;fill:rgb(0%,0%,0%);fill-opacity:1;" d="M 46.753906 22.957031 C 48.121094 22.957031 49.441406 23.652344 49.441406 25.171875 C 49.441406 26.9375 48.070312 28.179688 46.902344 28.875 C 46.03125 29.398438 45.039062 29.722656 44.019531 29.722656 C 42.648438 29.722656 41.332031 29.027344 41.332031 27.507812 C 41.332031 25.742188 42.699219 24.5 43.867188 23.804688 C 44.738281 23.28125 45.734375 22.957031 46.753906 22.957031 Z M 46.753906 22.957031 "/>
<path style=" stroke:none;fill-rule:nonzero;fill:rgb(0%,0%,0%);fill-opacity:1;" d="M 46.753906 29.175781 C 48.121094 29.175781 49.441406 29.871094 49.441406 31.390625 C 49.441406 33.15625 48.070312 34.398438 46.902344 35.09375 C 46.03125 35.617188 45.039062 35.941406 44.019531 35.941406 C 42.648438 35.941406 41.332031 35.246094 41.332031 33.726562 C 41.332031 31.960938 42.699219 30.71875 43.867188 30.019531 C 44.738281 29.5 45.734375 29.175781 46.753906 29.175781 Z M 46.753906 29.175781 "/>
<path style=" stroke:none;fill-rule:nonzero;fill:rgb(0%,0%,0%);fill-opacity:1;" d="M 46.753906 35.394531 C 48.121094 35.394531 49.441406 36.089844 49.441406 37.605469 C 49.441406 39.375 48.070312 40.617188 46.902344 41.3125 C 46.03125 41.835938 45.039062 42.160156 44.019531 42.160156 C 42.648438 42.160156 41.332031 41.460938 41.332031 39.945312 C 41.332031 38.179688 42.699219 36.9375 43.867188 36.238281 C 44.738281 35.71875 45.734375 35.394531 46.753906 35.394531 Z M 46.753906 35.394531 "/>
<path style=" stroke:none;fill-rule:nonzero;fill:rgb(0%,0%,0%);fill-opacity:1;" d="M 46.753906 41.613281 C 48.121094 41.613281 49.441406 42.308594 49.441406 43.824219 C 49.441406 45.589844 48.070312 46.835938 46.902344 47.53125 C 46.03125 48.054688 45.039062 48.378906 44.019531 48.378906 C 42.648438 48.378906 41.332031 47.679688 41.332031 46.164062 C 41.332031 44.398438 42.699219 43.152344 43.867188 42.457031 C 44.738281 41.933594 45.734375 41.613281 46.753906 41.613281 Z M 46.753906 41.613281 "/>
</g>
</svg>
