<?xml version="1.0" encoding="UTF-8"?>
<svg xmlns="http://www.w3.org/2000/svg" xmlns:xlink="http://www.w3.org/1999/xlink" width="83.953656pt" height="57.501964pt" viewBox="0 0 83.953656 57.501964" version="1.1">
<g id="surface1">
<path style="fill:none;stroke-width:0.1;stroke-linecap:round;stroke-linejoin:round;stroke:rgb(0%,0%,0%);stroke-opacity:1;stroke-miterlimit:4;" d="M 0.049863 0.0000610068 L 11.082964 0.0000610068 " transform="matrix(6.218149,0,0,6.218149,4.561038,32.409777)"/>
<path style="fill:none;stroke-width:0.1;stroke-linecap:round;stroke-linejoin:round;stroke:rgb(0%,0%,0%);stroke-opacity:1;stroke-miterlimit:4;" d="M 0.049863 -0.0000356418 L 11.082964 -0.0000356418 " transform="matrix(6.218149,0,0,6.218149,4.561038,26.191628)"/>
<path style="fill:none;stroke-width:0.1;stroke-linecap:round;stroke-linejoin:round;stroke:rgb(0%,0%,0%);stroke-opacity:1;stroke-miterlimit:4;" d="M 0.049863 -0.00013229 L 11.082964 -0.00013229 " transform="matrix(6.218149,0,0,6.218149,4.561038,19.973479)"/>
<path style="fill:none;stroke-width:0.1;stroke-linecap:round;stroke-linejoin:round;stroke:rgb(0%,0%,0%);stroke-opacity:1;stroke-miterlimit:4;" d="M 0.049863 -0.000228939 L 11.082964 -0.000228939 " transform="matrix(6.218149,0,0,6.218149,4.561038,13.75533)"/>
<path style="fill:none;stroke-width:0.1;stroke-linecap:round;stroke-linejoin:round;stroke:rgb(0%,0%,0%);stroke-opacity:1;stroke-miterlimit:4;" d="M 0.049863 0.000302495 L 11.082964 0.000302495 " transform="matrix(6.218149,0,0,6.218149,4.561038,7.537182)"/>
<path style=" stroke:none;fill-rule:nonzero;fill:rgb(0%,0%,0%);fill-opacity:1;" d="M 53.714844 38.007812 L 64.636719 38.007812 C 64.980469 38.007812 65.257812 38.285156 65.257812 38.628906 C 65.257812 38.972656 64.980469 39.25 64.636719 39.25 L 53.714844 39.25 C 53.371094 39.25 53.09375 38.972656 53.09375 38.628906 C 53.09375 38.285156 53.371094 38.007812 53.714844 38.007812 Z M 53.714844 38.007812 "/>
<path style=" stroke:none;fill-rule:nonzero;fill:rgb(0%,0%,0%);fill-opacity:1;" d="M 54.65625 44.222656 L 64.636719 44.222656 C 64.980469 44.222656 65.257812 44.503906 65.257812 44.847656 C 65.257812 45.191406 64.980469 45.46875 64.636719 45.46875 L 54.65625 45.46875 C 54.3125 45.46875 54.03125 45.191406 54.03125 44.847656 C 54.03125 44.503906 54.3125 44.222656 54.65625 44.222656 Z M 54.65625 44.222656 "/>
<path style=" stroke:none;fill-rule:nonzero;fill:rgb(0%,0%,0%);fill-opacity:1;" d="M 62.671875 4.429688 L 62.980469 4.429688 C 63.121094 4.429688 63.230469 4.539062 63.230469 4.675781 L 63.230469 43.441406 C 63.230469 43.578125 63.121094 43.6875 62.980469 43.6875 L 62.671875 43.6875 C 62.535156 43.6875 62.421875 43.578125 62.421875 43.441406 L 62.421875 4.675781 C 62.421875 4.539062 62.535156 4.429688 62.671875 4.429688 Z M 62.671875 4.429688 "/>
<path style=" stroke:none;fill-rule:nonzero;fill:rgb(0%,0%,0%);fill-opacity:1;" d="M 48.667969 25.171875 L 48.640625 26.8125 C 48.640625 26.914062 48.617188 26.988281 48.617188 27.085938 C 48.617188 27.632812 48.640625 28.179688 48.714844 28.730469 C 49.808594 27.808594 50.878906 26.6875 50.878906 25.269531 C 50.878906 24.449219 50.605469 23.605469 49.886719 23.605469 C 49.140625 23.605469 48.691406 24.351562 48.667969 25.171875 Z M 48.640625 14.824219 L 48.492188 23.40625 C 49.089844 22.882812 49.859375 22.558594 50.65625 22.558594 C 51.972656 22.558594 52.945312 23.730469 52.945312 25.074219 C 52.945312 27.0625 50.804688 28.007812 49.289062 29.300781 C 48.914062 29.625 48.714844 30.246094 48.195312 30.246094 C 47.871094 30.246094 47.597656 29.972656 47.597656 29.625 L 47.546875 26.988281 C 46.875 27.832031 45.90625 28.53125 45.109375 29.300781 C 44.785156 29.625 44.636719 30.246094 44.140625 30.246094 C 43.816406 30.246094 43.566406 29.949219 43.566406 29.597656 L 43.269531 14.824219 C 43.46875 14.699219 43.714844 14.625 43.941406 14.625 C 44.164062 14.625 44.414062 14.699219 44.613281 14.824219 L 44.4375 23.40625 C 44.859375 22.882812 45.507812 22.558594 46.179688 22.558594 C 46.675781 22.558594 47.125 22.757812 47.472656 23.082031 L 47.296875 14.824219 C 47.496094 14.699219 47.746094 14.625 47.96875 14.625 C 48.195312 14.625 48.441406 14.699219 48.640625 14.824219 Z M 44.363281 26.839844 L 44.363281 27.085938 C 44.363281 27.660156 44.386719 28.207031 44.464844 28.777344 C 45.433594 27.832031 46.230469 26.640625 46.230469 25.269531 C 46.230469 24.476562 46.078125 23.605469 45.40625 23.605469 C 44.738281 23.605469 44.4375 24.375 44.414062 25.148438 Z M 44.363281 26.839844 "/>
<path style=" stroke:none;fill-rule:nonzero;fill:rgb(0%,0%,0%);fill-opacity:1;" d="M 37.960938 31.390625 L 37.9375 33.03125 L 37.9375 33.304688 C 37.9375 33.851562 37.960938 34.398438 38.035156 34.945312 C 39.15625 34 40.347656 32.957031 40.347656 31.488281 C 40.347656 30.667969 40 29.824219 39.28125 29.824219 C 38.507812 29.824219 37.984375 30.570312 37.960938 31.390625 Z M 36.917969 35.84375 L 36.617188 21.042969 C 36.816406 20.917969 37.066406 20.84375 37.289062 20.84375 C 37.511719 20.84375 37.761719 20.917969 37.960938 21.042969 L 37.785156 29.625 C 38.410156 29.101562 39.230469 28.777344 40.050781 28.777344 C 41.34375 28.777344 42.265625 29.972656 42.265625 31.316406 C 42.265625 33.304688 40.125 34.226562 38.609375 35.519531 C 38.234375 35.84375 38.011719 36.464844 37.488281 36.464844 C 37.164062 36.464844 36.917969 36.191406 36.917969 35.84375 Z M 36.917969 35.84375 "/>
<path style=" stroke:none;fill-rule:nonzero;fill:rgb(0%,0%,0%);fill-opacity:1;" d="M 31.371094 37.609375 L 31.34375 39.25 L 31.34375 39.523438 C 31.34375 40.070312 31.371094 40.617188 31.445312 41.164062 C 32.5625 40.21875 33.757812 39.175781 33.757812 37.707031 C 33.757812 36.886719 33.410156 36.042969 32.6875 36.042969 C 31.917969 36.042969 31.394531 36.789062 31.371094 37.609375 Z M 30.324219 42.058594 L 30.027344 27.261719 C 30.226562 27.136719 30.472656 27.0625 30.699219 27.0625 C 30.921875 27.0625 31.171875 27.136719 31.371094 27.261719 L 31.195312 35.84375 C 31.816406 35.320312 32.636719 34.996094 33.460938 34.996094 C 34.753906 34.996094 35.671875 36.191406 35.671875 37.535156 C 35.671875 39.523438 33.535156 40.445312 32.015625 41.738281 C 31.644531 42.058594 31.417969 42.683594 30.898438 42.683594 C 30.574219 42.683594 30.324219 42.410156 30.324219 42.058594 Z M 30.324219 42.058594 "/>
<path style=" stroke:none;fill-rule:nonzero;fill:rgb(0%,0%,0%);fill-opacity:1;" d="M 48.640625 43.828125 L 48.617188 45.46875 L 48.617188 45.742188 C 48.617188 46.289062 48.640625 46.835938 48.714844 47.382812 C 49.835938 46.4375 51.027344 45.394531 51.027344 43.925781 C 51.027344 43.105469 50.679688 42.257812 49.960938 42.257812 C 49.1875 42.257812 48.667969 43.003906 48.640625 43.828125 Z M 47.597656 48.277344 L 47.296875 33.480469 C 47.496094 33.355469 47.746094 33.28125 47.96875 33.28125 C 48.195312 33.28125 48.441406 33.355469 48.640625 33.480469 L 48.46875 42.058594 C 49.089844 41.539062 49.910156 41.214844 50.730469 41.214844 C 52.023438 41.214844 52.945312 42.410156 52.945312 43.75 C 52.945312 45.742188 50.804688 46.660156 49.289062 47.957031 C 48.914062 48.277344 48.691406 48.898438 48.167969 48.898438 C 47.84375 48.898438 47.597656 48.625 47.597656 48.277344 Z M 47.597656 48.277344 "/>
<path style=" stroke:none;fill-rule:nonzero;fill:rgb(0%,0%,0%);fill-opacity:1;" d="M 23.390625 16.863281 C 23.390625 16.167969 23.960938 15.597656 24.65625 15.597656 C 25.355469 15.597656 25.925781 16.167969 25.925781 16.863281 C 25.925781 17.5625 25.355469 18.132812 24.65625 18.132812 C 23.960938 18.132812 23.390625 17.5625 23.390625 16.863281 Z M 23.390625 10.644531 C 23.390625 9.949219 23.960938 9.378906 24.65625 9.378906 C 25.355469 9.378906 25.925781 9.949219 25.925781 10.644531 C 25.925781 11.34375 25.355469 11.914062 24.65625 11.914062 C 23.960938 11.914062 23.390625 11.34375 23.390625 10.644531 Z M 15.304688 7.214844 C 19.585938 7.214844 22.59375 9.402344 22.59375 13.457031 C 22.59375 20 16.050781 23.753906 9.757812 26.414062 C 9.683594 26.488281 9.609375 26.515625 9.535156 26.515625 C 9.363281 26.515625 9.210938 26.367188 9.210938 26.191406 C 9.210938 26.117188 9.238281 26.042969 9.3125 25.96875 C 14.335938 23.03125 19.558594 19.375 19.558594 13.707031 C 19.558594 10.722656 17.992188 7.859375 15.304688 7.859375 C 13.464844 7.859375 12.097656 9.203125 11.476562 10.996094 C 11.75 10.871094 12.023438 10.796875 12.320312 10.796875 C 13.6875 10.796875 14.808594 11.914062 14.808594 13.28125 C 14.808594 14.726562 13.714844 15.917969 12.320312 15.917969 C 10.828125 15.917969 9.535156 14.75 9.535156 13.28125 C 9.535156 9.976562 12.074219 7.214844 15.304688 7.214844 Z M 15.304688 7.214844 "/>
<path style=" stroke:none;fill-rule:nonzero;fill:rgb(0%,0%,0%);fill-opacity:1;" d="M 60.542969 22.808594 C 61.910156 22.808594 63.230469 23.503906 63.230469 25.023438 C 63.230469 26.789062 61.859375 28.03125 60.691406 28.730469 C 59.820312 29.25 58.828125 29.574219 57.808594 29.574219 C 56.4375 29.574219 55.121094 28.878906 55.121094 27.359375 C 55.121094 25.59375 56.488281 24.351562 57.65625 23.65625 C 58.527344 23.132812 59.523438 22.808594 60.542969 22.808594 Z M 60.542969 22.808594 "/>
<path style=" stroke:none;fill-rule:nonzero;fill:rgb(0%,0%,0%);fill-opacity:1;" d="M 60.542969 29.027344 C 61.910156 29.027344 63.230469 29.722656 63.230469 31.242188 C 63.230469 33.007812 61.859375 34.25 60.691406 34.945312 C 59.820312 35.46875 58.828125 35.792969 57.808594 35.792969 C 56.4375 35.792969 55.121094 35.097656 55.121094 33.578125 C 55.121094 31.8125 56.488281 30.570312 57.65625 29.871094 C 58.527344 29.351562 59.523438 29.027344 60.542969 29.027344 Z M 60.542969 29.027344 "/>
<path style=" stroke:none;fill-rule:nonzero;fill:rgb(0%,0%,0%);fill-opacity:1;" d="M 60.542969 35.246094 C 61.910156 35.246094 63.230469 35.941406 63.230469 37.457031 C 63.230469 39.226562 61.859375 40.46875 60.691406 41.164062 C 59.820312 41.6875 58.828125 42.011719 57.808594 42.011719 C 56.4375 42.011719 55.121094 41.3125 55.121094 39.796875 C 55.121094 38.03125 56.488281 36.789062 57.65625 36.089844 C 58.527344 35.570312 59.523438 35.246094 60.542969 35.246094 Z M 60.542969 35.246094 "/>
<path style=" stroke:none;fill-rule:nonzero;fill:rgb(0%,0%,0%);fill-opacity:1;" d="M 60.542969 41.464844 C 61.910156 41.464844 63.230469 42.160156 63.230469 43.675781 C 63.230469 45.441406 61.859375 46.6875 60.691406 47.382812 C 59.820312 47.90625 58.828125 48.230469 57.808594 48.230469 C 56.4375 48.230469 55.121094 47.53125 55.121094 46.015625 C 55.121094 44.25 56.488281 43.003906 57.65625 42.308594 C 58.527344 41.785156 59.523438 41.464844 60.542969 41.464844 Z M 60.542969 41.464844 "/>
</g>
</svg>
