<?xml version="1.0" encoding="UTF-8"?>
<svg xmlns="http://www.w3.org/2000/svg" xmlns:xlink="http://www.w3.org/1999/xlink" width="68.472344pt" height="44.563789pt" viewBox="0 0 68.472344 44.563789" version="1.1">
<g id="surface1">
<path style="fill:none;stroke-width:0.1;stroke-linecap:round;stroke-linejoin:round;stroke:rgb(0%,0%,0%);stroke-opacity:1;stroke-miterlimit:4;" d="M 0.049863 -0.0001075 L 8.752337 -0.0001075 " transform="matrix(6.218149,0,0,6.218149,4.561038,29.434262)"/>
<path style="fill:none;stroke-width:0.1;stroke-linecap:round;stroke-linejoin:round;stroke:rgb(0%,0%,0%);stroke-opacity:1;stroke-miterlimit:4;" d="M 0.049863 -0.000204149 L 8.752337 -0.000204149 " transform="matrix(6.218149,0,0,6.218149,4.561038,23.216113)"/>
<path style="fill:none;stroke-width:0.1;stroke-linecap:round;stroke-linejoin:round;stroke:rgb(0%,0%,0%);stroke-opacity:1;stroke-miterlimit:4;" d="M 0.049863 -0.000300797 L 8.752337 -0.000300797 " transform="matrix(6.218149,0,0,6.218149,4.561038,16.997964)"/>
<path style="fill:none;stroke-width:0.1;stroke-linecap:round;stroke-linejoin:round;stroke:rgb(0%,0%,0%);stroke-opacity:1;stroke-miterlimit:4;" d="M 0.049863 0.000230756 L 8.752337 0.000230756 " transform="matrix(6.218149,0,0,6.218149,4.561038,10.779815)"/>
<path style="fill:none;stroke-width:0.1;stroke-linecap:round;stroke-linejoin:round;stroke:rgb(0%,0%,0%);stroke-opacity:1;stroke-miterlimit:4;" d="M 0.049863 0.000133988 L 8.752337 0.000133988 " transform="matrix(6.218149,0,0,6.218149,4.561038,4.561667)"/>
<path style=" stroke:none;fill-rule:nonzero;fill:rgb(0%,0%,0%);fill-opacity:1;" d="M 48.175781 10.78125 L 48.488281 10.78125 C 48.625 10.78125 48.734375 10.890625 48.734375 11.027344 L 48.734375 31.136719 C 48.734375 31.273438 48.625 31.386719 48.488281 31.386719 L 48.175781 31.386719 C 48.039062 31.386719 47.925781 31.273438 47.925781 31.136719 L 47.925781 11.027344 C 47.925781 10.890625 48.039062 10.78125 48.175781 10.78125 Z M 48.175781 10.78125 "/>
<path style=" stroke:none;fill-rule:nonzero;fill:rgb(0%,0%,0%);fill-opacity:1;" d="M 34.148438 31.523438 L 34.121094 33.164062 L 34.121094 33.4375 C 34.121094 33.984375 34.148438 34.53125 34.222656 35.082031 C 35.339844 34.136719 36.535156 33.089844 36.535156 31.625 C 36.535156 30.800781 36.1875 29.957031 35.464844 29.957031 C 34.695312 29.957031 34.171875 30.703125 34.148438 31.523438 Z M 33.101562 35.976562 L 32.804688 21.175781 C 33.003906 21.050781 33.25 20.976562 33.476562 20.976562 C 33.699219 20.976562 33.949219 21.050781 34.148438 21.175781 L 33.972656 29.757812 C 34.59375 29.234375 35.414062 28.910156 36.234375 28.910156 C 37.53125 28.910156 38.449219 30.105469 38.449219 31.449219 C 38.449219 33.4375 36.3125 34.359375 34.792969 35.652344 C 34.421875 35.976562 34.195312 36.597656 33.675781 36.597656 C 33.351562 36.597656 33.101562 36.324219 33.101562 35.976562 Z M 33.101562 35.976562 "/>
<path style=" stroke:none;fill-rule:nonzero;fill:rgb(0%,0%,0%);fill-opacity:1;" d="M 23.390625 13.890625 C 23.390625 13.191406 23.960938 12.621094 24.65625 12.621094 C 25.355469 12.621094 25.925781 13.191406 25.925781 13.890625 C 25.925781 14.585938 25.355469 15.15625 24.65625 15.15625 C 23.960938 15.15625 23.390625 14.585938 23.390625 13.890625 Z M 23.390625 7.671875 C 23.390625 6.972656 23.960938 6.402344 24.65625 6.402344 C 25.355469 6.402344 25.925781 6.972656 25.925781 7.671875 C 25.925781 8.367188 25.355469 8.9375 24.65625 8.9375 C 23.960938 8.9375 23.390625 8.367188 23.390625 7.671875 Z M 15.304688 4.238281 C 19.585938 4.238281 22.59375 6.425781 22.59375 10.480469 C 22.59375 17.023438 16.050781 20.777344 9.757812 23.441406 C 9.683594 23.515625 9.609375 23.539062 9.535156 23.539062 C 9.363281 23.539062 9.210938 23.390625 9.210938 23.214844 C 9.210938 23.140625 9.238281 23.066406 9.3125 22.992188 C 14.335938 20.058594 19.558594 16.402344 19.558594 10.730469 C 19.558594 7.746094 17.992188 4.886719 15.304688 4.886719 C 13.464844 4.886719 12.097656 6.226562 11.476562 8.019531 C 11.75 7.894531 12.023438 7.820312 12.320312 7.820312 C 13.6875 7.820312 14.808594 8.9375 14.808594 10.308594 C 14.808594 11.75 13.714844 12.945312 12.320312 12.945312 C 10.828125 12.945312 9.535156 11.773438 9.535156 10.308594 C 9.535156 7 12.074219 4.238281 15.304688 4.238281 Z M 15.304688 4.238281 "/>
<path style=" stroke:none;fill-rule:nonzero;fill:rgb(0%,0%,0%);fill-opacity:1;" d="M 46.046875 29.160156 C 47.417969 29.160156 48.734375 29.855469 48.734375 31.375 C 48.734375 33.140625 47.367188 34.382812 46.199219 35.082031 C 45.328125 35.601562 44.332031 35.925781 43.3125 35.925781 C 41.945312 35.925781 40.625 35.230469 40.625 33.710938 C 40.625 31.945312 41.996094 30.703125 43.164062 30.007812 C 44.035156 29.484375 45.027344 29.160156 46.046875 29.160156 Z M 46.046875 29.160156 "/>
</g>
</svg>
