<?xml version="1.0" encoding="UTF-8"?>
<svg xmlns="http://www.w3.org/2000/svg" xmlns:xlink="http://www.w3.org/1999/xlink" width="68.472344pt" height="40.233353pt" viewBox="0 0 68.472344 40.233353" version="1.1">
<g id="surface1">
<path style="fill:none;stroke-width:0.1;stroke-linecap:round;stroke-linejoin:round;stroke:rgb(0%,0%,0%);stroke-opacity:1;stroke-miterlimit:4;" d="M 0.049863 -0.0001075 L 8.752337 -0.0001075 " transform="matrix(6.218149,0,0,6.218149,4.561038,29.434262)"/>
<path style="fill:none;stroke-width:0.1;stroke-linecap:round;stroke-linejoin:round;stroke:rgb(0%,0%,0%);stroke-opacity:1;stroke-miterlimit:4;" d="M 0.049863 -0.000204149 L 8.752337 -0.000204149 " transform="matrix(6.218149,0,0,6.218149,4.561038,23.216113)"/>
<path style="fill:none;stroke-width:0.1;stroke-linecap:round;stroke-linejoin:round;stroke:rgb(0%,0%,0%);stroke-opacity:1;stroke-miterlimit:4;" d="M 0.049863 -0.000300797 L 8.752337 -0.000300797 " transform="matrix(6.218149,0,0,6.218149,4.561038,16.997964)"/>
<path style="fill:none;stroke-width:0.1;stroke-linecap:round;stroke-linejoin:round;stroke:rgb(0%,0%,0%);stroke-opacity:1;stroke-miterlimit:4;" d="M 0.049863 0.000230756 L 8.752337 0.000230756 " transform="matrix(6.218149,0,0,6.218149,4.561038,10.779815)"/>
<path style="fill:none;stroke-width:0.1;stroke-linecap:round;stroke-linejoin:round;stroke:rgb(0%,0%,0%);stroke-opacity:1;stroke-miterlimit:4;" d="M 0.049863 0.000133988 L 8.752337 0.000133988 " transform="matrix(6.218149,0,0,6.218149,4.561038,4.561667)"/>
<path style=" stroke:none;fill-rule:nonzero;fill:rgb(0%,0%,0%);fill-opacity:1;" d="M 40.875 11.9375 L 41.1875 11.9375 C 41.324219 11.9375 41.433594 12.046875 41.433594 12.1875 L 41.433594 32.292969 C 41.433594 32.433594 41.324219 32.542969 41.1875 32.542969 L 40.875 32.542969 C 40.738281 32.542969 40.625 32.433594 40.625 32.292969 L 40.625 12.1875 C 40.625 12.046875 40.738281 11.9375 40.875 11.9375 Z M 40.875 11.9375 "/>
<path style=" stroke:none;fill-rule:nonzero;fill:rgb(0%,0%,0%);fill-opacity:1;" d="M 23.390625 13.890625 C 23.390625 13.191406 23.960938 12.621094 24.65625 12.621094 C 25.355469 12.621094 25.925781 13.191406 25.925781 13.890625 C 25.925781 14.585938 25.355469 15.15625 24.65625 15.15625 C 23.960938 15.15625 23.390625 14.585938 23.390625 13.890625 Z M 23.390625 7.671875 C 23.390625 6.972656 23.960938 6.402344 24.65625 6.402344 C 25.355469 6.402344 25.925781 6.972656 25.925781 7.671875 C 25.925781 8.367188 25.355469 8.9375 24.65625 8.9375 C 23.960938 8.9375 23.390625 8.367188 23.390625 7.671875 Z M 15.304688 4.238281 C 19.585938 4.238281 22.59375 6.425781 22.59375 10.480469 C 22.59375 17.023438 16.050781 20.777344 9.757812 23.441406 C 9.683594 23.515625 9.609375 23.539062 9.535156 23.539062 C 9.363281 23.539062 9.210938 23.390625 9.210938 23.214844 C 9.210938 23.140625 9.238281 23.066406 9.3125 22.992188 C 14.335938 20.058594 19.558594 16.402344 19.558594 10.730469 C 19.558594 7.746094 17.992188 4.886719 15.304688 4.886719 C 13.464844 4.886719 12.097656 6.226562 11.476562 8.019531 C 11.75 7.894531 12.023438 7.820312 12.320312 7.820312 C 13.6875 7.820312 14.808594 8.9375 14.808594 10.308594 C 14.808594 11.75 13.714844 12.945312 12.320312 12.945312 C 10.828125 12.945312 9.535156 11.773438 9.535156 10.308594 C 9.535156 7 12.074219 4.238281 15.304688 4.238281 Z M 15.304688 4.238281 "/>
<path style=" stroke:none;fill-rule:nonzero;fill:rgb(0%,0%,0%);fill-opacity:1;" d="M 46.046875 7.398438 C 47.417969 7.398438 48.734375 8.09375 48.734375 9.609375 C 48.734375 11.375 47.367188 12.621094 46.199219 13.316406 C 45.328125 13.839844 44.332031 14.164062 43.3125 14.164062 C 41.945312 14.164062 40.625 13.464844 40.625 11.949219 C 40.625 10.183594 41.996094 8.9375 43.164062 8.242188 C 44.035156 7.71875 45.027344 7.398438 46.046875 7.398438 Z M 46.046875 7.398438 "/>
</g>
</svg>
