<?xml version="1.0" encoding="UTF-8"?>
<svg xmlns="http://www.w3.org/2000/svg" xmlns:xlink="http://www.w3.org/1999/xlink" width="80.102086pt" height="61.666356pt" viewBox="0 0 80.102086 61.666356" version="1.1">
<g id="surface1">
<path style="fill:none;stroke-width:0.1;stroke-linecap:round;stroke-linejoin:round;stroke:rgb(0%,0%,0%);stroke-opacity:1;stroke-miterlimit:4;" d="M 0.049863 -0.000287501 L 10.503135 -0.000287501 " transform="matrix(6.218149,0,0,6.218149,4.561038,40.517413)"/>
<path style="fill:none;stroke-width:0.1;stroke-linecap:round;stroke-linejoin:round;stroke:rgb(0%,0%,0%);stroke-opacity:1;stroke-miterlimit:4;" d="M 0.049863 0.000244052 L 10.503135 0.000244052 " transform="matrix(6.218149,0,0,6.218149,4.561038,34.299264)"/>
<path style="fill:none;stroke-width:0.1;stroke-linecap:round;stroke-linejoin:round;stroke:rgb(0%,0%,0%);stroke-opacity:1;stroke-miterlimit:4;" d="M 0.049863 0.000147403 L 10.503135 0.000147403 " transform="matrix(6.218149,0,0,6.218149,4.561038,28.081115)"/>
<path style="fill:none;stroke-width:0.1;stroke-linecap:round;stroke-linejoin:round;stroke:rgb(0%,0%,0%);stroke-opacity:1;stroke-miterlimit:4;" d="M 0.049863 0.0000507548 L 10.503135 0.0000507548 " transform="matrix(6.218149,0,0,6.218149,4.561038,21.862966)"/>
<path style="fill:none;stroke-width:0.1;stroke-linecap:round;stroke-linejoin:round;stroke:rgb(0%,0%,0%);stroke-opacity:1;stroke-miterlimit:4;" d="M 0.049863 -0.0000458938 L 10.503135 -0.0000458938 " transform="matrix(6.218149,0,0,6.218149,4.561038,15.644817)"/>
<path style=" stroke:none;fill-rule:nonzero;fill:rgb(0%,0%,0%);fill-opacity:1;" d="M 51.761719 23.019531 L 52.074219 23.019531 C 52.210938 23.019531 52.324219 23.132812 52.324219 23.269531 L 52.324219 52.703125 C 52.324219 52.84375 52.210938 52.953125 52.074219 52.953125 L 51.761719 52.953125 C 51.625 52.953125 51.515625 52.84375 51.515625 52.703125 L 51.515625 23.269531 C 51.515625 23.132812 51.625 23.019531 51.761719 23.019531 Z M 51.761719 23.019531 "/>
<path style=" stroke:none;fill-rule:nonzero;fill:rgb(0%,0%,0%);fill-opacity:1;" d="M 45.035156 20.84375 L 45.011719 22.484375 L 45.011719 22.757812 C 45.011719 23.304688 45.035156 23.851562 45.109375 24.398438 C 46.230469 23.453125 47.421875 22.410156 47.421875 20.941406 C 47.421875 20.121094 47.074219 19.277344 46.351562 19.277344 C 45.582031 19.277344 45.058594 20.023438 45.035156 20.84375 Z M 43.992188 25.296875 L 43.691406 10.496094 C 43.890625 10.371094 44.140625 10.296875 44.363281 10.296875 C 44.585938 10.296875 44.835938 10.371094 45.035156 10.496094 L 44.859375 19.078125 C 45.484375 18.554688 46.304688 18.230469 47.125 18.230469 C 48.417969 18.230469 49.339844 19.425781 49.339844 20.769531 C 49.339844 22.757812 47.199219 23.679688 45.683594 24.972656 C 45.308594 25.296875 45.085938 25.917969 44.5625 25.917969 C 44.238281 25.917969 43.992188 25.644531 43.992188 25.296875 Z M 43.992188 25.296875 "/>
<path style=" stroke:none;fill-rule:nonzero;fill:rgb(0%,0%,0%);fill-opacity:1;" d="M 34.6875 27.0625 L 34.664062 28.703125 C 34.664062 28.800781 34.636719 28.878906 34.636719 28.976562 C 34.636719 29.523438 34.664062 30.070312 34.738281 30.617188 C 35.832031 29.699219 36.902344 28.578125 36.902344 27.160156 C 36.902344 26.339844 36.628906 25.496094 35.90625 25.496094 C 35.160156 25.496094 34.710938 26.242188 34.6875 27.0625 Z M 34.664062 16.714844 L 34.515625 25.296875 C 35.109375 24.773438 35.882812 24.449219 36.679688 24.449219 C 37.996094 24.449219 38.964844 25.617188 38.964844 26.960938 C 38.964844 28.953125 36.828125 29.898438 35.308594 31.191406 C 34.9375 31.511719 34.738281 32.136719 34.214844 32.136719 C 33.890625 32.136719 33.617188 31.863281 33.617188 31.511719 L 33.570312 28.878906 C 32.898438 29.722656 31.925781 30.417969 31.132812 31.191406 C 30.808594 31.511719 30.660156 32.136719 30.160156 32.136719 C 29.835938 32.136719 29.589844 31.835938 29.589844 31.488281 L 29.289062 16.714844 C 29.488281 16.589844 29.738281 16.515625 29.960938 16.515625 C 30.1875 16.515625 30.433594 16.589844 30.632812 16.714844 L 30.460938 25.296875 C 30.882812 24.773438 31.527344 24.449219 32.199219 24.449219 C 32.699219 24.449219 33.144531 24.648438 33.492188 24.972656 L 33.320312 16.714844 C 33.519531 16.589844 33.769531 16.515625 33.992188 16.515625 C 34.214844 16.515625 34.464844 16.589844 34.664062 16.714844 Z M 30.386719 28.726562 L 30.386719 28.976562 C 30.386719 29.546875 30.410156 30.097656 30.484375 30.667969 C 31.453125 29.722656 32.25 28.527344 32.25 27.160156 C 32.25 26.363281 32.101562 25.496094 31.429688 25.496094 C 30.757812 25.496094 30.460938 26.265625 30.433594 27.035156 Z M 30.386719 28.726562 "/>
<path style=" stroke:none;fill-rule:nonzero;fill:rgb(0%,0%,0%);fill-opacity:1;" d="M 41.554688 33.28125 L 41.527344 34.921875 L 41.527344 35.195312 C 41.527344 35.742188 41.554688 36.289062 41.628906 36.835938 C 42.746094 35.890625 43.941406 34.847656 43.941406 33.378906 C 43.941406 32.558594 43.59375 31.710938 42.871094 31.710938 C 42.101562 31.710938 41.578125 32.457031 41.554688 33.28125 Z M 40.507812 37.730469 L 40.210938 22.933594 C 40.410156 22.808594 40.65625 22.734375 40.882812 22.734375 C 41.105469 22.734375 41.355469 22.808594 41.554688 22.933594 L 41.378906 31.511719 C 42 30.992188 42.820312 30.667969 43.640625 30.667969 C 44.933594 30.667969 45.855469 31.863281 45.855469 33.203125 C 45.855469 35.195312 43.714844 36.113281 42.199219 37.410156 C 41.828125 37.730469 41.601562 38.351562 41.082031 38.351562 C 40.757812 38.351562 40.507812 38.078125 40.507812 37.730469 Z M 40.507812 37.730469 "/>
<path style=" stroke:none;fill-rule:nonzero;fill:rgb(0%,0%,0%);fill-opacity:1;" d="M 16.152344 50.09375 L 16.003906 50.09375 C 13.316406 50.09375 11.152344 47.90625 11.152344 45.195312 C 11.152344 43.75 12.46875 42.632812 13.9375 42.632812 C 15.28125 42.632812 16.300781 43.800781 16.300781 45.195312 C 16.300781 46.488281 15.230469 47.554688 13.9375 47.554688 C 13.664062 47.554688 13.414062 47.507812 13.167969 47.40625 C 13.8125 48.378906 14.859375 49.023438 16.078125 49.023438 L 16.175781 49.023438 Z M 21 39.347656 C 22.691406 38.75 23.8125 36.984375 23.8125 35.269531 C 23.8125 33.03125 22.171875 30.816406 19.507812 30.542969 C 20.105469 33.429688 20.652344 36.289062 21 39.347656 Z M 11.375 33.601562 C 11.375 36.960938 14.585938 39.746094 17.941406 39.746094 C 18.640625 39.746094 19.308594 39.695312 19.980469 39.597656 C 19.632812 36.4375 19.0625 33.503906 18.414062 30.542969 C 16.449219 30.742188 15.332031 32.0625 15.332031 33.503906 C 15.332031 34.597656 15.953125 35.765625 17.34375 36.5625 C 17.46875 36.6875 17.519531 36.8125 17.519531 36.9375 C 17.519531 37.210938 17.269531 37.484375 16.972656 37.484375 C 16.898438 37.484375 16.824219 37.457031 16.75 37.433594 C 14.757812 36.363281 13.839844 34.574219 13.839844 32.832031 C 13.839844 30.644531 15.28125 28.503906 17.816406 27.933594 C 17.46875 26.488281 17.097656 25.023438 16.675781 23.578125 C 14.011719 26.589844 11.375 29.625 11.375 33.601562 Z M 17.867188 40.816406 C 13.191406 40.816406 9.585938 36.539062 9.585938 31.511719 C 9.585938 27.109375 12.84375 23.902344 15.753906 20.542969 C 15.28125 19.003906 14.832031 17.4375 14.632812 15.820312 C 14.484375 14.527344 14.460938 13.230469 14.460938 11.9375 C 14.460938 9.078125 15.828125 6.367188 18.167969 4.675781 C 18.316406 4.550781 18.515625 4.550781 18.664062 4.675781 C 20.429688 6.765625 21.972656 10.769531 21.972656 13.582031 C 21.972656 17.136719 19.832031 19.921875 17.496094 22.632812 C 18.015625 24.324219 18.464844 26.066406 18.886719 27.78125 C 18.988281 27.78125 19.113281 27.757812 19.210938 27.757812 C 23.066406 27.757812 25.578125 30.941406 25.578125 34.25 C 25.578125 36.140625 24.757812 38.078125 22.917969 39.472656 C 22.371094 39.894531 21.746094 40.167969 21.101562 40.367188 C 21.175781 41.238281 21.226562 42.109375 21.226562 42.980469 C 21.226562 43.453125 21.199219 43.949219 21.175781 44.421875 C 21 47.382812 18.988281 50.019531 16.152344 50.09375 L 16.175781 49.023438 C 18.488281 48.972656 19.980469 46.734375 20.132812 44.273438 C 20.15625 43.824219 20.179688 43.351562 20.179688 42.90625 C 20.179688 42.132812 20.15625 41.386719 20.082031 40.617188 C 19.359375 40.742188 18.640625 40.816406 17.867188 40.816406 Z M 20.179688 11.515625 C 20.179688 10.148438 20.082031 9.550781 19.683594 8.308594 C 17.222656 9.5 15.652344 12.011719 15.652344 14.75 C 15.652344 16.589844 16.101562 18.058594 16.550781 19.574219 C 18.539062 17.160156 20.179688 14.648438 20.179688 11.515625 Z M 20.179688 11.515625 "/>
<path style=" stroke:none;fill-rule:nonzero;fill:rgb(0%,0%,0%);fill-opacity:1;" d="M 56.9375 18.480469 C 58.304688 18.480469 59.621094 19.175781 59.621094 20.695312 C 59.621094 22.460938 58.253906 23.703125 57.085938 24.398438 C 56.214844 24.921875 55.21875 25.246094 54.199219 25.246094 C 52.832031 25.246094 51.515625 24.550781 51.515625 23.03125 C 51.515625 21.265625 52.882812 20.023438 54.050781 19.324219 C 54.921875 18.804688 55.917969 18.480469 56.9375 18.480469 Z M 56.9375 18.480469 "/>
<path style=" stroke:none;fill-rule:nonzero;fill:rgb(0%,0%,0%);fill-opacity:1;" d="M 56.9375 24.699219 C 58.304688 24.699219 59.621094 25.394531 59.621094 26.910156 C 59.621094 28.679688 58.253906 29.921875 57.085938 30.617188 C 56.214844 31.140625 55.21875 31.464844 54.199219 31.464844 C 52.832031 31.464844 51.515625 30.765625 51.515625 29.25 C 51.515625 27.484375 52.882812 26.242188 54.050781 25.542969 C 54.921875 25.023438 55.917969 24.699219 56.9375 24.699219 Z M 56.9375 24.699219 "/>
<path style=" stroke:none;fill-rule:nonzero;fill:rgb(0%,0%,0%);fill-opacity:1;" d="M 56.9375 30.917969 C 58.304688 30.917969 59.621094 31.613281 59.621094 33.128906 C 59.621094 34.894531 58.253906 36.140625 57.085938 36.835938 C 56.214844 37.359375 55.21875 37.683594 54.199219 37.683594 C 52.832031 37.683594 51.515625 36.984375 51.515625 35.46875 C 51.515625 33.703125 52.882812 32.457031 54.050781 31.761719 C 54.921875 31.238281 55.917969 30.917969 56.9375 30.917969 Z M 56.9375 30.917969 "/>
</g>
</svg>
