<?xml version="1.0" encoding="UTF-8"?>
<svg xmlns="http://www.w3.org/2000/svg" xmlns:xlink="http://www.w3.org/1999/xlink" width="82.322431pt" height="60.158674pt" viewBox="0 0 82.322431 60.158674" version="1.1">
<g id="surface1">
<path style="fill:none;stroke-width:0.1;stroke-linecap:round;stroke-linejoin:round;stroke:rgb(0%,0%,0%);stroke-opacity:1;stroke-miterlimit:4;" d="M 0.049863 -0.0001075 L 10.837338 -0.0001075 " transform="matrix(6.218149,0,0,6.218149,4.561038,29.434262)"/>
<path style="fill:none;stroke-width:0.1;stroke-linecap:round;stroke-linejoin:round;stroke:rgb(0%,0%,0%);stroke-opacity:1;stroke-miterlimit:4;" d="M 0.049863 -0.000204149 L 10.837338 -0.000204149 " transform="matrix(6.218149,0,0,6.218149,4.561038,23.216113)"/>
<path style="fill:none;stroke-width:0.1;stroke-linecap:round;stroke-linejoin:round;stroke:rgb(0%,0%,0%);stroke-opacity:1;stroke-miterlimit:4;" d="M 0.049863 -0.000300797 L 10.837338 -0.000300797 " transform="matrix(6.218149,0,0,6.218149,4.561038,16.997964)"/>
<path style="fill:none;stroke-width:0.1;stroke-linecap:round;stroke-linejoin:round;stroke:rgb(0%,0%,0%);stroke-opacity:1;stroke-miterlimit:4;" d="M 0.049863 0.000230756 L 10.837338 0.000230756 " transform="matrix(6.218149,0,0,6.218149,4.561038,10.779815)"/>
<path style="fill:none;stroke-width:0.1;stroke-linecap:round;stroke-linejoin:round;stroke:rgb(0%,0%,0%);stroke-opacity:1;stroke-miterlimit:4;" d="M 0.049863 0.000133988 L 10.837338 0.000133988 " transform="matrix(6.218149,0,0,6.218149,4.561038,4.561667)"/>
<path style=" stroke:none;fill-rule:nonzero;fill:rgb(0%,0%,0%);fill-opacity:1;" d="M 52.1875 35.03125 L 63.109375 35.03125 C 63.453125 35.03125 63.730469 35.308594 63.730469 35.652344 C 63.730469 35.996094 63.453125 36.273438 63.109375 36.273438 L 52.1875 36.273438 C 51.84375 36.273438 51.566406 35.996094 51.566406 35.652344 C 51.566406 35.308594 51.84375 35.03125 52.1875 35.03125 Z M 52.1875 35.03125 "/>
<path style=" stroke:none;fill-rule:nonzero;fill:rgb(0%,0%,0%);fill-opacity:1;" d="M 52.1875 41.25 L 63.109375 41.25 C 63.453125 41.25 63.730469 41.527344 63.730469 41.871094 C 63.730469 42.214844 63.453125 42.492188 63.109375 42.492188 L 52.1875 42.492188 C 51.84375 42.492188 51.566406 42.214844 51.566406 41.871094 C 51.566406 41.527344 51.84375 41.25 52.1875 41.25 Z M 52.1875 41.25 "/>
<path style=" stroke:none;fill-rule:nonzero;fill:rgb(0%,0%,0%);fill-opacity:1;" d="M 61.144531 7.671875 L 61.453125 7.671875 C 61.59375 7.671875 61.703125 7.78125 61.703125 7.917969 L 61.703125 40.464844 C 61.703125 40.601562 61.59375 40.714844 61.453125 40.714844 L 61.144531 40.714844 C 61.007812 40.714844 60.894531 40.601562 60.894531 40.464844 L 60.894531 7.917969 C 60.894531 7.78125 61.007812 7.671875 61.144531 7.671875 Z M 61.144531 7.671875 "/>
<path style=" stroke:none;fill-rule:nonzero;fill:rgb(0%,0%,0%);fill-opacity:1;" d="M 48.683594 29.433594 C 49.253906 30.007812 50.074219 30.128906 50.894531 30.128906 C 51.046875 30.128906 51.144531 30.230469 51.144531 30.378906 L 51.367188 32.542969 C 51.394531 32.691406 51.269531 32.816406 51.121094 32.792969 L 48.957031 32.566406 C 48.832031 32.542969 48.707031 32.445312 48.707031 32.320312 C 48.707031 31.5 48.582031 30.679688 48.011719 30.105469 C 47.4375 30.679688 47.339844 31.5 47.339844 32.320312 C 47.339844 32.445312 47.214844 32.542969 47.089844 32.566406 L 44.902344 32.792969 C 44.753906 32.816406 44.628906 32.691406 44.652344 32.542969 L 44.878906 30.378906 C 44.878906 30.230469 44.976562 30.128906 45.125 30.128906 C 45.945312 30.128906 46.765625 30.007812 47.339844 29.433594 C 46.765625 28.863281 45.945312 28.738281 45.125 28.738281 C 44.976562 28.738281 44.878906 28.636719 44.878906 28.488281 L 44.652344 26.324219 C 44.628906 26.175781 44.753906 26.050781 44.902344 26.078125 L 47.089844 26.300781 C 47.214844 26.324219 47.316406 26.425781 47.316406 26.550781 C 47.316406 27.371094 47.4375 28.191406 48.011719 28.761719 C 48.582031 28.191406 48.707031 27.371094 48.707031 26.550781 C 48.707031 26.425781 48.832031 26.324219 48.957031 26.300781 L 51.121094 26.078125 C 51.269531 26.050781 51.394531 26.175781 51.367188 26.324219 L 51.144531 28.488281 C 51.144531 28.636719 51.046875 28.738281 50.894531 28.738281 C 50.074219 28.738281 49.253906 28.863281 48.683594 29.433594 Z M 48.683594 29.433594 "/>
<path style=" stroke:none;fill-rule:nonzero;fill:rgb(0%,0%,0%);fill-opacity:1;" d="M 35.324219 43.414062 C 35.324219 43.660156 35.125 43.886719 34.878906 43.886719 C 34.628906 43.886719 34.40625 43.660156 34.40625 43.414062 L 34.40625 39.804688 L 32.339844 40.578125 L 32.339844 44.507812 C 32.339844 44.753906 32.117188 44.980469 31.867188 44.980469 C 31.617188 44.980469 31.417969 44.753906 31.417969 44.507812 L 31.417969 40.902344 L 30.625 41.199219 C 30.574219 41.222656 30.5 41.222656 30.449219 41.222656 C 30.175781 41.222656 29.953125 41 29.953125 40.726562 L 29.953125 39.234375 C 29.953125 39.035156 30.078125 38.835938 30.277344 38.761719 L 31.417969 38.363281 L 31.417969 34.382812 L 30.625 34.65625 C 30.574219 34.683594 30.5 34.683594 30.449219 34.683594 C 30.175781 34.683594 29.953125 34.457031 29.953125 34.183594 L 29.953125 32.691406 C 29.953125 32.492188 30.078125 32.320312 30.277344 32.246094 L 31.417969 31.820312 L 31.417969 27.890625 C 31.417969 27.644531 31.617188 27.417969 31.867188 27.417969 C 32.117188 27.417969 32.339844 27.644531 32.339844 27.890625 L 32.339844 31.5 L 34.40625 30.726562 L 34.40625 26.796875 C 34.40625 26.550781 34.628906 26.324219 34.878906 26.324219 C 35.125 26.324219 35.324219 26.550781 35.324219 26.796875 L 35.324219 30.402344 L 36.121094 30.105469 C 36.171875 30.082031 36.246094 30.082031 36.292969 30.082031 C 36.566406 30.082031 36.792969 30.304688 36.792969 30.578125 L 36.792969 32.070312 C 36.792969 32.269531 36.667969 32.46875 36.46875 32.542969 L 35.324219 32.941406 L 35.324219 36.921875 L 36.121094 36.648438 C 36.171875 36.621094 36.246094 36.621094 36.292969 36.621094 C 36.566406 36.621094 36.792969 36.847656 36.792969 37.121094 L 36.792969 38.613281 C 36.792969 38.8125 36.667969 38.984375 36.46875 39.058594 L 35.324219 39.484375 Z M 32.339844 34.035156 L 32.339844 38.015625 L 34.40625 37.269531 L 34.40625 33.289062 Z M 32.339844 34.035156 "/>
<path style=" stroke:none;fill-rule:nonzero;fill:rgb(0%,0%,0%);fill-opacity:1;" d="M 43.410156 49.628906 C 43.410156 49.878906 43.210938 50.101562 42.960938 50.101562 C 42.710938 50.101562 42.488281 49.878906 42.488281 49.628906 L 42.488281 46.023438 L 40.421875 46.796875 L 40.421875 50.726562 C 40.421875 50.972656 40.199219 51.199219 39.949219 51.199219 C 39.703125 51.199219 39.503906 50.972656 39.503906 50.726562 L 39.503906 47.117188 L 38.707031 47.417969 C 38.65625 47.441406 38.582031 47.441406 38.535156 47.441406 C 38.257812 47.441406 38.035156 47.21875 38.035156 46.945312 L 38.035156 45.453125 C 38.035156 45.253906 38.160156 45.054688 38.359375 44.980469 L 39.503906 44.582031 L 39.503906 40.601562 L 38.707031 40.875 C 38.65625 40.902344 38.582031 40.902344 38.535156 40.902344 C 38.257812 40.902344 38.035156 40.675781 38.035156 40.402344 L 38.035156 38.910156 C 38.035156 38.710938 38.160156 38.539062 38.359375 38.464844 L 39.503906 38.039062 L 39.503906 34.109375 C 39.503906 33.863281 39.703125 33.636719 39.949219 33.636719 C 40.199219 33.636719 40.421875 33.863281 40.421875 34.109375 L 40.421875 37.71875 L 42.488281 36.945312 L 42.488281 33.015625 C 42.488281 32.765625 42.710938 32.542969 42.960938 32.542969 C 43.210938 32.542969 43.410156 32.765625 43.410156 33.015625 L 43.410156 36.621094 L 44.203125 36.324219 C 44.253906 36.300781 44.328125 36.300781 44.378906 36.300781 C 44.652344 36.300781 44.875 36.523438 44.875 36.796875 L 44.875 38.289062 C 44.875 38.488281 44.75 38.6875 44.550781 38.761719 L 43.410156 39.160156 L 43.410156 43.140625 L 44.203125 42.867188 C 44.253906 42.839844 44.328125 42.839844 44.378906 42.839844 C 44.652344 42.839844 44.875 43.0625 44.875 43.339844 L 44.875 44.832031 C 44.875 45.03125 44.75 45.203125 44.550781 45.277344 L 43.410156 45.699219 Z M 40.421875 40.253906 L 40.421875 44.234375 L 42.488281 43.488281 L 42.488281 39.507812 Z M 40.421875 40.253906 "/>
<path style=" stroke:none;fill-rule:nonzero;fill:rgb(0%,0%,0%);fill-opacity:1;" d="M 23.390625 13.890625 C 23.390625 13.191406 23.960938 12.621094 24.65625 12.621094 C 25.355469 12.621094 25.925781 13.191406 25.925781 13.890625 C 25.925781 14.585938 25.355469 15.15625 24.65625 15.15625 C 23.960938 15.15625 23.390625 14.585938 23.390625 13.890625 Z M 23.390625 7.671875 C 23.390625 6.972656 23.960938 6.402344 24.65625 6.402344 C 25.355469 6.402344 25.925781 6.972656 25.925781 7.671875 C 25.925781 8.367188 25.355469 8.9375 24.65625 8.9375 C 23.960938 8.9375 23.390625 8.367188 23.390625 7.671875 Z M 15.304688 4.238281 C 19.585938 4.238281 22.59375 6.425781 22.59375 10.480469 C 22.59375 17.023438 16.050781 20.777344 9.757812 23.441406 C 9.683594 23.515625 9.609375 23.539062 9.535156 23.539062 C 9.363281 23.539062 9.210938 23.390625 9.210938 23.214844 C 9.210938 23.140625 9.238281 23.066406 9.3125 22.992188 C 14.335938 20.058594 19.558594 16.402344 19.558594 10.730469 C 19.558594 7.746094 17.992188 4.886719 15.304688 4.886719 C 13.464844 4.886719 12.097656 6.226562 11.476562 8.019531 C 11.75 7.894531 12.023438 7.820312 12.320312 7.820312 C 13.6875 7.820312 14.808594 8.9375 14.808594 10.308594 C 14.808594 11.75 13.714844 12.945312 12.320312 12.945312 C 10.828125 12.945312 9.535156 11.773438 9.535156 10.308594 C 9.535156 7 12.074219 4.238281 15.304688 4.238281 Z M 15.304688 4.238281 "/>
<path style=" stroke:none;fill-rule:nonzero;fill:rgb(0%,0%,0%);fill-opacity:1;" d="M 59.015625 26.050781 C 60.382812 26.050781 61.703125 26.746094 61.703125 28.265625 C 61.703125 30.03125 60.335938 31.273438 59.164062 31.972656 C 58.292969 32.492188 57.300781 32.816406 56.28125 32.816406 C 54.910156 32.816406 53.59375 32.121094 53.59375 30.601562 C 53.59375 28.835938 54.960938 27.59375 56.128906 26.898438 C 57 26.375 57.996094 26.050781 59.015625 26.050781 Z M 59.015625 26.050781 "/>
<path style=" stroke:none;fill-rule:nonzero;fill:rgb(0%,0%,0%);fill-opacity:1;" d="M 59.015625 32.269531 C 60.382812 32.269531 61.703125 32.964844 61.703125 34.484375 C 61.703125 36.25 60.335938 37.492188 59.164062 38.1875 C 58.292969 38.710938 57.300781 39.035156 56.28125 39.035156 C 54.910156 39.035156 53.59375 38.339844 53.59375 36.820312 C 53.59375 35.054688 54.960938 33.8125 56.128906 33.117188 C 57 32.59375 57.996094 32.269531 59.015625 32.269531 Z M 59.015625 32.269531 "/>
<path style=" stroke:none;fill-rule:nonzero;fill:rgb(0%,0%,0%);fill-opacity:1;" d="M 59.015625 38.488281 C 60.382812 38.488281 61.703125 39.183594 61.703125 40.703125 C 61.703125 42.46875 60.335938 43.710938 59.164062 44.40625 C 58.292969 44.929688 57.300781 45.253906 56.28125 45.253906 C 54.910156 45.253906 53.59375 44.558594 53.59375 43.039062 C 53.59375 41.273438 54.960938 40.03125 56.128906 39.332031 C 57 38.8125 57.996094 38.488281 59.015625 38.488281 Z M 59.015625 38.488281 "/>
</g>
</svg>
