<?xml version="1.0" encoding="UTF-8"?>
<svg xmlns="http://www.w3.org/2000/svg" xmlns:xlink="http://www.w3.org/1999/xlink" width="68.472344pt" height="53.463766pt" viewBox="0 0 68.472344 53.463766" version="1.1">
<g id="surface1">
<path style="fill:none;stroke-width:0.1;stroke-linecap:round;stroke-linejoin:round;stroke:rgb(0%,0%,0%);stroke-opacity:1;stroke-miterlimit:4;" d="M 0.049863 0.00023304 L 8.752337 0.00023304 " transform="matrix(6.218149,0,0,6.218149,4.561038,41.88527)"/>
<path style="fill:none;stroke-width:0.1;stroke-linecap:round;stroke-linejoin:round;stroke:rgb(0%,0%,0%);stroke-opacity:1;stroke-miterlimit:4;" d="M 0.049863 0.000136391 L 8.752337 0.000136391 " transform="matrix(6.218149,0,0,6.218149,4.561038,35.667121)"/>
<path style="fill:none;stroke-width:0.1;stroke-linecap:round;stroke-linejoin:round;stroke:rgb(0%,0%,0%);stroke-opacity:1;stroke-miterlimit:4;" d="M 0.049863 0.0000397429 L 8.752337 0.0000397429 " transform="matrix(6.218149,0,0,6.218149,4.561038,29.448972)"/>
<path style="fill:none;stroke-width:0.1;stroke-linecap:round;stroke-linejoin:round;stroke:rgb(0%,0%,0%);stroke-opacity:1;stroke-miterlimit:4;" d="M 0.049863 -0.0000569057 L 8.752337 -0.0000569057 " transform="matrix(6.218149,0,0,6.218149,4.561038,23.230823)"/>
<path style="fill:none;stroke-width:0.1;stroke-linecap:round;stroke-linejoin:round;stroke:rgb(0%,0%,0%);stroke-opacity:1;stroke-miterlimit:4;" d="M 0.049863 -0.000153554 L 8.752337 -0.000153554 " transform="matrix(6.218149,0,0,6.218149,4.561038,17.012674)"/>
<path style=" stroke:none;fill-rule:nonzero;fill:rgb(0%,0%,0%);fill-opacity:1;" d="M 48.175781 4.578125 L 48.488281 4.578125 C 48.625 4.578125 48.734375 4.6875 48.734375 4.824219 L 48.734375 40.480469 C 48.734375 40.617188 48.625 40.726562 48.488281 40.726562 L 48.175781 40.726562 C 48.039062 40.726562 47.925781 40.617188 47.925781 40.480469 L 47.925781 4.824219 C 47.925781 4.6875 48.039062 4.578125 48.175781 4.578125 Z M 48.175781 4.578125 "/>
<path style=" stroke:none;fill-rule:nonzero;fill:rgb(0%,0%,0%);fill-opacity:1;" d="M 23.390625 26.339844 C 23.390625 25.644531 23.960938 25.070312 24.65625 25.070312 C 25.355469 25.070312 25.925781 25.644531 25.925781 26.339844 C 25.925781 27.035156 25.355469 27.609375 24.65625 27.609375 C 23.960938 27.609375 23.390625 27.035156 23.390625 26.339844 Z M 23.390625 20.121094 C 23.390625 19.425781 23.960938 18.851562 24.65625 18.851562 C 25.355469 18.851562 25.925781 19.425781 25.925781 20.121094 C 25.925781 20.816406 25.355469 21.390625 24.65625 21.390625 C 23.960938 21.390625 23.390625 20.816406 23.390625 20.121094 Z M 15.304688 16.6875 C 19.585938 16.6875 22.59375 18.878906 22.59375 22.933594 C 22.59375 29.472656 16.050781 33.230469 9.757812 35.890625 C 9.683594 35.964844 9.609375 35.992188 9.535156 35.992188 C 9.363281 35.992188 9.210938 35.839844 9.210938 35.667969 C 9.210938 35.59375 9.238281 35.519531 9.3125 35.441406 C 14.335938 32.507812 19.558594 28.851562 19.558594 23.179688 C 19.558594 20.195312 17.992188 17.335938 15.304688 17.335938 C 13.464844 17.335938 12.097656 18.679688 11.476562 20.46875 C 11.75 20.34375 12.023438 20.269531 12.320312 20.269531 C 13.6875 20.269531 14.808594 21.390625 14.808594 22.757812 C 14.808594 24.199219 13.714844 25.394531 12.320312 25.394531 C 10.828125 25.394531 9.535156 24.226562 9.535156 22.757812 C 9.535156 19.449219 12.074219 16.6875 15.304688 16.6875 Z M 15.304688 16.6875 "/>
<path style=" stroke:none;fill-rule:nonzero;fill:rgb(0%,0%,0%);fill-opacity:1;" d="M 46.046875 19.847656 C 47.417969 19.847656 48.734375 20.542969 48.734375 22.0625 C 48.734375 23.828125 47.367188 25.070312 46.199219 25.769531 C 45.328125 26.289062 44.332031 26.613281 43.3125 26.613281 C 41.945312 26.613281 40.625 25.917969 40.625 24.398438 C 40.625 22.632812 41.996094 21.390625 43.164062 20.695312 C 44.035156 20.171875 45.027344 19.847656 46.046875 19.847656 Z M 46.046875 19.847656 "/>
<path style=" stroke:none;fill-rule:nonzero;fill:rgb(0%,0%,0%);fill-opacity:1;" d="M 46.046875 26.066406 C 47.417969 26.066406 48.734375 26.761719 48.734375 28.28125 C 48.734375 30.046875 47.367188 31.289062 46.199219 31.984375 C 45.328125 32.507812 44.332031 32.832031 43.3125 32.832031 C 41.945312 32.832031 40.625 32.136719 40.625 30.617188 C 40.625 28.851562 41.996094 27.609375 43.164062 26.910156 C 44.035156 26.390625 45.027344 26.066406 46.046875 26.066406 Z M 46.046875 26.066406 "/>
<path style=" stroke:none;fill-rule:nonzero;fill:rgb(0%,0%,0%);fill-opacity:1;" d="M 46.046875 32.285156 C 47.417969 32.285156 48.734375 32.980469 48.734375 34.5 C 48.734375 36.265625 47.367188 37.507812 46.199219 38.203125 C 45.328125 38.726562 44.332031 39.050781 43.3125 39.050781 C 41.945312 39.050781 40.625 38.351562 40.625 36.835938 C 40.625 35.070312 41.996094 33.828125 43.164062 33.128906 C 44.035156 32.609375 45.027344 32.285156 46.046875 32.285156 Z M 46.046875 32.285156 "/>
<path style=" stroke:none;fill-rule:nonzero;fill:rgb(0%,0%,0%);fill-opacity:1;" d="M 46.046875 38.503906 C 47.417969 38.503906 48.734375 39.199219 48.734375 40.714844 C 48.734375 42.480469 47.367188 43.726562 46.199219 44.421875 C 45.328125 44.945312 44.332031 45.269531 43.3125 45.269531 C 41.945312 45.269531 40.625 44.570312 40.625 43.054688 C 40.625 41.289062 41.996094 40.042969 43.164062 39.347656 C 44.035156 38.824219 45.027344 38.503906 46.046875 38.503906 Z M 46.046875 38.503906 "/>
</g>
</svg>
