<?xml version="1.0" encoding="UTF-8"?>
<svg xmlns="http://www.w3.org/2000/svg" xmlns:xlink="http://www.w3.org/1999/xlink" width="71.82843pt" height="60.078972pt" viewBox="0 0 71.82843 60.078972" version="1.1">
<g id="surface1">
<path style="fill:none;stroke-width:0.1;stroke-linecap:round;stroke-linejoin:round;stroke:rgb(0%,0%,0%);stroke-opacity:1;stroke-miterlimit:4;" d="M 0.049863 0.00023304 L 9.257411 0.00023304 " transform="matrix(6.218149,0,0,6.218149,4.561038,41.88527)"/>
<path style="fill:none;stroke-width:0.1;stroke-linecap:round;stroke-linejoin:round;stroke:rgb(0%,0%,0%);stroke-opacity:1;stroke-miterlimit:4;" d="M 0.049863 0.000136391 L 9.257411 0.000136391 " transform="matrix(6.218149,0,0,6.218149,4.561038,35.667121)"/>
<path style="fill:none;stroke-width:0.1;stroke-linecap:round;stroke-linejoin:round;stroke:rgb(0%,0%,0%);stroke-opacity:1;stroke-miterlimit:4;" d="M 0.049863 0.0000397429 L 9.257411 0.0000397429 " transform="matrix(6.218149,0,0,6.218149,4.561038,29.448972)"/>
<path style="fill:none;stroke-width:0.1;stroke-linecap:round;stroke-linejoin:round;stroke:rgb(0%,0%,0%);stroke-opacity:1;stroke-miterlimit:4;" d="M 0.049863 -0.0000569057 L 9.257411 -0.0000569057 " transform="matrix(6.218149,0,0,6.218149,4.561038,23.230823)"/>
<path style="fill:none;stroke-width:0.1;stroke-linecap:round;stroke-linejoin:round;stroke:rgb(0%,0%,0%);stroke-opacity:1;stroke-miterlimit:4;" d="M 0.049863 -0.000153554 L 9.257411 -0.000153554 " transform="matrix(6.218149,0,0,6.218149,4.561038,17.012674)"/>
<path style=" stroke:none;fill-rule:nonzero;fill:rgb(0%,0%,0%);fill-opacity:1;" d="M 51.320312 4.578125 L 51.628906 4.578125 C 51.765625 4.578125 51.878906 4.6875 51.878906 4.824219 L 51.878906 40.480469 C 51.878906 40.617188 51.765625 40.726562 51.628906 40.726562 L 51.320312 40.726562 C 51.179688 40.726562 51.070312 40.617188 51.070312 40.480469 L 51.070312 4.824219 C 51.070312 4.6875 51.179688 4.578125 51.320312 4.578125 Z M 51.320312 4.578125 "/>
<path style=" stroke:none;fill-rule:nonzero;fill:rgb(0%,0%,0%);fill-opacity:1;" d="M 37.289062 22.210938 L 37.265625 23.851562 L 37.265625 24.125 C 37.265625 24.671875 37.289062 25.21875 37.363281 25.769531 C 38.484375 24.824219 39.675781 23.777344 39.675781 22.308594 C 39.675781 21.488281 39.328125 20.644531 38.605469 20.644531 C 37.835938 20.644531 37.3125 21.390625 37.289062 22.210938 Z M 36.246094 26.664062 L 35.945312 11.863281 C 36.144531 11.738281 36.394531 11.664062 36.617188 11.664062 C 36.839844 11.664062 37.089844 11.738281 37.289062 11.863281 L 37.113281 20.445312 C 37.738281 19.921875 38.558594 19.597656 39.378906 19.597656 C 40.671875 19.597656 41.59375 20.792969 41.59375 22.136719 C 41.59375 24.125 39.453125 25.046875 37.9375 26.339844 C 37.5625 26.664062 37.339844 27.285156 36.816406 27.285156 C 36.492188 27.285156 36.246094 27.011719 36.246094 26.664062 Z M 36.246094 26.664062 "/>
<path style=" stroke:none;fill-rule:nonzero;fill:rgb(0%,0%,0%);fill-opacity:1;" d="M 30.632812 28.429688 L 30.609375 30.070312 L 30.609375 30.34375 C 30.609375 30.890625 30.632812 31.4375 30.707031 31.984375 C 31.828125 31.039062 33.023438 29.996094 33.023438 28.527344 C 33.023438 27.707031 32.671875 26.863281 31.953125 26.863281 C 31.179688 26.863281 30.660156 27.609375 30.632812 28.429688 Z M 29.589844 32.882812 L 29.289062 18.082031 C 29.488281 17.957031 29.738281 17.882812 29.960938 17.882812 C 30.1875 17.882812 30.433594 17.957031 30.632812 18.082031 L 30.460938 26.664062 C 31.082031 26.140625 31.902344 25.816406 32.722656 25.816406 C 34.015625 25.816406 34.9375 27.011719 34.9375 28.355469 C 34.9375 30.34375 32.796875 31.265625 31.28125 32.558594 C 30.90625 32.882812 30.683594 33.503906 30.160156 33.503906 C 29.835938 33.503906 29.589844 33.230469 29.589844 32.882812 Z M 29.589844 32.882812 "/>
<path style=" stroke:none;fill-rule:nonzero;fill:rgb(0%,0%,0%);fill-opacity:1;" d="M 37.289062 40.867188 L 37.265625 42.507812 L 37.265625 42.78125 C 37.265625 43.328125 37.289062 43.875 37.363281 44.421875 C 38.484375 43.476562 39.675781 42.433594 39.675781 40.964844 C 39.675781 40.144531 39.328125 39.296875 38.605469 39.296875 C 37.835938 39.296875 37.3125 40.042969 37.289062 40.867188 Z M 36.246094 45.316406 L 35.945312 30.519531 C 36.144531 30.394531 36.394531 30.320312 36.617188 30.320312 C 36.839844 30.320312 37.089844 30.394531 37.289062 30.519531 L 37.113281 39.097656 C 37.738281 38.578125 38.558594 38.253906 39.378906 38.253906 C 40.671875 38.253906 41.59375 39.449219 41.59375 40.789062 C 41.59375 42.78125 39.453125 43.699219 37.9375 44.996094 C 37.5625 45.316406 37.339844 45.941406 36.816406 45.941406 C 36.492188 45.941406 36.246094 45.664062 36.246094 45.316406 Z M 36.246094 45.316406 "/>
<path style=" stroke:none;fill-rule:nonzero;fill:rgb(0%,0%,0%);fill-opacity:1;" d="M 16.152344 51.460938 L 16.003906 51.460938 C 13.316406 51.460938 11.152344 49.273438 11.152344 46.5625 C 11.152344 45.117188 12.46875 44 13.9375 44 C 15.28125 44 16.300781 45.167969 16.300781 46.5625 C 16.300781 47.855469 15.230469 48.925781 13.9375 48.925781 C 13.664062 48.925781 13.414062 48.875 13.167969 48.773438 C 13.8125 49.746094 14.859375 50.390625 16.078125 50.390625 L 16.175781 50.390625 Z M 21 40.714844 C 22.691406 40.121094 23.8125 38.351562 23.8125 36.636719 C 23.8125 34.398438 22.171875 32.183594 19.507812 31.910156 C 20.105469 34.796875 20.652344 37.65625 21 40.714844 Z M 11.375 34.96875 C 11.375 38.328125 14.585938 41.113281 17.941406 41.113281 C 18.640625 41.113281 19.308594 41.066406 19.980469 40.964844 C 19.632812 37.804688 19.0625 34.871094 18.414062 31.910156 C 16.449219 32.109375 15.332031 33.429688 15.332031 34.871094 C 15.332031 35.964844 15.953125 37.132812 17.34375 37.929688 C 17.46875 38.054688 17.519531 38.179688 17.519531 38.304688 C 17.519531 38.578125 17.269531 38.851562 16.972656 38.851562 C 16.898438 38.851562 16.824219 38.824219 16.75 38.800781 C 14.757812 37.730469 13.839844 35.941406 13.839844 34.199219 C 13.839844 32.011719 15.28125 29.871094 17.816406 29.300781 C 17.46875 27.855469 17.097656 26.390625 16.675781 24.945312 C 14.011719 27.957031 11.375 30.992188 11.375 34.96875 Z M 17.867188 42.183594 C 13.191406 42.183594 9.585938 37.90625 9.585938 32.882812 C 9.585938 28.480469 12.84375 25.269531 15.753906 21.914062 C 15.28125 20.371094 14.832031 18.804688 14.632812 17.1875 C 14.484375 15.894531 14.460938 14.601562 14.460938 13.308594 C 14.460938 10.445312 15.828125 7.734375 18.167969 6.042969 C 18.316406 5.917969 18.515625 5.917969 18.664062 6.042969 C 20.429688 8.132812 21.972656 12.136719 21.972656 14.949219 C 21.972656 18.503906 19.832031 21.289062 17.496094 24 C 18.015625 25.691406 18.464844 27.433594 18.886719 29.152344 C 18.988281 29.152344 19.113281 29.125 19.210938 29.125 C 23.066406 29.125 25.578125 32.308594 25.578125 35.617188 C 25.578125 37.507812 24.757812 39.449219 22.917969 40.839844 C 22.371094 41.261719 21.746094 41.535156 21.101562 41.734375 C 21.175781 42.605469 21.226562 43.476562 21.226562 44.347656 C 21.226562 44.820312 21.199219 45.316406 21.175781 45.789062 C 21 48.75 18.988281 51.386719 16.152344 51.460938 L 16.175781 50.390625 C 18.488281 50.34375 19.980469 48.101562 20.132812 45.640625 C 20.15625 45.191406 20.179688 44.722656 20.179688 44.273438 C 20.179688 43.503906 20.15625 42.753906 20.082031 41.984375 C 19.359375 42.109375 18.640625 42.183594 17.867188 42.183594 Z M 20.179688 12.882812 C 20.179688 11.515625 20.082031 10.917969 19.683594 9.675781 C 17.222656 10.871094 15.652344 13.382812 15.652344 16.117188 C 15.652344 17.957031 16.101562 19.425781 16.550781 20.941406 C 18.539062 18.53125 20.179688 16.019531 20.179688 12.882812 Z M 20.179688 12.882812 "/>
<path style=" stroke:none;fill-rule:nonzero;fill:rgb(0%,0%,0%);fill-opacity:1;" d="M 49.191406 19.847656 C 50.558594 19.847656 51.875 20.542969 51.875 22.0625 C 51.875 23.828125 50.507812 25.070312 49.339844 25.769531 C 48.46875 26.289062 47.472656 26.613281 46.453125 26.613281 C 45.085938 26.613281 43.769531 25.917969 43.769531 24.398438 C 43.769531 22.632812 45.136719 21.390625 46.304688 20.695312 C 47.175781 20.171875 48.171875 19.847656 49.191406 19.847656 Z M 49.191406 19.847656 "/>
<path style=" stroke:none;fill-rule:nonzero;fill:rgb(0%,0%,0%);fill-opacity:1;" d="M 49.191406 26.066406 C 50.558594 26.066406 51.875 26.761719 51.875 28.28125 C 51.875 30.046875 50.507812 31.289062 49.339844 31.984375 C 48.46875 32.507812 47.472656 32.832031 46.453125 32.832031 C 45.085938 32.832031 43.769531 32.136719 43.769531 30.617188 C 43.769531 28.851562 45.136719 27.609375 46.304688 26.910156 C 47.175781 26.390625 48.171875 26.066406 49.191406 26.066406 Z M 49.191406 26.066406 "/>
<path style=" stroke:none;fill-rule:nonzero;fill:rgb(0%,0%,0%);fill-opacity:1;" d="M 49.191406 32.285156 C 50.558594 32.285156 51.875 32.980469 51.875 34.5 C 51.875 36.265625 50.507812 37.507812 49.339844 38.203125 C 48.46875 38.726562 47.472656 39.050781 46.453125 39.050781 C 45.085938 39.050781 43.769531 38.351562 43.769531 36.835938 C 43.769531 35.070312 45.136719 33.828125 46.304688 33.128906 C 47.175781 32.609375 48.171875 32.285156 49.191406 32.285156 Z M 49.191406 32.285156 "/>
<path style=" stroke:none;fill-rule:nonzero;fill:rgb(0%,0%,0%);fill-opacity:1;" d="M 49.191406 38.503906 C 50.558594 38.503906 51.875 39.199219 51.875 40.714844 C 51.875 42.480469 50.507812 43.726562 49.339844 44.421875 C 48.46875 44.945312 47.472656 45.269531 46.453125 45.269531 C 45.085938 45.269531 43.769531 44.570312 43.769531 43.054688 C 43.769531 41.289062 45.136719 40.042969 46.304688 39.347656 C 47.175781 38.824219 48.171875 38.503906 49.191406 38.503906 Z M 49.191406 38.503906 "/>
</g>
</svg>
