<?xml version="1.0" encoding="UTF-8"?>
<svg xmlns="http://www.w3.org/2000/svg" xmlns:xlink="http://www.w3.org/1999/xlink" width="81.189345pt" height="61.666356pt" viewBox="0 0 81.189345 61.666356" version="1.1">
<g id="surface1">
<path style="fill:none;stroke-width:0.1;stroke-linecap:round;stroke-linejoin:round;stroke:rgb(0%,0%,0%);stroke-opacity:1;stroke-miterlimit:4;" d="M 0.049863 -0.000287501 L 10.667095 -0.000287501 " transform="matrix(6.218149,0,0,6.218149,4.561038,40.517413)"/>
<path style="fill:none;stroke-width:0.1;stroke-linecap:round;stroke-linejoin:round;stroke:rgb(0%,0%,0%);stroke-opacity:1;stroke-miterlimit:4;" d="M 0.049863 0.000244052 L 10.667095 0.000244052 " transform="matrix(6.218149,0,0,6.218149,4.561038,34.299264)"/>
<path style="fill:none;stroke-width:0.1;stroke-linecap:round;stroke-linejoin:round;stroke:rgb(0%,0%,0%);stroke-opacity:1;stroke-miterlimit:4;" d="M 0.049863 0.000147403 L 10.667095 0.000147403 " transform="matrix(6.218149,0,0,6.218149,4.561038,28.081115)"/>
<path style="fill:none;stroke-width:0.1;stroke-linecap:round;stroke-linejoin:round;stroke:rgb(0%,0%,0%);stroke-opacity:1;stroke-miterlimit:4;" d="M 0.049863 0.0000507548 L 10.667095 0.0000507548 " transform="matrix(6.218149,0,0,6.218149,4.561038,21.862966)"/>
<path style="fill:none;stroke-width:0.1;stroke-linecap:round;stroke-linejoin:round;stroke:rgb(0%,0%,0%);stroke-opacity:1;stroke-miterlimit:4;" d="M 0.049863 -0.0000458938 L 10.667095 -0.0000458938 " transform="matrix(6.218149,0,0,6.218149,4.561038,15.644817)"/>
<path style=" stroke:none;fill-rule:nonzero;fill:rgb(0%,0%,0%);fill-opacity:1;" d="M 60.082031 9.425781 L 60.394531 9.425781 C 60.53125 9.425781 60.640625 9.539062 60.640625 9.675781 L 60.640625 42.21875 C 60.640625 42.359375 60.53125 42.46875 60.394531 42.46875 L 60.082031 42.46875 C 59.945312 42.46875 59.832031 42.359375 59.832031 42.21875 L 59.832031 9.675781 C 59.832031 9.539062 59.945312 9.425781 60.082031 9.425781 Z M 60.082031 9.425781 "/>
<path style=" stroke:none;fill-rule:nonzero;fill:rgb(0%,0%,0%);fill-opacity:1;" d="M 47.621094 31.191406 C 48.195312 31.761719 49.015625 31.886719 49.835938 31.886719 C 49.984375 31.886719 50.085938 31.984375 50.085938 32.136719 L 50.308594 34.300781 C 50.332031 34.449219 50.207031 34.574219 50.058594 34.546875 L 47.894531 34.324219 C 47.769531 34.300781 47.648438 34.199219 47.648438 34.074219 C 47.648438 33.253906 47.523438 32.433594 46.949219 31.863281 C 46.378906 32.433594 46.277344 33.253906 46.277344 34.074219 C 46.277344 34.199219 46.152344 34.300781 46.03125 34.324219 L 43.839844 34.546875 C 43.691406 34.574219 43.566406 34.449219 43.59375 34.300781 L 43.816406 32.136719 C 43.816406 31.984375 43.914062 31.886719 44.066406 31.886719 C 44.886719 31.886719 45.707031 31.761719 46.277344 31.191406 C 45.707031 30.617188 44.886719 30.492188 44.066406 30.492188 C 43.914062 30.492188 43.816406 30.394531 43.816406 30.246094 L 43.59375 28.082031 C 43.566406 27.933594 43.691406 27.808594 43.839844 27.832031 L 46.03125 28.054688 C 46.152344 28.082031 46.253906 28.179688 46.253906 28.304688 C 46.253906 29.125 46.378906 29.945312 46.949219 30.519531 C 47.523438 29.945312 47.648438 29.125 47.648438 28.304688 C 47.648438 28.179688 47.769531 28.082031 47.894531 28.054688 L 50.058594 27.832031 C 50.207031 27.808594 50.332031 27.933594 50.308594 28.082031 L 50.085938 30.246094 C 50.085938 30.394531 49.984375 30.492188 49.835938 30.492188 C 49.015625 30.492188 48.195312 30.617188 47.621094 31.191406 Z M 47.621094 31.191406 "/>
<path style=" stroke:none;fill-rule:nonzero;fill:rgb(0%,0%,0%);fill-opacity:1;" d="M 32.996094 37.410156 C 33.570312 37.980469 34.390625 38.105469 35.210938 38.105469 C 35.359375 38.105469 35.460938 38.203125 35.460938 38.351562 L 35.683594 40.515625 C 35.707031 40.667969 35.582031 40.789062 35.433594 40.765625 L 33.269531 40.542969 C 33.144531 40.515625 33.023438 40.417969 33.023438 40.292969 C 33.023438 39.472656 32.898438 38.652344 32.324219 38.078125 C 31.753906 38.652344 31.652344 39.472656 31.652344 40.292969 C 31.652344 40.417969 31.527344 40.515625 31.40625 40.542969 L 29.214844 40.765625 C 29.066406 40.789062 28.941406 40.667969 28.96875 40.515625 L 29.191406 38.351562 C 29.191406 38.203125 29.289062 38.105469 29.441406 38.105469 C 30.261719 38.105469 31.082031 37.980469 31.652344 37.410156 C 31.082031 36.835938 30.261719 36.710938 29.441406 36.710938 C 29.289062 36.710938 29.191406 36.613281 29.191406 36.464844 L 28.96875 34.300781 C 28.941406 34.148438 29.066406 34.027344 29.214844 34.050781 L 31.40625 34.273438 C 31.527344 34.300781 31.628906 34.398438 31.628906 34.523438 C 31.628906 35.34375 31.753906 36.164062 32.324219 36.738281 C 32.898438 36.164062 33.023438 35.34375 33.023438 34.523438 C 33.023438 34.398438 33.144531 34.300781 33.269531 34.273438 L 35.433594 34.050781 C 35.582031 34.027344 35.707031 34.148438 35.683594 34.300781 L 35.460938 36.464844 C 35.460938 36.613281 35.359375 36.710938 35.210938 36.710938 C 34.390625 36.710938 33.570312 36.835938 32.996094 37.410156 Z M 32.996094 37.410156 "/>
<path style=" stroke:none;fill-rule:nonzero;fill:rgb(0%,0%,0%);fill-opacity:1;" d="M 42.347656 51.386719 C 42.347656 51.636719 42.148438 51.859375 41.898438 51.859375 C 41.652344 51.859375 41.425781 51.636719 41.425781 51.386719 L 41.425781 47.78125 L 39.363281 48.550781 L 39.363281 52.480469 C 39.363281 52.730469 39.136719 52.953125 38.890625 52.953125 C 38.640625 52.953125 38.441406 52.730469 38.441406 52.480469 L 38.441406 48.875 L 37.644531 49.171875 C 37.597656 49.199219 37.523438 49.199219 37.472656 49.199219 C 37.199219 49.199219 36.972656 48.972656 36.972656 48.699219 L 36.972656 47.207031 C 36.972656 47.007812 37.097656 46.808594 37.296875 46.734375 L 38.441406 46.335938 L 38.441406 42.359375 L 37.644531 42.632812 C 37.597656 42.65625 37.523438 42.65625 37.472656 42.65625 C 37.199219 42.65625 36.972656 42.433594 36.972656 42.160156 L 36.972656 40.667969 C 36.972656 40.46875 37.097656 40.292969 37.296875 40.21875 L 38.441406 39.796875 L 38.441406 35.867188 C 38.441406 35.617188 38.640625 35.394531 38.890625 35.394531 C 39.136719 35.394531 39.363281 35.617188 39.363281 35.867188 L 39.363281 39.472656 L 41.425781 38.703125 L 41.425781 34.773438 C 41.425781 34.523438 41.652344 34.300781 41.898438 34.300781 C 42.148438 34.300781 42.347656 34.523438 42.347656 34.773438 L 42.347656 38.378906 L 43.144531 38.078125 C 43.191406 38.054688 43.265625 38.054688 43.316406 38.054688 C 43.589844 38.054688 43.8125 38.277344 43.8125 38.550781 L 43.8125 40.042969 C 43.8125 40.242188 43.691406 40.441406 43.492188 40.515625 L 42.347656 40.914062 L 42.347656 44.894531 L 43.144531 44.621094 C 43.191406 44.597656 43.265625 44.597656 43.316406 44.597656 C 43.589844 44.597656 43.8125 44.820312 43.8125 45.09375 L 43.8125 46.585938 C 43.8125 46.785156 43.691406 46.960938 43.492188 47.035156 L 42.347656 47.457031 Z M 39.363281 42.011719 L 39.363281 45.988281 L 41.425781 45.242188 L 41.425781 41.261719 Z M 39.363281 42.011719 "/>
<path style=" stroke:none;fill-rule:nonzero;fill:rgb(0%,0%,0%);fill-opacity:1;" d="M 16.152344 50.09375 L 16.003906 50.09375 C 13.316406 50.09375 11.152344 47.90625 11.152344 45.195312 C 11.152344 43.75 12.46875 42.632812 13.9375 42.632812 C 15.28125 42.632812 16.300781 43.800781 16.300781 45.195312 C 16.300781 46.488281 15.230469 47.554688 13.9375 47.554688 C 13.664062 47.554688 13.414062 47.507812 13.167969 47.40625 C 13.8125 48.378906 14.859375 49.023438 16.078125 49.023438 L 16.175781 49.023438 Z M 21 39.347656 C 22.691406 38.75 23.8125 36.984375 23.8125 35.269531 C 23.8125 33.03125 22.171875 30.816406 19.507812 30.542969 C 20.105469 33.429688 20.652344 36.289062 21 39.347656 Z M 11.375 33.601562 C 11.375 36.960938 14.585938 39.746094 17.941406 39.746094 C 18.640625 39.746094 19.308594 39.695312 19.980469 39.597656 C 19.632812 36.4375 19.0625 33.503906 18.414062 30.542969 C 16.449219 30.742188 15.332031 32.0625 15.332031 33.503906 C 15.332031 34.597656 15.953125 35.765625 17.34375 36.5625 C 17.46875 36.6875 17.519531 36.8125 17.519531 36.9375 C 17.519531 37.210938 17.269531 37.484375 16.972656 37.484375 C 16.898438 37.484375 16.824219 37.457031 16.75 37.433594 C 14.757812 36.363281 13.839844 34.574219 13.839844 32.832031 C 13.839844 30.644531 15.28125 28.503906 17.816406 27.933594 C 17.46875 26.488281 17.097656 25.023438 16.675781 23.578125 C 14.011719 26.589844 11.375 29.625 11.375 33.601562 Z M 17.867188 40.816406 C 13.191406 40.816406 9.585938 36.539062 9.585938 31.511719 C 9.585938 27.109375 12.84375 23.902344 15.753906 20.542969 C 15.28125 19.003906 14.832031 17.4375 14.632812 15.820312 C 14.484375 14.527344 14.460938 13.230469 14.460938 11.9375 C 14.460938 9.078125 15.828125 6.367188 18.167969 4.675781 C 18.316406 4.550781 18.515625 4.550781 18.664062 4.675781 C 20.429688 6.765625 21.972656 10.769531 21.972656 13.582031 C 21.972656 17.136719 19.832031 19.921875 17.496094 22.632812 C 18.015625 24.324219 18.464844 26.066406 18.886719 27.78125 C 18.988281 27.78125 19.113281 27.757812 19.210938 27.757812 C 23.066406 27.757812 25.578125 30.941406 25.578125 34.25 C 25.578125 36.140625 24.757812 38.078125 22.917969 39.472656 C 22.371094 39.894531 21.746094 40.167969 21.101562 40.367188 C 21.175781 41.238281 21.226562 42.109375 21.226562 42.980469 C 21.226562 43.453125 21.199219 43.949219 21.175781 44.421875 C 21 47.382812 18.988281 50.019531 16.152344 50.09375 L 16.175781 49.023438 C 18.488281 48.972656 19.980469 46.734375 20.132812 44.273438 C 20.15625 43.824219 20.179688 43.351562 20.179688 42.90625 C 20.179688 42.132812 20.15625 41.386719 20.082031 40.617188 C 19.359375 40.742188 18.640625 40.816406 17.867188 40.816406 Z M 20.179688 11.515625 C 20.179688 10.148438 20.082031 9.550781 19.683594 8.308594 C 17.222656 9.5 15.652344 12.011719 15.652344 14.75 C 15.652344 16.589844 16.101562 18.058594 16.550781 19.574219 C 18.539062 17.160156 20.179688 14.648438 20.179688 11.515625 Z M 20.179688 11.515625 "/>
<path style=" stroke:none;fill-rule:nonzero;fill:rgb(0%,0%,0%);fill-opacity:1;" d="M 57.953125 27.808594 C 59.324219 27.808594 60.640625 28.503906 60.640625 30.019531 C 60.640625 31.789062 59.273438 33.03125 58.105469 33.726562 C 57.234375 34.25 56.238281 34.574219 55.21875 34.574219 C 53.851562 34.574219 52.53125 33.875 52.53125 32.359375 C 52.53125 30.59375 53.898438 29.351562 55.070312 28.652344 C 55.941406 28.132812 56.933594 27.808594 57.953125 27.808594 Z M 57.953125 27.808594 "/>
<path style=" stroke:none;fill-rule:nonzero;fill:rgb(0%,0%,0%);fill-opacity:1;" d="M 57.953125 34.027344 C 59.324219 34.027344 60.640625 34.722656 60.640625 36.238281 C 60.640625 38.003906 59.273438 39.25 58.105469 39.945312 C 57.234375 40.46875 56.238281 40.789062 55.21875 40.789062 C 53.851562 40.789062 52.53125 40.09375 52.53125 38.578125 C 52.53125 36.8125 53.898438 35.566406 55.070312 34.871094 C 55.941406 34.347656 56.933594 34.027344 57.953125 34.027344 Z M 57.953125 34.027344 "/>
<path style=" stroke:none;fill-rule:nonzero;fill:rgb(0%,0%,0%);fill-opacity:1;" d="M 57.953125 40.242188 C 59.324219 40.242188 60.640625 40.941406 60.640625 42.457031 C 60.640625 44.222656 59.273438 45.46875 58.105469 46.164062 C 57.234375 46.6875 56.238281 47.007812 55.21875 47.007812 C 53.851562 47.007812 52.53125 46.3125 52.53125 44.796875 C 52.53125 43.03125 53.898438 41.785156 55.070312 41.089844 C 55.941406 40.566406 56.933594 40.242188 57.953125 40.242188 Z M 57.953125 40.242188 "/>
</g>
</svg>
