<?xml version="1.0" encoding="UTF-8"?>
<svg xmlns="http://www.w3.org/2000/svg" xmlns:xlink="http://www.w3.org/1999/xlink" width="68.472344pt" height="58.61114pt" viewBox="0 0 68.472344 58.61114" version="1.1">
<g id="surface1">
<path style="fill:none;stroke-width:0.1;stroke-linecap:round;stroke-linejoin:round;stroke:rgb(0%,0%,0%);stroke-opacity:1;stroke-miterlimit:4;" d="M 0.049863 -0.000287501 L 8.752337 -0.000287501 " transform="matrix(6.218149,0,0,6.218149,4.561038,40.517413)"/>
<path style="fill:none;stroke-width:0.1;stroke-linecap:round;stroke-linejoin:round;stroke:rgb(0%,0%,0%);stroke-opacity:1;stroke-miterlimit:4;" d="M 0.049863 0.000244052 L 8.752337 0.000244052 " transform="matrix(6.218149,0,0,6.218149,4.561038,34.299264)"/>
<path style="fill:none;stroke-width:0.1;stroke-linecap:round;stroke-linejoin:round;stroke:rgb(0%,0%,0%);stroke-opacity:1;stroke-miterlimit:4;" d="M 0.049863 0.000147403 L 8.752337 0.000147403 " transform="matrix(6.218149,0,0,6.218149,4.561038,28.081115)"/>
<path style="fill:none;stroke-width:0.1;stroke-linecap:round;stroke-linejoin:round;stroke:rgb(0%,0%,0%);stroke-opacity:1;stroke-miterlimit:4;" d="M 0.049863 0.0000507548 L 8.752337 0.0000507548 " transform="matrix(6.218149,0,0,6.218149,4.561038,21.862966)"/>
<path style="fill:none;stroke-width:0.1;stroke-linecap:round;stroke-linejoin:round;stroke:rgb(0%,0%,0%);stroke-opacity:1;stroke-miterlimit:4;" d="M 0.049863 -0.0000458938 L 8.752337 -0.0000458938 " transform="matrix(6.218149,0,0,6.218149,4.561038,15.644817)"/>
<path style=" stroke:none;fill-rule:nonzero;fill:rgb(0%,0%,0%);fill-opacity:1;" d="M 40.875 29.238281 L 41.1875 29.238281 C 41.324219 29.238281 41.433594 29.351562 41.433594 29.488281 L 41.433594 48.558594 C 41.433594 48.695312 41.324219 48.808594 41.1875 48.808594 L 40.875 48.808594 C 40.738281 48.808594 40.625 48.695312 40.625 48.558594 L 40.625 29.488281 C 40.625 29.351562 40.738281 29.238281 40.875 29.238281 Z M 40.875 29.238281 "/>
<path style=" stroke:none;fill-rule:nonzero;fill:rgb(0%,0%,0%);fill-opacity:1;" d="M 36.984375 35.839844 C 36.984375 36.089844 36.785156 36.3125 36.535156 36.3125 C 36.285156 36.3125 36.0625 36.089844 36.0625 35.839844 L 36.0625 32.234375 L 33.996094 33.007812 L 33.996094 36.9375 C 33.996094 37.183594 33.773438 37.410156 33.523438 37.410156 C 33.277344 37.410156 33.078125 37.183594 33.078125 36.9375 L 33.078125 33.328125 L 32.28125 33.628906 C 32.230469 33.652344 32.15625 33.652344 32.109375 33.652344 C 31.832031 33.652344 31.609375 33.429688 31.609375 33.15625 L 31.609375 31.664062 C 31.609375 31.464844 31.734375 31.265625 31.933594 31.191406 L 33.078125 30.792969 L 33.078125 26.8125 L 32.28125 27.085938 C 32.230469 27.109375 32.15625 27.109375 32.109375 27.109375 C 31.832031 27.109375 31.609375 26.886719 31.609375 26.613281 L 31.609375 25.121094 C 31.609375 24.921875 31.734375 24.75 31.933594 24.671875 L 33.078125 24.25 L 33.078125 20.320312 C 33.078125 20.070312 33.277344 19.847656 33.523438 19.847656 C 33.773438 19.847656 33.996094 20.070312 33.996094 20.320312 L 33.996094 23.925781 L 36.0625 23.15625 L 36.0625 19.226562 C 36.0625 18.976562 36.285156 18.753906 36.535156 18.753906 C 36.785156 18.753906 36.984375 18.976562 36.984375 19.226562 L 36.984375 22.832031 L 37.777344 22.535156 C 37.828125 22.507812 37.902344 22.507812 37.953125 22.507812 C 38.226562 22.507812 38.449219 22.734375 38.449219 23.007812 L 38.449219 24.5 C 38.449219 24.699219 38.324219 24.898438 38.125 24.972656 L 36.984375 25.371094 L 36.984375 29.351562 L 37.777344 29.074219 C 37.828125 29.050781 37.902344 29.050781 37.953125 29.050781 C 38.226562 29.050781 38.449219 29.273438 38.449219 29.546875 L 38.449219 31.039062 C 38.449219 31.238281 38.324219 31.414062 38.125 31.488281 L 36.984375 31.910156 Z M 33.996094 26.464844 L 33.996094 30.445312 L 36.0625 29.699219 L 36.0625 25.71875 Z M 33.996094 26.464844 "/>
<path style=" stroke:none;fill-rule:nonzero;fill:rgb(0%,0%,0%);fill-opacity:1;" d="M 16.152344 50.09375 L 16.003906 50.09375 C 13.316406 50.09375 11.152344 47.90625 11.152344 45.195312 C 11.152344 43.75 12.46875 42.632812 13.9375 42.632812 C 15.28125 42.632812 16.300781 43.800781 16.300781 45.195312 C 16.300781 46.488281 15.230469 47.554688 13.9375 47.554688 C 13.664062 47.554688 13.414062 47.507812 13.167969 47.40625 C 13.8125 48.378906 14.859375 49.023438 16.078125 49.023438 L 16.175781 49.023438 Z M 21 39.347656 C 22.691406 38.75 23.8125 36.984375 23.8125 35.269531 C 23.8125 33.03125 22.171875 30.816406 19.507812 30.542969 C 20.105469 33.429688 20.652344 36.289062 21 39.347656 Z M 11.375 33.601562 C 11.375 36.960938 14.585938 39.746094 17.941406 39.746094 C 18.640625 39.746094 19.308594 39.695312 19.980469 39.597656 C 19.632812 36.4375 19.0625 33.503906 18.414062 30.542969 C 16.449219 30.742188 15.332031 32.0625 15.332031 33.503906 C 15.332031 34.597656 15.953125 35.765625 17.34375 36.5625 C 17.46875 36.6875 17.519531 36.8125 17.519531 36.9375 C 17.519531 37.210938 17.269531 37.484375 16.972656 37.484375 C 16.898438 37.484375 16.824219 37.457031 16.75 37.433594 C 14.757812 36.363281 13.839844 34.574219 13.839844 32.832031 C 13.839844 30.644531 15.28125 28.503906 17.816406 27.933594 C 17.46875 26.488281 17.097656 25.023438 16.675781 23.578125 C 14.011719 26.589844 11.375 29.625 11.375 33.601562 Z M 17.867188 40.816406 C 13.191406 40.816406 9.585938 36.539062 9.585938 31.511719 C 9.585938 27.109375 12.84375 23.902344 15.753906 20.542969 C 15.28125 19.003906 14.832031 17.4375 14.632812 15.820312 C 14.484375 14.527344 14.460938 13.230469 14.460938 11.9375 C 14.460938 9.078125 15.828125 6.367188 18.167969 4.675781 C 18.316406 4.550781 18.515625 4.550781 18.664062 4.675781 C 20.429688 6.765625 21.972656 10.769531 21.972656 13.582031 C 21.972656 17.136719 19.832031 19.921875 17.496094 22.632812 C 18.015625 24.324219 18.464844 26.066406 18.886719 27.78125 C 18.988281 27.78125 19.113281 27.757812 19.210938 27.757812 C 23.066406 27.757812 25.578125 30.941406 25.578125 34.25 C 25.578125 36.140625 24.757812 38.078125 22.917969 39.472656 C 22.371094 39.894531 21.746094 40.167969 21.101562 40.367188 C 21.175781 41.238281 21.226562 42.109375 21.226562 42.980469 C 21.226562 43.453125 21.199219 43.949219 21.175781 44.421875 C 21 47.382812 18.988281 50.019531 16.152344 50.09375 L 16.175781 49.023438 C 18.488281 48.972656 19.980469 46.734375 20.132812 44.273438 C 20.15625 43.824219 20.179688 43.351562 20.179688 42.90625 C 20.179688 42.132812 20.15625 41.386719 20.082031 40.617188 C 19.359375 40.742188 18.640625 40.816406 17.867188 40.816406 Z M 20.179688 11.515625 C 20.179688 10.148438 20.082031 9.550781 19.683594 8.308594 C 17.222656 9.5 15.652344 12.011719 15.652344 14.75 C 15.652344 16.589844 16.101562 18.058594 16.550781 19.574219 C 18.539062 17.160156 20.179688 14.648438 20.179688 11.515625 Z M 20.179688 11.515625 "/>
<path style=" stroke:none;fill-rule:nonzero;fill:rgb(0%,0%,0%);fill-opacity:1;" d="M 46.046875 24.699219 C 47.417969 24.699219 48.734375 25.394531 48.734375 26.910156 C 48.734375 28.679688 47.367188 29.921875 46.199219 30.617188 C 45.328125 31.140625 44.332031 31.464844 43.3125 31.464844 C 41.945312 31.464844 40.625 30.765625 40.625 29.25 C 40.625 27.484375 41.996094 26.242188 43.164062 25.542969 C 44.035156 25.023438 45.027344 24.699219 46.046875 24.699219 Z M 46.046875 24.699219 "/>
</g>
</svg>
