<?xml version="1.0" encoding="UTF-8"?>
<svg xmlns="http://www.w3.org/2000/svg" xmlns:xlink="http://www.w3.org/1999/xlink" width="82.402133pt" height="54.278711pt" viewBox="0 0 82.402133 54.278711" version="1.1">
<g id="surface1">
<path style="fill:none;stroke-width:0.1;stroke-linecap:round;stroke-linejoin:round;stroke:rgb(0%,0%,0%);stroke-opacity:1;stroke-miterlimit:4;" d="M 0.049863 -0.0000416676 L 10.849902 -0.0000416676 " transform="matrix(6.218149,0,0,6.218149,4.561038,39.812759)"/>
<path style="fill:none;stroke-width:0.1;stroke-linecap:round;stroke-linejoin:round;stroke:rgb(0%,0%,0%);stroke-opacity:1;stroke-miterlimit:4;" d="M 0.049863 -0.000138316 L 10.849902 -0.000138316 " transform="matrix(6.218149,0,0,6.218149,4.561038,33.59461)"/>
<path style="fill:none;stroke-width:0.1;stroke-linecap:round;stroke-linejoin:round;stroke:rgb(0%,0%,0%);stroke-opacity:1;stroke-miterlimit:4;" d="M 0.049863 -0.000234965 L 10.849902 -0.000234965 " transform="matrix(6.218149,0,0,6.218149,4.561038,27.376461)"/>
<path style="fill:none;stroke-width:0.1;stroke-linecap:round;stroke-linejoin:round;stroke:rgb(0%,0%,0%);stroke-opacity:1;stroke-miterlimit:4;" d="M 0.049863 0.000296588 L 10.849902 0.000296588 " transform="matrix(6.218149,0,0,6.218149,4.561038,21.158312)"/>
<path style="fill:none;stroke-width:0.1;stroke-linecap:round;stroke-linejoin:round;stroke:rgb(0%,0%,0%);stroke-opacity:1;stroke-miterlimit:4;" d="M 0.049863 0.000199939 L 10.849902 0.000199939 " transform="matrix(6.218149,0,0,6.218149,4.561038,14.940163)"/>
<path style=" stroke:none;fill-rule:nonzero;fill:rgb(0%,0%,0%);fill-opacity:1;" d="M 61.21875 4.578125 L 61.527344 4.578125 C 61.667969 4.578125 61.777344 4.6875 61.777344 4.824219 L 61.777344 35.296875 C 61.777344 35.433594 61.667969 35.546875 61.527344 35.546875 L 61.21875 35.546875 C 61.082031 35.546875 60.96875 35.433594 60.96875 35.296875 L 60.96875 4.824219 C 60.96875 4.6875 61.082031 4.578125 61.21875 4.578125 Z M 61.21875 4.578125 "/>
<path style=" stroke:none;fill-rule:nonzero;fill:rgb(0%,0%,0%);fill-opacity:1;" d="M 50.023438 32.027344 C 50.023438 32.277344 49.824219 32.5 49.578125 32.5 C 49.328125 32.5 49.105469 32.277344 49.105469 32.027344 L 49.105469 28.421875 L 47.039062 29.191406 L 47.039062 33.121094 C 47.039062 33.371094 46.816406 33.59375 46.566406 33.59375 C 46.320312 33.59375 46.121094 33.371094 46.121094 33.121094 L 46.121094 29.515625 L 45.324219 29.8125 C 45.273438 29.839844 45.199219 29.839844 45.148438 29.839844 C 44.875 29.839844 44.652344 29.613281 44.652344 29.339844 L 44.652344 27.847656 C 44.652344 27.648438 44.777344 27.449219 44.976562 27.375 L 46.121094 26.976562 L 46.121094 23 L 45.324219 23.273438 C 45.273438 23.296875 45.199219 23.296875 45.148438 23.296875 C 44.875 23.296875 44.652344 23.074219 44.652344 22.800781 L 44.652344 21.308594 C 44.652344 21.109375 44.777344 20.933594 44.976562 20.859375 L 46.121094 20.4375 L 46.121094 16.507812 C 46.121094 16.257812 46.320312 16.035156 46.566406 16.035156 C 46.816406 16.035156 47.039062 16.257812 47.039062 16.507812 L 47.039062 20.113281 L 49.105469 19.34375 L 49.105469 15.414062 C 49.105469 15.164062 49.328125 14.941406 49.578125 14.941406 C 49.824219 14.941406 50.023438 15.164062 50.023438 15.414062 L 50.023438 19.019531 L 50.820312 18.722656 C 50.871094 18.695312 50.945312 18.695312 50.996094 18.695312 C 51.269531 18.695312 51.492188 18.917969 51.492188 19.195312 L 51.492188 20.6875 C 51.492188 20.882812 51.367188 21.082031 51.167969 21.160156 L 50.023438 21.554688 L 50.023438 25.535156 L 50.820312 25.261719 C 50.871094 25.238281 50.945312 25.238281 50.996094 25.238281 C 51.269531 25.238281 51.492188 25.460938 51.492188 25.734375 L 51.492188 27.226562 C 51.492188 27.425781 51.367188 27.601562 51.167969 27.675781 L 50.023438 28.097656 Z M 47.039062 22.652344 L 47.039062 26.628906 L 49.105469 25.882812 L 49.105469 21.90625 Z M 47.039062 22.652344 "/>
<path style=" stroke:none;fill-rule:nonzero;fill:rgb(0%,0%,0%);fill-opacity:1;" d="M 35.324219 38.246094 C 35.324219 38.496094 35.125 38.71875 34.878906 38.71875 C 34.628906 38.71875 34.40625 38.496094 34.40625 38.246094 L 34.40625 34.640625 L 32.339844 35.410156 L 32.339844 39.339844 C 32.339844 39.589844 32.117188 39.8125 31.867188 39.8125 C 31.617188 39.8125 31.417969 39.589844 31.417969 39.339844 L 31.417969 35.734375 L 30.625 36.03125 C 30.574219 36.058594 30.5 36.058594 30.449219 36.058594 C 30.175781 36.058594 29.953125 35.832031 29.953125 35.558594 L 29.953125 34.066406 C 29.953125 33.867188 30.078125 33.667969 30.277344 33.59375 L 31.417969 33.195312 L 31.417969 29.21875 L 30.625 29.492188 C 30.574219 29.515625 30.5 29.515625 30.449219 29.515625 C 30.175781 29.515625 29.953125 29.292969 29.953125 29.019531 L 29.953125 27.527344 C 29.953125 27.328125 30.078125 27.152344 30.277344 27.078125 L 31.417969 26.65625 L 31.417969 22.726562 C 31.417969 22.476562 31.617188 22.253906 31.867188 22.253906 C 32.117188 22.253906 32.339844 22.476562 32.339844 22.726562 L 32.339844 26.332031 L 34.40625 25.5625 L 34.40625 21.632812 C 34.40625 21.382812 34.628906 21.160156 34.878906 21.160156 C 35.125 21.160156 35.324219 21.382812 35.324219 21.632812 L 35.324219 25.238281 L 36.121094 24.9375 C 36.171875 24.914062 36.246094 24.914062 36.292969 24.914062 C 36.566406 24.914062 36.792969 25.136719 36.792969 25.410156 L 36.792969 26.902344 C 36.792969 27.101562 36.667969 27.300781 36.46875 27.375 L 35.324219 27.773438 L 35.324219 31.753906 L 36.121094 31.480469 C 36.171875 31.457031 36.246094 31.457031 36.292969 31.457031 C 36.566406 31.457031 36.792969 31.679688 36.792969 31.953125 L 36.792969 33.445312 C 36.792969 33.644531 36.667969 33.820312 36.46875 33.894531 L 35.324219 34.316406 Z M 32.339844 28.867188 L 32.339844 32.847656 L 34.40625 32.101562 L 34.40625 28.121094 Z M 32.339844 28.867188 "/>
<path style=" stroke:none;fill-rule:nonzero;fill:rgb(0%,0%,0%);fill-opacity:1;" d="M 43.410156 44.464844 C 43.410156 44.710938 43.210938 44.9375 42.960938 44.9375 C 42.710938 44.9375 42.488281 44.710938 42.488281 44.464844 L 42.488281 40.855469 L 40.421875 41.628906 L 40.421875 45.558594 C 40.421875 45.808594 40.199219 46.03125 39.949219 46.03125 C 39.703125 46.03125 39.503906 45.808594 39.503906 45.558594 L 39.503906 41.953125 L 38.707031 42.25 C 38.65625 42.273438 38.582031 42.273438 38.535156 42.273438 C 38.257812 42.273438 38.035156 42.050781 38.035156 41.777344 L 38.035156 40.285156 C 38.035156 40.085938 38.160156 39.886719 38.359375 39.8125 L 39.503906 39.414062 L 39.503906 35.433594 L 38.707031 35.707031 C 38.65625 35.734375 38.582031 35.734375 38.535156 35.734375 C 38.257812 35.734375 38.035156 35.511719 38.035156 35.234375 L 38.035156 33.742188 C 38.035156 33.542969 38.160156 33.371094 38.359375 33.296875 L 39.503906 32.875 L 39.503906 28.945312 C 39.503906 28.695312 39.703125 28.472656 39.949219 28.472656 C 40.199219 28.472656 40.421875 28.695312 40.421875 28.945312 L 40.421875 32.550781 L 42.488281 31.777344 L 42.488281 27.847656 C 42.488281 27.601562 42.710938 27.375 42.960938 27.375 C 43.210938 27.375 43.410156 27.601562 43.410156 27.847656 L 43.410156 31.457031 L 44.203125 31.15625 C 44.253906 31.132812 44.328125 31.132812 44.378906 31.132812 C 44.652344 31.132812 44.875 31.355469 44.875 31.628906 L 44.875 33.121094 C 44.875 33.320312 44.75 33.519531 44.550781 33.59375 L 43.410156 33.992188 L 43.410156 37.972656 L 44.203125 37.699219 C 44.253906 37.671875 44.328125 37.671875 44.378906 37.671875 C 44.652344 37.671875 44.875 37.898438 44.875 38.171875 L 44.875 39.664062 C 44.875 39.863281 44.75 40.035156 44.550781 40.109375 L 43.410156 40.535156 Z M 40.421875 35.085938 L 40.421875 39.066406 L 42.488281 38.320312 L 42.488281 34.339844 Z M 40.421875 35.085938 "/>
<path style=" stroke:none;fill-rule:nonzero;fill:rgb(0%,0%,0%);fill-opacity:1;" d="M 23.390625 24.265625 C 23.390625 23.570312 23.960938 23 24.65625 23 C 25.355469 23 25.925781 23.570312 25.925781 24.265625 C 25.925781 24.964844 25.355469 25.535156 24.65625 25.535156 C 23.960938 25.535156 23.390625 24.964844 23.390625 24.265625 Z M 23.390625 18.050781 C 23.390625 17.351562 23.960938 16.78125 24.65625 16.78125 C 25.355469 16.78125 25.925781 17.351562 25.925781 18.050781 C 25.925781 18.746094 25.355469 19.316406 24.65625 19.316406 C 23.960938 19.316406 23.390625 18.746094 23.390625 18.050781 Z M 15.304688 14.617188 C 19.585938 14.617188 22.59375 16.804688 22.59375 20.859375 C 22.59375 27.402344 16.050781 31.15625 9.757812 33.820312 C 9.683594 33.894531 9.609375 33.917969 9.535156 33.917969 C 9.363281 33.917969 9.210938 33.769531 9.210938 33.59375 C 9.210938 33.519531 9.238281 33.445312 9.3125 33.371094 C 14.335938 30.4375 19.558594 26.78125 19.558594 21.109375 C 19.558594 18.125 17.992188 15.261719 15.304688 15.261719 C 13.464844 15.261719 12.097656 16.605469 11.476562 18.398438 C 11.75 18.273438 12.023438 18.199219 12.320312 18.199219 C 13.6875 18.199219 14.808594 19.316406 14.808594 20.6875 C 14.808594 22.128906 13.714844 23.320312 12.320312 23.320312 C 10.828125 23.320312 9.535156 22.152344 9.535156 20.6875 C 9.535156 17.378906 12.074219 14.617188 15.304688 14.617188 Z M 15.304688 14.617188 "/>
<path style=" stroke:none;fill-rule:nonzero;fill:rgb(0%,0%,0%);fill-opacity:1;" d="M 59.089844 20.882812 C 60.457031 20.882812 61.777344 21.582031 61.777344 23.097656 C 61.777344 24.863281 60.410156 26.109375 59.238281 26.804688 C 58.371094 27.328125 57.375 27.648438 56.355469 27.648438 C 54.988281 27.648438 53.667969 26.953125 53.667969 25.4375 C 53.667969 23.671875 55.035156 22.425781 56.207031 21.730469 C 57.074219 21.207031 58.070312 20.882812 59.089844 20.882812 Z M 59.089844 20.882812 "/>
<path style=" stroke:none;fill-rule:nonzero;fill:rgb(0%,0%,0%);fill-opacity:1;" d="M 59.089844 27.101562 C 60.457031 27.101562 61.777344 27.800781 61.777344 29.316406 C 61.777344 31.082031 60.410156 32.324219 59.238281 33.023438 C 58.371094 33.542969 57.375 33.867188 56.355469 33.867188 C 54.988281 33.867188 53.667969 33.171875 53.667969 31.65625 C 53.667969 29.886719 55.035156 28.644531 56.207031 27.949219 C 57.074219 27.425781 58.070312 27.101562 59.089844 27.101562 Z M 59.089844 27.101562 "/>
<path style=" stroke:none;fill-rule:nonzero;fill:rgb(0%,0%,0%);fill-opacity:1;" d="M 59.089844 33.320312 C 60.457031 33.320312 61.777344 34.015625 61.777344 35.535156 C 61.777344 37.300781 60.410156 38.542969 59.238281 39.242188 C 58.371094 39.761719 57.375 40.085938 56.355469 40.085938 C 54.988281 40.085938 53.667969 39.390625 53.667969 37.871094 C 53.667969 36.105469 55.035156 34.863281 56.207031 34.167969 C 57.074219 33.644531 58.070312 33.320312 59.089844 33.320312 Z M 59.089844 33.320312 "/>
</g>
</svg>
