<?xml version="1.0" encoding="UTF-8"?>
<svg xmlns="http://www.w3.org/2000/svg" xmlns:xlink="http://www.w3.org/1999/xlink" width="75.798219pt" height="62.470011pt" viewBox="0 0 75.798219 62.470011" version="1.1">
<g id="surface1">
<path style="fill:none;stroke-width:0.1;stroke-linecap:round;stroke-linejoin:round;stroke:rgb(0%,0%,0%);stroke-opacity:1;stroke-miterlimit:4;" d="M 0.049863 0.000192316 L 9.855459 0.000192316 " transform="matrix(6.218149,0,0,6.218149,4.561038,44.123804)"/>
<path style="fill:none;stroke-width:0.1;stroke-linecap:round;stroke-linejoin:round;stroke:rgb(0%,0%,0%);stroke-opacity:1;stroke-miterlimit:4;" d="M 0.049863 0.0000956673 L 9.855459 0.0000956673 " transform="matrix(6.218149,0,0,6.218149,4.561038,37.905655)"/>
<path style="fill:none;stroke-width:0.1;stroke-linecap:round;stroke-linejoin:round;stroke:rgb(0%,0%,0%);stroke-opacity:1;stroke-miterlimit:4;" d="M 0.049863 -0.000000981293 L 9.855459 -0.000000981293 " transform="matrix(6.218149,0,0,6.218149,4.561038,31.687506)"/>
<path style="fill:none;stroke-width:0.1;stroke-linecap:round;stroke-linejoin:round;stroke:rgb(0%,0%,0%);stroke-opacity:1;stroke-miterlimit:4;" d="M 0.049863 -0.0000976299 L 9.855459 -0.0000976299 " transform="matrix(6.218149,0,0,6.218149,4.561038,25.469357)"/>
<path style="fill:none;stroke-width:0.1;stroke-linecap:round;stroke-linejoin:round;stroke:rgb(0%,0%,0%);stroke-opacity:1;stroke-miterlimit:4;" d="M 0.049863 -0.00019404 L 9.855459 -0.00019404 " transform="matrix(6.218149,0,0,6.218149,4.561038,19.251207)"/>
<path style=" stroke:none;fill-rule:nonzero;fill:rgb(0%,0%,0%);fill-opacity:1;" d="M 47.734375 17.300781 L 48.042969 17.300781 C 48.183594 17.300781 48.292969 17.410156 48.292969 17.546875 L 48.292969 50.09375 C 48.292969 50.230469 48.183594 50.34375 48.042969 50.34375 L 47.734375 50.34375 C 47.597656 50.34375 47.484375 50.230469 47.484375 50.09375 L 47.484375 17.546875 C 47.484375 17.410156 47.597656 17.300781 47.734375 17.300781 Z M 47.734375 17.300781 "/>
<path style=" stroke:none;fill-rule:nonzero;fill:rgb(0%,0%,0%);fill-opacity:1;" d="M 41.003906 15.121094 L 40.980469 16.765625 L 40.980469 17.039062 C 40.980469 17.585938 41.003906 18.132812 41.082031 18.679688 C 42.199219 17.734375 43.394531 16.6875 43.394531 15.222656 C 43.394531 14.402344 43.046875 13.554688 42.324219 13.554688 C 41.554688 13.554688 41.03125 14.300781 41.003906 15.121094 Z M 39.960938 19.574219 L 39.664062 4.773438 C 39.863281 4.652344 40.109375 4.578125 40.335938 4.578125 C 40.558594 4.578125 40.804688 4.652344 41.003906 4.773438 L 40.832031 13.355469 C 41.453125 12.835938 42.273438 12.511719 43.09375 12.511719 C 44.386719 12.511719 45.308594 13.703125 45.308594 15.046875 C 45.308594 17.039062 43.167969 17.957031 41.652344 19.25 C 41.277344 19.574219 41.054688 20.195312 40.53125 20.195312 C 40.210938 20.195312 39.960938 19.921875 39.960938 19.574219 Z M 39.960938 19.574219 "/>
<path style=" stroke:none;fill-rule:nonzero;fill:rgb(0%,0%,0%);fill-opacity:1;" d="M 30.632812 21.339844 L 30.609375 22.980469 L 30.609375 23.253906 C 30.609375 23.804688 30.632812 24.351562 30.707031 24.898438 C 31.828125 23.953125 33.023438 22.90625 33.023438 21.441406 C 33.023438 20.621094 32.671875 19.773438 31.953125 19.773438 C 31.179688 19.773438 30.660156 20.519531 30.632812 21.339844 Z M 29.589844 25.792969 L 29.289062 10.992188 C 29.488281 10.871094 29.738281 10.792969 29.960938 10.792969 C 30.1875 10.792969 30.433594 10.871094 30.632812 10.992188 L 30.460938 19.574219 C 31.082031 19.050781 31.902344 18.730469 32.722656 18.730469 C 34.015625 18.730469 34.9375 19.921875 34.9375 21.265625 C 34.9375 23.253906 32.796875 24.175781 31.28125 25.46875 C 30.90625 25.792969 30.683594 26.414062 30.160156 26.414062 C 29.835938 26.414062 29.589844 26.140625 29.589844 25.792969 Z M 29.589844 25.792969 "/>
<path style=" stroke:none;fill-rule:nonzero;fill:rgb(0%,0%,0%);fill-opacity:1;" d="M 37.523438 27.558594 L 37.5 29.199219 L 37.5 29.472656 C 37.5 30.019531 37.523438 30.566406 37.597656 31.117188 C 38.71875 30.171875 39.910156 29.125 39.910156 27.65625 C 39.910156 26.835938 39.5625 25.992188 38.839844 25.992188 C 38.070312 25.992188 37.546875 26.738281 37.523438 27.558594 Z M 36.480469 32.011719 L 36.179688 17.210938 C 36.378906 17.085938 36.628906 17.011719 36.851562 17.011719 C 37.074219 17.011719 37.324219 17.085938 37.523438 17.210938 L 37.347656 25.792969 C 37.972656 25.269531 38.792969 24.945312 39.613281 24.945312 C 40.90625 24.945312 41.828125 26.140625 41.828125 27.484375 C 41.828125 29.472656 39.6875 30.394531 38.171875 31.6875 C 37.796875 32.011719 37.574219 32.632812 37.050781 32.632812 C 36.726562 32.632812 36.480469 32.359375 36.480469 32.011719 Z M 36.480469 32.011719 "/>
<path style=" stroke:none;fill-rule:nonzero;fill:rgb(0%,0%,0%);fill-opacity:1;" d="M 16.152344 53.699219 L 16.003906 53.699219 C 13.316406 53.699219 11.152344 51.511719 11.152344 48.800781 C 11.152344 47.355469 12.46875 46.238281 13.9375 46.238281 C 15.28125 46.238281 16.300781 47.40625 16.300781 48.800781 C 16.300781 50.09375 15.230469 51.164062 13.9375 51.164062 C 13.664062 51.164062 13.414062 51.113281 13.167969 51.011719 C 13.8125 51.984375 14.859375 52.628906 16.078125 52.628906 L 16.175781 52.628906 Z M 21 42.953125 C 22.691406 42.359375 23.8125 40.59375 23.8125 38.875 C 23.8125 36.636719 22.171875 34.421875 19.507812 34.148438 C 20.105469 37.035156 20.652344 39.894531 21 42.953125 Z M 11.375 37.210938 C 11.375 40.566406 14.585938 43.351562 17.941406 43.351562 C 18.640625 43.351562 19.308594 43.304688 19.980469 43.203125 C 19.632812 40.042969 19.0625 37.109375 18.414062 34.148438 C 16.449219 34.347656 15.332031 35.667969 15.332031 37.109375 C 15.332031 38.203125 15.953125 39.375 17.34375 40.167969 C 17.46875 40.292969 17.519531 40.417969 17.519531 40.542969 C 17.519531 40.816406 17.269531 41.089844 16.972656 41.089844 C 16.898438 41.089844 16.824219 41.066406 16.75 41.039062 C 14.757812 39.96875 13.839844 38.179688 13.839844 36.4375 C 13.839844 34.25 15.28125 32.109375 17.816406 31.539062 C 17.46875 30.09375 17.097656 28.628906 16.675781 27.1875 C 14.011719 30.195312 11.375 33.230469 11.375 37.210938 Z M 17.867188 44.421875 C 13.191406 44.421875 9.585938 40.144531 9.585938 35.121094 C 9.585938 30.71875 12.84375 27.507812 15.753906 24.152344 C 15.28125 22.609375 14.832031 21.042969 14.632812 19.425781 C 14.484375 18.132812 14.460938 16.839844 14.460938 15.546875 C 14.460938 12.683594 15.828125 9.972656 18.167969 8.28125 C 18.316406 8.15625 18.515625 8.15625 18.664062 8.28125 C 20.429688 10.371094 21.972656 14.375 21.972656 17.1875 C 21.972656 20.742188 19.832031 23.527344 17.496094 26.242188 C 18.015625 27.933594 18.464844 29.671875 18.886719 31.390625 C 18.988281 31.390625 19.113281 31.363281 19.210938 31.363281 C 23.066406 31.363281 25.578125 34.546875 25.578125 37.855469 C 25.578125 39.746094 24.757812 41.6875 22.917969 43.078125 C 22.371094 43.503906 21.746094 43.777344 21.101562 43.972656 C 21.175781 44.84375 21.226562 45.714844 21.226562 46.585938 C 21.226562 47.058594 21.199219 47.554688 21.175781 48.027344 C 21 50.988281 18.988281 53.625 16.152344 53.699219 L 16.175781 52.628906 C 18.488281 52.582031 19.980469 50.34375 20.132812 47.878906 C 20.15625 47.433594 20.179688 46.960938 20.179688 46.511719 C 20.179688 45.742188 20.15625 44.996094 20.082031 44.222656 C 19.359375 44.347656 18.640625 44.421875 17.867188 44.421875 Z M 20.179688 15.121094 C 20.179688 13.753906 20.082031 13.15625 19.683594 11.914062 C 17.222656 13.109375 15.652344 15.621094 15.652344 18.355469 C 15.652344 20.195312 16.101562 21.664062 16.550781 23.179688 C 18.539062 20.769531 20.179688 18.257812 20.179688 15.121094 Z M 20.179688 15.121094 "/>
<path style=" stroke:none;fill-rule:nonzero;fill:rgb(0%,0%,0%);fill-opacity:1;" d="M 52.90625 12.757812 C 54.273438 12.757812 55.59375 13.457031 55.59375 14.972656 C 55.59375 16.738281 54.226562 17.984375 53.054688 18.679688 C 52.1875 19.203125 51.191406 19.523438 50.171875 19.523438 C 48.804688 19.523438 47.484375 18.828125 47.484375 17.3125 C 47.484375 15.546875 48.851562 14.300781 50.023438 13.605469 C 50.890625 13.082031 51.886719 12.757812 52.90625 12.757812 Z M 52.90625 12.757812 "/>
<path style=" stroke:none;fill-rule:nonzero;fill:rgb(0%,0%,0%);fill-opacity:1;" d="M 52.90625 18.976562 C 54.273438 18.976562 55.59375 19.675781 55.59375 21.191406 C 55.59375 22.957031 54.226562 24.199219 53.054688 24.898438 C 52.1875 25.417969 51.191406 25.742188 50.171875 25.742188 C 48.804688 25.742188 47.484375 25.046875 47.484375 23.527344 C 47.484375 21.761719 48.851562 20.519531 50.023438 19.824219 C 50.890625 19.300781 51.886719 18.976562 52.90625 18.976562 Z M 52.90625 18.976562 "/>
<path style=" stroke:none;fill-rule:nonzero;fill:rgb(0%,0%,0%);fill-opacity:1;" d="M 52.90625 25.195312 C 54.273438 25.195312 55.59375 25.890625 55.59375 27.410156 C 55.59375 29.175781 54.226562 30.417969 53.054688 31.117188 C 52.1875 31.636719 51.191406 31.960938 50.171875 31.960938 C 48.804688 31.960938 47.484375 31.265625 47.484375 29.746094 C 47.484375 27.980469 48.851562 26.738281 50.023438 26.042969 C 50.890625 25.519531 51.886719 25.195312 52.90625 25.195312 Z M 52.90625 25.195312 "/>
</g>
</svg>
