<?xml version="1.0" encoding="UTF-8"?>
<svg xmlns="http://www.w3.org/2000/svg" xmlns:xlink="http://www.w3.org/1999/xlink" width="81.189345pt" height="71.629017pt" viewBox="0 0 81.189345 71.629017" version="1.1">
<g id="surface1">
<path style="fill:none;stroke-width:0.1;stroke-linecap:round;stroke-linejoin:round;stroke:rgb(0%,0%,0%);stroke-opacity:1;stroke-miterlimit:4;" d="M 0.049863 -0.000287501 L 10.667095 -0.000287501 " transform="matrix(6.218149,0,0,6.218149,4.561038,40.517413)"/>
<path style="fill:none;stroke-width:0.1;stroke-linecap:round;stroke-linejoin:round;stroke:rgb(0%,0%,0%);stroke-opacity:1;stroke-miterlimit:4;" d="M 0.049863 0.000244052 L 10.667095 0.000244052 " transform="matrix(6.218149,0,0,6.218149,4.561038,34.299264)"/>
<path style="fill:none;stroke-width:0.1;stroke-linecap:round;stroke-linejoin:round;stroke:rgb(0%,0%,0%);stroke-opacity:1;stroke-miterlimit:4;" d="M 0.049863 0.000147403 L 10.667095 0.000147403 " transform="matrix(6.218149,0,0,6.218149,4.561038,28.081115)"/>
<path style="fill:none;stroke-width:0.1;stroke-linecap:round;stroke-linejoin:round;stroke:rgb(0%,0%,0%);stroke-opacity:1;stroke-miterlimit:4;" d="M 0.049863 0.0000507548 L 10.667095 0.0000507548 " transform="matrix(6.218149,0,0,6.218149,4.561038,21.862966)"/>
<path style="fill:none;stroke-width:0.1;stroke-linecap:round;stroke-linejoin:round;stroke:rgb(0%,0%,0%);stroke-opacity:1;stroke-miterlimit:4;" d="M 0.049863 -0.0000458938 L 10.667095 -0.0000458938 " transform="matrix(6.218149,0,0,6.218149,4.561038,15.644817)"/>
<path style=" stroke:none;fill-rule:nonzero;fill:rgb(0%,0%,0%);fill-opacity:1;" d="M 51.125 46.113281 L 62.046875 46.113281 C 62.390625 46.113281 62.667969 46.390625 62.667969 46.734375 C 62.667969 47.078125 62.390625 47.355469 62.046875 47.355469 L 51.125 47.355469 C 50.785156 47.355469 50.503906 47.078125 50.503906 46.734375 C 50.503906 46.390625 50.785156 46.113281 51.125 46.113281 Z M 51.125 46.113281 "/>
<path style=" stroke:none;fill-rule:nonzero;fill:rgb(0%,0%,0%);fill-opacity:1;" d="M 51.125 52.332031 L 62.046875 52.332031 C 62.390625 52.332031 62.667969 52.609375 62.667969 52.953125 C 62.667969 53.296875 62.390625 53.574219 62.046875 53.574219 L 51.125 53.574219 C 50.785156 53.574219 50.503906 53.296875 50.503906 52.953125 C 50.503906 52.609375 50.785156 52.332031 51.125 52.332031 Z M 51.125 52.332031 "/>
<path style=" stroke:none;fill-rule:nonzero;fill:rgb(0%,0%,0%);fill-opacity:1;" d="M 60.082031 18.753906 L 60.394531 18.753906 C 60.53125 18.753906 60.640625 18.867188 60.640625 19.003906 L 60.640625 51.546875 C 60.640625 51.683594 60.53125 51.796875 60.394531 51.796875 L 60.082031 51.796875 C 59.945312 51.796875 59.832031 51.683594 59.832031 51.546875 L 59.832031 19.003906 C 59.832031 18.867188 59.945312 18.753906 60.082031 18.753906 Z M 60.082031 18.753906 "/>
<path style=" stroke:none;fill-rule:nonzero;fill:rgb(0%,0%,0%);fill-opacity:1;" d="M 47.621094 40.515625 C 48.195312 41.089844 49.015625 41.214844 49.835938 41.214844 C 49.984375 41.214844 50.085938 41.3125 50.085938 41.460938 L 50.308594 43.625 C 50.332031 43.777344 50.207031 43.898438 50.058594 43.875 L 47.894531 43.652344 C 47.769531 43.625 47.648438 43.527344 47.648438 43.402344 C 47.648438 42.582031 47.523438 41.761719 46.949219 41.1875 C 46.378906 41.761719 46.277344 42.582031 46.277344 43.402344 C 46.277344 43.527344 46.152344 43.625 46.03125 43.652344 L 43.839844 43.875 C 43.691406 43.898438 43.566406 43.777344 43.59375 43.625 L 43.816406 41.460938 C 43.816406 41.3125 43.914062 41.214844 44.066406 41.214844 C 44.886719 41.214844 45.707031 41.089844 46.277344 40.515625 C 45.707031 39.945312 44.886719 39.820312 44.066406 39.820312 C 43.914062 39.820312 43.816406 39.722656 43.816406 39.570312 L 43.59375 37.410156 C 43.566406 37.257812 43.691406 37.132812 43.839844 37.160156 L 46.03125 37.382812 C 46.152344 37.410156 46.253906 37.507812 46.253906 37.632812 C 46.253906 38.453125 46.378906 39.273438 46.949219 39.847656 C 47.523438 39.273438 47.648438 38.453125 47.648438 37.632812 C 47.648438 37.507812 47.769531 37.410156 47.894531 37.382812 L 50.058594 37.160156 C 50.207031 37.132812 50.332031 37.257812 50.308594 37.410156 L 50.085938 39.570312 C 50.085938 39.722656 49.984375 39.820312 49.835938 39.820312 C 49.015625 39.820312 48.195312 39.945312 47.621094 40.515625 Z M 47.621094 40.515625 "/>
<path style=" stroke:none;fill-rule:nonzero;fill:rgb(0%,0%,0%);fill-opacity:1;" d="M 32.996094 46.734375 C 33.570312 47.308594 34.390625 47.433594 35.210938 47.433594 C 35.359375 47.433594 35.460938 47.53125 35.460938 47.679688 L 35.683594 49.84375 C 35.707031 49.992188 35.582031 50.117188 35.433594 50.09375 L 33.269531 49.871094 C 33.144531 49.84375 33.023438 49.746094 33.023438 49.621094 C 33.023438 48.800781 32.898438 47.980469 32.324219 47.40625 C 31.753906 47.980469 31.652344 48.800781 31.652344 49.621094 C 31.652344 49.746094 31.527344 49.84375 31.40625 49.871094 L 29.214844 50.09375 C 29.066406 50.117188 28.941406 49.992188 28.96875 49.84375 L 29.191406 47.679688 C 29.191406 47.53125 29.289062 47.433594 29.441406 47.433594 C 30.261719 47.433594 31.082031 47.308594 31.652344 46.734375 C 31.082031 46.164062 30.261719 46.039062 29.441406 46.039062 C 29.289062 46.039062 29.191406 45.941406 29.191406 45.789062 L 28.96875 43.625 C 28.941406 43.476562 29.066406 43.351562 29.214844 43.378906 L 31.40625 43.601562 C 31.527344 43.625 31.628906 43.726562 31.628906 43.851562 C 31.628906 44.671875 31.753906 45.492188 32.324219 46.0625 C 32.898438 45.492188 33.023438 44.671875 33.023438 43.851562 C 33.023438 43.726562 33.144531 43.625 33.269531 43.601562 L 35.433594 43.378906 C 35.582031 43.351562 35.707031 43.476562 35.683594 43.625 L 35.460938 45.789062 C 35.460938 45.941406 35.359375 46.039062 35.210938 46.039062 C 34.390625 46.039062 33.570312 46.164062 32.996094 46.734375 Z M 32.996094 46.734375 "/>
<path style=" stroke:none;fill-rule:nonzero;fill:rgb(0%,0%,0%);fill-opacity:1;" d="M 42.347656 60.714844 C 42.347656 60.960938 42.148438 61.1875 41.898438 61.1875 C 41.652344 61.1875 41.425781 60.960938 41.425781 60.714844 L 41.425781 57.109375 L 39.363281 57.878906 L 39.363281 61.808594 C 39.363281 62.058594 39.136719 62.28125 38.890625 62.28125 C 38.640625 62.28125 38.441406 62.058594 38.441406 61.808594 L 38.441406 58.203125 L 37.644531 58.5 C 37.597656 58.523438 37.523438 58.523438 37.472656 58.523438 C 37.199219 58.523438 36.972656 58.300781 36.972656 58.027344 L 36.972656 56.535156 C 36.972656 56.335938 37.097656 56.136719 37.296875 56.0625 L 38.441406 55.664062 L 38.441406 51.683594 L 37.644531 51.957031 C 37.597656 51.984375 37.523438 51.984375 37.472656 51.984375 C 37.199219 51.984375 36.972656 51.761719 36.972656 51.484375 L 36.972656 49.992188 C 36.972656 49.792969 37.097656 49.621094 37.296875 49.546875 L 38.441406 49.125 L 38.441406 45.195312 C 38.441406 44.945312 38.640625 44.722656 38.890625 44.722656 C 39.136719 44.722656 39.363281 44.945312 39.363281 45.195312 L 39.363281 48.800781 L 41.425781 48.027344 L 41.425781 44.097656 C 41.425781 43.851562 41.652344 43.625 41.898438 43.625 C 42.148438 43.625 42.347656 43.851562 42.347656 44.097656 L 42.347656 47.707031 L 43.144531 47.40625 C 43.191406 47.382812 43.265625 47.382812 43.316406 47.382812 C 43.589844 47.382812 43.8125 47.605469 43.8125 47.878906 L 43.8125 49.371094 C 43.8125 49.570312 43.691406 49.769531 43.492188 49.84375 L 42.347656 50.242188 L 42.347656 54.222656 L 43.144531 53.949219 C 43.191406 53.921875 43.265625 53.921875 43.316406 53.921875 C 43.589844 53.921875 43.8125 54.148438 43.8125 54.421875 L 43.8125 55.914062 C 43.8125 56.113281 43.691406 56.285156 43.492188 56.359375 L 42.347656 56.785156 Z M 39.363281 51.335938 L 39.363281 55.316406 L 41.425781 54.570312 L 41.425781 50.589844 Z M 39.363281 51.335938 "/>
<path style=" stroke:none;fill-rule:nonzero;fill:rgb(0%,0%,0%);fill-opacity:1;" d="M 16.152344 50.09375 L 16.003906 50.09375 C 13.316406 50.09375 11.152344 47.90625 11.152344 45.195312 C 11.152344 43.75 12.46875 42.632812 13.9375 42.632812 C 15.28125 42.632812 16.300781 43.800781 16.300781 45.195312 C 16.300781 46.488281 15.230469 47.554688 13.9375 47.554688 C 13.664062 47.554688 13.414062 47.507812 13.167969 47.40625 C 13.8125 48.378906 14.859375 49.023438 16.078125 49.023438 L 16.175781 49.023438 Z M 21 39.347656 C 22.691406 38.75 23.8125 36.984375 23.8125 35.269531 C 23.8125 33.03125 22.171875 30.816406 19.507812 30.542969 C 20.105469 33.429688 20.652344 36.289062 21 39.347656 Z M 11.375 33.601562 C 11.375 36.960938 14.585938 39.746094 17.941406 39.746094 C 18.640625 39.746094 19.308594 39.695312 19.980469 39.597656 C 19.632812 36.4375 19.0625 33.503906 18.414062 30.542969 C 16.449219 30.742188 15.332031 32.0625 15.332031 33.503906 C 15.332031 34.597656 15.953125 35.765625 17.34375 36.5625 C 17.46875 36.6875 17.519531 36.8125 17.519531 36.9375 C 17.519531 37.210938 17.269531 37.484375 16.972656 37.484375 C 16.898438 37.484375 16.824219 37.457031 16.75 37.433594 C 14.757812 36.363281 13.839844 34.574219 13.839844 32.832031 C 13.839844 30.644531 15.28125 28.503906 17.816406 27.933594 C 17.46875 26.488281 17.097656 25.023438 16.675781 23.578125 C 14.011719 26.589844 11.375 29.625 11.375 33.601562 Z M 17.867188 40.816406 C 13.191406 40.816406 9.585938 36.539062 9.585938 31.511719 C 9.585938 27.109375 12.84375 23.902344 15.753906 20.542969 C 15.28125 19.003906 14.832031 17.4375 14.632812 15.820312 C 14.484375 14.527344 14.460938 13.230469 14.460938 11.9375 C 14.460938 9.078125 15.828125 6.367188 18.167969 4.675781 C 18.316406 4.550781 18.515625 4.550781 18.664062 4.675781 C 20.429688 6.765625 21.972656 10.769531 21.972656 13.582031 C 21.972656 17.136719 19.832031 19.921875 17.496094 22.632812 C 18.015625 24.324219 18.464844 26.066406 18.886719 27.78125 C 18.988281 27.78125 19.113281 27.757812 19.210938 27.757812 C 23.066406 27.757812 25.578125 30.941406 25.578125 34.25 C 25.578125 36.140625 24.757812 38.078125 22.917969 39.472656 C 22.371094 39.894531 21.746094 40.167969 21.101562 40.367188 C 21.175781 41.238281 21.226562 42.109375 21.226562 42.980469 C 21.226562 43.453125 21.199219 43.949219 21.175781 44.421875 C 21 47.382812 18.988281 50.019531 16.152344 50.09375 L 16.175781 49.023438 C 18.488281 48.972656 19.980469 46.734375 20.132812 44.273438 C 20.15625 43.824219 20.179688 43.351562 20.179688 42.90625 C 20.179688 42.132812 20.15625 41.386719 20.082031 40.617188 C 19.359375 40.742188 18.640625 40.816406 17.867188 40.816406 Z M 20.179688 11.515625 C 20.179688 10.148438 20.082031 9.550781 19.683594 8.308594 C 17.222656 9.5 15.652344 12.011719 15.652344 14.75 C 15.652344 16.589844 16.101562 18.058594 16.550781 19.574219 C 18.539062 17.160156 20.179688 14.648438 20.179688 11.515625 Z M 20.179688 11.515625 "/>
<path style=" stroke:none;fill-rule:nonzero;fill:rgb(0%,0%,0%);fill-opacity:1;" d="M 57.953125 37.132812 C 59.324219 37.132812 60.640625 37.832031 60.640625 39.347656 C 60.640625 41.113281 59.273438 42.359375 58.105469 43.054688 C 57.234375 43.578125 56.238281 43.898438 55.21875 43.898438 C 53.851562 43.898438 52.53125 43.203125 52.53125 41.6875 C 52.53125 39.921875 53.898438 38.675781 55.070312 37.980469 C 55.941406 37.457031 56.933594 37.132812 57.953125 37.132812 Z M 57.953125 37.132812 "/>
<path style=" stroke:none;fill-rule:nonzero;fill:rgb(0%,0%,0%);fill-opacity:1;" d="M 57.953125 43.351562 C 59.324219 43.351562 60.640625 44.050781 60.640625 45.566406 C 60.640625 47.332031 59.273438 48.574219 58.105469 49.273438 C 57.234375 49.792969 56.238281 50.117188 55.21875 50.117188 C 53.851562 50.117188 52.53125 49.421875 52.53125 47.90625 C 52.53125 46.136719 53.898438 44.894531 55.070312 44.199219 C 55.941406 43.675781 56.933594 43.351562 57.953125 43.351562 Z M 57.953125 43.351562 "/>
<path style=" stroke:none;fill-rule:nonzero;fill:rgb(0%,0%,0%);fill-opacity:1;" d="M 57.953125 49.570312 C 59.324219 49.570312 60.640625 50.265625 60.640625 51.785156 C 60.640625 53.550781 59.273438 54.792969 58.105469 55.492188 C 57.234375 56.011719 56.238281 56.335938 55.21875 56.335938 C 53.851562 56.335938 52.53125 55.640625 52.53125 54.121094 C 52.53125 52.355469 53.898438 51.113281 55.070312 50.417969 C 55.941406 49.894531 56.933594 49.570312 57.953125 49.570312 Z M 57.953125 49.570312 "/>
</g>
</svg>
