<?xml version="1.0" encoding="UTF-8"?>
<svg xmlns="http://www.w3.org/2000/svg" xmlns:xlink="http://www.w3.org/1999/xlink" width="76.669618pt" height="79.074445pt" viewBox="0 0 76.669618 79.074445" version="1.1">
<g id="surface1">
<path style="fill:none;stroke-width:0.1;stroke-linecap:round;stroke-linejoin:round;stroke:rgb(0%,0%,0%);stroke-opacity:1;stroke-miterlimit:4;" d="M 0.049863 -0.000193787 L 9.986753 -0.000193787 " transform="matrix(6.218149,0,0,6.218149,4.561038,59.669174)"/>
<path style="fill:none;stroke-width:0.1;stroke-linecap:round;stroke-linejoin:round;stroke:rgb(0%,0%,0%);stroke-opacity:1;stroke-miterlimit:4;" d="M 0.049863 -0.000290436 L 9.986753 -0.000290436 " transform="matrix(6.218149,0,0,6.218149,4.561038,53.451025)"/>
<path style="fill:none;stroke-width:0.1;stroke-linecap:round;stroke-linejoin:round;stroke:rgb(0%,0%,0%);stroke-opacity:1;stroke-miterlimit:4;" d="M 0.049863 0.00024064 L 9.986753 0.00024064 " transform="matrix(6.218149,0,0,6.218149,4.561038,47.232879)"/>
<path style="fill:none;stroke-width:0.1;stroke-linecap:round;stroke-linejoin:round;stroke:rgb(0%,0%,0%);stroke-opacity:1;stroke-miterlimit:4;" d="M 0.049863 0.000143992 L 9.986753 0.000143992 " transform="matrix(6.218149,0,0,6.218149,4.561038,41.01473)"/>
<path style="fill:none;stroke-width:0.1;stroke-linecap:round;stroke-linejoin:round;stroke:rgb(0%,0%,0%);stroke-opacity:1;stroke-miterlimit:4;" d="M 0.049863 0.000047343 L 9.986753 0.000047343 " transform="matrix(6.218149,0,0,6.218149,4.561038,34.796581)"/>
<path style=" stroke:none;fill-rule:nonzero;fill:rgb(0%,0%,0%);fill-opacity:1;" d="M 40.128906 15.519531 L 57.816406 15.519531 C 58.160156 15.519531 58.4375 15.796875 58.4375 16.140625 C 58.4375 16.484375 58.160156 16.765625 57.816406 16.765625 L 40.128906 16.765625 C 39.785156 16.765625 39.507812 16.484375 39.507812 16.140625 C 39.507812 15.796875 39.785156 15.519531 40.128906 15.519531 Z M 40.128906 15.519531 "/>
<path style=" stroke:none;fill-rule:nonzero;fill:rgb(0%,0%,0%);fill-opacity:1;" d="M 39.191406 21.738281 L 57.816406 21.738281 C 58.160156 21.738281 58.4375 22.015625 58.4375 22.359375 C 58.4375 22.703125 58.160156 22.980469 57.816406 22.980469 L 39.191406 22.980469 C 38.847656 22.980469 38.566406 22.703125 38.566406 22.359375 C 38.566406 22.015625 38.847656 21.738281 39.191406 21.738281 Z M 39.191406 21.738281 "/>
<path style=" stroke:none;fill-rule:nonzero;fill:rgb(0%,0%,0%);fill-opacity:1;" d="M 39.191406 27.957031 L 57.816406 27.957031 C 58.160156 27.957031 58.4375 28.234375 58.4375 28.578125 C 58.4375 28.921875 58.160156 29.199219 57.816406 29.199219 L 39.191406 29.199219 C 38.847656 29.199219 38.566406 28.921875 38.566406 28.578125 C 38.566406 28.234375 38.847656 27.957031 39.191406 27.957031 Z M 39.191406 27.957031 "/>
<path style=" stroke:none;fill-rule:nonzero;fill:rgb(0%,0%,0%);fill-opacity:1;" d="M 34.117188 15.121094 L 34.089844 16.765625 L 34.089844 17.039062 C 34.089844 17.585938 34.117188 18.132812 34.191406 18.679688 C 35.308594 17.734375 36.503906 16.6875 36.503906 15.222656 C 36.503906 14.402344 36.15625 13.554688 35.433594 13.554688 C 34.664062 13.554688 34.140625 14.300781 34.117188 15.121094 Z M 33.070312 19.574219 L 32.773438 4.773438 C 32.972656 4.652344 33.21875 4.578125 33.445312 4.578125 C 33.667969 4.578125 33.917969 4.652344 34.117188 4.773438 L 33.941406 13.355469 C 34.5625 12.835938 35.382812 12.511719 36.207031 12.511719 C 37.5 12.511719 38.417969 13.703125 38.417969 15.046875 C 38.417969 17.039062 36.28125 17.957031 34.761719 19.25 C 34.390625 19.574219 34.164062 20.195312 33.644531 20.195312 C 33.320312 20.195312 33.070312 19.921875 33.070312 19.574219 Z M 33.070312 19.574219 "/>
<path style=" stroke:none;fill-rule:nonzero;fill:rgb(0%,0%,0%);fill-opacity:1;" d="M 30.632812 27.558594 L 30.609375 29.199219 L 30.609375 29.472656 C 30.609375 30.019531 30.632812 30.566406 30.707031 31.117188 C 31.828125 30.171875 33.023438 29.125 33.023438 27.65625 C 33.023438 26.835938 32.671875 25.992188 31.953125 25.992188 C 31.179688 25.992188 30.660156 26.738281 30.632812 27.558594 Z M 29.589844 32.011719 L 29.289062 17.210938 C 29.488281 17.085938 29.738281 17.011719 29.960938 17.011719 C 30.1875 17.011719 30.433594 17.085938 30.632812 17.210938 L 30.460938 25.792969 C 31.082031 25.269531 31.902344 24.945312 32.722656 24.945312 C 34.015625 24.945312 34.9375 26.140625 34.9375 27.484375 C 34.9375 29.472656 32.796875 30.394531 31.28125 31.6875 C 30.90625 32.011719 30.683594 32.632812 30.160156 32.632812 C 29.835938 32.632812 29.589844 32.359375 29.589844 32.011719 Z M 29.589844 32.011719 "/>
<path style=" stroke:none;fill-rule:nonzero;fill:rgb(0%,0%,0%);fill-opacity:1;" d="M 48.550781 14.191406 L 48.859375 14.191406 C 49 14.191406 49.109375 14.300781 49.109375 14.4375 L 49.109375 50.09375 C 49.109375 50.230469 49 50.34375 48.859375 50.34375 L 48.550781 50.34375 C 48.414062 50.34375 48.300781 50.230469 48.300781 50.09375 L 48.300781 14.4375 C 48.300781 14.300781 48.414062 14.191406 48.550781 14.191406 Z M 48.550781 14.191406 "/>
<path style=" stroke:none;fill-rule:nonzero;fill:rgb(0%,0%,0%);fill-opacity:1;" d="M 16.152344 69.246094 L 16.003906 69.246094 C 13.316406 69.246094 11.152344 67.054688 11.152344 64.34375 C 11.152344 62.902344 12.46875 61.785156 13.9375 61.785156 C 15.28125 61.785156 16.300781 62.953125 16.300781 64.34375 C 16.300781 65.636719 15.230469 66.707031 13.9375 66.707031 C 13.664062 66.707031 13.414062 66.660156 13.167969 66.558594 C 13.8125 67.527344 14.859375 68.175781 16.078125 68.175781 L 16.175781 68.175781 Z M 21 58.5 C 22.691406 57.902344 23.8125 56.136719 23.8125 54.421875 C 23.8125 52.183594 22.171875 49.96875 19.507812 49.695312 C 20.105469 52.582031 20.652344 55.441406 21 58.5 Z M 11.375 52.753906 C 11.375 56.113281 14.585938 58.898438 17.941406 58.898438 C 18.640625 58.898438 19.308594 58.847656 19.980469 58.75 C 19.632812 55.589844 19.0625 52.65625 18.414062 49.695312 C 16.449219 49.894531 15.332031 51.210938 15.332031 52.65625 C 15.332031 53.75 15.953125 54.917969 17.34375 55.714844 C 17.46875 55.839844 17.519531 55.964844 17.519531 56.085938 C 17.519531 56.359375 17.269531 56.632812 16.972656 56.632812 C 16.898438 56.632812 16.824219 56.609375 16.75 56.585938 C 14.757812 55.515625 13.839844 53.726562 13.839844 51.984375 C 13.839844 49.792969 15.28125 47.65625 17.816406 47.082031 C 17.46875 45.640625 17.097656 44.171875 16.675781 42.730469 C 14.011719 45.742188 11.375 48.773438 11.375 52.753906 Z M 17.867188 59.96875 C 13.191406 59.96875 9.585938 55.691406 9.585938 50.664062 C 9.585938 46.261719 12.84375 43.054688 15.753906 39.695312 C 15.28125 38.15625 14.832031 36.585938 14.632812 34.96875 C 14.484375 33.675781 14.460938 32.382812 14.460938 31.089844 C 14.460938 28.230469 15.828125 25.519531 18.167969 23.828125 C 18.316406 23.703125 18.515625 23.703125 18.664062 23.828125 C 20.429688 25.917969 21.972656 29.921875 21.972656 32.730469 C 21.972656 36.289062 19.832031 39.074219 17.496094 41.785156 C 18.015625 43.476562 18.464844 45.21875 18.886719 46.933594 C 18.988281 46.933594 19.113281 46.910156 19.210938 46.910156 C 23.066406 46.910156 25.578125 50.09375 25.578125 53.402344 C 25.578125 55.292969 24.757812 57.230469 22.917969 58.625 C 22.371094 59.046875 21.746094 59.320312 21.101562 59.519531 C 21.175781 60.390625 21.226562 61.261719 21.226562 62.132812 C 21.226562 62.605469 21.199219 63.101562 21.175781 63.574219 C 21 66.535156 18.988281 69.171875 16.152344 69.246094 L 16.175781 68.175781 C 18.488281 68.125 19.980469 65.886719 20.132812 63.425781 C 20.15625 62.976562 20.179688 62.503906 20.179688 62.058594 C 20.179688 61.285156 20.15625 60.539062 20.082031 59.769531 C 19.359375 59.894531 18.640625 59.96875 17.867188 59.96875 Z M 20.179688 30.667969 C 20.179688 29.300781 20.082031 28.703125 19.683594 27.460938 C 17.222656 28.652344 15.652344 31.164062 15.652344 33.902344 C 15.652344 35.742188 16.101562 37.210938 16.550781 38.726562 C 18.539062 36.3125 20.179688 33.800781 20.179688 30.667969 Z M 20.179688 30.667969 "/>
<path style=" stroke:none;fill-rule:nonzero;fill:rgb(0%,0%,0%);fill-opacity:1;" d="M 53.722656 9.648438 C 55.089844 9.648438 56.410156 10.347656 56.410156 11.863281 C 56.410156 13.628906 55.042969 14.875 53.871094 15.570312 C 53.003906 16.09375 52.007812 16.414062 50.988281 16.414062 C 49.621094 16.414062 48.300781 15.71875 48.300781 14.203125 C 48.300781 12.4375 49.667969 11.191406 50.839844 10.496094 C 51.707031 9.972656 52.703125 9.648438 53.722656 9.648438 Z M 53.722656 9.648438 "/>
<path style=" stroke:none;fill-rule:nonzero;fill:rgb(0%,0%,0%);fill-opacity:1;" d="M 46.015625 12.757812 C 47.386719 12.757812 48.703125 13.457031 48.703125 14.972656 C 48.703125 16.738281 47.335938 17.984375 46.167969 18.679688 C 45.296875 19.203125 44.300781 19.523438 43.28125 19.523438 C 41.914062 19.523438 40.59375 18.828125 40.59375 17.3125 C 40.59375 15.546875 41.964844 14.300781 43.132812 13.605469 C 44.003906 13.082031 44.996094 12.757812 46.015625 12.757812 Z M 46.015625 12.757812 "/>
<path style=" stroke:none;fill-rule:nonzero;fill:rgb(0%,0%,0%);fill-opacity:1;" d="M 53.722656 18.976562 C 55.089844 18.976562 56.410156 19.675781 56.410156 21.191406 C 56.410156 22.957031 55.042969 24.199219 53.871094 24.898438 C 53.003906 25.417969 52.007812 25.742188 50.988281 25.742188 C 49.621094 25.742188 48.300781 25.046875 48.300781 23.527344 C 48.300781 21.761719 49.667969 20.519531 50.839844 19.824219 C 51.707031 19.300781 52.703125 18.976562 53.722656 18.976562 Z M 53.722656 18.976562 "/>
<path style=" stroke:none;fill-rule:nonzero;fill:rgb(0%,0%,0%);fill-opacity:1;" d="M 53.722656 25.195312 C 55.089844 25.195312 56.410156 25.890625 56.410156 27.410156 C 56.410156 29.175781 55.042969 30.417969 53.871094 31.117188 C 53.003906 31.636719 52.007812 31.960938 50.988281 31.960938 C 49.621094 31.960938 48.300781 31.265625 48.300781 29.746094 C 48.300781 27.980469 49.667969 26.738281 50.839844 26.042969 C 51.707031 25.519531 52.703125 25.195312 53.722656 25.195312 Z M 53.722656 25.195312 "/>
</g>
</svg>
