<?xml version="1.0" encoding="UTF-8"?>
<svg xmlns="http://www.w3.org/2000/svg" xmlns:xlink="http://www.w3.org/1999/xlink" width="83.88989pt" height="59.813301pt" viewBox="0 0 83.88989 59.813301" version="1.1">
<g id="surface1">
<path style="fill:none;stroke-width:0.1;stroke-linecap:round;stroke-linejoin:round;stroke:rgb(0%,0%,0%);stroke-opacity:1;stroke-miterlimit:4;" d="M 0.049863 0.00023304 L 11.073541 0.00023304 " transform="matrix(6.218149,0,0,6.218149,4.561038,41.88527)"/>
<path style="fill:none;stroke-width:0.1;stroke-linecap:round;stroke-linejoin:round;stroke:rgb(0%,0%,0%);stroke-opacity:1;stroke-miterlimit:4;" d="M 0.049863 0.000136391 L 11.073541 0.000136391 " transform="matrix(6.218149,0,0,6.218149,4.561038,35.667121)"/>
<path style="fill:none;stroke-width:0.1;stroke-linecap:round;stroke-linejoin:round;stroke:rgb(0%,0%,0%);stroke-opacity:1;stroke-miterlimit:4;" d="M 0.049863 0.0000397429 L 11.073541 0.0000397429 " transform="matrix(6.218149,0,0,6.218149,4.561038,29.448972)"/>
<path style="fill:none;stroke-width:0.1;stroke-linecap:round;stroke-linejoin:round;stroke:rgb(0%,0%,0%);stroke-opacity:1;stroke-miterlimit:4;" d="M 0.049863 -0.0000569057 L 11.073541 -0.0000569057 " transform="matrix(6.218149,0,0,6.218149,4.561038,23.230823)"/>
<path style="fill:none;stroke-width:0.1;stroke-linecap:round;stroke-linejoin:round;stroke:rgb(0%,0%,0%);stroke-opacity:1;stroke-miterlimit:4;" d="M 0.049863 -0.000153554 L 11.073541 -0.000153554 " transform="matrix(6.218149,0,0,6.218149,4.561038,17.012674)"/>
<path style=" stroke:none;fill-rule:nonzero;fill:rgb(0%,0%,0%);fill-opacity:1;" d="M 62.609375 4.578125 L 62.921875 4.578125 C 63.058594 4.578125 63.171875 4.6875 63.171875 4.824219 L 63.171875 40.480469 C 63.171875 40.617188 63.058594 40.726562 62.921875 40.726562 L 62.609375 40.726562 C 62.472656 40.726562 62.363281 40.617188 62.363281 40.480469 L 62.363281 4.824219 C 62.363281 4.6875 62.472656 4.578125 62.609375 4.578125 Z M 62.609375 4.578125 "/>
<path style=" stroke:none;fill-rule:nonzero;fill:rgb(0%,0%,0%);fill-opacity:1;" d="M 50.148438 23.230469 C 50.722656 23.804688 51.542969 23.925781 52.363281 23.925781 C 52.511719 23.925781 52.613281 24.027344 52.613281 24.175781 L 52.835938 26.339844 C 52.859375 26.488281 52.738281 26.613281 52.585938 26.589844 L 50.421875 26.363281 C 50.300781 26.339844 50.175781 26.242188 50.175781 26.117188 C 50.175781 25.296875 50.050781 24.472656 49.476562 23.902344 C 48.90625 24.472656 48.808594 25.296875 48.808594 26.117188 C 48.808594 26.242188 48.683594 26.339844 48.558594 26.363281 L 46.371094 26.589844 C 46.21875 26.613281 46.097656 26.488281 46.121094 26.339844 L 46.34375 24.175781 C 46.34375 24.027344 46.445312 23.925781 46.59375 23.925781 C 47.414062 23.925781 48.234375 23.804688 48.808594 23.230469 C 48.234375 22.660156 47.414062 22.535156 46.59375 22.535156 C 46.445312 22.535156 46.34375 22.433594 46.34375 22.285156 L 46.121094 20.121094 C 46.097656 19.972656 46.21875 19.847656 46.371094 19.871094 L 48.558594 20.097656 C 48.683594 20.121094 48.78125 20.222656 48.78125 20.34375 C 48.78125 21.167969 48.90625 21.988281 49.476562 22.558594 C 50.050781 21.988281 50.175781 21.167969 50.175781 20.34375 C 50.175781 20.222656 50.300781 20.121094 50.421875 20.097656 L 52.585938 19.871094 C 52.738281 19.847656 52.859375 19.972656 52.835938 20.121094 L 52.613281 22.285156 C 52.613281 22.433594 52.511719 22.535156 52.363281 22.535156 C 51.542969 22.535156 50.722656 22.660156 50.148438 23.230469 Z M 50.148438 23.230469 "/>
<path style=" stroke:none;fill-rule:nonzero;fill:rgb(0%,0%,0%);fill-opacity:1;" d="M 43.410156 37.210938 C 43.410156 37.457031 43.210938 37.683594 42.960938 37.683594 C 42.710938 37.683594 42.488281 37.457031 42.488281 37.210938 L 42.488281 33.601562 L 40.421875 34.375 L 40.421875 38.304688 C 40.421875 38.550781 40.199219 38.777344 39.949219 38.777344 C 39.703125 38.777344 39.503906 38.550781 39.503906 38.304688 L 39.503906 34.695312 L 38.707031 34.996094 C 38.65625 35.019531 38.582031 35.019531 38.535156 35.019531 C 38.257812 35.019531 38.035156 34.796875 38.035156 34.523438 L 38.035156 33.03125 C 38.035156 32.832031 38.160156 32.632812 38.359375 32.558594 L 39.503906 32.160156 L 39.503906 28.179688 L 38.707031 28.453125 C 38.65625 28.480469 38.582031 28.480469 38.535156 28.480469 C 38.257812 28.480469 38.035156 28.253906 38.035156 27.980469 L 38.035156 26.488281 C 38.035156 26.289062 38.160156 26.117188 38.359375 26.042969 L 39.503906 25.617188 L 39.503906 21.6875 C 39.503906 21.441406 39.703125 21.214844 39.949219 21.214844 C 40.199219 21.214844 40.421875 21.441406 40.421875 21.6875 L 40.421875 25.296875 L 42.488281 24.523438 L 42.488281 20.59375 C 42.488281 20.34375 42.710938 20.121094 42.960938 20.121094 C 43.210938 20.121094 43.410156 20.34375 43.410156 20.59375 L 43.410156 24.199219 L 44.203125 23.902344 C 44.253906 23.878906 44.328125 23.878906 44.378906 23.878906 C 44.652344 23.878906 44.875 24.101562 44.875 24.375 L 44.875 25.867188 C 44.875 26.066406 44.75 26.265625 44.550781 26.339844 L 43.410156 26.738281 L 43.410156 30.71875 L 44.203125 30.445312 C 44.253906 30.417969 44.328125 30.417969 44.378906 30.417969 C 44.652344 30.417969 44.875 30.644531 44.875 30.917969 L 44.875 32.410156 C 44.875 32.609375 44.75 32.78125 44.550781 32.855469 L 43.410156 33.28125 Z M 40.421875 27.832031 L 40.421875 31.8125 L 42.488281 31.066406 L 42.488281 27.085938 Z M 40.421875 27.832031 "/>
<path style=" stroke:none;fill-rule:nonzero;fill:rgb(0%,0%,0%);fill-opacity:1;" d="M 35.324219 43.425781 C 35.324219 43.675781 35.125 43.898438 34.878906 43.898438 C 34.628906 43.898438 34.40625 43.675781 34.40625 43.425781 L 34.40625 39.820312 L 32.339844 40.59375 L 32.339844 44.523438 C 32.339844 44.769531 32.117188 44.996094 31.867188 44.996094 C 31.617188 44.996094 31.417969 44.769531 31.417969 44.523438 L 31.417969 40.914062 L 30.625 41.214844 C 30.574219 41.238281 30.5 41.238281 30.449219 41.238281 C 30.175781 41.238281 29.953125 41.015625 29.953125 40.742188 L 29.953125 39.25 C 29.953125 39.050781 30.078125 38.851562 30.277344 38.777344 L 31.417969 38.378906 L 31.417969 34.398438 L 30.625 34.671875 C 30.574219 34.695312 30.5 34.695312 30.449219 34.695312 C 30.175781 34.695312 29.953125 34.472656 29.953125 34.199219 L 29.953125 32.707031 C 29.953125 32.507812 30.078125 32.335938 30.277344 32.257812 L 31.417969 31.835938 L 31.417969 27.90625 C 31.417969 27.65625 31.617188 27.433594 31.867188 27.433594 C 32.117188 27.433594 32.339844 27.65625 32.339844 27.90625 L 32.339844 31.511719 L 34.40625 30.742188 L 34.40625 26.8125 C 34.40625 26.5625 34.628906 26.339844 34.878906 26.339844 C 35.125 26.339844 35.324219 26.5625 35.324219 26.8125 L 35.324219 30.417969 L 36.121094 30.121094 C 36.171875 30.09375 36.246094 30.09375 36.292969 30.09375 C 36.566406 30.09375 36.792969 30.320312 36.792969 30.59375 L 36.792969 32.085938 C 36.792969 32.285156 36.667969 32.484375 36.46875 32.558594 L 35.324219 32.957031 L 35.324219 36.9375 L 36.121094 36.660156 C 36.171875 36.636719 36.246094 36.636719 36.292969 36.636719 C 36.566406 36.636719 36.792969 36.859375 36.792969 37.132812 L 36.792969 38.628906 C 36.792969 38.824219 36.667969 39 36.46875 39.074219 L 35.324219 39.496094 Z M 32.339844 34.050781 L 32.339844 38.03125 L 34.40625 37.285156 L 34.40625 33.304688 Z M 32.339844 34.050781 "/>
<path style=" stroke:none;fill-rule:nonzero;fill:rgb(0%,0%,0%);fill-opacity:1;" d="M 51.417969 49.644531 C 51.417969 49.894531 51.21875 50.117188 50.96875 50.117188 C 50.722656 50.117188 50.496094 49.894531 50.496094 49.644531 L 50.496094 46.039062 L 48.433594 46.808594 L 48.433594 50.738281 C 48.433594 50.988281 48.207031 51.210938 47.960938 51.210938 C 47.710938 51.210938 47.511719 50.988281 47.511719 50.738281 L 47.511719 47.132812 L 46.714844 47.433594 C 46.667969 47.457031 46.59375 47.457031 46.542969 47.457031 C 46.269531 47.457031 46.042969 47.234375 46.042969 46.960938 L 46.042969 45.46875 C 46.042969 45.269531 46.167969 45.070312 46.367188 44.996094 L 47.511719 44.597656 L 47.511719 40.617188 L 46.714844 40.890625 C 46.667969 40.914062 46.59375 40.914062 46.542969 40.914062 C 46.269531 40.914062 46.042969 40.691406 46.042969 40.417969 L 46.042969 38.925781 C 46.042969 38.726562 46.167969 38.550781 46.367188 38.476562 L 47.511719 38.054688 L 47.511719 34.125 C 47.511719 33.875 47.710938 33.652344 47.960938 33.652344 C 48.207031 33.652344 48.433594 33.875 48.433594 34.125 L 48.433594 37.730469 L 50.496094 36.960938 L 50.496094 33.03125 C 50.496094 32.78125 50.722656 32.558594 50.96875 32.558594 C 51.21875 32.558594 51.417969 32.78125 51.417969 33.03125 L 51.417969 36.636719 L 52.214844 36.339844 C 52.261719 36.3125 52.335938 36.3125 52.386719 36.3125 C 52.660156 36.3125 52.882812 36.539062 52.882812 36.8125 L 52.882812 38.304688 C 52.882812 38.503906 52.761719 38.703125 52.5625 38.777344 L 51.417969 39.175781 L 51.417969 43.152344 L 52.214844 42.878906 C 52.261719 42.855469 52.335938 42.855469 52.386719 42.855469 C 52.660156 42.855469 52.882812 43.078125 52.882812 43.351562 L 52.882812 44.84375 C 52.882812 45.042969 52.761719 45.21875 52.5625 45.292969 L 51.417969 45.714844 Z M 48.433594 40.269531 L 48.433594 44.25 L 50.496094 43.503906 L 50.496094 39.523438 Z M 48.433594 40.269531 "/>
<path style=" stroke:none;fill-rule:nonzero;fill:rgb(0%,0%,0%);fill-opacity:1;" d="M 23.390625 26.339844 C 23.390625 25.644531 23.960938 25.070312 24.65625 25.070312 C 25.355469 25.070312 25.925781 25.644531 25.925781 26.339844 C 25.925781 27.035156 25.355469 27.609375 24.65625 27.609375 C 23.960938 27.609375 23.390625 27.035156 23.390625 26.339844 Z M 23.390625 20.121094 C 23.390625 19.425781 23.960938 18.851562 24.65625 18.851562 C 25.355469 18.851562 25.925781 19.425781 25.925781 20.121094 C 25.925781 20.816406 25.355469 21.390625 24.65625 21.390625 C 23.960938 21.390625 23.390625 20.816406 23.390625 20.121094 Z M 15.304688 16.6875 C 19.585938 16.6875 22.59375 18.878906 22.59375 22.933594 C 22.59375 29.472656 16.050781 33.230469 9.757812 35.890625 C 9.683594 35.964844 9.609375 35.992188 9.535156 35.992188 C 9.363281 35.992188 9.210938 35.839844 9.210938 35.667969 C 9.210938 35.59375 9.238281 35.519531 9.3125 35.441406 C 14.335938 32.507812 19.558594 28.851562 19.558594 23.179688 C 19.558594 20.195312 17.992188 17.335938 15.304688 17.335938 C 13.464844 17.335938 12.097656 18.679688 11.476562 20.46875 C 11.75 20.34375 12.023438 20.269531 12.320312 20.269531 C 13.6875 20.269531 14.808594 21.390625 14.808594 22.757812 C 14.808594 24.199219 13.714844 25.394531 12.320312 25.394531 C 10.828125 25.394531 9.535156 24.226562 9.535156 22.757812 C 9.535156 19.449219 12.074219 16.6875 15.304688 16.6875 Z M 15.304688 16.6875 "/>
<path style=" stroke:none;fill-rule:nonzero;fill:rgb(0%,0%,0%);fill-opacity:1;" d="M 60.484375 19.847656 C 61.851562 19.847656 63.167969 20.542969 63.167969 22.0625 C 63.167969 23.828125 61.800781 25.070312 60.632812 25.769531 C 59.761719 26.289062 58.765625 26.613281 57.746094 26.613281 C 56.378906 26.613281 55.0625 25.917969 55.0625 24.398438 C 55.0625 22.632812 56.429688 21.390625 57.597656 20.695312 C 58.46875 20.171875 59.464844 19.847656 60.484375 19.847656 Z M 60.484375 19.847656 "/>
<path style=" stroke:none;fill-rule:nonzero;fill:rgb(0%,0%,0%);fill-opacity:1;" d="M 60.484375 26.066406 C 61.851562 26.066406 63.167969 26.761719 63.167969 28.28125 C 63.167969 30.046875 61.800781 31.289062 60.632812 31.984375 C 59.761719 32.507812 58.765625 32.832031 57.746094 32.832031 C 56.378906 32.832031 55.0625 32.136719 55.0625 30.617188 C 55.0625 28.851562 56.429688 27.609375 57.597656 26.910156 C 58.46875 26.390625 59.464844 26.066406 60.484375 26.066406 Z M 60.484375 26.066406 "/>
<path style=" stroke:none;fill-rule:nonzero;fill:rgb(0%,0%,0%);fill-opacity:1;" d="M 60.484375 32.285156 C 61.851562 32.285156 63.167969 32.980469 63.167969 34.5 C 63.167969 36.265625 61.800781 37.507812 60.632812 38.203125 C 59.761719 38.726562 58.765625 39.050781 57.746094 39.050781 C 56.378906 39.050781 55.0625 38.351562 55.0625 36.835938 C 55.0625 35.070312 56.429688 33.828125 57.597656 33.128906 C 58.46875 32.609375 59.464844 32.285156 60.484375 32.285156 Z M 60.484375 32.285156 "/>
<path style=" stroke:none;fill-rule:nonzero;fill:rgb(0%,0%,0%);fill-opacity:1;" d="M 60.484375 38.503906 C 61.851562 38.503906 63.167969 39.199219 63.167969 40.714844 C 63.167969 42.480469 61.800781 43.726562 60.632812 44.421875 C 59.761719 44.945312 58.765625 45.269531 57.746094 45.269531 C 56.378906 45.269531 55.0625 44.570312 55.0625 43.054688 C 55.0625 41.289062 56.429688 40.042969 57.597656 39.347656 C 58.46875 38.824219 59.464844 38.503906 60.484375 38.503906 Z M 60.484375 38.503906 "/>
</g>
</svg>
