<?xml version="1.0" encoding="UTF-8"?>
<svg xmlns="http://www.w3.org/2000/svg" xmlns:xlink="http://www.w3.org/1999/xlink" width="68.472344pt" height="47.884676pt" viewBox="0 0 68.472344 47.884676" version="1.1">
<g id="surface1">
<path style="fill:none;stroke-width:0.1;stroke-linecap:round;stroke-linejoin:round;stroke:rgb(0%,0%,0%);stroke-opacity:1;stroke-miterlimit:4;" d="M 0.049863 -0.0001075 L 8.752337 -0.0001075 " transform="matrix(6.218149,0,0,6.218149,4.561038,29.434262)"/>
<path style="fill:none;stroke-width:0.1;stroke-linecap:round;stroke-linejoin:round;stroke:rgb(0%,0%,0%);stroke-opacity:1;stroke-miterlimit:4;" d="M 0.049863 -0.000204149 L 8.752337 -0.000204149 " transform="matrix(6.218149,0,0,6.218149,4.561038,23.216113)"/>
<path style="fill:none;stroke-width:0.1;stroke-linecap:round;stroke-linejoin:round;stroke:rgb(0%,0%,0%);stroke-opacity:1;stroke-miterlimit:4;" d="M 0.049863 -0.000300797 L 8.752337 -0.000300797 " transform="matrix(6.218149,0,0,6.218149,4.561038,16.997964)"/>
<path style="fill:none;stroke-width:0.1;stroke-linecap:round;stroke-linejoin:round;stroke:rgb(0%,0%,0%);stroke-opacity:1;stroke-miterlimit:4;" d="M 0.049863 0.000230756 L 8.752337 0.000230756 " transform="matrix(6.218149,0,0,6.218149,4.561038,10.779815)"/>
<path style="fill:none;stroke-width:0.1;stroke-linecap:round;stroke-linejoin:round;stroke:rgb(0%,0%,0%);stroke-opacity:1;stroke-miterlimit:4;" d="M 0.049863 0.000133988 L 8.752337 0.000133988 " transform="matrix(6.218149,0,0,6.218149,4.561038,4.561667)"/>
<path style=" stroke:none;fill-rule:nonzero;fill:rgb(0%,0%,0%);fill-opacity:1;" d="M 40.160156 35.03125 L 50.140625 35.03125 C 50.484375 35.03125 50.765625 35.308594 50.765625 35.652344 C 50.765625 35.996094 50.484375 36.273438 50.140625 36.273438 L 40.160156 36.273438 C 39.816406 36.273438 39.539062 35.996094 39.539062 35.652344 C 39.539062 35.308594 39.816406 35.03125 40.160156 35.03125 Z M 40.160156 35.03125 "/>
<path style=" stroke:none;fill-rule:nonzero;fill:rgb(0%,0%,0%);fill-opacity:1;" d="M 48.175781 13.890625 L 48.488281 13.890625 C 48.625 13.890625 48.734375 14 48.734375 14.136719 L 48.734375 34.246094 C 48.734375 34.382812 48.625 34.496094 48.488281 34.496094 L 48.175781 34.496094 C 48.039062 34.496094 47.925781 34.382812 47.925781 34.246094 L 47.925781 14.136719 C 47.925781 14 48.039062 13.890625 48.175781 13.890625 Z M 48.175781 13.890625 "/>
<path style=" stroke:none;fill-rule:nonzero;fill:rgb(0%,0%,0%);fill-opacity:1;" d="M 34.148438 34.632812 L 34.121094 36.273438 L 34.121094 36.546875 C 34.121094 37.09375 34.148438 37.640625 34.222656 38.1875 C 35.339844 37.246094 36.535156 36.199219 36.535156 34.730469 C 36.535156 33.910156 36.1875 33.066406 35.464844 33.066406 C 34.695312 33.066406 34.171875 33.8125 34.148438 34.632812 Z M 33.101562 39.085938 L 32.804688 24.285156 C 33.003906 24.160156 33.25 24.085938 33.476562 24.085938 C 33.699219 24.085938 33.949219 24.160156 34.148438 24.285156 L 33.972656 32.867188 C 34.59375 32.34375 35.414062 32.019531 36.234375 32.019531 C 37.53125 32.019531 38.449219 33.214844 38.449219 34.558594 C 38.449219 36.546875 36.3125 37.46875 34.792969 38.761719 C 34.421875 39.085938 34.195312 39.707031 33.675781 39.707031 C 33.351562 39.707031 33.101562 39.433594 33.101562 39.085938 Z M 33.101562 39.085938 "/>
<path style=" stroke:none;fill-rule:nonzero;fill:rgb(0%,0%,0%);fill-opacity:1;" d="M 23.390625 13.890625 C 23.390625 13.191406 23.960938 12.621094 24.65625 12.621094 C 25.355469 12.621094 25.925781 13.191406 25.925781 13.890625 C 25.925781 14.585938 25.355469 15.15625 24.65625 15.15625 C 23.960938 15.15625 23.390625 14.585938 23.390625 13.890625 Z M 23.390625 7.671875 C 23.390625 6.972656 23.960938 6.402344 24.65625 6.402344 C 25.355469 6.402344 25.925781 6.972656 25.925781 7.671875 C 25.925781 8.367188 25.355469 8.9375 24.65625 8.9375 C 23.960938 8.9375 23.390625 8.367188 23.390625 7.671875 Z M 15.304688 4.238281 C 19.585938 4.238281 22.59375 6.425781 22.59375 10.480469 C 22.59375 17.023438 16.050781 20.777344 9.757812 23.441406 C 9.683594 23.515625 9.609375 23.539062 9.535156 23.539062 C 9.363281 23.539062 9.210938 23.390625 9.210938 23.214844 C 9.210938 23.140625 9.238281 23.066406 9.3125 22.992188 C 14.335938 20.058594 19.558594 16.402344 19.558594 10.730469 C 19.558594 7.746094 17.992188 4.886719 15.304688 4.886719 C 13.464844 4.886719 12.097656 6.226562 11.476562 8.019531 C 11.75 7.894531 12.023438 7.820312 12.320312 7.820312 C 13.6875 7.820312 14.808594 8.9375 14.808594 10.308594 C 14.808594 11.75 13.714844 12.945312 12.320312 12.945312 C 10.828125 12.945312 9.535156 11.773438 9.535156 10.308594 C 9.535156 7 12.074219 4.238281 15.304688 4.238281 Z M 15.304688 4.238281 "/>
<path style=" stroke:none;fill-rule:nonzero;fill:rgb(0%,0%,0%);fill-opacity:1;" d="M 46.046875 32.269531 C 47.417969 32.269531 48.734375 32.964844 48.734375 34.484375 C 48.734375 36.25 47.367188 37.492188 46.199219 38.1875 C 45.328125 38.710938 44.332031 39.035156 43.3125 39.035156 C 41.945312 39.035156 40.625 38.339844 40.625 36.820312 C 40.625 35.054688 41.996094 33.8125 43.164062 33.117188 C 44.035156 32.59375 45.027344 32.269531 46.046875 32.269531 Z M 46.046875 32.269531 "/>
</g>
</svg>
