<?xml version="1.0" encoding="UTF-8"?>
<svg xmlns="http://www.w3.org/2000/svg" xmlns:xlink="http://www.w3.org/1999/xlink" width="82.054772pt" height="54.278711pt" viewBox="0 0 82.054772 54.278711" version="1.1">
<g id="surface1">
<path style="fill:none;stroke-width:0.1;stroke-linecap:round;stroke-linejoin:round;stroke:rgb(0%,0%,0%);stroke-opacity:1;stroke-miterlimit:4;" d="M 0.049863 -0.0000416676 L 10.797133 -0.0000416676 " transform="matrix(6.218149,0,0,6.218149,4.561038,39.812759)"/>
<path style="fill:none;stroke-width:0.1;stroke-linecap:round;stroke-linejoin:round;stroke:rgb(0%,0%,0%);stroke-opacity:1;stroke-miterlimit:4;" d="M 0.049863 -0.000138316 L 10.797133 -0.000138316 " transform="matrix(6.218149,0,0,6.218149,4.561038,33.59461)"/>
<path style="fill:none;stroke-width:0.1;stroke-linecap:round;stroke-linejoin:round;stroke:rgb(0%,0%,0%);stroke-opacity:1;stroke-miterlimit:4;" d="M 0.049863 -0.000234965 L 10.797133 -0.000234965 " transform="matrix(6.218149,0,0,6.218149,4.561038,27.376461)"/>
<path style="fill:none;stroke-width:0.1;stroke-linecap:round;stroke-linejoin:round;stroke:rgb(0%,0%,0%);stroke-opacity:1;stroke-miterlimit:4;" d="M 0.049863 0.000296588 L 10.797133 0.000296588 " transform="matrix(6.218149,0,0,6.218149,4.561038,21.158312)"/>
<path style="fill:none;stroke-width:0.1;stroke-linecap:round;stroke-linejoin:round;stroke:rgb(0%,0%,0%);stroke-opacity:1;stroke-miterlimit:4;" d="M 0.049863 0.000199939 L 10.797133 0.000199939 " transform="matrix(6.218149,0,0,6.218149,4.561038,14.940163)"/>
<path style=" stroke:none;fill-rule:nonzero;fill:rgb(0%,0%,0%);fill-opacity:1;" d="M 60.894531 4.578125 L 61.203125 4.578125 C 61.339844 4.578125 61.453125 4.6875 61.453125 4.824219 L 61.453125 35.296875 C 61.453125 35.433594 61.339844 35.546875 61.203125 35.546875 L 60.894531 35.546875 C 60.753906 35.546875 60.644531 35.433594 60.644531 35.296875 L 60.644531 4.824219 C 60.644531 4.6875 60.753906 4.578125 60.894531 4.578125 Z M 60.894531 4.578125 "/>
<path style=" stroke:none;fill-rule:nonzero;fill:rgb(0%,0%,0%);fill-opacity:1;" d="M 49.699219 32.027344 C 49.699219 32.277344 49.5 32.5 49.25 32.5 C 49.003906 32.5 48.777344 32.277344 48.777344 32.027344 L 48.777344 28.421875 L 46.714844 29.191406 L 46.714844 33.121094 C 46.714844 33.371094 46.492188 33.59375 46.242188 33.59375 C 45.992188 33.59375 45.792969 33.371094 45.792969 33.121094 L 45.792969 29.515625 L 45 29.8125 C 44.949219 29.839844 44.875 29.839844 44.824219 29.839844 C 44.550781 29.839844 44.328125 29.613281 44.328125 29.339844 L 44.328125 27.847656 C 44.328125 27.648438 44.449219 27.449219 44.648438 27.375 L 45.792969 26.976562 L 45.792969 23 L 45 23.273438 C 44.949219 23.296875 44.875 23.296875 44.824219 23.296875 C 44.550781 23.296875 44.328125 23.074219 44.328125 22.800781 L 44.328125 21.308594 C 44.328125 21.109375 44.449219 20.933594 44.648438 20.859375 L 45.792969 20.4375 L 45.792969 16.507812 C 45.792969 16.257812 45.992188 16.035156 46.242188 16.035156 C 46.492188 16.035156 46.714844 16.257812 46.714844 16.507812 L 46.714844 20.113281 L 48.777344 19.34375 L 48.777344 15.414062 C 48.777344 15.164062 49.003906 14.941406 49.25 14.941406 C 49.5 14.941406 49.699219 15.164062 49.699219 15.414062 L 49.699219 19.019531 L 50.496094 18.722656 C 50.542969 18.695312 50.621094 18.695312 50.667969 18.695312 C 50.941406 18.695312 51.167969 18.917969 51.167969 19.195312 L 51.167969 20.6875 C 51.167969 20.882812 51.042969 21.082031 50.84375 21.160156 L 49.699219 21.554688 L 49.699219 25.535156 L 50.496094 25.261719 C 50.542969 25.238281 50.621094 25.238281 50.667969 25.238281 C 50.941406 25.238281 51.167969 25.460938 51.167969 25.734375 L 51.167969 27.226562 C 51.167969 27.425781 51.042969 27.601562 50.84375 27.675781 L 49.699219 28.097656 Z M 46.714844 22.652344 L 46.714844 26.628906 L 48.777344 25.882812 L 48.777344 21.90625 Z M 46.714844 22.652344 "/>
<path style=" stroke:none;fill-rule:nonzero;fill:rgb(0%,0%,0%);fill-opacity:1;" d="M 33.734375 30.484375 C 34.304688 31.058594 35.125 31.183594 35.945312 31.183594 C 36.097656 31.183594 36.195312 31.28125 36.195312 31.429688 L 36.417969 33.59375 C 36.445312 33.742188 36.320312 33.867188 36.171875 33.84375 L 34.007812 33.621094 C 33.882812 33.59375 33.757812 33.496094 33.757812 33.371094 C 33.757812 32.550781 33.632812 31.730469 33.0625 31.15625 C 32.488281 31.730469 32.390625 32.550781 32.390625 33.371094 C 32.390625 33.496094 32.265625 33.59375 32.140625 33.621094 L 29.953125 33.84375 C 29.804688 33.867188 29.679688 33.742188 29.703125 33.59375 L 29.925781 31.429688 C 29.925781 31.28125 30.027344 31.183594 30.175781 31.183594 C 30.996094 31.183594 31.816406 31.058594 32.390625 30.484375 C 31.816406 29.914062 30.996094 29.789062 30.175781 29.789062 C 30.027344 29.789062 29.925781 29.691406 29.925781 29.539062 L 29.703125 27.375 C 29.679688 27.226562 29.804688 27.101562 29.953125 27.128906 L 32.140625 27.351562 C 32.265625 27.375 32.363281 27.476562 32.363281 27.601562 C 32.363281 28.421875 32.488281 29.242188 33.0625 29.8125 C 33.632812 29.242188 33.757812 28.421875 33.757812 27.601562 C 33.757812 27.476562 33.882812 27.375 34.007812 27.351562 L 36.171875 27.128906 C 36.320312 27.101562 36.445312 27.226562 36.417969 27.375 L 36.195312 29.539062 C 36.195312 29.691406 36.097656 29.789062 35.945312 29.789062 C 35.125 29.789062 34.304688 29.914062 33.734375 30.484375 Z M 33.734375 30.484375 "/>
<path style=" stroke:none;fill-rule:nonzero;fill:rgb(0%,0%,0%);fill-opacity:1;" d="M 43.082031 44.464844 C 43.082031 44.710938 42.882812 44.9375 42.636719 44.9375 C 42.386719 44.9375 42.164062 44.710938 42.164062 44.464844 L 42.164062 40.855469 L 40.097656 41.628906 L 40.097656 45.558594 C 40.097656 45.808594 39.875 46.03125 39.625 46.03125 C 39.378906 46.03125 39.179688 45.808594 39.179688 45.558594 L 39.179688 41.953125 L 38.382812 42.25 C 38.332031 42.273438 38.257812 42.273438 38.207031 42.273438 C 37.933594 42.273438 37.710938 42.050781 37.710938 41.777344 L 37.710938 40.285156 C 37.710938 40.085938 37.835938 39.886719 38.035156 39.8125 L 39.179688 39.414062 L 39.179688 35.433594 L 38.382812 35.707031 C 38.332031 35.734375 38.257812 35.734375 38.207031 35.734375 C 37.933594 35.734375 37.710938 35.511719 37.710938 35.234375 L 37.710938 33.742188 C 37.710938 33.542969 37.835938 33.371094 38.035156 33.296875 L 39.179688 32.875 L 39.179688 28.945312 C 39.179688 28.695312 39.378906 28.472656 39.625 28.472656 C 39.875 28.472656 40.097656 28.695312 40.097656 28.945312 L 40.097656 32.550781 L 42.164062 31.777344 L 42.164062 27.847656 C 42.164062 27.601562 42.386719 27.375 42.636719 27.375 C 42.882812 27.375 43.082031 27.601562 43.082031 27.847656 L 43.082031 31.457031 L 43.878906 31.15625 C 43.929688 31.132812 44.003906 31.132812 44.054688 31.132812 C 44.328125 31.132812 44.550781 31.355469 44.550781 31.628906 L 44.550781 33.121094 C 44.550781 33.320312 44.425781 33.519531 44.226562 33.59375 L 43.082031 33.992188 L 43.082031 37.972656 L 43.878906 37.699219 C 43.929688 37.671875 44.003906 37.671875 44.054688 37.671875 C 44.328125 37.671875 44.550781 37.898438 44.550781 38.171875 L 44.550781 39.664062 C 44.550781 39.863281 44.425781 40.035156 44.226562 40.109375 L 43.082031 40.535156 Z M 40.097656 35.085938 L 40.097656 39.066406 L 42.164062 38.320312 L 42.164062 34.339844 Z M 40.097656 35.085938 "/>
<path style=" stroke:none;fill-rule:nonzero;fill:rgb(0%,0%,0%);fill-opacity:1;" d="M 23.390625 24.265625 C 23.390625 23.570312 23.960938 23 24.65625 23 C 25.355469 23 25.925781 23.570312 25.925781 24.265625 C 25.925781 24.964844 25.355469 25.535156 24.65625 25.535156 C 23.960938 25.535156 23.390625 24.964844 23.390625 24.265625 Z M 23.390625 18.050781 C 23.390625 17.351562 23.960938 16.78125 24.65625 16.78125 C 25.355469 16.78125 25.925781 17.351562 25.925781 18.050781 C 25.925781 18.746094 25.355469 19.316406 24.65625 19.316406 C 23.960938 19.316406 23.390625 18.746094 23.390625 18.050781 Z M 15.304688 14.617188 C 19.585938 14.617188 22.59375 16.804688 22.59375 20.859375 C 22.59375 27.402344 16.050781 31.15625 9.757812 33.820312 C 9.683594 33.894531 9.609375 33.917969 9.535156 33.917969 C 9.363281 33.917969 9.210938 33.769531 9.210938 33.59375 C 9.210938 33.519531 9.238281 33.445312 9.3125 33.371094 C 14.335938 30.4375 19.558594 26.78125 19.558594 21.109375 C 19.558594 18.125 17.992188 15.261719 15.304688 15.261719 C 13.464844 15.261719 12.097656 16.605469 11.476562 18.398438 C 11.75 18.273438 12.023438 18.199219 12.320312 18.199219 C 13.6875 18.199219 14.808594 19.316406 14.808594 20.6875 C 14.808594 22.128906 13.714844 23.320312 12.320312 23.320312 C 10.828125 23.320312 9.535156 22.152344 9.535156 20.6875 C 9.535156 17.378906 12.074219 14.617188 15.304688 14.617188 Z M 15.304688 14.617188 "/>
<path style=" stroke:none;fill-rule:nonzero;fill:rgb(0%,0%,0%);fill-opacity:1;" d="M 58.765625 20.882812 C 60.132812 20.882812 61.453125 21.582031 61.453125 23.097656 C 61.453125 24.863281 60.082031 26.109375 58.914062 26.804688 C 58.042969 27.328125 57.050781 27.648438 56.027344 27.648438 C 54.660156 27.648438 53.34375 26.953125 53.34375 25.4375 C 53.34375 23.671875 54.710938 22.425781 55.878906 21.730469 C 56.75 21.207031 57.746094 20.882812 58.765625 20.882812 Z M 58.765625 20.882812 "/>
<path style=" stroke:none;fill-rule:nonzero;fill:rgb(0%,0%,0%);fill-opacity:1;" d="M 58.765625 27.101562 C 60.132812 27.101562 61.453125 27.800781 61.453125 29.316406 C 61.453125 31.082031 60.082031 32.324219 58.914062 33.023438 C 58.042969 33.542969 57.050781 33.867188 56.027344 33.867188 C 54.660156 33.867188 53.34375 33.171875 53.34375 31.65625 C 53.34375 29.886719 54.710938 28.644531 55.878906 27.949219 C 56.75 27.425781 57.746094 27.101562 58.765625 27.101562 Z M 58.765625 27.101562 "/>
<path style=" stroke:none;fill-rule:nonzero;fill:rgb(0%,0%,0%);fill-opacity:1;" d="M 58.765625 33.320312 C 60.132812 33.320312 61.453125 34.015625 61.453125 35.535156 C 61.453125 37.300781 60.082031 38.542969 58.914062 39.242188 C 58.042969 39.761719 57.050781 40.085938 56.027344 40.085938 C 54.660156 40.085938 53.34375 39.390625 53.34375 37.871094 C 53.34375 36.105469 54.710938 34.863281 55.878906 34.167969 C 56.75 33.644531 57.746094 33.320312 58.765625 33.320312 Z M 58.765625 33.320312 "/>
</g>
</svg>
