<?xml version="1.0" encoding="UTF-8"?>
<svg xmlns="http://www.w3.org/2000/svg" xmlns:xlink="http://www.w3.org/1999/xlink" width="68.472344pt" height="49.035696pt" viewBox="0 0 68.472344 49.035696" version="1.1">
<g id="surface1">
<path style="fill:none;stroke-width:0.1;stroke-linecap:round;stroke-linejoin:round;stroke:rgb(0%,0%,0%);stroke-opacity:1;stroke-miterlimit:4;" d="M 0.049863 -0.000217086 L 8.752337 -0.000217086 " transform="matrix(6.218149,0,0,6.218149,4.561038,37.739631)"/>
<path style="fill:none;stroke-width:0.1;stroke-linecap:round;stroke-linejoin:round;stroke:rgb(0%,0%,0%);stroke-opacity:1;stroke-miterlimit:4;" d="M 0.049863 -0.000313735 L 8.752337 -0.000313735 " transform="matrix(6.218149,0,0,6.218149,4.561038,31.521482)"/>
<path style="fill:none;stroke-width:0.1;stroke-linecap:round;stroke-linejoin:round;stroke:rgb(0%,0%,0%);stroke-opacity:1;stroke-miterlimit:4;" d="M 0.049863 0.000217818 L 8.752337 0.000217818 " transform="matrix(6.218149,0,0,6.218149,4.561038,25.303333)"/>
<path style="fill:none;stroke-width:0.1;stroke-linecap:round;stroke-linejoin:round;stroke:rgb(0%,0%,0%);stroke-opacity:1;stroke-miterlimit:4;" d="M 0.049863 0.000121169 L 8.752337 0.000121169 " transform="matrix(6.218149,0,0,6.218149,4.561038,19.085184)"/>
<path style="fill:none;stroke-width:0.1;stroke-linecap:round;stroke-linejoin:round;stroke:rgb(0%,0%,0%);stroke-opacity:1;stroke-miterlimit:4;" d="M 0.049863 0.0000245208 L 8.752337 0.0000245208 " transform="matrix(6.218149,0,0,6.218149,4.561038,12.867035)"/>
<path style=" stroke:none;fill-rule:nonzero;fill:rgb(0%,0%,0%);fill-opacity:1;" d="M 36.984375 33.0625 C 36.984375 33.3125 36.785156 33.535156 36.535156 33.535156 C 36.285156 33.535156 36.0625 33.3125 36.0625 33.0625 L 36.0625 29.457031 L 33.996094 30.226562 L 33.996094 34.15625 C 33.996094 34.40625 33.773438 34.628906 33.523438 34.628906 C 33.277344 34.628906 33.078125 34.40625 33.078125 34.15625 L 33.078125 30.550781 L 32.28125 30.851562 C 32.230469 30.875 32.15625 30.875 32.109375 30.875 C 31.832031 30.875 31.609375 30.652344 31.609375 30.378906 L 31.609375 28.886719 C 31.609375 28.6875 31.734375 28.488281 31.933594 28.414062 L 33.078125 28.015625 L 33.078125 24.035156 L 32.28125 24.308594 C 32.230469 24.332031 32.15625 24.332031 32.109375 24.332031 C 31.832031 24.332031 31.609375 24.109375 31.609375 23.835938 L 31.609375 22.34375 C 31.609375 22.144531 31.734375 21.96875 31.933594 21.894531 L 33.078125 21.472656 L 33.078125 17.542969 C 33.078125 17.292969 33.277344 17.070312 33.523438 17.070312 C 33.773438 17.070312 33.996094 17.292969 33.996094 17.542969 L 33.996094 21.148438 L 36.0625 20.378906 L 36.0625 16.449219 C 36.0625 16.199219 36.285156 15.976562 36.535156 15.976562 C 36.785156 15.976562 36.984375 16.199219 36.984375 16.449219 L 36.984375 20.054688 L 37.777344 19.757812 C 37.828125 19.730469 37.902344 19.730469 37.953125 19.730469 C 38.226562 19.730469 38.449219 19.957031 38.449219 20.230469 L 38.449219 21.722656 C 38.449219 21.921875 38.324219 22.121094 38.125 22.195312 L 36.984375 22.59375 L 36.984375 26.570312 L 37.777344 26.296875 C 37.828125 26.273438 37.902344 26.273438 37.953125 26.273438 C 38.226562 26.273438 38.449219 26.496094 38.449219 26.769531 L 38.449219 28.261719 C 38.449219 28.460938 38.324219 28.636719 38.125 28.710938 L 36.984375 29.132812 Z M 33.996094 23.6875 L 33.996094 27.667969 L 36.0625 26.921875 L 36.0625 22.941406 Z M 33.996094 23.6875 "/>
<path style=" stroke:none;fill-rule:nonzero;fill:rgb(0%,0%,0%);fill-opacity:1;" d="M 48.175781 4.578125 L 48.488281 4.578125 C 48.625 4.578125 48.734375 4.6875 48.734375 4.824219 L 48.734375 36.332031 C 48.734375 36.472656 48.625 36.582031 48.488281 36.582031 L 48.175781 36.582031 C 48.039062 36.582031 47.925781 36.472656 47.925781 36.332031 L 47.925781 4.824219 C 47.925781 4.6875 48.039062 4.578125 48.175781 4.578125 Z M 48.175781 4.578125 "/>
<path style=" stroke:none;fill-rule:nonzero;fill:rgb(0%,0%,0%);fill-opacity:1;" d="M 23.390625 22.195312 C 23.390625 21.496094 23.960938 20.925781 24.65625 20.925781 C 25.355469 20.925781 25.925781 21.496094 25.925781 22.195312 C 25.925781 22.890625 25.355469 23.460938 24.65625 23.460938 C 23.960938 23.460938 23.390625 22.890625 23.390625 22.195312 Z M 23.390625 15.976562 C 23.390625 15.28125 23.960938 14.707031 24.65625 14.707031 C 25.355469 14.707031 25.925781 15.28125 25.925781 15.976562 C 25.925781 16.671875 25.355469 17.246094 24.65625 17.246094 C 23.960938 17.246094 23.390625 16.671875 23.390625 15.976562 Z M 15.304688 12.542969 C 19.585938 12.542969 22.59375 14.734375 22.59375 18.785156 C 22.59375 25.328125 16.050781 29.082031 9.757812 31.746094 C 9.683594 31.820312 9.609375 31.84375 9.535156 31.84375 C 9.363281 31.84375 9.210938 31.695312 9.210938 31.519531 C 9.210938 31.445312 9.238281 31.371094 9.3125 31.296875 C 14.335938 28.363281 19.558594 24.707031 19.558594 19.035156 C 19.558594 16.050781 17.992188 13.191406 15.304688 13.191406 C 13.464844 13.191406 12.097656 14.535156 11.476562 16.324219 C 11.75 16.199219 12.023438 16.125 12.320312 16.125 C 13.6875 16.125 14.808594 17.246094 14.808594 18.613281 C 14.808594 20.054688 13.714844 21.25 12.320312 21.25 C 10.828125 21.25 9.535156 20.082031 9.535156 18.613281 C 9.535156 15.304688 12.074219 12.542969 15.304688 12.542969 Z M 15.304688 12.542969 "/>
<path style=" stroke:none;fill-rule:nonzero;fill:rgb(0%,0%,0%);fill-opacity:1;" d="M 46.046875 21.921875 C 47.417969 21.921875 48.734375 22.617188 48.734375 24.132812 C 48.734375 25.898438 47.367188 27.144531 46.199219 27.839844 C 45.328125 28.363281 44.332031 28.6875 43.3125 28.6875 C 41.945312 28.6875 40.625 27.988281 40.625 26.472656 C 40.625 24.707031 41.996094 23.460938 43.164062 22.765625 C 44.035156 22.242188 45.027344 21.921875 46.046875 21.921875 Z M 46.046875 21.921875 "/>
<path style=" stroke:none;fill-rule:nonzero;fill:rgb(0%,0%,0%);fill-opacity:1;" d="M 46.046875 28.140625 C 47.417969 28.140625 48.734375 28.835938 48.734375 30.351562 C 48.734375 32.117188 47.367188 33.363281 46.199219 34.058594 C 45.328125 34.582031 44.332031 34.902344 43.3125 34.902344 C 41.945312 34.902344 40.625 34.207031 40.625 32.691406 C 40.625 30.925781 41.996094 29.679688 43.164062 28.984375 C 44.035156 28.460938 45.027344 28.140625 46.046875 28.140625 Z M 46.046875 28.140625 "/>
<path style=" stroke:none;fill-rule:nonzero;fill:rgb(0%,0%,0%);fill-opacity:1;" d="M 46.046875 34.355469 C 47.417969 34.355469 48.734375 35.054688 48.734375 36.570312 C 48.734375 38.335938 47.367188 39.582031 46.199219 40.277344 C 45.328125 40.800781 44.332031 41.121094 43.3125 41.121094 C 41.945312 41.121094 40.625 40.425781 40.625 38.910156 C 40.625 37.144531 41.996094 35.898438 43.164062 35.203125 C 44.035156 34.679688 45.027344 34.355469 46.046875 34.355469 Z M 46.046875 34.355469 "/>
</g>
</svg>
