<?xml version="1.0" encoding="UTF-8"?>
<svg xmlns="http://www.w3.org/2000/svg" xmlns:xlink="http://www.w3.org/1999/xlink" width="74.145743pt" height="60.37121pt" viewBox="0 0 74.145743 60.37121" version="1.1">
<g id="surface1">
<path style="fill:none;stroke-width:0.1;stroke-linecap:round;stroke-linejoin:round;stroke:rgb(0%,0%,0%);stroke-opacity:1;stroke-miterlimit:4;" d="M 0.049863 0.000275194 L 9.606691 0.000275194 " transform="matrix(6.218149,0,0,6.218149,4.561038,42.158445)"/>
<path style="fill:none;stroke-width:0.1;stroke-linecap:round;stroke-linejoin:round;stroke:rgb(0%,0%,0%);stroke-opacity:1;stroke-miterlimit:4;" d="M 0.049863 0.000178545 L 9.606691 0.000178545 " transform="matrix(6.218149,0,0,6.218149,4.561038,35.940296)"/>
<path style="fill:none;stroke-width:0.1;stroke-linecap:round;stroke-linejoin:round;stroke:rgb(0%,0%,0%);stroke-opacity:1;stroke-miterlimit:4;" d="M 0.049863 0.0000818968 L 9.606691 0.0000818968 " transform="matrix(6.218149,0,0,6.218149,4.561038,29.722147)"/>
<path style="fill:none;stroke-width:0.1;stroke-linecap:round;stroke-linejoin:round;stroke:rgb(0%,0%,0%);stroke-opacity:1;stroke-miterlimit:4;" d="M 0.049863 -0.0000147518 L 9.606691 -0.0000147518 " transform="matrix(6.218149,0,0,6.218149,4.561038,23.503998)"/>
<path style="fill:none;stroke-width:0.1;stroke-linecap:round;stroke-linejoin:round;stroke:rgb(0%,0%,0%);stroke-opacity:1;stroke-miterlimit:4;" d="M 0.049863 -0.0001114 L 9.606691 -0.0001114 " transform="matrix(6.218149,0,0,6.218149,4.561038,17.285849)"/>
<path style=" stroke:none;fill-rule:nonzero;fill:rgb(0%,0%,0%);fill-opacity:1;" d="M 36.828125 10.445312 L 55.453125 10.445312 C 55.796875 10.445312 56.074219 10.722656 56.074219 11.066406 C 56.074219 11.410156 55.796875 11.691406 55.453125 11.691406 L 36.828125 11.691406 C 36.484375 11.691406 36.207031 11.410156 36.207031 11.066406 C 36.207031 10.722656 36.484375 10.445312 36.828125 10.445312 Z M 36.828125 10.445312 "/>
<path style=" stroke:none;fill-rule:nonzero;fill:rgb(0%,0%,0%);fill-opacity:1;" d="M 34.589844 25.046875 C 34.589844 25.292969 34.390625 25.519531 34.140625 25.519531 C 33.890625 25.519531 33.667969 25.292969 33.667969 25.046875 L 33.667969 21.441406 L 31.605469 22.210938 L 31.605469 26.140625 C 31.605469 26.390625 31.378906 26.613281 31.132812 26.613281 C 30.882812 26.613281 30.683594 26.390625 30.683594 26.140625 L 30.683594 22.535156 L 29.886719 22.832031 C 29.835938 22.855469 29.761719 22.855469 29.714844 22.855469 C 29.441406 22.855469 29.214844 22.632812 29.214844 22.359375 L 29.214844 20.867188 C 29.214844 20.667969 29.339844 20.46875 29.539062 20.394531 L 30.683594 19.996094 L 30.683594 16.015625 L 29.886719 16.289062 C 29.835938 16.316406 29.761719 16.316406 29.714844 16.316406 C 29.441406 16.316406 29.214844 16.09375 29.214844 15.820312 L 29.214844 14.324219 C 29.214844 14.128906 29.339844 13.953125 29.539062 13.878906 L 30.683594 13.457031 L 30.683594 9.527344 C 30.683594 9.277344 30.882812 9.054688 31.132812 9.054688 C 31.378906 9.054688 31.605469 9.277344 31.605469 9.527344 L 31.605469 13.132812 L 33.667969 12.359375 L 33.667969 8.429688 C 33.667969 8.183594 33.890625 7.957031 34.140625 7.957031 C 34.390625 7.957031 34.589844 8.183594 34.589844 8.429688 L 34.589844 12.039062 L 35.382812 11.738281 C 35.433594 11.714844 35.507812 11.714844 35.558594 11.714844 C 35.832031 11.714844 36.054688 11.9375 36.054688 12.210938 L 36.054688 13.703125 C 36.054688 13.902344 35.929688 14.101562 35.734375 14.175781 L 34.589844 14.574219 L 34.589844 18.554688 L 35.382812 18.28125 C 35.433594 18.257812 35.507812 18.257812 35.558594 18.257812 C 35.832031 18.257812 36.054688 18.480469 36.054688 18.753906 L 36.054688 20.246094 C 36.054688 20.445312 35.929688 20.617188 35.734375 20.695312 L 34.589844 21.117188 Z M 31.605469 15.667969 L 31.605469 19.648438 L 33.667969 18.902344 L 33.667969 14.921875 Z M 31.605469 15.667969 "/>
<path style=" stroke:none;fill-rule:nonzero;fill:rgb(0%,0%,0%);fill-opacity:1;" d="M 46.1875 9.117188 L 46.496094 9.117188 C 46.636719 9.117188 46.746094 9.226562 46.746094 9.363281 L 46.746094 45.019531 C 46.746094 45.15625 46.636719 45.265625 46.496094 45.265625 L 46.1875 45.265625 C 46.050781 45.265625 45.9375 45.15625 45.9375 45.019531 L 45.9375 9.363281 C 45.9375 9.226562 46.050781 9.117188 46.1875 9.117188 Z M 46.1875 9.117188 "/>
<path style=" stroke:none;fill-rule:nonzero;fill:rgb(0%,0%,0%);fill-opacity:1;" d="M 16.152344 51.734375 L 16.003906 51.734375 C 13.316406 51.734375 11.152344 49.546875 11.152344 46.835938 C 11.152344 45.390625 12.46875 44.273438 13.9375 44.273438 C 15.28125 44.273438 16.300781 45.441406 16.300781 46.835938 C 16.300781 48.128906 15.230469 49.199219 13.9375 49.199219 C 13.664062 49.199219 13.414062 49.148438 13.167969 49.046875 C 13.8125 50.019531 14.859375 50.664062 16.078125 50.664062 L 16.175781 50.664062 Z M 21 40.988281 C 22.691406 40.390625 23.8125 38.625 23.8125 36.910156 C 23.8125 34.671875 22.171875 32.457031 19.507812 32.183594 C 20.105469 35.070312 20.652344 37.929688 21 40.988281 Z M 11.375 35.242188 C 11.375 38.601562 14.585938 41.386719 17.941406 41.386719 C 18.640625 41.386719 19.308594 41.335938 19.980469 41.238281 C 19.632812 38.078125 19.0625 35.144531 18.414062 32.183594 C 16.449219 32.382812 15.332031 33.703125 15.332031 35.144531 C 15.332031 36.238281 15.953125 37.40625 17.34375 38.203125 C 17.46875 38.328125 17.519531 38.453125 17.519531 38.578125 C 17.519531 38.851562 17.269531 39.125 16.972656 39.125 C 16.898438 39.125 16.824219 39.097656 16.75 39.074219 C 14.757812 38.003906 13.839844 36.214844 13.839844 34.472656 C 13.839844 32.285156 15.28125 30.144531 17.816406 29.574219 C 17.46875 28.128906 17.097656 26.664062 16.675781 25.21875 C 14.011719 28.230469 11.375 31.265625 11.375 35.242188 Z M 17.867188 42.457031 C 13.191406 42.457031 9.585938 38.179688 9.585938 33.15625 C 9.585938 28.753906 12.84375 25.542969 15.753906 22.1875 C 15.28125 20.644531 14.832031 19.078125 14.632812 17.460938 C 14.484375 16.167969 14.460938 14.875 14.460938 13.578125 C 14.460938 10.71875 15.828125 8.007812 18.167969 6.316406 C 18.316406 6.191406 18.515625 6.191406 18.664062 6.316406 C 20.429688 8.40625 21.972656 12.410156 21.972656 15.222656 C 21.972656 18.777344 19.832031 21.5625 17.496094 24.273438 C 18.015625 25.964844 18.464844 27.707031 18.886719 29.421875 C 18.988281 29.421875 19.113281 29.398438 19.210938 29.398438 C 23.066406 29.398438 25.578125 32.582031 25.578125 35.890625 C 25.578125 37.78125 24.757812 39.722656 22.917969 41.113281 C 22.371094 41.535156 21.746094 41.808594 21.101562 42.007812 C 21.175781 42.878906 21.226562 43.75 21.226562 44.621094 C 21.226562 45.09375 21.199219 45.589844 21.175781 46.0625 C 21 49.023438 18.988281 51.660156 16.152344 51.734375 L 16.175781 50.664062 C 18.488281 50.613281 19.980469 48.375 20.132812 45.914062 C 20.15625 45.464844 20.179688 44.992188 20.179688 44.546875 C 20.179688 43.773438 20.15625 43.027344 20.082031 42.257812 C 19.359375 42.382812 18.640625 42.457031 17.867188 42.457031 Z M 20.179688 13.15625 C 20.179688 11.789062 20.082031 11.191406 19.683594 9.949219 C 17.222656 11.140625 15.652344 13.65625 15.652344 16.390625 C 15.652344 18.230469 16.101562 19.699219 16.550781 21.214844 C 18.539062 18.804688 20.179688 16.289062 20.179688 13.15625 Z M 20.179688 13.15625 "/>
<path style=" stroke:none;fill-rule:nonzero;fill:rgb(0%,0%,0%);fill-opacity:1;" d="M 51.359375 4.574219 C 52.726562 4.574219 54.046875 5.273438 54.046875 6.789062 C 54.046875 8.554688 52.679688 9.800781 51.507812 10.496094 C 50.640625 11.019531 49.644531 11.339844 48.625 11.339844 C 47.257812 11.339844 45.9375 10.644531 45.9375 9.128906 C 45.9375 7.363281 47.304688 6.117188 48.476562 5.421875 C 49.34375 4.898438 50.339844 4.574219 51.359375 4.574219 Z M 51.359375 4.574219 "/>
<path style=" stroke:none;fill-rule:nonzero;fill:rgb(0%,0%,0%);fill-opacity:1;" d="M 43.65625 7.683594 C 45.023438 7.683594 46.339844 8.382812 46.339844 9.898438 C 46.339844 11.664062 44.972656 12.910156 43.804688 13.605469 C 42.933594 14.128906 41.9375 14.449219 40.917969 14.449219 C 39.550781 14.449219 38.230469 13.753906 38.230469 12.238281 C 38.230469 10.472656 39.601562 9.226562 40.769531 8.53125 C 41.640625 8.007812 42.632812 7.683594 43.65625 7.683594 Z M 43.65625 7.683594 "/>
<path style=" stroke:none;fill-rule:nonzero;fill:rgb(0%,0%,0%);fill-opacity:1;" d="M 51.359375 13.902344 C 52.726562 13.902344 54.046875 14.597656 54.046875 16.117188 C 54.046875 17.882812 52.679688 19.125 51.507812 19.824219 C 50.640625 20.34375 49.644531 20.667969 48.625 20.667969 C 47.257812 20.667969 45.9375 19.972656 45.9375 18.453125 C 45.9375 16.6875 47.304688 15.445312 48.476562 14.75 C 49.34375 14.226562 50.339844 13.902344 51.359375 13.902344 Z M 51.359375 13.902344 "/>
<path style=" stroke:none;fill-rule:nonzero;fill:rgb(0%,0%,0%);fill-opacity:1;" d="M 51.359375 20.121094 C 52.726562 20.121094 54.046875 20.816406 54.046875 22.335938 C 54.046875 24.101562 52.679688 25.34375 51.507812 26.039062 C 50.640625 26.5625 49.644531 26.886719 48.625 26.886719 C 47.257812 26.886719 45.9375 26.191406 45.9375 24.671875 C 45.9375 22.90625 47.304688 21.664062 48.476562 20.96875 C 49.34375 20.445312 50.339844 20.121094 51.359375 20.121094 Z M 51.359375 20.121094 "/>
</g>
</svg>
