<?xml version="1.0" encoding="UTF-8"?>
<svg xmlns="http://www.w3.org/2000/svg" xmlns:xlink="http://www.w3.org/1999/xlink" width="68.472344pt" height="64.987243pt" viewBox="0 0 68.472344 64.987243" version="1.1">
<g id="surface1">
<path style="fill:none;stroke-width:0.1;stroke-linecap:round;stroke-linejoin:round;stroke:rgb(0%,0%,0%);stroke-opacity:1;stroke-miterlimit:4;" d="M 0.049863 -0.000287501 L 8.752337 -0.000287501 " transform="matrix(6.218149,0,0,6.218149,4.561038,40.517413)"/>
<path style="fill:none;stroke-width:0.1;stroke-linecap:round;stroke-linejoin:round;stroke:rgb(0%,0%,0%);stroke-opacity:1;stroke-miterlimit:4;" d="M 0.049863 0.000244052 L 8.752337 0.000244052 " transform="matrix(6.218149,0,0,6.218149,4.561038,34.299264)"/>
<path style="fill:none;stroke-width:0.1;stroke-linecap:round;stroke-linejoin:round;stroke:rgb(0%,0%,0%);stroke-opacity:1;stroke-miterlimit:4;" d="M 0.049863 0.000147403 L 8.752337 0.000147403 " transform="matrix(6.218149,0,0,6.218149,4.561038,28.081115)"/>
<path style="fill:none;stroke-width:0.1;stroke-linecap:round;stroke-linejoin:round;stroke:rgb(0%,0%,0%);stroke-opacity:1;stroke-miterlimit:4;" d="M 0.049863 0.0000507548 L 8.752337 0.0000507548 " transform="matrix(6.218149,0,0,6.218149,4.561038,21.862966)"/>
<path style="fill:none;stroke-width:0.1;stroke-linecap:round;stroke-linejoin:round;stroke:rgb(0%,0%,0%);stroke-opacity:1;stroke-miterlimit:4;" d="M 0.049863 -0.0000458938 L 8.752337 -0.0000458938 " transform="matrix(6.218149,0,0,6.218149,4.561038,15.644817)"/>
<path style=" stroke:none;fill-rule:nonzero;fill:rgb(0%,0%,0%);fill-opacity:1;" d="M 39.21875 46.113281 L 57.847656 46.113281 C 58.191406 46.113281 58.46875 46.390625 58.46875 46.734375 C 58.46875 47.078125 58.191406 47.355469 57.847656 47.355469 L 39.21875 47.355469 C 38.878906 47.355469 38.597656 47.078125 38.597656 46.734375 C 38.597656 46.390625 38.878906 46.113281 39.21875 46.113281 Z M 39.21875 46.113281 "/>
<path style=" stroke:none;fill-rule:nonzero;fill:rgb(0%,0%,0%);fill-opacity:1;" d="M 48.175781 24.972656 L 48.488281 24.972656 C 48.625 24.972656 48.734375 25.082031 48.734375 25.222656 L 48.734375 48.4375 C 48.734375 48.574219 48.625 48.6875 48.488281 48.6875 L 48.175781 48.6875 C 48.039062 48.6875 47.925781 48.574219 47.925781 48.4375 L 47.925781 25.222656 C 47.925781 25.082031 48.039062 24.972656 48.175781 24.972656 Z M 48.175781 24.972656 "/>
<path style=" stroke:none;fill-rule:nonzero;fill:rgb(0%,0%,0%);fill-opacity:1;" d="M 36.984375 54.496094 C 36.984375 54.746094 36.785156 54.96875 36.535156 54.96875 C 36.285156 54.96875 36.0625 54.746094 36.0625 54.496094 L 36.0625 50.890625 L 33.996094 51.660156 L 33.996094 55.589844 C 33.996094 55.839844 33.773438 56.0625 33.523438 56.0625 C 33.277344 56.0625 33.078125 55.839844 33.078125 55.589844 L 33.078125 51.984375 L 32.28125 52.28125 C 32.230469 52.308594 32.15625 52.308594 32.109375 52.308594 C 31.832031 52.308594 31.609375 52.082031 31.609375 51.808594 L 31.609375 50.316406 C 31.609375 50.117188 31.734375 49.917969 31.933594 49.84375 L 33.078125 49.445312 L 33.078125 45.46875 L 32.28125 45.742188 C 32.230469 45.765625 32.15625 45.765625 32.109375 45.765625 C 31.832031 45.765625 31.609375 45.542969 31.609375 45.269531 L 31.609375 43.777344 C 31.609375 43.578125 31.734375 43.402344 31.933594 43.328125 L 33.078125 42.90625 L 33.078125 38.976562 C 33.078125 38.726562 33.277344 38.503906 33.523438 38.503906 C 33.773438 38.503906 33.996094 38.726562 33.996094 38.976562 L 33.996094 42.582031 L 36.0625 41.8125 L 36.0625 37.882812 C 36.0625 37.632812 36.285156 37.410156 36.535156 37.410156 C 36.785156 37.410156 36.984375 37.632812 36.984375 37.882812 L 36.984375 41.488281 L 37.777344 41.1875 C 37.828125 41.164062 37.902344 41.164062 37.953125 41.164062 C 38.226562 41.164062 38.449219 41.386719 38.449219 41.660156 L 38.449219 43.152344 C 38.449219 43.351562 38.324219 43.550781 38.125 43.625 L 36.984375 44.023438 L 36.984375 48.003906 L 37.777344 47.730469 C 37.828125 47.707031 37.902344 47.707031 37.953125 47.707031 C 38.226562 47.707031 38.449219 47.929688 38.449219 48.203125 L 38.449219 49.695312 C 38.449219 49.894531 38.324219 50.070312 38.125 50.144531 L 36.984375 50.566406 Z M 33.996094 45.117188 L 33.996094 49.097656 L 36.0625 48.351562 L 36.0625 44.371094 Z M 33.996094 45.117188 "/>
<path style=" stroke:none;fill-rule:nonzero;fill:rgb(0%,0%,0%);fill-opacity:1;" d="M 16.152344 50.09375 L 16.003906 50.09375 C 13.316406 50.09375 11.152344 47.90625 11.152344 45.195312 C 11.152344 43.75 12.46875 42.632812 13.9375 42.632812 C 15.28125 42.632812 16.300781 43.800781 16.300781 45.195312 C 16.300781 46.488281 15.230469 47.554688 13.9375 47.554688 C 13.664062 47.554688 13.414062 47.507812 13.167969 47.40625 C 13.8125 48.378906 14.859375 49.023438 16.078125 49.023438 L 16.175781 49.023438 Z M 21 39.347656 C 22.691406 38.75 23.8125 36.984375 23.8125 35.269531 C 23.8125 33.03125 22.171875 30.816406 19.507812 30.542969 C 20.105469 33.429688 20.652344 36.289062 21 39.347656 Z M 11.375 33.601562 C 11.375 36.960938 14.585938 39.746094 17.941406 39.746094 C 18.640625 39.746094 19.308594 39.695312 19.980469 39.597656 C 19.632812 36.4375 19.0625 33.503906 18.414062 30.542969 C 16.449219 30.742188 15.332031 32.0625 15.332031 33.503906 C 15.332031 34.597656 15.953125 35.765625 17.34375 36.5625 C 17.46875 36.6875 17.519531 36.8125 17.519531 36.9375 C 17.519531 37.210938 17.269531 37.484375 16.972656 37.484375 C 16.898438 37.484375 16.824219 37.457031 16.75 37.433594 C 14.757812 36.363281 13.839844 34.574219 13.839844 32.832031 C 13.839844 30.644531 15.28125 28.503906 17.816406 27.933594 C 17.46875 26.488281 17.097656 25.023438 16.675781 23.578125 C 14.011719 26.589844 11.375 29.625 11.375 33.601562 Z M 17.867188 40.816406 C 13.191406 40.816406 9.585938 36.539062 9.585938 31.511719 C 9.585938 27.109375 12.84375 23.902344 15.753906 20.542969 C 15.28125 19.003906 14.832031 17.4375 14.632812 15.820312 C 14.484375 14.527344 14.460938 13.230469 14.460938 11.9375 C 14.460938 9.078125 15.828125 6.367188 18.167969 4.675781 C 18.316406 4.550781 18.515625 4.550781 18.664062 4.675781 C 20.429688 6.765625 21.972656 10.769531 21.972656 13.582031 C 21.972656 17.136719 19.832031 19.921875 17.496094 22.632812 C 18.015625 24.324219 18.464844 26.066406 18.886719 27.78125 C 18.988281 27.78125 19.113281 27.757812 19.210938 27.757812 C 23.066406 27.757812 25.578125 30.941406 25.578125 34.25 C 25.578125 36.140625 24.757812 38.078125 22.917969 39.472656 C 22.371094 39.894531 21.746094 40.167969 21.101562 40.367188 C 21.175781 41.238281 21.226562 42.109375 21.226562 42.980469 C 21.226562 43.453125 21.199219 43.949219 21.175781 44.421875 C 21 47.382812 18.988281 50.019531 16.152344 50.09375 L 16.175781 49.023438 C 18.488281 48.972656 19.980469 46.734375 20.132812 44.273438 C 20.15625 43.824219 20.179688 43.351562 20.179688 42.90625 C 20.179688 42.132812 20.15625 41.386719 20.082031 40.617188 C 19.359375 40.742188 18.640625 40.816406 17.867188 40.816406 Z M 20.179688 11.515625 C 20.179688 10.148438 20.082031 9.550781 19.683594 8.308594 C 17.222656 9.5 15.652344 12.011719 15.652344 14.75 C 15.652344 16.589844 16.101562 18.058594 16.550781 19.574219 C 18.539062 17.160156 20.179688 14.648438 20.179688 11.515625 Z M 20.179688 11.515625 "/>
<path style=" stroke:none;fill-rule:nonzero;fill:rgb(0%,0%,0%);fill-opacity:1;" d="M 53.753906 43.351562 C 55.121094 43.351562 56.441406 44.050781 56.441406 45.566406 C 56.441406 47.332031 55.074219 48.574219 53.902344 49.273438 C 53.03125 49.792969 52.039062 50.117188 51.019531 50.117188 C 49.648438 50.117188 48.332031 49.421875 48.332031 47.90625 C 48.332031 46.136719 49.699219 44.894531 50.867188 44.199219 C 51.738281 43.675781 52.734375 43.351562 53.753906 43.351562 Z M 53.753906 43.351562 "/>
<path style=" stroke:none;fill-rule:nonzero;fill:rgb(0%,0%,0%);fill-opacity:1;" d="M 46.046875 46.460938 C 47.417969 46.460938 48.734375 47.160156 48.734375 48.675781 C 48.734375 50.441406 47.367188 51.683594 46.199219 52.382812 C 45.328125 52.902344 44.332031 53.226562 43.3125 53.226562 C 41.945312 53.226562 40.625 52.53125 40.625 51.011719 C 40.625 49.246094 41.996094 48.003906 43.164062 47.308594 C 44.035156 46.785156 45.027344 46.460938 46.046875 46.460938 Z M 46.046875 46.460938 "/>
</g>
</svg>
