<?xml version="1.0" encoding="UTF-8"?>
<!-- Generator: Adobe Illustrator 21.1.0, SVG Export Plug-In . SVG Version: 6.00 Build 0)  -->
<svg version="1.1" id="Icons" xmlns="http://www.w3.org/2000/svg" xmlns:xlink="http://www.w3.org/1999/xlink" x="0px" y="0px" viewBox="0 0 48 48" style="enable-background:new 0 0 48 48;" xml:space="preserve">
<style type="text/css">
	.st0{opacity:0.15;fill:#45413C;}
	.st1{fill:#DAEDF7;stroke:#45413C;stroke-linecap:round;stroke-linejoin:round;stroke-miterlimit:10;}
	.st2{fill:#656769;}
	.st3{fill:#87898C;}
	.st4{fill:none;stroke:#45413C;stroke-linecap:round;stroke-linejoin:round;stroke-miterlimit:10;}
	.st5{fill:#DAEDF7;}
	.st6{fill:#E8F4FA;}
	.st7{fill:#FFFFFF;}
	.st8{fill:#E0E0E0;}
	.st9{fill:#00B8F0;}
	.st10{fill:#FF6242;stroke:#45413C;stroke-linecap:round;stroke-linejoin:round;stroke-miterlimit:10;}
	.st11{fill:#FFE500;stroke:#45413C;stroke-linecap:round;stroke-linejoin:round;stroke-miterlimit:10;}
	.st12{fill:#00DBA8;stroke:#45413C;stroke-linecap:round;stroke-linejoin:round;stroke-miterlimit:10;}
	.st13{fill:#BF8DF2;stroke:#45413C;stroke-linecap:round;stroke-linejoin:round;stroke-miterlimit:10;}
	.st14{fill:#00B8F0;stroke:#45413C;stroke-linecap:round;stroke-linejoin:round;stroke-miterlimit:10;}
	.st15{fill:#87898C;stroke:#45413C;stroke-linecap:round;stroke-linejoin:round;stroke-miterlimit:10;}
	.st16{fill:#FF6242;}
	.st17{fill:#E04122;}
	.st18{fill:#9CEB60;}
	.st19{fill:#6DD627;}
	.st20{fill:#FF866E;}
	.st21{fill:#F0F0F0;}
	.st22{fill:#009FD9;}
	.st23{fill:#656769;stroke:#45413C;stroke-linecap:round;stroke-linejoin:round;stroke-miterlimit:10;}
	.st24{fill:#ADC4D9;}
	.st25{fill:#8CA4B8;}
	.st26{fill:#BDBEC0;}
	.st27{fill:#C0DCEB;stroke:#45413C;stroke-linecap:round;stroke-linejoin:round;stroke-miterlimit:10;}
	.st28{fill:#4ACFFF;}
	.st29{fill:#FFFFFF;stroke:#45413C;stroke-linecap:round;stroke-linejoin:round;stroke-miterlimit:10;}
	.st30{fill:#C0DCEB;}
	.st31{fill:#FFAA54;stroke:#45413C;stroke-linecap:round;stroke-linejoin:round;stroke-miterlimit:10;}
	.st32{fill:#FF8A14;}
	.st33{fill:#FFAA54;}
	.st34{fill:#6DD627;stroke:#45413C;stroke-linecap:round;stroke-linejoin:round;stroke-miterlimit:10;}
	.st35{fill:#DEBB7E;}
	.st36{fill:#F0D5A8;}
	.st37{fill:none;stroke:#45413C;stroke-miterlimit:10;}
	.st38{fill:#FFE500;}
	.st39{fill:#FFF48C;}
	.st40{fill:#FFF48C;stroke:#45413C;stroke-linecap:round;stroke-linejoin:round;stroke-miterlimit:10;}
	.st41{fill:#FF8A14;stroke:#45413C;stroke-linecap:round;stroke-linejoin:round;stroke-miterlimit:10;}
	.st42{fill:#525252;}
	.st43{fill:#00F5BC;}
	.st44{fill:#8CFFE4;}
	.st45{fill:#00DBA8;}
	.st46{fill:#EBCB00;}
	.st47{fill:#FF866E;stroke:#45413C;stroke-linecap:round;stroke-linejoin:round;stroke-miterlimit:10;}
	.st48{fill:#FFCC99;}
	.st49{fill:#45413C;stroke:#45413C;stroke-linecap:round;stroke-linejoin:round;stroke-miterlimit:10;}
	.st50{fill:#C8FFA1;}
	.st51{fill:#BDBEC0;stroke:#45413C;stroke-linecap:round;stroke-linejoin:round;stroke-miterlimit:10;}
	.st52{fill:#80DDFF;}
	.st53{fill:#4ACFFF;stroke:#45413C;stroke-linecap:round;stroke-linejoin:round;stroke-miterlimit:10;}
	.st54{fill:#FFFCE5;}
	.st55{fill:#FFFACF;}
	.st56{fill:#627B8C;}
	.st57{fill:#BF8256;}
	.st58{fill:#DEA47A;}
	.st59{fill:#BF8256;stroke:#45413C;stroke-linecap:round;stroke-linejoin:round;stroke-miterlimit:10;}
	.st60{fill:#DEBB7E;stroke:#45413C;stroke-linecap:round;stroke-linejoin:round;stroke-miterlimit:10;}
	.st61{fill:#B89558;}
	.st62{fill:#B8ECFF;}
	.st63{fill:#F7E5C6;}
	.st64{fill:#FFF5E3;}
	.st65{fill:#915E3A;}
	.st66{fill:#45413C;stroke:#45413C;stroke-miterlimit:10;}
	.st67{fill:#FFB0CA;stroke:#45413C;stroke-linecap:round;stroke-linejoin:round;stroke-miterlimit:10;}
	.st68{fill:#FF87AF;stroke:#45413C;stroke-linecap:round;stroke-linejoin:round;stroke-miterlimit:10;}
	.st69{fill:#E5FEFF;}
	.st70{fill:#A6FBFF;}
	.st71{fill:#FFB0CA;}
	.st72{fill:#FF87AF;}
	.st73{fill:none;stroke:#45413C;stroke-linecap:round;stroke-miterlimit:10;}
	.st74{fill:#BF8DF2;}
	.st75{fill:#DABFF5;}
	.st76{fill:#4AEFF7;}
	.st77{fill:#00DFEB;}
	.st78{fill:#FFCEBF;}
	.st79{fill:#FF6196;stroke:#45413C;stroke-linecap:round;stroke-linejoin:round;stroke-miterlimit:10;}
	.st80{fill:#00DFEB;stroke:#45413C;stroke-linecap:round;stroke-linejoin:round;stroke-miterlimit:10;}
	.st81{fill:#FF6196;}
	.st82{fill:#EBCB00;stroke:#45413C;stroke-linecap:round;stroke-linejoin:round;stroke-miterlimit:10;}
	.st83{fill:#00F5BC;stroke:#45413C;stroke-linecap:round;stroke-linejoin:round;stroke-miterlimit:10;}
	.st84{fill:#4AEFF7;stroke:#45413C;stroke-linecap:round;stroke-linejoin:round;stroke-miterlimit:10;}
	.st85{fill:#46B000;}
	.st86{fill:#E0366F;}
	.st87{fill:#E0366F;stroke:#45413C;stroke-linecap:round;stroke-linejoin:round;stroke-miterlimit:10;}
	.st88{fill:none;stroke:#E04122;stroke-linecap:round;stroke-linejoin:round;stroke-miterlimit:10;}
	.st89{fill:#FFA694;}
	.st90{fill:#EDDBFF;stroke:#45413C;stroke-linecap:round;stroke-linejoin:round;stroke-miterlimit:10;}
	.st91{fill:none;stroke:#BF8DF2;stroke-linecap:round;stroke-linejoin:round;stroke-miterlimit:10;}
	.st92{fill:#EDDBFF;}
	.st93{fill:#DABFF5;stroke:#45413C;stroke-linecap:round;stroke-linejoin:round;stroke-miterlimit:10;}
	.st94{fill:#E04122;stroke:#45413C;stroke-linecap:round;stroke-linejoin:round;stroke-miterlimit:10;}
	.st95{fill:#EB6D00;}
	.st96{fill:none;stroke:#45413C;stroke-width:1.0064;stroke-linecap:round;stroke-linejoin:round;stroke-miterlimit:10;}
	.st97{fill:#915E3A;stroke:#45413C;stroke-linecap:round;stroke-linejoin:round;stroke-miterlimit:10;}
	.st98{fill:#E0E0E0;stroke:#45413C;stroke-linecap:round;stroke-linejoin:round;stroke-miterlimit:10;}
	.st99{fill:#F0F0F0;stroke:#45413C;stroke-linecap:round;stroke-linejoin:round;stroke-miterlimit:10;}
	.st100{fill:#46B000;stroke:#45413C;stroke-linecap:round;stroke-linejoin:round;stroke-miterlimit:10;}
	.st101{fill:#4F4B45;}
	.st102{fill:#FFDCD1;}
	.st103{fill:#8CA4B8;stroke:#45413C;stroke-linecap:round;stroke-linejoin:round;stroke-miterlimit:10;}
	.st104{fill:#E8F4FA;stroke:#45413C;stroke-linecap:round;stroke-linejoin:round;stroke-miterlimit:10;}
	.st105{fill:none;stroke:#48CF3E;stroke-linecap:round;stroke-linejoin:round;stroke-miterlimit:10;}
	.st106{fill:none;stroke:#FF4064;stroke-linecap:round;stroke-linejoin:round;stroke-miterlimit:10;}
	.st107{fill:none;stroke:#FFB700;stroke-linecap:round;stroke-linejoin:round;stroke-miterlimit:10;}
	.st108{fill:none;stroke:#00AED9;stroke-linecap:round;stroke-linejoin:round;stroke-miterlimit:10;}
	.st109{fill:#C0DCEB;stroke:#45413C;stroke-miterlimit:10;}
	.st110{fill:#525252;stroke:#45413C;stroke-linecap:round;stroke-linejoin:round;stroke-miterlimit:10;}
	.st111{fill:#FFF5E3;stroke:#45413C;stroke-linecap:round;stroke-linejoin:round;stroke-miterlimit:10;}
	.st112{fill:#FFFFFF;stroke:#45413C;stroke-linejoin:round;stroke-miterlimit:10;}
	.st113{fill:#F0C2A1;}
	.st114{fill:#DEA47A;stroke:#45413C;stroke-linecap:round;stroke-linejoin:round;stroke-miterlimit:10;}
	.st115{fill:#F0C2A1;stroke:#45413C;stroke-linecap:round;stroke-linejoin:round;stroke-miterlimit:10;}
	.st116{fill:#FFFEF2;}
	.st117{fill:#9CEB60;stroke:#45413C;stroke-linecap:round;stroke-linejoin:round;stroke-miterlimit:10;}
	.st118{fill:#9F5AE5;stroke:#45413C;stroke-linecap:round;stroke-linejoin:round;stroke-miterlimit:10;}
	.st119{fill:#627B8C;stroke:#45413C;stroke-linecap:round;stroke-linejoin:round;stroke-miterlimit:10;}
	.st120{fill:#FFFACF;stroke:#45413C;stroke-linecap:round;stroke-linejoin:round;stroke-miterlimit:10;}
</style>
<g id="XMLID_16675_">
	<ellipse id="XMLID_16688_" class="st0" cx="26" cy="45.5" rx="11.5" ry="1.5"/>
	<path id="XMLID_16687_" class="st4" d="M37,18.4c-10.8,2.5-10.6-0.6-21.7,0.9c-8.4,1.1-11.7,5.3-11.7,5.3l6.2,18.2   c0,0,3.4-4.2,11.7-5.3c11.1-1.5,11,1.6,21.7-0.9"/>
	<path id="XMLID_16686_" class="st4" d="M34.5,27.3c1.4-0.1,3.3-0.4,5.2-0.9"/>
	<path id="XMLID_16685_" class="st4" d="M6.3,32.7c1.2-1.5,5.2-4.5,11.8-5.4"/>
	<path id="XMLID_16684_" class="st4" d="M34.8,32.4c1.7-0.1,4-0.4,6.7-1"/>
	<path id="XMLID_16683_" class="st4" d="M8,37.7c1.2-1.5,5-4.5,11.8-5.4"/>
	<path id="XMLID_16682_" class="st4" d="M4.8,28.3c1.7-2.1,5.8-4.7,11.9-5.5c11.1-1.5,11,1.6,21.7-0.9"/>
	<path id="XMLID_16681_" class="st23" d="M7,21.9c-2.5,1.4-3.5,2.7-3.5,2.7l6.2,18.2c0,0,1.1-1.3,3.5-2.7L7,21.9z"/>
	<path id="XMLID_16676_" class="st53" d="M34.1,38.1c-0.2-0.8-0.5-1.7-0.9-2.7c0.7-0.8,1.3-1.8,1.7-2.8c1.7-4.7-1.5-8.2-5.6-7.7   c-0.8,0.1-1.6,0.3-2.2,0.7c-0.8-1.1-1.5-2.1-2.2-3c1.8-3.8,2.3-7,1.8-11.9c-0.4-4.8-4.3-10.9-8.1-8.2C15.2,5,16,13.9,19.8,19.7   c-1.2,1.6-2.2,3.9-3.1,6.6c-2.2,7.2,2.3,11.4,6.4,12.6c2.4,0.7,5.5,0,8-1.7c0.5,1.4,0.7,2.5,0.8,3c0.2,1-0.8,2.3-1.9,1.2   c-1.4-1.4-3.4-0.7-3.5,1c0,1.9,1.8,3.5,4.2,3C33.5,44.9,35.1,42.9,34.1,38.1z M32.1,33.3c-0.6-1.2-1.4-2.3-2.1-3.5   C32.6,29.5,33.7,31.2,32.1,33.3z M20.3,10.8c-0.2-5.6,4.8-6.2,3.6,0.9c-0.4,2.4-1.3,4-2.1,5.3C21.1,15.2,20.3,13,20.3,10.8z    M22.6,35c-1.6-1.9-1.3-5,1-9.8c0.5,0.7,1,1.4,1.4,2c-1.1,1.4-1.6,3.2-1.6,4.7c0.1,2.7,3,3.2,3,3.2s0.8-0.9-0.1-1.4   c-0.7-0.4-1-2.2,0.9-3.3c0.3,0.4,0.5,0.7,0.8,1.1c0.9,1.2,1.6,2.5,2.2,3.7C27.4,37.3,24.2,37,22.6,35z"/>
</g>
</svg>