<?xml version="1.0" encoding="utf-8"?>
<!-- Generator: Adobe Illustrator 21.1.0, SVG Export Plug-In . SVG Version: 6.00 Build 0)  -->
<svg version="1.1" id="Icons" xmlns="http://www.w3.org/2000/svg" xmlns:xlink="http://www.w3.org/1999/xlink" x="0px" y="0px"
	 viewBox="0 0 48 48" style="enable-background:new 0 0 48 48;" xml:space="preserve">
<style type="text/css">
	.st0{opacity:0.15;fill:#45413C;}
	.st1{fill:#DAEDF7;stroke:#45413C;stroke-linecap:round;stroke-linejoin:round;stroke-miterlimit:10;}
	.st2{fill:#656769;}
	.st3{fill:#87898C;}
	.st4{fill:none;stroke:#45413C;stroke-linecap:round;stroke-linejoin:round;stroke-miterlimit:10;}
	.st5{fill:#DAEDF7;}
	.st6{fill:#E8F4FA;}
	.st7{fill:#FFFFFF;}
	.st8{fill:#E0E0E0;}
	.st9{fill:#00B8F0;}
	.st10{fill:#FF6242;stroke:#45413C;stroke-linecap:round;stroke-linejoin:round;stroke-miterlimit:10;}
	.st11{fill:#FFE500;stroke:#45413C;stroke-linecap:round;stroke-linejoin:round;stroke-miterlimit:10;}
	.st12{fill:#00DBA8;stroke:#45413C;stroke-linecap:round;stroke-linejoin:round;stroke-miterlimit:10;}
	.st13{fill:#BF8DF2;stroke:#45413C;stroke-linecap:round;stroke-linejoin:round;stroke-miterlimit:10;}
	.st14{fill:#00B8F0;stroke:#45413C;stroke-linecap:round;stroke-linejoin:round;stroke-miterlimit:10;}
	.st15{fill:#87898C;stroke:#45413C;stroke-linecap:round;stroke-linejoin:round;stroke-miterlimit:10;}
	.st16{fill:#FF6242;}
	.st17{fill:#E04122;}
	.st18{fill:#9CEB60;}
	.st19{fill:#6DD627;}
	.st20{fill:#FF866E;}
	.st21{fill:#F0F0F0;}
	.st22{fill:#009FD9;}
	.st23{fill:#656769;stroke:#45413C;stroke-linecap:round;stroke-linejoin:round;stroke-miterlimit:10;}
	.st24{fill:#ADC4D9;}
	.st25{fill:#8CA4B8;}
	.st26{fill:#BDBEC0;}
	.st27{fill:#C0DCEB;stroke:#45413C;stroke-linecap:round;stroke-linejoin:round;stroke-miterlimit:10;}
	.st28{fill:#4ACFFF;}
	.st29{fill:#FFFFFF;stroke:#45413C;stroke-linecap:round;stroke-linejoin:round;stroke-miterlimit:10;}
	.st30{fill:#C0DCEB;}
	.st31{fill:#FFAA54;stroke:#45413C;stroke-linecap:round;stroke-linejoin:round;stroke-miterlimit:10;}
	.st32{fill:#FF8A14;}
	.st33{fill:#FFAA54;}
	.st34{fill:#6DD627;stroke:#45413C;stroke-linecap:round;stroke-linejoin:round;stroke-miterlimit:10;}
	.st35{fill:#DEBB7E;}
	.st36{fill:#F0D5A8;}
	.st37{fill:none;stroke:#45413C;stroke-miterlimit:10;}
	.st38{fill:#FFE500;}
	.st39{fill:#FFF48C;}
	.st40{fill:#FFF48C;stroke:#45413C;stroke-linecap:round;stroke-linejoin:round;stroke-miterlimit:10;}
	.st41{fill:#FF8A14;stroke:#45413C;stroke-linecap:round;stroke-linejoin:round;stroke-miterlimit:10;}
	.st42{fill:#525252;}
	.st43{fill:#00F5BC;}
	.st44{fill:#8CFFE4;}
	.st45{fill:#00DBA8;}
	.st46{fill:#EBCB00;}
	.st47{fill:#FF866E;stroke:#45413C;stroke-linecap:round;stroke-linejoin:round;stroke-miterlimit:10;}
	.st48{fill:#FFCC99;}
	.st49{fill:#45413C;stroke:#45413C;stroke-linecap:round;stroke-linejoin:round;stroke-miterlimit:10;}
	.st50{fill:#C8FFA1;}
	.st51{fill:#BDBEC0;stroke:#45413C;stroke-linecap:round;stroke-linejoin:round;stroke-miterlimit:10;}
	.st52{fill:#80DDFF;}
	.st53{fill:#4ACFFF;stroke:#45413C;stroke-linecap:round;stroke-linejoin:round;stroke-miterlimit:10;}
	.st54{fill:#FFFCE5;}
	.st55{fill:#FFFACF;}
	.st56{fill:#627B8C;}
	.st57{fill:#BF8256;}
	.st58{fill:#DEA47A;}
	.st59{fill:#BF8256;stroke:#45413C;stroke-linecap:round;stroke-linejoin:round;stroke-miterlimit:10;}
	.st60{fill:#DEBB7E;stroke:#45413C;stroke-linecap:round;stroke-linejoin:round;stroke-miterlimit:10;}
	.st61{fill:#B89558;}
	.st62{fill:#B8ECFF;}
	.st63{fill:#F7E5C6;}
	.st64{fill:#FFF5E3;}
	.st65{fill:#915E3A;}
	.st66{fill:#45413C;stroke:#45413C;stroke-miterlimit:10;}
	.st67{fill:#FFB0CA;stroke:#45413C;stroke-linecap:round;stroke-linejoin:round;stroke-miterlimit:10;}
	.st68{fill:#FF87AF;stroke:#45413C;stroke-linecap:round;stroke-linejoin:round;stroke-miterlimit:10;}
	.st69{fill:#E5FEFF;}
	.st70{fill:#A6FBFF;}
	.st71{fill:#FFB0CA;}
	.st72{fill:#FF87AF;}
	.st73{fill:none;stroke:#45413C;stroke-linecap:round;stroke-miterlimit:10;}
	.st74{fill:#BF8DF2;}
	.st75{fill:#DABFF5;}
	.st76{fill:#4AEFF7;}
	.st77{fill:#00DFEB;}
	.st78{fill:#FFCEBF;}
	.st79{fill:#FF6196;stroke:#45413C;stroke-linecap:round;stroke-linejoin:round;stroke-miterlimit:10;}
	.st80{fill:#00DFEB;stroke:#45413C;stroke-linecap:round;stroke-linejoin:round;stroke-miterlimit:10;}
	.st81{fill:#FF6196;}
	.st82{fill:#EBCB00;stroke:#45413C;stroke-linecap:round;stroke-linejoin:round;stroke-miterlimit:10;}
	.st83{fill:#00F5BC;stroke:#45413C;stroke-linecap:round;stroke-linejoin:round;stroke-miterlimit:10;}
	.st84{fill:#4AEFF7;stroke:#45413C;stroke-linecap:round;stroke-linejoin:round;stroke-miterlimit:10;}
	.st85{fill:#46B000;}
	.st86{fill:#E0366F;}
	.st87{fill:#E0366F;stroke:#45413C;stroke-linecap:round;stroke-linejoin:round;stroke-miterlimit:10;}
	.st88{fill:none;stroke:#E04122;stroke-linecap:round;stroke-linejoin:round;stroke-miterlimit:10;}
	.st89{fill:#FFA694;}
	.st90{fill:#EDDBFF;stroke:#45413C;stroke-linecap:round;stroke-linejoin:round;stroke-miterlimit:10;}
	.st91{fill:none;stroke:#BF8DF2;stroke-linecap:round;stroke-linejoin:round;stroke-miterlimit:10;}
	.st92{fill:#EDDBFF;}
	.st93{fill:#DABFF5;stroke:#45413C;stroke-linecap:round;stroke-linejoin:round;stroke-miterlimit:10;}
	.st94{fill:#E04122;stroke:#45413C;stroke-linecap:round;stroke-linejoin:round;stroke-miterlimit:10;}
	.st95{fill:#EB6D00;}
	.st96{fill:none;stroke:#45413C;stroke-width:1.0064;stroke-linecap:round;stroke-linejoin:round;stroke-miterlimit:10;}
	.st97{fill:#915E3A;stroke:#45413C;stroke-linecap:round;stroke-linejoin:round;stroke-miterlimit:10;}
	.st98{fill:#E0E0E0;stroke:#45413C;stroke-linecap:round;stroke-linejoin:round;stroke-miterlimit:10;}
	.st99{fill:#F0F0F0;stroke:#45413C;stroke-linecap:round;stroke-linejoin:round;stroke-miterlimit:10;}
	.st100{fill:#46B000;stroke:#45413C;stroke-linecap:round;stroke-linejoin:round;stroke-miterlimit:10;}
	.st101{fill:#4F4B45;}
	.st102{fill:#FFDCD1;}
	.st103{fill:#8CA4B8;stroke:#45413C;stroke-linecap:round;stroke-linejoin:round;stroke-miterlimit:10;}
	.st104{fill:#E8F4FA;stroke:#45413C;stroke-linecap:round;stroke-linejoin:round;stroke-miterlimit:10;}
	.st105{fill:none;stroke:#48CF3E;stroke-linecap:round;stroke-linejoin:round;stroke-miterlimit:10;}
	.st106{fill:none;stroke:#FF4064;stroke-linecap:round;stroke-linejoin:round;stroke-miterlimit:10;}
	.st107{fill:none;stroke:#FFB700;stroke-linecap:round;stroke-linejoin:round;stroke-miterlimit:10;}
	.st108{fill:none;stroke:#00AED9;stroke-linecap:round;stroke-linejoin:round;stroke-miterlimit:10;}
	.st109{fill:#C0DCEB;stroke:#45413C;stroke-miterlimit:10;}
	.st110{fill:#525252;stroke:#45413C;stroke-linecap:round;stroke-linejoin:round;stroke-miterlimit:10;}
	.st111{fill:#FFF5E3;stroke:#45413C;stroke-linecap:round;stroke-linejoin:round;stroke-miterlimit:10;}
	.st112{fill:#FFFFFF;stroke:#45413C;stroke-linejoin:round;stroke-miterlimit:10;}
	.st113{fill:#F0C2A1;}
	.st114{fill:#DEA47A;stroke:#45413C;stroke-linecap:round;stroke-linejoin:round;stroke-miterlimit:10;}
	.st115{fill:#F0C2A1;stroke:#45413C;stroke-linecap:round;stroke-linejoin:round;stroke-miterlimit:10;}
	.st116{fill:#FFFEF2;}
	.st117{fill:#9CEB60;stroke:#45413C;stroke-linecap:round;stroke-linejoin:round;stroke-miterlimit:10;}
	.st118{fill:#9F5AE5;stroke:#45413C;stroke-linecap:round;stroke-linejoin:round;stroke-miterlimit:10;}
	.st119{fill:#627B8C;stroke:#45413C;stroke-linecap:round;stroke-linejoin:round;stroke-miterlimit:10;}
	.st120{fill:#FFFACF;stroke:#45413C;stroke-linecap:round;stroke-linejoin:round;stroke-miterlimit:10;}
</style>
<g id="XMLID_16818_">
	<ellipse id="XMLID_16866_" class="st0" cx="22.4" cy="45.5" rx="9.1" ry="1.5"/>
	<path id="XMLID_16865_" class="st33" d="M24.3,21c0,0-3.7-3-5.7-0.2c-2,2.8-0.8,3.6-2.5,5.3c-1.6,1.6-4.8,1.2-7.8,5.4
		c-2.9,4,0,8.4,3.7,11.1c3.5,2.5,9,3.7,12-0.4c2.9-4,0.6-7.1,2.2-9.4c1.7-2.3,2.7-1.9,3.3-2.8c0.4-0.5,0.4-1.7,0.3-2.5
		c0-0.3-0.4-0.4-0.6-0.2c-0.5,0.7-1.4,1.5-2.2,0.9c-0.9-0.7-1-2.2,0.1-3.8c0.2-0.3,0.6-0.9,0.6-0.9L24.3,21z"/>
	<g id="XMLID_16863_">
		<path id="XMLID_16864_" class="st48" d="M8.8,34.8c3-4.2,6.1-3.8,7.8-5.4c1.7-1.7,0.5-2.5,2.5-5.3c2-2.8,5.7,0.2,5.7,0.2l1.6,1.2
			c0.1-0.4,0.3-0.8,0.6-1.2c0.2-0.3,0.6-0.9,0.6-0.9L24.3,21c0,0-3.7-3-5.7-0.2c-2,2.8-0.8,3.6-2.5,5.3c-1.6,1.6-4.8,1.2-7.8,5.4
			c-1.5,2.1-1.5,4.2-0.6,6.1C7.8,36.7,8.2,35.7,8.8,34.8z"/>
	</g>
	<path id="XMLID_16862_" class="st4" d="M24.3,21c0,0-3.7-3-5.7-0.2c-2,2.8-0.8,3.6-2.5,5.3c-1.6,1.6-4.8,1.2-7.8,5.4
		c-2.9,4,0,8.4,3.7,11.1c3.5,2.5,9,3.7,12-0.4c2.9-4,0.6-7.1,2.2-9.4c1.7-2.3,2.7-1.9,3.3-2.8c0.4-0.5,0.4-1.7,0.3-2.5
		c0-0.3-0.4-0.4-0.6-0.2c-0.5,0.7-1.4,1.5-2.2,0.9c-0.9-0.7-1-2.2,0.1-3.8c0.2-0.3,0.6-0.9,0.6-0.9L24.3,21z"/>
	<polygon id="XMLID_16861_" class="st36" points="32.7,10.2 15.1,33.8 18.9,36.5 35.7,12.4 	"/>
	<polygon id="XMLID_16860_" class="st63" points="34.2,11.3 32.7,10.2 15.1,33.8 17,35.1 	"/>
	<polygon id="XMLID_16859_" class="st4" points="32.7,10.2 15.1,33.8 18.9,36.5 35.7,12.4 	"/>
	<path id="XMLID_16858_" class="st33" d="M43.1,4.5c0.3,0.8,0.1,1.7-0.5,2.2l-6.9,5.6l-3-2.2l0.7-3.4c0.2-1,1-1.8,2-2.1l5.4-1.4
		C41.8,3.1,42.7,3.6,43.1,4.5z"/>
	<path id="XMLID_16857_" class="st48" d="M43.1,4.5c-0.4-0.9-1.3-1.3-2.2-1.1l-5.4,1.4c-1,0.3-1.8,1.1-2,2.1l-0.7,3.4l0.7,0.5
		l0.3-1.6c0.2-1,1-1.8,2-2.1l5.4-1.4c0.6-0.2,1.3,0,1.8,0.5C43.3,5.6,43.3,5,43.1,4.5z"/>
	<path class="st4" d="M43.1,4.5c-0.4-0.9-1.3-1.3-2.2-1.1l-5.4,1.4c-1,0.3-1.8,1.1-2,2.1l-0.7,3.4l3,2.2l6.9-5.6
		C43.2,6.2,43.4,5.3,43.1,4.5z"/>
	
		<rect id="XMLID_16856_" x="13.9" y="34.9" transform="matrix(0.811 0.5851 -0.5851 0.811 24.2483 -2.6436)" class="st29" width="4.7" height="2.6"/>
	<path class="st29" d="M17.8,39l-4.3-3.1c-0.5-0.3-1.1-0.2-1.5,0.2c-0.3,0.5-0.2,1.1,0.2,1.5l4.3,3.1c0.5,0.3,1.1,0.2,1.5-0.2
		C18.4,40,18.3,39.3,17.8,39z"/>
	<line id="XMLID_16855_" class="st4" x1="36.4" y1="8.2" x2="15.4" y2="37.3"/>
	<path class="st29" d="M24.6,27.7l-3-2.2c-0.5-0.3-1.1-0.2-1.5,0.2c-0.3,0.5-0.2,1.1,0.2,1.5l3,2.2c0.5,0.3,1.1,0.2,1.5-0.2
		C25.2,28.7,25.1,28,24.6,27.7z"/>
	<line id="XMLID_16854_" class="st4" x1="36" y1="7.4" x2="38.2" y2="11.6"/>
	<line id="XMLID_16853_" class="st4" x1="38.8" y1="6.2" x2="40.7" y2="9.8"/>
	<g id="XMLID_16849_">
		<circle id="XMLID_16852_" class="st105" cx="37.6" cy="23.9" r="1.3"/>
		<circle id="XMLID_16851_" class="st105" cx="43.9" cy="22.6" r="1.3"/>
		<polyline id="XMLID_16850_" class="st105" points="38.8,23.9 38.8,18.2 45.2,15.6 45.2,22.6 		"/>
	</g>
	<g id="XMLID_16846_">
		<circle id="XMLID_16848_" class="st106" cx="34.9" cy="44.4" r="1.7"/>
		<polyline id="XMLID_16847_" class="st106" points="36.6,44.4 36.6,36.9 39.1,38.5 		"/>
	</g>
	<g id="XMLID_16843_">
		<circle id="XMLID_16845_" class="st107" cx="8.6" cy="14.3" r="1.5"/>
		<polyline id="XMLID_16844_" class="st107" points="10.2,14.3 10.2,7.5 12.4,9 		"/>
	</g>
	<g id="XMLID_16834_">
		<line id="XMLID_16842_" class="st108" x1="24.1" y1="5.7" x2="24.1" y2="5.1"/>
		<line id="XMLID_16841_" class="st108" x1="25.3" y1="6.2" x2="25.7" y2="5.8"/>
		<line id="XMLID_16840_" class="st108" x1="25.8" y1="7.5" x2="26.4" y2="7.5"/>
		<line id="XMLID_16839_" class="st108" x1="25.3" y1="8.7" x2="25.7" y2="9.1"/>
		<line id="XMLID_16838_" class="st108" x1="24.1" y1="9.2" x2="24.1" y2="9.8"/>
		<line id="XMLID_16837_" class="st108" x1="22.8" y1="8.7" x2="22.4" y2="9.1"/>
		<line id="XMLID_16836_" class="st108" x1="22.3" y1="7.5" x2="21.7" y2="7.5"/>
		<line id="XMLID_16835_" class="st108" x1="22.8" y1="6.2" x2="22.4" y2="5.8"/>
	</g>
	<g id="XMLID_16831_">
		<line id="XMLID_16833_" class="st108" x1="4.6" y1="23.4" x2="4.6" y2="20.2"/>
		<line id="XMLID_16832_" class="st108" x1="3" y1="21.8" x2="6.2" y2="21.8"/>
	</g>
	<g id="XMLID_16828_">
		<line id="XMLID_16830_" class="st108" x1="43.9" y1="32.3" x2="43.9" y2="29.1"/>
		<line id="XMLID_16829_" class="st108" x1="42.3" y1="30.7" x2="45.5" y2="30.7"/>
	</g>
	<g id="XMLID_16825_">
		<line id="XMLID_16827_" class="st108" x1="33.3" y1="34.7" x2="33.3" y2="33.1"/>
		<line id="XMLID_16826_" class="st108" x1="32.5" y1="33.9" x2="34.1" y2="33.9"/>
	</g>
	<g id="XMLID_16822_">
		<line id="XMLID_16824_" class="st108" x1="20.9" y1="15.6" x2="20.9" y2="14"/>
		<line id="XMLID_16823_" class="st108" x1="20.1" y1="14.8" x2="21.6" y2="14.8"/>
	</g>
	<g id="XMLID_16819_">
		<line id="XMLID_16821_" class="st108" x1="3.8" y1="41.4" x2="3.8" y2="39.8"/>
		<line id="XMLID_16820_" class="st108" x1="3" y1="40.6" x2="4.6" y2="40.6"/>
	</g>
</g>
</svg>
