<?xml version="1.0" encoding="UTF-8" standalone="no"?>
<svg xmlns="http://www.w3.org/2000/svg" xmlns:xlink="http://www.w3.org/1999/xlink" width="48" height="48">
  <defs>
    <path id="q" fill-rule="evenodd" d="M-9.5 7.25a1.5 1.75 0 1 1-3 0 1.5 1.75 0 1 1 3 0z" color="#000" overflow="visible" style="marker:none"/>
  </defs>
  <defs>
    <linearGradient id="e">
      <stop offset="0" stop-color="#3d280a"/>
      <stop offset="1" stop-color="#3d280a" stop-opacity="0"/>
    </linearGradient>
    <linearGradient id="d">
      <stop offset="0"/>
      <stop offset="1" stop-opacity="0"/>
    </linearGradient>
    <linearGradient id="f">
      <stop offset="0" stop-color="#a15702"/>
      <stop offset="1" stop-color="#683c00"/>
    </linearGradient>
    <linearGradient id="c">
      <stop offset="0" stop-color="#f6e1cf"/>
      <stop offset=".5" stop-color="#e19d56"/>
      <stop offset="1" stop-color="#f4dcb7"/>
    </linearGradient>
    <linearGradient id="b">
      <stop offset="0" stop-color="#8f5402"/>
      <stop offset="1" stop-color="#6e4001"/>
    </linearGradient>
    <linearGradient id="a">
      <stop offset="0" stop-color="#fff"/>
      <stop offset="1" stop-color="#fff" stop-opacity=".29963899"/>
    </linearGradient>
    <linearGradient xlink:href="#a" id="o" x1="24" x2="24" y1="7.4000092" y2="38.329697" gradientUnits="userSpaceOnUse"/>
    <linearGradient xlink:href="#b" id="h" x1="-10.735215" x2="-9.25" y1="11.428152" y2="18.440943" gradientUnits="userSpaceOnUse"/>
    <linearGradient xlink:href="#b" id="k" x1="-10.153608" x2="-7.9586563" y1="10.91142" y2="18.145666" gradientUnits="userSpaceOnUse"/>
    <linearGradient xlink:href="#a" id="l" x1="-5.2680058" x2="-12.272349" y1="20.641153" y2="8.6855774" gradientUnits="userSpaceOnUse"/>
    <linearGradient xlink:href="#a" id="i" x1="-5.2680058" x2="-12.272349" y1="20.641153" y2="8.6855774" gradientUnits="userSpaceOnUse"/>
    <linearGradient xlink:href="#a" id="s" x1="29.064308" x2="12.860207" y1="39.4202" y2="2.4916291" gradientUnits="userSpaceOnUse"/>
    <radialGradient xlink:href="#c" id="m" cx="-14.822968" cy="20.156464" r="5.3293829" fx="-14.822968" fy="20.156464" gradientTransform="matrix(2.45184 1.17473 -1.32428 2.80558 46.03865 -21.18657)" gradientUnits="userSpaceOnUse"/>
    <radialGradient xlink:href="#c" id="j" cx="-3.0652061" cy="18.305458" r="5.3310089" fx="-3.0652061" fy="18.305458" gradientTransform="translate(7.834793 -46.7895) scale(3.55604)" gradientUnits="userSpaceOnUse"/>
    <radialGradient xlink:href="#d" id="g" cx="-6" cy="37.75" r="14" fx="-6" fy="37.75" gradientTransform="matrix(1 0 0 .26786 0 27.63839)" gradientUnits="userSpaceOnUse"/>
    <radialGradient xlink:href="#c" id="p" cx="24.00001" cy="32.820721" r="14.999994" fx="24.00001" fy="32.820721" gradientTransform="matrix(2.78388 0 0 1.96169 -42.81308 -33.63393)" gradientUnits="userSpaceOnUse"/>
    <radialGradient xlink:href="#e" id="r" cx="23.987946" cy="30.12611" r="10.987951" fx="23.987946" fy="30.12611" gradientTransform="matrix(1.83824 0 0 .85527 -20.10762 3.134087)" gradientUnits="userSpaceOnUse"/>
    <radialGradient xlink:href="#f" id="n" cx="24" cy="13.057613" r="16.971834" fx="24" fy="13.057613" gradientTransform="matrix(1.63506 0 0 1.83045 -15.24149 -12.15138)" gradientUnits="userSpaceOnUse"/>
  </defs>
  <path fill="url(#g)" fill-rule="evenodd" d="M8 37.75a14 3.75 0 1 1-28 0 14 3.75 0 1 1 28 0z" color="#000" opacity=".48453608" overflow="visible" style="marker:none" transform="matrix(1.53571 0 0 1.51296 33.46429 -17.11425)"/>
  <path fill="url(#h)" fill-rule="evenodd" stroke="#3d280a" stroke-linecap="round" stroke-linejoin="round" stroke-width=".83740312" d="M-4.5 14.75a4.75 4.75 0 1 1-9.5 0 4.75 4.75 0 1 1 9.5 0z" color="#000" overflow="visible" style="marker:none" transform="matrix(1.0421 0 0 1.36842 16.13946 .81579)"/>
  <path fill="none" stroke="url(#i)" stroke-linecap="round" stroke-linejoin="round" stroke-width="1.00918198" d="M-4.5 14.75a4.75 4.75 0 1 1-9.5 0 4.75 4.75 0 1 1 9.5 0z" color="#000" opacity=".2" overflow="visible" style="marker:none" transform="matrix(.8421 0 0 1.166 14.28947 3.84008)"/>
  <path fill="url(#j)" fill-rule="evenodd" stroke="#50340d" stroke-linecap="round" stroke-linejoin="round" stroke-width="1.14646637" d="M-4.5 14.75a4.75 4.75 0 1 1-9.5 0 4.75 4.75 0 1 1 9.5 0z" color="#000" overflow="visible" style="marker:none" transform="matrix(.79945 0 0 .95167 14.62707 7.030045)"/>
  <path fill="url(#k)" fill-rule="evenodd" stroke="#3d280a" stroke-linecap="round" stroke-linejoin="round" stroke-width=".83740354" d="M-4.5 14.75a4.75 4.75 0 1 1-9.5 0 4.75 4.75 0 1 1 9.5 0z" color="#000" overflow="visible" style="marker:none" transform="matrix(1.0421 0 0 1.36842 51.13946 .81579)"/>
  <path fill="none" stroke="url(#l)" stroke-linecap="round" stroke-linejoin="round" stroke-width="1.00918198" d="M-4.5 14.75a4.75 4.75 0 1 1-9.5 0 4.75 4.75 0 1 1 9.5 0z" color="#000" opacity=".2" overflow="visible" style="marker:none" transform="matrix(.8421 0 0 1.166 49.28947 3.80162)"/>
  <path fill="url(#m)" fill-rule="evenodd" stroke="#50340d" stroke-linecap="round" stroke-linejoin="round" stroke-width="1.15348637" d="M-4.5 14.75a4.75 4.75 0 1 1-9.5 0 4.75 4.75 0 1 1 9.5 0z" color="#000" overflow="visible" style="marker:none" transform="matrix(.78975 0 0 .95167 48.02639 7.030045)"/>
  <path fill="url(#n)" fill-rule="evenodd" stroke="#3d280a" stroke-linecap="round" stroke-linejoin="round" stroke-width=".99999958" d="M37.5 23.5c7.5 8 0 19-13.5 18.999981C10.5 42.499962 3 31.5 10.5 23.5 6.5 13 14.5 5.4999918 24 5.4999959 33.5 5.5 41.5 13 37.5 23.5z" color="#000" overflow="visible" style="marker:none"/>
  <path fill="none" stroke="url(#o)" stroke-linecap="round" stroke-linejoin="round" stroke-width=".99999928" d="M36.5 23.5c7 8 .203501 18.000017-12.500001 18C11.296497 41.499981 4.5 31.5 11.5 23.5 7.5 13 15.060498 6.5000053 23.999999 6.5000091 32.939499 6.500013 40.5 13 36.5 23.5z" color="#000" opacity=".3814433" overflow="visible" style="marker:none"/>
  <path fill="url(#p)" fill-rule="evenodd" stroke="#7a4f13" stroke-linecap="round" stroke-linejoin="round" stroke-width="1.00339544" d="M17.838217 10.504844C14.264974 10.725244 11.5 14.102208 11.5 18.5c0 1.915169.480445 3.910093 1.384633 5.308394C10.771363 25.573646 9.5 27 9.5016977 30.339227 9.5045488 35.947033 15 40.5 23.999992 40.498302 33 40.496604 38.494904 35.947033 38.498287 30.339227 38.5 27 37.228622 25.573646 35.115352 23.808394 36.01954 22.410093 36.5 20.415168 36.5 18.5c0-4.539658-2.96593-7.995156-6.700689-7.995156-2.450936 0-4.61225 1.586945-5.799319 3.960829-1.187068-2.373884-3.348382-3.960829-5.799318-3.960829-.116711 0-.247191-.00711-.362457 0z" color="#000" overflow="visible" style="marker:none"/>
  <use xlink:href="#q" fill-rule="evenodd" color="#000" overflow="visible" style="marker:none" transform="matrix(1.33333 0 0 1.42857 34.66666 11.14286)"/>
  <path fill="none" stroke="url(#r)" stroke-linecap="round" stroke-width="1.00000012" d="M13.499995 26.6c6.29277 2.4 14.683131 2.4 20.975901 0" opacity=".8814433"/>
  <path fill="none" stroke="url(#s)" stroke-linecap="round" stroke-linejoin="round" stroke-width="1.003" d="M18.263225 11.504636c-3.475804-.092332-5.923683 3.31225-5.901051 7.462085C12.371922 20.75417 13.158177 22.69493 14 24c-1.967512 1.647555-3.363465 2.902907-3.4983 6.016575-.22665 5.23391 4.971252 9.464175 13.498304 9.481726 8.398429.017287 13.646441-4.096531 13.498306-9.481726C37.412612 26.901167 35.967512 25.647555 34 24c.841824-1.30507 1.628719-3.245826 1.637851-5.033279.021758-4.258738-2.445472-7.777974-6.238523-7.462085C27.125312 11.694018 26 13 25 15c-.5.5-1.5.5-2 0-1-2-2-3.5-4.736775-3.495364z" color="#000" opacity=".4" overflow="visible" style="marker:none"/>
  <use xlink:href="#q" fill-rule="evenodd" color="#000" overflow="visible" style="marker:none" transform="matrix(1.33333 0 0 1.42857 42.66666 11.14286)"/>
</svg>